<?xml version="1.0" encoding="UTF-8"?>
<svg id="Layer_1" xmlns="http://www.w3.org/2000/svg" version="1.1" viewBox="0 0 288 279.96">
  <!-- Generator: Adobe Illustrator 30.5.1, SVG Export Plug-In . SVG Version: 2.1.4 Build 3)  -->
  <path d="M145.3,18.52c-100.68,0-111.28,54.34-111.68,80.37-.43,27.79.31,41.24,17.32,62.53,20.32,25.44,53.5,30.58,95.04,30.73,50.65.18,72.84-13.95,86.45-26.48,13.6-12.52,30.07-34.04,19.33-88.11-11.86-59.73-73.56-59.04-106.45-59.04ZM237.92,150.82c-7.77,9.27-26.98,35.96-89.94,36.09-62.31.13-108.34-17.21-108.46-79.3-.13-68.83,52.35-84.13,104.7-83.59,20.27.21,72.62-1.74,92.76,30.19,19.12,30.33,14.09,80.91.94,96.61Z"/>
  <path d="M200.2,63.47c-1.49.22-4.25,5.26-10.65,5.33-5.77.07-12.77-5.94-13.64-3.46-1.68,4.79,2.75,16.71,13.96,17.04,9.34.28,12.95-8.18,12.75-13.22-.16-4.01-.93-5.92-2.42-5.7ZM197.38,72.33c-.45,1.12-1.49,5.57-6.83,5.74-3.74.12-6.51-2.38-7.8-5.07-1.2-2.48,2.56-.52,7.34-.36,3.47.11,8.61-3.59,7.3-.31Z"/>
  <path d="M99.39,83.34c10.47-.07,13.68-5.59,15.04-7.39,1.41-1.88,2.92-11.04.64-11.51-2.28-.47-4.49,4.25-14.48,4.31-5.46.03-7.78-.84-10.17-1.62-.92-.3-2.74-1.36-4.71-2.52-1.52-.89-2.08,4.29-1.34,7.25s5.77,11.54,15.03,11.48ZM99.63,73.11c5.86.18,7.9-1.67,10.47-2.39,2.98-.83-1.38,8.79-9.87,8.55-7.18-.2-10.14-4.93-10.53-6.82-.55-2.65,4.37.49,9.93.66Z"/>
  <path d="M141.81,33.82c-78.12,2.28-88.86,41.6-90.61,67.63-1.62,24.17-1.62,35.56,14.9,52.73,15.18,15.78,52.97,21.44,70.34,21.33,21.48-.13,45.91,1.86,71.14-12.34,32.89-18.52,33.56-71.11,29.93-84.67-10.68-39.95-48.16-46.07-95.71-44.68ZM136.36,40.53c2.96-.37,15.84-.66,16.59,0,.75.66-1,42.94.5,46.92.74,1.98,5.39,8.29,4.06,10.03-1.02,1.33-6.39,1.41-8.96.41-1.35-.52-4.06-2.16-4.81-5.06-.35-1.37-.41-6.13-.91-6.8-.5-.66-2.57-.91-3.65,0-1.08.91-4.06,13.84-12.94,14.67-7.61.71-7.88-1.49-7.55-2.82.33-1.33,11.03-8.71,13.19-17.74,1.54-6.46,2.49-23.46,2.74-27.61.15-2.57-.91-11.69,1.74-12.02ZM65.78,71.87c7.63-10.53,21.53-25.3,46.45-28.93,13.64-1.99,16.34-1.08,16.67-.33.33.75.1,30.8-2.26,37.37-2.61,7.27-14.94,21.47-33.42,22.81-17.61,1.28-26.06-.77-29.34-4.72-5.31-6.38-5.01-16.65,1.91-26.2ZM57.9,101.63c.75-.25,2.65,1.74,2.82,2.74.17.99-2.65,2.65-3.32,2.49-.66-.17-.78-4.8.5-5.22ZM226.78,130.29c-4.2,12.12-15.44,33.54-53.29,37.97-30.49,3.57-72.75.27-88.59-9.12-15.84-9.39-27.12-18.65-27.25-33.68-.13-15.03,6.04-16.77,9.66-16.77s17.94,1.13,23.76.54c10.47-1.07,19.6-6.17,23.76-5.37,4.16.8,8.55,2.93,12.48,2.55,5.5-.54,9.26-6.57,13.02-5.23,3.76,1.34,6.54,5.13,14.9,4.03,15.17-2.01,11.01,1.07,24.43,3.89,15.28,3.21,27.92,0,34.63,1.21,6.71,1.21,16.11,9.53,12.48,19.99ZM232.57,91.1c-.67,3.53-.66,7.71-1,11.52-.18,2.11.33,11.69-.66,10.28-.77-1.09-2.16-2.24-4.81-4.39-1.57-1.27-6.22-2.9-6.05-4.15.17-1.24,5.06-4.72,6.22-5.97,2.28-2.44,6.49-8.28,6.3-7.3ZM204.47,102.71c-6.84,1.92-35.93,2.43-42.9-13.76-6-13.91-4.77-25.44-4.15-32.59.31-3.6.85-16.29,2-16.37,1.15-.08,27.72-2.58,46.36,6.61,11.23,5.53,24.91,15.22,24.22,30.36-.69,15.14-18.68,23.83-25.53,25.75Z"/>
  <path d="M147.43,118.74c-6.44-2.82-14.8-1.6-21.78,3.23-3.62,2.5-6.36,7.53-6.13,10.06.4,4.29,6.36,9.08,13.96,10.06,9.87,1.28,17.29-2.5,20.64-8.41,3.08-5.43-1.53-12.69-6.7-14.95ZM137.92,137.13c-5.09.29-11.76-2.69-11.95-5.9-.26-4.54,6.98-8.18,12.89-8.05,5.64.13,10.07,3.09,10.2,6.98.07,2.02-4.03,6.57-11.14,6.98Z"/>
  <path d="M277.52,190c12.62-15.97,10.56-61.01,10.02-81.76-.6-23.08.36-65.32-31.77-85.83C218.99-1.07,177.29.18,140.42,0,92.4-.23,48.08,7.17,25.88,31.13-.97,60.12-2.93,123.26,2.34,151.22c5.28,27.97,32.5,47.93,33.29,49.78.79,1.85-24.46,9.36-26.31,31-1.19,13.87,5.39,37.96,37.99,45.22,32.6,7.26,52.91-18.27,54.1-19.59,1.19-1.32,3.07,2.73,8.59,9.12,8.76,10.16,23.52,13.71,40.4,13.15,20.13-.67,32.87-13,35.71-15.43.94-.81,9.03,6.33,12.48,8.86,7.52,5.5,20.94,6.98,35.57,6.44,18.93-.69,30.16-7.33,37.18-28.71,7.6-23.13-4.83-39.45-9.75-44.77-1.64-1.77,8.47-6.84,15.93-16.28ZM89.71,257.63c-9.36,9.84-28.5,18.42-51.32,6.89-14.38-7.27-26.09-21.09-17.13-38.73,3.8-7.49,10.58-14.34,15.76-15.92,5.08-1.55,9.12-.79,10.33-.77,2.11.02,3.89,1.04,5.31,2.31,1.56,1.39,2.55,3.09,3.36,5,2.13,5,3.69,12.88-4.98,16.78-6.61,2.97-10.01.55-13.78,1.03-3.18.41,1.16,9.46,7.15,12.91,8.32,4.8,17.03,6.23,28.02-4.55,3.81-3.73,5.25-10.12,5.99-14.28.38-2.17-.95-8.64,1.12-8.89,2.07-.24,5.77-.09,10.27.38,4.54.48,9.34-.31,9.53,1.64.7,7.27-.28,26.35-9.63,36.19ZM62.95,231.94c2.24-3.87,1.96-14.59,3.05-15.2,1.09-.61,5.65,2.13,6.26,3.1.61.97.38,11.13-3.63,16.35-1.17,1.52-2.74,4-7.68,5.99-3.17,1.28-7.14,1.75-11.54-1.56-1.7-1.28,5.69-1.71,7.68-2.8,3.73-2.05,4.53-3.58,5.87-5.89ZM184.63,247.25c-1.41,7.36-5.63,15.54-17.08,20.7-6.09,2.75-29.23,7.31-45.78-2.08-14.86-8.43-12.64-31.26-12.31-37.59.05-.9.27-6.8.63-7.16.36-.36,23.63.51,23.98.09.25-.3-.29,6.25,0,9.21.36,3.67.72,15.38,15.12,14.67,14.5-.72,14.86-19.32,15.12-23.79.05-.85,22.01-1.07,23.27-.89,1.25.18-1.52,19.31-2.95,26.84ZM141.68,221.67c3.13-.05,15.66,0,16.02.72.36.72.35,10.67-1.45,13.54-2.19,3.49-10.18,6.32-15.43.08-2.15-2.55-4.32-14.25.87-14.34ZM265.81,229.77c1.47,7.69.27,16.3-2.22,23.3-3.69,10.42-6.87,15.93-26.76,19.2-17.32,2.85-33.75-2.98-38.82-11.49-4.22-7.08-2.86-27.77-2.52-34.9.46-9.65,12.28-9.08,12.6-7.28.73,4.02.11,6.51,1.31,12.35,1.23,5.97,5.4,11.7,14.4,13.74,8.6,1.95,14.08-1.23,16.7-2.62,6-3.19,6.16-12.88,4.58-11.21-2.7,2.86-4.99,4.91-8.18,5.89-3.02.93-7.56.52-10.23-1.23-5.69-3.72-2.16-16.35-.76-19.8,1.07-2.65,15.1-3.28,24.21-3.12,8.87.16,14.43,10.66,15.68,17.15ZM213.59,223.92c.33-3.27,1.64-9.49,2.86-7.93,1.8,2.29,1.96,14.07.74,16.69-.45.97-4.16-3.13-3.6-8.75ZM253.72,197.52c-22.41,8.63-65.86,17.17-105.6,16.82-39.73-.36-71.23,1.43-98.26-16.64-27.03-18.07-42.6-36.68-41.52-80.86,1.07-44.19,14.93-86.81,58.35-98.58,40.27-10.91,58.52-10.02,82.51-10.02,28.28,0,80.97,1.33,104.16,23.44,27.03,25.76,24.3,57.07,24.7,74.78.54,23.61,6.8,79.08-24.34,91.06Z"/>
</svg>