<?xml version="1.0" encoding="UTF-8"?>
<svg id="Layer_1" xmlns="http://www.w3.org/2000/svg" version="1.1" viewBox="0 0 288 277.67">
  <!-- Generator: Adobe Illustrator 30.5.1, SVG Export Plug-In . SVG Version: 2.1.4 Build 3)  -->
  <path d="M231.39,48.28c-21.2-17.44-61.27-12.62-86.75-11.84-16.57.51-11.75,1.18-31.35,2.26-19.6,1.08-43.65,8.4-55.03,24.75-12.49,17.94-22.82,56.88-17.56,84.81,5.3,28.19,31.02,37.66,46.2,41.09,15.18,3.42,33.41,8.44,77.78,7.24,50.44-1.36,55.89-7.88,70.72-26.63,15.11-19.11,15.73-52.72,15.61-65.54-.12-12.83,2.28-38.12-19.6-56.13ZM188.41,44.44c1.05-2.15,15.44-1.76,25.7,2.48,21.12,8.71,26.42,25.34,26.08,26.94-.34,1.61-16.03,1.75-26.19,1.49-10.16-.26-15.53-2.35-21.11-7.82-7.69-7.55-5.43-21.15-4.48-23.09ZM173.6,44.37c.16-1.78,5.08-.66,6.24-.38,1.43.34.52,10.69,2.37,17.8,2.11,8.12,7.22,15.79,15.78,19.16,16.34,6.42,42.67,1.18,43.74,1.35,1.07.17.72,3.66.73,4.55,0,.89-10.33.63-25.84.78-15.51.15-25.52-2.43-34.33-11.26-8.82-8.83-8.95-28.96-8.68-31.99ZM72.75,58.07c5.31-4.15,10.73-6.58,13.75-7.32,3.02-.74,10.66-2.1,10.86.58.2,2.67-5.95,11.82-11.63,14.37-5.68,2.55-18.99,4.09-21.32,2.86-2.33-1.23,5.84-8.53,8.34-10.48ZM60.91,77.79c1.6-.37,10.67-1.84,16-2.4,9.44-.98,12.99-2.62,19.19-7.13,8.91-6.49,7.53-19.71,7.88-20.78.35-1.07,7.57-1.13,9.36-.79,1.79.34.05,10.02-.38,13.04-.84,5.89-7.01,13.25-14.27,17.95-7.27,4.7-39.33,6.78-41.13,5.91-1.79-.87,2-5.49,3.36-5.8ZM54.59,90.75c1.59-1.26,26.48-1.46,35.27-3,13.88-2.45,17.23-6.4,23.4-13.58,7.31-8.51,5.95-26.78,6.83-28.03.88-1.26,18.59-1.63,19.84-1.47,1.25.17,2.31,27.56.7,39.75-2.5,18.91-21.14,26.39-31.27,30.23-10.12,3.84-53.75,6.3-59.84,1.79-2.01-1.49,3.47-24.43,5.06-25.69ZM159.21,111.94c5.15,2,15.54,4.38,18.83,5.07,8.57,1.8,17.35,1.83,18.37,1.69,1.03-.14,1.26,1.23.89,2.39s-6,3.41-7.79,4.58c-1.79,1.17-3.7,3.1-5.61,4.02-1.92.92-4.99-3.83-9.25-6.36-4.26-2.53-14.44-4.2-19.97-4.28-5.52-.08-30.7.68-30.72-.47-.01-1.16,6.04-3.81,9.42-8.06,2.79-3.51,6.6-8.96,8.57-7.47,7.9,5.98,12.09,6.9,17.25,8.9ZM111.73,126.76c-1.27,1.17-5.48,3.9-7.3,1.86-1.82-2.04.5-4.16,2.03-5.2,1.53-1.04,6.13-1.65,8.57-1.8,2.44-.15-2.02,3.97-3.3,5.14ZM230.36,166.08c-13.34,15.14-20.84,19.86-47.75,22.19-34.89,3.02-72.9,1.04-97.39-5.86-20.32-5.72-35.03-19.02-38.18-40.03-2.25-15.04,3.57-16.07,6.52-16.23,7.57-.4,33.31-.78,36.33-.08,3.73.86,6.19,2.76,8.4,5.95,2.21,3.19,2.66,14.99,4.21,16.65,1.56,1.65,6.24,1.49,6.09-1.47-.47-8.85,4.57-12.23,6.99-14.31,4.52-3.88,9.68-5.69,14.43-5.86,4.75-.17,28.78-.47,33.03.9,4.25,1.37,8.95,2.03,11.16,4.96,2.21,2.93,1.66,10.63,1.8,12.17.14,1.54,2.07,5.93,4.51,5.97,6.31.11,2.26-13.29,12.74-18.93,9.34-5.03,17.28-7.37,24.46-8.34,7.18-.97,18.02-1.11,21.64,1.8,3.62,2.92,4.34,25.37-9,40.51ZM242.12,108.77c-1.06,1.26-24.56-1.55-51.89-1.29-24.6.23-38.59-9.08-39.87-12.28-1.28-3.2-1.35-10.68-1.21-14.42.14-3.74-.17-31.64-1.24-36.7-.19-.89,16.57-.69,17.29.02.72.71,3.5,18.69,5.42,27.03,2.79,12.09,18.19,19.25,27.65,21.3,9.47,2.05,43.15.84,43.87,1.55.72.71,1.02,13.53-.04,14.79Z"/>
  <path d="M74.84,135.97c-2.35-1.41-6.83-1.27-10.01,1.7-1.74,1.62-4.61,7.26-3.38,10.19,1.23,2.93,5.53,5.29,8.87,4.46,3.33-.83,6.64-5.35,7.13-7.37.63-2.58.76-6.96-2.6-8.98ZM69.33,147.38c-3.74.7-3.08-5.16-1.53-6.4,1.74-1.39,4.12-2.31,5.48-.72,1.35,1.59-.21,6.42-3.94,7.12Z"/>
  <path d="M159.09,140.96c-1.78-4.66-8.22-6.87-12.1-6.7-3.88.17-8.42.75-11.32,4.65-2.27,3.05-5.89,13.69.05,19.24,5.93,5.56,13.58,5.34,19.52-.05,6.02-5.45,5.63-12.48,3.85-17.14ZM153.17,151.57c-1.05,2.01-3.27,4.46-7.44,4.61-4.81.18-7.92-3.27-8.09-6.87-.17-3.61,1.63-8.06,7.18-9.66,4.03-1.16,7,1.15,8.22,3.55,1.23,2.39,1.18,6.36.13,8.37Z"/>
  <path d="M216.34,141.67c-1.1-3.06-4.6-6.15-11.12-2.7-3.86,2.04-4.05,11.08,1.89,12.42,8.49,1.91,10.32-6.68,9.23-9.72ZM210.64,146.4c-2.68,1.49-5-2.11-2.44-3.85,3.08-2.1,4.39,2.77,2.44,3.85Z"/>
  <path d="M285.54,152.6c4.15-16.91,2.97-50.53-2.98-88.85-5.07-32.71-35.69-59.08-66.88-62.72-21.31-2.49-94.07.08-120.4,1.77-35.08,2.24-47.52,15.06-59.65,24.33-12.13,9.27-22.24,26.34-28.97,46.02C-3.13,101.82-.28,144.85,3.58,166.49c3.96,22.22,22.75,30.11,22.07,31.32-.89,1.59-12.37,9.46-16.95,18.64-4.4,8.85-8.74,32.41.53,43.7,9.27,11.29,24.97,15.95,45.24,15.88,22.55-.08,35.74-15.76,37.68-15.77,1.94-.02,10.97,7.1,19.49,10.49,11.88,4.73,21.16,4.45,35.07,4.23,20.72-.33,31.61-15.65,33.27-16.22,1.66-.57,5.17,6.05,7.24,8.16,3.91,3.97,10.33,6.05,15.64,7.77,13.81,4.47,27.43,3.31,40.44.37,11.69-2.64,28.91-15.73,29.1-40.42.18-23.37-13.65-28.15-13.38-29.54.26-1.39,5.33-7.09,11.33-13.56,7.37-7.95,11.63-24.45,15.19-38.95ZM91.41,241.71c-2.55,12.61-12.53,19.89-28.08,23.88-15.54,3.99-37.09-.64-45.72-10.69-8.89-10.36-6.74-29.59-.2-37.87,6.2-7.85,8.91-10.26,15.59-10.49,8.53-.29,12.57,1.9,15.99,9.45,2.91,6.44,1.09,10.02-1.51,13.43-2.39,3.13-6.28,6.03-10.78,3.83-4.39-2.14-3.19-7.94-3.73-8.15-.54-.21-4.26,1-5.08,4.74-.77,3.5-.24,13.06,10.79,17.55,6.54,2.66,16.64,3.98,26.71-3.36,11.87-8.64,6.58-27.66,6.46-28.52-.11-.85,7.66.14,11.05.59,4.84.64,6.32.82,8.98,1.12,1.58.18,1.43,15.1-.46,24.49ZM54.54,211.76c-.06-.08,4.22,1.4,6.06,1.44,2.84.07,4.18.45,4.84.99.66.54.43,3.16.56,6.4.17,4.26-.8,12.47-7.66,17.37-7.29,5.21-12.7,1.87-11.94,1.43.75-.44,8.05-1.99,9.7-9.77,1.28-6.03-.12-15.86-1.56-17.87ZM177.51,241.71c-1.2,9.08-12.21,23.61-33.78,24.32-21.9.72-43.58-12.23-43.58-13.19,0-.96.91-14.33,1.3-18.48.86-9.14-1.78-15.07.46-15.52,2.24-.45,24.69.78,27.15.76,2.24-.02-.85,8.38,1.73,14.17,1.85,4.14,5.24,11.11,16.21,9.98,17.86-1.83,10.36-21.96,13.13-22.41,2.77-.45,19.41-1.04,19.74-.29.33.74-1.14,11.58-2.34,20.66ZM138.13,221.76c3.42-.22,13.01-.98,14.51-.03,1.5.95,1.66,13.02-3.66,13.92-4.75.8-9.43.28-11.17-2.9-1.74-3.18-3.62-10.74.32-10.99ZM262.45,228.35c3.14,17.59-6.98,29.8-13.77,34.77-6.78,4.97-22.51,8.17-36.94,5.21-14.43-2.96-21.2-13.57-21.53-14.95-.33-1.38-1.64-12.14-1.46-16.2.18-4.05-.56-13.75,1.01-17.07.43-.91,16.73-.28,17.71-.36,3.83-.28,3.08,6.49,3.75,11.53,1.2,8.99,6.1,14.43,13.63,18.84,8.37,4.9,22.62-.6,26.48-5.85,3.09-4.2.28-15.79-.45-13.86-.73,1.93-3.08,8.24-8.96,8.29-3.31.03-9.02.89-10.4-9.87-1.8-14,14.79-14.31,19.06-14.02,6.21.41,9.78,1.94,11.85,13.54ZM226.36,234.37c1.27,3.8,2.58,7.72,6.92,9.55,1.05.44-5.43,1.84-11.35-4.8-2.15-2.41-4.31-4.75-4.68-9.97-.23-3.32-1.35-10.36,2.7-10.61,3.63-.23,5.14.06,5.68.05.78,0-2.07,7.36.74,15.78ZM232.12,209.52c-16.55,3.81-45.4,3.54-69.83,4.05-24.43.51-84.52-4.12-113.05-12.93-20.41-6.31-37.67-24.98-38.15-45.79-.47-20.81-5.97-54.01,2.41-78.56C21.28,53.53,50.3,15.83,84.77,12.75c34.6-3.09,41.96-2.19,61.1-3.48,22.45-1.51,58.36-2.14,73.1.5,14.74,2.64,42.77,16.72,52.96,54.17,9.41,34.6,9.71,74.22,4.32,91.2-5.39,16.98-19.94,48.81-44.13,54.39Z"/>
</svg>