<?xml version="1.0" encoding="UTF-8"?>
<svg id="Layer_1" data-name="Layer 1" xmlns="http://www.w3.org/2000/svg" xmlns:xlink="http://www.w3.org/1999/xlink" viewBox="0 0 472 464">
  <defs>
    <style>
      .cls-1 {
        fill: none;
      }

      .cls-2 {
        fill: #a53b28;
      }

      .cls-3 {
        fill: #1f3d3a;
      }

      .cls-4 {
        clip-path: url(#clippath-1);
      }

      .cls-5 {
        clip-path: url(#clippath-3);
      }

      .cls-6 {
        clip-path: url(#clippath-4);
      }

      .cls-7 {
        clip-path: url(#clippath-2);
      }

      .cls-8 {
        clip-path: url(#clippath);
      }
    </style>
    <clipPath id="clippath">
      <rect class="cls-1" width="472" height="464"/>
    </clipPath>
    <clipPath id="clippath-1">
      <rect class="cls-1" width="472" height="464"/>
    </clipPath>
    <clipPath id="clippath-2">
      <rect class="cls-1" width="472" height="464"/>
    </clipPath>
    <clipPath id="clippath-3">
      <rect class="cls-1" width="472" height="464"/>
    </clipPath>
    <clipPath id="clippath-4">
      <rect class="cls-1" width="472" height="464"/>
    </clipPath>
  </defs>
  <g id="Apple">
    <g class="cls-8">
      <g class="cls-4">
        <path class="cls-3" d="M223.91,7.48c.79-.68,1.58-1.37,2.46-1.96,1.98-1.32,4.32-2.1,6.77-1.66,3.76.67,6.15,3.62,8.12,6.37,1.06-.08,2.17-.19,3.23-.11,3.75.27,6.96,2.78,9.36,5.26,2.96,3.08,4.26,5.86,3.97,10.02,5.7-1.8,11.53-2.86,17.34-4.29.3-.97.61-1.96,1.09-2.88.88-1.73,2.47-3.07,4.42-3.7,3.39-1.08,7.75-.29,10.86,1.21,5.55,2.67,8.51,7.81,10.3,13.11-1.4,1.1-2.9,2.03-4.48,2.89-3.53,1.93-7.8,3.33-11.92,2.29-5.57-1.4-8.91-6.21-11.61-10.54-3.08.66-6.12,1.42-9.23,1.99.64.15,1.26.3,1.89.47,7.93,2.07,11.28,6.22,15.18,12.65,3.59-3.11,7.75-3.37,12.38-3.69.13-.12.28-.25.42-.37,1.64-1.41,3.45-2.26,5.74-2.14,5.09.27,8.65,4.26,11.79,7.48,1.28-.18,2.56-.3,3.84-.44,6.18,3.26,9.23,8.54,12.04,14.32,2.37-4.97,6.55-8.52,11.65-11.03,3.75,2.82,6.61,5.99,7.96,10.34,1.29,4.19,1.13,9.63-1.32,13.45-1.09,1.68-3.32,3.88-5.48,4.33-1.12.23-2.44.36-3.36,1l.05.34.16-.11c.49.73,3.86,1.74,4.85,2.26,2.72,1.42,4.7,3.45,6.61,5.69.01-.18.03-.34.04-.52.54-5.82,3.62-10.74,8.42-14.47.21.14.4.27.6.42,5.4,4.11,8.72,10.39,9.24,16.8,6.33-.88,11.44-1.04,17,2.26-.64,2.08-1.55,4.1-2.86,5.89-3.33,4.59-7.9,6.28-13.57,7.28.79.55,1.56,1.14,2.31,1.74,2.75,2.26,5.89,6.56,6,10.04.03.93-.27,1.81-1.01,2.47-1.79,1.59-5.21,1.12-7.5,1.07,4.57,1.78,9.81.15,13.42,3.85,1.88,1.95,2.83,4.51,2.6,7.1-.21,2.59-1.52,4.99-3.66,6.67-3.56,2.78-8.07,2.85-12.46,2.52.45,2.11.92,4.3,1.74,6.32-3.18,1.81-6.89,3.08-9.78,5.26-3.32,2.49-5.04,6.32-8.02,9.11-2.08,1.96-4.63,3.59-6.91,5.36-2.01,1.55-3.79,3.29-5.6,5.04,3.65-.32,8.56-1.18,12.05.05,2.53-4.83,5.18-9.63,9.58-13.29,3.66-3.05,7.25-4.27,12.2-4.06.54-.86,1.12-1.75,1.79-2.52,2.68-3.07,6.53-2.42,10.31-2.85,2.2-1.86,3.71-2.9,6.65-3.58-1.5-3.74-2.08-7.44-2.04-11.43,7.08-1.85,15.12-2.17,21.79,1.16,4.64,2.32,6.76,5.88,8.18,10.37-3.27,2.8-6.89,4.39-11.16,5.47,2.32.07,4.93.26,7.04,1.19,2.68,1.18,3.87,3.33,4.78,5.8,1.7.2,3.42.48,5.01,1.11,3.84,1.52,5.55,4.37,7.07,7.74,1.27.75,2.22,1.69,3.11,2.8,2.71-2.97,5.62-4.62,9.54-5.97.72,1.01,1.32,2.05,1.9,3.14,2.87,5.4,3.71,11.17,1.59,16.91,1.74.59,3.23,1.23,4.45,2.59,2.38,2.67,2.16,6.41,1.74,9.63,6.29.19,10.91,1.8,15.55,5.77-3.57,4.85-7.17,7.56-13.13,9.58.6,2.1,1.22,4.44.01,6.47-1.37,2.27-4.36,2.93-6.85,3.64.42.78.85,1.55,1.28,2.32.71-.01,1.44-.03,2.16-.04,7.96-.18,12.95,1.88,18.68,6.9-4.45,4.56-9.14,9.04-15.43,11.39-2.83,1.04-6.04,1.68-8.93.48-4.03-1.7-3.04-3.18-4.21-6.3-1-.3-2.86.29-3.96.37-1.89.12-3.96-.14-5.86-.21l.15.63.4-.45c3.75.86,7.08,2.03,9.82,4.62,4.6,4.33,4.91,9.59,4.82,15.36-10.57.19-15.27-1.4-22.96-8.05-3.93.85-7.78,1.99-11.71,2.89,5.37,1.27,9.85,2.7,13.51,6.71,5.57,6.11,5.55,13.39,4.78,20.89-7.95-.67-17.49-3.52-23.77-8.18-3.04-2.26-5.36-5.29-5.68-8.96-.33-3.67,1.41-6.54,3.93-9.21-13.74,2.7-24.64,11-37.52,15.67-5.91,2.15-11.93,3.34-18.2,4.14-3.63.47-7.41.75-10.94,1.66-5.52,1.41-11.06,4.88-16.09,7.4-4.05,2.03-8.2,3.88-12.26,5.88-1.47.73-3.26,1.59-4.49,2.63-2.23,1.89-4.02,4.62-5.8,6.88-2.49,3.14-5.15,6.21-8.11,8.99-4.54,4.26-10.15,7.32-15.46,10.66-12.96,8.18-20.49,18.32-24.94,32.02l-4.36,13.7c-2.05,6.4-4.29,12.77-4.85,19.47-.31,3.71.03,7.48.52,11.17,1.55,11.71,4.42,23.33,7.11,34.85,2.1,8.96,3.93,21.06,8.69,29.05,3.6,6.04,10.67,8.25,17.47,10.07-5.36-.26-10.83,0-16.16-.55,1.88,1.07,3.72,2.12,5.45,3.4-4.55-.15-9.3-.93-13.62-2.27,1.19,1.05,2.34,2.15,3.48,3.25-5.39.04-15.7-2.47-21.47-3.49,1.73,1.22,3.19,2.69,4.44,4.32-6.06-.71-10.76-1.7-15.58-5.25-4.61,1.56-9.45,2.81-14.24,3.85,1.15-1.58,2.53-2.91,4.02-4.21-6.56,1.27-13.05,2.62-19.79,2.89,5.71-2.25,12.68-4.55,16.64-9.15,10.15-11.77,9.66-61.75,11.3-78.1.94-9.3,4.54-18.34,3.35-27.77-1.73-13.59-11.4-24.4-23.78-31.39-5.36-3.03-11.48-5.7-16.15-9.6-5.58-4.66-6.1-9.89-11.91-14.04-5.04-3.62-10.54-6.66-15.88-9.88-3.76-2.26-7.56-4.93-11.65-6.66-2.55-1.07-5.05-1.59-7.8-1.96-7.92-1.06-16.06-1.03-23.84-2.89-8.18-1.96-15.6-6.37-24.3-5.34,0,3.59-.86,6.88-3.27,9.74-6.24,7.41-17.68,9.4-27.17,10.47-.52-2.23-.76-4.6-.77-6.89-.06-5.84,2.1-11.36,6.64-15.52,3.2-2.95,7.65-5.01,12.25-4.92,4.75.1,7.84,2.25,10.95,5.27,2.58-.06,5.15-.16,7.72-.34-3.18-2.34-6.46-4.74-10.1-6.45-9.75-4.6-22.52-4.67-33.29-4.37-.49.99-.97,2-1.62,2.9-4.57,6.25-14.27,8.85-21.86,10.11-.37-2.86-.95-5.58-.01-8.41,1.53-4.67,5.74-9.6,10.49-11.85,2.17-1.03,4.73-1.51,7.1-.75,2.87.92,4.29,3.12,5.52,5.48,3.21-.04,6.53.29,9.76.44,3.42.15,6.93.12,10.33.49-4.49-2.45-8.84-5.14-12.98-8.07-1.55.88-3.27,1.45-5.07,1.67-3.74.44-6.21-.7-9.02-2.75-.7.32-1.5.58-2.26.74-2.29.48-4.42-.77-6.25-1.86-.8,3.45-1.89,6.75-4.66,9.33-2.2,2.06-4.9,2.95-8.01,2.97-8.97.08-18.6-4.84-24.87-10.48,1.18-1.22,2.37-2.41,3.69-3.49,5.58-4.56,13.69-8.3,21.34-7.74,3.86.29,6.4,1.95,8.84,4.55-.36-2.29-.51-3.67.62-5.82-3.2.14-6.4.26-9.3-1.25-1.35-.71-2.51-1.78-2.86-3.22-.46-1.9.4-3.37,1.47-4.9-2.77.32-5.66.7-8.3-.36-2.04-.82-3.62-2.29-4.35-4.25-.8-2.12-.49-4.6.67-6.56,1.5-2.58,3.96-3.89,6.92-4.64-1.09-2.67-1.64-5.59-.52-8.33,1.21-2.93,3.81-4.3,6.77-5.47-2.84-1.78-4.91-4.12-5.61-7.29-1.01-4.63,1.17-9.22,3.96-12.96,1.32.42,2.66.85,3.93,1.41,5.71,2.58,7.92,6.27,9.9,11.6l.49-2.47c-1.4-2.59-2.1-5.41-1.65-8.3.55-3.54,2.68-6.66,5.76-8.8,3.71-2.58,7.75-3.19,12.25-2.63.51-.32,1.01-.6,1.55-.86,3.82-1.88,7.93-1.04,11.83.11,1.12-1.45,2.11-2.99,3.2-4.45,2.53-3.41,5.89-6.6,10.54-7.29,3.63-.55,6.24.86,9.08,2.67.09-.03.17-.05.25-.08,1.85-.68,3.74-.59,5.68-.52-3.63-1.12-5.64-2.82-8.45-5.07-3.08-.22-5.51-.48-8.35-1.66-1.96.41-4.02.55-6.01.78.12.73.19,1.45.1,2.18-.42,3.48-2.61,6.76-5.6,8.86-3.75,2.66-8.21,3.18-12.77,2.6-2.37-.3-5.39-.9-6.85-2.81-.71-.93-.86-2.04-.62-3.15.7-3.36,3.96-6.78,6.96-8.66,3.71-2.3,9.26-4.21,13.77-3.27,2.46.51,3.54,2.17,4.75,4,1.35-.59,2.75-1.11,4.12-1.66-2.02-2.07-3.54-4.48-3.5-7.34.04-3.41,2.1-5.74,4.63-8-1.27-2.59-2.25-5.42-2.05-8.29.27-3.92,2.47-6.55,5.48-9.08-1.65-.38-3.3-.83-4.84-1.54-4.93-2.26-7.92-6.42-9.66-11.12.62-.63,1.26-1.26,1.93-1.84,4.7-4.03,9.26-5.07,15.54-4.84-.06-2.12-.1-4.23.39-6.32,1.04-4.41,3.94-7.49,7.99-9.88,2.37.82,4.29,1.81,5.98,3.59,2.9,3.03,4.2,7.37,3.9,11.36-.27,3.42-1.83,6.88-4.66,9.14l1.85,1.71c.86-2.14,1.93-3.77,3.44-5.58-.11-1-.18-2-.11-3,.31-4.26,4.12-6.78,7.32-9.37l2.87.6,1.68-2.66c-3.51-.93-6.53-2.12-9.02-4.69-2.72-2.83-3.9-6.42-3.68-10.16.27-4.48,2.71-9.54,6.34-12.56,5.05,1.4,8.97,3.8,12.84,7.03,2.02-2.25,4.2-3.64,7.05-4.89.61-1.99,1.22-3.85,2.46-5.6,2.14-3.08,5.6-5.01,9.51-5.47,1.25-.14,2.69-.08,3.9-.42,2.02-.58,3.6-2.03,5.74-2.4,3.39-.59,6.37,1.71,9,3.37.18-.44-.03-.96-.12-1.43-.3.01-.12.04-.48-.22.09-.18.28-.59.31-.77.15-.74-.7-.8-1.29-.88-5.82-.89-10.8-1.59-15-5.82-.04-1.33-.06-2.63.15-3.96.73-4.57,4.02-8.68,8.07-11.32,5.52-3.59,15.16-5.76,21.82-4.51,1.3.25,2.52.74,3.22,1.82,1.37,2.11.3,6.82-.22,9.12-.3,1.03-.55,2.03-.68,3.1.58-.53.83-1.48,1.12-2.18.21-.23.4-.46.64-.67,2.87-2.55,6.43-2.44,10.15-2.4.07-.23.15-.47.22-.7.95-2.9,2.47-4.89,5.48-6.3,4.37-2.07,8.99-1.86,13.59-.58.82-1.97,1.85-3.76,3.53-5.22,3.78-3.3,8.93-3.74,13.88-3.62M246,323.6l3.96-5.63c8.6-11.18,18.74-15.03,30.55-21.98,3.3-1.93,6.43-4.22,9.05-6.91,10.64-10.87,18.07-25.32,23.46-38.95,1.76-4.44,3.59-9.15,4.05-13.88.42-4.36-.79-9.08-1.33-13.43-.51-4.45-.64-8.95-.4-13.41-3.32-1.21-6.24-2.85-7.66-6.03-.57-1.25-1.09-6.81-1.74-7.17-7.93,6.41-14.91,13.63-20.34,22-4.09,6.32-6.03,13.54-8.81,20.37-3.47,8.62-7.63,16.99-12.46,25.03-2.5,4.15-5.16,8.22-7.96,12.21-5,7.12-11.27,13.99-11.92,22.78-.37,5.03.39,10.24.83,15.25.27,3.25.37,6.51.73,9.73M225.33,317.26l3.38,2.85c.01-15.7-2.13-31.29-9.53-45.61-2.31-4.47-5.12-8.67-7.95-12.88-3.57-5.32-6.86-10.52-11.7-14.96-3.42-3.15-7.08-6.08-10.49-9.23-3.87-3.58-7.28-7.36-10.6-11.36-1.9-2.3-9.08-12.84-10.22-13.66-4.58,6.32-6.8,18.37-6.79,25.78,0,2.75.42,5.51,1,8.19.88,4.15,2.22,8.22,3.99,12.13,2.38,5.15,5.83,9.8,8.75,14.69,4.08,6.84,7.44,14.24,12.57,20.48,1.88,2.29,4.06,4.12,6.67,5.7,3.26,1.97,6.88,3.47,10.37,5.08,7.37,3.39,14.73,7.35,20.54,12.8M185.67,178.48c-1.56,7.17-3.81,16.02-1.34,23.14,1.28,3.7,3.45,7.11,5.48,10.49,2.66,4.47,5.28,8.96,8.35,13.21,5.43,7.49,11.25,15.21,17.51,22.13,1.45,1.75,2.95,3.49,4.53,5.14,1.4-4.6,2.95-9.1,5.1-13.47,3.09-6.3,9.72-16,10.61-22.58.33-2.47-.51-4.69-1.82-6.81-1.91-3.08-4.61-5.82-7.07-8.56-2.96-3.33-5.86-6.71-8.45-10.3-2.95-4.11-5.76-8.43-8.02-12.89-1.06-2.07-1.67-4.56-2.9-6.51-2.47,3.95-5.37,7.44-10.39,8.71-3.99,1.03-8.01.01-11.59-1.7M237.51,280.02c5.72-4.26,17.61-18.81,20.86-25.02,1.3-2.44,2.11-5.07,2.4-7.77.3-2.75.15-5.56-.13-8.32-.6-5.58-4.39-29.02-7.19-32.88-.06-.08-.15-.15-.21-.23-8.54,9.43-24.99,40.49-23.79,52.37.49,4.92,3.14,9.51,5.09,14.04,1.09,2.56,2.02,5.19,2.98,7.81M309.05,273.2c4.82-1.97,9.61-4.12,14.32-6.33,9.57-4.48,36.21-18.11,39.7-27.37.97-2.56.91-5.51,1.12-8.21-5.64.03-10.62-.04-15.82-2.34-1.55-.69-3.01-1.92-4.63-2.41-4.84,3.55-22.74,16.67-25.21,20.7-2.5,4.07-2.95,9.26-4.48,13.69-1.44,4.16-3.44,8.16-5,12.28M209.72,168.29c1.62,11,15.24,24.57,23.16,32.81,2.56,2.66,5.33,6.01,8.35,8.25.09.07.21.12.3.19,2.68-4.33,7.83-11.03,6.38-16.32-1.58-5.77-7.74-10.27-11.7-14.77-2.51-2.86-4.85-6.01-6.79-9.25-4.6-7.76-3.41-13.67-6.64-21.02-4.3,1.07-8.32.96-12.69.34-1.52-.22-3.13-.58-4.66-.6,7.08,3.52,8.77,6.21,11.07,13.32.42,1.29,1.07,3.43.24,4.63-1.28,1.86-4.85,2.18-7.02,2.41M138.49,269.35c-4.64-3.37-9.4-6.65-13.6-10.51-3.53-3.27-7.01-6.59-10.45-9.95-3.44-3.37-6.79-7.4-11.07-9.88-6.5-3.74-14.78-5.47-22.04-7.58-4.39-1.27-8.6-3.6-13.21-4,.22,2.05,2.05,4.3,3.26,6.01,4.6,6.54,9.48,12.48,16.07,17.51,8.13,6.19,21.34,14.5,31.57,16.59,6.29,1.29,13.07,1.4,19.48,1.79M401.22,215.72c-6.55,5.14-14.35,8.78-20.67,14.11-5.61,4.71-9.79,10.59-15,15.65-6.07,5.91-13.22,10.88-19.87,16.19,1.1-.18,2.25-.31,3.3-.63,17.86-2.19,29.81-6.6,42.85-18.56,3.63-3.34,7.08-6.8,10.21-10.55,1.61-1.93,3.21-3.92,4.51-6.04-.82-1.33-2.28-3.33-1.77-4.9.28-.9,1.27-1.36,2.14-1.66,2.65-.9,5.15-1.36,7.55-2.88l.16-.51c-.36-.45-.62-.64-1.28-.73-.16-.03-.33,0-.49.01-4.23.86-7.35,1.01-11.64.49M125.92,243.23c.01,5.37-.01,10.03,4.47,14.08,2.57,2.33,5.7,4.12,8.7,5.93,6.71,4.01,13.71,7.58,20.7,11.17,3.79,1.94,7.86,3.78,11.39,6.11l3.41,2.27c-3.9-8.18-9.27-21.51-15.7-28.07-3.04-3.1-6.92-5.64-10.76-7.81-4.67-2.64-11.89-5.64-15.98-8.41-1.89,1.95-3.68,3.52-6.22,4.73M325.23,153.6l-2.66,1.47c-.4,4.04-.91,9.11.01,13.07l2.96-3.37c2.32-2.62,4.66-5.23,6.93-7.88-1.93-1.12-4.94-3.29-7.25-3.29M318.31,178.85c1.21-.82,2.47-1.62,3.59-2.53,2.8-2.18,3.48-4.34,5.77-6.55,2.14-2.07,4.72-3.69,7.07-5.54,2.25-1.77,4.29-3.8,6.34-5.73-2.01-.18-4.02-.54-6.03-.66-1.82,2.88-4.38,5.48-6.61,8.11-3.56,4.22-6.97,8.43-10.14,12.89M431.34,179.7c4.27,1.82,6.46,4.62,8.05,8.59.36.88.64,1.83,1.1,2.67.33-2.71.67-5.37.64-8.1l.28-.05c.3-.05.58-.14.86-.22-.09-.38,0-.43-.3-.59-.37-.2-.58-.18-1-.22-3.01-.22-5.33-4.01-7.32-5.85-.76,1.26-1.47,2.55-2.32,3.77M179.31,176.89c-1.82-.47-3.26-1.04-4.78-2.12-.25,2.32,1.41,9.12,2.84,11.03l.25-.11.09-.88c.48-2.66.95-5.29,1.59-7.92M366.51,204.75c1.1,1.51,2.19,3.03,3.26,4.56.48.6.92,1.38,1.7,1.66,1.67-2.43,2.71-12.07,2.02-14.92-.18-.75-.43-1.38-1.21-1.78-.1-.05-.22-.1-.33-.14-2.8,1.74-3.79,7.52-5.31,10.38l-.13.23ZM255.43,196.13c2.13-2.3,4.11-4.71,5.91-7.24.11-3.45.64-7.75-.86-11-1.61,2.45-6.44,14.12-5.94,16.65.12.56.56,1.11.89,1.59M102.63,235c-4.73-6.66-9.51-13.27-13.39-20.4-3.42.21-7.56.27-10.36-1.89-2.32-1.8-2.13-4.69-3.9-6.48-.83.96-1.65,1.93-2.51,2.88,2.38,1.3,4.46,2.86,5.25,5.44.79,2.63-.16,4.97-1.64,7.21-.12.18-.24.34-.36.51,7.17,4.96,15.01,9.43,23.68,11.84,1.09.34,2.14.66,3.23.9M323.71,215.38c3.21-2.9,6.4-5.85,9.52-8.82-1.43-2.01-2.02-4.27-3.27-6.33-1.04,3.58-2.17,6.85-5.86,8.85-.85.47-1.73.78-2.66,1.07.18,1.47.18,4.51,1.32,5.51.6-.01.5,0,.95-.27M320.08,240.07c3.08-1.63,6.09-3.36,9.02-5.21,4.46-3.07,8.88-6.19,13.24-9.39-2.72-2.31-6.67-5.41-6.89-9.06-.07-1.08.22-2.11,1.03-2.9,1.61-1.59,4.33-1.84,6.53-2.1-2.93-.88-5.64-2.05-8.51-3.07-3.87,3.51-8.02,6.74-11.86,10.28-.12,4.08-.3,8.17-.88,12.22-.45,3.1-1.19,6.14-1.68,9.22M267.28,233.97c.3,1.08.57,2.18.94,3.23,4.06-8.85,14.21-24.59,14.46-33.49.1-4-1.25-8.26-2.31-12.12-.91-3.27-1.56-7.08-3.07-10.15-.08-.15-.13-.33-.25-.44-6.77,6.47-12.75,13.58-19.41,20.15,4.29,10.65,7.08,21.72,9.63,32.81M123.53,169.34c.83,2.51,1.43,4.97,1.98,7.54.89-.99,1.77-1.99,2.8-2.86.94-.68,1.86-1.4,2.83-2.05-2.54-.82-5.1-1.63-7.6-2.62M157.76,193.66c-1.65-1.14-3.48-2.42-5.37-3.17-4.32,5.04-1.31,7.56-8.88,11.27,2.13,3.1,4.36,7.12,3.35,10.91-.54,2-1.86,3.33-3.76,4.33l-.19.1c3.87,2.89,7.16,6.67,10.25,10.25l.6.36c1.12-1.21.64-5.62.61-7.21-3.62-2.32-5.92-5.1-6.68-9.17-.8-4.48.37-9.07,3.27-12.74,1.86-2.33,4-3.7,6.82-4.93M320.18,210.16l-3.66-.33c.12,3.99.51,16.59,2.9,19.46l.1-.32c1.07-5.64,1.28-13.07.65-18.81M400.68,204.66l-2.38,1.42c-2.62.18-3.97.36-5.76,2.32-1.98,2.18-6.89,11.19-7.35,14.02.64.04,1.26-.38,1.83-.66,4.4-2.29,8.59-4.77,12.62-7.58-1.83-2.67-2.2-4.34-1.49-7.5l2.6-1.75v-.23s-.07-.04-.07-.04ZM61.3,240.78c5.8,3.64,11.33,7.06,18.02,9.19.88.27,1.8.53,2.65.89-3.42-4.07-7.23-7.89-10.39-12.15-2.99-4.01-5.39-8.44-8.62-12.3-2.55-.27-4.93-.49-7.49-.19l-.48.27c.6.59,2.07.81,2.92,1.08,3.54,1.19,6.37,3.77,6.25,7.44-.08,2.33-1.28,4.07-2.87,5.77M101.51,150.85c3.01,1.71,5.74,3.34,7.4,6.36,2.54.23,5.18.33,7.69.78l1.25.1.03-.25c-1.62-1.56-3.17-3-4.32-4.89-3.75-.22-6.46-2.32-10-2.81l-2.05.71ZM316.02,147.34c1.32-1.48,2.56-3.01,3.51-4.73-2.45-.56-5.1-1.4-7.63-1.6.49,3.41.54,6.88,1.13,10.26,1.01-1.3,2.08-2.58,2.99-3.93M230.94,142.65c-3.12,4.08-4.24,8.66-3.33,13.58,1.82,9.8,9.11,17.67,15.95,24.95l.48.32c.39-.45.24-.68.16-1.25-.21-1.77-.75-3.52-1.01-5.3-.52-3.41-.74-6.84-.94-10.26-4.49-3.01-10.42-6.67-11.44-12.11-.57-2.99.62-5.56,2.1-8.14-.65-.59-1.32-1.16-1.96-1.78M276.91,173.56c.24-3.59.91-12.47.17-15.69-4.82,5.23-10.89,9.44-13.6,16.02.68,3.33,1.37,6.67,1.88,10.03l.33.7.34.07c3.97-3.19,7.43-7.45,10.89-11.12M150.11,147.27l.89.47.28-.21c0-1.18-.52-2.3-1.03-3.38-.68-1.45-6.24-11.34-7.28-12.3-.45,1.19-.43,2.03-.3,3.26-.51.23-1.01.42-1.55.6l-.07.26c1.15,1.19,2.29,2.38,3.27,3.7,1.76,2.34,3.41,5.77,5.77,7.6M311.17,140.75c-.63-.81-1.24-1.54-2.01-2.23-4.52,9.03-10.39,17.07-17.04,24.88-3.07,3.62-6.67,7.02-9.24,10.95.03,4.74.59,9.47,1.7,14.1.67,2.83,1.58,5.67,2.11,8.52l.42.34c2.19-1.95,5.52-10.88,6.99-13.85,1.93-3.96,4.12-7.82,6.55-11.56,2.84-4.36,6.06-8.63,8.39-13.25,1.22-2.4,2.22-5.06,2.28-7.74.07-3.4-.54-6.73-.15-10.15M312.86,158.68c1.95-1.44,6.56-4.07,6.88-6.36.06-.41.06-.82.06-1.25.03-1.34.71-1.89,1.71-2.81-.31-.9-.57-2.3-1.19-3.04-1.59,2.93-8.63,10.71-8.41,13.4l.31.2.64-.15ZM123.01,168.21c3.17.88,6.12,2.12,9.09,3.42,5.18-1.45,10.28-2.23,15.31.17,1.07.51,2.05,1.21,3.04,1.84-3.1-2.95-6.26-5.86-9.15-8.99-2.51-2.74-5.22-6.82-8.21-9-3.63,1.63-6.79,2.19-10.67,3-.7.15-2.2-.12-2.66.2l.24.05c8.32,1.77,16.58,3.88,22.08,10.33l-.24.41.37-.08h-.27c-9.81-6.63-19.87-10-32.03-11.21l-.22.44c.39.82.88,1.23,1.79,1.55,4.02,1.4,8.12-.32,10.68,4.6.55,1.03.71,2.12.85,3.26M191.9,138.61c-.49,5.71-1.22,11.18-2.66,16.76,1.46-1.52,2.89-3.11,4.58-4.41,1.67-.99,6.1-2.63,6.37-4.55.24-1.7-1.41-3.79-2.31-5.23-2.07-.75-3.99-1.63-5.98-2.56M327.01,140.2c-1.65.77-3.32,1.37-5.06,1.93.36,1.1.65,2.23,1.21,3.27,1.27-1.32,3.84-3.45,4.32-5.1l-.46-.11ZM425.89,233.24c1.26-1.37,2.89-2.33,4.46-3.36-2.04.67-3.78,1.46-5.61,2.53-4.02,2.4-7.74,5.14-11.38,7.97,3.88-.68,7.83-1.37,11.74-1.85-.14-1.97,0-3.43.79-5.3M350.72,98c-1.75.05-3.02-.01-4.33,1.22-.21.62-.31.93.03,1.54.43.74,1.59,1.63,2.46,1.88.07.03.16.03.24.04l.51-.45c1.99-2.6,4.09-4.92,6.56-7.15-1.31-1.29-2.61-2.93-4.08-4.02-.12,2.51-.54,4.59-1.39,6.95M34.18,191.15c.94,1.42,2.01,2.85,2.58,4.44.21.6.48,1.81.98,2.18l.04-.12c.21-3.48,1.5-5.95,3.65-8.76-2.16-1.03-3.21-1.94-3.96-4.1l-.09-.26c-.51,2.77-1.12,4.48-3.2,6.62M151.6,175.45c.67,5.67.67,8.66,4.61,13.29,1.76,2.07,3.77,3.92,6,5.55,1.83,1.36,10.18,7.18,11.74,7.06-2.68-4.55-6.37-7.95-10.3-11.55-1.31-1.21-2.77-2.41-3.93-3.74-2.8-3.21-4.55-8.1-8.13-10.6M193.48,120.62c0-1.34-.06-2.7.01-4.04-2.08-.41-4.18-.77-6.19-1.4.76,3.01,1.38,5.97,1.62,9.07.92-.73,1.89-1.43,2.78-2.19.6-.47,1.22-.92,1.77-1.44M183.99,130.78l3.12,2.59c-.71-3.36.33-5.12.71-8.26.39-3.1-.45-9.33-2.87-11.63-1.25,4.73-2.77,7.99-7.05,11.06,1.77,2.26,3.99,4.22,6.09,6.25M281.85,128.27c.43-.86.91-1.73,1.28-2.62.71-1.51,1.37-3.03,1.99-4.58-2.16-.42-4.23-1.03-6.31-1.63.86,2.92,1.59,6.1,3.04,8.82M131.27,75.79c-1.49-.15-2.92-.31-4.38-.67-.92.97-1.82,1.96-2.87,2.81,1.22.27,2.67.81,3.86.29,1.1-.88,2.19-1.69,3.39-2.43M324.29,70.94c4.03-.4,6.67-.27,10.42,1.15l.85.21.16-.25c-1.32-2.12-4.9-1.96-6.9-3.36-1.82-1.25-2.11-3.39-3.59-4.8-1.06,1.03-1.64,1.92-1.55,3.37.06,1.23.37,2.48.61,3.67M321.37,70.46c-1.4-1.66-3.15-2.04-5.22-2.74l1.55,2.93,3.68-.19ZM169.33,37.5c-1.95,1.22-3.8,2.6-5.88,3.63.49,1.81,1.06,3.59,1.64,5.38l.45.25c1.53-.41,3.05-.86,4.58-1.22-.8-2.81-.45-5.23-.79-8.04M305.53,127.71c2.44-2.99,2.95-7.12,2.37-10.77-.12-.71-.19-1.38-.72-1.94l-2.57,1.08c.06,3.89.37,7.78.92,11.63M305.17,137.28c-.94-1.58-1.53-2.95-1.82-4.74-.36-2.18.12-14.78-1.01-15.43-.86.37-1.79.74-2.53,1.29-3.87,2.89-13.08,13.99-14.75,18.3-1.52,3.9-3.9,26.36-2.4,29.74.06.15.16.29.24.42.68-.12,1.01-.48,1.5-.9,9.12-9.86,14.36-17.15,20.76-28.69M277.4,145.96c.06.59,0,1.07.39,1.56.62-1.15,2.19-10.21,2.07-11.56-.27-3.08-1.59-6.04-2.25-9.06-.55-2.48-.67-5.22-1.41-7.63-.3-.97-3.81-3.08-4.9-4.15-.86-.85-1.64-2.12-2.58-2.84-.51,7.42-2.1,11.06-5.82,17.59,2.57,2.36,5.11,4.86,7.92,6.99,1.36,1.03,4.02,2.32,4.96,3.63,1.03,1.44,1.31,3.77,1.62,5.47M124.26,251.56c-.21-2.63-.39-5.3-.42-7.95-2.38-.31-4.15-1.05-6.24-2.12.94,2.58,3.36,8.54,6.24,9.91.12.07.27.11.42.16M99.56,225.46c-1.09-4.08-2.14-8.18-3.74-12.12l-4.63.15c1.41,3.34,5.48,9.69,8.36,11.97M238.69,140.7l-7.69-.47v.9c1.1.41,2.43.32,3.59.7.89.29,1.77,1,2.62,1.42l.21-.23,1.28-2.33ZM132.52,136.82l-.48.2c1.26.65,2.62.88,3.9,1.47,3.12,1.42,6.13,3.66,8.99,5.49l.3-.11c-1.35-2.55-3.16-4.78-5.12-6.96-2.53-.21-5.07-.32-7.59-.1M170.41,126.88c-1.67.07-3.6.32-5.22.12.92,1.45,1.88,2.84,2.98,4.19l1.03-1.7,1.22-2.62ZM148.24,123.72c-1.22,1.7-2.71,3.21-3.94,4.88.95,1.75,2.01,3.44,3.11,5.12l1.22,1.77v-.42c-.06-1.92,1.06-9.88.16-10.91-.16-.2-.33-.29-.55-.44M286.48,130.16c2.37-2.27,8.17-7.66,9.57-10.12l-.22-.22c-2.05.6-4.11,1.19-6.16,1.75-.89,1.93-3.54,6.51-3.39,8.47l.21.12ZM170.8,188.59c-3.17-5.6-6.38-11.19-9.26-16.93-3.15-6.29-5.39-14.25-10.36-19.54-3.07-3.25-7.22-5.23-10.65-8.06.27,3.04-.3,5.79-2.46,8.21-.89,1-1.97,1.81-3.05,2.6,3.32,2.11,5.94,5.14,8.75,7.77,3.01,2.81,6.19,5.45,9.12,8.33,5.01,4.93,9.67,10.15,14.78,15l3.13,2.62ZM167.47,135.09c-2.08-2.23-3.97-4.55-5.3-7.26-1.99-.14-3.97-.3-5.97-.48.39,5.04-.34,8.51-3.29,12.77,2.89,9.99,7.89,18.98,12.65,28.26,1.59,3.11,2.95,6.56,4.97,9.44l.31.27c.61-3.29-4.36-18.33-6.06-21.89.68-1.41,1.34-2.71,1.58-4.25l.07-.44c.77-5.37-.19-10.65,1.03-16.43M97.88,99.91c.57,1.55,1.64,3.55.86,5.18-.34.73-.95,1.27-1.56,1.81,1.13.19,4.64,1.08,5.54.68l1.62-.1c-.73-1.67-4.81-6.48-6.46-7.58M74.36,223.93c-1.24.93-2.46,1.86-3.65,2.84,3.53.99,7.05,1.97,10.52,3.15l3.56.85c-3.54-2.22-6.97-4.54-10.43-6.84M155.77,220.76c.16,4.64.13,9.3,2.29,13.6l.64,1.06h.3c1.06-3.23,1.23-6.77,2.02-10.08.65-2.74,1.98-5.56,2.32-8.32l-.24-.26c-2.32,2.58-3.74,3.38-7.34,4M441.14,192.85c-.65,1.58-1.4,3.4-1.16,5.11l.28.05.33-.45c.15-.4.27-1.05.67-1.26.67-.36.95-.58,1.32-1.21-.07-.82-.8-1.7-1.44-2.25M370.5,215.09c-1.15-2.89-2.28-7.22-4.81-9.33-.58-.15-.95-.16-1.55-.11-2.16.56-7.7,1.29-8.86,3.07.61,1.55,4.12,4.48,5.4,6.11,1.64,2.07,2.89,4.28,4.03,6.6l1.59,3.29c1.8-3.03,3.21-6.26,4.18-9.63M389.71,208.42c.92-.71,1.89-1.36,2.56-2.27-.22-.31-.07-.25-.37-.3-.94.27-1.9.45-2.62,1.1-.16.63-.1.73.28,1.3.05.07.11.12.15.18M261.3,142.76l.5.42c1.52-.55,3.14-2.55,4.41-3.56-2.63-3.62-8.05-8.48-9.09-12.55-1.46,4.04-3.09,7.15-6.23,10.33,4.29.81,7.57,2.15,10.42,5.36M102.66,108.07c1.89,1.04,3.8,2.15,5.85,2.89-1.15-1.64-2.74-2.43-4.79-2.82-.37-.07-.7-.1-1.06-.07M257.74,115.81c-.15-3.07.22-6.54-.67-9.51l-.31-.15c-1.58.78-3.15,1.53-4.76,2.27,1.64,1.53,3.02,3.12,4.21,4.97l1.53,2.41ZM422.24,231.39c-5.6-.14-9.09-.89-13.72-3.85-4.28,6.78-9.97,12.55-15.21,18.67,3.48-1.11,6.9-2.25,10.13-3.93,6.44-3.33,12.68-7.07,18.8-10.89M311.69,190.14c4.26-1.77,8.5-3.51,13.21-1.86,1.06.37,1.99.92,2.89,1.55,1.15,1.84,1.86,3.93,2.66,5.92,1.74-2.07,3.57-3.49,5.89-5-4.21-1.49-7.92-3.14-9.84-7.21-.54-1.11-.88-3.56-1.96-4.22-4.75,3.19-9.12,6.66-12.86,10.82M189.25,138.08c-3.54-4.03-9.14-10.76-14.3-12.67-4.67,7.93-4.82,16.96-3.94,25.76,3.23-.79,6.65-1.44,9.73.18,1.68.89,2.89,2.36,3.88,3.86l.31.3c1.59-1.26,3.85-14.76,4.32-17.43M246.85,169.44c.94,5.74,2.77,10.93,4.82,16.39.76-1.14,1.34-2.3,1.92-3.52,1.53-3.07,3.12-6.11,4.12-9.36-3.78-.9-7.31-2.07-10.86-3.51M292.34,200.9c5.61-4.4,11.53-8.91,16.15-14.24,2.69-3.1,4.94-6.55,7.32-9.84,2.13-2.93,4.42-5.08,4.75-8.8.12-1.32.48-11.92.34-12.55-3.89,3.12-7.89,6.22-11.36,9.75-6.76,6.92-11.28,15.99-14.39,24.76-1.12,3.14-2.62,6.76-2.84,10.04,0,.3,0,.58.03.86M260.12,103.81c-.82,5.63-1.7,16.59.6,21.73l1.43-2.67c2.19-4.48,2.93-8.96,3.78-13.77-1.86-1.82-3.63-3.78-5.8-5.29M118.79,210.82c-3.29,1.82-4.84,4.95-5.71,8.26-1.24,4.69-.68,9-.15,13.73.22-1.77.48-3.51.8-5.26,1.1-3.1,2.89-5.77,6.13-7.32,1.67-.79,3.36-1.11,5.21-1.37-1.96-1.63-3.87-3.1-4.82-5.45-.39-.97-.33-2.29-1.46-2.59M166.81,201.18c.94,3,2.26,5.71,3.97,8.41,3.04,4.78,16.37,21.13,21,23.37.09.04.18.07.25.11-5.97-9.99-14.41-26.26-25.22-31.9M105.77,206.46c-2.04,3.03-3.9,4.77-7.43,6.29,1.83,7.76,2.72,14.98,8.21,21.47,1.82,2.14,3.94,4.08,5.89,6.12.91,1.03,1.8,2.12,2.81,3.06-6.98-11.71-6.68-19.7-3.04-32.38-2.22-1.36-4.24-3.32-6.46-4.56M132.61,237.19c7.19,2.75,13.78,6.75,20.88,9.6,2.23,1.29,4.48,2.56,6.59,4.01-2.08-11-4.73-17.96-12.4-26.79-2.02-2.33-4.09-4.68-6.68-6.51-2.37,2.32-4.93,3.22-8.2,4.01,2.17,2.99,2.89,5.95,2.14,9.51-.43,2.18-1.36,4.16-2.34,6.15M372.03,232.07c4.48-4.99,10.48-11.44,11.52-17.98.37-2.3.03-4.64-.21-6.95l-.06-.62c-2.99-1.4-5.31-2.86-7.44-5.29-.54-.62-.95-1.36-1.5-1.95-.85,4.21-.45,8.56-1.33,12.84-1.74,8.4-4.75,16.4-5.89,24.94,1.73-1.59,3.3-3.3,4.91-5"/>
      </g>
      <g class="cls-7">
        <path d="M102.66,108.07c.37-.01.68,0,1.04.07,2.05.4,3.66,1.18,4.79,2.82-2.04-.74-3.94-1.85-5.83-2.89"/>
      </g>
      <g class="cls-5">
        <path d="M430.35,229.89c-1.58,1.04-3.2,2-4.46,3.36-.4-.23-.77-.55-1.16-.82,1.83-1.07,3.57-1.86,5.63-2.54"/>
        <path class="cls-3" d="M331.79,298.5c-3.14-2.32-5.91-5.88-7.77-9.23-1.87-3.38-3.72-8.3-2.58-11.93.44-1.38,1.35-2.57,2.71-3.13,3.06-1.24,10.29-1.19,13.48.1,2.42,1.35,4.59,2.72,5.62,5.41,2.44,6.39.1,18.43-2.54,24.19-3.26-1.31-6.09-3.3-8.92-5.4"/>
        <path class="cls-3" d="M349.7,289.31c-3.89-.33-8.11-1.91-11.46-3.79-3.37-1.9-7.52-5.12-8.45-8.8-.35-1.41-.2-2.9.66-4.09,1.96-2.66,8.13-6.41,11.53-6.99,2.77-.12,5.33-.09,7.62,1.66,5.42,4.16,9.75,15.64,10.52,21.93-3.46.59-6.92.38-10.43.08"/>
        <path class="cls-3" d="M343.44,258.85c1.27,3.69,1.53,8.19,1.16,12.01-.38,3.85-1.64,8.94-4.64,11.28-1.14.89-2.57,1.35-4.01,1.04-3.23-.71-9.15-4.85-11.05-7.73-1.23-2.48-2.23-4.84-1.56-7.64,1.62-6.64,10.37-15.24,15.82-18.48,1.94,2.93,3.14,6.17,4.28,9.51"/>
        <path class="cls-3" d="M378.25,278.44c-3.87-.47-8.04-2.21-11.31-4.21-3.29-2.02-7.32-5.39-8.11-9.11-.3-1.42-.09-2.91.82-4.06,2.05-2.59,8.36-6.11,11.78-6.55,2.77-.02,5.33.11,7.55,1.94,5.27,4.36,9.16,15.99,9.7,22.3-3.48.46-6.93.12-10.42-.31"/>
        <path class="cls-3" d="M367.14,293.94c-2.27-3.17-3.8-7.42-4.54-11.18-.74-3.8-.98-9.04,1.23-12.14.84-1.18,2.08-2.03,3.54-2.14,3.3-.24,10.15,2.04,12.79,4.26,1.88,2.03,3.52,4,3.67,6.88.34,6.83-5.6,17.56-9.89,22.22-2.69-2.25-4.77-5.02-6.81-7.89"/>
      </g>
      <g class="cls-6">
        <path d="M175.98,26.06c.12.4.16.59.43.92-.3.7-.55,1.64-1.12,2.18.15-1.05.39-2.05.68-3.1"/>
        <path class="cls-2" d="M363,204.5c0,6.9-5.15,12.5-11.5,12.5s-11.5-5.6-11.5-12.5,5.15-12.5,11.5-12.5,11.5,5.6,11.5,12.5"/>
        <path class="cls-2" d="M407,174.5c0,6.9-5.15,12.5-11.5,12.5s-11.5-5.6-11.5-12.5,5.15-12.5,11.5-12.5,11.5,5.6,11.5,12.5"/>
        <path class="cls-2" d="M265,63.5c0,6.9-5.15,12.5-11.5,12.5s-11.5-5.6-11.5-12.5,5.15-12.5,11.5-12.5,11.5,5.6,11.5,12.5"/>
        <path class="cls-2" d="M334,79.5c0,6.9-5.15,12.5-11.5,12.5s-11.5-5.6-11.5-12.5,5.15-12.5,11.5-12.5,11.5,5.6,11.5,12.5"/>
        <path class="cls-2" d="M189,71.5c0,6.9-5.15,12.5-11.5,12.5s-11.5-5.6-11.5-12.5,5.15-12.5,11.5-12.5,11.5,5.6,11.5,12.5"/>
        <path class="cls-2" d="M143,224.5c0,6.9-5.15,12.5-11.5,12.5s-11.5-5.6-11.5-12.5,5.15-12.5,11.5-12.5,11.5,5.6,11.5,12.5"/>
        <path class="cls-2" d="M398,290.5c0,6.9-5.15,12.5-11.5,12.5s-11.5-5.6-11.5-12.5,5.15-12.5,11.5-12.5,11.5,5.6,11.5,12.5"/>
        <path class="cls-2" d="M450,224.5c0,6.9-5.15,12.5-11.5,12.5s-11.5-5.6-11.5-12.5,5.15-12.5,11.5-12.5,11.5,5.6,11.5,12.5"/>
        <path class="cls-2" d="M239,102.5c0,6.9-5.15,12.5-11.5,12.5s-11.5-5.6-11.5-12.5,5.15-12.5,11.5-12.5,11.5,5.6,11.5,12.5"/>
        <path class="cls-2" d="M193,115.5c0,6.9-5.15,12.5-11.5,12.5s-11.5-5.6-11.5-12.5,5.15-12.5,11.5-12.5,11.5,5.6,11.5,12.5"/>
        <path class="cls-2" d="M345,272.5c0,6.9-5.15,12.5-11.5,12.5s-11.5-5.6-11.5-12.5,5.15-12.5,11.5-12.5,11.5,5.6,11.5,12.5"/>
        <path class="cls-2" d="M128,183.5c0,6.9-5.15,12.5-11.5,12.5s-11.5-5.6-11.5-12.5,5.15-12.5,11.5-12.5,11.5,5.6,11.5,12.5"/>
        <path class="cls-2" d="M132,99.5c0,6.9-5.15,12.5-11.5,12.5s-11.5-5.6-11.5-12.5,5.15-12.5,11.5-12.5,11.5,5.6,11.5,12.5"/>
        <path class="cls-2" d="M74,241.5c0,6.9-5.15,12.5-11.5,12.5s-11.5-5.6-11.5-12.5,5.15-12.5,11.5-12.5,11.5,5.6,11.5,12.5"/>
        <path class="cls-2" d="M86,208.5c0,6.9-5.15,12.5-11.5,12.5s-11.5-5.6-11.5-12.5,5.15-12.5,11.5-12.5,11.5,5.6,11.5,12.5"/>
        <path class="cls-2" d="M54,224.5c0,6.9-5.15,12.5-11.5,12.5s-11.5-5.6-11.5-12.5,5.15-12.5,11.5-12.5,11.5,5.6,11.5,12.5"/>
        <path class="cls-3" d="M243.15,107.65c-3.87-.47-8.04-2.21-11.31-4.21-3.29-2.02-7.32-5.39-8.11-9.11-.3-1.42-.09-2.91.82-4.06,2.05-2.59,8.36-6.11,11.78-6.55,2.77-.02,5.33.11,7.55,1.94,5.27,4.36,9.16,15.99,9.7,22.3-3.48.46-6.93.12-10.42-.31"/>
        <path class="cls-3" d="M182.15,95.65c-3.87-.47-8.04-2.21-11.31-4.21-3.29-2.02-7.32-5.39-8.11-9.11-.3-1.42-.09-2.91.82-4.06,2.05-2.59,8.36-6.11,11.78-6.55,2.77-.02,5.33.11,7.55,1.94,5.27,4.36,9.16,15.99,9.7,22.3-3.48.46-6.93.12-10.42-.31"/>
        <path class="cls-3" d="M315.15,82.65c-3.87-.47-8.04-2.21-11.31-4.21-3.29-2.02-7.32-5.39-8.11-9.11-.3-1.42-.09-2.91.82-4.06,2.05-2.59,8.36-6.11,11.78-6.55,2.77-.02,5.33.11,7.55,1.94,5.27,4.36,9.16,15.99,9.7,22.3-3.48.46-6.93.12-10.42-.31"/>
        <path class="cls-3" d="M396.15,195.65c-3.87-.47-8.04-2.21-11.31-4.21-3.29-2.02-7.32-5.39-8.11-9.11-.3-1.42-.09-2.91.82-4.06,2.05-2.59,8.36-6.11,11.78-6.55,2.77-.02,5.33.11,7.55,1.94,5.27,4.36,9.16,15.99,9.7,22.3-3.48.46-6.93.12-10.42-.31"/>
        <path class="cls-3" d="M388.15,280.65c-3.87-.47-8.04-2.21-11.31-4.21-3.29-2.02-7.32-5.39-8.11-9.11-.3-1.42-.09-2.91.82-4.06,2.05-2.59,8.36-6.11,11.78-6.55,2.77-.02,5.33.11,7.55,1.94,5.27,4.36,9.16,15.99,9.7,22.3-3.48.46-6.93.12-10.42-.31"/>
        <path class="cls-3" d="M349.15,296.65c-3.87-.47-8.04-2.21-11.31-4.21-3.29-2.02-7.32-5.39-8.11-9.11-.3-1.42-.09-2.91.82-4.06,2.05-2.59,8.36-6.11,11.78-6.55,2.77-.02,5.33.11,7.55,1.94,5.27,4.36,9.16,15.99,9.7,22.3-3.48.46-6.93.12-10.42-.31"/>
        <path class="cls-3" d="M57.73,200.28c-1.47-3.61-1.98-8.1-1.81-11.93.17-3.86,1.15-9.02,4.02-11.52,1.09-.95,2.5-1.49,3.95-1.26,3.26.54,9.4,4.35,11.45,7.11,1.36,2.41,2.5,4.71,1.97,7.54-1.25,6.72-9.52,15.78-14.78,19.31-2.09-2.82-3.47-5.99-4.79-9.26"/>
        <path class="cls-3" d="M44.73,236.28c-1.47-3.61-1.98-8.1-1.81-11.93.17-3.86,1.15-9.02,4.02-11.52,1.09-.95,2.5-1.49,3.95-1.26,3.26.54,9.4,4.35,11.45,7.11,1.36,2.41,2.49,4.71,1.97,7.54-1.25,6.72-9.52,15.78-14.78,19.31-2.09-2.82-3.47-5.99-4.79-9.26"/>
        <path class="cls-3" d="M133.73,224.28c-1.47-3.61-1.98-8.1-1.82-11.93.17-3.86,1.15-9.02,4.02-11.52,1.09-.95,2.5-1.49,3.95-1.26,3.26.54,9.4,4.35,11.45,7.11,1.36,2.41,2.49,4.71,1.97,7.54-1.25,6.72-9.52,15.78-14.78,19.31-2.09-2.82-3.47-5.99-4.79-9.26"/>
        <path class="cls-3" d="M106.73,186.28c-1.47-3.61-1.98-8.1-1.82-11.93.17-3.86,1.15-9.02,4.02-11.52,1.09-.95,2.5-1.49,3.95-1.26,3.26.54,9.4,4.35,11.45,7.11,1.36,2.41,2.5,4.71,1.97,7.54-1.25,6.72-9.52,15.78-14.78,19.31-2.09-2.82-3.47-5.99-4.79-9.26"/>
        <path class="cls-3" d="M116.73,116.28c-1.47-3.61-1.98-8.1-1.82-11.93.17-3.86,1.15-9.02,4.02-11.52,1.09-.95,2.5-1.49,3.95-1.26,3.26.54,9.4,4.35,11.45,7.11,1.36,2.41,2.5,4.71,1.97,7.54-1.25,6.72-9.52,15.78-14.78,19.31-2.09-2.82-3.47-5.99-4.79-9.26"/>
        <path class="cls-3" d="M240.73,70.28c-1.47-3.61-1.98-8.1-1.82-11.93.17-3.86,1.15-9.02,4.02-11.52,1.09-.95,2.5-1.49,3.95-1.26,3.26.54,9.4,4.35,11.45,7.11,1.36,2.41,2.5,4.71,1.97,7.54-1.25,6.72-9.52,15.78-14.78,19.31-2.09-2.82-3.47-5.99-4.79-9.26"/>
        <path class="cls-3" d="M342.73,199.28c-1.47-3.61-1.98-8.1-1.82-11.93.17-3.86,1.15-9.02,4.02-11.52,1.09-.95,2.5-1.49,3.95-1.26,3.26.54,9.4,4.35,11.45,7.11,1.36,2.41,2.49,4.71,1.97,7.54-1.25,6.72-9.52,15.78-14.78,19.31-2.09-2.82-3.47-5.99-4.79-9.26"/>
        <path class="cls-3" d="M171.73,110.28c-1.47-3.61-1.98-8.1-1.82-11.93.17-3.86,1.15-9.02,4.02-11.52,1.09-.95,2.5-1.49,3.95-1.26,3.26.54,9.4,4.35,11.45,7.11,1.36,2.41,2.49,4.71,1.97,7.54-1.25,6.72-9.52,15.78-14.78,19.31-2.09-2.82-3.47-5.99-4.79-9.26"/>
      </g>
    </g>
  </g>
</svg>