<?xml version="1.0" encoding="UTF-8"?>
<svg id="Layer_1" data-name="Layer 1" xmlns="http://www.w3.org/2000/svg" xmlns:xlink="http://www.w3.org/1999/xlink" viewBox="0 0 500 499.92">
  <defs>
    <style>
      .cls-1 {
        fill: none;
      }

      .cls-2 {
        clip-path: url(#clippath-1);
      }

      .cls-3 {
        fill: #9a6c29;
      }

      .cls-4 {
        clip-path: url(#clippath);
      }
    </style>
    <clipPath id="clippath">
      <rect class="cls-1" y="0" width="500" height="499.92"/>
    </clipPath>
    <clipPath id="clippath-1">
      <rect class="cls-1" y="0" width="500" height="499.92"/>
    </clipPath>
  </defs>
  <g id="Aquarius">
    <g class="cls-4">
      <g class="cls-2">
        <path class="cls-3" d="M334.74,499.92h0c-45.97,0-84.21-18.98-110.6-54.9-34.61-47.1-38.06-97.81-40.57-134.84-.79-11.59-1.53-22.54-3.1-31.65-8.76-51.01-40.07-82.17-64.79-99.33-26.86-18.64-51.85-25.24-52.1-25.3-1.08-.28-1.91-1.16-2.12-2.26-.21-1.1.23-2.22,1.13-2.88L239.34,18.86c.9-.67,2.1-.75,3.09-.21.98.53,1.58,1.58,1.52,2.69-.01.26-1.17,26.25,8.65,57.47,9.01,28.65,29.4,67.75,75.38,91.3,8.23,4.21,18.45,8.19,29.28,12.4,34.59,13.46,81.96,31.89,116.57,78.99,30.59,41.62,34.49,92.61,10.98,143.59l-.91,1.12-124.68,91.62-1.34.54c-7.86,1.02-15.65,1.53-23.14,1.53M70.68,150c9.11,3.03,28.04,10.37,48.3,24.44,25.63,17.79,58.1,50.12,67.2,103.11,1.61,9.4,2.37,20.49,3.17,32.23,2.6,38.34,5.84,86.06,39.46,131.8,25.26,34.37,61.89,52.54,105.93,52.54h0c7.02,0,14.3-.47,21.66-1.39l123.47-90.73c22.57-49.44,18.87-96.81-10.71-137.05-33.62-45.74-78.19-63.09-114-77.02-10.97-4.27-21.33-8.3-29.82-12.65-47.85-24.51-69.01-65.15-78.33-94.93-7.37-23.54-8.72-43.79-8.89-53.39l-167.44,123.05Z"/>
        <path class="cls-3" d="M203.19,262.4c-1.2,0-2.33-.75-2.74-1.95-41.57-120.1-114.43-121.89-115.16-121.89-1.6-.01-2.89-1.32-2.88-2.91,0-1.6,1.31-2.88,2.9-2.88h.02c.8,0,19.91.29,44.47,16.1,22.4,14.42,53.79,45.15,76.13,109.7.52,1.51-.28,3.16-1.79,3.69l-.95.16Z"/>
        <path class="cls-3" d="M262.15,144.63l-2.19-1c-52.89-60.65-38.84-109.1-38.22-111.13.47-1.53,2.09-2.39,3.62-1.92,1.53.47,2.39,2.09,1.92,3.62-.16.55-13.54,47.62,37.05,105.63,1.05,1.21.93,3.04-.28,4.09l-1.9.71Z"/>
        <path class="cls-3" d="M281.9,196.24l-2.08-.87C188.79,102.02,205.15,46.45,205.88,44.14c.49-1.52,2.12-2.36,3.64-1.88,1.52.48,2.36,2.11,1.88,3.63-.17.54-15.7,54.93,72.56,145.43,1.12,1.15,1.1,2.98-.05,4.1l-2.02.82Z"/>
        <path class="cls-3" d="M191.15,196.81c-.98,0-1.93-.49-2.47-1.38-40.34-65.73-85.32-69.94-85.77-69.97-1.6-.13-2.79-1.51-2.67-3.11.12-1.59,1.51-2.78,3.1-2.67,1.95.14,48.26,4.24,90.28,72.73.84,1.36.41,3.15-.95,3.99l-1.51.43Z"/>
        <path class="cls-3" d="M90.5,164.13l-2.34-1.18c-.95-1.29-.67-3.1.62-4.05L241.2,46.88c1.29-.95,3.1-.67,4.05.62.95,1.29.67,3.1-.62,4.05l-152.43,112.02-1.71.57Z"/>
        <path class="cls-3" d="M104.19,171.37l-2.34-1.18c-.95-1.29-.67-3.1.62-4.05L244.02,62.11c1.29-.95,3.1-.67,4.05.62.95,1.29.67,3.1-.62,4.05l-141.55,104.03-1.71.56Z"/>
        <path class="cls-3" d="M166.33,143.46l-2.34-1.18c-.95-1.29-.67-3.1.62-4.05l83.38-61.28c1.29-.95,3.1-.67,4.05.62.95,1.29.67,3.1-.62,4.05l-83.38,61.28-1.71.56Z"/>
        <path class="cls-3" d="M331.72,498.88l-2.34-1.18c-.95-1.29-.67-3.1.62-4.05l158.63-116.58c1.29-.95,3.1-.67,4.05.62.95,1.29.67,3.1-.62,4.05l-158.63,116.58-1.71.56Z"/>
        <path class="cls-3" d="M312.62,497.07l-2.34-1.18c-.95-1.29-.67-3.11.62-4.05l182.64-134.22c1.29-.95,3.1-.67,4.05.62.95,1.29.67,3.1-.62,4.05l-182.64,134.22-1.71.56Z"/>
        <path class="cls-3" d="M283.18,489.5l-2.34-1.18c-.95-1.29-.67-3.1.62-4.05l213.65-157.01c1.29-.95,3.1-.67,4.05.62.95,1.29.67,3.1-.62,4.05l-213.65,157.01-1.71.56Z"/>
        <path class="cls-3" d="M268.49,481.1l-2.34-1.18c-.95-1.29-.67-3.1.62-4.05l224.7-165.13c1.29-.95,3.11-.67,4.05.62.95,1.29.67,3.1-.62,4.05l-224.7,165.13-1.71.56Z"/>
        <path class="cls-3" d="M210.12,241.57c-1.26-2.8-.02-6.09,2.78-7.35,2.8-1.26,6.09-.02,7.35,2.78,1.27,2.8.02,6.09-2.78,7.36-2.8,1.26-6.09.02-7.36-2.78"/>
        <path class="cls-3" d="M205.58,227.71c-.99-2.2-.01-4.78,2.18-5.77,2.19-.99,4.78-.02,5.77,2.18.99,2.2.02,4.78-2.18,5.77-2.2.99-4.78.02-5.77-2.18"/>
        <path class="cls-3" d="M201.43,216.43c-.71-1.58,0-3.43,1.57-4.15,1.58-.71,3.43-.01,4.14,1.57s.01,3.44-1.56,4.14c-1.58.71-3.44.01-4.15-1.56"/>
        <path class="cls-3" d="M197.44,207.6c-.52-1.16,0-2.52,1.15-3.05,1.16-.52,2.52,0,3.05,1.15.52,1.16,0,2.52-1.15,3.04-1.16.52-2.52,0-3.05-1.15"/>
        <path class="cls-3" d="M221.58,287.08c.37,3.05-1.79,5.82-4.84,6.19-3.05.37-5.82-1.8-6.2-4.84-.37-3.05,1.8-5.82,4.84-6.19,3.05-.37,5.82,1.79,6.19,4.84"/>
        <path class="cls-3" d="M219.7,303.04c.29,2.39-1.41,4.57-3.8,4.86-2.39.29-4.56-1.41-4.86-3.8-.29-2.39,1.41-4.56,3.8-4.86,2.39-.29,4.56,1.41,4.86,3.8"/>
        <path class="cls-3" d="M218.78,315.53c.21,1.72-1.01,3.28-2.73,3.49-1.72.21-3.28-1.01-3.49-2.73-.21-1.72,1.01-3.28,2.73-3.49,1.72-.21,3.28,1.01,3.49,2.73"/>
        <path class="cls-3" d="M219.07,326.57c.16,1.26-.74,2.41-2.01,2.56-1.26.16-2.41-.74-2.56-2-.16-1.26.75-2.41,2.01-2.57,1.26-.15,2.41.74,2.56,2.01"/>
        <path class="cls-3" d="M296.23,173.39c-2.06-2.28-5.57-2.46-7.85-.41-2.28,2.06-2.47,5.57-.41,7.85,2.06,2.28,5.57,2.46,7.85.41,2.28-2.06,2.47-5.57.41-7.85"/>
        <path class="cls-3" d="M285.37,163.67c-1.61-1.79-4.37-1.93-6.16-.32-1.79,1.61-1.93,4.37-.32,6.16,1.61,1.79,4.36,1.93,6.16.32,1.79-1.61,1.93-4.37.32-6.16"/>
        <path class="cls-3" d="M276.71,155.33c-1.16-1.29-3.14-1.39-4.43-.23-1.29,1.16-1.39,3.14-.23,4.43,1.16,1.29,3.14,1.39,4.43.23,1.29-1.16,1.39-3.14.23-4.43"/>
        <path class="cls-3" d="M270.23,148.14c-.85-.94-2.31-1.02-3.25-.17-.95.85-1.02,2.31-.17,3.25.85.94,2.31,1.02,3.25.17.94-.85,1.02-2.31.17-3.25"/>
        <path class="cls-3" d="M469.11,369.6l-.89-.14c-1.52-.49-2.36-2.12-1.87-3.65,9.15-28.37,5.82-57.62-9.91-86.92-25.18-46.92-86.33-71-133.19-82.94-1.55-.4-2.49-1.97-2.09-3.53.4-1.55,1.97-2.48,3.52-2.09,47.99,12.23,110.69,37.05,136.86,85.82,16.51,30.75,19.98,61.51,10.32,91.44-.4,1.23-1.53,2.01-2.76,2.01"/>
        <path class="cls-3" d="M449.51,338.44l-.89-.14c-1.52-.49-2.36-2.12-1.87-3.65,6.09-18.89,3.87-38.38-6.62-57.92-16.83-31.36-57.84-47.49-89.28-55.5-1.55-.4-2.49-1.98-2.1-3.53.4-1.55,1.98-2.48,3.52-2.09,32.57,8.3,75.13,25.17,92.96,58.38,11.26,20.98,13.63,41.99,7.03,62.44-.4,1.22-1.53,2.01-2.76,2.01"/>
        <path class="cls-3" d="M326.93,473.36c-31.04,0-59.01-12.5-83.16-37.16-38.73-39.55-43.69-106.8-41.03-156.25.09-1.6,1.46-2.84,3.05-2.74,1.6.09,2.83,1.45,2.74,3.05-2.6,48.29,2.12,113.84,39.38,151.88,23.02,23.51,49.61,35.42,79.03,35.42h.96s.03,0,.03,0c1.59,0,2.88,1.28,2.9,2.87.02,1.6-1.27,2.91-2.87,2.92h-1.02Z"/>
        <path class="cls-3" d="M303.06,406.76l-1.79-.62c-1.26-.99-1.48-2.81-.48-4.07,2.43-3.08,4.86-7.41,7.05-12.51,5.92-13.81,3.6-29.85-5.77-39.93-2.36-2.53-6.51-5.26-11.39-7.48-5.53-2.51-11.64-2.95-18.17-1.31-3.27.82-7.2,2.74-10.5,5.13-2.44,1.76-4.94,4.23-7.06,6.95-6.15,7.93-8.29,17.97-6.05,28.29,1.43,6.56,5.86,12.38,11.87,15.57,5.64,3,11.91,3.38,17.66,1.09,3.36-1.34,6.81-4.54,9.46-8.79,3.08-4.93,3.36-11.71.71-16.86-2.29-4.44-7.98-7.18-12.96-6.21-2.97.56-7.91,2.81-7.6,7.63.13,2.04,1.38,5.07,3.15,6.39.91.67,1.6.63,2.1.51,1.56-.36,3.12.61,3.48,2.17.36,1.56-.61,3.12-2.17,3.48-2.41.56-4.79.04-6.86-1.51-3.46-2.57-5.26-7.33-5.48-10.67-.5-7.71,6.02-12.51,12.29-13.7,7.5-1.42,15.75,2.55,19.21,9.25,3.62,7.02,3.25,15.89-.94,22.59-1.94,3.1-6.1,8.66-12.23,11.1-7.36,2.94-15.36,2.45-22.53-1.36-7.49-3.98-13.02-11.25-14.81-19.45-2.62-12.02-.09-23.77,7.13-33.07,2.44-3.15,5.37-6.02,8.24-8.1,3.92-2.84,8.48-5.04,12.48-6.05,7.72-1.94,15.32-1.37,21.98,1.66,3.27,1.48,9.32,4.59,13.24,8.81,11.08,11.91,13.77,30.02,6.86,46.16-2.42,5.64-5.05,10.29-7.83,13.82l-2.28,1.11Z"/>
        <path class="cls-3" d="M340.54,379.7l-.29-.03-1.13-1.71c.36-1.76,8.17-43.24-39.14-60.28l-.87-1.85,1.86-.87c49.71,17.91,41.09,63.13,40.99,63.58l-1.42,1.16Z"/>
        <path class="cls-3" d="M328.57,377.21l-.3-.03-1.12-1.71c.28-1.36,6.48-33.36-30.01-46.74l-.86-1.86,1.86-.86c38.88,14.25,31.92,49.69,31.84,50.05l-1.41,1.15Z"/>
        <path class="cls-3" d="M259.98,358.2c1.66-.27,2.83-1.79,2.61-3.41-.22-1.62-1.74-2.72-3.4-2.45-1.65.27-2.83,1.79-2.61,3.41.22,1.62,1.74,2.72,3.39,2.45"/>
        <path class="cls-3" d="M265.64,351.64c1.3-.21,2.22-1.4,2.05-2.68-.17-1.27-1.36-2.13-2.66-1.92-1.3.21-2.22,1.41-2.05,2.67.17,1.27,1.36,2.13,2.66,1.92"/>
        <path class="cls-3" d="M271.68,347.33c.93-.15,1.59-1.01,1.47-1.92-.12-.91-.98-1.53-1.91-1.38-.94.15-1.6,1.01-1.47,1.93.12.91.98,1.53,1.91,1.38"/>
        <polygon class="cls-3" points="277.04 344.7 278.12 343.29 276.71 342.28 275.63 343.69 277.04 344.7"/>
        <polygon class="cls-3" points="281.7 343.74 282.54 342.64 281.44 341.85 280.6 342.95 281.7 343.74"/>
        <polygon class="cls-3" points="286.1 343.6 286.76 342.73 285.9 342.1 285.23 342.97 286.1 343.6"/>
        <path class="cls-3" d="M391.93,330.74c-15.29,0-30.11-8.34-37.98-21.47-1.97-3.29-3.51-7.99-4.13-12.6-2.5-18.81,11.71-33.36,25.97-38.92,16.88-6.58,35.31,0,43.82,15.68,4.37,8.06,4.53,17.03.43,24.63-4.26,7.89-12.5,13.07-22.05,13.87-4.21.34-9.5-1.09-12.64-2.58-5.83-2.77-9.71-9.7-9.65-17.25.06-6.57,3.2-11.91,8.42-14.27,5.27-2.39,10.5-2.03,14.36.98,4.97,3.89,6.59,9.1,4.13,13.29-.81,1.38-2.58,1.85-3.97,1.04-1.38-.81-1.84-2.59-1.03-3.97,1.4-2.4-2.01-5.25-2.71-5.79-2.87-2.24-6.49-1.13-8.39-.27-4.48,2.03-5,7-5.02,9.04-.05,5.26,2.56,10.18,6.33,11.97,2.51,1.19,6.81,2.28,9.67,2.04,7.59-.63,14.11-4.69,17.43-10.84,3.15-5.84,3-12.81-.42-19.11-7.1-13.06-22.5-18.55-36.62-13.04-12.22,4.77-24.42,17.05-22.33,32.75.51,3.81,1.79,7.78,3.35,10.39,6.99,11.65,20.3,18.92,33.89,18.64,6.4-.16,12.17-1.2,17.14-3.09,1.5-.57,3.17.18,3.74,1.68.57,1.5-.18,3.17-1.68,3.74-5.59,2.13-12,3.29-19.06,3.47h-1.02Z"/>
        <path class="cls-3" d="M375.36,354.11h-.15c-.46-.06-46.2-5.33-48.44-58.12l1.39-1.51,1.51,1.39c2.13,50.24,44.05,55.16,45.84,55.35l1.29,1.59-1.44,1.3Z"/>
        <path class="cls-3" d="M376.55,341.95h-.14c-.36-.04-36.27-3.98-38.25-45.34l1.38-1.52,1.52,1.38c1.86,38.81,34.26,42.46,35.64,42.59l1.3,1.58-1.44,1.31Z"/>
        <path class="cls-3" d="M380.28,269.79c-.75,1.5-2.56,2.16-4.03,1.47-1.48-.69-2.07-2.47-1.33-3.97.75-1.5,2.56-2.16,4.04-1.47,1.48.69,2.07,2.47,1.33,3.97"/>
        <path class="cls-3" d="M372.33,273.24c-.59,1.18-2.01,1.7-3.17,1.15-1.16-.54-1.63-1.94-1.04-3.11.59-1.18,2.01-1.7,3.17-1.15,1.16.54,1.63,1.93,1.04,3.11"/>
        <polygon class="cls-3" points="366.41 277.71 364.13 278.54 363.39 276.31 365.66 275.48 366.41 277.71"/>
        <polygon class="cls-3" points="362.31 282.04 360.63 282.65 360.09 281.01 361.76 280.4 362.31 282.04"/>
        <polygon class="cls-3" points="360 286.2 358.69 286.68 358.26 285.39 359.57 284.92 360 286.2"/>
        <polygon class="cls-3" points="358.54 290.36 357.51 290.73 357.18 289.72 358.21 289.34 358.54 290.36"/>
        <path class="cls-3" d="M390.6,200.64l-2.01-.81c-1.15-1.1-1.19-2.94-.08-4.1,33.74-35.16,34.43-95.36,1.61-140.02C351.96,3.78,292.81-9.19,242.92,23.42c-1.34.88-3.14.5-4.01-.84-.87-1.34-.5-3.14.84-4.01C264.24,2.55,292.71-3.38,319.89,1.86c28.84,5.56,54.74,22.99,74.9,50.42,16.9,23,25.94,50.6,25.46,77.72-.48,26.96-10.26,51.73-27.56,69.75l-2.09.89Z"/>
        <path class="cls-3" d="M373.4,194.93l-2.34-1.18c-.95-1.29-.67-3.1.62-4.05,15.61-11.47,25.23-31.72,26.4-55.56,1.2-24.46-6.78-50.26-21.87-70.8-17.68-24.06-39.56-38.66-63.29-42.22-22.96-3.46-46.33,3.5-69.43,20.65-1.29.95-3.1.69-4.06-.6-.95-1.29-.69-3.1.6-4.06,24.39-18.11,49.21-25.42,73.75-21.73,25.28,3.8,48.49,19.2,67.1,44.52,16.1,21.91,24.26,48.37,22.99,74.52-1.25,25.59-11.73,47.44-28.75,59.95l-1.71.56Z"/>
        <path class="cls-3" d="M85.31,334.05C35.88,334.05,0,291.85,0,233.72c0-55.06,37.38-99.85,83.33-99.85,1.6,0,2.9,1.3,2.9,2.9s-1.3,2.9-2.9,2.9c-42.75,0-77.53,42.19-77.53,94.05,0,54.77,33.44,94.53,79.51,94.53,1.6,0,2.9,1.3,2.9,2.9s-1.3,2.9-2.9,2.9"/>
        <path class="cls-3" d="M109.07,338.07c-13.26,0-26.81-3.64-39.7-10.83-21.21-11.83-38.13-31.89-47.66-56.49-9.52-24.59-10.52-50.82-2.81-73.85,7.77-23.22,23.46-40.43,44.16-48.44,1.49-.58,3.17.17,3.75,1.66.58,1.49-.16,3.17-1.66,3.75-19.06,7.38-33.54,23.32-40.76,44.87-7.29,21.75-6.32,46.58,2.72,69.92,9.03,23.33,25.04,42.34,45.08,53.51,19.85,11.08,41.28,13.11,60.35,5.73,1.49-.58,3.17.16,3.75,1.66.58,1.49-.16,3.17-1.66,3.75-8.22,3.18-16.83,4.76-25.56,4.76"/>
      </g>
    </g>
  </g>
</svg>