<?xml version="1.0" encoding="UTF-8"?>
<svg id="Layer_1" xmlns="http://www.w3.org/2000/svg" version="1.1" viewBox="0 0 359.99 326.16">
  <!-- Generator: Adobe Illustrator 30.5.1, SVG Export Plug-In . SVG Version: 2.1.4 Build 3)  -->
  <defs>
    <style>
      .st0 {
        fill: #f1d380;
      }
    </style>
  </defs>
  <path class="st0" d="M306.62,67.91c.64,1.33,2.24,1.89,3.57,1.25s1.89-2.24,1.25-3.57-2.24-1.89-3.57-1.25-1.89,2.24-1.25,3.57Z"/>
  <path class="st0" d="M303.03,57.08c.64,1.33,2.24,1.89,3.57,1.25,1.33-.64,1.89-2.24,1.25-3.57-.64-1.33-2.24-1.89-3.57-1.25-1.33.64-1.89,2.24-1.25,3.57Z"/>
  <path class="st0" d="M302.72,48.34c1.33-.64,1.89-2.24,1.25-3.57-.64-1.33-2.24-1.89-3.57-1.25-1.33.64-1.89,2.24-1.25,3.57.64,1.33,2.24,1.89,3.57,1.25Z"/>
  <path class="st0" d="M281.93,16.56c.64,1.33,2.24,1.89,3.57,1.25,1.33-.64,1.89-2.24,1.25-3.57s-2.24-1.89-3.57-1.25c-1.33.64-1.89,2.24-1.25,3.57Z"/>
  <path class="st0" d="M291.72,27.38c1.33-.64,1.89-2.24,1.25-3.57s-2.24-1.89-3.57-1.25-1.89,2.24-1.25,3.57,2.24,1.89,3.57,1.25Z"/>
  <path class="st0" d="M297.1,36.65c1.33-.64,1.89-2.24,1.25-3.57-.64-1.33-2.24-1.89-3.57-1.25-1.33.64-1.89,2.24-1.25,3.57.64,1.33,2.24,1.89,3.57,1.25Z"/>
  <path class="st0" d="M359.15,227.91c-3.74-22.47-22.01-42.28-43.44-47.09-4.63-1.04-18.71-4.2-31.31,4.27-3.46,2.33-14.73,10.98-14.4,24.61.26,10.79,8.03,19.63,12.13,21.96.5.28,2.01,1.14,3.4.35,1.95-1.1,1.18-3.25.57-4.98-.79-2.21-1.97-5.54-1.11-9.04,1.34-5.42,7.15-9.03,13.5-8.39,9.04.92,12.77,12.47,13.43,14.78,2.07,7.27,1.91,14.64-.46,20.77-2.02,5.22-5.65,9.76-10.78,13.51-6.49-4.9-14.43-6.89-22.47-5.52-7.41,1.26-13.45,6.29-16.18,13.45-.28.74-.52,1.51-.71,2.31-12.99-1.04-23.38-6.51-29.91-11.03-.39-.27-.83-.39-1.27-.38,4.02-6.2,6.51-13.25,7.04-20.67.77-10.81-4.33-20.95-13.33-26.48-8.46-5.2-18.77-5.17-27.56.09-6.98,4.18-11.57,13.11-11.7,22.75,0,.99.65,1.86,1.61,2.12s1.97-.17,2.45-1.04c2.43-4.35,6.06-7.12,9.03-6.9,1.99.15,4.02,1.66,5.58,4.15,2.36,3.75,3.06,8.78,1.7,12.23-2.45,6.24-11.43,7.66-13.2,7.88-.85.11-1.7.16-2.54.16-15.86,0-29.63-17.95-32.34-21.72-12.72-17.69-15.05-40.85-6.56-65.2,3.6-10.33,9.19-19.78,16.64-28.14,2.27,2.72,5.32,5.24,6.47,6.18.04.04.08.07.12.1l.04.03c.38.3.78.51,1.2.64.81.55,1.78.79,2.79.79,1.53,0,3.16-.53,4.42-1.27,1.46-.86,2.65-2.13,3.52-3.78,1.55-2.94,2.58-5.93,3.49-8.56,1.08-3.15,2.02-5.88,3.51-7.69,5.09-6.18,12.33-8.07,15.21-8.6,2.51-.46,7.19-1.32,11.78.87,1.54.74,2.75,1.74,5.33,3.94,2.99,2.55,4.64,4.32,5.97,5.74.84.91,1.57,1.69,2.44,2.46,7.23,6.4,17.65,6.09,23.22,5.34,5.29-.71,10.07-2.74,16.5-6.98,10.43-6.88,19.84-16.3,28.76-28.8,7.34-10.28,13.48-21.53,18.27-33.45,1.69.46,3.42.73,5.16.82h.16c.26.03.64.05,1.1.03.64.06,2.4.12,4-.76,2.52-1.38,4.32-7.64,2.33-18.15-1.35-7.09-4.46-14.05-6.69-18.67-4.03-8.35-8.23-14.77-12.86-19.6-1.77-1.85-4.18-4.19-7.18-5.9-1.29-.74-3.46-1.97-5.53-1.22-.2.07-.39.17-.57.28-.38.24-1.65,1.19-2.89,2.67-.06.07-.44.53-.83,1.08-1.02,1.42-1.89,2.94-2.59,4.54-12.31-3.7-24.93-5.93-37.54-6.62-15.34-.84-28.57.63-40.46,4.48-7.33,2.37-11.9,4.84-15.76,8.53-4.07,3.88-10.81,11.82-10.33,21.47.06,1.16.21,2.21.4,3.44.28,1.92.64,4.32.76,8.25.11,3.38.14,4.95-.25,6.62-1.15,4.96-4.75,8.08-6.68,9.75-2.21,1.92-8.21,6.39-16.21,6.51-2.35.02-5.06-.93-8.2-2.06-2.63-.94-5.61-2-8.87-2.62-1.83-.35-3.56-.22-5.14.39-2.24.85-4.64,2.83-4.87,5.24l-.11.25v.12c-.09.33-.14.67-.14,1.01v.25c.05,3.67.72,7.11,1.37,10,.98,4.3,2.68,8.3,4.33,12.16.09.2.17.4.26.6-3.42,1.45-6.75,3.07-9.96,4.88-26.45,14.92-38.81,38.29-44.74,49.51-8.18,15.45-21.86,41.32-24.76,71.59-1.3,13.58-5.11,23.57-11.35,29.72-2.65,2.61-5.45,4.35-8.31,5.17-3.73,1.07-8.94,1.12-12.18-1.18-3.83-2.73-5.9-9.11-5.7-13.7.34-7.7,6.99-9.32,14.12-9.91,2.12-.18,3.4-.28,4.05-1.6.43-.87.36-1.87-.22-2.99-1.55-3.01-7.14-7.75-13.63-8.81-12.17-1.99-25.8,9.09-30.42,20.29-4.76,11.52-3.99,23.59,2.3,35.89.1.19.18.35.25.5,5.82,11.63,13.96,19.18,24.21,22.45,3.56,1.14,7.29,1.71,11.12,1.71,1.04,0,2.09-.05,3.15-.13,2.93,7.26,8.92,13.48,15.26,16.98,5.17,2.85,11.05,4.21,16.98,4.21,11.67,0,23.51-5.24,30.36-14.57,2.71-3.7,4.62-8.07,5.63-12.84.09.11.19.22.3.34,2.38,2.68,7.94,8.95,16.03,14.67,10.14,7.16,20.86,11.14,31.86,11.82,1.36.08,2.7.13,4.03.13,12.87,0,24.07-3.91,31.14-10.97.58-.58,1.12-1.18,1.64-1.79,15.13,11.95,35.2,18.22,55.21,18.22,13.37,0,26.72-2.8,38.53-8.57,6.61-3.23,11.9-7.26,15.73-11.93,9.69-2,23.28-6.9,34.58-18.93,4.27-4.54,7.84-9.81,10.62-15.65,4.85-10.2,10.03-25.95,7.17-43.13l-.02-.04ZM284.26,210.57s0,.02-.01.03c-.99,1.07-1.82,2.27-2.45,3.57.11-1.83.49-3.81,1.34-5.79,2.45-5.72,7.86-9.57,16.06-11.44,9.6-2.19,17.65,1.66,20.67,3.42,18.12,10.55,16.88,37.01,16.82,38.13-.62,11.29-5.32,19.45-8.12,24.32-3.88,6.74-8.9,12.7-14.93,17.74-.49-3.16-1.42-6.26-2.79-9.19,16.8-16.75,23.08-38.67,15.26-53.33-4.42-8.29-14.5-17.21-24.48-17.42-5.47-.12-9.61,2.1-9.79,2.19-4.03,2.19-6.35,5.43-7.58,7.76h0ZM313.92,283c6.68-5.37,12.21-11.81,16.43-19.14,2.71-4.7,7.75-13.46,8.4-25.24.06-1.17,1.35-28.85-17.84-40.03-3.23-1.88-11.85-6-22.17-3.65-8.89,2.02-14.78,6.28-17.5,12.64-2.19,5.1-1.62,10.11-.87,13.19,0,.28.01.55.03.82-1.63-3.16-3.15-7.67-2.29-12.64,1.94-11.22,14.49-16.6,21.59-18.01,10.23-2.04,20.76,1.57,31.28,10.71,17.51,15.21,16.91,38.48,16.78,41.09-1.52,31.28-31.14,47.24-32.4,47.91-.62.33-1.26.65-1.9.95.54-2.83.69-5.72.46-8.59h0ZM315.49,246.72c2.75-7.1,2.95-15.24.59-23.52-.79-2.78-5.33-16.7-17.15-17.9-3.18-.32-6.27.18-8.98,1.33.83-.72,1.78-1.41,2.88-2.01.04-.02,3.85-2.05,8.76-1.94,9.77.21,19.16,9.67,22.7,16.33,7.32,13.73,1.38,34.36-14.42,50.41-1.34-2.47-3-4.79-4.94-6.89-.3-.33-.61-.64-.92-.95,5.4-4.13,9.26-9.12,11.48-14.85h0ZM190.18,225.55c.28-.89.61-1.77.99-2.63l.09-.09c1.62-2.13,5.18-5.89,10.76-7.18,7.79-1.81,15.2,2.05,19.08,6.69,8.05,9.61,2.47,24.91-1.6,31.65-5.68,9.42-14.55,13.7-20.08,15.54-.88-1.32-1.88-2.53-3.02-3.61,4.75-1.62,14.41-6.1,18.77-16.65,4.36-10.55.69-20.31-.54-23.04-.87-1.93-2.57-4.67-5.79-6.81-3.94-2.62-9.28-2.11-14.29,1.36-2.12,1.47-3.5,3.27-4.37,4.77h0ZM203.93,286.2c-.12-2.09-.3-5.06-1-8.21,1.85-.6,3.66-1.29,5.4-2.07,5.97,7.09,13.07,12.84,21.09,17.07,6.66,3.51,12.09,4.99,17.35,6.41,8.43,2.29,15.68,4.25,22.93,4.25,3.57,0,7.14-.48,10.86-1.62,13.8-4.26,17.47-10.5,18.12-14.99.78-5.36-2.17-12.62-8.29-14.99-3.24-1.26-9.36-1.74-11.96,2.34-1.14,1.77-1.36,4.18-.63,6.59.85,2.77,2.85,5.14,5.22,6.16.67.29,1.34.47,1.99.56-1.78.63-4.75,1.22-7.74-.16-3.19-1.48-4.48-4.33-5.03-5.55-1.47-3.25-2.06-8.64,1.13-13.12,3.62-5.09,9.74-5.45,11.54-5.45,9.9.04,15.46,10.59,15.7,11.04,3.41,6.6,3.31,15.5-.26,22.15-9.82,18.3-44.57,15.57-51.44,14.84-15.96-1.71-31.55-8.38-45.08-19.31.19-1.9.23-3.87.1-5.92v-.02ZM291.97,286.99c.58-1.04.21-2.36-.84-2.95-1.04-.58-2.36-.21-2.95.84-.11.2-.24.43-.39.67-1.12.24-2.56.31-3.97-.3-1.83-.79-3.39-2.66-4.06-4.87-.56-1.83-.42-3.61.39-4.87,1.82-2.84,6.73-2.59,9.48-1.53,5.01,1.94,7.66,8.17,7,12.77-.56,3.89-3.91,9.37-16.68,13.31-10.69,3.3-20.38.68-32.64-2.65-5.15-1.4-10.47-2.84-16.92-6.24-7.63-4.03-14.4-9.46-20.12-16.16,3.16-1.57,6.12-3.43,8.83-5.54,3.54,3.65,7.49,6.86,11.76,9.52,9.74,6.08,21.26,9.41,33.33,9.64,2.42,4.1,5.82,6.8,9.9,7.84,6.91,1.76,13.6-1.78,17.89-9.48h-.01ZM228.93,261.43c6.93,4.79,17.93,10.59,31.73,11.76-.28,4.47.55,9.26,2.42,13.34-8.16-.3-19.79-2.21-31.15-9.3-4.07-2.54-7.85-5.59-11.24-9.07,2.78-2.35,5.27-4.97,7.42-7.81.14.42.41.81.81,1.09h0ZM198.5,214.14c7.49-4.49,15.9-4.53,23.07-.12,7.61,4.68,11.93,13.3,11.28,22.49-1.2,16.86-13.64,31.63-31.19,37.34-.38-.96-.8-1.88-1.28-2.76,5.81-2,14.82-6.51,20.66-16.19,4.62-7.65,10.11-23.36,1.44-33.73-4.23-5.06-12.33-9.27-20.86-7.28-2.4.56-4.46,1.53-6.18,2.65.92-.92,1.94-1.73,3.06-2.41h0ZM146.21,163.43c-8.97,25.73-6.43,50.29,7.14,69.17,4.12,5.72,18.36,23.52,35.8,23.52,1.03,0,2.07-.06,3.13-.19,3.09-.38,13.44-2.28,16.7-10.59,1.85-4.72,1.03-11.19-2.06-16.11-2.33-3.72-5.5-5.91-8.93-6.17-1.35-.1-2.73.11-4.08.6.49-.48,1.04-.96,1.67-1.39,1.64-1.14,7.37-4.6,12.27-1.34,2.86,1.9,4.38,4.34,5.14,6.05,1.15,2.57,4.61,11.73.52,21.63-4.44,10.76-14.81,14.8-18.71,15.97-6.47-4.98-15.64-6.09-23.27-3.21-2.54-.96-5.02-2.12-7.38-3.47-19.26-11.04-25.76-31.66-27.9-38.43-7.97-25.23-2.64-54.5,13.9-76.39,5.81-7.69,12.94-14.32,21.19-19.74.26.78.51,1.55.75,2.32v.04c-.22.09-.45.23-.65.41l-.41.37c-.17.15-.34.3-.5.46-1.76,1.61-3.47,3.29-5.08,5-8.7,9.24-15.18,19.85-19.24,31.51v-.02ZM181.12,297.85c3.27-2.98,4.37-7.66,2.94-12.52-.34-1.15-1.54-1.8-2.69-1.47-1.15.34-1.8,1.54-1.47,2.69.11.37.19.74.26,1.11-.12.73-.43,1.66-1.22,2.32-1.18.98-2.69.76-3.6.63-3.29-.49-5.12-3.45-5.45-4.03-2.01-3.61-.41-7.43-.34-7.6,1.84-4.32,7.49-6.86,12.35-5.54,4.58,1.24,6.67,5.69,7.35,7.15,3.44,7.33,1.48,13.06-.77,16.58-4,6.26-12.13,10.42-20.25,10.38-11.83-.08-25.3-5.18-35.15-13.31-16.85-13.91-27.68-37.29-28.97-62.54-1.76-34.52,10-80.51,40.23-105.43,6.86-5.66,14.56-10.33,22.92-13.92.36.84.71,1.7,1.05,2.58-1.32.76-2.65,1.56-3.93,2.37-13.99,8.87-25.03,20.37-32.79,34.18-.06.1-.11.21-.17.31-12.53,21.85-16.73,39.96-17.75,45.18-2.7,13.88-6.4,32.9,1.09,54.45,2.28,6.57,7.04,20.24,20.61,31.69,10.27,8.67,21.33,12.43,29.22,14.07,1.29.97,2.72,1.78,4.25,2.39,4.53,1.8,9.12,1.15,12.27-1.72h0ZM100.98,277.71c.84,3.55,1.34,8.72-.45,14.46-1.03,3.3-4.34,11.44-12.92,15.73-9.69,4.84-22.76,2.62-29.75-5.04-3.82-4.19-5.6-8.79-5.14-13.3.43-4.26,2.27-7.61,5.17-9.42.79-.5,4.94-2.87,8.61-.97,2.09,1.08,3.79,3.48,4.33,6.1.38,1.84.12,3.46-.69,4.45-1.14,1.38-3.4,1.75-4.94.79-.67-.41-1.24-1.31-1.43-2.23-.11-.52-.13-1.28.3-1.96.82-.32,1.4-1.12,1.38-2.05-.02-1.2-1-2.15-2.2-2.13-4.26.07-6.94,3.9-7.07,7.56-.02.64.04,1.26.18,1.87.09,1.93.54,4.18,1.82,6.39,2.89,5.01,7.95,6.39,10.11,6.98,1.7.46,3.48.69,5.28.69,5.72,0,11.64-2.27,15.83-6.3,5.08-4.88,6.07-10.73,7.33-18.15.59-3.48.87-7.01.85-10.57,1.02,2.44,2.16,4.8,3.39,7.1h.01ZM78.77,277.61c.07-.06.13-.14.17-.22,1.59-2.74,3.05-5.61,4.36-8.53,1.86-4.16,6.2-13.92,7.38-26.33.02-.16.03-.33.04-.49.31,3.5.78,6.9,1.41,10.21-.04.47-.09.95-.14,1.42-.85,7.64-2.76,15.28-4.6,22.68l-.31,1.26c-1.63,6.56-3.36,11.93-8.15,14.59.34-.6.63-1.21.88-1.82,2-5.04.53-9.73-1.03-12.76h-.01ZM76.6,295.34c8.79-2.42,10.84-10.62,12.48-17.24l.31-1.26c1.52-6.08,3.06-12.32,4.06-18.63.5,1.96,1.05,3.87,1.67,5.76.66,5.7.52,11.35-.42,16.86-1.24,7.31-2.14,12.6-6.73,17-5.01,4.81-12.7,6.87-19.14,5.11-1.9-.52-6.33-1.73-8.8-5.92,1.9,1.49,4.26,2.46,6.53,2.62,3.94.28,7.48-1.61,10.03-4.3h.01ZM90.69,220.09c-.16,2.07-.27,4.11-.35,6.13-.17,1.08-.33,2.16-.48,3.25-.6,4.44-.81,7.32-.99,9.85-.08,1.05-.15,2.04-.24,3.02-1.15,12.08-5.39,21.62-7.21,25.69-1.15,2.59-2.44,5.13-3.83,7.58-.56-.84-.99-1.34-1.06-1.42-1.9-2.18-4.22-3.67-6.7-4.59,4.75-4.88,8.57-10.38,11.36-16.36,3.03-6.49,3.77-13.59,4.49-20.46.15-1.39.29-2.79.46-4.17,1.45-12.21,3.04-19.85,4.31-25.98.17-.81.33-1.59.48-2.34,2.3-11.23,7.62-26.71,16.16-41.91-2.54,5.5-4.26,10.17-5.43,13.34-6.06,16.49-9.75,32.76-10.97,48.37h0ZM123.5,132.04c-.12.06-.24.14-.34.24-19.45,21.34-30.61,49.74-34.26,67.58-.15.75-.31,1.52-.48,2.33-1.22,5.85-2.89,13.86-4.34,26.16-.17,1.39-.31,2.8-.46,4.2-.7,6.7-1.43,13.63-4.31,19.8-2.84,6.08-6.78,11.65-11.73,16.56-4.09-.95-8.38-.55-11.76.69-4.72,1.73-7.81,4.99-9.82,8.27-3.09.12-6.13-.28-9.03-1.2-2.88-.91-10.07-3.86-14.72-11.5-1.77-2.91-7.17-13.16-2.25-22.81,1.95-3.82,4.95-6.43,7.76-8.17-.71.85-1.33,1.82-1.81,2.94-1.63,2.48-4.7,8.32-3.62,15.67.88,5.94,4.79,13.94,12.92,16.94,2.17.8,4.25,1.08,6.16,1.08,2.87,0,5.34-.64,7.11-1.09,10.01-2.59,15.82-9.8,18.6-13.27,6.44-8,8.62-16.19,10.74-24.11,1.53-5.76,1.98-9.34,2.49-13.48.25-2.02.51-4.12.92-6.7,1.57-9.99,3.94-19.49,7.04-28.25,2.7-7.61,6.27-14.54,10.04-21.87l.8-1.56c5.79-11.26,12.78-21.57,20.79-30.67,5.87-6.66,15.68-17.82,32.08-25.32,3.19-1.46,6.49-2.72,9.84-3.76.47.9.94,1.82,1.42,2.78-1.92.76-3.78,1.53-5.52,2.29-4.89,2.16-9.11,4.4-12.56,6.67-8.83,5.81-15.96,12.6-21.72,19.54l.02.02ZM34.84,288.05c-8.73-2.51-13.68-8.95-15.55-11.37-.14-.19-14.21-18.78-5.96-35.15,1.67-3.32,6.54-11.23,15.62-13.03,3-.59,5.78-.4,8.13.11-.94.12-1.87.29-2.78.51-1.89.47-11.52,3.27-16.14,12.31-5.41,10.6.41,21.68,2.32,24.82,5.01,8.24,12.76,11.42,15.86,12.4,2.74.87,5.6,1.31,8.51,1.32-1.78,3.64-2.33,6.89-2.43,7.57-.08.51-.12,1.03-.16,1.54-2.54,0-5.04-.34-7.43-1.03h0ZM157.15,278.31c-4.85-2.07-9.38-4.76-13.47-8-13.11-10.41-17.88-23.46-19.44-27.75-3.56-9.75-4.3-18.9-3.89-26.41,1.8,9.73,5.25,18.91,10.24,27.15,2.76,4.56,12.75,19.73,28.5,29.3-.95,1.85-1.6,3.76-1.94,5.72h0ZM136.72,281.53c-13.14-11.09-17.77-24.39-19.99-30.79-7.31-21.02-3.82-38.96-1.02-53.37,1.01-5.19,2.91-11.96,5.76-19.57-1.39,5.97-2.25,12.04-2.51,18.05-.18,4.04-.09,8.03.25,11.95-1.51,8.69-2.03,21.48,3.08,35.46,1.62,4.42,6.54,17.89,20.1,28.66,4.39,3.49,9.27,6.35,14.51,8.52-.04.67-.04,1.35,0,2.03.22,4.49,1.93,8.65,4.69,11.87-7.24-1.91-16.34-5.62-24.87-12.82h0ZM161.43,268.95c-14.96-9.05-24.5-23.55-27.14-27.9-18.41-30.37-10.92-66.09,1.09-87.45,7.41-13.18,17.95-24.16,31.33-32.65,1.04-.66,2.1-1.3,3.16-1.92.2.54.38,1.06.55,1.54.08.24.16.47.24.71-8.64,5.6-16.09,12.5-22.15,20.51-16.93,22.41-22.38,52.4-14.22,78.26,2.2,6.97,8.88,28.16,28.84,39.6,1.87,1.07,3.8,2.02,5.78,2.85-.83.44-1.63.93-2.4,1.47-.51.36-2.85,2.08-5.09,4.96v.02ZM169.73,133.72c1.18-1.21,2.41-2.4,3.67-3.55l.09.33c.15.57.3,1.15.43,1.74.58,2.46.93,4.64,1.09,6.72-1.44-1.22-3.69-3.23-5.28-5.23h0ZM233.57,122.51c-.7-.75-1.48-1.59-2.48-2.58-.23-1.6-.48-3.23-.82-4.87-1.9-9.21-6.24-21.36-11.6-32.52-.5-1.04-1.09-2.19-1.6-3.18-.46-1.02-.99-2.2-1.49-3.24-5.36-11.15-12.15-22.13-18.15-29.36-1.07-1.29-2.19-2.5-3.29-3.68-.15-1.4-.31-2.54-.46-3.55-.17-1.17-.31-2.1-.36-3.07-.09-1.76.14-3.48.57-5.11,4.19,3.26,8.65,8.35,13.28,15.19l1.14,1.68c5.01,7.38,8.63,12.72,12.78,21.06,1.15,2.32,2.2,4.48,3.21,6.61,1.03,2.11,2.06,4.28,3.15,6.62,3.93,8.45,5.84,14.6,8.47,23.13l.6,1.94c2.45,7.9,3.64,14.56,3.57,19.86-1.55-.68-3.03-1.58-4.35-2.75-.73-.64-1.37-1.33-2.17-2.2v.02ZM308.18,35.55c3.48,7.23,6.21,15.9,8.32,26.47-3.23,8.08-7.1,15.84-11.55,23.19-2.14-12.73-6.53-26.41-13.34-41.64l-.05-.09c-7.64-14.83-15.59-26.8-24.2-36.42,8.52,1.11,16.99,2.94,25.32,5.46,6.94,8.25,12.01,15.79,15.49,23.03h0ZM299.26,6.49c.34-.47.66-.85.66-.85.79-.94,1.6-1.6,1.91-1.83.35-.02,1.11.3,2.3.97,1.98,1.13,3.91,2.73,6.28,5.2,4.34,4.54,8.32,10.63,12.18,18.62,2.13,4.42,5.12,11.07,6.38,17.72,1.77,9.33.09,13.48-.48,14.13-.65.31-1.5.3-1.78.26l-.2-.03-.21.02c-.28.02-.52,0-.75,0h-.23c-1.83-.1-3.64-.44-5.39-1.02-2.13-10.17-4.85-18.62-8.29-25.76-3.43-7.15-8.33-14.55-14.95-22.57.64-1.73,1.51-3.36,2.58-4.84h0ZM216.76,10.29c11.43-3.71,24.21-5.12,39.07-4.3,1.9.1,3.81.25,5.71.42,9.53,9.86,18.24,22.55,26.6,38.77,7.45,16.66,11.92,31.38,13.68,44.98-1.05,1.6-2.13,3.17-3.24,4.73-8.64,12.12-17.72,21.22-27.76,27.83-2.68,1.77-5.04,3.12-7.25,4.12.04-.05.08-.1.11-.15,1.91-2.49,4.28-5.58,3.65-8.93-.47-2.51-2.77-3.97-4.98-5.38-1.72-1.09-3.5-2.22-3.76-3.48-.23-1.13.34-2.01,1.36-3.47,1.32-1.87,3.13-4.44,1.9-8.32-.65-2.07-2.8-3.41-5.07-4.84-1.9-1.2-4.06-2.55-4.59-4-.44-1.19.26-3.13.94-5.02.91-2.56,1.95-5.46.72-8.03-.96-2-3.16-3.09-5.48-4.25-2.16-1.08-4.4-2.19-5.27-3.88l-.03-.06c-.78-1.76-.29-4.31.18-6.77.5-2.61.97-5.07.02-7.05-1.24-2.57-4.15-3.57-6.72-4.45-1.89-.65-3.85-1.32-4.5-2.4-.8-1.32-.51-3.85-.26-6.09.3-2.66.59-5.18-.61-6.98-2.27-3.39-5.4-3.57-7.69-3.71-1.78-.11-2.82-.21-3.56-1.1-.82-.99-.59-3.08-.37-5.11.28-2.61.58-5.31-1.09-7.25-2.23-2.59-6.13-2.66-9.26-2.73h-.19c2.16-1.1,4.69-2.1,7.75-3.09h0ZM202.46,17.95c.58-.55,1.18-1.07,1.8-1.56,1.16.74,2.81.78,4.86.82,2.37.05,5.32.11,6.44,1.4.59.68.38,2.63.19,4.35-.29,2.69-.62,5.73,1.23,7.96,1.83,2.21,4.3,2.36,6.27,2.48,2.25.14,3.58.3,4.74,2.02.42.64.18,2.82,0,4.42-.32,2.84-.69,6.06.79,8.5,1.37,2.27,4.11,3.21,6.53,4.04,1.95.67,3.97,1.36,4.52,2.5.4.84,0,2.87-.33,4.67-.56,2.92-1.19,6.22.1,9.08l.09.19c1.44,2.82,4.39,4.28,6.98,5.58,1.57.78,3.35,1.67,3.74,2.48.54,1.13-.17,3.14-.87,5.09-.86,2.41-1.84,5.14-.92,7.62.98,2.68,3.73,4.4,6.15,5.92,1.36.86,3.23,2.03,3.46,2.76.63,1.98-.08,3.12-1.38,4.96-1.14,1.62-2.56,3.63-1.98,6.45.59,2.84,3.17,4.49,5.45,5.94,1.46.93,3.11,1.98,3.28,2.86.32,1.68-1.48,4.02-2.93,5.9-1.25,1.63-2.26,2.95-2.4,4.31-.78.18-1.55.32-2.34.43-2.47.34-7.25.71-12.03-.41.28-5.93-.96-13.4-3.71-22.25l-.6-1.94c-2.68-8.67-4.62-14.93-8.66-23.61-1.1-2.37-2.14-4.55-3.17-6.67-1.02-2.14-2.07-4.32-3.23-6.65-4.26-8.58-7.94-14-13.04-21.51l-1.14-1.68c-5.2-7.67-10.26-13.31-15.06-16.79,2.11-4.44,5.39-7.94,7.19-9.66h-.02ZM149.73,70.29c2.97.56,5.68,1.53,8.29,2.47,3.34,1.2,6.51,2.33,9.54,2.28,9.27-.13,16.14-5.25,18.66-7.45,2.1-1.82,6.46-5.6,7.89-11.77.46-1.99.46-3.83.38-6.59,5.81,7.01,12.4,17.68,17.63,28.56.49,1.01,1.01,2.18,1.47,3.19l.04.09c.51.98,1.09,2.12,1.58,3.14,5.23,10.88,9.45,22.69,11.3,31.61-2.11-1.79-3.54-2.94-5.39-3.82-5.71-2.73-11.39-1.69-14.12-1.18-3.29.6-11.58,2.78-17.47,9.93-1.93,2.35-3.02,5.52-4.18,8.88-.9,2.63-1.84,5.35-3.25,8.02-.53,1.01-1.23,1.77-2.08,2.27-.3.18-.6.31-.9.42-.08-2.82-.48-5.7-1.26-9.02-.14-.62-.3-1.23-.46-1.83-.31-1.19-.64-2.39-1-3.58l-.45-1.45c-.54-1.72-1.11-3.47-1.72-5.19-.34-.97-.74-2.11-1.18-3.25-.68-1.84-1.4-3.65-2.12-5.36-.59-1.42-1.23-2.9-2.02-4.65l-.54-1.2h0c-.25-.55-.51-1.1-.77-1.66-1.29-2.62-2.52-5-3.76-7.25-1.44-2.65-3.01-5.33-4.68-7.96-2.16-3.45-4.07-6.26-6.01-8.86-2.59-3.47-4.89-5.98-7.4-8.11.27-.17.57-.32.9-.44.92-.35,1.95-.42,3.08-.21v-.03ZM149.61,94.37c-1.58-3.7-3.21-7.52-4.1-11.46-.52-2.33-1.06-5.03-1.23-7.87,1.85,1.72,3.64,3.77,5.64,6.44,1.87,2.51,3.73,5.24,5.83,8.59.53.84,1.05,1.68,1.56,2.53-2.5.73-4.97,1.54-7.4,2.45-.1-.23-.19-.46-.29-.68h-.01ZM32.33,259.77c4.71,3.36,11.5,3.08,15.89,1.82,3.56-1.02,6.97-3.12,10.15-6.25,6.98-6.88,11.22-17.77,12.62-32.39,2.82-29.41,16.25-54.8,24.28-69.97,5.74-10.86,17.69-33.47,43.04-47.77,6.64-3.74,13.78-6.68,21.24-8.75.25.45.51.9.75,1.35.2.36.4.73.59,1.1-3.3,1.04-6.56,2.3-9.71,3.74-16.8,7.68-26.8,19.04-32.77,25.83-8.12,9.22-15.21,19.68-21.08,31.09l-.8,1.56c-3.64,7.07-7.41,14.38-10.16,22.13-3.14,8.87-5.54,18.5-7.13,28.61-.42,2.62-.68,4.73-.93,6.77-.5,4.07-.94,7.58-2.44,13.2-2.06,7.71-4.18,15.68-10.35,23.35-2.65,3.29-8.16,10.14-17.54,12.57-2.86.74-7.18,1.85-12.01.07-7.29-2.69-10.8-9.93-11.6-15.3-.43-2.95-.12-5.62.48-7.89.38,5.44,2.87,11.86,7.47,15.14h.01ZM31.13,294.23c-9.09-2.9-16.38-9.71-21.65-20.26-.08-.16-.17-.33-.27-.53-2.12-4.14-8.57-16.74-2.16-32.26,4-9.68,15.85-19.29,25.72-17.67,3.59.59,6.56,2.51,8.42,4.17-3.05-1.16-7.56-2.21-12.63-1.2-9.97,1.98-15.26,10.54-17.07,14.12-8.83,17.52,5.55,36.54,6.17,37.34,1.98,2.57,7.23,9.39,16.61,12.09,2.56.74,5.23,1.11,7.94,1.11.03,1.53.22,3.04.55,4.53-4.03.21-7.94-.27-11.63-1.45h0ZM103.2,303.98c-9.11,12.42-28.24,16.61-41.76,9.14-8.45-4.67-16.22-14.73-14.72-24.94.07-.46,1.74-11.26,10.6-14.49,4.77-1.74,11.79-1.44,15.94,3.34.05.06,4.91,5.75,2.52,11.75-1.35,3.38-4.93,6.83-8.91,6.55-3.24-.23-6.44-2.99-6.36-5.48.03-.88.41-1.99,1.16-2.69-.05.49-.02,1.01.08,1.53.3,1.49,1.2,2.86,2.36,3.57,2.41,1.5,5.83.95,7.62-1.23,1.22-1.47,1.63-3.72,1.12-6.18-.67-3.27-2.74-6.15-5.4-7.53-4.67-2.41-9.7.45-10.66,1.05-3.46,2.16-5.64,6.05-6.14,10.96-.52,5.12,1.44,10.27,5.67,14.9,4.94,5.41,12.39,8.33,19.91,8.33,4.22,0,8.46-.92,12.29-2.83,9.29-4.64,12.86-13.41,13.97-16.96,1.16-3.75,1.43-7.27,1.25-10.31,1.5,2.37,3.12,4.66,4.86,6.86-.57,5.59-2.39,10.51-5.42,14.65h.02ZM160.77,316.2c-15.94-.98-31.06-9.41-44.92-25.04-.26-.29-.48-.54-.67-.75-33.7-37.37-17.85-94.41-9.46-117.22,4.29-11.66,14.35-38.96,41.87-57.07,3.24-2.13,7.25-4.26,11.92-6.32,1.77-.78,3.66-1.56,5.63-2.33.03.06.05.12.08.18l.24.53c.36.81.69,1.56,1,2.27-8.54,3.66-16.42,8.45-23.43,14.23-13.83,11.4-24.99,28.3-32.29,48.86-6.57,18.53-9.66,39.22-8.69,58.26,1.32,25.82,12.43,49.76,29.72,64.03,10.2,8.42,24.17,13.7,36.45,13.78h.17c8.73,0,17.49-4.54,21.83-11.33,3.58-5.6,3.9-12.19.9-18.57-.79-1.68-3.18-6.78-8.68-8.27-5.8-1.58-12.58,1.5-14.79,6.72-.21.5-2.01,5,.44,9.42.42.73,2.71,4.42,6.96,5.06,1.03.15,3.11.45,4.94-.88-.34,1.13-.95,2.12-1.8,2.89-1.93,1.76-4.75,2.08-7.76.89-5.31-2.1-8.93-7.32-9.23-13.28-.16-3.18.72-6.28,2.59-9.2.02-.03.04-.07.06-.1,2.14-3.28,4.82-5.21,5.13-5.43,6.87-4.86,16.97-4.56,23.48.71,2.72,2.2,4.6,5.11,5.74,8.9,1.02,3.41,1.22,6.82,1.37,9.32.49,8.25-1.86,15.03-6.99,20.15-6.82,6.81-18.73,10.39-31.85,9.58h.04ZM289.15,313.65c-28.11,13.74-65.32,9.79-89.3-9.27,1.81-2.97,3.03-6.26,3.65-9.87,13.61,10.72,29.2,17.27,45.18,18.98,2.68.29,6.9.62,11.88.62,3.7,0,7.83-.19,12.06-.72,14.98-1.88,24.92-7.2,29.54-15.82,3.93-7.33,4.04-16.78.27-24.07-.26-.49-6.39-12.11-17.52-12.16-2.03,0-9.04.42-13.24,6.32-3.04,4.28-3.57,10.23-1.33,15.17.59,1.31,2.16,4.77,6.04,6.57,2.74,1.27,5.46,1.17,7.54.72-2.21,1.81-5.14,3.06-8.78,2.14-4.04-1.03-6.43-4.22-7.73-6.72-2.71-5.22-3.27-12.39-1.35-17.42,2.2-5.79,6.89-9.7,12.86-10.72,8.43-1.44,16.75,1.5,22.82,8.06,6.72,7.26,9.46,17.52,7.14,26.77-2.78,11.08-12.27,17.76-19.73,21.41h0ZM348.07,269.18c-2.58,5.43-5.9,10.33-9.86,14.54-8.89,9.46-19.35,14.2-27.84,16.57,1.06-1.97,1.9-4.03,2.5-6.17,1.17-.52,2.33-1.07,3.46-1.66,1.3-.69,31.93-17.19,33.5-49.63.13-2.71.76-26.9-17.49-42.75-11.03-9.58-22.15-13.34-33.04-11.17-7.62,1.52-21.09,7.37-23.22,19.69-.78,4.49.18,8.61,1.52,11.85-1.76-3-3.16-6.72-3.26-10.85-.28-11.43,9.49-18.89,12.49-20.91,11.06-7.43,23.77-4.58,27.95-3.64,19.79,4.44,36.66,22.77,40.12,43.57,2.67,16.07-2.23,30.93-6.81,40.56h-.02Z"/>
</svg>