<?xml version="1.0" encoding="UTF-8"?>
<svg id="Layer_1" xmlns="http://www.w3.org/2000/svg" version="1.1" viewBox="0 0 360.03 192.17">
  <!-- Generator: Adobe Illustrator 30.5.1, SVG Export Plug-In . SVG Version: 2.1.4 Build 3)  -->
  <defs>
    <style>
      .st0 {
        fill: #f1d380;
      }
    </style>
  </defs>
  <path class="st0" d="M359.97,109.67c-.52-3.31-1.48-6.55-2.89-9.61-1.41-3.05-3.27-5.91-5.54-8.42-2.25-2.52-4.92-4.67-7.82-6.39-.78-.46-1.57-.89-2.37-1.29.22-.58.32-1.21.27-1.87-.09-1.18-.25-2.27-.42-3.35s-.38-2.12-.6-3.16c-.45-2.07-.97-4.1-1.54-6.1-1.15-4-2.5-7.92-4.04-11.77-3.09-7.68-6.86-15.13-11.71-22.03-9.71-13.78-23.53-24.54-39.28-30.46-3.94-1.47-7.98-2.66-12.09-3.52-4.12-.85-8.3-1.38-12.49-1.6-8.37-.42-16.87.44-24.97,2.8-8.11,2.34-15.76,6.17-22.53,11.14-3.39,2.48-6.55,5.24-9.49,8.22-1.46,1.49-2.87,3.04-4.21,4.64-.67.8-1.33,1.61-1.96,2.44l-.94,1.23-.86,1.14-.08.11c-.1.14-.19.28-.27.43-.9-.42-1.83-.8-2.78-1.13-3.83-1.33-7.96-1.91-12.03-1.75-2.03.08-4.05.33-5.99.72-.49.09-.96.2-1.44.3-.47.1-.95.22-1.44.34-.97.25-1.93.53-2.87.86-.58.2-1.16.42-1.73.65-.08-.14-.16-.28-.26-.42l-.08-.11-.86-1.14-.94-1.23c-.64-.82-1.29-1.64-1.96-2.44-1.34-1.6-2.75-3.15-4.21-4.64-2.93-2.98-6.1-5.74-9.49-8.22-6.76-4.96-14.42-8.79-22.53-11.14C117.41.54,108.92-.32,100.55.1c-4.19.21-8.37.75-12.49,1.6-4.11.86-8.16,2.05-12.09,3.52-15.75,5.92-29.56,16.68-39.28,30.46-4.84,6.9-8.61,14.35-11.71,22.03-1.54,3.85-2.89,7.76-4.04,11.77-.57,2-1.09,4.03-1.54,6.1-.22,1.04-.43,2.08-.6,3.16-.18,1.08-.33,2.17-.42,3.35v.04c-.05.64.06,1.26.27,1.82-.8.4-1.6.82-2.37,1.28-2.89,1.71-5.56,3.86-7.82,6.39-2.26,2.51-4.12,5.37-5.54,8.42-1.41,3.06-2.37,6.3-2.89,9.61-.19,1.24.65,2.39,1.88,2.59.7.11,1.38-.11,1.87-.55,4.36-1.8,8.89-3.19,13.5-4.08.02.8.05,1.6.09,2.4.08,1.64.21,3.28.39,4.91.36,3.27.89,6.51,1.62,9.72.72,3.21,1.65,6.38,2.78,9.48,1.12,3.1,2.44,6.14,4,9.06,3.09,5.85,7.04,11.27,11.68,15.97,4.6,4.65,9.69,8.8,15.29,12.26,2.8,1.72,5.73,3.26,8.81,4.54,3.08,1.27,6.31,2.26,9.66,2.85.83.17,1.69.24,2.53.35.42.06.86.07,1.28.1.43.02.86.06,1.29.07,1.72,0,3.46-.03,5.18-.31,1.73-.22,3.42-.67,5.09-1.19.42-.13.82-.31,1.23-.46.4-.16.82-.3,1.21-.49l1.18-.57.59-.28c.19-.1.38-.22.57-.32.75-.44,1.51-.85,2.21-1.37l1.06-.74c.35-.25.67-.53,1.01-.8l1-.81.94-.87.93-.88.88-.96c2.34-2.56,4.2-5.54,5.53-8.69,1.34-3.15,2.17-6.46,2.61-9.77s.52-6.64.34-9.92c-.05-.82-.1-1.64-.19-2.46l-.12-1.22c-.05-.41-.11-.81-.16-1.22l-.17-1.22-.22-1.21c-.15-.8-.28-1.61-.44-2.41-.39-1.59-.7-3.19-1.2-4.75-.24-.78-.44-1.57-.7-2.35l-.8-2.31c-1.14-3.06-2.42-6.07-3.99-8.93-.73-1.46-1.61-2.84-2.44-4.24-.43-.69-.9-1.36-1.35-2.04l-.68-1.02c-.23-.33-.49-.66-.73-.98l-1.47-1.96-1.57-1.88c-.26-.31-.52-.63-.79-.93l-.84-.9c-.56-.59-1.11-1.2-1.68-1.78-1.19-1.12-2.33-2.3-3.6-3.33l-.93-.8c-.31-.27-.62-.54-.95-.78l-1.95-1.49c-2.66-1.91-5.42-3.68-8.35-5.14-1.43-.79-2.95-1.41-4.43-2.09-.75-.31-1.52-.59-2.28-.89l-.28-.11h0c.36-.75.76-1.51,1.19-2.25.67-1.13,1.4-2.23,2.18-3.3,1.59-2.13,3.38-4.13,5.33-5.97,1.96-1.84,4.1-3.5,6.34-5,2.21-1.48,4.57-2.73,7.02-3.75.64-.27,1.28-.52,1.93-.75.33.97.69,1.92,1.1,2.86,1.21,2.79,2.8,5.44,4.72,7.83.23.31.48.6.74.89.25.29.5.58.76.86l.82.84c.27.28.56.53.84.8,1.15,1.04,2.36,2,3.62,2.86,2.51,1.72,5.14,3.11,7.69,4.46,1.28.67,2.55,1.32,3.78,2.01,1.2.68,2.5,1.43,3.8,2.13,1.29.71,2.62,1.34,3.95,1.96.67.3,1.35.6,2.02.88.34.14.68.28,1.02.41l.3.12c.17.07.36.14.56.18.13.03.26.05.39.06,0,.15.02.3.03.45.07,1.62.12,3.27.16,4.99.06,1.71.17,3.49.44,5.31.29,1.81.78,3.65,1.49,5.38.73,1.73,1.63,3.35,2.69,4.83.52.74,1.08,1.45,1.65,2.14.56.66,1.12,1.3,1.69,1.94,3.74,4.17,7.64,8.02,11.4,12.1-.14.37-.27.75-.4,1.12-.41,1.26-.82,2.61-1.08,3.96-.25,1.35-.45,2.7-.57,4.05-.25,2.7-.24,5.39-.08,8.07.31,5.36,1.39,10.64,3.03,15.75.84,2.55,1.83,5.05,2.98,7.49,1.14,2.44,2.49,4.79,4.04,7,1.55,2.21,3.32,4.28,5.26,6.15.49.46,1,.91,1.49,1.37.51.44,1.03.87,1.54,1.3,1.03.83,2.06,1.63,3.13,2.42,2.14,1.58,4.43,3.04,6.92,4.1.3.15.63.25.94.38.31.12.63.24.96.33s.64.22.97.3l.99.24c1.33.26,2.67.44,4.02.42s2.7-.15,4.02-.47c1.31-.32,2.6-.75,3.82-1.32s2.38-1.24,3.51-1.96c1.12-.73,2.18-1.53,3.22-2.36,1.04-.82,2.03-1.68,3.02-2.54.49-.42.98-.88,1.47-1.33.5-.44.97-.92,1.44-1.38,1.89-1.88,3.62-3.93,5.2-6.08,1.58-2.16,2.96-4.46,4.18-6.84,1.21-2.38,2.23-4.86,3.11-7.37.88-2.52,1.61-5.08,2.19-7.69.57-2.6,1.01-5.24,1.23-7.9.21-2.66.27-5.35.06-8.04-.1-1.35-.28-2.69-.53-4.03s-.63-2.69-1.04-3.95c-.1-.3-.21-.6-.32-.9,3.84-4.19,7.85-8.12,11.68-12.4.57-.64,1.13-1.28,1.69-1.94.57-.69,1.13-1.39,1.65-2.14,1.06-1.47,1.97-3.1,2.69-4.83.71-1.73,1.21-3.57,1.49-5.38.27-1.82.39-3.6.44-5.31.04-1.71.1-3.36.16-4.99,0-.3.03-.61.05-.91.26-.1.53-.21.78-.32.68-.28,1.35-.58,2.02-.88,1.33-.63,2.66-1.26,3.96-1.96,1.29-.7,2.59-1.45,3.79-2.13,1.23-.69,2.5-1.35,3.78-2.01,2.55-1.34,5.18-2.73,7.69-4.46,1.26-.86,2.46-1.82,3.62-2.86.28-.27.57-.53.85-.8l.81-.84c.27-.28.51-.57.76-.86s.5-.58.74-.89c1.92-2.39,3.51-5.04,4.72-7.83.46-1.06.86-2.13,1.22-3.22,2.24.72,4.42,1.62,6.5,2.71q1.39.73,0,0c.59.78,1.49,1.31,2.48,1.42.65.41,1.29.83,1.93,1.29l.96.67.93.7c.63.46,1.22.96,1.82,1.45.61.49,1.17,1.02,1.75,1.53.55.54,1.13,1.05,1.66,1.62l.8.83.77.86c.26.28.51.58.75.87.24.3.5.59.72.9,1.61,2.04,3.03,4.25,4.11,6.53l-.29.11c-.76.3-1.53.58-2.28.89-1.48.68-3,1.3-4.43,2.09-2.92,1.46-5.69,3.23-8.35,5.14l-1.95,1.49c-.33.24-.64.51-.95.78l-.93.8c-1.27,1.04-2.41,2.21-3.6,3.33-.58.58-1.12,1.19-1.68,1.78l-.84.9c-.27.3-.53.62-.79.93l-1.57,1.88-1.47,1.96c-.24.33-.49.65-.73.98l-.68,1.02c-.45.68-.92,1.35-1.35,2.04-.83,1.41-1.71,2.78-2.44,4.24-1.57,2.86-2.85,5.87-3.99,8.93l-.8,2.31c-.27.77-.47,1.56-.7,2.35-.49,1.56-.81,3.16-1.2,4.75-.16.8-.3,1.61-.44,2.41l-.22,1.21-.17,1.22c-.05.41-.11.81-.16,1.22l-.12,1.22c-.09.81-.14,1.64-.19,2.46-.19,3.28-.11,6.6.34,9.92.44,3.31,1.27,6.62,2.61,9.77,1.33,3.15,3.18,6.13,5.53,8.69l.88.96.93.88.94.87,1,.81c.34.27.66.55,1.01.8l1.06.74c.7.51,1.46.93,2.21,1.37.19.11.37.22.57.32l.59.28,1.18.57c.39.19.81.33,1.21.49.41.15.81.33,1.23.46,1.66.53,3.36.98,5.09,1.19,1.72.27,3.46.32,5.18.31.43,0,.86-.05,1.29-.07.43-.03.86-.04,1.28-.1.85-.11,1.7-.18,2.53-.35,3.35-.59,6.58-1.59,9.66-2.85,3.08-1.28,6.01-2.82,8.81-4.54,5.6-3.45,10.68-7.6,15.29-12.26,4.64-4.7,8.59-10.12,11.68-15.97,1.56-2.92,2.87-5.96,4-9.06,1.12-3.1,2.06-6.27,2.78-9.48.73-3.21,1.27-6.45,1.62-9.72.18-1.63.31-3.27.39-4.91.04-.8.07-1.6.09-2.4,4.62.89,9.14,2.27,13.5,4.08.49.44,1.16.66,1.87.55,1.24-.19,2.08-1.35,1.89-2.59l-.04.04ZM335.32,107.45c0,.75-.02,1.5-.05,2.25-.06,1.5-.15,3-.3,4.5-.28,2.99-.73,5.97-1.36,8.91-.02.11-.05.21-.07.32l-5.17-.93c-2.5-.42-4.99-.81-7.48-1.09-2.49-.29-4.99-.52-7.51-.74l-3.8-.35c-.6-.06-1.21-.12-1.82-.18.16-.99.27-1.99.34-2.99.02-.36.04-.71.05-1.07.01-.35.02-.69.02-1.05,0-.72-.03-1.43-.08-2.15-.05-.75-.14-1.51-.25-2.25.32-.16.65-.31.98-.45,1.11-.48,2.25-.89,3.44-1.26,1.18-.37,2.47-.72,3.66-1.03.6-.17,1.22-.28,1.83-.43.61-.13,1.23-.24,1.84-.36,2.47-.42,4.98-.67,7.5-.75,1.26-.03,2.52-.03,3.79,0,1.27.04,2.54.12,3.83.22.21.02.42.03.63.05v.82h-.02ZM327.72,140.04c-.49.98-1.02,1.94-1.57,2.89-2.14-.18-4.25-.61-6.31-1.19-2.27-.63-4.48-1.49-6.61-2.49-2.13-1.01-4.19-2.19-6.1-3.57-1.53-1.12-2.99-2.34-4.29-3.74,1.49-1.95,2.66-4.12,3.49-6.37.1-.26.19-.52.28-.79,2.17-.88,4.46-1.31,6.76-1.52,2.41-.21,4.85-.1,7.24.25,2.4.34,4.76.92,7.03,1.75,1.69.62,3.33,1.37,4.88,2.29-1.2,4.31-2.8,8.49-4.8,12.47v.02ZM292.3,133.82c-.47.26-.95.48-1.35.61-.08.03-.15.05-.22.07-.06,0-.12,0-.18-.02-.07-.18-.13-.4-.18-.65-.17-.89-.18-1.99-.05-3.08.13-1.1.39-2.2.76-3.27.19-.53.4-1.05.64-1.56.12-.25.25-.5.38-.75l.44-.79c.61-1.06,1.27-2.08,1.99-3.06,1.44-1.96,3.09-3.76,4.93-5.34.92-.79,1.88-1.53,2.89-2.22.26-.18.52-.35.78-.52,0,.54-.02,1.09-.06,1.63l-.07.92c-.02.3-.05.6-.09.9-.28,2.39-.84,4.74-1.7,6.92-.43,1.09-.95,2.13-1.54,3.12-.59.99-1.26,1.92-2.02,2.76-.19.21-.38.42-.58.62-.19.21-.4.4-.61.6-.42.4-.87.79-1.32,1.16-.92.74-1.89,1.42-2.84,1.94h0ZM336.99,97.26c-.26,1.65-.91,3.25-1.97,4.52-2.64-.27-5.35-.4-8.06-.36-1.99.04-3.99.17-5.97.4-.13-.41-.26-.84-.4-1.26-.21-.67-.45-1.33-.71-1.98-.52-1.3-1.14-2.53-1.83-3.69-1.39-2.32-3.05-4.38-4.87-6.29-.45-.48-.93-.94-1.41-1.4-.5-.44-.97-.9-1.49-1.32-.88-.75-1.79-1.47-2.74-2.15l1.06-.17c.75-.11,1.5-.17,2.26-.26l1.13-.12,1.13-.06c.76-.04,1.51-.1,2.27-.11,3.03-.07,6.05.12,9.04.51,1.57.22,3.11.53,4.63.9h0c.38.12.8.29,1.19.49.4.19.79.42,1.16.67.76.49,1.46,1.07,2.11,1.71,1.27,1.29,2.29,2.86,2.9,4.58.59,1.72.84,3.6.54,5.4h.03ZM332.17,77.36c.19.92.36,1.84.5,2.74.03.2.06.39.09.59-2.51-.73-5.08-1.31-7.67-1.69-3.25-.44-6.52-.66-9.79-.6-.82.01-1.63.07-2.45.11l-1.22.07-1.22.13c-.81.09-1.63.15-2.43.27l-2.42.38-.6.1-.6.13-1.2.25c-.44.1-.88.19-1.32.28-.57-.32-1.14-.63-1.72-.95l-.1-.06c-.15-.08-.3-.14-.46-.19h0c-.46-.86-.95-1.7-1.46-2.51h0s.03-.07.05-.1c1.11-2.81,2.84-5.35,4.89-7.6,2.07-2.23,4.47-4.18,7.13-5.71.65-.4,1.35-.73,2.02-1.09.7-.31,1.39-.64,2.1-.92,1.42-.55,2.88-1.03,4.37-1.35,2.56-.56,5.19-.82,7.77-.59.24.59.48,1.17.71,1.76,1.4,3.6,2.64,7.28,3.66,10.98.51,1.85.97,3.71,1.35,5.56h.02ZM316.56,40.4c3.12,4.53,5.8,9.43,8.11,14.52-2.31.7-4.56,1.44-6.75,2.3-1.5.59-2.98,1.23-4.43,1.93-1.45.68-2.87,1.43-4.25,2.24-2.78,1.59-5.42,3.42-7.94,5.44-2.1,1.68-4.1,3.5-6.1,5.43h0c-.06-.09-.14-.18-.2-.27-1.11-1.37-2.25-2.73-3.5-3.97-.14-.15-.28-.29-.42-.44-.06-.35-.12-.7-.16-1.05-.14-.98-.23-1.98-.28-2.99-.1-2.01-.07-4.04.11-6.05.34-4.04,1.21-8.04,2.64-11.84,1.42-3.8,3.47-7.35,6.15-10.36,1.34-1.5,2.82-2.87,4.42-4.07,1-.74,2.04-1.43,3.13-2.03,3.52,3.43,6.71,7.18,9.48,11.21h0ZM259.04,7.57c3.8.24,7.59.77,11.31,1.58,2.35.52,4.67,1.16,6.96,1.91-.48,1.67-.92,3.33-1.31,4.99-.53,2.33-.96,4.65-1.27,6.98-.64,4.65-.78,9.33-.51,13.97.06,1.16.15,2.32.27,3.47.1,1.15.23,2.31.37,3.46.28,2.32.69,4.62,1.16,6.92.49,2.32,1.08,4.63,1.74,6.92h0c-1.74-.89-3.53-1.69-5.36-2.37-.21-.25-.4-.51-.58-.78-.43-.65-.79-1.37-.99-2.25-.02-.1-.05-.2-.09-.3.03-.28.06-.56.08-.84l.17-2.18c.06-.73.12-1.47.14-2.23.03-.76.02-1.53-.06-2.31-.08-.7-.11-1.4-.15-2.12-.03-.71-.05-1.43-.08-2.15-.02-.73-.05-1.43-.05-2.2,0-.3-.16-.58-.44-.72-.4-.2-.88-.04-1.08.36l-.03.05c-.32.64-.74,1.24-1.17,1.82-.43.58-.85,1.15-1.24,1.74-.79,1.17-1.66,2.26-2.63,3.24-.13.14-.27.27-.41.4-2.1-2.16-3.93-4.61-5.5-7.22-1.82-3.06-3.27-6.35-4.35-9.77-1.06-3.42-1.84-6.96-2.03-10.53-.11-1.79-.09-3.58.06-5.35.14-1.56.37-3.11.75-4.63,2.1-.05,4.2,0,6.29.12l.03.02ZM236.44,9.81c3.73-1.03,7.54-1.72,11.4-2.08l.53,4.43c.25,1.88.5,3.74.82,5.58.63,3.7,1.42,7.33,2.43,10.91,1.03,3.58,2.31,7.1,3.84,10.54,1.31,2.91,2.81,5.76,4.44,8.59-.81.43-1.65.78-2.49,1.04-.63.19-1.26.33-1.94.43l-2.06.31c-.14-.08-.28-.15-.44-.21-3.84-1.4-7.46-3.47-10.77-5.98-1.65-1.27-3.22-2.64-4.71-4.1-1.49-1.47-2.89-3.03-4.2-4.66-1.32-1.63-2.53-3.34-3.68-5.11-1.14-1.76-2.15-3.6-3.03-5.5s-1.6-3.87-2.18-5.88c-.3-1.07-.56-2.15-.77-3.24,4.07-2.14,8.36-3.86,12.79-5.08h.02ZM203.32,31.2c1.25-1.45,2.56-2.85,3.91-4.2,2.72-2.69,5.64-5.18,8.75-7.39,1.35-.96,2.74-1.87,4.15-2.73h0c.42.83.83,1.65,1.26,2.46,1,1.95,2.04,3.86,3.12,5.74s2.21,3.73,3.4,5.54c1.18,1.81,2.41,3.58,3.72,5.31,1.3,1.73,2.68,3.4,4.11,5.03,1.46,1.61,2.97,3.19,4.55,4.69,2.2,2.07,4.52,4,6.99,5.82-1.4.66-2.73,1.43-4,2.31-.67-.2-1.4-.19-2.1.08-.42.16-.84.3-1.26.42-.12.03-.24.07-.36.1h0s-.09-.03-.14-.04c-3.88-.82-7.66-1.83-11.35-3.11-3.69-1.27-7.29-2.82-10.81-4.56-.88-.44-1.77-.89-2.57-1.34-.82-.45-1.62-.93-2.41-1.44-1.57-1.01-3.08-2.13-4.51-3.34-1.42-1.21-2.75-2.51-3.96-3.88-.89-1.02-1.7-2.09-2.39-3.17l.07-.08c.6-.75,1.21-1.49,1.83-2.22h0ZM152.77,27c1.36,1.35,2.66,2.75,3.91,4.2.63.73,1.24,1.46,1.83,2.22l.05.07c-.67,1.01-1.5,2.02-2.39,2.99-1.24,1.33-2.62,2.59-4.08,3.77s-3,2.29-4.59,3.31l-1.21.75-1.23.71c-.41.23-.83.45-1.24.68-.41.22-.87.45-1.3.67-3.51,1.79-7.08,3.41-10.73,4.75-3.63,1.35-7.33,2.39-11.15,3.21h0c-2.14-.58-4.27-1.01-6.42-1.32-.94-.58-1.92-1.11-2.93-1.59,1.26-.78,2.48-1.6,3.67-2.48,2.41-1.78,4.71-3.7,6.86-5.77,4.29-4.16,7.95-8.88,11.26-13.83,1.65-2.49,3.17-5.07,4.58-7.74.7-1.33,1.38-2.68,2.04-4.05.1-.2.19-.41.29-.61h0c1.37.84,2.72,1.72,4.03,2.66,3.11,2.21,6.03,4.7,8.75,7.39h0ZM136.23,14.82c-1,4.64-2.79,9.13-5.16,13.29-.71,1.24-1.48,2.48-2.3,3.67-.4.6-.82,1.19-1.24,1.77-.44.57-.86,1.16-1.32,1.72-1.8,2.26-3.76,4.38-5.87,6.35-2.11,1.96-4.39,3.73-6.78,5.32l-1.82,1.15c-.61.36-1.25.69-1.88,1.04l-.94.51-.97.46-.1.05c-.83-.24-1.68-.43-2.51-.55l-2.18-.33c-.68-.11-1.31-.25-1.94-.43-.81-.25-1.62-.58-2.4-.99.82-1.14,1.6-2.3,2.34-3.49,1.41-2.24,2.69-4.57,3.8-6.97,1.12-2.4,2.09-4.86,2.93-7.36.85-2.5,1.57-5.05,2.19-7.63.61-2.58,1.09-5.21,1.44-7.87.31-2.24.5-4.5.67-6.78h0c3.83.36,7.63,1.04,11.34,2.07,4.38,1.21,8.63,2.9,12.67,5.02l.03-.02ZM89.66,9.15c3.72-.81,7.5-1.34,11.31-1.58,2.08-.13,4.17-.17,6.25-.12.44,2.25.63,4.55.67,6.85.04,2.52-.14,5.05-.53,7.55-.39,2.51-.96,4.99-1.71,7.42-.77,2.42-1.71,4.79-2.83,7.06-1.73,3.56-3.9,6.9-6.44,9.92-.68-.52-1.32-1.09-1.93-1.71-.97-.98-1.85-2.07-2.63-3.24-.39-.59-.81-1.16-1.24-1.74s-.84-1.18-1.16-1.82l-.03-.05c-.13-.27-.41-.44-.72-.44-.44,0-.8.36-.8.8,0,.77-.03,1.47-.05,2.2-.02.72-.04,1.44-.08,2.15-.04.72-.07,1.42-.15,2.12-.08.78-.09,1.55-.07,2.31.03.76.08,1.5.14,2.23l.17,2.18c.05.74.16,1.48.24,2.22.03.2.06.4.09.6-1.39,1.05-2.83,2.04-4.33,2.97h0c-.54.25-1.08.51-1.61.78.67-2.31,1.27-4.63,1.76-6.96.48-2.3.88-4.6,1.16-6.92.15-1.16.27-2.31.37-3.46.12-1.15.21-2.31.27-3.47.27-4.65.13-9.32-.51-13.97-.31-2.33-.74-4.65-1.27-6.98-.38-1.66-.83-3.32-1.31-4.99,2.29-.75,4.61-1.39,6.96-1.91h.01ZM27.83,77.36c.38-1.85.84-3.71,1.35-5.56,1.03-3.7,2.26-7.38,3.66-10.98.23-.59.47-1.18.71-1.76,2.59-.23,5.22.03,7.77.59,1.49.32,2.94.8,4.37,1.35.71.27,1.4.6,2.1.92.68.36,1.37.69,2.02,1.09,2.66,1.52,5.06,3.47,7.13,5.71,2.05,2.25,3.78,4.79,4.89,7.6,0,.03.02.05.04.08-.52.83-1.01,1.68-1.47,2.55h0c-.15.05-.3.11-.45.19l-.09.05c-.58.31-1.15.63-1.72.95-.44-.1-.88-.19-1.32-.28l-1.2-.25-.6-.13-.6-.1-2.42-.38c-.81-.12-1.62-.18-2.43-.27l-1.22-.13-1.22-.07c-.82-.04-1.63-.1-2.45-.11-3.27-.06-6.54.16-9.79.6-2.58.37-5.15.96-7.66,1.69.03-.2.06-.39.09-.59.14-.9.31-1.82.5-2.74v-.02ZM67.46,124.39l.44.79c.13.25.26.5.38.75.24.51.45,1.03.64,1.56.37,1.06.63,2.17.76,3.27.13,1.09.12,2.19-.05,3.08-.05.25-.11.47-.18.65-.06,0-.12,0-.18.02-.07-.02-.15-.04-.22-.07-.41-.14-.88-.36-1.35-.61-.95-.52-1.93-1.2-2.84-1.94-.46-.37-.9-.76-1.32-1.16-.21-.2-.41-.4-.61-.6-.2-.2-.39-.41-.58-.62-.76-.85-1.43-1.78-2.02-2.76-.6-.98-1.11-2.03-1.54-3.12-.87-2.18-1.42-4.53-1.7-6.92-.03-.3-.06-.6-.09-.9l-.07-.92c-.04-.54-.05-1.08-.06-1.63.26.17.52.34.78.52,1,.68,1.97,1.42,2.89,2.22,1.84,1.59,3.5,3.38,4.93,5.34.72.98,1.38,2,1.99,3.06h0ZM32.28,140.04c-1.99-3.98-3.59-8.16-4.8-12.47,1.55-.92,3.19-1.67,4.88-2.29,2.27-.83,4.63-1.41,7.03-1.75,2.39-.35,4.83-.46,7.24-.25,2.3.21,4.59.64,6.76,1.52.09.26.18.53.28.79.84,2.25,2,4.42,3.49,6.37-1.3,1.39-2.76,2.62-4.29,3.74-1.91,1.38-3.97,2.56-6.1,3.57-2.14,1-4.34,1.85-6.61,2.49-2.06.58-4.17,1.01-6.31,1.19-.54-.95-1.07-1.91-1.57-2.89v-.02ZM51.86,116.09c0,.35.03.71.05,1.07.06,1,.17,2,.34,2.99-.61.06-1.22.12-1.82.18l-3.8.35c-2.52.22-5.01.45-7.51.74s-4.98.67-7.48,1.09l-5.17.93c-.02-.11-.05-.21-.07-.32-.63-2.94-1.08-5.92-1.36-8.91-.14-1.5-.24-3-.3-4.5-.03-.75-.04-1.5-.05-2.25v-.82c.21-.02.42-.03.63-.05,1.29-.1,2.56-.18,3.83-.22s2.53-.04,3.79,0c2.52.08,5.02.33,7.5.75.61.12,1.23.23,1.84.36.61.14,1.23.26,1.83.43,1.19.3,2.48.66,3.66,1.03,1.19.37,2.33.78,3.44,1.26.33.15.65.3.98.45-.11.75-.2,1.5-.25,2.25-.05.71-.08,1.43-.08,2.15,0,.37,0,.7.02,1.05h-.02ZM40.11,98.58c-.26.65-.49,1.31-.71,1.98-.14.42-.27.85-.4,1.26-1.99-.23-3.98-.37-5.97-.4-2.71-.04-5.42.09-8.06.36-1.06-1.27-1.7-2.87-1.97-4.52-.29-1.81-.05-3.68.54-5.4.61-1.72,1.63-3.29,2.9-4.58.65-.64,1.35-1.22,2.11-1.71.38-.25.76-.48,1.16-.67.39-.2.81-.37,1.19-.49h0c1.53-.37,3.07-.68,4.63-.9,2.99-.39,6.01-.58,9.04-.51.76.01,1.51.08,2.27.11l1.13.06,1.13.12c.75.09,1.51.15,2.26.26l1.06.17c-.95.68-1.86,1.4-2.74,2.15-.52.42-.99.88-1.49,1.32-.47.47-.95.92-1.41,1.4-1.82,1.91-3.48,3.97-4.87,6.29-.69,1.16-1.31,2.39-1.83,3.69h.03ZM5.39,106.37c.44-1.51.98-2.99,1.64-4.42,1.23-2.66,2.84-5.13,4.79-7.29,1.94-2.17,4.23-4.01,6.75-5.51,1.77-1.05,3.65-1.91,5.62-2.65-1,1.49-1.8,3.1-2.34,4.8-.61,1.98-.84,4.05-.82,6.12.02,1.57.2,3.14.48,4.76-.22.03-.44.06-.66.09-1.35.2-2.69.43-4.02.71-3.91.81-7.74,1.95-11.44,3.39ZM42.52,154.65c-2.25-2.37-4.29-4.93-6.12-7.62,1.65-.74,3.28-1.45,4.9-2.18,2.25-1.02,4.46-2.06,6.66-3.15,2.19-1.1,4.36-2.23,6.54-3.37,1.92-1,3.84-2.02,5.85-2.98.34.3.69.59,1.04.88.2.16.4.31.6.46.29,2.06.19,4.16-.19,6.22-.21,1.2-.54,2.39-.94,3.55-.19.58-.43,1.15-.66,1.73-.26.56-.5,1.13-.78,1.68-1.09,2.21-2.51,4.25-4.17,6.05-1.67,1.79-3.58,3.35-5.74,4.47-.19.1-.37.23-.54.37-2.27-1.91-4.43-3.96-6.47-6.1h.02ZM72.62,173.13c-2.84-.54-5.65-1.44-8.36-2.63s-5.34-2.64-7.87-4.27c-1.14-.73-2.25-1.5-3.35-2.31,1.68-1.99,3.27-3.97,4.7-6.04,1.52-2.2,2.89-4.48,4.04-6.85.59-1.18,1.14-2.38,1.65-3.6.52-1.22.98-2.47,1.41-3.74.49-1.46.91-2.96,1.29-4.49.37.17.77.32,1.19.47.37.12.77.23,1.2.31,1.29,2.09,2.38,4.3,3.3,6.58,1.13,2.84,1.99,5.79,2.58,8.8.59,3.01.9,6.07.92,9.12,0,3-.26,6-.9,8.92-.6-.08-1.2-.15-1.79-.28h-.01ZM100.4,158.53c-1.14,2.64-2.68,5.06-4.6,7.12l-.72.78-.8.73-.8.73-.84.66c-.28.22-.56.45-.85.65l-.89.59c-.58.42-1.21.74-1.82,1.09-.15.09-.3.18-.46.26l-.48.22-.95.45c-.32.15-.65.25-.98.38-.33.12-.65.26-.99.36-1.34.4-2.7.75-4.1.9-.56.08-1.14.13-1.71.16-.14-3.13-.29-6.22-.61-9.29-.32-3.2-.78-6.38-1.39-9.53s-1.37-6.26-2.28-9.35c-.64-2.2-1.36-4.38-2.13-6.57.2-.18.38-.37.53-.56.16.02.33.03.49.03,2.58-.12,5.16.07,7.72.47,2.55.41,5.08,1.03,7.52,1.88,1.23.41,2.43.9,3.61,1.43.59.27,1.17.55,1.75.85.59.3,1.18.61,1.76.93,1.16.63,2.3,1.29,3.39,2,1.08.71,2.12,1.47,2.95,2.31.05.05.12.1.17.15-.06.6-.13,1.2-.21,1.79-.41,2.92-1.16,5.77-2.31,8.4l.03-.02ZM102.68,136.7c.05.37.1.75.14,1.12l.1,1.13c.08.75.11,1.5.16,2.25.03.55.04,1.1.05,1.65-.47-.21-.94-.41-1.4-.61l-3.76-1.59-3.73-1.61c-1.27-.53-2.53-1.06-3.82-1.52-2.57-.96-5.2-1.77-7.87-2.47-2.41-.64-4.87-1.15-7.34-1.63.08-1.15.03-2.25-.1-3.32-.19-1.52-.55-2.98-1.06-4.4-.25-.71-.54-1.4-.86-2.09-.16-.34-.34-.68-.52-1.01l-.53-.93c-.06-.1-.12-.2-.18-.3,1.45-1.77,3.41-3.18,5.55-4.16,1.12-.51,2.29-.89,3.49-1.18,1.2-.28,2.44-.41,3.67-.47,1.24,0,2.48.05,3.69.26,1.22.21,2.41.54,3.55.97,2.28.89,4.41,2.21,6.01,3.96.21.23.48.43.77.58.28.72.55,1.44.82,2.16l.73,2.15c.24.72.42,1.45.63,2.18.45,1.45.72,2.94,1.07,4.41.14.74.26,1.49.39,2.23l.19,1.12.15,1.12h0ZM85.28,100.49c.53.54,1.03,1.11,1.54,1.66l.77.83c.25.28.48.58.73.87l1.44,1.75,1.35,1.83c.22.31.45.61.67.92l.62.95c.41.64.84,1.26,1.24,1.9.61,1.06,1.26,2.11,1.83,3.19-.87-.27-1.75-.51-2.64-.71-1.36-.31-2.74-.52-4.11-.67-1.38-.14-2.76-.16-4.14-.14-1.38.07-2.76.18-4.12.42-1.37.22-2.72.54-4.06.93-2.48.74-4.88,1.74-7.29,3.01-1.52-1.93-3.24-3.7-5.1-5.3-1.08-.92-2.21-1.78-3.39-2.57-.59-.39-1.19-.77-1.8-1.13-.15-.09-.31-.18-.47-.27.88-1.91,2.13-3.64,3.59-5.17.8-.83,1.67-1.6,2.59-2.31.46-.35.94-.68,1.42-1,.49-.29.98-.6,1.5-.86.51-.28,1.04-.51,1.57-.75.54-.21,1.08-.44,1.63-.61,1.1-.37,2.24-.66,3.39-.86,2.11-.38,4.27-.52,6.42-.31.22.18.44.36.66.55l.86.74c1.17.96,2.22,2.05,3.31,3.1h0ZM66.66,87.82c1.37.64,2.77,1.22,4.1,1.95,2.04,1.03,3.99,2.22,5.88,3.5-1.05.29-2.1.58-3.14.9-1.18.37-2.36.74-3.52,1.19-1.16.43-2.31.9-3.44,1.45-1.13.54-2.23,1.14-3.29,1.78-1.07.64-2.12,1.32-3.15,2.05-2.07,1.44-4.03,3.07-6.04,4.8l-.07.06c-.05.05-.1.1-.15.15-.2-.09-.39-.18-.59-.26-1.31-.55-2.66-1.01-3.99-1.4-1.34-.39-2.59-.72-3.95-1.05-.67-.17-1.35-.29-2.02-.44-.04,0-.09-.02-.13-.02l-.05-.44c-.02-.3-.04-.6-.05-.89-.02-.59,0-1.16.09-1.74.15-1.15.48-2.29.96-3.38.96-2.19,2.5-4.15,4.28-5.82.88-.84,1.85-1.59,2.86-2.26,1.01-.67,2.08-1.26,3.19-1.74,1.22-.53,2.48-.96,3.76-1.25l2.05.56c.72.22,1.44.47,2.16.71l1.08.36,1.06.42c.7.28,1.41.54,2.11.84v-.03ZM64.79,72.24h0c-1.99-1.92-3.99-3.74-6.08-5.41-2.53-2.02-5.16-3.86-7.94-5.44-1.38-.81-2.8-1.55-4.25-2.24-1.45-.7-2.92-1.33-4.43-1.93-2.19-.86-4.43-1.6-6.75-2.3,2.31-5.09,4.98-10,8.11-14.52,2.77-4.03,5.97-7.78,9.48-11.21,1.09.6,2.13,1.29,3.13,2.03,1.6,1.2,3.08,2.57,4.42,4.07,2.68,3.01,4.73,6.57,6.15,10.36,1.44,3.79,2.3,7.8,2.64,11.84.18,2.02.21,4.05.11,6.05-.05,1-.14,2-.28,2.99-.05.35-.1.71-.17,1.06-1.47,1.46-2.86,3-4.14,4.64h0ZM73.05,63.88h0c-.02-.16-.04-.33-.06-.49-.28-2.12-.64-4.21-1.07-6.29-.86-4.14-2.01-8.21-3.59-12.12-1.56-3.91-3.62-7.64-6.07-11.11-1.22-1.74-2.55-3.42-3.97-5.05-.74-.85-1.5-1.68-2.28-2.5.98-.86,1.98-1.69,2.99-2.5,3-2.35,6.15-4.51,9.45-6.41,3.22-1.85,6.57-3.48,10.03-4.84,2.24,3.24,3.78,6.97,4.76,10.84.54,2.19.89,4.43,1.05,6.69.08,1.13.1,2.26.1,3.4-.02,1.13-.07,2.27-.16,3.4-.18,2.25-.51,4.53-.92,6.76-.44,2.22-1.01,4.42-1.73,6.56-.72,2.14-1.58,4.23-2.58,6.24-.91,1.83-1.95,3.59-3.11,5.26-.97.69-1.92,1.41-2.84,2.17h0ZM112.12,79.46c-2.5-1.48-4.95-2.9-7.2-4.49-1.12-.8-2.18-1.63-3.17-2.54-.25-.23-.5-.45-.74-.69l-.71-.71c-.23-.24-.46-.5-.69-.75s-.46-.5-.68-.77c-2.33-2.7-4.25-5.77-5.73-9.08h0l-.33-.75c-.11-.25-.21-.5-.31-.76-.34-.86-.66-1.73-.94-2.61h0c-.14-.43-.27-.86-.39-1.29-.07-.22-.13-.44-.19-.66v-.02c-.06-.23-.11-.45-.17-.68s-.11-.45-.17-.68c-.06-.28-.12-.55-.17-.83h0c-.09-.42-.18-.83-.25-1.24-.13-.68-.25-1.42-.37-2.13-.11-.71-.22-1.41-.3-2.09-.08-.69-.12-1.37-.1-2.03.02-.74.03-1.49.03-2.22v-.08c.05.09.11.19.16.28.79,1.32,1.7,2.59,2.74,3.77.63.7,1.3,1.37,2.02,1.99.79.69,1.63,1.31,2.53,1.87,1.01.62,2.09,1.15,3.23,1.57.64.22,1.29.41,1.93.55.11.03.22.05.33.07.03,0,.05.02.08.02.77.16,1.5.27,2.18.41.94.17,1.83.41,2.7.72.39.14.79.29,1.18.46,1.66.71,3.26,1.61,4.76,2.66.32.23.64.46.96.7.43.33.85.66,1.26,1.02.34.3.68.6,1.01.91s.65.63.96.96c.32.34.62.68.92,1.03.71.84,1.35,1.73,1.93,2.65.15.24.31.48.45.73.34.59.66,1.19.94,1.81.21.46.41.94.59,1.42.06.16.13.32.18.48.45,1.3.8,2.65,1.1,4.05.3,1.4.54,2.84.79,4.29.18,1.06.34,2.12.46,3.19.04.36.08.71.11,1.07.07.68.13,1.37.17,2.06.02.34.04.69.05,1.03s.02.69.03,1.03c-2.37-1.55-4.69-3.07-6.97-4.68-1.37-.97-2.71-1.96-3.99-3-.32-.26-.64-.52-.94-.79-.31-.27-.6-.54-.9-.81-.6-.56-1.21-1.15-1.81-1.73-1.19-1.18-2.34-2.39-3.44-3.65-1.09-1.27-2.13-2.57-3.09-3.95-1.6-2.28-2.92-4.77-3.86-7.44-.19-.53-.36-1.07-.51-1.62.09.55.19,1.1.31,1.64.61,2.79,1.65,5.51,3.01,8.06.81,1.52,1.71,3,2.68,4.43s2.01,2.81,3.08,4.17c.55.68,1.08,1.34,1.65,2,.3.33.6.67.92.97.23.24.46.47.69.69q.15.15,0,0c-.23-.22,0,0,0,0,0,0-.02-.01-.02-.02l.02.03ZM230.2,83.11l-.36,2.53c-.23,1.69-.44,3.35-.59,5.13-.16,1.74-.19,3.47-.26,5.13-.11,3.33-.36,6.36-1.39,9.18-.49,1.42-1.17,2.8-1.96,4.15-.39.68-.83,1.33-1.28,2-.47.68-.95,1.36-1.44,2.04-1.94,2.73-3.95,5.47-5.83,8.31-.94,1.43-1.85,2.87-2.7,4.36-.19.33-.38.67-.56,1-.23-.58-.47-1.15-.72-1.71-.54-1.22-1.13-2.39-1.7-3.55-1.15-2.3-2.16-4.6-3.06-6.99-.89-2.38-1.68-4.83-2.38-7.3-.69-2.47-1.34-4.96-1.88-7.48-.54-2.52-1.01-5.05-1.41-7.6-.38-2.55-.72-5.12-.96-7.7-.06,5.18.27,10.39,1.01,15.55.72,5.17,1.82,10.27,3.36,15.31.76,2.52,1.76,5,2.81,7.38.52,1.19,1.04,2.36,1.49,3.53.45,1.17.85,2.34,1.19,3.54.34,1.22.63,2.38.82,3.58.18,1.21.31,2.44.36,3.68.12,2.48-.02,4.98-.3,7.47-.56,4.98-1.76,9.9-3.5,14.61-.87,2.35-1.89,4.65-3,6.89-1.1,2.25-2.33,4.43-3.65,6.56-1.31,2.13-2.77,4.18-4.35,6.15-.4.49-.79.98-1.21,1.45-.42.47-.82.95-1.27,1.42-.88.94-1.74,1.88-2.65,2.77-.91.88-1.85,1.72-2.83,2.5-.99.77-2.04,1.45-3.13,2.04-1.1.58-2.26,1.02-3.46,1.34-1.2.33-2.44.43-3.67.46l-.93-.03c-.31,0-.61-.07-.92-.1l-.46-.06c-.15-.02-.3-.06-.45-.09-.3-.07-.61-.12-.9-.21-1.2-.32-2.34-.81-3.44-1.38-1.09-.58-2.12-1.29-3.1-2.07-.97-.78-1.91-1.61-2.8-2.52-.89-.89-1.78-1.83-2.63-2.77-.41-.47-.84-.93-1.24-1.41l-1.18-1.45c-1.54-1.96-2.94-4.01-4.25-6.11s-2.52-4.27-3.62-6.49c-1.1-2.23-2.05-4.53-2.87-6.89-1.64-4.71-2.73-9.63-3.23-14.59-.24-2.48-.34-4.98-.2-7.44.06-1.23.2-2.45.38-3.66.11-.6.2-1.2.34-1.78.06-.29.13-.59.21-.89l.23-.9c.34-1.19.73-2.36,1.17-3.52.45-1.16.96-2.33,1.48-3.52.52-1.19,1.04-2.41,1.5-3.65.47-1.24.88-2.5,1.28-3.76,1.53-5.05,2.58-10.17,3.28-15.35.36-2.58.6-5.18.75-7.78.04-.65.08-1.3.09-1.95l.02-1.95.03-3.89-.5,3.86c-.17,1.28-.3,2.56-.52,3.84-.41,2.55-.91,5.08-1.46,7.59-.56,2.51-1.21,5-1.93,7.46-.71,2.46-1.5,4.9-2.4,7.27-.23.59-.47,1.18-.7,1.77-.25.58-.49,1.16-.76,1.74-.51,1.16-1.06,2.29-1.63,3.45-.57,1.15-1.17,2.32-1.72,3.55-.21.46-.4.93-.6,1.4-.11-.2-.22-.4-.34-.6-.85-1.49-1.76-2.93-2.7-4.36-1.88-2.85-3.88-5.59-5.83-8.31-.49-.68-.97-1.36-1.44-2.04-.44-.66-.89-1.32-1.28-2-.79-1.35-1.47-2.73-1.96-4.15-1.03-2.83-1.28-5.85-1.39-9.18-.08-1.66-.11-3.39-.26-5.13-.16-1.78-.36-3.43-.59-5.13l-.36-2.53c-.13-.84-.27-1.69-.42-2.53-.28-1.69-.63-3.37-1.01-5.06-.74-3.1-1.68-6.21-3.1-9.13,0-.01-.01-.03-.01-.04h0s0-.02,0-.01c0,.01,0,0,0,0h0v-.02c-.41-1.11-.91-2.19-1.47-3.23-.48-.85-1-1.68-1.57-2.47,3.95-.76,7.91-1.79,11.74-3.12,3.98-1.37,7.83-3.01,11.57-4.81.47-.23.93-.44,1.41-.69.48-.25.96-.49,1.44-.74l1.41-.78,1.39-.82c1.84-1.12,3.61-2.35,5.32-3.68s3.36-2.77,4.91-4.37c1.33-1.39,2.6-2.88,3.74-4.64l3.41-.26,5.53-.38c1.84-.14,3.62-.25,5.4-.32,3.55-.13,7.06-.04,10.69.24l2.73.24c.52.05,1.05.11,1.58.17,1.12,1.83,2.39,3.46,3.75,4.95,1.51,1.65,3.12,3.16,4.82,4.54,1.7,1.39,3.49,2.65,5.35,3.8.93.58,1.88,1.12,2.85,1.62.99.52,1.92.96,2.87,1.42,3.8,1.78,7.71,3.36,11.72,4.65,3.27,1.06,6.62,1.91,9.95,2.61h0c.13.16.27.3.42.42-.55.77-1.06,1.58-1.52,2.41-.76,1.39-1.38,2.86-1.86,4.35-.47,1.5-.82,3.02-1.06,4.52-.25,1.5-.44,2.97-.62,4.44-.06.54-.12,1.07-.16,1.62h0c-.18.88-.34,1.74-.48,2.61-.15.84-.28,1.69-.42,2.53v-.06ZM259.72,69.52c-.22.27-.44.52-.68.77-.23.25-.46.51-.69.75l-.71.71c-.24.24-.49.46-.74.69-.99.9-2.06,1.74-3.18,2.54-2.25,1.59-4.69,3-7.2,4.49,0,0-.02,0-.02.02l-.02.02h0c.24-.23.49-.47.72-.72.31-.31.61-.64.92-.97.58-.67,1.11-1.33,1.65-2,1.07-1.35,2.1-2.74,3.08-4.17.96-1.44,1.87-2.91,2.68-4.44,1.63-3.04,2.79-6.34,3.31-9.7-.93,3.28-2.45,6.32-4.37,9.06-.96,1.37-2,2.68-3.09,3.95-1.1,1.26-2.25,2.47-3.44,3.65-.59.58-1.21,1.17-1.81,1.73-.3.27-.58.55-.9.81-.3.27-.62.53-.94.79-1.28,1.04-2.62,2.03-3.99,3-1.88,1.33-3.79,2.6-5.73,3.87.23-2.74.45-5.47.79-8.16.39-3.28.92-6.52,1.89-9.63.26-.83.55-1.64.88-2.45.75-1.21,1.61-2.35,2.57-3.4.73-.8,1.51-1.56,2.33-2.27s1.68-1.36,2.58-1.96c1.4-.94,2.88-1.75,4.41-2.41.19-.08.39-.16.58-.24,1.06-.41,2.13-.72,3.29-.94.18-.04.36-.07.55-.1.52-.09,1.06-.19,1.63-.3.77-.16,1.57-.37,2.34-.64,1.18-.42,2.28-.97,3.31-1.62,1.42-.88,2.7-1.95,3.85-3.13.21-.22.42-.45.63-.68,1.05-1.17,1.95-2.44,2.74-3.77.06-.09.11-.19.16-.28v.08c0,.73,0,1.48.03,2.22.02.67-.02,1.35-.09,2.03-.08.69-.19,1.38-.3,2.09-.07.41-.14.82-.21,1.24-.05.3-.11.6-.16.9-.12.69-.28,1.38-.42,2.07-.11.42-.21.85-.32,1.28,0,.03-.01.05-.02.08-.06.23-.12.46-.19.68-.11.39-.23.78-.35,1.16-.21.66-.43,1.32-.67,1.96-.19.51-.39,1.01-.6,1.51-1.52,3.61-3.56,6.94-6.07,9.85v-.02ZM284.54,61.99l-.45-.32c-1.15-1.66-2.18-3.41-3.08-5.22-1.01-2.01-1.87-4.1-2.58-6.24-.72-2.14-1.29-4.33-1.73-6.56-.41-2.22-.74-4.5-.92-6.76-.09-1.13-.14-2.26-.16-3.4,0-1.13.02-2.27.1-3.4.16-2.26.51-4.5,1.05-6.69.98-3.86,2.52-7.59,4.76-10.84,3.46,1.36,6.8,3,10.03,4.84,3.3,1.9,6.45,4.06,9.45,6.41,1.02.81,2.02,1.65,2.99,2.5-.78.83-1.54,1.66-2.28,2.5-1.41,1.63-2.74,3.31-3.97,5.05-2.46,3.47-4.51,7.2-6.07,11.11-1.57,3.91-2.73,7.97-3.59,12.12-.43,2.07-.78,4.16-1.07,6.29-.02.16-.04.32-.06.48h0c-.45-.37-.91-.74-1.37-1.08l-1.05-.8h0ZM289.24,89.77c1.32-.74,2.73-1.31,4.1-1.95.7-.29,1.41-.56,2.11-.84l1.06-.42,1.08-.36c.72-.23,1.44-.49,2.16-.71l2.05-.56c1.29.3,2.55.72,3.76,1.25,1.11.48,2.18,1.07,3.19,1.74,1.02.67,1.98,1.42,2.86,2.26,1.78,1.67,3.33,3.63,4.28,5.82.48,1.09.81,2.23.96,3.38.08.58.11,1.15.09,1.74,0,.29-.03.59-.05.89l-.05.44s-.09.02-.13.02c-.67.15-1.35.27-2.02.44-1.36.33-2.61.66-3.95,1.05-1.33.39-2.67.85-3.99,1.4-.2.08-.39.17-.59.26-.05-.05-.11-.11-.16-.16l-.07-.06c-2.01-1.73-3.97-3.36-6.04-4.8-1.03-.72-2.08-1.41-3.15-2.05-1.06-.64-2.16-1.24-3.29-1.78-1.12-.55-2.27-1.01-3.44-1.45-1.16-.44-2.34-.82-3.52-1.19-1.04-.32-2.09-.62-3.14-.9,1.88-1.28,3.83-2.48,5.88-3.5v.04ZM266.36,111.21c.4-.64.83-1.27,1.24-1.9l.62-.95c.21-.31.45-.61.67-.92l1.35-1.83,1.44-1.75c.24-.29.48-.59.73-.87l.77-.83c.52-.55,1.01-1.12,1.54-1.66,1.09-1.05,2.14-2.14,3.31-3.1l.86-.74c.22-.19.43-.37.66-.55,2.14-.21,4.31-.07,6.42.31,1.15.2,2.29.5,3.39.86.56.18,1.09.4,1.63.61.53.24,1.06.47,1.57.75.52.26,1,.57,1.5.86.48.33.96.65,1.42,1,.92.7,1.79,1.47,2.59,2.31,1.47,1.53,2.72,3.26,3.59,5.17-.16.09-.31.18-.47.27-.61.36-1.21.74-1.8,1.13-1.18.79-2.31,1.65-3.39,2.57-1.87,1.59-3.58,3.37-5.1,5.3-2.42-1.27-4.81-2.27-7.29-3.01-1.34-.39-2.7-.7-4.06-.93-1.36-.24-2.74-.34-4.12-.42-1.38-.03-2.76,0-4.14.14-1.38.15-2.75.36-4.11.67-.89.2-1.76.44-2.64.71.58-1.08,1.22-2.13,1.83-3.19h-.01ZM257.08,138.95l.1-1.13c.04-.37.09-.75.14-1.12l.15-1.12.19-1.12c.13-.74.25-1.49.39-2.23.35-1.47.63-2.96,1.07-4.41.21-.73.39-1.46.63-2.18l.73-2.15c.26-.72.54-1.44.82-2.16.28-.14.55-.33.77-.58,1.6-1.75,3.73-3.07,6.01-3.96,1.15-.43,2.34-.76,3.55-.97,1.22-.22,2.45-.27,3.69-.26,1.24.06,2.47.18,3.67.47s2.37.67,3.49,1.18c2.14.99,4.11,2.39,5.55,4.16-.06.1-.12.2-.18.3l-.53.93c-.18.33-.35.67-.52,1.01-.32.68-.61,1.38-.86,2.09-.5,1.42-.86,2.88-1.06,4.4-.13,1.08-.19,2.17-.1,3.32-2.48.48-4.93,1-7.34,1.63-2.67.7-5.29,1.51-7.87,2.47-1.29.46-2.56.99-3.82,1.52l-3.73,1.61-3.76,1.59c-.46.2-.93.4-1.4.61,0-.55.03-1.1.05-1.65.04-.75.07-1.5.16-2.25h0ZM274.78,172.54c-.34-.1-.66-.24-.99-.36-.33-.13-.66-.23-.98-.38l-.95-.45-.48-.22c-.16-.08-.31-.17-.46-.26-.61-.35-1.24-.67-1.82-1.09l-.89-.59c-.29-.2-.56-.44-.85-.65l-.84-.66-.8-.73-.8-.73-.72-.78c-1.92-2.07-3.46-4.49-4.6-7.12-1.14-2.64-1.89-5.48-2.31-8.4-.08-.59-.15-1.18-.21-1.78.06-.05.12-.1.17-.16.83-.85,1.87-1.6,2.95-2.31,1.08-.71,2.22-1.37,3.39-2,.58-.31,1.17-.62,1.76-.93.58-.3,1.16-.57,1.75-.85,1.19-.52,2.39-1.01,3.61-1.43,2.45-.86,4.97-1.47,7.52-1.88,2.55-.39,5.14-.59,7.72-.47.16,0,.33,0,.49-.03.15.19.33.38.53.57-.76,2.19-1.49,4.36-2.13,6.57-.91,3.09-1.67,6.21-2.28,9.35-.6,3.15-1.07,6.32-1.39,9.53-.31,3.07-.47,6.16-.61,9.29-.57-.03-1.14-.08-1.71-.16-1.4-.15-2.76-.5-4.1-.9h.03ZM303.61,166.24c-2.53,1.62-5.15,3.07-7.87,4.27-2.71,1.19-5.52,2.09-8.36,2.63-.6.13-1.19.2-1.79.28-.65-2.92-.91-5.92-.9-8.92.02-3.06.33-6.12.92-9.12.59-3.01,1.45-5.96,2.58-8.8.92-2.28,2.01-4.5,3.3-6.58.44-.08.83-.19,1.2-.31.42-.14.82-.3,1.19-.47.37,1.53.79,3.03,1.29,4.49.43,1.27.89,2.52,1.41,3.74.51,1.22,1.05,2.43,1.65,3.6,1.16,2.37,2.53,4.65,4.04,6.85,1.43,2.07,3.02,4.05,4.7,6.04-1.1.8-2.21,1.57-3.35,2.31h-.01ZM317.48,154.65c-2.04,2.15-4.2,4.19-6.47,6.1-.16-.14-.34-.27-.54-.37-2.16-1.12-4.07-2.68-5.74-4.47-1.66-1.8-3.08-3.84-4.17-6.05-.29-.55-.53-1.12-.78-1.68-.23-.57-.46-1.14-.66-1.73-.4-1.16-.73-2.35-.94-3.55-.37-2.07-.47-4.17-.19-6.22.2-.15.41-.31.6-.46.35-.28.7-.58,1.04-.88,2.01.96,3.93,1.98,5.85,2.98,2.18,1.14,4.35,2.27,6.54,3.37,2.19,1.09,4.41,2.14,6.66,3.15,1.62.74,3.25,1.45,4.9,2.18-1.83,2.69-3.87,5.25-6.12,7.62h.02ZM339.14,102.27l-.66-.09c.28-1.62.46-3.19.48-4.76.03-2.08-.21-4.14-.82-6.12-.54-1.7-1.34-3.31-2.34-4.8,1.97.75,3.85,1.6,5.62,2.65,2.52,1.5,4.81,3.33,6.75,5.51,1.95,2.17,3.56,4.64,4.79,7.29.66,1.43,1.2,2.91,1.64,4.42-3.71-1.44-7.54-2.59-11.44-3.39-1.33-.27-2.67-.51-4.02-.71h0Z"/>
  <path class="st0" d="M197.77,152.46c-1.31-1.03-2.9.54-7.94,1.6-1.97.42-6.29.41-9,.58-.56.03-1.11.03-1.67,0-2.7-.17-7.03-.16-9-.58-5.04-1.06-6.63-2.63-7.94-1.6-1.49,1.16-1.02,4.4-.83,5.69.42,2.89,1.85,4.8,2.81,6.05,1.67,2.17,3.69,3.66,3.97,3.38.39-.39-2.8-3.99-1.99-5.16.43-.62,1.77-.24,1.99-.18,2.28.64,2.6,2.85,4.96,5.33.6.63,1.58,1.66,2.92,2.42.1.85.05,1.83-.29,2.85-.61,1.79-1.84,2.81-2.61,3.44-2.2,1.8-4.63,2.21-5.87,2.31.9.16,1.91.26,3.02.24,4.36-.09,7.65-2,9.37-3.2,1.71,1.2,5.01,3.11,9.37,3.2,1.11.02,2.12-.08,3.02-.24-1.24-.11-3.67-.51-5.87-2.31-.77-.63-2-1.64-2.61-3.44-.3-.89-.37-1.74-.32-2.51,1.68-.78,2.88-2.03,3.58-2.76,2.37-2.48,2.68-4.69,4.96-5.33.21-.06,1.55-.44,1.98.18.82,1.16-2.38,4.76-1.98,5.16.28.28,2.3-1.21,3.97-3.38.96-1.25,2.39-3.16,2.81-6.05.19-1.29.66-4.53-.83-5.69h.02Z"/>
  <path class="st0" d="M139.76,81.55c-.86-.59-2.32-1.49-3.58-3.3-1.4-2.01-1.87-4.12-2.05-5.58.07,2.14.5,3.83.88,4.98.48,1.45,1.04,2.48,1.81,3.91.74,1.37,1.2,2.01,1.44,2.3-.53.58-1.21,1.55-1.44,2.42-.23.86-.95,2.83-.39,3.39.53.52,1.6-.51,2.98,0,1.2.44,1.86,1.77,1.67,1.99-.18.21-1.05-.74-2.2-.56-.84.14-1.58.83-1.86,1.58-.67,1.77,1.39,3.7,1.61,3.91,2.35,2.21,5.7,1.46,5.92,1.41.56-.13,2.51-.61,3.39-1.88.27.38.53.77.79,1.18.83,1.27,1.89,3.09,2.84,5.44-.03-3.22-.67-5.66-1.21-7.21-1.67-4.81-5.57-10.52-10.61-13.96v-.02Z"/>
  <path class="st0" d="M219.8,81.55c-5.04,3.44-8.94,9.14-10.61,13.96-.54,1.55-1.18,3.99-1.21,7.21.95-2.36,2-4.18,2.84-5.44.32-.49.63-.96.96-1.41.74,1.35,2.5,1.86,3.12,2.05,1.96.57,4.38.2,6.02-1.34.22-.21,2.29-2.13,1.61-3.91-.29-.75-1.02-1.45-1.86-1.58-1.15-.19-2.02.77-2.2.56-.18-.22.47-1.54,1.67-1.99,1.38-.51,2.45.52,2.98,0,.56-.56-.16-2.53-.39-3.39-.23-.88-.91-1.84-1.44-2.42.23-.3.7-.93,1.44-2.3.77-1.42,1.33-2.46,1.81-3.91.38-1.15.81-2.84.88-4.98-.18,1.47-.64,3.58-2.05,5.58-1.27,1.81-2.72,2.71-3.58,3.3h.01Z"/>
</svg>