<?xml version="1.0" encoding="UTF-8"?>
<svg id="Layer_1" data-name="Layer 1" xmlns="http://www.w3.org/2000/svg" xmlns:xlink="http://www.w3.org/1999/xlink" viewBox="0 0 500 498.97">
  <defs>
    <style>
      .cls-1 {
        fill: none;
      }

      .cls-2 {
        clip-path: url(#clippath-1);
      }

      .cls-3 {
        fill: #9a6c29;
      }

      .cls-4 {
        clip-path: url(#clippath);
      }
    </style>
    <clipPath id="clippath">
      <rect class="cls-1" width="500" height="498.97"/>
    </clipPath>
    <clipPath id="clippath-1">
      <rect class="cls-1" width="500" height="498.97"/>
    </clipPath>
  </defs>
  <g id="Aries">
    <g class="cls-4">
      <g class="cls-2">
        <path class="cls-3" d="M131.19,270.74c-55.1,0-93.85-11.53-115.19-34.28C-.99,218.35-.02,199.96.02,199.19l1-2,2.14-.66c110.47,11.4,177.57-34.9,178.23-35.37,1.28-.91,3.06-.6,3.97.68.91,1.29.6,3.06-.68,3.97-.67.48-68.06,47.11-178.85,36.7.5,5.54,2.96,17.99,14.47,30.18,13.93,14.75,44.47,32.33,110.89,32.33,1.58,0,2.85,1.28,2.85,2.85s-1.28,2.85-2.85,2.85"/>
        <path class="cls-3" d="M116.55,256.88h-.01c-70.57-.37-101.21-40.61-102.47-42.33-.94-1.26-.67-3.05.59-3.99,1.26-.94,3.05-.67,3.99.59.35.47,30.42,39.67,97.92,40.02,1.58,0,2.84,1.29,2.84,2.87,0,1.57-1.28,2.84-2.85,2.84"/>
        <path class="cls-3" d="M92.16,238.43h-.02c-39.59-.21-56.87-22.91-57.58-23.88-.94-1.26-.67-3.05.59-3.99,1.26-.94,3.04-.67,3.98.59.21.28,16.51,21.39,53.04,21.58,1.57,0,2.84,1.29,2.84,2.87,0,1.57-1.28,2.84-2.85,2.84"/>
        <path class="cls-3" d="M105.83,208.75c-2.43.39-4.72-1.26-5.11-3.69-.39-2.43,1.26-4.72,3.69-5.11,2.43-.39,4.72,1.26,5.11,3.69.39,2.43-1.26,4.72-3.69,5.11"/>
        <path class="cls-3" d="M94.15,209.36c-1.91.31-3.7-.99-4.01-2.9-.31-1.91.99-3.7,2.9-4.01,1.9-.31,3.7.99,4.01,2.9.31,1.91-.99,3.7-2.9,4.01"/>
        <path class="cls-3" d="M84.55,210.21c-1.37.22-2.66-.71-2.88-2.08-.22-1.37.71-2.66,2.08-2.88,1.37-.22,2.66.71,2.88,2.08.22,1.37-.71,2.66-2.08,2.88"/>
        <path class="cls-3" d="M76.89,211.45c-1.01.16-1.96-.52-2.12-1.53-.16-1.01.52-1.96,1.53-2.12,1-.16,1.95.52,2.12,1.53.16,1.01-.53,1.96-1.53,2.12"/>
        <path class="cls-3" d="M179.03,401.09c-.38-2.43,1.28-4.71,3.71-5.1,2.43-.38,4.71,1.28,5.1,3.71.38,2.43-1.28,4.71-3.71,5.1-2.43.38-4.71-1.28-5.09-3.71"/>
        <path class="cls-3" d="M175.04,388.49c-.3-1.91,1-3.7,2.91-4,1.91-.3,3.7,1,4,2.91.3,1.91-1,3.7-2.91,4s-3.7-1-4-2.91"/>
        <path class="cls-3" d="M173.52,377.19c-.22-1.37.72-2.66,2.09-2.87,1.37-.22,2.66.72,2.87,2.09s-.72,2.66-2.09,2.87c-1.37.22-2.66-.72-2.87-2.09"/>
        <path class="cls-3" d="M173.17,366.26c-.16-1.01.53-1.95,1.54-2.11,1.01-.16,1.95.53,2.11,1.54.16,1.01-.53,1.95-1.54,2.11s-1.95-.53-2.11-1.54"/>
        <path class="cls-3" d="M319.09,401.09c.38-2.43-1.28-4.71-3.71-5.1-2.43-.38-4.71,1.28-5.1,3.71-.38,2.43,1.28,4.71,3.71,5.1,2.43.38,4.72-1.28,5.1-3.71"/>
        <path class="cls-3" d="M323.08,388.49c.3-1.91-1-3.7-2.91-4-1.91-.3-3.7,1-4,2.91-.3,1.91,1,3.7,2.91,4s3.7-1,4-2.91"/>
        <path class="cls-3" d="M324.6,377.19c.22-1.37-.72-2.66-2.09-2.87-1.37-.22-2.66.72-2.87,2.09-.22,1.37.72,2.66,2.09,2.87,1.37.22,2.66-.72,2.87-2.09"/>
        <path class="cls-3" d="M324.95,366.26c.16-1.01-.53-1.95-1.54-2.11-1.01-.16-1.95.53-2.11,1.54-.16,1.01.53,1.95,1.54,2.11s1.95-.53,2.11-1.54"/>
        <path class="cls-3" d="M127.72,241.09l-1-.19c-1.47-.56-2.22-2.2-1.66-3.67.35-.94,8.88-23.24,28.94-49.6.95-1.25,2.74-1.5,3.99-.54,1.25.95,1.5,2.74.54,4-19.52,25.66-28.06,47.94-28.14,48.16-.43,1.14-1.51,1.84-2.67,1.84"/>
        <path class="cls-3" d="M186.82,436.6l-1.03-.19c-47.55-18.46-32.97-101.57-32.32-105.1.28-1.55,1.77-2.57,3.32-2.29,1.55.28,2.58,1.77,2.29,3.32-.15.82-14.4,82,28.78,98.76,1.47.57,2.2,2.22,1.63,3.69-.44,1.13-1.52,1.82-2.66,1.82"/>
        <path class="cls-3" d="M189.92,420.92l-1.03-.19c-33.59-13.04-23.38-71.26-22.92-73.74.28-1.55,1.77-2.57,3.32-2.29,1.55.28,2.57,1.77,2.29,3.31-.1.56-9.83,56.06,19.38,67.4,1.47.57,2.19,2.22,1.62,3.69-.44,1.13-1.51,1.82-2.66,1.82"/>
        <path class="cls-3" d="M311.99,416.71c-1.14,0-2.22-.69-2.66-1.82-.57-1.47.16-3.12,1.63-3.69,29.24-11.35,19.48-66.84,19.38-67.39-.28-1.55.74-3.03,2.29-3.32,1.55-.28,3.03.74,3.32,2.29.45,2.47,10.67,60.7-22.92,73.74l-1.03.19Z"/>
        <path class="cls-3" d="M315.92,436.6c-1.14,0-2.22-.69-2.66-1.82-.57-1.47.16-3.12,1.63-3.69,43.18-16.76,28.93-97.94,28.78-98.76-.28-1.55.74-3.03,2.29-3.32,1.56-.28,3.03.75,3.32,2.29.64,3.53,15.23,86.64-32.32,105.1l-1.03.19Z"/>
        <path class="cls-3" d="M143.75,316.15c-1.37,0-2.58-1-2.81-2.4-6.71-41.48,12.48-77.63,13.3-79.14.75-1.39,2.48-1.9,3.86-1.15,1.39.75,1.91,2.48,1.16,3.86-.19.36-19.08,36.01-12.68,75.52.25,1.55-.81,3.02-2.36,3.27l-.46.04Z"/>
        <path class="cls-3" d="M157.72,307.53c-1.37,0-2.58-1-2.81-2.4-4.87-30.06,9.04-56.26,9.64-57.36.75-1.38,2.47-1.9,3.86-1.15,1.38.75,1.9,2.47,1.16,3.86-.13.25-13.58,25.65-9.03,53.74.25,1.55-.8,3.02-2.36,3.27l-.46.04Z"/>
        <path class="cls-3" d="M344.9,307.53l-.46-.04c-1.55-.25-2.61-1.71-2.36-3.27,4.55-28.1-8.89-53.49-9.03-53.74-.74-1.39-.23-3.11,1.16-3.86,1.39-.75,3.12-.23,3.86,1.15.59,1.1,14.5,27.3,9.64,57.36-.23,1.4-1.44,2.4-2.81,2.4"/>
        <path class="cls-3" d="M357.8,321.09l-.5-.04c-1.55-.27-2.59-1.75-2.32-3.3,6.96-39.49-11.45-75.34-11.63-75.69-.73-1.4-.19-3.12,1.21-3.85,1.4-.73,3.12-.19,3.85,1.21.8,1.53,19.48,37.94,12.19,79.32-.24,1.38-1.45,2.36-2.8,2.36"/>
        <path class="cls-3" d="M234.05,94.95h-.04c-1.57-.02-2.84-1.31-2.81-2.88.26-21.93-6.25-39.74-19.34-52.91-25.07-25.23-66.19-25.35-66.7-25.33h-.01c-1.57,0-2.84-1.27-2.85-2.84,0-1.58,1.26-2.86,2.84-2.87,1.74-.02,44,.07,70.78,27.01,14.21,14.3,21.27,33.48,20.99,57-.02,1.56-1.29,2.82-2.85,2.82"/>
        <path class="cls-3" d="M222.41,145.07h-.22c-1.57-.13-2.74-1.5-2.62-3.07,5.55-71.62-35.16-105.25-35.57-105.58-1.22-.99-1.42-2.78-.44-4.01.99-1.22,2.78-1.42,4-.44,1.78,1.42,43.49,35.7,37.69,110.47-.12,1.5-1.37,2.63-2.84,2.63"/>
        <path class="cls-3" d="M198.55,120.13l-2.14-.96c-1.04-1.18-.94-2.98.24-4.02.89-.79,22.26-19.33,53.83-13.31,1.55.29,2.56,1.79,2.27,3.33-.3,1.54-1.78,2.56-3.34,2.27-28.85-5.5-48.78,11.8-48.98,11.98l-1.89.72Z"/>
        <path class="cls-3" d="M197.58,94.95l-2.13-.96c-1.04-1.18-.94-2.98.24-4.02.87-.77,21.54-18.71,52.1-12.88,1.55.29,2.56,1.79,2.27,3.34-.3,1.54-1.78,2.56-3.34,2.26-27.83-5.3-47.06,11.38-47.25,11.55l-1.89.71Z"/>
        <path class="cls-3" d="M189.6,73.95l-2.13-.96c-1.05-1.18-.94-2.98.24-4.02.9-.79,22.25-19.33,53.83-13.31,1.55.3,2.56,1.79,2.27,3.34-.3,1.54-1.78,2.56-3.34,2.26-28.85-5.5-48.78,11.8-48.98,11.98l-1.89.71Z"/>
        <path class="cls-3" d="M177.46,53.84l-2.14-.96c-1.04-1.18-.93-2.98.25-4.02.94-.83,23.31-20.24,56.38-13.93,1.55.3,2.56,1.79,2.26,3.33-.29,1.55-1.78,2.57-3.33,2.27-30.23-5.77-51.32,12.42-51.53,12.6l-1.89.71Z"/>
        <path class="cls-3" d="M162.36,37.69l-2.17-1c-1.02-1.19-.88-2.99.31-4.02.97-.83,24.09-20.24,56.89-13.99,1.55.29,2.56,1.79,2.27,3.33-.29,1.55-1.78,2.56-3.34,2.27-30.13-5.74-51.89,12.53-52.11,12.71l-1.85.69Z"/>
        <path class="cls-3" d="M140.87,25.12l-2.14-.96c-1.04-1.18-.93-2.98.24-4.02.91-.81,22.71-19.72,54.92-13.58,1.55.3,2.56,1.79,2.27,3.33-.3,1.55-1.78,2.57-3.33,2.27-29.38-5.6-49.88,12.07-50.08,12.25l-1.88.71Z"/>
        <path class="cls-3" d="M205.67,224.01l-1.61-.1c-3.31-.42-6.27-2.09-8.32-4.7-2.06-2.63-2.97-5.88-2.56-9.18.2-1.56,1.63-2.66,3.19-2.47,1.56.19,2.67,1.62,2.47,3.18-.22,1.77.27,3.53,1.38,4.94,1.12,1.43,2.74,2.34,4.56,2.57,1.83.23,3.61-.25,5.05-1.36,1.43-1.09,2.34-2.67,2.56-4.44.2-1.56,1.62-2.67,3.19-2.47,1.56.2,2.67,1.62,2.47,3.19-.42,3.3-2.1,6.23-4.75,8.26-2.21,1.69-4.87,2.59-7.62,2.59"/>
        <path class="cls-3" d="M205.04,232.45c-9.77,0-19.54-3.69-29.06-10.96l-1.12-2.13.92-2.23c.46-.42,11.42-10.36,28.06-10.36,9.75,0,19.37,3.41,28.61,10.15l1.16,2.06-.79,2.23c-.44.46-11.04,11.24-27.78,11.24M182.51,219.15c7.5,5.04,15.06,7.59,22.53,7.59,9.87,0,17.33-4.46,21.05-7.27-7.3-4.65-14.77-7-22.25-7-9.83,0-17.45,4.06-21.34,6.68"/>
        <path class="cls-3" d="M249.63,498.97c-27.1,0-37.46-14.77-48.43-30.41-3.52-5.02-7.16-10.21-11.44-14.96-1.06-1.17-.96-2.97.21-4.03,1.17-1.05,2.97-.96,4.03.21,4.52,5.01,8.26,10.34,11.88,15.5,10.53,15.01,19.63,27.98,43.77,27.98h.27c1.57,0,2.85,1.27,2.85,2.84,0,1.58-1.27,2.86-2.84,2.86h-.29Z"/>
        <path class="cls-3" d="M140.13,368.82c-1.2,0-2.32-.77-2.71-1.98-3.38-10.48-6.44-23.26-8.17-34.19-5.5-34.74-1.09-70.13,12.41-99.65,10.01-21.87,18.77-36.39,26.5-49.21,7.19-11.91,13.4-22.21,19.52-36.2,20.22-46.22,3.44-91.31-44.89-120.61-8.4-5.09-17.54-9.3-27.18-12.52-2.24-.75-5.63-1.7-11.45-3.32-1.23-.34-2.08-1.46-2.09-2.74,0-1.28.85-2.4,2.08-2.75.72-.2,72.04-19.68,116.06,14.79,22.85,17.89,33.8,46.98,32.55,86.46-.05,1.57-1.39,2.8-2.94,2.76-1.57-.05-2.81-1.37-2.76-2.94,1.18-37.4-8.94-64.84-30.08-81.56C185.8.5,138.16,5.12,116.75,8.84l.66.22c10.04,3.35,19.57,7.74,28.33,13.06,50.25,30.46,68.32,79.43,47.16,127.77-6.27,14.34-12.88,25.28-19.86,36.86-7.65,12.68-16.32,27.05-26.19,48.63-13.04,28.51-17.29,62.74-11.96,96.39,1.68,10.65,4.66,23.11,7.96,33.32.48,1.5-.34,3.11-1.84,3.59l-.88.14Z"/>
        <path class="cls-3" d="M359.8,368.82l-.91-.15c-1.49-.5-2.3-2.12-1.8-3.61,3.46-10.29,6.16-21.49,8.02-33.29,5.33-33.65,1.08-67.88-11.96-96.39-9.87-21.58-18.54-35.95-26.19-48.63-6.99-11.58-13.59-22.53-19.86-36.86-21.16-48.35-3.09-97.31,47.16-127.77,8.76-5.31,18.29-9.7,28.33-13.06l.66-.22c-21.41-3.72-69.06-8.33-100.23,16.33-21.14,16.73-31.26,44.17-30.08,81.56.05,1.57-1.19,2.89-2.76,2.94-1.6.03-2.89-1.19-2.94-2.76-1.24-39.4,9.66-68.45,32.42-86.35,43.68-34.37,115.46-15.1,116.18-14.9,1.23.34,2.09,1.46,2.09,2.75,0,1.28-.85,2.4-2.09,2.75-5.81,1.62-9.21,2.57-11.45,3.32-9.64,3.22-18.79,7.43-27.18,12.52-48.34,29.3-65.12,74.39-44.89,120.61,6.13,14,12.33,24.29,19.52,36.2,7.73,12.81,16.49,27.33,26.5,49.21,13.5,29.51,17.91,64.9,12.41,99.65-1.92,12.12-4.69,23.63-8.25,34.22-.4,1.19-1.51,1.94-2.7,1.94"/>
        <path class="cls-3" d="M250.29,498.97h-.21c-1.57,0-2.85-1.29-2.84-2.86,0-1.57,1.28-2.84,2.85-2.84h.19c21.78,0,34.63-17.24,47.06-33.91,1.88-2.53,3.83-5.14,5.76-7.63.97-1.24,2.76-1.47,4-.5,1.24.97,1.47,2.76.5,4-1.9,2.44-3.83,5.03-5.7,7.54-12.65,16.97-26.99,36.21-51.63,36.21"/>
        <path class="cls-3" d="M368.8,270.74c-1.57,0-2.85-1.28-2.85-2.85s1.28-2.85,2.85-2.85c66.42,0,96.96-17.58,110.89-32.33,11.51-12.19,13.97-24.63,14.47-30.18-110.78,10.4-178.18-36.22-178.85-36.7-1.29-.91-1.59-2.69-.68-3.97.91-1.29,2.69-1.59,3.97-.68.67.47,67.76,46.76,178.23,35.37l2.13.66,1,2c.05.77,1.01,19.16-15.97,37.26-21.34,22.75-60.1,34.28-115.2,34.28"/>
        <path class="cls-3" d="M383.45,256.88c-1.57,0-2.84-1.27-2.85-2.84,0-1.58,1.26-2.86,2.84-2.87,67.75-.35,97.63-39.62,97.92-40.02.94-1.26,2.72-1.53,3.99-.59,1.26.94,1.53,2.72.59,3.99-1.27,1.71-31.9,41.96-102.47,42.33h-.01Z"/>
        <path class="cls-3" d="M407.84,238.43c-1.57,0-2.84-1.27-2.85-2.84,0-1.57,1.26-2.86,2.84-2.87,36.76-.19,52.88-21.36,53.03-21.57.94-1.26,2.72-1.53,3.99-.6,1.26.94,1.53,2.72.59,3.99-.72.97-18,23.68-57.59,23.88h-.01Z"/>
        <path class="cls-3" d="M394.17,208.75c2.43.39,4.72-1.26,5.11-3.69.39-2.43-1.26-4.72-3.69-5.11-2.43-.39-4.72,1.26-5.11,3.69-.39,2.43,1.26,4.72,3.69,5.11"/>
        <path class="cls-3" d="M405.85,209.36c1.91.31,3.7-.99,4.01-2.9.31-1.91-.99-3.7-2.89-4.01-1.91-.31-3.7.99-4.01,2.9-.31,1.91.99,3.7,2.89,4.01"/>
        <path class="cls-3" d="M415.45,210.21c1.37.22,2.66-.71,2.88-2.08.22-1.37-.71-2.66-2.08-2.88-1.37-.22-2.66.71-2.88,2.08-.22,1.37.71,2.66,2.08,2.88"/>
        <path class="cls-3" d="M423.12,211.45c1.01.16,1.95-.52,2.12-1.53.16-1.01-.52-1.96-1.53-2.12-1.01-.16-1.96.52-2.12,1.53-.16,1.01.52,1.96,1.53,2.12"/>
        <path class="cls-3" d="M372.28,241.09c-1.15,0-2.23-.7-2.67-1.84-.08-.22-8.62-22.5-28.15-48.16-.95-1.25-.71-3.04.54-4,1.25-.96,3.04-.71,3.99.54,20.06,26.37,28.59,48.67,28.94,49.6.55,1.47-.19,3.12-1.66,3.67l-1.01.19Z"/>
        <path class="cls-3" d="M259.16,151.49c-1.54,0-2.81-1.23-2.85-2.78-1.33-56.28,11.23-96.66,37.33-120,27.73-24.81,60.22-20.74,61.6-20.56,1.56.21,2.65,1.65,2.44,3.21-.21,1.56-1.66,2.65-3.21,2.44-.47-.06-31.44-3.8-57.11,19.22-24.74,22.19-36.63,61.07-35.35,115.55.04,1.57-1.21,2.88-2.78,2.92h-.07Z"/>
        <path class="cls-3" d="M277.3,114.29c-1.55,0-2.83-1.25-2.85-2.81-.99-64.43,37.15-79.36,38.78-79.96,1.47-.55,3.12.2,3.67,1.68.55,1.47-.2,3.11-1.67,3.66-1.47.56-36,14.35-35.07,74.53.02,1.57-1.23,2.87-2.81,2.89h-.04Z"/>
        <path class="cls-3" d="M301.45,120.13l-1.89-.72c-.33-.28-20.34-17.44-48.98-11.98-1.55.3-3.04-.72-3.33-2.27-.3-1.55.72-3.04,2.27-3.33,31.58-6.02,52.94,12.52,53.83,13.31,1.18,1.05,1.28,2.85.24,4.02l-2.13.96Z"/>
        <path class="cls-3" d="M302.42,94.95l-1.89-.71c-.26-.23-19.58-16.83-47.25-11.56-1.55.3-3.04-.72-3.34-2.26-.3-1.55.72-3.04,2.27-3.34,30.56-5.83,51.23,12.12,52.1,12.88,1.18,1.04,1.29,2.84.25,4.02l-2.14.96Z"/>
        <path class="cls-3" d="M310.4,73.95l-1.89-.71c-.28-.24-20.3-17.45-48.98-11.98-1.55.3-3.04-.72-3.34-2.26-.29-1.55.72-3.04,2.26-3.34,31.58-6.02,52.94,12.52,53.83,13.31,1.18,1.04,1.29,2.84.24,4.02l-2.13.96Z"/>
        <path class="cls-3" d="M322.54,53.84l-1.89-.72c-.24-.21-21.32-18.37-51.53-12.6-1.55.3-3.04-.72-3.33-2.27-.3-1.55.72-3.04,2.27-3.33,33.07-6.31,55.44,13.11,56.38,13.93,1.18,1.05,1.29,2.85.24,4.02l-2.14.96Z"/>
        <path class="cls-3" d="M337.64,37.69l-1.85-.68c-.23-.2-22.11-18.44-52.11-12.72-1.55.3-3.04-.72-3.33-2.27-.3-1.55.72-3.04,2.26-3.33,32.8-6.26,55.92,13.15,56.89,13.99,1.19,1.02,1.33,2.82.31,4.02l-2.17,1Z"/>
        <path class="cls-3" d="M359.13,25.12l-1.89-.72c-.25-.22-20.74-17.84-50.07-12.25-1.55.3-3.04-.72-3.34-2.27-.3-1.54.72-3.04,2.26-3.33,32.22-6.14,54.01,12.77,54.92,13.58,1.18,1.05,1.29,2.85.24,4.02l-2.13.96Z"/>
        <path class="cls-3" d="M290.84,224c-6.21,0-11.6-4.58-12.4-10.84-.2-1.56.91-2.99,2.47-3.19,1.58-.19,2.99.91,3.18,2.47.46,3.67,3.86,6.27,7.62,5.8,3.74-.47,6.4-3.84,5.94-7.51-.2-1.56.91-2.99,2.47-3.18,1.55-.19,2.99.91,3.19,2.47.85,6.79-4.03,13.01-10.88,13.88l-1.59.1Z"/>
        <path class="cls-3" d="M291.45,232.45h0c-16.74,0-27.34-10.78-27.78-11.24l-.79-2.23,1.16-2.06c9.24-6.73,18.86-10.15,28.61-10.15,16.64,0,27.6,9.93,28.06,10.36l.91,2.23-1.12,2.13c-9.51,7.27-19.29,10.96-29.05,10.96M270.41,219.47c3.74,2.81,11.23,7.27,21.04,7.27h0c7.47,0,15.02-2.55,22.52-7.58-3.91-2.62-11.55-6.69-21.33-6.69-7.47,0-14.94,2.35-22.24,7"/>
        <path class="cls-3" d="M236.24,326.48c-1.57,0-2.85-1.28-2.85-2.85v-92.66c0-1.57,1.28-2.85,2.85-2.85s2.85,1.28,2.85,2.85v92.66c0,1.58-1.28,2.85-2.85,2.85"/>
        <path class="cls-3" d="M259.16,299.36c-1.57,0-2.85-1.28-2.85-2.85v-65.54c0-1.57,1.28-2.85,2.85-2.85s2.85,1.28,2.85,2.85v65.54c0,1.58-1.28,2.85-2.85,2.85"/>
        <path class="cls-3" d="M295.19,456.33c-16.55,0-31.2-7.78-43.59-23.14-12.08,14.56-29.32,23.14-46.79,23.14-15.65,0-31.65-8.14-43.89-22.35-18.61-21.59-26.4-53.34-21.36-87.09.23-1.56,1.7-2.63,3.24-2.4,1.56.23,2.63,1.68,2.4,3.24-4.79,32.11,2.51,62.18,20.04,82.52,11.16,12.95,25.58,20.37,39.57,20.37,16.82,0,33.46-8.89,44.52-23.78,1.08-1.45,3.5-1.45,4.58,0,11.72,15.78,25.61,23.78,41.28,23.78,14.77,0,30.71-8.96,42.63-23.97,17.02-21.43,22.98-50.12,16.33-78.69-.36-1.54.6-3.07,2.13-3.42,1.53-.35,3.07.6,3.42,2.13,7.04,30.29.69,60.73-17.42,83.53-13,16.36-30.6,26.13-47.1,26.13"/>
        <path class="cls-3" d="M226.73,451.55c-1.14,0-2.21-.69-2.65-1.81-.58-1.46.14-3.12,1.61-3.7,7.07-2.78,14.56-8.5,21.55-16.21-13.34-14.04-28.35-34.81-27.14-56.24,1.33-23.46,14.15-33.69,25.7-35.44,13.57-2.05,27.1,6.35,32.19,19.99,6.74,18.06-5.04,49.54-22.93,71.41,8.22,8.14,14.99,13.23,15.17,13.36,1.26.94,1.53,2.72.59,3.99-.94,1.26-2.72,1.53-3.99.59-.73-.54-7.43-5.58-15.55-13.57-7.27,7.96-15.35,14.22-23.49,17.42l-1.04.2ZM249.88,343.55c-1.08,0-2.16.08-3.24.24-12.1,1.83-19.9,13.1-20.86,30.13-1.08,19.07,12.73,38.23,25.23,51.5,4.33-5.37,8.38-11.48,11.92-18.08,9.94-18.53,13.65-36.62,9.71-47.2-3.74-10.02-12.98-16.59-22.75-16.59"/>
      </g>
    </g>
  </g>
</svg>