<?xml version="1.0" encoding="UTF-8"?>
<svg id="Layer_1" data-name="Layer 1" xmlns="http://www.w3.org/2000/svg" xmlns:xlink="http://www.w3.org/1999/xlink" viewBox="0 0 532.43 500.8">
  <defs>
    <style>
      .cls-1 {
        fill: none;
      }

      .cls-2 {
        fill: #1f3d3a;
      }

      .cls-3 {
        clip-path: url(#clippath-1);
      }

      .cls-4 {
        clip-path: url(#clippath);
      }
    </style>
    <clipPath id="clippath">
      <rect class="cls-1" width="532.43" height="500.8"/>
    </clipPath>
    <clipPath id="clippath-1">
      <rect class="cls-1" width="532.43" height="500.8"/>
    </clipPath>
  </defs>
  <g id="Beech">
    <g class="cls-4">
      <g class="cls-3">
        <path class="cls-2" d="M233.18,8.54c-.32.67-.63,1.37-.87,2.07-.27.82-.27,1.48.1,2.25.67-.7,3.63-6.97,4.58-8.54.17-.28.35-.6.58-.83.53-.52,1.42-.72,2.03-1.15.77-.52,1.25-1.43,2-1.99.44-.33.52-.4,1.07-.32.58,1.08.22,3.09.43,4.37.22.15.43.28.63.43.55.4,1.12.78,1.22,1.45-.37.28-.73.58-1.07.9.38.4,1.33.9,1.6,1.29.7,1.02-.55,2.53-.1,3.77,1.85-.7,4.04-2.75,5.87-3.02.77-.12.87.08,1.4.55.28.75.4,1.32.32,2.12-.22,2.07-.68,1.12-1.8,1.99.33.4.47.47.53,1-2.04,1.43-4.52,2.78-6.22,4.6l.05.32.98-.52c.6.27.87,1.37,1.29,1.95.87-.54,1.28-1.68,2.02-2.42.18.15.53.45.75.55.32.15.73.2,1.03.02,1.05-.63,1.47-2.48,1.83-3.58,1.4-.65,2.82-1.23,4.29-1.73,1.12-.38,2.87-1.2,4-.65.47,1.74-1.15,2.35-.55,5.39-.48.38-.9.75-1.32,1.22.28,1.02.98.27,1.3,1,.23.58-.33,1.2.15,1.83,1.33-.2,2.18-1.02,3.27-1.74.87-.57,1.95-1.05,3-.7.77.25.85.35,1.18,1.02-.07,1.05-.67,1.85-1.08,2.78-.33.75-.4,1.03-.13,1.78.78.07,1.2-1.08,1.97-1.5.33.3.5.58.68.98.32.63.32.53.88.85,1.82-.7,1.55-4.05,2.6-5.55.27-.37.42-.3.83-.37,1.43.87,2.42,2.9,3.35,4.28l.63.85c.6.1.67-.4,1.3-.62,1.5,1.27,2.58,3.02,3.98,4.42l.28.28c-1.32-2.55-3.29-4.72-4.47-7.32.83-2.17.33-4.49.1-6.72,2.82,1.08,5.22,2.65,7.74,4.3.17-.97.22-1.9.85-2.7l.58-.13c1.17.73,1.95,2.63,2.58,3.85.1.03.22.05.32.08,1.05.3,1.62.62,2.45,1.3.85.7,1.62,1.27,2.62,1.72.12-.58-.07-.7-.32-1.22.12.02.25.03.37.05.68.08,1.3.25,1.88-.13-1.95-4.07-6.17-6.9-6.04-11.92l.18-.08c.18.12.3.3.47.45.68.65,2.17,1.45,3.1,1.47.98-.6,1.25-1.37,1.53-2.47.33-1.35.17-2.6,1.48-3.43.08-.05.17-.1.27-.15.23-1,.17-1.98.13-3l.4.18c2.77,1.32,5.69,4.42,7.39,6.97.57.87,1.07,2.05,1.73,2.82.4.47.43.45,1.03.37.95-1.53.93-3.83,1.5-5.59.68.62,1.33,1.22,1.97,1.88.52.55.8.87,1.6.88.75.02,1.22-.03,1.83.52.91.82.94,2.13,1.55,3.08.18.06.36.12.54.19.74-.21,1.17-.38,1.91-.07.65,1.08.02,4.39.1,5.9.92-4.62,1.85-8.75,4.07-12.97l.27.35c1.02,1.35,1.98,2.85,1.68,4.62-.53,3.17-5.92,5.99-5.09,9.35l.38.12c4.04-4.04,6.74-9.57,10.71-13.72.8,1.5,2.23,3.99,1.93,5.72-.37.58-1.14,1.48-1,2.12.62.58,1.02.8,1.2,1.65l-.87,1.42.1.37c.93-.05,1.32-.18,2.13.28.37.83.47,2.04.08,2.9-.93,2.1-4.42,2.77-6.27,5.05-.27.33-.57.63-.87.95v.5c.53-.12.98-.33,1.48-.55,1.02.55,1.65,1.73,2.4,2.58.25-.68.63-2.02,1.13-2.48.48-.43,5.14-3.45,5.9-3.85.37-.18.47-.22.82-.32.63.3.75.37.98,1.08.47,1.48-.18,3.5.63,4.85,2.2,1.47,6.1-1.2,7.37.73-.05.85-.43,1.42-.85,2.13.1.58.03.53.47,1.02.42.47.48.8.55,1.44.78.67,2.22.78,2.7,1.57-.4,1.05-2.4,2.04-3.4,2.47-1.45.63-3.4,1.03-4.4,2.3.33.6.48.97,1.17,1.23,1.42.55,3.67-.35,5.07-.78,2.58,1.85,5.5,2.09,8.2,3.65-4.13,3.05-5.67,2.25-9.92,3.74.12.9.8,1.9,1.55,2.42.68.48,1.85-.15,2.62-.12,1.78.08,6.09,1.42,6.72,3.2.13.35.1.77-.05,1.12-.6,1.37-2.07,1.88-3.33,2.38.25.57.38.5.93.7.93.35,1.7.35,2.42,1.07.25.92.28,1.32.95,2.02,1.57-.83,2.12-5.44,4.6-4.62,1.48.48,2.3,2.43,3.18,3.64.12-1.77.02-4.97,1.52-6.17.35-.28.68-.17,1.1-.17,1.68.83,2.53,2.35,3.58,3.85.05-.12.08-.22.13-.33.88-2.4.23-5.6,1.45-7.7.45-.2.35-.27.78-.08,1.6.68,2.92,2.87,3.89,4.27l1.47-2.8.3.25c1.42,1.18,2.92,2.5,3.77,4.15-.08.54-.17,1.07-.25,1.6.68.63,1.15.35,1.77.73.88.57,1,1.65,2.07,2.12.37-.43.28-.2.23-.8-.3-3.35-4.05-8.97-1.95-12.22.18-.28.23-.3.48-.47,1.02.32,4.04,3.54,4.55,4.54.32.6.47,1.4.65,2.05.62.02,1-.27,1.53-.55.72.1.97.1,1.47.7.82,1.03.98,2.8,1.23,4.07,2-2.68,4.47-3.38,7.62-4.02.15,1.48.28,2.98.58,4.45-.05.1-.12.2-.17.3-.53,1.02-.7,1.6-.55,2.73-.6.78-1.79,1.02-2.72,1.37,1.32.33,3.64.62,4.43,1.82.23.35.17.77.02,1.13-.5,1.25-2.12,2.32-3.03,3.28,1.17.65,2.5,1.77,3.68,2.29,1.52.65,3.15-1.2,4.4.53.07,1.54-.67,3.02-1.08,4.47,1.08.75,2.52,1.1,3.75,1.53-1.92,3.57-.48,3.79-4.74,5.37-1.37-.62-3.33-1.67-4.83-1.43-.28.48-.47.9-.37,1.48.1.68.53,1.15,1.13,1.45.93.48,2.19.3,3.19.23.45.23.52.13.6.55.33,1.57-1.12,3.2-.68,4.83,1.8.85,4.37-.53,6.15.68-.18,1.28-.43,2.04.33,3.18l-.67.32-.28-.55c-.55.72-.92,1.02-1.02,1.93.17.28.2.53.55.6,1.02.2,1.7-.4,2.72.03,1.03,1.73-.27,3.02.75,5.05-.6.8-1.25.95-2.15,1.35-.65.28-1.05.53-1.55,1.07.08.67-.07.43.45.83,2.65,2.07,5.65-1.63,8.07,2.02l-.42-.07.63.18c-.18-1.8-.55-3.93-.03-5.69l.43-.4c.82.3,1.57.63,2.33,1.02,1.07-.57,1.89-3.93,2.3-5.12,1.38,1.55,3.12,3.7,5.32,3.99.75.1,1.42-.2,1.95-.7,2.08-1.95,3.5-4.05,6.09-5.5,1.18,1.88,2.27,3.2,4.08,4.55l-.15.05.32-.03c.73-.08,1.27-.19,1.95.17.2.85.12,2.3.68,2.87,2.07.05,2.72-1.45,4.22-2.53,1.47-1.07,1.8-.05,3-.37,2.08-.55,3.75-1.57,6-1.93-.73,1.62-3.78,5.49-3.48,7.02l.79.93c-.6,1.68-4.22,3.04-5.8,3.84,2.12.28,5.72-.02,7.32,1.42.3.72.32,1.22.05,1.93-.22.55-.5,1.1-.77,1.63l.47.75c-.35.68-.7.87-1.32,1.3l.08.43.57.23c-.6,1.18-2.92,2.37-3.05,3.5.12.08.23.15.35.23.55.38.93.92,1.35,1.45.9-.85,1.98-2.17,3.13-2.57.17.07.35.15.52.22.57.22.97.25,1.58.2.52-.32.85-.7,1.48-.6.68.65,1.39,1.3,2.05,1.98.62.62,1.38.83,2.18,1.1-.52.87-1.17,1.77-1.27,2.78l.32.18c1.22-.38,3.22-1.23,4.5-.72.13.05.25.17.38.25-.37.98-1.15,2.52-.8,3.57,1.15,1.03,3.1-.05,4.28.9.02.85-.7,1.8-1.12,2.53,2.03-.55,4.09-1.18,6.19-1.38.33-.03.67-.07,1.02-.1-.57,2.52-.87,4.32-2.63,6.29,1.5.8,3.22,1.53,4.17,3,.05.35.18.6-.03.93-1.1,1.72-3.7,1.42-4.24,3.77l.23.45c2.03.52,6.99-.35,8.2,1.25-.27,1.7-2.67,2.93-2.62,4.42,1.18.75,2.67.38,3.87.93,1.6.75,6.6,7.85,7.12,9.74.05.2.07.4.08.6-1.82,1.02-10.24-1.65-12.87-1.95-.18-.02-.35-.05-.53-.07,1.72,1.18,4.27,2.57,5.22,4.48-.17.7-.23.67-.82,1.02-1.02.62-2.2.55-3.32.23-2.98-.85-5.8-4.2-8.8-4.1-.62.35-.85.42-1.02,1.18-.17.82.02,1.8-.1,2.68-.43.12-.2.12-.68-.15-.6.88-1.12,2.17-1.98,2.77-.13-.12-.27-.23-.4-.35-.97-.77-3.27-.85-4.44-.62-.45.1-.82.37-1.18.62-.27.18-.55.37-.82.55-1.1-.75-1.93-1.43-3.33-1.1-.58.13-.68.32-1.12.7-.37.92-.42,1.63-.03,2.54.28.67.87,1.32,1.32,1.88,1.13-.4,2.27-.82,3.43-1.1.72.67,1.27,1.15,2.2,1.5l.5-.08c.25-.85.17-1.28.97-1.75.57.07.65,0,1.1.38,1.83,1.57,5.2,1.68,5.37,3.07-.7,1.28-1.65,2.33-2.62,3.45,1.33.55,2.87,1.27,4.3.58,2.97-1.45,2.45-4.93,6.97-3.8.75.18,1.35.6,1.73,1.27.45.82.53,1.78.65,2.68.65-.03,1.12-.23,1.72-.45.78.28.48,1.27,1.43,1.33.68.05,1.75-.73,2.45-.67,1.08.1,2.43,1.08,3.93,1.2-1.42,1.8-3.05,3.37-4.7,4.95.72.67,1.25,1,1.55,1.92-.4.82-1.27,1.18-2.02,1.63l-.02.35c1.65.95,3.72.87,5.27,1.99l.03.48c-1.08,1-2.72,1.87-4.07,2.42l-.75-.13.85.12-.7.05c-.72-.73-1.5-2-2.48-2.27-.63.35-.68.47-1.07,1.1l.12.55c.78.37,1.53.42,2.39.5.92,1.27,2,3.27,3.57,3.65l.42-.27c.82-.53,1.8-1.18,2.82-1,.4.07.78.3,1.15.47.93.43,1.42.75,2.47.32.7-.28.98-.47,1.77-.3l3.02,2.63c-.63.63-1.23.85-1.3,1.77.28.28.38.53.82.52,1.25-.07,2.2-1.58,3.32-.8l.48,1.49c1.8.43,5.17-.72,7.15-.8-1.27,1.63-4.87,4.73-5,6.69,1.03.6,2.4-.13,2.83,1.6.37,1.5-1.68,3.33-2.6,4.43l-.88,1.07c-.77-.13-1.58-.37-2.35-.17l-.3.43c.42.92.87,1.12,1.82,1.47,1.73.63,4.15.75,5.62,1.78l.03.5c-1.43,1.47-3.29,2.68-4.92,3.93,1.85-.35,3.57-.5,5.45-.33l2.24,2.57c-.89.53-1.77,1.13-2.72,1.57,1.55.42,4.77.97,5.74,2.35.23.32.23.38.33.72-.32.83-.9,1-1.65,1.42.62,1.4,2.14,2.3,2.55,3.78-.4.58-.58.55-1.27.68-1.55.32-3.3.3-4.87.28-.07-.05-.15-.08-.22-.13-2.42-1.52-5.07-5.1-8.27-4.45-.42.08-.45.12-.82.25.12.95,1.05,1.08,1.27,2.13-1.07,1.33-3.14,1.35-4.75,1.54-1.67.18-3.34.25-5,.47.02.62.17.8.42,1.35.35.75.52,1.1.37,1.9-.73,1.13-1.45,1.47-2.75,1.77-3.9.87-8.12-3.04-9.97-.48.05.07.12.13.17.2.62.84,1.01,3.03,1.56,3.72.13.04.22.07.35.11,1.1-.31,3.88,0,4.96.89.77.62.08,1.85.38,2.5.43.92,1.3.23,1.72,1.32-.2,1.65-1.27,2.48-.48,4.15.77.33,1.32.15,2.09-.15,1.13-.43,2.27-1.12,3.5-1.1.38.53.37.28.29.88-.32,2.15-2.82,4.14-1.89,6.39.5.47.9.7,1.62.7,1.15,0,1.78-.63,2.45-1.48,3.17-4.03.65-5.59,8.14-6.64.52-.07.83-.05,1.32.12.95.77,1.1,1.53,1.2,2.7.2,2.29-.33,4.14-1.43,6.12,1.12.22,2.31.34,3.27.98.08.09.19.23.27.32.24.5.15.31.45.78l-.53-.32-.13.12.08.42c-2.7,3.64-4.7,7.65-7.34,11.31,2.08-1.08,4.45-2.32,6.85-1.39.93.35.58.58,1.13,1.05.82.72,5.39,1.63,7.24,3.05-.15.9-1.32,1.83-1.95,2.48.97,1.1,1.53,2.15,2.17,3.45,1.23.72,3.35,1.75,3.87,3.17.22.62.05,1.05-.32,1.55-1.68,2.29-12.71,3.25-13.04,8.64-.02.3.03.47.08.73,2.53.23,8.79-.93,10.64,1.3.07.08.12.17.17.25-1.37.3-2.87.5-4.09,1.2l-.13.45c3.42,3.12,5.87-.88,10.07,5.43-.2,1.52-.25,3.17-.95,4.55-.57.42-.78.6-1.53.37-.78-.25-1.63-1.12-2.25-1.63-3.49.63-4.95-.57-7.97-1.99,2.32,1.49,7.7,6.52,8.32,9.15.22.87.13,1.87-.38,2.63-.4.6-.7.8-1.37,1-1.42-.27-2.7-1.9-3.99-1.85-.47.43-.75.87-1.08,1.42l-.52.02c-.33-.62.08-.93-.28-1.43-.87-1.2-4.77-4.58-6.12-5.62l-.43-.05c.03.1.05.2.08.3.18.72.4,1.35.03,2.07-.23.47-.6.92-.9,1.35.05.58.25,1.02.5,1.55-.32,1.48-.55,4.12-1.78,5.1-.35.28-.65.18-1.07.2-1.97-.87-2.85-2.57-4.95-3.37-.53-.93-.47-2.92-1.55-3.3-.95-.33-2.33-.08-3.33,0l-1.52-3.13c-.88.53-.82,1.22-1.4,1.95-.58.73-5.73,1.65-6.79,1.88,2.22.55,3.9,1.02,5.18,3.1,1.02,1.67,1.77,5.4,1.18,7.3-.12.42-.3.43-.62.67-2.22-.15-4.54-3.74-6.32-5.04-1.7-.22-3.17-.32-4.89-.07,2.2,1.35,4.73,3.3,5.35,5.95.5,2.17-.55,5.55-1.67,7.4l-.5.2c-3.92-1.95-6.7-8.2-9.97-11.31l-.03,2.58c-.33-.45-.57-.92-1.08-1.15-.07.98.13,1.97.28,2.93-2.13,2.47-2.5,5.5-4.34,8.05-.68-1.02-2.35-4.3-3.43-4.54-.48-.1-.88.07-1.33.18-.87-.38-1.27-1.22-1.6-2.07-.48-1.22-.8-2.52-1.15-3.77-1.13.55-2.15,1.12-3.15,1.87-.52-1.55-.95-3.07-2.35-4.05-.67-.1-.78-.13-1.37.3-2.44,1.85-2.75,8.39-6.45,8.19-1.95-.12-4.35-1.55-6.17-2.33-.6-1.38-1.15-2.77-1.63-4.2-.72.52-1.53,1.3-2.47,1.17-.78-.12-1.3-.45-1.8-1.05-.37-.97-.28-1.78.13-2.73.72-1.67,3.2-2.7,2.3-4.94-.17-.4-.5-.55-.88-.7-2.85-1.02-6.25,2.27-7.75,2.4-2.78.28-3.68-2.63-6.59-2.27-.82.1-1.38.02-2.05-.54-.25-.2-.38-.35-.63-.6.17-.88,1-.65.55-1.49l-.78-.33c-.22-1.05.67-1.57.38-2.59-.7-.43-1.12-.5-1.27-1.37-.03-.25-.07-.75-.08-1-.37-.55-.7-.93-1.2-1.37-.52-.47-.7-.75-.92-1.4.03-.75.22-1.38.75-1.92.43-.45.97-.82,1.45-1.2-16.07,3.13-31.11,9.62-46.44,15.14,4.87.85,10.29,1.97,15.22,1.55,2.1-.18,3.78-1.97,5.84-1.68,1.48.2,3.22,1.62,4.49,2.43,1.94-.78,3.81-1.57,5.64-2.6.67.18,1.04.28,1.71.46.47.85.94,1.71,1.46,2.55,1.15-.87,2.27-1.73,3.33-2.68,1.52.27,2.63.42,4.15.12,1.53-.3,3.1-.65,4.67-.6.48.5.35.2.43.8.13.88.15,1.62.77,2.3.6.2.27.17.98.03,1.22-.23,2.35.12,3.35.8.85.57,1.68,1.23,2.45,1.92-1.23.68-2.5,1.33-3.72,2.05,2.3.63,5.05.53,7.14,1.53l.22.45c-.37.53-.75.92-1.23,1.35.03.75.65,1.18,1.2,1.68.98.88,1.07,1.65,1.33,2.93,2.07.98,4.22,2.22,6.39,2.98,2.15.77,2.72-.2,5.18,1.38,2.79-.3,7.52-1.28,9.84.6.32.27.33.3.55.58-.1.4-.2.77-.33,1.15,2.77.95,4.59.75,6.5,3.25-3.25.92-5.75,1.15-9.11.83l-.13.28c.45.72.87,1.57,1.59,2.05.18.02.35.02.53.03,3.45.3,6.84,3.39,8.97,5.95-1.65.25-3.32.48-4.97.77,1.55,1.05,3.12,2,4.74,2.93.25,1.22.57,2.33,1,3.5-2.67.05-5.09-.2-7.7-.67-2.23-2.1-5.34-2.63-8.07-3.93-.07,1.08-.02,2.12-.67,3.02-.62.37-.93.62-1.68.47-1.22-.25-2.67-1.54-3.47-2.45-.33-.78-.58-1.62-1.18-2.25l-.52-.03-.53.48c-1.67-1.13-3.03-3.14-4.37-4.67,1.85,3.37,4.18,5.82,6.6,8.75.52,1.05,1.2,2.25,1.42,3.4.13.75.02,1.1-.38,1.72-1.88.78-4.17-.45-5.95-1.1-.85,1.1-1.45,2.87-2.55,3.68-.35.25-.52.15-.9.1-.83-.6-1.23-1.45-1.77-2.28-.45-.72-.82-1.4-1.67-1.58-.4.72-.27,1.62-.27,2.43-.93,1.23-2.53-1.37-4.02-1.15-.38.63-.67,1.17-1.35,1.53-1.93.03-3.55-1.93-4.89-3.15l1.73,5.74c-.4,1.43-1.03,2.77-1.64,4.12-2.85-1.77-4.27-4.02-5.92-6.82-1.25,1.73-2.63,3.49-4.8,3.95-.75-.18-1.12-.28-1.58-.93-1.08-1.52-.85-3.97-.68-5.74-1.35.77-2.62,1.8-3.89,2.72-1.17.02-2.07.02-3.05.72-1,.72-2.07,1.67-3.25,2.02-.23-.13-.47-.25-.65-.47-1.23-1.38-.67-4.92-.6-6.69l-1.8-2.18c-.58,1.83-.45,4.12-1.37,5.8-.97,1.78-2.17.83-3.68,1.05-.6.08-1.12.35-1.68.52-2.28.67-3.1-1.53-4.89-2.23-.93-.37-1.85-.47-2.82-.13-.32.32-.72.82-1.1,1.03-.6.33-.88.23-1.48.08-.45-.58-.67-.98-1.4-1.2-.67.18-1.22.38-1.93.23-.28-.33-.57-.65-.87-.97-.22.22-.43.43-.65.63-.08-.1-.17-.2-.23-.32-.9-1.38-.2-3.74.07-5.24-.87.25-1.98,1.73-2.92,2.29-.85-.1-1.02-.45-1.62-1.03-.62.25-.32.17-.92.23-1.03-1.35-.62-4.02-.55-5.67l-2.58,1.45c-1.12,0-.4-.87-1.12-1.53l-.55.72c-1.33-1.22-3.2-.82-4.23-2.68.03-4.1,7.82-4,9.34-7.19.32-.67.18-.9-.1-1.48-3.62-1.88-18.94-4.74-24.04-5.95-4.4-1.03-8.74-2.42-13.16-3.32-1.38-.28-2.97-.62-4.38-.43-3.74.45-7.7,2.32-11.14,3.82-9.94,4.35-20.86,9.45-27.81,18.09-2.43,3.03-4.2,6.54-5.18,10.31-2.67,10.55-.48,29.46.73,40.4,2.07,18.63,4.65,34.65,10.67,52.39,1.23,3.65,2.5,8.39,5.19,11.27,2.07,2.24,5.6,1.74,8,3.3,2.93,1.92,4.84,4.8,8.47,5.67,7.19,1.72,15.12-1.22,22.51-.17,4.24.6,8.02,2.88,12.11,4,4.14,1.13,8.37,1.82,12.54,2.83,5.64,1.37,11.12,3.13,16.61,5.04,3.27,1.13,20.88,6.29,21.86,7.07-3.29-.37-6.59-.43-9.87-.78-11.99-1.3-23.66-2.87-35.77-2.57-21.81.52-43.44,3.94-65.3,3.72-15.64-.17-31.13-2.92-46.8-2.99-16.43-.08-32.7,2.55-49.12,2.14-25.8-.65-46.92-4.6-73.08-.27,3.64-2.07,16.21-4.25,21.16-5.67,7.64-2.17,14.76-6.19,22.68-7.39,4.94-.75,9.94.97,14.81-.17,2.57-.6,4.87-2.07,7.47-2.58,3.05-.6,6.24-.23,9.25-1.12,5.45-1.58,9.94-3.95,15.71-4.92,1.45.55,2.8,1.37,4.17,2.12,3.02-1.18,5.64-3.12,8.47-4.65,2.83-1.53,5.8-2.42,8.87-3.28,5.49-13.04,8.07-26.83,10.32-40.72,1.18-7.27,2.33-14.56,2.87-21.89.52-6.89.53-13.79.6-20.69.05-5.12.6-10.65-.4-15.71-1.32-6.7-6.7-11.91-12.19-15.54-7.3-4.85-15.74-7.97-23.64-11.71-4.02-1.9-7.77-4.57-12.21-5.43-6.54-1.28-32.86,1.82-39.85,3.27-1.4.29-3.04.54-3.85,1.79.4,3.34,6.84,4.94,8.65,7.69.32.48.25.27.12.87l-1.1.3-.13.35c.8.57,2.15,1.25,2.62,2.12.22.4.02.58-.13.98l-.6.2c-.4-.2-.77-.38-1.13-.62-.08-.05-.18-.12-.27-.18-.08.42-.17.82-.27,1.23-.77.2-.98-.1-1.65-.45-7.27,1.85-3.65,3.72-6.42,6-.7.58-1.29.75-2.18.67-.08,0-.62-.07-.72-.05-.97.08-1.47.88-2.12,1.53-.7-.15-1.62-.45-2.33-.43-2.08.07-5.15,2.65-6.69,3.97-.07-.07-.13-.12-.2-.18-.12-.1-.23-.18-.33-.27-1.1-.93-1.78-.83-3.1-1.23-1.25-.37-1.88-1.4-2.48-2.47l-.17-.3c-.38.9-.73,1.83-1.08,2.75-.62.17-1.22.33-1.83.57-.62.9-.22,2.47-.62,3.58-1.52,1.08-2.79-1.92-4.47-2.1-1.18.25-2.18,1.42-3.1,2.17-.33.03-.62.15-.92-.03-.98-.65-1.15-1.97-1.42-3.02-1.4,1.15-2.37,1.52-4.1,2.02.02.2.03.43.02.63-.08,1-.85,1.52-1.65,2.05-.7.47-1.15.48-1.95.32-.4-.08-.57-.18-1-.2-.87-.02-1.37.58-1.94,1.13-.82-.12-1.22-.58-1.87-1.08-.95.53-2.07,1-2.95,1.62-.63.45-1.07,1.08-1.77,1.45-1.77-1.18-.33-3.42-1.73-4.8-.55.03-.97.08-1.5-.08l-.22-.4c.33-.35.57-.63.83-1.05-.5-.3-.35-.27-.78-.4-.32-.1-.7-.15-1-.3-.73-.37-.93-1.37-1.25-2.08-1.22.27-2.44.58-3.67.83-.28-.3-.55-.62-.83-.92-1.32.57-3.29,1.7-4.7,1.68-.15-.6-.32-1.13-.57-1.7-1.35-.65-3.08-.75-4.55-1.05l-.08-.38c.43-.33.88-.72,1.4-.9.62-.22,1.2-.48,1.8-.77-1.72-.18-4.75.35-6.22-.37-.4-.2-.38-.45-.53-.83.18-1.2.95-2.09,1.63-3.07.72.28,1.68.77,2.47.7.78-.08,1.47-1.07,1.87-1.65l-.17-.35c-.85-.12-1.82-.03-2.65-.23-.72-.17-1-.72-1.4-1.27-.32-.43-.5-.78-.95-1.1-.35-.25-.58-.08-.97-.02-2,1.42-3.18,3.59-4.37,5.67l-2.33-2c-.67.75-1.3,1.72-2.22,2.13-.27-.63-.53-1.28-.78-1.93-.88-.38-4.07,1.13-5.14,1.53-.95-.15-.67-.88-1.47-1.38-2.04,1-3.87,1.58-6.09,2.02,1.18-1.47,4.5-5.05,4.35-6.95-.63-.27-1.1-.4-1.5-.98.77-1.68,3.28-1.35,4.63-2.5-.05-.45-.07-.78.02-1.22.53-.63,1-.83,1.77-1.12.08-.03.87-.3.97-.37.53-.35.42-.77.48-1.33-1.22-1.95-4.22-.3-5.74-1.8-.15-.7,0-.83.25-1.48,1.96-1.82,6.13-1.28,8.82-1.13.17-.14.29-.23.45-.37.19-1.06.28-1.32.9-2.01,1.9-.75,3.29,1.07,5.19,1.32.22-.63.38-1.05.82-1.58.72-.02,1.15.62,1.87.85.1-.23.28-.65.42-.85,1.08-1.7,3.68.58,5.34.08-.17-.5-.07-.28-.38-.78-.08-.12-.17-.25-.25-.37.5-.73,3.98-1.04,5.07-1.57l.07-1.13c-1.25-.95-2.74-1.17-4.07-1.95l-.08-.53c1.53-1.77,11.06-4,13.66-4.95l.3-.87c.2-.58.28-1.22.77-1.65.3-.27.82-.3,1.2-.28,2.05.1,6.3.53,7.75,1.95l.23.23.32-.15-.03-.7c.45-.18.28-.15.73-.2.1-.02.22-.02.32-.03l-.03-.37c-1.43-1.05-3.55-2.1-5.35-2.05-.65.02-1.58.18-2.22.05-.63-.13-.9-.42-1.24-.93l.25-.53c2.5-1.65,6.44-1.92,9.35-2.47l.43.4.52-.05c.4-.33.82-.72,1.27-1,.78-.47,1.7-.57,2.57-.23,1.38.53,1.73,2.57,2.2,3.83.77.67,1.25.73,2.25.3,1.53-.67,2.7-2,4.24-2.68,4.55-2.02,11.09-2.12,16.01-2.12-8.54-4.57-27.98-11.62-37.48-12.76.43,1.55.8,3.02.27,4.6-.42,1.22-1.78,2.4-2.9,2.93-.12.05-.23.1-.35.17-1.03.55-1.28,1.58-1.68,2.62-1.92,1.1-3.2,3.17-5.05,4.07-.72.35-1.42.73-2.12,1.1-2.18-1.43-4.35-2.95-6.17-4.82-.2-1.15-.1-2.67-.87-3.6-1.28,1.75.2,4.74-3.1,8.74.02,1.07,0,2.13-.03,3.18-.07,1.63-.4,3.82-1.65,4.99-.98.13-1.38-.35-2.32-.48-.72,1.1-1.48,2.6-2.53,3.4-.48.37-1.25.7-1.85.55-3.47-.8-2.35-7.27-3.9-9.19-.22-.27-.57-.3-.88-.25-2.68.37-3.9,4.17-5.7,5.84-.7.65-1.77.55-2.5,1.08-.7.5-1.25,1.77-1.78,2.47-.82,1.07-2.05,2.2-3.49,2.2-1.28,0-2.62-1.58-3.43-2.53-1.58-1.83-.55-5.07-.42-7.35-.38.4-.75.85-1.18,1.2-.48.42-.83.67-1.48.62l-.48-1.08c-.87,0-1.62,1.92-1.97,2.62-1.73,3.37-4.94,5.7-7.79,8.09-1.23-3.14-1.77-6.07-1.88-9.42,1.23-1.22,3.2-2.82,3.93-4.37.25-.54.22-.3.03-.87-.1-.03-.22-.07-.32-.08-3.93-.62-5.55,3.15-8.17,4.89-.5.33-.95.4-1.53.18-.7-.25-1.02-.68-1.25-1.35-.58-1.72,1.48-6.15,2.28-7.74.68-1.38,2.65-1.7,4.04-2.15-2.72-.55-4.7-1.25-7.04-2.75-1.43,1.08-2.58,2.6-4.08,3.55-.7.43-1.57-.03-2.05.38-.97.8-1.02,2.47-2.02,3.23-.38.3-.92-.02-1.35-.13-1.7.58-3.2,1.7-4.7,2.65-.17-1.58-1.55-9.94-2.29-10.82-1.18,0-1.57,2.72-3.53,4.22-1.08.82-1.29,2-1.65,3.24-.58-.8-1.22-1.57-1.84-2.35-.48.48-1.1,1.22-1.75,1.47-1.03.43-2.02.43-3.08.1-.67-.53-.93-.95-1.08-1.78-.53-2.97,2.85-5.72,4.4-7.94l-.12-.42c-2.35-1.28-4.39,1.28-6.74,1-.97-1-.63-3.32-.63-4.65,3.49-6.28,6.17-2.67,9.15-5.12-.87-1.13-2.99-.82-3.85-2.03,1.8-2.04,6.77-.95,9.27-1.42.78-.15,1.58-.37,2.05-1.03-.62-.9-1.73-.88-2.55-1.53-1.15-.93-1.8-2.37-3.1-3.2-3.22-2.05-6.15-1.03-10.34-4.28,2.17-1.37,6.05-4.35,6.88-6.8-.22-1.13-1.08-1.55-1.65-2.55.4-3.17,5.09-1.05,7.34-4.05l.18-.25c1.98-.77,4.94-.07,6.99.2-2.28-3-4.35-5.4-5.35-9.14-.75-.27-1.32-.48-1.93-.98-.3-.68-.35-.63-.08-1.32,1.62-1.12,2.79-1.02,4.65-.85-.58-.98-.95-1.82-1.18-2.93-.03-.15-.07-.32-.1-.47-.27-1.25-.53-2.4-.12-3.65.28-.83.87-1.48,1.68-1.82,1.17-.5,2.62-.43,3.82-.18,5.94,1.22,4.42,6.47,7.75,7.35.78.22.98.08,1.67-.27.47-.65.65-1.05.63-1.87-.03-1.32-.75-2.33-1.67-3.2-.45-.43-.82-.8-1.15-1.32-.1-.15-.18-.32-.28-.48l.12.23.12-.75c2.08.18,4.74,2.25,6.7,1.43.17-1.05-.8-2.58-.97-3.74-.13-.85.08-1.32.58-1.98.78-.37,1.32-.38,2.18-.37l.32.02c.03-.82.1-1.62.2-2.43.55-.68,1.28-.88,2.08-1.2l.4-.15c.47-.65.38-.9.4-1.68.53-.03,1.05.07,1.58.15l.18-.2c-.03-.1-.05-.22-.08-.32-.27-.83-.73-1.92-1.55-2.33-2.43,2.69-6.17.35-8.99,1.05-.5.13-.63.22-1.17.07-.45-.12-.43-.42-.62-.8,0-1.08.27-1.73.72-2.72l.17-.35c-2.6-.55-6.45.12-8.72-.97-.63-.32-.75-.77-1-1.39-.25-.62-.42-1.02-.9-1.5-2.84-1.18-4.29,2.85-6.9,3.55-1.2.32-3.52.67-4.6-.17-.67-.52-.7-.78-.87-1.57.22-1.15,1.02-1.9,1.77-2.75-.82-.77-1.48-1.25-1.53-2.42,1.08-1.53,3.35-1.65,5.09-2.02-.72-.6-1.22-1.05-1.65-1.89-.03-.82-.03-.92.38-1.62,1.67-1.07,2.97-.98,4.87-.92-1.28-1.12-3.39-2.54-3.79-4.25.23-.48.15-.52.68-.73,1.22-.48,2.25.1,3.35.62.63,1.07,2.72,1.88,3.8,2.45-1.08-1.17-2.17-2.34-3.22-3.54-.18-.57-.17-.28-.07-.87.7-.22,1.22-.37,1.82-.8.2-.52.42-.83.32-1.4-1.78.13-3.67.47-5.3-.43-.37-.58-.42-.6-.33-1.28,1.53-1.3,5.3-1.1,7.25-1.03-1.12-.92-2.12-1.73-2.82-3.02l.17-.25c.65.08.92.17,1.55-.07-1.92-1.63-3.45-2.97-4.72-5.19,2.02-.72,3.87-1.85,5.87-2.65,1.08.58,2.12,1.23,3.13,1.9.72-.77,1.4-1.7,2.43-2.03.97.07,1.57.7,2.28,1.27.6-.88,1.28-1.67,2-2.47-.63-1.32-1.9-3.02-1.74-4.52.05-.47.25-.52.58-.8,2.5-.37,4.65,1.53,7,2,2.25.45,2.02-1.85,3.3-2.77l.5.18-.53.53.38.47c.72.27.87.4,1.58.22.03-.55-.07-1.08-.48-1.5-1.67-1.73-3.52.63-5.4.05-.83-.25-1.63-1.03-2.02-1.78l.22-.5c.95-.25,1.8-.4,2.57-1.05.5-2.1-3.64-3.05-4.02-5.19.87-.62,2.13.07,3.17-.5.2-.5.37-.9.7-1.32,1.15-.4,1.78.45,2.84.52.73.05.68-1.2,1.17-1.83.5-.05.75-.03,1.18-.32-.75-1.6-3.02-2.83-4.47-3.77-.62-1.5-2.22-4.84-1.67-6.39,1.8-.4,3.37,2.02,5.04,2.57l-.1-.88.3-.32.48.18.47,1.2c.47-.15.87-.32,1.3-.55l.43-.25c2,.02,3,2.78,4.38,4,.37-1.53.95-1.85,2.18-2.79.07-1.2-.73-2.17-.88-3.3-.05-.38-.1-.8.17-1.1.6-.67,2.02-.88,2.87-.83,1.72.1,2.77,1.33,3.87,2.5l1.17-3.95c6.85,2.18,4.05,4.44,6.92,8.55l.45.03c.35-3.78,2.5-3.12,2.97-5.57.13-.73-.42-1.47-.77-2.08l-.18-.3c.38-.87,1.82-1.55,2.62-2.1.22-.8.4-1.82.92-2.47.28-.35.25-.23.75-.27.85.85,1.13,2.13,1.53,3.25.78-1.48,1.53-3.13,2.47-4.52.68-1,1.42-1,2.52-1.25.22-.52.47-1,.73-1.48.85-.47,1.97-.3,2.92-.27l.15-.28c-.2-.35-.45-.73-.6-1.12-.28-.77.33-1.83.62-2.57-2.25-.35-4.55-.27-6.8-.67-.9-.17-1.77-.3-2.33-1.1.2-3.02,5.22-3.44,6.35-5.82-.35-.48-.75-.7-1.35-.75-3.49-.22-6.6,5.15-9.2,7-.8.58-1.85,1-2.85.65-.68-.23-.75-.58-1-1.18.12-.87.58-1.15,1.05-1.8.4-.55.55-.77.42-1.45-1.53-.8-12.02,2.18-14.41,2.68,1.65-2.72,3.25-5.27,4.25-8.3l3.07-1.08c-.87-.88-1.99-1.87-2.6-2.93-.42-.7-.38-1.12-.23-1.9,3.03-3.7,6.04.75,9.09-.12-.2-.48-.12-.32-.33-.75l-.13-.27c.6-.72,1.5-.35,2.34-.83-.93-1.62-4-2.39-5.67-2.95-.77-1.15-1.67-2.67-1.87-4.04l.43-.33c.72.13,1.17.28,1.88.05.08-.62.08-1.38.45-1.9.55-.8,2.43.7,3.34.48,1.23-3.07-3.77-4.67-3.99-7.54,1.25-1,2.4.15,3.64-.2.85-.25.4-1.54,1.05-1.89.97-.5,2.15.02,3.08-.7l.07-1.4c.63-.73,1.72-.42,2.63-.82-.07-1.9-1.73-4.45-2.63-6.12,1.55.77,4.44,3.12,6.02,3.3.87.1,1.05-.27,1.65-.8,1.43.92,3.1,2.4,4.75,2.8l.38-.27c.28-1.53-1.52-3.74-2.3-4.97,1.05-.28,2.13-.47,3.2-.68.43-.7.78-1.38,1.52-1.83,1.27-.02,2.45,1.07,3.5,1.77-1.67-3.65-3.35-6.69-5.7-9.96l.33-.1-.43-.03-.18-.35.38-.43c1.67-.63,3.4-.43,5.14-.27-.08-.08-.17-.17-.23-.25-1.03-1.02-1.6-1.6-1.97-3.03l.43.48c-1.2-2.65-2.68-5.1-3.74-7.82,1.9.35,5.32,2.2,7.02,1.88l.48-1.07.5-.18c2.63,1.5,4.97,3.95,7.44,5.74-.5-1.68-1.18-3.53-1-5.32.12-1.03.4-1.68,1.22-2.32,3.62-.07,1.53-1.57,3.35-3.02.28-.23.57-.07.9-.02.32.27.62.5.83.87.48.78.43,1.33.22,2.22l-.13.5c.63,1.57,2.45,2.78,3.43,4.23.22.32.05.18.48.28-.15-2.5,1.32-3.65,2.8-5.54,1.23,1.7,2.35,2.1,4.28,2.77-.55,1.43-1.02,2.89-1.47,4.35,1.7-1.15,3-2.68,4.55-4.02l.58.05c.45.42.48.75.62,1.32.12.55.13.72.47,1.18.6-.03,1.02-.07,1.57.2.08.63.22,1.22.37,1.83l.38.12.53-.5c.35-1.28.62-2.59,1.5-3.62.95-.35,1.39-.18,2.32.18,1.25.5,2.25.9,3.59.45.75-.25,1.65-.73,2.02-1.45-1.18-1.07-4.52-.65-6.19-1.37-.65-.28-.83-.5-1.07-1.15.52-1.77,1.99-1.8,3.17-2.85-.43-.73-1.2-1.1-1.9-1.55,1.05-.98,2.28-2.17,3.67-2.63,1.83-.62,3.17.12,4.79.88.62-.68,2.62-2.59,2.62-3.39-.62-.27-1-.28-1.67-.23l-.2.38c-1.2.52-2.97.05-4.25-.15-1.2-.18-1.88-.1-3.05.28-1.12-.55-2.6-1.12-3.27-2.23-.25-.43-.12-.5.02-.95,1.23-.98,2.55-1.07,4.07-1.33-.58-.88-1.48-1.97-1.58-3.05-.05-.48.1-.48.4-.83,1.22-.3,2.43.05,3.63.27-.02-1.08-.08-2.13.27-3.17,1.75-1.73,4.54,1.58,6.55.88.02-.08.05-.17.05-.27.27-2.35-2.07-3.37-3.17-5-.45-.67-.37-.8-.22-1.53.83-1,1.92-1.52,3.04-2.15,0-.5.05-.9.17-1.38,1.4-.98,3.93-.32,5.54-.1-.55-.43-1.1-.85-1.65-1.28-.85-.68-2.2-1.53-2.35-2.7l.67-.78c-.15-1.62-2.1-2.78-2.33-4.47-.12-.83.02-.97.47-1.64l.62-.1c1.29.55,2.25,1.58,3.25,2.52.33-.7.62-1.27,1.17-1.83.42-.13.65-.3,1.1-.18,1.52.37,2.84,2.8,3.7,4.02-.42-1.75-.52-3.57-.7-5.35,1.95,2.02,4.29,3.83,6.79,5.12-.45-1.9-1.18-4.52-.52-6.39.22-.62.28-.68.83-.97.43.18.83.38,1.23.6.12.07.23.13.37.2.55-1,1.08-2,1.72-2.97.63-.97,1.33-2.2,2.5-2.43.89,1.38.87,3.1,1.97,4.53,0,.01,0,.03.01.04,0,2.32-.95,5.47.23,7.59,1.55-1.43,1.28-4.08,2.55-5.75.45-.6.7-.92,1.45-1.03.77.68.7,1.98,1.32,2.87l.33-.15c.33-.82.55-1.65.83-2.5.32-.95.67-1.52,1.58-1.98.88.1,1.03.52,1.62,1.17.75-.1.97-.48,1.5-1,.27-.25.63-.7.95-.85.63-.28.83-.2,1.42.07,1,1.5.2,4.35.03,6.07.32-.13.62-.3.93-.43,2.57-1.03,4.95-3.58,6.62-5.72,1.48,2.43,1.67,5.09,2.97,7.54.45.87.9,1.45,1.85,1.72.55-1.08,1.32-1.75,2.22-2.55-.28-.13-.53-.22-.78-.42-1.4-1.1-1.3-2.73-1.33-4.32-.68-.95-1.92-2.08-2.08-3.24,2.3-2.02,5.14,2.23,7.65,1.68-.15-.53-.08-.37-.27-.82-.03-.1-.08-.18-.12-.28.45-.4,1.08-1.12,1.58-1.35.45-.22.58-.17,1.03-.07.77.17,1.45.45,2.25.3-.07-.75.67-1.68.38-2.33-1.13-2.65-5.17-4.82-5.75-7.52l.3-.42c1.8-.35,6.14,1.73,8.82,1.68l-.03-.73c-.77-.42-1.52-1.04-2.25-1.54-1-1.98-1.77-4.05-2.45-6.15,1.63.27,3.55.42,5.05,1.12.12.05.25.12.37.18,2.05.97,3.75,2.48,5.49,3.92-.77-1.45-2.82-4.45-2.57-6.12.5.05.33,0,.77.15.08.03.18.07.27.1.15-.43.33-.73.58-1.1,1.78.05,3.12,3.12,4.6,4.14l.42-.15c.12-.63.23-1.25.45-1.85.18-.5.22-.4.67-.62,1.07.25,1.63,1.07,2.63,1.47l.47-.35c.12-.48.23-.93.13-1.45-.32-1.43-2.49-2.6-3.62-3.4-.17-1.82-.72-3.57-.98-5.39l-.07-.52c-.25-1.82.08-3.55.37-5.34,1.3.87,2.45,1.58,3.29,2.95.18.3.35.6.53.88.92,1.32,1.33,1.23,2.9,1.45.42.73-.05,1.35.2,2.2l.85.07c.78,1.42.53,3.37,1.05,4.92.2.57.03.4.48.63,1.43-1.98.85-7.49,1.7-10.09.03-.12.07-.22.1-.32.85.9,1.74,1.79,2.62,2.65l.32-.07c.08-.7.2-1.37.35-2.05l.42-.17c.2.52.2.73.67,1.05,1.62-1.6,2.82-3.9,4.24-5.72.48,1.28.98,2.67,1.43,4.07M283.56,343.66c2.82-2.84,5.74-5.59,8.74-8.22,7.97-7.09,16.39-13.64,25.21-19.64,6-4.12,12.32-7.84,18.51-11.69,3.64-2.27,7.44-4.45,10.67-7.27,2.6-2.27,4.87-5.04,6.97-7.77,1.75-2.28,3.53-4.77,4.5-7.5-1.83-1.48-3.84-2.4-6-3.32-.62.9-1.13,1.82-2.32,1.97-2.24.28-4.19-1.92-6.59-1.92-7.75,2.37-14.06,7.12-21.06,10.97-5.94,3.27-12.21,5.65-17.36,10.24-3.47,3.08-5.94,6.9-8.09,10.97-5.57,10.49-10.29,21.63-13.19,33.18M242.46,196.8c1.37-1.85,2.95-3.92,2.63-6.39-.17-1.22-.9-2.63-1.72-3.53-1.43,2.05-2.85,4.45-2.34,7.07.18.98.63,2.18,1.42,2.85M124.39,135.48c1.1-.52,2.7-1.05,3.32-2.12-.33-.48-.67-.75-1.14-1.08l-.1-.38c-.29-1.08-.52-2.02-1.39-2.78l-.17.35c-.35.68-.57,1.35-1.27,1.75-.93-.48-2.08-1.5-3.14-1.47-.35.37-.42.28-.42.72,0,1.48,1.67,3.23,2.67,4.2.5.27,1.07.63,1.62.82M336.97,79.75c-1.78,1.34-1.43,3.14-2.32,5-.15-.73-.2-1.22-.88-1.68-.6-.42-.97-.35-1.62-.22-.32.48-.25.82-.29,1.37-.03.47-.17.9-.27,1.37-.22.88-.38,1.5.13,2.33.27.43.2.28.75.5.88-.23,1.78-.83,2.28-1.62.17-.28.3-.58.43-.87l.18-.4c.07-.1.13-.18.22-.28.35-.43.22-.28.77-.58,1.18.37.92,1.07,1.7,1.83.97.93,1.18-.82,2.65,1.53.58-.07.95-.28,1.27-.8.45-.68.45-1.43.23-2.2-.47-1.63-1.98-3.8-3.5-4.64-.53-.33-1.17-.48-1.75-.65M150.41,69.32c.5.25.98.47,1.5.68.83.35,1.5.95,2.2,1.5.33-2.03.64-4.07.9-6.1l-2.43-1.3-.17,1.73c-.55.4-.73.55-1.47.38-.73-.17-1.78-.93-2.49-1.28l-.35.27c.03,1.68.6,2.48,1.78,3.67.27.25.28.25.52.45M388.25,79.29l.23-.2c.47-.4.82-.78,1.47-.83l-.23-.22.62.12c.83-2.18.79-4.8.08-7.02-2.12,2.32-2.47,4.87-2.72,7.9l.25.42.3-.17ZM386.38,72.33c-.7.87-2.17,2.27-1.98,3.47.12.83.73,1.4,1.27,2,.73-.25.92-.22,1.27-.95.5-1.05.38-2.45-.03-3.5-.15-.35-.3-.73-.52-1.02M119.12,113.49c-.77,1.23-1.5,2.8-1.22,4.3.13.7.82,1.62,1.42,1.99.38.23.82.38,1.23.55.48.2.83.43,1.27.75.63-.72,1.27-1.18,1.23-2.22-.07-1.67-.97-3.84-2.37-4.82-.43-.3-1.08-.43-1.57-.55M215.01,274.33c11.14,5.07,21.29,12.09,29.97,20.73l1.18.88.33-.08c-5.32-16.81-16.56-30.3-29-42.42-1.84,5.59-2.95,15.11-2.48,20.9M299,39.02c-1.07,1.52-2.2,3.65-1.8,5.57.18.85.57,1.45,1.32,1.9.45.28.92.5,1.4.72.42-.2,1.75-.7,1.85-1.1.33-1.5-1.08-5.07-1.95-6.32-.22-.32-.5-.55-.82-.77M82.09,294.19l.08-.5c-1.37-1.28-2.9-2.38-4.18-3.74-1.18-.15-2.37-.33-3.55-.42.05,1.63.35,2.97,1.53,4.17.77.77,1.95,1.24,3.04,1.18.98-.03,2.14-.42,3.09-.7M302.8,116.16c2.43-1.05,4.97-2.18,6.5-4.45l.07-.6c-.6-.55-1.07-.55-1.87-.57-2.53,1.02-5.32,1.85-6.65,4.45l.07.68c.6.45,1.13.55,1.88.48M317.59,272.46c1.05-1.3,2.07-2.65,3.22-3.85,5.89-6.79,10.9-13.66,13.74-22.3.6-1.82,1.37-3.9,1.17-5.85-.15-1.38-1.95-2.77-3.05-3.54-.6-.42-1.02-.77-1.75-.72-.48.65-.58,1.1-1.43,1.22-.87-.4-1.17-1.27-1.58-2.07l-.28-.15c-4.49,2.95-8.79,6.19-13.16,9.31.3,9.45,2.07,18.63,3.14,27.95M468.81,198.67c2.03-.42,5.55-1.68,6.69-3.63.38-.67.37-.77.17-1.45-.63-.53-1.03-.62-1.83-.78-1.97.88-5.45,3.1-6.35,5.1l.18.45c.37.13.77.3,1.15.32M302.77,36.31l-.4.97c-.92.25-.83-.4-1.58.12-.15.9,0,1.4.53,2.15,1.23,1.72,2.72,2.87,4.54,3.89.78-1.52.85-3.6.3-5.22-.18-.52-.45-.85-.85-1.23h-.37l-.57.8c-.62-.32-.93-.88-1.32-1.43l-.28-.03ZM331.08,58.98c-3.02,1.17-4.18,3.5-6.8,5.09,1.53-.3,3.05-.6,4.59-.8,1.5.02,2.52,2.3,4.18.38.44-.52.62-1.36.43-1.95l-.02-.02c-.53-.2-.95-.18-1.5-.17-.47-.93.32-1.65-.23-2.53h-.65ZM126.23,338.48c1.07,0,1.9.03,2.87-.47.65-2.18-2.43-2.15.05-5.19-1.23-.28-2.75-.48-3.85-1.1l-2.79,1.22-.02.35c1.08.72,1.43.77,1.72,2.12.07.3.13.62.18.92l.32-.08c.77-.2,1.32-.35,2.12-.18l.47.57c-.13.93-.5,1.15-1.07,1.85M472.93,146.66c.92-.35,1.75-.55,2.3-1.42-.07-.6-.03-.7-.53-1.08-1.08-.83-2.75-1.03-4.07-1.28-.85.68-1.92,1.33-2.32,2.4.07.37,0,.6.32.85.93.72,3.17.68,4.3.53M414.18,156.56c.37-.83.58-.95.28-1.85-1.68-1.67-4-2.18-5.87-3.57-.25,1.48-.6,3.34.4,4.64.58.77,1.35,1.13,2.3,1.22.97.08,1.95-.2,2.89-.43M150.29,72.22c-.1-1.37-.48-1.97-1.55-2.83-1.7-1.4-4.18-2.25-6.34-2.74.47,1.93.85,3.37,2.62,4.54,1.33.88,3.7,1.23,5.27,1.03M108.35,235.1c.18-.83.3-1.48-.17-2.28-1.03-1.72-3.62-2.08-5.44-2.37-.37-.05-.75-.12-1.12-.17-.03,1.37.08,2.37,1.08,3.39,1.25,1.25,3.35,1.57,5.05,1.48.23,0,.33-.02.58-.05M256.29,153.29c2.3-.88,5.22-2.25,6.3-4.62.28-.6.25-1.05.13-1.68l-.62-.73c-2.68,1.38-5.34,3.23-6.39,6.24l.17.63.4.17ZM455.53,201.7c-.1-1.02-.05-2.57-.72-3.37-.32-.08-.64-.15-.95-.2-.37-.07-.73-.13-1.1-.22-.93-.2-1.95-1.03-2.75-1.55-.23,1.27-.57,2.5.2,3.67.88,1.35,2.55,2.37,4.19,2.47.43.03.48,0,.85-.07.13-.25.25-.43.28-.73M321.5,45.45c.7-1.13,1.48-2.4,1.92-3.65l-.18-.3c-.6,0-1.87.52-2.29.45-.88-.17-.53-.82-2.38-.83-.48,1.43-1.35,3.27-.95,4.78.45.38.38.48,1,.47,1.7-.02,1.65.32,2.89-.92M342.11,99.82c-2.12,1.53-4.18,3.12-4.68,5.87-.15.82-.22,1.65.07,2.43l.43.22.45-.2c1.72-1.95,4.67-4.74,4.7-7.52-.32-.62-.32-.57-.97-.8M224.6,231.25l-2.79,1.57c-.88,4.34-.9,8.79-1.85,13.12,1.13.97,2.28,1.92,3.37,2.93.97.83,1.94,1.67,2.94,2.49-.02-4.59,0-9.15.03-13.74.08-4.75,1.7-20.71-1.37-23.96-.6.87-.85,1.47-.69,2.53.25,1.57,1.22,3,1.4,4.55.4,3.25-.98,7.14-1.05,10.51M102.81,116.21c.93,1.45,1.92,3.22,3.3,4.29.53-.53,1.03-1.02,1.68-1.45,1.18.08,2.17,1.08,3.2,1.67-.67-2.5-1.08-4.77-3.27-6.4-.12.82-.25,1.63-.4,2.45l-.47.3c-1.45-.33-2.52-.77-4.05-.85M148.7,82.07c1.54.88,3,1.75,4.8,1.82.55-.25.78-.25.95-.88.05-.2.1-.67.13-.88.6.37.83.78,1.25,1.33.45-.13.33-.02.57-.47.35-.68.32-1.29.07-1.99-.55-1.48-1.73-2.99-3.2-3.62-.38-.17-.77-.3-1.17-.43.17,2.07,1.49,3.47,2.69,5.07-1.75-1.83-4.1-3.67-6.84-3.62-.62.02-.7.02-1.1.45.05,1.03.92,2.24,1.62,2.97.05.1.15.17.23.25M343.42,77c-.77,1.63-1.12,3.27-.5,5.04.1.28.22.55.33.83l.27-.05.62-1.13.48-.1c1.08,2.17-.47,3.05,2.14,4.67.77-.23,1.22-.23,1.68-.9.13-2.43-.52-5.72-2.35-7.49-.8-.8-1.62-.8-2.67-.87M482.85,210.52c-1.78.15-4.7.72-5.84,2.22-.5.65-.65,1.2-.52,2,.1.6.33,1.1.6,1.65l.3-.07c.2-.28.57-.95.83-1.13,1.95-1.35,5.44-1.2,5.17-4.62-.48-.08-.3-.12-.55-.05M212.52,57.66c.73.1.82.18,1.43-.18.02-.58-.07-1-.23-1.55.1.05.22.12.32.17.35.18.63.27,1.02.37.55-.4.67-.45.9-1.08-.27-.98-1.32-1.87-2.18-2.35-.55-.32-1.17-.22-1.8-.23-.02.63.03.97.3,1.55l-.28.15c-.78-.47-1.77-1.27-2.67-1.32-.4.57-.43.62-.45,1.32.73,1.57,1.72,2.45,3.32,3.07.13.03.23.05.33.1M456.72,141.07l.23.17v-.32c.02-1.42.93-2.94.45-4.14-.68-.45-.78-.47-1.6-.47-.35.27-.62.5-.92.83-.07-.95.08-1.45-.65-2.13-.02-.02-.05-.03-.07-.05-.82,1.68-2.05,3.89-2.1,5.79l.37.43c.4-.2,1.05-1.27,1.23-1.22l.17.85-.02-.75c.07.03.15.08.22.12.93.48,1.74.58,2.69.88M243.7,347.16c-2.55-2.65-5.09-5.32-7.89-7.74-6.07-5.24-12.79-9.72-19.09-14.67-5.29-4.15-9.92-9.44-15.61-13.04-13.77-8.7-31.97-8.7-47.73-10.14-4.99-.45-9.9-1.28-14.88-1.93.1.05.2.1.3.17,4.17,2.39,7.69,5.97,11.09,9.32,12.99,12.84,17.33,12.49,34.67,15.34-6.1-3.49-12.01-7.37-17.98-11.11-2.45-1.54-5.17-2.77-7.5-4.47l.08-.25c2.75,1.17,5.52,2.32,8.15,3.77,6.87,3.77,13.29,8.45,20.28,11.97,4.43,2.24,9.29,3.02,13.94,4.65,4.37,1.55,8.51,3.72,12.82,5.39,8.19,3.32,22.26,7.9,29.33,12.74M111.92,135.95c1.72.15,3.3.47,4.77-.63.15-.48.3-.58.05-1.07-.67-1.37-2.49-1.97-3.79-2.63l.47,1.37-.25.48c-1.67.43-3.69-.53-5.47-.48,1.33,1.25,2.48,2.3,4.22,2.97M122.27,298.57c-.03,1.65.22,4.52-.4,6-.35.87-1.38.75-.43,1.74,3,3.15,24.98,10.17,29.87,11.67l4,1.35c-6.37-5.62-11.84-12.31-18.74-17.29-2.67-1.93-5.62-2.85-8.4-4.47-.95-.55-1.73-1.35-2.7-1.9-1.05.97-2.15,1.9-3.19,2.9M80.55,296.4c-3.54-.3-7.07-1.47-10.62-1.07l.03.53c1.07.35,2.13.7,3.2,1.05-.93.25-2.53.47-3.12,1.25-.05.67.05,1.07.28,1.7-.07.08-.13.15-.2.23-.28.35-.2.2-.32.65,1.45.35,3.82-.57,5.24-1,1.83-1.12,3.65-2.29,5.5-3.35M240.39,39.57c.65-.8,1.18-1.42,1.5-2.4l-.13-.62-1.07.08c-.3-.7-.42-1.33-.53-2.08-.75-.37-1.6-.2-2.42-.15-.62,1.27-.97,3.17-.48,4.55.23.68.52.95,1.12,1.3.88-.05,1.28-.27,2.02-.68M79.33,202.69c1.87-1.45,4-3.25,4.3-5.75.12-.95-.02-1.93-.57-2.73-1.85,1.6-3.93,4.29-4.19,6.82-.07.6-.07,1,.28,1.52.05.07.12.1.17.15M459.89,201.62c.78-.98,1.48-1.87,2-3.02l-.13-.48c-.52-.12-.88-.15-1.4-.1-.52.05-.68-.02-1.17-.05-.17-.02-.33,0-.5,0l-.38-.28c-.38.37-.78.7-1.18,1.05-.68.62-.83,1.43-.82,2.32,0,.45.13.8.3,1.2.62.55.72.6,1.53.73.97-.35,1.12-.62,1.75-1.37M505.33,212.79c-1.08.13-2.19.22-3.25.43-.6-.92-1.25-2.17-2.23-2.69-.32.65-.83,1.3-.67,2.02.22.12,1.12.5,1.22.67.92,1.4.83,5.1,2.47,5.85.37-.65.27-1.08.27-1.82.78-1.47,1.62-2.9,2.2-4.47M391.43,90.99c1.15-1.27,2.42-2.45,2.63-4.24-.28-.58-.32-.83-.98-1.03-.28-.08-.78-.03-1.07-.03-1.18.72-2.14,1.65-2.39,3.08-.13.75.17,1.18.58,1.75.42.17.82.35,1.22.47M230.05,86.34c-1.68.33-3.7.43-4.87,1.85-.02.4-.13.58.15.9,1.3,1.45,4,1.4,5.8,1.45,1.45-.38,3.25-.67,4.17-1.98.02-.7.05-.88-.52-1.4-.37-.33-.92-.6-1.35-.87-1.1.02-2.27-.05-3.39.05M382.33,119.54c.8-1.25,1.33-2.32,1.8-3.72l.12-.35c.02-.07.05-.13.07-.22-.42-1.77-.7-3.33-1.82-4.82-.92,1.4-1.48,2.75-1.93,4.35.43,1.47.82,3.52,1.77,4.75M213.62,249.21c-3.12-3.23-6.27-7.35-10.22-9.54l-.17.55c-1.08.5-2.02-.42-3.05.15-1.12,4.95,4.25,24.78,6.87,29.1.57.95,1.22,1.8,2.3,2.17,1.77-7.35,3.12-14.94,4.27-22.43M343.41,243.26l2.4-2.08c1.47-1.17,3.07-2.39,3.77-4.17l-.08-.57c-.8-.18-1.08.6-1.8.23-.27-.5-.48-1.08-.85-1.52-1.47,2.52-2.47,5.34-3.43,8.1M194.46,335.49c-8.35-3.09-17.23-4.38-25.91-6.19-4.94-1.03-9.84-2.49-14.84-3.1-3.49-.43-7.15-.47-10.67-.2-3.25.29-7.49,1.6-9.72,4.19-.35.4-.3.53-.4,1.02l.27.27c3.25-.72,4.05.5,6.8,2,.82-.75,1.52-1.5,2.59-1.85.67.1,1,.17,1.37.78.3.48.5,1.05.73,1.58l.28.2.02-1.17c.5-.42.23-.33.93-.28,2.57.22,5.34,2.08,6.92,4.05-.28.58-.45.62-.97.98,1.35,1.63,1.53.25,2.85,3.15,7.45.22,14.09-1.92,21.36-2.52,6.15-.92,12.31-1.73,18.39-2.92M290.45,43c.32,1.54.75,3.37,2.14,4.3,1.35.92,2.7.8,4.25.7-.07-1.35,0-2.23-1.03-3.2-1.18-1.15-3.79-1.43-5.35-1.8M42.78,223.72c.35-1.1.6-1.83,0-2.92-.6-1.1-2-1.53-3.15-1.73-.97-.17-1.87-.18-2.85-.08-.02.67.12.9.58,1.4.8.85,3.17,3.64,4.24,3.62.35-.02.87-.2,1.18-.28M357.08,86.68l.35.15c-.03.48-.1,1-.05,1.48.07.73.27,1,.85,1.42.67-.03,1.04-.15,1.55-.58,1.22-1.05,2.5-2.82,2.67-4.44-.45-.47-.43-.45-1.07-.52-.5.35-1.03.78-1.63.93-.73.2-.85.1-1.48-.23l-.53-.55c.18-.65.53-1.25.22-1.88-.25-.48-.38-.62-.83-.92-1.12-.1-1.98.38-2.83,1.08-.89.73-1.4,1.4-1.53,2.57.32.67.4.87,1.1,1.22,1,.48,2.17.15,3.24.27M64.18,209.31c-3.25-3.1-4.87-4.15-9.19-5.37,1.12,2.3,2.54,4,5.02,4.84,1.37.47,2.72.57,4.17.53M218.91,44.74c.69.47,1.22,1.05,2.07,1.02.33-.97-.8-3.37-1.18-4.37-.73-.53-1.2-1.07-2.1-1.15-1.17.83-2.09-.02-3.35.47.2.98,1.05,1.78,1.88,2.33.82.55,1.93,1.05,2.68,1.7M450.78,140.37c.3-.92.98-2.42.52-3.32-.6-1.13-1.93-2.23-2.82-3.2-.38,1.57-1.52,4.67-.77,6.19.32.65.67.67,1.28.82.58-.15,1.2-.28,1.78-.48M415.81,304.66c-1.55.17-4.25.83-5.55-.15-.18-.15-.37-.3-.55-.45-1.42-1.13-4.55.25-4.92-2.13.83-1.82,3.47-2.55,4.17-4.49-.45-.47-.18-.33-.83-.4-4.8.4-9.75,1.42-14.38,2.82-5.15,5.82-10.19,11.99-16.44,16.66,3.07-1.02,6.12-2.07,9.17-3.14,9.55-3.53,19.88-5,29.33-8.72M206.97,169.84c1.25-1.68,3-3.83,2.55-6.1-.13-.7-.54-1.48-1.12-1.92-1.82,1.95-2.47,3.89-2.42,6.55,0,.45.07.8.22,1.22.35.22.38.33.77.25M370.07,92.4c.69-.42.77-.55,1.17-1.25-.12-.68-.32-1.2-.9-1.67-.15-.12-.32-.2-.47-.3-1.23.33-2.97,1.07-4.2.82-.73-.83-.98-1.27-2.05-1.63l-1.67,1.6v.3c1.1.57,2.18-.27,3.24.28.07.57.1,1.12.12,1.7l.18.18c.05-.1.1-.2.17-.28.25-.43.15-.28.52-.7,1.33.38,2.5.77,3.9.95M31.31,217.24c-.43-1.23-.78-2.67-1.75-3.6-.35,1.07-.28,1.63-.02,2.72-.72.28-1.13-.28-1.48.42.38,1.52,1.22,2.73,2.49,3.65l2.64-2.08-1.87-1.1ZM328.58,79.99l1.27-2.04c-.98-.87-1.74-1.55-3.05-1.92-.3,1.77-.37,3.24.25,4.94l.47.35c.67-.35.72-.67,1.07-1.33M423.33,182.19l.97-.02c-.13-.47-.28-.75-.52-1.17l.53-.43c-.22-.75-.72-1.15-1.4-1.48-1.4-.7-3.14-.65-4.64-1.1.77,1.65,1.87,4.54,3.79,5.12.52.15,1.02.02,1.52-.1-.1-.45,0-.2-.42-.72l.17-.1ZM367.3,278.98c-2,1.34-4.24,3.1-5.2,5.35l.13.42c.64-.02,1.02-.2,1.58-.48l5.97-3.65-2.48-1.64ZM395.7,78.87c.55-.53,1.28-1.05,1.42-1.83-1.02-.82-3.2.12-3.75-.67-.53-.77-.25-1.7-1-2.48-.38,1.73-1.1,3.77-.65,5.52.52.5.65.62,1.43.55.8-.08,1.85-.7,2.55-1.08M176.22,87.23c-.8-.9-1.57-1.53-2.6-2.18l-.43.02c-.25,1.27.03,2.4.77,3.45.6.87,1.87,2.23,2.9,2.57.6.18,1.38-.05,1.99-.18,1.78-.37,2.97-1.85,3.99-3.29.47-.67.68-1.2.83-1.98l-.23-.52c-1.28.03-2.65,1.68-3.55,2.55-.43-.6-.33-.27-.32-.98.02-.88.2-1.85-.45-2.55-.28-.32-.8-.57-1.17-.78-.7,1.27-1.22,2.52-1.72,3.89M151.17,85.27c-2.44-1.47-4.92-2.78-7.52-3.95.15.82.45,1.55.15,2.34-.7.32-.73.28-1.05.97l.75.98-.15.48-1.25.35-.03.35c.9.48,1.75.79,2.72,1.07,1.12-.28,2.23-.53,3.3-.97l3.09-1.62ZM227.41,42.92c-.18-1.77-1.15-2.78-2.47-3.9-1.33-1.13-2.85-2.09-4.22-3.15-.13-.1-.28-.15-.42-.23.15,2.17,1.65,3.9,3.25,5.3,1.13,1,2.27,1.95,3.85,1.98M455.17,146.98h.73c-.22-.48-.07-.25-.45-.7.1,0,.18,0,.28.02,1.41.03,2.58-.1,3.61-1.09-.08-.65-.33-.83-.78-1.23h-.32c-.9-.03-1.39-.05-2.12-.58-.1.17-.18.33-.28.48-1.11,1.79-2.92,1.33-3.11,3.86.28.64.23.7.86.99l.89-.22c.33-.51.48-.98.68-1.54M126.19,355.28c1.69,1.75,3.19,3.89,5.65,4.37l.43.18c.52.23.97.52,1.43.83l.27-.07c-.17-.93-.37-1.27.08-2.1-.68-.15-1.25-.02-1.92.12l-.45-.23c-.17-.87.4-1.68.85-2.38.07-.1.13-.2.2-.3l-.23-.23c-1.22.65-2.52,1.6-3.95,1.1-.8-.28-1.62-.83-2.37-1.28M400.3,362.35c.88.02,1.72-.57,2.34-1.17,1.08-1.05,1.78-2.35,2.35-3.74l-.08-.4-.13-.07c-.73.1-1.3.03-1.82.57-1.04,1.05-3.3.52-3.34,2.4-.02.72.43,1.75.68,2.4M323.3,173.92c1.08-.22,2.02-.43,2.69-1.4.32-.45.28-.6.33-1.13-.35-.53-.47-.78-1.15-.92-.48-.1-1.15,0-1.63.03-1.32.7-2.92,1.47-3.5,2.94.23.5.08.48.52.62.83.25,1.9.03,2.75-.13M233.73,192.33c1.5,1.52,2.75,2.45,4.79,3.2-.83-2.32-1.67-5-4.05-6.19-.48-.23-1-.43-1.5-.63.23,1.2.43,2.45.77,3.62M73.63,204.3c.57-1.22.35-2.73-.1-3.95-.54-1.43-1.33-2.55-2.55-3.48-.58,1.3-1.1,2.37-.53,3.8.57,1.45,2.07,2.59,3.18,3.64M145.47,212.24c-2.05-1.13-4.22-2.08-6.62-1.72-3.37.47-5.72,1.3-8.14,3.82,2.37.72,4.69,1.4,7.17,1.35,2.95-.57,5.15-1.67,7.59-3.45M76.23,270.22l1.4-3.97c.88-.6,1.73-1,2.13-2.03-.12-.5.02-.5-.38-.72-1.38-.72-5.15-.12-7.22-.63-.13,1.58-.65,1.88-1.9,2.92-1.15.95-4.92,1.77-5.1,3.18-.17,1.2.28,2.58.1,4.04-2.42-.1-4.6-.83-6.92-1.43-.03.12-.08.22-.12.33-.55,1.47-1.35,2.35-2.42,3.47,0,.82.22,1.85-.22,2.54-1.63.38-3.17-.53-4.47.85-.15.65-.32,1.25-.53,1.87-.18.52-.23.82-.12,1.37.52.52.77.73,1.54.73,1.62.02,3.77-1.3,4.9-2.42.52-.5.4-1.32.38-1.98l-.08-.38c1.67-.12,3.27.87,4.9.6.37-1.02.42-1.87,1.12-2.75.85-.33,1.22-.35,2.07.02.98.43,1.89,1.07,3,1,2.42-1.6,1.63-9.49,4.59-9.15,1.2.15,2.5,1.77,3.35,2.57M347.19,106.84c1.55-.42,4.93-1.27,5.65-2.82.05-.1.07-.2.1-.3-.37-.67-.58-.67-1.28-.98-1.6.52-4.75,1.8-5.57,3.32-.05.08-.07.18-.1.28l.22.35.99.15ZM283.63,233.65c.68-.92,1.33-1.8,2.15-2.62,3.62-5.04,5.32-6.74,4.95-13.24-1.83-.82-4.15-1.64-5.45-3.24-1.03,2.02-1.78,2.5-3.78,3.43-.1,5.32.93,10.51,2.14,15.66M379.61,244.13c-.55.73-1.1,1.17-.98,2.15.08.68.6,1.32,1.22,1.58.87.38,1.33.05,2.07-.37.08-.05.17-.1.25-.15.6-.39.82-.35,1.05-1.05-.75-.65-1.67-.67-2.62-.62-.17.02-.35.03-.52.03-.32-.55-.3-.73-.3-1.35l-.17-.23ZM421.85,158.08c1.08-.52,1.57-1.13,2.3-2.08l.12-.67c-.57-.68-1.18-.85-2.05-.93-.15-.02-.28-.02-.43-.03-1,.48-2.4,1-2.79,2.17-.13.42.08.58.27.93.85.52,1.58.55,2.58.62M352.16,140.85c.53-1.37.6-2.74,0-4.1-.35-.78-.78-1.13-1.5-1.57-.42,1.12-.92,2.2-.47,3.39.35.92,1.23,1.67,1.97,2.29M58.14,313.01c-.8-.45-1.75-1.15-2.63-1.38-1.62.7-2.22,1.17-3.07,2.7-.02.4-.08.53.13.88.6.1,1.05.07,1.65,0,1.42-.67,2.65-1.33,3.92-2.2M113.52,113.59c-1.15.52-1.88.87-2.38,2.1l-.35.23c.63,1.73,1.95,4.29,3.6,5.24.6.35,1.08.43,1.75.3.13-1.02-.73-2.18-1.27-3.05l.43-.23.45.1c.53-.42.52-.48.7-1.13-.37-1.8-1.55-2.48-2.94-3.55M167.58,68.3c-.17,3.83-2.74,2.6-.28,5.59.58-.02.5.12.85-.27.72-.8.75-1.9.62-2.92-.12-.95-.57-1.68-1.18-2.4M343.67,271.42c-.93-1.02-1.89-1.88-2.32-3.22-.28-.85-.33-1.6-1.1-2.05-.79.1-1.55.22-2.33.35.82-2.12,1.02-3.79,3.23-4.75.1-.05.22-.1.32-.13l.25-.48c-1.03-1.33-2.2-2.42-1.97-4.24.05-.33.13-.63.25-.93.28-.78.57-1.42.52-2.27-.75.2-1.25.98-1.77,1.55-2.3,3.35-4.19,6.97-6.3,10.44-2.82,4.55-6,8.85-9.54,12.87,2.4-1.27,4.8-2.37,7.44-3.08,4.67-1.3,8.94-1.75,13.32-4.05M53.54,208.37c1.48.3,2.92.52,4.42.63-1.5-.85-3.37-1.68-4.67-2.78-1.1,1.07-4.02,1.1-5.54,1.28,1.9.22,3.93.32,5.79.87M49.52,282.86c.52-.78.8-1.23.82-2.18-.35-.82-.83-1.15-1.63-1.47-.27-.1-.53-.2-.8-.28-.28,1.02-.68,1.99-.42,3.04.67.68,1.08.77,2.04.9M396.25,92c.75-.55,1.45-.97,1.82-1.87-.05-.68-.02-.92-.63-1.37-.37-.27-1.02-.42-1.45-.57-.87.43-1.68.73-2.2,1.6.02.68.02.87.6,1.33.47.38,1.32.65,1.87.87M193.39,213.59c-1.97-.32-5.7-2-6.29-2-.93.62-2.25,1.22-2.62,2.32.1.15.17.33.28.47.28.3,1.72.62,2.17.77,1.83.55,3.28,1.17,4.92,2.18l.9.47.47-.25c.37-1.32.1-2.6.17-3.95M294.18,214.34c-.7,3.12-1.87,6.84-1.99,10.01.58-.47,1.2-.92,1.75-1.42,1.64-1.68,5.25-5.22,5.35-7.69.02-.37-.02-.38-.08-.7l-.87-.78c.05-.82.27-1.28.63-2-.38-.52-.77-.67-1.35-.92-1.03,1.42-2.15,2.35-3.45,3.5M408.68,133.43c1.3-1.08,2.12-1.77,2.29-3.57.07-.75-.08-1.37-.62-1.92-.35-.37-.83-.47-1.33-.52-.98.87-2.25,2.3-2.28,3.68-.02.72.17,1.28.73,1.72.32.27.83.43,1.22.6M505.49,288.08c-1.27.65-2.44,1.2-3.49,2.2l-.15.57c.47.47,1.02.53,1.65.53.73,0,1.47-.07,2.2-.13.68-.27.85-.5,1.33-1,1.4-1.43,4.29-2.17,4.45-4.55.03-.52-.2-.72-.45-1.15-1.28-.78-2.93-.6-4.37-1.03-.37.72-.47,1.18-1.25,1.53-.4.18-.92.27-1.35.37.05.97.88,1.88,1.42,2.67M391.45,347.81c-1.05.12-2.08.17-3.04.63.08.53-.05.32.38.65.9.7,1.53,1.29,2.05,2.3.27-.65.18-.97.02-1.63.78-.82,1.77-.4,2.47-1.25-.22-.53-.05-.4-.58-.6-.52-.2-.75-.18-1.3-.1M228.35,37.4c-.1-1.32-.17-2.03-1.25-2.9-.79-.62-2.42-.93-3.4-1.08,1.12,1.64,2.63,3.49,4.65,3.99M328.42,86.33c.7.57.83.87,1.77.87.57-.52.65-.65.72-1.47.03-.5-.12-1.05-.3-1.5-.13.63-.18,1.23-.68,1.68-.3-.4-.48-.73-.68-1.18-.57.38-.6.95-.82,1.6M475.4,310.54c1.12,2.22,2.45,3.24,4.79,4.02l.33.12c-.32-1.4-.55-2.48-1.9-3.22-.92-.52-2.17-.72-3.22-.92M233.63,51.27c-.08.9-.15,1.43.3,2.29.92.7,1.72.68,2.84.7.1-.98.22-1.18-.29-2.07-.88-.57-1.83-.7-2.85-.92M253.08,41.53c-.6.98-1.22,1.85-1.3,3.04.17.5.3.83.63,1.23.67-.72,1.2-1.22,1.47-2.18-.07-.9-.33-1.35-.8-2.08M471.16,208.89c.5-.68.92-1.05.93-1.92-.45-.42-.83-.68-1.38-.95-.33,1.05-.58,1.87-.55,2.97l.3.4c.2-.15.53-.33.7-.5M188.19,105.59c2.57,1.93,4.97,1.83,8.04,1.62-.3-.68-.53-.67-1.22-.95-2.17-.87-4.55-.83-6.82-.67M231.48,255.67c5.75,6.19,12.16,11.76,16.66,19.01,1.67,2.68,6.12,15.86,7.15,16.74-.57-8.62-.93-18.68-2.35-27.15-1.72-10.21-6.3-23.95-12.46-32.3-3.07-4.17-7.19-7.97-11.06-11.41-.42-.37-.87-.79-1.33-1.07,1.48,12.02,1.33,24.21,3.38,36.17M480.71,207.85c-1.48-.62-1.75-.73-2.38-2.25-.15-.37-.3-.4-.62-.62l-2.13-.02c-.97,1.27-3.25,3.3-3.67,4.7.37.6.62.79,1.3.95,1.18.3,2.25.15,3.38-.25,1.45-.75,2.77-1.6,4.12-2.52M289.6,50.09c-.27-1.22-.45-2.67-1.52-3.47-.35-.27-.45-.25-.88-.4.33,1.4.8,2.87,2.08,3.68.08.07.2.12.32.18M157.93,82.21c0,.89-.08,1.84.58,2.54.5.52,1.05.68,1.75.6.77-.1,1.4-.62,1.99-1.07-.33-.78-.37-1.15-1.1-1.58-1.5.22-1.93.33-3.22-.48M365.39,192.83c1.47-1.03,2.45-2.87,3.84-3.74,1.83-1.15,4.14-.13,6.02-1,.08-.63,0-.68-.38-1.18-2.65-3.45-8.7-3.53-9.17-4.47-.25-.52.22-1.17-.2-1.8-.3-.45-.08-.28-.7-.42l-.72.4c-.65-.2-.62-.28-1.05-.77-.12.13-.23.25-.35.38-.55.55-1.18.65-1.9.85-.58.17-1.04.42-1.57.72-.37-.72-.4-.95-1.12-1.35-1.08.32-2.2,1.5-2.72,2.5-.18.37-.22.7-.23,1.1l.35.58c.37.07.6.22.93,0,.48-.32.7-.8.98-1.28l.23.07c.28.87.38,1.43.37,2.35.28.32.32.48.78.52,2.14.15,5.52-3.27,6.57-2.25l.08.6-.37.23c-.33.2-.63.42-.93.65l.03.45h.43c.6.02.37-.02.9.2-.58.54-1.62.45-2.4.54.07.5.33.58.7.9l.5.28-.68.58c.02.85,1.45,3.17,1.77,4.35M494.01,272.42c-.53.82-.7,1.2-.75,2.18l.37.55c2.39.33,2.92-.63,5.57.45.17-.64.52-1.22.18-1.8-.48.17-.83.38-1.25.65-.28-.52-.28-.77-.33-1.33l-.35-.2-1.12.48c-.78-.4-1.5-.72-2.32-.98M327.88,48.31c1.27-.48,2.62-.87,3.65-1.77l.17-.58c-.33-.54-.57-.85-1.07-1.22-1.33.8-2.7,1.45-3.54,2.8-.02.65-.13.38.25.82l.53-.05ZM24.49,217.48c-.25-1.62-.45-2.85-1.58-4.09-.2,1.05-.35,1.99.3,2.93.33.52.78.82,1.28,1.15M106.05,122.78c-.08-1.02-.2-1.72-1.02-2.4-1.97-1.7-5.54-1.2-7.97-1.75,1.85,2.1,3.82,4.32,6.84,4.45.77.05,1.42-.08,2.15-.3M482.11,269.69c1.23.82,2.5,1.62,3.7,2.49.98,0,1.77-.02,2.68-.35l.53-.55c-.03-.72-.12-1.08-.67-1.6-.85-.78-2.02-1.28-3.15-1.32l.97,1.27-.07.38c-1.08.37-2.82-.25-4-.32M95.58,121.33c.87,1.67,1.68,3.17,3.62,3.73,1.03.32,2.08.27,3.15.15-1.27-2.17-3.23-3-5.59-3.64-.38-.1-.78-.18-1.18-.25M123.31,279.38c.55.27,1.47.63,1.85,1.12,1.47,1.87.73,5.15,5.85,4.2,1.03-.35,1.93-.63,2.77-1.33.43-.9.35-1.17.02-2.1-.25-.72-.53-1.32-.57-2.09l.75-.95c-.18-.42-.03-.3-.38-.43-1.77-.7-3.52-1.03-5.4-1.08-.22,0-.53-.07-.77-.1-1.32,1.03-2.65,1.93-4.12,2.77M415.86,133.17c.72-.67,2.22-1.67,2.3-2.62-.62-.42-1.12-.68-1.83-.93-.38-.47-.58-.87-1.17-1.07l-.65.77-.67-.08c-.38,1.14-.53,2.15.07,3.27.17.32.48.62.7.9.08.1.17.22.25.32l1-.55ZM132.45,289.2c6.42,5.82,12.41,7.72,20.98,8.52,7.12.1,14.24.72,21.36.88-4.35-2.77-8.77-5.89-13.51-7.96-2.22-.97-4.94-1.02-6.92-2.2l-.05-.33.68-.52c-.52-1.17-1.89-1.8-2.55-3.14-.02-.03-.05-.05-.07-.07-1.42.88-3.94,3.2-5.47,3.48-1.04.18-1.45-.32-2.55.22-.2.87-.15,1.68-.8,2.3-2.44.22-5.15-2.2-7.44-3.02-1.22.58-2.47,1.15-3.67,1.82M367.76,250.36l2.48-1.52.83-.97-.12-.47c-1.65-.67-3.75-.42-5.52-.55.63,1.3,1.42,2.37,2.32,3.5M129.29,112.41c-.62,1.07-1.45,2.23-1.72,3.45.43.35.73.48,1.25.68-.1.47-.23.7-.45,1.12.37.7,1.08,1.07,1.8,1.32.38.13.8.17,1.2.23.47.07.77.17,1.18.4l.43-.12c.93-.79,1.8-1.57,2.64-2.47-2.58-1.18-3.04-3-4-3.35-.23.35-.45.7-.67,1.08-.72-.4-.98-1.7-1.67-2.35M372.02,286.92c-.38-1.04-.85-2.99-1.62-3.75-7.35,4.82-13.42,9.2-18.61,16.44,7.57-.63,15.29-.82,22.81-1.8,4.77-.33,9.52-1.37,14.29-1.47.63-1.15,1.73-2.68,1.38-3.99-.93-.07-1.07.73-1.95.5-.33-.65-.57-1.62-1.35-1.82-.2-.05-.65-.07-.88-.07-2.17-1.37-1.97-5.63-4.17-6.77-2.25.75-4.12,1.9-5.99,3.37-1.3-.25-2.6-.47-3.92-.65M377.89,350.23c-.75-1.3-1.55-2.1-3-2.6-.02.8-.13,1.07.5,1.63.53.48,1.82.77,2.5.97M405.12,130.53c.3-.8.73-1.5.55-2.35-.82-.22-1.67-.27-2.45-.5-.18.88-.52,1.78.02,2.62.33.53.62.48,1.2.53.2-.07.5-.17.68-.3M323,47.97c1.27-1.2,2.92-2.37,3.08-4.22-.32-.6-.45-.68-1.03-1.05-1.13,1.02-2.47,1.97-3.15,3.35-.02.68-.05.92.48,1.45.15.17.42.33.62.47M492.99,224.97c1.15-.98,1.43-1.7,1.6-3.22.12-1.03-.03-1.89-.5-2.8l-.63-.35c-.9,1.22-2.33,2.72-2.13,4.34.12.9.78,1.32,1.43,1.83l.23.2ZM364.35,321.33c4.05-3.13,21.38-17.39,23.33-20.78l-.15-.28-.67.1c-6.44.63-12.86,1.32-19.28,2.05-5.67.6-16.94,1.07-21.8,3.2-6.99,3.08-15.93,10.76-22,15.58-2.53,2.02-11.34,8.72-12.57,10.8-.08.13-.12.28-.17.42.68.08.38.12.93-.05,16.77-6,34.73-8.87,52.36-11.04M461.25,135.85c-.93,1.22-2.7,3.04-3.05,4.49l.4.12.27-.17c.92.07,1.73.22,2.58-.2.43-.58.58-.87.45-1.6-.15-.88-.48-1.75-.65-2.63M334.14,334.09c6.27,1.65,12.52,3.4,18.74,5.24,6.59,1.95,13.29,4.17,20.11,5.14l.9-.27c.2-.48.27-.88.33-1.4.18-1.42,1-3.05,2.15-3.92,2.37-1.8,7.1.43,8.44-1.29-.4-.55-.55-.52-1.22-.65-.77-.15-1.57-.12-2.33-.12l-.53-.75.32.67c-.98-.62-1.93-1.22-3.02-1.65l-.22-.45c.9-1.18,3.14-1.6,4.54-1.78,2.65-.35,5.17-.18,7.74.65,1.04-.4,2.62-1.3,3.7-.78,1.02.48,1.42.93,2.63.75l1.03-1.1.43.03.23,1.25.78-.03-.37.17c.42-.87.8-1.72,1.12-2.64-1.15-.13-2.32-.22-3.45-.4-.08-.07-.17-.13-.25-.2-1.35-1.1-2.29-2.72-3.72-3.67-3.1-2.03-14.16-2.38-18.14-2.52-4.82.37-9.11,3.33-13.74,4.53-4.52,1.18-9.19,1.85-13.79,2.7-4.17.77-8.27,1.75-12.42,2.48M440.46,275.78c.93-1.78,2-5,3.83-5.87.9.2,1.08.85,1.9,1.08.38-.57.53-1.08.42-1.77-.12-.72-.25-1.82-.9-2.25-.17-.12-.53-.23-.73-.3.15.8.28,1.62.42,2.42-.08-.07-.17-.13-.25-.18-.63-.45-1.12-.88-1.93-.8-1.6.17-2.82,1.62-3.82,2.73l-.33.38.1-.47c-.65.77-.78.93-.98,1.98.15.48.28.83.53,1.28l1.75,1.75ZM86.67,124.95c-.38-.8-.95-1.07-1.68-1.5l-.08-.33.95-.23.13-.35c-.43-.58-1.07-1.17-1.8-1.32-.54-.12-1.14-.07-1.69-.05-.67.65-.87.8-1.12,1.72.2.67.33,1.04.95,1.42,1.42.85,2.74.82,4.33.65M93.92,269.84c-1.65-.33-3.64-.53-5.17-1.17-.05.08-.1.18-.15.27-.7,1.18-1.53,1.99-2.53,2.9.62.67,1.25,1.12,1.43,2.02-.23.72-.58,1.25-.38,1.98.65.18.98.38,1.62.02.2-.12.53-.43.73-.6.77.18.78.4,1.25,1.05.5.15.47.27.97-.02.87-.48,1.6-1.48,2.27-2.22l-.03-4.24ZM447.95,268.22l-.35.53c.27,1.23.77,2.28,1.65,3.2.25-.95.68-2.03.3-2.99-.55-.47-.9-.58-1.6-.75M428.39,179.84c.65-.65.75-2.02.75-2.9,0-.63-.07-1.1-.43-1.62l-.28-.2c-.6.85-1.52,1.87-1.25,2.98.15.68.75,1.23,1.22,1.73M388.35,84.19c-1.03,1.18-1.22,2.2-1.05,3.77.12,1.1.23,2.02,1.07,2.79l1.08-2.18c-.05-1.27.02-2.63-.48-3.82l-.62-.55ZM257.08,40.7c-.75.97-2.25,2.73-2.08,4.05.08.68.4,1.02,1,1.3.28.13.78.2,1.07.25,1.07-1.15,1.55-1.65,1.52-3.29-.43-.7-.9-1.77-1.5-2.32M371.46,70.6c.22,1.79.37,4.34,1.85,5.59.43.37.97.47,1.5.6.28-1.58.52-3.33-.52-4.72-.73-.97-1.68-1.25-2.84-1.47M244.02,80.31c-.95-4.14-2.29-7.75-6.05-10.14-1.28-.82-2.68-1.27-4.15-1.63,2.07,5.6,4.44,9.06,9.96,11.67.08.03.17.07.25.1M402.21,82.01c.28.92.47,1.7,1.12,2.43l.65.22c.25-.13.5-.23.7-.43.23-.77.47-.98.12-1.72-.85-.3-1.68-.4-2.59-.5M147.04,166.3c2.72,1.25,4.99,1.85,8.02,1.62,2.32-.9,4.54-1.83,6.6-3.25-2.54-1.53-4.82-2.2-7.77-2.52-2.38,1.23-4.74,2.48-6.85,4.15M34.71,272.54c.48,1.13,1.35,2.62,2.55,3.12.48.2.83.2,1.35.17.42-.33.67-.58.93-1.04.03-.88.13-1.08-.37-1.83-1.95-.47-1.8.62-4.47-.42M189.21,209.54c.75,1.42,1.42,2.64,3.02,3.15.47.15.97.25,1.43.33-1.28-1.72-2.35-2.75-4.45-3.48M508.43,218.53c-1.43.65-2.74,1.07-3.4,2.63,0,.5.02.82.15,1.3,1.33-.98,2.63-1.92,3.32-3.49l-.07-.45ZM105.13,345.41c-.6.55-.95.73-1.13,1.53.72,1.12,1.62,1.32,2.89,1.62.48.12.9.17,1.38.17l.37-.37c-.1-.1-.18-.22-.28-.32-.67-.8-.62-1.87-1.47-2.53l-1.75-.1ZM425.62,326c-.2.93-.4,1.5.28,2.32.23.29.38.39.67.58l1.33-.13.53-.25c-.3-1.1-1.9-1.92-2.82-2.52M248.89,46.27c1.18-1.25,2.49-3.13,2.52-4.92.02-.57.03-.68-.42-1.1-.03-.03-.07-.03-.12-.05-1.27.83-2.4,1.94-2.77,3.49-.17.72-.13,1.45.28,2.08.17.22.32.33.5.5M253.56,222.13c-1.43-.78-2.85-1.52-4.37-2.13l.07.37c.62,3.87-.32,10.84,3.22,13.47.37.27.82.32,1.25.38l.48-.37c1.55-3.49.9-7.62-.42-11.11-.07-.2-.15-.4-.23-.62M223.69,74.27c4.02,3.33,9.09,5.5,13.97,7.24-1.58-3.12-3.54-5.32-6.95-6.45-2.28-.77-4.64-.87-7.02-.78M263.82,202.25c-.93,1.52-2.53,3.48-2.1,5.37.1.43.38.9.68,1.2,1.08-1.1,2.23-2.13,2.15-3.82-.05-.95-.37-1.87-.73-2.75M52.34,215.49c1.22-1.32,2.55-2.2,4.1-3.07l.42.4c.72-.25.7-.25,1.08-.9-.05-.82-.07-.93-.53-1.62-3.3-1.83-7.5-.52-10.9-1.79,1.72,2.58,3.68,4.75,5.84,6.97M323.45,189.61c-.42-1.9-.73-3.62-2.35-4.92-1.23,1.35-3.35,3.42-3.25,5.39.03.82.32,1.37.93,1.88.43.37.88.55,1.42.75l3.25-3.1ZM301.85,65.88c-1.42-1.7-2.55-2.98-4.6-3.92-.32.68-.58,1.58-1.23,2.02h-1.42l-.15.23c.52.95,1.04,1.47,2.08,1.77.55.17.98.15,1.55.05.25-.35.47-.67.68-1.03,1.05.23,2.07.5,3.09.88M162.19,67.13c-.97-1.33-2-3.3-3.72-3.67-.5-.1-.55.03-.97.27-.32.83-.15,1.62.22,2.42.58,1.28,2,2.37,3.09,3.24.67.33.95.58,1.7.47l.47-.83c.85.47.67,1.65,1.58,2.25.98-.5,1.37-1.4,1.68-2.4.5-1.53.75-3.54-.02-5.04-.53-1.03-1.58-1.83-2.47-2.57-.5-.12-.92-.17-1.43-.17-.79.93-1.29,1.62-1.23,2.89.02.97.73,2.25,1.1,3.15M176.89,66.68l-1.85,2.64c-.62-1.15-.95-1.79-2.12-2.43-.03.07-.08.15-.12.22-.47.8-.82,1.07-1.63,1.5-.32,1.57.07,3.22.92,4.57.4.63.8.95,1.47,1.28l.53.02.32-.63c1.95.42,1.07,2,3.77.77.8-.97,1.28-1.65,1.17-2.97-.15-1.77-1.42-3.54-2.45-4.95M202.37,270.59c-2.4-4.6-6.32-8.84-10.94-11.27-.27.68-.79,1.37-.37,2.07.12.2.43.6.58.78-1.02,1.15-2.95,1.4-4.4,1.72.82,1.83,1.33.77,1.75,3.54,1.98,1.67,6.75,2.07,9.34,2.42,1.33.25,2.68.55,4.03.75M112.37,301.71c.75,1.45,1.98,2.13,3.5,2.65,1.55.52,3.15.95,4.74,1.33-.9-1.65-2-2.22-3.78-2.75-1.47-.45-3-.73-4.45-1.23M196.66,166.43c1.03,1.7,1.97,2.82,3.95,3.32.87.22,1.77.35,2.65.5-1.67-2.42-3.02-3.19-5.94-3.72-.22-.03-.45-.07-.67-.1M380.06,80.84c.87-1.47.68-3.3.3-4.95-.17-.75-.43-1.18-.95-1.73l-.62-.22c-.48.52-.65,1.14-.87,1.8l-.35.13c-.25-.48-.47-.95-.67-1.47-.18-.47-.3-.72-.72-1.04.3,3.25.38,7.02,1.57,10.07l.37.23c.32-.27.5-.3.62-.72.27-.97.57-1.43,1.32-2.12M282.11,45.97c.7,1.6,1.5,2.95,3.22,3.57.9.32,1.77.3,2.7.27-1-1.77-1.9-2.8-3.9-3.39-.67-.2-1.33-.38-2.02-.45M216.02,50.29c.22,1.45.45,3.25,1.75,4.17.83.58,1.57.58,2.53.58-.22-1.54-.68-2.7-1.98-3.64-.68-.48-1.5-.83-2.3-1.12M75.47,131.13c-.43-1.37-1-2.6-1.63-3.88-.45-.08-.78-.08-1.25-.02l-.58-.78.08.57c-.63-.83-1.37-2.12-2.3-2.6.4,2.22,2.25,5.37,4.17,6.72.55.38.63.38,1.27.25l.25-.25ZM236.37,34.95c-.98.73-2.42,1.55-2.6,2.87-.15,1.05.52,2.3,1,3.2.8-.37,1.05-.52,1.37-1.37.4-1.08.87-3.5.38-4.59l-.15-.12ZM247.36,39.63c-1.49.97-2.84,1.88-3.54,3.59.1.72.07.72.62,1.18l1.48.17c.93-1.12,1.65-1.98,2.08-3.42-.08-.48-.13-.92-.15-1.42l-.5-.1ZM205.32,285.86c-8.09-4.69-16.24-8.14-25.58-9.4,1.12,3.4,2.34,6.52,4.4,9.49,5.42,7.72,18.96,18.09,27.32,22.33l.28.13c-1.3-3.95-2.62-7.9-3.68-11.92-.95-3.54-1.68-7.12-2.74-10.62M309.29,163.88c.17,1.88.48,3.49,2.02,4.74.57.47,1.18.82,1.85,1.12-.18-1.67-.15-3.55-1.52-4.77-.62-.55-1.57-.83-2.35-1.08M44.17,268.59c-.45.68-.98,1.2-.8,2.08.12.62.64,1.1,1.18,1.33.77.33,1.9.33,2.63-.05.43-.23.8-.52,1.18-.82.35-.48.8-.92.87-1.52-1.55-.63-3.5,1.43-4.1.3-.27-.5-.5-.98-.97-1.33M468.71,137.19c-1.23.82-2.7,1.58-3.58,2.77l-.13.68c.42.58.63.65,1.28.97,1.6-.57,2.65-1.12,3.62-2.55.07-.65.17-.97-.4-1.45-.17-.17-.55-.32-.79-.42M374.42,176.07l-.17.2c-.43.52-.87.95-1.38,1.4-.72.62-1.12,1.1-1.22,2.08-.07.53.13.79.33,1.25.98.85,2.15,1.25,3.47,1.2.52-.02.97-.18,1.43-.35l.97.22c.62-.5.65-.55.88-1.32-.23-.58-.28-.93-.95-1.13-.2-.05-.52-.05-.73-.03-.05-.12-.1-.23-.13-.33-.57-1.32-1.35-2.08-2.33-3.07-.05-.07-.12-.08-.17-.12M312.27,36.82c-.87,1.05-1,1.77-1.08,3.12l-.57-.55-.3.08c-.07,1.73.65,3.88,1.8,5.19.35.4.65.55,1.17.68.73-.38.8-.65,1.2-1.37.47-1.58,1.6-4.3.67-5.82-.07-.1-.13-.18-.2-.27-.68.13-.68.2-1.05.77-.47.7-.62,1.62-.98,2.38-.12-.67-.08-1.1.02-1.77.13-.87.12-1.43-.42-2.17-.08-.12-.17-.2-.25-.28M171.65,277.73c-.4.82-.73,2.19-.47,3.09.62,2,4.45,3.65,6.22,4.65l.23-.42c-.63-2.23-1.6-5.82-3.63-7.14-.65-.43-1.6-.25-2.35-.18M55.69,191.65c.7,3.45,2.13,6.65,5.2,8.65.52.33,1.05.63,1.6.93-.4-3.18-1-6.02-3.74-8.07-.92-.67-2.02-1.1-3.07-1.52M122.89,109.79c-.12.12-.23.25-.37.37-.55.55-1.22.87-1.9,1.22.27,1.18,2.12,4.8,3.03,5.5.15.12.32.18.48.27l.28-.12c.88-1.18,2.4-2.9,2.35-4.43-.02-.67-.4-1.29-.95-1.65-.47-.32-1.02-.4-1.55-.52-.58-.12-.9-.32-1.38-.63M315.58,236.87c3.42-1.38,5.49-4.24,8.85-5.57.02-1.27.3-3.2-.72-4.15-.35-.33-.83-.5-1.27-.68l-1.77,4.34c-.1-1.13-.02-2.97-.65-3.88-.82.52-1.02,1.67-1.9,1.83l-.7-.77h-.5c-.9,1-1.12,3.23-1.08,4.57l-.27,4.32ZM297.88,107.7c-3.32,3.32-3.79,5.79-3.94,10.37l.28.42.23-.05c1.9-2.25,4.55-5.15,4.37-8.3-.05-.85-.38-1.82-.95-2.43M279.82,265.37l1.88-1.99c8.02-8,16.41-15.04,25.95-21.14-.52-2.15-.93-4.29-1.23-6.47-.27-2.03-.32-9.45-1.2-10.85l-.27-.1c-12.11,14.02-19.33,22.38-25.13,40.56M446.05,132.57c-.73.92-1.28,1.74-2.4,2.2-.82.33-1.58.55-2.07,1.32-.23,1.65,1.67,4.43,2.63,5.75.07.08.13.17.2.27.72-.23,1.17-.55,1.53-1.22,1.12-2.07-.48-4.27.07-6.3l.6.83.23-.12c.05-.82-.15-1.82-.6-2.52-.03-.08-.12-.15-.2-.22M477.38,274.97c-.08,2.14-.72,6.24.47,8.02.28.18.55.48.88.37.6-.2,1.1-.92,1.5-1.39l.57-.02.87,1.08c.32.02.52.05.83-.05.77-.52,1.33-.9,1.85-1.67.05-.38.18-.57-.07-.9-.87-1.12-3.2-1.2-4.52-1.4-.98-1.4-.78-3.15-2.39-4.05M76.72,232.29c-2.64.2-4.2.87-6.34,2.47,2.42.52,4.8.82,7.29.85,1.57.03,3.5.33,4.75-.7-.12-.72-.35-.97-.95-1.38-1.33-.92-3.17-1.27-4.75-1.23M284.29,110.35c-.82,3.47-.65,6.3,1.23,9.45,1.05,1.77,2.45,3.25,3.95,4.62.52-3.64,1-7.6-1.25-10.79-1-1.4-2.42-2.45-3.93-3.29M101.56,213.34c-1.52,2.67-3.33,5.79-2.57,9.01.2.87.62,1.42,1.37,1.9,1.32-2.5,3.62-6,2.8-8.91-.2-.72-.72-1.42-1.32-1.87-.08-.05-.18-.08-.28-.13M310.44,279.48c.05-6.74,1.23-26.06-2.12-30.87l-.25-.12c-12.44,7.84-29.47,23.11-32.77,37.72-2.02,8.9-1.55,18.89-.43,27.91.15,1.23.22,3.59.92,4.62.05.08.13.15.2.23h.4c5.7-11.36,12.27-21.03,22.1-29.33,4-3.37,8.49-6.2,11.96-10.17M173.99,140.6c-.48-.67-.97-1.45-1.62-1.99-1.65,2.35-2.75,4.95-2.2,7.91.25,1.35.9,2.85,1.95,3.77,2-3.27,2.32-5.92,1.87-9.69M383.36,168.14c1.6-1.52,3.57-4.45,3.54-6.77,0-.42-.05-.47-.17-.8-.48-.35-.35-.35-1.03-.38-3.12,1.82-6.14,4.43-7.65,7.75l.07.65c.55.38.7.27,1.35.27l3.9-.72ZM324.58,83.17c.8-1.27.78-2.14.47-3.6-.4-1.83-1.65-3.99-3.29-4.97-.55-.33-1.13-.62-1.75-.77-.83,1.48-1.63,3.35-1.15,5.09.35,1.23,1.5,2.4,2.64,2.99.97.48,2.05.85,3.08,1.27M200.53,211.07c-1.08,1.3-2.57,2.02-3.65,3.39l-.3.38c-.07.08-.12.15-.18.23,1.05,1.53,2.07,3,3.44,4.28,1.33-.83,2.55-4.25,2.9-5.77.1-.4.1-.7.02-1.1-.72-.43-1.57-.85-2.22-1.42M297.52,125.06c-1.22.52-2.92.98-3.54,2.25-.23.47-.08.62.05,1.1,1.2,1.05,2.5,1.13,4.05,1,.47-.03.93-.15,1.39-.25,1.63-.73,2.98-1.67,4.4-2.73-2.05-.9-4.05-1.59-6.35-1.37M190.53,300.97c-6.32-7.89-15.98-15.76-25.93-18.11l.18.28c.55.83,1.27,1.82,1.08,2.87-.07.4-.32.5-.6.75-.77.07-1.53.17-2.28.25l-.17.32c2.22,4.79,17.11,9.65,22.16,11.51,1.08.4,2.18.77,3.29,1.1.77.35,1.52.68,2.27,1.03M85.75,215.78c.97,4.12,2.25,7.47,6.09,9.79.38.22.77.43,1.15.65-.57-3.47-1.33-6.79-4.34-9.01-.87-.67-1.87-1.12-2.9-1.43M193.54,100.45c.5,2.18,1.04,3.83,3.04,5.12,1.43.93,3.32,1.37,4.97,1.8-.1-2.05-.3-3.6-1.9-5.05-1.63-1.48-3.98-1.83-6.1-1.87M442.73,121.94c-1.92,1.43-2.54,1.8-3.84,3.84-.08.12-.22.2-.32.3-.73-.17-.7-.22-1.33.18l-.6-1.58-.35-.02c-.85,1.8,1.27,3.02-.75,4.59.32.27.93,1,1.35.95,1.38-.17,6.34-3.83,6.99-5.1.28-.57.32-.93.33-1.55-.35-.83-.7-1.1-1.48-1.6M360.75,141c2.15-2.14,4.07-4.69,4.05-7.87,0-1.13-.28-1.7-1.08-2.52l-.42-.1c-2.12,1.87-3.92,4.59-4.02,7.5-.03.87.18,2.12.9,2.7.18.15.35.2.57.28M78.98,124.73c-.6.68-1.27,1.65-2.07,2.05l-.18-.57-.03.23-.82-1.03-.42-.03c-.28,1.17.3,2.17.9,3.15.88,1.48,2.5,3.72,4.19,4.27.57.18.78.15,1.28-.13-.07-.08-.13-.17-.18-.25-.18-.27-.35-.52-.52-.82l.23-.2c1.18.6,2.95,1.7,4.28,1.29l.2-.48c-2.05-1.53-4.12-2.97-6.35-4.2.12-.1.23-.2.33-.32.45-.48.4-.6.33-1.22-.07-.62-.42-1.18-.88-1.58-.13-.05-.22-.1-.3-.15M18.09,284.73c.33,1.67.4,2.83,1.93,3.87,1.27.85,3.19,1.22,4.65,1.67,1.42.45,3.3,1.23,4.77.77-.4-1.32-2.07-1.92-3.13-2.67.52-.73,1.57-1.87,1.55-2.78-.78-.12-1.82.02-2.35-.53-.03-.88.03-1.37-.43-2.13-.55,1.02-.98,1.8-2.18,2.1-1.43.37-3.34-.08-4.8-.28M260.21,74.8c-1.9,1.48-3.67,3.08-4.02,5.62-.27,2.02.52,3.69,1.43,5.42,2.05-1.97,3.94-4.45,3.94-7.42,0-1.05-.37-2.57-1.08-3.37-.08-.1-.18-.17-.27-.25M144.29,104.03c-.77,1.08-1.52,2.14-2.17,3.29-.43-.93-.7-1.65-1.58-2.23l-.57-.02c-.52.77-.62,3.47-.88,3.67-.12-.08-.23-.17-.35-.23-.38-.25-.58-.33-1.02-.4-.13,1.25.28,2.62.53,3.85.4.77.75,1.68,1.49,2.17,1.63-.93,1.53-4.9,2.83-5.24l.43.58c.75-.3,1.12-.9,1.43-1.63.55-1.25.65-2.18.28-3.5l-.43-.3ZM163.1,222.23c.08-1.73,1.1-4.97.17-6.27-.42-.15-.82-.33-1.25-.47-.12.82,0,1.22-.68,1.73-.85.67-1.55.85-2.62.68-1.42-.23-2.9-.82-4.34-.57-1.37,1.25-1.77,4.3-1.8,6.1-.02,1.22.23,1.8,1.12,2.65.25.23.52.45.78.68,1.42,1.23,2,3.13,3.92,3.67l.62-.2c.27-.85.08-1.23-.35-2.03-.05-.1-.12-.22-.18-.32-.57-.98-1.15-1.83-1.23-2.98l.32-.38c2.97.45,6.92,4.29,9.99,2.32.1-.07.18-.13.27-.2-.07-.7-.38-1.02-.9-1.48-1.17-1.05-2.6-1.92-3.82-2.93M38.46,208.11c-.37.62-.58.78-.33,1.52.1.32.43.73.6,1-.27.68-.03.38-.65.75-.98.58-1.74,1.85-2,2.97-.17.72-.08,1.02.3,1.62.82.32,1.14.47,2.02.25,1.18-.78,1.42-2.37,2.55-2.98.92.38,1.27.92,1.72,1.8l1.08,1.27c.52-.17.32-.02.58-.4.6-.85.95-1.24,1.9-1.67.07-.57-.18-.73-.55-1.17-.67-.78-1.45-1.27-2.43-1.53l-.58.17c-.02.4-.02.78.02,1.18-.68-.08-1.18-.42-1.77-.73-.95-1.33-1.08-3.05-2.45-4.04M266.22,89.24c2.28.62,4.32,1.1,6.72.98,1.23-.18,3.3-.48,4.15-1.48.52-.62.45-.92.35-1.64-.65-.83-1.22-1.15-2.28-1.3-.95-.13-1.9-.13-2.85-.05-2.18.93-4.18,2.03-6.09,3.48M452.1,293.07c1.77-.02,3.9.32,5.59-.13l.15-.3c-.7-1.05-1.52-1.25-2.68-1.48l-.27-.05c-1.22.32-3.05.7-3.75,1.85.93,2.45,4.84,6,7.19,7.09.68.32,1.53.5,2.24.07.22-.13.52-.47.68-.65-.02-1.55-.02-2.65-1.22-3.74-1.97-1.82-5.42-1.92-7.92-2.65M493.57,215.73c-.03-2,.18-4.12-.25-6.07-.5-.38-.6-.4-1.2-.5-.47,1.1-1,2.05-1.65,3.03-.75.3-.25.22-.93.08-.7-.13-1.02.03-1.65.27l-.35.95-.53-.08c-.17-.43-.27-.78-.3-1.23l-.42-.22c-.52.38-.53.45-.63,1.08-.17,1.05.02,2.4.17,3.45,2.67.92,5.14-.02,7.75-.77M79.87,223.65c.6,3.32,2.22,5.74,4.99,7.64,1.4.97,2.9,1.55,4.48,2.12-.85-3.44-2.33-5.95-5.37-7.85-1.25-.78-2.73-1.37-4.1-1.9M343.42,237.99c-.08.08-.17.17-.27.25-.83.77-1.28,1.03-2.35,1.32-1.15.3-1.6.53-2.2,1.57-1.12,1.93-3.55,8.92-2.99,10.87,2.68-3.33,7.71-9.61,7.8-14.01M191.38,66.45c-1.9.83-2.58,1.9-4.14,3.14-.52-.42-.77-.8-1.45-.78l-.32.4.05-.05c-.05.15-.1.28-.13.43-.33,1.14-.32,2.42.13,3.49l.45.38c.82-.08,1.77-.93,2.45-.77l.03.15c-.43.6-.92.97-.87,1.72l.55.18c1.97-.82,3.89-1.62,5.44-3.12l.22-.6c-.25-.28-.35-.53-.75-.6-.93-.13-2.12.43-3,.77.75-1.27,2.35-3.17,2.04-4.7l-.7-.03ZM215.64,232.39c-.05.08-.08.15-.13.23-.55.92-.95,1.17-1.87,1.63-.95.48-1.8.95-2.6,1.65-.17.68-.2.98.18,1.62.7,1.15,1.99,2.14,2.97,3.04l1.63,1.37c1.18-1.28,1.83-5.44,1.79-7.14-.02-.65-.12-1.12-.37-1.7-.52-.43-.98-.53-1.6-.7M391.83,113.76c-.65,1.48-1.5,3.17-.95,4.8.57.42.68.48,1.43.33,1.53-.28,3.05-1.83,4.57-1.78-.22,1.05-.48,2.02-.27,3.09.28.35.37.62.83.7.93.15,2.05-.22,2.87-.65.6-.53,1.39-.93,1.5-1.75-.58-.53-1.23-.8-1.95-1.13l.03-.32.97-.57.08-.38c-1.37-.88-4.34.62-5.15-.13-.38-.35-.77-1.33-.98-1.83l-.53-.15-.65.82c-.89-.1-1.14-.47-1.8-1.03M159.03,144.76c.55,3.08,1.9,6.67,4.62,8.52.65.45,2.13,1.28,2.9,1.25.25-2.35.17-4.47-1.32-6.45-1.55-2.03-3.84-2.75-6.2-3.32M142.15,204.42c1.4.28,2.8.64,4.2.8-.4-3.05-1.22-5.84-3.75-7.82-1.43-1.13-3.09-1.67-4.8-2.2.43,3.94,1.47,6.39,4.35,9.22M249.17,63.05c-1.83,2.07-2.47,3.99-2.3,6.77.13,2.4.88,6.24,2.2,8.2,1.8-4.3,3.24-8.55,1.23-13.12-.3-.67-.7-1.27-1.13-1.85M240.2,146.94c-.6,1.92-1,3.87-.05,5.75,1.3,2.58,4.92,4.12,7.49,5.1.22-2.5-.23-4.8-1.83-6.8-1.6-2.02-3.42-2.87-5.6-4.05M199.35,261.55c-1.22-5.04-1.78-10.29-2.33-15.44-.32-2.95-.43-6.14-1.27-8.99-.2-.67-.42-1.3-1.08-1.62-.87-.42-1.93-.38-2.88-.42-.98.07-2.12.03-3.07.33.02.77-.07.95.38,1.55.85.17,1.48.12,2.07.78-.03.08-.05.17-.08.25-1.04,3.45,3.22,4.04-.82,6.77.02.43.02.85.02,1.29-1.68.23-3.12-2.08-4.54-.2-.1.13-.18.27-.28.4-2.15.8-4.5-.97-6.67-.7-.22.63-.2.73-.05,1.4,1.75,2.14,9.02,2.85,9.05,4.22,0,.15-.17.68-.22.83.2.17.38.33.62.47.62.25,1.43.5,1.92.93.68.62,1.12,1.58,1.75,2.27,2.2,2.39,4.69,4.24,7.49,5.87M383.16,172.54l-.47,1.12-.53-.13c-.52-.12-1-.18-1.53-.2-.55.37-.65.58-.77,1.25-.05.27-.03.68-.02.97.88.25,2.12.38,2.93.79,1.6.78,2.53,2.55,4.27,3.12.18-.48.08-1.82.38-1.98.37.5.7,1,1.13,1.45l1.53.13c.37-.33.67-.67.98-1.07l1.82-.02c.25-.67-.07-1.67.25-2.82-.35-.58-.45-.6-1.05-.92-.62.03-1.07.12-1.67.28-2.19.62-4.87-1.77-7.27-1.97M149.67,212.58c-2.3,1.83-4.02,4.4-4.39,7.39-.12,1.03-.08,1.65.58,2.47.89.23,1.47.07,2.24-.38.27-.17.53-.33.8-.52,1.52-1.42,4.9-4.52,4.82-6.77-.03-.87-.23-1-.8-1.58-1.18-.12-2.15-.12-3.25-.6M150.45,149.32c.32,2.4,1.52,4.09,3.44,5.55,2.63,2.02,5.74,2.88,8.94,3.5-.9-3.29-2.27-5.8-5.37-7.5-2.23-1.23-4.49-1.59-7-1.55M310.49,223.03c-.83.58-2.2,1.27-2.47,2.3-.72,2.64,1.52,11.24,3.07,13.44.07.08.13.17.22.25l.3-.02c1.48-3.43,3.43-7.72,1.88-11.41-.73-1.73-2.29-2.82-3-4.57M354.28,240.26c-2.87,2.32-12.24,9.49-12.51,12.94-.03.4-.02.68.23,1.04.13.18.53.55.7.72l.47-.25.95-.52c3.02-1.63,6.95-1.93,9.64-4.1.02-1.55-.8-2.99-.77-4.45.07-1.77,1.43-3.62,1.28-5.37M399.5,278.63c-.58.85-1.18,1.48-1.28,2.54.27.3.67.55.62.97-.1,1.12-.7,2-.75,3.2-.53.17-1.05.32-1.58.45-1.48,2.1-1.45,6.22-2.08,8.77l.22.37c1.65.15,6.05-.73,7.24-1.87.23-.23.23-.28.37-.55-.35-.58-.13-.38-.58-.67-.8-.3-1.43-.33-1.92-1.07-.03-.93.13-1.18-.62-1.83-.22-.18-.43-.35-.67-.52-.05-1.15,2.17-3.55,2.93-4.47,2.25.1,3.14.05,5.12-1.13l.25-.5c-.55-.42-1.07-.55-1.72-.75-.6-.63-.65-1.38-.8-2.2-.5-.43-.55-.52-1.2-.58-.07.05-.15.08-.22.13-.68.4-1.1.58-1.9.62-.5-.27-.97-.57-1.42-.9M460.17,262.24c.07.88.3,1.65-.17,2.42-.58.05-1.05.02-1.63-.07-.62.37-.92.53-1.07,1.32-.13.73.12,1.27.52,1.84.78.37,1.32.43,2.15.1.57-.22,1.08-.53,1.6-.87-.12.65-.33,1.17-.58,1.77-.53,1.25-.7,2.33-.18,3.62.22.53.48,1.05.73,1.57l-.05-.48.2.32.62-1.18c.97.57,1.83,1.57,2.9,1.83l.4-.22c.08-.65.1-1.23.08-1.89,1.94,1.67,1.52,5.44,3.34,7.56l.37-.18c.35-1.39.1-2.77.17-4.17l.22-.1c.4.55.43,1.03.55,1.7.5.25.72.28,1.23.37.9.15,1.58.48,2.38.9.58-.37.62-1.15.8-1.8.48.15.23.03.73.33l.75-.3c.12-.55.22-.43-.13-.98-.88-1.37-2.03-2.02-3.37-2.88-.73.53-1.4,1.55-2.25,1.73-.28-.92.07-2.03-.5-2.75-.73-.12-1.22-.18-1.87.25-.25.17-.42.35-.63.55-.3-.65-.62-1.74-1.22-2.07.03.38.03.75.05,1.13l-.45-.07-.23-.38c-.32-.5-.17-.32-.5-.68-.87.08-1.32.27-2.1-.17-1.57-2.53.42-6.59-2.85-8.05M275.44,218.41c-8.35,11.34-11.1,28.71-10.44,42.52.1,2.03.08,4.29.43,6.27.07.35.18.62.33.95l.42.08.27-.22c4.29-7.52,11.07-17.98,11.36-26.7.12-3.75-.62-7.54-.93-11.27-.28-3.29.2-6.9-.68-10.07-.15-.58-.35-1.1-.75-1.57M211.6,287.8c3.38,10.62,5.67,23.43,14.66,30.92,3.07,2.55,6.64,4.5,9.92,6.75,5.52,3.8,10.69,8.1,16.31,11.76.02-10.07-.88-19.58-8.29-27.06-7.52-7.59-22.15-20.13-32.6-22.36"/>
      </g>
    </g>
  </g>
</svg>