<?xml version="1.0" encoding="UTF-8"?>
<svg id="Layer_1" xmlns="http://www.w3.org/2000/svg" version="1.1" viewBox="0 0 288 301.14">
  <!-- Generator: Adobe Illustrator 30.5.1, SVG Export Plug-In . SVG Version: 2.1.4 Build 3)  -->
  <path d="M265.45,35.58C242.74,6.09,198.03-.18,159.99,0c-48.44.24-70.66,1.47-91.98,10.13-26.41,10.72-50.76,35.68-59.81,61.41C.53,93.35-1.42,130.37.95,175.08c2.73,51.39,27.91,64.47,29.85,66.26,1.94,1.79-8.25,5.59-11.3,15.44-3.02,9.76-6.22,31.81,19.02,40.47,31.52,10.82,59.68-6.07,61.77-6.97,2.09-.89,12.24,10.73,41.44,10.86,25.8.11,39.79-12.94,42.18-13.68,2.39-.75,10.54,8.04,19.77,10.54,13.18,3.58,41.65,6.55,56.87-12.05,18.64-22.78-6.7-42.04-8.1-45.18-1.4-3.14,12.48-17.39,15.63-24.47,10.55-23.72,12.43-34.26,16.38-66.45,4.31-35.04,9.98-76.62-19.02-114.27ZM82.61,289.76c-11.34,4.26-45,6.78-53.03-11.08-7.65-17.04,1.03-28.47,9.93-28.36,6.87.08,21.01,5.54,23.66,10.25,2.71,4.82-.01,8.27-4.8,7.77-4.88-.51-6.12-2.4-8.52-6.2-.95-1.5-3.37-1.12-3.72.58-.83,3.97-1.33,13.23,11.25,15.63,12.99,2.48,19.48-3.55,21.59-6.37,2.73-3.64,2.56-8.27,4.71-8.85,2.15-.58,14.64-.33,15.8,1.41,1.16,1.74-.83,19.18-16.88,25.22ZM73.1,261.23c1.58-.12,3.56.41,3.39,1.08-.17.66-.7,2.99-2.32,5.79-2.48,4.3-7.87,3.77-7.69,3.47.58-.99,3.72-2.81,5.29-5.21,1.84-2.8.25-5.04,1.32-5.13ZM178.65,274.88c-2.4,8.85-16.13,17.28-32.26,18.27-14,.86-31.11-2.07-36.98-9.18-4.47-5.42.83-14.55,1.99-16.79,1.16-2.23,2.44-3.74,5.13-3.8,3.47-.08,6.39.16,8.4.32,2.64.21,6.1-.32,6.74.51,1.08,1.41-1.07,16.66,15.88,16.46,13.48-.17,16.05-14.64,16.88-15.3.83-.66,12.66.08,13.57.08s2.66,2.05.66,9.43ZM138.28,266.03c.1-.99,5.79-.22,8.77-.16,4.71.08,9.04,0,9.1,1.16.25,4.71-5.74,8.05-9.84,8.1-6.12.08-8.36-5.71-8.02-9.1ZM257.49,265.28c1.48,6.64.89,24.92-31.68,27.2-36.56,2.56-36.15-22.91-36.15-24.64s-.22-4,.74-4.38c1.24-.5,7.2-.5,7.86-.5s.55,2.85,1.66,4.98c2.43,4.67,5.75,7.12,11.77,8.81,9.4,2.63,20.65-.15,24.79-4.94,3.64-4.23,3.23-9.1,2.07-11.58-.45-.96-2.78-.81-3.22.02-.81,1.56-.86,3.08-1.36,4.74-.31,1.03-1.28,4.62-7.25,5.25-7.86.83-12.9-4.63-12.49-8.77.33-3.32,24.57-12.57,30.03-13.07,5.46-.5,11.66,9.84,13.24,16.87ZM204.54,261.98c.58-.16,2.56-.5,3.06.08s1.57,5.13-.16,4.88c-1.74-.25-3.78-4.71-2.9-4.96ZM232.24,241.74c-25.79,16.91-105.23,22.48-172.49,4.54C7.22,232.26,9.62,167.08,9,151.82c-.62-15.26-.32-63.58,8.25-81.47C33.55,36.32,69.6,11.56,112.53,9.42c12.38-.62,39.32-1.58,52.73-.75,13.41.82,52.31,2.33,67.6,10.54,22.28,11.96,39.88,30.69,43.74,77.14,4.75,57.13-4.33,119.15-44.36,145.4Z"/>
  <path d="M219.88,48.38c-19.59-11.86-53.48-9.04-83.43-9.22-28.65-.18-39.55,2.64-51.6,8.28-15.75,7.38-34.65,29.18-44.45,64.38-12.04,43.29-4.14,82.62,20.53,99.21,31.64,21.27,106.59,22.21,141.81,8.85,35.22-13.37,45.95-51.02,47.65-91.68,1.7-40.89-14.13-69.9-30.51-79.82ZM169.26,47.56c0-2.51,6.4-2.24,8.27-2.21,3.79.07,7.5.64,9.43.98,1.15.21,3,31.89-9.15,32.02-12.41.14-8.55-30.39-8.55-30.8ZM114.87,48.39c.21-2.48,3.31-2.89,4.96-2.89s8.27-.69,9.24.28c.97.96,1.02,32.53-6.76,31.97-8.69-.62-7.56-27.97-7.44-29.36ZM98.78,217.3c-1.52.51-35.19-6.65-46.48-25.34-11.37-18.82-8.59-42.44-8.59-43.7,0-2.3,1.52-4.93,5.18-5.05,3.67-.13,45.49-1.39,47.64-.13,2.15,1.26,2.33,25.71,2.83,39.48.36,9.73.94,34.24-.57,34.74ZM125.59,220.27c-1.14.88-17.06-.69-18.58-2.2-1.52-1.52-2.78-67.41-2.66-69.18.13-1.77.63-4.55,3.03-5.05,2.4-.51,15.25-.63,16.38.63,1.14,1.26,2.96,74.92,1.82,75.81ZM167.24,220.27c-1.39.51-35.09,1.12-35.72-.14-.63-1.26-2.78-70.98-2.78-71.74,0-1.04-.13-4.29,4.3-4.17,4.42.13,33.48-.78,34.11,1.11.63,1.89,1.49,74.44.1,74.94ZM191.42,215.07c-1.01,2.27-15.5,4.87-16.51,3.86-1.01-1.01-.42-64.61-.42-67.9,0-1.16-.51-5.43,2.65-5.3,3.16.13,13.01-.63,14.15,1.01,1.14,1.64,1.14,66.06.13,68.33ZM230.54,185.91c-5.26,9.83-12.64,22.3-33.04,28.24-1.43.42-.82-67.09-.1-67.19,3.54-.51,14.56-.36,21.26-.29,11.75.13,22.16-.18,23.3.45,1.73.96-6.16,28.96-11.42,38.79ZM234.57,139.5c-13.18,3.01-56.69-.38-93.6-.56-21.1-.11-80.04-1.13-83.43-1.32-4.33-.24-12.99-2.07-12.05-9.6.94-7.53,5.53-37.13,22.98-57.23,16.01-18.45,37.1-23.72,39.36-22.03,2.26,1.69-1.32,35.77,14.31,35.39,17.15-.41,13.18-39.34,15.07-39.16,1.88.19,24.86-.19,26.37.94,1.51,1.13-6.97,37.27,14.12,37.84,19.15.51,15.63-29.56,16.01-32.94.38-3.39,10.17-1.88,16.01.56,5.84,2.45,25.8,12.24,30.89,43.67,4.23,26.17,7.16,41.41-6.03,44.43Z"/>
</svg>