<?xml version="1.0" encoding="UTF-8"?>
<svg id="Layer_1" xmlns="http://www.w3.org/2000/svg" version="1.1" viewBox="0 0 275.17 300.17">
  <!-- Generator: Adobe Illustrator 30.5.1, SVG Export Plug-In . SVG Version: 2.1.4 Build 3)  -->
  <defs>
    <style>
      .st0 {
        fill: #2d2e2d;
      }
    </style>
  </defs>
  <path class="st0" d="M11.52,220.32c-.74,2.49-1.46,5.26-1.2,7.54.23,1.94.66,1.94,2.44,2.29,1.77.36,3.56.59,5.36.82,3.59.45,8.98,1.74,12.51.67,2.84-.86,3.02-5.93,3.21-9.1-7.77.33-15.11,1.72-22.32-2.21h0Z"/>
  <path class="st0" d="M37.57,51.55c1.69-2.18,3.45-4.29,5.25-6.31-12.18-4.49-23.7-13.63-29.04-25.72-2.37,2.16-4.28,4.78-5.52,7.75,4.78,12.46,15.81,22.87,29.3,24.28h.01Z"/>
  <path class="st0" d="M.52,92.75c.11,16.88,18.62,20.03,32.11,20.27,5.55-3.64,10.65-7.63,15.34-12-4.83,1.52-10.16,2-14.66.13-10.12-4.22-10.58-17.72-8.03-26.73,2.02-7.11,5.67-13.74,10.03-19.85-12.7-1.76-23.05-11.14-28.35-22.67-.15.97-.23,1.95-.23,2.97-.02,7.96,4.93,13.35,7.38,20.42,2.28,6.54-2.56,13.51-5.94,18.69-3.91,5.98-7.69,11.41-7.64,18.78h-.01Z"/>
  <path class="st0" d="M45.29,42.53c1.97-2.13,4.02-4.25,6.19-6.27-11.2-3.54-22.93-10.95-27.17-22.37-2.9.71-5.65,1.99-8.09,3.69,5.33,11.91,17.05,20.73,29.06,24.96h.01Z"/>
  <path class="st0" d="M35.17,229.74c1.67,1.01,4.6,1.06,6.26,1.26,2.59.32,5.19.53,7.79.66.2,0,1-.05,1.63-.05.06-.53.32-1.49.37-1.75.23-1.57.37-3.18.47-4.78-4.98-1.6-10.01-2.6-15.47-2.59-.14,2.29-.36,4.95-1.06,7.24h0Z"/>
  <path class="st0" d="M53.72,230.24c1.92,1.69,6.65,1.99,8.8,2.34.75.13,1.51.21,2.25.34.26.05.53.02.72.02.07-.51.44-1.59.51-1.84.05-.17.08-.33.11-.49-2.28-.76-4.52-1.72-6.75-2.65-1.76-.74-3.49-1.42-5.23-2.05-.05,1.39-.15,2.92-.42,4.32h0Z"/>
  <path class="st0" d="M34.35,59.84c-6.21,9.77-14.36,29.95-.68,37.68,5.65,3.21,13.46,1.45,19.13-1.3,5.39-5.68,10.22-11.96,14.55-18.94,7.41-11.94,11.77-25.7,19.93-37.14-13.27-29.51-43.28,4.49-52.93,19.7ZM65.77,66.37c-3.07,4.24-6.42,8.46-10.1,12.18-2.3,2.33-5.8,5.91-9.42,5.75-8.66-.37-4.85-14.03-2.83-18.41,3.14-6.83,7.81-13.2,12.89-18.72.08-.08.15-.15.23-.21.02-.03.05-.07.07-.1,3.54-3.62,15.3-14.32,16.71-3.15.98,7.7-3.18,16.61-7.55,22.66Z"/>
  <path class="st0" d="M90.87,220.68c-8.11,3.92-17.64,2.59-24.8-3.6-11.32-9.77-24.28-18.55-39.53-20.46-4.03-.51-9.37-.39-13.68,1.34-.34.31-.64.41-.9.37-2.65,1.25-4.83,3.19-5.92,6.1-2.56,6.77,4.92,12.41,10.42,14.34,6.3,2.22,12.83,1.02,19.33.66.06,0,.11,0,.16,0,1.68-.09,3.36-.13,5.02-.03,4.41.26,8.61,1.24,12.72,2.65.15-.02.28.02.38.13,1.3.46,2.59.94,3.87,1.47,5.25,2.15,10.57,5.06,16.35,5.33,6.96.32,12.32-3.37,16.56-8.31h.02Z"/>
  <path class="st0" d="M21.39,259.21c5.15.4,10.49-1.59,15.73-1.57,5.24,0,10.38.95,15.48,2,6.81,1.39,12.08,2.17,18.72-.37,15.23-5.81,22.74-20.06,23.12-35.35-2.69,8.11-6.88,16.12-12.96,21.71-11.46,10.53-26.18,4.14-38.85-.48-7.53-2.73-16.46-6.58-24.65-5.06-5.11.94-10.7,4.99-8.46,10.95,1.79,4.76,6.98,7.79,11.87,8.17Z"/>
  <path class="st0" d="M54.46,33.64c3.77-3.14,7.88-5.79,12.45-7.4,10.58-3.72,18.06,1.94,22.44,11.17.36-.44.7-.88,1.07-1.32,3.16-3.71,6.6-6.85,10.25-9.48-.57-13.35-10.18-24.27-24.54-20.65-8.78,2.22-14.9,9.68-23.27,12.3-5.77,1.79-13.48-3.64-19.04-4.7-2.15-.41-4.34-.46-6.5-.22,4.76,10.55,16.56,17.32,27.14,20.31h0Z"/>
  <path class="st0" d="M120.61,281.9c2.71-1.85,2-3.96-.09-5.79-2.13-1.83-7.84-3.68-6.75,3.83.16,1.1,1.1,2.31,1.82,3.17,1.79.1,3.6-.24,5.02-1.21Z"/>
  <path class="st0" d="M137.33,267.9c-3.71-8.07-11.15-13.89-20.26-10.63-9.47,3.4-17.46,17.12-6.63,24.19.23.15.48.28.74.4-2.74-8.37,9.94-15.36,13.49-5.75,3.16,8.55-9.91,11.83-15.48,8.6-18.05-10.47,4.67-38.91,21.49-29.58-1.59-5.13-1.3-10.33,2.06-15.7,2.72-4.36,6.38-7.93,8.64-12.61,3.7-7.62,2.31-15.31-3.78-21.24-12.78-12.45-31.02.8-40.9,10.96,1.76,18.33-5.99,36.69-23.35,44.73-5.01,2.31-10.42,3.6-15.92,2.77-6.65-.99-13.02-3-19.8-3.23-5.67-.2-11.1,1.75-16.66,1.56-1.77-.05-3.57-.45-5.29-1.11-6.09,11.99-11.31,33.34,5.68,38.2,15.89,4.54,27.11-14.32,42.66-12.86,9.35.87,18.47,3.93,27.7,5.61,11.78,2.16,23.9,2.83,35.58-.31,6.14-1.65,11.06-4.68,12.14-11.4.69-4.26-.31-8.73-2.09-12.61h-.02ZM121.46,210.21c4.7-.57,8.24,2.95,8.71,7.39.03.11.06.26.05.46,0,.1,0,.21-.03.31-.36,4.37-3.32,8.43-7.92,8.94-4.65.51-8.56-3.28-8.6-7.87-.03-4.39,3.37-8.68,7.79-9.23h0Z"/>
  <path class="st0" d="M160.52,19.27c3.41-3.15,7.1-6.01,11.01-8.55-17.82-5.17-37.25-8.48-55.54-4.16-5.23,1.23-11.35,3.14-15.74,6.64,1.76,3.63,2.69,7.75,2.88,11.71,16.65-10.66,37.43-11.33,57.39-5.64h0Z"/>
  <path class="st0" d="M133.67,179.54c12.68-3.34,25.65-5.83,38.67-7.25-.17-2.68-.25-5.38-.25-8.07-18.8,1.95-40.05,4.96-56.64,14.25-1.76.99-9.8,5.15-7.18,7.14,1.26.97,5.19,0,6.46-.28,4.34-.94,8.53-2.87,12.8-4.1,1.94-.55,3.9-1.09,5.85-1.61.11-.05.21-.07.3-.08h-.01Z"/>
  <path class="st0" d="M140.04,188.34c6.17-1.59,12.15-3.52,18.43-4.65,4.9-.9,9.92-1.65,14.93-1.86-.37-2.16-.63-4.33-.84-6.53-13.25,1.39-26.51,3.87-39.44,7.32-8.75,5.54,2.22,6.92,6.92,5.72h0Z"/>
  <path class="st0" d="M149.99,195.37c.85.09,2.36-.61,3.19-.83,2.93-.75,5.95-1.17,8.93-1.65,4.47-.71,8.95-1.36,13.45-1.94-.62-1.98-1.14-3.98-1.56-6.01-3.8.06-7.62.52-11.38,1.07-3.92.56-7.73,1.56-11.53,2.6-.12.14-.24.26-.38.34-2.38,1.45-5.11,5.94-.72,6.42h0Z"/>
  <path class="st0" d="M108.82,112.85c-.3-2.44-2.25-4.38-4.71-4.61-2.46-.22-4.84,1.4-4.64,4.05.41,5.29,9.45,6.56,9.35.56Z"/>
  <path class="st0" d="M116.9,112.76c-.72-5.83-5.1-10.54-11.04-11.08-6.64-.61-12.79,4.6-12.27,11.48,1.07,14.17,23.55,14.87,23.32-.4h0ZM103.39,105.17c4.02-.76,7.17,2.09,7.85,5.83.03.13.07.28.07.47.01.1.01.21,0,.31-.08,3.86-2.7,7.65-6.72,8.22-3.88.54-7.39-2.42-7.6-6.33-.21-3.84,2.55-7.76,6.4-8.49h0Z"/>
  <path class="st0" d="M14.99,178.02c.14-.02.25,0,.38.05.7.1,1.4.16,2.1.21,6.55.33,12.7-2.54,19.24-2.1,9.38.62,29.48,13.28,34.34-.97,3.15-9.23-5.13-25.14-15.07-14.88-1.59,1.64-2.52-.49-1.28-1.78,2.92-3.02,7.57-6.1,11.92-4.5,4.9,1.79,6.99,8.48,7.46,13.18,1.22,12.25-7.98,19.38-19.71,17.19-8.57-1.6-15.82-6.14-24.81-4.72-4.33.68-8.35,1.61-12.47,1.64,1.45,4.25.64,8.85-1.52,12.8,12.92-4.13,28.97,3.36,39.46,9.99,7.91,5.01,14.68,14.33,24.28,15.67,5.4.76,11.51-1.13,15.71-4.62,9.27-9.7,25.39-22.78,39.46-16.01,10.18,4.88,13.87,16.59,9.65,26.68-1.86,4.44-4.77,8.15-7.66,11.94-6,7.88-4.88,14.81.26,22.89h0c5.34,7.19,7.41,17.72,2.78,25.66,12.35,13.68,34.18,6.34,47.84-1.79-13.91-10.91-19.89-30.02-16.16-47.81,2.07-9.85,8.53-19.8,17.85-24.33-2.26-1.93-4.32-4.08-6.08-6.47-2.78-3.79-4.88-7.87-6.47-12.15-.07.03-.14.05-.21.06-8.09,1.06-16.47,1.85-24.36,3.95-2.78.74-5.9,1.18-7.11-2.29-.71-2.07-.03-3.95,1.22-5.55-2.77.74-5.54,1.41-8.35,1.88-3.13.52-9.57.6-10.87-3.3-.55-1.64,0-3.15,1.01-4.48-1.14.33-2.28.66-3.4.99-3.95,1.21-16,7.31-19.47,2.59-4.15-5.67,12.38-13.16,15.42-14.49,16.03-7.02,34.31-10.12,51.7-11.97.02-1.64.07-3.28.13-4.9-3.86,3.93-9.68,5.07-12.27-1.95-1.21-3.28-1.38-7.24-1.34-11.06-4.03,2.63-7.64.1-8.18-5.03-.75-7.24-.16-14.76.43-22,.51-6.15,1.2-12.34,2.13-18.5-3.21,2.39-7.73,3.22-9-1.72-1.1-4.31-.03-9.91.42-14.24.52-4.87,1.3-9.79,2.4-14.65-3.33,1.25-7.98,1.4-9.69-1.97-1.49-2.94.28-7.79,1.15-10.64,3.86-12.55,10.63-23.57,19.47-32.55-25.04-6.68-51.29-3.31-67.95,18.26-7.61,9.84-11.32,21.89-17.4,32.63-5.94,10.48-13.04,20.41-21.56,28.95-11.16,11.18-26.18,17.16-36.73,28.93-8.02,8.93-18.42,26.63-12.19,38.93,2.56,5.04,7.71,7.55,13.09,8.34h0ZM68.96,103.19c6.17,4.18,17.13-4.26,21.94-7.09,7.27-4.27,16.26-7.65,24.57-4.32,6.75,2.7,11.11,9.01,14.78,14.97,3.87,6.32,6.91,13.19,15.59,12.72,1.44-.08.15,3.08-1.18,3.15-4.37.24-7.4-1.24-9.85-3.63-7.71,13.02-24.28,22.83-39.43,18.5-12.89-3.68-18.69-18.54-19.58-30.92-3.03.86-6.27,1.16-8.56-.4-1.2-.8.57-3.76,1.72-2.98Z"/>
  <path class="st0" d="M145.99,41.73c-2.65,4.99-5.14,10.39-6.32,15.95-.29,1.39-1.01,3.87-.24,5.25,1.41,2.56,5.65,2.05,8.16.99,2.51-9.64,6.36-18.95,12.03-27.05,9.78-13.96,24.91-21.19,41.31-24.44,14.32-2.85,30.01-3.52,44.47-.71,0-9.08-12.71-10.8-19.9-11.41-15.43-1.3-31.17,1.49-45.14,8.22-1.75.84-3.44,1.74-5.09,2.68-.18.17-.39.3-.61.34-12.36,7.21-21.8,17.27-28.67,30.19h0Z"/>
  <path class="st0" d="M161.28,38.11c-7.64,10.79-11.62,23.94-13.65,36.89-.75,4.76-1.24,9.56-1.34,14.38-.02,1.26-.23,2.8.05,4.05.07.29,0,.63.09.91,1.23,3.21,5.34,2.19,7.09-.01,1.94-11.55,4.81-22.97,9.14-33.77,6.78-16.94,17.48-29.58,35.43-34.82,16.89-4.93,36.54-4.52,53.4.43,2.05.61,4.49,1.28,6.65,2.32,7.94-10.35-15.79-14.08-21.86-14.65-25.91-2.48-58.79,1.41-75,24.29v-.02Z"/>
  <path class="st0" d="M255.24,43.46c-6.68-2.74-13.95-4.23-21.1-5.05-16.12-1.82-34.35.09-47.19,10.93-11.81,9.98-17.03,26.34-20.41,40.88-3.38,14.5-5.09,29.49-5.33,44.37-.08,4.8-.13,9.72.51,14.49.16,1.16.26,2.48.77,3.56,2.39,5.22,7.33,4.03,9.88.1.13-2.82.29-5.6.44-8.33.79-14.04,2.48-29.14,10.29-41.24,2.47-3.83,5.45-6.94,8.76-9.48-7.85-4.53-11.08-13.81-8.72-22.56,6.78-25.18,40.19-29.98,61.69-24.2,5.46,1.47,10.8,3.83,15.08,7.27,8.7-2.91-.78-9.16-4.65-10.74h-.02Z"/>
  <path class="st0" d="M259.1,33.14c-.52-.46-1.11-.84-1.77-1.18-.17-.02-.32-.1-.44-.23-1.18-.59-2.47-1.03-3.61-1.45-6.37-2.34-13.26-3.46-19.98-4.13-15.35-1.52-32.3-.52-46.2,6.79-14.27,7.53-21.08,22.62-25.63,37.37-2.36,7.62-4.16,15.43-5.52,23.34.03.24,0,.52-.14.83-1.25,7.53-2.13,15.12-2.67,22.69-.38,5.44-.64,10.91-.45,16.35.13,3.56,1.06,10.8,5.94,6.84.02-.98.05-1.94.06-2.85.15-18.46,2.44-37.26,7.58-55,5.07-17.44,13.57-34.57,30.92-42.42,16.89-7.64,37.72-6.8,55.12-1.26,2.33.74,5.23,1.59,7.76,2.91,3.01-1.64,1.09-6.76-.99-8.6h.02Z"/>
  <path class="st0" d="M258.47,57.32s-.01,0-.02,0c-1.16-.98-2.4-1.87-3.73-2.67-10.38-6.19-23.71-7.63-35.53-6.32-12.06,1.32-25.96,6.11-31.82,17.63-4.86,9.54-2.24,20.87,7.7,25.51,4.56-2.8,9.65-4.67,15.04-5.79-4.4-10.07,3.13-19.8,13.79-21.97,12.56-2.55,22.17,11.3,15.58,21.59,4.98.78,9.81,2.11,14.28,4.3,10.24,1.33,13.97-11.8,12.34-19.75-1.03-5.09-3.83-9.3-7.63-12.51h0Z"/>
  <path class="st0" d="M208.35,143.26c-.05-.32-.08-.66-.13-.99-6.81.16-15.65,2.82-17.54,10.07-1.75,6.71.91,13.99,7.88,15.77,3.65.93,7.58.69,11.37.53-.7-8.45-1.14-16.93-1.59-25.36h0v-.02Z"/>
  <path class="st0" d="M248.2,138.58c-1.92-.15-4.17.71-6.05.32-3.96-.85-2.82-7.5-3.03-10.57-.55-7.4-1.78-18.87-10.47-21.16-17.69-4.65-19.25,20.23-18.1,32.28.06.15.08.33.06.54.06.55.11,1.08.18,1.56.02.1.05.21.05.33.48,8.96,1.01,17.95,1.8,26.9.14.21.15.52.08.86.34,3.84.72,7.65,1.18,11.47.75,6.11,1.57,14.73,7.15,18.59,4.99,3.46,13.71,2.3,16.84-3.13,4.17-7.24,1.41-16.42.69-24.11-.41-4.31,2.14-4.45,5.9-4.8,3.6-.33,7.7-.79,10.54-3.28,4.72-4.13,3.43-12.56,1.75-17.9-1.36-4.33-3.86-7.55-8.56-7.92v.02Z"/>
  <path class="st0" d="M251.86,92.51c-9.6-4.61-20.55-5.22-31.03-5.04-18.93.55-34.49,8.53-40.87,27.07-4.56,13.25-4.72,27.61-5.21,41.46-.3,8.41-.1,17.47,1.57,26.08.06.11.08.25.08.41,2.16,10.77,6.65,20.81,15.47,27.99.25.21.53.39.79.6.09.03.17.09.23.17,5.16,3.93,11.23,6.48,17.61,7.93.22-.06.39,0,.52.11,7.46,1.62,15.32,1.77,22.65.85,13.32-1.65,24.84-8.25,31.34-20.21,11.68-21.56,8.3-49.37,6.48-72.82-1.14-14.65-5.57-27.84-19.64-34.6h0ZM260.57,156.29c-.67,8.96-7.16,13.47-15.57,14.39-.68.08-2.8.56-3.9.53,0,.1.02.22.05.3,1.25,3.88,1.34,8.88,1.33,12.92,0,8.3-2.56,17.87-11.8,19.85-12.88,2.77-17.32-8.03-18.87-18.77-.65-4.56-1.17-9.16-1.59-13.77-5.92.2-13.28,1.09-18.11-2.93-4.62-3.86-5.26-11.63-3.54-17.05,2.59-8.19,11.3-12.01,19.39-12.57-.91-14.76,2.46-39.04,21.39-35.25,8.89,1.77,11.1,12.08,11.95,19.74.31,2.75-.6,8.75.85,11.12,1.14,1.84,4.26.59,6.27.61,10.31.08,12.77,12.55,12.15,20.88h0Z"/>
  <path class="st0" d="M255.7,214.31c-3.82,2.99-8.21,5.3-12.94,6.94,9.25,6.87,12.78,20.42,12.54,31.43-.46,20.97-29.28,32.41-45.61,20.94-11.25-7.91-16.73-21.47-12.49-34.67,1.99-6.17,5.68-12.16,10.22-16.96-5.83-1.67-11.3-4.24-15.98-7.7-14.17,4.8-19.55,21.13-18.48,34.74,1.65,20.97,14.02,36.19,34.54,40.93,9.72,2.24,20.69,2.84,30.52.78,16.62-3.46,33.22-14.11,36.4-31.88,2.03-11.34-.03-24.05-6.46-33.72-2.55-3.86-7.21-9.94-12.25-10.84h-.01Z"/>
</svg>