<?xml version="1.0" encoding="UTF-8"?>
<svg id="Layer_1" xmlns="http://www.w3.org/2000/svg" version="1.1" viewBox="0 0 1809.6 449.7">
  <!-- Generator: Adobe Illustrator 30.5.1, SVG Export Plug-In . SVG Version: 2.1.4 Build 3)  -->
  <defs>
    <style>
      .st0 {
        fill: #2d2e2d;
      }
    </style>
  </defs>
  <path class="st0" d="M1581.51,384.21c8.44-.85,14.2,6.76,21.38,9.72,2.91,1.22,6.02,2.07,9.22,2.67-5.69-3.72-9.85-8.93-14.69-14.77-3.24-3.91-9.84-9.96-15.36-10.02-4.6-.05-6.82,4.5-4.33,8.39.97,1.53,2.36,2.9,3.79,4.01Z"/>
  <path class="st0" d="M1601.11,206.03c-.38,3.92-.16,8.02.65,11.89,1.21-.07,2.43-.14,3.64-.2,2.91-.16,5.8-.31,8.71-.47,3.64-8.07,2.26-18.78.3-27.21-8.04,2.61-12.46,7.3-13.31,15.99Z"/>
  <path class="st0" d="M1636.56,184.96c-1.17.2-2.36.39-3.53.6v1.78c1.18-.07,2.36-.13,3.53-.2v-2.18Z"/>
  <path class="st0" d="M1636.56,190.23c-1.17.06-2.34.13-3.53.2v4.48c1.18-.06,2.36-.11,3.53-.18v-4.49Z"/>
  <path class="st0" d="M1636.56,197.82c-1.17.07-2.34.13-3.53.18v3.92c1.18-.05,2.36-.09,3.53-.15v-3.95Z"/>
  <path class="st0" d="M1636.56,204.87c-1.17.06-2.34.1-3.53.15v4.83c1.18-.05,2.36-.09,3.53-.14v-4.84Z"/>
  <path class="st0" d="M1633.03,216.26c1.18-.07,2.36-.13,3.53-.2v-3.25c-1.17.05-2.34.09-3.53.15v3.3Z"/>
  <path class="st0" d="M1639.05,184.56v2.45c1.61-.09,3.23-.18,4.84-.28-.02-.94-.03-1.9-.06-2.85-1.6.22-3.2.44-4.78.68Z"/>
  <path class="st0" d="M1639.05,194.6c1.66-.08,3.32-.17,4.99-.25-.03-1.52-.06-3.02-.09-4.53-1.63.09-3.26.18-4.9.28v4.5Z"/>
  <path class="st0" d="M1639.05,201.67c1.7-.07,3.41-.14,5.11-.22-.02-1.33-.05-2.68-.07-4.01-1.69.08-3.37.17-5.05.25v3.98Z"/>
  <path class="st0" d="M1639.05,209.61c1.76-.07,3.5-.15,5.26-.22-.02-1.61-.06-3.22-.09-4.84-1.72.08-3.45.15-5.17.22v4.84Z"/>
  <path class="st0" d="M1639.05,215.94c1.79-.09,3.59-.2,5.39-.29-.02-1.06-.05-2.1-.06-3.16-1.78.08-3.56.15-5.33.22v3.23Z"/>
  <path class="st0" d="M1594.99,256.3c4.3,1.92,8.79,3.44,13.39,4.65h.05c.13.05.24.08.37.1,3.22.84,6.48,1.54,9.78,2.11h.01c.13-.02.25,0,.34.06h.01c7.88,1.36,15.92,2.06,23.75,2.53-9.7-4.77-15.83-13.53-13.46-26.2,1.71-9.12,7.83-16.54,15.77-20.85-14.96.8-29.94,1.6-44.91,2.39-.03.01-.07.01-.1.01-7.43.39-14.87.78-22.3,1.18-.1,2.48-.14,4.98-.13,7.46.02,4.55-.23,9.32,1.78,13.53,3.02,6.31,9.49,10.29,15.65,13.02Z"/>
  <path class="st0" d="M1624.62,429.25c6.08.75,12.42-1.74,16.55-6.21,5.99-6.49,4.76-13.85,2.53-21.54-2.2-7.61-1.92-15.33.22-22.9,2.29-8.14,8.33-16.46,2.42-24.5-4.88-6.64-13.74-8.85-21.56-8.94-4.3,3.16-9.77,3.54-15.5,3.2-9.35-.57-17.43,1.22-25.4,4.91,2.16,5.02,1.84,10.64-.68,15.47t-.01.02c.72,0,1.45.09,2.17.28,6.78,1.8,12.32,7.7,16.39,13.14,5.61,7.48,12.08,13.11,21.29,15.58h.03c.44.02.87.03,1.31.05,1.48.03.15,3.19-1.2,3.16-.36-.01-.7-.02-1.05-.03-.06,0-.1,0-.16-.01-.02,0-.03.01-.06,0-.02,0-.05-.01-.07-.01-5.86-.23-11.85-1.1-17.44-2.84-8.08-2.51-14.8-11.6-23.8-10.65-.01,0-.01.01-.01.01-.07.02-.14.03-.21.03-.03,0-.08-.01-.11-.01s-.08.01-.12.01c-3.92.54-5.87,5.62-3.75,8.98.72,1.16,1.92,1.9,2.93,2.77,1.31,1.1,2.49,2.18,3.39,3.54,9.53,1.67,18.78,7.15,25.48,13.95,5.25,5.32,8.24,11.56,16.4,12.56Z"/>
  <path class="st0" d="M1646.34,183.56c.02,1.01.05,2.02.06,3.03,1.55-.08,3.1-.17,4.64-.25-.02-1.11-.04-2.23-.08-3.34-1.54.18-3.08.37-4.62.56Z"/>
  <path class="st0" d="M1646.45,189.68c.03,1.51.06,3.02.09,4.54,1.56-.08,3.11-.16,4.68-.24-.03-1.53-.07-3.05-.11-4.56-1.55.08-3.1.17-4.65.26Z"/>
  <path class="st0" d="M1646.6,197.3c.02,1.36.05,2.7.08,4.05,1.56-.07,3.14-.13,4.71-.2-.03-1.37-.07-2.72-.1-4.09-1.56.08-3.13.16-4.69.24Z"/>
  <path class="st0" d="M1646.74,204.45c.02,1.61.06,3.23.09,4.84,1.59-.06,3.16-.13,4.75-.2-.03-1.61-.08-3.23-.12-4.84-1.57.07-3.15.13-4.72.2Z"/>
  <path class="st0" d="M1651.73,215.26c-.02-1.02-.05-2.05-.08-3.07-1.59.07-3.17.14-4.76.2.02,1.05.03,2.09.06,3.13,1.6-.08,3.18-.16,4.78-.25Z"/>
  <path class="st0" d="M1693.07,213.07c4.83-10.43,4.17-23.29-1.61-33.3-.02-.05-.03-.09-.05-.14-7.61.31-15.17.85-22.65,1.53-4.47,10.47-4.79,23,.4,33.18,7.96-.41,15.94-.84,23.9-1.26Z"/>
  <path class="st0" d="M1694.29,292.97c1.49.92,3.11,1.63,4.81,2.17,0,.01.01.01.02.01-4.9-7.23-5.84-18.82-6.5-26.68-3.17.17-6.32.33-9.47.49.01,8.98,3.3,19.16,11.14,24.01Z"/>
  <path class="st0" d="M1704.54,296.12c.08.06.14.13.2.21,1.99.24,4.06.35,6.13.35-2.7-4.76-3.46-11.01-4.24-16.16-.64-4.23-1.14-8.5-1.44-12.79-3.32.22-6.63.41-9.95.6t-.01.01c.76,8.87,2.16,22.51,9.32,27.79Z"/>
  <path class="st0" d="M1708.5,179.36c.03,1.23.07,2.46.1,3.7,1.48-.03,2.97-.06,4.45-.09-.02-1.17-.06-2.34-.09-3.53-1.48-.03-2.98-.07-4.46-.08Z"/>
  <path class="st0" d="M1708.68,186.19c.05,1.34.08,2.69.12,4.05,1.48-.03,2.97-.08,4.45-.12-.03-1.33-.07-2.68-.12-4.01-1.48.02-2.97.06-4.45.08Z"/>
  <path class="st0" d="M1708.89,193.35c.02,1.02.06,2.03.08,3.06,1.48-.06,2.95-.1,4.44-.15-.03-1.01-.06-2.01-.08-3.01-1.48.03-2.95.07-4.44.1Z"/>
  <path class="st0" d="M1709.06,199.51c.05,1.64.09,3.29.14,4.93,1.47-.06,2.94-.13,4.41-.18-.05-1.63-.08-3.26-.13-4.9-1.47.06-2.95.1-4.43.15Z"/>
  <path class="st0" d="M1713.82,211.96c-.05-1.54-.08-3.08-.13-4.61-1.47.06-2.93.13-4.4.18.05,1.55.09,3.1.13,4.65,1.47-.08,2.93-.15,4.4-.23Z"/>
  <path class="st0" d="M1714.66,296.58c2.34-.1,4.67-.29,6.87-.47-2.39-4.45-2.91-10.39-3.53-15.01-.63-4.71-1.07-9.48-1.29-14.24-2.72.23-5.45.44-8.17.63-.25.02-.52.03-.78.06.29,3.65.71,7.3,1.25,10.91.89,5.77,1.69,13.17,5.5,17.86.06.08.1.17.14.26Z"/>
  <path class="st0" d="M1715.48,179.51c.02,1.14.06,2.28.09,3.41,1.61-.02,3.22-.06,4.83-.08-.05-1.05-.09-2.08-.14-3.11-1.59-.08-3.18-.16-4.78-.22Z"/>
  <path class="st0" d="M1715.66,186.06c.03,1.33.07,2.67.1,4,1.66-.05,3.31-.08,4.95-.13-.06-1.32-.12-2.64-.17-3.96-1.63.03-3.25.06-4.88.09Z"/>
  <path class="st0" d="M1715.84,193.18c.02,1,.06,2,.08,2.99,1.69-.06,3.38-.11,5.07-.17-.05-.98-.09-1.95-.14-2.93-1.67.03-3.33.08-5.01.12Z"/>
  <path class="st0" d="M1716,199.28c.05,1.62.08,3.24.13,4.87,1.74-.08,3.47-.15,5.21-.23-.07-1.61-.14-3.22-.21-4.83-1.71.07-3.41.13-5.13.18Z"/>
  <path class="st0" d="M1721.68,211.55c-.07-1.52-.14-3.02-.21-4.53-1.75.07-3.5.15-5.26.22.04,1.53.08,3.06.13,4.59,1.78-.09,3.56-.18,5.34-.28Z"/>
  <path class="st0" d="M1695.87,241.03c.07-.22.1-.42.08-.62-.01-.06-.03-.11-.03-.17-.01-.06-.02-.13-.03-.17-2.08-11.94-30.82-11.16-30.99,1.53-.16,12.48,29.05,11.7,30.98-.56Z"/>
  <path class="st0" d="M1631.5,239.81c-2.45,15.85,10.15,24.22,24.28,26.47.1.01.2.06.27.09h.03c6.9.2,13.81.17,20.69-.18h.05c8.04-.4,16.09-.86,24.14-1.4,2.92-.2,5.87-.39,8.83-.6,3.98-1.75,7.87-3.59,11.09-6.62,7.07-6.65,7.75-16.9,4.38-25.65-3.72-9.69-13.85-15.95-24.11-16.19-11.07.6-22.12,1.18-33.19,1.77-.18.08-.36.1-.51.02-4.22.23-8.42.45-12.64.68-11.28,1.93-21.5,9.94-23.32,21.62ZM1678.38,225.59c10.07-.79,29.59,1.64,31.01,14.69.06.13.08.31.07.55,0,.13-.01.24-.05.37-1.04,11.28-14.88,15.5-24.39,16.26-9.5.75-31.02-1.7-31.07-15.24-.06-11.53,15.51-15.92,24.43-16.63Z"/>
  <path class="st0" d="M1725.38,295.8c2.05-.15,4.14-.32,6.22-.55-2.63-7.98-4.17-16.57-4.17-25.04,0-1.47.05-2.93.14-4.39-2.76.3-5.53.57-8.3.83.18,3.54.49,7.08.92,10.61.68,5.7,1.14,13.88,5.01,18.56.07,0,.13-.01.18-.01Z"/>
  <path class="st0" d="M1722.82,179.87c.04.98.09,1.95.14,2.93,2.08-.05,4.17-.08,6.26-.11-.03-.78-.07-1.55-.1-2.33-2.09-.18-4.19-.36-6.3-.48Z"/>
  <path class="st0" d="M1723.09,185.92c.06,1.32.12,2.63.17,3.95,2.08-.06,4.16-.1,6.25-.16-.06-1.3-.11-2.61-.17-3.91-2.08.03-4.17.08-6.25.11Z"/>
  <path class="st0" d="M1723.4,192.99c.05.98.08,1.94.13,2.91l6.24-.21c-.05-.95-.08-1.91-.13-2.85-2.08.05-4.16.1-6.24.15Z"/>
  <path class="st0" d="M1723.67,199.01c.07,1.6.14,3.19.21,4.8,2.08-.09,4.15-.18,6.23-.28-.07-1.57-.14-3.16-.21-4.75-2.07.08-4.15.15-6.23.22Z"/>
  <path class="st0" d="M1727.38,211.24c1.01-.06,2.03-.1,3.04-.16-.07-1.48-.13-2.95-.2-4.44-2.07.09-4.14.17-6.22.26.07,1.51.14,3,.21,4.51,1.05-.06,2.1-.11,3.16-.17Z"/>
  <path class="st0" d="M1734.57,294.86c1.33-.18,2.65-.41,3.96-.69-1.97-5.25-3.06-10.93-2.94-16.38.09-4.91,1.44-9.43,3.69-13.45-3.09.45-6.18.85-9.3,1.2-.48,9.91,1.3,20.03,4.57,29.33,0-.01.01-.01.01-.01Z"/>
  <path class="st0" d="M1642.4,298.52c-.24-4.5-3.29-8.31-7.83-9.09-4.86-.82-9.89,2.53-9.93,7.71-.06,10.58,17.13,12.92,17.76,1.38ZM1633.56,294.13c2.23.39,3.8,2.25,3.93,4.49-.29,5.25-8.56,3.33-8.44-1.38.06-2.33,2.4-3.48,4.5-3.11Z"/>
  <path class="st0" d="M1571.81,356.21c3.17-.53,6.22-2.24,9.24-4.03.57-.34,1.14-.69,1.71-1.02,2.08-1.24,4.16-2.41,6.27-3.19,8.35-3.05,16.21-2.64,24.93-2.47,7.64.15,14.66-4.05,15.06-12.3.31-6.39-3.53-11.81-9.79-13.25-5.17-1.18-10.83.51-11.19,6.5-.08,1.29-2.61,3.38-2.48,1.38.84-13.83,19.62-15.09,24.7-3.11,2.26,5.34,1.41,11.76-1.79,16.54-.2.29-.39.57-.6.84,12,.87,26.11,8.03,23.34,22.12-1.53,7.77-5.87,14.36-6.48,22.51-.62,8.38,3.76,15.54,3.55,23.7-.22,9.18-6.37,17.39-14.87,20.65-4.16,1.6-8.8,1.97-13.1.68-5.54-1.67-8.27-5.63-11.82-9.84-6.01-7.11-14.89-13.05-24.16-15.42,1.3,4.99.69,10.83,1.8,15.82,1.56,6.96,4.79,13.62,10.69,17.9,7.68,5.6,17.61,5.77,26.72,6.37,8.91.57,18.57,1.09,27.16-1.83,10.49-3.56,12.31-12.28,11.94-22.41-.32-9.1-2.33-18.16-1.84-27.29.52-9.46,4.01-17.97,9.03-25.91,1.13-1.77,2.92-.75,1.79,1.03-4.57,7.24-7.85,14.87-8.34,23.5-.33,5.95.48,11.87,1.1,17.78,1,9.49,2.63,21.28-3.71,29.38-1,1.28-2.13,2.37-3.36,3.31,22.18,7.12,49.06,8.29,70.26-1.79-5.25-5.76-6.79-13.94-5.29-22.67,1.2-6.88,4.91-13.99,10.47-18.49-1.77-1.67-3.39-3.53-4.83-5.61-13.46-19.56-8.27-47.54-4.76-69.35,1.83-11.41,7.4-21.43,17.62-26.96-.4-.77-.78-1.56-1.13-2.37-5.04,1.2-10.32,1.71-15.49,2.06h-.01c-.14.05-.27.06-.4.02t-.01,0c-.39.03-.77.06-1.15.08-9.77.63-22.38,2.28-30.92-3.69-8.06-5.63-11.29-16.77-10.97-26.28-1.7.08-3.4.16-5.1.25h-.05c-.87.05-1.75.07-2.63.1-15.54.51-31.21-.02-46.63-1.99-2.49-.32-5.14-.67-7.87-1.08-1.06,1.43-2.03,2.92-2.91,4.46-.68,1.2-2.07,3.11-2.03,4.5.08,2.56,1.92,2.37,4.16,2.11,7.65-.84,14.89-3.34,22.66-1.68,8.65,1.85,15.65,9.17,23.43,13.19,5.01,2.6,10.19,4.96,15.48,6.95,1.25.47-.37,3.49-1.72,2.98-7.33-2.75-14.54-6.14-21.27-10.14-4.76-2.83-8.95-7.08-14.17-9-5.83-2.14-12.17-1.51-18.15-.44-3.65.64-13.24,4.18-12.99-2.41.14-3.73,2.75-7.68,5.16-10.91-2.59-.43-5.22-.92-7.86-1.52h-.01c-6.11,15.12-19.08,23.9-31.19,34.2-7.09,6.03-11.11,13.81-14.16,22.58-2.8,8.09-4.8,17.61-2.26,26.03,1.54,5.1,5.37,9.89,11.24,8.91ZM1694.32,369.13c1.82-1.33,1.89,1.52.68,2.4-20.28,14.97-18.46,44.47-7.89,64.81.62,1.21-1.48,3.88-2.14,2.61-11.47-22.09-12.51-53.67,9.35-69.82ZM1613.52,289.2c9.12-4.71,20.86-6.33,30.63-2.93,8.66,3.02,16.03,8.85,24.9,11.72,3.88,1.26,7.95,2.36,12.03,2.79,1.53.16.14,3.29-1.18,3.15-6.07-.64-12.09-2.4-17.82-4.8-10.07,6.65-29.68,19.03-40.68,7.77-3.92-4.01-5.6-10.3-5.61-15.9-.75.32-1.48.68-2.22,1.06-1.82.93-1.22-2.24-.05-2.85Z"/>
  <path class="st0" d="M1777.57,208.57c-.55-4.86-2.29-9.84-4.95-13.81-4.67-6.95-12.17-9.19-19.94-10.87-.45-.1-.91-.18-1.36-.28-1.77,8.75-.56,18.23,3.36,26.18,7.63-.41,15.26-.82,22.89-1.22Z"/>
  <path class="st0" d="M1762.64,413.07c-2.53-.24-5.06-.61-7.55-1.1-.88,1.51-1.6,3.16-1.94,4.84-1.3,6.44,4.23,8.45,9.55,9.41,4.34.79,10.48,1.84,14.41-.87,3.86-2.67,2.73-8.4,1.84-12.26-.02-.14-.02-.29,0-.44-5.36.91-10.94.93-16.31.43Z"/>
  <path class="st0" d="M1741.81,294.29c.54,1.25,1.13,2.47,1.77,3.64,3.43-1.48,6.98-2.39,10.58-2.92-2.68-6.91-3.94-15.25-1.45-22.21,2.86-8.01,11-12.56,19.16-13.33,6.78-.63,16.8,1.91,16.61,10.45-.17,8.02-8.33,11.99-15.35,11.85-1.49-.02-.16-3.17,1.18-3.15,4.24.08,9.64-1.05,11.23-5.62,1.26-3.62-.8-6.64-3.81-8.47-4.75-2.9-11.38-2.42-16.41-.69-13.65,4.68-12.93,19.59-8.07,30.79,2.46-.24,4.94-.34,7.43-.38h.01c9.37-.13,19.96.62,28.68,4.68,10.46-9.23,11.38-24.41,4.98-36.48-2.7-5.1-7.1-8.83-12.22-11.15-1.03-.47-2.11-.88-3.21-1.24-4.22-1.38-8.77-1.87-13.15-1.47-9.46.87-19.03,5.14-25.13,12.04-.92,1.03-1.77,2.14-2.52,3.3-2.76,4.24-4.3,9.26-4.01,14.92.25,4.96,1.47,10.14,3.44,14.87.16.11.24.32.25.57Z"/>
  <path class="st0" d="M1610.54,188.53c13.59-5.79,29.64-7.37,44.16-9,12.65-1.43,25.39-2.31,38.13-2.65.16-.06.32-.07.47-.01,5.99-.16,11.97-.21,17.96-.11,16.39.25,33.64.91,49.43,5.73,11.83,3.61,18.69,13.83,19.47,25.95,7.49-.4,14.97-.79,22.47-1.2-1.18-7.85-3.93-15.38-8.31-20.86-11.63-14.57-32.72-18.53-50.2-20.32-22.24-2.28-44.76-1.01-67,.72-9.94.78-19.87,1.72-29.81,2.54-10.8.87-21.66,1.18-32.27,3.6-9.39,2.14-18.86,5.87-25.56,13.05-6.55,7.01-9.49,16.38-10.85,25.68-.37,2.51-.62,5.01-.78,7.53,7.04-.37,14.09-.75,21.13-1.13-1.85-11.09.23-24.71,11.55-29.53Z"/>
  <path class="st0" d="M1753.47,212.94c-.18.08-.36.1-.51.03-13.23.7-26.45,1.4-39.67,2.1,8.22,3.73,14.35,11.31,15.93,20.66.3,1.8.45,3.53.45,5.18,0,10.15-5.49,17.57-13.7,22.8.75-.05,1.48-.1,2.23-.16h.01c.22-.1.41-.13.57-.05h.01c3.47-.29,6.95-.59,10.43-.94.28-.15.53-.2.7-.07,0,0,0-.01.01-.01,3.82-.39,7.63-.85,11.43-1.38,9.79-13.33,30.07-19.66,45.47-13.24,6.58-4.04,12-9.6,14.42-17.43,1.84-5.94,2.43-13.07,1.73-20.13-9.4.5-18.8,1-28.2,1.5-7.11.38-14.23.75-21.34,1.13Z"/>
  <path class="st0" d="M1798.01,403.42c-1.9,1.86-3.98,3.42-6.18,4.7h-.01c8.8,6.55,12.76,19.52,3.53,27.8-7.62,6.83-21.54,6.61-31.07,6.27-9.92-.33-26.17-1.49-30.79-12.19-3.5-8.1,1.21-17.21,6.95-23.26h0c-2.08-1.16-4.07-2.48-5.91-4-9.68,6.54-12.66,21.34-8.62,31.79,1.01,2.62,2.61,4.76,4.6,6.49.24.02.39.17.46.39,7.02,5.8,18.51,7.06,26.82,7.45,12.08.57,25.01-.36,36.66-3.8,8.49-2.51,14.14-9.25,14.63-18.21.52-9.27-4.31-17.48-10.62-23.87l-.45.45Z"/>
  <path class="st0" d="M1774.77,346.4c-4.91-.84-9.99,2.55-10.02,7.78-.06,10.7,17.3,13.03,17.93,1.39-.24-4.55-3.32-8.4-7.91-9.17Z"/>
  <path class="st0" d="M1771.31,335.56c-9.18.99-16.31,9.32-16.28,18.48.03,10.06,8.79,18.11,18.84,17.1,9.43-.95,15.7-9.16,16.25-18.19.02-.09.03-.2.02-.29.01-.18,0-.32-.03-.44-.69-9.77-8.57-17.76-18.79-16.66ZM1757.52,352.66c.03-9.18,8.87-15.46,17.57-13.74,7.36,1.44,12.22,7.81,12.56,15.12-.93,19.59-30.2,17.16-30.13-1.38Z"/>
  <path class="st0" d="M1792.73,302.36c-.47.18-.75-.03-.87-.43-8.62-4.1-19.14-4.65-28.36-4.54h-.01c-7.14.1-14.3.83-20.8,3.79-.01.01-.02.02-.03.02-.07.02-.15.06-.23.1-.85.39-1.68.82-2.5,1.3-13.12,7.58-14.4,22.25-16.2,35.83-2.64,20.03-4.77,46.3,12.08,60.96.05.02.07.05.1.08.33.3.68.59,1.02.86,10.58,8.47,25.89,10.87,39.07,9.68,11.71-1.07,21.88-6.59,27.19-17.35,4.53-9.2,5.49-19.88,5.91-29.99.37-9.22.72-18.57.36-27.79-.37-9.43-2.02-19.44-8.71-26.6-2.33-2.49-5.05-4.44-8-5.93ZM1802.75,376.66c-2.99,18.55-16.94,27.19-34.69,27.42-12.62.15-27.53-1.78-34.54-13.73-5.16-8.79-4.98-19.73-4.79-29.59.31-16.81-1.13-38.23,11.68-51.24,14.86-15.11,46.83-10.6,58.33,6.56,11.45,17.08,7.07,41.62,4.02,60.59Z"/>
  <path class="st0" d="M11.52,220.33c-.74,2.49-1.46,5.26-1.2,7.54.23,1.94.66,1.94,2.44,2.29,1.77.36,3.56.59,5.36.82,3.59.45,8.98,1.74,12.51.67,2.84-.86,3.02-5.93,3.21-9.1-7.77.33-15.11,1.72-22.32-2.21Z"/>
  <path class="st0" d="M37.57,51.56c1.69-2.18,3.45-4.29,5.25-6.31-12.18-4.49-23.7-13.63-29.04-25.72-2.37,2.16-4.28,4.78-5.52,7.75,4.78,12.46,15.81,22.87,29.3,24.28Z"/>
  <path class="st0" d="M.52,92.76c.11,16.88,18.62,20.03,32.11,20.27,5.55-3.64,10.65-7.63,15.34-12-4.83,1.52-10.16,2-14.66.13-10.12-4.22-10.58-17.72-8.03-26.73,2.02-7.11,5.67-13.74,10.03-19.85-12.7-1.76-23.05-11.14-28.35-22.67-.15.97-.23,1.95-.23,2.97-.02,7.96,4.93,13.35,7.38,20.42,2.28,6.54-2.56,13.51-5.94,18.69-3.91,5.98-7.69,11.41-7.64,18.78Z"/>
  <path class="st0" d="M45.29,42.54c1.97-2.13,4.02-4.25,6.19-6.27-11.2-3.54-22.93-10.95-27.17-22.37-2.9.71-5.65,1.99-8.09,3.69,5.33,11.91,17.05,20.73,29.06,24.96Z"/>
  <path class="st0" d="M35.17,229.75c1.67,1.01,4.6,1.06,6.26,1.26,2.59.32,5.19.53,7.79.66.2.01,1-.05,1.63-.05.06-.53.32-1.49.37-1.75.23-1.57.37-3.18.47-4.78-4.98-1.6-10.01-2.6-15.47-2.59-.14,2.29-.36,4.95-1.06,7.24Z"/>
  <path class="st0" d="M53.72,230.25c1.92,1.69,6.65,1.99,8.8,2.34.75.13,1.51.21,2.25.34.26.05.53.02.72.02.07-.51.44-1.59.51-1.84.05-.17.08-.33.11-.49-2.28-.76-4.52-1.72-6.75-2.65-1.76-.74-3.49-1.42-5.23-2.05-.05,1.39-.15,2.92-.42,4.32Z"/>
  <path class="st0" d="M34.35,59.85c-6.21,9.77-14.36,29.95-.68,37.68,5.65,3.21,13.46,1.45,19.13-1.3,5.39-5.68,10.22-11.96,14.55-18.94,7.41-11.94,11.77-25.7,19.93-37.14-13.27-29.51-43.28,4.49-52.93,19.7ZM65.77,66.38c-3.07,4.24-6.42,8.46-10.1,12.18-2.3,2.33-5.8,5.91-9.42,5.75-8.66-.37-4.85-14.03-2.83-18.41,3.14-6.83,7.81-13.2,12.89-18.72.08-.08.15-.15.23-.21.02-.03.05-.07.07-.1,3.54-3.62,15.3-14.32,16.71-3.15.98,7.7-3.18,16.61-7.55,22.66Z"/>
  <path class="st0" d="M90.87,220.69c-8.11,3.92-17.64,2.59-24.8-3.6-11.32-9.77-24.28-18.55-39.53-20.46-4.03-.51-9.37-.39-13.68,1.34-.34.31-.64.41-.9.37-2.65,1.25-4.83,3.19-5.92,6.1-2.56,6.77,4.92,12.41,10.42,14.34,6.3,2.22,12.83,1.02,19.33.66.06-.01.11-.01.16,0,1.68-.09,3.36-.13,5.02-.03,4.41.26,8.61,1.24,12.72,2.65.15-.02.28.02.38.13,1.3.46,2.59.94,3.87,1.47,5.25,2.15,10.57,5.06,16.35,5.33,6.96.32,12.32-3.37,16.56-8.31Z"/>
  <path class="st0" d="M21.39,259.22c5.15.4,10.49-1.59,15.73-1.57,5.24,0,10.38.95,15.48,2,6.81,1.39,12.08,2.17,18.72-.37,15.23-5.81,22.74-20.06,23.12-35.35-2.69,8.11-6.88,16.12-12.96,21.71-11.46,10.53-26.18,4.14-38.85-.48-7.53-2.73-16.46-6.58-24.65-5.06-5.11.94-10.7,4.99-8.46,10.95,1.79,4.76,6.98,7.79,11.87,8.17Z"/>
  <path class="st0" d="M54.46,33.65c3.77-3.14,7.88-5.79,12.45-7.4,10.58-3.72,18.06,1.94,22.44,11.17.36-.44.7-.88,1.07-1.32,3.16-3.71,6.6-6.85,10.25-9.48-.57-13.35-10.18-24.27-24.54-20.65-8.78,2.22-14.9,9.68-23.27,12.3-5.77,1.79-13.48-3.64-19.04-4.7-2.15-.41-4.34-.46-6.5-.22,4.76,10.55,16.56,17.32,27.14,20.31Z"/>
  <path class="st0" d="M120.61,281.91c2.71-1.85,2-3.96-.09-5.79-2.13-1.83-7.84-3.68-6.75,3.83.16,1.1,1.1,2.31,1.82,3.17,1.79.1,3.6-.24,5.02-1.21Z"/>
  <path class="st0" d="M137.33,267.91c-3.71-8.07-11.15-13.89-20.26-10.63-9.47,3.4-17.46,17.12-6.63,24.19.23.15.48.28.74.4-2.74-8.37,9.94-15.36,13.49-5.75,3.16,8.55-9.91,11.83-15.48,8.6-18.05-10.47,4.67-38.91,21.49-29.58-1.59-5.13-1.3-10.33,2.06-15.7,2.72-4.36,6.38-7.93,8.64-12.61,3.7-7.62,2.31-15.31-3.78-21.24-12.78-12.45-31.02.8-40.9,10.96,1.76,18.33-5.99,36.69-23.35,44.73-5.01,2.31-10.42,3.6-15.92,2.77-6.65-.99-13.02-3-19.8-3.23-5.67-.2-11.1,1.75-16.66,1.56-1.77-.05-3.57-.45-5.29-1.11-6.09,11.99-11.31,33.34,5.68,38.2,15.89,4.54,27.11-14.32,42.66-12.86,9.35.87,18.47,3.93,27.7,5.61,11.78,2.16,23.9,2.83,35.58-.31,6.14-1.65,11.06-4.68,12.14-11.4.69-4.26-.31-8.73-2.09-12.61ZM121.46,210.22c4.7-.57,8.24,2.95,8.71,7.39.03.11.06.26.05.46,0,.1-.01.21-.03.31-.36,4.37-3.32,8.43-7.92,8.94-4.65.51-8.56-3.28-8.6-7.87-.03-4.39,3.37-8.68,7.79-9.23Z"/>
  <path class="st0" d="M160.52,19.28c3.41-3.15,7.1-6.01,11.01-8.55-17.82-5.17-37.25-8.48-55.54-4.16-5.23,1.23-11.35,3.14-15.74,6.64,1.76,3.63,2.69,7.75,2.88,11.71,16.65-10.66,37.43-11.33,57.39-5.64Z"/>
  <path class="st0" d="M133.67,179.55c12.68-3.34,25.65-5.83,38.67-7.25-.17-2.68-.25-5.38-.25-8.07-18.8,1.95-40.05,4.96-56.64,14.25-1.76.99-9.8,5.15-7.18,7.14,1.26.97,5.19-.01,6.46-.28,4.34-.94,8.53-2.87,12.8-4.1,1.94-.55,3.9-1.09,5.85-1.61.11-.05.21-.07.3-.08Z"/>
  <path class="st0" d="M140.04,188.35c6.17-1.59,12.15-3.52,18.43-4.65,4.9-.9,9.92-1.65,14.93-1.86-.37-2.16-.63-4.33-.84-6.53-13.25,1.39-26.51,3.87-39.44,7.32-8.75,5.54,2.22,6.92,6.92,5.72Z"/>
  <path class="st0" d="M149.99,195.38c.85.09,2.36-.61,3.19-.83,2.93-.75,5.95-1.17,8.93-1.65,4.47-.71,8.95-1.36,13.45-1.94-.62-1.98-1.14-3.98-1.56-6.01-3.8.06-7.62.52-11.38,1.07-3.92.56-7.73,1.56-11.53,2.6-.12.14-.24.26-.38.34-2.38,1.45-5.11,5.94-.72,6.42Z"/>
  <path class="st0" d="M108.82,112.86c-.3-2.44-2.25-4.38-4.71-4.61-2.46-.22-4.84,1.4-4.64,4.05.41,5.29,9.45,6.56,9.35.56Z"/>
  <path class="st0" d="M116.9,112.77c-.72-5.83-5.1-10.54-11.04-11.08-6.64-.61-12.79,4.6-12.27,11.48,1.07,14.17,23.55,14.87,23.32-.4ZM103.39,105.18c4.02-.76,7.17,2.09,7.85,5.83.03.13.07.28.07.47.01.1.01.21,0,.31-.08,3.86-2.7,7.65-6.72,8.22-3.88.54-7.39-2.42-7.6-6.33-.21-3.84,2.55-7.76,6.4-8.49Z"/>
  <path class="st0" d="M14.99,178.03c.14-.02.25-.01.38.05.7.1,1.4.16,2.1.21,6.55.33,12.7-2.54,19.24-2.1,9.38.62,29.48,13.28,34.34-.97,3.15-9.23-5.13-25.14-15.07-14.88-1.59,1.64-2.52-.49-1.28-1.78,2.92-3.02,7.57-6.1,11.92-4.5,4.9,1.79,6.99,8.48,7.46,13.18,1.22,12.25-7.98,19.38-19.71,17.19-8.57-1.6-15.82-6.14-24.81-4.72-4.33.68-8.35,1.61-12.47,1.64,1.45,4.25.64,8.85-1.52,12.8,12.92-4.13,28.97,3.36,39.46,9.99,7.91,5.01,14.68,14.33,24.28,15.67,5.4.76,11.51-1.13,15.71-4.62,9.27-9.7,25.39-22.78,39.46-16.01,10.18,4.88,13.87,16.59,9.65,26.68-1.86,4.44-4.77,8.15-7.66,11.94-6,7.88-4.88,14.81.26,22.89h.01c5.34,7.19,7.41,17.72,2.78,25.66,12.35,13.68,34.18,6.34,47.84-1.79-13.91-10.91-19.89-30.02-16.16-47.81,2.07-9.85,8.53-19.8,17.85-24.33-2.26-1.93-4.32-4.08-6.08-6.47-2.78-3.79-4.88-7.87-6.47-12.15-.07.03-.14.05-.21.06-8.09,1.06-16.47,1.85-24.36,3.95-2.78.74-5.9,1.18-7.11-2.29-.71-2.07-.03-3.95,1.22-5.55-2.77.74-5.54,1.41-8.35,1.88-3.13.52-9.57.6-10.87-3.3-.55-1.64,0-3.15,1.01-4.48-1.14.33-2.28.66-3.4.99-3.95,1.21-16,7.31-19.47,2.59-4.15-5.67,12.38-13.16,15.42-14.49,16.03-7.02,34.31-10.12,51.7-11.97.02-1.64.07-3.28.13-4.9-3.86,3.93-9.68,5.07-12.27-1.95-1.21-3.28-1.38-7.24-1.34-11.06-4.03,2.63-7.64.1-8.18-5.03-.75-7.24-.16-14.76.43-22,.51-6.15,1.2-12.34,2.13-18.5-3.21,2.39-7.73,3.22-9-1.72-1.1-4.31-.03-9.91.42-14.24.52-4.87,1.3-9.79,2.4-14.65-3.33,1.25-7.98,1.4-9.69-1.97-1.49-2.94.28-7.79,1.15-10.64,3.86-12.55,10.63-23.57,19.47-32.55-25.04-6.68-51.29-3.31-67.95,18.26-7.61,9.84-11.32,21.89-17.4,32.63-5.94,10.48-13.04,20.41-21.56,28.95-11.16,11.18-26.18,17.16-36.73,28.93-8.02,8.93-18.42,26.63-12.19,38.93,2.56,5.04,7.71,7.55,13.09,8.34ZM68.96,103.2c6.17,4.18,17.13-4.26,21.94-7.09,7.27-4.27,16.26-7.65,24.57-4.32,6.75,2.7,11.11,9.01,14.78,14.97,3.87,6.32,6.91,13.19,15.59,12.72,1.44-.08.15,3.08-1.18,3.15-4.37.24-7.4-1.24-9.85-3.63-7.71,13.02-24.28,22.83-39.43,18.5-12.89-3.68-18.69-18.54-19.58-30.92-3.03.86-6.27,1.16-8.56-.4-1.2-.8.57-3.76,1.72-2.98Z"/>
  <path class="st0" d="M145.99,41.74c-2.65,4.99-5.14,10.39-6.32,15.95-.29,1.39-1.01,3.87-.24,5.25,1.41,2.56,5.65,2.05,8.16.99,2.51-9.64,6.36-18.95,12.03-27.05,9.78-13.96,24.91-21.19,41.31-24.44,14.32-2.85,30.01-3.52,44.47-.71.01-9.08-12.71-10.8-19.9-11.41-15.43-1.3-31.17,1.49-45.14,8.22-1.75.84-3.44,1.74-5.09,2.68-.18.17-.39.3-.61.34-12.36,7.21-21.8,17.27-28.67,30.19Z"/>
  <path class="st0" d="M161.28,38.12c-7.64,10.79-11.62,23.94-13.65,36.89-.75,4.76-1.24,9.56-1.34,14.38-.02,1.26-.23,2.8.05,4.05.07.29-.01.63.09.91,1.23,3.21,5.34,2.19,7.09-.01,1.94-11.55,4.81-22.97,9.14-33.77,6.78-16.94,17.48-29.58,35.43-34.82,16.89-4.93,36.54-4.52,53.4.43,2.05.61,4.49,1.28,6.65,2.32,7.94-10.35-15.79-14.08-21.86-14.65-25.91-2.48-58.79,1.41-75,24.29Z"/>
  <path class="st0" d="M255.24,43.47c-6.68-2.74-13.95-4.23-21.1-5.05-16.12-1.82-34.35.09-47.19,10.93-11.81,9.98-17.03,26.34-20.41,40.88-3.38,14.5-5.09,29.49-5.33,44.37-.08,4.8-.13,9.72.51,14.49.16,1.16.26,2.48.77,3.56,2.39,5.22,7.33,4.03,9.88.1.13-2.82.29-5.6.44-8.33.79-14.04,2.48-29.14,10.29-41.24,2.47-3.83,5.45-6.94,8.76-9.48-7.85-4.53-11.08-13.81-8.72-22.56,6.78-25.18,40.19-29.98,61.69-24.2,5.46,1.47,10.8,3.83,15.08,7.27,8.7-2.91-.78-9.16-4.65-10.74Z"/>
  <path class="st0" d="M259.1,33.15c-.52-.46-1.11-.84-1.77-1.18-.17-.02-.32-.1-.44-.23-1.18-.59-2.47-1.03-3.61-1.45-6.37-2.34-13.26-3.46-19.98-4.13-15.35-1.52-32.3-.52-46.2,6.79-14.27,7.53-21.08,22.62-25.63,37.37-2.36,7.62-4.16,15.43-5.52,23.34.03.24-.01.52-.14.83-1.25,7.53-2.13,15.12-2.67,22.69-.38,5.44-.64,10.91-.45,16.35.13,3.56,1.06,10.8,5.94,6.84.02-.98.05-1.94.06-2.85.15-18.46,2.44-37.26,7.58-55,5.07-17.44,13.57-34.57,30.92-42.42,16.89-7.64,37.72-6.8,55.12-1.26,2.33.74,5.23,1.59,7.76,2.91,3.01-1.64,1.09-6.76-.99-8.6Z"/>
  <path class="st0" d="M258.47,57.33s-.01-.01-.02-.01c-1.16-.98-2.4-1.87-3.73-2.67-10.38-6.19-23.71-7.63-35.53-6.32-12.06,1.32-25.96,6.11-31.82,17.63-4.86,9.54-2.24,20.87,7.7,25.51,4.56-2.8,9.65-4.67,15.04-5.79-4.4-10.07,3.13-19.8,13.79-21.97,12.56-2.55,22.17,11.3,15.58,21.59,4.98.78,9.81,2.11,14.28,4.3,10.24,1.33,13.97-11.8,12.34-19.75-1.03-5.09-3.83-9.3-7.63-12.51Z"/>
  <path class="st0" d="M208.35,143.27c-.05-.32-.08-.66-.13-.99-6.81.16-15.65,2.82-17.54,10.07-1.75,6.71.91,13.99,7.88,15.77,3.65.93,7.58.69,11.37.53-.7-8.45-1.14-16.93-1.59-25.36h0Z"/>
  <path class="st0" d="M248.2,138.59c-1.92-.15-4.17.71-6.05.32-3.96-.85-2.82-7.5-3.03-10.57-.55-7.4-1.78-18.87-10.47-21.16-17.69-4.65-19.25,20.23-18.1,32.28.06.15.08.33.06.54.06.55.11,1.08.18,1.56.02.1.05.21.05.33.48,8.96,1.01,17.95,1.8,26.9.14.21.15.52.08.86.34,3.84.72,7.65,1.18,11.47.75,6.11,1.57,14.73,7.15,18.59,4.99,3.46,13.71,2.3,16.84-3.13,4.17-7.24,1.41-16.42.69-24.11-.41-4.31,2.14-4.45,5.9-4.8,3.6-.33,7.7-.79,10.54-3.28,4.72-4.13,3.43-12.56,1.75-17.9-1.36-4.33-3.86-7.55-8.56-7.92Z"/>
  <path class="st0" d="M251.86,92.52c-9.6-4.61-20.55-5.22-31.03-5.04-18.93.55-34.49,8.53-40.87,27.07-4.56,13.25-4.72,27.61-5.21,41.46-.3,8.41-.1,17.47,1.57,26.08.06.11.08.25.08.41,2.16,10.77,6.65,20.81,15.47,27.99.25.21.53.39.79.6.09.03.17.09.23.17,5.16,3.93,11.23,6.48,17.61,7.93.22-.06.39-.01.52.11,7.46,1.62,15.32,1.77,22.65.85,13.32-1.65,24.84-8.25,31.34-20.21,11.68-21.56,8.3-49.37,6.48-72.82-1.14-14.65-5.57-27.84-19.64-34.6ZM260.57,156.3c-.67,8.96-7.16,13.47-15.57,14.39-.68.08-2.8.56-3.9.53,0,.1.02.22.05.3,1.25,3.88,1.34,8.88,1.33,12.92-.01,8.3-2.56,17.87-11.8,19.85-12.88,2.77-17.32-8.03-18.87-18.77-.65-4.56-1.17-9.16-1.59-13.77-5.92.2-13.28,1.09-18.11-2.93-4.62-3.86-5.26-11.63-3.54-17.05,2.59-8.19,11.3-12.01,19.39-12.57-.91-14.76,2.46-39.04,21.39-35.25,8.89,1.77,11.1,12.08,11.95,19.74.31,2.75-.6,8.75.85,11.12,1.14,1.84,4.26.59,6.27.61,10.31.08,12.77,12.55,12.15,20.88Z"/>
  <path class="st0" d="M255.7,214.32c-3.82,2.99-8.21,5.3-12.94,6.94,9.25,6.87,12.78,20.42,12.54,31.43-.46,20.97-29.28,32.41-45.61,20.94-11.25-7.91-16.73-21.47-12.49-34.67,1.99-6.17,5.68-12.16,10.22-16.96-5.83-1.67-11.3-4.24-15.98-7.7-14.17,4.8-19.55,21.13-18.48,34.74,1.65,20.97,14.02,36.19,34.54,40.93,9.72,2.24,20.69,2.84,30.52.78,16.62-3.46,33.22-14.11,36.4-31.88,2.03-11.34-.03-24.05-6.46-33.72-2.55-3.86-7.21-9.94-12.25-10.84Z"/>
</svg>