<?xml version="1.0" encoding="UTF-8"?>
<svg id="Layer_1" xmlns="http://www.w3.org/2000/svg" version="1.1" viewBox="0 0 273.39 314">
  <!-- Generator: Adobe Illustrator 30.5.1, SVG Export Plug-In . SVG Version: 2.1.4 Build 3)  -->
  <defs>
    <style>
      .st0 {
        fill: #2d2e2d;
      }
    </style>
  </defs>
  <path class="st0" d="M23.76,233.82c-.26.26-.16.59,0,0h0Z"/>
  <path class="st0" d="M23.81,233.59c.03-.16.08-.37.11-.61.38-2.71,1.08-5.41,1.57-8.11.74-3.99,1.43-7.98,2.11-11.97-.45-.03-.88-.07-1.32-.09-4.56-.26-10.23-.11-14.55-1.39-.67,3.79-2.55,7.77-3.17,11.43-.54,3.1-1.22,6.14,1.74,8.01,2.72,1.72,6.63,2.31,9.79,2.67,1.28.14,2.47.15,3.71.07h.01Z"/>
  <path class="st0" d="M43.54,218.66c-1.2-1.1-2.53-2.08-4.14-2.9-2.97-1.48-6.23-2.24-9.52-2.65-.8,4.71-1.63,9.42-2.53,14.11-.01.06-.01.1-.02.16-.23,1.2-.29.86.87,1.31,1.35.53,3.08.6,4.51.78,2.88.38,6.37.05,9.15.84.07.02.16.03.24.03.02-.08.03-.15.06-.23-.15-1.39.54-3.37.71-4.79.26-2.22.48-4.44.67-6.67h0Z"/>
  <path class="st0" d="M57.57,48.99c.77-1.91,1.72-3.9,2.84-5.86-12.04-2.14-23.6-9.52-28.86-20.87-1.23,1.32-2.34,2.76-3.33,4.31-.82,1.28-1.38,2.53-1.76,3.76,6.71,10.42,18.31,19.4,31.11,18.66Z"/>
  <path class="st0" d="M62.31,40.1c1.47-2.16,3.15-4.19,5.02-5.92-10.8-2.05-20.49-9.89-27.51-18.05-2.14,1.02-4.13,2.34-5.95,3.91,5.08,11.08,16.75,18.18,28.44,20.06Z"/>
  <path class="st0" d="M51.6,262.59c6.61-6,7.55-14.84,11.08-22.54,1.65-3.61,3.63-7.11,5.86-10.42-10.88-.44-17.63-12.41-23.5-19.74-6.01-7.53-14.32-14.56-23.98-16.69-2.64-.57-5.88-1.1-8.5-.13-4.18,1.56-6.62,8.78-4.03,12.72.69,1.07,1.65,1.86,2.77,2.45.29-.08.53,0,.64.3,5.22,2.29,13.48.8,18.08,1.29,5.71.6,11.34,2.26,15.69,6,.16,0,.29.11.36.32.48.44.95.9,1.4,1.39,4.45,4.87,8.26,10.99,15.3,12.28.82.15.8,1.07.43,1.88-.02.05-.03.08-.06.12-.03.06-.07.11-.1.17,0,.02,0,.03-.02.05-.14.22-.29.41-.46.56-4.47,5.21-5.09,12.76-9.69,18.04-3.75,4.31-8.71,5.75-14.28,5.86-7.86.16-14.64-2.98-22.24-3.85-6.49-.76-6.22,8.54-3.31,12.41.49.67,1.09,1.23,1.75,1.7.03.02.06.05.09.07,3.15,2.24,7.77,2.51,11.4,2.52,8.38.03,18.86-.87,25.35-6.77h-.03Z"/>
  <path class="st0" d="M21.57,80.88c2.79,13,21.9,16.89,33.3,15.16,0-.01.02-.01.03-.02,2.98-1.63,5.84-3.57,8.55-6.07,3.47-3.18,6.39-6.8,8.81-10.72-12.12-3.7-19.73-14.42-15.82-27.11-12.33.49-23.49-7.14-30.61-16.99.25,4.5,2.65,8.78,5.18,13.24,1.95,3.47,3.06,6.22,1.17,9.96-3.59,7.08-12.51,13.71-10.62,22.55h.01Z"/>
  <path class="st0" d="M74.96,32.56c-1.26.34-2.49.9-3.69,1.6-.18.2-.39.33-.61.4-2.52,1.62-4.82,3.92-6.76,6.59-.02.84-.71,2-1.48,2.23-1.25,2.03-2.3,4.19-3.08,6.37.03.51-.2,1.16-.55,1.65-.72,2.39-1.13,4.73-1.1,6.87.11,9.07,8.12,15.61,16.33,17.96,3.3-6.08,5.54-12.76,6.94-19.57,1.32-6.46,3.05-12.62,6.06-18.38-.83-5.13-7.83-6.9-12.06-5.72ZM77.11,58.93c-.35,4.16-3.17,8.06-7.56,8.54-4.41.47-8.11-3.1-8.15-7.47-.03-4.18,3.22-8.31,7.43-8.83,4.46-.56,7.81,2.78,8.26,6.98.03.13.06.28.05.47,0,.1-.01.21-.03.31ZM81.44,40.12c.02.09.05.2.03.31.01.13-.01.26-.06.4-.31,2.96-2.33,5.81-5.49,6.16-3.07.32-5.56-2.16-5.6-5.18-.03-3.05,2.32-6.14,5.39-6.55,3.11-.43,5.42,1.94,5.72,4.86h0Z"/>
  <path class="st0" d="M71.02,31.4c1.98-1.18,4.1-2.02,6.38-2.32,4.52-.57,9.77,1.61,11.56,5.85h.01c.28-.46.56-.9.86-1.33,5.02-7.29,11.57-12.61,19.01-16.51C105.87,9.6,101,.12,91.95,0c-6.22-.07-11.86,4.13-16.51,7.79-3.06,2.4-6.19,5.98-9.85,7.48-3.59,1.48-7.58-.53-11.18-1.2-3.9-.72-7.73-.4-11.31.74,7.23,8.01,17.12,15.47,27.93,16.58h-.01Z"/>
  <path class="st0" d="M220.54,37.77c-8.58,13.73-15.26,28.66-20.81,43.85-4.61,12.63-9.88,25.67-5.99,39.16,2.11,7.32,6.98,15.95,14.58,18.72,11.22,4.09,13.33-10.53,13.84-18.3.7-10.63,3.53-20.51,8.55-29.93,4.88-9.18,11.35-17.42,18.09-25.31,5.21-6.09,11.49-12.08,15.5-19.1.23-.39.45-.78.65-1.17.57-1.1.95-2.24,1.16-3.39,1.45-8.11-5.64-17.16-11.73-21.82-3.56-2.73-8.57-5.06-13.27-4.67-.34.02-.69.07-1.03.13-1.05.52-2.06,1.13-3.03,1.79-7,4.83-12.22,13.18-16.5,20.02v.02Z"/>
  <path class="st0" d="M135.01,112.14c-.31-5.81-4.26-10.73-10.11-11.73-6.29-1.07-12.79,3.29-12.84,10-.07,13.7,22.14,16.65,22.95,1.74h0ZM123.39,104.17c3.92-.52,6.84,2.47,7.18,6.16.02.09.05.2.03.31,0,.1,0,.21-.02.31-.32,3.67-2.83,7.15-6.7,7.56-3.84.41-7.02-2.7-7.07-6.49-.03-3.7,2.84-7.37,6.57-7.85h.01Z"/>
  <path class="st0" d="M13.09,168.48c4.01.76,8.12,0,12-1.05,6.63-1.84,11.74-3.93,18.74-3.55,13.62.71,33.28,8.37,37.22-11.25,1.68-8.34-3.73-16.15-12.43-16.47-6.48-.24-12.35,3.23-9.88,10.15.44,1.22-1.79,3.71-2.39,2.06-1.05-2.93-1-6.48.41-9.27,2.71-5.39,9.63-6.8,15.13-5.85,6.46,1.1,10.97,6.13,11.83,12.55,1.54,11.72-7.77,23.88-19.77,23.64-8.3-.16-16.4-2.55-24.74-2.52-5.86.02-11.23,2.63-16.85,4.08h-.01c1.09,6.41-.02,13.33-3.73,18.63,2.23.1,4.61.57,7.01,1.36,7.75,2.53,14.46,8.15,19.76,14.18,6.84,7.75,13.56,22.23,26.12,21.28,1.28-.09.32,2.09.05,2.47-4.67,6.33-7.64,13.31-10.07,20.74-1.93,5.92-4.93,11.69-9.73,15.78-4.92,4.18-10.85,5.53-17.11,6.36-5.71.76-11.99,1.4-17.61-.25-.54-.15-1.03-.34-1.52-.54,1.17,8.21,3.96,15.93,11.73,20.08,12.3,6.6,27.6,5.98,40.77,2.69,4.82-8.37,7.35-18.17,7.3-27.94-.01-1.32,2.47-3.41,2.48-1.39.13,19.88-9.75,39.78-26.98,49.55,16.84-.32,30.9-9.17,40.04-23.78,4.69-7.48,8.5-16.09,10.32-24.78.3-1.44,2.87-2.82,2.41-.61-3.45,16.5-12.31,32.23-25.18,42.07,15.8,2.33,32.83-.45,38.87-17.33,2.48-6.94,3.16-15.86,2.15-22.64-.18-1.26,2.15-3.7,2.4-2.06,1.32,8.89.33,18.8-3.22,27.07-2.77,6.44-6.95,10.93-11.99,13.92,7.89,2.24,16.84,3.21,24.12-1.16,5.68-3.41,8.95-9.4,10.83-15.56,2.37-7.81,3.05-16.54,2.25-24.66-.13-1.33,2.3-3.41,2.49-1.38.95,9.91-.13,20.87-3.93,30.09-1.18,2.86-2.74,5.61-4.63,8.06,14.07-1.24,29.11-6.69,29.28-23.08.06-6.26-1.61-13.02-4.46-18.63-.61-1.21,1.49-3.88,2.14-2.61,3.64,7.17,5.64,16,4.5,23.98-.72,5.09-2.71,9.14-5.54,12.37,14.47-3.55,29.86-11.41,23.65-28.73-2.45-6.83-7.01-13.32-12.15-18.42-.92-.92,1.02-3.72,2.14-2.6,6.42,6.38,12.32,15.12,13.77,24.18.54,3.37.33,6.37-.44,9.06,6.6-2.55,14.09-6.6,15.17-14.19.72-5.11-1.47-10.3-4.02-14.58-3.26-5.46-7.64-10.57-12.5-14.7-1.1-.94.72-3.84,1.72-2.98,6.68,5.67,12.97,13.1,15.97,21.4,1.53,4.21,1.68,8,.83,11.38,7.46-5.78,14.76-13.85,11.16-23.86-2.19-6.1-7.3-10.88-12.43-14.58-6.73-4.85-14.41-8.69-21.52-12.91-1.23-.72.51-3.7,1.72-2.98,8.85,5.24,19.05,10,26.64,17.08,5.02,4.68,9.17,10.8,9.06,17.87,5.68-7.44,8.81-16.33,2.37-24.64-4.41-5.68-11.23-9.33-17.78-12-9.51-3.87-19.54-6.8-29.22-10.22-1.25-.44.36-3.46,1.72-2.98,11.62,4.09,23.29,6.94,34.2,12.46,5.73,2.91,11.7,6.96,14.94,12.7,13.56-34.02-43.4-34.11-63.45-36.21-1.53-.16-.14-3.29,1.18-3.15,13.33,1.39,27.25,1.69,40.34,4.71,7.9,1.83,16.32,4.95,21.78,11.22.24.28.45.56.67.85,7.88-35.58-48.57-31.17-70.3-32.03-1.49-.06-.15-3.21,1.19-3.16,7.98.32,15.95.64,23.93.97,9.62.38,19.19.41,28.48,3.37,6.41,2.03,12.87,5.4,16.65,11.19,4.37,6.7,3.79,14.72,1.68,22.1,3.87,7.02,2.33,15.28-.97,22.63.06.13.11.25.16.38,3.46,9.43-2.03,18.78-8.07,25.78-1.91,8.25-8.99,14.64-15.59,19.42-.05.03-.09.06-.15.09-1.31,2.4-3.16,4.54-5.38,6.41,2.6.44,6.11.86,8.54,1.06,14.5,1.25,30.42.67,43.73-5.78,9.06-4.39,12.03-10.33,14.36-19.71,5.96-23.89,5.91-49.62,5.94-74.08.05-29.01-1.23-58.03-3.59-86.94-1.02-12.61-1.22-26.37-4.7-38.64-4.62,7.32-11.15,13.61-16.66,20.17-8.69,10.32-16.81,21.48-21,34.45-3.5,10.92-.61,25.1-7.96,34.57-4.38,5.65-11.14,5.67-16.7,1.67-22.7-16.35-9.84-48.04-1.69-68.22,5.71-14.14,12.45-28.05,21.08-40.65,3.46-5.06,7.47-10.72,12.45-14.84-19.16-8.07-42.05-8.84-62.05-8.24-12.53.38-25.03,1.59-37.41,3.56-15.19,2.44-30.63,7.31-40.97,19.34-11.45,13.31-10.34,31.68-18.72,46.58-.06.1-.11.21-.18.3-.1.29-.26.55-.45.78-.01.01-.01.02-.01.02l-.02.02h0c-4.71,8-11.23,14.7-19.03,19.52,0,0,0,0,0,.01-.21.21-.44.36-.67.41h-.02c-2.71,1.63-5.57,3.03-8.57,4.19-7.92,3.05-15.19,5.37-21.95,10.73-5.9,4.68-10.89,10.47-14.95,16.79-3.54,5.55-6.52,11.62-8.25,17.98-.99,3.64-2.21,8.5-.51,12.12,1.88,4.01,8.16,6.88,12.24,7.65v.05ZM97.15,205.68c-.52,7.1-5.39,13.42-12.8,14.24-7.8.85-14.62-5.39-14.68-13.17-.06-7.11,5.57-13.72,12.69-14.54,7.96-.91,14.12,5.07,14.78,12.69.03.11.06.26.05.47.01.1-.01.21-.03.31h-.01ZM124.08,236.56c-.46,6.15-4.63,11.73-11.07,12.45-6.72.75-12.46-4.71-12.51-11.38-.05-6.16,4.76-12.01,10.95-12.73,6.84-.8,12.03,4.4,12.61,10.88.05.13.06.28.06.47,0,.1-.01.21-.03.31h0ZM122.42,193.42c-6.22.69-11.5-4.36-11.56-10.52-.05-5.72,4.42-11.19,10.18-11.88,6.32-.75,11.11,4.05,11.66,10.03.03.13.06.28.05.47,0,.1,0,.21-.03.31-.44,5.71-4.31,10.93-10.3,11.58h0ZM160.68,211.82c.05.13.07.3.06.52,0,.1,0,.22-.03.33-.57,7.14-5.84,12.94-13.13,13.69-7.6.78-15.03-4.75-15.1-12.64-.14-16.92,26.67-18.94,28.21-1.9h0ZM101.51,70.68c4.49-3.65,11.4-4.42,16.93-4.41,20.69.07,40.51,11.97,56.91,23.33,1.2.82-.59,3.77-1.72,2.99-15.94-11.03-34.73-22.33-54.68-23.12-5.22-.21-12.77.38-16.76,3.62-1.75,1.42-1.82-1.46-.68-2.4h0ZM93.25,89.59c1.46,1.1,3.06,2.07,4.72,2.93.2-.02.37.06.48.25,2.91,1.45,6.02,2.56,9.04,3.45,11.57,3.39,22.2,1.57,33.96.88,11.25-.66,25.27,3.22,31.26,13.77.67,1.17-1.42,3.87-2.14,2.61-2.68-4.72-6.61-7.85-11.14-9.86-3.6,4.7-8.52,8.63-13.38,11.86-8.81,5.85-22.77,13.11-33.65,9.94-11.86-3.46-15.82-18.79-16.28-29.88-1.61-.88-3.15-1.86-4.61-2.96-1.15-.88.64-3.8,1.72-2.99h.02Z"/>
</svg>