<?xml version="1.0" encoding="UTF-8"?>
<svg id="Layer_1" xmlns="http://www.w3.org/2000/svg" version="1.1" viewBox="0 0 1811.65 439.63">
  <!-- Generator: Adobe Illustrator 30.5.1, SVG Export Plug-In . SVG Version: 2.1.4 Build 3)  -->
  <defs>
    <style>
      .st0 {
        fill: #2d2e2d;
      }
    </style>
  </defs>
  <path class="st0" d="M1583.56,374.13c8.44-.85,14.2,6.76,21.38,9.72,2.91,1.22,6.02,2.07,9.22,2.67-5.69-3.72-9.85-8.93-14.69-14.77-3.24-3.91-9.84-9.96-15.36-10.02-4.6-.05-6.82,4.5-4.33,8.39.97,1.53,2.36,2.9,3.79,4.01Z"/>
  <path class="st0" d="M1603.16,195.96c-.38,3.92-.16,8.02.65,11.89,1.21-.07,2.43-.14,3.64-.2,2.91-.16,5.8-.31,8.71-.47,3.64-8.07,2.26-18.78.3-27.21-8.04,2.61-12.46,7.3-13.31,15.99Z"/>
  <path class="st0" d="M1638.61,174.88c-1.17.2-2.36.39-3.53.6v1.78c1.18-.07,2.36-.13,3.53-.2v-2.18Z"/>
  <path class="st0" d="M1638.61,180.16c-1.17.06-2.34.13-3.53.2v4.48c1.18-.06,2.36-.11,3.53-.18v-4.49Z"/>
  <path class="st0" d="M1638.61,187.74c-1.17.07-2.34.13-3.53.18v3.92c1.18-.05,2.36-.09,3.53-.15v-3.95Z"/>
  <path class="st0" d="M1638.61,194.8c-1.17.06-2.34.1-3.53.15v4.83c1.18-.05,2.36-.09,3.53-.14v-4.84Z"/>
  <path class="st0" d="M1635.08,206.18c1.18-.07,2.36-.13,3.53-.2v-3.25c-1.17.05-2.34.09-3.53.15v3.3Z"/>
  <path class="st0" d="M1641.1,174.48v2.45c1.61-.09,3.23-.18,4.84-.28-.02-.94-.03-1.9-.06-2.85-1.6.22-3.2.44-4.78.68Z"/>
  <path class="st0" d="M1641.1,184.52c1.66-.08,3.32-.17,4.99-.25-.03-1.52-.06-3.02-.09-4.53-1.63.09-3.26.18-4.9.28v4.5Z"/>
  <path class="st0" d="M1641.1,191.59c1.7-.07,3.41-.14,5.11-.22-.02-1.33-.05-2.68-.07-4.01-1.69.08-3.37.17-5.05.25v3.98Z"/>
  <path class="st0" d="M1641.1,199.53c1.76-.07,3.5-.15,5.26-.22-.02-1.61-.06-3.22-.09-4.84-1.72.08-3.45.15-5.17.22v4.84Z"/>
  <path class="st0" d="M1641.1,205.86c1.79-.09,3.59-.2,5.39-.29-.02-1.06-.05-2.1-.06-3.16-1.78.08-3.56.15-5.33.22v3.23Z"/>
  <path class="st0" d="M1597.04,246.22c4.3,1.92,8.79,3.44,13.39,4.65h.05c.13.05.24.08.37.1,3.22.84,6.48,1.54,9.78,2.11h.01c.13-.02.25,0,.34.06h.01c7.88,1.36,15.92,2.06,23.75,2.53-9.7-4.77-15.83-13.53-13.46-26.2,1.71-9.12,7.83-16.54,15.77-20.85-14.96.8-29.94,1.6-44.91,2.39-.03.01-.07.01-.1.01-7.43.39-14.87.78-22.3,1.18-.1,2.48-.14,4.98-.13,7.46.02,4.55-.23,9.32,1.78,13.53,3.02,6.31,9.49,10.29,15.65,13.02Z"/>
  <path class="st0" d="M1626.67,419.18c6.08.75,12.42-1.74,16.55-6.21,5.99-6.49,4.76-13.85,2.53-21.54-2.2-7.61-1.92-15.33.22-22.9,2.29-8.14,8.33-16.46,2.42-24.5-4.88-6.64-13.74-8.85-21.56-8.94-4.3,3.16-9.77,3.54-15.5,3.2-9.35-.57-17.43,1.22-25.4,4.91,2.16,5.02,1.84,10.64-.68,15.47t-.01.02c.72,0,1.45.09,2.17.28,6.78,1.8,12.32,7.7,16.39,13.14,5.61,7.48,12.08,13.11,21.29,15.58h.03c.44.02.87.03,1.31.05,1.48.03.15,3.19-1.2,3.16-.36-.01-.7-.02-1.05-.03-.06,0-.1,0-.16-.01-.02,0-.03.01-.06,0-.02,0-.05-.01-.07-.01-5.86-.23-11.85-1.1-17.44-2.84-8.08-2.51-14.8-11.6-23.8-10.65-.01,0-.01.01-.01.01-.07.02-.14.03-.21.03-.03,0-.08-.01-.11-.01s-.08.01-.12.01c-3.92.54-5.87,5.62-3.75,8.98.72,1.16,1.92,1.9,2.93,2.77,1.31,1.1,2.49,2.18,3.39,3.54,9.53,1.67,18.78,7.15,25.48,13.95,5.25,5.32,8.24,11.56,16.4,12.56Z"/>
  <path class="st0" d="M1648.39,173.48c.02,1.01.05,2.02.06,3.03,1.55-.08,3.1-.17,4.64-.25-.02-1.11-.04-2.23-.08-3.34-1.54.18-3.08.37-4.62.56Z"/>
  <path class="st0" d="M1648.5,179.6c.03,1.51.06,3.02.09,4.54,1.56-.08,3.11-.16,4.68-.24-.03-1.53-.07-3.05-.11-4.56-1.55.08-3.1.17-4.65.26Z"/>
  <path class="st0" d="M1648.65,187.22c.02,1.36.05,2.7.08,4.05,1.56-.07,3.14-.13,4.71-.2-.03-1.37-.07-2.72-.1-4.09-1.56.08-3.13.16-4.69.24Z"/>
  <path class="st0" d="M1648.79,194.37c.02,1.61.06,3.23.09,4.84,1.59-.06,3.16-.13,4.75-.2-.03-1.61-.08-3.23-.12-4.84-1.57.07-3.15.13-4.72.2Z"/>
  <path class="st0" d="M1653.78,205.18c-.02-1.02-.05-2.05-.08-3.07-1.59.07-3.17.14-4.76.2.02,1.05.03,2.09.06,3.13,1.6-.08,3.18-.16,4.78-.25Z"/>
  <path class="st0" d="M1695.13,202.99c4.83-10.43,4.17-23.29-1.61-33.3-.02-.05-.03-.09-.05-.14-7.61.31-15.17.85-22.65,1.53-4.47,10.47-4.79,23,.4,33.18,7.96-.41,15.94-.84,23.9-1.26Z"/>
  <path class="st0" d="M1696.34,282.89c1.49.92,3.11,1.63,4.81,2.17,0,.01.01.01.02.01-4.9-7.23-5.84-18.82-6.5-26.68-3.17.17-6.32.33-9.47.49.01,8.98,3.3,19.16,11.14,24.01Z"/>
  <path class="st0" d="M1706.6,286.04c.08.06.14.13.2.21,1.99.24,4.06.35,6.13.35-2.7-4.76-3.46-11.01-4.24-16.16-.64-4.23-1.14-8.5-1.44-12.79-3.32.22-6.63.41-9.95.6t-.01.01c.76,8.87,2.16,22.51,9.32,27.79Z"/>
  <path class="st0" d="M1710.55,169.28c.03,1.23.07,2.46.1,3.7,1.48-.03,2.97-.06,4.45-.09-.02-1.17-.06-2.34-.09-3.53-1.48-.03-2.98-.07-4.46-.08Z"/>
  <path class="st0" d="M1710.73,176.11c.05,1.34.08,2.69.12,4.05,1.48-.03,2.97-.08,4.45-.12-.03-1.33-.07-2.68-.12-4.01-1.48.02-2.97.06-4.45.08Z"/>
  <path class="st0" d="M1710.94,183.27c.02,1.02.06,2.03.08,3.06,1.48-.06,2.95-.1,4.44-.15-.03-1.01-.06-2.01-.08-3.01-1.48.03-2.95.07-4.44.1Z"/>
  <path class="st0" d="M1711.11,189.43c.05,1.64.09,3.29.14,4.93,1.47-.06,2.94-.13,4.41-.18-.05-1.63-.08-3.26-.13-4.9-1.47.06-2.95.1-4.43.15Z"/>
  <path class="st0" d="M1715.87,201.89c-.05-1.54-.08-3.08-.13-4.61-1.47.06-2.93.13-4.4.18.05,1.55.09,3.1.13,4.65,1.47-.08,2.93-.15,4.4-.23Z"/>
  <path class="st0" d="M1716.71,286.5c2.34-.1,4.67-.29,6.87-.47-2.39-4.45-2.91-10.39-3.53-15.01-.63-4.71-1.07-9.48-1.29-14.24-2.72.23-5.45.44-8.17.63-.25.02-.52.03-.78.06.29,3.65.71,7.3,1.25,10.91.89,5.77,1.69,13.17,5.5,17.86.06.08.1.17.14.26Z"/>
  <path class="st0" d="M1717.53,169.43c.02,1.14.06,2.28.09,3.41,1.61-.02,3.22-.06,4.83-.08-.05-1.05-.09-2.08-.14-3.11-1.59-.08-3.18-.16-4.78-.22Z"/>
  <path class="st0" d="M1717.71,175.98c.03,1.33.07,2.67.1,4,1.66-.05,3.31-.08,4.95-.13-.06-1.32-.12-2.64-.17-3.96-1.63.03-3.25.06-4.88.09Z"/>
  <path class="st0" d="M1717.89,183.1c.02,1,.06,2,.08,2.99,1.69-.06,3.38-.11,5.07-.17-.05-.98-.09-1.95-.14-2.93-1.67.03-3.33.08-5.01.12Z"/>
  <path class="st0" d="M1718.05,189.2c.05,1.62.08,3.24.13,4.87,1.74-.08,3.47-.15,5.21-.23-.07-1.61-.14-3.22-.21-4.83-1.71.07-3.41.13-5.13.18Z"/>
  <path class="st0" d="M1723.73,201.47c-.07-1.52-.14-3.02-.21-4.53-1.75.07-3.5.15-5.26.22.04,1.53.08,3.06.13,4.59,1.78-.09,3.56-.18,5.34-.28Z"/>
  <path class="st0" d="M1697.92,230.95c.07-.22.1-.42.08-.62-.01-.06-.03-.11-.03-.17-.01-.06-.02-.13-.03-.17-2.08-11.94-30.82-11.16-30.99,1.53-.16,12.48,29.05,11.7,30.98-.56Z"/>
  <path class="st0" d="M1633.55,229.73c-2.45,15.85,10.15,24.22,24.28,26.47.1.01.2.06.27.09h.03c6.9.2,13.81.17,20.69-.18h.05c8.04-.4,16.09-.86,24.14-1.4,2.92-.2,5.87-.39,8.83-.6,3.98-1.75,7.87-3.59,11.09-6.62,7.07-6.65,7.75-16.9,4.38-25.65-3.72-9.69-13.85-15.95-24.11-16.19-11.07.6-22.12,1.18-33.19,1.77-.18.08-.36.1-.51.02-4.22.23-8.42.45-12.64.68-11.28,1.93-21.5,9.94-23.32,21.62ZM1680.43,215.52c10.07-.79,29.59,1.64,31.01,14.69.06.13.08.31.07.55,0,.13-.01.24-.05.37-1.04,11.28-14.88,15.5-24.39,16.26-9.5.75-31.02-1.7-31.07-15.24-.06-11.53,15.51-15.92,24.43-16.63Z"/>
  <path class="st0" d="M1727.43,285.72c2.05-.15,4.14-.32,6.22-.55-2.63-7.98-4.17-16.57-4.17-25.04,0-1.47.05-2.93.14-4.39-2.76.3-5.53.57-8.3.83.18,3.54.49,7.08.92,10.61.68,5.7,1.14,13.88,5.01,18.56.07,0,.13-.01.18-.01Z"/>
  <path class="st0" d="M1724.87,169.79c.04.98.09,1.95.14,2.93,2.08-.05,4.17-.08,6.26-.11-.03-.78-.07-1.55-.1-2.33-2.09-.18-4.19-.36-6.3-.48Z"/>
  <path class="st0" d="M1725.14,175.85c.06,1.32.12,2.63.17,3.95,2.08-.06,4.16-.1,6.25-.16-.06-1.3-.11-2.61-.17-3.91-2.08.03-4.17.08-6.25.11Z"/>
  <path class="st0" d="M1725.45,182.91c.05.98.08,1.94.13,2.91l6.24-.21c-.05-.95-.08-1.91-.13-2.85-2.08.05-4.16.1-6.24.15Z"/>
  <path class="st0" d="M1725.72,188.94c.07,1.6.14,3.19.21,4.8,2.08-.09,4.15-.18,6.23-.28-.07-1.57-.14-3.16-.21-4.75-2.07.08-4.15.15-6.23.22Z"/>
  <path class="st0" d="M1729.43,201.16c1.01-.06,2.03-.1,3.04-.16-.07-1.48-.13-2.95-.2-4.44-2.07.09-4.14.17-6.22.26.07,1.51.14,3,.21,4.51,1.05-.06,2.1-.11,3.16-.17Z"/>
  <path class="st0" d="M1736.62,284.78c1.33-.18,2.65-.41,3.96-.69-1.97-5.25-3.06-10.93-2.94-16.38.09-4.91,1.44-9.43,3.69-13.45-3.09.45-6.18.85-9.3,1.2-.48,9.91,1.3,20.03,4.57,29.33,0-.01.01-.01.01-.01Z"/>
  <path class="st0" d="M1644.45,288.44c-.24-4.5-3.29-8.31-7.83-9.09-4.86-.82-9.89,2.53-9.93,7.71-.06,10.58,17.13,12.92,17.76,1.38ZM1635.61,284.05c2.23.39,3.8,2.25,3.93,4.49-.29,5.25-8.56,3.33-8.44-1.38.06-2.33,2.4-3.48,4.5-3.11Z"/>
  <path class="st0" d="M1573.86,346.13c3.17-.53,6.22-2.24,9.24-4.03.57-.34,1.14-.69,1.71-1.02,2.08-1.24,4.16-2.41,6.27-3.19,8.35-3.05,16.21-2.64,24.93-2.47,7.64.15,14.66-4.05,15.06-12.3.31-6.39-3.53-11.81-9.79-13.25-5.17-1.18-10.83.51-11.19,6.5-.08,1.29-2.61,3.38-2.48,1.38.84-13.83,19.62-15.09,24.7-3.11,2.26,5.34,1.41,11.76-1.79,16.54-.2.29-.39.57-.6.84,12,.87,26.11,8.03,23.34,22.12-1.53,7.77-5.87,14.36-6.48,22.51-.62,8.38,3.76,15.54,3.55,23.7-.22,9.18-6.37,17.39-14.87,20.65-4.16,1.6-8.8,1.97-13.1.68-5.54-1.67-8.27-5.63-11.82-9.84-6.01-7.11-14.89-13.05-24.16-15.42,1.3,4.99.69,10.83,1.8,15.82,1.56,6.96,4.79,13.62,10.69,17.9,7.68,5.6,17.61,5.77,26.72,6.37,8.91.57,18.57,1.09,27.16-1.83,10.49-3.56,12.31-12.28,11.94-22.41-.32-9.1-2.33-18.16-1.84-27.29.52-9.46,4.01-17.97,9.03-25.91,1.13-1.77,2.92-.75,1.79,1.03-4.57,7.24-7.85,14.87-8.34,23.5-.33,5.95.48,11.87,1.1,17.78,1,9.49,2.63,21.28-3.71,29.38-1,1.28-2.13,2.37-3.36,3.31,22.18,7.12,49.06,8.29,70.26-1.79-5.25-5.76-6.79-13.94-5.29-22.67,1.2-6.88,4.91-13.99,10.47-18.49-1.77-1.67-3.39-3.53-4.83-5.61-13.46-19.56-8.27-47.54-4.76-69.35,1.83-11.41,7.4-21.43,17.62-26.96-.4-.77-.78-1.56-1.13-2.37-5.04,1.2-10.32,1.71-15.49,2.06h-.01c-.14.05-.27.06-.4.02t-.01,0c-.39.03-.77.06-1.15.08-9.77.63-22.38,2.28-30.92-3.69-8.06-5.63-11.29-16.77-10.97-26.28-1.7.08-3.4.16-5.1.25h-.05c-.87.05-1.75.07-2.63.1-15.54.51-31.21-.02-46.63-1.99-2.49-.32-5.14-.67-7.87-1.08-1.06,1.43-2.03,2.92-2.91,4.46-.68,1.2-2.07,3.11-2.03,4.5.08,2.56,1.92,2.37,4.16,2.11,7.65-.84,14.89-3.34,22.66-1.68,8.65,1.85,15.65,9.17,23.43,13.19,5.01,2.6,10.19,4.96,15.48,6.95,1.25.47-.37,3.49-1.72,2.98-7.33-2.75-14.54-6.14-21.27-10.14-4.76-2.83-8.95-7.08-14.17-9-5.83-2.14-12.17-1.51-18.15-.44-3.65.64-13.24,4.18-12.99-2.41.14-3.73,2.75-7.68,5.16-10.91-2.59-.43-5.22-.92-7.86-1.52h-.01c-6.11,15.12-19.08,23.9-31.19,34.2-7.09,6.03-11.11,13.81-14.16,22.58-2.8,8.09-4.8,17.61-2.26,26.03,1.54,5.1,5.37,9.89,11.24,8.91ZM1696.37,359.05c1.82-1.33,1.89,1.52.68,2.4-20.28,14.97-18.46,44.47-7.89,64.81.62,1.21-1.48,3.88-2.14,2.61-11.47-22.09-12.51-53.67,9.35-69.82ZM1615.57,279.12c9.12-4.71,20.86-6.33,30.63-2.93,8.66,3.02,16.03,8.85,24.9,11.72,3.88,1.26,7.95,2.36,12.03,2.79,1.53.16.14,3.29-1.18,3.15-6.07-.64-12.09-2.4-17.82-4.8-10.07,6.65-29.68,19.03-40.68,7.77-3.92-4.01-5.6-10.3-5.61-15.9-.75.32-1.48.68-2.22,1.06-1.82.93-1.22-2.24-.05-2.85Z"/>
  <path class="st0" d="M1779.63,198.5c-.55-4.86-2.29-9.84-4.95-13.81-4.67-6.95-12.17-9.19-19.94-10.87-.45-.1-.91-.18-1.36-.28-1.77,8.75-.56,18.23,3.36,26.18,7.63-.41,15.26-.82,22.89-1.22Z"/>
  <path class="st0" d="M1764.69,402.99c-2.53-.24-5.06-.61-7.55-1.1-.88,1.51-1.6,3.16-1.94,4.84-1.3,6.44,4.23,8.45,9.55,9.41,4.34.79,10.48,1.84,14.41-.87,3.86-2.67,2.73-8.4,1.84-12.26-.02-.14-.02-.29,0-.44-5.36.91-10.94.93-16.31.43Z"/>
  <path class="st0" d="M1743.86,284.21c.54,1.25,1.13,2.47,1.77,3.64,3.43-1.48,6.98-2.39,10.58-2.92-2.68-6.91-3.94-15.25-1.45-22.21,2.86-8.01,11-12.56,19.16-13.33,6.78-.63,16.8,1.91,16.61,10.45-.17,8.02-8.33,11.99-15.35,11.85-1.49-.02-.16-3.17,1.18-3.15,4.24.08,9.64-1.05,11.23-5.62,1.26-3.62-.8-6.64-3.81-8.47-4.75-2.9-11.38-2.42-16.41-.69-13.65,4.68-12.93,19.59-8.07,30.79,2.46-.24,4.94-.34,7.43-.38h.01c9.37-.13,19.96.62,28.68,4.68,10.46-9.23,11.38-24.41,4.98-36.48-2.7-5.1-7.1-8.83-12.22-11.15-1.03-.47-2.11-.88-3.21-1.24-4.22-1.38-8.77-1.87-13.15-1.47-9.46.87-19.03,5.14-25.13,12.04-.92,1.03-1.77,2.14-2.52,3.3-2.76,4.24-4.3,9.26-4.01,14.92.25,4.96,1.47,10.14,3.44,14.87.16.11.24.32.25.57Z"/>
  <path class="st0" d="M1612.59,178.45c13.59-5.79,29.64-7.37,44.16-9,12.65-1.43,25.39-2.31,38.13-2.65.16-.06.32-.07.47-.01,5.99-.16,11.97-.21,17.96-.11,16.39.25,33.64.91,49.43,5.73,11.83,3.61,18.69,13.83,19.47,25.95,7.49-.4,14.97-.79,22.47-1.2-1.18-7.85-3.93-15.38-8.31-20.86-11.63-14.57-32.72-18.53-50.2-20.32-22.24-2.28-44.76-1.01-67,.72-9.94.78-19.87,1.72-29.81,2.54-10.8.87-21.66,1.18-32.27,3.6-9.39,2.14-18.86,5.87-25.56,13.05-6.55,7.01-9.49,16.38-10.85,25.68-.37,2.51-.62,5.01-.78,7.53,7.04-.37,14.09-.75,21.13-1.13-1.85-11.09.23-24.71,11.55-29.53Z"/>
  <path class="st0" d="M1755.52,202.86c-.18.08-.36.1-.51.03-13.23.7-26.45,1.4-39.67,2.1,8.22,3.73,14.35,11.31,15.93,20.66.3,1.8.45,3.53.45,5.18,0,10.15-5.49,17.57-13.7,22.8.75-.05,1.48-.1,2.23-.16h.01c.22-.1.41-.13.57-.05h.01c3.47-.29,6.95-.59,10.43-.94.28-.15.53-.2.7-.07,0,0,0-.01.01-.01,3.82-.39,7.63-.85,11.43-1.38,9.79-13.33,30.07-19.66,45.47-13.24,6.58-4.04,12-9.6,14.42-17.43,1.84-5.94,2.43-13.07,1.73-20.13-9.4.5-18.8,1-28.2,1.5-7.11.38-14.23.75-21.34,1.13Z"/>
  <path class="st0" d="M1800.06,393.34c-1.9,1.86-3.98,3.42-6.18,4.7h-.01c8.8,6.55,12.76,19.52,3.53,27.8-7.62,6.83-21.54,6.61-31.07,6.27-9.92-.33-26.17-1.49-30.79-12.19-3.5-8.1,1.21-17.21,6.95-23.26h0c-2.08-1.16-4.07-2.48-5.91-4-9.68,6.54-12.66,21.34-8.62,31.79,1.01,2.62,2.61,4.76,4.6,6.49.24.02.39.17.46.39,7.02,5.8,18.51,7.06,26.82,7.45,12.08.57,25.01-.36,36.66-3.8,8.49-2.51,14.14-9.25,14.63-18.21.52-9.27-4.31-17.48-10.62-23.87l-.45.45Z"/>
  <path class="st0" d="M1776.82,336.32c-4.91-.84-9.99,2.55-10.02,7.78-.06,10.7,17.3,13.03,17.93,1.39-.24-4.55-3.32-8.4-7.91-9.17Z"/>
  <path class="st0" d="M1773.36,325.48c-9.18.99-16.31,9.32-16.28,18.48.03,10.06,8.79,18.11,18.84,17.1,9.43-.95,15.7-9.16,16.25-18.19.02-.09.03-.2.02-.29.01-.18,0-.32-.03-.44-.69-9.77-8.57-17.76-18.79-16.66ZM1759.57,342.58c.03-9.18,8.87-15.46,17.57-13.74,7.36,1.44,12.22,7.81,12.56,15.12-.93,19.59-30.2,17.16-30.13-1.38Z"/>
  <path class="st0" d="M1794.78,292.28c-.47.18-.75-.03-.87-.43-8.62-4.1-19.14-4.65-28.36-4.54h-.01c-7.14.1-14.3.83-20.8,3.79-.01.01-.02.02-.03.02-.07.02-.15.06-.23.1-.85.39-1.68.82-2.5,1.3-13.12,7.58-14.4,22.25-16.2,35.83-2.64,20.03-4.77,46.3,12.08,60.96.05.02.07.05.1.08.33.3.68.59,1.02.86,10.58,8.47,25.89,10.87,39.07,9.68,11.71-1.07,21.88-6.59,27.19-17.35,4.53-9.2,5.49-19.88,5.91-29.99.37-9.22.72-18.57.36-27.79-.37-9.43-2.02-19.44-8.71-26.6-2.33-2.49-5.05-4.44-8-5.93ZM1804.8,366.58c-2.99,18.55-16.94,27.19-34.69,27.42-12.62.15-27.53-1.78-34.54-13.73-5.16-8.79-4.98-19.73-4.79-29.59.31-16.81-1.13-38.23,11.68-51.24,14.86-15.11,46.83-10.6,58.33,6.56,11.45,17.08,7.07,41.62,4.02,60.59Z"/>
  <path class="st0" d="M23.76,233.82c-.26.26-.16.59,0,0h0Z"/>
  <path class="st0" d="M23.81,233.59c.03-.16.08-.37.11-.61.38-2.71,1.08-5.41,1.57-8.11.74-3.99,1.43-7.98,2.11-11.97-.45-.03-.88-.07-1.32-.09-4.56-.26-10.23-.11-14.55-1.39-.67,3.79-2.55,7.77-3.17,11.43-.54,3.1-1.22,6.14,1.74,8.01,2.72,1.72,6.63,2.31,9.79,2.67,1.28.14,2.47.15,3.71.07Z"/>
  <path class="st0" d="M43.54,218.66c-1.2-1.1-2.53-2.08-4.14-2.9-2.97-1.48-6.23-2.24-9.52-2.65-.8,4.71-1.63,9.42-2.53,14.11-.01.06-.01.1-.02.16-.23,1.2-.29.86.87,1.31,1.35.53,3.08.6,4.51.78,2.88.38,6.37.05,9.15.84.07.02.16.03.24.03.02-.08.03-.15.06-.23-.15-1.39.54-3.37.71-4.79.26-2.22.48-4.44.67-6.67Z"/>
  <path class="st0" d="M57.57,48.99c.77-1.91,1.72-3.9,2.84-5.86-12.04-2.14-23.6-9.52-28.86-20.87-1.23,1.32-2.34,2.76-3.33,4.31-.82,1.28-1.38,2.53-1.76,3.76,6.71,10.42,18.31,19.4,31.11,18.66Z"/>
  <path class="st0" d="M62.31,40.1c1.47-2.16,3.15-4.19,5.02-5.92-10.8-2.05-20.49-9.89-27.51-18.05-2.14,1.02-4.13,2.34-5.95,3.91,5.08,11.08,16.75,18.18,28.44,20.06Z"/>
  <path class="st0" d="M51.6,262.59c6.61-6,7.55-14.84,11.08-22.54,1.65-3.61,3.63-7.11,5.86-10.42-10.88-.44-17.63-12.41-23.5-19.74-6.01-7.53-14.32-14.56-23.98-16.69-2.64-.57-5.88-1.1-8.5-.13-4.18,1.56-6.62,8.78-4.03,12.72.69,1.07,1.65,1.86,2.77,2.45.29-.08.53,0,.64.3,5.22,2.29,13.48.8,18.08,1.29,5.71.6,11.34,2.26,15.69,6,.16.01.29.11.36.32.48.44.95.9,1.4,1.39,4.45,4.87,8.26,10.99,15.3,12.28.82.15.8,1.07.43,1.88-.02.05-.03.08-.06.12-.03.06-.07.11-.1.17,0,.02-.01.03-.02.05-.14.22-.29.41-.46.56-4.47,5.21-5.09,12.76-9.69,18.04-3.75,4.31-8.71,5.75-14.28,5.86-7.86.16-14.64-2.98-22.24-3.85-6.49-.76-6.22,8.54-3.31,12.41.49.67,1.09,1.23,1.75,1.7.03.02.06.05.09.07,3.15,2.24,7.77,2.51,11.4,2.52,8.38.03,18.86-.87,25.35-6.77Z"/>
  <path class="st0" d="M21.57,80.88c2.79,13,21.9,16.89,33.3,15.16.01-.01.02-.01.03-.02,2.98-1.63,5.84-3.57,8.55-6.07,3.47-3.18,6.39-6.8,8.81-10.72-12.12-3.7-19.73-14.42-15.82-27.11-12.33.49-23.49-7.14-30.61-16.99.25,4.5,2.65,8.78,5.18,13.24,1.95,3.47,3.06,6.22,1.17,9.96-3.59,7.08-12.51,13.71-10.62,22.55Z"/>
  <path class="st0" d="M74.96,32.56c-1.26.34-2.49.9-3.69,1.6-.18.2-.39.33-.61.4-2.52,1.62-4.82,3.92-6.76,6.59-.02.84-.71,2-1.48,2.23-1.25,2.03-2.3,4.19-3.08,6.37.03.51-.2,1.16-.55,1.65-.72,2.39-1.13,4.73-1.1,6.87.11,9.07,8.12,15.61,16.33,17.96,3.3-6.08,5.54-12.76,6.94-19.57,1.32-6.46,3.05-12.62,6.06-18.38-.83-5.13-7.83-6.9-12.06-5.72ZM77.11,58.93c-.35,4.16-3.17,8.06-7.56,8.54-4.41.47-8.11-3.1-8.15-7.47-.03-4.18,3.22-8.31,7.43-8.83,4.46-.56,7.81,2.78,8.26,6.98.03.13.06.28.05.47,0,.1-.01.21-.03.31ZM81.44,40.12c.02.09.05.2.03.31.01.13-.01.26-.06.4-.31,2.96-2.33,5.81-5.49,6.16-3.07.32-5.56-2.16-5.6-5.18-.03-3.05,2.32-6.14,5.39-6.55,3.11-.43,5.42,1.94,5.72,4.86Z"/>
  <path class="st0" d="M71.02,31.4c1.98-1.18,4.1-2.02,6.38-2.32,4.52-.57,9.77,1.61,11.56,5.85h.01c.28-.46.56-.9.86-1.33,5.02-7.29,11.57-12.61,19.01-16.51C105.87,9.6,101,.12,91.95,0c-6.22-.07-11.86,4.13-16.51,7.79-3.06,2.4-6.19,5.98-9.85,7.48-3.59,1.48-7.58-.53-11.18-1.2-3.9-.72-7.73-.4-11.31.74,7.23,8.01,17.12,15.47,27.93,16.58Z"/>
  <path class="st0" d="M220.54,37.77c-8.58,13.73-15.26,28.66-20.81,43.85-4.61,12.63-9.88,25.67-5.99,39.16,2.11,7.32,6.98,15.95,14.58,18.72,11.22,4.09,13.33-10.53,13.84-18.3.7-10.63,3.53-20.51,8.55-29.93,4.88-9.18,11.35-17.42,18.09-25.31,5.21-6.09,11.49-12.08,15.5-19.1.23-.39.45-.78.65-1.17.57-1.1.95-2.24,1.16-3.39,1.45-8.11-5.64-17.16-11.73-21.82-3.56-2.73-8.57-5.06-13.27-4.67-.34.02-.69.07-1.03.13-1.05.52-2.06,1.13-3.03,1.79-7,4.83-12.22,13.18-16.5,20.02Z"/>
  <path class="st0" d="M135.01,112.14c-.31-5.81-4.26-10.73-10.11-11.73-6.29-1.07-12.79,3.29-12.84,10-.07,13.7,22.14,16.65,22.95,1.74ZM123.39,104.17c3.92-.52,6.84,2.47,7.18,6.16.02.09.05.2.03.31.01.1-.01.21-.02.31-.32,3.67-2.83,7.15-6.7,7.56-3.84.41-7.02-2.7-7.07-6.49-.03-3.7,2.84-7.37,6.57-7.85Z"/>
  <path class="st0" d="M13.09,168.48c4.01.76,8.12.01,12-1.05,6.63-1.84,11.74-3.93,18.74-3.55,13.62.71,33.28,8.37,37.22-11.25,1.68-8.34-3.73-16.15-12.43-16.47-6.48-.24-12.35,3.23-9.88,10.15.44,1.22-1.79,3.71-2.39,2.06-1.05-2.93-1-6.48.41-9.27,2.71-5.39,9.63-6.8,15.13-5.85,6.46,1.1,10.97,6.13,11.83,12.55,1.54,11.72-7.77,23.88-19.77,23.64-8.3-.16-16.4-2.55-24.74-2.52-5.86.02-11.23,2.63-16.85,4.08h-.01c1.09,6.41-.02,13.33-3.73,18.63,2.23.1,4.61.57,7.01,1.36,7.75,2.53,14.46,8.15,19.76,14.18,6.84,7.75,13.56,22.23,26.12,21.28,1.28-.09.32,2.09.05,2.47-4.67,6.33-7.64,13.31-10.07,20.74-1.93,5.92-4.93,11.69-9.73,15.78-4.92,4.18-10.85,5.53-17.11,6.36-5.71.76-11.99,1.4-17.61-.25-.54-.15-1.03-.34-1.52-.54,1.17,8.21,3.96,15.93,11.73,20.08,12.3,6.6,27.6,5.98,40.77,2.69,4.82-8.37,7.35-18.17,7.3-27.94-.01-1.32,2.47-3.41,2.48-1.39.13,19.88-9.75,39.78-26.98,49.55,16.84-.32,30.9-9.17,40.04-23.78,4.69-7.48,8.5-16.09,10.32-24.78.3-1.44,2.87-2.82,2.41-.61-3.45,16.5-12.31,32.23-25.18,42.07,15.8,2.33,32.83-.45,38.87-17.33,2.48-6.94,3.16-15.86,2.15-22.64-.18-1.26,2.15-3.7,2.4-2.06,1.32,8.89.33,18.8-3.22,27.07-2.77,6.44-6.95,10.93-11.99,13.92,7.89,2.24,16.84,3.21,24.12-1.16,5.68-3.41,8.95-9.4,10.83-15.56,2.37-7.81,3.05-16.54,2.25-24.66-.13-1.33,2.3-3.41,2.49-1.38.95,9.91-.13,20.87-3.93,30.09-1.18,2.86-2.74,5.61-4.63,8.06,14.07-1.24,29.11-6.69,29.28-23.08.06-6.26-1.61-13.02-4.46-18.63-.61-1.21,1.49-3.88,2.14-2.61,3.64,7.17,5.64,16,4.5,23.98-.72,5.09-2.71,9.14-5.54,12.37,14.47-3.55,29.86-11.41,23.65-28.73-2.45-6.83-7.01-13.32-12.15-18.42-.92-.92,1.02-3.72,2.14-2.6,6.42,6.38,12.32,15.12,13.77,24.18.54,3.37.33,6.37-.44,9.06,6.6-2.55,14.09-6.6,15.17-14.19.72-5.11-1.47-10.3-4.02-14.58-3.26-5.46-7.64-10.57-12.5-14.7-1.1-.94.72-3.84,1.72-2.98,6.68,5.67,12.97,13.1,15.97,21.4,1.53,4.21,1.68,8,.83,11.38,7.46-5.78,14.76-13.85,11.16-23.86-2.19-6.1-7.3-10.88-12.43-14.58-6.73-4.85-14.41-8.69-21.52-12.91-1.23-.72.51-3.7,1.72-2.98,8.85,5.24,19.05,10,26.64,17.08,5.02,4.68,9.17,10.8,9.06,17.87,5.68-7.44,8.81-16.33,2.37-24.64-4.41-5.68-11.23-9.33-17.78-12-9.51-3.87-19.54-6.8-29.22-10.22-1.25-.44.36-3.46,1.72-2.98,11.62,4.09,23.29,6.94,34.2,12.46,5.73,2.91,11.7,6.96,14.94,12.7,13.56-34.02-43.4-34.11-63.45-36.21-1.53-.16-.14-3.29,1.18-3.15,13.33,1.39,27.25,1.69,40.34,4.71,7.9,1.83,16.32,4.95,21.78,11.22.24.28.45.56.67.85,7.88-35.58-48.57-31.17-70.3-32.03-1.49-.06-.15-3.21,1.19-3.16,7.98.32,15.95.64,23.93.97,9.62.38,19.19.41,28.48,3.37,6.41,2.03,12.87,5.4,16.65,11.19,4.37,6.7,3.79,14.72,1.68,22.1,3.87,7.02,2.33,15.28-.97,22.63.06.13.11.25.16.38,3.46,9.43-2.03,18.78-8.07,25.78-1.91,8.25-8.99,14.64-15.59,19.42-.05.03-.09.06-.15.09-1.31,2.4-3.16,4.54-5.38,6.41,2.6.44,6.11.86,8.54,1.06,14.5,1.25,30.42.67,43.73-5.78,9.06-4.39,12.03-10.33,14.36-19.71,5.96-23.89,5.91-49.62,5.94-74.08.05-29.01-1.23-58.03-3.59-86.94-1.02-12.61-1.22-26.37-4.7-38.64-4.62,7.32-11.15,13.61-16.66,20.17-8.69,10.32-16.81,21.48-21,34.45-3.5,10.92-.61,25.1-7.96,34.57-4.38,5.65-11.14,5.67-16.7,1.67-22.7-16.35-9.84-48.04-1.69-68.22,5.71-14.14,12.45-28.05,21.08-40.65,3.46-5.06,7.47-10.72,12.45-14.84-19.16-8.07-42.05-8.84-62.05-8.24-12.53.38-25.03,1.59-37.41,3.56-15.19,2.44-30.63,7.31-40.97,19.34-11.45,13.31-10.34,31.68-18.72,46.58-.06.1-.11.21-.18.3-.1.29-.26.55-.45.78-.01.01-.01.02-.01.02-.01.01-.02.02-.02.02h0c-4.71,8-11.23,14.7-19.03,19.52,0,0-.01,0-.01.01-.21.21-.44.36-.67.41h-.02c-2.71,1.63-5.57,3.03-8.57,4.19-7.92,3.05-15.19,5.37-21.95,10.73-5.9,4.68-10.89,10.47-14.95,16.79-3.54,5.55-6.52,11.62-8.25,17.98-.99,3.64-2.21,8.5-.51,12.12,1.88,4.01,8.16,6.88,12.24,7.65ZM97.15,205.68c-.52,7.1-5.39,13.42-12.8,14.24-7.8.85-14.62-5.39-14.68-13.17-.06-7.11,5.57-13.72,12.69-14.54,7.96-.91,14.12,5.07,14.78,12.69.03.11.06.26.05.47.01.1-.01.21-.03.31ZM124.08,236.56c-.46,6.15-4.63,11.73-11.07,12.45-6.72.75-12.46-4.71-12.51-11.38-.05-6.16,4.76-12.01,10.95-12.73,6.84-.8,12.03,4.4,12.61,10.88.05.13.06.28.06.47,0,.1-.01.21-.03.31ZM122.42,193.42c-6.22.69-11.5-4.36-11.56-10.52-.05-5.72,4.42-11.19,10.18-11.88,6.32-.75,11.11,4.05,11.66,10.03.03.13.06.28.05.47,0,.1-.01.21-.03.31-.44,5.71-4.31,10.93-10.3,11.58ZM160.68,211.82c.05.13.07.3.06.52,0,.1-.01.22-.03.33-.57,7.14-5.84,12.94-13.13,13.69-7.6.78-15.03-4.75-15.1-12.64-.14-16.92,26.67-18.94,28.21-1.9ZM101.51,70.68c4.49-3.65,11.4-4.42,16.93-4.41,20.69.07,40.51,11.97,56.91,23.33,1.2.82-.59,3.77-1.72,2.99-15.94-11.03-34.73-22.33-54.68-23.12-5.22-.21-12.77.38-16.76,3.62-1.75,1.42-1.82-1.46-.68-2.4ZM93.25,89.59c1.46,1.1,3.06,2.07,4.72,2.93.2-.02.37.06.48.25,2.91,1.45,6.02,2.56,9.04,3.45,11.57,3.39,22.2,1.57,33.96.88,11.25-.66,25.27,3.22,31.26,13.77.67,1.17-1.42,3.87-2.14,2.61-2.68-4.72-6.61-7.85-11.14-9.86-3.6,4.7-8.52,8.63-13.38,11.86-8.81,5.85-22.77,13.11-33.65,9.94-11.86-3.46-15.82-18.79-16.28-29.88-1.61-.88-3.15-1.86-4.61-2.96-1.15-.88.64-3.8,1.72-2.99Z"/>
</svg>