<?xml version="1.0" encoding="UTF-8"?>
<svg id="Layer_1" xmlns="http://www.w3.org/2000/svg" version="1.1" viewBox="0 0 1790.05 439.58">
  <!-- Generator: Adobe Illustrator 30.5.1, SVG Export Plug-In . SVG Version: 2.1.4 Build 3)  -->
  <defs>
    <style>
      .st0 {
        fill: #2d2e2d;
      }
    </style>
  </defs>
  <path class="st0" d="M1561.97,374.08c8.44-.85,14.2,6.76,21.38,9.72,2.91,1.22,6.02,2.07,9.22,2.67-5.69-3.72-9.85-8.93-14.69-14.77-3.24-3.91-9.84-9.96-15.36-10.02-4.6-.05-6.82,4.5-4.33,8.39.97,1.53,2.36,2.9,3.79,4.01Z"/>
  <path class="st0" d="M1581.56,195.91c-.38,3.92-.16,8.02.65,11.89,1.21-.07,2.43-.14,3.64-.2,2.91-.16,5.8-.31,8.71-.47,3.64-8.07,2.26-18.78.3-27.21-8.04,2.61-12.46,7.3-13.31,15.99Z"/>
  <path class="st0" d="M1617.01,174.84c-1.17.2-2.36.39-3.53.6v1.78c1.18-.07,2.36-.13,3.53-.2v-2.18Z"/>
  <path class="st0" d="M1617.01,180.11c-1.17.06-2.34.13-3.53.2v4.48c1.18-.06,2.36-.11,3.53-.18v-4.49Z"/>
  <path class="st0" d="M1617.01,187.7c-1.17.07-2.34.13-3.53.18v3.92c1.18-.05,2.36-.09,3.53-.15v-3.95Z"/>
  <path class="st0" d="M1617.01,194.75c-1.17.06-2.34.1-3.53.15v4.83c1.18-.05,2.36-.09,3.53-.14v-4.84Z"/>
  <path class="st0" d="M1613.48,206.14c1.18-.07,2.36-.13,3.53-.2v-3.25c-1.17.05-2.34.09-3.53.15v3.3Z"/>
  <path class="st0" d="M1619.51,174.43v2.45c1.61-.09,3.23-.18,4.84-.28-.02-.94-.03-1.9-.06-2.85-1.6.22-3.2.44-4.78.68Z"/>
  <path class="st0" d="M1619.51,184.48c1.66-.08,3.32-.17,4.99-.25-.03-1.52-.06-3.02-.09-4.53-1.63.09-3.26.18-4.9.28v4.5Z"/>
  <path class="st0" d="M1619.51,191.54c1.7-.07,3.41-.14,5.11-.22-.02-1.33-.05-2.68-.07-4.01-1.69.08-3.37.17-5.05.25v3.98Z"/>
  <path class="st0" d="M1619.51,199.49c1.76-.07,3.5-.15,5.26-.22-.02-1.61-.06-3.22-.09-4.84-1.72.08-3.45.15-5.17.22v4.84Z"/>
  <path class="st0" d="M1619.51,205.82c1.79-.09,3.59-.2,5.39-.29-.02-1.06-.05-2.1-.06-3.16-1.78.08-3.56.15-5.33.22v3.23Z"/>
  <path class="st0" d="M1575.45,246.18c4.3,1.92,8.79,3.44,13.39,4.65h.05c.13.05.24.08.37.1,3.22.84,6.48,1.54,9.78,2.11h.01c.13-.02.25,0,.34.06h.01c7.88,1.36,15.92,2.06,23.75,2.53-9.7-4.77-15.83-13.53-13.46-26.2,1.71-9.12,7.83-16.54,15.77-20.85-14.96.8-29.94,1.6-44.91,2.39-.03.01-.07.01-.1.01-7.43.39-14.87.78-22.3,1.18-.1,2.48-.14,4.98-.13,7.46.02,4.55-.23,9.32,1.78,13.53,3.02,6.31,9.49,10.29,15.65,13.02Z"/>
  <path class="st0" d="M1605.07,419.13c6.08.75,12.42-1.74,16.55-6.21,5.99-6.49,4.76-13.85,2.53-21.54-2.2-7.61-1.92-15.33.22-22.9,2.29-8.14,8.33-16.46,2.42-24.5-4.88-6.64-13.74-8.85-21.56-8.94-4.3,3.16-9.77,3.54-15.5,3.2-9.35-.57-17.43,1.22-25.4,4.91,2.16,5.02,1.84,10.64-.68,15.47t-.01.02c.72,0,1.45.09,2.17.28,6.78,1.8,12.32,7.7,16.39,13.14,5.61,7.48,12.08,13.11,21.29,15.58h.03c.44.02.87.03,1.31.05,1.48.03.15,3.19-1.2,3.16-.36-.01-.7-.02-1.05-.03-.06,0-.1,0-.16-.01-.02,0-.03.01-.06,0-.02,0-.05-.01-.07-.01-5.86-.23-11.85-1.1-17.44-2.84-8.08-2.51-14.8-11.6-23.8-10.65-.01,0-.01.01-.01.01-.07.02-.14.03-.21.03-.03,0-.08-.01-.11-.01s-.08.01-.12.01c-3.92.54-5.87,5.62-3.75,8.98.72,1.16,1.92,1.9,2.93,2.77,1.31,1.1,2.49,2.18,3.39,3.54,9.53,1.67,18.78,7.15,25.48,13.95,5.25,5.32,8.24,11.56,16.4,12.56Z"/>
  <path class="st0" d="M1626.79,173.43c.02,1.01.05,2.02.06,3.03,1.55-.08,3.1-.17,4.64-.25-.02-1.11-.04-2.23-.08-3.34-1.54.18-3.08.37-4.62.56Z"/>
  <path class="st0" d="M1626.91,179.56c.03,1.51.06,3.02.09,4.54,1.56-.08,3.11-.16,4.68-.24-.03-1.53-.07-3.05-.11-4.56-1.55.08-3.1.17-4.65.26Z"/>
  <path class="st0" d="M1627.06,187.18c.02,1.36.05,2.7.08,4.05,1.56-.07,3.14-.13,4.71-.2-.03-1.37-.07-2.72-.1-4.09-1.56.08-3.13.16-4.69.24Z"/>
  <path class="st0" d="M1627.2,194.33c.02,1.61.06,3.23.09,4.84,1.59-.06,3.16-.13,4.75-.2-.03-1.61-.08-3.23-.12-4.84-1.57.07-3.15.13-4.72.2Z"/>
  <path class="st0" d="M1632.18,205.14c-.02-1.02-.05-2.05-.08-3.07-1.59.07-3.17.14-4.76.2.02,1.05.03,2.09.06,3.13,1.6-.08,3.18-.16,4.78-.25Z"/>
  <path class="st0" d="M1673.53,202.95c4.83-10.43,4.17-23.29-1.61-33.3-.02-.05-.03-.09-.05-.14-7.61.31-15.17.85-22.65,1.53-4.47,10.47-4.79,23,.4,33.18,7.96-.41,15.94-.84,23.9-1.26Z"/>
  <path class="st0" d="M1674.75,282.85c1.49.92,3.11,1.63,4.81,2.17,0,.01.01.01.02.01-4.9-7.23-5.84-18.82-6.5-26.68-3.17.17-6.32.33-9.47.49.01,8.98,3.3,19.16,11.14,24.01Z"/>
  <path class="st0" d="M1685,286c.08.06.14.13.2.21,1.99.24,4.06.35,6.13.35-2.7-4.76-3.46-11.01-4.24-16.16-.64-4.23-1.14-8.5-1.44-12.79-3.32.22-6.63.41-9.95.6t-.01.01c.76,8.87,2.16,22.51,9.32,27.79Z"/>
  <path class="st0" d="M1688.95,169.24c.03,1.23.07,2.46.1,3.7,1.48-.03,2.97-.06,4.45-.09-.02-1.17-.06-2.34-.09-3.53-1.48-.03-2.98-.07-4.46-.08Z"/>
  <path class="st0" d="M1689.14,176.07c.05,1.34.08,2.69.12,4.05,1.48-.03,2.97-.08,4.45-.12-.03-1.33-.07-2.68-.12-4.01-1.48.02-2.97.06-4.45.08Z"/>
  <path class="st0" d="M1689.34,183.22c.02,1.02.06,2.03.08,3.06,1.48-.06,2.95-.1,4.44-.15-.03-1.01-.06-2.01-.08-3.01-1.48.03-2.95.07-4.44.1Z"/>
  <path class="st0" d="M1689.52,189.38c.05,1.64.09,3.29.14,4.93,1.47-.06,2.94-.13,4.41-.18-.05-1.63-.08-3.26-.13-4.9-1.47.06-2.95.1-4.43.15Z"/>
  <path class="st0" d="M1694.27,201.84c-.05-1.54-.08-3.08-.13-4.61-1.47.06-2.93.13-4.4.18.05,1.55.09,3.1.13,4.65,1.47-.08,2.93-.15,4.4-.23Z"/>
  <path class="st0" d="M1695.11,286.46c2.34-.1,4.67-.29,6.87-.47-2.39-4.45-2.91-10.39-3.53-15.01-.63-4.71-1.07-9.48-1.29-14.24-2.72.23-5.45.44-8.17.63-.25.02-.52.03-.78.06.29,3.65.71,7.3,1.25,10.91.89,5.77,1.69,13.17,5.5,17.86.06.08.1.17.14.26Z"/>
  <path class="st0" d="M1695.94,169.39c.02,1.14.06,2.28.09,3.41,1.61-.02,3.22-.06,4.83-.08-.05-1.05-.09-2.08-.14-3.11-1.59-.08-3.18-.16-4.78-.22Z"/>
  <path class="st0" d="M1696.11,175.94c.03,1.33.07,2.67.1,4,1.66-.05,3.31-.08,4.95-.13-.06-1.32-.12-2.64-.17-3.96-1.63.03-3.25.06-4.88.09Z"/>
  <path class="st0" d="M1696.3,183.05c.02,1,.06,2,.08,2.99,1.69-.06,3.38-.11,5.07-.17-.05-.98-.09-1.95-.14-2.93-1.67.03-3.33.08-5.01.12Z"/>
  <path class="st0" d="M1696.46,189.15c.05,1.62.08,3.24.13,4.87,1.74-.08,3.47-.15,5.21-.23-.07-1.61-.14-3.22-.21-4.83-1.71.07-3.41.13-5.13.18Z"/>
  <path class="st0" d="M1702.13,201.43c-.07-1.52-.14-3.02-.21-4.53-1.75.07-3.5.15-5.26.22.04,1.53.08,3.06.13,4.59,1.78-.09,3.56-.18,5.34-.28Z"/>
  <path class="st0" d="M1676.32,230.9c.07-.22.1-.42.08-.62-.01-.06-.03-.11-.03-.17-.01-.06-.02-.13-.03-.17-2.08-11.94-30.82-11.16-30.99,1.53-.16,12.48,29.05,11.7,30.98-.56Z"/>
  <path class="st0" d="M1611.96,229.69c-2.45,15.85,10.15,24.22,24.28,26.47.1.01.2.06.27.09h.03c6.9.2,13.81.17,20.69-.18h.05c8.04-.4,16.09-.86,24.14-1.4,2.92-.2,5.87-.39,8.83-.6,3.98-1.75,7.87-3.59,11.09-6.62,7.07-6.65,7.75-16.9,4.38-25.65-3.72-9.69-13.85-15.95-24.11-16.19-11.07.6-22.12,1.18-33.19,1.77-.18.08-.36.1-.51.02-4.22.23-8.42.45-12.64.68-11.28,1.93-21.5,9.94-23.32,21.62ZM1658.83,215.47c10.07-.79,29.59,1.64,31.01,14.69.06.13.08.31.07.55,0,.13-.01.24-.05.37-1.04,11.28-14.88,15.5-24.39,16.26-9.5.75-31.02-1.7-31.07-15.24-.06-11.53,15.51-15.92,24.43-16.63Z"/>
  <path class="st0" d="M1705.83,285.67c2.05-.15,4.14-.32,6.22-.55-2.63-7.98-4.17-16.57-4.17-25.04,0-1.47.05-2.93.14-4.39-2.76.3-5.53.57-8.3.83.18,3.54.49,7.08.92,10.61.68,5.7,1.14,13.88,5.01,18.56.07,0,.13-.01.18-.01Z"/>
  <path class="st0" d="M1703.27,169.74c.04.98.09,1.95.14,2.93,2.08-.05,4.17-.08,6.26-.11-.03-.78-.07-1.55-.1-2.33-2.09-.18-4.19-.36-6.3-.48Z"/>
  <path class="st0" d="M1703.55,175.8c.06,1.32.12,2.63.17,3.95,2.08-.06,4.16-.1,6.25-.16-.06-1.3-.11-2.61-.17-3.91-2.08.03-4.17.08-6.25.11Z"/>
  <path class="st0" d="M1703.86,182.87c.05.98.08,1.94.13,2.91l6.24-.21c-.05-.95-.08-1.91-.13-2.85-2.08.05-4.16.1-6.24.15Z"/>
  <path class="st0" d="M1704.12,188.89c.07,1.6.14,3.19.21,4.8,2.08-.09,4.15-.18,6.23-.28-.07-1.57-.14-3.16-.21-4.75-2.07.08-4.15.15-6.23.22Z"/>
  <path class="st0" d="M1707.83,201.12c1.01-.06,2.03-.1,3.04-.16-.07-1.48-.13-2.95-.2-4.44-2.07.09-4.14.17-6.22.26.07,1.51.14,3,.21,4.51,1.05-.06,2.1-.11,3.16-.17Z"/>
  <path class="st0" d="M1715.03,284.73c1.33-.18,2.65-.41,3.96-.69-1.97-5.25-3.06-10.93-2.94-16.38.09-4.91,1.44-9.43,3.69-13.45-3.09.45-6.18.85-9.3,1.2-.48,9.91,1.3,20.03,4.57,29.33,0-.01.01-.01.01-.01Z"/>
  <path class="st0" d="M1622.85,288.4c-.24-4.5-3.29-8.31-7.83-9.09-4.86-.82-9.89,2.53-9.93,7.71-.06,10.58,17.13,12.92,17.76,1.38ZM1614.01,284.01c2.23.39,3.8,2.25,3.93,4.49-.29,5.25-8.56,3.33-8.44-1.38.06-2.33,2.4-3.48,4.5-3.11Z"/>
  <path class="st0" d="M1552.27,346.09c3.17-.53,6.22-2.24,9.24-4.03.57-.34,1.14-.69,1.71-1.02,2.08-1.24,4.16-2.41,6.27-3.19,8.35-3.05,16.21-2.64,24.93-2.47,7.64.15,14.66-4.05,15.06-12.3.31-6.39-3.53-11.81-9.79-13.25-5.17-1.18-10.83.51-11.19,6.5-.08,1.29-2.61,3.38-2.48,1.38.84-13.83,19.62-15.09,24.7-3.11,2.26,5.34,1.41,11.76-1.79,16.54-.2.29-.39.57-.6.84,12,.87,26.11,8.03,23.34,22.12-1.53,7.77-5.87,14.36-6.48,22.51-.62,8.38,3.76,15.54,3.55,23.7-.22,9.18-6.37,17.39-14.87,20.65-4.16,1.6-8.8,1.97-13.1.68-5.54-1.67-8.27-5.63-11.82-9.84-6.01-7.11-14.89-13.05-24.16-15.42,1.3,4.99.69,10.83,1.8,15.82,1.56,6.96,4.79,13.62,10.69,17.9,7.68,5.6,17.61,5.77,26.72,6.37,8.91.57,18.57,1.09,27.16-1.83,10.49-3.56,12.31-12.28,11.94-22.41-.32-9.1-2.33-18.16-1.84-27.29.52-9.46,4.01-17.97,9.03-25.91,1.13-1.77,2.92-.75,1.79,1.03-4.57,7.24-7.85,14.87-8.34,23.5-.33,5.95.48,11.87,1.1,17.78,1,9.49,2.63,21.28-3.71,29.38-1,1.28-2.13,2.37-3.36,3.31,22.18,7.12,49.06,8.29,70.26-1.79-5.25-5.76-6.79-13.94-5.29-22.67,1.2-6.88,4.91-13.99,10.47-18.49-1.77-1.67-3.39-3.53-4.83-5.61-13.46-19.56-8.27-47.54-4.76-69.35,1.83-11.41,7.4-21.43,17.62-26.96-.4-.77-.78-1.56-1.13-2.37-5.04,1.2-10.32,1.71-15.49,2.06h-.01c-.14.05-.27.06-.4.02t-.01,0c-.39.03-.77.06-1.15.08-9.77.63-22.38,2.28-30.92-3.69-8.06-5.63-11.29-16.77-10.97-26.28-1.7.08-3.4.16-5.1.25h-.05c-.87.05-1.75.07-2.63.1-15.54.51-31.21-.02-46.63-1.99-2.49-.32-5.14-.67-7.87-1.08-1.06,1.43-2.03,2.92-2.91,4.46-.68,1.2-2.07,3.11-2.03,4.5.08,2.56,1.92,2.37,4.16,2.11,7.65-.84,14.89-3.34,22.66-1.68,8.65,1.85,15.65,9.17,23.43,13.19,5.01,2.6,10.19,4.96,15.48,6.95,1.25.47-.37,3.49-1.72,2.98-7.33-2.75-14.54-6.14-21.27-10.14-4.76-2.83-8.95-7.08-14.17-9-5.83-2.14-12.17-1.51-18.15-.44-3.65.64-13.24,4.18-12.99-2.41.14-3.73,2.75-7.68,5.16-10.91-2.59-.43-5.22-.92-7.86-1.52h-.01c-6.11,15.12-19.08,23.9-31.19,34.2-7.09,6.03-11.11,13.81-14.16,22.58-2.8,8.09-4.8,17.61-2.26,26.03,1.54,5.1,5.37,9.89,11.24,8.91ZM1674.77,359c1.82-1.33,1.89,1.52.68,2.4-20.28,14.97-18.46,44.47-7.89,64.81.62,1.21-1.48,3.88-2.14,2.61-11.47-22.09-12.51-53.67,9.35-69.82ZM1593.97,279.08c9.12-4.71,20.86-6.33,30.63-2.93,8.66,3.02,16.03,8.85,24.9,11.72,3.88,1.26,7.95,2.36,12.03,2.79,1.53.16.14,3.29-1.18,3.15-6.07-.64-12.09-2.4-17.82-4.8-10.07,6.65-29.68,19.03-40.68,7.77-3.92-4.01-5.6-10.3-5.61-15.9-.75.32-1.48.68-2.22,1.06-1.82.93-1.22-2.24-.05-2.85Z"/>
  <path class="st0" d="M1758.03,198.45c-.55-4.86-2.29-9.84-4.95-13.81-4.67-6.95-12.17-9.19-19.94-10.87-.45-.1-.91-.18-1.36-.28-1.77,8.75-.56,18.23,3.36,26.18,7.63-.41,15.26-.82,22.89-1.22Z"/>
  <path class="st0" d="M1743.09,402.95c-2.53-.24-5.06-.61-7.55-1.1-.88,1.51-1.6,3.16-1.94,4.84-1.3,6.44,4.23,8.45,9.55,9.41,4.34.79,10.48,1.84,14.41-.87,3.86-2.67,2.73-8.4,1.84-12.26-.02-.14-.02-.29,0-.44-5.36.91-10.94.93-16.31.43Z"/>
  <path class="st0" d="M1722.27,284.17c.54,1.25,1.13,2.47,1.77,3.64,3.43-1.48,6.98-2.39,10.58-2.92-2.68-6.91-3.94-15.25-1.45-22.21,2.86-8.01,11-12.56,19.16-13.33,6.78-.63,16.8,1.91,16.61,10.45-.17,8.02-8.33,11.99-15.35,11.85-1.49-.02-.16-3.17,1.18-3.15,4.24.08,9.64-1.05,11.23-5.62,1.26-3.62-.8-6.64-3.81-8.47-4.75-2.9-11.38-2.42-16.41-.69-13.65,4.68-12.93,19.59-8.07,30.79,2.46-.24,4.94-.34,7.43-.38h.01c9.37-.13,19.96.62,28.68,4.68,10.46-9.23,11.38-24.41,4.98-36.48-2.7-5.1-7.1-8.83-12.22-11.15-1.03-.47-2.11-.88-3.21-1.24-4.22-1.38-8.77-1.87-13.15-1.47-9.46.87-19.03,5.14-25.13,12.04-.92,1.03-1.77,2.14-2.52,3.3-2.76,4.24-4.3,9.26-4.01,14.92.25,4.96,1.47,10.14,3.44,14.87.16.11.24.32.25.57Z"/>
  <path class="st0" d="M1591,178.41c13.59-5.79,29.64-7.37,44.16-9,12.65-1.43,25.39-2.31,38.13-2.65.16-.06.32-.07.47-.01,5.99-.16,11.97-.21,17.96-.11,16.39.25,33.64.91,49.43,5.73,11.83,3.61,18.69,13.83,19.47,25.95,7.49-.4,14.97-.79,22.47-1.2-1.18-7.85-3.93-15.38-8.31-20.86-11.63-14.57-32.72-18.53-50.2-20.32-22.24-2.28-44.76-1.01-67,.72-9.94.78-19.87,1.72-29.81,2.54-10.8.87-21.66,1.18-32.27,3.6-9.39,2.14-18.86,5.87-25.56,13.05-6.55,7.01-9.49,16.38-10.85,25.68-.37,2.51-.62,5.01-.78,7.53,7.04-.37,14.09-.75,21.13-1.13-1.85-11.09.23-24.71,11.55-29.53Z"/>
  <path class="st0" d="M1733.92,202.82c-.18.08-.36.1-.51.03-13.23.7-26.45,1.4-39.67,2.1,8.22,3.73,14.35,11.31,15.93,20.66.3,1.8.45,3.53.45,5.18,0,10.15-5.49,17.57-13.7,22.8.75-.05,1.48-.1,2.23-.16h.01c.22-.1.41-.13.57-.05h.01c3.47-.29,6.95-.59,10.43-.94.28-.15.53-.2.7-.07,0,0,0-.01.01-.01,3.82-.39,7.63-.85,11.43-1.38,9.79-13.33,30.07-19.66,45.47-13.24,6.58-4.04,12-9.6,14.42-17.43,1.84-5.94,2.43-13.07,1.73-20.13-9.4.5-18.8,1-28.2,1.5-7.11.38-14.23.75-21.34,1.13Z"/>
  <path class="st0" d="M1778.46,393.3c-1.9,1.86-3.98,3.42-6.18,4.7h-.01c8.8,6.55,12.76,19.52,3.53,27.8-7.62,6.83-21.54,6.61-31.07,6.27-9.92-.33-26.17-1.49-30.79-12.19-3.5-8.1,1.21-17.21,6.95-23.26h0c-2.08-1.16-4.07-2.48-5.91-4-9.68,6.54-12.66,21.34-8.62,31.79,1.01,2.62,2.61,4.76,4.6,6.49.24.02.39.17.46.39,7.02,5.8,18.51,7.06,26.82,7.45,12.08.57,25.01-.36,36.66-3.8,8.49-2.51,14.14-9.25,14.63-18.21.52-9.27-4.31-17.48-10.62-23.87l-.45.45Z"/>
  <path class="st0" d="M1755.23,336.27c-4.91-.84-9.99,2.55-10.02,7.78-.06,10.7,17.3,13.03,17.93,1.39-.24-4.55-3.32-8.4-7.91-9.17Z"/>
  <path class="st0" d="M1751.77,325.44c-9.18.99-16.31,9.32-16.28,18.48.03,10.06,8.79,18.11,18.84,17.1,9.43-.95,15.7-9.16,16.25-18.19.02-.09.03-.2.02-.29.01-.18,0-.32-.03-.44-.69-9.77-8.57-17.76-18.79-16.66ZM1737.98,342.54c.03-9.18,8.87-15.46,17.57-13.74,7.36,1.44,12.22,7.81,12.56,15.12-.93,19.59-30.2,17.16-30.13-1.38Z"/>
  <path class="st0" d="M1773.19,292.24c-.47.18-.75-.03-.87-.43-8.62-4.1-19.14-4.65-28.36-4.54h-.01c-7.14.1-14.3.83-20.8,3.79-.01.01-.02.02-.03.02-.07.02-.15.06-.23.1-.85.39-1.68.82-2.5,1.3-13.12,7.58-14.4,22.25-16.2,35.83-2.64,20.03-4.77,46.3,12.08,60.96.05.02.07.05.1.08.33.3.68.59,1.02.86,10.58,8.47,25.89,10.87,39.07,9.68,11.71-1.07,21.88-6.59,27.19-17.35,4.53-9.2,5.49-19.88,5.91-29.99.37-9.22.72-18.57.36-27.79-.37-9.43-2.02-19.44-8.71-26.6-2.33-2.49-5.05-4.44-8-5.93ZM1783.21,366.53c-2.99,18.55-16.94,27.19-34.69,27.42-12.62.15-27.53-1.78-34.54-13.73-5.16-8.79-4.98-19.73-4.79-29.59.31-16.81-1.13-38.23,11.68-51.24,14.86-15.11,46.83-10.6,58.33,6.56,11.45,17.08,7.07,41.62,4.02,60.59Z"/>
  <path class="st0" d="M36.78,79.56c.12,2.61.45,5.16.97,7.69,2.15-2,4.88-2.86,7.75-2.38-.07-1.86-.03-3.71.07-5.47-2.79-2-6.13-1.82-8.78.16Z"/>
  <path class="st0" d="M38.29,89.57c.48,1.87,1.06,3.75,1.76,5.62.48,1.31,1.02,2.62,1.45,3.94,1.44-1.92,3.54-3.06,5.94-3.23-.9-2.47-1.43-5.14-1.7-7.83-2.6-.78-5.48-.34-7.45,1.49Z"/>
  <path class="st0" d="M36.76,74.8c-.02.72-.03,1.42-.03,2.14,2.75-1.9,6.14-2.46,9.11-1.02.2-1.91.46-3.82.8-5.72-2.95-1.47-7.09-2.25-9.6.32-.11,1.44-.22,2.87-.29,4.29Z"/>
  <path class="st0" d="M37.34,67.51c2.91-2.16,6.58-2.07,9.94-.49.37-1.67.79-3.32,1.26-4.95-3.11-1.76-7.27-2.6-10.31-.32-.36,1.92-.67,3.85-.9,5.77Z"/>
  <path class="st0" d="M38.9,58.65c3.37-2.05,7.06-1.6,10.54.53.45-1.34.92-2.68,1.44-4.01-3.21-1.99-7.48-2.63-10.64-1.55-.51,1.65-.95,3.33-1.33,5.03Z"/>
  <path class="st0" d="M42.45,47.61c-.42.99-.83,2-1.21,3.03,3.77-1.08,7.22-.18,10.58,2.17.74-1.72,1.52-3.41,2.37-5.07-4.02,1.06-8.04.94-11.74-.14Z"/>
  <path class="st0" d="M55.9,44.59c.68-1.18,1.38-2.34,2.11-3.48.72-1.13,1.52-2.24,2.36-3.33-10.32.45-20.09-2.93-24.99-12.73-2.01-4.02-3.24-8.76-3.38-13.34-1.88,2.77-3.18,6.06-3.62,9.93-1.74,15.17,13.04,27.61,27.52,22.96Z"/>
  <path class="st0" d="M62.83,34.82c1.7-1.9,3.56-3.7,5.55-5.4-9.78-1.25-19.41-5.21-23.9-14.57-1.65-3.45-2.62-7.48-2.54-11.38-2.9,1.38-5.52,3.17-7.68,5.42-.12,4.6.99,9.46,2.96,13.57,4.85,10.12,15.05,13.16,25.6,12.35Z"/>
  <path class="st0" d="M52.19,131.91c7.78.06,14.54-4.25,14.1-12.63-.2-3.85-1.4-8.21-4.09-11.14-2.93-.43-5.75-1.44-8.17-3.15-2.29-1.61-3.99-3.72-5.26-6.1-2.77-.3-5.68.62-6.65,3.14.09.85.07,1.71-.1,2.6-1.03,5.26-4.19,9.71-3.99,15.32.26,7.45,7.22,11.92,14.17,11.96Z"/>
  <path class="st0" d="M22.18,277.78c1.55-.38.61,2.54-.53,2.82-4.33,1.03-11.24,1.93-16.48.79-1.46,4-2.09,9.26,1.48,12.14,6.55,5.26,17.77-2.57,23-6.56,1.63-1.24,1.69,1.37.61,2.18-3.38,2.57-9.09,6.61-14.69,8.25-.13,6.94,2.64,12.55,10.57,12.39,3.51-.07,7.21-1.02,10.45-2.44,1.49-5.03,5.17-9.95,8.19-13.58,1.33-1.6,2.17.4,1.15,1.63-3.32,3.99-9.17,11.41-7.56,16.94,1.24,4.27,7.15,4.82,10.86,4.23,3.83-.61,7.08-2.82,9.66-5.64,3.6-3.94,6.29-8.88,8.3-14.16,2.01-5.27,3.33-10.87,4.21-16.12-3.88.98-7.78,1.85-11.79,1.95-9.78.25-19.74-4.11-23.58-13.63-2.11-5.22-2-10.64-.61-15.84-4.23.61-8.44,1.53-12.54,2.68-7.15,1.99-17.02,4.99-21.08,11.83-8.07,13.61,13.18,11.87,20.38,10.15Z"/>
  <path class="st0" d="M71.68,26.8c1.91-1.41,3.91-2.71,5.99-3.88-11.22-2.68-22.28-10.07-21.75-22.85-4.02.24-8.04,1.05-11.73,2.46,0,3.25,1.02,7.57,2.57,10.63,4.78,9.39,15.05,12.77,24.93,13.64Z"/>
  <path class="st0" d="M81.98,20.72c1.98-.91,4-1.69,6.04-2.33-7.46-2.74-16.25-7.79-15.1-15.85-1.54-.55-3.13-1.06-4.76-1.45C65.02.35,61.6-.03,58.13,0c.16,11.64,13.19,18.71,23.85,20.72Z"/>
  <path class="st0" d="M39.67,215.48c2.42,1.67,6.07,2.49,8.8,3.56,5.15,2.02,10.31,4,15.48,5.95,4.07.44,8.14.85,12.22,1.09,2.9.17,5.92.34,8.91.17-14.17-4.61-24.25-18.44-39.47-20.06-3.25-.34-7.08.11-7.96,3.98-.51,2.23.23,4.08,2.03,5.31Z"/>
  <path class="st0" d="M39.6,235.52c2.76,2.88,5.96,2.44,9.61,1.76,4.87-.9,9.65-2.17,14.56-2.86,6.27-.88,12.71-.06,18.89-.93,3.31-.47,6.4-2.67,7.84-5.37-9.57,2.99-21.48.4-31.05-.64-5.81-.63-12.73-2.32-18.56-1.29-5.48.99-4.29,6.18-1.29,9.33Z"/>
  <path class="st0" d="M93.69,17c7.95-1.43,16.1-.61,23.48,3.4.9-2.68,2.1-5.25,3.59-7.63-8.63-.2-16.94-.67-25.51-2-7.3-1.14-13.47-4.71-20.13-7.39.53,7.54,12.39,11.89,18.58,13.62Z"/>
  <path class="st0" d="M91.61,34.73c7.1-3.49,15.73-5.87,23.64-3.73.07-2.59.45-5.19,1.09-7.73-6.49-3.46-14.76-4.11-22.06-3.13-.13.05-.25.06-.37.05-1,.15-1.98.32-2.93.52-26.74,5.62-41.89,31.87-43.17,57.74-.43,8.33.63,19.35,8.45,24.27,7.92,5,20.26,3.21,25.82-4.56.01-.01.02-.03.03-.05.05-.06.08-.11.13-.16.02-.02.03-.05.06-.07.02-.02.03-.03.05-.06,1.08-1.39,2.29-2.67,3.58-3.8-1.56-2.92-2.29-6.52-1.1-9.63,1.1-2.91,3.33-4.72,6.05-5.81,2.07-12.88,9.49-24.21,23.27-27.71,2.09-.54,4.21-1.02,6.33-1.47.09-.01.18-.03.26-.05-1.75-2.37-3.06-4.94-3.95-7.65-15.57-1.1-32.29,7.04-40.1,20.87-.77,1.36-2.31,3.85-1.88,5.54.44,1.75,2.42,2.1,3.55,3.41,2.71,3.15,2.33,7.83.24,11.19-1.86,2.99-5.27,5.23-8.81,3.68-5.53-2.44-7.48-10.49-7.13-15.9,1.02-15.49,15.89-29.33,28.96-35.74Z"/>
  <path class="st0" d="M101.42,122.64c4.61-.51,7.58-4.56,7.94-8.94.02-.1.03-.2.02-.29.01-.18-.01-.31-.05-.43-.44-4.52-4.05-8.11-8.83-7.54-4.44.54-7.87,4.82-7.83,9.22.05,4.67,4.01,8.49,8.73,7.98ZM101.66,108.36c3.15.54,5.3,3.18,5.47,6.31-.42,7.85-12.24,5.87-12.19-1.25.03-3.51,3.48-5.61,6.72-5.06Z"/>
  <path class="st0" d="M101.56,140c14.77,1.61,27.45-9.64,27.86-24.4-.36-13.04-9.96-24.24-23.13-25.67-14.48-1.57-27.87,9.62-27.86,24.42,0,13.02,10.22,24.25,23.13,25.65ZM100.18,98.51c9.39-.91,16.93,6.18,17.55,15.3.02.11.05.24.03.4,0,.08,0,.17-.02.26-.51,8.43-6.57,15.86-15.3,16.69-9.23.86-17.56-6.34-17.59-15.7-.02-8.55,6.83-16.12,15.33-16.95Z"/>
  <path class="st0" d="M123.71,48.75c4.47-.85,9.02-1.49,13.59-1.99h.03c-2.47-1.17-4.55-2.9-5.86-5.39-5.02-9.53,5.76-31.87,18.09-25.22,8.17,4.39,5.06,14.99-3.48,16.48-7.47,1.31-10.25-4.96-8.88-10.71-1.07,1.22-1.99,2.6-2.7,3.94-2.45,4.69-3.42,10.93.32,15.22,3.26,3.75,8.85,4.91,14.2,4.8.54-.03,1.09-.05,1.64-.07h.05c2.3-.16,4.52-.52,6.4-.99,13.18-3.31,15.43-17.13,11.46-28.47-5.27-15.01-26.63-19.67-38.87-10.64-12.7,9.37-16.05,30.57-6,43.04Z"/>
  <path class="st0" d="M133.05,50.34c-3.1.38-6.37.74-9.65,1.21-.37.05-.75.11-1.14.16-4.8.75-9.57,1.79-13.79,3.69-9.1,4.06-13.94,13.11-15.49,22.46,4.42-1.18,9.64-1.02,13.48-.97,8.75.13,18.39,1.4,25.14,7.5,8.17,7.37,7.92,19.12,11.89,28.71,1.63,3.96,3.84,7.65,6.95,10.63,2.3,2.18,5.56,3.53,7.62,5.93,3.47,4.02-.02,8.19-4.01,9.98-9.08,4.08-20.87-.86-28.75,5.73-6.14,5.11-7.99,16.13-2.94,22.63,2.98,3.84,7.29,5.64,9.37,10.39,1.47,3.34,1.61,7.01.6,10.5-1.66,5.65-5.78,9.15-4.71,15.64.82,4.96,3.7,9.29,8.57,10.92,1.14.39-.31,3.14-1.56,2.71-7.87-2.64-10.95-12.37-8.86-19.89,1.46-5.25,5.73-8.58,4.79-14.59-1-6.3-5.81-8.38-9.63-12.69-7.63-8.65-2.95-24.4,6.46-29.67,7.76-4.37,17.2-1,25.47-3.84,5.57-1.91,4.71-4.48.7-7.39-2.23-1.63-4.41-3.21-6.3-5.26-5.68-6.22-7.96-14.86-9.84-22.85-2.5-10.65-8.09-18.03-19.02-20.77-4.85-1.22-18-2.54-25.82-.15-.76.23-1.47.51-2.11.8-3.86,1.84-5.49,5.03-2.26,10.34.72-.52,1.49-1.01,2.26-1.46.74-.41,1.49-.82,2.25-1.17,6.22-2.87,13.41-3.52,20.17-1.3,11.29,3.69,18.38,14.17,18.78,25.82.01.07.01.15.01.25v.09s-.01.06-.01.09c0,.29-.02.57-.03.85v.08s.01.08.02.14c.6,8.06,5.49,16.44,14.57,16.07,1.31-.06.14,2.82-1.08,2.86-7.85.33-12.72-5.47-14.73-12.22,0,.01-.01.02-.01.03-2.77,9.31-9.87,17.02-19.66,19.7-2.54.69-5.01,1.01-7.39,1.01-11.95,0-21.5-8.16-25.22-18.59-4.68,8.88-10.89,17.51-18.58,23.89-5.22,4.32-10.41,8.58-14.92,13.68-4.5,5.08-10.2,12.2-8.88,19.49,1.26,6.94,7.32,10.17,13.72,8.12,5.07-1.62,9.73-4.14,15.24-3.1,6.11,1.14,11.68,7.87,18.33,6.13,9.96-2.61,3.56-28.98-9.75-16.2-1.47,1.43-1.56-1.26-.61-2.17,4.83-4.64,11.86-6.37,15.66.48,2.85,5.13,2.59,13.59-1.46,18.09-3.72,4.13-9.46,2.99-13.96.88-3.54-1.64-6.44-4.03-10.45-4.52-3.1-.37-6.1.49-9,1.52-1.74.62-3.52,1.39-5.32,1.93,1.01,3.46-.24,7.26-2.22,10.34,5.78.32,12.31,3.96,16.28,6.48,9.75,6.17,18.47,14.15,30.45,15.25.29-.07.46.05.54.25.18.25.22.64.14.92-2.19,8.4-9.39,10.61-17.2,10.5-6.99-.09-13.87.77-20.7,2.22-3.86.82-8.06,2.24-12.07,2.06h-.05c-7.49,11.11-10.54,27.53,2.86,35.6,8.26,4.98,17.42,3.59,26.48,1.55.26-.07.54-.13.8-.2,4.83-1.1,9.61-2.36,14.23-2.86,7.68-.85,15.5-.84,23.09.75,7.11,1.49,13.55,4.85,20.43,7.09,13.83,4.49,28.56,6.45,43.08,6.06,18.29-.49,47.07-4.77,55.51-24.05,5.68-12.95,5.16-29.47,5.34-43.29.51-40.01-3.06-80.43-8.71-120.01-1.82-12.77-2.14-30.18-12.39-39.37-13.28-11.92-34.68-13.23-51.61-13.37-9.81-.08-19.65.54-29.4,1.74Z"/>
</svg>