<?xml version="1.0" encoding="UTF-8"?>
<svg id="Layer_1" xmlns="http://www.w3.org/2000/svg" version="1.1" viewBox="0 0 235.2 316.77">
  <!-- Generator: Adobe Illustrator 30.5.1, SVG Export Plug-In . SVG Version: 2.1.4 Build 3)  -->
  <defs>
    <style>
      .st0 {
        fill: #2d2e2d;
      }
    </style>
  </defs>
  <path class="st0" d="M36.78,79.56c.12,2.61.45,5.16.97,7.69,2.15-2,4.88-2.86,7.75-2.38-.07-1.86-.03-3.71.07-5.47-2.79-2-6.13-1.82-8.78.16h-.01Z"/>
  <path class="st0" d="M38.29,89.57c.48,1.87,1.06,3.75,1.76,5.62.48,1.31,1.02,2.62,1.45,3.94,1.44-1.92,3.54-3.06,5.94-3.23-.9-2.47-1.43-5.14-1.7-7.83-2.6-.78-5.48-.34-7.45,1.49h0Z"/>
  <path class="st0" d="M36.76,74.8c-.02.72-.03,1.42-.03,2.14,2.75-1.9,6.14-2.46,9.11-1.02.2-1.91.46-3.82.8-5.72-2.95-1.47-7.09-2.25-9.6.32-.11,1.44-.22,2.87-.29,4.29h0Z"/>
  <path class="st0" d="M37.34,67.51c2.91-2.16,6.58-2.07,9.94-.49.37-1.67.79-3.32,1.26-4.95-3.11-1.76-7.27-2.6-10.31-.32-.36,1.92-.67,3.85-.9,5.77h.01Z"/>
  <path class="st0" d="M38.9,58.65c3.37-2.05,7.06-1.6,10.54.53.45-1.34.92-2.68,1.44-4.01-3.21-1.99-7.48-2.63-10.64-1.55-.51,1.65-.95,3.33-1.33,5.03h0Z"/>
  <path class="st0" d="M42.45,47.61c-.42.99-.83,2-1.21,3.03,3.77-1.08,7.22-.18,10.58,2.17.74-1.72,1.52-3.41,2.37-5.07-4.02,1.06-8.04.94-11.74-.14h0Z"/>
  <path class="st0" d="M55.9,44.59c.68-1.18,1.38-2.34,2.11-3.48.72-1.13,1.52-2.24,2.36-3.33-10.32.45-20.09-2.93-24.99-12.73-2.01-4.02-3.24-8.76-3.38-13.34-1.88,2.77-3.18,6.06-3.62,9.93-1.74,15.17,13.04,27.61,27.52,22.96h0Z"/>
  <path class="st0" d="M62.83,34.82c1.7-1.9,3.56-3.7,5.55-5.4-9.78-1.25-19.41-5.21-23.9-14.57-1.65-3.45-2.62-7.48-2.54-11.38-2.9,1.38-5.52,3.17-7.68,5.42-.12,4.6.99,9.46,2.96,13.57,4.85,10.12,15.05,13.16,25.6,12.35h.01Z"/>
  <path class="st0" d="M52.19,131.91c7.78.06,14.54-4.25,14.1-12.63-.2-3.85-1.4-8.21-4.09-11.14-2.93-.43-5.75-1.44-8.17-3.15-2.29-1.61-3.99-3.72-5.26-6.1-2.77-.3-5.68.62-6.65,3.14.09.85.07,1.71-.1,2.6-1.03,5.26-4.19,9.71-3.99,15.32.26,7.45,7.22,11.92,14.17,11.96h0Z"/>
  <path class="st0" d="M22.18,277.78c1.55-.38.61,2.54-.53,2.82-4.33,1.03-11.24,1.93-16.48.79-1.46,4-2.09,9.26,1.48,12.14,6.55,5.26,17.77-2.57,23-6.56,1.63-1.24,1.69,1.37.61,2.18-3.38,2.57-9.09,6.61-14.69,8.25-.13,6.94,2.64,12.55,10.57,12.39,3.51-.07,7.21-1.02,10.45-2.44,1.49-5.03,5.17-9.95,8.19-13.58,1.33-1.6,2.17.4,1.15,1.63-3.32,3.99-9.17,11.41-7.56,16.94,1.24,4.27,7.15,4.82,10.86,4.23,3.83-.61,7.08-2.82,9.66-5.64,3.6-3.94,6.29-8.88,8.3-14.16,2.01-5.27,3.33-10.87,4.21-16.12-3.88.98-7.78,1.85-11.79,1.95-9.78.25-19.74-4.11-23.58-13.63-2.11-5.22-2-10.64-.61-15.84-4.23.61-8.44,1.53-12.54,2.68-7.15,1.99-17.02,4.99-21.08,11.83-8.07,13.61,13.18,11.87,20.38,10.15h0Z"/>
  <path class="st0" d="M71.68,26.8c1.91-1.41,3.91-2.71,5.99-3.88-11.22-2.68-22.28-10.07-21.75-22.85-4.02.24-8.04,1.05-11.73,2.46,0,3.25,1.02,7.57,2.57,10.63,4.78,9.39,15.05,12.77,24.93,13.64h-.01Z"/>
  <path class="st0" d="M81.98,20.72c1.98-.91,4-1.69,6.04-2.33-7.46-2.74-16.25-7.79-15.1-15.85-1.54-.55-3.13-1.06-4.76-1.45C65.02.35,61.6-.03,58.13,0c.16,11.64,13.19,18.71,23.85,20.72Z"/>
  <path class="st0" d="M39.67,215.48c2.42,1.67,6.07,2.49,8.8,3.56,5.15,2.02,10.31,4,15.48,5.95,4.07.44,8.14.85,12.22,1.09,2.9.17,5.92.34,8.91.17-14.17-4.61-24.25-18.44-39.47-20.06-3.25-.34-7.08.11-7.96,3.98-.51,2.23.23,4.08,2.03,5.31h-.01Z"/>
  <path class="st0" d="M39.6,235.52c2.76,2.88,5.96,2.44,9.61,1.76,4.87-.9,9.65-2.17,14.56-2.86,6.27-.88,12.71-.06,18.89-.93,3.31-.47,6.4-2.67,7.84-5.37-9.57,2.99-21.48.4-31.05-.64-5.81-.63-12.73-2.32-18.56-1.29-5.48.99-4.29,6.18-1.29,9.33h0Z"/>
  <path class="st0" d="M93.69,17c7.95-1.43,16.1-.61,23.48,3.4.9-2.68,2.1-5.25,3.59-7.63-8.63-.2-16.94-.67-25.51-2-7.3-1.14-13.47-4.71-20.13-7.39.53,7.54,12.39,11.89,18.58,13.62h0Z"/>
  <path class="st0" d="M91.61,34.73c7.1-3.49,15.73-5.87,23.64-3.73.07-2.59.45-5.19,1.09-7.73-6.49-3.46-14.76-4.11-22.06-3.13-.13.05-.25.06-.37.05-1,.15-1.98.32-2.93.52-26.74,5.62-41.89,31.87-43.17,57.74-.43,8.33.63,19.35,8.45,24.27,7.92,5,20.26,3.21,25.82-4.56.01-.01.02-.03.03-.05.05-.06.08-.11.13-.16.02-.02.03-.05.06-.07.02-.02.03-.03.05-.06,1.08-1.39,2.29-2.67,3.58-3.8-1.56-2.92-2.29-6.52-1.1-9.63,1.1-2.91,3.33-4.72,6.05-5.81,2.07-12.88,9.49-24.21,23.27-27.71,2.09-.54,4.21-1.02,6.33-1.47.09,0,.18-.03.26-.05-1.75-2.37-3.06-4.94-3.95-7.65-15.57-1.1-32.29,7.04-40.1,20.87-.77,1.36-2.31,3.85-1.88,5.54.44,1.75,2.42,2.1,3.55,3.41,2.71,3.15,2.33,7.83.24,11.19-1.86,2.99-5.27,5.23-8.81,3.68-5.53-2.44-7.48-10.49-7.13-15.9,1.02-15.49,15.89-29.33,28.96-35.74v-.02Z"/>
  <path class="st0" d="M101.42,122.64c4.61-.51,7.58-4.56,7.94-8.94.02-.1.03-.2.02-.29.01-.18-.01-.31-.05-.43-.44-4.52-4.05-8.11-8.83-7.54-4.44.54-7.87,4.82-7.83,9.22.05,4.67,4.01,8.49,8.73,7.98h.02ZM101.66,108.36c3.15.54,5.3,3.18,5.47,6.31-.42,7.85-12.24,5.87-12.19-1.25.03-3.51,3.48-5.61,6.72-5.06Z"/>
  <path class="st0" d="M101.56,140c14.77,1.61,27.45-9.64,27.86-24.4-.36-13.04-9.96-24.24-23.13-25.67-14.48-1.57-27.87,9.62-27.86,24.42,0,13.02,10.22,24.25,23.13,25.65ZM100.18,98.51c9.39-.91,16.93,6.18,17.55,15.3.02.11.05.24.03.4,0,.08,0,.17-.02.26-.51,8.43-6.57,15.86-15.3,16.69-9.23.86-17.56-6.34-17.59-15.7-.02-8.55,6.83-16.12,15.33-16.95Z"/>
  <path class="st0" d="M123.71,48.75c4.47-.85,9.02-1.49,13.59-1.99h.03c-2.47-1.17-4.55-2.9-5.86-5.39-5.02-9.53,5.76-31.87,18.09-25.22,8.17,4.39,5.06,14.99-3.48,16.48-7.47,1.31-10.25-4.96-8.88-10.71-1.07,1.22-1.99,2.6-2.7,3.94-2.45,4.69-3.42,10.93.32,15.22,3.26,3.75,8.85,4.91,14.2,4.8.54-.03,1.09-.05,1.64-.07h.05c2.3-.16,4.52-.52,6.4-.99,13.18-3.31,15.43-17.13,11.46-28.47-5.27-15.01-26.63-19.67-38.87-10.64-12.7,9.37-16.05,30.57-6,43.04h0Z"/>
  <path class="st0" d="M133.05,50.34c-3.1.38-6.37.74-9.65,1.21-.37.05-.75.11-1.14.16-4.8.75-9.57,1.79-13.79,3.69-9.1,4.06-13.94,13.11-15.49,22.46,4.42-1.18,9.64-1.02,13.48-.97,8.75.13,18.39,1.4,25.14,7.5,8.17,7.37,7.92,19.12,11.89,28.71,1.63,3.96,3.84,7.65,6.95,10.63,2.3,2.18,5.56,3.53,7.62,5.93,3.47,4.02-.02,8.19-4.01,9.98-9.08,4.08-20.87-.86-28.75,5.73-6.14,5.11-7.99,16.13-2.94,22.63,2.98,3.84,7.29,5.64,9.37,10.39,1.47,3.34,1.61,7.01.6,10.5-1.66,5.65-5.78,9.15-4.71,15.64.82,4.96,3.7,9.29,8.57,10.92,1.14.39-.31,3.14-1.56,2.71-7.87-2.64-10.95-12.37-8.86-19.89,1.46-5.25,5.73-8.58,4.79-14.59-1-6.3-5.81-8.38-9.63-12.69-7.63-8.65-2.95-24.4,6.46-29.67,7.76-4.37,17.2-1,25.47-3.84,5.57-1.91,4.71-4.48.7-7.39-2.23-1.63-4.41-3.21-6.3-5.26-5.68-6.22-7.96-14.86-9.84-22.85-2.5-10.65-8.09-18.03-19.02-20.77-4.85-1.22-18-2.54-25.82-.15-.76.23-1.47.51-2.11.8-3.86,1.84-5.49,5.03-2.26,10.34.72-.52,1.49-1.01,2.26-1.46.74-.41,1.49-.82,2.25-1.17,6.22-2.87,13.41-3.52,20.17-1.3,11.29,3.69,18.38,14.17,18.78,25.82,0,.07,0,.15,0,.25v.09s0,.06,0,.09c0,.29-.02.57-.03.85v.08s0,.08.02.14c.6,8.06,5.49,16.44,14.57,16.07,1.31-.06.14,2.82-1.08,2.86-7.85.33-12.72-5.47-14.73-12.22,0,.01,0,.02,0,.03-2.77,9.31-9.87,17.02-19.66,19.7-2.54.69-5.01,1.01-7.39,1.01-11.95,0-21.5-8.16-25.22-18.59-4.68,8.88-10.89,17.51-18.58,23.89-5.22,4.32-10.41,8.58-14.92,13.68-4.5,5.08-10.2,12.2-8.88,19.49,1.26,6.94,7.32,10.17,13.72,8.12,5.07-1.62,9.73-4.14,15.24-3.1,6.11,1.14,11.68,7.87,18.33,6.13,9.96-2.61,3.56-28.98-9.75-16.2-1.47,1.43-1.56-1.26-.61-2.17,4.83-4.64,11.86-6.37,15.66.48,2.85,5.13,2.59,13.59-1.46,18.09-3.72,4.13-9.46,2.99-13.96.88-3.54-1.64-6.44-4.03-10.45-4.52-3.1-.37-6.1.49-9,1.52-1.74.62-3.52,1.39-5.32,1.93,1.01,3.46-.24,7.26-2.22,10.34,5.78.32,12.31,3.96,16.28,6.48,9.75,6.17,18.47,14.15,30.45,15.25.29-.07.46.05.54.25.18.25.22.64.14.92-2.19,8.4-9.39,10.61-17.2,10.5-6.99-.09-13.87.77-20.7,2.22-3.86.82-8.06,2.24-12.07,2.06h-.05c-7.49,11.11-10.54,27.53,2.86,35.6,8.26,4.98,17.42,3.59,26.48,1.55.26-.07.54-.13.8-.2,4.83-1.1,9.61-2.36,14.23-2.86,7.68-.85,15.5-.84,23.09.75,7.11,1.49,13.55,4.85,20.43,7.09,13.83,4.49,28.56,6.45,43.08,6.06,18.29-.49,47.07-4.77,55.51-24.05,5.68-12.95,5.16-29.47,5.34-43.29.51-40.01-3.06-80.43-8.71-120.01-1.82-12.77-2.14-30.18-12.39-39.37-13.28-11.92-34.68-13.23-51.61-13.37-9.81-.08-19.65.54-29.4,1.74h0Z"/>
</svg>