<?xml version="1.0" encoding="UTF-8"?>
<svg id="Layer_1" xmlns="http://www.w3.org/2000/svg" version="1.1" viewBox="0 0 235.9 327.69">
  <!-- Generator: Adobe Illustrator 30.5.1, SVG Export Plug-In . SVG Version: 2.1.4 Build 3)  -->
  <defs>
    <style>
      .st0 {
        fill: #2d2e2d;
      }
    </style>
  </defs>
  <path class="st0" d="M16.57,76.22c-.82,15.51,2.39,32.05,9.78,45.63,3.83-1.65,7.87-2.85,11.95-3.54.03-.01.07-.01.1-.02-8.85-11.39-11.02-28.4-10.85-42.44-3.67.9-7.42,1.02-10.99.37Z"/>
  <path class="st0" d="M53.66,116.98c-9.77-14.36-12.38-34.83-10.56-51.35.03-.32.07-.64.12-.98-2.85,4.46-7.09,8.09-11.91,10.01-.43.17-.84.32-1.26.47-.09,14.4,2.37,31.74,12.23,42.59,3.72-.48,7.55-.74,11.39-.75Z"/>
  <path class="st0" d="M23.11,73.4c9.66-.41,19.12-6.54,21.11-16.47.02-.14.08-.28.15-.4.37-2.94.55-5.9.17-8.78-.88-6.75-6.05-10.09-12.41-11.29-6.18-1.15-13.41.36-16.86,6.1-3.8,6.32-.63,13.4,4.52,17.72,1.11.94-.71,3.84-1.72,2.99-8.44-7.08-9.46-19.38-.38-26.53,8.17-6.46,24.91-4.93,28.63,5.99,1.92,5.64.51,12.17-.24,17.89-1.25,9.48-1.36,18.74.38,28.2,1.78,9.66,5.1,20.35,11.32,28.25,3.23.16,6.46.51,9.61,1.09-5.47-9.99-8.06-21.79-9.76-32.87-2.01-13.11-2.82-26.85-.49-39.98.15-.83.31-1.64.48-2.46-1.57-12.33-13.04-19.12-24.85-20.56C15.81,20.23.52,30.56.01,48.45c-.39,13.89,8.46,25.57,23.1,24.95Z"/>
  <path class="st0" d="M72.31,247.13c-1.36.13-2.65-.01-3.84-.39-.18,1.69-.37,3.39-.54,5.09,2.25.3,4.45.26,6.72.33.01,0,.02,0,.05.01.09-.3.16-.61.23-.91.15-.76.24-1.53.32-2.3.06-.64.08-1.3.1-1.95-1.02.03-2.03.08-3.01.11-.01.01-.02.01-.03,0Z"/>
  <path class="st0" d="M19.71,181.63c.77-.44,1.59-.83,2.45-1.17,7.41-2.94,19.31-3.7,27.1-1.51,1.25.36,3.15.98,4.31,2.08,2.9-4.48,6.34-8.48,10.11-11.64,3.56-2.98,7.92-4.6,11.54-7.45,3.72-2.93,6.48-6.86,8.17-11.26,1.48-3.88,2.36-8.27,2.22-12.48-.02-.31-.03-.62-.06-.93,0-.06,0-.13.01-.18-.09-2.36.03-4.75.29-7.1-3.55-4.25-10.27-6.45-15.34-7.71-.09-.02-.18-.05-.28-.06-.13-.05-.26-.08-.4-.1-4.05-.97-8.33-1.62-12.69-1.92h-.01c-.39-.03-.77-.06-1.15-.08-4.7-.26-9.48-.12-14.16.48-.43.05-.85.1-1.28.17-5.31.77-10.46,2.14-15.17,4.18-.14.05-.26.1-.39.16-.01,0-.02,0-.03.01-.03.01-.05.02-.09.05-11.05,4.93-19.81,14.65-20.49,27.12-.64,11.94,6.01,22.46,15.34,29.34ZM19.18,150.81c3.88-4.22,8.39-7.94,13.41-10.71,6.4-3.53,13.68-5.33,20.98-4.48,4.16.48,8.18,1.79,11.91,3.68,1.48.75,3.93,1.85,5.11,3.03,2.01.62,2.3,1.78.87,3.49-.15,2.72-1.01,3.03-2.59.94-1.75-.48-3.69-2.45-5.34-3.28-1.72-.86-3.52-1.59-5.37-2.11-2.73-.78-5.5-1.15-8.35-1.03-5.26.21-10.3,2.03-14.77,4.75-4.02,2.42-7.62,5.52-10.81,8.94-1.84,1.97-3.76,5.75-6.56,6.33-6.94-1.09-.45-7.44,1.51-9.55Z"/>
  <path class="st0" d="M77.85,246.94c-.02,1.05-.1,2.17-.29,3.25,2.17.07,4.34.13,6.5.09.48-.01,1.01-.07,1.51-.07-.02-.28.12-.75.13-.95.05-.78.02-1.59-.03-2.37-2.65-.07-5.29-.03-7.81.05Z"/>
  <path class="st0" d="M40.26,238.09c-6.9,1.62-7.63,14.74-7.63,19.94,0,4.34.83,19.71,8.25,18.61,7.29-1.08,7.91-14.88,8.02-19.98-.09-4.31-.9-20.38-8.64-18.56Z"/>
  <path class="st0" d="M72.02,295.53c.93-7.8,2.33-15.62,4.26-23.25-5.84,1.41-11.4.15-11.73-8.21-.18-4.48,2.93-5.27,6.73-5.55,11.3-.84,21.54-3.84,31.68-8.55-4.45-1.85-9.57-2.65-14.73-2.97.03,2.56-.39,5.67-2.91,6.3-1.73.44-3.95.15-5.72.11-1.03-.01-2.07-.05-3.1-.08-.26.44-.55.85-.92,1.17-2.25,1.97-6.96.83-9.58.38-.63-.11-.67-.75-.62-1.28.29-2.64.57-5.27.85-7.92-1.92-1.26-3.26-3.32-3.65-6.01-.48-3.42.34-5.86,2.11-7.39,2.07-5.23,2.11-11.26.06-16.51-4.61,1.46-8.66,2.85-13.65,1.08-4.71-1.69-5.81-6.09-5.76-10.76.1-7.39,2.57-15.19,6.47-22.12-1.37-1.98-6.19-2.44-7.92-2.61-8.86-.88-21.7-.86-28.09,6.42-5,5.7-6.72,13.93-7.83,21.21-1.38,9.11-1.57,18.39-1.52,27.58.11,17.33.2,35.02,1.32,52.3.86,13.25,4.36,28.01,17.51,34.09,14.36,6.63,32.64,3.01,47.74-.31-1.62-2.82-1.73-6.25-1.9-9.47-.29-5.9.18-11.83.88-17.67ZM45.29,291.09c-10.11,4.44-17.62-6.08-20.67-14.32-4.88-13.16-4.49-29.61,1.64-42.31,3.63-7.49,11.32-15.74,20.38-11.43,11.35,5.41,13.87,22.25,14.04,33.26-.18,11.65-3.11,29.44-15.39,34.81Z"/>
  <path class="st0" d="M106.46,251.17c-9.53,4.78-19.56,8.76-30.21,10.01-2.42.29-4.86.39-7.3.57-2.34.18-2.3-.16-1.67,2.21,2.45,9.19,11.09,5.95,19.01,1.37.63-.36,1.26-.74,1.9-1.11,4-2.44,7.65-4.98,10.02-6.11,6.06-2.9,12.94-4.86,19.75-5.37-7.23-8.66-18.83-12.71-29.28-15.74-3.9-1.13-22.52-7.69-23.75-.44-.82,4.79,4.21,7.92,8.3,7.46.07-.01.13-.01.18-.01.05,0,.08-.01.13-.01,10.41-.43,24.17-1.05,33.76,4.26,1.07.6-.11,2.55-.84,2.92Z"/>
  <path class="st0" d="M92.73,299.76c4.08-2.46,8.95-2.71,13.01-5.14,3.96-2.37,6.48-6.36,7.8-10.69,1.23-4.03,1.66-8.52,1.24-12.73-1.71-1.49-3.64-2.71-5.79-3.55-6.71-2.63-14.96-2.15-21.86-.21-1.48.8-2.98,1.62-4.49,2.4-1.24.64-2.56,1.23-3.91,1.7-1.94,7.67-3.34,15.53-4.3,23.36-1.06,8.75-3.99,23.25,4.63,28.82h.01c1-9.35,5.56-19.08,13.65-23.97Z"/>
  <path class="st0" d="M134.72,297.65c-3.59-1.21-6.63-3.13-8.66-6.38-1.98-3.15-2.79-6.91-4.3-10.29-1.11-2.49-2.56-4.92-4.32-7.04t-.01-.01c-.14,8.63-3.34,17.84-10.48,22.77-3.85,2.67-8.37,2.95-12.48,4.96-4.28,2.1-7.5,5.67-9.62,9.88-2.02,4.05-3.29,8.81-3.47,13.38,8.02,3.42,18.08,2.92,26.52,2.39,10.24-.63,20.48-2.22,30.48-4.49,2.85-4.88,5.64-10.89,5.63-16.54-.02-6.31-4.23-6.93-9.29-8.63Z"/>
  <path class="st0" d="M132.8,144.37c5.24-.57,8.63-5.18,9.02-10.16.02-.1.03-.21.03-.31.01-.2-.01-.34-.05-.47-.51-5.15-4.62-9.26-10.07-8.61-5.05.61-8.95,5.45-8.91,10.46.05,5.32,4.58,9.68,9.96,9.09Z"/>
  <path class="st0" d="M117.3,160.05c9.03.72,18.18.21,27.2-.53,5.6-.46,13.56-1,19.62-3.87.22-.26.46-.45.71-.53.25-.08.52-.15.78-.23,2.46-1.4,4.51-3.26,5.78-5.77,2.76-5.38,1.62-12.45,1.46-18.25-.16-5.67-.43-11.63-3.83-16.43-4.48-6.34-12.8-8.54-20.06-9.69-11.79-1.86-24.68-2.13-36.41.28-7.81,1.62-21.09,6.13-22.85,15.57-.01.08-.03.17-.05.25-.49,2.38-.95,4.88-1.25,7.44v.05c-.02.09-.03.17-.03.26,0,.02,0,.05-.01.07-.9,7.95-.24,16.26,5.25,22.39,5.86,6.53,15.33,8.33,23.69,9ZM146.81,131.58c.05.13.08.3.06.53.01.11-.01.24-.03.36-.68,8.32-7.09,14.65-15.47,15.48-8.72.86-17.94-5.13-18.01-14.46-.15-19.42,31.68-21.35,33.45-1.91Z"/>
  <path class="st0" d="M212.66,33.3c-.05-3.34.15-6.7.43-10.04.38-4.65,1.52-9.55,1.1-14.22-.34-3.96-2.98-6.31-6.38-7.64-3.9,10.25-8.23,28.74,4.85,31.9Z"/>
  <path class="st0" d="M125.37,172.09c-2.72-.49-5.52-.65-8.3-.49h-.01c-.68.26-2.55,1.47-3.39,2.42-2.86,3.28-1.21,7.64.73,10.95,3.39,1.39,7.14,1.86,10.99,1.74,3.62-3.23,6.19-7.31,2.95-11.73-.8-1.11-1.83-2.11-2.98-2.88ZM117.31,178.09c.06-2.05,2.15-2.99,3.98-2.67,2.01.36,3.45,2.03,3.55,4.05-.24,4.63-7.65,2.78-7.53-1.38Z"/>
  <path class="st0" d="M184.22,278.91c-.11,3.46,6.22,5.24,6.42,1.39-.09-1.76-1.34-3.19-3.08-3.51-1.49-.26-3.29.43-3.34,2.11Z"/>
  <path class="st0" d="M225.35,205.43c-6.46-18.33-15.39-35.05-13.51-55.09,1.62-17.27,9.89-31.25,12.04-48.37,1.74-13.93.18-28.17-4.39-41.43-2.16-6.27-5.16-12-6.18-18.63-.26-1.72-.44-3.45-.54-5.18-16.5-2.48-11.43-24.48-6.96-35.98-.11-.03-.24-.06-.36-.09-11.97-3-22.42,4.68-27.41,14.96,0,.02-.01.03-.02.06-.09.18-.18.37-.26.55h-.01c-.1.24-.2.46-.3.69-4.39,10.19-6.19,21.67-6.64,32.69-.4,10.3.2,21.4,4.6,30.89.57,1.22-1.54,3.87-2.14,2.6-5.01-10.78-5.56-23.42-4.78-35.11.69-10.46,2.48-21.41,6.69-31.13-7.73-1.71-17.28-.87-23.24,4.62-.2.17-.38.36-.55.54-.52.51-.99,1.05-1.43,1.63-5.71,7.56-5.83,19.4-6.01,28.45-.1,4.96-.03,9.96.34,14.93.1,1.32-2.32,3.41-2.48,1.38-.57-7.31-.56-14.72-.02-22.03.61-8.31,1.63-17.71,6.91-24.52.15-.2.3-.38.47-.56-6.21-3.64-14.25-3.73-20.5-.17-6.31,3.59-8.75,11.49-10.29,18.15-2.08,9-2.82,18.53-2.53,27.76.05,1.32-2.42,3.41-2.48,1.38-.38-11.88.64-24.7,4.72-35.91,1.57-4.33,3.71-8.3,6.85-11.34-13.8-3.63-28.3,1.85-33.5,15.85-3.69,9.97-4.83,21.34-4.61,31.95.02,1.31-2.45,3.4-2.48,1.38-.26-12.74,1.17-27.12,7.11-38.56,1.43-2.73,3.23-5.08,5.33-7.06-6.49-2.75-14.41-3.76-21.11-1.77-9.34,2.76-13.56,10.42-15.56,18.93v.02c-.02.09-.05.18-.06.28-.75,3.21-1.17,6.54-1.44,9.76-1.02,12.33.06,24.96,2.39,37.1,2,10.32,4.82,21.15,10.61,30.05,1.71.44,3.4.95,5.06,1.54,3.25,1.16,6.99,2.77,9.76,5.18.24-1.47.52-2.92.82-4.33,2.18-13.5,20.05-19.01,31.26-20.41,12.7-1.6,27.11-1.47,39.45,2.29,6.67,2.02,12.62,5.73,15.31,12.41,2.63,6.52,2.24,14.33,2.3,21.23.05,5.72-.62,11.53-4.31,16.02,11.14-4.01,23.68-10.65,27.87-21.18.65-1.64,3.03-1.93,2.18.21-5.57,14-22.66,21.81-36.35,25.97-6.9,3.63-15.77,4.24-23.09,4.78-10.85.79-22.1,1.53-32.86-.49-7.75-1.46-15.59-4.7-19.82-11.74-.85-1.41-1.53-2.9-2.06-4.42-1.45,5.98-4.44,11.65-8.62,15.86-5.28,5.3-12.48,7.6-17.64,13.14-5.11,5.52-8.92,12.41-11.19,19.57-1.49,4.7-3.55,12.28-.43,16.79,2.79,4.03,9.08,3.49,13.15,2.22,1.03-.32,2.09-.67,3.16-1,.01-.01.03-.02.06-.02.2-.13.39-.2.57-.17,5.11-1.61,10.49-3.1,15.77-2.69,6.45.51,14.5,6.46,20.11,1.08,9.62-9.24-1.84-17.84-10.77-19.05-1.53-.22-.13-3.33,1.2-3.16,10.34,1.43,18.65,8.65,13.82,19.5-2.9,6.52-7.41,8.92-14.46,7.61-3.7-.68-7.34-2.56-11.09-2.82-4.24-.31-9.03.77-13.22,1.97,1.68,5.09,1.55,10.77-.07,15.85,1.32-.43,2.86-.6,4.56-.55,6.34.17,12.73,2.1,18.77,3.88,5.83,1.71,11.7,3.46,17.04,6.42,5.33,2.96,10.88,7.14,14.27,12.34.67,1.01-.49,2.88-1.66,2.87-9.34-.05-17.19,3.14-24.89,7.12,5.41-.53,11-.01,15.78,2.07,2.03.88,3.87,2.11,5.52,3.6.03.03.07.06.09.09,2.72,2.45,4.9,5.56,6.49,8.83,2.06,4.21,2.85,9.33,5.96,12.94,3.87,4.46,10.02,3.41,14.15,6.96,2.74,2.36,3.14,6.03,2.79,9.42-.54,5.31-2.69,10.65-5.29,15.42,10.66-2.37,20.63-3.91,31.79-2.9,11.95,1.08,25.11,5.47,37.11,3.13,21.37-4.16,25.26-30.67,25.82-48.61.72-22.94-2.83-46.76-10.46-68.4ZM147.4,184.73c-5,1.7-13.3,3.92-21.42,4.47-.45.02-.9.05-1.34.06-10.85.47-21.06-2.28-22.42-13.54-.37.18-.74.38-1.09.59-1.77,1-1.18-2.21-.05-2.85,5.02-2.84,10.91-4.59,16.82-5.03h.08c2.65-.21,5.31-.14,7.92.21.21-.05.4-.02.6.09,2.3.32,4.55.88,6.7,1.68,4.62,1.7,8.58,4.47,12.15,7.84,4.38,4.11,8.48,8.48,14.79,9.14,5.11.52,10.46-2.18,13.56-6.21,1.41-1.83,2.34.4,1.26,1.79-2.38,3.09-5.92,5.61-9.62,6.81-6.99,2.3-12.84-.76-17.94-5.05ZM173.99,215.07c5.92-4.84,17.86-11.06,22.37-1.26,5.37,11.66-5.23,23.94-6.7,35.13-.2,1.48-2.71,2.85-2.41.61,1.31-9.93,8.6-18.64,7.85-29.02-.94-12.89-13.71-8.55-20.43-3.07-1.76,1.44-1.83-1.46-.68-2.39ZM193.09,278.58c.03.09.05.21.03.33v.06c-.01.09-.02.2-.03.29,0,.02-.01.05-.01.07-.31,3.02-2.4,5.93-5.61,6.27-3.15.33-5.7-2.21-5.73-5.3-.03-3.11,2.37-6.25,5.5-6.68,3.18-.43,5.54,1.98,5.85,4.95ZM206.5,227.3c-2.55,8.78-7.96,16.4-10.35,25.29-1.94,7.27-2.03,14.74.68,21.85.91,2.38,2.07,4.49,2.05,7.1-.07,7.44-7.79,12.08-14.62,10.12-12.28-3.52-10.84-19.9-8.52-29.42.34-1.41,2.95-2.8,2.41-.62-2.17,8.94-3.39,27.2,10.33,27.36,2.87.03,6.32-1.14,7.5-4,.74-1.77.3-3.67-.25-5.42-1.2-3.79-2.8-7.06-3.3-11.1-.94-7.76.9-15.54,3.76-22.72,2.38-5.98,5.94-11.54,7.84-17.7,2.62-8.54,5.26-25.57-4.69-30.67-8.16-4.18-25.19,1.93-28.78,10.08-.7,1.6-3.11,1.9-2.18-.21,1.7-3.86,5.18-6.96,8.71-9.12,6.24-3.82,16.98-7.39,23.97-3.73,10.75,5.61,8.15,23.55,5.44,32.91Z"/>
</svg>