<?xml version="1.0" encoding="UTF-8"?>
<svg id="Layer_1" xmlns="http://www.w3.org/2000/svg" version="1.1" viewBox="0 0 288 284.63">
  <!-- Generator: Adobe Illustrator 30.5.1, SVG Export Plug-In . SVG Version: 2.1.4 Build 3)  -->
  <path d="M276.52,193.32c6.72-15.54,11.82-38.48,11.46-65.59-.26-19.73.76-63.1-12.98-88.4C256.27,4.84,183.66.53,147.73.3,103.63.02,25.23-8.21,5.33,84.39c-1.96,9.12-8.17,33.33-3.82,69.81,4.36,36.62,27.92,58.17,28.33,59.93.41,1.76-15.09,15.76-12.52,33.06,2.57,17.3,20.93,30.47,42.7,33.43,24.5,3.32,41.87-13.39,43.08-14.06,1.22-.68,3.46,3.1,8.3,6.85,6.46,5.01,15.08,10.17,36.11,11,24.9.99,35.67-15.18,37.03-16.66,1.35-1.49,6.31,5.86,12.47,10.04,8.88,6.03,18.85,8.19,36.16,6.03,17.31-2.16,37.82-11.06,44.17-31.44,6.28-20.16-11.2-39.91-12.01-41.4-.81-1.49,6.79-7.46,11.2-17.65ZM90.6,265.55c-10.87,7.3-30.8,9.53-45.18,2.47-15.6-7.66-20.42-18.46-18.97-27.98.74-4.9,5.94-19.22,12.68-19.22,8.25,0,27.14,6.8,30.04,13.18,2.89,6.38-3.51,15.41-9.78,15.99-12.01,1.11-7.01-10.02-9.36-10.12-4.56-.19-6.48,7.77-4.25,11.14,3.66,5.53,13.91,7.93,23.99,5.02,10.3-2.98,14.46-11.18,16.11-15.1,2.04-4.85,3.68-9.2,7.29-9.31,1.53-.05,10.21-.26,11.49.77,1.28,1.02-1.87,25-14.04,33.17ZM76.73,230.68c2.89.34,5.85.64,7.38,1.66.89.59-3.95,11.84-8.24,12.27-1.03.1-.02-14.04.86-13.93ZM149.65,276.69c-19.98,1.2-34.29-6.12-38.54-17.01-2.42-6.19-.77-19.31,3.57-23.73,5.01-5.11,15.04-3.86,15.74,1.02,1.23,8.51,3.97,21.75,19.64,21.75,17.1,0,22.45-20.78,21.66-25.77-.14-.88,5.32-1,7.7-1s4.42.24,5.27,2.81c1.7,5.1-1.11,39.89-35.05,41.93ZM139.36,234.51c2.04-2.89,22.03-3.07,23.95-.85,4.42,5.1-5.18,17.39-10.7,17.97-3.83.41-9.4-.15-12.89-5.43-3.25-4.91-1.94-9.44-.36-11.68ZM137.59,225.11c-47.83.35-94.07-6.89-109.4-28.2-14.33-19.92-23.36-72.25-15.42-101.44,7.93-29.19,17.24-66.32,52.77-77.7,35.53-11.38,62.75-9.55,84.02-9.13,30.85.61,81.82,2.54,105.74,23.94,23,20.57,21.47,59.05,22.85,79.62,1.38,20.57-1.13,86.74-25.69,94.45-24.98,7.84-67.04,18.12-114.88,18.46ZM245.03,272.36c-22.72,8.59-41.61,2.36-48.92-7.99-6.58-9.32-3.8-31.48-2.72-33.25.68-1.11,13.1-3.66,14.2-3.49,1.11.17.43,8.08,1.45,14.29,1.02,6.21,5.36,16.76,19.14,19.22,13.78,2.47,20.79-5.54,22.56-7.92,3.06-4.11,2.43-11.08,1.67-12.1-.77-1.02-5.7.48-5.7,1.84s.75,8.47-6.28,10.61c-6.88,2.1-14.83,2.96-19.6-9.03-4.76-11.99,1.55-22.74,21.05-25.51,19.74-2.81,22.85,4.5,26.45,15.75,4.08,12.76-.6,29-23.31,37.59Z"/>
  <path d="M247.96,71.67c-9.99-22.51-33.34-37.75-54-39.1-18.93-1.24-38.99-1.93-54.39-.41-18.21,1.8-59.21,4.65-79.53,22.59-8.88,7.84-15.24,16.42-16.25,29.11-1.02,12.69,2.26,13.04,0,17.43-3.68,7.13-12.36,28.94-4.74,53.65,4.6,14.93,32,46.68,108.86,47.38,74.15.68,87.23-13.85,95.65-25.89,13.9-19.89,14.39-82.25,4.4-104.75ZM179.05,194.5c-11.55,1.1-41.03,3.56-69.38-2.33-27.78-5.77-56.43-16.12-63.05-39.85-5.15-18.45-2.66-37.9,1.9-44.18,2.29-3.16,9.47-1.65,13.82-1.96,5.5-.39,8.44-3.77,10.52-2.67,4.16,2.2,15.39,6.2,22.93,5.02,7.54-1.18,12.86-3.57,15-4.87,5.81-3.53,8.64-8.4,8.48-12.56-.16-4.16-1.02-17.19-.24-17.98.79-.78,13.08-.39,14.61-.39,1.1,0,1.19,5.66,1.51,8.57.31,2.83,4.08,25.43-4.34,32.26-7.07,5.73-15.39,8.01-20.81,9.26-5.42,1.26-17.29,3.9-17.43,12.56-.08,4.79,1.9,7.32,3.12,8.54,1.36,1.36,3.87,3.08,4.34,4.34.39,1.04-5.19,6.28-5.58,15-.17,3.69,1.49,9.34,2.43,10.05.94.71,3.85.08,3.93-.78.08-.86.8-11.02,1.8-13.42,2.04-4.95,4.62-8.3,4.07-11.52-.55-3.22-3.35-5.69-5.15-8.67-1.01-1.66-1.02-4.95,2.03-6.91,7.7-4.95,28.31-6.33,33.54-14.67,4.83-7.7,5.18-15.32,5.51-19.49.86-10.94-3.15-24.48.07-25.73s44-1.59,56.88,10.42c14.86,13.86,11.65,29.12,10.19,30.8-2.12,2.43-10.49,2.04-15.71,2.28-5.74.26-29.82,4.17-29.74,31.57.07,25.44,17.5,25.82,21.97,26.29,6.68.71,13.57-.28,15.05-.27,1.9,0-6.57,19.81-22.28,21.3ZM76.4,96.21c0-1.41,3.22-7.69,4.16-6.2.9,1.42,1.49,3.06,1.49,4.24s-.86,3.85-1.73,4.4c-.86.55-3.93-1.02-3.93-2.43ZM109.39,95.82c-.16,1.57-3.61,5.18-6.83,5.02-3.15-.15-2.9-2.44-2.28-4.55.39-1.33,3.85-5.02,5.26-5.02s4,2.98,3.85,4.55ZM108.37,81.84c.24-1.41,3.53-.55,4.08.16.55.71,2.36,6.36,1.96,7.77-.39,1.41-2.67,1.34-4.87-1.18-2.2-2.51-1.42-5.32-1.18-6.75ZM102.48,82.78c-1.41.86-3.69-1.96-4.87-3.22-1.18-1.26.54-2.88,1.89-3.61,1.89-1.02,5.97-1.02,7.07.63,1.1,1.65-2.67,5.34-4.08,6.2ZM99.73,88.52c-.08,1.73-2.67,5.57-4.79,5.81-2.12.24-4.16-2.91-4.79-4.32-.63-1.41,2.45-5.74,4.08-6.75,1.65-1.02,5.58,3.53,5.5,5.26ZM93.52,99.74c-.08,1.41-4.08,3.77-6.44,2.9-2.36-.86-2.16-4.42-1.41-6.75.45-1.41,7.93,2.43,7.85,3.85ZM87.24,85.38c-.63.86-4.09.6-3.46-.78.79-1.73,4.08-.08,3.46.78ZM179.84,157.54c1.28,1.7,5.05,6.43,4.35,7.44-.88,1.27-5.24-1.07-7.72-3.69-1.98-2.09-3.47-7.44-1.76-7.93,1.71-.5,3.8,2.42,5.13,4.19ZM175.71,134.34c1.33-2.75,3.47-4.9,4.57-4.19,1.19.78,1.16,4.35.17,7.22-.85,2.47-3.86,5.56-4.96,4.85-1.27-.83-.36-6.68.22-7.88ZM178.74,147.95c.5-1.98,2.11-3.85,2.92-4.79,1.65-1.93,3.25-3.47,4.41-3.03,1.16.44,9.34,9.36,9.15,11.19-.17,1.6-4.69,6.89-5.73,7.27-1.05.39-2.92.28-4.08-1.21-1.16-1.49-6.99-8.15-6.67-9.42ZM191.69,127.79c-.79.89-7.66,2.38-7.72.55-.06-1.71,1.23-3.88,1.98-4.57,2.81-2.59,4.41-2.7,5.29-2.26s2.22,4.28.44,6.28ZM197.15,128.12c1.98.77,3.78,3.84,4.69,5.12,1.43,2.04,3.14,4.3,2.76,5.84-.39,1.54-4.19,7.77-6.39,6.89-2.62-1.05-9.43-8.71-8.99-10.41.44-1.71,5.95-8.21,7.94-7.44ZM192.91,160.3c1.43-1.93,4.36-5.46,5.4-5.01,1.05.44,2.61,2.4,3.36,3.2,1.76,1.87,3.09,2.87,2.65,4.24-.44,1.38-4.57,5.62-8.16,4.19-3.58-1.43-4.69-4.68-3.25-6.61ZM203.55,150.54c-.17-1.16.54-3.46,1.38-4.68.83-1.21,2.37-3.31,3.58-2.59,1.21.72,1.05,4.19,1.1,6.01.06,1.82-.44,6.01-1.38,6.01s-4.52-3.58-4.69-4.74ZM208.14,133.21c-.79.28-7.29-8.13-7.51-9.06-.22-.94-.17-3.25,4.47-2.87,2.26.19,6.23,2.09,6.5,4.96.28,2.87-1.05,6.13-3.46,6.97ZM224.8,186.05c-3.95,1.97-15.44,6.27-21.7,7.12-4.52.61-.99-4.84.7-6.91,4.4-5.42,11.35-18.88,13.52-39.12,1.75-16.28,7.17-45.15-11.17-68.37-11.41-14.44-67.36-14.98-91.36-12.73-30.64,2.88-44.3,22.22-49.89,30-5.59,7.78-13.61,4.47-15.47-7.37-1.86-11.85,10.44-26.66,19.42-32.92,8.02-5.6,23.66-10.23,33.54-12.34,12.7-2.71,53.64-8.31,88.01-4.75,34.37,3.55,51.97,25.89,56.88,63.8,5.43,41.92-5.07,74.88-22.48,83.59Z"/>
</svg>