<?xml version="1.0" encoding="UTF-8"?>
<svg id="Layer_1" data-name="Layer 1" xmlns="http://www.w3.org/2000/svg" xmlns:xlink="http://www.w3.org/1999/xlink" viewBox="0 0 160.73 227.47">
  <defs>
    <style>
      .cls-1 {
        fill: none;
      }

      .cls-2 {
        fill: #16181a;
      }

      .cls-3 {
        clip-path: url(#clippath-1);
      }

      .cls-4 {
        fill: #fff;
      }

      .cls-5 {
        clip-path: url(#clippath);
      }
    </style>
    <clipPath id="clippath">
      <rect class="cls-1" width="160.73" height="227.47"/>
    </clipPath>
    <clipPath id="clippath-1">
      <rect class="cls-1" width="160.73" height="227.47"/>
    </clipPath>
  </defs>
  <g id="Artwork_16" data-name="Artwork 16">
    <g class="cls-5">
      <g class="cls-3">
        <path class="cls-2" d="M28.78,8.65C44.13,2.69,60.64-.39,77.12.04c11.28.3,22.34,2.92,33.08,6.21,13.4,4.34,26.74,10.69,36.15,21.48-14.89.27-29.78.14-44.67.23-.02,9.7-.26,19.4.17,29.09,2.04.6,4.06,1.3,6.08,2.01.5-.37,1.49-1.1,1.98-1.47,3.05.18,6.11-.08,9.17.18,2.62,1.4,1.59,4.81,2.07,7.22,9.81.04,19.63.07,29.44.02,1.13-3.1,5.17-1.61,7.7-1.85,3.32.31,2.2,4.66,2.44,6.95-.24,2.19.77,6.41-2.56,6.45-2.57-.29-6.85,1.41-7.55-2.15-9.76.06-19.51.12-29.26-.03-.34,2.45.16,5.27-1.39,7.4-3.28.66-6.66.22-9.97.36-.39-.28-1.19-.82-1.58-1.1-1.97.1-3.93.17-5.87.24-1.17,4.54-.74,9.25-.85,13.9-.02,35.32.06,70.65.07,105.98.17,7.62-1.87,15.29-5.85,21.8-1.14,1.96-2.84,3.52-4.88,4.51-1.36-10.56-1.41-21.24-2.05-31.85-.96-17.85-1.97-35.69-3.14-53.52-.49-6.04-.31-12.6-3.83-17.83-1.14-1.96-3.27-3.6-2.94-6.09-.12-14.56.19-29.12-.25-43.67-4.06.09-8.11.13-12.15.18-.16,14.15-.22,28.29-.21,42.44.9,5.42-4.81,8.47-5.62,13.54-1.28,7.43-1.04,15.04-1.7,22.54-1.06,17.79-2.04,35.59-2.82,53.4-.52,6.91-.53,13.88-1.63,20.73-4.59-2.11-6.47-7.28-8.21-11.65-2.7-6.84-2.33-14.28-2.28-21.49.04-55.43-.08-110.86.01-166.29-14.74-.08-29.48-.03-44.22-.07,7.29-9.26,17.93-15.08,28.78-19.19"/>
        <path class="cls-4" d="M15.07,19.01C30.5,9.71,48.4,5.14,66.24,3.6c-1.5,1.74-4.02,1.54-6.06,2.03-12.21,1.64-24.14,5.11-35.43,10-5.8,2.69-11.06,6.38-16.75,9.26,1.63-2.7,4.47-4.26,7.07-5.88"/>
        <path class="cls-4" d="M67.07,6.28c2.71-3.22,7.27-2.95,11.08-2.84,21.24,1.5,42.46,8.02,59.85,20.54-4.57-1.73-8.44-4.82-12.86-6.83-13.66-6.6-28.58-11.02-43.79-11.57.55,3.49,2.04,7.18.68,10.69-1.11,3.76-5.22,6.14-9.05,5.61,2.27-.83,4.88-1.35,6.48-3.35,2.54-2.98,2.25-7.38.62-10.73-.08-1.42-.25-2.84-1.95-3.06l1.18,2.56c-3.58-2.32-8.75-2.02-11.6,1.28-2.44,3.02-1.51,7.17-.17,10.45-3.56-3.24-4.2-9.38-.47-12.75"/>
        <path class="cls-4" d="M70.7,10.59c1.17-.95,3.41-2.1,4.48-.39,1.51,1.41-.55,2.93-1.29,4.08-.31-.79-.92-2.37-1.23-3.15-.09.95-.17,1.92-.23,2.89-.54.3-1.61.91-2.15,1.21-.59,1.62.99,2.5,2.04,3.39l-2.26.28c.18-.22.53-.65.71-.87-1.78-2.26-1.14-5.06-.07-7.44"/>
        <path class="cls-4" d="M47.73,25.18c.99.27,1.41.91,1.26,1.92.03,11.68.05,23.37-.06,35.06-.77,9.33.34,18.67.08,28.03-.09,40.63.31,81.26-.3,121.88-1.74-6.5-.96-13.27-1.17-19.92-.09-51.65-.05-103.31-.05-154.96.02-4.01,0-8.01.24-12.01"/>
        <path class="cls-4" d="M66.88,28.49c2.11-.93,4.14-2.06,6.33-2.8,2.51.77,6.28,2.22,5.86,5.5.04,11.24.14,22.49-.1,33.73-4.13,0-8.25-.02-12.36.04-.07-12.16-.19-24.32.27-36.47"/>
        <path class="cls-4" d="M82.33,26.76c2.69,4.58.94,10.33,1.53,15.39-.34-.03-1-.09-1.34-.12.14-5.1-.16-10.18-.19-15.27"/>
        <path class="cls-4" d="M62.54,36.93c.59,2.36.36,4.81.38,7.22-.07,6.79.41,13.6-.23,20.37-.6-9.15-.36-18.41-.15-27.59"/>
        <path class="cls-4" d="M82.5,44.37c.25-.02.77-.06,1.03-.08,1.28,4.89,4.33,9.27,8.02,12.67,3.92,3.49,9.65,2.57,14.05,4.97-4.87-.6-10.21-.87-14.33-3.82-3.18-2.34-5-5.93-7.47-8.89-.32,8.99-.2,18,.17,26.99,2.58-.47,1.35-3.38,1.55-5.1-.14-1.98-.05-3.95.13-5.91.24,3.84.16,7.78,1.47,11.46,1.3-3.05.8-6.48,1.54-9.67.24,2.9.16,5.81.27,8.72l1.3.03c.11-2.96.11-5.93.54-8.85.83,3.16,0,6.65,1.48,9.66.78-3.8.59-7.73,1.49-11.51.03,3.87-.19,7.77.48,11.61,1.46-3.62.83-7.7,1.5-11.5.13,3.49.04,6.98.36,10.47h1.55c-.03-3.51-.42-7.03-.07-10.53.49,3.74.6,7.55,1.36,11.26,2.11-3.33.56-7.71,1.77-11.41.34,3.6.36,7.23.58,10.86l1.34-.04c.14-3.5.28-7,.29-10.5.65,3.36.45,6.8.79,10.2l1.2.84c.99-4.29-.68-9.36,1.55-13.22.31,4.52-.01,9.05-.08,13.57-8.01.17-16.02.11-24.03.09-.04-10.79-.1-21.59.17-32.37"/>
        <path class="cls-4" d="M110.65,61.52c2.4.09,6.3-1.68,7.62,1.11-2.53.12-5.07.26-7.58.04-.01-.28-.03-.86-.04-1.15"/>
        <path class="cls-4" d="M53.6,64.57c2.91-1.36,6.8,1.33,6.39,4.58.35,3.34-3.55,7.2-6.8,5.17-3.92-1.88-3.81-8.29.41-9.75"/>
        <path class="cls-4" d="M110.02,64.61c2.78-.42,5.62-.39,8.43-.04-1.02,1.4-2.84.97-4.29,1.09-1.47-.06-3.14.28-4.14-1.05"/>
        <path class="cls-2" d="M51.97,67.14c1.81-3.39,7.44-1.72,7.38,2.03.43,2.75-1.99,4.5-4.13,5.56-2.41-1.58-5.56-4.6-3.25-7.59"/>
        <path class="cls-4" d="M52.6,68.28c.94-1.57,4.26-2.17,4.95-.08-.48,1.6-2.34-.08-3.38.38-.4-.08-1.18-.23-1.57-.3"/>
        <path class="cls-4" d="M110.28,68.56c1.77-2.49,5.53-.65,8.12-.95-1.98,2.24-5.53.71-8.12.95"/>
        <path class="cls-4" d="M70.39,70.16c-1.47-.68-1.5-1.48-.08-2.41,1.52.72,1.55,1.52.08,2.41"/>
        <path class="cls-4" d="M111.2,71.12c1.02-1.39,5.37-1.3,6.61-.09-1.98.75-4.59.62-6.61.09"/>
        <path class="cls-4" d="M63.01,74.95c1.03,12.2.46,24.49.44,36.72-.32,3.05.56,6.6-1.61,9.14-2.97,3.86-4.6,8.61-4.94,13.44-.81,14.64-1.84,29.26-2.34,43.92-.8,12.36-1.68,24.71-2,37.09-.06,1.32-.33,2.64-.7,3.92-.8-10.37.75-20.68,1.01-31.03.96-16.34,1.76-32.69,2.67-49.03-.04-5.71.89-11.57,3.94-16.49.92-1.77,2.54-3.31,2.5-5.43.98-14.06-.01-28.2,1.03-42.25"/>
        <path class="cls-4" d="M82.27,86.19c.17-1.8-.56-4.04,1.08-5.36,1.05,12.07.05,24.26.64,36.37-.05,1.66.97,3.02,1.8,4.38,2.15,3.47,3.77,7.4,4,11.53.7,12.68,1.61,25.36,2.06,38.05.95,16.08,2.46,32.15,1.81,48.27-1.61-6.95-.54-14.19-1.15-21.25-1.46-18.21-1.99-36.47-3.44-54.68-.6-6.68,0-13.87-3.6-19.85-1.05-2.13-3.16-3.89-3.12-6.41-.08-10.35.04-20.7-.08-31.05"/>
      </g>
    </g>
  </g>
</svg>