<?xml version="1.0" encoding="UTF-8"?>
<svg id="Layer_1" xmlns="http://www.w3.org/2000/svg" version="1.1" viewBox="0 0 274.96 264.18">
  <!-- Generator: Adobe Illustrator 30.5.1, SVG Export Plug-In . SVG Version: 2.1.4 Build 3)  -->
  <defs>
    <style>
      .st0 {
        fill: #2d2e2d;
      }
    </style>
  </defs>
  <path class="st0" d="M37.84,206.3c.6-.59.05-2.33-.39-3.48-4.29.28-9.32.37-13.9-.54l.72,6.07c2.84-.24,5.67-.54,8.47-.97,1.2-.18,4.22-.22,5.1-1.08Z"/>
  <path class="st0" d="M14.76,16.92c12.05,4.4,12.73,19.25,21.66,26.55,5.98,4.88,15.18,4.99,22.44,3.07.84-3.14,1.78-6.24,2.91-9.25.03-.33.17-.71.39-1.06.52-1.31,1.06-2.61,1.67-3.88,1.72-3.6,3.82-6.85,6.21-9.8-9.23,5.14-21.06,9.85-28.76,1.24-7.53-8.4-15.87-17.57-28.53-14.47-3.4.84-6.42,2.86-9.1,5.06-1.11.92-2.06,2.08-3.18,2.98-.14.1-.26.25-.39.4,4.46-1.87,10.11-2.51,14.7-.83Z"/>
  <path class="st0" d="M37.5,231.41c6.76-.7,14.46-7.06,18.79-10.1,12.68-8.94,28.21-15.85,43.38-19.25,2.38-.53,4.77-.91,7.16-1.34.2-.09.39-.14.57-.1.26-.05.54-.09.8-.15-.99-.4-2.03-.94-2.78-1.16-2.5-.77-5.06-1.43-7.6-2.07-8.92-2.29-17.9-4.32-26.88-6.37-10.07-2.95-20.15-5.85-30.26-8.63-6.14-1.7-12.4-3.75-18.75-4.4-3.01-.31-6.15-.55-7.77,2.41-.99,1.8-1.38,4.91-1.39,6.91-.03,6.5,4.11,9.77,9.63,11.32.18-.02.34.02.48.14,7.43,1.94,17.16.92,22.54.54,12-.84,24.41-1.05,36.36.63,1.6.23.06,2.88-.88,3.13-12.79,3.28-25.58,6.56-38.35,9.89-3.98,1.05-8.68,1.76-12.14,4.03-4.45,2.91-4.26,7.68-.85,11.57,2.06,2.36,4.56,3.18,7.24,3.06.26-.1.51-.14.69-.06Z"/>
  <path class="st0" d="M121.03,72.51c-10.5-.37-21.06-1.26-31.52-2.68-1.32,6.88-2.05,13.95-2.31,20.93-.05,1.14-.07,2.31-.09,3.48,4.71,1.88,10,2.87,14.97,3.67,5.06.79,13.53,2.59,18.12-.48,3.61-2.4,2-10.72,1.76-14.55-.21-3.46-.53-6.92-.93-10.37Z"/>
  <path class="st0" d="M121.61,99.38c-4.82,3.87-13.14,2.72-18.72,1.98-5.24-.71-10.74-1.68-15.8-3.47.05,3.7.29,7.48.9,11.16,7.52,1.32,15.26,1.88,22.88,2.01,7.1.13,18.17,1.53,20.58-6.81,2.82-9.77,1.47-21.52-.05-31.53-2.56-.01-5.13-.05-7.7-.11.54,4.69.85,8.89.95,13.74.09,4.21.63,10.09-3.05,13.04Z"/>
  <path class="st0" d="M26.61,175.24c6.29,1.17,12.47,3.06,18.62,4.77,8.99,2.51,17.95,5.08,26.91,7.7,11.38,2.6,22.9,4.99,34.1,8.32,1.93.57,7.01,1.29,7.04,4.01.02,1.37-1.15,2.33-2.84,3.03,1.65,1.86,2.64,4.02,3.84,6.58,2.62,5.57,6.96,5.68,11.86,8.29,4.91,2.62,7.29,7.3,7.54,12.55.65-1.08,1.32-2.14,1.61-3.01.79-2.53,1.2-5.31-.08-7.73-1.72-3.31-6.06-4.47-8.84-6.64-2.48-1.93-4.38-4.28-5.68-7.15-3.13-6.91-3.28-14.71-8.45-20.64-4.49-5.16-11.01-8.3-17.36-10.5-12.64-4.39-26.01-5.18-39.2-6.64-3.29-.37-6.65-.37-8-3.94-1.46-3.88.02-9.06,1.51-13.03-.62-.13-1.25-.25-1.87-.38-8.38-1.74-16.46.13-24.39,2.64,1.3,6.95.35,14.35-1.86,21.02,1.91.07,3.84.44,5.54.76Z"/>
  <path class="st0" d="M137.93,32.05c4.41-.45,7.55-4.06,7.95-8.32.02-.12.03-.23.03-.33.01-.22-.01-.38-.06-.51-1.11-10.02-16.66-7.98-16.56,1.88.05,4.55,4.25,7.71,8.63,7.27Z"/>
  <path class="st0" d="M64.72,35.43c6.38,2.01,12.88,3.68,19.39,5.23,24.56,5.85,52.89,11.43,77.83,4.95,19.59-5.09,36.04-23.13,30.96-44.27C182.91.17,172.78-.05,162.8,0c-21.64.1-44.29.49-65.06,7.22-13.3,4.3-24.89,11.95-31.36,24.62-.6,1.17-1.15,2.38-1.67,3.59ZM153.88,23.43c.07.13.09.32.08.59.01.16-.02.32-.07.49-1.91,17.58-35.52,19.36-35.67.88-.16-18.12,33.61-19.73,35.66-1.97Z"/>
  <path class="st0" d="M79,83.42c-1.16,18.47.08,44.77,18.96,54.45,6.32,3.24,13.33,3.54,20.31,3.41,9.15-.17,18.31-1.4,27.12-3.87,7.14-1.99,14.91-4.71,21.06-9.09.33-9.27,1.75-18.43,5.53-26.59,3.9-8.4,10.51-13.94,18.48-17.41,3.24-6.45,3.58-14.71,3.46-21.92-10.77,5.91-23.68,8.18-36.19,9.25,1.74,5.26,2,11.11,2.55,16.54.85,8.26,1.37,16.74.52,25.04-.48,4.68-1.31,9.34-4.92,12.61-5.03,4.56-11.83,7.27-18.36,8.78-10.28,2.37-21.34,2.1-31.72.44-5.55-.88-10.25-3.16-13.73-7.7-6.44-8.35-7.58-20.16-7.47-30.74-.06-.18-.05-.41,0-.65.02-1.47.07-2.92.13-4.32.31-7.39,1.09-14.85,2.55-22.11-2.18-.31-4.38-.64-6.55-1-.88,4.92-1.41,9.92-1.72,14.89Z"/>
  <path class="st0" d="M193.53,21.88c-10.6,28.35-44.75,30.98-70.48,28.73-20.08-1.77-40.31-5.96-59.56-12.04-2.59,7.1-4.06,14.57-6.08,21.87,9.18,2.22,18.55,3.8,27.89,5.18,18.54,2.75,37.31,4.29,56.06,3.84,18.52-.45,41.3-1.59,56.99-12.68,15.74-11.14,20.46-32.86,16.16-51-1.11-.36-2.24-.69-3.38-1-5.03-1.38-10.16-2.36-15.34-3.07,1.03,6.69.06,13.99-2.25,20.17Z"/>
  <path class="st0" d="M217.69,26.75c-1.72,12.47-7.62,24.17-17.8,31.82-1.13.84-2.3,1.62-3.49,2.37.13,7.32-.32,15.42-3.14,22.27,2.25-.83,4.59-1.49,6.99-2.03,15.94-3.59,35.22-5,50.5,1.67,1.25.54,2.42,1.16,3.56,1.82,1.64-18.51,1.45-38.96-8.18-55.35-6.48-11.07-16.87-18.21-28.59-22.5,1.13,6.54,1.06,13.46.16,19.94Z"/>
  <path class="st0" d="M241.37,226.4c-15.16,3.57-33.75,5.11-48.75.2-11.72-3.86-18.33-13.03-21.14-24.73-3.68-15.33-3.16-31.65-4.16-47.3v-.07c-.47-7.41-1.05-15.34-.94-23.26-7.76,5.36-17.53,8.52-26.51,10.53-14,3.14-32.79,5.98-45.7-2.09-9.01-5.62-13.69-15.73-15.9-25.78-3.24-14.7-2.67-30.92.22-45.74-7.41-1.25-14.76-2.76-21.98-4.5-.88,2.9-1.9,5.75-3.13,8.52-6.39,14.32-19.62,23.04-30.76,33.4C12.95,114.54,2.49,125.02.28,138.64c-.93,5.82.13,16.2,8.03,16.33,2.95.05,6.11-1.74,8.84-2.7,4.3-1.52,8.65-2.86,13.11-3.82,4.95-1.06,10.17-1.74,15.24-1.23,4.33.43,8.31,2.31,12.69,2.41,5.68.11,12.96-2.07,14.64-8.21,1.61-5.86-2.69-13.41-7.49-16.7-5.55-3.8-12.89-1.97-17.78,2.11-1.74,1.44-1.8-1.46-.68-2.4,4.79-4,11.93-6.54,17.93-3.95,8.75,3.78,14.04,16.63,8.49,24.87-5.32,7.9-13.86,7.65-21.98,6.23-1.54,4.22-3.38,11.07,1.23,12.8,3.17,1.21,7.47.93,10.79,1.25,17.85,1.71,46.23,3.88,54.77,22.88,2.57,5.72,2.72,12.64,6.4,17.87,3.34,4.75,9.99,5.82,12.84,10.75,2.54,4.38.61,9.95-1.37,14.14-.67,1.42-2.23,6.1-4.38,6.29-.28.03-.54-.31-.6-.54-.37-1.49.26-3.37.23-4.91-.11-4.13-1.82-7.8-5.24-10.22-4.05-2.85-9.45-2.75-12.49-7.07-2.64-3.75-3.07-7.81-6.9-10.68-3.39.68-7.07.9-8.38,1.21-10.47,2.49-20.77,6.73-30.27,11.73-6.32,3.33-11.85,7.61-17.77,11.54-3.82,2.54-8.19,4.96-12.81,5.58-1.25,6.42-1.45,13.72.83,19.8,4.79,12.76,19.88,10.71,30.64,8.57,18.81-3.73,37.65-9.75,57-6.92,6.65.98,13.23,2.39,19.9,3.18,11.94,1.44,23.98,1.56,35.99,1.26,20.4-.52,44-.03,62.96-8.78,14.96-6.9,18.8-20.51,18.03-35.75-5.8,5.52-13.3,8.92-21.36,10.81Z"/>
  <path class="st0" d="M179.07,141.09c-.15,4.99-.1,9.96-.09,14.8v.02c3.1-3.67,8.91-5.96,14.3-7.41-5.37-1.25-11.16-3.48-14.2-7.41Z"/>
  <path class="st0" d="M225.37,107.83c.93-5.45,2.72-10.61,6.57-14.59-6.06-.44-12.4-.17-18.49.78,5.33,3.26,9.62,8.09,11.92,13.81Z"/>
  <path class="st0" d="M225.98,199.2c-1.55,7.08-5.01,13.93-10.96,17.75,7.5.68,15.46.05,22.8-1.59-6.08-3.14-9.87-9.43-11.84-16.17Z"/>
  <path class="st0" d="M257.84,145.19c2.37.62,4.63,1.63,6.35,3.18-.08-3.28-.13-6.71-.25-10.2-1.37,2.88-3.46,5.33-6.1,7.02Z"/>
  <path class="st0" d="M226.52,145.04c-4.63.56-8.18,5.03-8.15,9.62.03,4.83,4.15,8.78,9.03,8.25,4.79-.52,7.9-4.77,8.26-9.32.02-.1.03-.21.03-.31.01-.2-.01-.34-.05-.47-.48-4.65-4.19-8.37-9.14-7.77Z"/>
  <path class="st0" d="M225.28,138.11c-7.85.9-13.96,8.22-13.91,16.03.07,8.6,7.53,15.64,16.19,14.68,8.17-.91,13.47-7.93,14.02-15.74.02-.1.03-.21.03-.31.01-.2-.01-.34-.05-.47-.69-8.42-7.44-15.2-16.3-14.18ZM213.86,152.76c.03-7.47,7.21-12.61,14.3-11.41,6.39,1.08,10.64,6.46,10.97,12.79-.88,16.54-25.33,13.96-25.27-1.38Z"/>
  <path class="st0" d="M274.94,153.16c-.03-14.39-.22-29.44-4.9-43.21-4.61-13.58-14.48-23.25-28.56-26.62-14.63-3.48-32.14-2.18-46.52,2.17-1.26.38-2.49.82-3.68,1.3-.22.08-.43.16-.63.26-8.78,3.68-15.26,10.08-18.36,19.63-2.16,6.63-3.07,13.69-3.32,20.81h0c-.02.46-.03.92-.05,1.37-.22,8.18.38,16.44.87,24.31v.07c1.02,15.84.33,32.57,4.44,48.01,3.59,13.46,12.77,21.48,26.48,23.86,14.72,2.55,31.83,1.37,46.08-3.15,11.37-3.6,19.52-10.96,23.45-22.32,5.06-14.64,4.73-31.2,4.69-46.5ZM263.09,200c-4.3,9.68-12.72,15.18-22.78,17.67-12.89,3.19-28.79,4.37-41.21-.99-11.22-4.84-17.21-15.38-19.87-26.86-3.36-14.48-3.03-29.96-2.6-44.72.09-2.93.2-5.92.38-8.94.03-.55.07-1.1.11-1.65.63-8.73,2.09-17.55,6.13-25.2,4.56-8.69,12.54-13.88,21.86-16.4,12.43-3.36,28.1-4.68,40.49-.66,10,3.25,15.49,11.18,17.85,21.12,3.15,13.32,2.68,27.48,3.5,41.06v.07c.87,14.69,2.29,31.65-3.86,45.48Z"/>
</svg>