<?xml version="1.0" encoding="UTF-8"?>
<svg id="Layer_1" xmlns="http://www.w3.org/2000/svg" version="1.1" viewBox="0 0 359.99 299.31">
  <!-- Generator: Adobe Illustrator 30.5.1, SVG Export Plug-In . SVG Version: 2.1.4 Build 3)  -->
  <defs>
    <style>
      .st0 {
        fill: #f1d380;
      }
    </style>
  </defs>
  <path class="st0" d="M128.4,166.98c2.38,1.92,4.65,3.92,6.76,6.05,4.24,4.24,7.91,8.92,10.98,13.99l.58.95.55.97c.38.64.72,1.3,1.07,1.95.37.65.69,1.32,1.03,1.98l.97,2.01c1.27,2.7,2.39,5.49,3.43,8.33,1.03,2.84,1.94,5.75,2.78,8.71s1.57,5.98,2.32,9.07c.55-3.13.67-6.32.57-9.51-.12-3.19-.52-6.38-1.17-9.53s-1.58-6.25-2.75-9.28c-.6-1.51-1.25-2.99-1.97-4.46-.37-.73-.73-1.45-1.14-2.16l-.59-1.07-.63-1.05c-3.38-5.57-7.83-10.53-13.01-14.43-5.19-3.88-11.09-6.75-17.31-8.08,2.6,1.82,5.12,3.62,7.51,5.54l.02.02Z"/>
  <path class="st0" d="M206.02,211.92c.84-2.96,1.75-5.87,2.78-8.71,1.04-2.84,2.16-5.62,3.43-8.33l.97-2.01c.35-.66.66-1.33,1.03-1.98.35-.65.69-1.31,1.07-1.95l.55-.97.58-.95c3.08-5.07,6.74-9.75,10.98-13.99,2.11-2.13,4.38-4.13,6.76-6.05,2.38-1.93,4.9-3.72,7.51-5.54-6.21,1.32-12.11,4.2-17.31,8.08-5.18,3.89-9.63,8.85-13.01,14.43l-.63,1.05-.59,1.07c-.4.71-.77,1.43-1.14,2.16-.71,1.46-1.37,2.95-1.97,4.46-1.16,3.03-2.1,6.13-2.75,9.28s-1.05,6.34-1.17,9.53c-.1,3.19.02,6.38.57,9.51.75-3.09,1.48-6.1,2.32-9.07l.02-.02Z"/>
  <path class="st0" d="M359.6,253.73c-.85-3.73-2.75-7.49-2.75-7.49-1.96-3.95-4.46-7.26-15.24-16.73-5.18-4.55-10.7-8.61-21.73-16.73-1.77-1.3-4.37-3.18-8.24-4.25-4.25-1.17-7.48-.66-11.24-.25,0,0-12.34,1.34-23.73.5-2.73-.2-6.54-.64-11.14-1.71.8-1.27,1.56-2.54,2.29-3.79,5.26-2.17,9.74-3.31,13.01-3.95,10.55-2.08,15.62-.47,26.64-3.16,4.76-1.16,8.36-2.04,12.49-4.33,10.38-5.9,15.64-18.57,21.12-28.58,3.01-5.5,6.83-11.2,8.52-17.27,1.15-4.13,1.68-7.43,1.83-8.49,1.9-13.37-6.13-28.6-8.66-33.14,1.61,6.87,1.89,12.69,1.83,16.82-.07,4.44-.14,8.73-1.83,13.98-.69,2.16-1.86,4.13-2.93,6.12-5.24,9.72-11.62,18.94-18.05,27.91-6.38,8.89-9.46,11.29-12.99,12.16-.44.11-1.4.25-3.33.5-1.01.13-5.63.72-10.99,1-6.83.35-13.62.13-17.39-.05,1.73-5.58,2.71-11.01,2.99-16.39.01-.24.02-.47.03-.71,7.93-2.87,24.2-8.82,30.7-25.24.15-.39.32-.78.49-1.2.98-2.33,2.2-5.26,2.14-8.65,2.51-.67,5.13-1.7,6.94-3.61,5.47-5.77,8.95-10.62,10.57-18.32l.02-.11c2.04-9.56.31-15.73-1.5-19.22l-1.3.67c1.17-1.69.84-4.87.25-8.89-.59-4.03-1.67-9.39-3.03-15.11-3.07-12.86-8.2-23.67-10.96-29.48-.52-1.1-.97-2.05-1.29-2.76-.29-.64-.8-1.12-1.4-1.37-.76-1.89-1.45-3.32-1.84-4.09-10.91-21.56-36.09-26.66-43.55-27.71-20.85-2.93-37.45,5.38-45.5,10.6-1.14.74-1.54,2.22-.93,3.44s2.04,1.78,3.32,1.3c5.49-2.05,16.55-4.84,28.94-.52,11.98,4.17,18.46,12.7,20.59,15.5,2.51,3.3,4.57,6.92,6.15,10.8-4,2.29-9.67,4.56-16.44,4.56h-.35c-12.85-.15-25.15-8.46-32.12-21.69-.62-1.17-2-1.72-3.26-1.27-1.25.44-1.99,1.74-1.73,3.04,1.51,7.57,6.97,26.52,25.05,38.83,5.75,3.92,17.06,10.06,31.46,10.06,1.41,0,2.86-.06,4.33-.19.59,1.14,1.27,2.24,1.99,3.38,1.23,1.97,2.62,4.2,4.03,7.37,1.72,3.88,3.14,6.75,4.34,8.79l.12.21c-2.01,1.78-4.1,3.8-6.44,6.21-9.57,9.89-10.34,12.06-10.47,14.44v.27c-7.25,3.06-18.4,8.81-21.65,10.76l.11.18c-3.76-.66-8.15-.58-11.34.29-2.12.58-3.85,1.58-5.52,2.55-.99.57-1.92,1.11-2.87,1.53-.26.12-.5.27-.7.45-1.73,0-3.45.03-5.18.11-4.08.19-6.98.57-9.31.88-3.36.44-5.21.68-7.82.09-.48-.11-1.05-.3-1.53-.49.88-1.8,1.71-3.63,2.46-5.47,1.16-2.84,2.16-5.73,3-8.64,1.68-5.82,2.71-11.74,3.1-17.61-2.01,5.53-4.6,10.76-7.66,15.58-1.53,2.41-3.18,4.72-4.93,6.93-1.42,1.78-2.91,3.49-4.45,5.13-.11-.07-.2-.13-.28-.17l-.21-.13c-2.41-1.46-5.41-2.37-8.55-2.92-.96-1.01-1.82-1.87-2.53-2.57-3.2-3.15-4.62-4.16-5.29-4.61-1.44-.98-2.74-1.67-3.63-2.1.26,1.13.48,2.79.16,4.75-.23,1.42-.69,2.63-1.19,3.64h-2.67c-.51-1.01-.96-2.22-1.19-3.64-.32-1.96-.1-3.62.16-4.75-.89.43-2.19,1.12-3.63,2.1-.67.46-2.08,1.47-5.29,4.61-.68.67-1.49,1.48-2.39,2.42-3.26.51-6.46,1.36-9.13,2.79-1.35-1.46-2.65-2.97-3.9-4.53-1.75-2.2-3.4-4.52-4.92-6.93-3.05-4.83-5.64-10.05-7.66-15.58.39,5.87,1.42,11.79,3.1,17.61.84,2.91,1.84,5.8,3,8.64.65,1.59,1.35,3.16,2.1,4.72-.21.08-.42.17-.64.25-.3.11-.59.23-.86.33-.76.3-1.35.53-1.91.66-2.61.59-4.46.35-7.82-.09-2.33-.3-5.24-.68-9.31-.88l-.81-.04c-1.57-.08-3.55-.18-5.91-.12-.14-.12-.29-.24-.46-.35-.15-.1-.37-.23-.64-.38-.47-.27-1.1-.62-1.75-.97-.68-.37-2.57-1.38-3.06-1.59-4.29-1.85-8.5-2.41-12.49-1.69-3.33-1.99-14.38-7.68-21.59-10.73v-.27c-.13-2.39-.9-4.55-10.47-14.44-2.34-2.41-4.43-4.42-6.44-6.21l.13-.22c1.19-2.03,2.61-4.9,4.33-8.78,1.4-3.17,2.8-5.4,4.03-7.37.71-1.14,1.39-2.24,1.99-3.38,1.47.13,2.91.19,4.33.19,14.4,0,25.72-6.14,31.46-10.06,18.07-12.31,23.54-31.26,25.05-38.83.26-1.3-.48-2.6-1.73-3.04s-2.64.1-3.25,1.27c-6.96,13.23-19.27,21.54-32.12,21.69-6.93.07-12.73-2.23-16.79-4.56,1.58-3.87,3.64-7.5,6.15-10.8,2.13-2.8,8.61-11.33,20.59-15.5,12.39-4.31,23.45-1.52,28.94.52,1.28.47,2.71-.09,3.32-1.3.61-1.22.21-2.7-.93-3.44-8.04-5.22-24.65-13.53-45.5-10.6-7.46,1.05-32.64,6.15-43.55,27.71-.39.77-1.08,2.2-1.84,4.09-.6.26-1.11.73-1.4,1.37-.32.71-.77,1.66-1.29,2.76-2.76,5.81-7.89,16.62-10.96,29.48-1.37,5.72-2.44,11.08-3.03,15.11-.59,4.02-.91,7.19.25,8.89l-1.3-.67c-1.81,3.49-3.54,9.66-1.5,19.22l.02.1c1.63,7.7,5.11,12.54,10.58,18.32,1.82,1.92,4.44,2.95,6.94,3.61-.06,3.4,1.16,6.32,2.14,8.65.17.41.34.81.49,1.2,6.05,15.28,20.56,21.49,28.93,24.59-.04,2.05.05,4.03.29,5.87.51,3.9,1.37,7.82,2.6,11.79-3.21.18-11.02.54-18.89.13-5.36-.28-9.98-.87-10.99-1-1.93-.25-2.89-.39-3.33-.5-3.53-.87-6.61-3.27-12.99-12.16-6.44-8.97-12.81-18.18-18.05-27.91-1.07-1.98-2.24-3.96-2.93-6.12-1.69-5.25-1.76-9.54-1.83-13.98-.07-4.13.22-9.95,1.83-16.82-2.53,4.54-10.56,19.77-8.66,33.14.15,1.06.68,4.36,1.83,8.49,1.69,6.07,5.51,11.77,8.52,17.27,5.48,10.01,10.75,22.69,21.12,28.58,4.13,2.29,7.73,3.17,12.49,4.33,11.02,2.69,16.1,1.08,26.64,3.16,3.66.72,8.87,2.07,14.99,4.8.51.87,1.04,1.74,1.59,2.63-5.17,1.3-9.45,1.8-12.43,2.02-11.39.84-23.73-.5-23.73-.5-3.76-.41-6.99-.92-11.24.25-3.87,1.07-6.47,2.94-8.24,4.25-11.03,8.12-16.55,12.18-21.73,16.73-10.77,9.47-13.28,12.78-15.24,16.73,0,0-1.89,3.76-2.75,7.49-1.87,8.17,3.59,19.17,3.87,19.73,1.45,2.86,3.77,7.32,8.74,11.24,3.46,2.72,6.86,4.14,9.17,4.89-3.2-3.54-8.29-10.16-10.79-19.75-1.33-5.11-2.37-9.12-1.25-13.86,2.06-8.68,8.59-8.02,26.94-24.02,2.34-2.04,6.47-5.75,13.03-7.7,3.26-.97,5.91-1.25,7.99-1.25,16.02,0,38.75.87,49.83,1.15.58.78,1.17,1.56,1.77,2.34-4.74,1.24-18.1,4.9-25.72,5.33-8.26.47-12.38.7-14.99,2-4.28,2.13-6.63,5.95-11.16,13.49-10.23,17.06-11.52,28.38-11.82,31.97-.27,3.19-.39,4.82.17,6.49,3.73,11.2,25.86,13.06,28.97,13.32,3.06.26,5.61.23,7.33.17-6.84-4.01-12.34-7.61-16.32-10.32-4.63-3.16-5.57-4.01-6.33-5.5-2.31-4.52-.15-9.78,4.16-20.31,3.21-7.84,5.42-10.47,7.16-12.16.97-.94,3.36-3.1,6.99-4.83,5.82-2.76,11.18-2.67,13.49-2.66,6.3,0,16.46-.41,30.62-2.69.47.44.94.87,1.42,1.29-8.16,4.02-12.07,6.31-16.42,7.73-1.59.52-6.14,2.12-8.26,5.34-.98,1.48-1.07,4.06-.65,8.73.61,6.59,1.67,16.4,5.5,19.15,2.63,1.89,6.92,3.1,9.57,4,3.7,1.24,10.91,2.99,20.73,1-1.61-.03-17.13-1.77-23.23-10.32-1.75-2.46-4.11-13.11-2.5-16.15,1.66-3.13,6.06-3.63,10.74-4.25,5.74-.75,14.07-1.94,24.84-3.84,2.29.62,4.54,1.05,6.96,1.52,5.85,1.14,17.83,1.7,29.8,1.7s23.96-.57,29.81-1.7c2.21-.43,4.28-.83,6.36-1.37,10.35,1.81,18.38,2.96,23.96,3.69,4.68.61,9.08,1.12,10.74,4.25,1.62,3.04-.75,13.7-2.5,16.15-6.1,8.56-21.62,10.3-23.23,10.32,9.82,1.99,17.03.24,20.73-1,2.66-.89,6.95-2.11,9.57-4,3.83-2.75,4.89-12.56,5.5-19.15.43-4.67.33-7.25-.65-8.73-2.12-3.22-6.67-4.82-8.26-5.34-4.18-1.36-7.95-3.53-15.48-7.26.59-.51,1.17-1.03,1.74-1.56,13.5,2.11,23.24,2.5,29.35,2.49,2.31,0,7.66-.1,13.49,2.66,3.64,1.73,6.02,3.89,6.99,4.83,1.74,1.69,3.95,4.32,7.16,12.16,4.32,10.53,6.48,15.8,4.16,20.31-.76,1.49-1.7,2.34-6.33,5.5-3.98,2.71-9.48,6.31-16.32,10.32,1.72.07,4.26.09,7.33-.17,3.12-.26,25.24-2.12,28.97-13.32.56-1.67.43-3.3.17-6.49-.3-3.59-1.59-14.91-11.82-31.97-4.52-7.54-6.87-11.36-11.16-13.49-2.6-1.29-6.73-1.53-14.99-2-7.03-.4-18.97-3.55-24.49-5.01.69-.9,1.37-1.8,2.04-2.71,11.53-.31,33-1.11,48.32-1.11,2.08,0,4.73.28,7.99,1.25,6.56,1.95,10.68,5.66,13.03,7.7,18.35,16,24.88,15.34,26.94,24.02,1.13,4.74.08,8.75-1.25,13.86-2.5,9.59-7.59,16.21-10.79,19.75,2.31-.75,5.71-2.17,9.17-4.89,4.97-3.92,7.29-8.38,8.74-11.24.28-.56,5.74-11.56,3.87-19.73h0ZM306.38,137.19c-.19.45-.37.88-.53,1.3-5.2,13.14-18.23,18.73-25.84,21.56-.43-5.65-1.81-11.07-4.11-15.94-1.3-2.75-3.45-6.75-6.35-10.19-1.78-2.11-3.55-3.73-5.35-4.89,6.83-3.64,18.59-9.33,21.61-9.96,8.01-1.67,19,1.75,21.73,8.81,1.32,3.4.05,6.41-1.16,9.31ZM253.1,60.77c-8.59-5.85-14.05-13.37-17.51-20.21,7.52,6.92,16.85,10.95,26.49,11.06,9.39.11,16.93-3.49,21.6-6.54,1.04-.67,1.47-1.97,1.06-3.13-1.84-5.15-4.42-9.95-7.69-14.25-2.37-3.12-9.58-12.62-23.08-17.31-4.64-1.61-9.11-2.35-13.24-2.52,7.06-2.11,15.52-3.28,24.91-1.96,6.81.96,29.79,5.58,39.53,24.83,1.23,2.43,5.89,12.38,4.9,21.67v.03c-.36,1.91-.9,4.75-2.45,7.58-.29.47-.59.94-.93,1.39-5.23,6.91-14.79,7.76-21.12,8.32-14.87,1.32-26.72-5.04-32.46-8.96h0ZM292.4,75.6c-.13-.21-.26-.41-.38-.61,4.72-.58,12.15-2.47,17.44-8.39,1.1-1.23,1.98-2.5,2.69-3.77,1.76-2.9,2.71-6.04,3.12-9.21.01-.07.03-.15.04-.21.07-.38.14-.76.19-1.14,1.72,4.47,3.42,9.55,4.72,14.99,1.82,7.61,2.81,13.28,3.21,16.67-3.41-1.15-6.96-.31-9.9.38-2.04.48-3.81,1.13-5.4,2-2.56,1.39-5.06,3.05-7.61,5.02-1.03-1.82-2.26-4.35-3.74-7.7-1.56-3.52-3.12-6.02-4.38-8.04h0ZM293.75,104.73c2.89-2.98,5.37-5.32,7.78-7.35h0c3.11-2.63,6.1-4.71,9.15-6.37,1.16-.63,2.49-1.12,4.06-1.49,2.97-.7,5.78-1.36,7.89-.1.29.17.4.32.58.54.85,1.05,1.74,1.35,2.49,1.35l-.96.5c1.41,2.71,2.73,7.63,1.02,15.64l-.02.12c-1.22,5.78-3.55,9.75-9.23,15.75-.91.96-2.53,1.6-4.22,2.07-3.98-9.16-16.47-13.35-26.44-11.75,1.12-1.58,3.39-4.24,7.9-8.9h0ZM148.97,137.78c.95-.21,1.8-.55,2.69-.89.25-.1.52-.2.8-.31,4.7-1.78,7.96-3.59,9.19-4.27l.24-.13c5.41-2.96,14.48-2.96,19.91-2.96s15.07,0,20.08,3.05l.19.11c1,.62,4.06,2.5,8.41,4.2.06.02.14.06.24.1.7.29,1.99.83,3.27,1.12,1.54.35,2.9.48,4.24.48,1.27,0,2.52-.12,3.89-.29-.29,2.37-.75,4.68-1.42,6.9-.8,2.64-1.86,5.14-3.17,7.49-1.3,2.35-2.83,4.54-4.54,6.56-.43.5-.88,1.01-1.3,1.44-.42.44-.86.83-1.33,1.23-.96.79-2.06,1.59-3.17,2.4-4.53,3.22-9.19,6.53-13.73,9.87-2.28,1.66-4.53,3.37-6.75,4.94-1.09.77-2.2,1.54-3.08,2.01-.43.22-.71.32-.89.36-.02,0-.05,0-.07.02h-.1l-.1.02h-.3s-.11,0-.11,0h-.09c-.1,0-.5-.1-.95-.29-.24-.1-.48-.19-.75-.33-.26-.12-.52-.25-.8-.4-1.09-.56-2.23-1.25-3.37-1.96-2.3-1.4-4.57-2.98-6.87-4.54l-6.91-4.81c-1.15-.8-2.28-1.61-3.41-2.41s-2.23-1.6-3.29-2.43c-1.05-.83-2.07-1.65-2.99-2.52-.92-.87-1.74-1.77-2.45-2.73-.34-.47-.7-1.02-1.02-1.58-.33-.55-.63-1.13-.93-1.71-.6-1.16-1.1-2.39-1.57-3.66-.48-1.27-.87-2.58-1.28-3.93-.41-1.36-.79-2.68-1.13-4.04-.47-1.87-.85-3.78-1.17-5.71,1.91.14,3.73.08,5.92-.41h-.03ZM129.57,136.89l.84.04c3.86.18,6.64.55,8.88.84,1.06.14,2.04.27,2.98.35-.25,2-.35,4.03-.32,6.07,0,1.45.13,2.92.24,4.34.12,1.44.28,2.89.53,4.36s.59,2.94,1.05,4.4c.23.73.48,1.46.78,2.17.29.72.6,1.41.98,2.16.75,1.46,1.7,2.79,2.69,3.99,1,1.21,2.05,2.32,3.13,3.35s2.17,2.01,3.26,2.97c1.09.95,2.21,1.87,3.31,2.78,2.21,1.83,4.41,3.56,6.69,5.34,2.28,1.76,4.63,3.45,7.09,5.1,1.24.82,2.52,1.6,3.93,2.36.34.19.72.38,1.09.56.36.18.78.36,1.19.54.86.34,1.8.69,3.12.86.32.05.66.05.97.06h.42l.38-.03.38-.03.43-.05.43-.06.45-.09c1.2-.26,2.23-.74,3.05-1.18.8-.45,1.5-.89,2.14-1.33.65-.44,1.25-.88,1.85-1.32,2.34-1.78,4.55-3.54,6.75-5.34,2.19-1.81,4.38-3.59,6.54-5.43l3.25-2.76c1.07-.94,2.15-1.87,3.23-2.85,1.08-.97,2.16-1.98,3.25-3.14.54-.59,1.08-1.23,1.56-1.88.49-.65.88-1.28,1.29-1.92,1.61-2.56,2.91-5.31,3.87-8.14,1.75-5.23,2.25-10.84,1.26-16.07.37-.05.75-.1,1.14-.15,2.24-.29,5.02-.66,8.88-.84,1.76-.08,3.52-.12,5.28-.1.27.57.54,1.14.8,1.7,3.11,6.55,6.33,13.33,5.68,28.11-.51,11.52-1.58,35.49-18.74,48.98-13.33,10.48-32.7,11.53-42.01,12.03-.92.05-4.7.05-5.62,0-9.31-.5-28.68-1.55-42.01-12.03-17.16-13.49-18.23-37.46-18.74-48.98-.66-14.78,2.56-21.56,5.68-28.11.27-.57.55-1.16.83-1.75,2.35-.08,4.34.03,5.9.11h-.03ZM97.74,5.9c2.73-.38,5.39-.56,7.95-.56,6.24,0,11.95,1.02,16.96,2.52-4.13.18-8.6.91-13.24,2.52-13.5,4.7-20.71,14.19-23.08,17.31-3.27,4.3-5.86,9.1-7.69,14.25-.41,1.16.02,2.46,1.06,3.13,4.67,3.04,12.21,6.64,21.6,6.54,9.64-.11,18.98-4.14,26.49-11.06-3.46,6.84-8.92,14.36-17.51,20.21-5.74,3.91-17.59,10.27-32.46,8.96-6.33-.56-15.89-1.41-21.12-8.32-.34-.45-.64-.91-.93-1.39-1.56-2.83-2.1-5.68-2.45-7.59v-.04c-.98-9.28,3.67-19.23,4.9-21.66,9.74-19.25,32.72-23.87,39.53-24.83h0ZM43.16,67.26c1.3-5.44,3-10.52,4.72-14.99.06.38.12.76.19,1.14,0,.07.03.14.04.21.4,3.17,1.36,6.32,3.12,9.22.72,1.26,1.6,2.54,2.69,3.77,5.29,5.92,12.71,7.81,17.44,8.39-.12.2-.25.4-.38.61-1.26,2.01-2.83,4.52-4.38,8.04-1.49,3.35-2.72,5.88-3.74,7.7-2.54-1.97-5.05-3.62-7.61-5.02-1.59-.87-3.36-1.52-5.39-2-1.89-.45-4.04-.95-6.23-.95-1.22,0-2.46.16-3.67.57.4-3.4,1.39-9.06,3.21-16.67v-.02ZM51.09,125.38c-1.69-.47-3.31-1.1-4.22-2.07-5.68-6-8.01-9.97-9.23-15.76l-.02-.11c-1.71-8.01-.39-12.93,1.02-15.64l-.96-.5c.75,0,1.64-.3,2.49-1.35.18-.22.3-.36.58-.54,2.11-1.26,4.91-.6,7.89.1,1.57.37,2.89.85,4.06,1.49,3.04,1.66,6.04,3.74,9.15,6.37h0c2.42,2.03,4.89,4.37,7.78,7.34,4.52,4.67,6.78,7.33,7.91,8.9-9.97-1.6-22.46,2.59-26.44,11.75v.02ZM57.53,138.49c-.17-.42-.35-.85-.53-1.3-1.22-2.91-2.48-5.91-1.16-9.31,2.73-7.07,13.73-10.48,21.73-8.81,2.99.62,14.55,6.21,21.41,9.85-.77.45-1.52.95-2.26,1.51-8.3,6.27-13.32,18.14-14.78,29.07-7.72-2.98-19.52-8.67-24.4-21.01h-.01ZM209.52,249.75c-11.03,2.14-46.54,2.14-57.58,0-4.55-.88-8.48-1.65-13.12-3.81-12.8-5.96-22.21-18.87-30.52-30.26l-.97-1.33c-12.03-16.47-18.46-30.49-20.25-44.13-1.46-11.12,3.46-28.45,12.85-35.54,2.82-2.13,5.84-3.19,9.04-3.19,2.22,0,4.53.51,6.91,1.54.33.15,1.72.88,2.93,1.54-.26.55-.52,1.1-.79,1.67-3.24,6.81-6.91,14.53-6.19,30.64.55,12.32,1.69,37.94,20.77,52.94,14.66,11.53,35.17,12.63,45.03,13.17,1.13.06,5.07.06,6.2,0,9.86-.53,30.36-1.64,45.03-13.17,19.09-15,20.23-40.63,20.77-52.94.72-16.11-2.95-23.83-6.19-30.64-.25-.52-.49-1.03-.73-1.54.34-.19.67-.38,1-.57,1.44-.83,2.8-1.62,4.24-2.02,3.04-.83,7.92-.69,11.11.31,2.06.65,4.16,2.26,6.42,4.94,2.53,2.99,4.44,6.56,5.6,9.02,2.77,5.88,4.05,12.71,3.68,19.74-.76,14.68-7.31,30-20.63,48.23l-.97,1.33c-8.31,11.39-17.72,24.3-30.52,30.26-4.64,2.16-8.57,2.92-13.12,3.81h0Z"/>
</svg>