<?xml version="1.0" encoding="UTF-8"?>
<svg id="Layer_1" data-name="Layer 1" xmlns="http://www.w3.org/2000/svg" xmlns:xlink="http://www.w3.org/1999/xlink" viewBox="0 0 500 509.96">
  <defs>
    <style>
      .cls-1 {
        fill: none;
      }

      .cls-2 {
        clip-path: url(#clippath-1);
      }

      .cls-3 {
        fill: #9a6c29;
      }

      .cls-4 {
        clip-path: url(#clippath);
      }
    </style>
    <clipPath id="clippath">
      <rect class="cls-1" width="500" height="509.96"/>
    </clipPath>
    <clipPath id="clippath-1">
      <rect class="cls-1" width="500" height="509.96"/>
    </clipPath>
  </defs>
  <g id="Cancer">
    <g class="cls-4">
      <g class="cls-2">
        <path class="cls-3" d="M101.36,167.67h0c-2.24,0-4.75-.24-7.26-.69-12.35-2.21-24.53-10.71-31.79-22.19-4.9-7.75-6.82-17.99-5.41-28.85,1.18-9.04,4.33-17.96,10.24-28.93,2.61-4.84,8.32-14.56,17.25-25.25h0c.39-.46,2.53-2.91,15.48-17.81.94-1.08,2.52-1.34,3.76-.62,1.24.73,1.78,2.23,1.3,3.58-2.1,5.84-3.92,12.21-5.52,17.83-.74,2.61-1.46,5.1-2.15,7.4-1.15,3.81-2.1,6.8-2.91,9.4-2.02,6.43-3.25,10.31-5.05,18.17-1.06,4.62-1.4,10.64.25,13.67,1.05,1.93,4.87,4.22,17.17,4.22,4.04,0,8.2-.24,11.86-.44,1.24-.07,2.44-.14,3.55-.19,1.18-.05,2.3.6,2.82,1.66l.27.87.36,2.21c1.3,7.41,2.42,16.18.88,24.91-.38,2.13-1.13,4.36-2.3,6.82l-1.04,2.06c-1,1.87-2.55,3.88-4.38,5.65-3.38,3.27-8.02,5.43-13.43,6.24-1.21.18-2.54.27-3.94.27M88.94,65.6c-8.58,10.28-14.06,19.6-16.56,24.24-5.54,10.3-8.5,18.58-9.58,26.87-1.24,9.48.37,18.32,4.53,24.89,6.4,10.11,17.05,17.58,27.8,19.5,2.18.39,4.33.59,6.21.59h0c1.11,0,2.14-.07,3.06-.21,4.22-.63,7.64-2.19,10.16-4.62,1.37-1.33,2.56-2.85,3.27-4.17l.92-1.81c.94-1.97,1.53-3.7,1.81-5.29,1.36-7.7.36-15.68-.83-22.52l-.85.05c-3.74.21-7.99.45-12.2.45-8.58,0-18.87-.83-22.41-7.34-3.22-5.92-1.45-15.17-.82-17.86,1.86-8.09,3.18-12.28,5.18-18.62.81-2.59,1.75-5.56,2.89-9.34.69-2.27,1.39-4.74,2.13-7.31.4-1.42.82-2.89,1.26-4.39-3.07,3.53-5.76,6.62-5.98,6.88"/>
        <path class="cls-3" d="M109.25,123.43c-4.94,0-8.92-.26-11.82-.77l-2.01-1.34-.35-2.39c.08-.29,7.93-28.97,12.06-73.3.11-1.16.87-2.14,1.97-2.53,1.09-.39,2.31-.11,3.13.72.94.95,9.26,11.15,13.01,75.97.09,1.62-1.13,3.02-2.74,3.15-.26.02-6.46.5-13.24.5M101.68,117.19c2.12.18,4.65.28,7.57.28,3.77,0,7.42-.16,9.85-.3-1.94-31.54-4.91-49.03-7.32-58.55-3.41,29.68-8.17,50.76-10.1,58.57"/>
        <path class="cls-3" d="M81.82,228.29l-2.37-1.18c-17.5-22.99-7.96-70.04-7.54-72.03.33-1.61,1.91-2.65,3.52-2.31,1.61.34,2.65,1.92,2.31,3.53-.1.46-9.4,46.38,6.45,67.21,1,1.31.74,3.18-.57,4.18l-1.81.61Z"/>
        <path class="cls-3" d="M102.28,204.86l-1.81-.61c-1.31-1-1.56-2.87-.57-4.18,16.08-21.12,17.38-45.52,17.39-45.76.08-1.65,1.46-2.87,3.11-2.84,1.65.07,2.92,1.47,2.85,3.11-.05,1.07-1.36,26.44-18.6,49.1l-2.37,1.18Z"/>
        <path class="cls-3" d="M107.18,231.73c-14.12,0-25.66-3.4-26.22-3.57l-1.89-1.69.09-2.53c.26-.5,26.26-49.48,99.47-49.48h2.06c1.65.03,2.97,1.39,2.95,3.03-.02,1.63-1.35,2.94-2.98,2.94h-.04c-59.96-.77-87,32.29-94.14,42.96,5.39,1.2,15.81,3.01,26.75,2.13,33.38-2.67,55.74-19.58,63.8-26.73,1.23-1.09,3.12-.98,4.21.25,1.1,1.23.98,3.12-.25,4.21-8.51,7.54-32.11,25.4-67.28,28.21-2.21.18-4.41.25-6.53.25"/>
        <path class="cls-3" d="M97.88,325.64h-.2c-1.46-.1-2.63-1.24-2.77-2.7-2.68-28.06,3.46-51.21,18.27-68.81,24.61-29.24,63.95-32.56,65.61-32.69,1.65-.13,3.08,1.11,3.2,2.75l1.39,18.2-.86,2.33-2.33.87c-1.58-.12-3.18-.18-4.73-.18-56,0-74.49,77.14-74.67,77.91-.31,1.36-1.53,2.31-2.9,2.31M176.28,227.76c-9.45,1.37-39.35,7.39-58.57,30.26-10.57,12.58-16.36,28.32-17.31,46.95,2.68-7,6.46-15.45,11.55-23.95,16.28-27.19,38.24-41.56,63.5-41.56l1.72.02-.9-11.72Z"/>
        <path class="cls-3" d="M114.63,341.07l-.4-.03c-1.48-.2-2.59-1.46-2.59-2.96,0-33.52,9.26-57.69,27.54-71.86,14.53-11.26,30.68-12.94,39.01-12.94,2.61,0,4.19.17,4.25.18,1.21.14,2.22,1,2.54,2.18l3.79,13.95c.27.99,0,2.06-.69,2.81-.7.76-1.74,1.1-2.75.9-2.73-.53-5.46-.8-8.1-.8-41.31,0-59.55,65.7-59.73,66.36-.36,1.31-1.55,2.2-2.88,2.2M178.2,259.25c-7.57,0-22.24,1.52-35.36,11.7-12.82,9.94-20.8,25.52-23.83,46.45,9.25-20.95,27.78-50.85,58.23-50.85,1.52,0,3.05.08,4.6.23l-2.04-7.5-1.6-.03Z"/>
        <path class="cls-3" d="M305.52,294.82l-1.28-.29c-1.49-.71-2.12-2.49-1.41-3.97,6.22-13.05,10.8-28.53,12.89-43.58,3.76-27.06,1.37-56.07-1.14-78.32-2.18-19.37-6.94-43.52-24.56-58.48-4.15-3.53-9.34-6.89-14.84-10.45-9.26-6-18.8-12.18-25.34-20.29-6.55,8.11-16.09,14.29-25.35,20.29-5.49,3.56-10.69,6.93-14.84,10.45-17.62,14.96-22.38,39.11-24.56,58.48-2.5,22.25-4.9,51.25-1.14,78.32,2.1,15.06,6.67,30.54,12.9,43.58.71,1.49.08,3.27-1.41,3.97-1.49.71-3.27.08-3.98-1.4-6.48-13.59-11.24-29.69-13.42-45.33-3.85-27.72-1.42-57.21,1.12-79.8,2.3-20.46,7.41-46.04,26.63-62.36,4.45-3.78,9.79-7.24,15.46-10.91,10-6.48,20.34-13.18,26.09-21.96.55-.84,1.49-1.35,2.49-1.35s1.94.5,2.49,1.35c5.75,8.78,16.1,15.48,26.09,21.96,5.66,3.67,11.01,7.14,15.46,10.91,19.21,16.32,24.32,41.9,26.63,62.36,2.54,22.59,4.97,52.08,1.12,79.8-2.17,15.65-6.94,31.74-13.42,45.33-.51,1.07-1.58,1.7-2.7,1.7"/>
        <path class="cls-3" d="M398.95,167.67c-1.4,0-2.73-.09-3.94-.27-5.4-.81-10.05-2.96-13.43-6.24-1.83-1.77-3.38-3.78-4.39-5.65l-1.04-2.06c-1.17-2.46-1.92-4.69-2.3-6.81-1.55-8.74-.42-17.5.88-24.92l.36-2.19.27-.88c.52-1.07,1.65-1.71,2.82-1.66,1.11.05,2.3.12,3.55.19,3.66.21,7.82.44,11.86.44,12.29,0,16.12-2.3,17.17-4.22,1.65-3.04,1.32-9.05.25-13.67-1.81-7.86-3.04-11.74-5.06-18.18-.82-2.6-1.76-5.59-2.91-9.4-.7-2.3-1.41-4.8-2.15-7.41-1.59-5.58-3.4-11.91-5.48-17.73-.53-.91-.38-1.39.05-2.34.5-1.11,1.62-1.8,2.84-1.74l2.14,1.04c.28.32,4.13,4.75,7.91,9.1q7.54,8.68,7.58,8.72c8.9,10.66,14.61,20.38,17.22,25.22,5.91,10.97,9.06,19.89,10.24,28.93,1.41,10.86-.5,21.11-5.41,28.85-7.26,11.48-19.45,19.98-31.8,22.19-2.51.45-5.02.69-7.26.69M380.56,123.08c-1.19,6.84-2.19,14.82-.82,22.52.28,1.59.87,3.32,1.81,5.29l.92,1.81c.71,1.33,1.9,2.85,3.27,4.18,2.51,2.44,5.93,3.99,10.16,4.62,2.49.38,5.83.23,9.27-.39,10.76-1.92,21.41-9.4,27.81-19.5,4.16-6.57,5.77-15.41,4.53-24.89-1.08-8.29-4.03-16.58-9.58-26.87-2.5-4.64-7.98-13.97-16.57-24.26-.05-.06-2.81-3.22-5.97-6.86.44,1.5.85,2.96,1.26,4.38.74,2.58,1.44,5.04,2.13,7.32,1.14,3.78,2.08,6.75,2.89,9.33,2,6.35,3.32,10.54,5.18,18.63.62,2.69,2.39,11.94-.83,17.86-3.53,6.5-13.83,7.34-22.41,7.34-4.21,0-8.45-.24-12.2-.45l-.85-.05Z"/>
        <path class="cls-3" d="M391.06,123.43h0c-6.78,0-12.97-.48-13.24-.5-1.62-.13-2.84-1.53-2.74-3.15,3.75-64.82,12.07-75.03,13.01-75.97.81-.83,2.03-1.11,3.13-.72,1.09.39,1.86,1.38,1.97,2.53,4.12,44.33,11.98,73.01,12.06,73.3l-.35,2.39-2.01,1.35c-2.9.51-6.87.77-11.81.77M381.21,117.17c2.42.14,6.08.3,9.85.3h0c2.92,0,5.45-.09,7.57-.28-1.92-7.81-6.69-28.9-10.1-58.57-2.4,9.52-5.38,27.02-7.32,58.55"/>
        <path class="cls-3" d="M418.48,228.29l-1.81-.61c-1.31-1-1.56-2.87-.57-4.18,15.87-20.85,6.55-66.75,6.45-67.21-.34-1.61.7-3.19,2.31-3.53,1.61-.33,3.19.7,3.53,2.31.41,1.99,9.96,49.04-7.55,72.03l-2.37,1.18Z"/>
        <path class="cls-3" d="M398.03,204.86l-2.37-1.18c-17.23-22.63-19.12-49.04-19.19-50.15-.11-1.64,1.14-3.06,2.78-3.17,1.64-.12,3.06,1.14,3.17,2.78.02.26,1.88,25.77,17.98,46.93,1,1.31.74,3.18-.57,4.18l-1.8.61Z"/>
        <path class="cls-3" d="M393.12,231.73c-2.13,0-4.31-.08-6.53-.25-35.18-2.81-58.77-20.67-67.28-28.22-1.23-1.09-1.34-2.98-.25-4.21,1.09-1.23,2.98-1.34,4.21-.25,8.06,7.15,30.42,24.06,63.8,26.73,10.97.87,21.36-.93,26.74-2.13-7.18-10.66-34.34-43.77-94.13-42.96h-.04c-1.63,0-2.96-1.31-2.98-2.94-.02-1.65,1.3-3,2.95-3.02,74.82-.93,101.27,48.96,101.53,49.47l.09,2.53-1.89,1.69c-.56.17-12.1,3.57-26.22,3.57"/>
        <path class="cls-3" d="M402.43,325.64c-1.38,0-2.59-.95-2.9-2.31-.18-.78-18.68-77.91-74.68-77.91-1.56,0-3.15.06-4.73.17l-2.33-.87-.86-2.33,1.39-18.2c.12-1.64,1.54-2.87,3.2-2.75,1.66.13,41,3.45,65.61,32.69,14.81,17.6,20.96,40.75,18.27,68.81-.14,1.46-1.31,2.59-2.77,2.69h-.2ZM324.85,239.45c25.26,0,47.22,14.37,63.5,41.56,5.1,8.5,8.87,16.95,11.55,23.94-.95-18.65-6.76-34.4-17.35-46.98-19.26-22.89-49.1-28.86-58.54-30.22l-.9,11.72,1.72-.02Z"/>
        <path class="cls-3" d="M385.67,341.07c-1.33,0-2.52-.89-2.88-2.2-.18-.67-18.41-66.36-59.73-66.36-2.64,0-5.37.27-8.1.8-1.01.2-2.05-.14-2.75-.9-.7-.75-.96-1.82-.69-2.81l3.79-13.95c.32-1.18,1.33-2.04,2.54-2.18.06,0,1.65-.18,4.25-.18,8.33,0,24.48,1.68,39.01,12.95,18.27,14.17,27.54,38.35,27.54,71.86,0,1.49-1.11,2.76-2.59,2.96l-.4.03ZM323.07,266.54c30.45,0,48.98,29.9,58.23,50.85-3.03-20.93-11.02-36.51-23.84-46.45-13.13-10.18-27.79-11.7-35.36-11.7l-1.6.03-2.04,7.5c1.55-.15,3.08-.23,4.6-.23"/>
        <path class="cls-3" d="M316.41,345.44c-1.37,0-2.56-.94-2.89-2.27-2.44-9.86-7.4-11.22-12.39-11.22s-11.37,1.68-18.65,3.63c-9.63,2.58-20.54,5.49-32.32,5.49s-22.7-2.92-32.32-5.49c-7.28-1.94-13.57-3.63-18.65-3.63s-9.95,1.36-12.39,11.22c-.33,1.33-1.52,2.27-2.9,2.27s-2.56-.94-2.9-2.27c-1.17-4.72-1.76-9.53-1.76-14.31,0-36.38,22.53-53.33,70.91-53.33s70.91,15.95,70.91,53.33c0,4.77-.59,9.59-1.76,14.31-.33,1.33-1.52,2.27-2.9,2.27M199.18,325.99c5.85,0,12.5,1.78,20.19,3.83,9.27,2.48,19.78,5.29,30.78,5.29s21.51-2.81,30.78-5.29c7.69-2.05,14.33-3.83,20.19-3.83s10.64,2.04,13.87,6.19c.07-1.11.11-2.21.11-3.31,0-33.64-18.82-47.36-64.95-47.36s-64.95,14.61-64.95,47.36c0,1.1.03,2.21.1,3.31,3.23-4.15,7.83-6.19,13.87-6.19"/>
        <path class="cls-3" d="M311.83,385.16c-1.37,0-2.56-.93-2.9-2.27-1.12-4.54-2.88-7.46-5.37-8.93-4.9-2.89-13.42-.62-23.27,2.02-8.97,2.4-19.15,5.12-30.14,5.12s-21.17-2.72-30.14-5.12c-9.86-2.64-18.37-4.91-23.27-2.02-2.49,1.47-4.25,4.39-5.37,8.93-.33,1.33-1.53,2.27-2.9,2.27s-2.57-.93-2.9-2.27c-1.09-4.41-1.65-8.91-1.65-13.37,0-19.64,6.99-33.07,21.38-41.06,1.44-.79,3.26-.28,4.06,1.16.8,1.44.28,3.25-1.16,4.06-12.49,6.94-18.31,18.33-18.31,35.84l.07,2.5c1.09-1.3,2.33-2.37,3.74-3.2,7.06-4.17,16.69-1.59,27.85,1.39,8.62,2.3,18.39,4.91,28.6,4.91s19.98-2.61,28.6-4.91c11.16-2.98,20.79-5.56,27.85-1.39,1.41.83,2.65,1.89,3.74,3.2l.07-2.5c0-17.97-5.69-29.44-17.92-36.11-1.45-.79-1.98-2.6-1.19-4.05.79-1.45,2.6-1.98,4.05-1.19,14.34,7.83,21.03,20.97,21.03,41.35,0,4.46-.56,8.96-1.65,13.37-.33,1.33-1.52,2.27-2.9,2.27"/>
        <path class="cls-3" d="M304.95,419.32c-1.37,0-2.57-.94-2.9-2.27-.98-3.94-2.49-6.47-4.62-7.72-4.23-2.51-11.73-.5-20.42,1.83-7.99,2.13-17.05,4.55-26.86,4.55s-18.87-2.42-26.86-4.55c-8.69-2.33-16.19-4.33-20.42-1.83-2.13,1.26-3.64,3.79-4.62,7.72-.33,1.33-1.52,2.27-2.9,2.27s-2.57-.94-2.9-2.27c-.97-3.94-1.47-7.97-1.47-11.96,0-17.58,6.27-29.61,19.16-36.76,1.44-.8,3.26-.28,4.06,1.16.8,1.44.28,3.25-1.16,4.06-10.98,6.09-16.09,16.12-16.09,31.55l.02,1.39c.85-.91,1.8-1.67,2.86-2.29,6.39-3.78,15.01-1.47,24.99,1.2,7.64,2.04,16.29,4.36,25.32,4.36s17.69-2.31,25.32-4.36c9.98-2.66,18.6-4.97,24.99-1.2,1.05.62,2,1.38,2.86,2.29l.02-1.39c0-15.83-5-25.93-15.74-31.79-1.45-.79-1.98-2.6-1.19-4.05.79-1.45,2.6-1.98,4.05-1.19,12.68,6.92,18.85,19.03,18.85,37.02,0,3.99-.49,8.01-1.47,11.96-.33,1.33-1.52,2.27-2.89,2.27"/>
        <path class="cls-3" d="M299.96,450.8c-1.37,0-2.57-.94-2.9-2.27-.87-3.51-2.2-5.75-4.07-6.86-3.75-2.21-10.52-.4-18.35,1.69-7.28,1.94-15.53,4.15-24.48,4.15s-17.21-2.21-24.48-4.15c-7.83-2.09-14.6-3.9-18.35-1.69-1.87,1.11-3.2,3.35-4.07,6.86-.33,1.33-1.52,2.27-2.9,2.27s-2.56-.94-2.89-2.27c-.89-3.6-1.35-7.28-1.35-10.93,0-16.09,5.75-27.1,17.56-33.66,1.44-.8,3.25-.28,4.05,1.16.8,1.44.28,3.26-1.16,4.06-9.89,5.48-14.49,14.52-14.49,28.44v.61s2.21-1.67,2.21-1.67c5.91-3.49,13.79-1.38,22.92,1.06,6.92,1.85,14.77,3.95,22.95,3.95s16.02-2.1,22.95-3.95c9.13-2.44,17.02-4.55,22.92-1.06l2.2,1.67v-.61c0-14.28-4.5-23.38-14.16-28.65-1.45-.79-1.98-2.6-1.19-4.05.79-1.44,2.6-1.98,4.05-1.19,11.63,6.34,17.27,17.43,17.27,33.89,0,3.65-.45,7.32-1.34,10.93-.33,1.33-1.52,2.27-2.9,2.27"/>
        <path class="cls-3" d="M250.15,500.53c-21.36,0-38.75-27.88-38.75-62.14,0-1.65,1.34-2.98,2.98-2.98s2.98,1.33,2.98,2.98c0,30.97,14.71,56.17,32.78,56.17s32.78-25.2,32.78-56.17c0-1.65,1.33-2.98,2.98-2.98s2.98,1.33,2.98,2.98c0,34.26-17.38,62.14-38.75,62.14"/>
        <path class="cls-3" d="M285.2,509.96c-8.63,0-19.96-3.23-34.17-9.7-1.5-.68-2.16-2.45-1.48-3.95.68-1.5,2.45-2.16,3.95-1.48,21.78,9.93,36.44,11.81,42.41,5.45,10.73-11.44-5.19-48.03-12.23-61.16-.78-1.45-.23-3.26,1.22-4.04,1.45-.78,3.26-.23,4.04,1.22,2.8,5.22,26.88,51.46,11.32,68.05-3.5,3.73-8.5,5.61-15.06,5.61"/>
        <path class="cls-3" d="M216.22,509.96c-6.56,0-11.56-1.87-15.06-5.61-15.55-16.59,8.52-62.84,11.32-68.05.78-1.45,2.59-2,4.04-1.22,1.45.78,2,2.58,1.22,4.04-7.04,13.14-22.95,49.73-12.23,61.16,5.96,6.36,20.63,4.48,42.4-5.45,1.49-.68,3.27-.02,3.95,1.48.68,1.5.02,3.27-1.48,3.95-14.21,6.47-25.54,9.7-34.17,9.7"/>
        <path class="cls-3" d="M497.02,268.68c-1.65,0-2.98-1.33-2.98-2.98,0-103.02-3.81-135.14-20.39-171.86-22.37-49.54-52.32-78.44-89.03-85.9-61.5-12.5-123.39,39.39-131.79,46.75v20.08c0,1.65-1.34,2.98-2.98,2.98s-2.98-1.33-2.98-2.98v-21.42l.96-2.19c2.79-2.58,69.21-63.04,137.98-49.07,38.69,7.86,70.07,37.9,93.27,89.29,17.01,37.67,20.92,70.25,20.92,174.31,0,1.65-1.34,2.98-2.98,2.98"/>
        <path class="cls-3" d="M2.98,268.68C1.34,268.68,0,267.34,0,265.7,0,161.64,3.91,129.05,20.92,91.39,44.12,40,75.51,9.96,114.19,2.09c68.78-13.97,135.19,46.49,137.98,49.07l.96,2.19v21.42c0,1.65-1.34,2.98-2.98,2.98s-2.98-1.33-2.98-2.98v-20.08c-8.41-7.36-70.35-59.24-131.82-46.74C78.67,15.41,48.72,44.31,26.36,93.84,9.78,130.56,5.96,162.68,5.96,265.7c0,1.65-1.34,2.98-2.98,2.98"/>
        <path class="cls-3" d="M221.02,237.81c-3.05,0-6.15-.54-9.14-1.65-8.7-3.24-13.97-10.5-14.12-19.42-.11-6.38,3.75-12.49,9.6-15.21,4.73-2.19,12.71-1.74,17.06,2.44,3.41,3.27,4.34,9.03,2.2,13.69-1.85,4.05-5.53,6.24-9.84,5.82-2.54-.24-5.04-2.2-6.06-4.77-.88-2.19-.53-4.43.96-6.14l3.15-.22c.93.81,1.03,2.22.22,3.16l-.18,1.54c.4.99,1.46,1.9,2.33,1.98,3.22.29,4.74-1.89,5.35-3.23,1.35-2.94.82-6.64-1.23-8.6-2.86-2.74-8.84-3.11-12.09-1.61-4.27,1.98-7.09,6.44-7.02,11.08.11,7.01,4.3,12.73,11.21,15.3,6.62,2.46,15.99,1.95,22.01-4.78,4.59-5.13,6.15-12.5,4.06-19.22-1.98-6.38-6.72-10.92-13.01-12.45-1.2-.29-1.93-1.5-1.64-2.7.29-1.2,1.5-1.94,2.7-1.64,7.74,1.89,13.8,7.67,16.22,15.47,2.55,8.22.63,17.24-5,23.53-4.44,4.96-10.97,7.64-17.77,7.64"/>
        <path class="cls-3" d="M282.13,237.81c-6.8,0-13.33-2.68-17.77-7.64-5.64-6.29-7.55-15.31-5-23.53,2.42-7.8,8.48-13.58,16.22-15.47,1.2-.3,2.41.44,2.7,1.64.29,1.2-.44,2.41-1.64,2.7-6.29,1.54-11.03,6.08-13.01,12.45-2.09,6.73-.53,14.09,4.06,19.22,6.02,6.72,15.39,7.24,22.01,4.78,6.9-2.57,11.09-8.29,11.21-15.3.08-4.64-2.74-9.1-7.02-11.08-3.24-1.51-9.23-1.13-12.08,1.61-2.05,1.96-2.58,5.66-1.23,8.6.62,1.34,2.13,3.53,5.35,3.23.87-.08,1.94-.99,2.33-1.98l-.18-1.54c-.81-.93-.71-2.35.22-3.16l3.15.22c1.49,1.71,1.83,3.95.96,6.14-1.03,2.57-3.52,4.53-6.07,4.77-4.32.41-7.98-1.76-9.84-5.82-2.13-4.66-1.21-10.42,2.2-13.69,4.35-4.17,12.34-4.63,17.06-2.44,5.85,2.72,9.71,8.83,9.61,15.21-.14,8.92-5.42,16.18-14.12,19.42-2.99,1.12-6.1,1.65-9.14,1.65"/>
        <path class="cls-3" d="M196.21,167.67l-.4-.03c-1.63-.22-2.78-1.72-2.56-3.35.15-1.17,3.96-28.82,15.64-42.05,2.89-3.27,7.01-6.19,11.79-9.57,7.13-5.04,15.99-11.32,23.4-21,1-1.31,2.87-1.55,4.18-.55,1.31,1,1.56,2.87.56,4.18-7.96,10.39-17.23,16.96-24.69,22.24-4.47,3.17-8.34,5.9-10.77,8.65-10.49,11.88-14.16,38.62-14.2,38.89-.2,1.5-1.48,2.59-2.95,2.59"/>
        <path class="cls-3" d="M305.42,167.67c-1.47,0-2.75-1.09-2.95-2.59-.04-.27-3.72-27.03-14.2-38.89-2.43-2.75-6.29-5.49-10.77-8.65-7.45-5.27-16.72-11.84-24.68-22.24-1-1.31-.75-3.18.55-4.18,1.31-1,3.18-.75,4.18.55,7.41,9.68,16.27,15.95,23.4,21,4.78,3.38,8.9,6.3,11.79,9.57,11.68,13.23,15.48,40.88,15.64,42.05.22,1.63-.93,3.13-2.56,3.35l-.4.03Z"/>
        <path class="cls-3" d="M395.99,156.24c-1.78,0-3.48-.11-4.95-.34-1.22-.2-2.05-1.34-1.86-2.56.2-1.22,1.34-2.05,2.56-1.86,5.13.81,13.68-.2,17.61-1.61,8.1-2.91,15.53-8.46,21.47-16.04.76-.97,2.17-1.14,3.14-.38.97.76,1.15,2.17.38,3.14-6.46,8.25-14.58,14.3-23.48,17.5-3.39,1.22-9.53,2.15-14.87,2.15"/>
        <path class="cls-3" d="M400.6,148.47c-1.18,0-2.3-.07-3.29-.23-1.22-.2-2.05-1.34-1.86-2.56.19-1.22,1.34-2.06,2.56-1.86,3.08.48,8.38-.14,10.72-.98,4.98-1.79,9.54-5.2,13.2-9.87.76-.97,2.17-1.14,3.14-.38.97.76,1.14,2.17.38,3.14-4.18,5.34-9.44,9.25-15.21,11.33-2.21.79-6.15,1.41-9.64,1.41"/>
        <path class="cls-3" d="M106.82,156.24c-5.34,0-11.49-.94-14.87-2.15-8.9-3.2-17.01-9.25-23.48-17.5-.76-.97-.59-2.38.38-3.14.97-.76,2.38-.59,3.14.38,5.94,7.59,13.37,13.14,21.47,16.04,3.93,1.41,12.47,2.42,17.61,1.61,1.22-.19,2.36.64,2.56,1.86.2,1.22-.64,2.36-1.86,2.56-1.47.23-3.16.34-4.95.34"/>
        <path class="cls-3" d="M102.21,148.47c-3.49,0-7.43-.62-9.64-1.41-5.77-2.07-11.03-5.99-15.21-11.33-.76-.97-.59-2.38.38-3.14.97-.76,2.38-.59,3.14.38,3.66,4.67,8.22,8.09,13.2,9.87,2.34.84,7.64,1.46,10.72.98,1.22-.2,2.37.64,2.56,1.86.2,1.22-.64,2.36-1.86,2.56-.99.16-2.12.23-3.29.23"/>
        <path class="cls-3" d="M392.15,223.82c-6.65,0-12.64-.95-15.8-1.73-16.1-3.97-32.12-11.8-48.99-23.96-1-.72-1.23-2.12-.51-3.12.72-1,2.12-1.23,3.12-.51,16.39,11.82,31.91,19.42,47.44,23.25,5.52,1.36,17.08,2.58,26.28.37,1.2-.29,2.41.45,2.7,1.65.29,1.2-.45,2.41-1.65,2.7-4.11.99-8.48,1.35-12.59,1.35"/>
        <path class="cls-3" d="M389,215.21c-4.73,0-8.99-.67-11.23-1.23-11.36-2.8-22.66-8.32-34.54-16.89-1-.72-1.23-2.12-.51-3.12.72-1.01,2.12-1.23,3.12-.51,11.41,8.22,22.2,13.52,33,16.18,3.81.94,11.77,1.78,18.09.26,1.2-.29,2.41.45,2.7,1.65s-.45,2.41-1.65,2.7c-2.93.71-6.04.96-8.97.96"/>
        <path class="cls-3" d="M108.7,223.82c-4.11,0-8.48-.36-12.59-1.35-1.2-.29-1.94-1.5-1.65-2.7.29-1.2,1.5-1.94,2.7-1.65,9.2,2.21,20.76.99,26.28-.37,15.53-3.83,31.05-11.43,47.44-23.25,1.01-.72,2.4-.5,3.12.51.72,1,.5,2.4-.5,3.12-16.86,12.16-32.89,19.99-48.99,23.96-3.16.78-9.15,1.73-15.8,1.73"/>
        <path class="cls-3" d="M111.85,215.21c-2.93,0-6.04-.26-8.97-.96-1.2-.29-1.94-1.49-1.65-2.7.29-1.2,1.5-1.94,2.7-1.65,6.32,1.52,14.28.68,18.09-.26,10.79-2.66,21.59-7.95,33-16.18,1-.72,2.4-.5,3.12.51.72,1,.49,2.4-.51,3.12-11.88,8.57-23.18,14.09-34.54,16.89-2.25.55-6.51,1.23-11.24,1.23"/>
        <path class="cls-3" d="M110.08,170.51c-1.29-.91-3.07-.61-3.99.67-.92,1.29-.61,3.07.67,3.99,1.29.92,3.07.62,3.99-.67.92-1.29.61-3.07-.67-3.99"/>
        <path class="cls-3" d="M101.94,171.63c-1.01-.72-2.41-.48-3.13.53-.72,1.01-.48,2.41.53,3.13,1.01.72,2.41.48,3.13-.53.72-1.01.48-2.41-.53-3.13"/>
        <rect class="cls-3" x="92.61" y="171.86" width="2.28" height="2.28" transform="translate(-27.47 18.01) rotate(-9.58)"/>
        <rect class="cls-3" x="87.62" y="170.98" width="1.67" height="1.68" transform="translate(-27.28 17.06) rotate(-9.55)"/>
        <rect class="cls-3" x="82.79" y="168.44" width="1.31" height="1.31" transform="translate(-26.85 16.15) rotate(-9.53)"/>
        <polygon class="cls-3" points="79.38 165.19 78.36 165.36 78.53 166.38 79.55 166.21 79.38 165.19"/>
        <path class="cls-3" d="M391.7,170.51c1.29-.91,3.07-.61,3.99.67.92,1.29.62,3.07-.67,3.99-1.29.92-3.07.62-3.99-.67-.92-1.29-.61-3.07.67-3.99"/>
        <path class="cls-3" d="M399.83,171.63c1.01-.72,2.41-.48,3.13.53.72,1.01.48,2.41-.53,3.13-1.01.72-2.41.48-3.13-.53-.72-1.01-.48-2.41.53-3.13"/>
        <rect class="cls-3" x="406.88" y="171.86" width="2.28" height="2.28" transform="translate(169.5 546.53) rotate(-80.42)"/>
        <rect class="cls-3" x="412.48" y="170.98" width="1.68" height="1.67" transform="translate(175.31 550.91) rotate(-80.45)"/>
        <rect class="cls-3" x="417.68" y="168.44" width="1.31" height="1.31" transform="translate(182.2 553.6) rotate(-80.45)"/>
        <rect class="cls-3" x="422.31" y="165.27" width="1.03" height="1.03" transform="translate(188.94 555.09) rotate(-80.41)"/>
        <path class="cls-3" d="M81.82,211.18c-1.03,0-1.96-.72-2.19-1.76-4.32-19.86-2.25-33.98-2.16-34.57.19-1.22,1.32-2.07,2.54-1.87,1.22.18,2.06,1.32,1.88,2.54-.02.14-2.02,13.95,2.11,32.95.26,1.21-.5,2.4-1.71,2.66l-.48.05Z"/>
        <path class="cls-3" d="M417.93,211.18l-.48-.05c-1.21-.26-1.97-1.45-1.71-2.66,4.13-19,2.13-32.81,2.11-32.95-.18-1.22.66-2.36,1.88-2.54,1.22-.19,2.36.65,2.54,1.87.09.59,2.15,14.71-2.17,34.57-.23,1.05-1.15,1.76-2.18,1.76"/>
        <path class="cls-3" d="M250.47,370.08c-17.32,0-26.87-8.5-27.43-9.01l-.09-2.11,2.11-.09c.76.7,18.51,16.29,50.3,2.65l1.96.78-.78,1.96c-10.01,4.3-18.74,5.82-26.06,5.82"/>
        <path class="cls-3" d="M249.04,362.32c-7.99,0-13.49-2.55-13.85-2.73l-.7-1.98,1.99-.71c.13.06,13.41,6.18,28.42-1.4l2.01.66-.66,2c-6.28,3.17-12.22,4.16-17.2,4.16"/>
        <path class="cls-3" d="M248.16,355.63c-5.66,0-9.55-1.81-9.81-1.93l-.7-1.99,1.99-.71c.11.05,9.12,4.18,19.3-.97l2,.66-.66,2.01c-4.42,2.23-8.61,2.93-12.12,2.93"/>
        <path class="cls-3" d="M249.53,406.51c-7.33,0-16.05-1.53-26.06-5.82l-.78-1.96,1.96-.78c31.92,13.7,50.12-2.48,50.3-2.65l2.11.09-.09,2.11c-.56.51-10.11,9.01-27.43,9.01"/>
        <path class="cls-3" d="M250.96,398.75c-4.97,0-10.92-.99-17.2-4.16l-.66-2,2-.66c15.02,7.58,28.29,1.46,28.43,1.4l1.99.71-.7,1.98c-.36.18-5.86,2.73-13.85,2.73"/>
        <path class="cls-3" d="M251.84,392.06c-3.51,0-7.7-.7-12.12-2.93l-.66-2,2-.66c10.19,5.14,19.22,1.01,19.31.97l1.98.71-.7,1.98c-.26.13-4.15,1.93-9.81,1.93"/>
        <path class="cls-3" d="M249.53,330.68c-7.33,0-16.05-1.52-26.07-5.82l-.78-1.96,1.96-.78c31.92,13.7,50.12-2.48,50.3-2.65l2.11.09-.09,2.11c-.56.51-10.12,9.01-27.43,9.01"/>
        <path class="cls-3" d="M250.95,322.92c-4.98,0-10.92-.99-17.2-4.16l-.66-2,2-.66c15.08,7.61,28.29,1.46,28.43,1.4l1.99.7-.7,1.99c-.36.17-5.86,2.73-13.86,2.73"/>
        <path class="cls-3" d="M251.84,316.23c-3.51,0-7.7-.7-12.12-2.93l-.66-2,2-.66c10.19,5.14,19.22,1.01,19.31.97l1.98.71-.7,1.99c-.26.12-4.15,1.93-9.81,1.93"/>
        <path class="cls-3" d="M250.47,439.25c-17.31,0-26.87-8.5-27.43-9.01l-.09-2.11,2.1-.09c.74.67,18.48,16.3,50.3,2.65l1.96.78-.78,1.96c-10.01,4.3-18.74,5.82-26.07,5.82"/>
        <path class="cls-3" d="M249.05,431.5c-8,0-13.49-2.56-13.86-2.73l-.7-1.99,1.98-.71c.13.07,13.41,6.19,28.43-1.4l2.01.66-.66,2.01c-6.28,3.17-12.22,4.16-17.2,4.16"/>
        <path class="cls-3" d="M248.16,424.8c-5.66,0-9.55-1.81-9.81-1.93l-.7-1.99,1.99-.71c.11.05,9.12,4.18,19.3-.97l2,.66-.66,2c-4.42,2.23-8.61,2.93-12.12,2.93"/>
        <path class="cls-3" d="M193.83,320.99c1.59-.64,2.36-2.45,1.72-4.04-.64-1.59-2.45-2.36-4.04-1.72-1.59.64-2.36,2.44-1.72,4.03.64,1.59,2.45,2.36,4.04,1.73"/>
        <path class="cls-3" d="M196.45,311.72c1.25-.5,1.85-1.92,1.35-3.17-.5-1.25-1.92-1.85-3.16-1.35-1.25.5-1.85,1.92-1.35,3.16.5,1.25,1.92,1.85,3.16,1.35"/>
        <rect class="cls-3" x="197.55" y="301.75" width="2.47" height="2.47" transform="translate(-157.98 366.46) rotate(-66.82)"/>
        <rect class="cls-3" x="201.91" y="297.29" width="1.82" height="1.82" transform="translate(-151.13 367.31) rotate(-66.83)"/>
        <rect class="cls-3" x="206.14" y="293.47" width="1.42" height="1.42" transform="translate(-145 368.55) rotate(-66.82)"/>
        <rect class="cls-3" x="210.81" y="290.78" width="1.12" height="1.12" transform="translate(-139.57 371.34) rotate(-66.88)"/>
        <path class="cls-3" d="M305.95,320.99c-1.59-.64-2.36-2.45-1.73-4.04.64-1.59,2.45-2.36,4.04-1.72,1.59.64,2.36,2.44,1.73,4.03-.64,1.59-2.45,2.36-4.04,1.73"/>
        <path class="cls-3" d="M303.33,311.72c-1.25-.5-1.85-1.92-1.35-3.17.5-1.25,1.92-1.85,3.16-1.35,1.25.5,1.85,1.92,1.35,3.16-.5,1.25-1.92,1.85-3.16,1.35"/>
        <rect class="cls-3" x="299.75" y="301.75" width="2.47" height="2.48" transform="translate(-94.97 142.94) rotate(-23.18)"/>
        <rect class="cls-3" x="296.05" y="297.29" width="1.82" height="1.82" transform="translate(-93.24 140.54) rotate(-23.12)"/>
        <rect class="cls-3" x="292.22" y="293.47" width="1.42" height="1.42" transform="translate(-91.95 138.55) rotate(-23.11)"/>
        <rect class="cls-3" x="287.85" y="290.78" width="1.12" height="1.12" transform="translate(-91.73 137.87) rotate(-23.3)"/>
        <path class="cls-3" d="M196.75,363.51c1.21-.65,1.67-2.17,1.02-3.38-.65-1.21-2.17-1.67-3.38-1.02s-1.67,2.17-1.02,3.38c.66,1.21,2.17,1.67,3.38,1.02"/>
        <path class="cls-3" d="M198.02,355.86c.95-.51,1.31-1.7.8-2.65-.51-.95-1.7-1.31-2.65-.8-.95.51-1.31,1.7-.8,2.65.51.95,1.7,1.31,2.65.8"/>
        <rect class="cls-3" x="198.11" y="347.67" width="1.99" height="1.99" transform="translate(-192.08 439.15) rotate(-73.3)"/>
        <polygon class="cls-3" points="202.39 345.39 202.81 343.99 201.41 343.57 200.99 344.97 202.39 345.39"/>
        <polygon class="cls-3" points="205.14 341.62 205.47 340.52 204.38 340.19 204.05 341.29 205.14 341.62"/>
        <rect class="cls-3" x="207.67" y="337.77" width=".9" height=".9" transform="translate(-175.8 439.82) rotate(-73.22)"/>
        <rect class="cls-3" x="201.04" y="395.53" width="2.54" height="2.54" transform="translate(-235.96 476.2) rotate(-73.25)"/>
        <rect class="cls-3" x="202.4" y="390.65" width="1.99" height="1.99" transform="translate(-230.24 473.6) rotate(-73.26)"/>
        <rect class="cls-3" x="204.13" y="387" width="1.43" height="1.43" transform="translate(-225.46 472.12) rotate(-73.25)"/>
        <rect class="cls-3" x="206.33" y="384.18" width="1.05" height="1.05" transform="translate(-221.14 471.91) rotate(-73.25)"/>
        <rect class="cls-3" x="208.5" y="381.73" width=".82" height=".82" transform="translate(-216.95 473.3) rotate(-73.42)"/>
        <polygon class="cls-3" points="211.54 380.61 211.73 379.99 211.11 379.81 210.92 380.43 211.54 380.61"/>
        <rect class="cls-3" x="205.76" y="428.28" width="2.54" height="2.54" transform="translate(-263.92 504.27) rotate(-73.28)"/>
        <rect class="cls-3" x="207.12" y="423.39" width="1.99" height="1.99" transform="translate(-258.21 501.56) rotate(-73.27)"/>
        <rect class="cls-3" x="208.85" y="419.74" width="1.43" height="1.43" transform="translate(-253.48 499.76) rotate(-73.23)"/>
        <rect class="cls-3" x="211.05" y="416.92" width="1.05" height="1.05" transform="translate(-249.13 499.74) rotate(-73.25)"/>
        <rect class="cls-3" x="213.22" y="414.47" width=".82" height=".82" transform="translate(-245.35 499.14) rotate(-73.16)"/>
        <rect class="cls-3" x="215.72" y="412.63" width=".65" height=".65" transform="translate(-241.8 500.03) rotate(-73.15)"/>
        <rect class="cls-3" x="291.73" y="429.34" width="2.54" height="2.54" transform="translate(-111.71 102.77) rotate(-16.76)"/>
        <rect class="cls-3" x="290.91" y="424.45" width="1.99" height="1.99" transform="translate(-110.09 102.01) rotate(-16.73)"/>
        <rect class="cls-3" x="289.74" y="420.8" width="1.43" height="1.43" transform="translate(-109.42 101.92) rotate(-16.8)"/>
        <rect class="cls-3" x="287.92" y="417.98" width="1.05" height="1.05" transform="translate(-108.55 101.1) rotate(-16.78)"/>
        <rect class="cls-3" x="285.98" y="415.53" width=".82" height=".82" transform="translate(-107 99.29) rotate(-16.62)"/>
        <rect class="cls-3" x="283.65" y="413.69" width=".65" height=".65" transform="translate(-107.53 99.73) rotate(-16.8)"/>
        <rect class="cls-3" x="296.45" y="395.53" width="2.54" height="2.54" transform="translate(-101.7 102.61) rotate(-16.75)"/>
        <rect class="cls-3" x="295.63" y="390.65" width="1.99" height="1.99" transform="translate(-99.98 101.68) rotate(-16.69)"/>
        <rect class="cls-3" x="294.46" y="387" width="1.43" height="1.43" transform="translate(-99.22 101.53) rotate(-16.75)"/>
        <rect class="cls-3" x="292.64" y="384.18" width="1.05" height="1.05" transform="translate(-98.43 100.81) rotate(-16.75)"/>
        <rect class="cls-3" x="290.7" y="381.73" width=".82" height=".82" transform="translate(-98.23 100.73) rotate(-16.84)"/>
        <polygon class="cls-3" points="288.48 380.61 288.29 379.99 288.91 379.81 289.1 380.43 288.48 380.61"/>
        <path class="cls-3" d="M303.4,363.51c-1.21-.65-1.67-2.17-1.02-3.38.65-1.21,2.17-1.67,3.38-1.02,1.21.65,1.67,2.17,1.02,3.38-.65,1.21-2.17,1.67-3.38,1.02"/>
        <path class="cls-3" d="M302.14,355.86c-.95-.51-1.31-1.7-.8-2.65.51-.95,1.7-1.31,2.65-.8.95.51,1.31,1.7.8,2.65-.51.95-1.7,1.31-2.65.8"/>
        <rect class="cls-3" x="300.05" y="347.67" width="1.99" height="1.99" transform="translate(-87.75 101.61) rotate(-16.76)"/>
        <rect class="cls-3" x="297.52" y="343.75" width="1.46" height="1.46" transform="translate(-86.47 100.33) rotate(-16.71)"/>
        <rect class="cls-3" x="294.82" y="340.33" width="1.14" height="1.14" transform="translate(-85.5 99.26) rotate(-16.7)"/>
        <rect class="cls-3" x="291.59" y="337.78" width=".9" height=".9" transform="translate(-84.72 97.95) rotate(-16.66)"/>
        <path class="cls-3" d="M250.04,490.73c-2.86,0-5.57-.57-8.12-1.72-10.13-4.55-13.95-16.44-14.11-16.95l.78-1.49,1.49.78c.04.11,3.68,11.39,12.83,15.49,5.11,2.29,11.03,1.95,17.6-1.01l1.57.6-.6,1.58c-4.03,1.81-7.86,2.72-11.46,2.72"/>
        <path class="cls-3" d="M248.46,484.9c-1.84,0-3.58-.37-5.22-1.11-6.48-2.91-8.91-10.48-9.01-10.8l.78-1.49,1.5.78c.02.07,2.23,6.89,7.72,9.35,3.04,1.36,6.6,1.15,10.55-.63l1.58.6-.6,1.57c-2.56,1.15-5,1.73-7.3,1.73"/>
        <path class="cls-3" d="M248.24,479.11c-1.25,0-2.45-.26-3.58-.76-4.39-1.97-6.03-7.08-6.1-7.29l.78-1.49,1.5.78s1.4,4.31,4.81,5.84c1.87.83,4.07.7,6.53-.41l1.57.6-.59,1.58c-1.73.78-3.37,1.17-4.93,1.17"/>
        <path class="cls-3" d="M291,499.71c-.27-1.04.36-2.1,1.4-2.36,1.04-.27,2.1.36,2.36,1.4.27,1.04-.36,2.09-1.39,2.36-1.04.26-2.1-.36-2.36-1.4"/>
        <rect class="cls-3" x="294.73" y="493.81" width="2.15" height="2.15" transform="translate(-280.74 497.61) rotate(-59.4)"/>
        <rect class="cls-3" x="286.55" y="499.95" width="2.15" height="2.15" transform="translate(-290.04 492.86) rotate(-59.33)"/>
        <rect class="cls-3" x="296.13" y="490.12" width="1.55" height="1.55" transform="translate(-276.77 496.03) rotate(-59.35)"/>
        <rect class="cls-3" x="282.32" y="500.4" width="1.55" height="1.55" transform="translate(-292.38 489.19) rotate(-59.35)"/>
        <rect class="cls-3" x="296.75" y="486.84" width="1.14" height="1.14" transform="translate(-273.57 494.95) rotate(-59.37)"/>
        <rect class="cls-3" x="278.4" y="500.46" width="1.14" height="1.14" transform="translate(-294.29 485.85) rotate(-59.37)"/>
        <rect class="cls-3" x="296.7" y="483.83" width=".89" height=".89" transform="translate(-270.96 493.14) rotate(-59.36)"/>
        <rect class="cls-3" x="275.36" y="500.29" width=".89" height=".89" transform="translate(-295.62 484.13) rotate(-59.49)"/>
        <polygon class="cls-3" points="272.1 500.26 272.55 499.5 273.32 499.95 272.87 500.71 272.1 500.26"/>
        <rect class="cls-3" x="296.47" y="481.12" width=".7" height=".7" transform="translate(-268.73 490.16) rotate(-59.23)"/>
        <path class="cls-3" d="M210.81,499.71c.27-1.04-.36-2.1-1.4-2.36-1.04-.27-2.1.36-2.36,1.4-.27,1.04.36,2.09,1.4,2.36,1.04.26,2.09-.36,2.36-1.4"/>
        <rect class="cls-3" x="204.93" y="493.81" width="2.15" height="2.15" transform="translate(-223.47 174.1) rotate(-30.64)"/>
        <rect class="cls-3" x="213.11" y="499.95" width="2.15" height="2.15" transform="translate(-225.6 179.33) rotate(-30.67)"/>
        <rect class="cls-3" x="204.14" y="490.12" width="1.55" height="1.55" transform="translate(-221.64 173.06) rotate(-30.65)"/>
        <rect class="cls-3" x="217.95" y="500.4" width="1.55" height="1.55" transform="translate(-224.6 181.06) rotate(-30.59)"/>
        <rect class="cls-3" x="203.93" y="486.84" width="1.14" height="1.14" transform="translate(-219.77 172.16) rotate(-30.63)"/>
        <rect class="cls-3" x="222.28" y="500.46" width="1.14" height="1.14" transform="translate(-224.15 183.41) rotate(-30.63)"/>
        <polygon class="cls-3" points="205.28 484.43 204.83 483.67 204.06 484.12 204.51 484.88 205.28 484.43"/>
        <polygon class="cls-3" points="226.62 500.89 226.17 500.13 225.4 500.58 225.85 501.34 226.62 500.89"/>
        <polygon class="cls-3" points="229.72 500.26 229.26 499.5 228.5 499.95 228.95 500.71 229.72 500.26"/>
        <rect class="cls-3" x="204.65" y="481.12" width=".7" height=".7" transform="translate(-215.99 170.65) rotate(-30.5)"/>
        <path class="cls-3" d="M248.18,129.71c0-1.64,1.33-2.97,2.97-2.97s2.97,1.33,2.97,2.97-1.33,2.97-2.97,2.97-2.97-1.33-2.97-2.97"/>
        <path class="cls-3" d="M248.87,121.87c0-1.26,1.02-2.27,2.28-2.27s2.27,1.02,2.27,2.27-1.02,2.27-2.27,2.27-2.28-1.02-2.28-2.27"/>
        <path class="cls-3" d="M249.29,115.05c0-1.03.83-1.86,1.86-1.86s1.86.83,1.86,1.86-.83,1.86-1.86,1.86-1.86-.83-1.86-1.86"/>
        <rect class="cls-3" x="250.23" y="108.29" width="1.84" height="1.84" transform="translate(-3.66 209.58) rotate(-45)"/>
        <path class="cls-3" d="M251.26,191.71c-1.23,0-2.23-1-2.23-2.24v-48.64c0-1.23,1-2.24,2.23-2.24s2.24,1,2.24,2.24v48.64c0,1.24-1,2.24-2.24,2.24"/>
        <path class="cls-3" d="M242.54,183.22c-1.24,0-2.24-1-2.24-2.24v-31.67c0-1.23,1-2.24,2.24-2.24s2.24,1,2.24,2.24v31.67c0,1.24-1,2.24-2.24,2.24"/>
        <path class="cls-3" d="M260.91,183.22c-1.24,0-2.24-1-2.24-2.24v-31.67c0-1.23,1-2.24,2.24-2.24s2.24,1,2.24,2.24v31.67c0,1.24-1,2.24-2.24,2.24"/>
        <path class="cls-3" d="M289.93,274.52l-1.01-.24c-36.52-18.63-77.99-1.79-78.41-1.62-1.14.48-2.45-.07-2.92-1.21-.48-1.14.07-2.45,1.21-2.92,1.77-.74,43.81-17.8,82.16,1.76,1.1.56,1.54,1.91.98,3.01l-2,1.22Z"/>
        <path class="cls-3" d="M285.47,262.31l-1.01-.24c-32.12-16.39-68.6-1.57-68.97-1.42-1.14.48-2.45-.07-2.92-1.21-.48-1.14.07-2.45,1.21-2.92,1.57-.65,38.77-15.75,72.71,1.56,1.1.56,1.54,1.91.97,3.01l-1.99,1.22Z"/>
        <path class="cls-3" d="M385.76,109.58c0-1.64,1.33-2.97,2.97-2.97s2.97,1.33,2.97,2.97-1.33,2.97-2.97,2.97-2.97-1.33-2.97-2.97"/>
        <path class="cls-3" d="M386.45,101.75c0-1.26,1.02-2.27,2.27-2.27s2.28,1.02,2.28,2.27-1.02,2.27-2.28,2.27-2.27-1.02-2.27-2.27"/>
        <path class="cls-3" d="M386.87,94.93c0-1.03.83-1.86,1.86-1.86s1.86.83,1.86,1.86-.83,1.86-1.86,1.86-1.86-.83-1.86-1.86"/>
        <rect class="cls-3" x="387.81" y="88.17" width="1.84" height="1.84" transform="translate(51.02 301.22) rotate(-45.04)"/>
        <path class="cls-3" d="M108.45,109.58c0-1.64,1.33-2.97,2.97-2.97s2.97,1.33,2.97,2.97-1.33,2.97-2.97,2.97-2.97-1.33-2.97-2.97"/>
        <path class="cls-3" d="M109.14,101.75c0-1.26,1.02-2.27,2.28-2.27s2.27,1.02,2.27,2.27-1.02,2.27-2.27,2.27-2.28-1.02-2.28-2.27"/>
        <path class="cls-3" d="M109.56,94.93c0-1.03.83-1.86,1.86-1.86s1.86.83,1.86,1.86-.83,1.86-1.86,1.86-1.86-.83-1.86-1.86"/>
        <rect class="cls-3" x="110.49" y="88.17" width="1.84" height="1.84" transform="translate(-30.35 104.98) rotate(-45.04)"/>
      </g>
    </g>
  </g>
</svg>