<?xml version="1.0" encoding="UTF-8"?>
<svg id="Layer_1" xmlns="http://www.w3.org/2000/svg" version="1.1" viewBox="0 0 277.24 315.66">
  <!-- Generator: Adobe Illustrator 30.5.1, SVG Export Plug-In . SVG Version: 2.1.4 Build 3)  -->
  <defs>
    <style>
      .st0 {
        fill: #2d2e2d;
      }
    </style>
  </defs>
  <path class="st0" d="M15.86,239.94c-.53,2.18-.99,3.01,1.28,3.7,2.08.63,4.29.94,6.44,1.26,2.36.36,4.75.7,7.12.79.55.02,1.09,0,1.63,0,0-.02,0-.05.02-.08,0-.41.26-1,.37-1.4.78-3.19,1.45-6.41,2.08-9.63-4.77-.33-11.3-.78-16.17-3.23-1.07,2.82-2.06,5.68-2.77,8.6Z"/>
  <path class="st0" d="M46.3,43.7c-3.6-3.61-9.26-5.79-14.05-3.28-3.87,2.03-6.58,6.34-7.6,10.49-2.78,11.46,6.57,19.8,15.73,24.83-.6-7.53,0-15.15,2.07-22.41.99-3.47,2.29-6.68,3.85-9.64h0Z"/>
  <path class="st0" d="M30.07,83.96c3.42,6.67-.17,14.3-2.78,20.65-1.08,2.61-3.85,7.25-1.94,10.01,2.72,3.92,12.38,2.14,16.19,1.74,1.88-1.31,3.76-2.63,5.59-4.01,2.16-1.62,5.04-3.5,6.47-5.96-7.93-4.72-10.91-15.3-12.39-23.93-.15-.87-.28-1.75-.39-2.62-12.24-6.11-23.56-17.65-17.27-32.17,4.44-10.26,15.78-15.27,24.47-6.94,1.63-2.63,3.49-5.05,5.55-7.24-5.92-3.6-13.72-5.46-20.44-3.8-13.38,3.3-22.12,20.97-17.32,33.73,3.05,8.07,10.42,13.05,14.27,20.55h-.01Z"/>
  <path class="st0" d="M51.17,245.12c.78-.97.91-3.38,1.14-4.59.3-1.6.54-3.19.75-4.8-5.09-1.23-10.87-.83-15.96-1.02-.51,3.05-.92,6.44-1.85,9.42,4.41.64,8.86,1.28,13.31,1.57,1.25.09,1.87.33,2.62-.59h-.01Z"/>
  <path class="st0" d="M80.66,257.91c-5.42-.46-10.81-1.13-16.18-1.97-3.25-.52-25.11-6.69-25.5-1.72.49.17.95.32,1.4.44,12.05,3.1,27.1,5.76,40.28,3.25Z"/>
  <path class="st0" d="M42.67,268.27c14.23.63,29.19-.28,43.07-3.6,9.68-2.32,18.27-9.23,21.11-18.87-.75.62-1.43,1.09-1.76,1.33-.83.56-1.69,1.08-2.57,1.54-3.71,4.18-7.98,7.15-12.6,9.17h-.01c-.49.22-1,.42-1.5.63-9.94,3.85-21.36,3.68-32.45,2.29-6.26-.79-12.73-1.69-18.84-3.52-.1,0-.2-.02-.28-.09-1.1-.32-2.18-.69-3.25-1.09-3.28-1.22-6.19-3.3-9.55-4.29-3.7-1.09-9.93-1.33-9.1,5.7.15,1.4,1.25,3.08,2.21,4.14,1.51,1.64,3.72,2.67,5.76,3.46,6.19,2.38,13.19,2.92,19.77,3.19h-.01Z"/>
  <path class="st0" d="M96.81,247.94c1.84-.45,3.65-1.07,5.34-1.91.06-.03.1-.06.15-.08.14-.07.28-.15.41-.22,1.26-.67,2.42-1.97,3.64-2.76-.01,0-.03,0-.05,0-.74.26-1.76.26-2.53.37-2.39.34-4.79.68-7.21.8-6.56.34-13.4-.66-18.86-4.56-3-2.15-5.14-5.13-7.68-7.76-3.26-3.42-6.92-6.48-10.8-9.19-6.98-4.88-14.86-8.91-23.18-10.93-5.72-1.39-14.17-2.62-18.67,2.24-5.85,7.26-.99,13.49,6.91,15.78,8.69,2.51,17.89,1.61,26.8,2.46,1.36.14,2.64.36,3.87.69.13,0,.25.02.34.1,3.17.88,5.95,2.48,8.46,5.06,6.11,6.24,11.64,9.92,20.66,10.77,4.13.39,8.35.15,12.38-.87h.02Z"/>
  <path class="st0" d="M117.81,102.68c-4.01,1.88-8.55,3.88-13.17,5.17-1.52,5.29-2.53,11.24-2.67,17.2,12.45,1.32,43.36,4.49,45.01-14.31.55-6.21-1.95-13.01-5.29-18.24-8.39,2.14-16.09,6.52-23.89,10.17h0Z"/>
  <path class="st0" d="M144.08,276.47c-10.96,3.32-24.06,2.8-24.44-10.04-.25-8.15,11.17-28.12,21.15-18.57,3.5,3.36,2.16,9.88-1.41,12.7-5.92,4.67-12.15.39-14.01-5.57-.1.16-.22.31-.32.47-2.51,3.96-4.21,9.61-1.87,14.04,2.6,4.9,8.93,5.8,13.93,5.62,14.66-.53,32.25-14.12,23.98-30.03-10.5-20.19-35.6-13.93-50.91-3.29-.07.26-.18.52-.33.78-2.02,11.64-11.42,21.41-22.58,24.64-15.59,4.48-33.76,5.18-49.83,3.93-3.24-.25-8.62-.9-13.62-2.42-7.64,13.96-7.75,33.1,6.53,42.86,7.24,4.98,15.56,3.54,23.44,1.15,8.31-2.53,16.36-5.54,25.04-6.54,6.69-.77,13.46-.88,20.13-.05,4.62.59,9.18,1.62,13.56,3.23,3.38,1.24,6.41,3.22,9.78,4.46,9.17,3.36,21.83,1.99,29.9-3.53.53-.37,1.01-.75,1.46-1.13.13-.14.26-.25.4-.34,10.71-9.66-2.07-24.73-9.98-32.37h0ZM145.08,296.62c-1.67,5.44-8.14,8.18-13.57,7.47h-.02c-.65-.09-1.29-.22-1.9-.4-6.61-2.03-4.92-10.87,1.76-10.86,4.57.01,5.83,4.82,4.28,8.16,3.32-.36,7.19-2.06,7.37-5.79.34-7.33-9.45-10.02-14.91-9.83-13.22.47-25.26,7.57-38.21,9.53-12.94,1.95-22.23-5.86-33.74-9.92-5.61-1.98-18.97-2.32-16.4,7.13.14.54.34,1.07.61,1.57,2.61-3.63,7.95-5.56,10.15.1.94,2.45-.41,5.49-2.72,6.67-2.99,1.52-6.64-.32-8.58-2.74-.08-.05-.15-.13-.2-.24-3.57-4.75-2.08-11.64,2.83-14.81,8-5.18,17.56-.22,24.97,3.47,5.56,2.78,11.25,5.49,17.55,5.95,5.7.43,11.33-1.23,16.74-2.84,9.92-2.96,20.77-7.93,31.35-6.92,6.71.64,15.01,6.57,12.65,14.3h0Z"/>
  <path class="st0" d="M156.32,132.02c-8.86,6.68-22.42,8.07-33.07,9.23-6.19.68-12.43,1.13-18.66,1.22,1.59,4.3,3.96,8.21,7.34,11.42,11.53,10.96,32.71,10.92,47.34,7.49,10.06-2.37,18.4-8.1,22.49-17.78,3.09-7.32,3.72-15.33,4.8-23.12.62-4.5,1.3-9.61,4.05-13.38-6.21-3.4-12.14-7.58-18.51-10.4-3.3-1.45-6.79-2.74-10.35-3.67,3.79,12.55,5.85,30.48-5.41,38.98h-.02Z"/>
  <path class="st0" d="M90.23,108.7c-1.55,9.43-1.93,19.27-1.03,28.75.68,7.09,2.17,14.49,5.88,20.67,4.25,7.09,10.8,9.97,18.56,12.04,18.89,5.04,40.7,4.87,59.52-.53,7.98-2.29,14.23-5.98,17.57-13.91,2.77-6.54,3.54-13.77,4.79-20.7,1.59-8.64,4.13-17.57,10.91-22.32-5-.56-9.58-2.36-14-4.64-4.79,5.17-3.95,16.79-5.07,23.17-1.47,8.46-4.23,16.9-10.26,23.23-8.17,8.6-20.27,11.23-31.72,11.58-16.12.53-34.17-2.18-41.76-18.31-.84-1.77-1.52-3.62-2.08-5.52-.06-.1-.09-.23-.1-.37-3.06-10.65-2.08-22.88.82-33.41-4.1.92-8.22,1.2-12.02.24v.03Z"/>
  <path class="st0" d="M110.35,34.18c7.19,7.68,20.66,7.14,30.29,7.01,7.37-.09,14.72-.59,22.08-1.06,7.55-.49,15.35-.49,22.78-1.99,9.15-1.83,19.51-6.42,23.03-15.8,1.91-5.08,1.49-12.81-3.44-16.1-4.46-2.96-11.37-3.45-16.5-4.15-8.39-1.15-16.86-1.65-25.31-1.88-16.84-.46-34.72-.51-51.13,3.69-3.65.94-7.75,2.15-10.5,4.83-3.9,3.8-2.62,9.17-.46,13.49,2.21,4.45,5.54,8.57,9.16,11.96ZM151.81,10.08c6.5-.48,24.4-.54,25.55,8.96.02.18,0,.37-.06.56-1.2,8.31-14.35,9.65-20.67,9.88-5.56.21-23.67-.22-23.57-9.26.09-7.95,13.33-9.75,18.76-10.15h-.01Z"/>
  <path class="st0" d="M22,193c.4-.08.83-.17,1.24-.25,6.39-1.37,13.05-3.4,18.51-2.44,14.51,2.57,36.81,15.77,48.69.6,5.36-6.84,3.23-17.61-3.46-22.86-5.9-4.63-13.77-1.64-18.76,2.9-1.63,1.52-1.72-1.39-.67-2.36,5.14-4.7,13.37-8.26,19.89-4.34,7.21,4.32,10.09,14.43,7.6,22.18-6.54,20.23-31.42,14.09-46.34,9.34-8.8-2.82-15.5-2.93-24.43-.67,1.18,4.15-.11,9.15-1.75,13.15v.02c4.44-1.34,9.5-.85,14.05.17,10.79,2.46,20.97,8.11,29.45,15.16,8.38,6.94,13.45,16.05,25.2,17.32,4.24.46,8.49.05,12.7-.57,1.16-.16,3.79-1.06,5.1-.6,10.85-7.76,26.47-14.32,39.65-9.88,8.52,2.86,15.86,11.1,16.87,20.16.88,8.01-3.45,15.54-9.47,20.51-2.06,1.69-5.09,3.37-8.54,4.72,8.78,8.89,18.54,22.97,9.27,33.87,16.13,3.68,32.72,6.3,49.3,5.62,19.34-.8,48.48-9.79,50.84-32.13-11.65,4.62-27.71,3.93-39.45.36-8.86-2.7-15.08-8.61-18.19-17.33-4.23-11.91-3.93-25.48-4.17-37.93-.33-17.38-2.13-35.91,3.56-52.66,3.07-9.02,8.79-17.09,17.79-20.83,6.56-2.72,13.48-2.6,20.42-3.22,6.86-.56,13.58-.06,19.51,2.01.83-7.83,1.42-15.7,1.93-23.55.98-15.4,1.49-30.84,1.11-46.28-.38-15.27-.28-33.29-7.18-47.28-7.26-14.72-24.25-21.57-40.07-19.06-.72,13.59-17.27,22.87-29.78,24.8-7.86,1.22-15.95,1.3-23.87,1.8-7.72.48-15.47.95-23.2.87-9.09-.1-20.48-.44-27.16-7.56-5.18-4.86-10.58-11.7-11.48-18.96-14.62,1.17-29.78,5.13-40.53,15.66-11.57,11.33-15.07,28.16-13.1,43.88.12.21.14.48.08.78.32,2.33.77,4.65,1.32,6.92,2.37,9.68,7.13,19.95,18.39,20.69,5.75.38,11.88-1.48,17.02-4.27-5.15-7.33-3.87-17.71-.13-25.39.92-1.88,2.67-.82,1.77,1.02-4.73,9.72-2.95,24.71,9.85,28.57,3.84,1.14,7.84,1.02,11.86.14.49-.09.98-.21,1.47-.33,9.02-2.37,18.07-8.17,25.53-11.54,3.98-1.79,7.86-3.16,11.72-4.03.52-.13,1.03-.24,1.55-.33,5.33-1.05,10.66-1.16,16.2-.21.23.03.46.08.7.13,2.53.47,5.08,1.15,7.71,2.07,7.29,2.54,14.01,6.34,20.6,10.29,4.67,2.8,9.12,5.84,14.49,7.09,3.53.82,7.32,1.17,10.96.69.02,0,.05-.01.07-.01.02-.01.03,0,.06-.01.99-.13,1.97-.31,2.92-.59,7.57-2.15,9.46-8.48,8.27-15.72-.21-1.24,2.1-3.67,2.37-2.05,1.85,11.4-3.72,19.52-13.88,21.31-.1.06-.21.1-.31.11-18.58,3.07-15.21,28.71-20.43,42.28-5.62,14.61-19.41,18.47-33.75,20.47-10.27,1.45-20.77,1.71-31.1.7-9.01-.88-19.94-2.31-27.78-7.27-11.31-7.16-13.76-22.71-14.27-34.99-.34-8.56.16-17.36,1.65-25.82-2.38-.93-4.6-2.42-6.56-4.63-7.17,4.34-17.02,7.32-25.09,4.37-.34-.13-.67-.28-.99-.43-2.48,4.36-7.55,7.42-11.42,10.15-.72.51-1.44,1.01-2.16,1.51-.16.18-.35.32-.54.39-7.11,4.96-14.23,9.91-20.64,15.78-12.71,11.64-25.93,32.56-18.39,50.48,3.86,9.19,11.5,9.03,19.73,7.38l.07-.04Z"/>
  <path class="st0" d="M215.14,216.3c-2.09-1.48-4.57-2.59-7.07-3.39-.17,5.38-.1,10.76.13,16.1,5.44-2.57,14.43-7.41,6.94-12.71Z"/>
  <path class="st0" d="M234.97,261.17c-1.61,3.39-2.38,7.33-2.88,11.08,4.72.68,9.65.45,14.08-.56-2.06-5.37-7.54-18.2-11.19-10.52h0Z"/>
  <path class="st0" d="M236.95,163.39s-.06,0-.08,0c-1.41.15-2.84.34-4.24.62.88,2.76,2.02,5.48,3.6,7.86.84,1.28,2.46,3.63,4.3,2.85,1.26-.55,2.02-2.59,2.51-3.73,1-2.33,1.68-4.79,2.26-7.26-2.6-.47-5.4-.57-8.34-.34h0Z"/>
  <path class="st0" d="M238.75,209.46c-5.26.63-9.34,5.68-9.3,10.91.05,5.6,4.83,10.18,10.48,9.56,5.48-.61,9.02-5.4,9.42-10.62.02-.1.03-.21.03-.3,0-.2,0-.34-.05-.47-.52-5.42-4.86-9.76-10.6-9.08h.02Z"/>
  <path class="st0" d="M266.77,224.85c-.26-4.45-.67-8.89-1.08-13.33-2.02,1.1-4.02,2.46-5.59,4.11-4.47,4.75,2.11,7.75,6.67,9.22h0Z"/>
  <path class="st0" d="M235.77,154.12c-7.14.63-14.35.45-20.95,3.7-12.03,5.92-15.69,20.13-16.97,32.42-1.67,15.97-.6,32.77.16,48.81.48,9.95.94,21.32,6.28,30.07,4.93,8.11,13.76,11.3,22.76,12.46,12.79,1.64,29.09,2.14,38.99-7.48,9.72-9.45,10.91-25.04,11.16-37.77.25-12.78-.8-25.56-1.37-38.3-.46-10.35-1.09-21.59-6.53-30.73-7.12-11.94-20.64-14.24-33.53-13.17h0ZM248,160.99c7.58,1.91,13.09,7.19,15.82,16.09,4.06,13.17,4.14,28.25,5.16,41.9.17,2.19.32,4.54.43,6.98.1.25.1.57.03.9.65,17.65-1.41,40-19.62,46.59-13.88,5.01-33.18,2.19-39.35-12.56-4.59-10.96-4.67-23.98-4.83-35.64-.18-13.99.18-28.67,4.79-42.05,3.65-10.64,10.26-18.24,20.1-21.42.37-.13.75-.23,1.11-.32,1.84-.54,3.8-.91,5.87-1.13.07,0,.13,0,.2,0,.03,0,.06-.02.09-.02,3.36-.29,6.47-.13,9.31.48.3.06.6.13.87.21h.02Z"/>
</svg>