<?xml version="1.0" encoding="UTF-8"?>
<svg id="Layer_1" xmlns="http://www.w3.org/2000/svg" version="1.1" viewBox="0 0 1811.38 441.11">
  <!-- Generator: Adobe Illustrator 30.5.1, SVG Export Plug-In . SVG Version: 2.1.4 Build 3)  -->
  <defs>
    <style>
      .st0 {
        fill: #2d2e2d;
      }
    </style>
  </defs>
  <path class="st0" d="M1583.29,375.61c8.44-.85,14.2,6.76,21.38,9.72,2.91,1.22,6.02,2.07,9.22,2.67-5.69-3.72-9.85-8.93-14.69-14.77-3.24-3.91-9.84-9.96-15.36-10.02-4.6-.05-6.82,4.5-4.33,8.39.97,1.53,2.36,2.9,3.79,4.01Z"/>
  <path class="st0" d="M1602.89,197.44c-.38,3.92-.16,8.02.65,11.89,1.21-.07,2.43-.14,3.64-.2,2.91-.16,5.8-.31,8.71-.47,3.64-8.07,2.26-18.78.3-27.21-8.04,2.61-12.46,7.3-13.31,15.99Z"/>
  <path class="st0" d="M1638.34,176.37c-1.17.2-2.36.39-3.53.6v1.78c1.18-.07,2.36-.13,3.53-.2v-2.18Z"/>
  <path class="st0" d="M1638.34,181.64c-1.17.06-2.34.13-3.53.2v4.48c1.18-.06,2.36-.11,3.53-.18v-4.49Z"/>
  <path class="st0" d="M1638.34,189.23c-1.17.07-2.34.13-3.53.18v3.92c1.18-.05,2.36-.09,3.53-.15v-3.95Z"/>
  <path class="st0" d="M1638.34,196.28c-1.17.06-2.34.1-3.53.15v4.83c1.18-.05,2.36-.09,3.53-.14v-4.84Z"/>
  <path class="st0" d="M1634.81,207.67c1.18-.07,2.36-.13,3.53-.2v-3.25c-1.17.05-2.34.09-3.53.15v3.3Z"/>
  <path class="st0" d="M1640.83,175.97v2.45c1.61-.09,3.23-.18,4.84-.28-.02-.94-.03-1.9-.06-2.85-1.6.22-3.2.44-4.78.68Z"/>
  <path class="st0" d="M1640.83,186.01c1.66-.08,3.32-.17,4.99-.25-.03-1.52-.06-3.02-.09-4.53-1.63.09-3.26.18-4.9.28v4.5Z"/>
  <path class="st0" d="M1640.83,193.08c1.7-.07,3.41-.14,5.11-.22-.02-1.33-.05-2.68-.07-4.01-1.69.08-3.37.17-5.05.25v3.98Z"/>
  <path class="st0" d="M1640.83,201.02c1.76-.07,3.5-.15,5.26-.22-.02-1.61-.06-3.22-.09-4.84-1.72.08-3.45.15-5.17.22v4.84Z"/>
  <path class="st0" d="M1640.83,207.35c1.79-.09,3.59-.2,5.39-.29-.02-1.06-.05-2.1-.06-3.16-1.78.08-3.56.15-5.33.22v3.23Z"/>
  <path class="st0" d="M1596.77,247.71c4.3,1.92,8.79,3.44,13.39,4.65h.05c.13.05.24.08.37.1,3.22.84,6.48,1.54,9.78,2.11h.01c.13-.02.25,0,.34.06h.01c7.88,1.36,15.92,2.06,23.75,2.53-9.7-4.77-15.83-13.53-13.46-26.2,1.71-9.12,7.83-16.54,15.77-20.85-14.96.8-29.94,1.6-44.91,2.39-.03.01-.07.01-.1.01-7.43.39-14.87.78-22.3,1.18-.1,2.48-.14,4.98-.13,7.46.02,4.55-.23,9.32,1.78,13.53,3.02,6.31,9.49,10.29,15.65,13.02Z"/>
  <path class="st0" d="M1626.4,420.66c6.08.75,12.42-1.74,16.55-6.21,5.99-6.49,4.76-13.85,2.53-21.54-2.2-7.61-1.92-15.33.22-22.9,2.29-8.14,8.33-16.46,2.42-24.5-4.88-6.64-13.74-8.85-21.56-8.94-4.3,3.16-9.77,3.54-15.5,3.2-9.35-.57-17.43,1.22-25.4,4.91,2.16,5.02,1.84,10.64-.68,15.47t-.01.02c.72,0,1.45.09,2.17.28,6.78,1.8,12.32,7.7,16.39,13.14,5.61,7.48,12.08,13.11,21.29,15.58h.03c.44.02.87.03,1.31.05,1.48.03.15,3.19-1.2,3.16-.36-.01-.7-.02-1.05-.03-.06,0-.1,0-.16-.01-.02,0-.03.01-.06,0-.02,0-.05-.01-.07-.01-5.86-.23-11.85-1.1-17.44-2.84-8.08-2.51-14.8-11.6-23.8-10.65-.01,0-.01.01-.01.01-.07.02-.14.03-.21.03-.03,0-.08-.01-.11-.01s-.08.01-.12.01c-3.92.54-5.87,5.62-3.75,8.98.72,1.16,1.92,1.9,2.93,2.77,1.31,1.1,2.49,2.18,3.39,3.54,9.53,1.67,18.78,7.15,25.48,13.95,5.25,5.32,8.24,11.56,16.4,12.56Z"/>
  <path class="st0" d="M1648.12,174.97c.02,1.01.05,2.02.06,3.03,1.55-.08,3.1-.17,4.64-.25-.02-1.11-.04-2.23-.08-3.34-1.54.18-3.08.37-4.62.56Z"/>
  <path class="st0" d="M1648.23,181.09c.03,1.51.06,3.02.09,4.54,1.56-.08,3.11-.16,4.68-.24-.03-1.53-.07-3.05-.11-4.56-1.55.08-3.1.17-4.65.26Z"/>
  <path class="st0" d="M1648.38,188.71c.02,1.36.05,2.7.08,4.05,1.56-.07,3.14-.13,4.71-.2-.03-1.37-.07-2.72-.1-4.09-1.56.08-3.13.16-4.69.24Z"/>
  <path class="st0" d="M1648.52,195.86c.02,1.61.06,3.23.09,4.84,1.59-.06,3.16-.13,4.75-.2-.03-1.61-.08-3.23-.12-4.84-1.57.07-3.15.13-4.72.2Z"/>
  <path class="st0" d="M1653.51,206.67c-.02-1.02-.05-2.05-.08-3.07-1.59.07-3.17.14-4.76.2.02,1.05.03,2.09.06,3.13,1.6-.08,3.18-.16,4.78-.25Z"/>
  <path class="st0" d="M1694.85,204.48c4.83-10.43,4.17-23.29-1.61-33.3-.02-.05-.03-.09-.05-.14-7.61.31-15.17.85-22.65,1.53-4.47,10.47-4.79,23,.4,33.18,7.96-.41,15.94-.84,23.9-1.26Z"/>
  <path class="st0" d="M1696.07,284.38c1.49.92,3.11,1.63,4.81,2.17,0,.01.01.01.02.01-4.9-7.23-5.84-18.82-6.5-26.68-3.17.17-6.32.33-9.47.49.01,8.98,3.3,19.16,11.14,24.01Z"/>
  <path class="st0" d="M1706.32,287.53c.08.06.14.13.2.21,1.99.24,4.06.35,6.13.35-2.7-4.76-3.46-11.01-4.24-16.16-.64-4.23-1.14-8.5-1.44-12.79-3.32.22-6.63.41-9.95.6t-.01.01c.76,8.87,2.16,22.51,9.32,27.79Z"/>
  <path class="st0" d="M1710.28,170.77c.03,1.23.07,2.46.1,3.7,1.48-.03,2.97-.06,4.45-.09-.02-1.17-.06-2.34-.09-3.53-1.48-.03-2.98-.07-4.46-.08Z"/>
  <path class="st0" d="M1710.46,177.6c.05,1.34.08,2.69.12,4.05,1.48-.03,2.97-.08,4.45-.12-.03-1.33-.07-2.68-.12-4.01-1.48.02-2.97.06-4.45.08Z"/>
  <path class="st0" d="M1710.67,184.76c.02,1.02.06,2.03.08,3.06,1.48-.06,2.95-.1,4.44-.15-.03-1.01-.06-2.01-.08-3.01-1.48.03-2.95.07-4.44.1Z"/>
  <path class="st0" d="M1710.84,190.92c.05,1.64.09,3.29.14,4.93,1.47-.06,2.94-.13,4.41-.18-.05-1.63-.08-3.26-.13-4.9-1.47.06-2.95.1-4.43.15Z"/>
  <path class="st0" d="M1715.6,203.37c-.05-1.54-.08-3.08-.13-4.61-1.47.06-2.93.13-4.4.18.05,1.55.09,3.1.13,4.65,1.47-.08,2.93-.15,4.4-.23Z"/>
  <path class="st0" d="M1716.44,287.99c2.34-.1,4.67-.29,6.87-.47-2.39-4.45-2.91-10.39-3.53-15.01-.63-4.71-1.07-9.48-1.29-14.24-2.72.23-5.45.44-8.17.63-.25.02-.52.03-.78.06.29,3.65.71,7.3,1.25,10.91.89,5.77,1.69,13.17,5.5,17.86.06.08.1.17.14.26Z"/>
  <path class="st0" d="M1717.26,170.92c.02,1.14.06,2.28.09,3.41,1.61-.02,3.22-.06,4.83-.08-.05-1.05-.09-2.08-.14-3.11-1.59-.08-3.18-.16-4.78-.22Z"/>
  <path class="st0" d="M1717.44,177.47c.03,1.33.07,2.67.1,4,1.66-.05,3.31-.08,4.95-.13-.06-1.32-.12-2.64-.17-3.96-1.63.03-3.25.06-4.88.09Z"/>
  <path class="st0" d="M1717.62,184.59c.02,1,.06,2,.08,2.99,1.69-.06,3.38-.11,5.07-.17-.05-.98-.09-1.95-.14-2.93-1.67.03-3.33.08-5.01.12Z"/>
  <path class="st0" d="M1717.78,190.69c.05,1.62.08,3.24.13,4.87,1.74-.08,3.47-.15,5.21-.23-.07-1.61-.14-3.22-.21-4.83-1.71.07-3.41.13-5.13.18Z"/>
  <path class="st0" d="M1723.46,202.96c-.07-1.52-.14-3.02-.21-4.53-1.75.07-3.5.15-5.26.22.04,1.53.08,3.06.13,4.59,1.78-.09,3.56-.18,5.34-.28Z"/>
  <path class="st0" d="M1697.65,232.44c.07-.22.1-.42.08-.62-.01-.06-.03-.11-.03-.17-.01-.06-.02-.13-.03-.17-2.08-11.94-30.82-11.16-30.99,1.53-.16,12.48,29.05,11.7,30.98-.56Z"/>
  <path class="st0" d="M1633.28,231.22c-2.45,15.85,10.15,24.22,24.28,26.47.1.01.2.06.27.09h.03c6.9.2,13.81.17,20.69-.18h.05c8.04-.4,16.09-.86,24.14-1.4,2.92-.2,5.87-.39,8.83-.6,3.98-1.75,7.87-3.59,11.09-6.62,7.07-6.65,7.75-16.9,4.38-25.65-3.72-9.69-13.85-15.95-24.11-16.19-11.07.6-22.12,1.18-33.19,1.77-.18.08-.36.1-.51.02-4.22.23-8.42.45-12.64.68-11.28,1.93-21.5,9.94-23.32,21.62ZM1680.16,217c10.07-.79,29.59,1.64,31.01,14.69.06.13.08.31.07.55,0,.13-.01.24-.05.37-1.04,11.28-14.88,15.5-24.39,16.26-9.5.75-31.02-1.7-31.07-15.24-.06-11.53,15.51-15.92,24.43-16.63Z"/>
  <path class="st0" d="M1727.16,287.21c2.05-.15,4.14-.32,6.22-.55-2.63-7.98-4.17-16.57-4.17-25.04,0-1.47.05-2.93.14-4.39-2.76.3-5.53.57-8.3.83.18,3.54.49,7.08.92,10.61.68,5.7,1.14,13.88,5.01,18.56.07,0,.13-.01.18-.01Z"/>
  <path class="st0" d="M1724.6,171.28c.04.98.09,1.95.14,2.93,2.08-.05,4.17-.08,6.26-.11-.03-.78-.07-1.55-.1-2.33-2.09-.18-4.19-.36-6.3-.48Z"/>
  <path class="st0" d="M1724.87,177.33c.06,1.32.12,2.63.17,3.95,2.08-.06,4.16-.1,6.25-.16-.06-1.3-.11-2.61-.17-3.91-2.08.03-4.17.08-6.25.11Z"/>
  <path class="st0" d="M1725.18,184.4c.05.98.08,1.94.13,2.91l6.24-.21c-.05-.95-.08-1.91-.13-2.85-2.08.05-4.16.1-6.24.15Z"/>
  <path class="st0" d="M1725.45,190.42c.07,1.6.14,3.19.21,4.8,2.08-.09,4.15-.18,6.23-.28-.07-1.57-.14-3.16-.21-4.75-2.07.08-4.15.15-6.23.22Z"/>
  <path class="st0" d="M1729.16,202.65c1.01-.06,2.03-.1,3.04-.16-.07-1.48-.13-2.95-.2-4.44-2.07.09-4.14.17-6.22.26.07,1.51.14,3,.21,4.51,1.05-.06,2.1-.11,3.16-.17Z"/>
  <path class="st0" d="M1736.35,286.27c1.33-.18,2.65-.41,3.96-.69-1.97-5.25-3.06-10.93-2.94-16.38.09-4.91,1.44-9.43,3.69-13.45-3.09.45-6.18.85-9.3,1.2-.48,9.91,1.3,20.03,4.57,29.33,0-.01.01-.01.01-.01Z"/>
  <path class="st0" d="M1644.18,289.93c-.24-4.5-3.29-8.31-7.83-9.09-4.86-.82-9.89,2.53-9.93,7.71-.06,10.58,17.13,12.92,17.76,1.38ZM1635.34,285.54c2.23.39,3.8,2.25,3.93,4.49-.29,5.25-8.56,3.33-8.44-1.38.06-2.33,2.4-3.48,4.5-3.11Z"/>
  <path class="st0" d="M1573.59,347.62c3.17-.53,6.22-2.24,9.24-4.03.57-.34,1.14-.69,1.71-1.02,2.08-1.24,4.16-2.41,6.27-3.19,8.35-3.05,16.21-2.64,24.93-2.47,7.64.15,14.66-4.05,15.06-12.3.31-6.39-3.53-11.81-9.79-13.25-5.17-1.18-10.83.51-11.19,6.5-.08,1.29-2.61,3.38-2.48,1.38.84-13.83,19.62-15.09,24.7-3.11,2.26,5.34,1.41,11.76-1.79,16.54-.2.29-.39.57-.6.84,12,.87,26.11,8.03,23.34,22.12-1.53,7.77-5.87,14.36-6.48,22.51-.62,8.38,3.76,15.54,3.55,23.7-.22,9.18-6.37,17.39-14.87,20.65-4.16,1.6-8.8,1.97-13.1.68-5.54-1.67-8.27-5.63-11.82-9.84-6.01-7.11-14.89-13.05-24.16-15.42,1.3,4.99.69,10.83,1.8,15.82,1.56,6.96,4.79,13.62,10.69,17.9,7.68,5.6,17.61,5.77,26.72,6.37,8.91.57,18.57,1.09,27.16-1.83,10.49-3.56,12.31-12.28,11.94-22.41-.32-9.1-2.33-18.16-1.84-27.29.52-9.46,4.01-17.97,9.03-25.91,1.13-1.77,2.92-.75,1.79,1.03-4.57,7.24-7.85,14.87-8.34,23.5-.33,5.95.48,11.87,1.1,17.78,1,9.49,2.63,21.28-3.71,29.38-1,1.28-2.13,2.37-3.36,3.31,22.18,7.12,49.06,8.29,70.26-1.79-5.25-5.76-6.79-13.94-5.29-22.67,1.2-6.88,4.91-13.99,10.47-18.49-1.77-1.67-3.39-3.53-4.83-5.61-13.46-19.56-8.27-47.54-4.76-69.35,1.83-11.41,7.4-21.43,17.62-26.96-.4-.77-.78-1.56-1.13-2.37-5.04,1.2-10.32,1.71-15.49,2.06h-.01c-.14.05-.27.06-.4.02t-.01,0c-.39.03-.77.06-1.15.08-9.77.63-22.38,2.28-30.92-3.69-8.06-5.63-11.29-16.77-10.97-26.28-1.7.08-3.4.16-5.1.25h-.05c-.87.05-1.75.07-2.63.1-15.54.51-31.21-.02-46.63-1.99-2.49-.32-5.14-.67-7.87-1.08-1.06,1.43-2.03,2.92-2.91,4.46-.68,1.2-2.07,3.11-2.03,4.5.08,2.56,1.92,2.37,4.16,2.11,7.65-.84,14.89-3.34,22.66-1.68,8.65,1.85,15.65,9.17,23.43,13.19,5.01,2.6,10.19,4.96,15.48,6.95,1.25.47-.37,3.49-1.72,2.98-7.33-2.75-14.54-6.14-21.27-10.14-4.76-2.83-8.95-7.08-14.17-9-5.83-2.14-12.17-1.51-18.15-.44-3.65.64-13.24,4.18-12.99-2.41.14-3.73,2.75-7.68,5.16-10.91-2.59-.43-5.22-.92-7.86-1.52h-.01c-6.11,15.12-19.08,23.9-31.19,34.2-7.09,6.03-11.11,13.81-14.16,22.58-2.8,8.09-4.8,17.61-2.26,26.03,1.54,5.1,5.37,9.89,11.24,8.91ZM1696.1,360.54c1.82-1.33,1.89,1.52.68,2.4-20.28,14.97-18.46,44.47-7.89,64.81.62,1.21-1.48,3.88-2.14,2.61-11.47-22.09-12.51-53.67,9.35-69.82ZM1615.3,280.61c9.12-4.71,20.86-6.33,30.63-2.93,8.66,3.02,16.03,8.85,24.9,11.72,3.88,1.26,7.95,2.36,12.03,2.79,1.53.16.14,3.29-1.18,3.15-6.07-.64-12.09-2.4-17.82-4.8-10.07,6.65-29.68,19.03-40.68,7.77-3.92-4.01-5.6-10.3-5.61-15.9-.75.32-1.48.68-2.22,1.06-1.82.93-1.22-2.24-.05-2.85Z"/>
  <path class="st0" d="M1779.35,199.98c-.55-4.86-2.29-9.84-4.95-13.81-4.67-6.95-12.17-9.19-19.94-10.87-.45-.1-.91-.18-1.36-.28-1.77,8.75-.56,18.23,3.36,26.18,7.63-.41,15.26-.82,22.89-1.22Z"/>
  <path class="st0" d="M1764.41,404.48c-2.53-.24-5.06-.61-7.55-1.1-.88,1.51-1.6,3.16-1.94,4.84-1.3,6.44,4.23,8.45,9.55,9.41,4.34.79,10.48,1.84,14.41-.87,3.86-2.67,2.73-8.4,1.84-12.26-.02-.14-.02-.29,0-.44-5.36.91-10.94.93-16.31.43Z"/>
  <path class="st0" d="M1743.59,285.7c.54,1.25,1.13,2.47,1.77,3.64,3.43-1.48,6.98-2.39,10.58-2.92-2.68-6.91-3.94-15.25-1.45-22.21,2.86-8.01,11-12.56,19.16-13.33,6.78-.63,16.8,1.91,16.61,10.45-.17,8.02-8.33,11.99-15.35,11.85-1.49-.02-.16-3.17,1.18-3.15,4.24.08,9.64-1.05,11.23-5.62,1.26-3.62-.8-6.64-3.81-8.47-4.75-2.9-11.38-2.42-16.41-.69-13.65,4.68-12.93,19.59-8.07,30.79,2.46-.24,4.94-.34,7.43-.38h.01c9.37-.13,19.96.62,28.68,4.68,10.46-9.23,11.38-24.41,4.98-36.48-2.7-5.1-7.1-8.83-12.22-11.15-1.03-.47-2.11-.88-3.21-1.24-4.22-1.38-8.77-1.87-13.15-1.47-9.46.87-19.03,5.14-25.13,12.04-.92,1.03-1.77,2.14-2.52,3.3-2.76,4.24-4.3,9.26-4.01,14.92.25,4.96,1.47,10.14,3.44,14.87.16.11.24.32.25.57Z"/>
  <path class="st0" d="M1612.32,179.94c13.59-5.79,29.64-7.37,44.16-9,12.65-1.43,25.39-2.31,38.13-2.65.16-.06.32-.07.47-.01,5.99-.16,11.97-.21,17.96-.11,16.39.25,33.64.91,49.43,5.73,11.83,3.61,18.69,13.83,19.47,25.95,7.49-.4,14.97-.79,22.47-1.2-1.18-7.85-3.93-15.38-8.31-20.86-11.63-14.57-32.72-18.53-50.2-20.32-22.24-2.28-44.76-1.01-67,.72-9.94.78-19.87,1.72-29.81,2.54-10.8.87-21.66,1.18-32.27,3.6-9.39,2.14-18.86,5.87-25.56,13.05-6.55,7.01-9.49,16.38-10.85,25.68-.37,2.51-.62,5.01-.78,7.53,7.04-.37,14.09-.75,21.13-1.13-1.85-11.09.23-24.71,11.55-29.53Z"/>
  <path class="st0" d="M1755.24,204.35c-.18.08-.36.1-.51.03-13.23.7-26.45,1.4-39.67,2.1,8.22,3.73,14.35,11.31,15.93,20.66.3,1.8.45,3.53.45,5.18,0,10.15-5.49,17.57-13.7,22.8.75-.05,1.48-.1,2.23-.16h.01c.22-.1.41-.13.57-.05h.01c3.47-.29,6.95-.59,10.43-.94.28-.15.53-.2.7-.07,0,0,0-.01.01-.01,3.82-.39,7.63-.85,11.43-1.38,9.79-13.33,30.07-19.66,45.47-13.24,6.58-4.04,12-9.6,14.42-17.43,1.84-5.94,2.43-13.07,1.73-20.13-9.4.5-18.8,1-28.2,1.5-7.11.38-14.23.75-21.34,1.13Z"/>
  <path class="st0" d="M1799.79,394.83c-1.9,1.86-3.98,3.42-6.18,4.7h-.01c8.8,6.55,12.76,19.52,3.53,27.8-7.62,6.83-21.54,6.61-31.07,6.27-9.92-.33-26.17-1.49-30.79-12.19-3.5-8.1,1.21-17.21,6.95-23.26h0c-2.08-1.16-4.07-2.48-5.91-4-9.68,6.54-12.66,21.34-8.62,31.79,1.01,2.62,2.61,4.76,4.6,6.49.24.02.39.17.46.39,7.02,5.8,18.51,7.06,26.82,7.45,12.08.57,25.01-.36,36.66-3.8,8.49-2.51,14.14-9.25,14.63-18.21.52-9.27-4.31-17.48-10.62-23.87l-.45.45Z"/>
  <path class="st0" d="M1776.55,337.81c-4.91-.84-9.99,2.55-10.02,7.78-.06,10.7,17.3,13.03,17.93,1.39-.24-4.55-3.32-8.4-7.91-9.17Z"/>
  <path class="st0" d="M1773.09,326.97c-9.18.99-16.31,9.32-16.28,18.48.03,10.06,8.79,18.11,18.84,17.1,9.43-.95,15.7-9.16,16.25-18.19.02-.09.03-.2.02-.29.01-.18,0-.32-.03-.44-.69-9.77-8.57-17.76-18.79-16.66ZM1759.3,344.07c.03-9.18,8.87-15.46,17.57-13.74,7.36,1.44,12.22,7.81,12.56,15.12-.93,19.59-30.2,17.16-30.13-1.38Z"/>
  <path class="st0" d="M1794.51,293.77c-.47.18-.75-.03-.87-.43-8.62-4.1-19.14-4.65-28.36-4.54h-.01c-7.14.1-14.3.83-20.8,3.79-.01.01-.02.02-.03.02-.07.02-.15.06-.23.1-.85.39-1.68.82-2.5,1.3-13.12,7.58-14.4,22.25-16.2,35.83-2.64,20.03-4.77,46.3,12.08,60.96.05.02.07.05.1.08.33.3.68.59,1.02.86,10.58,8.47,25.89,10.87,39.07,9.68,11.71-1.07,21.88-6.59,27.19-17.35,4.53-9.2,5.49-19.88,5.91-29.99.37-9.22.72-18.57.36-27.79-.37-9.43-2.02-19.44-8.71-26.6-2.33-2.49-5.05-4.44-8-5.93ZM1804.53,368.06c-2.99,18.55-16.94,27.19-34.69,27.42-12.62.15-27.53-1.78-34.54-13.73-5.16-8.79-4.98-19.73-4.79-29.59.31-16.81-1.13-38.23,11.68-51.24,14.86-15.11,46.83-10.6,58.33,6.56,11.45,17.08,7.07,41.62,4.02,60.59Z"/>
  <path class="st0" d="M15.79,239.94c-.53,2.18-.99,3.01,1.28,3.7,2.08.63,4.29.94,6.44,1.26,2.36.36,4.75.7,7.12.79.55.02,1.09,0,1.63-.01,0-.02.01-.05.02-.08,0-.41.26-1,.37-1.4.78-3.19,1.45-6.41,2.08-9.63-4.77-.33-11.3-.78-16.17-3.23-1.07,2.82-2.06,5.68-2.77,8.6Z"/>
  <path class="st0" d="M46.23,43.7c-3.6-3.61-9.26-5.79-14.05-3.28-3.87,2.03-6.58,6.34-7.6,10.49-2.78,11.46,6.57,19.8,15.73,24.83-.6-7.53,0-15.15,2.07-22.41.99-3.47,2.29-6.68,3.85-9.64Z"/>
  <path class="st0" d="M30,83.96c3.42,6.67-.17,14.3-2.78,20.65-1.08,2.61-3.85,7.25-1.94,10.01,2.72,3.92,12.38,2.14,16.19,1.74,1.88-1.31,3.76-2.63,5.59-4.01,2.16-1.62,5.04-3.5,6.47-5.96-7.93-4.72-10.91-15.3-12.39-23.93-.15-.87-.28-1.75-.39-2.62-12.24-6.11-23.56-17.65-17.27-32.17,4.44-10.26,15.78-15.27,24.47-6.94,1.63-2.63,3.49-5.05,5.55-7.24-5.92-3.6-13.72-5.46-20.44-3.8-13.38,3.3-22.12,20.97-17.32,33.73,3.05,8.07,10.42,13.05,14.27,20.55Z"/>
  <path class="st0" d="M51.1,245.12c.78-.97.91-3.38,1.14-4.59.3-1.6.54-3.19.75-4.8-5.09-1.23-10.87-.83-15.96-1.02-.51,3.05-.92,6.44-1.85,9.42,4.41.64,8.86,1.28,13.31,1.57,1.25.09,1.87.33,2.62-.59Z"/>
  <path class="st0" d="M80.59,257.91c-5.42-.46-10.81-1.13-16.18-1.97-3.25-.52-25.11-6.69-25.5-1.72.49.17.95.32,1.4.44,12.05,3.1,27.1,5.76,40.28,3.25Z"/>
  <path class="st0" d="M42.6,268.27c14.23.63,29.19-.28,43.07-3.6,9.68-2.32,18.27-9.23,21.11-18.87-.75.62-1.43,1.09-1.76,1.33-.83.56-1.69,1.08-2.57,1.54-3.71,4.18-7.98,7.15-12.6,9.17h-.01c-.49.22-1,.42-1.5.63-9.94,3.85-21.36,3.68-32.45,2.29-6.26-.79-12.73-1.69-18.84-3.52-.1,0-.2-.02-.28-.09-1.1-.32-2.18-.69-3.25-1.09-3.28-1.22-6.19-3.3-9.55-4.29-3.7-1.09-9.93-1.33-9.1,5.7.15,1.4,1.25,3.08,2.21,4.14,1.51,1.64,3.72,2.67,5.76,3.46,6.19,2.38,13.19,2.92,19.77,3.19Z"/>
  <path class="st0" d="M96.74,247.94c1.84-.45,3.65-1.07,5.34-1.91.06-.03.1-.06.15-.08.14-.07.28-.15.41-.22,1.26-.67,2.42-1.97,3.64-2.76-.01,0-.03,0-.05.01-.74.26-1.76.26-2.53.37-2.39.34-4.79.68-7.21.8-6.56.34-13.4-.66-18.86-4.56-3-2.15-5.14-5.13-7.68-7.76-3.26-3.42-6.92-6.48-10.8-9.19-6.98-4.88-14.86-8.91-23.18-10.93-5.72-1.39-14.17-2.62-18.67,2.24-5.85,7.26-.99,13.49,6.91,15.78,8.69,2.51,17.89,1.61,26.8,2.46,1.36.14,2.64.36,3.87.69.13-.01.25.02.34.1,3.17.88,5.95,2.48,8.46,5.06,6.11,6.24,11.64,9.92,20.66,10.77,4.13.39,8.35.15,12.38-.87Z"/>
  <path class="st0" d="M117.74,102.68c-4.01,1.88-8.55,3.88-13.17,5.17-1.52,5.29-2.53,11.24-2.67,17.2,12.45,1.32,43.36,4.49,45.01-14.31.55-6.21-1.95-13.01-5.29-18.24-8.39,2.14-16.09,6.52-23.89,10.17Z"/>
  <path class="st0" d="M144.01,276.47c-10.96,3.32-24.06,2.8-24.44-10.04-.25-8.15,11.17-28.12,21.15-18.57,3.5,3.36,2.16,9.88-1.41,12.7-5.92,4.67-12.15.39-14.01-5.57-.1.16-.22.31-.32.47-2.51,3.96-4.21,9.61-1.87,14.04,2.6,4.9,8.93,5.8,13.93,5.62,14.66-.53,32.25-14.12,23.98-30.03-10.5-20.19-35.6-13.93-50.91-3.29-.07.26-.18.52-.33.78-2.02,11.64-11.42,21.41-22.58,24.64-15.59,4.48-33.76,5.18-49.83,3.93-3.24-.25-8.62-.9-13.62-2.42-7.64,13.96-7.75,33.1,6.53,42.86,7.24,4.98,15.56,3.54,23.44,1.15,8.31-2.53,16.36-5.54,25.04-6.54,6.69-.77,13.46-.88,20.13-.05,4.62.59,9.18,1.62,13.56,3.23,3.38,1.24,6.41,3.22,9.78,4.46,9.17,3.36,21.83,1.99,29.9-3.53.53-.37,1.01-.75,1.46-1.13.13-.14.26-.25.4-.34,10.71-9.66-2.07-24.73-9.98-32.37ZM145.01,296.62c-1.67,5.44-8.14,8.18-13.57,7.47h-.02c-.65-.09-1.29-.22-1.9-.4-6.61-2.03-4.92-10.87,1.76-10.86,4.57.01,5.83,4.82,4.28,8.16,3.32-.36,7.19-2.06,7.37-5.79.34-7.33-9.45-10.02-14.91-9.83-13.22.47-25.26,7.57-38.21,9.53-12.94,1.95-22.23-5.86-33.74-9.92-5.61-1.98-18.97-2.32-16.4,7.13.14.54.34,1.07.61,1.57,2.61-3.63,7.95-5.56,10.15.1.94,2.45-.41,5.49-2.72,6.67-2.99,1.52-6.64-.32-8.58-2.74-.08-.05-.15-.13-.2-.24-3.57-4.75-2.08-11.64,2.83-14.81,8-5.18,17.56-.22,24.97,3.47,5.56,2.78,11.25,5.49,17.55,5.95,5.7.43,11.33-1.23,16.74-2.84,9.92-2.96,20.77-7.93,31.35-6.92,6.71.64,15.01,6.57,12.65,14.3Z"/>
  <path class="st0" d="M156.25,132.02c-8.86,6.68-22.42,8.07-33.07,9.23-6.19.68-12.43,1.13-18.66,1.22,1.59,4.3,3.96,8.21,7.34,11.42,11.53,10.96,32.71,10.92,47.34,7.49,10.06-2.37,18.4-8.1,22.49-17.78,3.09-7.32,3.72-15.33,4.8-23.12.62-4.5,1.3-9.61,4.05-13.38-6.21-3.4-12.14-7.58-18.51-10.4-3.3-1.45-6.79-2.74-10.35-3.67,3.79,12.55,5.85,30.48-5.41,38.98Z"/>
  <path class="st0" d="M90.16,108.7c-1.55,9.43-1.93,19.27-1.03,28.75.68,7.09,2.17,14.49,5.88,20.67,4.25,7.09,10.8,9.97,18.56,12.04,18.89,5.04,40.7,4.87,59.52-.53,7.98-2.29,14.23-5.98,17.57-13.91,2.77-6.54,3.54-13.77,4.79-20.7,1.59-8.64,4.13-17.57,10.91-22.32-5-.56-9.58-2.36-14-4.64-4.79,5.17-3.95,16.79-5.07,23.17-1.47,8.46-4.23,16.9-10.26,23.23-8.17,8.6-20.27,11.23-31.72,11.58-16.12.53-34.17-2.18-41.76-18.31-.84-1.77-1.52-3.62-2.08-5.52-.06-.1-.09-.23-.1-.37-3.06-10.65-2.08-22.88.82-33.41-4.1.92-8.22,1.2-12.02.24Z"/>
  <path class="st0" d="M110.28,34.18c7.19,7.68,20.66,7.14,30.29,7.01,7.37-.09,14.72-.59,22.08-1.06,7.55-.49,15.35-.49,22.78-1.99,9.15-1.83,19.51-6.42,23.03-15.8,1.91-5.08,1.49-12.81-3.44-16.1-4.46-2.96-11.37-3.45-16.5-4.15-8.39-1.15-16.86-1.65-25.31-1.88-16.84-.46-34.72-.51-51.13,3.69-3.65.94-7.75,2.15-10.5,4.83-3.9,3.8-2.62,9.17-.46,13.49,2.21,4.45,5.54,8.57,9.16,11.96ZM151.74,10.08c6.5-.48,24.4-.54,25.55,8.96.02.18,0,.37-.06.56-1.2,8.31-14.35,9.65-20.67,9.88-5.56.21-23.67-.22-23.57-9.26.09-7.95,13.33-9.75,18.76-10.15Z"/>
  <path class="st0" d="M21.93,193c.4-.08.83-.17,1.24-.25,6.39-1.37,13.05-3.4,18.51-2.44,14.51,2.57,36.81,15.77,48.69.6,5.36-6.84,3.23-17.61-3.46-22.86-5.9-4.63-13.77-1.64-18.76,2.9-1.63,1.52-1.72-1.39-.67-2.36,5.14-4.7,13.37-8.26,19.89-4.34,7.21,4.32,10.09,14.43,7.6,22.18-6.54,20.23-31.42,14.09-46.34,9.34-8.8-2.82-15.5-2.93-24.43-.67,1.18,4.15-.11,9.15-1.75,13.15v.02c4.44-1.34,9.5-.85,14.05.17,10.79,2.46,20.97,8.11,29.45,15.16,8.38,6.94,13.45,16.05,25.2,17.32,4.24.46,8.49.05,12.7-.57,1.16-.16,3.79-1.06,5.1-.6,10.85-7.76,26.47-14.32,39.65-9.88,8.52,2.86,15.86,11.1,16.87,20.16.88,8.01-3.45,15.54-9.47,20.51-2.06,1.69-5.09,3.37-8.54,4.72,8.78,8.89,18.54,22.97,9.27,33.87,16.13,3.68,32.72,6.3,49.3,5.62,19.34-.8,48.48-9.79,50.84-32.13-11.65,4.62-27.71,3.93-39.45.36-8.86-2.7-15.08-8.61-18.19-17.33-4.23-11.91-3.93-25.48-4.17-37.93-.33-17.38-2.13-35.91,3.56-52.66,3.07-9.02,8.79-17.09,17.79-20.83,6.56-2.72,13.48-2.6,20.42-3.22,6.86-.56,13.58-.06,19.51,2.01.83-7.83,1.42-15.7,1.93-23.55.98-15.4,1.49-30.84,1.11-46.28-.38-15.27-.28-33.29-7.18-47.28-7.26-14.72-24.25-21.57-40.07-19.06-.72,13.59-17.27,22.87-29.78,24.8-7.86,1.22-15.95,1.3-23.87,1.8-7.72.48-15.47.95-23.2.87-9.09-.1-20.48-.44-27.16-7.56-5.18-4.86-10.58-11.7-11.48-18.96-14.62,1.17-29.78,5.13-40.53,15.66-11.57,11.33-15.07,28.16-13.1,43.88.12.21.14.48.08.78.32,2.33.77,4.65,1.32,6.92,2.37,9.68,7.13,19.95,18.39,20.69,5.75.38,11.88-1.48,17.02-4.27-5.15-7.33-3.87-17.71-.13-25.39.92-1.88,2.67-.82,1.77,1.02-4.73,9.72-2.95,24.71,9.85,28.57,3.84,1.14,7.84,1.02,11.86.14.49-.09.98-.21,1.47-.33,9.02-2.37,18.07-8.17,25.53-11.54,3.98-1.79,7.86-3.16,11.72-4.03.52-.13,1.03-.24,1.55-.33,5.33-1.05,10.66-1.16,16.2-.21.23.03.46.08.7.13,2.53.47,5.08,1.15,7.71,2.07,7.29,2.54,14.01,6.34,20.6,10.29,4.67,2.8,9.12,5.84,14.49,7.09,3.53.82,7.32,1.17,10.96.69.02,0,.05-.01.07-.01.02-.01.03,0,.06-.01.99-.13,1.97-.31,2.92-.59,7.57-2.15,9.46-8.48,8.27-15.72-.21-1.24,2.1-3.67,2.37-2.05,1.85,11.4-3.72,19.52-13.88,21.31-.1.06-.21.1-.31.11-18.58,3.07-15.21,28.71-20.43,42.28-5.62,14.61-19.41,18.47-33.75,20.47-10.27,1.45-20.77,1.71-31.1.7-9.01-.88-19.94-2.31-27.78-7.27-11.31-7.16-13.76-22.71-14.27-34.99-.34-8.56.16-17.36,1.65-25.82-2.38-.93-4.6-2.42-6.56-4.63-7.17,4.34-17.02,7.32-25.09,4.37-.34-.13-.67-.28-.99-.43-2.48,4.36-7.55,7.42-11.42,10.15-.72.51-1.44,1.01-2.16,1.51-.16.18-.35.32-.54.39-7.11,4.96-14.23,9.91-20.64,15.78-12.71,11.64-25.93,32.56-18.39,50.48,3.86,9.19,11.5,9.03,19.73,7.38Z"/>
  <path class="st0" d="M215.07,216.3c-2.09-1.48-4.57-2.59-7.07-3.39-.17,5.38-.1,10.76.13,16.1,5.44-2.57,14.43-7.41,6.94-12.71Z"/>
  <path class="st0" d="M234.9,261.17c-1.61,3.39-2.38,7.33-2.88,11.08,4.72.68,9.65.45,14.08-.56-2.06-5.37-7.54-18.2-11.19-10.52Z"/>
  <path class="st0" d="M236.88,163.39s-.06,0-.08.01c-1.41.15-2.84.34-4.24.62.88,2.76,2.02,5.48,3.6,7.86.84,1.28,2.46,3.63,4.3,2.85,1.26-.55,2.02-2.59,2.51-3.73,1-2.33,1.68-4.79,2.26-7.26-2.6-.47-5.4-.57-8.34-.34Z"/>
  <path class="st0" d="M238.68,209.46c-5.26.63-9.34,5.68-9.3,10.91.05,5.6,4.83,10.18,10.48,9.56,5.48-.61,9.02-5.4,9.42-10.62.02-.1.03-.21.03-.3.01-.2-.01-.34-.05-.47-.52-5.42-4.86-9.76-10.6-9.08Z"/>
  <path class="st0" d="M266.7,224.85c-.26-4.45-.67-8.89-1.08-13.33-2.02,1.1-4.02,2.46-5.59,4.11-4.47,4.75,2.11,7.75,6.67,9.22Z"/>
  <path class="st0" d="M235.7,154.12c-7.14.63-14.35.45-20.95,3.7-12.03,5.92-15.69,20.13-16.97,32.42-1.67,15.97-.6,32.77.16,48.81.48,9.95.94,21.32,6.28,30.07,4.93,8.11,13.76,11.3,22.76,12.46,12.79,1.64,29.09,2.14,38.99-7.48,9.72-9.45,10.91-25.04,11.16-37.77.25-12.78-.8-25.56-1.37-38.3-.46-10.35-1.09-21.59-6.53-30.73-7.12-11.94-20.64-14.24-33.53-13.17ZM247.93,160.99c7.58,1.91,13.09,7.19,15.82,16.09,4.06,13.17,4.14,28.25,5.16,41.9.17,2.19.32,4.54.43,6.98.1.25.1.57.03.9.65,17.65-1.41,40-19.62,46.59-13.88,5.01-33.18,2.19-39.35-12.56-4.59-10.96-4.67-23.98-4.83-35.64-.18-13.99.18-28.67,4.79-42.05,3.65-10.64,10.26-18.24,20.1-21.42.37-.13.75-.23,1.11-.32,1.84-.54,3.8-.91,5.87-1.13.07-.01.13-.01.2,0,.03-.01.06-.02.09-.02,3.36-.29,6.47-.13,9.31.48.3.06.6.13.87.21Z"/>
</svg>