<?xml version="1.0" encoding="UTF-8"?>
<svg id="Layer_1" xmlns="http://www.w3.org/2000/svg" version="1.1" viewBox="0 0 355.12 296.3">
  <!-- Generator: Adobe Illustrator 30.5.1, SVG Export Plug-In . SVG Version: 2.1.4 Build 3)  -->
  <defs>
    <style>
      .st0 {
        fill: #f1d380;
      }
    </style>
  </defs>
  <path class="st0" d="M114.99,162.87c-.25-.33-.51-.67-.81-.97-.28-.33-.61-.59-.94-.88-.17-.14-.35-.25-.52-.38s-.35-.25-.54-.36c-1.48-.91-3.11-1.45-4.65-1.95-1.54-.49-3.05-.91-4.39-1.52-.33-.16-.66-.31-.99-.46l-.94-.55c-.32-.17-.61-.4-.91-.61l-.45-.31c-.15-.11-.28-.24-.43-.35-1.16-.91-2.2-2-3.18-3.17s-1.9-2.42-2.78-3.73c-1.69-2.47-3.26-5.14-5.12-7.65,1.46,1.2,3.03,2.26,4.72,3.15,1.08.57,2.22,1.06,3.39,1.48,1.18.41,2.39.7,3.55.94,1.16.23,2.24.44,3.3.73,1.06.29,2.1.64,3.14,1.08,2.09.85,4.11,1.88,6.01,3.13,1.91,1.24,3.63,2.77,5.25,4.47-1.09-2.08-2.58-3.99-4.34-5.63-1.76-1.63-3.78-3-5.9-4.13-1.06-.56-2.18-1.1-3.34-1.5-1.16-.42-2.35-.72-3.46-1-1.12-.28-2.16-.57-3.17-.96-1.02-.37-2.01-.83-3-1.34-3.89-2.04-7.4-4.94-10.27-8.37-1.41-1.74-2.68-3.66-3.91-5.62-.7-1.12-1.37-2.27-2.03-3.42.13.18.25.37.39.55.37.51.79,1.01,1.24,1.49.46.48.96.91,1.48,1.32,1.05.81,2.21,1.47,3.39,2.03,1.17.55,2.36,1.02,3.58,1.44,2.43.83,4.92,1.4,7.35,1.89l3.62.7c1.19.23,2.38.46,3.55.72,1.18.24,2.33.53,3.49.83.58.15,1.15.31,1.72.47l1.76.51c2.33.68,4.53,1.36,6.46,2.45,1.92,1.08,3.65,2.62,5.08,4.48.72.93,1.36,1.94,1.93,3,.29.53.55,1.08.8,1.65.26.56.49,1.14.72,1.72,0-1.26-.14-2.52-.42-3.77-.27-1.25-.7-2.48-1.25-3.67-1.11-2.37-2.82-4.54-5.02-6.18-1.09-.82-2.28-1.49-3.47-2.04-1.19-.57-2.4-1.02-3.58-1.45-.59-.22-1.18-.41-1.77-.61-.61-.19-1.22-.4-1.83-.58-1.23-.35-2.47-.67-3.7-.94-4.98-1.1-9.88-1.43-14.53-2.39-.58-.13-1.16-.25-1.74-.39-.57-.15-1.16-.29-1.73-.45-1.14-.32-2.23-.69-3.27-1.19-2.08-.97-3.95-2.59-5.78-4.29.04.07.07.14.11.21.61,2.22,1.38,4.4,2.27,6.53.91,2.18,1.97,4.3,3.3,6.33,1.32,2.03,2.9,3.9,4.7,5.54.33.3.67.6,1.01.88.83,3.11,1.83,6.13,3.26,9.06.72,1.5,1.58,2.95,2.58,4.32.49.7,1.06,1.34,1.63,1.99l.93.92c.3.31.66.57.99.86,1.38,1.08,2.91,2.03,4.59,2.6.83.31,1.65.53,2.48.71.82.19,1.63.32,2.43.45,1.59.26,3.12.48,4.57.96,1.46.45,2.81,1.24,4.09,2.29-.1-.18-.2-.36-.31-.54s-.21-.36-.34-.53h-.05Z"/>
  <path class="st0" d="M354.61,27.02c-.29-1.45-.69-2.87-1.18-4.27-.48-1.4-1.11-2.8-1.88-4.1-1.52-2.62-3.54-4.91-5.81-6.85s-4.79-3.54-7.41-4.88-5.35-2.42-8.13-3.29c-5.56-1.75-11.29-2.77-17.05-3.28-5.76-.5-11.58-.46-17.39.27-5.79.73-11.5,2.19-16.95,4.28-5.46,2.08-10.64,4.82-15.51,7.96-4.88,3.14-9.43,6.72-13.75,10.51s-8.38,7.83-12.31,11.95c-1.97,2.06-3.88,4.15-5.79,6.25l-2.85,3.14c-.95,1.04-1.91,2.12-2.84,3.2-3.75,4.32-7.31,8.8-10.66,13.43-6.7,9.25-12.58,19.09-17.57,29.33-1.24,2.56-2.46,5.14-3.58,7.75-.58,1.3-1.11,2.62-1.67,3.93-.53,1.32-1.07,2.63-1.58,3.96-2.03,5.31-3.86,10.69-5.43,16.14,0,.03,0,.06-.02.09-.12.21-.19.45-.22.69-.63.03-1.26.09-1.88.17-1.11.15-2.2.4-3.28.71-.14.04-.27.08-.4.12l-.2.06-.15.04c-.18.06-.38.09-.57.13-.39.07-.8.11-1.21.11-.82,0-1.64-.12-2.42-.4-1.1-.4-2.22-.69-3.36-.85-.46-.07-.92-.11-1.38-.13-.03-.24-.1-.46-.21-.66,0-.03,0-.06-.02-.09-1.56-5.45-3.39-10.83-5.43-16.14-.51-1.33-1.05-2.64-1.58-3.96-.56-1.31-1.09-2.63-1.67-3.93-1.12-2.62-2.34-5.19-3.58-7.75-4.99-10.24-10.87-20.07-17.57-29.33-3.35-4.63-6.91-9.11-10.66-13.43-.93-1.08-1.89-2.16-2.84-3.2l-2.85-3.14c-1.91-2.09-3.82-4.19-5.79-6.25-3.93-4.12-7.99-8.16-12.31-11.95s-8.87-7.37-13.75-10.51c-4.87-3.14-10.05-5.88-15.51-7.96-5.45-2.09-11.16-3.54-16.95-4.28-5.8-.74-11.62-.78-17.39-.27-5.76.51-11.49,1.53-17.05,3.28-2.78.88-5.51,1.95-8.13,3.29-2.62,1.34-5.14,2.94-7.41,4.88-2.27,1.94-4.29,4.23-5.81,6.85-.76,1.3-1.39,2.7-1.88,4.1-.49,1.4-.88,2.82-1.18,4.27C.02,29.9-.17,32.89.18,35.84c.33,2.95,1.25,5.84,2.71,8.42,1.45,2.58,3.41,4.84,5.7,6.64,2.29,1.8,4.86,3.2,7.56,4.16h.03c.17.07.37.03.51-.11.18-.19.17-.49-.03-.67h0c-1.45-1.65-2.74-3.44-3.82-5.32-1.09-1.88-1.96-3.87-2.44-5.91-.5-2.03-.57-4.11-.06-6.02.5-1.91,1.55-3.61,2.96-5.02s3.16-2.53,5.04-3.44c1.88-.9,3.89-1.6,5.95-2.16,1.03-.28,2.07-.52,3.14-.74.54-.12,1.06-.21,1.58-.3s1.04-.16,1.56-.24c2.09-.26,4.19-.34,6.3-.23,4.22.19,8.41,1.08,12.48,2.39,4.07,1.34,8.02,3.09,11.82,5.17,3.81,2.06,7.48,4.41,11.01,6.97,3.54,2.55,6.94,5.31,10.2,8.23,3.27,2.91,6.41,5.98,9.39,9.19,2.99,3.2,5.84,6.54,8.49,10.01,2.65,3.47,5.11,7.09,7.36,10.83,2.26,3.74,4.31,7.61,6.12,11.6,1.8,3.99,3.44,8.06,4.84,12.22,1.39,4.16,2.58,8.4,3.56,12.69,1.97,8.59,4,17.38,3.55,26.24-.17,3.38-1.64,4.99-1.29,5.16.18.19.11,2.56.37,2.65.91.34,4.11-6.58,4.45-7.49.29-.78.72-1.58,1.2-2.34.48-.77,1.02-1.52,1.61-2.24,1.17-1.44,2.5-2.77,3.94-3.96,1.44-1.2,2.99-2.25,4.66-3.14.84-.45,1.66-.93,2.53-1.3.86-.39,1.72-.81,2.61-1.12,3.53-1.38,7.26-2.29,11.02-2.6,1.88-.18,3.77-.16,5.64-.03.47.04.93.08,1.39.15.46.06.92.12,1.37.21.46.08.9.18,1.34.28.43.12.86.24,1.21.38.11.04.23.08.35.1h.13c.87.33,1.71.65,2.54,1.01.93.4,1.84.81,2.71,1.26,1.19.59,2.52.89,3.84.89.66,0,1.33-.08,1.98-.24.33-.08.65-.18.97-.31l.23-.09.18-.07c.12-.05.23-.1.35-.15l2.85-1.21c.86-.37,1.74-.73,2.62-1.1.3.04.61.02.9-.1.35-.14.78-.26,1.21-.38.44-.1.88-.21,1.34-.28.45-.09.91-.15,1.37-.21.46-.07.93-.11,1.39-.15,1.86-.13,3.76-.15,5.64.03,3.76.31,7.49,1.22,11.02,2.6.89.32,1.75.73,2.61,1.12.87.37,1.7.85,2.53,1.3,1.67.9,3.22,1.94,4.66,3.14s2.77,2.53,3.94,3.96c.58.72,1.12,1.47,1.61,2.24.48.77.91,1.56,1.2,2.34.04.1.09.2.14.3.5.83,2.7,6.92,3.54,6.42.14-.08.34-2.51.44-2.62-.44-.61-.61-4.01-.59-4.42.44-8.86,1.58-17.65,3.55-26.24.99-4.29,2.18-8.53,3.56-12.69,1.4-4.16,3.04-8.23,4.84-12.22,1.81-3.99,3.86-7.86,6.12-11.6s4.72-7.36,7.36-10.83c2.66-3.47,5.5-6.81,8.49-10.01,2.98-3.21,6.12-6.28,9.39-9.19,3.26-2.92,6.66-5.68,10.2-8.23,3.53-2.56,7.2-4.91,11.01-6.97,3.8-2.07,7.76-3.83,11.82-5.17,4.07-1.32,8.26-2.2,12.48-2.39,2.11-.1,4.22-.02,6.3.23.52.07,1.04.14,1.56.24.51.1,1.03.19,1.57.3,1.07.22,2.11.46,3.14.74,2.06.56,4.07,1.26,5.95,2.16s3.63,2.03,5.04,3.44,2.47,3.11,2.96,5.02c.51,1.91.44,3.99-.06,6.02-.48,2.04-1.35,4.03-2.44,5.91-1.08,1.88-2.38,3.68-3.82,5.32h0c-.13.13-.19.32-.12.51.09.25.36.38.61.29h.03c2.71-.97,5.28-2.37,7.56-4.17,2.29-1.8,4.25-4.06,5.7-6.64,1.45-2.57,2.37-5.47,2.71-8.42.35-2.95.15-5.94-.43-8.83h.09ZM11.47,49.85c.66.94,1.38,1.83,2.14,2.68.09.11.19.21.29.32-1.55-.89-3-1.92-4.31-3.1-2.03-1.83-3.73-3.99-4.92-6.41-1.2-2.41-1.86-5.05-2.05-7.72-.03-.48-.05-.95-.05-1.43.17.39.35.77.58,1.13.33.56.73,1.08,1.15,1.58.87.99,1.94,1.8,3.13,2.53l.05.03h.02c.06,1.44.34,2.86.78,4.19.75,2.26,1.89,4.31,3.21,6.19h-.02ZM11,29.83c-.82.92-1.55,1.95-2.12,3.07s-.97,2.32-1.2,3.55c-.06.31-.1.61-.14.92-.89-.2-1.72-.66-2.39-1.29-.8-.79-1.36-1.81-1.72-2.89-.17-.55-.28-1.11-.36-1.68-.03-.29-.04-.58-.06-.86,0-.29-.02-.58,0-.87.02-.41.07-.81.12-1.21.07-.31.14-.62.22-.93.33-1.31.75-2.59,1.25-3.83.5-1.25,1.09-2.4,1.79-3.52,1.4-2.22,3.23-4.16,5.31-5.81.25-.2.51-.4.77-.59-.12.43-.24.85-.35,1.28-.33,1.43-.55,2.87-.6,4.32s.04,2.91.26,4.36c.23,1.41.58,2.8,1.01,4.22-.64.54-1.24,1.12-1.81,1.76h.02ZM23.19,22.62c-2.22.72-4.4,1.6-6.48,2.76-.68.38-1.36.8-2.01,1.24-.65-.94-1.13-1.99-1.45-3.1-.38-1.29-.51-2.64-.45-3.99.06-1.34.35-2.68.82-3.93.48-1.25,1.13-2.44,2-3.45.09-.1.16-.23.21-.36.01-.03.02-.07.03-.1.88-.5,1.79-.96,2.71-1.39,2.45-1.14,5.02-2.06,7.64-2.82,1.44-.41,2.89-.77,4.35-1.08-.25.36-.5.72-.73,1.09-.93,1.47-1.71,3.02-2.33,4.63-.6,1.61-1.06,3.28-1.36,4.98-.29,1.56-.43,3.15-.52,4.79-.81.22-1.62.45-2.43.72h0ZM29.96,20.92c-.58.11-1.16.21-1.74.34-.03,0-.05.01-.08.02-.14-.52-.24-1.05-.31-1.58-.1-.79-.13-1.59-.08-2.38.09-1.6.47-3.18,1.07-4.66s1.43-2.87,2.45-4.09c.94-1.11,2.02-2.11,3.24-2.87,2.62-.41,5.26-.69,7.91-.85,1.52-.08,3.03-.13,4.55-.15-.58.66-1.14,1.33-1.68,2.03-.59.79-1.17,1.6-1.68,2.45-.28.41-.5.85-.76,1.28-.24.44-.45.89-.68,1.32-.86,1.79-1.47,3.7-1.89,5.66-.21,1.02-.34,2.05-.43,3.09-.95-.07-1.9-.12-2.85-.13-2.36-.03-4.72.16-7.05.54v-.02ZM42.17,20.73c-.08-1-.07-2.01.05-3.01.21-1.81.72-3.58,1.49-5.25.2-.41.41-.82.64-1.22.24-.39.46-.8.72-1.17.26-.38.52-.75.81-1.11.28-.37.58-.72.89-1.06,1.12-1.24,2.4-2.33,3.81-3.21,2.77.08,5.53.31,8.25.71,2.11.31,4.21.72,6.28,1.22-.68.47-1.34.96-1.98,1.48-1.68,1.39-3.23,2.94-4.54,4.67-1.3,1.74-2.4,3.64-3.25,5.66-.68,1.63-1.19,3.33-1.59,5.09-.96-.34-1.93-.66-2.9-.95-2.82-.84-5.72-1.48-8.67-1.85h-.01ZM56.59,24.61c-.13-1.83.1-3.7.65-5.47.14-.48.31-.94.5-1.41.18-.46.42-.9.64-1.35.21-.45.5-.87.75-1.3.26-.42.57-.82.86-1.23.63-.78,1.29-1.54,2.04-2.2.72-.69,1.53-1.29,2.36-1.85,1.39-.91,2.89-1.65,4.46-2.15,1.94.59,3.85,1.26,5.73,2.02,2.83,1.14,5.59,2.46,8.28,3.92-.71.23-1.41.49-2.1.78-2.25.95-4.32,2.31-6.12,3.95-1.78,1.67-3.27,3.64-4.39,5.81-1.01,1.94-1.73,4.01-2.2,6.18-1.44-.86-2.9-1.68-4.39-2.46-2.29-1.2-4.64-2.29-7.05-3.26l-.02.02ZM70.86,32.08c.09-.2.15-.43.14-.66-.02-2.12.47-4.27,1.34-6.24.88-1.97,2.17-3.76,3.76-5.22.82-.7,1.65-1.4,2.6-1.92l.35-.21.36-.19c.24-.12.48-.25.72-.37.5-.21.99-.44,1.5-.61,1.55-.55,3.19-.89,4.81-.97.87.53,1.74,1.08,2.59,1.64,3.7,2.45,7.25,5.15,10.67,8.05-1.31.38-2.58.85-3.81,1.41-2.2,1.03-4.26,2.37-6.04,4.03-1.77,1.68-3.27,3.62-4.41,5.78-.83,1.55-1.47,3.19-1.95,4.89-3.99-3.39-8.19-6.56-12.62-9.41h0ZM86.43,44.07s.02-.09.02-.14c.04-2.1.54-4.2,1.42-6.13.44-.96.98-1.88,1.6-2.75.63-.85,1.34-1.65,2.11-2.38.4-.34.8-.7,1.22-1.02.43-.31.85-.64,1.32-.9.9-.57,1.87-1.03,2.86-1.42,1.88-.73,3.91-1.16,5.88-1.21,3.86,3.48,7.57,7.16,11.19,10.95.16.17.32.33.47.5-1.26.24-2.5.59-3.71,1.01-.62.21-1.22.49-1.82.73-.3.13-.59.29-.88.43l-.44.22c-.14.08-.28.17-.42.25l-.85.5-.81.56-.4.28c-.13.09-.26.2-.38.31l-.76.62c-.48.44-.96.89-1.42,1.35l-.66.73c-.22.24-.41.51-.62.76-.82,1.02-1.52,2.14-2.14,3.3-.61,1.17-1.12,2.39-1.53,3.65-.1.28-.18.57-.27.86-3.45-3.89-7.12-7.58-10.99-11.08v.02ZM100.22,58.4v-.02c-.18-2.24.25-4.59,1.14-6.71.9-2.12,2.28-4.07,4.06-5.57,1.78-1.49,3.86-2.62,6.12-3.18,1.12-.3,2.27-.48,3.43-.54.75-.03,1.51,0,2.24.06.87.93,1.73,1.85,2.6,2.79l2.86,3.11,2.81,3.1c1.07,1.2,2.12,2.41,3.16,3.63-1.58.23-3.12.57-4.63,1.02-2.6.81-5.09,1.96-7.3,3.56l-.83.6c-.27.21-.52.44-.78.66s-.53.43-.77.67l-.74.71c-.96.97-1.83,2.02-2.63,3.14-.79,1.12-1.51,2.3-2.11,3.54-.11.22-.22.45-.32.67-1.31-2-2.68-3.97-4.1-5.9-1.36-1.81-2.76-3.59-4.21-5.33h0ZM111.93,75.17c-.31-.54-.62-1.07-.93-1.6.15-2.36.89-4.71,2.07-6.81.6-1.06,1.31-2.05,2.13-2.96l.63-.66c.21-.22.45-.41.68-.62.23-.2.45-.41.69-.6l.74-.54c1.97-1.44,4.29-2.38,6.68-2.88,1.2-.23,2.42-.34,3.63-.35,1.1.02,2.2.11,3.24.34,1.57,1.92,3.11,3.87,4.61,5.85,2.7,3.56,5.29,7.21,7.77,10.93-.54-.02-1.08-.03-1.62-.02-.78,0-1.56.03-2.33.1-.77.04-1.55.15-2.31.25-.76.14-1.53.25-2.28.44-.76.15-1.5.39-2.24.61-.37.1-.73.26-1.09.39l-.54.2c-.18.06-.36.13-.54.22-.7.33-1.42.61-2.09,1.01l-1.02.56c-.33.2-.65.42-.97.63-.32.22-.65.42-.96.65l-.92.71c-1.2.98-2.32,2.07-3.34,3.25-1.15,1.34-2.17,2.8-3.06,4.35-.17-.41-.34-.81-.51-1.22-1.78-4.19-3.82-8.27-6.08-12.23h-.04ZM120.38,93.37c.45-2.68,1.56-5.3,3.18-7.55.81-1.14,1.75-2.19,2.8-3.12l.81-.67c.27-.22.57-.41.86-.61.29-.2.57-.41.87-.6l.92-.52c.6-.37,1.26-.61,1.9-.91.32-.15.66-.24.99-.36.34-.11.66-.24,1-.32,1.36-.37,2.75-.61,4.16-.69.7-.02,1.41-.06,2.11-.01.7.03,1.4.11,2.09.19,1.38.21,2.76.53,3.99,1.05.15.06.32.11.48.13,2.72,4.27,5.3,8.63,7.74,13.07.54.98,1.06,1.97,1.58,2.96-2.59-.17-5.15-.14-7.69.14-.21.02-.42.04-.63.07l-.63.09c-.42.06-.84.11-1.25.19-.83.16-1.66.31-2.48.53-1.65.38-3.24.94-4.82,1.54l-1.16.51c-.38.18-.78.33-1.15.54l-1.12.59c-.38.19-.75.4-1.11.62-1.46.86-2.85,1.84-4.17,2.9-1.79,1.45-3.44,3.08-4.95,4.84-.6-2.6-1.29-5.19-2.04-7.75-.68-2.3-1.44-4.59-2.26-6.85h-.02ZM164.05,121.31c-.51-.01-1.01,0-1.51.02l-.75.02-.75.05c-.5.03-1,.05-1.49.11l-1.49.14-1.48.2c-.49.06-.98.17-1.47.25-.49.09-.98.16-1.46.27-.96.23-1.94.41-2.88.7l-1.43.39-1.41.46c-.47.16-.95.29-1.4.47l-1.38.53c-.93.32-1.82.76-2.73,1.14-.92.37-1.77.86-2.67,1.28-1.78.86-3.49,1.95-5.11,3.1-1.61,1.19-3.15,2.48-4.58,3.91-.73.71-1.4,1.47-2.07,2.26-.03.03-.05.06-.07.09,0-3.27-.13-6.54-.38-9.81-.33-4.5-.93-8.99-1.74-13.45-.03-.18-.07-.37-.1-.55.07-.1.14-.21.19-.32,1.31-2.79,3.18-5.34,5.46-7.47,2.26-2.15,4.95-3.85,7.84-5.06,2.9-1.18,6.02-1.85,9.15-1.95.39,0,.78-.03,1.17-.02l1.17.03c.78.06,1.56.12,2.33.22,1.54.23,3.07.55,4.52,1.07.13.05.27.08.42.1,3.61,7.17,6.86,14.53,9.82,22.02-.22-.03-.44-.05-.66-.07-.52-.04-1.03-.09-1.54-.1l-.76-.03h-.76ZM229.45,113.45c-.81,4.45-1.41,8.94-1.74,13.45-.26,3.27-.38,6.54-.38,9.81-.02-.03-.05-.06-.07-.09-.67-.79-1.34-1.55-2.07-2.26-1.43-1.44-2.97-2.72-4.58-3.91-1.63-1.16-3.33-2.24-5.11-3.1-.89-.42-1.75-.91-2.67-1.28-.91-.38-1.8-.82-2.73-1.14l-1.38-.53c-.46-.18-.94-.31-1.4-.47l-1.41-.46-1.43-.39c-.95-.29-1.92-.47-2.88-.7-.48-.11-.97-.18-1.46-.27-.49-.08-.97-.19-1.47-.25l-1.48-.2-1.49-.14c-.5-.06-.99-.08-1.49-.11l-.75-.05-.75-.02c-.5-.02-1-.03-1.51-.02h-.76l-.76.04c-.51.01-1.02.06-1.54.1-.22.02-.44.04-.66.07,2.96-7.5,6.22-14.86,9.82-22.02.14-.02.28-.05.42-.1,1.45-.52,2.97-.84,4.52-1.07.77-.11,1.55-.17,2.33-.22l1.17-.03c.39,0,.78.01,1.17.02,3.13.1,6.25.77,9.15,1.95,2.89,1.22,5.58,2.92,7.84,5.06,2.28,2.13,4.15,4.68,5.46,7.47.05.11.12.22.19.32-.03.18-.07.37-.1.55h0ZM232.61,100.22c-.75,2.57-1.44,5.15-2.04,7.75-1.52-1.77-3.16-3.4-4.95-4.84-1.33-1.06-2.71-2.04-4.17-2.9-.36-.22-.73-.43-1.11-.62l-1.12-.59c-.37-.21-.76-.36-1.15-.54l-1.16-.51c-1.58-.6-3.17-1.17-4.82-1.54-.82-.22-1.65-.37-2.48-.53-.42-.08-.84-.12-1.25-.19l-.63-.09c-.21-.03-.42-.05-.63-.07-2.54-.28-5.1-.31-7.69-.14.52-.99,1.05-1.98,1.58-2.96,2.44-4.45,5.02-8.81,7.74-13.08.16-.02.32-.06.48-.13,1.23-.52,2.62-.84,3.99-1.05.69-.09,1.39-.17,2.09-.19.7-.04,1.4,0,2.11.01,1.4.08,2.8.32,4.16.69.34.08.67.22,1,.32.33.12.67.21.99.36.64.3,1.3.54,1.9.91l.92.52c.3.18.58.4.87.6.28.21.58.39.86.61l.81.67c1.05.93,1.99,1.98,2.8,3.12,1.61,2.25,2.73,4.87,3.18,7.55-.82,2.26-1.58,4.55-2.26,6.85h-.02ZM237.23,87.4c-.17.4-.34.81-.51,1.22-.89-1.55-1.91-3-3.06-4.35-1.02-1.18-2.14-2.27-3.34-3.25l-.92-.71c-.31-.23-.64-.43-.96-.65-.32-.21-.64-.43-.97-.63l-1.02-.56c-.67-.4-1.39-.68-2.09-1.01-.17-.09-.36-.15-.54-.22l-.54-.2c-.36-.13-.72-.29-1.09-.39-.74-.22-1.48-.46-2.24-.61-.75-.2-1.52-.3-2.28-.44-.77-.1-1.54-.21-2.31-.25-.77-.08-1.55-.09-2.33-.1-.54,0-1.08,0-1.62.02,2.48-3.72,5.07-7.37,7.77-10.93,1.5-1.98,3.04-3.92,4.61-5.85,1.04-.23,2.14-.33,3.24-.34,1.21,0,2.43.12,3.63.35,2.39.5,4.71,1.43,6.68,2.88l.74.54c.24.19.46.4.69.6.22.21.46.4.68.62l.63.66c.82.91,1.53,1.9,2.13,2.96,1.18,2.1,1.93,4.45,2.07,6.81-.32.53-.63,1.06-.93,1.6-2.27,3.96-4.3,8.04-6.08,12.23h-.04ZM250.82,63.73c-1.42,1.93-2.79,3.89-4.1,5.9-.11-.22-.21-.45-.32-.67-.61-1.24-1.32-2.42-2.11-3.54s-1.67-2.17-2.63-3.14l-.74-.71c-.25-.23-.52-.44-.77-.67-.26-.22-.51-.45-.78-.66l-.83-.6c-2.2-1.6-4.7-2.75-7.3-3.56-1.52-.45-3.05-.79-4.63-1.02,1.04-1.22,2.09-2.44,3.16-3.63l2.81-3.1,2.86-3.11c.86-.93,1.73-1.86,2.6-2.79.73-.07,1.49-.09,2.24-.06,1.15.06,2.31.24,3.43.54,2.26.56,4.34,1.69,6.12,3.18,1.78,1.5,3.15,3.45,4.06,5.57.89,2.12,1.32,4.47,1.14,6.71v.02c-1.45,1.74-2.85,3.51-4.21,5.32v.02ZM257.83,55.15c-.08-.29-.17-.57-.27-.86-.4-1.26-.92-2.48-1.53-3.65-.62-1.16-1.32-2.28-2.14-3.3-.21-.25-.4-.52-.62-.76l-.66-.73c-.46-.46-.94-.91-1.42-1.35l-.76-.62c-.13-.1-.25-.21-.38-.31l-.4-.28-.81-.56-.85-.5c-.14-.08-.28-.17-.42-.25l-.44-.22c-.29-.14-.58-.3-.88-.43-.6-.25-1.2-.53-1.82-.73-1.21-.42-2.44-.77-3.71-1.01.16-.17.32-.33.47-.5,3.62-3.8,7.33-7.47,11.19-10.95,1.98.05,4,.48,5.88,1.21.99.39,1.96.85,2.86,1.42.47.26.89.59,1.32.9.42.32.82.67,1.22,1.02.78.73,1.48,1.53,2.11,2.38.62.86,1.16,1.78,1.6,2.75.88,1.92,1.38,4.03,1.42,6.13,0,.05.01.09.02.14-3.86,3.49-7.53,7.18-10.98,11.08v-.02ZM271.77,41.49c-.49-1.7-1.13-3.34-1.95-4.89-1.14-2.16-2.65-4.11-4.41-5.78-1.78-1.66-3.85-3-6.04-4.03-1.23-.57-2.5-1.04-3.81-1.41,3.41-2.89,6.96-5.6,10.67-8.05.85-.57,1.72-1.11,2.59-1.64,1.62.08,3.27.42,4.81.97.51.17,1,.39,1.5.61.24.12.48.25.72.37l.36.19.35.21c.94.53,1.78,1.22,2.6,1.92,1.6,1.46,2.88,3.25,3.76,5.22.87,1.97,1.36,4.12,1.34,6.24,0,.1,0,.2.03.3.02.13.07.25.12.36-4.43,2.84-8.63,6.02-12.62,9.41h-.02ZM291.61,27.87c-1.49.78-2.95,1.6-4.39,2.46-.47-2.17-1.19-4.24-2.2-6.18-1.12-2.17-2.61-4.14-4.39-5.81-1.8-1.65-3.87-3-6.12-3.95-.69-.3-1.39-.55-2.1-.78,2.69-1.46,5.45-2.78,8.28-3.92,1.88-.76,3.79-1.43,5.73-2.02,1.57.5,3.07,1.24,4.46,2.15.83.56,1.63,1.16,2.36,1.85.75.66,1.41,1.42,2.04,2.2.29.41.6.8.86,1.23.25.43.54.84.75,1.3.22.45.45.89.64,1.35.19.46.36.93.5,1.41.55,1.77.78,3.64.65,5.47-2.41.97-4.76,2.07-7.05,3.26l-.02-.02ZM304.41,22.59c-.98.29-1.94.61-2.9.95-.4-1.76-.91-3.46-1.59-5.09-.85-2.02-1.94-3.92-3.25-5.66-1.32-1.73-2.86-3.28-4.54-4.67-.64-.52-1.31-1-1.98-1.48,2.07-.51,4.17-.92,6.28-1.22,2.72-.4,5.48-.62,8.25-.71,1.41.88,2.69,1.97,3.81,3.21.31.34.61.69.89,1.06.29.36.56.73.81,1.11.27.38.48.78.72,1.17.22.4.43.81.64,1.22.77,1.66,1.28,3.44,1.49,5.25.11,1,.13,2.01.05,3.01-2.95.37-5.85,1.01-8.67,1.85h0ZM325.28,20.92c-2.33-.38-4.7-.58-7.05-.54-.95.01-1.9.06-2.85.13-.08-1.04-.22-2.07-.43-3.09-.41-1.96-1.03-3.87-1.89-5.66-.23-.44-.44-.89-.68-1.32-.25-.43-.48-.87-.76-1.28-.51-.85-1.09-1.66-1.68-2.45-.53-.7-1.09-1.37-1.68-2.03,1.52.02,3.04.07,4.55.15,2.65.16,5.29.44,7.91.85,1.22.76,2.3,1.76,3.24,2.87,1.02,1.22,1.85,2.61,2.45,4.09.6,1.48.98,3.06,1.07,4.66.05.8.02,1.6-.08,2.38-.07.54-.17,1.07-.31,1.58-.03,0-.05-.01-.08-.02-.58-.13-1.16-.23-1.74-.34v.02ZM332.06,22.62c-.81-.26-1.62-.49-2.43-.72-.1-1.64-.24-3.23-.52-4.79-.3-1.71-.75-3.37-1.36-4.98s-1.4-3.15-2.33-4.63c-.24-.37-.48-.73-.73-1.09,1.46.31,2.92.67,4.35,1.08,2.62.76,5.19,1.68,7.64,2.82.92.43,1.83.89,2.71,1.39.05.17.13.33.25.47.86,1.01,1.52,2.19,2,3.45.47,1.26.76,2.59.82,3.93s-.07,2.7-.45,3.99c-.32,1.1-.8,2.16-1.45,3.1-.66-.45-1.33-.86-2.01-1.24-2.08-1.16-4.27-2.05-6.48-2.76v-.02ZM344.25,29.83c-.57-.64-1.17-1.22-1.81-1.76.43-1.41.78-2.81,1.01-4.22.22-1.45.31-2.91.26-4.36-.05-1.46-.27-2.9-.6-4.32-.1-.43-.22-.85-.35-1.28.26.19.52.39.77.59,2.08,1.65,3.91,3.59,5.31,5.81.7,1.11,1.29,2.27,1.79,3.52.5,1.24.92,2.53,1.25,3.83.08.31.15.62.22.93.06.4.11.81.12,1.21.02.29,0,.58,0,.87-.02.29-.03.58-.06.86-.08.57-.19,1.13-.36,1.68-.35,1.08-.91,2.1-1.72,2.89-.67.64-1.5,1.1-2.39,1.29-.03-.31-.08-.61-.14-.92-.22-1.23-.63-2.43-1.2-3.55-.57-1.12-1.3-2.15-2.12-3.07h.02ZM350.59,43.34c-1.18,2.42-2.89,4.59-4.92,6.41-1.31,1.18-2.77,2.21-4.31,3.1.1-.11.19-.21.29-.32.75-.85,1.48-1.74,2.14-2.68,1.32-1.88,2.46-3.93,3.21-6.19.43-1.33.71-2.75.78-4.19,0,0,.02,0,.02,0l.05-.03c1.19-.72,2.26-1.53,3.13-2.53.42-.5.82-1.02,1.15-1.58.22-.36.41-.74.58-1.13,0,.48-.02.95-.05,1.43-.19,2.67-.85,5.31-2.05,7.72h-.02Z"/>
  <path class="st0" d="M271.99,123.8c-1.04.5-2.14.87-3.27,1.19-.57.16-1.15.3-1.73.45-.58.14-1.16.26-1.74.39-4.65.96-9.55,1.29-14.53,2.39-1.24.27-2.48.59-3.7.94-.61.18-1.22.39-1.83.58-.59.2-1.18.4-1.77.61-1.18.43-2.39.88-3.58,1.45-1.19.56-2.38,1.22-3.47,2.04-2.2,1.65-3.91,3.81-5.02,6.18-.55,1.19-.99,2.42-1.25,3.67-.28,1.25-.43,2.51-.42,3.77.23-.58.46-1.16.72-1.72.25-.56.51-1.11.8-1.65.57-1.07,1.21-2.07,1.93-3,1.42-1.86,3.15-3.4,5.08-4.48,1.93-1.08,4.13-1.77,6.46-2.45l1.76-.51c.57-.15,1.14-.32,1.72-.47,1.15-.3,2.31-.59,3.49-.83,1.17-.27,2.36-.49,3.55-.72l3.62-.7c2.43-.49,4.92-1.06,7.35-1.89,1.21-.42,2.41-.89,3.58-1.44,1.17-.55,2.33-1.21,3.39-2.03.52-.41,1.02-.85,1.48-1.32.46-.48.87-.98,1.24-1.49.13-.18.26-.36.39-.55-.66,1.15-1.33,2.3-2.03,3.42-1.22,1.96-2.49,3.88-3.91,5.62-2.87,3.44-6.38,6.34-10.27,8.37-.99.5-1.98.97-3,1.34-1.02.38-2.06.67-3.17.96-1.11.29-2.3.58-3.46,1-1.16.41-2.28.94-3.34,1.5-2.12,1.13-4.14,2.49-5.9,4.13s-3.25,3.54-4.34,5.63c1.63-1.7,3.35-3.23,5.25-4.47,1.9-1.25,3.91-2.27,6.01-3.13,1.04-.44,2.08-.79,3.14-1.08,1.06-.28,2.15-.5,3.3-.73,1.15-.23,2.37-.53,3.55-.94,1.17-.42,2.31-.91,3.39-1.48,1.69-.89,3.26-1.95,4.72-3.15-1.86,2.51-3.43,5.17-5.12,7.65-.88,1.31-1.8,2.57-2.78,3.73-.98,1.17-2.02,2.26-3.18,3.17-.14.12-.28.24-.43.35l-.45.31c-.3.2-.59.44-.91.61l-.94.55c-.33.15-.66.3-.99.46-1.34.61-2.85,1.03-4.39,1.52-1.55.49-3.18,1.03-4.65,1.95-.19.11-.36.23-.54.36-.17.13-.35.24-.52.38-.33.29-.66.55-.94.88-.3.3-.56.64-.81.97-.13.16-.23.35-.34.53s-.21.36-.31.54c1.28-1.05,2.63-1.84,4.09-2.29,1.45-.47,2.98-.7,4.57-.96.8-.13,1.61-.26,2.43-.45.82-.18,1.65-.4,2.48-.71,1.68-.57,3.21-1.52,4.59-2.6.33-.29.69-.55.99-.86l.93-.92c.56-.65,1.14-1.29,1.63-1.99,1-1.38,1.86-2.83,2.58-4.32,1.42-2.93,2.43-5.95,3.26-9.06.34-.29.68-.58,1.01-.88,1.8-1.64,3.37-3.51,4.7-5.54,1.33-2.02,2.39-4.15,3.3-6.33.9-2.13,1.67-4.31,2.27-6.53.04-.07.07-.14.11-.21-1.83,1.71-3.7,3.33-5.78,4.29h-.05Z"/>
  <path class="st0" d="M241.57,176.23c-.23,2.33-.56,4.65-1.07,6.9-.51,2.26-1.19,4.46-2.1,6.54-.45,1.04-.95,2.04-1.54,3.02-.58,1-1.22,2-1.86,2.99-1.28,2-2.6,3.98-3.93,5.96-2.6,3.88-5.32,7.69-8.04,11.58-.06-.95-.15-1.9-.27-2.85-.36-2.54-.89-5.05-1.72-7.46.16,2.54.28,5.05.21,7.54-.06,2.49-.25,4.96-.6,7.4-.18,1.22-.39,2.43-.64,3.63-.12.6-.27,1.19-.4,1.8l-.43,1.83c-.58,2.42-1.22,4.79-2.04,7.08-.19.58-.43,1.13-.65,1.7-.22.57-.49,1.1-.73,1.66-.51,1.09-1.06,2.16-1.69,3.19-1.23,2.07-2.7,3.99-4.35,5.77-1.65,1.78-3.57,3.32-5.56,4.81-1.52,1.1-3.14,2.09-4.8,3.03.19-.41.37-.83.53-1.25.76-2.05,1.16-4.13,1.54-6.18.81-4.14.97-8.39.5-12.53-.03,2.09-.15,4.16-.44,6.21-.29,2.05-.7,4.06-1.26,6.05-.54,2.01-1.07,4-1.9,5.81-.41.91-.89,1.77-1.46,2.56-.57.8-1.22,1.5-1.95,2.22-1.4,1.4-2.99,2.58-4.73,3.18-1.74.6-3.57.6-5.31.05-.87-.27-1.72-.67-2.52-1.18-.43-.28-.71-.47-.96-.77-.12-.15-.22-.3-.3-.47-.03-.07-.09-.19-.09-.24,0-.02-.03-.18-.04-.28l-.28-3.06c-.05-.49-.1-.98-.16-1.46,1.94-.7,1.95-4.87,5.64-6.07.11-.04.82-.23,1.05.09.43.61-1.25,2.51-1.05,2.72.15.15,1.21-.64,2.09-1.78.5-.66,1.26-1.66,1.48-3.19.1-.68.35-2.38-.44-3-.69-.54-1.53.28-4.18.84-1.04.22-3.32.22-4.74.31-.29.02-.59.02-.88,0-1.42-.09-3.7-.09-4.74-.31-2.65-.56-3.49-1.38-4.18-.84-.78.61-.54,2.32-.44,3,.22,1.52.98,2.53,1.48,3.19.88,1.14,1.94,1.93,2.09,1.78.21-.21-1.48-2.1-1.05-2.72.23-.32.94-.14,1.05-.09,4.05,1.68,3.86,5.46,5.68,6.08-.05.49-.08.99-.11,1.48,0,.12,0,.24-.02.36-.11.9-.21,1.81-.3,2.67-.03.26-.04.33-.13.54-.08.17-.18.34-.3.49-.25.32-.53.53-.96.82-.8.52-1.65.96-2.53,1.24-1.77.56-3.65.56-5.4-.08-1.76-.63-3.36-1.8-4.76-3.22-.72-.73-1.37-1.44-1.94-2.24s-1.06-1.66-1.46-2.57c-.81-1.83-1.36-3.82-1.89-5.83-1.09-3.98-1.62-8.11-1.63-12.28-.45,4.14-.27,8.39.57,12.52.4,2.04.78,4.13,1.55,6.16.17.46.37.91.58,1.35-1.71-.96-3.37-1.97-4.93-3.1-1.98-1.49-3.9-3.02-5.56-4.81-1.65-1.78-3.12-3.7-4.35-5.77-.62-1.03-1.18-2.1-1.69-3.19-.24-.56-.51-1.09-.73-1.66-.21-.57-.45-1.12-.65-1.7-.83-2.29-1.46-4.66-2.04-7.08l-.43-1.83c-.14-.61-.28-1.2-.4-1.8-.25-1.2-.46-2.41-.64-3.63-.35-2.44-.54-4.91-.6-7.4-.07-2.49.05-5,.21-7.54-.83,2.41-1.36,4.92-1.72,7.46-.12.94-.21,1.89-.27,2.85-2.72-3.89-5.44-7.7-8.04-11.58-1.33-1.98-2.65-3.96-3.93-5.96-.64-1-1.28-1.99-1.86-2.99-.59-.98-1.09-1.98-1.54-3.02-.9-2.08-1.59-4.28-2.1-6.54s-.83-4.57-1.07-6.9c-.42-4.68-.38-9.44-.19-14.27-1.44,4.62-2.18,9.47-2.22,14.38,0,2.45.19,4.93.62,7.37.12.61.23,1.22.38,1.83.16.6.29,1.21.48,1.81.19.6.36,1.2.59,1.79.11.3.21.59.33.89l.36.88c.51,1.15,1.11,2.3,1.76,3.36.66,1.05,1.34,2.06,2.04,3.05,1.41,1.98,2.87,3.9,4.41,5.77,3.03,3.68,6.33,7.15,9.98,10.22-.1,1.59-.1,3.19-.02,4.79.07,1.29.19,2.58.37,3.87.09.64.19,1.29.31,1.91l.35,1.87c.12.63.25,1.25.4,1.88.13.63.3,1.26.45,1.88.33,1.25.71,2.5,1.15,3.73.21.62.48,1.22.72,1.83s.54,1.2.81,1.8c.59,1.18,1.22,2.34,1.96,3.44,1.45,2.21,3.19,4.22,5.15,5.96,1.96,1.75,4.18,3.15,6.46,4.36,1.93.95,3.92,1.74,5.97,2.31.19.37.39.73.62,1.08.58.93,1.3,1.8,2.01,2.58,1.46,1.59,3.2,3.07,5.36,3.92.8.31,1.66.53,2.53.63.2.76.52,1.49.93,2.19.26.43.55.84.88,1.23.16.2.34.38.51.56.17.17.34.35.53.52.72.69,1.57,1.31,2.53,1.76.48.22.99.39,1.52.52.53.12,1.07.17,1.61.18.54,0,1.08-.07,1.61-.18.52-.13,1.03-.3,1.51-.52.96-.45,1.81-1.07,2.53-1.76.19-.17.36-.34.53-.52.18-.18.35-.37.52-.56.33-.39.62-.8.88-1.23.38-.65.69-1.33.9-2.04.9-.1,1.78-.33,2.6-.66,2.17-.87,3.93-2.35,5.39-3.96.65-.72,1.31-1.53,1.86-2.38-1.71,4.53-3.96,8.78-7.05,12.33-1.59,1.84-3.19,3.62-5.1,4.93-1.88,1.32-4.01,2.19-6.19,2.18-2.18,0-4.32-.83-6.19-2.16-.94-.66-1.83-1.43-2.66-2.27s-1.63-1.74-2.42-2.67c-3.15-3.63-5.43-7.98-7.16-12.61.34,2.18.94,4.32,1.73,6.4-.24,1.69-.31,3.42-.14,5.14.2,2.04.79,4.07,1.73,5.92.47.93,1.03,1.81,1.64,2.64.61.83,1.3,1.63,1.94,2.38.03.04.06.08.1.11.24.5.45,1.01.64,1.53.26.71.47,1.44.63,2.17l-1.88-1.75c-1.02-.92-2.08-1.81-3.15-2.66-.54-.43-1-.81-1.42-1.29-.43-.47-.81-.99-1.15-1.53-.69-1.08-1.22-2.27-1.58-3.53-.09-.31-.17-.63-.26-.95-.08-.33-.16-.65-.22-.96-.13-.64-.21-1.28-.25-1.93-.07-1.3,0-2.64.13-3.99.11-1.36.23-2.72.38-4.06.16-1.35.35-2.7.58-4.05-.48,1.29-.88,2.6-1.2,3.94-.34,1.34-.56,2.69-.81,4.04-.21,1.36-.42,2.74-.41,4.17,0,.71.07,1.43.18,2.14.06.36.12.7.19,1.04s.16.69.25,1.03c.38,1.37.93,2.72,1.71,3.95.39.61.83,1.19,1.33,1.72.48.54,1.08,1.04,1.62,1.44,2.19,1.61,4.25,3.37,6.39,5.06l.05.04c.12.09.27.13.43.09.27-.06.44-.34.38-.61-.15-.65-.34-1.3-.57-1.93-.17-.48-.38-.95-.6-1.41.76.95,1.5,1.91,2.2,2.9,1.15,1.63,2.24,3.29,3.21,5.03.97,1.71,1.81,3.59,3.09,5.33.63.87,1.38,1.69,2.27,2.37.22.17.45.33.69.48.24.14.48.3.73.42.49.26.99.47,1.5.66,2.06.75,4.28.9,6.39.67.37-.04.7-.3.81-.67.15-.5-.14-1.03-.64-1.18-1.46-.43-2.87-1.21-3.9-2.29-1.03-1.08-1.71-2.47-1.91-3.97-.11-.75-.07-1.52.03-2.29.11-.77.33-1.52.61-2.26.58-1.47,1.42-2.86,2.51-4.04.13-.15.27-.29.42-.43.15-.14.27-.28.44-.42l.93-.87c.62-.59,1.23-1.17,1.83-1.79.15-.15.3-.31.45-.47.07-.08.15-.17.23-.26l.14-.17c-.27.45-.55.89-.84,1.33-.56.85-1.15,1.68-1.79,2.44-.08.09-.12.22-.1.35.03.25.26.42.51.38h.04c1.41-.2,2.67-.75,3.87-1.4,1.2-.66,2.29-1.51,3.28-2.46,1-.96,1.83-2.11,2.47-3.34.65-1.23,1.05-2.58,1.35-3.88.61-2.68.59-5.41.22-8.06-.09-.67-.23-1.31-.34-1.96l-.35-1.93c-.2-1.27-.44-2.55-.32-3.85,1.73-.54,3.41-1.23,5.05-2.04,2.27-1.21,4.5-2.61,6.46-4.36,1.96-1.74,3.7-3.76,5.15-5.96.73-1.1,1.36-2.26,1.96-3.44.27-.6.57-1.19.81-1.8.24-.61.51-1.21.72-1.83.43-1.23.82-2.48,1.15-3.73.16-.63.32-1.26.45-1.88.14-.63.28-1.26.4-1.88l.35-1.87c.12-.63.22-1.28.31-1.91.18-1.28.3-2.57.37-3.87.08-1.6.07-3.2-.02-4.79,3.65-3.07,6.94-6.54,9.98-10.22,1.54-1.87,3-3.79,4.41-5.77.7-.99,1.38-2,2.04-3.05.66-1.07,1.26-2.21,1.76-3.36l.36-.88c.12-.29.22-.59.33-.89.23-.59.4-1.19.59-1.79.18-.6.32-1.21.48-1.81.14-.61.26-1.22.38-1.83.43-2.45.62-4.92.62-7.37-.04-4.91-.78-9.76-2.22-14.38.18,4.83.23,9.6-.19,14.27l-.08-.04ZM186.85,262.8c-.32.33-.66.64-1.01.93-.18.14-.36.28-.54.42l-.57.41c-1.49,1.07-3.1,1.78-4.77,1.76-.83,0-1.66-.16-2.46-.47s-1.56-.76-2.31-1.29l-.57-.41c-.18-.13-.36-.27-.54-.42-.35-.29-.69-.6-1.01-.93-.49-.49-.93-1.04-1.35-1.63.2.02.4.03.6.03,1.17.02,2.34-.19,3.42-.6s2.08-.98,2.96-1.69c.22-.18.43-.35.67-.58.2-.2.37-.42.53-.65.17.26.36.5.57.72.24.25.45.42.67.6.88.72,1.87,1.33,2.97,1.74,1.1.42,2.29.63,3.48.6.16,0,.33-.01.49-.02-.38.53-.79,1.03-1.23,1.48h0ZM191.13,274.25l-.21.23c-.06.07-.13.13-.2.2-.14.14-.29.28-.45.42-.61.56-1.25,1.11-1.89,1.65l-.96.82c-.16.13-.33.29-.49.44s-.33.3-.48.46c-1.25,1.26-2.26,2.76-2.98,4.41-.33.84-.61,1.7-.77,2.6-.14.9-.21,1.83-.1,2.76.2,1.85.99,3.69,2.3,5.05.27.29.57.56.88.81-.53-.1-1.05-.24-1.55-.41-.43-.16-.87-.33-1.27-.55-.21-.1-.39-.22-.59-.33-.19-.12-.37-.25-.55-.38-.71-.55-1.35-1.22-1.92-1.98-1.13-1.52-2.02-3.32-3.07-5.1-1.05-1.76-2.19-3.47-3.45-5.09-1.25-1.62-2.59-3.17-3.97-4.66-.71-.75-1.39-1.44-2.01-2.21-.62-.76-1.2-1.56-1.69-2.41-1-1.69-1.7-3.56-2.04-5.52-.18-.98-.28-1.98-.32-2.98-.03-.61-.03-1.23,0-1.85.07.18.14.36.21.53.48,1.16,1.03,2.29,1.65,3.39.61,1.1,1.34,2.16,2.07,3.17.36.5.74,1,1.13,1.5.4.49.81.97,1.24,1.45.86.94,1.79,1.85,2.84,2.65,1.04.8,2.21,1.47,3.48,1.96,1.27.48,2.64.74,4.01.75,1.38,0,2.74-.29,4.01-.77,1.26-.49,2.43-1.16,3.47-1.96,2.08-1.6,3.77-3.56,5.22-5.58.73-1.01,1.47-2.06,2.08-3.16.47-.85.91-1.72,1.31-2.61,0,1.65-.2,3.28-.62,4.84-.45,1.6-1.1,3.14-2,4.52-.44.69-.94,1.35-1.46,1.99-.26.32-.54.63-.82.94h-.03ZM199.57,254.6c-.04.67-.03,1.33,0,1.99.04,1.32.19,2.64.27,3.93.14,2.57,0,5.17-.6,7.6-.3,1.26-.71,2.43-1.26,3.54-.55,1.11-1.27,2.12-2.14,3.01-.86.92-1.84,1.72-2.89,2.41-.71.46-1.47.88-2.26,1.19.3-.53.58-1.08.84-1.63.22-.47.42-.95.61-1.43.12-.29.22-.59.32-.89.1-.12.2-.25.29-.37.52-.69.99-1.42,1.4-2.18,1.66-3.01,2.28-6.52,1.88-9.84l.33-.75c.92-2.27,1.61-4.62,2-7.02.02-.03.04-.06.06-.1.24-.38.45-.76.66-1.16.26-.07.53-.15.79-.23-.2.61-.28,1.27-.31,1.92h0Z"/>
  <path class="st0" d="M228.89,166.01c1.91.17,3.44.72,4.46,1.18-1-.85-2.66-2.04-4.96-2.76-5.2-1.62-9.87.4-11.91,1.28-12.99,5.61-17.1,23.42-17.92,26.94-.93,4.02-2.43,10.89-.13,19.16,1.23,4.43,3.14,7.8,4.59,9.98-.96-2.53-2.05-6.12-2.6-10.51-.36-2.88-.91-9.69,1.38-17.92.64-2.32,2.03-7.1,5.18-12.21v.22c.1,2.94,3.9,4.44,4.85,4.81.3.12,4.94,1.85,8.74-.84.36-.25,3.69-2.6,3.08-5.27-.26-1.13-1.17-2.27-2.35-2.63-1.61-.5-3.05.7-3.26.36-.22-.35.98-2.11,2.79-2.51,2.07-.45,3.4,1.23,4.26.59.92-.69.27-3.65.12-4.92-.19-1.57-1.3-3.47-1.96-4.25,1.73-.59,3.61-.89,5.64-.71h0ZM217.88,169.58c.28-.2.58-.41.88-.6-.29.2-.58.41-.88.6Z"/>
  <path class="st0" d="M144.59,165.71c-2.04-.88-6.71-2.9-11.91-1.28-2.29.71-3.95,1.91-4.96,2.76,1.02-.46,2.55-1.01,4.46-1.18,2.03-.18,3.91.13,5.64.71-.66.78-1.77,2.68-1.96,4.25-.15,1.27-.8,4.23.12,4.92.86.64,2.19-1.04,4.26-.59,1.8.39,3.01,2.16,2.79,2.51-.21.33-1.64-.86-3.26-.36-1.17.36-2.09,1.5-2.35,2.63-.61,2.67,2.72,5.01,3.08,5.27,3.8,2.69,8.44.95,8.74.84.94-.37,4.74-1.86,4.85-4.81v-.22c3.15,5.12,4.53,9.9,5.18,12.21,2.29,8.22,1.73,15.04,1.38,17.92-.54,4.39-1.64,7.97-2.6,10.51,1.46-2.18,3.36-5.54,4.59-9.98,2.3-8.28.8-15.14-.13-19.16-.81-3.52-4.92-21.33-17.92-26.94h0ZM142.32,168.98c.3.2.59.4.88.6-.29-.2-.59-.4-.88-.6Z"/>
  <path class="st0" d="M184.48,147.78c-.27.28-.51.57-.76.87-.24.3-.5.58-.74.89-.47.61-.93,1.23-1.36,1.87-.86,1.28-1.66,2.6-2.35,3.98-.75,1.48-1.39,3.02-1.92,4.59-.53-1.57-1.17-3.11-1.92-4.59-.69-1.38-1.49-2.7-2.35-3.98-.43-.64-.89-1.26-1.36-1.87-.23-.3-.49-.59-.74-.89s-.49-.59-.76-.87c-2.05-2.29-4.42-4.27-6.98-5.91-2.58-1.61-5.35-2.9-8.24-3.73,2.71,1.3,5.27,2.83,7.59,4.66,1.17.9,2.28,1.87,3.32,2.9,1.04,1.04,2.05,2.1,2.94,3.25,1.82,2.28,3.39,4.75,4.61,7.39.61,1.32,1.16,2.66,1.62,4.04.47,1.37.84,2.77,1.14,4.19h0c.09.44.43.8.9.9.63.13,1.24-.27,1.36-.9.58-2.84,1.53-5.6,2.75-8.23,1.22-2.64,2.79-5.1,4.61-7.39.9-1.15,1.91-2.21,2.94-3.25,1.04-1.03,2.15-2,3.32-2.9,2.32-1.82,4.89-3.35,7.59-4.65-2.89.82-5.66,2.11-8.24,3.73-2.56,1.64-4.94,3.62-6.98,5.91h.01Z"/>
</svg>