<?xml version="1.0" encoding="UTF-8"?>
<svg id="Layer_1" data-name="Layer 1" xmlns="http://www.w3.org/2000/svg" xmlns:xlink="http://www.w3.org/1999/xlink" viewBox="0 0 500 402.18">
  <defs>
    <style>
      .cls-1 {
        fill: none;
      }

      .cls-2 {
        clip-path: url(#clippath-1);
      }

      .cls-3 {
        fill: #fff;
      }

      .cls-4 {
        fill: #9a6c29;
      }

      .cls-5 {
        clip-path: url(#clippath);
      }
    </style>
    <clipPath id="clippath">
      <rect class="cls-1" width="500" height="402.18"/>
    </clipPath>
    <clipPath id="clippath-1">
      <rect class="cls-1" width="500" height="402.18"/>
    </clipPath>
  </defs>
  <g id="Capricorn">
    <g class="cls-5">
      <g class="cls-2">
        <path class="cls-4" d="M148.67,306.48l-.8-.13c-33.89-11.07-62.43-28.16-82.55-49.42-25.64-27.1-36.01-59.46-29.19-91.12,8.6-39.92,43.19-74.95,94.9-96.11,17.12-7,36.47-12.03,60.88-15.81,1.39-.22,2.71.74,2.93,2.15.22,1.4-.74,2.71-2.15,2.93-24,3.72-42.98,8.64-59.72,15.49-50.12,20.51-83.59,54.2-91.83,92.44-6.45,29.96,3.45,60.68,27.9,86.51,17.37,18.35,41.28,33.53,69.63,44.26l-1.82-1.49c-38.41-28.62-56.67-76.09-45.44-118.1,10.31-38.57,43.49-63.93,91.03-69.58,1.4-.16,2.69.84,2.85,2.25.17,1.41-.84,2.68-2.25,2.85-45.35,5.39-76.94,29.37-86.68,65.81-10.69,40,6.81,85.27,43.55,112.65,2.33,1.74,4.33,3.82,6.26,5.83,1.4,1.45,2.72,2.83,4.16,4.09.92.8,1.14,2.14.54,3.2-.47.82-1.33,1.3-2.23,1.3"/>
        <path class="cls-4" d="M351.32,306.48c-.9,0-1.77-.48-2.23-1.3-.6-1.06-.38-2.4.54-3.2,2.01-1.76,5.3-4.89,8.21-7.65,2.29-2.18,4.27-4.06,5.46-5.12,36.44-32.55,52.36-77.78,40.55-115.22-10.57-33.54-41.44-54.98-86.91-60.38-1.41-.17-2.41-1.45-2.25-2.85.17-1.41,1.44-2.41,2.85-2.25,47.6,5.65,79.99,28.36,91.21,63.94,12.41,39.37-4.08,86.7-42.02,120.6-1.01.9-2.74,2.54-4.63,4.34,28-10.72,51.64-25.79,68.85-43.97,24.44-25.83,34.35-56.55,27.9-86.51-8.24-38.24-41.71-71.93-91.83-92.44-16.74-6.85-35.71-11.77-59.72-15.49-1.4-.22-2.36-1.53-2.15-2.93.22-1.4,1.55-2.36,2.93-2.15,24.42,3.78,43.76,8.81,60.88,15.81,51.71,21.16,86.3,56.19,94.9,96.11,6.82,31.66-3.54,64.03-29.19,91.12-20.12,21.25-48.66,38.34-82.55,49.42l-.8.13Z"/>
        <path class="cls-4" d="M197.58,332.25l-1.78-.72c-26.53-25.51-27.61-51.31-28.33-68.39-.22-5.14-.4-9.59-1.26-12.78-1.77-6.61-5.99-12.02-10.88-18.29-11.64-14.92-26.12-33.49-17.87-80.53.24-1.4,1.57-2.34,2.98-2.09,1.4.24,2.33,1.58,2.08,2.97-7.86,44.79,5.85,62.37,16.86,76.49,5.02,6.43,9.75,12.51,11.79,20.13,1,3.74,1.2,8.45,1.43,13.89.68,16.25,1.72,40.82,26.76,64.9,1.02.98,1.05,2.61.07,3.63l-1.85.79Z"/>
        <path class="cls-4" d="M302.41,332.25l-1.85-.79c-.98-1.02-.95-2.65.07-3.63,25.04-24.08,26.08-48.65,26.76-64.9.23-5.45.43-10.15,1.43-13.89,2.04-7.62,6.77-13.69,11.79-20.13,11.01-14.12,24.72-31.7,16.86-76.49-.25-1.4.69-2.73,2.09-2.97,1.41-.25,2.73.69,2.97,2.09,8.25,47.04-6.23,65.61-17.87,80.53-4.89,6.27-9.11,11.68-10.88,18.29-.85,3.19-1.04,7.64-1.26,12.78-.72,17.07-1.81,42.87-28.34,68.39l-1.78.72Z"/>
        <path class="cls-4" d="M192.31,58.99l-2.08-1.05c-.84-1.15-.59-2.75.56-3.59,17.77-12.96,38.27-19.8,59.29-19.8s41.37,6.8,59.1,19.66c1.15.83,1.4,2.44.57,3.59-.83,1.15-2.44,1.41-3.59.57-16.84-12.22-36.23-18.68-56.08-18.68s-39.38,6.51-56.26,18.82l-1.51.49Z"/>
        <path class="cls-4" d="M57.25,226.57c-1.16,0-2.21-.79-2.5-1.97-8.75-36.19-4.78-67.39,11.79-92.75,28.22-43.18,85.73-57.52,109.15-61.68,1.39-.25,2.73.68,2.98,2.08.25,1.4-.68,2.73-2.08,2.98-22.76,4.04-78.63,17.93-105.75,59.43-15.77,24.13-19.5,53.98-11.1,88.73.33,1.38-.52,2.77-1.9,3.1l-.61.07Z"/>
        <path class="cls-4" d="M442.74,228.86l-.61-.07c-1.38-.33-2.23-1.72-1.9-3.1,8.4-34.75,4.67-64.6-11.1-88.73-27.12-41.49-82.98-55.39-105.75-59.43-1.4-.25-2.33-1.58-2.08-2.98.25-1.4,1.58-2.34,2.98-2.08,23.42,4.16,80.93,18.51,109.15,61.68,16.57,25.36,20.54,56.57,11.79,92.75-.28,1.17-1.33,1.97-2.49,1.97"/>
        <path class="cls-4" d="M424.93,154.56c-.9,0-1.78-.48-2.25-1.32-24.95-44.99-78.91-58.96-100.96-62.88-1.4-.25-2.33-1.58-2.08-2.98.25-1.4,1.59-2.34,2.98-2.08,22.77,4.05,78.53,18.53,104.55,65.45.69,1.24.24,2.8-1,3.49l-1.24.32Z"/>
        <path class="cls-4" d="M77.39,154.56l-1.25-.32c-1.24-.69-1.69-2.25-1-3.49,26.02-46.92,81.79-61.4,104.56-65.45,1.4-.25,2.73.68,2.98,2.08.25,1.4-.68,2.73-2.08,2.98-22.04,3.92-76.01,17.89-100.96,62.88-.47.85-1.35,1.32-2.25,1.32"/>
        <path class="cls-4" d="M192.99,177.37c-3.01,0-6.07-.67-8.96-2.08-4.85-2.38-8.5-6.48-10.28-11.55-1.78-5.08-1.46-10.53.89-15.33.47-.95,1.62-1.35,2.58-.88.95.47,1.35,1.62.88,2.58-1.9,3.87-2.15,8.26-.72,12.36,1.44,4.11,4.4,7.44,8.34,9.36,8.12,3.98,17.92.7,21.84-7.31.47-.95,1.62-1.35,2.58-.88.96.47,1.35,1.62.88,2.58-3.46,7.06-10.59,11.15-18.04,11.15"/>
        <path class="cls-4" d="M183.38,162.46c-1.49,3.04-.23,6.72,2.81,8.21s6.72.23,8.21-2.81c1.49-3.04.23-6.72-2.81-8.21-3.04-1.49-6.72-.23-8.21,2.81"/>
        <path class="cls-3" d="M191.56,162.3c-.58,1.19-.09,2.63,1.1,3.21,1.19.58,2.62.09,3.21-1.1.58-1.19.09-2.62-1.1-3.21-1.19-.58-2.63-.09-3.21,1.1"/>
        <path class="cls-4" d="M305.53,177.39c-2.17,0-4.35-.35-6.46-1.06-5.1-1.71-9.21-5.3-11.57-10.11-.47-.95-.07-2.11.88-2.58.96-.47,2.11-.07,2.58.88,1.9,3.87,5.21,6.77,9.33,8.15,4.13,1.38,8.57,1.08,12.51-.84,3.94-1.93,6.9-5.26,8.34-9.37,1.43-4.1,1.18-8.49-.72-12.37-.47-.96-.07-2.11.88-2.58.96-.47,2.11-.07,2.58.88,2.36,4.81,2.67,10.26.9,15.34-1.78,5.07-5.43,9.17-10.28,11.55-2.84,1.39-5.9,2.09-8.97,2.09"/>
        <path class="cls-4" d="M315.14,162.46c1.49,3.04.23,6.72-2.81,8.21-3.04,1.49-6.72.23-8.21-2.81-1.49-3.04-.23-6.72,2.81-8.21,3.04-1.49,6.72-.23,8.21,2.81"/>
        <path class="cls-3" d="M306.97,162.3c.58,1.19.09,2.63-1.1,3.21-1.19.58-2.62.09-3.21-1.1-.58-1.19-.09-2.62,1.1-3.21,1.19-.58,2.63-.09,3.21,1.1"/>
        <path class="cls-4" d="M222.67,384.24c-8.43,0-16.31-4.01-22.21-11.46-14.69-18.57-5.41-46.47,2.05-68.89,1.48-4.45,2.88-8.65,3.95-12.41,3.72-13.03,7.28-25.81,9.87-38.88,9.52-48.09,2.12-82.5-21.99-102.27-1.1-.9-1.26-2.52-.36-3.61.9-1.1,2.52-1.26,3.62-.36,25.69,21.07,33.69,57.15,23.78,107.25-2.63,13.26-6.22,26.15-9.97,39.29-1.1,3.87-2.52,8.12-4.02,12.62-7.07,21.25-15.86,47.69-2.89,64.08,5.9,7.46,14.13,10.77,22.57,9.07,9.52-1.91,17.55-9.83,20.45-20.17.38-1.37,1.8-2.17,3.17-1.78,1.37.38,2.16,1.8,1.78,3.17-3.42,12.19-12.99,21.54-24.39,23.82-1.82.36-3.62.54-5.4.54"/>
        <path class="cls-4" d="M277.41,384.24c-1.78,0-3.59-.18-5.4-.54-11.4-2.29-20.97-11.64-24.39-23.82-.38-1.37.41-2.78,1.78-3.17,1.37-.39,2.78.41,3.17,1.78,2.9,10.35,10.93,18.27,20.45,20.17,8.44,1.69,16.67-1.61,22.57-9.07,12.96-16.39,4.17-42.83-2.89-64.08-1.5-4.5-2.91-8.75-4.02-12.62-3.76-13.15-7.35-26.04-9.97-39.29-9.91-50.1-1.91-86.18,23.78-107.25,1.1-.9,2.71-.74,3.61.36.9,1.1.74,2.72-.36,3.61-24.11,19.77-31.51,54.18-21.99,102.27,2.58,13.06,6.14,25.84,9.87,38.88,1.07,3.76,2.47,7.96,3.95,12.41,7.46,22.42,16.74,50.32,2.05,68.89-5.89,7.45-13.78,11.46-22.21,11.46"/>
        <path class="cls-4" d="M250.09,402.18c-13.75,0-25.87-7.89-30.14-19.64-.49-1.33.2-2.81,1.54-3.29,1.34-.49,2.81.2,3.29,1.54,3.53,9.73,13.71,16.26,25.31,16.26s21.77-6.53,25.31-16.26c.49-1.33,1.96-2.02,3.29-1.54,1.33.48,2.02,1.96,1.54,3.29-4.27,11.75-16.38,19.64-30.14,19.64"/>
        <path class="cls-4" d="M250.21,365.75c-1.42,0-2.57-1.15-2.57-2.57v-28.95c0-1.42,1.15-2.57,2.57-2.57s2.57,1.15,2.57,2.57v28.95c0,1.42-1.15,2.57-2.57,2.57"/>
        <path class="cls-4" d="M250.17,342.41h0c-1.42,0-2.57-1.16-2.56-2.57h0c0-2.74-.88-4.95-2.71-6.78-5.35-5.36-17.08-5.78-20.55-5.78-1.06,0-1.7.03-1.73.04-1,.05-1.94-.47-2.41-1.35-.47-.88-.39-1.95.21-2.75.46-.62,11.44-15.07,29.19-15.07,10.3,0,20.63,4.89,30.71,14.55.62.47,1.02,1.21,1.02,2.05,0,1.42-1.15,2.57-2.57,2.57l-.33-.02s-1.95-.22-4.73-.22c-7.82,0-20.94,1.66-20.96,12.77h0c0,1.42-1.15,2.57-2.57,2.57M228.33,322.28c6.02.41,15,1.93,20.2,7.15l1.47,1.71c3.57-5.58,11.02-8.8,21.64-9.16-7.4-5.77-14.79-8.69-22.05-8.69-9.59,0-17.06,5.17-21.27,8.99"/>
        <path class="cls-4" d="M246.5,208.85c0-1.52,1.23-2.75,2.75-2.75s2.75,1.23,2.75,2.75-1.23,2.75-2.75,2.75-2.75-1.23-2.75-2.75"/>
        <path class="cls-4" d="M247.15,201.58c0-1.17.95-2.11,2.11-2.11s2.11.95,2.11,2.11-.95,2.11-2.11,2.11-2.11-.95-2.11-2.11"/>
        <path class="cls-4" d="M247.54,195.26c0-.95.77-1.72,1.72-1.72s1.72.77,1.72,1.72-.77,1.72-1.72,1.72-1.72-.77-1.72-1.72"/>
        <rect class="cls-4" x="248.4" y="188.98" width="1.71" height="1.71" transform="translate(-61.23 231.85) rotate(-45)"/>
        <path class="cls-4" d="M249.58,290.56c-1.42,0-2.57-1.15-2.57-2.57v-65.56c0-1.42,1.15-2.57,2.57-2.57s2.57,1.15,2.57,2.57v65.56c0,1.42-1.15,2.57-2.57,2.57"/>
        <path class="cls-4" d="M240.15,279.12c-1.42,0-2.57-1.15-2.57-2.57v-42.68c0-1.42,1.15-2.57,2.57-2.57s2.57,1.15,2.57,2.57v42.68c0,1.42-1.15,2.57-2.57,2.57"/>
        <path class="cls-4" d="M260.02,279.12c-1.42,0-2.57-1.15-2.57-2.57v-42.68c0-1.42,1.15-2.57,2.57-2.57s2.57,1.15,2.57,2.57v42.68c0,1.42-1.15,2.57-2.57,2.57"/>
        <path class="cls-4" d="M249.58,167.73c-1.42,0-2.57-1.15-2.57-2.57v-65.56c0-1.42,1.15-2.57,2.57-2.57s2.57,1.15,2.57,2.57v65.56c0,1.42-1.15,2.57-2.57,2.57"/>
        <path class="cls-4" d="M240.15,156.29c-1.42,0-2.57-1.15-2.57-2.57v-42.68c0-1.42,1.15-2.57,2.57-2.57s2.57,1.15,2.57,2.57v42.68c0,1.42-1.15,2.57-2.57,2.57"/>
        <path class="cls-4" d="M260.02,156.29c-1.42,0-2.57-1.15-2.57-2.57v-42.68c0-1.42,1.15-2.57,2.57-2.57s2.57,1.15,2.57,2.57v42.68c0,1.42-1.15,2.57-2.57,2.57"/>
        <path class="cls-4" d="M196.48,78.33c2.6-.07,4.65-2.23,4.59-4.83-.07-2.6-2.23-4.65-4.83-4.59-2.6.07-4.65,2.23-4.58,4.83.07,2.6,2.23,4.65,4.83,4.59"/>
        <path class="cls-4" d="M205.75,68.27c2.04-.05,3.65-1.75,3.6-3.79-.05-2.04-1.75-3.65-3.79-3.6-2.04.05-3.65,1.75-3.6,3.79.05,2.04,1.75,3.65,3.79,3.59"/>
        <path class="cls-4" d="M215.74,60.82c1.47-.04,2.62-1.26,2.59-2.73-.04-1.47-1.26-2.62-2.73-2.59-1.46.04-2.62,1.26-2.59,2.73.04,1.47,1.26,2.62,2.73,2.59"/>
        <path class="cls-4" d="M225.61,57.21c1.08-.03,1.93-.92,1.9-2-.03-1.08-.92-1.93-2-1.9-1.08.03-1.93.92-1.9,2,.03,1.08.93,1.93,2,1.9"/>
        <path class="cls-4" d="M234.59,55.87c.84-.02,1.51-.72,1.49-1.56-.02-.84-.72-1.51-1.57-1.49s-1.51.72-1.48,1.56c.02.84.72,1.51,1.56,1.49"/>
        <rect class="cls-4" x="241.2" y="53.94" width="1.7" height="1.7" transform="translate(35.76 192.75) rotate(-46.53)"/>
        <path class="cls-4" d="M221.75,372.39c-.46-1.47-2.02-2.3-3.5-1.85-1.48.46-2.3,2.02-1.85,3.5.46,1.48,2.02,2.3,3.5,1.85,1.47-.46,2.3-2.02,1.85-3.5"/>
        <path class="cls-4" d="M214.51,368.71c-.36-1.16-1.59-1.81-2.74-1.45-1.16.36-1.81,1.59-1.45,2.74.36,1.16,1.59,1.8,2.74,1.45,1.16-.36,1.8-1.59,1.45-2.74"/>
        <path class="cls-4" d="M208.65,364.19c-.26-.83-1.14-1.3-1.97-1.04-.83.26-1.3,1.14-1.04,1.97.26.83,1.14,1.3,1.97,1.04.83-.26,1.3-1.14,1.04-1.97"/>
        <rect class="cls-4" x="203.09" y="358.65" width="1.64" height="1.64" transform="translate(-209.2 371.4) rotate(-62.09)"/>
        <polygon class="cls-4" points="202.8 354.21 201.67 353.62 201.07 354.75 202.21 355.35 202.8 354.21"/>
        <rect class="cls-4" x="200.48" y="349.62" width="1.01" height="1.01" transform="translate(-202.45 364.88) rotate(-62.24)"/>
        <path class="cls-4" d="M277.43,372.39c.46-1.47,2.02-2.3,3.5-1.85,1.48.46,2.3,2.02,1.85,3.5-.46,1.48-2.02,2.3-3.5,1.85-1.48-.46-2.3-2.02-1.85-3.5"/>
        <path class="cls-4" d="M284.67,368.71c.36-1.16,1.59-1.81,2.74-1.45,1.16.36,1.81,1.59,1.45,2.74-.36,1.16-1.59,1.8-2.74,1.45-1.16-.36-1.81-1.59-1.45-2.74"/>
        <path class="cls-4" d="M290.53,364.19c.26-.83,1.14-1.3,1.97-1.04.83.26,1.3,1.14,1.04,1.97-.26.83-1.14,1.3-1.97,1.04-.83-.26-1.3-1.14-1.04-1.97"/>
        <rect class="cls-4" x="294.46" y="358.65" width="1.64" height="1.64" transform="translate(-133.83 179.82) rotate(-27.88)"/>
        <rect class="cls-4" x="296.61" y="353.84" width="1.28" height="1.28" transform="translate(-131.16 179.89) rotate(-27.85)"/>
        <rect class="cls-4" x="297.69" y="349.61" width="1.01" height="1.01" transform="translate(-128.76 179.21) rotate(-27.76)"/>
        <path class="cls-4" d="M303.41,78.11c-2.51-.07-4.48-2.15-4.42-4.66.07-2.51,2.15-4.48,4.66-4.42,2.51.07,4.48,2.15,4.42,4.66-.07,2.5-2.15,4.48-4.66,4.42"/>
        <path class="cls-4" d="M294.47,68.42c-1.97-.05-3.52-1.69-3.47-3.65.05-1.97,1.69-3.52,3.65-3.47,1.97.05,3.52,1.69,3.47,3.65-.05,1.97-1.69,3.52-3.65,3.47"/>
        <path class="cls-4" d="M284.84,61.23c-1.41-.04-2.53-1.21-2.49-2.63.04-1.41,1.21-2.53,2.63-2.49,1.41.04,2.53,1.21,2.49,2.62-.04,1.41-1.21,2.53-2.63,2.49"/>
        <path class="cls-4" d="M275.34,57.76c-1.04-.03-1.86-.89-1.83-1.93.03-1.04.89-1.86,1.93-1.83,1.04.03,1.86.89,1.83,1.93-.03,1.04-.89,1.86-1.93,1.83"/>
        <path class="cls-4" d="M266.69,56.46c-.81-.02-1.45-.7-1.43-1.51.02-.81.69-1.45,1.51-1.43.81.02,1.45.7,1.43,1.51-.02.81-.7,1.45-1.51,1.43"/>
        <rect class="cls-4" x="258.67" y="54.6" width="1.64" height="1.64" transform="translate(33.01 193.68) rotate(-43.46)"/>
        <path class="cls-4" d="M414.24,211.91c-1.3-2.04-.7-4.76,1.34-6.06,2.04-1.3,4.75-.7,6.06,1.34,1.3,2.04.7,4.75-1.34,6.06-2.04,1.3-4.75.7-6.06-1.34"/>
        <path class="cls-4" d="M417.18,199.51c-1.02-1.6-.55-3.73,1.05-4.75s3.73-.55,4.75,1.05c1.02,1.6.55,3.73-1.05,4.75-1.6,1.02-3.73.55-4.75-1.05"/>
        <path class="cls-4" d="M417.73,187.92c-.73-1.15-.39-2.68.76-3.41,1.15-.73,2.68-.4,3.41.75.73,1.15.39,2.68-.76,3.41-1.15.73-2.68.39-3.41-.76"/>
        <path class="cls-4" d="M415.38,178.43c-.54-.85-.29-1.97.55-2.51.85-.54,1.97-.29,2.51.55.54.85.29,1.97-.56,2.51-.85.54-1.97.29-2.51-.55"/>
        <rect class="cls-4" x="411.93" y="169.04" width="2.01" height="2.01" transform="translate(157.8 536.56) rotate(-77.54)"/>
        <polygon class="cls-4" points="407.75 165.08 408.09 163.53 409.64 163.88 409.29 165.42 407.75 165.08"/>
        <path class="cls-4" d="M85.48,211.91c1.3-2.04.7-4.76-1.34-6.06-2.04-1.3-4.75-.7-6.05,1.34-1.3,2.04-.7,4.75,1.34,6.06,2.04,1.3,4.75.7,6.06-1.34"/>
        <path class="cls-4" d="M82.54,199.51c1.02-1.6.55-3.73-1.05-4.75s-3.73-.55-4.75,1.05c-1.02,1.6-.55,3.73,1.05,4.75,1.6,1.02,3.73.55,4.75-1.05"/>
        <path class="cls-4" d="M81.99,187.92c.73-1.15.4-2.68-.75-3.41-1.15-.73-2.68-.4-3.41.75-.73,1.15-.39,2.68.76,3.41,1.15.73,2.68.39,3.41-.76"/>
        <path class="cls-4" d="M84.34,178.43c.54-.85.29-1.97-.56-2.51-.84-.54-1.97-.29-2.51.55-.54.85-.29,1.97.56,2.51.85.54,1.97.29,2.51-.55"/>
        <rect class="cls-4" x="85.78" y="169.04" width="2.01" height="2.01" transform="translate(-34.89 22.93) rotate(-12.55)"/>
        <rect class="cls-4" x="90.24" y="163.69" width="1.58" height="1.58" transform="translate(-33.37 23.53) rotate(-12.47)"/>
        <path class="cls-4" d="M160.9,224.62c-.21,2.41,1.58,4.54,3.99,4.74,2.41.21,4.54-1.58,4.74-3.99.21-2.41-1.58-4.54-3.99-4.75-2.41-.21-4.54,1.58-4.74,4"/>
        <path class="cls-4" d="M169.24,234.24c-.16,1.89,1.24,3.56,3.13,3.72s3.56-1.24,3.72-3.13-1.24-3.56-3.13-3.72c-1.89-.16-3.56,1.24-3.72,3.13"/>
        <path class="cls-4" d="M175.1,244.26c-.12,1.36.89,2.56,2.25,2.67,1.36.12,2.56-.89,2.67-2.25.12-1.36-.89-2.56-2.25-2.67s-2.56.89-2.67,2.25"/>
        <path class="cls-4" d="M177.41,253.76c-.09,1,.66,1.88,1.65,1.96,1,.09,1.88-.65,1.97-1.65.09-1-.66-1.88-1.65-1.96-1-.09-1.88.65-1.96,1.65"/>
        <polygon class="cls-4" points="177.71 262.2 179.01 263.74 180.54 262.45 179.25 260.91 177.71 262.2"/>
        <rect class="cls-4" x="177.15" y="268.43" width="1.58" height="1.58" transform="translate(-131.49 177.58) rotate(-40.04)"/>
        <path class="cls-4" d="M337.38,224.62c.21,2.41-1.58,4.54-3.99,4.74-2.41.21-4.54-1.58-4.75-3.99-.21-2.41,1.58-4.54,3.99-4.75,2.41-.21,4.54,1.58,4.75,4"/>
        <path class="cls-4" d="M329.04,234.24c.16,1.89-1.24,3.56-3.13,3.72-1.89.16-3.56-1.24-3.72-3.13-.16-1.89,1.24-3.56,3.13-3.72,1.89-.16,3.56,1.24,3.72,3.13"/>
        <path class="cls-4" d="M323.18,244.26c.12,1.36-.89,2.56-2.25,2.67-1.36.12-2.56-.89-2.67-2.25-.12-1.36.89-2.56,2.25-2.67,1.36-.12,2.56.89,2.67,2.25"/>
        <path class="cls-4" d="M320.87,253.76c.09,1-.65,1.88-1.65,1.96-1,.09-1.88-.65-1.96-1.65-.09-1,.65-1.88,1.65-1.96,1-.09,1.88.65,1.96,1.65"/>
        <rect class="cls-4" x="318.14" y="261.32" width="2.01" height="2.01" transform="translate(-87.12 337.25) rotate(-49.87)"/>
        <rect class="cls-4" x="319.55" y="268.43" width="1.58" height="1.58" transform="translate(-91.86 341.28) rotate(-49.96)"/>
        <path class="cls-4" d="M40.55,161.59l-.34-.02c-.8-.11-19.71-2.82-39.44-22.32-.77-.77-.98-1.94-.52-2.92.37-.78,9.2-19.24,29.08-36.47,18.37-15.93,49.97-33.61,96.21-27.41,1.41.19,2.39,1.48,2.21,2.89-.19,1.41-1.49,2.39-2.89,2.2-35.6-4.78-66.6,4.04-92.16,26.2-15.75,13.66-24.39,28.36-26.97,33.17,18.03,17.12,34.99,19.55,35.16,19.57,1.41.19,2.39,1.48,2.21,2.89-.17,1.29-1.27,2.23-2.54,2.23"/>
        <path class="cls-4" d="M97.78,169.97c-1.24,0-2.33-.89-2.53-2.15-.23-1.4.72-2.72,2.12-2.95,24.33-4.01,41.04-14.91,41.21-15.02,1.18-.79,2.78-.46,3.56.72.78,1.18.46,2.78-.73,3.56-.71.47-17.8,11.62-43.2,15.81l-.42.04Z"/>
        <path class="cls-4" d="M459.45,161.59c-1.27,0-2.37-.94-2.54-2.23-.19-1.4.8-2.69,2.2-2.88.17-.03,17.22-2.55,35.17-19.57-2.6-4.83-11.31-19.64-27.12-33.3-25.53-22.06-56.49-30.84-92-26.07-1.4.18-2.7-.8-2.89-2.2-.19-1.41.8-2.7,2.21-2.89,46.23-6.21,77.84,11.48,96.21,27.41,19.88,17.24,28.71,35.7,29.08,36.47.47.99.26,2.16-.52,2.92-19.73,19.5-38.65,22.21-39.44,22.32l-.34.02Z"/>
        <path class="cls-4" d="M402.22,169.97l-.42-.04c-25.4-4.19-42.49-15.34-43.2-15.81-1.18-.78-1.51-2.37-.73-3.56.78-1.18,2.37-1.51,3.56-.73.17.11,16.94,11.03,41.21,15.02,1.4.23,2.35,1.55,2.12,2.95-.21,1.26-1.3,2.15-2.53,2.15"/>
        <path class="cls-4" d="M409.93,277.41l-2.05-1.02c-.06-.08-6.5-8.39-17.75-10.06-1.4-.21-2.37-1.52-2.17-2.92.21-1.41,1.53-2.37,2.92-2.17,13.41,1.99,20.8,11.65,21.11,12.05.85,1.13.63,2.74-.51,3.6l-1.54.52Z"/>
        <path class="cls-4" d="M395.18,286.02l-2.05-1.02c-.08-.11-4.53-5.78-12.25-6.93-1.4-.21-2.37-1.51-2.16-2.92.21-1.41,1.52-2.37,2.92-2.16,9.9,1.47,15.37,8.61,15.6,8.92.85,1.13.63,2.74-.51,3.59l-1.54.52Z"/>
        <path class="cls-4" d="M420.83,268.5c-.87,0-1.71-.44-2.19-1.23-.28-.44-6.62-10.48-21.31-12.79-1.4-.22-2.36-1.54-2.14-2.94.22-1.4,1.54-2.36,2.94-2.14,17.15,2.7,24.6,14.69,24.9,15.2.74,1.21.35,2.79-.87,3.53l-1.33.37Z"/>
        <path class="cls-4" d="M432.55,257.81c-.87,0-1.71-.44-2.2-1.23h0c-.08-.13-8.28-13.18-26.75-16.08-1.4-.22-2.36-1.54-2.14-2.94.22-1.4,1.54-2.36,2.94-2.14,20.92,3.29,29.97,17.87,30.34,18.49.73,1.21.35,2.79-.87,3.53l-1.33.37Z"/>
        <path class="cls-4" d="M442.29,246.51c-.87,0-1.72-.44-2.2-1.23-.13-.22-10.23-16.25-32.92-19.82-1.4-.22-2.36-1.54-2.14-2.94.22-1.4,1.55-2.36,2.94-2.14,25.18,3.96,36.06,21.48,36.51,22.23.73,1.21.35,2.79-.87,3.53l-1.33.37Z"/>
        <path class="cls-4" d="M91.4,278.67l-1.51-.49c-1.15-.83-1.41-2.44-.57-3.59.3-.41,7.4-10.01,20.43-11.88,1.42-.2,2.71.77,2.91,2.18.2,1.41-.77,2.7-2.18,2.91-10.91,1.56-16.94,9.73-17,9.81l-2.08,1.06Z"/>
        <path class="cls-4" d="M105.77,287.39l-1.51-.49c-1.15-.83-1.41-2.44-.57-3.59.22-.3,5.49-7.43,15.13-8.81,1.41-.19,2.71.77,2.91,2.18.2,1.41-.77,2.71-2.18,2.91-7.51,1.08-11.66,6.68-11.7,6.74l-2.08,1.06Z"/>
        <path class="cls-4" d="M80.76,269.68l-1.29-.35c-1.23-.72-1.64-2.29-.93-3.51.3-.51,7.42-12.44,24.09-14.99,1.4-.21,2.71.75,2.93,2.15.21,1.4-.75,2.71-2.15,2.93-14.27,2.18-20.36,12.39-20.42,12.49-.48.82-1.34,1.28-2.22,1.28"/>
        <path class="cls-4" d="M69.31,258.91l-1.29-.35c-1.23-.71-1.64-2.29-.93-3.51.36-.62,9.02-15.12,29.33-18.22,1.4-.21,2.71.75,2.93,2.15.21,1.4-.75,2.71-2.15,2.93-17.9,2.73-25.59,15.6-25.66,15.73-.48.82-1.34,1.27-2.22,1.27"/>
        <path class="cls-4" d="M59.77,247.55l-1.27-.34c-1.23-.71-1.66-2.28-.95-3.51.42-.74,10.61-18.11,34.71-21.74,1.38-.22,2.71.75,2.92,2.16.21,1.41-.76,2.71-2.16,2.92-21.67,3.26-30.92,19.05-31.01,19.21-.48.83-1.34,1.29-2.23,1.29"/>
        <path class="cls-4" d="M484.49,134.95c-.83,0-1.65-.41-2.15-1.16-21.7-32.92-64.32-45.04-64.75-45.16-1.37-.38-2.17-1.79-1.79-3.16.38-1.37,1.8-2.17,3.16-1.79,1.82.51,44.92,12.77,67.67,47.28.78,1.18.45,2.78-.73,3.56l-1.41.42Z"/>
        <path class="cls-4" d="M19.7,134.95l-1.41-.42c-1.18-.78-1.51-2.37-.73-3.56,22.74-34.52,65.84-46.78,67.67-47.28,1.37-.38,2.78.42,3.16,1.79.38,1.37-.42,2.78-1.79,3.16-.43.12-43.09,12.29-64.75,45.16-.49.75-1.31,1.16-2.15,1.16"/>
        <path class="cls-4" d="M312.24,57.91c-3.37,0-6.69-.99-9.57-2.94-.88-.6-1.11-1.8-.51-2.68.6-.88,1.8-1.11,2.68-.51,3.96,2.69,8.81,3.04,13.29.96,4.74-2.2,8.01-6.71,8.55-11.78.71-6.64-3.67-12.06-8.32-14.47-4.91-2.55-9.99-2.02-13.94,1.43-2.56,2.24-3.6,5.96-2.58,9.26.77,2.5,3.91,5.56,6.79,5.77,2.02.13,4.26-1.36,5.19-3.51.5-1.17.77-2.87-.84-4.34l-2.04-.25-.61.68c-.13,1.05-1.08,1.81-2.15,1.68-1.06-.13-1.81-1.09-1.68-2.14.21-1.79,1.35-3.18,3.1-3.83,2.04-.75,4.49-.33,5.98,1.02,2.48,2.27,3.15,5.53,1.78,8.71-1.56,3.64-5.37,6.09-9,5.83-4.63-.33-9.01-4.65-10.2-8.47-1.47-4.73.03-10.08,3.72-13.3,5.13-4.49,11.96-5.22,18.25-1.95,6.98,3.62,11.15,10.98,10.37,18.3-.68,6.41-4.8,12.11-10.76,14.87-2.42,1.12-4.98,1.68-7.5,1.68"/>
        <path class="cls-4" d="M283.05,44.34c-2.22,0-4.44-.4-6.58-1.23-.99-.38-1.49-1.5-1.11-2.49.38-.99,1.51-1.49,2.49-1.11,4.9,1.89,10.15,1.06,14.42-2.28,4.5-3.52,6.87-9.14,6.19-14.69-.9-7.27-6.9-11.95-12.46-13.37-5.87-1.5-11.17.32-14.53,5-2.19,3.05-2.37,7.3-.45,10.59,1.46,2.49,5.59,5,8.75,4.5,2.25-.36,4.29-2.55,4.75-5.11.21-1.15.22-3.28-2.03-4.55l-2.38.24-.55,1.02c.11,1.06-.65,2.01-1.71,2.12-1.03.11-2.01-.65-2.12-1.71-.2-1.87.62-3.57,2.26-4.65,1.91-1.27,4.55-1.42,6.4-.38,3.12,1.75,4.59,4.96,3.94,8.59-.75,4.16-4.09,7.62-7.94,8.23-4.92.78-10.51-2.66-12.68-6.36-2.68-4.58-2.41-10.52.65-14.78,4.28-5.95,11.24-8.37,18.62-6.48,8.2,2.09,14.36,8.78,15.32,16.63.85,6.88-2.08,13.85-7.64,18.19-3.43,2.68-7.5,4.06-11.6,4.06"/>
        <path class="cls-4" d="M186.39,59.26c-3.7,0-7.4-1.13-10.65-3.34-5.84-3.98-9.21-10.74-8.81-17.66.46-7.9,6.17-14.97,14.22-17.59,7.24-2.36,14.34-.39,18.99,5.26,3.34,4.05,3.98,9.97,1.61,14.71-1.92,3.83-7.29,7.63-12.24,7.17-3.88-.36-7.44-3.6-8.45-7.7-.88-3.57.38-6.87,3.38-8.82,1.77-1.16,4.41-1.17,6.4-.04,1.71.98,2.64,2.62,2.56,4.5-.05,1.06-.93,1.89-2.01,1.84-1.06-.05-1.89-.95-1.84-2.01l-.62-.98c-.8-.46-1.89-.42-2.39-.08-2.17,1.41-2.02,3.53-1.74,4.67.62,2.52,2.8,4.58,5.07,4.79,3.19.3,7.15-2.48,8.44-5.06,1.7-3.4,1.25-7.64-1.14-10.53-3.66-4.45-9.07-5.92-14.82-4.05-5.45,1.78-11.14,6.84-11.57,14.15-.32,5.57,2.41,11.04,7.13,14.26,4.47,3.05,9.77,3.53,14.54,1.33.97-.45,2.11-.02,2.56.94.45.97.02,2.11-.94,2.56-2.45,1.13-5.06,1.69-7.67,1.69"/>
        <path class="cls-4" d="M216.93,44.29c-4.72,0-9.32-1.83-12.92-5.26-5.11-4.87-7.34-12.09-5.83-18.86,1.74-7.72,8.52-13.77,16.88-15.05,7.52-1.16,14.22,1.93,17.89,8.27,2.64,4.55,2.31,10.48-.8,14.78-2.52,3.47-8.45,6.34-13.24,5.09-3.77-.98-6.76-4.76-7.09-8.97-.29-3.67,1.49-6.72,4.76-8.16,1.94-.85,4.54-.44,6.32,1.01,1.53,1.24,2.19,3.01,1.8,4.86-.22,1.04-1.25,1.71-2.28,1.49-1.04-.22-1.71-1.24-1.49-2.28l-.45-1.07-2.34-.47c-2.37,1.04-2.57,3.16-2.47,4.33.21,2.59,2.02,4.97,4.22,5.55,3.08.81,7.45-1.29,9.14-3.62,2.23-3.08,2.47-7.33.59-10.58-2.89-4.98-7.98-7.31-13.97-6.4-5.66.87-12.1,4.95-13.7,12.09-1.22,5.45.59,11.28,4.72,15.22,3.92,3.74,9.07,5.08,14.13,3.68,1.02-.28,2.08.32,2.37,1.34.28,1.03-.32,2.09-1.34,2.37-1.62.45-3.26.67-4.89.67"/>
        <path class="cls-4" d="M249.88,39.04h-.04c-6.53-.14-12.42-3.69-15.75-9.51-3.5-6.13-3.57-13.69-.18-19.74,3.87-6.9,12.1-10.76,20.48-9.59,7.54,1.05,13.07,5.93,14.77,13.05,1.22,5.11-.79,10.7-5,13.93-3.41,2.6-9.9,3.66-14.15,1.08-3.33-2.02-5.11-6.49-4.22-10.63.77-3.6,3.35-6.01,6.9-6.46,2.11-.26,4.48.88,5.78,2.78,1.11,1.62,1.23,3.51.33,5.17-.51.94-1.68,1.28-2.61.77-.93-.51-1.28-1.68-.78-2.61l-.13-1.16-2.11-1.12c-2.57.32-3.36,2.29-3.61,3.44-.54,2.54.51,5.35,2.46,6.53,2.73,1.66,7.51.9,9.8-.85,3.02-2.31,4.47-6.32,3.59-9.97-1.34-5.61-5.55-9.3-11.56-10.13-5.68-.79-13.01,1.27-16.59,7.66-2.73,4.87-2.67,10.98.17,15.94,2.69,4.7,7.24,7.46,12.48,7.57,1.07.03,1.91.9,1.89,1.97-.02,1.05-.88,1.89-1.93,1.89"/>
        <path class="cls-4" d="M202.31,88.4l-1.21-.43c-.83-.67-.95-1.88-.28-2.71.62-.77,15.22-18.41,42.27-18.41l1.45.02c1.07.02,1.91.91,1.88,1.97-.02,1.05-.88,1.88-1.93,1.88h-.05c-26.06-.59-40.49,16.79-40.63,16.96l-1.5.71Z"/>
        <path class="cls-4" d="M213.78,91.67l-1.13-.37c-.86-.63-1.05-1.83-.42-2.69.37-.51,9.28-12.44,26.8-12.9,1.05-.04,1.95.81,1.98,1.88.03,1.06-.81,1.95-1.88,1.98-15.65.42-23.71,11.22-23.79,11.32l-1.56.79Z"/>
        <path class="cls-4" d="M300.51,88.4l-1.5-.71c-.16-.19-14.14-16.98-39.32-16.98l-1.32.02h-.05c-1.04,0-1.9-.83-1.92-1.88-.03-1.07.82-1.95,1.88-1.97,28.01-.65,43.09,17.61,43.72,18.39.67.83.54,2.04-.29,2.71l-1.21.43Z"/>
        <path class="cls-4" d="M289.04,91.67l-1.56-.79c-.11-.15-8.26-10.91-23.79-11.33-1.06-.03-1.9-.92-1.87-1.98.03-1.07.93-1.91,1.98-1.88,17.52.47,26.43,12.4,26.8,12.9.63.86.44,2.06-.42,2.69l-1.13.37Z"/>
      </g>
    </g>
  </g>
</svg>