<?xml version="1.0" encoding="UTF-8"?>
<svg id="Layer_1" xmlns="http://www.w3.org/2000/svg" version="1.1" viewBox="0 0 288 270.78">
  <!-- Generator: Adobe Illustrator 30.5.1, SVG Export Plug-In . SVG Version: 2.1.4 Build 3)  -->
  <path d="M261,25.81C241.42,6.28,193.53-.98,134.77.1,25.56,2.11,7.09,56.64,3.04,77.79c-4.05,21.16-4.95,64.43,2.94,82.71,8.35,19.32,26.26,29.13,36.38,33.22-13.48-.83-24.81,9.96-29.11,23.01-5.39,16.38,4.95,42.8,32.2,46.2,27.22,3.39,43.62-14.24,45.7-15.05,2.08-.81,4.08,5.88,9,9.6,9.61,7.27,11.04,10.38,39.08,10.9,27.39.51,35.24-14.91,36.74-15.83,1.5-.92,5.15,6.08,12.12,10.69,10.73,7.09,22.02,7.66,31.51,7.52,12.27-.19,34.08-3.68,41.7-23.92,10.07-26.77-16.04-41.38-13.16-43.78,6.23-5.19,11.49-9.8,18.37-19.57,8.66-12.28,20.25-29.59,21.29-67.82,1.19-43.97-2.44-65.57-26.8-89.86ZM75.35,247.57c-16.57,11.34-30.11,9.38-42.75.77-13.25-9.04-12.02-21.02-11.95-23.66.23-8.65,10.76-22.09,20.49-22.3,10.5-.23,13.27,4.86,14.16,10.61.94,6.12-3.66,7.65-4.42,7.96-.77.31-9.82-.29-9.62,6.18.23,7.35,11.19,10.42,20.3,5.82,7.89-3.98,9.25-13.44,9.79-16.61.69-4.05-1.68-11.15-.29-12.03.74-.47,8.66.38,10.04.54,1.38.15,8.43,1,9.58,2.37,1.15,1.38,2.91,27.87-15.32,40.36ZM58.44,204.81c1.53-.72,4.52-.43,6.27,1.76,2.73,3.42,1.94,8.86,1.43,10.95-2.86,11.68-10.89,9.3-9.91,8.07,3.9-4.89,8.41-11.23,2.22-20.77ZM168.05,248.01c-2.41,2.86-9.87,9.99-28.65,9.51-11.72-.3-22.49-1.39-32.16-7.06-9.67-5.67-9.01-14.21-9.02-18.58,0-4.79,3.02-16.34,3.49-21.5.13-1.49,21.83-.55,23.37.13.84.37-.13,8.14.52,12.07.58,3.48,0,11.41,14.67,12.2,14.28.76,15.45-11.94,16.05-18.6.12-1.31,15.87-1.86,17.19-.22,1.3,1.62-1.55,27.41-5.45,32.05ZM133.9,211.8c5.03-.39,12.59-.13,14.93,1.43,2.52,1.68,2.33,4.6,1.82,7.4-.52,2.85-1.52,5.31-4.41,6.49-2.51,1.02-6.06,1.34-9.22.13-1.24-.48-3.69-2.86-3.76-3.89-.19-2.42-.39-3-.39-5.32,0-1.49-1.05-6.07,1.04-6.23ZM253.82,240.7c-2.18,8.49-12.83,19.42-31.42,20.16-18.59.74-32.44-2.32-36.72-13.1-3.42-8.62-1.2-27.03-.37-31.42.28-1.49,21.01-1.29,21.85-.91.84.37.3,5.58.48,8.18.16,2.27-.58,11.52,5.47,17.46,6.04,5.95,17.2,3.16,20.91,0,3.72-3.16,6.88-8.08,4.18-11.24-2.7-3.16-9.02-1.21-10.6-2.14-1.58-.93-1.64-10.71.39-12,3.03-1.93,13.96-4.06,15.5-2.97,10.72,7.58,12.92,17.85,10.32,27.98ZM214.5,216.08c1.93-.35,5.58-1.12,5.67-.28.09.84.1,8.21.28,10.59.56,7.47,12.17,6.48,9.65,8.9-3.38,3.24-13.24,2.6-15.13-5.36-.75-3.14-1.49-13.66-.46-13.84ZM217.85,200.99c-37.37,10.85-157.44-6.45-180.37-22.84-29.77-21.28-25.29-41.48-26.31-71.29C8.26,21.61,88.85,10.66,141,10.66c49.16,0,69.24,2.42,99.01,16.61,28.12,13.4,33.57,37.25,35.66,59.18,3.46,36.34-6.58,99.66-57.81,114.54Z"/>
  <path d="M207.47,84.5c-.35-1.64-5.11-2.16-5.11.69,0,1.92,5.45.95,5.11-.69Z"/>
  <path d="M188.44,90.86c2.27-1.04,1.7-4.85-1.83-2.98-2.21,1.17-.71,4.15,1.83,2.98Z"/>
  <path d="M169.79,156.31c-1.73.8.31,4,2.31,2.88,1.99-1.13,1.09-4.45-2.31-2.88Z"/>
  <path d="M173.37,101.84c-1.95,2.02,1.62,5.2,3.51,3.09,1.8-2.01-1.23-5.45-3.51-3.09Z"/>
  <path d="M166.28,119.56c-2.81,1.97.62,6.03,2.24,4.52,2-1.86-.51-5.73-2.24-4.52Z"/>
  <path d="M165.2,138.01c-3.07-.05-2.23,5.01.16,4.67,2.22-.32,2.34-4.63-.16-4.67Z"/>
  <path d="M179.32,169.99c-.33,3.04,4.34,2.06,4-.41-.25-1.8-3.74-2.04-4,.41Z"/>
  <path d="M153.29,30.9c-19.57-.52-43.17-.11-65.6,7.79-30.3,10.66-47.08,43.35-47.08,75.61,0,29.87,11.62,49.47,29.88,58.53,19.45,9.64,52.86,19.51,107.04,16.56,45.89-2.49,64.34-39.49,68.66-53.96,4.21-14.15,10.62-30.65-.9-62.38-11.64-32.06-62.12-41.35-91.99-42.15ZM191.2,179.88c-8.66,2.42-18.03,5.84-52.97,2.42-31.85-3.11-60.41-8.48-78.24-29.41-15.21-17.86-10.27-50.13-9.86-51.35.41-1.22,3.5-.12,4.67.65,3.63,2.42,7.55-.3,10.21-1.73,4.64-2.49,7.1-7.63,7.62-7.27,3.38,2.34,4.35,2.86,7.27,5.98,2.39,2.54,5.33,5.9,6.58,8.39,1.82,3.63,1.59,6.24.87,14.02-.87,9.34-2.43,13.93,2.07,17.91,3.03,2.68,10.13,3.79,16.62-4.41,6.82-8.61,4.08-23.45,5.19-28.55.88-4.03,10.23-4.63,19.39-16.61,5.11-6.68,4.76-15.92,5.28-16.7.52-.78,3.93,4.89,5.02,7.01,1.82,3.55.8,6.4-2.32,10.82-3.12,4.41-15.62,10.38-20.82,22.52-6.49,15.14-3.07,27.9-1.09,30.94,3.09,4.75,7.79,6.83,9.09,5.02,1.3-1.82-3.02-7.06-4.14-10-1.18-3.09-1.28-10.79-.15-16.76,2.12-11.24,12.12-18.55,20.02-25.57,9.35-8.31,7.21-17.74,4.48-22.56-5.02-8.86-10.55-8.82-11.55-12.14-1.11-3.66,35.49-1.47,56.43,5.28,18.39,5.92,25.36,23.01,26.14,25.95.15.56-6.23.59-12.12,2.25-8.91,2.51-19.39,7.44-25.1,19.21-5.76,11.87-5.71,26-1.39,36.16,6.92,16.27,25.79,21.67,25.79,22.32s-6.44,4.4-12.98,6.23ZM103.14,105.35c-3.05,1.56-6.07,1.17-8.95-.27-1.49-.74-3.12-1.76-3.59-3.18-.47-1.42,9.56-4.81,10.57-5.01,1.02-.2,2.1.61,3.32,1.15,1.22.54,2.85-.88,3.66.27.81,1.15-1.97,5.49-5.02,7.05ZM102.73,127.78c-1.02,3.19-5.02,8.2-8.54,5.56-3.52-2.64-1.37-10.38-.75-12.81.54-2.1,1.56-6.78,2.17-7.25.61-.47,8.88-.95,9.22-.34.34.61-.88,11.04-2.1,14.84ZM102.93,86.18c-.69-3.75,5.85-1.59,12.34-4.4,8.13-3.52,9.79-8.41,11.52-7.79,2.1.75,2.51,8.2-.47,12.67-2.23,3.34-6.91,5.69-14.17,5.56-7.25-.14-8.61-2.71-9.22-6.03ZM125.3,66.19c-.27,1.29-5.83,9.15-20.07,12.81-14.24,3.66-24.4,1.08-25.62-3.39-1.17-4.3,20.47-11.25,29.62-13.08,7.3-1.46,14.47-.75,15.12-.47,1.9.81,1.22,2.85.95,4.13ZM95.95,86.11c1.29.07.81,2.71-.2,4.47-1.02,1.76-5.04,4.96-10.24,4.27-5.63-.74-7.05-6.65-6.57-8.54.2-.81,15.73-.27,17.01-.2ZM213.09,166.82c-.95,1.64-5.45,2.42-10.65.09-3.69-1.66-9.43-4.84-15.06-11.77-5.58-6.86-6.55-18.54-5.89-23.96,3.38-27.68,25.94-30.49,27.87-30.97,2.42-.61,8.91-2.25,9.26,1.73.15,1.7-9.98,2.4-16.79,6.49-3.89,2.34-13.48,6.92-15.41,23.7-2.25,19.64,14.02,28.55,19.39,30.71,3.27,1.32,7.97,2.78,7.27,3.98ZM197.34,124.34c-.78-.78,2.94-5.8,4.33-5.88,1.39-.09,1.3,4.41.87,5.28-.43.86-3.25,2.55-5.19.61ZM200.03,137.66c.03,1.21-.17,8.65-2.42,8.91-2.25.26-3.81-1.73-3.89-3.37-.09-1.64-.08-5.93.52-6.49,2.32-2.18,5.76-1.02,5.8.95ZM205.48,148.21c.78.43,1.99,4.41-.17,5.62-1.45.81-4.86-1.41-4.41-3.63.17-.87,3.81-2.42,4.59-1.99ZM206.26,139.48c-1.38,0-1.82-1.41-3.29-3.55-1.18-1.72-1.78-4.2-.61-5.88.62-.89,2.85-2.07,3.97-1.81,1.13.26,3.8,5.97,4.16,7.17.34,1.13-2.86,4.07-4.24,4.07ZM205.13,115.17c-.35-.95,2.6-2.94,4.24-3.29,1.64-.35,3.53.8,3.72,1.64.35,1.56-2.08,4.15-3.55,5.02-1.47.86-3.63-1.21-4.41-3.37ZM209.63,143.72c1.13-1.12,1.64-1.47,2.94-1.38,1.3.09,2.94,3.63,3.2,4.5.26.87-1.82,2.94-3.29,3.55-1.47.61-3.29-2.51-3.9-3.81-.61-1.3-.11-1.71,1.04-2.85ZM214.65,131.86c-1.3,0-1.88-1.39-2.94-3.29-1.21-2.16-2.25-3.81-1.3-4.59.95-.78,4.07-3.81,5.37-3.98s4.07,4.07,4.15,6.23c.09,2.16-3.98,5.62-5.28,5.62ZM218.72,156.17c-.2.67-3.46,1.38-4.76.95-1.3-.43.09-3.52,1.47-3.72,1.82-.26,3.55,1.9,3.29,2.77ZM222.51,138.48c-.19,1.88-.41,3.94-1.36,4.37-.95.43-2.34.61-3.38-.35-1.04-.95-.87-7.38,0-8.57.95-1.3,3.83-.99,4.15-.26.45,1.04.75,3.22.58,4.8ZM239.15,127.11c-2.6,12.8-12.87,33.6-14.24,32.57-1.97-1.47,5.33-20.47,4.03-43.64-.69-12.28,1.04-26.13-19.39-45.68-15.38-14.73-57.47-16.54-83.11-15.85-25.64.69-43.52,6.27-52.27,17.29-3.7,4.66-6.34,11.62-8.17,14.82-1.83,3.2-8.37,10.35-12.35,7.22-4.27-3.35-.77-10.92,1.52-15.96,2.29-5.03,16.4-42.82,93.97-39.35,23,1.03,77.69,6.92,88.45,39.62,7.88,23.92,3.27,40.54,1.56,48.97Z"/>
</svg>