<?xml version="1.0" encoding="UTF-8"?>
<svg id="Layer_1" data-name="Layer 1" xmlns="http://www.w3.org/2000/svg" xmlns:xlink="http://www.w3.org/1999/xlink" viewBox="0 0 488.64 499.18">
  <defs>
    <style>
      .cls-1 {
        fill: none;
      }

      .cls-2 {
        fill: #1f3d3a;
      }

      .cls-3 {
        clip-path: url(#clippath-1);
      }

      .cls-4 {
        clip-path: url(#clippath);
      }
    </style>
    <clipPath id="clippath">
      <rect class="cls-1" width="488.64" height="499.18"/>
    </clipPath>
    <clipPath id="clippath-1">
      <rect class="cls-1" width="488.64" height="499.18"/>
    </clipPath>
  </defs>
  <g id="Chestnut">
    <g class="cls-4">
      <g class="cls-3">
        <path class="cls-2" d="M232.88,14.65c1.55.92,3.19,1.83,4.43,3.16.36.38.45.52.92.77.49-.67.83-.63,1.3-1.1.08-.08.25-.75.28-.86.66-2.63,1.1-5.16,2.14-7.68,1.27-3.04,3.11-5.84,4.24-8.94,3.88,5.78,6.2,13.35,7.09,20.22,2.29-1.3,4.66-2.46,7.09-3.47-1.11,3.37-1.47,7.2-3.87,9.92l-.33.36.22-.05-.02.14c.7-.09,1.5-.35,2.16-.02,1.66,2.32,1.61.75,3.27,1.78.14.63.13,1.19.11,1.83,2.29-.55,6.48-6.28,8.03-8.15.55,3.01.27,8.8,2.35,11.11.44.49.99.77,1.66.72,1.46-.09,2.63-1.75,3.49-2.77-.5-.5-1.06-1.03-1.42-1.64-1.63-2.74-.8-7.9-.17-10.91,1.33,1.3,2.9,2.43,4.37,3.57,1.22-6.85,4.33-12.16,4.07-19.41,5.65,6.86,8.43,12.63,9,21.57,2.91-1.94,5.87-3.52,9.23-4.51-.44.6-.83,1.24-1.2,1.88-1.63,2.79-4.55,9.06-3.54,12.33.27.85.86,1.42,1.64,1.83,2.24,1.13,2.08-2.19,3.9-2.68.5-.12.31-.12.77.16-.26,1.05-.67,2.05-1.06,3.05,4.08-2.93,5.52-5.87,7.23-10.45.58,3.74,1.3,7.54,1.17,11.35-.03,1.19-.16,4.05-1.02,4.85l-.3-.27c-.27.22-.39.31-.63.6-.09.12-.69,1-.69,1.13.05,1.19,1.86,3.13,2.21,4.46.22.81.17,1.81.19,2.66,1.86-2.3,3.26-4.9,5.16-7.17-.33,1.74-.55,3.43-.69,5.2,2.24-3.05,3.46-6.62,5.45-9.8,1.17,2.35,2.44,5.73,5.01,6.78.67.02,1.08-.17,1.53-.69,2.25-2.58,2.52-5.98,5.63-8.72.08-.06.16-.12.22-.2.67,1.25,1.22,2.58,1.8,3.9,4.29-2.3,8.34-3.76,13.1-4.77-.55.42-1.08.86-1.6,1.33-4.24,3.83-4.85,8.55-5.1,13.94,1.49-.47,3.02-.78,4.54-1.11-1.16,2.83-2.47,5.46-4.1,8.04l-7.18,2.93c-.44-3.07-.89-6.09-1.52-9.14-1.85,3.18-3.66,6.4-5.43,9.62-2.21-2.16-4.54-3.79-7.14-5.43.66,3.77,1.71,7.04,3.9,10.17-1.3-.3-2.58-.66-3.88-1,2.16,1.67,6.32,3.51,7.81,5.57-.06.64-.36,2.04.02,2.5.39-.39.69-.77.99-1.24.5-.66.64-.94,1.47-1.08,2.97-.5,5.63-.74,8.36-2.18-1.22-.37-2.64-.64-3.69-1.39l.05-.3c.11-.03.2-.06.31-.11.59-.22,1.14-.75,1.64-1.14,2.93-2.41,3.21-5.18,4.57-6.39.31.38.56.77.81,1.19,1.03.14,3.55-1.94,4.71-2.39-.3.89-.64,1.78-.89,2.69.91,1.56,1.88,2.97,3.05,4.35,2.55-2.52,3.69-5.12,4.99-8.42,1.35,1.96,2.43,3.79,4.51,5.01l1.11.66.25-.3c1.24-1.47,2.3-4.54,4.07-5.13.91.5,1.1,1.32,1.42,2.25,3.51-5.49,4.76-11.35,5.68-17.7.77,3.07,1.75,6.1,2.28,9.23.47,2.75.47,5.77,1.11,8.47.19.78.8,1.42,1.3,2.03.11,1.52-2.93,3.44-2.19,4.65l.99.41c.17.45.24.81.25,1.3,1.35,1.31,5.63.91,7.42.88.19,0,.38,0,.57-.02-2.07,2.52-4.49,6.2-7.36,7.83-.95.55-2.19.39-3.16.91.13.17.27.31.38.48.41.6.45.73.27,1.41-.06.25-.16.48-.24.72.35.75.69,1.05,1.47,1.33,2.25.8,5.01.75,7.37.7-2.63,3.51-5.26,6.9-9.94,7.5-1.61.2-3.24.19-4.87.38l.09.26c.23.66.39,1.25.52,1.93.22,1.28.91,2.21,2.02,2.91.64.41,1.41.56,2.13.77,2.77.77,4.33,1.49,6.45,3.52-.27-1.88-.31-5.27.97-6.87.23-.28.23-.27.48-.45.56-.02.74-.05,1.16.39.31.33.58.82.81,1.21l.3.09c.72-3.05,1.14-6.23,2.66-9.01,1.44,4.9,3.63,8.89,6.92,12.77-.09-4.66.25-8.47,2.58-12.6,1.03,1.22,2.1,2.44,3.07,3.71,2.88-5.24,4.37-10.8,4.44-16.79,2.96,4.62,5.63,11.53,5.34,17.09-.09,1.77-.86,4.33-.52,6.01.2.99,1.17.5,1.53,2.94,2.41.5,5.26-.33,7.79-.12-2.68,3.13-8.28,10.25-12.39,10.56l-.42.03c-.74,3.74-.42,7.68-.11,11.46,1.14.92,1.99,1.67,2.61,3.04,2.03-1.49,2.69-3.63,4.35-5.42,1.67-1.8,4.4-2.89,6.59-3.98-.08,2.49-.05,5.05-.34,7.51,5.9-3.77,10.5-7.5,14.19-13.57.58,6.2-.3,11.02-2.57,16.76-.44,1.1-2.11,2.17-2.25,3.11.12.11.26.22.39.33,1.64,1.49,1.27,3.38,4.16,3.32,1.5-.03,3.08-.56,4.52-.94-2.46,2.6-5.24,6.09-8.56,7.57-1.82.82-3.86,1.27-5.76,1.93.17.44.38.77.59,1.17.35.63.28,1.32.27,2l.22.08c.5-.63.66-1.13,1.49-1.22,2.89,1.27,4.07,2.21,5.71,4.9,4.13-2.68,7.23-6.15,10.05-10.16.12,1.72.22,3.36-.06,5.09-.48,2.93-2.28,5.62-1.58,8.59-.48.64-1.63,1.39-1.85,2.07l1.19.27.17.31c-1.71,2.54-4.79,3.54-7.26,5.12.41,1.46.85,2.88,1.39,4.29,2.08,1.35,3.93,3.16,5.6,4.98,2.16-2.75,4.4-5.07,7.26-7.09.27,1.27.55,2.53.83,3.79,5.02-1,9.65-2.13,14.15-4.7-1.24,4.92-3.13,11.83-7.79,14.55-2.36,1.38-5.13,1.79-7.79,2.14,3.11,2.3,6.06,3.99,9.72,5.26-5.13.58-9.59,1.55-14.76.48.05,1,.23,2-.31,2.9-.53.44-1,.67-1.71.63-1.57-.08-3.12-.53-4.7-.63.8,1.39,1.83,3.47,3.46,3.96.78.24,3.83-.67,5.42-.58.33.02.64.03.97.06-1,1.24-2.1,2.47-3.01,3.79,2.52-.34,5.03-.67,7.58-.73l-1.85,4.95c5.07-1.14,7.68-3.32,13.3-3.4-.77,1.49-1.58,2.97-2.3,4.48,5.57,1.99,10.56,3.58,16.54,2.97-4.76,3.55-8.5,6.5-14.62,7,1.1.66,2.85,1.44,3.22,2.75.11.38-.05.55-.17.89-1.88,1.5-5.51,1.08-7.78.81-1.63-.19-3.33-.69-4.93-.8-.22.44-.14.41.03.86.38,1.03.94,1.57,1.92,2.04,1.02.48,2.44.7,3.19,1.56-.09.66-.17.56-.63.99-.16,0-.33.02-.49.02-.45.03-.7.08-1.1.34l-.17.38c.58.53,2.24.33,3.07.3,1.1-.05,2.18-.11,3.27-.2-.64,1.47-1.24,2.96-1.96,4.38,4.48-.75,8.56-1.31,13.11-.75-.61,2.25-1.02,4.47-1.08,6.82,3.35-1.21,5.99-1.63,9.55-1.21l-.6,2.64c4.27.61,8.65.88,12.9,1.63-1.85,1.27-3.74,2.75-5.74,3.77-1.13.58-3.04.72-3.93,1.52.36.38.74.66,1.17.95-.12.39,0,.27-.34.44-3.27,1.64-7.79,1.52-11.24.39-.72-.25-1.44-.52-2.16-.81.31,1.28,1.58,4.93,1.1,5.99-1.25.67-3.79-.2-5.1-.59-3.1-.94-5.92-2.6-8.73-4.13.63,2.6,1.2,5.21,1.77,7.82-3.96-.86-7.84-2.24-10.75-5.18-.95-.95-3.18-4.52-3.83-4.93-.44-.28-.91.17-1.27.41-1.19.77-2.99,2.24-3.22,3.72-.05.27-.05.69.16.89.59.61,2.8,1.02,3.69,1.3.92,1.14,4.07,3.63,3.99,4.82-.44.45-.83.78-1.38,1.13,1.24,1.36,2.5,2.71,3.6,4.19-.47,1.83-.85,3.07-2.22,4.45.14,1.03.22,2.1.45,3.12,3.66-1.27,7.37-2.57,11.17-3.38-.19,1.14-.59,2.47.02,3.54.39.7,1.08,1.11,1.86,1.24,3.07.48,7.75-2.3,10.33-3.8-3.35,7.37-9.14,13.88-16.87,16.76-.61.23-1.24.45-1.86.66,1.74.94,3.61,1.82,5.16,3.05-1.32.49-2.64.97-3.99,1.36-1.57.44-10.24,2.11-10.66,3.33-.19.55-.05,1.08.05,1.63.5.53,1.11.69,1.83.72,4.08.17,7.82-.99,11.13,2.3.58.56,1.1,1.22,1.57,1.88-1.14.66-2.24,1.28-3.46,1.78,3.82,4.19,7.7,9.39,13.88,9.73,2.02.11,3.9-.33,5.82-.83-6.64,4.07-12.79,5.01-20.41,3.19l-.56-.14.31,2.93c-3.9-1.47-7.33-3.22-10.74-5.63.3,2.24.55,4.49,1.02,6.7-5.62-.91-9.76-3.52-13.08-8.14-.72-1-1.44-2.08-2.02-3.18-.14,2.58-.34,5.18-.31,7.78-1.94-1.36-4.6-3.76-6.96-4.1-.61.22-.58.19-.88.75-.08,1.1.92,2.64.92,2.64h-.37c2.87,1.24,5.98,1.74,8.88,2.94l.64.26c-1.6.88-3.18,1.8-4.81,2.6,5.48,5.79,9.33,9.05,17.71,9.3.42.01.85.01,1.27.01-6.41,3.3-14.19,5.18-21.33,3.41.16,1.71.34,3.4.31,5.1-4.26-1.91-7.79-4.82-11.37-7.73-.17,2.43-.53,4.9-.57,7.32-4.32-2.52-8.79-5.51-12.54-8.79l.59,4.62c-2.19-.78-4.39-1.63-6.62-2.3-2.49,1.74-5.37,2.79-8.16,3.94,7.63,1.17,10.21,3.15,15.68,8.47-1.69.12-3.38.3-5.08.49,3.88,6.92,8,10.84,15.57,13.32-8.16,1.55-16.79-.85-23.73-5.15l-.05,3.77c-3.96-2.05-7.77-4.35-11.54-6.73-.11,2.39-.27,4.79-.47,7.17-3.73-2.11-7.39-3.99-11.47-5.4-2.8-3.3-4.95-6.9-6.98-10.7-.83,2.21-1.88,3.99-3.34,5.84-1.35-1.22-6.01-4.95-6.34-6.57-.22-1.1.33-1.72-.31-2.79-3.55.25-6.92,1.02-10.43,1.58-7.5,1.21-15.73.8-22.73-2.33-3.9-1.74-7.32-4.37-11.28-5.99-9.68,2.47-27.85,7.97-33.3,16.73-7.86,12.64.17,60.74,3.9,75.06,3.29,12.66,8.41,26.43,16.24,36.98,5.21,7.01,11.35,13.26,17.12,19.81,13.74,1.71,26.25,6.28,39.39,10.44,6.01,1.85,12.08,3.52,18.2,5.04,12.3,3.13,24.68,5.9,37.15,8.31l17.48,3.29c2.7.5,5.47.88,8.15,1.49l-1.68.52c-29.45-1.77-58.86-4.02-88.24-6.73-31.26-2.91-62.57-6.12-94.01-5.63-13.19.2-26.3,1.39-39.41,2.58-28.88,2.61-57.65,6.53-86.44,10.08-9.85,1.22-19.73,2.71-29.62,3.58v-.67s8.22-3.05,12.01-4.55c9.47-3.83,19.08-7.34,28.78-10.52,21.57-7.21,43.04-13.61,65.56-17.14,11.82-15.43,20.97-31.63,24.9-50.84,3.54-17.26,7.48-54.3,4.13-71.64-.8-4.15-2.35-8.25-4.71-11.77-6.85-10.27-18.68-16.51-30.56-18.83-2.8,1.3-5.46,2.94-8.42,3.88-9.37,2.99-23.97,2.91-33.68.41v3.46c-.62-.49-1.5-1.05-2.41-1.57-1.17,3.38-2.82,6.13-5.01,8.95-1.53-1.83-2.85-3.96-4.23-5.91-6.87,10.45-7.71,11.7-19.72,16.71.12-2.32.22-4.63.28-6.95-6.54,1.78-12.77,3.85-19.52,4.83-4.54.67-9.09.62-13.62,1.21,5.49-2.07,11.39-5.27,14.7-10.34.49-.75.91-1.72.61-2.61-.53-1.6-3.29-2.57-4.68-3.24,3.55-2.3,7.15-4.59,10.42-7.29-3.24-1.14-6.17-2.65-9.01-4.59-3.91,3.02-6.98,7.09-11.66,9-.49-2.25-1-4.51-1.52-6.76-3.66,3.1-7.03,5.24-11.64,6.62l.16-4.8c-2.71.08-5.45.23-8.14,0-2.36-.2-8.92-1.3-10.45-3.13.14.02.3.02.44.03,5.57.17,11.03-4.3,14.91-7.76-1.22-1.49-2.39-2.96-3.47-4.55,4.52-1.2,9-3.55,13.29-5.48-2.1.3-4.12.39-6.24.39-1.03-1.36-1.78-2.88-2.58-4.38-3.65,2.78-6.68,6.35-10.36,9.11-1.1.81-3.08,2.4-4.46,2.19l-.36-.48c-.33-1.94.22-4.3.72-6.2-4.15,2.47-8.4,4.04-13.08,5.2.17-1.27.5-2.53.77-3.8-8.11.67-13.66.61-21.22-2.79l.92.16c.92.16,1.82.28,2.76.28,7.76.01,12.55-4.32,17.71-9.52-.83-.61-1.67-1.16-2.1-2.13.08-.52.05-.64.39-1.05,2.13-2.47,8.5-.81,11.39-1.27.64-.09.83-.27,1.17-.78.01-1.72-1.93-3.27-3.02-4.43-4.49-1.14-8.97-2.46-12.55-5.52,1.57-.7,3.08-1.28,4.76-1.66-8.45-4.1-14.69-8.03-18.76-16.84,4.27,2.25,8.4,3.3,13.19,3.72l-.58-5.51c4.87.92,8.48,3.74,13.29,1.64-2.27-2.14-4.08-4.55-5.9-7.09,3.49-1.06,6.34-2.91,10-3.52-.64-1.67-1.11-3.35-1.53-5.09,2.96.28,5.9.55,8.82,1.02-3.13-1.6-5.82-3.99-8.39-6.35-4.13,5.45-8.42,8.97-15.07,10.85.56-3.05,1.2-5.92,2.41-8.78-4.65,3.35-9.04,4.35-14.63,5.07,1.38-2.25,2.69-4.48,3.87-6.84-3.61.85-9.31,2.3-12.94,1.08-.67-.23-.89-.45-1.22-1.06.16-.89.58-1.17,1.19-1.83-4.51-.38-6.98-1.78-10.09-4.9,6.49-1.22,13.11-4.24,19.51-4.57-.78-1.86-1.45-3.72-2.11-5.63,2.54-.02,5.09-.08,7.61.27,4.22.58,7.87,1.67,12.19,1.49-1.17-1.5-2.1-2.97-2.8-4.74.36-1.13.89-2.1,1.46-3.13-3.35-.5-5.84-1.67-8.7-3.46.74-.78,1.44-1.61,2.16-2.41-5.53-1.11-9.64-3.57-13.77-7.36,5.02-.92,10.11-1.39,15.15-2.3-.49-1.69-1.06-3.35-1.55-5.04,4.63.55,8.36,1.17,12.35,3.68.08-3.43-.64-6.03-1.77-9.25,3.47,1.94,6.57,2.69,10.5,2.97l-3.41-1.69c1.96-.23,3.9-.39,5.85-.45-2.13-1.16-4.26-2.35-6.38-3.55,1.05-.2,2.13-.33,3.08-.83l.05-.33c-3.49-2.44-7.21,1.14-10.66-.47-2.08-.97-3.11-3.63-3.86-5.65,1.67-.02,3.35-.1,5.02-.19-1.93-2.25-4.07-2.53-5.63-4.22-2.43-2.61-5.73-13.11-7.21-16.99,3.88,2.88,8.81,4.77,12.96,7.35.64-2.43,1.35-4.62,2.58-6.81,2.24,3.9,4.6,8.04,7.67,11.35.55-1.93,1.25-3.83,1.88-5.74,2.71.71,5.13,1.08,7.93,1.05-2.28-5.09-5.82-6.07-10.6-8.06.99-.66,2.05-1.21,3.07-1.78-4.49-4.26-5.56-9.34-6.46-15.26,4.66,4.35,8.79,7.31,15.12,8.59-.89-2.03-1.71-4.1-2.54-6.15,1,.69,2.35,1.89,3.51,2.22.89.25,2.44.2,3.19-.39.61-.49.64-.66.77-1.38-.11-.27-.16-.56-.31-.81-.38-.56-4.98-1.24-5.93-1.57-3.03-1.03-6.04-4.07-8.47-6.15,4.02.63,6.7-1.1,10.5-.94-3.71-7.34-5.07-14.32-5.9-22.43,4.63,4.54,9.11,7.92,14.76,11.06.95-2.68,2.05-5.34,2.75-8.09,1.94,4.01,3.9,8.03,6.65,11.55.69-.85,1.36-1.45,2.24-2.08.83-.6,1.24-.94,1.61-1.92.33-.89.69-1.46,1.25-2.19.08-.09.14-.19.22-.28-1.94-4.18-5.26-6.51-8.76-9.26,1.1.19,3.71.86,4.65.28l.06-.52c-1.27-3.58-7.4-7.51-10.09-10.31l-.24-.25c3.11.19,5.95-.08,8.97-.81-1.93-8.26.75-17.4,4.65-24.67.92,6.01,2.57,11.64,5.4,17.04,2.07-1.61,4.08-2.47,6.54-3.38-.7,1.66-1.28,3.18-1.52,4.99-.23,1.86-.41,3.91.78,5.48.16-.02.31-.03.45-.06.14-.03.28-.09.44-.13,1.28-.3,2.21.58,3.21,1.27,1.08-4.73.89-9.56,1.49-14.35.92,3.36,2.66,8.4,5.24,10.77.86-.03.52-1.02,1.33-1.36,1.1.81,1.88,2.89,2.82,3.99.66.75,1.86,1.5,2.35,2.3.3.48.09,1.39.63,1.71.97-.45,1.88-1.05,2.8-1.6.22-.66.42-1.3.67-1.94.31-.8.58-1.05,1.35-1.38,1.08.08,1.94.66,2.88,1.16-.69-2.33-.96-4.63-1.11-7.04-6,.36-9.52-.6-14.29-4.16,2.38-.31,4.76-.86,6.96-1.8.94-.41,1.83-.77,2.24-1.75l-.44-.64.16-.3.82-.02-.06-.19c-.42-.16-.83-.31-1.24-.5-3.86-1.69-6.18-7.57-7.57-11.2,2.64,1.03,5.45,1.63,8.18,2.32-.11-.27-.22-.53-.33-.81-2.97-7.59-.42-15.93,2.69-23.01.95,4.48,2.3,8.83,5.19,12.46,1.02,1.28,3.08,3.47,4.79,3.61.16.02.3,0,.45.03.81.16,1.3,1.13,1.77,1.77.31-.33.64-.64.92-1,2.05-2.47,2.79-5.3,2.46-8.45,2.43,4.38,1.91,6.46,2.99,10.92.2.86.53,1.93,1.31,2.38,1.25-.3,1.94-.13,3.08.33l.36.16c.05-.06.09-.11.13-.17.74-1.39-.22-4.98-.64-6.48,2.25,1.99,3.65,3.8,4.77,6.6,1.46-1.33,3.26-3.22,3.69-5.18.75-3.47-4.96-8.7-6.93-11.58,2.11.52,4.27.75,6.42,1.02-.16-1.46-.25-2.96-.53-4.4-.94-4.95-4.05-7.72-8-10.41,3.55.58,7.12,1.14,10.61,2.03,6.45,1.63,10.96,3.74,14.41,9.61l.19-.2c1.8-2.1,2.91-4.51,4.41-6.21l.53-.02c2.41,2.08,2.68,7.98,4.74,11.41.69-.27,1.41-.36,2.13-.52-.14-1.82-.11-3.6-.06-5.42l2.88,1.11c.91-3.88.3-11.72-.52-15.71,3.33,2.19,6.65,4.51,9.2,7.62,0-.99-.17-2.25.09-3.19.16-.53.33-.61.77-.89.83.08,4.54,2.94,6.07,3.71.55-1.58,1.22-3.11,1.85-4.66-.13-.05-.27-.09-.39-.14-.38-.13-.74-.23-1.08-.42-2.69-1.5-4.46-6.7-5.29-9.48,2.35.1,4.58.35,6.84,1.03,1.67-7.03,4.01-13.07,7.98-19.16,1.64,6.96,3.47,13.65,6.57,20.13.14-.13.27-.24.41-.36,1.33-1.08,1.99-.47,3.46-.45.85.02,1.74-1.13,2.32-1.71.5,2.88,1.36,6.01,1.33,8.94-.94,1.63-2.05,3.99-3.9,4.6-.08.03-.16.05-.24.08-.01.08-.05.16-.05.25-.06.77.53,1.6,1.03,2.13.92.99,2.3,1.86,3.68,1.94.56-.64.8-1.72,1.08-2.52-.31-.35-.61-.69-.88-1.07-.61-.88-1.47-2.63-1.09-3.72.19-.58.47-.74.95-1,.88.31,1.16,1.36,1.89,1.92,2.08-1,3.51-6.48,4.24-8.54,1.5,2.41,2.88,4.9,4.38,7.31.92-.39,3.51-2.86,3.96-2.79.7.13.95.64,1.78.58.08-1-1.35-3.05-1.75-4.16-.99-2.71-1.27-5.49-1.52-8.37"/>
      </g>
    </g>
  </g>
</svg>