<?xml version="1.0" encoding="UTF-8"?>
<svg id="Layer_1" xmlns="http://www.w3.org/2000/svg" version="1.1" viewBox="0 0 288 271.74">
  <!-- Generator: Adobe Illustrator 30.5.1, SVG Export Plug-In . SVG Version: 2.1.4 Build 3)  -->
  <path d="M266.39,185.55c30.97-24.92,19.39-74.75,19.93-105.98.26-14.94-4.36-40.28-12.72-54.1C257.72-.82,224.98.83,185.19.22c-31.19-.48-101.39-.38-118.05,2.32-22.8,3.69-36.08,12.88-50.52,38.13C4.78,61.39,1.61,95.32.39,108.17c-1.8,19.07,2.98,46.83,7.73,57.97,8.25,19.32,24.74,28.86,25.26,30.14.52,1.29-12.03,5.75-16.5,17-2.51,6.33-5.63,21.14.31,33.21,7.73,15.72,29.58,20.3,50.04,20.3,22.68,0,32.18-13.21,34.09-11.8,3.2,2.35,7.34,7.99,15.31,12.14,9.88,5.15,25.93,5.14,34.97,3.95,13.66-1.8,23.28-12.82,26.29-13.57,2.06-.51,5.93,4.76,9.36,6.53,7.07,3.63,15.56,7.57,31.96,7.47,23.2-.14,34.54-6.44,43.04-14.94,8.51-8.5,10.62-18.85,8.51-33.75-1.98-13.91-14.11-23.38-15.65-25.96-1.55-2.58,4.09-5.54,11.27-11.32ZM98,240.59c-3.09,12.11-17.23,17.1-34.72,17.1-12.95,0-26.94-3.53-33.64-9.71-6.7-6.18-7.5-19.46-6.05-26.18,1.37-6.36,6.85-14.64,13.49-17.58,6.79-3.01,11.78-2.96,18.92.05,6.68,2.82,5.97,16.97-2.34,18.47-5.94,1.07-11.14,1.15-9.85,2.96,1.29,1.8,6.03,6.06,18.78,4.57,15.89-1.85,19.08-14.83,18.05-21.2-.15-.9,16.33.18,19.25.53,2.76.32,1.21,18.88-1.88,30.99ZM66.72,206.68c-.63-2.03,5.26-.85,6.81-.33,1.55.52,3.5,6,.92,10.64-2.58,4.64-11.08,8.07-9.28,5.32,3.61-5.5,3-10.93,1.55-15.63ZM174.86,242.07c-1.8,6.18-11.29,20.33-30.13,20.78-20.69.49-32.73-8.59-35.05-12.71-2.32-4.12-.35-32.57.76-38.85.27-1.52,6.63-1.61,7.14-.58.52,1.03,1.26,11.94,3.06,16.32,1.8,4.38,6.88,13.67,21.17,12.81,9.24-.56,14.57-4.88,16.77-8.82,2.34-4.19,3.84-16.51,4.36-17.8.52-1.29,10.25-1.6,11.8-.57,1.55,1.03,1.93,23.24.12,29.43ZM145.07,227.29c5.5-.86,4.29-12.87,4.29-14.16s5.59-1.56,6.62-.02c1.03,1.55,1.15,16.48-7.13,18.98-1.92.58-7.99,3.07-15.51.86-9.78-2.88-10.13-16-9.24-21.18.31-1.78,5.39-1.76,6.16-.99.77.77.12,10.88,3.12,14.95,1.91,2.6,8.62,2.02,11.68,1.55ZM140,210.92c3.87.02,4.05,11.26-.17,10.88-4.51-.41-4.36-10.9.17-10.88ZM263.29,233.88c-.41,13.36-16.52,28.16-35.96,29.11-25.13,1.23-41.46-8.75-42.97-12.89-1.22-3.35-1.62-26.14-.39-37.71.16-1.49,10.93-.91,12.65-.56,1.7.34.77,12.26,6.2,17.79,5.32,5.42,14.09,9.1,24.58,8.44,9.94-.63,13.36-3.56,14.46-5.47,2.42-4.17-.55-4.27-5.75-2.51-4.85,1.65-9.65.05-12.43-1.48-7.89-4.34-5.49-14.52-1.11-19.93,4.38-5.41,13.74-6.27,23.28-3.99,14.9,3.57,17.71,20.03,17.44,29.2ZM213.98,229.69c-.72,0-6.98-2.82-8.65-8.59-1.18-4.06-2.02-9.7-.91-10.68,1.11-.98,7.62-1.33,9.73-1.34,2.37-.02-1.5,4.09-1.73,9.72-.26,6.15,2.17,10.89,1.56,10.89ZM248.42,186.56c-13.78,9.91-30.23,13.08-52.14,15.4-15.43,1.63-119.59-1.29-142.28-8.76-20.69-6.82-37.37-28.34-39.18-50.5-1.8-22.16-4.05-57.74,3.16-76.29,7.22-18.55,8.99-25.2,18.57-35.17,10.65-11.08,20.13-19.34,42.41-21.69,15.41-1.62,139.51-.8,151.11.49,11.6,1.29,40.09,14.4,42.67,46.86,5.31,66.87,11.58,103.82-24.32,129.65Z"/>
  <path d="M251.95,74.94c-2.58-14.69-8.5-31.96-21.91-39.42-13.56-7.55-52.06-7.62-81.05-6.85-12.38.33-32.1,1.25-46.53,1.69-20.14.61-35.91,4.12-51.38,12.62-15.47,8.5-26.09,34.28-24.92,59.26,1.63,34.61,7.22,46.38,31.96,61.32,24.74,14.94,57.22,14.94,101.04,14.69,43.82-.26,55.67-2.58,76.04-20.61,20.36-18.04,19.33-68.02,16.75-82.7ZM39.63,129.58c-2.97-1.72-3.36-7.77-.99-10.78,1.99-2.52,5.17-.96,7.7-2.31,1.74-.93,1.79-5.17,3.11-5.65,4.37-1.59,10.01-1.28,12.07-2.05,2.06-.77.83-3.56-2.97-4.29-5.12-.98-11.77,3.34-13.31,2.31-1.55-1.03,4.38-6.33,9.02-8.14,4.64-1.8,14.79-.88,18.93.66,5.54,2.06,13.74,13.03,15.22,15.54,1.67,2.83,3.74,8.63,2.06,9.02-3.6.83-4.93-1.3-12.88-2.89-7.21-1.44-13.91-.84-16.61-.33-4.56.87-9.14,2.63-12.98,4.88-3.18,1.87-5.6,5.63-8.36,4.03ZM220.63,92.74c-4.79,1.13-5.35-3.55-10.12-6.6-3.31-2.11-7.85-3.36-8.36-5.94s.86-23.97-13.31-26.29c-14.18-2.32-79.35-1.6-88.68-1.21-8.56.35-17.28.85-22.17,3.69-4.9,2.83-9.04,5.59-12.49,8.37-2.7,2.18-5.2,6.01-6.49,9.61-1.29,3.61-2.7,12.72-6.05,13.75-3.35,1.03-5.39-5.71-4.61-9.06.77-3.35,3.63-11.35,9.79-17,11.07-10.15,28.59-13.42,39.93-14.96,11.34-1.55,60.13-2.3,73.28-2.09,13.21.21,30.67.69,37.63,2.75,6.96,2.06,14.6,8.62,17.91,19.9,3.76,12.85-2.37,24.17-6.25,25.08ZM227.01,114.4c-.36,1.79-3.57-11.8-4.29-14.19-.54-1.79,3.91-2.4,5.17-1.32,1.26,1.08-.52,13.71-.88,15.51ZM63.24,130.39c-1.62.36-4.85,0-10.24,1.44-2.22.59-8.59,1.4-6.46-.18,4.11-3.05,8.83-5.83,13.25-6.89,4.49-1.08,9.91-1.9,16.2-.11,6.28,1.79,9.51,4.62,14.54,4.08,5.03-.54,5.64-4.17,11.93-5.43,6.29-1.26,14.84-1.46,20.94-.27,5.33,1.04,10.99,3.9,14.04,3.18,3.05-.72,5.59-3.27,13.49-3.74,4.84-.29,12.35,1.33,12.16,9.64-.18,8.26-3.99,13.74-14.85,14.19-7.16.29-14.15-1.94-17.74-2.48-3.59-.54-9.99-.66-12.12-2.3-2.33-1.8,1.26-3.77,5.75-4.67,4.49-.9,6.64.18,9.88,1.79,3.23,1.62,8.67,2.76,16.51,1.19,7.25-1.45,7.84-8.13,5.33-9.93-2.51-1.79-9.52-1.44-12.21,0-2.69,1.44-5.31,2.63-8,2.27-2.69-.36-13.11-4.49-17.6-4.49s-12.03,2.51-14.9,4.13c-2.87,1.61-6.64,3.41-11.31,3.41s-11.67-4.67-16.16-5.03c-4.49-.36-10.77-.18-12.39.18ZM66.63,150.44c-.52,2.32-5.92-2.33-8.24-4.39-2.32-2.06-3.35-4.6-2.91-7.67.26-1.8,10.42-3.22,10.94-1.67.52,1.55.73,11.42.21,13.73ZM65.86,74.29c-1.36-1.95,3.79-6.85,7.33-6.85,1.16,0,5.57,2.66,4.85,4.14-.86,1.78-2.81,6.94-5.51,7.84-2.71.9-5.04-2.78-6.67-5.13ZM68.2,83.05c0,.64-1.01,6.45-3.21,6.71-2.19.26-6.4-.94-6.01-2.1.39-1.16,1.75-8.45,4.09-8.12.9.13,5.13,2.87,5.13,3.51ZM73.52,87.68c4.12,1.8,6.63,4.95,3.03,6.46-1.52.64-3.87-.51-5.15-1.67-1.29-1.16.53-5.48,2.12-4.78ZM75.78,83.44c-.52-1.03,4.44-7.83,6.54-7.2,1.29.39,6.65,4.81,6.26,6.26-.53,1.93-4.59,6.57-7.04,6.18-2.45-.39-5.24-4.21-5.75-5.24ZM181.95,69.02c-1.42.9-7.71-3.97-8.23-5-.52-1.03,3.08-4.3,5.54-6.04,2.19-1.55,7.3,3,7.04,4.29-.26,1.29-2.94,5.85-4.35,6.75ZM189.58,65.53c1.55-1.8,5.54.49,6.18,1.14.64.64.59,2.85.59,4.65s.16,6.83-2.87,6.93c-3.65.11-9.52.54-10.16-.87-.64-1.42,2.96-8.01,6.25-11.84ZM176.95,73.6c-.13,1.55-5.43,6.01-8.5,6.65-6.38,1.33-8.39-.03-7.87-2.48.3-1.41,5.02-6.21,7.68-8.57,1.16-1.03,1.95-2.07,3.74-.99,1.79,1.08,5.08,3.84,4.95,5.39ZM164.95,65.02c-1.57,1.9-5.75,7.3-8.58,7.04-2.83-.26-5.75-4.13-5.75-5.67s6.61-7.98,8.5-9.29c1.67-1.16,3.94.1,5.28,1.1,2.46,1.83,3.34,3.45.55,6.82ZM148.42,61.93c-.77.77-2.75-1.76-3.39-2.78-1.02-1.62.99-2.76,2.53-2.64.57.05,3.48.26,4.38.52s-2.75,4.12-3.53,4.9ZM146.79,70.94c.76-.62,6.81,5.99,6.06,6.83-1.55,1.72-6.72,7.16-8.91,7.16s-4.52-4.29-5.16-5.45c-.64-1.16,4.67-5.79,8.01-8.53ZM144.34,65.79c-1.1,1.48-6.05,9.68-8.1,9.57-1.95-.11-6.8-6.86-7.23-7.76-.51-1.07,5.91-6.08,7.78-7.41,1.37-.98,8.39,4.49,7.55,5.61ZM134.44,82.83c.52-.26,5.14,4.22,4.75,5.38-.39,1.16-3.34,3.98-4.88,4.49-1.55.52-4.8-3.83-4.54-4.74.26-.9,2.53-4.06,4.67-5.13ZM125.78,83.25c-1.76.95-7.94.96-6.21-1.6.6-.9,3.73-7.97,5.69-8.13.82-.07,5.17,4.42,5.15,4.9-.03,1.1-3.05,3.98-4.64,4.84ZM127.19,63.53c-1.67,1.59-2.79-.32-4.46-1.35-1.68-1.03-2.37-4.29-1.01-4.42,3.83-.36,8.28-.53,8.69.55.37.97-1.39,3.48-3.22,5.22ZM122.3,68.88c-.15,1.18-4.59,5.53-5.8,6.31-1.42.92-5.73-3.61-6.96-5.28-1.13-1.54,2.97-6.25,5.28-7.21,2.43-1.01,7.57,5.47,7.47,6.18ZM110.06,83.35c-1.42,1.16-6.07,1.1-9.58.79-1.96-.17-2.74-.49-3.24-1.8-.56-1.46,5.07-6.97,8.3-7.54.85-.15,4.94,2.99,5.42,3.64.71.95.52,3.75-.9,4.91ZM110.45,61.15c-.9,1.03-3.6,4.09-5.29,4.18-1.18.07-5.14-4.42-5.53-5.2-.39-.77,3.32-2.11,4.59-2.49,2.19-.64,7.13,2.47,6.23,3.5ZM100.94,69.81c-.77,1.55-7.08,8.94-8.88,8.55-1.8-.39-6.1-4.71-6.36-6.38-.26-1.67,5.83-8.55,8.51-8.89.78-.1,7.51,5.18,6.73,6.72ZM85.96,65.66c-1.16,1.03-4.25,3.86-5.93.9-.72-1.28.52-5.05,2.19-4.89,4.25.39,4.9,2.96,3.74,3.99ZM88.37,95.37c3.31-4.98,10.37-6.32,16.83-6.38,7.01-.07,16.12-.45,18.82.99,2.69,1.44,3.18,5.65,2.64,9.24-.54,3.59-4.36,8.27-8.52,9.23-1.12.26.48-8.64-3.04-11.76-2.52-2.24-6.71-3.3-11.99-1.1-3.71,1.54-5.05,6.82-3.47,7.61.51.26,2.23-1.74,4.57-2.99,2.85-1.53,4.46-1.95,6.38.05,2.11,2.21,1.79,6.5-1.98,7.93-3.77,1.44-13.06,1.35-17.29-1.72-3.29-2.39-4.99-8.03-2.95-11.1ZM104.11,149.16c-4.46.53-4.98-.88-4.62-4.29.36-3.41-.55-5.66,3.96-6.82,2.14-.55,4.11-.02,4.29,2.31.18,2.33.52,8.31-3.63,8.8ZM74.81,142.26c-2.83,0-2.23-4.68-.41-5.09,2.32-.51,8.18.86,8.96,2.67.77,1.8-5.71,2.42-8.54,2.42ZM89.07,147.67c3.58.66,5.1,2.44,7.42,4.5,2.32,2.06,4.64,4.11,10.86,2.12,4.2-1.34,3.66-4.55,6.49-6.09,2.84-1.55,7.93-1.96,12.06-.93,4.12,1.03,11.09,3.41,17.28,3.67,6.19.26,10.24-.02,13.85-1.56,3.61-1.55,7.58-4.67,9.9-9.57,2.32-4.9,2.44-12.41-2.97-17.05-5.41-4.64-8.77-4.8-15.73-4.29-6.96.52-8.38,3.71-14.3,3.19-5.93-.52-10.71-3.39-21.02-3.08-12.03.36-15.92.23-14.63-2.09,1.29-2.32,15.43-3.05,19.55-2.8,4.12.26,9.9-4.53,13.25-7.88,3.35-3.35,8.03-8.99,19.61-15.45,13.38-7.46,31.17-5.97,42-4.68,10.83,1.29,22.38,14.77,25.52,25.5,3.23,11.05,5.45,30.01-10.02,39.8-15.46,9.79-33.92,10.07-49.3,10.14-14.05.06-45.42,2.71-75.68-3.56-9.63-1.99-9.09-6.07-9.78-8.83-.52-2.06,12.58-1.62,15.63-1.06ZM238.61,144.87c-6.7,10.56-26.46,25.76-51.72,27.31-25.26,1.55-64.84.41-80.82-1.14-15.98-1.55-39.44-5.54-53.61-16.23-10.12-7.64-10.83-12.71-10.83-12.71,0,0,4.38-3.01,5.41-.43.88,2.21,12.41,12.06,17.31,14.89,4.9,2.83,12.08,5.72,40.43,8.04,28.35,2.32,86.09.53,95.88-2.32,13.27-3.86,26.68-16.79,30.55-43.33,2.46-16.86,5.55-48.92,2.05-57.79-3.35-8.5-13.68-18.64-27.6-19.67-13.92-1.03-65.75-1.18-90.99-.22-30.65,1.17-49.01,8.44-54.68,11.55-8.77,4.8-18.1,16.46-18.36,23.93-.39,11.46,4.49,17.75,4.49,17.75-2.63,2.5-3.49,3.56-6.3,6.72-3.49,3.93-8.19,15.69-9.11,7.8-.39-3.37-3.39-27.04,10.39-46.7,11.31-16.13,23.69-22.14,47.78-24.75,26.01-2.82,57.64-3.68,75.42-3.68s46.36.73,57.11,4.31c11.93,3.97,24.35,25,25.43,45.86,1.55,29.89-1.55,50.24-8.25,60.8Z"/>
</svg>