<?xml version="1.0" encoding="UTF-8"?>
<svg id="Layer_1" xmlns="http://www.w3.org/2000/svg" version="1.1" viewBox="0 0 288 260.18">
  <!-- Generator: Adobe Illustrator 30.5.1, SVG Export Plug-In . SVG Version: 2.1.4 Build 3)  -->
  <path d="M200.51,35.82c-12.34-2.69-46.23-3.69-60.35-2.99-8.97.45-17.74.97-40.85,6.46-23.11,5.49-45.21,24.45-52.17,48.33-6.96,23.89,2.47,50.69,14.02,65.83,11.56,15.14,42.97,29.16,90.99,25.57,48.02-3.59,70.63-19.07,76.09-25.17,8.52-9.51,13.33-68.63,7.6-88.44-4.32-14.95-23-26.92-35.34-29.61ZM148.79,39.86c-.34-1.01,9.2-.9,16.6-.34,7.4.56,22.66,2.24,24.35,2.8,1.84.61,6.38,16.76-25.19,23.58-4.15.9-18.11.19-17.78-.81.34-1.01,4.83-6.48,6.03-14.06.97-6.1-3.68-10.16-4.02-11.17ZM139.48,39.18c3.81,0,5.84,6.07,6.63,10.11.79,4.04-5.11,13.83-7.69,15.29-2.58,1.46-5.68,1.14-12.07-.99-6.39-2.13-14.69-17.16-14.69-19.36,0-2.35,24.01-5.05,27.82-5.05ZM109.75,169.05c-.45,1.68-5.39.79-12.23-1.46-6.84-2.24-31.13-15.69-37.92-28.04-7.92-14.41-7.77-38.81-7.29-42.17.29-2.03.84-2.92,3.25-4.04,1.46-.67,8.46-.85,18.37.99,12.39,2.3,23.59,13.13,26.46,20.83,8.93,23.96,9.81,52.2,9.36,53.88ZM123.99,171.18c-.67,1.01-5.95.11-6.96-.34-1.01-.45-.9-9.08-1.46-13.12-.56-4.04-2.89-28.36-3.79-35.12-1.57-11.78-10.99-20.81-19.32-29.81-3.5-3.79,20.33,6.33,25.94,19.9,4.48,10.85,6.26,57.48,5.59,58.49ZM150.81,149.09c-.34,5.38-.45,21.98-1.23,22.43-.79.45-14.96,2.83-16.61-1.14-2.48-5.96-1.67-53.25-8.4-63.57-6.73-10.32-16.04-21.87-37.47-23.55-21.43-1.68-28.27,0-29.17-.45-.9-.45,7.88-18,18.66-24.84,10.77-6.84,20.08-11.98,22.66-12.56,3.64-.83,4.24,1.63,4.24,2.52s6.1,17.78,20.24,22.27c30.82,9.78,63.51-1.52,68.4-8.14,10.96-14.87,5.8-18.14,8.3-17.61,26.08,5.52,33.48,36.46,28.97,39.47-1.35.9-26.5,2.03-33.8,2.36-7.29.34-26.37,6.35-35.34,20.86-11.19,18.09-9.09,36.56-9.42,41.94ZM171.11,168.38c-.22,1.12-1.36,1.92-5.83,2.24-1.57.11-5.24,1.04-6.36-.08-1.12-1.12-.15-7.32-.37-11.14-.22-3.81-.28-29.68,4.04-39.25,9.56-21.19,24.57-23.1,25.69-23.1s-5.72,9.76-6.84,11.44c-1.12,1.68-8.79,10.31-9.42,19.96-.29,4.4-.67,38.8-.9,39.92ZM222.95,144.6c-8.71,13.75-33.31,21.52-37.58,22.99-3.25,1.12-6.96,1.46-7.74.22-.79-1.23-.41-17.04.26-35.88.67-18.84,20.27-35.33,29.24-38.03,8.97-2.69,20.98-1.57,23.67,3.14,2.69,4.71-1.56,37.61-7.85,47.55Z"/>
  <path d="M284.63,136.33c5.72-19.23,3.56-53.33-2.04-79.3C272.8,11.72,233.73,5.82,215.01,2.25c-18.73-3.57-78.82-2.11-97.37-.85C60.1,5.31,37.8,18.75,19.75,41.55,1.71,64.35-2.21,114.38,1.03,138.89c3.23,24.5,29.28,50.54,29.96,51.73.68,1.19-8.05,4.35-14.3,13.95-2.76,4.23-9.89,20.77.85,35.22,10.43,14.04,23.62,20.22,50.86,20.39,27.24.17,41.57-15.12,43.45-16.48,1.87-1.36,4.75,3.9,7.13,5.94,2.38,2.04,8.43,9.36,30.05,9.87,21.62.51,34.15-13.26,35.17-13.94,1.02-.68,5.57,4.18,9.65,6.22,4.09,2.04,12.48,9.86,42.27,4.24,29.79-5.61,37.46-23.9,39.66-29.35,4.23-10.48,4.06-17.05,1.02-28.93-2.63-10.28-17.87-15.31-18.04-16.17-.17-.85,7.83-12.59,11.75-17.87,3.92-5.28,12.03-20.33,14.13-27.4ZM92.18,247.01c-7.85,3.97-25.84,7.01-44.92,2.62-19.08-4.39-23.71-14.93-25.5-19.58-5.4-14.01,6-28.53,13.76-31.49,7.77-2.95,21.22,4.34,23.26,10.59,2.47,7.57-6.45,13.48-8.81,13.57-2.36.08-5.18,0-6.27-1.01-1.1-1.01-7.65-4.34-6.7-1.6,1.04,2.99,1.86,6.03,11.65,9.49,9.8,3.46,18.93-1.72,22.25-5.39,4.24-4.68,4.12-12.88,9.97-13.48,6.26-.64,28.05-2.04,29.87,5.87,2.68,11.61-10.71,26.43-18.56,30.4ZM65.93,214.95c1.39-3.77.54-7.64,1.26-7.61.84.03,4.74.58,5.24.75.51.17-1.01,3.95-2.56,6.89-.84,1.58-3.87,7.28-8.16,8.27-.63.15,3.29-5.78,4.21-8.29ZM180.6,233.67c-3.72,12.92-25,21.02-42.64,17.14-17.65-3.88-18.74-16.73-18.66-19.27.08-2.53.64-6.46.64-8.42,0-2.17.26-6,.38-8.3.05-.96,17.58-.76,18.26-.51.68.25,1.83,2.56,1.32,3.91-.51,1.35.68,7.34,3.38,10.21,2.7,2.87,9.88,3.46,13.6-.25,3.72-3.71,3.21-13,3.72-14.77.51-1.77,21.03-3.8,21.87-3.97.84-.17,1.86,11.31-1.86,24.23ZM149.18,213.07c.76-.59,3.38-.34,4.14.17.76.51.42,5.74.17,7.09-.25,1.35-.68,5.99-3.63,5.07-2.96-.93-2.47-10.93-.68-12.32ZM261.92,194.05c7.01,2.11,11.15,16.07,4.73,32.19-6.42,16.12-36.02,25.59-52.44,22.88-11.38-1.88-19-6.25-20.77-11.23-1.77-4.98-.7-24.83.59-27.01,1.1-1.86,6.18-3.22,8.21-3.55,2.03-.34,5.13-.92,5.98-.41.84.51,0,4.15.5,6.72.81,4.22.17,6.55,6.56,13.74,6.63,7.44,19.79,7.32,26.55,5.46,6.76-1.86,9.87-9.84,10.56-15.45.26-2.15-1.19-4.38-2.28-3.21-1.08,1.16-2.93,3.6-4.79,5.11-1.86,1.52-5.67,2.86-11.75-1.53-6.08-4.39-7.51-11.84-1.61-18.65,7.27-8.39,22.95-7.17,29.96-5.06ZM226.8,222.35c3.82,4.06,10.06,4.05,9.47,4.81-.59.76-5.51,1.42-8.55.66-3.04-.76-6.5-1.75-10.81-8.33-4.31-6.58-2.37-12.65-.89-15.23.68-1.18,4.63-1.92,5.64-1.16,1.01.76-.23,3.77-.48,8.92-.25,5.15,1.66,6.13,5.62,10.34ZM214.33,194.74c-34.72,8.86-93.23,14.11-130.34,6.46-37.11-7.66-67.73-32.28-71.31-62.06-3.57-29.78-2.06-86.1,27.09-105.31,24.21-15.95,40.5-20.31,53.09-21.8,10.32-1.22,37.62-3.06,50.56-3.57,14.83-.59,47.75.85,62.05,2.04,14.3,1.19,44.26,1.62,60.77,29.35,16.51,27.74,13.18,75.13,9.7,90.36-2.94,12.88-21.37,54.27-61.62,64.54Z"/>
</svg>