<?xml version="1.0" encoding="UTF-8"?>
<svg id="Layer_1" xmlns="http://www.w3.org/2000/svg" version="1.1" viewBox="0 0 288 275.65">
  <!-- Generator: Adobe Illustrator 30.5.1, SVG Export Plug-In . SVG Version: 2.1.4 Build 3)  -->
  <path d="M251.53,119.94c.65-15.05,5.07-53.11-13.7-77.95-13.51-17.88-59.75-19-87.22-18.13-10.12.32-27.77-1.33-64.61,8.41-28.52,7.54-39.38,36.54-42.03,51.2-2.64,14.66-9.87,57.27,6.25,81.44,16.62,24.91,73.74,29.36,91.71,29.89,17.97.53,54,2.99,86.37-17.88,20.21-13.03,22.57-41.66,23.23-56.98ZM198.53,33.6c2.25-.26,14.86,2.92,19.76,4.54,14.8,4.89,19.99,17.04,22.16,24.15,5.34,17.48,7.01,59.83.67,64.59-6.34,4.76-33.51,4.79-38.05-4.84-6.48-13.74,3.87-25.59,5.55-33.82,1.16-5.7,1.92-13.39-4.76-18.23-2.98-2.16-7.84-4.36-7.2-6.64.92-3.3,1.08-14.36,1.34-16.81.4-3.83-1.71-12.68.53-12.94ZM179.35,45.81c.13-5.68-.31-14.93.88-14.93s8.44-.2,9.63.33c1.68.75,1.87,7.76,1.87,9.61,0,3.33.77,20.98-2.4,24.15-2.51,2.51-9.32,1.13-9.58-.72-.26-1.85-.51-13.27-.39-18.43ZM171.03,31.14c1.79-.17,2.41.04,2.76.61.35.57,1.01,4.68.48,5.6-.53.92-5.08-4.2-5.74-5.08-.66-.88,1.09-1.01,2.5-1.14ZM139.53,54.74c-1.53.48-4.16-2.7-5.08-2.1-1.36.88.48,5.21.44,6.04-.04.83-2.58,3.2-3.46,3.41-.88.22-2.67-4.95-2.45-7.4.22-2.45,1.93-5.33,2.93-6.48,1.18-1.36,5.04-4.38,5.56-4.2.53.17,5.52,5.82,5.74,6.92.22,1.09-2.15,3.33-3.68,3.81ZM140.32,65.73c-.22.44-4.12.57-4.77-.04-.66-.61-.19-2.16.26-2.28.53-.13,3.72-.22,4.2-.13.48.09.53,2.01.31,2.45ZM144.31,56.05c1.84-.88,3.2-.18,4.07.35.88.53,3.02,4.16,2.93,4.9-.09.74-3.55,3.81-4.73,3.68-1.18-.13-4.07-3.77-4.64-4.73-.57-.96,1.01-3.56,2.37-4.2ZM150,51.63c-.31-1.01,1.51-2.38,2.72-3.55,1.31-1.27,2.72-2.19,3.55-2.15.83.04,5.78,5.04,5.91,6.17.13,1.14-4.03,5.3-5.47,5.47-1.32.16-6.39-4.95-6.7-5.95ZM165.9,55.66c1.36-.04,6.39,6.17,6.61,7.92.22,1.75-9.02,1.23-10.21,1.09-1.18-.13-2.67-1.49-3.02-2.41-.35-.92,5.77-6.58,6.61-6.61ZM169.49,53.38c-.66-.22-.85-3.09-.09-3.63.31-.22,2.8-.13,3.33-.04.53.09.48,2.63,0,3.33-.48.7-2.58.57-3.24.35ZM167.87,39.37c.74.79,1.53,1.49,1.88,2.71.43,1.51.7,4.29.22,4.82-.48.53-4.95,1.36-5.83.66-.88-.7-4.12-5.47-4.07-6.35.04-.88,3.24-3.63,4.34-4.25,1.1-.61,2.25,1.13,3.46,2.41ZM153.29,30.7c.57-.04,7.58-.13,8.19.61.61.74-2.19,6.04-4.07,6.39-1.88.35-4.51-4.51-4.73-5.08-.22-.57-.49-1.84.61-1.93ZM147.11,35.08c.75.09,5.61,4.64,5.91,5.91.31,1.27-5.21,6.35-6.53,6.61-1.31.26-5.21-6.22-5.78-6.92-.57-.7,1.7-2.49,2.8-3.46.35-.31,2.85-2.23,3.59-2.15ZM135.9,32.54c.66-.18,5.49-.56,6.28.14.79.7-2.69,3.27-3.87,3.8-1.18.53-2.23-1.18-2.5-1.88-.26-.7-.97-1.78.09-2.06ZM128.2,35.06c.44-.33,2.18.19,3.8,1.73,1.25,1.18,2.23,2.19,2.19,2.98-.04.79-3.42,3.59-4.2,3.85-.79.26-1.75-1.92-2.06-2.5-.45-.84-.58-5.4.28-6.06ZM113.23,35.47c2.38-1.59,8.28-3.19,8.41-2.27.47,3.27.93,30.97.13,32.29-.79,1.32-7.62,1.06-8.41.67-.79-.4-.8-14.04-.93-16.68-.13-2.64-1.58-12.43.8-14.01ZM48.22,99.66c0-3.17,2.15-13.52,3.47-17.48,1.32-3.96,5.96-20.12,14.68-29.76,8.72-9.64,37.11-18.68,38.58-16.41,3.34,5.16,2.12,28.05.93,30.96-1.19,2.91-16.02,7.21-21.35,13.73-2.72,3.33-5.35,13.36-8.02,22.83-2.56,9.07-6.81,14.41-17.89,17.48-3.79,1.05-10.62,3.31-11.21,1.73-1.2-3.2.8-19.92.8-23.09ZM123.51,186.13c-.93-.93,4.91-4.74,11.35-12.68,5.74-7.07,10.49-17.88,10.95-16.55,1.47,4.27,5.78,14.56,7.21,17.61,3.76,8.02,10.55,12.54,10.81,13.08.42.84-38.78.06-40.32-1.47ZM218.83,174.79c-17.13,8.56-33.2,12.64-42.05,9.47-8.85-3.17-19.09-12.41-23.39-29.19-2.89-11.28-2.25-18.89-2.78-19.42-.53-.53-3.83-.93-4.36-.26-.53.66-21.01,50.2-40.97,49.67-19.95-.53-43.61-15.85-50.35-26.82-6.74-10.96-9.77-23.1-7.66-24.82,2.11-1.72,12.73-3.87,15.09-4.67,13.21-4.49,16.98-10.87,19.49-16.41,2.51-5.55,5.18-22.89,15.89-30.02,10.7-7.13,15.37-10.01,29.64-10.01s63.41-.45,67.11.6c3.7,1.06,8.57,7.74,6.45,14.21-1.97,6.04-13.17,25.5-6.81,36.3,5.74,9.74,10.39,11.45,16.29,12.94,12.77,3.24,28.76-1.54,29.4-.18,2.64,5.68-2.83,29.54-20.99,38.61Z"/>
  <path d="M287.65,229.57c-2.77-24.36-24.71-26.95-29.34-30.12-2.97-2.04,15.86-18.49,22.6-45.97,5.07-20.66,12.95-71.33-3.7-110.7C259.95,1.98,199.34-.69,153.68.11c-19.3.34-45.22,1.86-54.47,2.39-9.25.53-53.26,4.23-76.12,41.48C3.4,76.06-2.02,113.19.62,148.99c2.12,28.72,32.6,47.25,33.3,48.48.7,1.23-31.05,17.44-27.22,44.25,4.88,34.12,41.29,35.62,58.5,33.16,23.08-3.3,34.2-25.67,35.06-24.31,8.19,12.95,21.54,22.81,45.41,24.7,27.88,2.21,48.21-15.94,48.81-17.04.6-1.1,4.49,2.63,14.99,8.34,13.56,7.38,30,9.89,47.08,5.79,19.82-4.76,33.87-18.36,31.1-42.8ZM81.64,258.99c-20.27,12.19-41.84,9.86-53.18,1.88-14.66-10.32-16.47-28.27-10.31-37.65,5.55-8.45,18.79-23.21,29.2-20.08,11.71,3.52,12.11,10.53,11.37,13.8-.67,2.99-1.7,6.16-7.54,9.05-4.74,2.35-10.02,1.07-10.55,1.46-2.3,1.68-.88,11.75,5.92,14.79,6.8,3.04,19.19-.57,23.92-5.68,4.73-5.11,7.4-11.23,8.33-15.19.54-2.29,1.04-6.45,2.25-6.74,1.21-.29,14.02.23,15.29,3.18,1.78,4.15,2.06,31.09-14.71,41.17ZM67.08,211.7c2.24-.36,4.92-1.25,5.84-.39.92.87,1.16,5.59-.1,8.92-.41,1.09-3.18,9.3-10.08,13.64-2.37,1.49-7.72,3.71-13.94,1.3-.6-.23,5.98-.67,11.48-5.21,4.72-3.89,5.45-7.94,6.03-9.88,1.5-5.01-1.3-8.05.77-8.39ZM183.52,256.45c-16.91,14.02-63.23,14.4-71.95-8.06-7.58-19.52-3.24-30.18-1.92-30.65,1.32-.46,6.46-.14,8.33.07,7.14.79,10.64,4.43,10.84,8.45.2,4.03-.26,25.19,20.42,24.57,17.71-.53,20.02-14.6,20.88-19.35.85-4.69.15-10.44,1.08-10.5.92-.07,19.93-.73,20.79-.07.86.66,2.78,26.22-8.46,35.53ZM136.08,219.33c.79-.2,27.55-.79,27.75.59.36,2.53.62,12.02-.97,15.32-1.59,3.3-5.55,10.17-15.55,9.18-8.16-.81-12.66-7.86-12.86-14.99-.2-7.13.84-9.91,1.63-10.11ZM56.09,196.27c-29.82-14.25-44.59-28.42-45.12-54.04-.53-25.63,5.24-70.97,21.63-94.48,15.23-21.85,39.57-32.15,61.81-34.03,23.86-2.01,38.69-3.2,62.08-3.2,27.75,0,76.31-1.72,102.26,22.69,26.69,25.1,18.26,95.45,15.49,112.49-2.78,17.04-18.74,54.66-63.14,62.99-38.46,7.21-118.52,5.03-154.99-12.41ZM228.35,214.15c-2.73,4.15-3.97,10.1-4.4,10.16-.43.06-2.73-10.53-.19-10.78,2.29-.22,5,0,4.59.62ZM278.74,238.19c-1.67,17.72-17.6,29.94-41.71,27.57-24.61-2.42-37.37-12.45-36.82-19.64.56-7.19,2.29-16.33,2.29-18.54,0-2.64-.22-8.83.4-9.51.62-.68,5.07-1.15,6.74-1.45,4.09-.74,5.5-1.19,6.21.26.71,1.45-1.48,11.64,4.1,19.55,10.66,15.12,33.75,8.2,36.29,5.35,2.54-2.85.56-6.81-1.05-6.81s-20.36,2.29-21.07-6.2c-1.08-12.94,10.7-22.42,22.97-20.74,14.44,1.98,23.07,15.19,21.66,30.16Z"/>
</svg>