<?xml version="1.0" encoding="UTF-8"?>
<svg id="Layer_1" xmlns="http://www.w3.org/2000/svg" version="1.1" viewBox="0 0 288 275.3">
  <!-- Generator: Adobe Illustrator 30.5.1, SVG Export Plug-In . SVG Version: 2.1.4 Build 3)  -->
  <path d="M243.66,74.63c-.65-15.26-11.14-33.58-26.67-37.83-27.93-7.64-86.46-3.82-108.18-3.47-40,.65-55.38,17.53-68.93,36.02-8.16,11.13-17.75,46.28-10.84,74.5,6.63,27.07,36.21,33.99,57.72,37.64,21.51,3.65,70.09,3.78,96.54,2.71,26.45-1.08,43.41-16.76,53.7-33.9,9.86-16.42,7.31-60.41,6.67-75.67ZM223.23,156.54c-9.7,11.53-25.47,17.56-46.7,18.95-20.39,1.34-84.05,1.68-113.51-7.99-15.9-5.22-30.47-22.28-28.82-47.51,1.72-26.23,10.21-50.32,29.53-63.69,20.37-14.09,25.67-11.95,37.95-13.05,11.76-1.06,45.24-2.34,72.76-1.91,25.59.4,59.16,2.66,61.1,36.19,1.8,31.12,2.53,61.38-12.31,79.01Z"/>
  <path d="M183.29,124.97c-10.59-1.63-11.78-13.48-13.7-19.75-1.54-5.05-7.91-14.06-17.2-18.95-9.29-4.89-52.18.08-62.61-2.07-21.66-4.46-10.35-25.64-18.24-26.02-4.56-.22-3.18,6.35-1.14,15.48,2.5,11.18,11.85,17.71,17.79,20.1,9.88,3.97,31.62,2.17,39.7,4.29,9.08,2.38,27.88,27.93,33.26,32.49,5.38,4.56,30.82,4.65,34.73,3.34,3.91-1.3,3.91-4.19,5.73-6.69,1.3-1.79-7.73-.6-18.32-2.23ZM167.84,124.33c-10.31-4.62-13.04-12.82-14.5-16.08-7.07-15.79-26.12-18.8-25.81-18.79,14.45.7,25.08,3.85,29.32,8.25,4.24,4.4,5.79,8.66,6.79,12.88,1.57,6.61,9.24,16,4.2,13.74Z"/>
  <path d="M95.71,106.03c-5.45,3.46-7.17,16.94,1.14,18.57,8.31,1.63,14.25-5.81,15.32-9.94,1.53-5.94-4.4-16.29-16.46-8.63ZM98.15,118.25c-3.38-1.54-1.25-6.99,3.59-7.82,10.43-1.79,1.87,10.3-3.59,7.82Z"/>
  <path d="M206.15,66.63c-6.41.11-14.63,8.25-11.08,15.48,4.4,8.96,15.97,7.33,19.39,1.14,3.42-6.19.98-16.78-8.31-16.62ZM204.21,82.47c-6.05-.86-4.27-8.68-.66-9.49,9.45-2.12,7.97,10.53.66,9.49Z"/>
  <path d="M287.16,122.26c3.56-32.34-3.59-91-32.66-106.21C220.91-1.52,149.57-.31,122.74.27c-22.6.49-34.49,1.27-54.62,5.43C32.74,13.02,15.69,40.64,8.03,58.39.3,76.29-1.98,129.9,1.76,158.09c3.92,29.49,30.41,39.29,28.2,41.06-5.86,4.71-25.07,16.7-19.67,43.33,4.86,24,30.66,29.5,46.83,30.8,25.94,2.09,40.91-14.62,40.91-14.62,0,0,3.67,3.88,8.7,8.35,5.03,4.47,14.91,8.76,33.96,8.25,23.98-.65,35.32-16.08,35.32-16.08,0,0,11.53,8.23,18.97,10.44,11.33,3.37,23.15,4,44.39.52,21.66-3.55,37.77-15.66,40.21-38.11,2.47-22.76-17.73-30.44-19.15-32.19-.37-.45,8.71-9.57,12.71-18.19,5.57-12.01,10.19-24.59,14.02-59.4ZM93.93,245.87c-8.08,12.9-20.54,24.65-49.87,16.96-10.91-2.86-24.46-11.42-24.67-29.23-.21-17.06,13.28-26.33,20.06-27.11,6.78-.78,19.65.52,20.8,5.84,2.61,11.99-6.4,17.88-17.98,17.71-5.55-.08,7.45,14.09,27.25,6.95,7.96-2.87,10.05-12.4,10.84-15.66.78-3.26,3.53-7.24,10.93-6.4,4.39.5,9.19,1.76,9.02,5.42-.52,11.22-1.63,17.96-6.37,25.52ZM68.92,224.65c2.39-4.14-.38-12.31,3.19-11.62,4.94.96,3.35,3.98,2.55,7.48-.75,3.3-.89,3.98-3.82,7.17-4.82,5.25-7.81,2.71-7.81,2.71,0,0,3.36-1.35,5.89-5.73ZM171.83,246.94c-2.74,7.95-10.48,18.69-30.43,18.95-19.94.26-28.73-4.65-33.29-11.94-4.56-7.3.35-26.7,2.23-32.64,1.11-3.5,8.01-2.19,9.71-1.93,1.69.26-.78,5.88,0,11.48.78,5.6,4.07,14.77,12.56,17.29,8.98,2.67,19.57,2.69,26.48-4.08,7.5-7.36,7.18-22.35,7.83-23.26.65-.91,6.4-1.56,7.57-.65,1.17.91.08,18.83-2.66,26.78ZM144.07,238.26c12.77,0,10.44-16.53,10.57-17.7.13-1.17,4.18-.91,5.22-.39,1.04.52-.22,7.03-.67,9.88-.65,4.17-3.93,12.7-19.57,12.82-16.81.13-14.81-19.06-13.84-22.32.39-1.3,4.57-1.3,6.66-.91,2.09.39-.26,3.99-.26,7.57,0,4.3-.89,11.05,11.89,11.05ZM147.85,227.6c-.74,3.44-3.13,5.18-6.52,4.53-3.39-.65-2.88-12.11-2.09-12.9.52-.52,7.43-.76,8.21.67.78,1.43,1.17,4.05.39,7.7ZM265.65,217.64c2.48,4.04,5.7,11.28,2.83,22.23-3.24,12.35-17.7,21.54-38.03,22.84-18.87,1.21-34.85-.17-42.91-6.4-5.58-4.31-5.28-11.65-4.77-20.91.18-3.39.28-14.57,1.6-16.91.92-1.64,23.64-1.62,23.9-.84.26.78-3.23,7.86.16,18.95,2.57,8.41,14.75,11.63,24.41,10.9,16.45-1.24,16.92-17.62,15.77-18.5-1.15-.88-4.43,4.47-13.16,4.47s-10.27-7.04-7.05-16.7c3.14-9.43,19-9.28,25.07-8.74,5.07.45,10.45,6.78,12.19,9.62ZM221.53,232.13c2.86,7.08,5.11,4.6,12.11,6.05,8.44,1.75-10.04,6.53-15.45-1.59-4.53-6.79-3.01-18.83-2.23-19.74.78-.91,3.48-.66,5.42-.96,1.98-.3-3.6,6.93.16,16.24ZM246.86,198.06c-22.12,6.86-93.31,16.31-136.13,11.71-43.69-4.7-91.12-16.12-97.83-43.5-6.71-27.38-8.22-93.6,11.89-121.55,13.06-18.15,32.83-31.68,63.56-34.39,32.5-2.87,55.66-2.91,64.33-2.91,29.91,0,85.76,3.21,105.33,24.73,19.57,21.51,20.25,55.24,20.53,74.8.28,19.56-11.49,84.86-31.68,91.12Z"/>
</svg>