<?xml version="1.0" encoding="UTF-8"?>
<svg id="Layer_1" data-name="Layer 1" xmlns="http://www.w3.org/2000/svg" xmlns:xlink="http://www.w3.org/1999/xlink" viewBox="0 0 177.85 244.82">
  <defs>
    <style>
      .cls-1 {
        fill: none;
      }

      .cls-2 {
        fill: #16181a;
      }

      .cls-3 {
        clip-path: url(#clippath-1);
      }

      .cls-4 {
        fill: #fff;
      }

      .cls-5 {
        clip-path: url(#clippath);
      }
    </style>
    <clipPath id="clippath">
      <rect class="cls-1" width="177.85" height="244.82"/>
    </clipPath>
    <clipPath id="clippath-1">
      <rect class="cls-1" width="177.85" height="244.82"/>
    </clipPath>
  </defs>
  <g id="Artwork_20" data-name="Artwork 20">
    <g class="cls-5">
      <g class="cls-3">
        <path class="cls-2" d="M57.4,25.92C59.98,11.98,72.91.51,87.16.07c13.68-.96,27.48,7.92,31.83,20.99,3.95,10.52,1.84,23.01-5.29,31.68-3.7,4.66-9.12,7.42-14.28,10.14.92,1.43,1.41,3.24,2.75,4.38,1.28.55,2.64.85,4,1.19,16.06,3.44,31.34,11.03,43.29,22.36,14.68,13.63,24.58,32.36,27.45,52.2,2.48,17.29.14,35.43-7.66,51.14-9.38,19.82-26.31,36.1-46.7,44.27-17,6.99-36.17,8.08-54.04,4.12C33.84,234.96,5.98,204.12,1.09,169.11c-2.58-14.93-.38-30.38,4.67-44.55,7.57-20.1,22.78-37.01,41.62-47.18,8.47-4.34,17.5-7.62,26.85-9.44,2.41-.2,3.02-3.04,4.48-4.51-3.38-2.67-7.5-4.27-10.68-7.21-8.51-7.28-13.01-19.26-10.63-30.3"/>
        <path class="cls-4" d="M67.25,13.31c4.73-5.44,11.53-9,18.7-9.76,9.02-1.05,18.28,2.72,24.19,9.58,6.73,7.14,8.49,17.62,6.35,26.99.85-7.51.31-15.67-4.09-22.07-5.04-8.16-14.76-13.02-24.28-12.54-7.44.7-14.82,4.17-19.46,10.14-2.1,2.7-4.75,5.11-5.75,8.5-3.56,9.98-.05,21.4,7.04,28.94-4.92-4.32-8.22-10.39-9.3-16.83-1.32-8.14,1.31-16.69,6.6-22.95"/>
        <path class="cls-4" d="M77.76,14.73c6.93-4.53,16.58-4.41,23.36.35,6.24,4.5,9.94,12.45,8.87,20.14-.45,5.74-4.22,10.56-8.47,14.16-4.22-9.99-20.87-10.13-25.12-.08-4.51-3.48-7.92-8.59-8.56-14.32-1.16-7.94,2.94-16.3,9.92-20.25"/>
        <path class="cls-4" d="M63.28,29.12c.51-2-.41-5.2,1.85-6.25l.33.22c-1.51,4.66-1.57,9.59-1.09,14.44-2.08-2.19-.85-5.66-1.09-8.41"/>
        <path class="cls-4" d="M63.43,36.69c1.55.95,1.55,2.92,2.25,4.43,1.53,4.67,5.1,8.19,8.23,11.82-5.37-3.89-9.46-9.6-10.48-16.25"/>
        <path class="cls-4" d="M81.18,48.31c3.16-3.15,8.36-3.02,12.31-1.56-2.82.25-5.86-.27-8.37,1.38,2.12.15,4.26.14,6.4.24-1.54.63-3.39.64-4.62,1.87.84.08,2.53.25,3.37.33-1.32.42-2.65.8-3.98,1.18-1.91,2.63-1.36,5.82-.53,8.73-2.39-2.31-2.94-5.72-4.26-8.63-.8,3.28.15,6.51,1.31,9.57-4.46-2.71-4.43-9.22-1.63-13.11"/>
        <path class="cls-4" d="M87.31,52.11c1.32.56-1.19,7.24-1.65,3.22-.1-1.47.45-2.54,1.65-3.22"/>
        <path class="cls-4" d="M80.15,66.87c3.22-2.35,7.45-1.19,11.13-1.13-3.57,1.17-7.4,1.49-11.13,1.13"/>
        <path class="cls-4" d="M58.5,76.64c13.07-4.64,27.21-6.96,41.03-4.82,19.07,2.91,37.42,11.9,50.44,26.28-2.94-1.9-5.39-4.43-8.22-6.46-13.55-10.71-30.39-17.37-47.67-18.32-15.92-.79-32.53,2.65-45.87,11.62,10.99-6.08,23.48-8.84,35.91-9.94,17.67-1.11,35.41,4.88,49.83,14.92-12.51-7.17-26.38-12.5-40.92-13.25-15.67-.51-31.67,3.15-44.99,11.6-15.43,9.17-27.25,23.96-33.46,40.74-6.02,15.54-6.32,32.96-2.25,49.02,2.28,9.01,6.79,17.23,11.45,25.2-10.71-13.13-15.91-30.31-15.87-47.13-.33-11.4,2.67-22.58,6.75-33.12,1.34-3.29,3.26-6.32,4.35-9.71-1.99,3.94-4.33,7.68-6.22,11.67-7.17,15.97-8.89,34.34-4.66,51.34.58,1.92,2.06,3.59,1.55,5.76-5.4-13.04-6.72-27.66-3.96-41.49,5.13-28.44,25.71-53.63,52.78-63.91"/>
        <path class="cls-4" d="M79.69,80.91c18.79-2.42,38.47,2.92,53.46,14.49,14.57,10.86,25.39,26.87,29.43,44.62,3.57,14.52,2.3,30.11-3.01,44.04-5.92,14.08-15.52,26.86-28.44,35.21-16.79,11.26-38.23,15.47-57.96,10.93-22.82-4.7-42.13-21.3-52.28-41.99-7.04-15.27-9.36-32.9-5.4-49.32,3.61-15.95,12.82-30.4,25.14-41.04,11.1-9.15,24.79-15.12,39.06-16.94"/>
        <path class="cls-2" d="M83.04,82.18c15.12-1.36,30.41,2.73,43.48,10.26,14.75,8.64,26.01,22.75,31.85,38.76,5.48,15.57,5.56,32.95.27,48.58-3.73,10.04-9.24,19.51-16.61,27.33-10.17,9.96-22.77,17.85-36.84,20.75-19.8,4.58-41.38.69-58.24-10.69-14.36-10.05-25.16-25.19-29.87-42.09-7.47-27.16,2.69-57.79,23.95-75.99,11.85-9.75,26.71-15.75,42.01-16.91"/>
        <path class="cls-4" d="M84.89,87.87c.98-.05,1.96-.1,2.95-.13,0,1.53,0,3.07.03,4.62-5.4.44-10.82.92-16.1,2.19-.34-1.67-.7-3.36-.99-5.02,1.74.5,2.23,2.39,3.19,3.7-.13-1.57-1.38-3.29,0-4.68.67,1.3,1.36,2.59,2.07,3.88.09-.88.27-2.64.35-3.52.79-.11,2.37-.33,3.15-.44-1.57,1.3-.55,4.64,1.3,2.51-.28-.82-.84-2.47-1.11-3.3l1.9,1.14c.46-.3,1.39-.89,1.85-1.18.1,1.21.16,2.43.19,3.65l1.63.06c-.11-.87-.31-2.61-.41-3.48"/>
        <path class="cls-4" d="M90.42,86.98c.66,1.11,1.27,2.26,1.87,3.41.53-.78,1.58-2.35,2.11-3.13-.1,1.07-.31,3.22-.41,4.29,1.26-1.38,1.44-3.99,4.01-3.78-.17,1.14-.49,3.42-.65,4.56,2.27-.62.98-3.96,3.34-4.42.04.81.12,2.44.16,3.25.68-.65,2.04-1.94,2.72-2.59-.13,1.6-.26,3.2-.38,4.82.87-1.4,1.64-2.86,2.6-4.2l.65.83-.29,2.5c.83-.8,1.51-1.74,2.24-2.62.53.98,1.08,1.97,1.68,2.94l.6-1.7c1.93,1.06,3.96,1.93,6.07,2.6-.63,1.16-1.22,2.33-1.78,3.53,1.78-.1,2.6-1.58,3.43-2.91.8.39,1.6.8,2.41,1.21-.58,1.17-1.1,2.36-1.58,3.58,1.69-.37,2.29-2.87,4.09-2.59,1.04,1.5-.88,3.06-.94,4.63l-.32.77c-4.37-2.43-8.84-4.66-13.57-6.28-.15-.6-.46-1.81-.61-2.41-.81.4-1.57.9-2.27,1.49-5.1-1.45-10.39-2.07-15.66-2.42.11-1.8.25-3.59.48-5.36"/>
        <path class="cls-4" d="M67.89,91.1c2.85-2.71,1.74,2.36,2.4,3.75-.82.45-2.46,1.35-3.29,1.8-1.26-1.42-2.31-3.02-2.73-4.89,1.82.12,2.85,1.68,4.1,2.75-.12-.85-.36-2.56-.48-3.41"/>
        <path class="cls-4" d="M61.72,92.67c1.42.96,2.78,2.01,4.2,3.02-.26.43-.77,1.28-1.03,1.71-3.19,1.01-6.14,2.62-8.98,4.36-.06-1.74-.85-3.22-1.9-4.54.92-.48,1.83-.97,2.75-1.43.12.69.35,2.08.47,2.77,2.4-.35,1.22-2.23.75-3.71,2.31-.94,2.97,1.6,4.5,2.6.19-1.62-.06-3.21-.76-4.78"/>
        <path class="cls-2" d="M111.72,93.15c1.56-.81,2.05-.32,1.47,1.48-1.58.74-2.07.25-1.47-1.48"/>
        <path class="cls-4" d="M54.53,104.46c9.82-6.51,21.44-10,33.17-10.66l-.06,1.6c-17.1.2-33.99,8.07-44.92,21.25-5.27,6.34-9.69,13.54-11.91,21.53-.43,1.1-.29,2.91-1.76,3.2l-.28-.65c3.87-14.68,13.22-27.74,25.76-36.27"/>
        <path class="cls-4" d="M89.75,94.23c5.53-.64,10.93,1.1,16.33,1.98-.76.4-1.53.79-2.31,1.17-4.44-2.1-9.91-.6-14.02-3.15"/>
        <path class="cls-4" d="M54.08,107.77c9.8-6.91,21.73-11.06,33.76-11-2.41,3.07-2.85,6.9-2.93,10.69l1.19.1c.03-.59.11-1.78.15-2.37l.85.1c-1.5,9.98-3.11,19.95-4.27,29.98-3.04-4.21-4.44-9.54-8.2-13.22,1.54,6.33,3.65,12.51,5.42,18.78-7.4-5.16-14.64-10.55-21.95-15.83,4.16,7.78,10.54,14.05,15.15,21.55-2.05-.3-4.26-1.62-6.31-1.3,1.8,2.36,5.53,2.41,8.24,3.39.16.22.49.65.65.86-4.02.68-7.35-1.89-10.65-3.73-.55.21-1.66.62-2.21.82,2.85,1.29,5.72,2.58,8.45,4.12-9.51,1.47-19.02,2.96-28.44,4.89-.53.23-1.58.68-2.11.9,9.78,2.09,19.71,3.43,29.61,4.82-4.92,3.11-10.27,5.51-15.1,8.78,3.43-.25,6.65-1.51,10.03-2.01-.36-.63-.71-1.25-1.07-1.85.57-.4,1.71-1.2,2.28-1.6.02.97-.08,1.95-.06,2.94,2.59-1.06,5.28-1.82,7.99-2.48-5.86,6.93-11.55,14.11-16.15,21.96,7.57-4.65,13.97-10.97,21.73-15.34-2.05,5.92-3.73,11.96-5.4,18,4.07-3.72,5.4-9.44,8.51-13.88,1.17,5.33,1.68,10.79,2.71,16.15.02,1.05,1.1.81,1.81.71-1.7-9.51-2.86-19.11-4.47-28.64,1.52,1.09,3.11,2.16,5.08,2.1-.57,8,.17,16.01.02,24.02.1,2.35-1.64,4.3-1.52,6.66.39,2.45.77,4.93,1.48,7.32,1.9-.34,1.71-2.63,2.17-4.08,1.3-8.27,2.72-16.52,4.03-24.79,2.65,5,5.2,10.11,8.41,14.78-.21-4.36-2.5-8.27-2.93-12.61-.63.9-1.24,1.81-1.88,2.71.22-.63.65-1.91.87-2.55-2.49.77-2.45-2.5-3.4-3.88-1-1.5.26-2.8.92-4.08-.59,2.56.64,4.93,1.26,7.35.5.15,1.5.44,2,.58-.87-2.21-1.77-4.39-2.69-6.56,7.71,4.87,14.64,10.82,22.13,16-4.29-7.56-9.64-14.47-14.93-21.34l5.38.51c-2.49-1.4-5.12-2.3-7.64-3.55,1.8.1,3.6.23,5.41.33.04.16.11.47.15.63,1.7.96,4.67.79,5.16,3.15l1.81-.16c-.73.47-1.46.96-2.18,1.45,3.17.23,6.29,1.13,9.1,2.61h.43c0-.23.03-.7.03-.93-4.43-3.29-9.71-5.18-14.35-8.13,9.68-1.65,19.35-3.4,29.1-4.58-.88-1.86-3.04-1.62-4.69-2.02-2.56-.4-5.11-.86-7.63-1.45-.76.48-1.52.96-2.27,1.46.83.21,2.48.64,3.31.85-8.56.18-17.13-.34-25.69.04-.39-1.56-.81-3.1-1.25-4.64,7.44,1.05,14.86,2.28,22.29,3.41.78-.5,1.57-1,2.36-1.5-5.31-.66-10.53-1.85-15.85-2.42,3.35-1.76,6.62-3.67,9.93-5.51,1.8-1.06,4.03-1.66,5.12-3.59-6.09,1.58-12.06,3.59-18.08,5.4,5.05-7.41,10.94-14.24,15.52-21.98-7.47,4.8-14.47,10.32-21.45,15.8,1.17-6.28,3.57-12.24,4.85-18.49-3.31,3.55-5.15,8.1-7.85,12.08-1.05-9.19-2.61-18.33-3.39-27.54.93-3.48.03-7.07-1.48-10.24,22.71.27,44.43,15.05,53.16,35.99,1.51,3.62,3.21,7.32,3.3,11.32.47.2,1.41.59,1.88.79-2.7-13.7-9.96-26.67-21.03-35.34-6.64-5.14-14.06-10.04-22.49-11.43.69-.42,1.39-.84,2.09-1.24,9.02,3.11,17.56,7.94,24.43,14.61,12.68,11.52,19.43,28.74,19.55,45.73-.11,4.26-1.11,8.44-1.26,12.71-.46-.67-.9-1.34-1.32-2.01,1.83-7.66,1.09-15.63.31-23.37-.48.61-.96,1.24-1.42,1.88,2.79,14.85-.8,30.65-9.25,43.13-11.26,15.79-29.95,26.89-49.64,26.49.76-1.09,1.7-2.01,2.79-2.76,1.73-3.18-2.18-4.19-4.34-5.11,1.54-1.35,3.38-.52,5.13-.18-.64-1.58-1.93-2.62-3.41-3.34-1.32,1.14-4.08,2.34-3.03,4.52.71,2.18,5.33,1,4.39,3.91-1.72-.2-3.42-.56-5.14-.73,1,1,2.19,1.64,3.59,1.94-.55.58-1.08,1.18-1.6,1.79-3.06-.86-7.3.47-9.48-2.22-.59,1.11-.29,2.33,1.03,2.71-.02.31-.05.92-.07,1.23-10.24-2.05-20.17-6.23-28.3-12.86-2.27-1.89-4.23-4.13-6.65-5.82.43-.45.87-.89,1.31-1.32,5.86,7.31,14.36,12.15,22.88,15.79.61-.42,1.22-.84,1.84-1.25-11.71-3.25-21.46-11.47-28.9-20.85-4.83-6.2-7.77-13.61-9.57-21.2-.06-1.05-1.12-.76-1.79-.61,2.63,9.69,6.64,19.65,14.04,26.65-.43.41-.86.84-1.29,1.27-3.37-4.88-7.21-9.5-9.59-14.99-5.38-12.32-7.51-26.36-4.34-39.55.22-.23.68-.69.91-.92.52,1.93-.42,3.84-.66,5.75.52.73,1.05,1.47,1.58,2.22-.29-5.57,1.77-10.86,3.66-15.98,4.03-10.51,11.48-19.43,20.32-26.26"/>
        <path class="cls-4" d="M53.13,103.4c-.43-1.84-3.06-4.15-.43-5.39.96,1.34,1.94,2.67,2.97,3.97-.63.35-1.9,1.06-2.54,1.42"/>
        <path class="cls-4" d="M124.35,99.89c-.1-.99.41-1.56,1.5-1.74.05.42.13,1.26.17,1.68,1.22-.12,2.42.07,3.61.36-.77,1.27-1.55,2.53-2.25,3.84,1.94-.82,3.59-3.45,5.54-1-.9.91-1.5,1.98-1.8,3.22.9-.67,1.76-1.38,2.6-2.12.63.51,1.26,1.04,1.9,1.58-.94,1.46-1.87,2.94-2.87,4.37-2.72-2.51-5.63-4.77-8.7-6.81.21-.54.65-1.61.86-2.14-.14-.31-.42-.93-.56-1.24"/>
        <path class="cls-4" d="M47.69,101.33c.55-.35,1.66-1.03,2.21-1.38,1,1.32,2.02,2.63,3.06,3.93-.71.45-2.14,1.37-2.86,1.83-.52-1.62-1.55-2.96-2.41-4.38"/>
        <path class="cls-4" d="M44.65,103.75c2.13-2.5,3.46,1.23,5.16,2.34-4.64,2.84-7.98,7.21-11.36,11.37-4.67,6.02-8.31,12.86-10.34,20.22-.17.05-.52.15-.7.21-1.21-.99-2.53-1.83-3.85-2.64.23-3.15,2.88-1.49,4.8-1.23-1.05-1.42-3.8-2.08-2.97-4.29,1.3.45,2.61.88,3.94,1.31-.22-1.82-2.08-2.18-3.41-2.94,1.44-1.08,3.08-1.39,4.91-.93-1.21-1.02-2.52-1.94-3.37-3.3,1.67.29,3.33.7,4.99,1.09-.85-1.37-3.51-2.2-2.57-4.14,1.74-.08,3.08,1.4,4.66,1.95-.75-1.73-2.87-3.01-2.64-5.05,1.52-.49,2.86.74,4.28,1.06-.45-1.3-1.46-2.24-2.38-3.19.65-.54,1.31-1.06,1.97-1.57.76.66,1.54,1.33,2.33,1.99.04-1.59-1.09-2.64-2.17-3.62,1.45-1.81,3.67-.2,5.5-.1-.95-.9-1.92-1.77-2.9-2.63.64-.59,1.27-1.17,1.91-1.75,1.22.89,2.48,1.76,3.88,2.36-.62-1.54-1.75-2.78-2.78-4.04.51-.24,1.54-.71,2.05-.95.93.79,1.9,1.53,2.93,2.21-.57-1.28-1.19-2.52-1.87-3.74"/>
        <path class="cls-4" d="M136.68,106.88c.64.58,1.28,1.16,1.94,1.75-.95.87-1.87,1.78-2.75,2.73,1.67-.4,3.28-.99,4.89-1.56-.51,1.47-1.14,2.91-1.76,4.36,1.45-.63,2.84-1.5,4.46-1.6-.84,1.41-1.74,2.79-2.51,4.25,1.66-.79,3.46-2.62,4.86-.41-1.2.92-2.38,1.88-3.53,2.88,1.68.31,4.7-2.46,5.44.1-1.15.95-2.4,1.79-3.55,2.73,1.35,1.28,2.79-.71,4.17-.96.43.54,1.27,1.63,1.69,2.17-.85.28-2.54.83-3.39,1.11.75,2.49,2.45.87,3.84-.03.37.75,1.11,2.24,1.48,2.99-1.47.6-3.79.58-3.9,2.67,1.5-.51,2.95-1.12,4.42-1.71.25.69.74,2.06.99,2.75-1.31.24-2.94.15-3.47,1.68,1.36-.17,2.72-.36,4.07-.59.28,1.55,1.01,3.08.85,4.7-.99.52-1.99,1.01-3.02,1.46.46.24,1.36.73,1.82.98.51-.31,1.53-.92,2.04-1.22.28.91.83,2.74,1.1,3.65-1.57-.46-3.35-.96-3.77,1.07.86-.13,2.57-.38,3.43-.51.24.78.72,2.33.96,3.11-1.58.39-3.14.85-4.62,1.53,1.63.56,3.27.47,4.91-.24l.03,1.98c-.62-.02-1.86-.06-2.48-.08,0,.27-.04.8-.05,1.07.67-.04,2.02-.12,2.69-.16l-.17,1.64c-.81.15-2.43.44-3.24.59.72,1.46,1.98,1.65,3.78.57-.02.75-.04,2.26-.05,3.01-1.81.08-3.62.17-5.43.25-.13-5.87-1.56-11.57-2.34-17.34-4.46-10.08-8.83-20.68-17.46-28.01,1.28-1.04,2.62-2.03,3.63-3.36"/>
        <path class="cls-2" d="M54.3,124.3c8.27-8.13,19.13-14.98,31.1-14.75-1.16,1.13-2.83,1.14-4.31,1.48-17.41,2.96-32.59,16.85-36.43,34.2-.85,2.66-.46,5.75-2.09,8.12-.49-10.78,4.59-21.23,11.73-29.05"/>
        <path class="cls-2" d="M92.82,109.33c11.5.7,22.49,6.4,30.43,14.64,7.3,8.06,11.92,18.66,12.57,29.54-1.66-1.66-1.5-4.21-2.18-6.3-3.13-17.03-16.85-31.37-33.66-35.41-2.4-.8-5.23-.65-7.16-2.47"/>
        <path class="cls-2" d="M53.36,110.79c2.31,1.79,3.19,4.77,4.68,7.19-1.6-.44-3.2-.95-4.79-1.35.73,1.16,1.42,2.35,2.09,3.56-2.69-.73-5.59-2.2-6.42-5.08,1.73.21,3.07,1.32,4.46,2.26-.64-1-1.9-3.01-2.53-4.01,1.79.2,3.23,1.12,4.32,2.77-.61-1.78-1.31-3.53-1.81-5.34"/>
        <path class="cls-4" d="M82.81,150.63c1.34-12.56,3.4-25.02,4.89-37.56.91,4.63.48,9.36.48,14.05-.01,6.39.18,12.78.15,19.18-2.06,1.15-3.86,2.67-5.52,4.33"/>
        <path class="cls-2" d="M120.86,119.24c.74-2.7,2.69-4.91,4.93-6.51,0,.72.01,2.14.02,2.86,1.07.16,2.15.33,3.23.51-1.73,1.89-3.15,4.13-5.32,5.57.33-2.04,1.12-3.94,1.82-5.86-1.58,1.12-3.09,2.33-4.68,3.43"/>
        <path class="cls-2" d="M130.42,117.44c1.08,1.2,2.14,2.43,3.01,3.82-1.41-.56-2.8-1.16-4.17-1.8.55,1.21,1.1,2.43,1.65,3.66-1.14-.39-2.27-.78-3.39-1.19.78,1.1,1.5,2.24,2.18,3.42-1.5-.61-2.91-1.38-4.3-2.19,1.29-2.22,3-4.15,5.02-5.72"/>
        <path class="cls-2" d="M46.88,117.43c2.39,1.32,4.63,3.09,5.77,5.65-1.65-.29-3.28-.66-4.91-1.04.84,1.26,2.57,2.28,1.93,4.07-2.16-1.66-4.23-3.48-5.76-5.75,1.03.09,3.1.28,4.13.37-.29-.82-.87-2.47-1.16-3.3"/>
        <path class="cls-4" d="M162.34,119.16c6.9,11.35,10.49,24.7,10.31,37.99-.58,18.35-6.92,36.57-18.39,50.98-6.49,8.88-15.27,15.8-24.62,21.46-13.35,7-28.52,11.12-43.66,10.14-7.75-.36-15.42-1.96-22.8-4.31,16.16,4.6,33.67,5.06,49.77-.03,18.13-5.44,34.08-17.57,44.55-33.29,7.04-11.16,12.31-23.73,13.54-36.96,2.12-15.73-1-32.11-8.7-45.98"/>
        <path class="cls-4" d="M98.81,130.96c-.31,2.98-.71,6.26-2.72,8.62.33-3.03,1.55-5.85,2.72-8.62"/>
        <path class="cls-4" d="M79.02,131.74c2.43,2.48,3.38,5.94,2.8,9.35-.86-3.15-2.29-6.12-2.8-9.35"/>
        <path class="cls-4" d="M100.86,140.89c3.34-2.66,6.5-5.59,10.23-7.7-4.71,4.55-9.29,9.26-14.25,13.55-.08-2.71,2.26-4.24,4.02-5.85"/>
        <path class="cls-4" d="M68.05,134.26c4.57,3.08,8.78,6.66,13.37,9.72-.19.99-.39,1.99-.58,3-3.91-4.59-8.65-8.36-12.79-12.72"/>
        <path class="cls-4" d="M22.73,135.92c1.3,1.25,2.73,2.34,4.29,3.28-.19,5.18-1.89,10.65-1.82,16.06-.96.11-2.89.32-3.85.43l.57-1.37c-.51.04-1.51.13-2.01.18l-.11-1.93c.73-.02,2.19-.05,2.92-.07.26-.24.8-.73,1.07-.97-1.43-.22-2.86-.45-4.28-.7.92-1.05,2.1-1.67,3.53-1.86-.73-.42-4.21-1.47-2.27-2.24,1.78.53,3.6.99,5.04-.49-1.57-.32-3.13-.66-4.67-1.02.08-.65.26-1.96.35-2.61,1.07.11,3.22.32,4.29.43-.98-1.52-2.89-1.48-4.4-1.93.72-1.35,1.89-1.79,3.51-1.32-.54-.97-1.62-2.9-2.16-3.87"/>
        <path class="cls-2" d="M55.22,141.67c3.16.72,6.25,1.69,9.4,2.46.13.21.4.63.53.84-3.32,2.64-7.32-1.18-9.93-3.3"/>
        <path class="cls-4" d="M71.97,141.12c3.35,2.58,6.44,5.57,8.92,9.01-3.89-1.8-6.33-5.73-8.92-9.01"/>
        <path class="cls-4" d="M102.72,150.05c2.74-2.34,6.37-3.21,9.83-3.81-2.93,1.98-6.29,3.43-9.83,3.81"/>
        <path class="cls-2" d="M28.1,149.11c.67,1.22,2.01,2.31,1.49,3.91-.12,4.62-.1,9.29.97,13.81-.47.72-.95,1.44-1.42,2.16-.87-6.6-.98-13.24-1.04-19.88"/>
        <path class="cls-4" d="M86.44,150.51c4.05-1.98,9.24,2.2,8.26,6.58-.49,4.6-6.87,6.73-10.06,3.41-3.44-2.71-1.97-8.4,1.8-9.99"/>
        <path class="cls-2" d="M32.36,151.4c2.68.4,6.77.78,7.77,3.64-2.81,1.28-5.86,1.96-8.88,2.57.67-2.56,3.37-2.49,5.38-3.22-1.07-.63-2.21-1.13-3.33-1.6-.33.73-1,2.21-1.33,2.94l-.45-2.29c.21-.51.63-1.53.84-2.04"/>
        <path class="cls-4" d="M52.04,155.71c9.33-1.41,18.58-3.39,27.98-4.27-.63,1.48-1.17,3.03-1.82,4.52-8.72-.28-17.46.29-26.16-.25"/>
        <path class="cls-2" d="M86.35,153.45c2.21-2.05,5.86-.13,6.2,2.67-.54,2.15-3.18,4.77-5.4,3.05-1.97-1.07-2.73-4.26-.8-5.72"/>
        <path class="cls-2" d="M137.64,153.41c2.94.1,5.88.08,8.82.03-.27,2.29.49,4.88-.8,6.96-.75-2.02.43-5.65-2.75-5.6-.06,1.22-.15,2.45-.27,3.69-2.1.16-.61-3.86-3.17-3.69-.17,1.88-.34,3.76-.6,5.64-2.08-1.7-.79-4.76-1.23-7.03"/>
        <path class="cls-4" d="M20.29,157.08c1.63-.02,3.26-.03,4.9-.03.23,5.55.98,11.06,2.33,16.45-1.97-.12-5.27,2.32-5.88-.77,1.34-.33,2.76-.54,3.9-1.41-1.17-.02-3.51-.05-4.68-.07,1.39-1.12,3.03-1.7,4.95-1.76-1.62-1.34-5.29.73-4.99-2.42,1.69-.44,3.45-.83,4.83-1.98-1.57.04-3.14.13-4.7.26-.17-1.12-.34-2.24-.52-3.35.78,0,2.34-.02,3.12-.02l-.15-1.3c-.74.05-2.24.17-2.99.23,0-1.29-.04-2.56-.12-3.83"/>
        <path class="cls-2" d="M32.15,160.94c.26-3.61,5.13-3.75,7.91-3.65-.06,3.7-5.31,2.87-7.91,3.65"/>
        <path class="cls-2" d="M42.32,162.17c-.05-1.11.05-2.2.3-3.26,1.17,3.64,1.47,7.5,2.71,11.14,4.38,14.29,16.37,25.92,30.75,29.95,3.34.98,6.9,1.22,10.07,2.74-21.9-.12-41.67-18.91-43.83-40.57"/>
        <path class="cls-2" d="M134.15,163.16c.34-1.55.27-3.33,1.63-4.4-.32,22.77-20.46,43.08-43.1,44,1.56-1.86,4.27-1.35,6.38-2.05,13.24-3.17,25.46-12.17,31.13-24.72,1.96-4.05,3.24-8.4,3.96-12.83"/>
        <path class="cls-4" d="M68.29,163.73c2.1-.59,4.17-1.29,6.33-1.64-1.7,2.3-4.77,2.71-7.2,3.82.22-.54.65-1.63.87-2.18"/>
        <path class="cls-4" d="M66.11,178.28c3.98-5.89,8.75-11.29,13.75-16.3.39,2.9-2.63,4.51-4.39,6.24.54.53,1.07,1.06,1.6,1.6,1.29-1.35,2.66-2.64,4.24-3.65-1.58,2.55-4.08,4.29-6.25,6.28-.62-.66-1.24-1.3-1.86-1.93-1.9,2.97-4.46,5.44-7.09,7.76"/>
        <path class="cls-4" d="M96.07,164.48c4.95,4.16,9.28,8.99,13.76,13.64-3.4-2.09-6.38-4.75-9.44-7.26-1.93-1.73-4.42-3.47-4.32-6.38"/>
        <path class="cls-2" d="M110.35,165.93c1.07-.99,2.75,1.45,1.4,1.96-.35-.49-1.05-1.47-1.4-1.96"/>
        <path class="cls-4" d="M147.9,170.09c.48-.12,1.45-.38,1.93-.5-5.25,24.55-26.8,44.41-51.52,48.21-5.98,1.34-12.11.41-18.16.53-.19-.46-.57-1.38-.76-1.83,29.75,5.52,61.18-15.43,68.43-44.6l.08-1.81Z"/>
        <path class="cls-4" d="M81.97,170.74c1.49,3.25-1.73,6.59-2.77,9.62.37-3.35,1.68-6.48,2.77-9.62"/>
        <path class="cls-4" d="M22.66,175.87c1.72-.48,3.44-.96,5.15-1.46,2.13,7.96,6.46,15.14,11.46,21.63,4.65,5.3,9.61,10.68,16.03,13.84-.07.81-.14,1.62-.22,2.45-.52.77-1.55,2.32-2.07,3.09-2.57-1.49-.67-3.57.07-5.49-1.98.13-2.36,2.04-2.91,3.57-2.27-1.88-4.51-3.8-6.7-5.75,1.34-.69,2.46-1.63,3.37-2.81-1.54.28-2.9.95-4.07,1.99-.57-.43-1.71-1.29-2.27-1.72,1.11-1.17,4.13-1.58,3.07-3.83-1.37.86-2.7,1.78-4.01,2.73-3-1.87.59-3.64,1.81-5.28-1.72.25-3.11,1.24-4.39,2.34-1.04-1.22-2.08-2.4-3.12-3.59,1.64-.08,4.21-.47,3.46-2.92-1.28.62-2.53,1.29-3.75,2.01-.47-.54-1.41-1.61-1.89-2.15,1.25-.54,2.43-1.23,3.47-2.11-1.72-.86-3.08-.34-4.02,1.22-.47-.77-1.41-2.3-1.87-3.07,1.39-.25,2.77-.52,4.16-.83-1.28-1.33-3-.42-4.5-.15-.45-.71-1.34-2.14-1.78-2.85,1.69.49,2.82-.03,3.38-1.57-2.04.6-4.25,1.34-5.06-1.39,1.1-.2,3.28-.59,4.38-.78-1.71-2.11-4.38.78-5.65-1.96,1.53-.67,3.38-1.1,3.98-2.88-1.23.59-2.44,1.22-3.63,1.9-.62-1.41-1.25-2.8-1.88-4.18"/>
        <path class="cls-4" d="M150.22,173.71c1.78.55,3.54,1.16,5.36,1.63-.12.75-.36,2.24-.48,2.99-1.33-.7-2.75-1.19-4.22-1.4.26,1.83,2.19,1.8,3.48,2.45-.51,1.14-1,2.3-1.49,3.45-1.32-.69-2.66-1.32-4.02-1.9-.15,2.42,2.45,2.27,4.07,2.96-.92,3.76-5.1-.44-5.91,2.99,1.05-.1,3.15-.3,4.2-.4-.74,1.4-1.46,2.82-2.17,4.25-1.71-.89-3.45-1.76-5.32-2.23,3-4.53,4.89-9.64,6.5-14.79"/>
        <path class="cls-2" d="M50.38,187.76c.3.27.9.81,1.2,1.08-2.81,1.29-5.74,3.02-8.96,2.55,2.55-1.3,5.08-2.64,7.76-3.63"/>
        <path class="cls-2" d="M124.81,190.99c.7-1.98,2.5-4.61,4.62-2.67-1.48.46-2.36,1.43-2.63,2.91,1.22-.44,2.44-.92,3.64-1.42.68,1.05,2.04,2.41.96,3.71-2.34,2.38-4.12,5.68-7.5,6.72.82-1.63,2.53-2.84,2.6-4.79-1.84,1.88-4.28,1.49-6.41.46.73-1.85,2.18-3.22,3.75-4.37,1.46,1.39,2.9,2.8,4.33,4.24.93-1.34,1.83-2.69,2.66-4.08-2.13,1.17-4.17.62-6.02-.71"/>
        <path class="cls-4" d="M143.43,188.92c1.6.89,3.19,1.8,4.68,2.88-.27.74-.81,2.21-1.09,2.95-1.33-.64-2.48-2.71-4.17-1.64.76,1.46,2.37,1.65,3.82,1.98-1.69,2.09-3.57,5.78-6.79,3.77.48.47,1.43,1.42,1.91,1.89-1.32,1.32-2.54,2.73-3.79,4.12-1.22-1.27-2.53-2.44-3.79-3.65.43-.53,1.29-1.59,1.72-2.12.83,1.23,1.57,3.15,3.44,2.93.15-1.77-2.12-2.14-3.13-3.03,2.66-3.17,5.29-6.38,7.19-10.08"/>
        <path class="cls-2" d="M45.23,192.78c2.37-1.21,4.9-2.09,7.51-2.6-.61,1.2-1.23,2.38-1.87,3.57-1.37-3.17-3.85,2.06-5.64-.97"/>
        <path class="cls-2" d="M50.55,197.71c0-2.58,2.37-4.13,4.04-5.73.83,1.43,1.64,2.87,2.42,4.34-1.61-.14-3.22-.44-4.83-.54.82,1.14,1.65,2.29,2.49,3.43-1.43-.02-3.65.34-4.12-1.5"/>
        <path class="cls-2" d="M48.29,194.35q.77.55,0,0"/>
        <path class="cls-4" d="M122.46,194.36c.8-1.37,3.55-.17,2.21,1.24-.86,1.14-3.45.2-2.21-1.24"/>
        <path class="cls-2" d="M140.35,195.49c1.21-.45,3.17,1,2.71,2.32-1.2.53-3.53-.99-2.71-2.32"/>
        <path class="cls-4" d="M123.24,209.54c3.82-2.38,7.25-5.28,10.69-8.16.61,1.75,1.94,3.06,3.33,4.23-.95.96-1.88,1.94-2.79,2.95,1.22-2.38-1.4-3.3-2.58-4.64.11,1.8,1.11,3.25,2.42,4.44-.92.8-1.83,1.61-2.73,2.44-.67-1.66-1.59-3.19-3.38-3.71,0,1.97,1.74,2.97,3.04,4.14-1.24.91-2.49,1.83-3.75,2.73-1.16-1.7-2.01-3.85-4.25-4.42"/>
        <path class="cls-2" d="M46.7,209.24c-.17-1.32,2.27-2.73,2.7-1.03.22,1.34-2.28,2.75-2.7,1.03"/>
        <path class="cls-4" d="M120.86,210.98c.54-.28,1.64-.84,2.19-1.11.96,1.51,1.93,3.03,2.92,4.54-.97.74-1.94,1.49-2.9,2.25-.24-.75-.73-2.23-.97-2.97-.41-.93-.82-1.82-1.24-2.71"/>
        <path class="cls-4" d="M53.68,215.74c1.5-1.49,2.98-3.09,2.12-5.34,4.42,3.24,9.62,5.15,14.78,6.84-.41,1.81-.85,3.62-1.27,5.44-.74-.27-2.23-.81-2.97-1.08.62-1.15,1.21-2.32,1.76-3.49-1.87-.01-2.24,1.85-2.97,3.17-1.19-.53-2.39-1.06-3.58-1.56,1.25-.95,2.11-2.22,2.7-3.64-1.99-.02-2.63,1.71-3.03,3.33-.71-.34-2.13-1.03-2.84-1.37,1.19-1.24,1.72-2.83,1.65-4.54-1.05,1.19-1.69,2.63-2.26,4.11-.39-.2-1.15-.59-1.53-.78l.59-1.49-.83-.68-.03,2.14c-.57-.27-1.72-.8-2.29-1.06"/>
        <path class="cls-2" d="M69.96,214.35c-.06-.93-.13-1.86-.21-2.77,1.15,2.7,4.81,2.06,7.12,2.58-.67.45-1.34.9-2.01,1.36-1.61-.5-3.24-.89-4.9-1.17"/>
        <path class="cls-4" d="M116.99,212.94c.87-.43,2.61-1.27,3.48-1.7-.5,2.24.42,4.27,2.22,5.65-1.21.47-2.41.97-3.6,1.5-.64-1.04-1.31-2.06-2.02-3.04-.04-.81-.07-1.62-.08-2.41"/>
        <path class="cls-4" d="M116.46,213.43c-.11.95-.22,1.92-.32,2.89-.27.78-.82,2.33-1.1,3.1.42-.52,1.25-1.56,1.67-2.08l2.28,1.49c-3.3,1.27-6.61,2.5-9.9,3.82-.29-1.97-.95-3.84-1.73-5.64,3.17-.8,6.39-1.67,9.1-3.58"/>
        <path class="cls-2" d="M110.81,220.12c.05-1.3,1.24-4.45,2.37-1.85.03.47.08,1.42.11,1.89-1.02,1.07-1.85,1.06-2.48-.04"/>
        <path class="cls-4" d="M71.6,217.5c2.67.7,5.37,1.33,8.11,1.73-.54,1.89-1.11,3.78-1.58,5.7-2.49-.65-1.45-3.26-1.59-5.1-.88.17-2.62.5-3.5.67-.1,1.06-.2,2.14-.3,3.22-3.97-.09-.91-4.11-1.14-6.22"/>
        <path class="cls-4" d="M102.08,219.13c1.24-1.13,2.88-1.45,4.46-1.84-.08,2.24,3.21,6.61-1.15,6.47.04-.44.12-1.31.16-1.75-1.18-.95-2.34-1.91-3.47-2.88"/>
        <path class="cls-4" d="M89.81,219.92c3.83.04,7.72-.03,11.36-1.39.49.59.97,1.2,1.46,1.82l-1.92.59c.65.03,1.95.08,2.6.1l.14,1.08c-.72.22-2.16.66-2.88.88.8.06,2.38.18,3.18.24l.16.74c-1.04.19-3.12.58-4.16.77-.15-1.48-.31-2.91-.46-4.36-.94.79-2.02,1.22-3.24,1.29.44.05,1.31.14,1.74.19l.06,1.56c-3.65-.38.26.37,1.28,1.2-1.09.18-3.28.53-4.38.71.05-1.4.11-2.79.19-4.18-.22,1.03-.75,1.63-1.6,1.79-.23-.46-.68-1.4-.9-1.87-.85.55-1,1.55-1.27,2.47.47.2,1.42.59,1.9.79l.8.65c-1.01.12-3.03.36-4.04.48-.04-1.86-.05-3.7-.02-5.55"/>
        <path class="cls-4" d="M79.93,219.55c2.69.15,5.38.42,8.08.58.04,1.38-.5,2.47-1.61,3.27.4.39,1.2,1.16,1.61,1.55-.85.14-2.55.44-3.4.58.19-1.61.3-3.21.34-4.81-.82,1.28-1.34,2.72-1.72,4.2-.85.03-2.54.09-3.39.12.06-1.84.08-3.67.09-5.49"/>
        <path class="cls-4" d="M74.06,221.56h.79c-.05.42-.13,1.23-.17,1.63l-.76-.02c.03-.4.11-1.21.14-1.61"/>
        <path class="cls-2" d="M81.39,223.27q.55.67,0,0"/>
      </g>
    </g>
  </g>
</svg>