<?xml version="1.0" encoding="UTF-8"?>
<svg id="Layer_1" data-name="Layer 1" xmlns="http://www.w3.org/2000/svg" xmlns:xlink="http://www.w3.org/1999/xlink" viewBox="0 0 477.93 496.13">
  <defs>
    <style>
      .cls-1 {
        fill: none;
      }

      .cls-2 {
        fill: #1f3d3a;
      }

      .cls-3 {
        clip-path: url(#clippath-1);
      }

      .cls-4 {
        clip-path: url(#clippath);
      }
    </style>
    <clipPath id="clippath">
      <rect class="cls-1" width="477.93" height="496.13"/>
    </clipPath>
    <clipPath id="clippath-1">
      <rect class="cls-1" width="477.93" height="496.13"/>
    </clipPath>
  </defs>
  <g id="Cypress">
    <g class="cls-4">
      <g class="cls-3">
        <path class="cls-2" d="M236.28,0c2.68,1.17,3.75,3.84,6.03,5.42.38-.29.81-.67,1.24-.88.58-.27.86-.24,1.44-.05,1.12.38,2.01,1.47,2.47,2.52.96,2.14-.01,4.08-.75,6.14,2.5-1.2,4.83-2.95,7.19-4.42.3,2.66.11,5.44-.08,8.1l.38.13c3.35,1.1,11.37,1.1,13.62,3.54.41.45.37.61.37,1.18-.99,1.59-2.79,1.93-4.46,2.5.27.02.53.03.8.06,2.36.24,6.06.59,7.64,2.57.1.4.21.67.08,1.08-.92,2.95-7.53,5.52-10.16,6.84,7.69,3.45,15.13-1.1,22.13,5.5-1.39.32-2.77.49-4.19.68,1.8.73,4,1.47,5.5,2.73.65.54.84.99.92,1.82-1.48,3.05-6.04,1.45-8.56,2.57.08.78.24,1.83-.21,2.52-1.72,2.66-7.73-.18-10.22.3-.38.08-.27.1-.51.48.03.22.05.34.16.56.4.78,1.37,1.52,2.06,2.03,5.58,4.18,11.88-2.46,17.86.24.22.91-.65,1.01-.62,1.9,3.59,1.02,7.67-1.08,11.34-.81,1.95.14,3.11,1.4,4.26,2.84,1.83-.83,3.46-1.56,5.49-1.77.81-.08,1.72-.16,2.39.38.13.94-.45,1.28-.57,2.19,2.3-.22,4.39-1.39,6.65-1.79,7.4-1.31,13.62,1.88,20.19,4.8-1.79,1.15-3.81,1.47-5.85,1.91l-.48,2.52c-3.21.93-5.93.46-9.19.67.13.53.3,1.02.48,1.51-.13.35-.13.53-.45.77-1.9,1.4-6.65.48-8.85.05l2.54,3.21c-3.44,1.35-6.71,1.39-10.35,1.32,1.37,1.87,2.95,3.32,4.74,4.77.51-.53,1.04-1.05,1.6-1.53,1.53-1.32,3.51-2.49,5.6-2.22,1.96.24,2.87,1.47,4,2.92,2.73-1.32,4.59-4.75,7.37-5.49,1.88-.49,3.3.4,4.88,1.28,1.5-.35,3.01-.77,4.54-.91.94-.1,1.72-.14,2.47.46l-.03.62c-.56,1.02-1.42,1.64-2.29,2.38,6.15-.67,10.32-1.71,16.71-1.1-2.34,4.04-4.77,5.68-8.74,7.93,1.71.16,3.62.16,5.02,1.26.16.8-.16,1.05-.54,1.74.24,1.02,2.71.94,3.59,1.79,0,.65-.05.68-.54,1.13-2.92,2.71-8.88,2.41-12.65,2.44,2.47,1.82,7.62,5.17,9.04,7.77.29.51.3.53.11,1.1-2.95,1.35-10.48-.59-13.83-.93-2.07-.21-4.18-.19-6.27-.22,1.59,1.91,4.18,4.56,4.45,7.14.08.83-.09,1.66-.67,2.28-1.93,2.12-8.09,1.6-10.78,1.67,3,1.75,5.84,3.21,9.15,4.27,2.57-1.15,4.91-2.74,7.45-3.94,3.84-1.8,10.86-2.97,14.86-1.29.72.3,1.13.65,1.45,1.34-1.15,3.3-8.1,3.09-9.22,5.52,1.1,1.34,4.7,1.15,6.43,1.87.81.33,1.21.77,1.53,1.6.06.99-.52,1.8-.99,2.63,3.49-.19,6.95-.77,10.45-.89l-1.05,2.53c4.35,1.58,8.79,1.67,13.09,3.67-.85.51-1.63,1.12-2.42,1.69.33.24.65.48.97.72,1.56,1.2,5.05,4,5.02,6.11,0,.61-.37,1.02-.83,1.36-2.38,1.71-5.95-.97-8.44-1.12l-.16.27c.14.54.27,1.07.38,1.61l-.34.32c-3.65.02-6.97-2.71-10.56-3.27-.48.54.19,2.2,0,3.03-.17.78-.4.86-1.02,1.26-3.99.49-8.74-2.2-12.28-3.8.49,1.28,1.67,3.67,1.02,5.02-1.79,3.73-9.58-1.9-12.26-2.02-.91-.05-1.83,1.15-2.79,1.34-2.12.4-4.56-1.47-6.27-2.49-.19.64-.37,1.29-.62,1.9-.24.59-.65,1.42-1.31,1.61-2.47.72-11.67-6.7-14.24-8.21-1.1.92-2.22,1.75-3.43,2.55-2.06.05-4.2-.37-6.17-.97-3.48-1.07-4.98-2.87-6.63-5.95-2.86-.21-5.73-.46-8.6-.45.56.81,1.26,1.64,1.56,2.58-.33.14-.69.26-1.02.38,2.39,2.81,9.22,2.02,12.55,4.83,1.17.97,1.05,2.58,2.07,3.67.06.06.14.13.21.21,1.13,1.17,2.84,1.72,4.31,2.38-.69.48-1.32.99-1.98,1.5l.08.29c1.91,1.01,4.53,1.37,6.63,1.98,2.46.72,13.99,4.9,14.83,6.4-1.36,1.32-7.54,1.79-9.41,1.77l-.13.22c.41.4.67.62.91,1.17l-.57.86c-.13,1.68,2.61,2.26,3.36,3.56.99,1.72-1.05,1.4-1.35,2.54.24.22.24.24.57.43,3.22,1.82,14.67-.18,18.21-1.12l3.49,1.18c2.81-2.89,3.17-7.08,6.06-9.93,1.21-1.2,3.21-2.68,4.99-2.61,2.19.08,3.43,2.23,4.85,3.59,3.43,3.24,6.89-1.31,10.43-1.5l.89.97c1.72.59,3.97-1.32,5.5-2.02,2.25-1.02,8.83-2.97,11.15-1.74.65.35.69.49.88,1.16-.25,1.05-1.1,1.72-1.85,2.47,5.15.48,13.04-1.34,17-.38l.19.45-.49,1.02c.81.64,2.41.69,3.43.93,1.44.32,3.8.83,4.48,2.3.26.54.21,1.32-.05,1.87-1.18,2.42-5.69,1.1-7.75,2.04-.08.51-.21.92-.42,1.4-.33.14-.78.27-1.08.5-1.31.92-.57,3.03-1.01,4.39-2.17,2.65-8.52,1.45-11.66,1.48-1.43.02-2.87.27-4.29.49,2.71.93,6.19,2.7,7.72,5.22.54.91.73,1.91.4,2.93-.24.73-.69.89-1.34,1.21-.49.24-.85.37-1.18.81.27.38.53.78.8,1.17-.48,1.39-1.98,1.32-3.16,1.93.22.96.94,1.34.88,2.34-.22.22-.24.27-.54.45-3.14,1.87-11.69-1.9-15.17-3.01.38.51,1.04,1.29,1.18,1.93.16.65.02.81-.32,1.32-2.03.97-5.33.05-7.46-.41,2.34,4.03,4.64,6.01,8.58,8.5,1.12.7,2.43,1.36,3.33,2.31l-.03.53c-1.51.57-3.46.6-5.07.78,3.75,2.81,17.7,7.38,22.36,7.51,3.37.08,6.74-.92,10.09-.81.96.03,1.69.1,2.36.81l-.22.49c-1.07.69-2.2.94-3.4,1.28,8.58.77,16.9,3.91,24.64,7.53-2.68.02-5.28-.13-7.94-.48,9.2,2.39,14.83,4.59,20.35,12.63-8.04-.1-16.09-.78-24.13-.64,1.45,2.09,3.25,4.61,3.59,7.19.11.83-.03,1.18-.56,1.82-4.43,1.95-16.52-7.97-21.05-7.72-.32.38-.65.75-1,1.1-1.23.45-2.39.41-3.67.43.68.89,2.03,2.52,1.96,3.7-.05.76-.21.84-.75,1.31-3.75.91-9.35-2.06-12.57-3.81-.53,1.21-.96,2.46-1.4,3.7.8,1.21,1.48,2.06,1.37,3.54-.37.64-.56.97-1.26,1.26-2.9,1.18-8.69-1.04-11.43-2.07.83,1.12,1.77,2.11,2.71,3.13-1.39.72-2.77,1.24-4.26,1.75-4.54-.81-8.91-4.02-12.93-6.23-.19,1.34-.34,2.66.24,3.94,1.8,4,7.77,4.39,11.47,5.25,1.68.4,3.27.94,4.88,1.55-1.69,1.02-3.41,1.96-5.15,2.9,5.61,1.53,11.32,2.12,17.14,2.18,2.23-2.22,6.27-6.06,9.54-6.08,1.55-.02,2.22.85,3.2,1.9,3.3-1.74,8.28-7.1,11.83-7,.43.22.65.26.91.7.99,1.72-.18,4.91-.64,6.7.08-.03.14-.05.22-.08,3.21-1.1,10.86-3.43,14.08-1.71.59.32,1,.77,1.15,1.45.38,1.82-1.15,3.72-2.11,5.14,7.8.96,14.67,2.57,20.59,7.99-4.3.45-8.6.45-12.92.41,1.29.81,2.57,1.45,3.22,2.9-.06.4.02.64-.32.91-1.86,1.51-9.77.33-12.45.09,1.18.77,3.37,1.96,3.65,3.45.08.4-.13.56-.32.88-2.2,1.2-5.29.62-7.69.35.46.45.97.91,1.39,1.39,1.37,1.58-.16,1.44-.29,2.74.57,1,1.74,1.74,2.63,2.46,1.85-.46,3.83-1.02,5.76-.97,1.4.05,3.83.06,4.83,1.1l-.03.51c-1.15,1.26-2.51,1.45-4.1,1.75l.22.1.38.14c5.5,2.17,11.61,2.82,16.68,6.06-3.25.94-6.51,1.61-9.44,3.38,1.36,1.55,3.99,3.12,4.93,4.83.24.43.19.22.05.75-2.95,1.66-10.46-.96-13.86-1.01.64.54.99.91,1.32,1.69-.03.59.05.94-.49,1.34-4.19,3.13-10.67-5.18-13.76-5.47-.03,1.04-.08,1.6-.78,2.34-2.44.64-4.39-2.38-6.68-2.47-.45.49-.43.48-.46,1.15,1.34,3.14,4.37,2.93,6.81,4.51.69.45.91.81,1.05,1.6-.35,1.04-1.5,1.85-2.3,2.58,7.37,5.58,17.1,2.81,23.44,7.67.77.59,1.16,1.05,1.28,2.02-.7,1.42-3.06,1.98-4.45,2.5,8.29,2.18,16.6-2.6,24.5,1.69-3.16,2.52-7.15,4.31-10.8,5.98,8.2.57,15.84.06,23.6,3.35-2.06,1.37-4.31,2.25-6.6,3.14,7.61.86,16.46,3.43,21.54,9.54-5.5.62-10.89.56-16.43.43.57.81,1.2,1.64,1.91,2.33.97.96,4.85,3.7,5.39,4.92-.03.12-.05.21-.09.33-3.92,2.59-16.2-3.6-20.53-5.38.96,2.12,2.68,4.77,4.5,6.22h.46l.09.29c-.35.37-.67.53-1.15.69-7.57,2.39-15.13-1.51-21.74-4.75,1.4,2.1,3.35,3.76,5.18,5.47-6.24-.51-9.44-1.07-14.72-4.71.59,1.96,4.62,11.67,4.39,12.66l-.54.24c-1.07-.16-1.83-.57-2.78-1.08.1,2.09.53,5.98-1.21,7.5-.49.43-1.09.54-1.72.45-3.22-.51-11.74-12.01-13.81-14.75.35,1.43.91,2.89.35,4.32-.35.22-.41.4-.86.32-2.58-.43-7.37-6.68-9.2-8.85.08.84.14,1.71.13,2.57-.03,1.04-.13,1.95-.93,2.7-2.38.38-7.83-4.64-9.85-6.09-1.43-1.04-2.97-1.96-4.46-2.9-.45.67-.97,1.31-1.45,1.96-1.71.19-3.48.19-5.2.24,2.42,2.02,7.4,5.49,8.74,8.24.26.53.24.3.06.81-.4.13-.78.21-1.12.48-.92.72,3.24,3.4,2.63,6.32-.1.46-.22.41-.58.65-2.52.01-3.83-2.36-6.06-3.08-.16.64-.33,1.18-.61,1.79l-.56.13c-2.35-.49-4.37-2.06-6.32-3.38-.22,1.31-.32,2.68-.61,3.97-.3,1.34-.83,2.47-1.98,3.24-.43.1-.77.18-1.21.03-2.71-.94-5.55-6.75-6.94-9.19-1.67-.62-3.41-1.12-5.12-1.66,2.28,3.81,4.27,7.69,5.93,11.8-1.56.19-3.19.16-4.77.22.62,1.05,1.24,2.12,2.04,3.06,1.44,1.71,6.3,5.5,6.63,7.5-.45.73-1.13.94-1.9,1.26,1.74,1.83,5.36,3.51,5.87,6-.35.89-1.07,1.08-1.9,1.5.24,1.96,5.52,8.31,4.91,11.98-.08.49-.19.46-.56.75-2.86.11-12.09-8.26-14.4-10.3-.65.89-1.37,1.75-2.06,2.62-2.65-2.15-6.15-5.1-9.49-6-1.9-.49-3.89-.46-5.63-1.47-2.87-1.67-5.21-5.01-7.78-7.21-.38,1.36-.65,2.66-.88,4.05-3.56-3.52-6.62-7.51-10.24-11,.05,1.93.59,5.72-.29,7.43-.19.37-.19.25-.67.4-.8-.29-1.28-.7-1.87-1.29-2.79-2.76-6.41-8.79-5.63-12.86.29-1.48,1.27-3.03,1.13-4.58-.06-.7-.3-1.04-.89-1.4-.49-.3-1.08-.51-1.66-.37-.32.41-.69,1-1.07,1.32-.34.27-.64.34-1.04.29-1.18-.13-1.74-.91-2.46-1.77l-.24-.29c-2.62,1.47-3.7,4.15-6.73,5.33-3.13,1.21-2.1-1.67-4.18-1.39-3.17.43-5.47,2.84-8.85,1.4-.21-.29-.4-.41-.37-.8.13-1.28,1.52-2.28,2.38-3.13.77-.77,1.29-1.26,1.28-2.41,0-.54.03-.78.32-1.27.61-.4,1.26-.7,1.55-1.4-.72-.83-2.11-.29-3.01-1.28l.16-.56c.97-.91,2.14-1.1,3.06-1.87.75-.61-.67-1.93-.78-2.73.89-1.82,3.11-2.95,4.74-4.02-1.1-1.34-2.3-2.6-3.67-3.67-3.02-2.34-6.83-3.83-10.68-3.24-6.94,1.05-15.53,7.18-19.7,12.74-2.04,2.73-3.65,6.09-4.27,9.46-1.34,7.16-.68,14.59-.27,21.82,1.29,21.88,4.77,43.66,8.01,65.32,1.26,8.4,2.39,12.6,8.69,18.48,2.25,2.09,4.67,4.11,7.34,5.64,6.44,3.69,22.58,5.79,30.33,7.24,11.18,2.09,22.31,4.48,33.36,7.18,13.54,3.25,26.73,6.76,39.57,12.18,2.12.89,4.99,1.76,6.84,3.13l-.3.21c-3.06-.16-6.12.09-9.17.17-4.79.16-9.57.17-14.34.01-20.52-.64-41.05-2.14-61.6-1.27-25.69,1.09-51.26,3.96-77,4.4-15.9.29-31.75-.8-47.62-1.31-12.89-.91-25.77-1.99-38.64-3.27-21.82-1.98-44.91-4.59-66.6-.17,21.12-14.29,78.3-22.84,104.76-25.95,2.98-.35,5.98-.56,8.98-.64,3.25-.05,6.63.19,9.84-.38,5.92-1.05,13.04-8.18,16.31-13,1.39-2.04,2.1-4.29,2.58-6.7,1.5-7.54,1.64-15.58,2.25-23.25,1.15-13.43,1.96-26.89,2.47-40.36.37-9.07,1.15-18.91-.56-27.88-1.48-7.7-5.96-13.28-12.39-17.56-5.31-3.51-11.56-6.19-18.02-4.85-3.29.69-6.06,2.38-7.93,5.22-.05.08-.11.16-.16.24,1.28.8,2.82,1.58,3.96,2.58.53.46.75.92.81,1.61-.43.75-.91.86-1.66,1.26.96,1.07,2.44,2.25,2.49,3.78.03,1.21-1.8,1.05-2.49,1.85.81,2.41,4.43,4.07,5.15,6.71.18.67.14.76-.21,1.31-2.44,1.04-4.96-.97-7.37-.46-.51.43-.91.77-1.56.97-1.9-.46-3.25-2.28-4.54-3.64-.81.51-1.68,1.07-2.66,1.02-1.96-.1-3.22-2.12-4.32-3.51-.83.99-2.03,2.54-3.41,2.6-1.37.06-2.44-1.75-3.38-2.6-.41-.37-.5-.57-1.07-.53-.53,1.64,3.48,6.94,2.93,11.05-.51,3.92-2.9,8.02-5.98,10.48-.86-2.46-1.83-4.82-2.87-7.21-4.05,5.65-5.8,9.73-11.59,14.07-.02-1.77-.3-3.46-.61-5.2-2.95,3.16-5.26,5.42-9.62,6.43-1.1-.26-2.04-.57-3.06-1.07-1.15,2.73-3.32,5.88-6.09,7.11-.73.34-1.61.45-2.36.08-1.1-.53-1.29-1.56-1.59-2.63-4.26,4.82-8.92,8.28-15.33,9.51,1.72-5.84,3.75-11.43,6.28-16.97l-3.46-.08c3.14-5.2,8.2-8.17,11.75-12.93-1.66-.5-3.4-.81-5.09-1.18,1.77-3.09,3.59-5.79,5.96-8.45-.96-.08-2.04-.03-2.9-.49-.13-.48-.21-.72-.51-1.13-3.65.73-5.02,8.85-8.42,10.78-.51.29-1.05.41-1.59.13-1.45-.75-2.03-3.19-2.46-4.62-.86.88-1.83,1.8-2.84,2.52-.63.44-1.35.87-2.13.77-.38-.05-.85-.4-1.02-.74-.99-1.99.56-5.9,1.2-7.88-1.6,1.02-4.45,3.24-6.41,2.65-.67-.19-.72-.49-.96-1.07.29-2.52,2.31-4.02,4.16-5.5-.57.21-1.28.53-1.88.53-.54,0-.65-.14-1.04-.49-.02-.3-.05-.34.05-.67.93-3.3,7.96-5.42,10.78-6.47l-2.28-1.98c-.94.4-1.87.8-2.79,1.21-1,.45-2.14,1.04-3.24.61-.48-.81-.1-1.67-.37-2.6-2.84,0-9.79,11.9-14,12.65-.73.13-.88.03-1.45-.37-.97-1.82-.53-3.65-.32-5.63-1.96,1.94-3.76,4.19-6.01,5.8-.81.57-1.39.88-2.39.7-.57-.45-.68-.97-.91-1.64l-.1-.3-.38-.18c-2.7,1.45-4.8,4.8-7.03,6.89-2.38,2.23-5.14,3.76-8.01,5.25-1.63-4.78-.1-6.76-.81-9.28-.57.56-1.02,1.04-1.83,1.02-.57-.48-.78-1.18-.91-1.9-.56-3.17,2.06-6.46,3.78-8.88-4.07,3-7.54,5.31-12.81,5.09.32-1.29.75-2.52,1.21-3.78-7.05,3.17-13.32,4.15-20.97,3.29,1.74-2.71,3.94-4.99,5.31-7.94-10.92,3.51-10.43,5.65-22.77,4.69,2.34-1.44,7.4-3.3,8.71-5.68.24-.45.14-.45.02-.89-1.63-1.07-13-1.28-15.79-1.63,5.36-6.04,13.52-8.67,21.37-9.33-2.55-1-5.07-2.06-7.57-3.16,7.61-3.01,16.5-2.79,24.56-2.89-2.82-2.3-6.38-3.49-9.2-5.74-.05-.51-.16-.46.16-.76,3-2.97,12.76-1.15,16.73-.99,3.06.13,6.17.05,9.23.03-1.74-.94-3.59-1.66-5.39-2.5-.65-.3-1.51-.7-1.79-1.42.72-.88,1.91-1.29,2.93-1.69,2.18-.85,4.4-1.47,6.73-1.8,4.15-.61,8.66-.19,12.39-2.36,1.15-.67,2.1-1.94,2.98-2.95-1.4-.84-3.46-1.69-3.89-3.4.75-1.79,4.42-2.31,6.14-3.16,1.18-.57,2.22-1.53,3.22-2.36-1.31.51-2.65,1.12-4,1.45-.88.22-1.58.22-2.36-.26-.19-.54-.3-1.02-.75-1.4-2.93-.21-9.28,5.02-13.63,5.37-.7.06-1.1.08-1.66-.37v-.64c.62-1.21,1.68-2.03,2.7-2.92-5.28,1.01-9.82,1.79-15.2.99,1.48-1.67,3.03-3.32,4.34-5.12-2.76-1.04-5.41-2.12-7.88-3.75,4.83-2.63,9.73-3.33,15.1-4.02l-2.93-2.85c2.79-1.04,5.44-.99,8.34-1.31,3.92-.43,6.12-2.41,8.48-5.34-1.93.26-6.04,1.18-7.62-.1-.35-.29-.26-.51-.29-.92.72-1.43,1.98-2.23,3.22-3.17-2.39.14-4.82.35-7.22.3-1.53-.03-4.77-.01-5.85-1.16l.08-.46c1.13-1.24,3.25-1.9,4.8-2.47-6.14-1.23-12.49-1.63-18.69-2.47,5.61-6.44,14.13-6.97,22.02-8.12-.76-.75-1.58-1.5-2.25-2.35-.67-.85-1-1.64-.88-2.73.25-.43.41-.62.86-.88,2.85-1.6,12.38,1.16,15.72,2.02-.75-1.32-2.17-3.73-2.06-5.28.05-.62.13-.75.54-1.15,3.36-1.12,10.41,5.23,12.55,5.36.08-.29.18-.77.32-1.04.22-.41.38-.57.8-.73,3.78-1.42,8.8,4.35,11.48,6.43,1.02.78,2.11,1.34,3.25,1.88,3.37-2.38,9.41-.53,13.73-1.88.67-.21,1.02-.35,1.36-.97-1.83-.85-4.05-1.15-6.01-1.76,3.11-2.38,14.13-5.98,18.12-6.55,1.28-1.29,2.09-2.66,2.78-4.34.32-.78.61-1.5.25-2.31-2.18-1.07-8.08,3.71-10.51,4.59-2.7.97-5.71,1.18-8.55,1.48.48-1.32,1.2-2.54,1.88-3.76-.3.11-.61.22-.91.32-1.44.48-3.05,1.18-4.48.45-2.68-3.59-5.63.29-8.28-1.71-.4-.3-.32-.45-.4-.89.26-.56.49-.83.96-1.21.35-.29.48-.35.67-.78-.83.21-2.3.72-3.11.43-.33-.13-.4-.46-.54-.77.06-1.02.46-1.72.94-2.62-2.92,1.87-5.93,3.05-9.26,3.96l1.39-3.1c-3.65.72-6.57.3-10.09-.7l4.99-4.21c-3.68.88-7.85,1.99-11.23,3.68-2.01,1-3.87,2.39-5.95,3.24-1.34.54-2.7.78-4.05.21-.49-.46-.65-.73-.72-1.42-.22-2.54,1.98-5.21,3.43-7.08-4.67.06-9.38.43-14.05.61-3.62.14-7.26.06-10.86.4.37-.65.75-1.31,1.2-1.9,4.1-5.53,11.04-9.28,17.78-10.21-1.47-.46-2.89-1-4.32-1.56,3.94-2.92,7.72-3.56,12.46-4.27,1.28-.19,2.85-.3,4.05-.81-.51-.54-.94-1.07-1.37-1.67l.24-.59c3.91-3.06,10.57-.46,15.2-.83,3.48-.27,6.44-2.14,9.71-3.16,2.34-.72,4.64-.86,7.06-.96,2.03-2.2,4.27-2.7,6.57-4.37-.18-.35-2.6.11-3.33-.21.45-2.02,8.28-7.82,10.22-9.57-4.58-1.13-9.03.14-13.51,1.21,1.02-1.45,3.13-3.81,3.43-5.57-1.4-.59-4.4,1.02-5.85,1.55-1.23.43-3.22,1.31-4.45.72l-.16-.49c.43-1.55,1.58-2.74,2.66-3.88-3,.86-6.03,1.61-9.15,1.79-1.2.06-2.46.24-3.41-.61.08-2.66,5.04-3.43,6.49-5.28-.88-.18-1.85-.18-2.51-.8l.03-.53c1.43-2.36,5.1-3.46,7.57-4.48-3.96-.96-8.04.19-11.96-.62-.8-.16-1.31-.35-1.79-1.02l.22-.57c1.39-1.28,2.9-1.63,4.69-2.09-1.48-.17-3.3-.21-4.67-.81-1.55-.69-2.09-1.56-2.71-3.09-4.4-1.39-8.98-2.33-13.43-3.52,4.61-2.9,9.36-3.46,14.67-3.49-.35-.69-.54-1.08-.48-1.88.24-.41.41-.75.84-.99,2.28-1.23,6.92.41,9.2,1.2,1.31-.29,2.63-.56,3.94-.81.53-1.08.93-2.23,2.14-2.73,3.3-1.36,7.88,2.63,10.89,3.86.1.05.21.08.3.13.05-.05.11-.08.16-.13.1-.06.19-.14.27-.21.48-.37.97-.81,1.58-.91,2.61-.37,3.84,2.36,5.8,3.54,4.32,2.62,4.29-3.67,7.66-4.34,1.2-.24,2.46.1,3.6.45,6.44,1.98,5.71,5.52,9.7,8.07,2.34,1.5,4.82.77,7.34.27l2.6,1.04c1.24-.42,2.6-.99,3.89-1.16,4.13-.59,5.15.81,10.03-.94-.59-.41-1.28-.78-1.64-1.43,1.56-1.66.83-1.08.97-2.51.02-.24.69-1.08.85-1.34-.8-.59-7.64-1.93-9.31-2.5,7.93-4.16,9.1-5.41,18.19-5.58.19-1.13.29-2.28.4-3.43,8.99,3.35,9.92-.22,17.84.18.85-1.4-.01-3.4.64-4.8.35-.75,7.35.65,8.66.59,4.42-.24,5.71-3.75,9.92-5.22-4.94-3.51-10.14-6.43-15.32-9.54,1.04,1.08,2.1,1.99,2.45,3.48-.13.37-.1.62-.46.83-1.45.8-4.51-.08-6.06-.46-.33,1.69-.62,3.48-1.32,5.07-1.5,3.41-4.19,5.36-7.57,6.63-1.07-1.29-2.04-2.62-3.01-3.99-1.88.67-4.69,2.06-6.67,1.74-.22-.21-.54-.56-.81-.72-1.34-.78-3.57,1.63-4.93,2.06-1.31.42-2.09-.7-3.46-.24-3.01,1.04-5.49,3.3-8.5,4.35-.1.03-.18.06-.27.1.54-1.26,1.1-2.54,1.45-3.86.26-.96.42-1.69-.1-2.57-1.61-.51-6.7,2.47-8.47,3.17-.49-.67-1.01-1.32-1.55-1.96-2.49,1.5-7.02,4.19-10,3.64-.65-.11-1.16-.4-1.5-.99-.75-1.32.37-3.38.88-4.62-3.71,1.2-7.7,3.01-11.61,3.32-.62.05-.96.06-1.43-.35-.21-1.05.11-2.12.3-3.16-2.63.81-8.9,3.01-11.45,2.74-.59-.06-.62-.17-.96-.61.1-.68.14-1.31.13-1.98-2.73-.19-7.07,3.14-10.76,2.31-.26-.29-.48-.35-.45-.76.11-2.09,2.79-4.5,4.13-5.96-.65-.51-1.34-.97-2.01-1.45l5.63-1.85c-.81-.65-1.86-1.35-2.26-2.36-.18-.43-.03-.48.13-.88,2.66-1.48,6.73.25,9.73-.64.64-.81-.29-.97-.03-1.88,1.98-.68,9.35.34,11.77.69-1.45-1.15-3.86-2.68-4.66-4.32-.22-.46-.13-.46.02-.91,1.48-.94,8.15-.22,10.13-.03-1.5-1.09-2.98-2.18-4.46-3.3-1.05-.8-3.33-2.3-3.52-3.67,1.67-1.99,6.55-.27,8.95-.72.69-.74.03-1.28.51-2.2,1.96-.83,10.11,3.46,12.88,4.13,3.78.89,8.31,1.28,11.74-.94.51-.34.72-.38.86-.97-1.69-1.26-7.66-.22-10.17-.92-.67-.7-.53-1.29-.59-2.25l-.33-.16c-.78.13-2.01.46-2.74.16-.26-.11-.29-.14-.35-.42-.91-3.08,5.41-4.93,6.67-7.13l-.21-.46c-2.22-.93-5.02.51-7.34.81-4.05.51-8.69-.06-12.76-.45,2.09-3.91,4.5-5.31,8.6-6.67-2.36-.78-8.36-2.28-10-3.81-.46-.43-.78-.94-.72-1.59.16-1.74,2.47-2.87,3.75-3.72-2.23-2.54-4.23-4.88-5.65-7.96,4.37.24,8.26,1.07,12.31,2.73-.24-1.45-.59-2.7.3-4,2.36-1.18,5.34,1.71,7.59,2.44.29-.49.19-.29.38-.85.05-.13.08-.26.13-.38.61-.51,1.02-.74,1.83-.64,3.17.38,5.74,3.17,7.65,5.47.75-.72,1.45-1.36,2.54-1.36,2.65-.01,5.17,3.08,6.94,4.8,2.57.22,4.67.85,7.08,1.74,1.53-1.16,2.89-2.31,4.58-3.25,3,.91,5.57,2.79,8.53,3.68,5.42,1.63,15.47-2.44,20.41-4.99-4.42-1.2-8.85-1.69-13.38-2.23.49-2.39,1.05-4.79,1.29-7.23-2.79.56-5.58,1.1-8.42,1.29-.26-1.87-.05-3.3.43-5.09-2.36.59-7.67,2.28-9.92,1.12-.61-.32-.62-.46-.8-1.07.13-.83.51-1.34.99-2.02.27-.4.21-.16.18-.69-5.84-1.26-11.96-1.79-17.88-2.69,2.11-1.21,4.21-2.46,6.19-3.86,2.9-2.06,5.77-4.7,9.11-6.03,3.71-1.47,7.03-.59,10.52.91.21-.33.19-.32.48-.69,2.79-3.49,10.19-4.51,14.42-4.58,1.88-.03,3.96.32,5.8.02.94-.14,1.71-.56,2.23-1.34.02-2.76-8.93-2.09-10.56-3.79-.21-.46-.19-.81-.05-1.29.37-1.31,1.56-2.22,2.65-2.92,5.21-3.41,10.38-3.27,16.15-4.77,1.4-.37,2.62-.96,3.88-1.64-2.41-.38-5.01-.96-6.81-2.74-.65-.65-1.26-1.6-1.16-2.55.08-.72.49-1.32,1.08-1.74,2.28-1.64,5.46-.91,8.01-.53-1.09-2.36-2.68-8.12-1.58-10.57.3-.67.46-.7,1.1-.96,2.34.22,4.69,1.9,6.73,3.03-.59-1.1-1.26-2.25-1.63-3.45-.24-.73-.34-1.4,0-2.09,3-.85.94-4.08,3.03-5.68.3-.24.51-.13.86-.1,1.18.8,1.99,2.01,2.87,3.13,1.18-3.19,2.41-5.41,4.91-7.7M176.31,204.95c-7.21,4.13-8.9,4.5-17.14,4.13,1.88,1.91,3.64,3.45,6.14,4.48,3.09,1.29,17.25,2.97,17.37,6.51-.61.51-1.71.62-1.88,1.34l.21.27.11.3c.73,2.19.7,5.36,3.03,6.51,3.54,1.76,7.4-1.63,10.99-1.59,3.22.03,6.62,1.8,9.82.99.94-.7,1.4-1.52,1.61-2.66.57-3.24-.99-8.17,2.14-10.4.76-.54,1.66-.7,2.57-.81-2.89-2.11-16.81-11.96-19.63-11.63-.11.02-.22.05-.33.06-3.97.85-8.04,2.85-11.1,5.52-.4.34-1.2,1.24-1.75.81-.96-.75-1.55-2.73-2.14-3.83M296.71,216.54c6.87-1.1,13.24-2.07,18.59-6.92-1.24-.81-2.47-1.63-3.78-2.36.1,1.05.19,2.09.21,3.14-3.68-1.56-5.42-4.55-8.47-6.86-1.24,1.55-2.46,3.54-4.62,3.78-1.61.18-3.08-.88-4.21-1.9-.91-.81-1.77-1.66-2.6-2.55-2.54-.03-5.04.02-7.53-.59-3.4,1.48-6.83,2.87-10.32,4.16-2.33.89-4.94,1.64-7.1,2.92,1.64,2.22,4.7,6.44,7.64,6.87,4.04.59,6.94-.64,9.97,3.01,1.23,1.48,1.88,2.62,3.97,2.89,3.51.45,7.27-.94,10.59-1.96-.81-.94-2.34-2.35-2.34-3.64M204.95,286.53c-.96.57-1.98,1.12-2.84,1.82-1.24,3.6-1.99,6.17-5.28,8.45l-.27.19c-.99-1.5-2.07-3.68-3.52-4.75-.35.02-.51-.06-.75.22-1.01,1.15-1.52,4.1-1.77,5.61,2.06,2.57,4.74,4.62,7.26,6.73,5.84,4.89,12.25,9.55,17.53,15.04,2.55,2.61,5.02,5.31,7.41,8.08,3-8.01,4.77-17.59,1.02-25.69-2.6-5.63-10.17-13.29-16.03-15.39-.97-.33-1.75-.45-2.76-.32M276.35,288.57c-1,1.04-1.99,2.11-3.03,3.11-1.15-.42-2.28-.85-3.44-1.21-7.45,4.53-12.76,11.85-14.77,20.33-1.29,5.34-.78,10.52.22,15.87,2.26-2.5,4.53-5.01,6.92-7.4,8.31-7.53,17.34-13.87,26.04-20.86l-3.37-2.23c-2.3.76-4.51,1.48-6.94,1.75.56-1.09,1.1-2.15,1.75-3.19l-.41-.05c-.92-.11-1.75-.11-2.52-.68-1.09-1.88.62-3.73-.46-5.44M209.02,205.36c4.93,1.76,9.85,3.48,14.88,4.94-2.12-5.26-4.85-13.3-9.82-16.38-1.77,2.38-3.94,3.14-6.81,3.54-3.73.53-7.62.4-11.39.45l-1.87,1.67c4.88,2.22,9.89,4.15,15.01,5.77M260.13,194.34c-1.28.7-2.17,1.2-3.64.75-1.53-.46-2.79-1.64-4.21-2.34-.13,4.75-.14,10.48,1.6,14.97l5.85-6.11c1.77-1.69,3.56-3.38,5.34-5.04l-4.94-2.23ZM196.56,316.21l.38-.14c-.76-3.35-10.03-11.64-13.11-13.65-1.56-1.02-3.28-1.52-5.13-1.13-1.43.3-1.91,2.09-3.46,1.15-.97-.59-1.75-1.52-2.76-2.12-1.18,1.1-2.54,2.14-2.84,3.81.33.8,1.24,1.21,1.99,1.61,2.81,1.53,5.92,2.57,8.83,3.84,3.59,1.56,7.1,3.3,10.72,4.78,1.76.7,3.54,1.37,5.38,1.85M315.27,318.4c1.43.41,3.41,1.39,4.85.7.4-.19.56-.4.77-.77-.11-.38-.03-.51-.43-.7-1.9-.85-3.81,1.29-5.72-.17-.24-.59-.32-.88-.05-1.5.57-1.26,1.91-2.35,2.98-3.19-2.85-.37-8.71.29-10.32-.06-.38-.08-.62-.32-.96-.49-.05-.02-.1-.02-.16-.03-4.15.73-7.89,2.25-11.69,4.07,5.73.34,15.39.4,20.73,2.15M262.74,206.38c2.31-.64,4.66-1.47,6.82-2.52,4.18-1.71,9.23-3.27,12.6-6.38l-.08-.37c-1.63-.53-3.86-.21-5.57-.11-.92-.69-2.17-1.93-3.21-2.36-4.21,3.38-7.59,7.26-10.57,11.74M162.07,327.12c5.71.68,9.15,1.21,14.14,4.23,1.01.61,2.25,1.8,3.4,1.04,3.33-2.44,6.63-5.07,10.26-7.07-5.73-2.02-11.72-2.93-17.78-2.41-4.64.48-6.86.37-10.01,4.21M259.38,113.92c3-2.5,6.36-4.4,9.71-6.39-2.18-.54-4.61-1.28-6.87-1.21-2.49,2.25-6.95,6.39-6.99,10.05,0,.32,0,.25.14.48,1.64-.13,2.93-1.8,4-2.92M168.65,311.7c-1.87.81-2.76,1.75-3.97,3.3l-2.11-3.38c-2.06,1.99-3.19,4.02-4.56,6.51l.05.37c2.46,1.12,7.48-.83,10.19-1.12,5.06-1.02,10.76-1.56,15.92-1.32-4.91-2.57-9.78-5.13-15.52-4.35M250.48,116.1c2.62-2.97,4.19-6.7,6.74-9.76l-.06-.17c-.81-.03-1.6,0-2.41.08-2.12.14-4.26.33-6.38.43-.03,2.47-.56,7.08,1.37,8.9.22.22.46.35.73.53M283.11,316.91c7.58-3.8,14.91-7.5,23.19-9.62.37-2.38.86-4.72,1.48-7.03-1.93,1.1-3.83,2.17-5.87,3.08-.57-1.12-1.23-2.61-2.17-3.44-8.85,5.68-17.81,12.84-24.02,21.39,2.38-1.66,4.77-3.14,7.38-4.37M301.77,322.65c-4.75.26-9.17,1.16-13.7,2.57,5.15,1.63,7.75,4.5,10.7,8.82l2.27-1.9c4.11-3.19,9.47-4.93,14.66-5.28-4.38-2.81-8.77-3.97-13.92-4.21M337.63,331.3c-.85-2.14-1.72-3.01-3.84-3.96-2.51-1.1-6.52-2.31-9.25-2.46,4.18,2.66,8.47,4.66,13.09,6.41M142.91,328.16c-1.26,1.44-2.41,2.9-3.06,4.72l.06.5.24.18c2.11-1.45,4.16-2.85,6.46-3.99,2.03-.99,11.8-4,12.34-5.57l-.16-.08c-5.2,1.56-10.43,4.02-15.88,4.24M227.05,291.09c.06-2.06-.11-3.86-1.6-5.41-2.14-2.25-5.71-2.62-8.61-3,1.69,2.26,6.79,7.69,9.7,8.36.18.03.33.03.51.05M260.78,286.33c-3.45,1.01-6.84,2.87-8.63,6.11-.89,1.63-1.61,4.35-.99,6.17.1.3.08.24.27.38,2.87-2.66,8.71-8.4,9.92-11.99l-.18-.56-.4-.11ZM233.34,116.48c-4.27,2.44-8.99,3.16-13.51,5.04l-1.2-3.51c-3.63,1.58-10.97,5.33-14.85,4.72-1.6-.83-2.79-5.14-6.08-4.21-.06.59.02,1.05.37,1.55.22.3.59.56.86.8,3.75,2.58,10.68,8.04,15.09,8.71.43-.16.46-.05.57-.41.19-.56.06-1.15,0-1.71.89-2.19,5.73-4.29,7.78-5.2,2.58-1.15,9.65-1.77,11.31-3.27.13-.75.08-1.47.05-2.22-.32-.29-.16-.24-.4-.29M231.45,210.19c-.11-7.1.57-14.02,1.04-21.08-4.85.43-8.63.22-13.06-1.83-.94,2.26-.89,4.16.03,6.43,1.04,2.55,9.78,15.6,11.91,16.62l.08-.13Z"/>
      </g>
    </g>
  </g>
</svg>