<?xml version="1.0" encoding="UTF-8"?>
<svg id="Layer_1" data-name="Layer 1" xmlns="http://www.w3.org/2000/svg" xmlns:xlink="http://www.w3.org/1999/xlink" viewBox="0 0 501.97 505.99">
  <defs>
    <style>
      .cls-1 {
        fill: none;
      }

      .cls-2 {
        fill: #a53b28;
      }

      .cls-3 {
        clip-path: url(#clippath-1);
      }

      .cls-4 {
        clip-path: url(#clippath);
      }
    </style>
    <clipPath id="clippath">
      <rect class="cls-1" width="501.97" height="505.99"/>
    </clipPath>
    <clipPath id="clippath-1">
      <rect class="cls-1" width="501.97" height="505.99"/>
    </clipPath>
  </defs>
  <g id="Dog">
    <g class="cls-4">
      <g class="cls-3">
        <path class="cls-2" d="M266.92,489.9c-.24-.24-.34-4-.34-8.74,0-7.47.15-13.38.15-19.28-.68-1.02-2.2-4.78-2.2-5.76,0-.1,0-.15.05-.2.15-.15,2.34-.49,5.76-.49,13.77,0,21.24,6.3,21.24,15.62,0,14.6-14.74,19.09-22.46,19.09-.68,0-2-.05-2.2-.25M273.75,461.05c-.39,0-.64,0-.64.05-.2.19-.34,7.32-.34,13.57,0,4.88.1,9.23.34,9.47.05.05.24.1.49.1,2.24,0,11.47-2.69,11.47-13.23,0-8.88-8.88-9.96-11.33-9.96"/>
        <path class="cls-2" d="M293.03,475.31c0-6.88,2.73-10.69,2.98-10.84.44-.24,2.1-.29,3.22-.29h.93c0-6.98,6.01-8.54,8.79-8.54,9.28,0,13.57,6.01,13.57,17.09,0,7.86-2.83,17.33-15.23,17.33-10.4,0-14.25-7.08-14.25-14.74M309.39,460.86c-2.78,0-4.05,2-4.05,3.71,0,4.49,4.39,9.42,4.39,9.42,0,.44-2.39,1.61-4.68,1.61-.34,0-3.22-3.12-4.2-7.86-.39.44-1.61,2.69-1.61,7.33,0,5.37,3.37,9.91,8.1,9.91,7.47,0,8.89-6.64,8.89-12.64,0-8.59-2.98-11.47-6.83-11.47"/>
        <path class="cls-2" d="M346.43,490.34c0-1.22-.05-2.73-.24-3.17-.05-.1-.1-.1-.1-.1-.05,0-.15.1-.15.1-1.51,1.51-4.24,2.88-7.52,2.88-8.88,0-12.74-6.54-12.74-14.69,0-7.18,2.78-19.53,18.79-19.53,1.32,0,4.59.44,4.78.69.1.1.1.39.1.78,0,1.42-.39,4.3-.78,4.69,0,0-1.51-.78-5.12-.78-6.64,0-11.33,4.44-11.33,13.62,0,5.47,2.15,9.47,7.03,9.47,4.3,0,6.79-3.17,6.79-4.2v-1.56c0-1.32-.05-3.03-.29-3.27-.15-.19-2.49-.44-4.54-.44s-2.73.15-2.98.15c-.2,0-.2-.34-.2-.39,0-.93.54-3.56,1.56-4.59.34-.34,5.42-.68,11.52-.68.44,0,2.78.1,2.78.24,0,1.61-1.12,4.83-1.66,5.61,0,0-.05,13.13-.34,13.67-.29.54-2.78,1.66-4.44,1.66-.49,0-.93,0-.93-.15"/>
        <path class="cls-2" d="M185.33,437.21l5.04,2.64c-2.51,4.22-5.58,8.37-9.22,12.46-3.64,4.09-7.44,7.67-11.41,10.73-.3-.4-.69-.82-1.16-1.24-.48-.43-.96-.87-1.43-1.32-.48-.45-.94-.83-1.39-1.13,2.61-1.96,5.14-4.15,7.61-6.59,2.46-2.43,4.72-4.99,6.77-7.68,2.06-2.69,3.79-5.31,5.19-7.87M181.94,463.71l4.29,2.41c-1.15,2.61-2.62,5.27-4.4,7.98-1.78,2.71-3.7,5.26-5.76,7.64-2.06,2.38-4.09,4.43-6.1,6.13-.45-.65-1.04-1.4-1.77-2.26-.73-.85-1.44-1.53-2.15-2.03,2.01-1.4,4.02-3.2,6.02-5.38,2.01-2.18,3.89-4.54,5.65-7.08,1.76-2.53,3.16-5,4.21-7.41M166.89,440.45l3.99-3.09c3.71,3.01,6.66,6.12,8.85,9.33,2.18,3.21,3.82,6.5,4.93,9.86,1.11,3.36,1.83,6.8,2.18,10.31.35,3.51.52,7.08.52,10.69s-.11,7.24-.34,10.58c-.22,3.34-.62,6.28-1.17,8.84-.55,2.56-1.38,4.57-2.48,6.02-.5.7-1.11,1.27-1.84,1.69-.73.42-1.59.71-2.6.86-1.36.25-2.81.39-4.37.41-1.56.02-3.21.01-4.97-.04,0-.91-.14-1.86-.41-2.86-.28-1-.69-1.91-1.24-2.71,1.91.15,3.62.21,5.12.19,1.5-.02,2.71-.06,3.61-.11,1.1-.15,1.93-.63,2.48-1.43.7-.85,1.25-2.34,1.66-4.48.4-2.13.69-4.68.86-7.64.17-2.96.26-6.1.26-9.41s-.18-6.81-.53-10.05c-.35-3.24-1.04-6.4-2.07-9.48-1.03-3.09-2.53-6.08-4.52-9-1.98-2.91-4.63-5.74-7.94-8.51M201.06,436.84l5.42,1.2c-1.11,3.72-2.41,7.33-3.92,10.84-1.5,3.51-3.15,6.8-4.93,9.86-1.78,3.06-3.65,5.77-5.61,8.13-.35-.35-.8-.74-1.35-1.17-.55-.42-1.13-.85-1.73-1.28-.6-.43-1.1-.77-1.5-1.02,2.96-3.21,5.61-7.19,7.94-11.93,2.34-4.74,4.23-9.62,5.68-14.64M196.24,462.43h5.19v30.71h-5.19v-30.71ZM200.16,447.98h29.21v5.19h-31.84l2.63-5.19ZM198.8,462.43h19.42v25.14h-19.42v-4.97h14.3v-15.28h-14.3v-4.89ZM227.41,447.98h5.49v3.01c-.3,8.94-.57,16.51-.83,22.74-.25,6.22-.55,11.29-.9,15.2-.35,3.91-.78,6.95-1.28,9.11-.5,2.16-1.1,3.69-1.81,4.59-.75,1.1-1.57,1.85-2.45,2.26-.88.4-1.94.68-3.2.83-1.15.15-2.65.21-4.48.19-1.83-.03-3.72-.09-5.68-.19-.05-.8-.22-1.74-.52-2.82-.3-1.08-.71-2.02-1.2-2.82,2.06.2,3.98.31,5.76.34,1.78.02,3.07.04,3.88.04.7,0,1.26-.08,1.69-.22.42-.15.84-.5,1.24-1.06.55-.65,1.04-2.01,1.47-4.06.43-2.06.81-5.02,1.17-8.88.35-3.86.65-8.82.9-14.87.25-6.05.5-13.41.75-22.09v-1.28Z"/>
        <path class="cls-2" d="M216.02,192.95s-3.61,6.8-12.13,8.37c-.9.17-1.82.25-2.75.3.52-.49.87-1.05.92-1.71.2-2.66-4.69-4.39-5.77-6.63-1.12-2.32.54-7.2-1.58-8.66-2.06-1.41-5.97,1.89-8.64,1.69-2.66-.2-6.04-4.04-8.28-2.96-1.42.48-1.66-.39-1.83-1.27-1.57-8.52,3.5-14.32,3.5-14.32,0,0,6.8,3.61,8.37,12.13.28,1.51.37,3.07.34,4.62.6-1.43,1.32-2.82,2.2-4.08,4.92-7.14,12.6-7.65,12.6-7.65,0,0,2.26,7.36-2.66,14.5-.87,1.26-1.91,2.43-3.03,3.51,1.44-.58,2.93-1.06,4.44-1.33,8.53-1.57,14.32,3.5,14.32,3.5M355.8,169.11c2.96-2.11,5.9,1.24,8.23,1.42,2.32.18,5.74-2.7,7.54-1.47,1.85,1.26.4,5.53,1.38,7.55.94,1.96,5.22,3.46,5.04,5.79,0,1.45.81,1.38,1.6,1.23,7.44-1.37,10.59-7.3,10.59-7.3,0,0-5.05-4.42-12.5-3.05-1.32.24-2.62.66-3.87,1.17.97-.94,1.88-1.96,2.64-3.06,4.29-6.23,2.32-12.65,2.32-12.65,0,0-6.7.45-10.99,6.68-.76,1.1-1.39,2.32-1.92,3.56.03-1.35-.05-2.72-.29-4.03-1.37-7.44-7.3-10.59-7.3-10.59,0,0-4.42,5.05-3.05,12.5.14.77.35,1.53.6,2.28M348.77,189.3c1.32-.24,2.62-.66,3.87-1.16-.98.93-1.89,1.95-2.65,3.06-4.29,6.23-2.32,12.65-2.32,12.65,0,0,6.7-.45,10.99-6.68.76-1.1,1.39-2.32,1.92-3.56-.03,1.35.05,2.72.29,4.03,1.37,7.44,7.3,10.59,7.3,10.59,0,0,4.42-5.05,3.05-12.5-.14-.77-.35-1.53-.6-2.28-2.96,2.11-5.9-1.24-8.23-1.42-2.32-.17-5.74,2.7-7.54,1.47-1.85-1.26-.4-5.53-1.38-7.55-.95-1.96-5.22-3.46-5.04-5.79,0-1.45-.81-1.38-1.6-1.23-7.44,1.37-10.59,7.3-10.59,7.3,0,0,5.05,4.42,12.49,3.05M347.33,176.73c.8.55,1.68,1.02,2.57,1.45,1.46-1.03,3.61-1.8,4.41-2.97.84-1.22.78-3.56,1.23-5.3-.71-.67-1.44-1.3-2.23-1.85-6.23-4.29-12.65-2.32-12.65-2.32,0,0,.45,6.7,6.68,10.99M166.94,193.42c.92.64,1.92,1.17,2.94,1.65,1.67-1.18,4.13-2.07,5.05-3.41.96-1.4.9-4.08,1.41-6.07-.81-.76-1.65-1.49-2.55-2.12-7.14-4.92-14.5-2.66-14.5-2.66,0,0,.51,7.68,7.65,12.6M203.35,203.85c-.92-.63-1.92-1.17-2.94-1.65-1.67,1.18-4.13,2.07-5.05,3.4-.96,1.4-.9,4.08-1.41,6.07.81.76,1.65,1.49,2.55,2.12,7.14,4.92,14.5,2.66,14.5,2.66,0,0-.51-7.68-7.65-12.6M193.65,212.58c-3.39,2.42-6.77-1.42-9.43-1.62-2.66-.2-6.58,3.1-8.64,1.69-2.12-1.45-.46-6.34-1.58-8.66-1.08-2.25-5.98-3.97-5.77-6.63.05-.66.4-1.21.92-1.71-.92.05-1.85.13-2.75.3-8.53,1.57-12.13,8.37-12.13,8.37,0,0,5.79,5.07,14.32,3.5,1.51-.28,3-.75,4.44-1.33-1.12,1.07-2.16,2.24-3.03,3.51-4.92,7.14-2.66,14.5-2.66,14.5,0,0,7.68-.51,12.6-7.65.87-1.26,1.59-2.65,2.2-4.08-.03,1.55.06,3.11.33,4.62,1.57,8.53,8.37,12.13,8.37,12.13,0,0,5.07-5.79,3.5-14.32-.16-.88-.4-1.75-.68-2.61M379.1,185.84c-.81-.55-1.68-1.02-2.57-1.44-1.46,1.03-3.61,1.8-4.4,2.97-.84,1.22-.79,3.56-1.23,5.3.7.67,1.44,1.3,2.23,1.85,6.23,4.29,12.65,2.32,12.65,2.32,0,0-.45-6.7-6.68-11M496.15,231.4c-.63.26-1.26.5-1.92.67-2.81.73-5.66.74-8.69.47-3.03-.32-6.12-1.32-9.11-2.75-2.98-1.46-5.84-3.38-8.57-5.76,1.3,3.39,3.56,6.46,6.37,8.96,1.98,1.77,4.27,3.24,6.8,4.35-2.74.6-5.63.99-8.61,1.09-.63-.17-1.25-.34-1.86-.55-1.65-.56-3.15-1.33-4.59-2.14-1.44-.81-2.85-1.67-4.18-2.71-2.72-2-5.07-4.72-7.23-7.76-2.14-3.05-4.02-6.43-6.03-9.88.16,3.99.88,7.95,2.29,11.81,1.01,2.8,2.45,5.53,4.35,8.02-2.4-1.06-4.76-2.39-7.05-4.09-1.05-.78-2.05-1.6-3.02-2.45-.76-1.02-1.49-2.05-2.16-3.14-2.11-3.49-3.62-7.25-4.92-11.1-1.28-3.87-2.18-7.94-2.61-12.14-.49-4.21-.48-8.51-.21-13.02-2.32,3.9-3.59,8.4-4.15,12.98-.26,2.46-.3,4.96-.11,7.46-9.6-19.51-11.3-42.63-20.29-54.41-2.23-2.93-4.67-5.29-7.26-7.22,3,4.62,5.61,9.67,7.82,15.17,1.12,2.78,1.96,5.13,2.74,7.56.73,2.3,1.18,4.47,1.39,6.54,6.63,31.03-1.21,62.05-.1,81.52,1.58,27.58,11.95,34.06,17.51,45.25,4.44,8.95-.5,11.51,2.18,33.68,2.21,18.32,6.83,32.35,3.91,45.33-1.73,7.7-15.26,13.12-17.67,13.14-.56-1.33-.96-2.7-1.12-4.1-.46-3.68.41-7.87,3.82-10.89-2.26.41-4.36,1.94-5.76,3.95-1.45,1.99-2.27,4.49-2.45,6.99-.08,1.3-.01,2.59.18,3.86-2.63-.26-5.75-.87-9.74-2.28-.55-1.39-.99-2.82-1.16-4.29-.46-3.68.42-7.87,3.82-10.89-2.26.41-4.36,1.94-5.76,3.95-1.45,1.99-2.27,4.49-2.45,6.99-6.52-3.26-5.7-13.64.67-15.53,7.11-2.11,7.95-11.29,6.85-27.97-.54-8.17-2.8-15.01-6.38-21.22-3.51-6.68-7.63-11.8-11.99-16.5-4.36-4.71-8.96-9.05-13.57-13.33-9.25-8.49-18.57-16.69-27.29-25.48-8.56-8.69-16.35-18.19-21.9-29.02-2.76-5.4-4.97-11.08-6.43-16.94-1.42-5.89-2.56-11.74-3.35-18.12-1.33,2.98-1.83,6.24-1.97,9.47-.12,1.63.01,3.24.09,4.86.15,1.61.41,3.2.66,4.81,1.29,6.33,3.38,12.47,6.06,18.33,5.42,11.69,13.07,22.26,21.98,31.41,8.81,9.05,18.12,17.55,27.27,25.98,4.42,4.09,8.84,8.22,12.9,12.55-.03,3.55.15,7.95.84,13.67,2.21,18.32,6.83,32.35,3.91,45.33-1.73,7.7-14.2,12.7-16.57,13.12-.74.13-2.11.16-3.88.03-.2-.72-.37-1.45-.46-2.2-.46-3.68.42-7.87,3.82-10.89-2.26.41-4.36,1.94-5.76,3.95-1.45,1.99-2.27,4.49-2.45,6.99-2.91,1.01-6.2.16-9.46-1.1-.66-4.79.22-8.99,3.63-12-2.26.41-4.36,1.94-5.76,3.95-1.16,1.6-1.9,3.51-2.24,5.49-5.57-5.11-4.56-14.64,1.52-16.44,7.11-2.11,7.95-11.29,6.85-27.97-1.12-17.08-9.74-28.39-22.29-40.15-11.82-11.07-32.14-19.04-57.38-53.43,2.32-2.04,4.85-3.79,7.26-5.69,1.41-1.17,2.84-2.31,4.23-3.5l3.99-3.77,3.75-3.99c1.13-1.44,2.15-3,2.66-4.94-1.96.66-3.39,1.7-4.73,2.85l-4.12,3.3-4.29,3.06c-1.45.99-2.94,1.93-4.4,2.89-5.95,3.7-12.11,7.06-18.45,10.09-6.34,3.04-12.83,5.75-19.3,8.65-2.87,1.31-5.77,2.56-8.65,3.91-9.31,3.4-19.12,6.23-29.67,7.89-6.42,35.5-9.94,61.19-12.12,85.6-.51,5.75-5.61,33.82-11.31,43.7-3.92,6.78-12.8,9.11-18.83,9.91-.5-3.91.38-8.1,3.78-11.12-2.26.41-4.36,1.94-5.76,3.95-1.45,1.99-2.27,4.49-2.45,6.99-5.81.58-8.63-.04-10.39-.71-.16-.63-.3-1.26-.38-1.91-.46-3.68.41-7.87,3.82-10.89-2.26.41-4.36,1.94-5.76,3.95-1.45,2-2.27,4.49-2.45,6.99-2.68-.13-6.52-1.76-8.2-4.61-.48-1.78-.81-3.52-.67-5.15.13-2.32,1.5-4.09,3.38-5.59,1.9-1.49,4.28-2.59,6.61-3.84,1.46-.76,2.96-1.53,4.43-2.38,3.35-1.06,6.55-2.12,9.08-5.28,6.09-7.62,7.64-45.96,6.11-71.86-.14-2.34-.36-4.88-.63-7.53-.16-3.89-.4-7.78-.77-11.66-.48-4.72-1.01-9.45-1.89-14.14-.42-2.35-.95-4.69-1.53-7.03-.28-1.18-.64-2.35-1.01-3.53-.43-1.24-.7-2.28-1.59-3.91-1.14-1.72-2.17-2.43-3.2-3.28-1.03-.8-2.05-1.49-3.08-2.16-2.07-1.31-4.16-2.49-6.35-3.47-4.33-2.02-8.81-3.67-13.62-4.54,3.56,3.35,7.35,6.11,11.12,8.81l5.58,3.98c.9.65,1.79,1.32,2.58,2.01.77.64,1.54,1.49,1.66,1.75.23.44.64,1.65.93,2.64l.86,3.24c.57,2.2,1.04,4.44,1.53,6.69.93,4.51,1.85,9.04,2.55,13.62,1.26,7.97,2.14,16.02,2.66,24.11-1.83,13.23-3.2,25.27-4.25,36.97-.38,4.28-3.31,20.94-7.13,33.25-1.72.27-3.4.67-5.07,1.18-2.64.8-5.23,1.96-7.58,3.8-2.33,1.75-4.36,4.89-4.11,8.08.12,2.03.77,3.83,1.65,5.46-4.14,1.43-8.31,1.96-11.02,2.14-.55-4.21.32-8.4,3.73-11.42-2.26.41-4.36,1.94-5.76,3.95-1.46,2-2.27,4.49-2.45,7-4.25.36-6.73-.41-8.16-1.14-.21-.73-.38-1.47-.47-2.23-.46-3.68.41-7.87,3.82-10.89-2.26.41-4.36,1.94-5.76,3.95-1.45,2-2.27,4.49-2.45,6.99-4.34-.18-10.41-3.96-7.07-10.35,6.69-12.77,16.84-8.11,22.94-15.72,6.09-7.62,7.44-45.99,5.92-71.89-1-17-5.9-43.5-9.15-59.71-8.61-11.25-14.85-25.08-19.31-39.95-5.68-18.9-2.36-26.71-10.66-46.43-10.71-20.75-18.68-25.72-31.05-29.18-13.54-3.79-33.35-2.04-42.45-10.32-3.18-2.9-3.7-7.67-4.89-10.55,3.95,1.95,8.27,2.89,12.46,3.29,2.59.27,5.19.26,7.72.12l3.72-.17,3.79-.09c2.53-.07,5.08-.28,7.62-.82,1.27-.25,2.54-.57,3.76-1.09.61-.26,1.23-.55,1.75-1,.53-.41.97-1.11.85-1.76-4.11,1.73-5.34,1.75-6.57,1.75l-7.42-.24-7.54-.29c-2.48-.08-4.92-.19-7.32-.38-4.79-.42-9.5-1.56-13.36-4.05-3.76-2.4-6.43-6.16-7.87-10.5-.19-1.02-.42-1.95-.81-2.72-1.98-3.93-1.77-7.45-.98-9.45.42-1.08.8-1.91,1.27-2.56,2.1-.5,4.45-.24,6.34,1.04,1.01.66,1.93,1.54,2.75,2.57-.59,3.04-1.43,4.25-2.4,5.37-.96,1.14-2.02,2.24-3.29,3.31,3.46-.04,6.58-1.84,9-4.65.58-.75,1.19-1.59,1.49-2.8.15-.6.24-1.32.1-2.13-.1-.8-.68-1.74-.85-1.95-.83-1.27-1.87-2.48-3.12-3.47,1.21-.08,2.56-.15,4.09-.24,3.11-.17,24.56-3.77,27.41-4.98,2.12-.89,3.66-2.11,5.16-3.55,3.99-3.85,9.14-9.92,17.89-13.76,1.06-.3,2.13-.59,3.21-.8,2.55-.54,5.16-.8,7.8-.9,1.32-.05,2.65-.02,4,.03,1.37-.01,2.6.5,4.19-.2-1.07-1.37-2.52-1.45-3.86-1.89-1.37-.36-2.77-.64-4.19-.81-1.16-.15-2.33-.2-3.5-.21,10.07-19.32,10.53-33.1,15.07-32.85,2.46.14,6.47,7.28,10.04,16.53-1.84,8.83-5.16,17.35-9.04,25.86,3.47-3.95,6.47-8.35,9-13.03,2.25-4.17,3.99-8.62,5.43-13.17C109.86,8.46,110.89-.2,114.5,0c5.88.33,20.69,40.8,16.92,54.13,7.85,8.75,12.63,17.27,17.93,25.13,13.3,16.54,31.21,31.51,50.19,39.51,30.64,12.91,109.36-6.86,130.45-6.06,13.63.52,25.44,2.63,35.69,6.22,18.33.89,54.27,1.44,71.1,30.24,20.8,35.59,36.42,75.09,62.77,75.07,4.5,0,2.39,3.59-3.39,7.16M21.58,84.41c0-1.13-.92-2.05-2.05-2.05s-2.04.92-2.04,2.05.92,2.05,2.04,2.05,2.05-.92,2.05-2.05M32.19,91.61c0-1.13-.92-2.05-2.05-2.05s-2.05.92-2.05,2.05.92,2.05,2.05,2.05,2.05-.92,2.05-2.05M32.84,78.16c0-1.13-.92-2.05-2.05-2.05s-2.04.92-2.04,2.05.92,2.04,2.04,2.04,2.05-.92,2.05-2.04M73.92,73.62s-6.84-8.31-15.1-5.71c-2.49.78-5.76,3.2-4.9,4.25,1.04,1.26,3.81,3.16,7.41,3.68,6.31.91,12.58-2.23,12.58-2.23M74.61,66.86c-1.61-1.74-3.64-2.86-5.76-3.73-2.13-.86-4.42-1.24-6.75-1.34-2.32-.06-4.75.17-7.06,1.19-1.13.52-2.26,1.29-3.01,2.4-.85,1.05-.99,2.48-.86,3.62,1.52-1.97,3.02-2.85,4.88-3.2,1.83-.39,3.84-.39,5.85-.24,2.02.14,4.05.46,6.14.71,2.1.23,4.2.54,6.57.58M81.08,116.52c.21-1.51.15-3-.14-4.45-.29-1.45-.81-2.86-1.59-4.16-.79-1.31-1.82-2.53-3.37-3.48-.62,1.73-.76,3.19-.82,4.63-.03,1.42.1,2.78.37,4.1.27,1.33.68,2.63,1.26,3.93.61,1.3,1.34,2.59,2.55,3.94,1.08-1.48,1.51-3.01,1.74-4.51M138.65,312.78c.2,8.55.1,17.12-.45,25.68-.44,4.25-.61,8.57-1.31,12.81-.49,4.29-1.45,8.48-2.2,12.76,1.48-4.06,3-8.16,4.02-12.4,1.23-4.19,2.04-8.48,2.86-12.77,1.46-8.61,2.21-17.33,2.57-26.06.33-8.73.13-17.46-.41-26.17-.29-4.35-.49-8.71-1.2-13.02-.72-4.25-1.87-8.63-3.63-12.52-4.09,9.22-2.57,17.44-1.8,26.04.42,4.26.7,8.53.98,12.81l.38,6.41.21,6.42ZM340.16,140.52c1.22-1.01,2.48-2.61,3.33-3.7.88-1.13,1.46-1.91,1.55-1.88.07.02.08,1.02-.2,2.52-.15.75-.37,1.63-.74,2.57-.4.97-.76,1.87-1.71,2.98,2.08.37,4.8-1.42,6.38-5.6,1.01-2.67.77-5.78.15-8.05-.61-2.3-1.56-3.83-1.79-3.86-.27-.04-1.5,1.2-2.88,2.86-1.36,1.68-2.86,3.71-3.6,5.68-1.11,3-1.29,4.9-.51,6.49M322.1,137.07c.82,3.98,2.6,6.7,4.32,8.38,1.75,1.68,3.5,2.36,4.99,2.32-2.21-3.11-3.19-6.42-3.53-8.92-.32-2.5,0-4.07.11-4.08.13-.02.7,1.48,1.89,3.47,1.16,1.96,3.08,4.56,5.14,6.55,1.23-2.3.28-5.52-.81-9.81-.26-1.37-.77-2.71-1.08-4.15-.22-.73-.26-1.46-.47-2.24-.07-.81-.14-1.6-.21-2.33,0-.81.02-1.56.02-2.24.24-3.02.24-3.8.1-3.91s-.82.01-1.92.45c-.54.23-1.22.51-1.92.93-.66.45-1.4,1.01-2.18,1.68-.78.67-1.42,1.57-2.16,2.53-.68.98-1.2,2.15-1.71,3.38-.83,2.49-1.15,5.4-.58,8M291.5,144.66c-3.54-.67-7.88.75-10.2,2.15,1.81-.02,3.83.1,5.69.45,4.98.94,4.08,5.73-.9,4.79-1.86-.35-3.79-.97-5.47-1.64,1.65,2.14,5.18,5.04,8.72,5.71,4.98.94,7.13-10.52,2.15-11.46M268.95,209.57c-1.76,1.19-3.79,2.22-5.65,3.01,3.01.4,8.11-.08,11.46-2.35,4.7-3.19-2.64-14.02-7.35-10.83-3.35,2.27-5.68,6.83-6.42,9.77,1.42-1.44,3.13-2.94,4.89-4.14,4.71-3.19,7.77,1.33,3.07,4.52M261.31,210.96c-1.52-2.25-4.57-2.36-6.82-.84-2.25,1.53-2.83,4.58-1.31,6.83,1.52,2.25,4.58,2.83,6.83,1.31,2.25-1.52,2.83-5.06,1.3-7.3M266.81,154.35c1.23-1.44,2.74-2.8,4.16-3.91-2.68.36-6.95,1.96-9.3,4.7-3.3,3.84,5.54,11.44,8.85,7.6,2.35-2.73,3.29-7.2,3.24-9.9-.89,1.57-2.01,3.26-3.24,4.7-3.3,3.84-7,.67-3.7-3.17M272.93,150.96c1.84,1.58,4.6,1.37,6.18-.47,1.58-1.84,1.25-5.01-.59-6.59-1.84-1.58-4.48-.96-6.06.88-1.58,1.84-1.36,4.6.47,6.18M269.53,186.09c.08,1.04.16,2.01-.19,3.43,2.02-.6,3.65-3.43,3.19-7.87-.29-2.84-1.9-5.51-3.48-7.26-1.57-1.78-3.11-2.73-3.33-2.65-.25.09-.8,1.75-1.29,3.85-.46,2.11-.89,4.6-.66,6.69.35,3.18,1.04,4.95,2.46,6.03.63-1.45,1.04-3.44,1.32-4.8.28-1.41.44-2.36.54-2.38.07,0,.53.87.95,2.35.2.74.4,1.62.49,2.62M275.22,163.61c1.68,4.78,12.68.92,11-3.86-1.2-3.4-4.59-6.45-6.96-7.76.92,1.56,1.82,3.37,2.45,5.15,1.68,4.78-2.92,6.39-4.6,1.61-.63-1.79-1.05-3.77-1.31-5.56-1.03,2.5-1.78,7-.58,10.4M277.83,142.45c.89-1.57,2.01-3.26,3.24-4.7,3.3-3.84,7-.67,3.7,3.17-1.24,1.44-2.74,2.8-4.16,3.91,2.68-.36,6.95-1.96,9.3-4.7,3.3-3.84-5.54-11.44-8.84-7.6-2.35,2.73-3.29,7.2-3.24,9.91M265.11,135.23c1.19,3.4,4.84,6.74,7.2,8.04-.92-1.56-1.82-3.37-2.45-5.16-1.68-4.78,2.92-6.39,4.6-1.61.63,1.79,1.05,3.77,1.31,5.55,1.03-2.5,1.78-7,.58-10.4-1.68-4.78-12.92-1.21-11.25,3.58M260.08,150.61c3.54.67,7.88-.75,10.2-2.15-1.8.02-3.83-.11-5.69-.46-4.98-.94-4.08-5.72.9-4.79,1.86.35,3.79.97,5.47,1.64-1.65-2.15-5.18-5.04-8.72-5.71-4.98-.94-7.13,10.52-2.15,11.46M249.34,197.62c.29,4.03,3.26,8.72,5.44,10.83-.54-1.96-.98-4.18-1.14-6.3-.41-5.67,5.04-6.07,5.45-.4.15,2.12.03,4.39-.21,6.4,1.85-2.4,3.98-7.06,3.69-11.1-.41-5.67-13.64-5.11-13.23.57M215.95,152.74c2.23-3.1,5.04-5.1,7.29-6.23,2.26-1.11,3.85-1.31,3.9-1.22.06.11-1.17,1.14-2.67,2.92-1.48,1.73-3.31,4.39-4.53,6.99,2.57.41,5.31-1.53,9.02-3.95,1.22-.69,2.32-1.61,3.58-2.37.62-.44,1.29-.72,1.97-1.17.75-.33,1.46-.65,2.14-.95.77-.26,1.48-.49,2.12-.71,2.93-.76,3.67-1.01,3.73-1.17.06-.16-.28-.78-1.05-1.67-.39-.44-.87-.99-1.5-1.51-.64-.48-1.41-1-2.3-1.52-.89-.52-1.95-.84-3.09-1.22-1.15-.32-2.42-.45-3.75-.53-2.62.02-5.48.66-7.76,2.05-3.5,2.06-5.5,4.63-6.52,6.8-1.03,2.21-1.1,4.08-.57,5.47M203.65,142.66c.39,3.18,1.1,4.94,2.52,6,.62-1.45,1-3.46,1.27-4.82.26-1.41.42-2.37.52-2.38.07,0,.54.87.98,2.34.21.74.41,1.62.52,2.62.09,1.04.18,2.01-.15,3.43,2.02-.62,3.62-3.46,3.11-7.9-.32-2.84-1.96-5.49-3.56-7.23-1.59-1.76-3.14-2.69-3.36-2.61-.25.09-.79,1.76-1.25,3.86-.44,2.12-.85,4.61-.6,6.69M163.22,109c-.92,1.06,1.9,5.29,6.34,9.48,4.44,4.19,9.04,6.54,10.24,5.2,1.2-1.33-1.68-5.62-6.4-9.53-4.72-3.91-9.26-6.21-10.18-5.15M154.89,117.46c-1.06.93,1.23,5.46,5.1,10.11,3.88,4.66,8.12,7.49,9.48,6.32,1.35-1.18-.98-5.75-5.15-10.17-4.18-4.42-8.39-7.21-9.43-6.27M154.13,132.13c-3.56-4.87-7.36-8.15-8.49-7.35-1.15.76.51,5.52,3.7,10.6,3.19,5.09,7.02,8.41,8.54,7.43,1.5-1.02-.2-5.82-3.76-10.68M143.35,91.2c.87,1.61,1.87,2.7,2.9,3.7,1.04.97,2.13,1.78,3.3,2.46,1.17.68,2.41,1.25,3.77,1.68,1.38.42,2.82.73,4.64.73-.38-1.79-1.23-3.14-2.2-4.31-.98-1.16-2.13-2.11-3.41-2.86-1.27-.75-2.67-1.3-4.16-1.59-1.5-.28-3.1-.33-4.84.18M139.99,111.85c-.59-1.4-1.41-2.66-2.4-3.75-.99-1.1-2.15-2.04-3.5-2.76-1.34-.72-2.86-1.24-4.67-1.27.35,1.8.98,3.14,1.66,4.4.71,1.23,1.5,2.34,2.42,3.34.91,1,1.93,1.91,3.1,2.73,1.19.81,2.48,1.54,4.21,2.08.17-1.82-.24-3.36-.82-4.77M124.13,138.36c.04,1.99.38,4.67,1.09,7.53.71,2.87,1.69,5.38,2.74,7.11,1.05,1.73,2.18,2.7,3.06,2.44,1.78-.55,1.68-5.55-.23-11.17-1.91-5.62-4.49-9.84-5.76-9.42-.65.21-.93,1.49-.9,3.5M126.85,86.59c1.13.75,2.34,1.38,3.68,1.89,1.35.49,2.78.89,4.59.99-.29-1.81-1.06-3.2-1.96-4.43-.92-1.21-2.02-2.23-3.24-3.05-1.23-.82-2.59-1.45-4.07-1.82-1.48-.37-3.07-.5-4.84-.08.78,1.66,1.72,2.8,2.69,3.85.99,1.02,2.03,1.9,3.16,2.64M124.41,65.3c.99,1.54,2.07,2.55,3.17,3.47,1.11.88,2.26,1.62,3.48,2.21,1.22.59,2.5,1.06,3.89,1.39,1.4.31,2.87.52,4.68.38-.52-1.75-1.47-3.03-2.52-4.13-1.07-1.08-2.29-1.95-3.62-2.6-1.32-.66-2.76-1.1-4.27-1.27-1.51-.17-3.11-.1-4.81.55M110.59,55.09c1.82-4.31,4.23-7.94,6.57-11.91,1.19-1.97,2.38-3.99,3.26-6.34.46-1.16.76-2.45.9-3.81.09-1.17.16-2.32.18-3.49.14-4.65-.05-9.37-1.01-14.02-.51-2.31-1.2-4.62-2.25-6.78-.52-1.08-1.13-2.12-1.81-3.11-.69-.98-1.58-1.85-2.8-2.29.31,1.27.82,2.21,1.32,3.19.49.98.9,1.99,1.24,3.03.65,2.09,1.09,4.25,1.32,6.46.51,4.39.49,8.88.25,13.37l-.2,3.37c-.08.92-.31,1.87-.63,2.86-.63,1.98-1.65,4-2.59,6.07-1.94,4.07-4.01,8.63-3.76,13.41M112.19,147.92c.32,5.85,2.11,10.5,3.98,10.37,1.86-.22,2.66-5.14,1.78-10.96-.88-5.82-2.66-10.38-3.97-10.2-1.31.1-2.12,4.94-1.8,10.79M112.9,125.48c.82,1.18,1.76,2.33,3.17,3.46.81-1.64.98-3.23.96-4.75-.05-1.52-.36-2.98-.89-4.36-.53-1.38-1.28-2.68-2.27-3.83-1-1.15-2.22-2.19-3.9-2.86-.32,1.8-.21,3.28-.03,4.7.21,1.4.56,2.72,1.05,3.98.5,1.26,1.11,2.48,1.91,3.66M120.23,107.59c.69-1.69.75-3.28.62-4.8-.16-1.51-.57-2.95-1.2-4.29-.62-1.34-1.46-2.58-2.54-3.66-1.07-1.08-2.37-2.02-4.1-2.58-.19,1.82.02,3.28.3,4.69.31,1.38.75,2.67,1.33,3.9.58,1.23,1.29,2.39,2.16,3.52.9,1.12,1.92,2.2,3.41,3.22M94.33,127.86c-.13-1.47-.5-2.93-1.15-4.31-.65-1.38-1.54-2.7-2.98-3.81-.8,1.65-1.1,3.09-1.31,4.52-.17,1.41-.19,2.77-.06,4.12.13,1.35.4,2.69.85,4.04.46,1.36,1.06,2.72,2.12,4.19,1.22-1.36,1.82-2.84,2.21-4.31.36-1.48.46-2.97.32-4.44M95.86,107.34c0-1.52-.27-2.99-.77-4.38-.49-1.39-1.2-2.71-2.16-3.9-.96-1.18-2.16-2.25-3.82-2.97-.37,1.8-.31,3.27-.17,4.7.18,1.41.49,2.73.94,4.01.46,1.28,1.05,2.51,1.81,3.71.78,1.21,1.69,2.38,3.08,3.54.85-1.61,1.07-3.19,1.09-4.72M104.78,148c.19-5.83-.73-10.61-2.06-10.67-.68-.02-1.41,1.04-2.08,2.9-.67,1.84-1.29,4.42-1.63,7.31-.34,2.89-.32,5.54.06,7.5.37,1.95,1.08,3.27,1.99,3.32,1.87.12,3.54-4.53,3.73-10.36M105.69,88.81c-.33-1.48-.91-2.86-1.69-4.12-.78-1.26-1.75-2.39-2.95-3.34-1.19-.95-2.59-1.73-4.37-2.08.02,1.83.4,3.26.85,4.62.47,1.34,1.06,2.57,1.78,3.72.72,1.15,1.56,2.23,2.56,3.24,1.02,1.01,2.16,1.96,3.76,2.8.49-1.76.36-3.35.05-4.84M108.18,68.53c1.03.89,2.14,1.67,3.4,2.35,1.27.67,2.64,1.24,4.42,1.58-.05-1.83-.63-3.31-1.37-4.64-.75-1.32-1.71-2.47-2.82-3.44-1.11-.97-2.38-1.77-3.8-2.33-1.42-.56-2.98-.9-4.79-.71.56,1.75,1.34,3,2.17,4.17.85,1.14,1.77,2.14,2.79,3.03M129.37,204.62c-1.58-.05-3.58.34-4.95.59-1.41.27-2.36.48-2.41.39-.03-.06.61-.82,1.82-1.76.61-.46,1.36-.98,2.24-1.45.94-.46,1.8-.9,3.25-1.12-1.32-1.65-4.55-2.09-8.49.01-2.52,1.34-4.39,3.84-5.42,5.96-1.05,2.13-1.35,3.91-1.2,4.08.18.2,1.92.08,4.05-.26,2.13-.37,4.6-.9,6.45-1.9,2.82-1.53,4.2-2.83,4.66-4.54M118.53,186.35c.08-.1,1.49.67,3.69,1.42,2.15.74,5.3,1.47,8.16,1.65-.56-2.55-3.37-4.38-6.98-6.94-1.09-.88-2.34-1.57-3.52-2.46-.64-.41-1.14-.94-1.81-1.4-.58-.57-1.14-1.12-1.67-1.64-.52-.62-1-1.2-1.43-1.72-1.78-2.45-2.29-3.04-2.46-3.04-.18,0-.62.55-1.17,1.59-.26.52-.6,1.18-.86,1.95-.21.77-.41,1.68-.57,2.7-.16,1.01-.07,2.12,0,3.33.12,1.18.47,2.42.88,3.68.99,2.43,2.63,4.85,4.75,6.47,3.2,2.5,6.33,3.41,8.72,3.57,2.43.14,4.2-.48,5.3-1.47-3.7-.94-6.6-2.82-8.47-4.5-1.86-1.7-2.64-3.1-2.57-3.18M136.08,174.87c-.96-2.69-3.16-4.9-5.11-6.22-1.95-1.36-3.67-1.91-3.86-1.78-.23.14-.36,1.89-.33,4.04.05,2.16.23,4.68.94,6.65,1.1,3.01,2.2,4.56,3.82,5.27.27-1.55.19-3.59.14-4.98-.07-1.43-.13-2.4-.04-2.44.07-.02.72.72,1.48,2.05.37.67.78,1.48,1.11,2.43.32.99.63,1.91.63,3.38,1.83-1.06,2.73-4.2,1.23-8.4M137.71,141.61c2.36,5.46,5.68,9.34,7.33,8.52,1.66-.79.72-5.73-2.1-11.03-2.81-5.26-6.07-9.04-7.29-8.44-1.2.63-.3,5.47,2.07,10.95M181.72,290.64c-.19-4.48-.3-8.97-.94-13.41-.65-4.39-1.73-8.91-3.47-12.96-4.16,9.39-2.8,17.87-2.22,26.71.56,8.77.93,17.56.87,26.35-.07,8.79-.53,17.57-1.39,26.34-.64,4.34-.99,8.77-1.88,13.09-.66,4.38-1.85,8.64-2.78,13.01,1.65-4.12,3.39-8.26,4.58-12.57,1.41-4.26,2.41-8.62,3.42-13,1.78-8.79,2.89-17.72,3.52-26.67.58-8.96.65-17.94.29-26.9M219.57,205.99c1.1-5.15,10.18-10.3,9.24-15.4-.94-5.1-11.26-6.68-14.12-11.1-2.76-4.26.09-14.36-4.35-17.42-4.44-3.06-12.86,3.2-17.83,2.14-5.15-1.1-10.3-10.18-15.4-9.24-5.1.94-6.68,11.26-11.1,14.12-4.26,2.76-14.36-.09-17.42,4.35-3.06,4.44,3.2,12.86,2.14,17.83-1.1,5.15-10.18,10.3-9.24,15.4.94,5.1,11.26,6.68,14.12,11.1,2.76,4.26-.09,14.36,4.35,17.42,4.44,3.06,12.86-3.2,17.83-2.14,5.15,1.1,10.3,10.18,15.4,9.24,5.1-.94,6.68-11.26,11.1-14.12,4.26-2.76,14.36.09,17.42-4.36,3.06-4.44-3.2-12.86-2.14-17.83M239.04,163.36c1.97-1.32,3.12-2.72,3.07-2.94-.05-.26-1.62-1.03-3.64-1.79-2.03-.74-4.43-1.51-6.53-1.56-3.2-.08-5.05.37-6.31,1.62,1.35.83,3.27,1.49,4.58,1.96,1.35.46,2.28.76,2.28.86,0,.07-.93.41-2.45.62-.76.1-1.66.18-2.67.14-1.04-.06-2.01-.11-3.37-.65.32,2.09,2.9,4.08,7.37,4.23,2.85.09,5.72-1.14,7.67-2.47M239.36,212.8c3.64,1.76,8.75,1.51,11.68.67-1.96-.51-4.12-1.24-6.03-2.17-5.12-2.48-2.73-7.4,2.38-4.92,1.92.93,3.82,2.17,5.44,3.39-1.15-2.81-4.12-6.98-7.76-8.75-5.12-2.48-10.82,9.29-5.7,11.77M247.1,228.99c3.35-2.27,5.68-6.83,6.42-9.78-1.42,1.44-3.13,2.94-4.89,4.14-4.71,3.19-7.77-1.33-3.07-4.52,1.76-1.19,3.78-2.22,5.65-3.01-3.01-.4-8.11.08-11.46,2.35-4.71,3.19,2.64,14.02,7.34,10.83M264.99,230.39c-.29-4.03-3.07-8.34-5.25-10.45.54,1.96.98,4.18,1.14,6.3.41,5.67-5.04,6.07-5.45.4-.15-2.12-.03-4.39.21-6.4-1.85,2.4-3.99,7.06-3.69,11.09.41,5.67,13.46,4.72,13.05-.95M275.14,215.59c-3.64-1.76-8.75-1.51-11.67-.67,1.96.52,4.11,1.24,6.03,2.17,5.12,2.48,2.73,7.4-2.38,4.92-1.91-.93-3.82-2.17-5.44-3.39,1.16,2.81,4.12,6.98,7.76,8.75,5.12,2.48,10.82-9.3,5.7-11.77M302.06,200.43c-.05-.26-1.61-1.05-3.62-1.83-2.02-.77-4.42-1.55-6.52-1.63-3.2-.11-5.05.31-6.32,1.55,1.34.84,3.26,1.53,4.56,2,1.35.48,2.27.79,2.27.88,0,.07-.94.4-2.46.6-.76.09-1.67.16-2.67.11-1.04-.08-2.01-.13-3.37-.68.3,2.09,2.86,4.11,7.32,4.3,2.85.12,5.73-1.08,7.69-2.39,1.99-1.3,3.15-2.69,3.11-2.91M302.6,184.9c.06-.16-.27-.78-1.03-1.68-.39-.44-.86-1-1.49-1.53-.64-.49-1.4-1.01-2.28-1.54-.88-.52-1.94-.86-3.08-1.26-1.14-.33-2.42-.47-3.74-.57-2.62,0-5.48.61-7.78,1.97-3.52,2.02-5.55,4.57-6.6,6.73-1.05,2.19-1.14,4.07-.63,5.46,2.26-3.08,5.1-5.05,7.36-6.15,2.27-1.09,3.87-1.27,3.91-1.18.06.11-1.18,1.13-2.7,2.89-1.5,1.71-3.36,4.36-4.6,6.94,2.57.44,5.33-1.47,9.06-3.85,1.23-.68,2.33-1.58,3.6-2.33.62-.44,1.3-.7,1.98-1.15.75-.32,1.47-.64,2.15-.93.77-.25,1.49-.48,2.13-.68,2.94-.73,3.68-.97,3.74-1.13M324.37,155.7c-1.17-1.06-2.95-2.07-4.15-2.76-1.25-.71-2.11-1.17-2.09-1.26.01-.07,1-.23,2.53-.17.76.04,1.67.13,2.65.36,1.01.25,1.96.48,3.2,1.26.07-2.11-2.1-4.54-6.47-5.5-2.79-.61-5.83.07-7.99,1.03-2.18.93-3.57,2.1-3.56,2.33,0,.27,1.41,1.31,3.25,2.43,1.86,1.1,4.09,2.29,6.14,2.73,3.14.66,5.03.57,6.49-.44M337.43,197.99c2.41,3.72-.08,12.53,3.8,15.21,3.88,2.67,11.23-2.79,15.56-1.86,4.49.96,8.99,8.88,13.44,8.07,4.45-.82,5.83-9.83,9.69-12.33,3.72-2.41,12.53.08,15.2-3.8,2.67-3.88-2.79-11.22-1.86-15.56.96-4.5,8.88-8.99,8.07-13.44-.82-4.45-9.83-5.83-12.32-9.69-2.41-3.72.08-12.53-3.8-15.2-3.88-2.67-11.23,2.79-15.56,1.86-4.49-.96-8.99-8.88-13.44-8.06-4.45.82-5.83,9.83-9.69,12.32-3.72,2.41-12.53-.08-15.2,3.8-2.67,3.88,2.79,11.23,1.86,15.56-.96,4.49-8.88,8.99-8.07,13.44.82,4.45,9.83,5.83,12.32,9.69M391.07,241.73c-.02.81-.03,1.56-.04,2.24-.26,3.02-.27,3.8-.13,3.91.13.11.82,0,1.93-.43.54-.22,1.23-.49,1.93-.91.67-.45,1.41-1,2.2-1.66.78-.66,1.44-1.56,2.18-2.51.69-.97,1.23-2.14,1.74-3.36.85-2.48,1.19-5.39.65-8-.78-3.99-2.54-6.73-4.24-8.42-1.74-1.7-3.48-2.39-4.97-2.36,2.18,3.13,3.13,6.45,3.45,8.95.29,2.5-.04,4.07-.14,4.08-.13.02-.69-1.48-1.86-3.49-1.14-1.97-3.04-4.59-5.09-6.59-1.25,2.29-.33,5.52.73,9.82.25,1.38.74,2.72,1.05,4.16.21.73.25,1.46.45,2.25.06.82.13,1.6.18,2.33M378.55,232.93c-.07-.03-.07-1.02.23-2.52.16-.75.39-1.63.76-2.56.41-.96.78-1.86,1.73-2.96-2.08-.39-4.82,1.38-6.43,5.54-1.04,2.66-.82,5.77-.22,8.05.59,2.3,1.53,3.85,1.75,3.88.27.04,1.51-1.19,2.9-2.84,1.38-1.67,2.89-3.68,3.65-5.65,1.14-2.99,1.33-4.88.57-6.48-1.23,1-2.5,2.59-3.37,3.67-.89,1.13-1.47,1.9-1.57,1.87M348.84,232.9c6.03-2.55,10.53-5.89,10.05-7.45-.25-.79-1.69-1.04-3.95-.85-2.25.19-5.29.82-8.51,1.89-3.23,1.08-6.01,2.42-7.86,3.79-1.84,1.35-2.77,2.75-2.32,3.71.92,1.95,6.57,1.45,12.6-1.1M355.74,246.89c5.24-2.99,8.8-6.65,8.17-8.25-.67-1.58-5.77-.58-11.4,2.22-5.63,2.8-9.32,6.52-8.24,8.29,1.05,1.79,6.26.72,11.47-2.26M364.07,260.08c4.47-3.14,7.36-6.93,6.54-8.49-.85-1.55-5.47-.3-10.33,2.79-4.86,3.09-7.81,6.9-6.58,8.52,1.2,1.63,5.87.34,10.37-2.82M373.53,272.5c3.82-3.15,6.09-6.9,5.07-8.38-1.02-1.48-5.21-.11-9.36,3.05-4.15,3.16-6.42,6.92-5.07,8.38s5.54.1,9.36-3.05M383.8,284.24c3.2-3.01,4.88-6.62,3.79-8.08-1.1-1.45-4.84-.11-8.36,2.99-3.52,3.1-5.23,6.73-3.82,8.11,1.4,1.39,5.17.02,8.39-3.02M397.4,287.72c-.63-.67-1.73-.74-3.09-.23-1.35.5-2.93,1.55-4.4,3.01-2.93,2.93-4.15,6.39-2.66,7.65,1.52,1.23,4.91-.07,7.58-2.88,2.66-2.82,3.81-6.2,2.57-7.55M407.99,298.74c-1.33-1.28-4.33-.18-6.74,2.5-2.43,2.71-3.15,5.86-1.57,6.99,1.56,1.15,4.59.01,6.76-2.53,2.17-2.54,2.86-5.66,1.55-6.96M399.41,212.36c1.16,1.07,2.93,2.1,4.12,2.8,1.24.72,2.1,1.18,2.07,1.28-.01.07-1,.22-2.53.14-.76-.05-1.67-.14-2.64-.38-1.01-.26-1.95-.5-3.18-1.28-.09,2.11,2.07,4.56,6.42,5.56,2.78.64,5.83-.02,8-.96,2.19-.92,3.58-2.07,3.58-2.3,0-.27-1.39-1.32-3.23-2.46-1.85-1.12-4.07-2.33-6.12-2.79-3.13-.69-5.03-.61-6.5.38"/>
      </g>
    </g>
  </g>
</svg>