<?xml version="1.0" encoding="UTF-8"?>
<svg id="Layer_1" data-name="Layer 1" xmlns="http://www.w3.org/2000/svg" xmlns:xlink="http://www.w3.org/1999/xlink" viewBox="0 0 383.88 540.19">
  <defs>
    <style>
      .cls-1 {
        fill: none;
      }

      .cls-2 {
        fill: #a53b28;
      }

      .cls-3 {
        clip-path: url(#clippath-1);
      }

      .cls-4 {
        clip-path: url(#clippath);
      }
    </style>
    <clipPath id="clippath">
      <rect class="cls-1" width="383.88" height="540.19"/>
    </clipPath>
    <clipPath id="clippath-1">
      <rect class="cls-1" width="383.88" height="540.19"/>
    </clipPath>
  </defs>
  <g id="Artwork_8" data-name="Artwork 8">
    <g class="cls-4">
      <g class="cls-3">
        <path class="cls-2" d="M122.8,526.68c-.25-.24-.34-4-.34-8.74,0-7.47.15-13.38.15-19.28-.68-1.02-2.2-4.78-2.2-5.76,0-.1,0-.15.05-.2.15-.15,2.34-.49,5.76-.49,13.77,0,21.24,6.3,21.24,15.62,0,14.6-14.74,19.09-22.46,19.09-.68,0-2-.05-2.2-.25M129.63,497.83c-.39,0-.64,0-.64.05-.19.19-.34,7.32-.34,13.57,0,4.88.1,9.23.34,9.47.05.05.24.1.49.1,2.24,0,11.47-2.69,11.47-13.23,0-8.88-8.88-9.96-11.32-9.96"/>
        <path class="cls-2" d="M163.26,513.21c-.25.15-3.17.78-4.64,1.03.05,5.42.2,10.25.49,11.42-.83.83-3.71,1.17-4.93,1.17-1.12,0-1.76-.29-1.76-.29,0-7.18.29-28.17.29-28.17-.93-1.17-1.85-4.3-1.85-5.08,0-.1,0-.15.05-.2.2-.24,4.93-.54,9.52-.54,6.25,0,15.77,1.17,15.77,8.84,0,4.25-3.12,7.57-7.62,9.76,0,.68,5.23,12.3,7.96,15.03.05.49-2.78,1.66-5.37,1.66-.54,0-1.22-.1-1.22-.1-1.66-1.66-6.4-13.28-6.69-14.55M169.76,501.64c0-2.73-3.42-3.95-7.42-3.95-1.95,0-3.47.29-3.47.29-.2,1.42-.29,5.91-.29,10.84,8.49-.78,11.18-4.73,11.18-7.18"/>
        <path class="cls-2" d="M193.67,514.38c-2.49,0-5.32.1-5.61.19-1.51,4.98-2.64,9.08-2.93,12.25,0,.05-.73.05-1.17.05-2.63,0-5.18-.64-5.18-.83,0-1.22,1.71-6.59,3.47-11.37-.73-.63-2.29-3.37-2.29-5.03,0-.05,1.71-.1,4.05-.2,2.05-5.96,4.3-11.96,4.54-12.25.29-.24,3.27-.78,3.76-.78.05,0-.44-2.59-.44-3.17,0-.29,3.03-1.76,5.76-1.76,0,0,4.15,25.63,8.93,33.78.05.05.34.58.34.58,0,.44-3.37,2.49-6.15,2.49-.68,0-3.76-10.89-4.39-13.91-.69-.05-1.66-.05-2.69-.05M193.13,500.71s-.15.05-.24.19c-.54,1.07-2.69,6.69-3.17,8.4,2.98,0,5.42,0,5.47.1-1.02-4.3-1.86-8.01-1.95-8.54,0,0,0-.15-.1-.15"/>
        <path class="cls-2" d="M230.08,527.12c0-1.22-.05-2.73-.24-3.17-.05-.1-.1-.1-.1-.1-.05,0-.15.1-.15.1-1.51,1.51-4.24,2.88-7.52,2.88-8.88,0-12.74-6.54-12.74-14.69,0-7.18,2.78-19.53,18.79-19.53,1.32,0,4.59.44,4.78.69.1.1.1.39.1.78,0,1.42-.39,4.3-.78,4.69,0,0-1.51-.78-5.12-.78-6.64,0-11.32,4.44-11.32,13.62,0,5.47,2.15,9.47,7.03,9.47,4.3,0,6.78-3.17,6.78-4.2v-1.56c0-1.32-.05-3.03-.29-3.27-.15-.2-2.49-.44-4.54-.44s-2.73.15-2.98.15c-.2,0-.2-.34-.2-.39,0-.93.54-3.56,1.56-4.59.34-.34,5.42-.68,11.52-.68.44,0,2.78.1,2.78.24,0,1.61-1.12,4.83-1.66,5.61,0,0-.05,13.13-.34,13.67-.29.54-2.78,1.66-4.44,1.66-.49,0-.93,0-.93-.15"/>
        <path class="cls-2" d="M239.89,512.09c0-6.88,2.73-10.69,2.98-10.84.44-.24,2.1-.29,3.22-.29h.93c0-6.98,6.01-8.54,8.79-8.54,9.28,0,13.57,6.01,13.57,17.09,0,7.86-2.83,17.33-15.23,17.33-10.4,0-14.25-7.08-14.25-14.74M256.24,497.64c-2.78,0-4.05,2-4.05,3.71,0,4.49,4.39,9.42,4.39,9.42,0,.44-2.39,1.61-4.68,1.61-.34,0-3.22-3.12-4.2-7.86-.39.44-1.61,2.69-1.61,7.33,0,5.37,3.37,9.91,8.1,9.91,7.47,0,8.89-6.64,8.89-12.64,0-8.59-2.98-11.47-6.83-11.47"/>
        <path class="cls-2" d="M290.56,526.54c-2.93-8.35-9.52-22.41-10.2-23.43-.1-.15-.19-.19-.24-.19-.1,0-.15.34-.15.34-.15,1.03-.2,3.08-.2,5.62,0,6.15.34,14.94.73,16.79-1.02.93-3.56,1.17-4.78,1.17-1.12,0-1.76-.29-1.76-.29v-1.46c0-8.45.68-26.41.68-26.41-.93-1.17-1.85-4.3-1.85-5.08,0-.1,0-.15.05-.19.2-.25,4.59-.49,6.54-.49.58,0,3.42.05,3.66.24,0,0,8.64,19.33,8.88,19.87.1.2.15.24.2.24.15,0,.2-.34.2-.34v-1.37c0-4.98-.39-15.91-.83-18.06,1.02-.93,4.2-1.56,5.42-1.56,1.37,0,1.9.1,1.9.24,0,1.22-.68,3.51-.68,3.66-.24,1.56-.34,5.32-.34,9.71,0,8.74.34,19.87.34,20.02,0,.24-2.2,1.17-5.76,1.17-1.17,0-1.81-.19-1.81-.19"/>
        <path class="cls-2" d="M357.48,390.04c-17.75,3.67-21.11-8.01-34.64-7.36-2.64-.16-20.3,4.39,12.76,16.59,3.8,1.41-28.79,11.52-40.1-14.41-3.86-8.84-13.24-7.46-16.7-6.8,5.79-10.39,10.94-20.81,14.82-30.72,3.68-.07,7.91.26,12.88,1.22,3.59.51-22.68,4.98-11.38,8.82,11.86,3.43,18.12-10.99,38.72-2.45,1.43.46-8.8,1.46-14.5,3.48-5.5,1.94-6.55,4.86-2.26,6.95,12.85,5.28,20.91-4.28,29.04-4.41,8.12-.37,20.9,3.8,24.04,7.06,1.35,1.4-33.9-4.78-24.08,6.83,8.47,10.01,31.34.22,37.26-4.13,2.73-2.69-5.04,15.02-25.87,19.33M290.91,346.82c-7.17,15.83-18.38,32.28-30.33,46.6-3.03,3.23-6.06,6.43-9.22,9.5-8.69,8.37-18.11,16.01-28.65,22.62-5.3,3.28-10.85,6.32-16.91,8.87-3.03,1.28-6.16,2.46-9.49,3.43-.81.26-1.67.48-2.52.7-.85.22-1.67.44-2.67.63-1.9.42-3.83.69-5.76.91-15.57,1.53-31.15-3.47-42.6-14.16-5.69-5.36-10.65-12.38-12.82-21.37-1.05-4.46-1.21-9.4-.29-14.13.9-4.74,2.87-9.18,5.37-12.82,5.08-7.34,11.62-11.7,17.78-14.76,6.24-3.03,12.4-4.96,18.47-6.28,24.22-4.83,47.02-3.19,69.36-.34,1.15.16,2.29.34,3.44.51.35-.52.72-1.03,1.06-1.56,5.28-8.17,9.64-16.78,12.32-25.21,2.73-8.4,3.53-16.61,2.08-22.62-.72-3.02-1.88-5.51-3.54-7.77-.83-1.13-1.85-2.19-2.94-3.25-1.17-1.02-2.43-2.04-3.89-2.98-.7-.48-1.53-.92-2.28-1.38-.78-.37-1.54-.79-2.3-1.09-1.52-.67-3.02-1.16-4.53-1.5-2.99-.73-6.04-.84-9.44-.53-6.79.64-15.05,3.6-23.9,7.85-5.01,2.38-10.23,5.15-15.69,8.04,2.33-1.64,4.59-3.31,6.67-4.96,14.08-11.1,22.56-20.08,40.25-22.12,20.31-2.39,40.98,11.49,36.96,38.66-1.11,7.49-4.06,15.66-7.25,22.61-8.9,19.22-18.99,31.91-44.5,48.03-6.51,4.12-15.42,9.89-22.48,12.94,1.23-.77,2.53-1.6,3.82-2.47,9.55-6.57,18.52-14.7,26.48-23.7-7.91.16-15.75.6-23.45,1.36-10.41,1.01-20.68,2.71-29.84,5.71-4.55,1.49-8.8,3.3-12.27,5.43-3.48,2.11-5.96,4.63-6.92,6.53-.49.96-.64,1.71-.65,2.39,0,.68.09,1.35.42,2.21.23.64.64,1.38,1.15,2.15-2.1-2.09-3.63-4.57-4.52-7.54-.7-2.36-.41-5.11.67-7.3,12.59-22.74,78.09-13.57,81.45-16.55-14.85-1.38-33.72-2.43-49.82-.67.78-5.96-3.12-9.34-7.05-9.34-3.29,0-4.7,2.43-5.09,2.89,7.12,2.02,6.65,3.67,10.84,6.61-4.71.57-9.18,1.37-13.18,2.52-6.43,1.81-16.65,6.65-19.99,13.59-1.27,2.6-1.39,6.09-.53,8.83.84,2.76,1.79,4.99,3.7,6.96,1.94,1.96,4.16,3.6,6.54,4.93,1.88,1.05,4.24,1.75,6.48,2.29.93.37,1.87.71,2.84.96,2.55.67,5.16.87,7.7.69,20.8.42,51.48-18.72,65.82-30.69.43-.37.86-.74,1.29-1.11,3.57,7,10.99,6.31,12.74,1.97-6.23-1.05-6.84-2.44-10.65-3.83,6.27-5.67,11.84-11.86,17.15-20.35,3.71,6.4,11.92,4.84,12.86-.42-3.34-.49-4.74-.48-6.49-.68-2.31-.23-2.96-.68-5.12-.94,2.17-3.65,4.31-7.72,6.43-12.33,3.3-7.19,5.9-14.79,6.98-22.75,4-29.14-15.29-47.4-43.18-43.86-18.51,2.33-27.06,10.81-41.11,22.05-6.04,4.88-12.18,9.61-18.72,13.73-6.5,4.17-13.41,7.68-20.59,10.5-5.27,2.04-10.68,3.65-16.2,4.88-7.81,1.27-16.05,1.44-24.26.1-4.1-.69-8.16-1.75-12.07-3.12-3.91-1.39-7.6-3.12-11.11-5.02-3.45-1.95-6.74-4.08-9.72-6.37-1.53-1.13-2.91-2.32-4.36-3.5-1.5-1.31-2.97-2.67-4.39-4.11-11.52,6.18-17.63,9.18-26.15,6.2-4.83-1.18-7.09-.53-7.6,2.9-.89,6.08-4.81,8.71-5.45,11.19-.49,1.91-2.36,3.73-3.94,4.62-.74.42-2.61,2.06-3.84,2.32-1.56.33-6.86-.82-6.86-1.49,0-.41,3.83-.96,5.15-1.24,1.08-.23,2.68-.95,2.72-1.77.04-.9.07-3.45.48-5.01.51-1.92,1.37-2.61,1.78-3.86.38-1.14,3.84-6.67.65-9.69-1.8-1-3.81-2.38-6.06-4.3-1.32-1.12-7.44-4.76-8.32-4.74-1.5.04-3.34,2.51-10.41,2.09-1.85-.11-2.52-.02-4.05,1.2-.96.76-2.16,3.18-2.51,3.63-.27.34-1.02-2.71.81-5.25,1.19-1.65,4.63-2.81,4.8-3.15,1.83-3.59,7.6-4.23,9.65-4.56,2.98-.49,11.39-.24,11.39-.24-.14-1.62-3.41-2.35-5.61-3.75-1.02-.65-1.79-2.8-3.47-2.56-1.01.14-2.37.53-3.26.67-4.63.74-5.01-2.33-7.59-4.14-.74-.52-1.95-1.51-3.14-1.28-1.87.35-3.42,2.23-3.33,1.5.19-1.47,1.93-3.86,3.18-4.46,1.68-.82,3.52.34,4.62-.3,1.53-.89,8.73.6,10.61,1.2,5.08,1.63,8.54,2.67,10.38,3.22-.02-3.24-2.09-4.2-3.21-6.16-.9-1.58-1.11-4.07-1.73-4.75-1.05-1.17-3.4.34-6.97-3.2-1.37-1.37-2.67-2.99-4.47-3.31-1.13-.2-3.43.64-3.95.69-.4.04.96-2.83,3.77-3.26,1.82-.28,4.9,1.61,5.23,1.49,3.46-1.21,7.91,1.03,9.52,2.41,2.5,2.13,5.74,5.17,8.47,9.61,1.51,2.46,2.99,5.09,4.33,7.84.38.67.74,1.41,1.07,2.26,4.37,10.19,8.99,15.5,14.56,12.7,8.3-4.18,3.1-18.04,3.1-18.04-2.7-7.16-4.49-14.73-4.95-22.33-.14-2.21-.17-4.41-.1-6.61-.06-3.84-3.04,2.85-3.27.27-.76-8.56,4.17-9.71,4.61-15.97.05-.75-6.15,4.72-5.8,2.7,2.05-11.73,9.59-8.29,11.75-17.67.52-2.26-9.08,3.87-8.14,1.73,4.93-11.21,13.63-8.98,19.48-18.96.97-1.65-9.73,2.32-9,.95,4.87-9.21,14.41-9.69,17.88-11.39,3.37-1.64,6.4-3.38,7.89-5.49,2.06-3.11-12.65,1.18-9.72-1.56,10.33-9.68,20.58-7.86,26.96-12.1,6.39-4.23-11.87.39-8.71-1.84,10.81-7.62,24.5-4.21,31.98-7.04,7.48-2.82-16.95-2.04-13.31-3.42,13.31-5.02,23.77-.61,32.3-2.23,8.52-1.61-12.08-3.04-8.22-4.15,14.37-4.14,22.08,1.32,29.19,1.12,7.11-.2-7.86-5.54-5.7-5.8,22.99-2.75,22.31,5.31,31.42,2.85,6.75-4.58-8.88-5.59-6.52-6.26,13.07-3.68,16.96,3.65,23.21.22,6.79-3.72-6.23-5.24-3.41-6,9.15-2.46,13.49.73,18.75-1.58,1.14-.38,2.27-.81,3.35-1.35,3.13-1.58,6.02-3.93,7.91-7.11,1.91-3.16,2.55-7.05,2.14-10.68-.38-3.66-1.58-7.13-3.11-10.36-.75-1.6-1.66-3.26-2.81-4.7-1.17-1.43-2.47-2.74-3.85-3.93-2.8-2.35-5.96-4.17-9.26-5.52-6.63-2.68-13.63-3.81-20.68-3.73,6.72,2,13.52,3.52,19.5,6.37,2.99,1.43,5.76,3.27,8.11,5.48,2.37,2.25,4.11,4.85,5.79,7.68,1.63,2.87,2.93,5.92,3.5,9.09.59,3.16.29,6.44-1.1,9.36-1.39,2.91-4.04,5.04-6.88,6.82-17.77,1.32-30.45,12.93-41.52-13.15-.46-1.09-.83-2.17-1.14-3.23,10.34-8.22,15.98-19.58,14.9-22.84-.48-1.46-2.18-1.88-4.44-.23-15.67,11.49-45.29,11.72-45.29,11.72,3.22,1.86,10.23,2.28,13.24,2.28,1.48,0,2.96-.08,4.54-.16,7.41-.45,16.09-2.44,23.24-5.92-1.6,3.66-5.63,8.33-10.2,12.21-4.92,4.16-10.49,7.22-16.58,9.17-4.7,1-9.8,1.17-15.27.09-10.6-2.08-17.58-4.56-16.37-.71.51,1.62,12.92,13.41,36.52,5.29,7.66-2.64-25.63,34.44-63.22-1.35-1.28-1.22-2.33-2.28-3.19-3.24-3.22,1.21-6.17,2.5-8.54,3.83-24.14,13.57-27.63,27.74-37.07,29.61-15.49,3.07-21.42-4.75-21.47-8.77-.02-1.74.18-3.12.69-4.41.34-2.67,1.6-11.63,3.15-11.35.74.13,3.28,4.04,3.28,4.04,1.23-1.06,2.65-2.25,4.3-3.63.52-.44,1-.9,1.45-1.36.42-1.95,2.24-9.85,3.81-9.46.29.07.73.84,1.16,1.73,2.38-5.45,3.8-11.6,7.59-17.29-2.33.62-4.74,1.36-7.23,2.24-3.53,1.25-6.63,3.79-9.5,6.53,1.38,3.33,1.43,13.26-.1,11.74-1.22-1.22-4.8-3.54-6.94-4.89-2.58,2.26-5.05,3.76-7.58,3.34-2.97-.5-7.69-3.26-11.33-5.37-.41,2.57-1.58,5.87-2.14,5.44-.64-.48-4.23-4.27-5.8-6.54-2.28,1.24-4.14,2.4-4.91.66-1.49-3.39-1.15-13.76,4.75-17.97.3.44.67,1.28,1.03,2.07.81,1.82,2.15,3.98,4.36,5.17,1.04.62,2.31.93,3.32,1.11,1.03.15,2.05.24,3.05.26,3.99.11,7.79-.19,11.56-.34,1.88-.04,3.75-.11,5.57.09,1.78.22,3.7.57,4.74,2.29-.15-.96-.78-1.91-1.61-2.53-.82-.65-1.77-1.08-2.71-1.45-1.91-.7-3.88-1.08-5.82-1.36-3.89-.57-7.75-.69-11.42-1.1l-2.67-.35c-.88-.11-1.5-.22-2.19-.45-1.33-.42-2.56-1.35-3.65-2.82-.44-.54-.76-1.12-1.3-1.79.56-.2,1.15-.36,1.78-.46,30.91-5.04,44.73-17.48,43.24-20.7-2.75-5.92-2.05-12.1,1.28-14.75,2.76-2.19,10.55-1.1,17.7-3.72,3.88-1.42,8-3.75,13.01-5.84.9-1.79,1.96-3.45,3.14-4.93,3.56-4.35,7.91-7.25,12.25-9.44,2.18-1.09,4.39-1.96,6.61-2.76,1.11-.35,2.22-.76,3.33-1.06l3.17-.91c3.57-1.01,7.08-2.22,10.46-3.71,2.44-2.24,4.42-5.06,6-8.36,1.6-3.32,2.82-7.01,3.81-10.66.19-.72.87-1.11,1.53-.93.88,3.3.63,5.3.22,7.31-.39,2.01-.93,4-1.7,5.95-.28.67-.58,1.34-.89,2,.89-.54,1.81-1.04,2.67-1.62,3.4-2.19,6.54-4.75,9.46-7.55,5.79-5.57,10.7-12.55,13.3-20.3.27-.8.98-1.15,1.63-.93.55,5.91-.79,10.18-2.61,14.35-1.8,4.16-4.29,8.01-7.11,11.59-5.69,7.17-13.13,12.8-21.11,17.08-4,2.14-8.11,4.06-12.33,5.65l-2.93,1.18c-.93.36-1.8.81-2.71,1.2-1.49.74-2.93,1.52-4.29,2.36,2.85-.05,5.45.06,7.86.29-1.62,1.28-8.4,4.62-8.4,4.62.46.09,4.36.18,4.82.18,2.09,0,4.12-.84,6-1.75l1.76-.86c1.43-.7,2.83-1.39,4.26-1.99,1.87-.81,3.42-1.52,5.6-2.16.34-.1,4.42-1.39,4.76-1.48.99-.26,3.56-1.27,5.92-2.46,4.1-1.01,7.94-2.09,11.74-3.62,1.07-.43,2.13-.89,3.18-1.38,2.04-2.09,3.75-4.6,5.14-7.49,1.6-3.32,2.82-7.01,3.81-10.66.19-.72.87-1.11,1.53-.93.88,3.3.63,5.29.22,7.31-.39,2.01-.93,4-1.7,5.95,2.85-.94,6.02-3.39,8.91-6.18,6.04-5.74,10.98-13.12,13.51-21.26.25-.8.95-1.17,1.6-.97.67,6.07-.64,10.55-2.47,14.91-1.83,4.36-4.4,8.4-7.36,12.13-6.02,7.43-13.98,13.14-22.51,17.22-1.94.94-3.94,1.8-5.95,2.62-.86.26-1.71.52-2.61.76-1.12.31-2.25.59-3.41.89-3.7.93-7.52,1.89-11.29,3.71-2.5,1.2-4.87,2.82-6.84,4.65-1.4,1.26-3.07,3.18-4.54,5.33-5.05-.03-6.38-2.86-14.92,3.96,1.44-.87,5.68-1.84,8.37-1.53,6.96.73,6,3.93,11.61-1.71.81-.75,1.69-1.53,2.64-2.2,1.7-1.25,3.7-2.25,5.93-2.98,2.46-.8,5.07-1.29,7.85-1.8,2.09-.39,4.25-.79,6.41-1.35,3.01-.72,6.94-1.93,10.31-4.37,12.82-5.87,22.84-17.5,25.71-22.1,1.86-2.98.6,3.27-2.57,11.27-.36.53-.72,1.07-1.09,1.57-5.59,7.71-15.16,16.77-19.34,20.03-4.16,3.4-14.02,10.81-14.02,10.81,6.79-1.39,16.86-5.13,27.89-16.77,2.67-2.74,7.98-10.41,16.52-13.61,4.05-1.52,11.43-1.05,14.77-.39.55.11-16.16,5.12-26.25,19.36-8.86,12.51-27.11,21.03-25.92,21.05,2.76.05,11.19-2.91,18.43-8.46,3.56-2.75,7.05-5.93,10.65-9.72,2.42-2.52,7.29-7.65,10.44-11.85-.17,1.53-1.69,4.83-1.95,6.14-.73,3.75-3.08,7.8-5.6,12.55-2.4,4.39-5.01,8.05-7.76,10.89-1.42,1.46-6.84,4.81-9.9,6.13-9.85,4.24-19.99,6.81-19.99,6.81,10.11.2,26.26-2.08,33.44-9.39,6.27-6.3,11.32-19.18,15.26-26.97,1.05-2.08,2.22-3.77,3.37-5.16,8.38-2.4,12.01-9,25.94-2.94,1.73.75-18.91,6.08-5.1,9.71,13.66,3.59,12.08-6.35,29.71,2.52,2.38,1.2-16.37,1.98-9.6,6.32,8.7,5.59,12.52-4.76,25.65,7.39.65.6-16.71-2.84-11.05,3.73,4.54,5.28,12.41.32,19.84,10.61,1.33,1.85-16.64-4.8-8.57,4.1,1.13,1.01,2.58,1.97,4.34,2.5,4.83,1.44,11.38,5.42,11.38,11.88,0,0-9.31-6.17-8.89-1.66.82,8.82,10.4,4.99,10.4,18.6,0,0-7.49-7.02-7.94-3.31.1,1.06.18,2.13.22,3.21,6.25,2.15,13.82,3.85,18.06,1.45,8.92-5.04,4.72-17.12.43-25.98-2.86-5.32-3.65-9.92-5.52-12.29-1.28-1.62-1.6-4.34-1.34-6.23.12-.88-.05-3.48.52-4.67.72-1.51,3.59-4.76,4.72-4.2.39.19-.74,3.25-1.36,4.52-.5,1.04-.92,2.84-.26,3.4.72.61,2.83,2.25,3.87,3.59,1.27,1.64,1.3,2.81,2.08,3.94.39.57.89,1.45,2.04,2.59,1.66-5.17,4.13-10.04,6.67-14.41,2.62-4.51,5.79-7.62,8.23-9.82,1.58-1.42,5.98-3.77,9.46-2.65.33.11,3.37-1.85,5.2-1.62,2.82.35,4.25,3.19,3.85,3.16-.52-.04-2.85-.82-3.97-.59-1.79.36-3.04,2.02-4.38,3.42-3.47,3.63-5.86,2.18-6.89,3.38-.6.7-.74,3.19-1.61,4.79-1.32,2.44-4.14,3.38-4.62,6.73,0,0,3.99-1.22,11.87-3.97,1.87-.65,9.02-2.32,10.58-1.46,1.12.61,2.92-.59,4.62.19,1.26.58,3.06,2.91,3.29,4.38.11.73-1.49-1.11-3.37-1.42-1.19-.19-2.37.82-3.1,1.36-2.53,1.88-2.83,4.96-7.48,4.33-.89-.12-2.25-.47-3.27-.59-1.69-.2-2.4,1.97-3.41,2.65-2.17,1.45-5.42,2.27-5.52,3.89,0,0,8.4-.46,11.39-.05,2.06.29,7.84.78,9.76,4.32.18.34,3.65,1.42,4.88,3.03,1.89,2.49,1.22,5.57.94,5.23-.37-.44-1.62-2.83-2.6-3.57-1.56-1.18-2.23-1.25-4.08-1.1-7.06.59-8.95-1.83-10.45-1.83-.88,0-6.9,3.79-8.2,4.95-2.39,2.14-4.51,3.66-6.39,4.7.16,1.62.19,3.34,0,5.18-2.61,26.41-18.41,18.9-35.76,24.26-2.04,10.11-6.85,18.95-12.35,25.72-5.75,7.07-12.2,12.27-18.64,16.45-6.46,4.16-12.98,7.28-19.45,9.82-5.31,2.06-10.59,3.71-15.83,5.08-2.46.52-4.92.98-7.41,1.34-12.15,1.84-24.5,1.85-36.83,1.3-12.34-.5-24.75-1.72-37.36-.98-6.29.38-12.63,1.37-18.71,3.39-3.04.98-6.01,2.25-8.85,3.87-2.81,1.62-5.42,3.57-7.79,5.75-4.75,4.37-8.55,9.73-11.15,15.62-2.58,5.88-3.98,12.44-3.26,18.99.66,6.54,3.9,12.87,8.88,17.15,2.47,2.15,5.25,3.92,8.21,5.21,3.06,1.39,6.29,1.94,9.43,2.29,2.53.26,5.06.38,7.57.4.39-.65,1.27-1.07,2.94-1.05,3.19.05,9.52-2.14,14.28-5.52-3.59-6.22-4-11.88-5.98-14.7-1.19-1.69-1.36-4.42-1-6.29.17-.87.14-3.48.77-4.64.8-1.47,3.84-4.56,4.94-3.94.38.21-.92,3.2-1.6,4.44-.56,1.02-1.07,2.79-.44,3.38.69.65,2.71,2.4,3.67,3.79,1.18,1.71,1.14,2.88,1.86,4.05.22.37.48.86.9,1.45-.43-4.1-.46-8.2-.31-12.06.2-5.21,1.55-9.45,2.68-12.53.73-2,3.52-6.13,7.13-6.76.34-.06,2.11-3.21,3.83-3.86,2.66-1.01,5.25.83,4.88.99-.48.21-2.9.61-3.78,1.33-1.41,1.15-1.75,3.21-2.28,5.07-1.37,4.83-4.16,4.67-4.51,6.2-.2.9.83,3.17.82,4.98-.02,2.77-2.07,4.92-.94,8.11,0,0,2.95-2.95,8.63-9.06,1.35-1.45,6.9-6.27,8.67-6.24,1.28.02,2.31-1.89,4.18-2,1.38-.08,4.07,1.14,4.95,2.34.44.59-1.83-.29-3.64.32-1.14.38-1.71,1.83-2.11,2.65-1.36,2.84-.19,5.71-4.59,7.32-.84.31-2.21.64-3.17,1.01-1.58.61-1.2,2.87-1.78,3.93-1.24,2.3-3.73,4.54-3.06,6.02,0,0,7.21-4.34,10.05-5.37,1.95-.71,7.3-2.98,10.65-.74.32.21,3.89-.46,5.73.4,2.84,1.32,3.68,4.35,3.28,4.18-.53-.22-2.76-1.74-3.97-1.93-1.93-.31-2.56-.06-4.12.94-5.96,3.82-8.77,2.57-10.1,3.27-.77.41-4.33,6.58-4.93,8.21-.51,1.37-1.03,2.59-1.55,3.69,8.7-3.84,17.95-8.42,28.31-12.72,5.62-2.32,11.59-4.55,18.1-6.34,6.49-1.79,13.59-3.14,21.17-3.4,7.57-.22,15.62.7,23.16,3.14,7.59,2.35,14.42,6.14,20.4,10.4,3.06,2.18,6.02,4.7,8.83,7.48,2.76,2.85,5.38,5.94,7.64,9.36,2.24,3.42,4.18,7.08,5.7,10.88,1.49,3.81,2.58,7.71,3.3,11.59,1.39,7.78,1.28,15.36.33,22.41-.99,7.04-2.76,13.63-5.02,19.8-.58,1.59-1.21,3.14-1.85,4.68M37.3,117.22c-1.01,0-3.55.56-5.19,1.72-2.43,1.71-4.5,4.7-2.28,5.14.65.13,3.7-2.07,7.14-3.96,1.6-.88,3.27-.2,4.31.15,2.15.72-1.68-3.04-3.98-3.04M94.77,86.26c-.95,1.18-2.61,1.89-4.12,2.38-5.55,1.76-11.1-.31-14.82-1.07,8.63,8.02,17.6,3.76,19.51-1.11-.5-.29-.57-.2-.57-.2M70.58,81.9c.28.86,1.73,1.81,2.44,2.31,2.5,1.4,4.42,1.76,6.34,1.94,1.23.24,2.42.39,3.34.32,4.79-.36,7.93-1.73,7.93-1.73,0,0-8.02-6.79-13.68-3.83-.9.47-2.01,1.49-2.72,2.33-1.28-1-.83-1.85-.74-3.27.16-4.42,5.39-2.16,9.89-1.8,4.49.42,9.74-1.66,9.22-2.9-.53-1.26-.21,1.77-14.44-.2-7.14-1.04-8.91,2.85-7.58,6.83M62.06,73.78c1.6,1.89,1.31,5.37.85,7.8-.09,1.55,2.47,1.61,2.55.2.25-4.63-1.11-10.66-5.67-9.69.92.6,1.74,1.04,2.27,1.69M64.26,89.13c-3.92.16-6.45,2.19-9.13,4.01-2.69,1.78-5.4,3.51-8.27,4.92-2.85,1.43-5.87,2.64-8.93,3.82-3.05,1.21-6.08,2.48-9.04,3.91l9.5-2.54c3.15-.88,6.35-1.75,9.46-3.03,3.11-1.27,6.04-2.91,8.85-4.67,2.82-1.75,5.61-3.53,7.57-6.41M55.98,138.66c1.07-1.18,2.1-2.38,3.06-3.64,2.76-3.53,5.04-7.4,7.24-11.33,2.21-3.93,3.64-7.86,6.05-11.8.94-1.53,2.27-3.16,3.56-4.64-3.93.32-7.22,1.01-7.97,1.27-1.77.62-6.44,14.18-8.56,19.14-2.11,4.95-7.27,8.43-12.03,13.16-1.86,1.85-6.39,5.67-5.15,6.6,1.85,1.38,5.84,2.36,9.41,2.1.21-1.48.66-4.26,1.3-6.71-1.1.62-2.22,1.22-3.32,1.83,1.31-1.01,2.54-2.11,3.72-3.23.59-1.85,1.3-3.25,2.12-3.25.14,0,.33.2.56.52M72.32,131.56c10.31-22.2,20.52-20.11,17.58-22.2-2.27-1.61-5.82-2.19-9.41-2.26-1.3,2.06-2.55,4.09-4.02,6.32-2.41,3.76-5.01,8.76-7.47,12.62-2.47,3.86-5.02,7.55-8.12,10.95-1.18,1.28-2.54,2.33-3.96,3.31.88,1.74,1.89,4.13,2.55,5.77,2.63-1.87,5.04-4.06,7.11-6.33.6-3.62,1.85-9.74,3.56-9.74.4,0,1,1.22,1.58,2.68.2-.38.43-.77.6-1.13M91.25,106.81c-.61.57-.02.59,2.07,1.82,4.1,2.4-.98,2.09-10,11.76-2.45,2.65-4.72,5.53-6.4,8.77-1.7,3.21-2.84,6.77-2.99,10.36,2.08-6.87,6.95-12.39,11.67-17.54,9.95-10.68,15.18-11.64,5.66-15.16M143.46,80.63c-1.73-1.12-6.34,3.68-8.42,4.86-1.82,1.05-3.76,1.61-5.6,1.61-3.72-.34-6.64-1.91-9.99.57-2.35,1.8-3.33,5.53-1.82,10.45.44,1.26,1.82,1.94,3.11,1.49,3.7-1.3-.63-5.79,1.83-8.01.51-.49,1.34-.8,2.19-.82,8.69,1.91,13.56-2.19,18.39-7.54.82-.91.83-2.28.32-2.61M220.66,124.51c-4.85-2.6-12.21-4.74-20.21-5.98.91,6.14,3.51,11.15,9.47,12.26,3.76.7,8.58-1.69,13.09-4.87-1.17-.7-1.68-1.07-2.35-1.41M211.15,64.92l-1.68-.45c3.16,8.92.5,8.16-2.02,16.24,11.36-2.68,10.22-14.05,3.7-15.79M222.97,77.91l-1.43-.99v1.74c-.02,7.04-3.14,7.26-7.37,12.86,2.03.23,3.59.55,6.38-.6,6.49-3.13,6.3-10.35,2.42-13.02M104.06,290.79c1.76,1.11,3.03,2.05,5.97,2.21,7.17,0,10.14-6.48,7.97-10.51l-.82-1.52c-4.4,8.35-5.59,5.88-13.12,9.82M76.75,266.73c-3.76-.8-3.05-.72-5.7-.91,1.07,2.17,1.54,2.78,2.11,3.49.61.61,1.19,1.1,1.81,1.53,3.61,2.24,7.42,1.84,9.84-.22,1.47-1.18,2.37-2.84,2.47-4.53l.1-1.72c-6.22,3.66-6.97,2.75-10.62,2.37M82.06,245.15l.82-1.52c-9.31.9-7.97-1.44-15.4-5.59.08,4.66,2.08,8.18,5.12,9.6,3.76,1.83,7.91.36,9.46-2.49M234.63,191.02c-7.36-.02-7.33-1.15-10.28-3.48-.78-.88-2.49-2.51-4.32-3.89-.23,2.08-.54,3.62.6,6.38,3.14,6.52,10.37,6.27,13.02,2.43l.99-1.43ZM240.7,177.77c-9.47-.03-7.92-2.33-14.6-7.37-1.03,9.29,8.49,16.23,14.6,7.37M262.07,173.56c-8.93,3.22-8.31.51-16.24-1.93,2.7,11.22,14.1,10.18,15.8,3.62l.44-1.69ZM250.56,147.73c.88,1.85,1.51,3.38,3.76,4.94,1.5.98,3.03,1.52,4.53,1.6,3.43.3,7.26-1.86,7.91-5.31l.31-1.65c-2.33.95-4.15,1.77-6.82,1.77-1.68-.07-2.36-.19-3.06-.32-4.62-.83-3.03-.81-6.62-1.03M268.56,127.98l.14-1.74c-8.2,4.72-7.99,1.96-16.33.94,4.69,10.68,15.67,7.51,16.2.79M272.46,160.75l-1.54.82c-2.09,1.11-3.74,1.6-5.36,1.6-1.45-.07-2.16-.25-2.91-.43-4.6-1.32-3.84-1.18-6.55-1.6,1.87,4.68,5.14,7.01,8.25,7.22,4.6.03,7.57-2.81,7.91-5.88l.2-1.73ZM272.11,138.61c-4.12.2-6.38.85-6.67.91,2.89,3.09,6.28,4.97,10.32,3.69,1.81-.54,3.43-1.77,4.32-3.26,1.01-1.59,1.33-3.46.89-5.11l-.45-1.68-1.13,1.32c-2.63,3.07-4.47,3.75-7.27,4.12M266.62,115.32c-2.14.84-1.4.46-3.86,1.81,9.87,5.85,17.19-2.93,13.61-8.82l-.9-1.49-.72,1.59c-1.12,2.48-2.28,3.97-3.91,5.01-.53.37-1.2.66-1.91.98-1.32.54-1.8.73-2.29.93M251.61,103.96c7.29,4.33,13.02.75,14.18-3.66.53-1.81.32-3.69-.57-5.15l-.9-1.49-.72,1.58c-2.9,6.41-5.85,5.35-11.99,8.72M241.91,115.42c7.91,8.4,17.29,1.89,15.53-4.68l-.45-1.68c-6.13,7.17-7.3,4.62-15.08,6.37M235.63,87.72c7.1.44,11.58-8.39,6.91-12.83l-1.26-1.2c-1.5,9.35-3.52,7.46-9.55,13.29,1.95.53,2.05.63,3.9.74M247.24,89.68l-1.07-1.38c-2.86,8.97-4.92,7.07-11.43,11.7,10.65,4.76,16.62-5.03,12.5-10.32M239.29,133.25c.13,11.87,11.57,12.88,14.6,7.05l.8-1.54c-9.4,1.14-8.14-1.32-15.4-5.51M234.35,155.69c-.15,11.57,11.16,13.35,14.44,7.38l.84-1.53-1.73.17c-.67.07-1.29.1-1.86.1-5.28,0-6.27-2.85-11.68-6.13M223.41,142.7c.06,4.72,2.05,8.28,5.11,9.7,3.79,1.84,7.98.27,9.49-2.65l.81-1.55c-2.88.35-5.39.77-8.04-.54-1.9-.85-3.74-2.88-7.36-4.97M212.72,158.15c.85,1.77,1.92,3.04,3.27,3.88,1.26.82,2.75,1.27,4.21,1.27,2.94-.35,4.57-1.31,5.54-2.72l.99-1.43h-1.74c-2.72-.02-4.56-.47-6.17-1.53-1.75-1.05-3.37-3.34-6.69-5.84-.27,2.42-.47,3.77.6,6.38M172.9,185.78c.93,2.55,6.35,2.59,8.11,4.5,1.82,1.98,1.21,7.15,3.62,8.3,2.42,1.16,6.23-2.48,8.95-2.29,2.63.18,5.98,4.35,8.62,3.49,2.64-.85,2.58-6.08,4.54-7.75,2.03-1.72,7.4-1.05,8.56-3.36,1.16-2.31-2.67-6.04-2.52-8.66.15-2.53,4.42-5.69,3.49-8.25-.92-2.55-6.35-2.59-8.11-4.5-1.82-1.98-1.21-7.15-3.62-8.31-2.42-1.16-6.23,2.48-8.95,2.3-2.63-.18-5.98-4.35-8.62-3.49-2.63.85-2.58,6.09-4.54,7.75-2.03,1.72-7.4,1.05-8.56,3.36-1.16,2.31,2.67,6.04,2.52,8.66-.15,2.53-4.42,5.7-3.49,8.25M165.92,190.29c-1.95.88-2.12,1.63-2.32,2.51-.34,3.11.47,5.5,1.79,7.11,1.17,1.48,2.9,2.53,4.62,2.81,2.74.13,4.03-.28,5.08-1.06l1.4-1.04c-7.01-2.39-6.59-3.51-8.63-6.59-.17-.4-1.46-3.04-1.94-3.74M161.66,171.61c.95,0,1.85-.2,2.66-.61l1.56-.77-1.52-.85c-6.17-3.47-5.07-6.85-7.65-12.69-5.66,7.89-.79,14.92,4.95,14.92M153.99,187.93c4.15.13,5.69-1.52,6.47-2.1l-1.65-.56c-2.57-.88-4.17-1.89-5.35-3.42-1.35-1.59-2.12-4.23-4.47-7.68-3.57,7.66.43,13.02,5,13.77M139.89,188.36c-2.11,8,2.57,12.65,7.29,12.65,2.02,0,3.75-.71,4.91-1.95l1.19-1.28-1.72-.26c-6.96-1.04-7.1-4.54-11.66-9.16M134.22,174.23c1.28,1.39,3.01,2.29,4.73,2.47,2.49.06,3.91-.43,4.98-1.33l1.32-1.11-1.66-.47c-6.65-1.9-6.24-5.02-10.63-10.35-1.69,4.52-.97,8.46,1.26,10.8M121.77,187.1c-3.03,8.2,1.86,13.34,6.95,13.34,1.66,0,2.49-.1,5.34-2.51-9.02-2.58-7.33-4.8-12.29-10.83M122.08,181.48c1.66,0,2.49-.1,5.34-2.51-9.02-2.58-7.68-5.22-12.29-10.83-3.03,8.11,1.82,13.34,6.95,13.34M112.82,204.93c-9.03-2.57-7.11-4.54-12.3-10.83-2.98,8.07,1.53,13.17,6.95,13.34,1.66,0,2.49-.1,5.34-2.51M110.04,189.35l1.32-1.11c-9-2.57-7.54-5.05-12.3-10.83-3.42,9.22,5.3,16.73,10.98,11.94M94.89,221.84c-9.36-.87-7.8-3.12-14.09-8.37-1.93,11.41,8.94,14.69,13,9.71l1.09-1.34ZM78.64,200.8c.87,4.23,3.86,6.66,6.93,6.98,2.62.06,3.45-.04,6.31-2.45-9.03-2.58-7.09-4.51-12.3-10.83-.7,1.89-1.39,3.4-.94,6.29M76.05,227.56l1.09-1.33c-9.19-.86-7.27-2.67-14.08-8.39-1.92,11.19,8.73,14.94,12.99,9.72M72.97,257.71l.55-1.64c-9.03,2.49-7.91,0-16.14-2.85.41,2.08.37,2.17,1.13,3.91.44.75.87,1.38,1.35,1.95,4.8,5.13,11.62,3.09,13.12-1.38M79.91,281.98l.1-1.72c-8.07,4.76-7.54,2.08-16.32,1.46,5.1,10.39,15.83,6.77,16.22.27M92.27,294.01l-.56-1.63c-5.68,7.54-7.04,5.09-14.53,7.59,2.09,1.84,3.87,3.29,7.38,3.29,5.7,0,9.1-5.23,7.71-9.25M102.13,283.19c1.1-1.53,1.53-3.36,1.18-5.02l-.36-1.69c-6.56,6.75-7.65,4.18-15.36,5.71,4.49,5.1,11.5,5.46,14.53,1M107.34,306.12c.48-1.82.21-3.69-.71-5.11l-.94-1.45c-3.65,8.59-4.96,6.24-12.26,10.87,1.88.98,1.9,1.05,3.76,1.56,5.52.8,9.31-2.24,10.15-5.87M117.07,309.3l-1.23-1.21c-1.74,9.18-4.31,7.94-9.67,13.23,1.95.53,2.03.62,3.88.72,7.08.43,11.5-8.31,7.02-12.74M159.29,299.27c-.17-2.28,3.28-5.63,2.14-7.81-1.13-2.18-6.01-1.56-7.81-3.07-1.87-1.56-1.93-6.26-4.24-7.01-2.31-.75-5.29,2.97-7.75,3.13-3.18,1.24-6.2,1.68-10.05,1.75-.28,1.41-.52,2.84-1.24,3.63-1.61,1.79-6.51,1.83-7.27,4.04s3.12,5.1,3.3,7.46c.17,2.28-3.28,5.63-2.14,7.81,1.13,2.18,6.01,1.56,7.81,3.06,1.87,1.56,1.94,6.27,4.24,7.01,2.31.75,5.29-2.97,7.75-3.13,2.38-.15,5.88,3.18,8.14,2.1s1.59-5.76,3.15-7.49c1.61-1.79,6.51-1.82,7.27-4.04.76-2.21-3.12-5.1-3.3-7.46M163.96,281.47c6.36,1.3,11.72-7.16,6.8-11.9l-1.24-1.2c-1.62,9.26-4.28,8.05-9.5,13.35,1.95.5,2.04.59,3.88.67l.06-.92ZM179.41,291.2l-1.3-1.14-.21,1.71c-.87,6.9-4.06,6.99-8.61,12.09,2.05.42,2.14.5,4.04.47,8.21-1.08,10.31-9.45,6.08-13.14M186.17,272.08l-1.3-1.14-.21,1.71c-.87,6.91-4.08,7.01-8.61,12.09,11.2,2.3,15.08-8.34,10.12-12.67M189.49,267.78c11.25,2.31,15.08-8.35,10.12-12.67l-1.3-1.14c-1.15,9.27-3.82,8.19-8.82,13.81M201.75,274.84l-1.3-1.14-.22,1.71c-.88,6.85-4.02,6.94-8.61,12.1,10.26,2.06,15.29-8.15,10.13-12.68M217.88,258.13l-1.3-1.14c-1.16,9.29-3.26,7.56-8.82,13.81,2.1.43,2.16.5,4.04.47,8.22-1.09,10.31-9.45,6.08-13.14M235.42,248.66l-.9-1.47c-3.87,8.5-5.56,6.37-12.54,10.55,10.11,5.59,16.83-3.54,13.44-9.08M243.31,259.75l-.9-1.47c-3.9,8.56-5.35,6.25-12.54,10.55,1.86,1.03,1.88,1.11,3.72,1.65,8.17,1.42,12.65-5.95,9.72-10.73M217.01,358.32c6.91,1.96,6.96,4.23,12.02,7.4.93-4.37-.36-7.13-2.67-8.83-1.18-.93-2.74-1.46-4.27-1.46-3.29,0-4.69,2.42-5.08,2.89M193.76,358.32c7.43,2.1,12.02,7.4,12.02,7.4.37-1.74.74-3.22-.13-5.44-1.29-3.15-4-4.85-6.81-4.85-3.29,0-4.69,2.42-5.09,2.89M140.13,403.67c6.11-4.51,6.77-2.4,12.7-5.84-6.99-5.85-14.96.22-12.7,5.84M155.58,365.67c7.96.95,6.82,2.79,13.03,5.43.5-9.74-9.48-11.3-12.3-6.65l-.74,1.22ZM141.09,378.04c5.51-1.86,5.88-1.47,11.11-.14,1.59.45,1.74.43,3.47.63-2.19-7.24-8.37-8-11.66-5.84-1.49.92-2.47,2.33-2.7,3.87l-.22,1.49ZM134.73,395.17c5.57-5.64,6.56-3.79,12.27-6.97-7.32-6.3-14.77.49-12.79,5.64l.51,1.33ZM148.92,408.06c-4.23-.29-6.94,1.21-8.38,3.87-1.51,2.6-1.26,6.56,1.51,8.3,2.29-7.11,4.15-6.11,6.87-12.18M161,432.29c-5.18-6.01-3.21-6.8-5.95-12.81-6.7,6.61-.95,14.84,4.58,13.21l1.37-.4ZM166.93,419.14c-5.21-6.08-3.23-6.85-5.94-12.81-6.03,5.95-2.08,13.4,3.22,13.4.73,0,1.01-.09,2.72-.6M177.95,435.64c-4.58-5.33-3.62-7.7-5.94-12.81-6.18,6.05-1.81,13.4,3.22,13.4,1.35-.19,2.72-.59,2.72-.59M180.82,420.64c2.26,0,3.08-.93,4.5-2.16-7.25-3.3-5.63-4.72-10.76-9.14-2.61,6.91,1.96,11.3,6.26,11.3M196.21,435.52c-2.97-1.23-4.45-1.85-6.82-4.49-1.1-1.25-1.47-1.66-1.98-2.21-.85-.95-.99-1.02-2.28-2.05-.57,1.68-.66,1.76-.77,3.42.03.63.09,1.31.27,2,1.01,3.61,3.93,5.65,6.95,5.65,1.56,0,2.31-.15,4.64-2.32M200.69,424c-7.4-3.07-6-4.68-11.07-8.75-1.43,4.18-.5,7.09,1.62,9.08,1.25,1.25,3.06,1.99,4.82,1.99,1.56,0,2.31-.14,4.63-2.32M203.31,416.74c1.56,0,2.31-.15,4.63-2.32-5.5-2.28-5.48-3.14-8.78-6.67-.37-.42-.75-.84-1.27-1.26-1.69,1.14-1.75,1.81-1.8,2.6.26,4.84,3.65,7.65,7.22,7.65M215.46,427.81c-6.36-2.64-7.64-5.99-10.05-7.93-3.36,6.11,1.23,10.25,5.42,10.25,1.41,0,2.65-.47,3.6-1.35l1.04-.97ZM225.29,420.8c-2.34-.97-3.56-1.92-4.78-3.08-.62-.57-1.18-1.28-1.87-1.99-1.41-1.59-1.78-2.03-2.3-2.45-.21.61-.26,1.21-.31,1.83.03.6.08,1.21.24,1.8.33,1.18.92,2.35,1.89,3.26,1.87,1.86,5.21,2.44,7.14.62M226.96,407.67c-7.33-3.04-6.12-4.78-11.08-8.76-2.27,6.76,2.06,11.08,6.44,11.08,1.56,0,2.31-.15,4.64-2.32M243.58,406.35c-8.01.32-7.22-1.67-13.74-3.29.49,4.44,2.54,6.65,5.29,7.56,2.93,1.07,6.72-.02,7.91-2.96l.53-1.32ZM243.58,393.86c-4.12.08-5.35-.21-6.74-.68-2.66-.84-2.98-1.61-6.99-2.6,1.05,9.43,11.07,9.88,13.2,4.61l.53-1.32ZM259.85,389.36c-7.99.32-7.31-1.7-13.74-3.29.2,1.78.15,1.88.74,3.43,2.95,5.52,10.25,6.66,13-.15M276.78,369.01c-8.12.33-6.74-1.55-13.73-3.29,1.06,9.85,11.19,9.58,13.2,4.61l.53-1.32ZM281.78,305.44c7.96,8.27,17.18,1.75,15.52-4.7l-.43-1.67c-6.24,7.01-7.33,4.48-15.09,6.37M261.3,255.47l-.9-1.47-.72,1.57c-2.89,6.34-5.99,5.48-11.82,8.98,2.17,1.2,3.46,1.9,6.08,1.86,1.92-.11,3.49-.6,4.79-1.5,1.56-1.06,2.71-2.64,3.15-4.31.52-1.81.31-3.68-.58-5.13M278.13,266.72l-.9-1.47c-3.89,8.54-5.44,6.3-12.54,10.55,2.13,1.18,3.43,1.9,6.08,1.87,7.04-.39,9.81-6.95,7.36-10.94M290.82,282.72l-.74-1.56-.88,1.48c-3.54,5.96-6.44,4.76-12.73,7.65,9.47,6.66,17.12-1.71,14.35-7.57M280.26,324.03c6.86,9.14,16.83,3.83,15.98-2.77l-.22-1.71c-7.18,6.3-7.56,3.52-15.77,4.49M292.76,341.51c-7.57.58-7.28-1.56-13.86-1.79,3.03,9.24,12.91,7.15,13.86,1.79M137.38,295.58c.95-.1,2.15.09,2.83-.23.71-.34,1.28-1.4,1.94-2.07-2.38-4.9-5.92-5.63-5.92-5.63,0,0-1.52,3.14.3,6.64.24.45.54.88.85,1.29M116.23,231.48c5.56-4.94,12.78-9.18,20.83-12.51,8.08-3.32,16.97-5.77,26.27-7.41,4.27-.76,8.64-1.33,13.06-1.77-1.22-.03-2.43-.06-3.65-.1-12.43-.38-24.81-1.38-36.99-.56-6.07.45-12.08,1.38-17.79,3.25-5.75,1.83-10.96,4.68-15.36,8.74-4.41,3.99-7.97,8.95-10.41,14.37-2.43,5.41-3.72,11.4-3.11,17.22.56,5.81,3.25,11.31,7.63,15.19,2.17,1.94,4.66,3.59,7.38,4.81,2.57,1.26,5.53,1.86,8.52,2.27,2.07.27,4.17.41,6.27.51-.52-.28-1.04-.57-1.57-.89-1.27-.85-2.59-1.74-3.92-2.86-.67-.52-1.33-1.18-2-1.74-.55-.52-1.08-1.04-1.58-1.57-1.98-2.14-3.43-4.39-4.4-6.67-1.91-4.57-2.07-9.34-.34-14.6,1.71-5.23,5.57-10.76,11.16-15.67M295.82,396.64c-11.32-3.96-19.9-9.87-21.25-14.03-3.03,4.27-6.4,8.59-10.12,12.95,13.27,5.86,34.27,2.83,31.37,1.08M189.65,172.79c.98.09,2.08.36,2.78.14.97-.32,1.88-1.74,2.85-2.27-1.75-5.04-5.52-6.35-5.52-6.35,0,0-2.13,3.21-.64,7.32.14.4.32.79.53,1.17M198.73,174.13c1.05.88,3.7.74,4.13,1.92.45,1.21-1.74,2.66-1.98,3.92-.23,1.22,1.29,3.37.39,4.38,4.38,3.04,7.96,1.42,7.96,1.42,0,0-.88-3.76-4.92-5.69,4.87-2.26,6.17-5.87,6.17-5.87,0,0-3.37-2.1-7.6-.73-.78.25-1.53.63-2.24,1.04.51-.63.99-1.3,1.35-2.01,1.94-3.87.2-7.35.2-7.35,0,0-3.89.79-5.83,4.66,1.08.9,1.32,3.45,2.37,4.33M179.81,184.12s3.37,2.1,7.6.73c.58-.19,1.14-.44,1.68-.71-2.73,5.16-.99,8.64-.99,8.64,0,0,3.89-.79,5.83-4.65,2.26,4.19,6.02,5.5,6.02,5.5,0,0,2.13-3.21.64-7.32-.19-.53-.46-1.04-.74-1.54-1.06-.03-2.35-.42-3.13-.16-1.25.41-2.42,2.71-3.73,2.46-1.27-.24-1.51-2.79-2.56-3.67-1.05-.88-3.69-.74-4.13-1.92-.45-1.21,1.74-2.66,1.98-3.92.23-1.22-1.29-3.38-.39-4.38-3.81-2.65-7.39-1.02-7.39-1.02,0,0,.88,3.76,4.92,5.69.72.34,1.48.6,2.26.8-.8.09-1.59.24-2.34.49-4.23,1.37-5.53,4.98-5.53,4.98M151.71,300.34c-.71-.23-1.47-.36-2.23-.44.74-.18,1.46-.4,2.14-.72,3.63-1.73,4.37-5.12,4.37-5.12,0,0-3.27-1.48-6.9.25-.67.32-1.3.75-1.89,1.2.38-.63.73-1.28.97-1.97,1.28-3.7-.7-6.61-.7-6.61,0,0-3.39,1.17-4.67,4.87,1.63.97,2.15,3.22,3.2,3.88,1.05.66,3.4.22,3.93,1.23.54,1.04-1.24,2.6-1.31,3.75-.06,1.12,1.56,2.87.88,3.88,4.29,2.21,7.31.32,7.31.32,0,0-1.24-3.26-5.09-4.51M139.67,304.98c-1.05-.66-3.4-.22-3.93-1.23-.54-1.04,1.24-2.6,1.31-3.75.06-1.12-1.56-2.87-.88-3.88-4.29-2.21-7.31-.32-7.31-.32,0,0,1.24,3.26,5.09,4.51.71.23,1.47.36,2.22.44-.74.18-1.46.4-2.14.72-3.63,1.73-4.37,5.12-4.37,5.12,0,0,3.27,1.48,6.9-.25.67-.32,1.29-.74,1.89-1.2-.38.63-.73,1.28-.97,1.97-1.28,3.7.7,6.61.7,6.61,0,0,3.39-1.17,4.67-4.87-1.63-.97-2.15-3.22-3.2-3.88M148.28,305.08c-.95.1-2.15-.09-2.83.23-.71.34-1.28,1.4-1.94,2.07,2.38,4.9,5.91,5.63,5.91,5.63,0,0,1.52-3.13-.3-6.63-.24-.46-.54-.88-.85-1.29"/>
        <path class="cls-2" d="M25.36,492.46h34.7v4.89H25.36v-4.89ZM29.65,501.73h4.89v14.9c0,2.36-.1,4.94-.3,7.75-.2,2.81-.63,5.58-1.28,8.32-.65,2.73-1.66,5.23-3.01,7.49-.25-.3-.63-.65-1.13-1.05-.5-.4-1.02-.78-1.54-1.13-.52-.35-.97-.6-1.32-.75,1.15-2.06,2-4.29,2.52-6.7.53-2.41.85-4.82.98-7.23.13-2.41.19-4.67.19-6.77v-14.83ZM26.72,477.18h31.99v4.89h-31.99v-4.89ZM31.69,483.81l4.59-1.05c.6,1.41,1.19,2.99,1.77,4.74.58,1.76.97,3.26,1.17,4.52l-4.82,1.28c-.15-1.31-.49-2.83-1.02-4.59-.53-1.76-1.09-3.39-1.69-4.89M32.29,501.73h20.4v4.36h-20.4v-4.36ZM34.47,525.43c2.36-.75,5.12-1.73,8.28-2.94,3.16-1.2,6.42-2.43,9.79-3.69l.83,3.39c-2.96,1.41-5.91,2.77-8.85,4.1-2.94,1.33-5.63,2.55-8.09,3.65l-1.96-4.52ZM35.6,512.56l2.26-2.93c1.35.45,2.8.98,4.33,1.58,1.53.6,3.01,1.19,4.44,1.77,1.43.58,2.62,1.12,3.58,1.62l-2.26,3.24c-.9-.5-2.07-1.07-3.5-1.7-1.43-.63-2.91-1.25-4.44-1.88-1.53-.63-3-1.19-4.41-1.69M38.84,471.54l5.04-1.28c.65,1.31,1.27,2.76,1.84,4.37.58,1.61.97,2.96,1.17,4.06l-5.35,1.51c-.15-1.15-.49-2.56-1.01-4.22-.53-1.65-1.09-3.14-1.69-4.44M51.03,501.73h5.57v31.46c0,1.36-.18,2.43-.53,3.24-.35.8-1,1.43-1.96,1.88-1,.45-2.27.73-3.8.83-1.53.1-3.35.15-5.46.15-.15-.8-.42-1.68-.79-2.64-.38-.95-.74-1.78-1.09-2.48,1.61.05,3.03.08,4.29.08s2.11-.03,2.56-.08c.45-.05.76-.15.94-.3.18-.15.27-.43.27-.83v-31.31ZM49.45,482.75l5.12,1.2c-.85,1.96-1.72,3.91-2.6,5.87-.88,1.96-1.72,3.67-2.52,5.12l-4.29-1.28c.5-1.06,1.03-2.22,1.58-3.5.55-1.28,1.06-2.57,1.54-3.88.48-1.3.86-2.48,1.17-3.54M63.83,470.63h5.5v19.57h-5.5v-19.57ZM63.83,487.42h26.8v15.73h-26.8v-4.44h21.31v-6.77h-21.31v-4.52ZM63.83,501.2h5.5v30.49c0,1.26.25,2.07.75,2.45.5.38,1.68.57,3.54.57h12.95c.9,0,1.58-.16,2.03-.49.45-.33.78-.93.98-1.81.2-.88.35-2.17.45-3.87.6.4,1.39.79,2.37,1.17.98.38,1.84.66,2.6.86-.2,2.26-.56,4.04-1.09,5.35-.53,1.31-1.33,2.22-2.41,2.75-1.08.53-2.6.79-4.55.79h-13.93c-2.36,0-4.21-.21-5.53-.64-1.33-.43-2.27-1.19-2.82-2.3-.55-1.11-.83-2.71-.83-4.82v-30.49ZM65.86,524.76h25.07v3.69h-25.07v-3.69ZM66.09,476.58h27.47v4.74h-27.47v-4.74ZM66.09,507.82h24.46v3.76h-24.46v-3.76ZM66.31,516.18h23.86v3.76h-23.86v-3.76Z"/>
      </g>
    </g>
  </g>
</svg>