<?xml version="1.0" encoding="UTF-8"?>
<svg id="Layer_1" xmlns="http://www.w3.org/2000/svg" version="1.1" viewBox="0 0 288 274.09">
  <!-- Generator: Adobe Illustrator 30.5.1, SVG Export Plug-In . SVG Version: 2.1.4 Build 3)  -->
  <path d="M269.17,193.94c-2.76-1.31-7.53-3.29-7.84-3.41-3.1-1.18-1.78-3.1,2.54-9.18,7.69-10.84,29.9-21.15,22.73-93.87C277.87-.98,226.79,2.53,207.37,1.13c-13.41-.97-41.1-2-79.4.1-38.3,2.1-63.82,9.96-96.88,42.99C-1.96,77.26-3.51,119.09,3.16,158.52c3.03,17.9,20.4,35.8,20.81,36.59.38.75-4.87,4.48-8.19,7.35-6.57,5.69-9.7,12.73-11.84,17.23-5.12,10.76-1.35,48.38,40.09,52.19,34.26,3.15,43.96-10.61,45.71-12.53,1.35-1.48,4.67-5.03,6.11-3.72,1.44,1.31,13.86,15.57,28.82,17.67,14.96,2.1,34.36-.25,46.13-4.34,14.01-4.88,17.85-15.03,20.22-14.24,2.36.79,20.94,16.55,45.22,13.66,24.28-2.89,47.05-15.63,47.13-42.27.07-23.91-11.45-30.85-14.21-32.16ZM65.54,264.16c-26.6,2.18-43.57-.94-54.17-27.8-8.58-21.76,16.05-33.05,18.74-33.97,6.76-2.3,34.2,8.56,35.41,14.12,1.21,5.56-6,16.67-10.87,13.8-4.52-2.66-7.62-5.32-8.83-4.59-1.21.73-.48,10.27,7.13,12.93,7.62,2.66,23.22-2.05,27.21-11.24,3.99-9.19,5.32-13.18,6.53-13.3s8.46-.12,8.95.73c.48.85-3.51,47.14-30.11,49.32ZM73.76,212.31c.48-1.21,3.99-.36,5.08-.12,1.09.24-.12,5.44-.48,7.13-.36,1.69-7.38,9.19-8.1,9.79-.73.6,2.69-14.75,3.51-16.8ZM186.34,235.4c-3.23,23.44-20.94,29.6-41.6,31.43-28.26,2.5-38.82-12.21-40.15-14.75-1.33-2.54-.48-33,3.75-37.47,3.35-3.54,22.73-1.81,25.51-2.05,2.78-.24,3.02,1.07,3.02,3.02,0,.36.12,7.37-.12,11.24-.24,3.87.85,17.53,12.33,17.77,17.17.36,18.74-31.67,19.11-32.51.36-.85,16.98-.95,18.19-.95s2.98,2.29-.05,24.28ZM143.05,222.34c.73-6.41,1.59-6.79,3.75-8.46,1.09-.85,13.42-1.81,14.99-1.09,1.57.72-2.66,24.05-11.37,25.62-5.25.95-8.27-8.2-7.38-16.08ZM141.07,205.39c-19.69.26-37.77-.27-63.87-1.92-25.29-1.6-42.05-10.85-54.39-25.67-12.34-14.83-15.85-58.85-3.78-96.43C30.76,44.84,77.8,18.09,99.14,13.42c29.87-6.55,60-5.62,95.95-4.86,42.61.91,58.6,14.59,68.16,29.62,13.26,20.87,20.72,94.48,9.71,116.16-9,17.7-20.98,31.1-48.79,40.06-32,10.31-66.95,10.77-83.09,10.98ZM262.4,250.75c-27.45,19.1-54.05,5.2-61.31-2.05-7.86-7.86-5.93-29.98-4.84-35.42,1.09-5.44,10.16-6.04,12.58-6.16,2.42-.12,2.3,5.04,2.3,6.65,0,.6,1.72,22.77,20.92,21.64,18.38-1.09,19.35-16.8,18.98-18.13-.36-1.33-2.99-2.53-3.63-.97-1.99,4.91-6.19,10.29-11.18,10.94-4.41.58-9.87-.55-13.01-7.44-3.14-6.89,7.74-22.97,29.87-23.09,21.87-.12,33.19,37.41,9.31,54.03Z"/>
  <path d="M253.06,145.56c3.19-15.18,4.03-39.13-1.44-70.01-3.02-17.02-19.84-45.08-42.23-51.39-16.26-4.59-47.78-5.45-65.97-2.49-22.53,3.66-35.65,8.48-59.8,21.31-29.79,15.83-36.55,39.91-37.3,42.7-.75,2.79,2.16,6.01,2.79,7.14.9,1.6,3.32,3.71,2.73,5.59-.46,1.46-3.42,2.18-6.33,4.21-2.38,1.66-5.17,3.04-8.07,6.89-3.41,4.52-4.72,34.76-2.1,42.74.75,2.3,8.53,6.16,10.62,6.69,2.1.52,3.54,4.33,5.38,6.95,1.99,2.84,9.69,15.16,37.25,20.06,49.45,8.78,87.8,4.72,118.83-1.97,33.45-7.21,43.35-27.49,45.64-38.41ZM93.98,43.93s18.6-8.07,29.33-11.81c17.94-6.26,37.16-7.76,60.94-6.55,23.78,1.21,39.65,13.02,39.72,14.45.04.71-13.75-8.26-39.3-9.18-23.78-.85-42.46,1.04-62.36,7.4-13.88,4.43-19.79,6.33-27.12,8.89-2.96,1.04-3.2-2.35-1.21-3.2ZM47.98,110.32c.95-.58,3.77-1.36,8.14-4.8,4.43-3.49,4.73-7.7,3.05-11.77-1.37-3.34-5.23-4.8-5.52-8.65-.09-1.15,5.23-1.24,8-.8,3.47.55,8.42,3.52,8.87,10.54.58,9.01-13.09,22.67-15.27,23.55-2.18.87-6.91-1.24-8.72-3.2-1.82-1.96-.26-3.82,1.45-4.87ZM46.22,152.6c-1.66.35-3.32-1.7-4.98-4.02-.44-.61-.44-5.94.17-6.99.61-1.05,5.95.09,8.31.26,2.36.17,3.15,2.62,3.15,4.2s-4.98,6.21-6.65,6.56ZM45.7,132.49c-1.85-.79.88-2.83,2.8-3.06,2.04-.24,2.81-.47,5.06.35,2.91,1.07,4.73,3.45,5.78,4.24,1.05.79,15.72.87,16.93.98,1.9.18,4.68,6.4,5.99,7.71,1.31,1.31,35.56,1.54,49.81-.47,14.25-2.01,34.53-16.6,35.17-17.01,1.01-.65,3.76-.59,4.29-.24.52.35-22.63,20.47-33.46,23.01-11.13,2.6-43.74,2.51-52.93,1.12-4.29-.65-19.06-7.87-39.43-16.61ZM62.31,147.79c2.01-.87,4.11-1.4,5.68-.96,0,0,5.51,3.58,5.95,4.72.44,1.14-5.16,5.94-8.13,6.99s-7.96,1.49-9.97-1.22c-2.01-2.71,4.46-8.65,6.47-9.53ZM137.07,184.94c-47.92,1.75-76.42-13.55-80.18-19.4-.64-1,3.67.09,9.88-1.84,5.31-1.64,9.27-4.98,11.19-6.38,1.92-1.4,7.25-2.58,10.23-2.45,6.03.26,37.95-.09,39.09-.09s1.33,1.73,2.97,4.2c2.45,3.67,10.16,5.67,16.26,4.28,9.97-2.27,18-12.58,23.96-18.53,7.52-7.52,15.49-8.65,20.29-6.38,4.98,2.36,2.04,9.83,1.22,11.28-1.57,2.8-5.6,7.69-6.91,11.27-1.31,3.58,2.62,11.36,3.15,16.87.23,2.39-3.23,5.42-51.15,7.17ZM204.84,150.27c-1.99,5.12-7.31,8.47-7.87,13.42-.44,3.85,2.1,5.24,2.82,10.47.19,1.42.48,3.37-.06,5.24-.25.84-2.71,1.56-4.1,1.38-1.38-.18-4.4-12.22-4.88-16.25-.48-4.03,3.02-7.47,4.56-9.49,2.19-2.88,5.34-6.63,4.18-12.96-1.63-8.85-12.77-9.87-22.16-6.98-8.45,2.6-17.52,16.37-25.35,21.37-6.98,4.46-14.11,3.29-16.2,1.44-.95-.84-2.2-3.31-.97-3.57,11.72-2.54,15.5-6.46,19.94-8.95,12.34-6.92,18.85-16.12,33.22-15.09,18.06,1.3,18.04,16.96,16.88,19.96ZM220.14,63.57c-1.22,1.56-4.91,2.87-7.61,5.04-2.33,1.88-7.99,5.05-13.52,17.03-5.65,12.25-6.69,28.68-7.04,33.46-.08,1.1-.09,3.74-2.26,3.56-2.03-.16-3.46-3.42-4.09-7.3-1.57-9.65,1.32-26.3,3.48-32.24,3.65-10.08,10.41-18.05,14.74-20.25,6.01-3.06,14.38-3.39,15.34-3.12,1.91.52,1.65,2.93.96,3.82ZM226.31,67.3c3.3.26,9.29,12.12,7.3,14.25-2.35,2.52-17.91,12.25-24.87,22.25-2.39,3.43-7.39,12.6-9.04,17.47-.43,1.25-2.08.7-2.96-1.04-.44-.87,1.39-13.3,1.74-15.99.35-2.69,4.39-17.21,9.13-24.16,5.05-7.41,13.39-13.19,18.69-12.78ZM208.86,177.77c-.62-1.04-.8-13.83-.18-15.38,1.91-4.74,5.16-13.08,4.28-18.62-1.47-9.32-10.54-12.77-9.36-17.57,1.63-6.61,9.33-18.51,16.06-25.24,6.66-6.66,14.79-13.09,15.97-12.05,1.18,1.05,2.24,19.47-1.21,36.45-1.53,7.52-7.42,25.46-5.12,24.52,4.9-2.01,10.49-13.84,11.89-22.55,2.36-14.68,3.59-38.89-.44-52.53-2.45-8.29-18.62-30.94-58.67-32.34-34.63-1.21-53.82,5.29-68.38,9.88-14.56,4.59-30.6,13.55-31.43,18.09-.28,1.55,5.16,1.14,6.34.35,1.18-.79,21.18-15.53,51.73-19.83,39.78-5.59,67.32,1.56,67.45,3.4.13,1.84-19.74,5.71-26.39,29.94-3.91,14.25-3.08,18.77-2.59,24.55.24,2.87,2.77,7.76,1.19,9.2-1.57,1.44-12.75-1.12-30.27,11.29-6.99,4.95-18.53,9.03-25.22,9.16-6.69.13-32.06-1.46-45.4-5.32-6.03-1.75-13.93-2.35-21.07-5.89-.97-.48-2.98-1.42-2.3-1.88.68-.45,15.48-9.86,19.12-23.09,2.73-9.91.84-16.5-4.69-20.67-5.36-4.04-12.83-3.75-12.48-5.05.5-1.83,10.81-15.11,49.58-30.27,9.67-3.78,38.76-9.98,50.2-11.01,10.05-.9,46.61-5.51,67.11,10.85,17.81,14.22,22.47,32.97,24,50.08,1.35,15.16,3.35,47.49-8.18,62.8-12.5,16.61-31,19.67-31.56,18.7Z"/>
  <path d="M106.9,91.01c12.38,3.01,25.53-.96,33.21-6.67,6.73-5,12.86-12.86,14.05-15.66.6-1.41,1.4-4.14-.86-5.86-1.46-1.12-5.92.22-8.67,1.67-2.54,1.34-11.7,4.82-22.23,5-7.1.12-17.44.05-19-.11-2.14-.22-7,.27-8.13,5.27-1.13,5,1.35,13.86,11.63,16.36ZM136.35,73.04c1.61-1.14,11.03-4.69,10.98-2.74-.05,2.21-8.34,12-15.18,13.45-1.44.31-1.13-6.94,4.2-10.71ZM122.94,76.75c.59-.54,2.8-.59,3.77.16.97.75,0,3.12-2.64,2.64-2.47-.45-1.92-2.08-1.13-2.8ZM110.78,84.07c.48-1.67,4.79-6.94,6.78-6.08,1.99.86,1.45,2.21,2.48,3.23,1.02,1.02,1.99,2.1,2.1,2.85.11.75-.05,2.74-.86,3.12-.81.38-7.8.54-8.67.32-1.52-.38-2.31-1.78-1.83-3.44ZM102.76,74.92c1.83,1.61,1.29,6.08.05,6.4-1.24.32-3.77-2.64-3.88-4.25-.11-1.61,1.19-4.47,3.82-2.15Z"/>
  <path d="M189.81,58.52c3.58.35,3.99-4.4-.24-4.22-2.52.11-3.35,3.87.24,4.22Z"/>
  <path d="M175.02,70.89c3.75.35,4.34-4.75.29-4.4-2.59.23-3.82,4.07-.29,4.4Z"/>
  <path d="M169.75,96.11c4.75.35,5.1-6.63,0-6.39-2.95.14-4.15,6.09,0,6.39Z"/>
</svg>