<?xml version="1.0" encoding="UTF-8"?>
<svg id="Layer_1" xmlns="http://www.w3.org/2000/svg" version="1.1" viewBox="0 0 288 271.45">
  <!-- Generator: Adobe Illustrator 30.5.1, SVG Export Plug-In . SVG Version: 2.1.4 Build 3)  -->
  <path d="M142.14,30.91c-31.06,1.03-58.63,7.64-72.78,16.74-11.45,7.36-36.39,31.25-29.17,86.16,7.16,54.41,63.49,56.07,102.46,56.95,33.54.76,61.98-3.44,77.9-13.6,19.05-12.16,40.15-36.17,27.17-94.5-12.45-55.95-79.22-52.61-105.58-51.75ZM230.81,160.52c-14.54,17.26-40.21,22.66-66.29,24.42-23.25,1.57-75.76-1.7-93.96-12.98-29.3-18.16-29.04-48.16-22.6-77.86,8.19-37.73,22.12-52.14,94.36-57.12,13.61-.94,58.55-.12,74.72,11.42,39.57,28.26,30.18,92.63,13.77,112.11Z"/>
  <path d="M148.2,44.31c-41,1.33-57.73,5.56-73.72,17.29-15.97,11.72-28.42,56.24-18.02,85.38,11.7,32.77,63.44,32.09,85.27,32.66,44.69,1.17,63.43-11.86,77.65-26.36,14.65-14.94,22.27-54.34,10.7-82.89-11.57-28.56-61.61-26.73-81.88-26.08ZM67.59,152.22c-4.11-.97-11.81-17.57-7.88-40.28,2.74-15.82,9.4-34.87,13.97-36.21,4.04-1.19,22.48-2.53,24.21-.1,2.82,3.97,1.79,10.93,4.92,13.3,3.14,2.37,8.96,3.09,12.23,5.33s4.36,10.19,4.02,13.7c-.51,5.25-3.53,11.93-9.36,14.11-5.83,2.18-16.74.82-21.36,5.62-2.78,2.88-5.8,8.98-6.87,17.02-.46,3.43-7.1,9.11-13.89,7.51ZM209.75,155.87c-4.74,3.59-26.83,20.26-72.52,19.15-38.47-.94-47.15-4.03-64.45-15.82-.86-.59,9.74-4.58,14.04-10.8,2.8-4.05,1.44-11.47,4.92-15.67,3.46-4.16,20.07-3.01,23.77-6.07,5.51-4.55,6.1-11.81,7.57-12.96,1.47-1.15,10.24-.61,21.13-.74,10.89-.13,16.88-.33,17.85.41,3.27,2.5,3.5,7.55,3.86,9.96.64,4.23,3.65,7.11,8.27,7.49,4.61.38,11.83-1.29,15.44,1.25,2.49,1.76,2.48,9.05,4.68,9.27,9.68.98,14.08.48,17.87,5.24,3.08,3.86,1.41,6.37-2.44,9.28ZM228.79,82.12c1.67,13.13,1.41,21.35,1.07,29.7-.42,10.07-6.51,29-9.52,32.07-1.69,1.73-5.01-7.79-21.5-8.2-2.7-.07-1.76-7.78-8.94-10.22-4.18-1.42-11.05.71-15.02-1.02-3.39-1.48-3.07-5.82-3.49-7.39-.9-3.33-3.33-7.11-3.08-8.2.26-1.09,2.53-4.06,3.72-6.28,1.03-1.92,1.42-4.48,1.54-6.36.25-3.77-.31-6.68,1.07-8.78,1.35-2.05,6.36-2.67,9.44-3.05,3.08-.38,9.56-.56,11.08-2.24,3.01-3.33,3.05-7.94,3.33-9.73.7-4.48,3-6.1,4.13-6.46,2.56-.83,5.59.87,7.66,1.15,3.33.45,5.94-2.48,8.33-2.82,3.14-.45,9.44,11.94,10.19,17.83ZM213.53,58.34c2.18,3.2-3.08,3.01-4.69,2.87-1.61-.15-6.98-2.22-10.01-.41-9.02,5.36-4.05,14.4-10.26,17.14-5.74,2.54-17.4.9-19.37,5.76-1.13,2.77,0,22.54-11.66,23.05-11.4.5-26.76.25-28.95-.92-2.2-1.17-5.25-2.46-5.42-6.48-.09-2.2.03-8.86-3.36-10.25-2.14-.88-11.65-.66-12.88-7.05-.8-4.18-2.21-9.85-5.33-11.49-3.91-2.05-18.36-.19-20.41-1.4-2.46-1.44-1.09-5.82,2.75-7.37,5.59-2.24,14.29-10.76,64.19-11.66,44.16-.8,63.46,5.33,65.42,8.21Z"/>
  <path d="M255.75,24.42C215.7-2.85,84.23-12.3,36.93,22.55,9.86,42.48.13,111.17,0,142.08c-.17,41.5,11.62,54.65,24.71,66.46,1.03.93-9.94,7.11-12.6,18.86-3.28,14.49,5.87,31.45,28.21,36.26,32.95,7.11,51.93-10.09,54.63-11.07,2.7-.98,11.7,14.11,31.98,15.51,26.1,1.8,37.22-12.93,39.18-13.17,1.97-.25,18.8,19,47.95,16.25,21.24-2.01,35.91-14.26,41.51-27.66,11.79-28.18-10.35-36.59-7.86-38.25,8.03-5.38,16.46-11.3,23.75-21.01,9.74-12.98,15.21-26.13,16.4-71.9,1.16-44.54-5.36-69.73-32.12-87.95ZM88.76,246.92c-6.83,5.85-22.24,14.74-47.75,7.01-29.44-8.91-21.59-26.67-19.19-29.74,2.98-3.82,9.46-10.65,12.31-10.28,2.85.37,12.18,3.37,15.93,4.5,3.75,1.13,13.41,2.93,14.61,4.58,1.2,1.65-1.58,6.53-6.75,8.7-5.18,2.18-9.61.6-10.81-.83-1.2-1.43-1.58-3.68-3.3-3.23-1.73.45-2.16,3.67-1.28,7.05,1.72,6.6,16.66,9.45,25.52,1.27,8.86-8.18,9.91-13.13,11.71-13.73,1.8-.6,9.17-.36,10.96-.15,3.15.38,5.21.65,6.45,2.03,2.1,2.33-1.58,16.95-8.41,22.8ZM150.17,256.16c-9.75,3.82-23.05,5.34-36.39-.34-13.73-5.85-10.91-18.49-9.19-23.22,4.73-13.05,21.21-9.73,22.4-9.54,1.43.23-.31,7.26.62,10.69,1.28,4.71,5.16,8.93,13.22,7.47,8.71-1.58,13.23-13.8,15.91-16.05,3.83-3.23,11.81-3.2,13.06-1.95,1.95,1.95-8.15,28.44-19.63,32.94ZM132.21,224.34c.3-1.5,16.59-1.27,17.64-.52,1.05.75-4.8,12.14-12.38,12.3-6.9.15-5.78-9.14-5.25-11.78ZM250.48,228.92c.43,11.23-6.29,30.63-35.56,33.56-29.27,2.93-42.19-11.8-41.36-16.53.53-3.03,2.48-7.88,3.23-11.63.75-3.75,1.89-10.5,2.44-11.34,1.01-1.56,7.05-1.54,11.4-1.41,4.95.15,8.06-.6,8.67-.08.6.53.27,6.25.7,9.76.75,6.08,2.97,11.23,12.18,13.73,11.03,3,20.3-3.91,21.13-4.44.83-.53,4.28-2.93,3.38-4.88-.9-1.95-5.63-.97-8.26-.82-2.63.15-8.48,0-9.16-7.43-.86-9.46,12.38-15,19.66-15.15,6.45-.13,11.18,6.75,11.56,16.65ZM212.43,229.52c.44,4.85,3.23,8.63,3.38,9,.15.37-3.44,1.07-6.9-1.65-5.63-4.43-3.38-13.95-2.85-15.38.53-1.43,1.7-2.47,4.13-2.7,1.58-.15,3.08.08,3.75.53.68.45-1.94,5.32-1.5,10.2ZM236.96,202.02c-27.25,15.3-70.56,13.83-102.68,14-27.5.15-97.75,5.13-115.49-27.67C-2.73,148.57,11.25,51.18,48.52,25.1c20.5-14.34,68.43-17.99,100.46-15.2,46.98,4.1,123.63,3.86,127.79,73.26,4.18,69.75-6.66,100.24-39.81,118.86Z"/>
</svg>