<?xml version="1.0" encoding="UTF-8"?>
<svg id="Layer_1" data-name="Layer 1" xmlns="http://www.w3.org/2000/svg" xmlns:xlink="http://www.w3.org/1999/xlink" viewBox="0 0 205.03 255.79">
  <defs>
    <style>
      .cls-1 {
        fill: none;
      }

      .cls-2 {
        fill: #16181a;
      }

      .cls-3 {
        clip-path: url(#clippath-1);
      }

      .cls-4 {
        fill: #fff;
      }

      .cls-5 {
        clip-path: url(#clippath);
      }
    </style>
    <clipPath id="clippath">
      <rect class="cls-1" width="205.03" height="255.79"/>
    </clipPath>
    <clipPath id="clippath-1">
      <rect class="cls-1" width="205.03" height="255.79"/>
    </clipPath>
  </defs>
  <g id="Artwork_17" data-name="Artwork 17">
    <g class="cls-5">
      <g class="cls-3">
        <path class="cls-2" d="M159.31,8.73C170.86,4,183.05.03,195.65,0c-5.97,5.36-10.02,12.41-13.91,19.33-6.35,10.72-9.79,23.3-18.72,32.36-2.59,2.86-6.52,3.57-10.02,4.69-6.5,1.86-12.83,4.3-18.82,7.41,7.63-.89,14.95-3.59,22.63-4.27-1.84,3.07-4.18,5.78-6.24,8.7-7.55,10.1-12.47,21.79-17.92,33.08-1.55,3.78-5.61,5.38-8.86,7.38-3.73,2.2-8.18,3-11.64,5.65,5.43-1.1,10.83-2.36,16.06-4.22-4.97,8.79-10.97,17.69-20.11,22.58-4.28,2.43-9.1,3.63-13.84,4.78,4.26.5,8.56,1.96,11.23,5.54-5.61-2.09-11.76-3.05-17.5-.81,4.45.92,8.37,4.08,9.4,8.63-2.84-3.32-6.78-5.19-11.12-5.47,1.17,2.21,2.38,4.44,2.92,6.92-2.15-1.93-3.66-4.49-6.14-6.05-3.51,6.42-5.54,13.51-8.42,20.22,3.92,1.31,8.84,2.31,10.76,6.45,1.52,4.34,1.1,10.09-3.23,12.68,2.78,5.99,9.73,7.87,13.57,12.91,1.38,1.71,1.82,3.91,2.45,5.98,5.19.13,10.39.08,15.59.07.19-4.24.03-8.6,1.34-12.68,1.2-3.48,4.69-5.2,7.75-6.74.25-2.69-.49-5.87,1.56-8.03,3.3-3.1,8.07-3.55,12.34-4.24-4.91-3.53-9.8-7.69-11.87-13.58-3.81-10.26.29-23.28,10.03-28.68,2.46-1.67,5.59-2.18,7.81-4.21,2.54-2.74,6.85-2.14,10.14-1.33.19.57.57,1.69.76,2.26,6.29,1.47,12.35,5.05,15.5,10.86,4.9,7.65,4.85,18.03.01,25.7-2.35,3.59-5.76,6.3-9.17,8.83,3.95.8,8.19,1.62,11.36,4.3,2.52,2.12,1.64,5.69,1.92,8.57,7.77,2.9,8.33,12.16,9.63,19.13,2.17.07,4.4-.24,6.53.32,5.27,10.07,8.76,20.96,13.48,31.29,2.78,5.47,2.14,11.75,1.91,17.67.04,1.96-2.12,1.73-3.47,1.75-66.01,0-132.02-.17-198.03.05-1.27.06-2.89-.19-2.82-1.8-.49-5.34-1.16-11.08,1.22-16.1,3.66-9.08,7.72-18,11.35-27.1,1.01-2.01,1.44-4.5,3.22-6,2.09-.38,4.23-.17,6.34-.07.53-9.76,12.25-11.27,16.09-18.87-1.23-1.44-2.68-2.73-3.64-4.37-1.27-4.29-.66-9.81,3.8-12,7.49-3.86,16.29-3.66,24.51-3.77,2.55-8.1,6.72-15.62,9.09-23.77-.87-5.56-4.09-10.91-8.92-13.89,3.6.03,6.44,2.4,8.82,4.86-1.75-6.75-3.6-14.32-9.77-18.45,3.77.52,6.91,2.77,8.69,6.13l.63-.32.49-.42c1.58.27,1.03,2.39,1.64,3.54.65,1.99,1.93,3.69,3.05,5.45-1.71-3.68-1.73-8.74-5.62-10.9-.73-4.19-.74-8.49-.79-12.73.25-.02.74-.06.99-.08,1.71,7.04,5.86,13.4,6.28,20.75.27-4.85-2.15-9.28-2.37-14.08-.96-6.79.44-13.62,2.34-20.11,1.6,4.71,2.42,9.64,3.99,14.36-.59-6.04-.85-12.14-.15-18.18.21-2.45,1.54-4.58,2.76-6.64,6.08-10.26,12.61-20.35,20.5-29.33-.21,5.72-.44,11.5.74,17.15,1.91-8.6,1.52-18.38,7.03-25.69,13.55-13.84,28.78-26.52,46.52-34.62"/>
        <path class="cls-4" d="M156.83,24.42c5.71-5.01,11.87-9.53,18.42-13.38-6.01,5-12.63,9.24-18.41,14.52-13.08,11.93-25.35,24.89-35.37,39.52-12.53,17.5-23.1,36.34-32.41,55.71-.56,1.2-1.48,2.31-1.26,3.76l-1.27-.37-.08.99c-6.85,11.57-10.97,24.5-16.33,36.79-2.32,4.9-3.32,10.52-6.56,14.93,1.59-7.92,5.2-15.21,7.89-22.77,6.43-16.12,13.3-32.1,21.68-47.33,8.26-14.81,16.79-29.53,26.93-43.16,10.8-14.35,23.38-27.27,36.77-39.21"/>
        <path class="cls-4" d="M138.57,35.08c1.56-5.32,3.31-10.98,7.47-14.88-2.69,4.86-4.47,10.19-7.47,14.88"/>
        <path class="cls-4" d="M121.79,51.96c.96-5.45,1.73-11.05,4.21-16.06-1.26,5.37-1.44,11.15-4.21,16.06"/>
        <path class="cls-4" d="M149.84,41.61c5.26-2.39,11.04-3.76,16.76-4.51-5.28,2.4-11.12,3.31-16.76,4.51"/>
        <path class="cls-4" d="M118.66,54.11c.43-5.27,1.06-10.68,3.44-15.47-.48,5.27-1.93,10.41-3.44,15.47"/>
        <path class="cls-4" d="M140.07,51.75c5.48-2.54,11.37-4.02,17.27-5.21-5.37,2.77-11.4,3.99-17.27,5.21"/>
        <path class="cls-4" d="M120.2,75.55c6.56-2.42,13.41-4.26,20.3-5.4-6.5,2.64-13.36,4.43-20.3,5.4"/>
        <path class="cls-4" d="M93.68,72.8c1.34,6.94,1.73,14.11,1.19,21.16-.99-7-1.37-14.09-1.19-21.16"/>
        <path class="cls-4" d="M119.15,79.52c6.88-2.85,14.23-4.34,21.38-6.37-6.48,3.78-14.13,4.88-21.38,6.37"/>
        <path class="cls-4" d="M92.41,97.99c-2.06-7.14-2.36-14.91-.79-22.16.04,7.39,1.01,14.76.79,22.16"/>
        <path class="cls-4" d="M110.28,93.58c6.4-2.7,13.29-3.91,19.78-6.38-5.85,3.83-12.93,5.48-19.78,6.38"/>
        <path class="cls-4" d="M108.08,97.59c7.38-2.25,14.85-4.23,22.24-6.47-6.75,3.81-14.53,6.05-22.24,6.47"/>
        <path class="cls-4" d="M105.1,102.51c7.28-2.74,14.88-4.71,22.46-6.47-7.04,3.33-14.73,5.68-22.46,6.47"/>
        <path class="cls-4" d="M102.2,107.73c7.56-3.19,15.66-4.84,23.37-7.66-3.66,2.92-8.34,3.95-12.72,5.26-3.52.94-6.98,2.31-10.65,2.4"/>
        <path class="cls-4" d="M101.06,111.78c5.99-2.24,12.13-4.17,18.33-5.77-5.76,2.77-11.92,5.23-18.33,5.77"/>
        <path class="cls-4" d="M105.26,121.64c3.8-.75,7.5-1.99,11.36-2.47-6.92,3.53-14.73,4.45-22.36,5.16,3.47-1.57,7.34-1.78,11-2.69"/>
        <path class="cls-4" d="M83.46,133.96c.58-2.65,1.55-5.46,3.63-7.3-1.12,2.42-1.54,5.55-3.63,7.3"/>
        <path class="cls-4" d="M145.57,127.11c1.46-.1,2.94-.18,4.42-.24.07.68.2,2.05.27,2.73,6.25,1.42,12.44,4.57,15.75,10.31,4.68,7.24,3.96,17.41-1.83,23.85-7.18,8.75-21.21,8.9-29.86,2.29-6.94-5.48-9.57-15.91-5.68-23.91,2.97-6.74,9.83-11.09,16.92-12.35,0-.67,0-2.01,0-2.68"/>
        <path class="cls-2" d="M132.87,138.44c6.57-7.43,18.78-8.86,26.92-3.21,5.3,3.69,8.53,10.22,8.08,16.68-.22,8.96-7.66,17.08-16.55,18.14-3.73.77-7.45-.27-11.05-1.12-5.46-2.86-10.61-7.72-11.54-14.08-.97-5.72.28-11.96,4.14-16.41"/>
        <path class="cls-4" d="M80.27,141.46c.77-2.1,1.02-4.84,2.77-6.32-.18,2.32-1.36,4.51-2.77,6.32"/>
        <path class="cls-4" d="M133.28,151.94c-1.42-9.7,8.94-17.81,18.13-15.58-3.9.58-8.12.77-11.35,3.33-4.09,2.74-6.19,7.5-6.78,12.25"/>
        <path class="cls-4" d="M161.42,142.82c3.68,4.73,3.79,11.72.31,16.58-4.04,6.01-13.25,9.68-19.62,5.15,7.92,3.16,17.83-1.4,20.23-9.66,1.79-4-.14-8.11-.92-12.07"/>
        <path class="cls-4" d="M43.92,171.41c6.08-1.6,12.42-2.11,18.7-2-.51.91-1.29,1.31-2.33,1.23-5.03.26-10.21.22-15.01,1.95-1.09.58-3,.87-3.03,2.44,5.25,3.64,11.97,3.7,18.11,3.98,6.3-.17,12.99-.43,18.69-3.4-.15-3.14-4.75-2.92-6.89-4.45,3.35-.36,7.84.43,9.49,3.79.15,1.5-1.51,2.02-2.54,2.62-8.5,3.47-17.99,3.72-26.92,3.56.5,2.34,3.69.66,5.42,1.32-1.87.36-3.77.51-5.64.82,10.05,2.05,21.3,2.13,30.39-3.23-3.62,3.84-9.16,4.49-14.11,5.15-8.65.76-17.68.53-25.91-2.49-2.26-.51-3.21-2.63-3.93-4.58,2,1.7,4.08,3.75,6.95,3.42,1.56-.34,3.99,1.13,5.02-.46-3.93-2.03-9.04-2.22-11.97-6,1.41-1.77,3.27-3.17,5.51-3.67"/>
        <path class="cls-4" d="M141.88,175.75c7.84-.73,16-.53,23.51,2.09,1.44.79,4.22,1.45,3.53,3.63-5.94,4.17-13.59,4.24-20.56,4.44-7.55-.06-15.81-.32-21.99-5.26,4.19-3.85,10.14-4.27,15.51-4.9"/>
        <path class="cls-2" d="M129.04,180.67c5.9-3.98,13.38-3.74,20.21-3.87,5.96.29,12.51.19,17.68,3.62-.36,1.08-1.61,1.35-2.48,1.85-5.39,2.29-11.38,2.45-17.14,2.44-6.22-.38-12.86-.52-18.27-4.04"/>
        <path class="cls-4" d="M127.17,186.15c4.87-.19,9.47,1.62,14.28,2.05,3.99.44,8.06.32,12.01,1.17-4.52.63-9.12.38-13.65.92,4.18,2.07,9.07,1.42,13.57,2.17-3.76.75-7.6.51-11.39.82,3.59,1.33,7.47,1.24,11.25,1.11-7.75,1.84-16.38,1.84-23.61-1.81.23-.4.68-1.18.91-1.57.07-.75.21-2.25.28-3.01.04-2.84-1.99-.53-3.15-.27-.13-.39-.38-1.18-.5-1.58"/>
        <path class="cls-4" d="M42.44,187.1c.63,1.71-.41,3.35-.87,4.98,1.21.29,2.43.58,3.65.86-.49-.62-1.48-1.87-1.97-2.5,2.2,1.31,2.84-.49,3.71-1.91,2.11.35,4.2.82,6.31,1.21-.25,1.41-.51,2.83-.78,4.24.45-.01,1.36-.04,1.82-.06-.25-.37-.74-1.13-.98-1.5.23-.69.71-2.07.94-2.75,3.27.08,6.55.08,9.8-.4l-.03.38c-2.75.41-5.56.62-8.2,1.52,2.78,1.19,5.93.17,8.76,1.23-2.72.6-5.51.76-8.28.79.02.38.05,1.13.07,1.51,4.08.2,8.26-.27,12.28.68-3.82.67-7.69.65-11.54.85-.75.07-1.36.43-1.82,1.07,5.08.69,10.22.38,15.32.04-5.13,2.23-10.8,2.05-16.26,2,1.27,1.39,3.23,1.11,4.94,1.25,4.46.25,8.91-.29,13.37-.35-6.12,2.38-12.96,2.14-19.4,1.57.24.67.71,2.01.95,2.68-3.04,0-6.06-.71-9.1-.23,10.72,3.07,22.17,2.74,33.15,1.28-2.06,1.31-4.51,1.71-6.88,1.97-9.34,1.27-18.88.66-28.07-1.26-3.63-.9-7.49-1.65-10.45-4.08,1.7.01,3.39.04,5.1.08-.73-.85-2.18-2.55-2.91-3.4,1.33.29,3.99.88,5.32,1.17-1.05-1.28-2.16-2.51-3.23-3.75-2.53,1.42-4.94,3.05-7.54,4.35.18-1.97,2.21-2.74,3.55-3.83,3.74-2.49,8.09-4.99,9.27-9.69"/>
        <path class="cls-4" d="M118.56,194.82c.29-2.46,2.27-4.12,4.03-5.63,1.04,1.75,1.81,3.75,3.38,5.13,2.26,1.59,5.01,2.24,7.46,3.5-1.37-.05-4.1-.16-5.46-.21l.96,1.24c3.5,0,7.08-.48,10.49.66-5.72-.24-11.42,0-17.13-.3,1.79,1.9,4.46,2.38,6.98,2.2,12.98-.7,26.07-1.34,39,.33,2.22.34,4.95.53,6.18,2.74-5.73.42-11.37-1.02-17.09-1.1-10-.62-20.01.14-29.97.9v.29c.76.24,2.27.72,3.02.96-2.86.17-5.69.45-8.51.83-.3.45-.91,1.35-1.21,1.8-.32-.51-.96-1.53-1.28-2.03-.63,8.01-.08,16.07-.66,24.09-1.58-2.46-1.07-5.51-1.25-8.26.12-9.04-.75-18.21,1.06-27.14"/>
        <path class="cls-4" d="M173.33,189.83c3.94,2.35,3.83,7.5,4.48,11.51-1.74-1.19-1.48-3.44-1.89-5.27-.1-2.35-1.58-4.22-2.59-6.24"/>
        <path class="cls-2" d="M37.5,196.05c1.31-1.23,2.62-2.46,3.92-3.69.95.82,1.92,1.66,2.87,2.52-1.27.26-3.29-1.12-4.01.41.6.33,1.8.99,2.4,1.32-1.5,1.64-3.52-.34-5.18-.56"/>
        <path class="cls-4" d="M144.97,199.6c9.23-2.02,19.27-1,27.8-5.7-.58,2.31-3.09,2.68-4.98,3.4-7.35,2.29-15.19,2.36-22.82,2.3"/>
        <path class="cls-2" d="M119.45,202.21c.1-2.52.33-5.07,1.5-7.35-.42,2.34,1.34,6.23-1.5,7.35"/>
        <path class="cls-2" d="M51.54,195.98c2.65-1.93.56,3.34,0,0"/>
        <path class="cls-2" d="M126.06,197.27c.4,0,1.2.05,1.6.07l.02.78c-.4-.02-1.2-.07-1.6-.09l-.02-.76Z"/>
        <path class="cls-2" d="M50.51,198.14c1.6-.42,2.16.18,1.68,1.77-1.62.41-2.18-.18-1.68-1.77"/>
        <path class="cls-4" d="M54.31,203.55c6.81-.17,13.69.4,20.46-.86.01.16.04.49.06.66-6.56,1.24-13.35,2.65-19.99,1.34l-.53-1.14Z"/>
        <path class="cls-4" d="M26.97,202.81c1.72,1.21,3.33,2.62,5.29,3.46,9.57,3.6,19.82,4.65,29.98,5.01,8.18.4,16.21-1.37,24.15-3.05-14.87,6.38-31.52,5.26-47.15,2.99,1.12,1.07,2.48,1.7,4.07,1.9-1.31.65-2.65,1.25-3.97,1.83,1.75.96,3.75,1.83,5.72.86-.53-.58-1.04-1.16-1.53-1.74,4.76-.21,9.77.94,14.29,2.46-3.43-.08-6.83-.68-10.21-1.16-.78.49-1.55,1-2.31,1.52,4.07.86,8.4.9,12.28,2.53-6.29.29-12.36-1.78-18.61-1.96,5.36,3.92,12.84,2.23,18.7,5.26-6.22-.3-12.38-1.33-18.54-2.17.53,1.88,2.7,1.78,4.19,2.31,4.72,1.12,9.6,1.48,14.28,2.79-6.29.26-12.45-1.21-18.68-1.69,1.33,2.3,4.33,1.85,6.54,2.53,4.04,1.02,8.29.99,12.29,2.13-6.55.41-13-1.02-19.44-1.92.83,1.57,2.4,2.33,3.93,3.06-1.15-.27-2.29-.51-3.43-.73-2.98-.93-5.69-2.5-8.13-4.4.39-.59.8-1.17,1.21-1.73-.09.52-.27,1.55-.37,2.07.72-.04,2.16-.13,2.87-.17-.54-.35-1.63-1.06-2.17-1.42l1.72-1.29c-1.27-.24-2.51-.49-3.75-.76.95-.09,2.84-.26,3.78-.35-.94-1.37-2.45-2.04-3.85-2.78,1.32,0,2.64-.02,3.98-.02-1.25-1.05-2.54-1.99-3.86-2.92.96.03,2.86.08,3.81.11-1.05-1-2.18-1.89-3.39-2.67-.74.31-1.47.64-2.19.99.05,3.43.15,6.87.42,10.3-.82-1.24-2.1-2.33-2.12-3.92-.39-5.75.09-11.51.2-17.26"/>
        <path class="cls-4" d="M92.59,202.77c.75.88,1.31,1.89,1.2,3.11.26,5.05.16,10.11-.03,15.17.07,1.23-.5,2.33-1.14,3.35.09-7.21-.38-14.43-.03-21.63"/>
        <path class="cls-4" d="M176.94,203.78c2.37,1.59,1.9,4.65,2.05,7.12-.05,6.31.32,12.71-1.01,18.93-.25-.06-.75-.19-1-.25.85-8.58.83-17.23-.04-25.8"/>
        <path class="cls-2" d="M28.52,206.01c2.08.97,4.44,1.76,5.86,3.71-1.01.09-3.03.26-4.03.35.83.6,2.49,1.8,3.32,2.4-1.28.08-3.84.24-5.13.32.03-2.27,0-4.53-.02-6.78"/>
        <path class="cls-4" d="M18.57,208.36c1.43.13,2.88.28,4.33.45-.01,5.02-.68,10.14.31,15.11,1.84,4.49,6.55,6.81,10.91,8.25,11.78,4.68,24.72,4.02,37.16,3.9,12.58-.79,25.28.24,37.81-1.42-1.68-1.26-3.8-.9-5.74-.97-5.48-.07-10.96.13-16.42-.27,7.83-2.68,16.53-.94,24.55-2.85l1.01-.99c-5.5-.53-11,.31-16.5-.06,5.79-2.19,12.09-2.13,18.18-2.55-.1.74-.32,2.23-.43,2.97,1.91,2.94,4.77,5.86,8.57,5.71,25.17.69,50.37.63,75.55.02.44.66.88,1.32,1.34,1.99-18.3.24-36.59-.06-54.89.12-14.34.3-28.7.5-43.05.06-20.62-.07-41.24-.07-61.86.25-10.35.16-20.72-.45-31.05.32.85.63,1.8.94,2.86.92,27.67.19,55.34.62,83.02.44,35.12-.24,70.25.32,105.37-.11.28.55.84,1.64,1.12,2.19-65.35-.17-130.7.68-196.05,0,4.26-11.3,8.62-22.61,13.9-33.47"/>
        <path class="cls-4" d="M97.63,209.34c5.24-.26,10.51-.21,15.77-.13.11.28.34.83.46,1.11-5,.28-10.08.38-15.04-.15-.3-.21-.9-.63-1.19-.83"/>
        <path class="cls-4" d="M121.91,208.79c2.29,5.71.85,12.19,1.01,18.21-1.03-6-1.14-12.14-1.01-18.21"/>
        <path class="cls-4" d="M130.39,209.08c12.17,2.51,24.76,0,37.08,1.38-9.65,1.33-19.48,1.83-29.15.42-2.71-.47-5.67.09-7.93-1.8"/>
        <path class="cls-2" d="M19.69,209.94c3.14-1.45.18,3.21,0,0"/>
        <path class="cls-2" d="M17.5,213.07c.39-1.74,3.41-1.75,3.96-.1-.43,1.55-3.47,1.62-3.96.1"/>
        <path class="cls-4" d="M98.98,212.73c4.9-.33,9.82-.3,14.74-.33-.06.37-.19,1.1-.26,1.46-4.8-.39-9.89.54-14.48-1.13"/>
        <path class="cls-4" d="M103.55,216.51c3.31-.72,6.71-.85,10.09-.93v1.69c-3.37-.12-6.85.36-10.09-.76"/>
        <path class="cls-2" d="M15.43,219.37c1.21-1.97,3.61-1.26,5.55-1.23-1.03,2.25-3.66,1.18-5.55,1.23"/>
        <path class="cls-4" d="M189.57,218.16q.46.67,0,0"/>
        <path class="cls-4" d="M105.84,220.59c1.91-2.23,5.42-1.09,8.01-1.34v1.36c-2.66.39-5.35.2-8.01-.02"/>
        <path class="cls-2" d="M14.35,223.16c1.84-1.94,4.79-.86,7.13-.9-1.67,2.15-4.84.74-7.13.9"/>
        <path class="cls-4" d="M103.16,224.6c3.5-1.53,7.4-1.42,11.14-1.41-.17.36-.5,1.06-.67,1.42-3.44.61-7.03.63-10.47-.01"/>
        <path class="cls-4" d="M187.57,224.43c1.56-.45,3.25-.73,4.91-.65,1.74,1.77-4.52,2.04-4.91.65"/>
        <path class="cls-2" d="M12.98,226.57c2.69-1.34,5.96-1.11,8.71-.04-2.88.57-5.85.75-8.71.04"/>
        <path class="cls-2" d="M11.66,230.09c3.93-.52,8.04-.84,11.9.33-3.82.06-8.52,2.02-11.9-.33"/>
        <path class="cls-4" d="M137.22,231.31c9.67-3.01,19.99-1.66,29.78.04v.24c-9.93-.38-19.86-.38-29.78-.28"/>
        <path class="cls-4" d="M180.98,232.51c3.59-1.38,7.54-.53,11.3-.75,1.69.2,4.23-.58,5.06,1.51-5.46-.16-10.93-.25-16.36-.76"/>
        <path class="cls-2" d="M10.09,234.52c3.52-1.5,7.47-.77,11.19-.94,2.82.2,5.89-.41,8.5.96-6.55.37-13.15.53-19.69-.02"/>
        <path class="cls-4" d="M13.57,247.42c9.56-.32,19.15.21,28.69-.57,26.33-.35,52.67-.31,78.98.6-7.97.3-15.95.34-23.92.25-14.64.9-29.33.32-43.99.45-7.33-.7-14.68.3-22.03-.27-5.9-.51-11.83-.2-17.73-.46"/>
        <path class="cls-4" d="M25.26,250.34c15,.52,30.01-.18,45.02-.2,24.01-.12,48.02.1,72.03.48,4.58.09,9.18.21,13.72.86-16.92-.46-33.85.05-50.77,0-23.34.04-46.68-.06-70.01-.36-3.35-.03-6.69-.33-9.99-.77"/>
      </g>
    </g>
  </g>
</svg>