<?xml version="1.0" encoding="UTF-8"?>
<svg id="Layer_1" data-name="Layer 1" xmlns="http://www.w3.org/2000/svg" xmlns:xlink="http://www.w3.org/1999/xlink" viewBox="0 0 323.29 503.97">
  <defs>
    <style>
      .cls-1 {
        fill: none;
      }

      .cls-2 {
        fill: #1f3d3a;
      }

      .cls-3 {
        clip-path: url(#clippath-1);
      }

      .cls-4 {
        clip-path: url(#clippath);
      }
    </style>
    <clipPath id="clippath">
      <rect class="cls-1" y="0" width="323.29" height="503.97"/>
    </clipPath>
    <clipPath id="clippath-1">
      <rect class="cls-1" y="0" width="323.29" height="503.97"/>
    </clipPath>
  </defs>
  <g id="Fir">
    <g class="cls-4">
      <g class="cls-3">
        <path class="cls-2" d="M162.85,0c2.36,4.16,2.91,8.61,4.26,13.12,2.99,9.97,10.16,20.2,19.78,24.71-.21.6-.45.79-1.06,1.02-2.74,1.08-6.6.76-9.44.28,1.47,1.02,4.46,2.6,5.07,4.28-.28.48-.1.38-.58.51-1.92.51-4.18-.61-5.87-1.46,8.58,14.2,16.66,17.29,32.03,21.29-5.98,3.67-11.04,3.64-17.77,2.05,2.21,2.02,4.63,3.92,6.76,6-4.36.38-7.97-.31-11.96-2.12,4.03,6.79,9.4,11.21,17.14,13.21,4.96,1.29,10.35,1.34,15.45,1.26-1.69,1.87-3.72,3.36-5.69,4.91,4.43,1.95,9.5,2.48,14.26,3.14-2.35,2.28-4.4,3.02-7.54,3.73,1.11,1.34,2.61,2.7,2.54,4.54-.4.56-.5.68-1.24.81-3.27.58-7.97-2.48-10.45-4.36.96,1.87,2.79,4.63,2.79,6.69-.43.56-.51.73-1.26.86-3.54.65-12.73-5.7-15.4-8.11-.51-.46-1.02-.94-1.52-1.4,1.35,2.1,6,8.2,5.72,10.25-.05.38-.23.4-.51.61-4.86.21-8.86-2.43-12.3-5.59-1.37-1.26-2.7-2.6-4-3.93l-.2.08c1.7,2.81,3.97,5.27,6.28,7.59,7.67,7.64,15.85,11.6,26.3,14.23-2.4,1.67-4.97,2.63-7.78,3.37,8.2,5.47,16.43,7.11,26.16,5.97-2.89,2.83-5.98,4.28-9.82,5.52,6.93,3.75,13.83,6.12,21.22,8.71-3.59,3.27-7.95,4.08-12.64,3.87-3.29-.15-6.41-.89-9.57-1.77.03,1.02.2,2.07-.32,2.99-.58.5-1.01.73-1.77.71-3.3-.08-8.38-4.81-10.64-7.03.56,1.52,1.78,4.02.99,5.59-.22.43-.48.45-.89.64-4.12-.08-9.02-5.82-11.78-8.66-.81-.84-1.62-1.7-2.38-2.6.88,1.85,1.85,3.5,1.75,5.6-.36.64-.35.59-1.06.81-3.5-.64-5.27-3.55-8.11-4.71,1.74,2.46,4.96,4.56,7.44,6.31,13.85,9.8,30.68,17.37,47.45,20.26,3.11.53,6.26.96,9.4,1.14,2,.12,4.03.05,6.02.28-3.69,4.23-8.64,6.31-14.2,6.69-2.68.18-5.52.12-8.16-.36.43,1.02.98,2.03.94,3.16-.21.33-.21.5-.63.58-2.86.63-9.8-2.55-12.56-3.85.45,1.37,1.5,3.5.89,4.88-2.73.58-12.2-5.89-14.68-7.42.33,1.4,1.19,3.49.45,4.81-1.22.38-2.25-.17-3.34-.73-3.19-1.68-5.93-4.15-8.63-6.51,2.15,3.24,4.45,6.23,7.32,8.88,11.24,10.38,28.16,16.56,43.01,19.59,2.03.41,4.08.73,6.12,1.16-8.44,4.51-15.4,5.67-24.76,2.81-1.42-.43-2.83-.96-4.23-1.47,2.83,2.76,5.64,5.52,8.3,8.45-9.85-1.12-19.12-5.67-27.39-10.99,4.38,4.48,9.59,8.66,14.88,12.03,9.92,6.31,25.26,12.73,37.02,12.81,2.28.02,7.4-.79,9.27.35.1.55.18.38-.08.78-1.22,1.87-5.69,3.11-7.7,3.74,8.15,4.49,17.5,5.04,26.61,4.92-5.12,5.02-11.16,6.78-18.25,6.83,1.02,2.61,2.6,4.98,3.47,7.64-6.17-1.01-11.01-4.6-16.16-7.9.96,1.92,3.54,5.93,2.89,8.05-.13.41-.3.36-.66.53-5.39-.61-14.18-7.67-18.15-11.42.64,1.95,2.31,5.72,1.54,7.64-.18.43-.35.4-.73.58-4.61-.33-11.17-7.95-14.6-11.07-1.59-1.45-3.26-2.76-5.02-3.98,1.62,2.51,3.95,5.42,4.69,8.33l-.12.51c-1.67.48-4.1-.89-5.57-1.72-3.5-1.97-6.71-4.43-9.95-6.83,1.82,2.28,3.65,4.43,5.8,6.43,8.43,7.82,23.32,17.26,34.1,21.44,5.25,2.1,10.76,3.45,16.38,4.05.86.1,1.72.17,2.58.18-3.37,3.04-6.79,4.02-11.27,3.77-1.19-.07-2.36-.26-3.54-.48,8.51,7.49,17.73,12.89,27.45,18.68-18.51-.5-38.58-7.39-53.88-17.78,4.28,5.21,9.39,9.2,14.96,12.92,2.2,1.46,4.58,2.83,6.65,4.46-4.1.51-8.28.43-12.4.28,4.43,1.59,8.91,3.22,13.5,4.28,2.92.66,5.88,1.17,8.88,1.52,1.64.18,3.54.15,5.11.55.6.15.76.3,1.16.73-.33,1.27-1.95,2.1-3.04,2.74-1.09.64-2.23,1.19-3.4,1.67,10.55,2.31,20.02,2.13,30.35-1.17-1.72,5.19-5.06,7.32-9.65,9.82,10.28,3.24,21.95,3.62,32.66,3.77-9.17,8.07-19.16,9.57-31.01,9.5,1.4,1.65,2.51,3.31,3.4,5.29-7.57,0-13.54-3.02-19.77-7.09,1.69,2.41,2.93,4.64,3.72,7.5-7.54-1.75-17.46-8.18-24.1-12.5,2.46,5.37,6.96,9.64,8.6,15.39-4.15.49-7.6.1-11.64-.94,7.5,4.03,15.83,6.28,24.35,6.61,3.07.11,6.53-.18,9.52.48,1.01.21,1.64.53,1.95,1.54-.35,1.27-1.55,1.95-2.63,2.58-2.94,1.7-6.35,2.65-9.57,3.59,11.45,4.63,24.06,3.44,36.05,2.05-2.69,3.65-6.33,6.12-10.2,8.43,10.53,3.04,21.5,1.47,32.25,1.04-6.61,6.93-13.07,11.17-22.89,11.41-2.33.05-4.48-.17-6.76-.56,1.7,1.83,6,5.9,5.92,8.58-.02.43-.23.58-.48.91-2.1.93-5.42-.48-7.44-1.26-4.96-1.92-11.35-4.83-15.42-8.33,1.12,1.88,3.67,5.9,3.26,8.17-.13.73-.43.83-1.01,1.17-5.42.51-15.87-8.23-20.1-11.72-.71-.59-1.42-1.19-2.11-1.8,1.9,2.64,3.65,5.24,4.73,8.33-4.13.31-8.36.31-12.48-.23,3.19,2.41,6.35,3.97,10.21,5.03,4.25,1.16,8.71,1.64,13.07,2.13,3.39.38,7.54.44,10.68,1.83.74.33.89.55,1.17,1.27-.07.84-.46,1.37-1.07,1.9-1.57,1.36-3.65,2.15-5.55,2.91,10.41,4.79,19.07,7.77,30.46,9.35-6.81,5.14-13.67,7.09-22.18,5.92-1.16-.16-2.3-.36-3.44-.61,1.74,2.66,4.94,7.45,5.49,10.41l-.2.07.21-.03c-.26.36-.15.4-.56.43-1.22.11-2.69-.63-3.82-1.07-7.06-2.78-13.09-6.59-19.34-10.83.53,2.43,1.5,6.08.5,8.45-.51.41-.54.41-1.24.35-4.23-.41-11.85-9.5-15.8-12.15-3.46-2.31-7.9-3.19-11.65-4.99-7.49-3.59-14.53-8.18-21.3-12.94,6.05,6.74,12.64,12.3,20.12,17.4,1.44.99,3.17,1.95,4.11,3.46-.17.71.28.66-3.29,1.82-2.93.95-6.93-.24-9.28-2.23-.72-.61-1.85-.8-2.82-1.18,3.6,3.79,7.37,7.31,11.26,10.81,2.56,2.31,5.39,4.58,7.64,7.19-6.66.13-10.58-1.42-16.02-5.19,5.98,10.07,13.62,18.73,20.41,28.21-11.5-.07-19.37-3.84-27.47-12.03-2.56-2.58-4.64-5.42-6.61-8.48-1.39,3.92-2.66,8.46-6.81,10.33-.78.35-1.57.59-2.38.83.1-8.2.6-17.19-1.68-25.12-.93,2.96-2.13,7.39-5.06,8.98-.76.41-1.4.58-2.25.33-1.77-1.24-2.2-3.79-2.56-5.79-1.06-6.03-1.31-12.92-1.14-19.04-2.03,6.41-2.81,8.97-7.49,13.85-1.8-6.11-.94-11.54-2.05-17.35,0-1.21.02-2.43-.05-3.65-.43,2.08-.91,4.2-1.16,6.32-.53,1.95-.83,4.18-1.01,6.2-.98,10.25,8.78,27.4,15.32,35.24-8.38.17-11.74-3.65-17.49-8.89.18,4.89.07,9.8.13,14.69.17,14.4.43,32.16,2.68,46.26.38,2.4,1.01,8.2,3.08,9.72,1.68,1.22,12.69,2.96,15.67,3.78,9.72,2.68,36.34,11.51,43.96,17.09l.3.21c-5.87.25-11.82.05-17.69.05H92.57c-1.78,0-11.37.35-12.26-.41,3.47-1.22,6.94-3.36,10.36-4.86,7.45-3.22,15.07-6.05,22.81-8.48,5.45-1.67,11.01-3.37,16.61-4.51,5.29-1.07,10.79-1.57,15.9-3.35,2.23-5.14,2.6-11.19,3.26-16.69,1.57-12.81,2.46-25.68,2.71-38.59.08-7.06-.4-14.15-.25-21.19-1.16,1.64-2.46,3.74-4.38,4.53-.64.26-.98.18-1.62-.03-2.81-3.6,4.45-12.91,5.74-16.71,1.07-3.16,1.3-6.53,1.59-9.84-1.12,2.71-3.19,8.82-6.2,9.77-.56.18-1.12.11-1.65-.15-2.55-1.26-3.52-5.69-4.3-8.2.07,4.38.07,8.79-.55,13.14-.38,2.68-1.06,8.53-3.37,10.25-.43.05-.64.16-1.04-.03-2.63-1.3-4.13-7.17-4.99-9.85-.38,2.22-.66,4.43-1.06,6.65-.55,3.02-3.42,13.93-6.17,15.34-.55.28-.99.4-1.57.13-2.18-1.01-3.31-6.64-3.97-8.86-1.85,3.78-8.92,16.38-12.94,17.55-.69.2-.81.1-1.39-.25-1.21-2.38-.07-5.93.43-8.46-9.9,6.69-15.19,8.33-27.02,8.83,3.7-4.05,7.75-7.8,11.47-11.85,4.54-4.94,8.64-10.26,12.63-15.67-.64.38-1.29.74-1.95,1.09-1.65.86-4.35,2.15-6.21,1.44-.45-.17-.38-.3-.55-.69.31-1.07.97-1.9,1.67-2.76,2.56-3.11,5.59-5.87,8.38-8.76,3.4-3.55,6.64-7.3,9.82-11.06-5.55,4.18-11.25,8.23-17.22,11.82-16.73,10.07-37.67,17.5-57.17,12.66,5.14-3.39,11.47-5.65,17.09-8.21,15.92-7.29,30.89-16.93,40.89-31.65-1.5.59-3.07,1.09-4.61,1.62-.22.3-.41.61-.63.91-2.71,3.82-12.31,14.96-16.91,15.12-.71.03-.83-.2-1.24-.69-.53-2.98,1.93-6.83,3.21-9.45-1.69,1.12-3.29,2.28-4.81,3.6-2.78,2.45-11.93,12.13-15.09,12.59-.63.1-.76-.1-1.22-.46-1.16-2.26,0-5.32.61-7.64-7.92,4.66-15.14,9.9-23.85,13.12-1.6.6-5.17,2.15-6.79,1.4-.3-.41-.3-.55-.17-1.06.66-2.83,6.18-7.31,8.44-8.99-1.17.28-2.35.55-3.54.71-10.83,1.47-20.84-.98-29.5-7.6,11.55-1.64,23.54-2.41,34.11-7.77-2.84-.76-5.74-1.6-8.28-3.16-.99-.61-1.88-1.12-2.18-2.3.3-.55.41-.7,1.02-.96,1.62-.68,7.07-.36,9.07-.46,7.77-.36,15.04-1.64,22.1-5.02-2.26-.08-6.96-.1-8.46-2.13-.45-.61-.4-.81-.33-1.52,2.66-4.36,21.88-5.62,27.7-8.15l.4-.18c-3.67-.36-7.69-.83-11.11-2.3-.76-.33-1.49-.68-1.82-1.47.13-.58.15-.79.73-1.12,1.92-1.14,4.88-1.62,7.07-2.25,7.92-2.31,15.49-5.35,21.75-10.88,1.8-1.75,3.62-3.62,4.89-5.78-2.08,1.01-3.98,3.62-6.02,4.99l-.35.23c-1.27.6-2.88,1.52-4.3,1.11-.6-.78-.41-1.95-.31-2.86.33-2.86,1.26-5.74,2.05-8.51-4.18,6.68-7.32,10.93-14.07,15.21-1.92,1.22-4.05,2.46-6.28,3.01-.76.18-1.34.25-2.07-.08-.38-.78-.33-1.21-.03-2.02.66-1.8,1.92-3.4,3.07-4.91-6.53,5.04-11.98,11.29-20.23,13.49-1.31.35-2.93.76-4.28.53-.38-.07-.64-.23-.94-.45-.31-.84-.28-1.32.08-2.17,1.04-2.43,3.21-4.71,4.88-6.79-9.73,2.73-19.29,2.2-28.23-2.84-2.33-1.31-4.41-2.88-6.38-4.69,10.64,1.32,23.22,0,32.84-4.83-2.31-.79-6.88-2.69-7.95-5.03-.2-.43-.1-.58-.05-1.02,1.4-1.52,4.3-1.34,6.23-1.4,7.73-.28,14.13-.68,21.4-3.78-2.55-.2-8.79-.68-10.43-2.86-.23-.3-.23-.36-.33-.68.17-.58.15-.81.73-1.12,3.47-1.85,8.28-2.49,12.08-3.54,4.91-1.35,10.12-3.26,14.69-5.49-4.25-.53-8.17-2.3-10.86-5.74-.51-.66-.94-1.4-1.36-2.13,1.39-2.61,2.89-5.21,4.05-7.93-3.27,2.68-12.02,8.1-16.38,7.5-.43-.07-.76-.23-1.12-.43-.4-.61-.51-.76-.41-1.54.23-1.83,2.1-3.8,3.19-5.22-6.33,1.64-10.5,2.28-17.06.93-2.35-.5-4.79-1.17-6.89-2.35-.73-.41-1.17-.79-1.62-1.52-.03-.73.03-.79.43-1.42,2.78-1.16,5.88-1.6,8.83-2.2,5.55-1.14,11.12-2.63,16.16-5.27-2.11-.78-5.85-1.87-6.99-3.97l.07-.48c1.97-1.49,5.93-1.45,8.4-1.95,5.54-1.16,10.96-2.86,16.18-5.09-4.05-1.52-7.42-2.96-10.41-6.21,17.27.25,29.29-4.59,43.6-13.55-9.7,3.95-28.21,8.53-37.95,4.83-.46-.17-.73-.38-.97-.81.13-.7.35-.98.93-1.39,3.44-2.43,8.83-3.97,12.71-5.87,11.97-5.87,23.75-12.73,33.5-21.9-5.11,2.84-21.47,10.2-26.79,8.81-.41-.12-.41-.13-.74-.3l-.07-.45c2.64-2.96,7.34-5.08,10.61-7.37,3.69-2.58,6.98-5.54,10.21-8.64-7.95,3.31-17.24,7.04-25.85,7.54,2.03-1.79,4.51-3.04,6.91-4.28-8.63,2.18-25.04,3.29-33.04-1.55-.56-.35-1.14-.73-1.41-1.34,1.88-1.16,12.94-3.24,16.17-4.05,16.43-4.17,41.3-12.81,52.43-26.1,2.84-3.39,4.49-7.02,6.07-11.14-2.36,3.45-8.88,13.32-12.98,13.8-.53.07-.78,0-1.24-.21-.81-.86-.96-1.83-.89-2.99.07-1.16.3-2.36.5-3.52-2.91,4.21-9.74,13.26-14.99,14.1-.74.11-1.24,0-1.9-.36-.58-.73-.65-1.37-.51-2.26.2-1.3.73-2.58,1.19-3.8-3.01,2.81-7.98,6.74-12.4,6.58-.68-.03-.99-.17-1.47-.63-.3-1.45.83-3.36,1.62-4.56.31-.46.65-.91.99-1.34-3.4-.12-12.71-.66-14.97-3.12-.26-.28-.17-.23-.11-.65,1.55-1.49,8.88-3.16,11.34-4.12,2.38-.92,4.69-2,6.94-3.21-1.55-.93-5.21-2.71-5.57-4.64-.08-.43.12-.51.35-.84,2.05-.58,4.45-.08,6.56-.1,6.84-.02,12.48-1.72,18.56-4.71-2.66.36-5.8.78-8.18-.86-.35-.25-.36-.28-.6-.55-.02-.46-.13-.43.18-.71,1.31-1.24,4.45-1.36,6.17-1.9,9.78-3.16,20.51-10.08,25.4-19.4-2.33,2.46-6.08,6.6-9.57,7.21-.56-.17-.89-.17-1.12-.78-.69-1.92.76-5.26,1.5-7.09-2.3,2.17-9.64,10.81-12.5,10.6-.45-.03-.53-.25-.83-.55-.65-2.25.38-4.17,1.46-6.08l.2-.36c-1.47.76-2.86,1.55-4.2,2.53-2.61,1.9-7.79,7.31-11.01,6.76-.56-.45-.81-.69-.88-1.44-.26-2.81,1.82-5.07,3.47-7.07-3.39-.28-10.4-1.02-12.66-3.88-.38-.5-.38-.69-.43-1.29.58-.68,7.22-1.02,8.68-1.29,2.36-.45,4.48-1.22,6.71-2.07-1.83-1.24-4.74-3.19-5.25-5.47l.25-.55c1.85-.43,4.23.02,6.15.05,4.51.07,8.38-.69,12.69-2.02-1.54-.68-3.83-1.34-4.58-2.96.13-.55.13-.68.63-1.01,1.88-1.26,5.21-1.74,7.4-2.51,8.88-3.07,18.53-8.58,20.91-18.43.26-1.06.38-2.15.5-3.24-2.15,2.64-6.26,7.42-9.94,7.79-.48.05-.35.03-.81-.08-.36-.48-.45-.73-.36-1.34.23-1.98,1.39-3.9,2.4-5.57-2.3,2.2-6.58,6.99-9.88,6.89-.73-.02-1.07-.3-1.59-.78-.43-.91-.54-1.69-.23-2.64.33-.99,1.04-1.92,1.6-2.78-6.03.59-12.3.5-17.82-2.18.08-.03.18-.08.27-.12,3.12-1.36,6.74-1.68,10.01-2.66,10.99-3.26,19.01-9.67,25.45-19.04-3.49,2.18-6.58,3.04-10.59,3.77,2.76-2.73,5.5-5.52,8.33-8.18-2.71.64-6.1,1.34-8.86.73l-.45-.4c.28-1.55,2.18-2.68,3.42-3.54,9.9-6.88,11.77-9.5,16.68-20.25-1.54,1.21-4.76,4.02-6.84,3.88-.1,0-.18-.03-.26-.05-.3-.5-.33-.56-.22-1.16.25-1.16,1.54-2.31,2.3-3.17-1.85.03-3.75-.17-5.4-1.04l-.41-.55c.28-.63.03-.38.61-.64,1.37-.64,2.76-2.13,3.84-3.19,6.3-6.21,9.83-14.03,12.51-22.35,1.54-4.88,2.15-10.5,4.6-14.99M109.32,363.51l1.74,1.5c2.3,1.16,4,1.65,6.56.83,6.83-2.23,11.9-12.1,14.78-18.16.5-1.04,1.47-2.89,1.26-4.03-7.04,10.68-11.67,16.13-24.33,19.87M81.19,287.54c5.16-1.21,9.16-2.48,13.44-5.69-1.75.66-3.37,1.27-5.27.81-.58-.45-.76-.53-.89-1.29-.31-1.83,1.55-4.94.5-6.48-4.56,4.5-8.69,9.59-13.57,13.73,1.93-.36,3.9-.64,5.8-1.09M142.92,281.48c.99-2.89,1.89-5.75,2.31-8.79-.84,2.28-1.85,4.51-2.83,6.74-3.32,6.2-8.02,14.96-15.19,17.25-1.42.45-3.01.45-4.48.5,1.29,1.54,2.48,2.7,4.6,2.81,2.49.15,4.74-1.52,6.46-3.17,4.41-4.2,6.84-9.78,9.12-15.34M213.46,337.32c-.89-1.65-1.85-3.27-2.84-4.86.41,1.88.94,3.7.48,5.62-.26.28-.35.53-.76.5-2.15-.13-6.03-5.24-7.27-6.91-1.83-2.48-6.61-11.21-8.73-12.38,2.91,6.43,9.47,20.18,16.15,22.84.94.38,2.2.54,3.16.1.36-.17.66-.3.79-.71.36-1.26-.45-3.07-.97-4.2M191.51,267.37c.41-.71.83-1.29.79-2.15-1.36-1.24-4.93-.33-8.3-3.79-2.35-2.41-4.23-5.5-5.87-8.43-1.14-2.05-2.36-5.57-4.1-7.09,1.79,6.61,5.97,18.2,12.26,21.75,1.19.68,2.63.83,3.93.4.5-.15.89-.36,1.27-.69M239.36,350.72c-3.47-.83-7.85-2.53-10.51-4.96l-.12.13h-.1c1.87,2.02,4.4,4.1,6.79,5.44,3.82,1.77,7.7,3.19,11.67,4.56-2.28-3.37-5.54-9.39-9.04-11.39.63,2.07.96,4.08,1.3,6.21M99.22,276.08c1.19-.17,2.25-.35,3.37-.78,1.85-2.56,3.46-5.95,3.31-9.17-1.26,1.6-6.73,7.88-6.69,9.73-.02.08,0,.15.02.22M238.3,314.62c-2.86-4.71-7.14-11.16-12.28-13.67,2.31,5.26,5.04,10.96,10.78,13.14.5.2.99.36,1.51.53M147.55,176.51c-1.35,3.55-3.01,6.89-5.16,10.05-1.01,1.14-1.98,2.25-3.27,3.07-1.49.98-5.44,1.85-6.2,3.06.63,1.06,2.43,1.5,3.57,1.8.18.05.36.08.53.13,3.02-.96,4.49-2.11,6.35-4.73,2.3-4.1,3.57-8.76,4.18-13.39"/>
      </g>
    </g>
  </g>
</svg>