<?xml version="1.0" encoding="UTF-8"?>
<svg id="Layer_1" data-name="Layer 1" xmlns="http://www.w3.org/2000/svg" xmlns:xlink="http://www.w3.org/1999/xlink" viewBox="0 0 333.65 582.15">
  <defs>
    <style>
      .cls-1 {
        fill: none;
      }

      .cls-2 {
        fill: #a53b28;
      }

      .cls-3 {
        clip-path: url(#clippath-1);
      }

      .cls-4 {
        clip-path: url(#clippath);
      }
    </style>
    <clipPath id="clippath">
      <rect class="cls-1" y="0" width="333.65" height="582.15"/>
    </clipPath>
    <clipPath id="clippath-1">
      <rect class="cls-1" y="0" width="333.65" height="582.15"/>
    </clipPath>
  </defs>
  <g id="Goat">
    <g class="cls-4">
      <g class="cls-3">
        <path class="cls-2" d="M161.11,562.2c0-1.22-.05-2.73-.24-3.17-.05-.1-.1-.1-.1-.1-.05,0-.15.1-.15.1-1.51,1.51-4.24,2.88-7.52,2.88-8.88,0-12.74-6.54-12.74-14.69,0-7.18,2.78-19.53,18.79-19.53,1.32,0,4.59.44,4.78.69.1.1.1.39.1.78,0,1.42-.39,4.3-.78,4.69,0,0-1.51-.78-5.12-.78-6.64,0-11.32,4.44-11.32,13.62,0,5.47,2.15,9.47,7.03,9.47,4.3,0,6.78-3.17,6.78-4.2v-1.56c0-1.32-.05-3.03-.29-3.27-.15-.2-2.49-.44-4.54-.44s-2.73.15-2.98.15c-.2,0-.2-.34-.2-.39,0-.93.54-3.56,1.56-4.59.34-.34,5.42-.68,11.52-.68.44,0,2.78.1,2.78.25,0,1.61-1.12,4.83-1.66,5.61,0,0-.05,13.13-.34,13.67-.29.54-2.78,1.66-4.44,1.66-.49,0-.93,0-.93-.15"/>
        <path class="cls-2" d="M170.92,547.16c0-6.88,2.73-10.69,2.98-10.84.44-.24,2.1-.29,3.22-.29h.93c0-6.98,6.01-8.54,8.79-8.54,9.28,0,13.57,6.01,13.57,17.09,0,7.86-2.83,17.33-15.23,17.33-10.4,0-14.25-7.08-14.25-14.74M187.27,532.71c-2.78,0-4.05,2-4.05,3.71,0,4.49,4.39,9.42,4.39,9.42,0,.44-2.39,1.61-4.69,1.61-.34,0-3.22-3.12-4.2-7.86-.39.44-1.61,2.69-1.61,7.33,0,5.37,3.37,9.91,8.1,9.91,7.47,0,8.89-6.64,8.89-12.64,0-8.59-2.98-11.47-6.84-11.47"/>
        <path class="cls-2" d="M216.51,549.46c-2.49,0-5.32.1-5.61.19-1.51,4.98-2.64,9.08-2.93,12.25,0,.05-.73.05-1.17.05-2.63,0-5.18-.64-5.18-.83,0-1.22,1.71-6.59,3.47-11.37-.73-.63-2.29-3.37-2.29-5.03,0-.05,1.71-.1,4.05-.2,2.05-5.96,4.3-11.96,4.54-12.25.29-.24,3.27-.78,3.76-.78.05,0-.44-2.59-.44-3.17,0-.29,3.03-1.76,5.76-1.76,0,0,4.15,25.63,8.93,33.78.05.05.34.58.34.58,0,.44-3.37,2.49-6.15,2.49-.68,0-3.76-10.89-4.39-13.91-.69-.05-1.66-.05-2.69-.05M215.97,535.79s-.15.05-.24.19c-.54,1.07-2.69,6.69-3.17,8.4,2.98,0,5.42,0,5.47.1-1.02-4.3-1.86-8.01-1.95-8.54,0,0,0-.15-.1-.15"/>
        <path class="cls-2" d="M234.37,562.1c-.24-.29-.34-2.49-.34-5.57,0-6.1.34-15.67.34-20.31,0-1.56-.05-2.54-.15-2.64-.05-.05-.29-.1-.68-.1-1.86,0-6.79.68-6.79.68-.1-.1-.15-1.27-.15-1.27,0-2.59,1.07-4.69,1.07-4.69,0,0,3.81-.05,7.86-.29,1.86-.1,7.76-.29,9.67-.29,1.41,0,3.66.05,3.66.19,0,1.61-.34,5.22-.83,5.71-.68-.15-3.12-.24-5.03-.24-1.22,0-2.2.05-2.29.15-.15.15-.34,4.98-.34,10.64,0,6.89.29,15.04,1.46,17.18,0,.29-1.85,1.27-5.47,1.27-1.32,0-2-.44-2-.44"/>
        <path class="cls-2" d="M44.44,559.12h67.15v5.42H44.44v-5.42ZM48.43,525.85h59.54v5.49h-59.54v-5.49ZM52.12,542.18h51.34v5.42h-51.34v-5.42ZM57.62,514.78l5.12-1.88c1.31,1.76,2.6,3.69,3.88,5.79,1.28,2.11,2.22,3.94,2.82,5.49l-5.42,2.18c-.55-1.55-1.43-3.42-2.63-5.61-1.2-2.18-2.46-4.18-3.76-5.98M74.93,528.18h5.87v53.97h-5.87v-53.97ZM93.67,512.6l5.95,1.73c-1.2,2.46-2.52,4.98-3.95,7.56-1.43,2.59-2.77,4.78-4.03,6.59l-4.74-1.51c.75-1.3,1.55-2.81,2.41-4.51.85-1.71,1.67-3.42,2.45-5.16.78-1.73,1.42-3.3,1.92-4.7"/>
        <path class="cls-2" d="M324.3,423.03c5.16-33.91,11.39-48.7,8.7-55-5.13-12.05-28.54-26.12-27.05-43.69,2.47-29.28,15.2-53.37-3.55-85.56-1.66-3.77-3.5-7.24-5.52-10.43-1.36.12-2.7.13-3.99.02-2.82-.48-3.41-.77-4.01-1.04-1.13-.6-2.17-1.26-3.11-2-1.91-1.46-3.52-3.2-4.94-5.06-2.83-3.72-4.79-8-5.85-12.43,2.41,3.8,5.12,7.22,8.25,9.97,1.56,1.37,3.24,2.56,4.94,3.51.85.48,1.72.84,2.56,1.12,4.2.18,6.06-.19,7.68-.79,1.63-.59,2.96-1.46,4.18-2.74,1.03-1.01,1.91-2.39,3.03-3.76,1.67-3.11,3.11-6.25,4.35-9.36-.81.66-1.67,1.26-2.6,1.68-2.67,1.32-5.53,1.29-8.16,1.05-1.3-.28-2.59-.61-3.82-1.05-1.2-.57-2.38-1.13-3.48-1.88,1.33-.26,2.57-.33,3.8-.4,1.22-.1,2.41-.31,3.57-.36,2.26-.45,4.48-.72,6.33-1.67,1.87-.87,3.51-2.09,4.91-3.83,1.43-1.72,2.55-3.9,3.6-6.42.8-3.21,1.42-6.26,1.87-9.06-.88.82-1.87,1.48-2.89,1.93-.68.37-1.38.61-2.07.77-.7.16-1.4.39-2.1.47-1.38.06-2.78.26-4.12.05-1.34-.19-2.68-.34-3.96-.75-1.28-.45-2.54-.88-3.74-1.52,1.33-.4,2.61-.59,3.87-.79,1.26-.12,2.48-.5,3.69-.64,1.22-.15,2.33-.56,3.49-.74,5.06-2.02,6.53-3.27,7.5-5.22,1.01-1.93,1.41-4.47,1.55-7.26-.02-1.11-.08-1.85-.17-2.13-.74-2.36-22.11-2.66-38.48,15.99-14.33,16.32-22.15,13.78-31.94,14.73-.9.09-1.63.26-2.29.46-7.75-.28-15.82.49-24.04,2.22-40.14,8.43-55.2-5.93-67.45-14.89-14.06-10.28-20.06-21.77-22.35-31.55-5.58-2.27-9.44-4.5-12.91-7.3-3.46-2.8-6.48-6.28-8.65-10.2-2.2-3.9-3.65-8.14-4.37-12.46,2.1,3.79,4.37,7.33,7.04,10.37,2.66,3.04,5.69,5.59,9.01,7.6,3.31,2.04,6.86,3.61,10.54,4.89,4.27,1.05,7.19,1.37,10.35,1.38,17.05.08,25.73,11.99,38.65,14.61,6.12,1.24,16.86-5.6,16.35-12.9-.05-.76-.34-1.75-.81-2.94-.44.48-.87.96-1.37,1.41-5.53,4.82-6.6,3.89-15.99,4.14,1.92,1.08,9.2,2.8,9.39,7.06-2.46-2.37-2.57-1.33-10.85-4.54-1.26-.54-3.32-1.67-4.16-2.89-2.59-4.51,9.23-2.31,14.84-3.78,1.94-.53,4.39-2.48,6.62-4.71-2.93-5.79-8.29-14.43-14.38-25.31-6.07-10.85-6.15-18.95-11.53-25.8-2.77-3.52-5.12-6.49-7.26-9.07-2.13-2.21-4.38-4.27-6.79-6.14-3.84-2.97-8.1-5.39-12.69-7.37,4.93.47,9.84,1.99,14.39,4.36,2.97,1.52,5.75,3.41,8.4,5.46,6.06-7.28,11-16.23,9.41-17.4-3.12-2.31-9.6-1.67-16.4.39-.11.94-.26,2.01-.44,3.11-2.44-.15-3.52-.82-4.62-1.37-1.57-.73-2.83-1.2-4.04-1.52-1.54-.45-3.13-.69-4.35-.85-.88-.12-1.5-.88-1.49-1.78.02-.96.76-1.73,1.67-1.73,1.37.02,3.15.09,4.94.39,1.44.21,2.99.6,4.86,1.23.84.31,1.71.7,2.66,1.16.42-3.52.64-7.09.58-10.69-1.79-.53-3.17-.77-4.65-.88-2.37-.03-3.33.03-4.24.15-1.57.18-3.12.57-4.3.88-1.13.06-1.76-.4-2-1.08-.32-.91.11-1.92.98-2.26,1.25-.49,2.91-1.11,4.66-1.52,1.46-.37,3.07-.61,4.91-.74,2.33-.03,3.36.06,4.35.19-.33-3.53-.96-7.03-1.84-10.46-1.2,0-2.41.11-3.67.33-1.49.29-2.84.68-4.12,1.17-1.51.56-2.94,1.3-4.02,1.89-.6-3.79.89-4.79,2.52-5.61,1.39-.73,2.96-1.37,4.63-1.9,1.11-.33,2.16-.55,3.2-.72-1-2.9-2.19-5.71-3.57-8.4-1.11.07-2.29.33-3.52.76-1.09.4-2.24.97-3.4,1.7-.97.61-1.95,1.36-3.18,2.43-1.06-3.91-.05-4.9,1-5.76,1.31-1.07,2.59-1.92,3.92-2.6.88-.44,1.76-.78,2.63-1.07-1.95-2.94-3.02-4.26-4.14-5.54-.94.26-1.9.61-2.89,1.13-1.04.55-2.08,1.27-3.19,2.2-.89.75-1.77,1.64-2.87,2.88-2.97-.33-3.13-1.43-2.59-2.21,1.04-1.51,1.96-2.67,2.88-3.66,1.19-1.27,2.36-2.3,3.57-3.15-.19-2.34-1.92-3.67-3.77-4.84-2.22,1.09-3.26,1.81-4.37,2.74-.88.74-1.79,1.65-2.87,2.88-2.97-.33-3.13-1.43-2.59-2.21,1.04-1.51,1.96-2.67,2.88-3.66.79-.84,1.58-1.55,2.37-2.2-2.45-1.11-5.01-1.92-7.66-2.33-1.4,2.27-1.97,3.43-2.58,4.89-.27.66-.88,1.07-1.54,1.07-1.15-3.81-.7-5.07-.22-6.24-.64.02-1.29.04-1.94.11-3.09.37-5.96,1.59-8.31,3.29-2.35,1.72-4.23,3.83-5.58,6.31,5.16-1.72,9.96-2.48,13.63-1.25,3.73,1.12,7.31,3.73,10.06,6.77,1.38,1.55,2.6,3.24,3.71,5.01,1.09,1.8,1.97,3.72,2.81,5.68,1.93,3.94,3.28,8.06,4.04,12.26,1.6,8.38.86,17.14-1.52,25.71-.31,1.19-.67,2.38-1.06,3.56-1.11-.21-2.2-.35-3.28-.45-.37-2.63-.9-5.23-1.51-7.8-3.49.01-4.76-.27-5.92-.39-2.24-.09-2.92-.04-3.59.05-2.32.29-4.67,1.22-6.82,2.69-2.79-1.07-2.7-2.18-2-2.81,2.39-2.13,5.16-3.64,8.01-4.38,1.45-.4,2.99-.63,4.56-.66,1.98,0,3.17.14,4.4.42-.85-2.83-1.8-5.62-2.93-8.33-2.62-2.12-3.72-2.29-4.77-2.29-1.77.07-3.04.32-4.34.77-1.34.52-2.52,1.12-3.57,1.85-1.27.84-2.42,1.9-3.29,2.72-2.94-.59-3.01-1.71-2.4-2.44.87-1.04,2.04-2.39,3.44-3.56,1.19-1.03,2.6-1.98,4.18-2.8,1.65-.8,3.29-1.33,4.92-1.6.82-.12,1.48-.18,2.1-.2-1.45-2.66-3-5.24-4.7-7.68-2.9.38-4.2.76-5.54,1.3-1.24.52-2.48,1.17-3.69,1.94-1.05.66-2.11,1.46-3.46,2.59-2.89-.81-2.89-1.92-2.23-2.61,1.34-1.41,2.42-2.43,3.53-3.32,1.29-1.05,2.66-1.99,4.05-2.77,1.35-.74,2.63-1.28,3.92-1.7-1.77-2.16-3.61-4.22-5.52-6.19-2.25.49-3.33.95-4.44,1.59-.91.53-1.86,1.24-2.99,2.25-.82.76-1.67,1.68-2.66,2.89-1.74-3.59-.9-4.75-.04-5.77,1.2-1.38,2.26-2.4,3.33-3.22.91-.7,1.81-1.24,2.73-1.71-2.01-1.78-4.22-3.48-6.53-4.88-2.42-.05-3.36.41-4.29,1.11-.92.65-1.71,1.56-2.52,2.52l-1.08,1.56-.97,1.67c-2.97-1.59-2.12-3.57-2.12-3.57l1.05-2c.85-1.33,1.73-2.65,2.91-3.75-.71-1.28-2.26-1.82-3.83-2.24-.59-.16-1.19-.27-1.78-.4-.7.53-1.41,1.17-2.1,1.99-.88.99-1.62,2.19-2.29,3.32-.6,1.09-1.19,2.35-1.79,3.8-.27.67-.88,1.09-1.54,1.08-1.36-.35-1.86-1.33-1.6-2.26.48-1.68.97-3.15,1.52-4.48.6-1.34,1.31-2.84,2.24-4.21-1.34-.09-2.68-.13-4-.1-.91.03-1.8.08-2.69.16-.5.49-.95,1.21-1.23,2.04-.34.92-.57,1.99-.69,3.31-.12,1.22-.1,2.49-.07,3.68.02.92-.58,1.69-1.4,1.83-1.09.02-1.78-.6-1.91-1.46-.2-1.32-.4-2.73-.45-4.18-.05-1.7.07-3.1.36-4.42-2.07.43-4.09,1.01-6.05,1.67-.01.99,0,1.95.11,2.81.17,1.78.58,3.55.93,4.89.23.91-.2,1.82-1,2.14-1.28.12-1.91-.34-2.15-1.01-.52-1.43-1.17-3.34-1.56-5.37-.13-.62-.21-1.29-.3-1.96-.83.34-1.64.7-2.45,1.08-.96.44-1.88.94-2.81,1.43.66,2.83,1.32,4.46,1.91,5.83.37.87.08,1.83-.67,2.28-3.08-2.09-3.99-3.84-4.64-5.77-1.66.51-3.16,1.46-4.62,2.45.42,1.77,1.07,3.32,1.72,4.76.39.86.11,1.83-.62,2.3-2.99-1.8-3.72-3.24-4.34-4.78-1.02.75-2.03,1.51-3.02,2.29-.97,2.29-.5,3.47.08,4.6.41.79.2,1.76-.48,2.28-2.94-1.29-3.46-2.22-3.93-3.18-3.54,3.16-6.87,6.53-9.9,10.21,11.6-5.89,23.11-11.57,34.61-14.28,5.73-1.31,11.46-1.75,16.63-.93,5.18.86,9.67,2.96,13.38,6.19,1.89,1.64,3.47,3.43,5.1,5.7,1.76,2.32,3.3,4.76,4.75,7.23,1.38,2.51,2.69,5.03,3.82,7.62,1.12,2.6,2.07,5.24,2.87,7.92,1.63,5.35,2.58,10.89,2.97,16.43-3.12-1.6-7.71-4.22-12.97-4.05-10.32.33-23.66,4.42-23.13,6.8,1.25,5.66,11.55,11.69,21.36,15-37.91,43.76-39.58,87.83-31.59,120.5.3.94.58,1.9.89,2.83,3.19,9.65,7.34,18.91,14.46,26.43-4.42-2.52-8.28-6.23-11.47-10.46-2.91-3.82-5.26-8.08-7.31-12.42-19.61-4-39.42-6.55-42.91-1.48-5.77,8.37-2.92,43.35-8.68,85.17-1.97,14.28-4.15,18.54-5.26,27.94-.67,5.72,25.96,2.71,28.59-.27,2.07-2.34-1.23-9.3-2.48-14.32-5.87,1.71-10.58,1.89-14.97.63,4.35-1.31,8.37-2.73,12.01-4.72,1.63-.87,3.13-1.9,4.45-3.01,1.42-1.74,2.95-3.85,2.02-9.6-3.05-18.97-1.13-52.04,2.73-55.16,2.65-2.14,15.61,7.2,31.43,18.8,7.22-.92,17.33-.87,31.39-3.82,5.26-1.06,11.89-2.34,17.2-3.58-9.55,5.43-19.89,9.46-30.58,12.02-11.73,2.82-9.49,1.33-22.95,5.56-.67.18-1.34.37-2.02.55-11.97,5.36-21.07,10.88-21.09,15.32-.03,10.34,23.42,37.18,43.86,71.17,7.33,12.19,4.32,14.39,8.64,22.69,2.63,5.05,26.15-10.2,26.63-14.24.38-3.15-5.8-6.95-9.48-10.32-.45.5-.92.97-1.4,1.4-3.69,3.23-8.51,4.51-12.78,3.75,3.99-1.81,7.31-4.1,9.52-7.17.75-.99,1.34-2.07,1.8-3.16.02-2.65,1.34-5.5-2.93-11.14-10.79-14.28-31.34-34.15-29.94-39.07,1.21-4.24,26.4-3.24,52.62-3.36,11.26,5.42,21.91,6.5,33.61,8.72,5.87,1.11,12.12,1.51,18.59,1.95.89.02,1.79.07,2.68.1,3.83.06,7.62.07,11.37-.22,3.76-.26,7.47-.87,11.19-1.8,3.71-.94,7.4-2.25,11.14-3.69-5.96,5.54-13.55,9.39-21.57,11.12-.75.16-1.5.3-2.26.43,5.89,16.95,16.43,34.07,35.75,42.35,25.75,11.04,30.67,29.9,31.35,33.92.68,4.02,2.63,20.74-.87,43.24-2.89,18.59-10.07,34.23-10.29,36.44-.58,5.8,28.64,7.12,31.74,3.86,1.77-1.86.56-5.5-.9-9.78-.79.21-1.57.39-2.35.52-2.18.33-4.33.38-6.45.19-2.11-.18-4.2-.54-6.23-1.2,4.05-1.3,8-2.22,11.55-3.69,1.46-.58,2.84-1.29,4.01-2.07,1.7-1.69,4.03-3.46,3.7-4.85-1.85-7.84-5.88-14.23-2.65-35.44,2.76-18.16,5.82-30.81,7.66-39.63-9.45-7.77-19.29-10.47-23.17-12.7-29.69-16.31-40.14-44.94-32.44-61.46-.39,2.41-.44,4.8-.19,7.17,1.46,18.41,15.29,39.79,41.14,50.54,11.63,4.99,20.34,11.54,26.71,18.91,6.47,6.33,9.2,12.57,9.2,17.9-.01,7.3-.29,26.48-3.79,48.98-2.89,18.59-8.64,28.97-8.86,31.18-.58,5.8,27.89,5.99,30.99,2.73,1.86-1.96.29-5.53-1.32-9.99-3.68.72-5.92.85-8.14.72-2.21-.12-4.4-.45-6.53-1.11,4.24-1.3,8.31-2.37,12.02-3.97,1.84-.77,3.58-1.71,4.99-2.77,1.36-1.3,2.31-2.38,2.1-3.29-1.85-7.83-4.68-15.09-1.45-36.3M170.37,116.61c4.23.6,6.34,2.6,11.28,12.18,2.47,4.91,4.35,10.45,5.86,15.84-16.49-21.3-17.06-24.3-17.18-27.59,0-.21,0-.32.04-.43M16.1,290.48c-1.11.75-1.79.47-2.04-.14-2.16-5.25-2.5-10.3-2.17-15.41.71-12.96,3.15-33.37,6.5-45.8.08,46.13,2.01,53.8-2.29,61.36M85.25,342.88c.05.24.28,1.62.18,1.86-.26.61-.94.89-1.52.62-4.96-2.32-7.77-6.42-10.8-10.42-5.65-7.29-12.64-16.72-17.66-24.5-2.75-4.25-5.42-8.61-7.62-13.23,30.74,32.49,35.74,37.06,37.41,45.68M307.33,368.11c1.98-2.29,4.38-3.3,5.37-2.26.99,1.05.34,3.67-1.45,5.85-1.79,2.18-4.19,3.2-5.37,2.26-1.18-.94-.53-3.56,1.45-5.85M256.94,202.95c1.72-.58,4.55,4.35,6.36,11.1,1.81,6.73,1.59,12.6-.48,13.02-2.07.45-4.93-4.6-6.37-11.17-1.46-6.59-1.21-12.34.5-12.95M242.3,207.1c1.77-.46,4.13,4.37,5.28,10.78,1.15,6.41.39,11.81-1.69,12.07-2.09.23-4.46-4.65-5.29-10.86-.84-6.21-.07-11.57,1.7-11.99M227.34,209.86c1.8-.24,3.71,4.37,4.27,10.37.56,6.01-.68,10.97-2.79,10.99-2.1.05-4.01-4.64-4.27-10.44-.26-5.77.99-10.65,2.79-10.92M208.42,220.77c.3-5.3,2.01-9.57,3.82-9.67,1.81-.08,3.26,4.38,3.25,9.92,0,5.57-1.72,9.92-3.82,9.75-2.1-.15-3.55-4.7-3.25-9.99M192.41,218.79c.85-4.75,2.97-8.37,4.78-8.25,1.79.15,2.78,4.37,2.21,9.4-.57,5.05-2.71,8.77-4.79,8.32-2.08-.42-3.05-4.74-2.2-9.48M176.8,214.54c1.35-4.08,3.85-7.03,5.6-6.62,1.74.43,2.26,4.37,1.17,8.79-1.11,4.47-3.63,7.47-5.62,6.7-2-.75-2.51-4.74-1.14-8.87M162.02,207.76c1.76-3.39,4.54-5.53,6.18-4.79,1.62.78,1.75,4.29.17,8.07-.79,1.87-1.88,3.39-3.01,4.29-1.14.93-2.3,1.14-3.21.6-1.84-1.12-1.89-4.78-.13-8.17M148.6,198.35c2.02-2.63,4.87-3.88,6.35-2.8,1.56.97,1.26,4.2-.65,7.23-1.91,3.02-4.82,4.37-6.49,3.01-1.59-1.48-1.23-4.8.79-7.43M126.95,172.4c3.91.2,6.55,2.74,8.09,4.84.95,1.31,1.65,2.77,2.08,4.35.32,1.27.68,3.16.15,5.22-2.67-.45-3.63-1.39-4.68-2.5-.85-.93-1.67-1.94-2.51-3.08-.7-.97-1.38-2.04-2.14-3.35-.79-1.52-1.4-2.68-1.88-4.24-.4-1.29.89-1.23.89-1.23M119.8,196.24c.95,1.31,1.65,2.77,2.08,4.35.32,1.27.68,3.16.14,5.23-2.67-.46-3.63-1.39-4.68-2.5-.86-.94-1.67-1.94-2.51-3.09-.71-.97-1.39-2.03-2.14-3.35-.79-1.52-1.4-2.68-1.88-4.24,4.8-1.03,7.45,1.51,8.98,3.61M107.13,152.99c4.76,2.21,6.37,5.58,7.1,8.11.44,1.58.6,3.21.47,4.85-.13,1.3-.43,3.21-1.63,4.94-2.34-1.43-2.92-2.67-3.52-4.1-.48-1.19-.9-2.43-1.3-3.83-.33-1.18-.6-2.43-.86-3.94-.23-1.71-.4-3.03-.32-4.67l.07-1.36ZM142.67,138.23c-.76,4.46-2.49,7.85-3.86,7.56-1.38-.3-1.56-4.23-.4-8.58,1.17-4.39,2.85-7.64,3.84-7.43.99.2,1.18,3.99.43,8.45M154.27,113.96c-1.26.62-5.34.42-8.38-.42-5.32-1.46-10.4-4.48-10.4-4.48,0,0,9.05-8.23,14.68-3.4,1.7,1.46,5.16,7.78,4.1,8.29M132.93,103.64c4.01-3.96,10-4.64,15.91-2.69-4.81.04-10.81.9-13.94,4.71-2.08-.43-2.41-1.57-1.96-2.02M129.14,133.41c2.06-3.97,4.38-6.8,5.25-6.42.85.41.26,4.19-1.3,8.38-1.58,4.25-3.94,7.14-5.28,6.5-1.35-.62-.74-4.47,1.33-8.46M127.74,122.55c.7.59-.8,4.06-3.33,7.72-2.53,3.66-5.54,5.83-6.72,4.81-1.2-.99.42-4.6,3.41-7.81,3.03-3.26,5.92-5.28,6.64-4.72M122.57,116.44c.48.82-1.79,3.64-5.2,6.43-3.38,2.77-6.93,4.02-7.74,2.68-.81-1.34,1.55-4.24,5.3-6.5,3.71-2.24,7.16-3.43,7.64-2.61M118.99,108.86c.35.94-2.58,3.14-6.53,4.91-3.95,1.77-7.6,2.05-8.12.61-.46-1.45,2.53-3.66,6.65-4.95,4.12-1.29,7.71-1.54,8.01-.57M116.98,100.21c.16,1.06-3.11,2.61-7.33,3.49-4.21.88-7.85.4-8.06-1.06-.19-1.46,3.12-3.03,7.41-3.5,4.26-.47,7.85,0,7.98,1.07M93.93,173.12c2.99.48,4.05,1.86,4.8,2.93.86,1.3,1.55,2.69,2.05,4.15.51,1.51.83,3.05.95,4.58.08,1.49.07,3.25-.59,5.12-2.81-.95-3.69-2.29-4.38-3.42-.74-1.28-1.36-2.63-1.84-4.03-.5-1.44-.84-2.86-1.04-4.34-.18-1.49-.29-3.12.06-4.99M92.48,131.82c-.28-1.48-.43-2.97-.43-4.45,0-1.51.14-3.01.43-4.45.32-1.47.74-3.03,1.67-4.67,2.65,1.53,3.21,3.2,3.56,4.48.39,1.53.58,3.08.58,4.65,0,1.6-.21,3.16-.59,4.64-.41,1.43-.99,3.08-2.22,4.6-2.34-1.91-2.73-3.48-3-4.79M108.67,88.64c4.29.23,7.74,1.3,7.72,2.39,0,1.09-3.48,2.09-7.76,2.22-4.3.13-7.8-.94-7.8-2.39.02-1.45,3.54-2.45,7.84-2.22M75.19,75.06c-1.09-1.54,5.66,0,14.05.02,8.4.01,11.31,5.79,11.31,5.79,1.55,2.02-4.75,3.27-8.4,3.07-3.65-.2-15.87-7.34-16.96-8.88M89.65,191.49c1.1,3.37,1.54,4.63,2.1,5.83.61,1.24,1.24,2.4,1.91,3.62.32.58.67,1.16,1.01,1.76,1.15,1.96,2.33,3.99,3.43,6.65-2.61,1.15-4.25.47-6.05-.82-1.56-1.18-2.81-2.59-3.74-4.21-1.02-1.8-1.6-3.8-1.68-5.78-.02-2.36.69-4.46,2.01-5.93l1.01-1.12ZM64.55,157.94c.09-3.8,1.31-6.79,3.62-8.92,2.01,2.02,2.21,3.41,2.4,4.76.14,1.37.26,2.78.23,4.22-.02,1.43-.1,2.74-.26,4-.18,1.29-.41,2.72-.92,4.46-3-.79-3.79-2.54-4.26-3.75-.55-1.55-.82-3.15-.8-4.78M74.58,210.61c-1.97-.43-3.4-1.66-4.3-2.55-1.12-1.16-2-2.49-2.64-3.97-1.44-3.48-1.53-6.74-.29-9.69,2.63.93,3.37,2.11,4.08,3.25.68,1.19,1.35,2.42,1.89,3.72.55,1.29,1,2.52,1.36,3.74.36,1.26.72,2.65.95,4.45.17,1.32-1.06,1.05-1.06,1.05M78.86,192.16c-2.69-.28-3.73-1.55-4.62-3.41-.71-1.55-1.1-3.2-1.18-4.94-.13-3.17.94-7.27,4.34-9.25,1.46,1.8,1.51,2.74,1.57,3.61.19,2.48.23,3.39.27,4.31.1,2.33.12,3.65.08,5.04-.06,1.46-.14,2.9-.47,4.64M80.27,127.69c-.21,1.27-.46,2.55-.79,3.91-.36,1.41-.73,2.79-1.4,4.43-2.92-1.25-3.5-3.11-3.82-4.38-.37-1.67-.42-3.38-.14-5.09.52-3.13,2.4-6.88,6.13-8.04,1.05,2.08.92,3.01.79,3.87-.33,2.48-.47,3.39-.62,4.31l-.16,1ZM82.45,161.06c-.88-1.45-1.45-3.12-1.65-4.86-.4-3.25.67-7.43,3.96-9.41,1.49,1.64,1.56,2.5,1.63,3.29.18,1.68.6,5.34.6,5.34.14,1.2.26,2.44.37,3.77.09,1.37.19,2.77.12,4.53-2.72.18-3.92-.93-5.03-2.67M107.22,236.49c-4.11.25-9.42-.06-13.32-2.36-3.96-2.26-5.61-5.55-6.63-7.57-.82-2.22-1.12-3.49-.96-3.61.15-.12,1.29.49,2.94,1.53,1.74.87,4.11,2.17,6.6,2.15,2.46.04,5.03-.91,8.55-2.15,3.49-1.24,8.02-2.73,13.02-2.71,3.79.06,7.32.74,10.32,2.03,3.02,1.28,5.55,3.16,7.34,5.2,3.63,4.16,4.22,8.35,3.62,10.72-1.52-4.14-4.36-6.91-7.27-8.7-2.95-1.73-5.9-2.43-8.34-2.65-1.23-.11-2.33-.19-3.31-.09-.97.05-1.81.1-2.48.25-1.35.24-2.09.43-2.09.52-.02.19,3.2.23,7.55,1.73,2.16.76,4.6,1.95,6.67,3.8,1.05.91,1.98,2,2.75,3.21.37.61.73,1.24,1.01,1.9.28.6.55,1.44.61,1.82-1.45-.27-3.13-1.68-5.39-2.77-1.14-.58-2.46-1.14-4.13-1.63-.83-.24-1.77-.5-2.81-.62-6.37-.54-10.02-.2-14.26,0M111.92,276.03c1.09-.26,2.68-.4,4.56-.41,1.89.05,4.08.33,6.38.96,2.26.61,4.8,1.6,6.9,2.79-1.25.73-3.31.86-5.96.9-2.65.08-5.99,0-9.5,1.06-2.25.88-2.6.93-3.67,1.47-1.83.85-3.86,1.54-5.94,1.89-4.24.76-8.11-.11-10.95-1.13-5.7-2.18-8.98-4.7-8.96-5.01.04-.4,4.06-.98,9.23-1.82,2.57-.44,5.2-1.14,7.38-2.28,1.11-.57,2.19-1.23,3.34-2.02.6-.41,1.03-.75,2.16-1.37,9.39-3.64,14.72-2.6,18.19-1.23,3.55,1.44,5.56,3.38,6.41,5.08-5.65-2.34-11.38-2.4-15.35-1.42-1.98.52-3.52,1.16-4.5,1.78-1.01.55-1.5.98-1.47,1.05.02.05.64-.13,1.75-.32M187.59,272.68c-1.07,3.55,2.7,10.13.28,13.16-2.42,3.03-9.21.23-12.34,1.94-3.25,1.77-5.04,9.19-8.62,9.52-3.59.32-6.54-6.67-10.03-7.83-3.36-1.12-9.61,2.85-12.47.3s-.22-9.71-1.84-13.02c-1.68-3.43-8.71-5.31-9.02-9.1-.31-3.79,6.32-6.9,7.42-10.58,1.07-3.55-2.7-10.13-.28-13.16,2.42-3.03,9.21-.23,12.34-1.94,3.25-1.77,5.04-9.19,8.62-9.52,3.59-.32,6.54,6.67,10.03,7.83,3.36,1.12,9.61-2.85,12.47-.3,2.87,2.55.22,9.71,1.84,13.02,1.68,3.43,8.71,5.31,9.02,9.1.31,3.79-6.32,6.9-7.42,10.58M226.57,290.61c-.23.31-3.15-.33-6.67-.32-3.58-.11-7.53.67-12.45-.04-4.21-.66-7.83-2.58-9.94-4.93-2.16-2.34-2.84-4.83-2.51-6.59,1.51,2.24,3.34,3.42,5.12,4.27,1.77.83,3.47,1.18,4.88,1.36,1.42.15,2.58.11,3.37.05,1.28-.36-.5-.94-2.9-2.12-1.18-.62-2.51-1.43-3.73-2.47-1.19-1.01-2.39-2.4-2.89-3.64,1.22-.19,2.42-.1,3.89.22,1.5.29,3.27.86,6.05,1.36,1.96.35,4.58,1,6.99,2.06,2.45,1.05,4.75,2.51,6.47,4.12,3.51,3.22,4.52,6.48,4.33,6.68M236.04,242.08c-.54,1.63-1.74,4.04-4.15,6.1-2.37,2.07-5.72,3.53-9.07,4.27-3.32.76-6.73.88-9.29.96-1.05.04-1.55.06-2.54.19-.89.09-1.71.22-2.5.34-1.56.26-2.95.49-4.17.69-2.44.42-4.3.68-5.71.42,1.45-1.55,3.48-2.92,5.35-3.97,1.91-1.05,3.8-1.83,5.44-2.43,3.28-1.17,5.61-1.41,5.6-1.58-2.67-.54-4.24-.61-6.1-.49-1.86.14-4.07.47-6.41,1.24-1.17.38-2.38.87-3.58,1.49-1.23.67-2.33,1.29-3.64,2.49.23-1.92,1.42-4.16,4.21-6.34,1.38-1.07,3.13-2.08,5.23-2.89,1.05-.41,2.19-.75,3.41-1.05.61-.12,1.24-.25,1.89-.38.69-.1,1.53-.2,2.24-.24,3.71-.16,6.67.42,9.4.8,2.73.42,5.06.65,7.16.46,2.08-.18,3.93-.89,5.27-1.63,1.29-.77,2.16-1.34,2.31-1.24.13.09.1,1.07-.36,2.78M254.13,304.29c-3.33-1.74-2.38-9.57-4.87-12.57-2.4-2.89-9.91-2.92-11.14-6.78-1.23-3.86,4.74-8.68,4.98-12.51.26-3.97-4.98-9.6-3.33-13.11,1.65-3.51,9.07-2.52,11.91-5.13,2.74-2.53,2.77-10.46,6.43-11.76,3.66-1.3,8.23,4.99,11.86,5.26,3.76.27,9.1-5.26,12.43-3.52,3.33,1.74,2.39,9.57,4.87,12.57,2.39,2.89,9.91,2.92,11.14,6.78,1.23,3.86-4.73,8.68-4.98,12.51-.26,3.97,4.98,9.6,3.33,13.11-1.65,3.51-9.07,2.52-11.91,5.14-2.74,2.53-2.77,10.45-6.43,11.76-3.66,1.3-8.23-4.99-11.86-5.26-3.76-.27-9.1,5.26-12.43,3.52M266.53,322.08c-.24-.91.51-1.95,1.93-2.8,1.45-.88,3.59-1.55,5.99-1.91,4.8-.67,8.76-.42,8.92.67.08.57-.82,1.33-2.17,2.19-1.38.85-3.34,1.77-5.58,2.48-2.24.71-4.37,1.04-6.04.94-1.68-.07-2.81-.66-3.05-1.57M272,335.48c-.4-.74.03-1.82,1.1-2.93,1.07-1.12,2.82-2.31,4.85-3.27,4.07-1.9,7.75-2.49,8.24-1.28.48,1.21-2.17,3.98-5.91,6.18s-7.45,2.79-8.28,1.3M279.3,346.79c-.98-1.28.98-4.23,4.42-6.61,3.41-2.36,6.75-3.33,7.43-2.14.69,1.19-1.29,4.15-4.41,6.6-3.12,2.46-6.45,3.42-7.44,2.15M294.25,354.31c-2.59,2.46-5.64,3.64-6.68,2.47-1.04-1.17.43-4.14,3.29-6.63,2.86-2.49,5.82-3.56,6.6-2.39.77,1.18-.59,4.06-3.21,6.55M302.5,363.27c-2.17,2.37-4.85,3.47-5.99,2.46-1.15-1-.12-3.83,2.27-6.29,2.37-2.43,5.02-3.51,5.96-2.43.93,1.09-.08,3.89-2.24,6.26M307.67,453.79c-1.17.65-1.82.3-2.02-.33-1.7-5.44-1.7-9.48-.93-14.54,1.81-12.85,6.07-33.96,10.46-46.01-2.74,46.4-2.64,53.85-7.51,60.89M320.39,379.66c-1.46,1.95-3.62,2.82-4.83,1.94-1.21-.87-.88-3.27.74-5.34,1.62-2.08,3.78-2.95,4.83-1.94,1.04,1,.71,3.4-.74,5.34M152.21,270.4c-6,.54-9.67-3.57-9.67-3.57,0,0,2.95-4.7,8.95-5.25,1.06-.1,2.15-.05,3.22.08-.95-.54-1.86-1.17-2.67-1.89-4.61-4.09-4.44-9.73-4.44-9.73,0,0,5.24-1.13,9.85,2.97.82.72,1.55,1.57,2.22,2.46-.31-1.09-.53-2.21-.62-3.33-.51-6.33,3.38-10.2,3.38-10.2,0,0,4.46,3.11,4.97,9.44.05.65.05,1.31.02,1.98-2.71-1.05-4.27,2.32-6.02,2.97-1.75.66-4.98-.91-6.1.48-1.16,1.44.86,4.57.53,6.42-.31,1.8-3.28,3.96-2.65,5.8.3,1.17-.33,1.3-.97,1.35M186.01,262.91s-2.95,4.7-8.95,5.25c-1.06.1-2.15.05-3.22-.08.95.54,1.86,1.17,2.68,1.89,4.61,4.09,4.44,9.73,4.44,9.73,0,0-5.24,1.13-9.85-2.97-.82-.73-1.55-1.57-2.22-2.46.31,1.09.53,2.21.62,3.33.51,6.33-3.38,10.2-3.38,10.2,0,0-4.46-3.11-4.97-9.44-.05-.65-.05-1.32-.02-1.98,2.71,1.06,4.27-2.32,6.02-2.97,1.75-.66,4.98.91,6.1-.48,1.16-1.44-.85-4.57-.53-6.42.31-1.8,3.28-3.96,2.65-5.81-.3-1.17.33-1.29.97-1.35,6-.54,9.67,3.57,9.67,3.57M158.71,271.78c.9.8,1.35,2.71,2.06,4.02-.4.7-.83,1.38-1.32,1.99-3.88,4.86-9.22,4.69-9.22,4.69,0,0-1.07-5.53,2.81-10.39.5-.63,1.07-1.2,1.67-1.74,1.34.51,3.15.66,4.01,1.43M169.84,257.97c-.9-.81-1.35-2.71-2.06-4.02.4-.7.83-1.38,1.32-1.99,3.88-4.86,9.22-4.69,9.22-4.69,0,0,1.07,5.53-2.81,10.39-.5.63-1.07,1.2-1.67,1.74-1.34-.51-3.15-.66-4.01-1.43M248.12,263.68s4.99-2.48,10.55.43c.98.52,1.92,1.17,2.79,1.89-.56-1.01-1.05-2.08-1.4-3.18-1.98-6.21,1.02-11.09,1.02-11.09,0,0,5.19,1.97,7.17,8.18.35,1.1.57,2.26.71,3.42.28-1.13.65-2.25,1.14-3.29,2.76-5.87,8.15-7.08,8.15-7.08,0,0,2.35,5.26-.41,11.13-.29.61-.62,1.19-.98,1.76-1.86-2.46-4.94-.37-6.82-.78-1.87-.41-3.92-3.62-5.62-3.02-1.75.61-1.57,4.51-2.79,5.96-1.19,1.41-4.9,1.64-5.28,3.62-.33,1.2-.95.95-1.54.64-5.56-2.91-6.71-8.6-6.71-8.6M257.46,282.88c-5.89,2.09-10.51-1.08-10.51-1.08,0,0,1.86-5.47,7.75-7.57.76-.27,1.55-.45,2.35-.59.92,1.21,2.44,2.36,2.81,3.52.38,1.22-.18,3.15-.23,4.7-.71.39-1.43.74-2.17,1.01M275.45,296.71s-5.19-1.97-7.17-8.18c-.35-1.1-.57-2.26-.71-3.42-.28,1.13-.65,2.25-1.14,3.29-2.76,5.87-8.15,7.08-8.15,7.08,0,0-2.35-5.26.41-11.13.29-.61.62-1.19.98-1.76,1.86,2.46,4.94.37,6.82.78,1.87.41,3.92,3.61,5.62,3.02,1.75-.61,1.57-4.51,2.79-5.96,1.19-1.41,4.9-1.64,5.28-3.62.33-1.2.95-.95,1.54-.65,5.56,2.91,6.71,8.6,6.71,8.6,0,0-4.99,2.48-10.55-.43-.99-.52-1.92-1.17-2.8-1.89.56,1.01,1.05,2.08,1.4,3.18,1.98,6.21-1.02,11.09-1.02,11.09M279.08,265.57c5.89-2.09,10.51,1.08,10.51,1.08,0,0-1.86,5.47-7.75,7.57-.76.27-1.55.45-2.35.59-.92-1.21-2.44-2.36-2.81-3.52-.38-1.22.18-3.15.23-4.7.71-.39,1.43-.74,2.17-1.01"/>
      </g>
    </g>
  </g>
</svg>