<?xml version="1.0" encoding="UTF-8"?>
<svg id="Layer_1" data-name="Layer 1" xmlns="http://www.w3.org/2000/svg" xmlns:xlink="http://www.w3.org/1999/xlink" viewBox="0 0 505.1 504.24">
  <defs>
    <style>
      .cls-1 {
        fill: none;
      }

      .cls-2 {
        fill: #1f3d3a;
      }

      .cls-3 {
        clip-path: url(#clippath-1);
      }

      .cls-4 {
        clip-path: url(#clippath);
      }
    </style>
    <clipPath id="clippath">
      <rect class="cls-1" width="505.1" height="504.24"/>
    </clipPath>
    <clipPath id="clippath-1">
      <rect class="cls-1" width="505.1" height="504.24"/>
    </clipPath>
  </defs>
  <g id="Hackberry">
    <g class="cls-4">
      <g class="cls-3">
        <path class="cls-2" d="M256.27.14c.4-.05.78-.09,1.18-.11,1.41-.06,2.78-.17,3.88.81.41.93.09,1.99,0,2.98.73.57,1.7-.29,2.37.32.75.67.55,1.54,1.62,1.99.49-.11,1.08-.28,1.57-.28.77,0,.86.26,1.32.78.4,1.83-.89,2.23-1.38,3.84l.93.26c.57.61.5,1.3.61,2.12,1.18-.02,1.99-.98,3.07-1.3,1.8-.54,1.36,2.06,2.57,2.23.96.14,1.5-.29,2.44.17.09.23.29.44.29.69.02,1.15-2.05,4.34-2.46,5.9l-.11.4c3.36-.55,3.59.99,5.78.41,1.21-.32,1.74-.26,2.89.18l.28.11c.41-.26-.11-1.25.15-1.93.6-.38,1.15-.66,1.47-1.33-.09-.58-.26-1.28-.24-1.86.03-.6.38-1.04.86-1.35,1.48-.98,3.93-1.89,5.72-1.6,3.01.49,5.73,4.22,7.38,6.56-.21.52-.4,1.02-.55,1.56,1.62.61,3.47-1.51,5.07-1.76.43-.06.84-.03,1.19.23,1.02.76,1.02,2.02,1.16,3.18,1.02-.38,2.71-1.12,3.81-.73.73.26.83.41,1.18,1.05,0,.41.02.79-.14,1.19-.79,2.25-2.66,3.26-4.62,4.3,1.45-.03,2.49.21,3.79.84l1.97-2.16c1.06.35,2.09.78,3.13,1.19l.11-.12c-.76-.69-1.51-1.56-1.54-2.64-.03-.92.27-2.03.96-2.68.92-.84,2.15-.23,3.26-.15.55-.6.17-1.44.2-2.22.03-.7.26-.9.78-1.31.9-.18,1.36.38,2.17.61.86.24,1.28-.08,2.06-.4,1.59.4,2.52,2.31,3.42,3.61,1.24.06,2.28-.01,3.18.92l-.12,1.57c.69-.06,1.68-1.3,2.29-1.74.69-.49,1.19-.51,2-.35.58.54.58,1.22.7,1.96.24,1.42,2.22,1.77,2.73,3.04-.57,1.19-2,2.05-3.06,2.81,1.62-.15,3.36-.67,4.95-.61.87.03,1.21.23,1.77.87.14.76.23,1.45.14,2.22-.37,2.78-3.9,2.83-5.75,4.33-.78.63-1.24.92-2.23,1.15-.53.12-.87.11-1.25.53-.09.76-.11.92.2,1.61l.58.09c1.04-.81,1.97-1.13,3.21-1.47l.46-.12c1.31.84,3.55,2.31,4.11,3.78.14.35.15.52.4.83.17.21.17.2.47.2,1.22.02,2.23-1.24,3.12-1.96.72-.58,1.4-.43,2.26-.31l.31.05c.32-.37.26-.23.4-.63.24-.67.46-1.21.84-1.82,3.24-2.02,3.65,1.54,5.96,1.86.66-.21,1.41-.52,2.11-.43.55.08,1.04.64,1.3,1.1.32.55.14,1.19-.02,1.8l-.12.47c.34,1.07,1.9,2.26,2.71,3.07.26-.78.57-2.14,1.11-2.75.47-.54.99-.72,1.7-.76,1.76-.12,3.81.84,5.12,1.94.29.64.53,1.18.38,1.9-.38,1.86-2.78,2.4-4.11,3.41l.06.46c.92,1.1,2.46,1.16,3.56,2.02.55.43.81.8.89,1.5.14,1.42-.93,2.54-1.73,3.61l5.24,3.45c.24-.83.52-1.7.95-2.45.35-.6.9-1.12,1.6-1.24,1.54-.26,2.86,1.13,3.91,2.05.35-.41.72-.88,1.15-1.24.55-.46.98-.44,1.65-.4.92.63,1.53,1.16,2.7.99.58-.08.95-.11,1.53.05.73.67.58,1.28.78,2.23l.41.2c.61-.14,1.21-.24,1.83-.34,1.24.58,2.6,2.31,3.16,3.55,0,.4.08.66-.18.99-.87,1.12-3.36,1.35-4.68,1.65l1.65,2.46c1.27.03,3.07-.08,3.97,1.01.41.51.58.95.38,1.59-.81,2.58-5.04,3.3-7.18,4.28-.7.32-1.45.72-1.74,1.45,1.96.43,3.38-.41,5.38.57,1.19.58,2.02,1.01,3.32.61,1.07-.34,1.64-.27,2.63.18,1.01.47,1.21.93,1.59,1.94.17.43.29.86.55,1.22.49.7,1.07.57,1.83.67,1.1.15,1.39.29,2.08,1.22.06.08.43.6.5.69.52.55.69.54,1.41.58l.41-.37c.17-.51.32-1.13.58-1.61.21-.38.43-.67.86-.78.96-.24,1.68.26,2.48.73l.26.17c.58-.76,1.33-2.03,2.26-2.37.69-.26,1.13-.03,1.76.24.4.4.55.64.66,1.19.11.49.23.9.41,1.38.99.73,2.22.38,3.27.96.55.31.84.69.99,1.27-.26.4-.4.61-.49,1.08,1.62.84,3.9.01,5.43.96,1.5.92.08,1.89.29,3.06.11.52,2.17,1.41,2.67,1.8.5.41.54.79.58,1.4-.14.28-.21.6-.43.83-1.13,1.27-4.53,1.88-6.14,2.57-1.01.43-1.96,1.07-2.89,1.67,1.59-.24,3.41-.53,5.01-.38,1.65.17,3.64,1.11,4.59,2.54.35.52.53,1.13.34,1.74-.89,2.78-6.31,3.73-8.54,5.23-1.25.84-2.43,2.15-2.66,3.7-.14,1.01.15,2.02.73,2.83.17,0,.34-.02.51-.02,2.22-.03,3.35,1.27,4.81,2.72.29-1.04.63-2.49,1.37-3.34.25-.08.45-.14.7-.21,1.14.22,1.59.32,2.61.1.21-.18.41-.37.63-.55,1.96-1.54,2.31,1.35,3.71,1.53.81-.49,1.51-.96,2.46-1.11.08.09.17.17.24.27.08.09.14.2.21.3,1.05-.43,1.18-1.42,2.23-1.91.81.12,1.21.4,1.83.87.26.57.2.86.08,1.42-.09.44-.17.78-.17,1.22,0,1.04,1.77.8,2.43,1.47.03.58.05,1.22.23,1.79.27.9.84,1.16,1.64,1.53.6.27.99.46,1.47.92.14.43.23.75.12,1.21-.41,1.9-2.63,2.64-3.96,3.77-.52.43-.63.8-.69,1.44,1.19.64,2.48.89,3.74,1.3.92.31,1.21.66,1.65,1.5.11,2.86-2.57,4.91-4.34,6.83,1.82-.26,3.79-.46,5.62-.08.96.2,1.9.67,2.38,1.58.61,1.16.09,2.2-.31,3.35.98.02,2.19-.11,3.13.12,1.51.37.46,3.32,1.28,4.68.03.17.08.39.11.55-.53,1.58-2.89,1.73-4.03,2.71-.9.78-.11,1.51-.83,2.45-2.19.99-4.72.32-7.06.18-3.55,2.78-6.24,7.08-8.22,11.05,1.01.37,1.79.76,2.66,1.42.75-.81,1.62-1.91,2.77-2.09,1.62-.26,3.45,1.73,4.6,2.68.72-.83,1.56-1.93,2.77-1.93,1.77,0,3.67,3.19,5,4.33.08.06.15.14.23.2.28-1.54.32-5.26,1.54-6.36,1.09-.96.84.23,2.14-2.05.67-.29.66-.29,1.36-.09.4.5.72.95,1.25,1.33.64-.18,1.45-.55,2.11-.6.63-.05,1.36.4,1.79.84.47.49.46.96.5,1.61.05.7.09,1.08.41,1.7.43.43.67.5,1.25.6.43.08.72.11,1.13.29.4.18.47.41.57.86.72,3.24-2.34,4.01-3.55,5.53-.4.49-.41.47-.32,1.13,1.3-.05,2.17-1.57,3.61-1.38,1.16.17,1.73,1.54,2.25,2.45.95-.86,1.8-1.91,2.89-2.61.52-.34,1.18-.58,1.79-.41,1.25.37,1.62,1.51,2.12,2.6.98-.63,2.02-1.13,3.06-1.65.86.86,1.7,1.92,2.31,2.99.54.95.76,1.82.44,2.89-.5,1.65-2.45,2.55-3.82,3.36,1.41.15,3.01.5,4.17,1.36.61.46.79.92.93,1.65-.58,2.14-2.86,1.35-4.02,2.95.11.6,0,.41.35.87,1.97,2.57.52,1.8,1.13,3.26l.32-.14c.89-.38,1.68-.86,2.63-.37,1.16.6,1.27,1.97,1.54,3.12.51-.44,1.03-.9,1.57-1.26.31-.2.68-.3,1.05-.25,1,.14,1.72.91,2.15,1.74.66,1.27.98,2.87.58,4.26-.81.9-1.9,1.27-2.98,1.74,1.92,1.09,5.21,2.42,6.23,4.42-.05.61-.03.76-.58,1.16-1.42,1.01-3.29.9-4.91.64.55.52,1.47,1.24,1.76,1.96.26.63.15.87-.12,1.42-1.85,1.18-5.67.6-7.82.61.2.14.38.27.58.41.95.64,2,1.22,2.54,2.28.51,1.01.76,3.44.29,4.48-.26.54-.5.9-1.11,1.01-.66.12-1.09-.15-1.59-.5-.49-.34-.83-.54-1.42-.69-.35.57-.69.92-1.18,1.36-.35.08-.63.21-.98.08-1.09-.43-1.76-2.02-2.29-2.98-1.05.28-2.15.38-3.22.55-.43-.46-.78-.87-1.36-1.15-.41.18-.69.34-.98.69-.7.83-1.25,1.32-2.14,1.9l-.32.2c.95.17,2.55.29,3.3.95.89.79.73,2.54.75,3.62,1.16.77,2.64,1.79,3.03,3.21.84,3.22-3.27,4.23-4.58,6.37-.06.11-.12.2-.18.31-3.06-.81-5.47-.86-8.59-.35,1.12.32,2.4.6,3.42,1.15.98.54,2.14,1.45,3.21,1.76,1.44.41,3.1-2.35,4.26-2.92,1.01-.49,3.13-.32,4.28-.37,2.58,1.51,4.65,3.65,6.71,5.79-.43,1.6-1.05,3.03-1.68,4.56-.26.63-.72,1.38-.46,1.99.95-.44,1.88-1.45,2.45-2.32.09-.14.17-.27.26-.41,2.66-1.36,5.62-2.08,8.54-2.71.61,1.04,1.48,2.32,1.36,3.59-.18,1.7-1.94,2.86-3.15,3.88,2.48-1.21,6.13-2.29,8.9-2.09.66.05.92.15,1.32.66-.32,3.16,1.65,2.89,1.57,5.18-.78,1.15-2.41,2.1-3.62,2.74-.6-.04-1.21-.17-1.79.01-.34.11-.76,1.65-.95,2.1-.38.27-.63.49-.93.86,1.94.54,4.04-.95,6.07-.2,1.67,1.73.17,2.69.72,4.48.18.6,2.48,1.45,3.13,2.19,1.44,1.6,2.26,3.84,3.13,5.78-1.65,1.86-3.73,5-6.33,5.26-.08,0-.15.01-.23.01-.44,1.18,1.7,4.05,1.22,5.79-.55,2.06-1.68.87-3.1,1.16-.41.09-1.1.6-1.5.81-1.01-.01-.87-.6-1.62-1.05-.82-.51-2.78-.57-3.82-.96-1.56-.61-3.07-1.92-4.48-2.86l-.12.4c.2.46.57,1.15.55,1.67-.03.89-1.1,2.95-1.74,3.51-1.28-.06-2-1.3-3.27-1.45-3.19-.38-4.16-3.61-6.42-4.05l-.4.37c-.32,1.21-.06,2.32.12,3.53l-1.36,1.15c-.01.84.02,1.71-.08,2.55-.08.72-.09,1.04-.66,1.5-1.13.01-1.8-.9-2.81-1.21-.58-.18-.99.05-1.51.24-2.18.86-3.42.21-5.5-.54l-1.77-2.41c-1.02.93-1.68,1.35-3.04,1.59-1.85-.58-1.44-2.26-2.6-3.53-2.9-.73-6.86.44-9.9.57,3.44,2.44,7.05,4.54,10.7,6.65l.43-.2c3.45-1.67,3.07.35,6.13.64,2.03.2,4.11.31,5.85,1.48q.4.69.26,1.47c-.61.95-1.45,1.36-2.4,1.91.86,1.13,1.77,2.02,2.83,2.97,2.64-.86,5.44-1.76,8.19-.8,1.47.52,4.4,2.23,5,3.71.84,2.05-2.26,3.67-2.89,5.33-.15.4,0,.47.15.83,1.09.72,2.49.4,3.71.7,1.05.26,1.82,1.24,2.31,2.14-.12.81-.9,1.15-1.5,1.71.08.81,2.05,1.91,2.63,2.81.02.66-.01.96-.49,1.45-4.08,4.13-5.24,3.32-10.41,3.64.75,1.39,1.94,2.6,2.55,4.07.38.92.4,1.45.02,2.37-1.68,1.45-4.39,1.56-6.53,1.91.53.87,1.18,1.79,1.56,2.74,1.01,2.55-1.6,6.37-2.63,8.7-3.2-3.42-6.79-6.44-10.06-9.78.11.9.24,1.8.26,2.71.11,4.31-2.2,7.89-5.12,10.82-1.15-1.57-1.42-3.29-3.47-3.87-.14-.05-.28-.08-.41-.11-.79-.96-.21-2.26-.79-3.26-.17-.28-.18-.18-.55-.24-.99,1.77-2.02,5.09-3.45,6.4-2.58.75-1.96,1.57-3.64,3.13-.55.52-.93.52-1.65.5-1.13-.79-.79-1.79-1.21-3.04-.32-.99-1.3-1.59-1.56-2.57-.41-1.54.18-3.53-.43-5-.23-.55-.43-.58-.93-.81-1.44.17-2.71.92-3.99,1.53-1.07.5-1.56,1.31-2.22,2.25-.7-.87-1.42-1.88-2.26-2.61-.99-.89-2.17-1.6-3.53-1.47-1.93,1.01-1.3,3.51-2.26,5.16-.78,1.35-2.31,2.65-3.32,3.91-1.12-1.05-2.38-3.33-3.74-3.91-.61.15-.4.05-.93.37-.12.08-.24.15-.37.23-.26-.06-.52-.12-.79-.17-1.93-.32-1.12,2.63-2.64,3.67-1.7-.37-2.43-2.35-3.44-3.62-.29-.38-1.15-1.19-1.67-1.04-1.86.53-5,4.39-7.37,3.99-2.12-.35-1.01-1.88-1.86-3.19-.87-.32-1.68-.01-2.54.18-.4,1.12-.84,2.22-1.27,3.32,3.47,6.33,6.8,1.64,10.27,4.66,1.63,1.42,1.65,3.27,1.8,5.27.83.4,1.74.76,2.51,1.25.58.37.78.63.93,1.28-1.35,2.66.38,3.01.18,5.49l-.63.35c-1.47-.12-2.66-.79-3.91-1.48-.11.2-.23.38-.34.57-.47.75-.9,1.1-1.79,1.24-2.23.37-4.58-1.8-6.27-2.99-.61,3.12.58,4.91,1.18,7.86.4,1.93,1.56,6.91.52,8.5-1.96.78-2.83-1.7-4.29-2.29-.75-.31-1.41.79-2.37.76-.78-.57-1.36-1.31-2.12-1.88-.78-.6-1.96-1.04-2.61-1.77-.58-.64-.95-1.93-1.27-2.74-.92.98-1.67,1.91-3.09,1.99-2.61-1.5-.08-5.59-1.47-7.17-.55.01-1.09,0-1.64-.05l-.18-.43c.24-1.31,1.5-2.02,2.52-2.72-1.16-.43-2.14-.98-3.2-1.62-.46,1.25-2.29,5.4-3.12,6.1-.34,0-.83.03-1.18-.05-1.54-.35-1.8-2.17-2.43-3.38-1.13.69-1.77.32-2.95.06-1.04.64-2.32,1.62-3.61,1.51-.63-.05-1.13-.21-1.5-.75-1.09-1.62-.2-4.23.23-5.94-1.96-.31-4.01-.28-5.98-.35.47-1.57,1.09-3.03,1.76-4.51-1.76-.55-4.54-1.36-5.79-2.74-.52-.58-.63-1.12-.61-1.85.02-.53,0-.9-.15-1.42-1.04-.89-2.02.63-3.29.15-1.36-.5-1.86-1.97-2.35-3.21.64-.17,1.28-.29,1.94-.43,1.8-.38,2.67-1.39,3.64-2.87l.12-.2c2.46-1.05,6.99,1.09,9.54,1.7-.92-1.15-2.05-2.08-3-3.22l.06-.57c.78-1.21,2.17-2.35,3.53-2.87.18-.08.73-.23.9-.18,1.13.24,3.3,2.06,4.68,2.57.89.32,1.62.75,2.42,1.25,1.28-1.05,2.58-1.97,3.99-2.86l2.9-.05c-.66-1.06-1.25-2.15-1.88-3.24-3.3-.66-5.39-1.47-7.95-3.71-5.55,1.09-11.31,1.47-16.93,2.08-6.04,5.88-13.47,10.21-20.62,14.58,6.62.44,11.97,2.92,17.62,6.2,1.65.96,3.39,1.85,4.88,3.04-1.93-.29-4.02-1.51-5.84-2.29-3.81-1.62-7.72-3.33-11.78-4.17-9.12-1.88-18.08,2.98-25.1,8.45-3.15,2.46-6.19,5.32-9.66,7.35-4.57,2.68-9.91,3.45-14.4,6.4-7.43,4.89-15.67,15.83-17.38,24.68-2.66,13.69,1.53,71.94,9,82.7,1.5,2.17,3.68,3.62,5.75,5.21,11.54,8.8,14.34,2.72,25.25,6.36,7.12,2.37,12.91,7.49,19.9,10.16,6.83,2.61,12.12,1.99,18.72,3.26l.5.11c-8.77,1.22-17.73,1.04-26.33-1.28-3.75-1.01-7.4-2.57-11.26-3.09-3.93-.52-8.1.12-12.06.21,1.8.78,3.62,1.54,5.43,2.31-2.92.03-5.84.06-8.74-.34-3.85-.52-7.61-1.56-11.46-2.02-3.13-.37-6.25-.31-9.39-.28,4.22,3.35,8.94,5.11,13.92,7.02-10.96-1.73-19.35-2.89-29.83-7.03-2.89-.99-5.98-1.58-8.86-.12-.78.4-.96.8-1.24,1.61.32,3,3.94,5.06,6.11,6.83-6.27-1.7-10.07-3.65-15.24-7.54-1.97.98-7.11,4.11-9.19,3.5.02-1.06,1.04-2.02,1.62-2.86.47-.7.63-1.39.46-2.22-.69-.7-1.21-.61-2.16-.58-4.86.11-9.66,1.24-14.52,1.53-4.36.26-8.88-.4-13.19.09-4.57.52-9.02,1.92-13.51,2.89-8.73,1.86-19.82,2.87-28.64,1.85l-.35-.57-.32.18s.05.08.05.11c.03.15.05.31.08.46l.12-.79c3.01.7,23.92-3.99,27.63-5.44,4.45-1.73,8.36-4.4,12.95-5.88,3.91-1.27,8.18-1.18,12-2.72.81-.32,1.54-.78,2.25-1.33,1.83-1.44,3.35-3.26,5.17-4.71,2.15-1.73,4.74-3,6.62-5.03,1.35-1.45,2.26-3.36,3-5.18,1.02-2.61,1.8-5.32,2.32-8.07,1.36-6.97,1.91-14.18,2.66-21.25,1.25-11.75,2.46-23.54,2.57-35.37.03-3.39.15-6.86-.2-10.24-.34-3.32-1.38-6.49-2.69-9.54-3.53-8.24-9.84-16.96-18.69-19.9-3.7-1.22-7.67-2-10.94-4.22-2.44-1.67-4.43-3.87-6.59-5.87-3.93-3.61-8.88-6.63-13.83-8.59-13.28-5.26-19.79,2.32-31.27,7.34,1.56-1.64,8.83-6.46,11.1-7.64-2.92-.37-7.21-1.86-9.98-.79-1.03.4-1.68,1.56-2.71,1.88-1.07.35-2.41-.44-3.39-.87.86,1.5,1.59,2.96,2.23,4.59l-3.03.73c-.49.57-.9,1.31-1.44,1.8-.63.58-1.99.24-2.81.17l-.12.24c.58,1.02,1.15,2.14,1.47,3.26.35,1.22.2,2.06-.38,3.16-.37.2-.49.4-.93.31-1.41-.32-2.51-2.22-3.33-3.3-.63.58-1.24,1.19-1.91,1.73-.72.57-1.64,1.04-2.58.83-1.15-.26-1.77-1.16-2.4-2.08-1.65.9-3.18,1.48-5.01,1.86-.66-.4-1.33-.79-1.97-1.19l.17.24.29.41c.52.73.98,1.27,1.1,2.19-.83,1.36-1.41,2.77-2.02,4.22-.89.03-3.07-2.49-4-3.04-.83-.49-1.54-.58-2.48-.35l-.09.81.38.35c.84.15,1.6.2,2.26.81.78,1.56.29,3.13,0,4.77-2.8,2.86-5.17,4.33-9.15,5.01-1.25.21-2.92.43-3.97-.47-.53-.46-.64-.96-.64-1.63-.02-2.26,2.14-4.29,3.54-5.81-.75-.66-1.3-1.1-1.47-2.12.64-1.71,2.38-1.51,3.76-2.41l.06-.41c-.21-.15-.37-.26-.63-.35-.78-.24-1.36-.06-2.08.26-.08.03-.15.06-.21.11l-2.05-1.54s-.06,0-.09,0c-1.78,1.11-3.84.14-5.26,1.55-.31.31-.58.64-.98.83-1.93.9-3.74-1.54-5.32-2.26-.64-.29-1.51-.25-2.22-.43-.72-.79-.95-2.92-1.01-3.97,2.31-2.95,4.94-1.97,7.9-3.41-.35-.35-.2-.26-.58-.46-.64-.34-1.06-.5-1.48-1.11-.17-.72-.14-1.22.2-1.88.52-1.01,1.85-2.34,3.01-2.57,1.11-.21,1.89.49,2.83,1.01.2-.06.32-.09.5-.23.5-.38.66-.78.78-1.36.12-.57.28-.95.57-1.45.9-.73,2.03-.87,3.13-1.13.73.43,1.47.84,2.2,1.24.93.51,1.56.81,2.61.49.72-1.41-.72-3.27-.98-4.69-.12-.63.06-.37-.43-.75-2.12,1.62-5.41,3.15-8.14,3.15-1.36,0-2-.44-2.92-1.41-.06-.08-.14-.15-.2-.21l-.81.84c-.47.17-.73.24-1.24.17-.26-.05-.52-.11-.79-.14-1.28-.21-2.46.93-3.45,1.64-1.28-.26-2.57-.61-3.84-.9-1.47.61-2.92,1.18-4.43,1.66-1.77-1.36-2.74-1.6-4.89-1.73-.6-1.13-1.24-2.35-.98-3.67.31-1.57,1.77-2.52,2.96-3.39-1.15-.34-2.38-.81-3.56-.96-1.15-.14-2.02.67-3.09.72-.81.05-2.25-.69-2.9-.18-.76.58-.76,1.24-1.76,1.65-1.36-.41-3.57-2.75-5.26-3.61l-.41-.21c-.18,1.54-.31,5.95-1.45,6.89-.61.5-1.21.23-1.7,1.05-1.65,2.77-.95,3.12-3.67,5.62-1.68-1.54-3.91-3.5-4.17-5.87-.11-.98-.06-1.96-.47-2.87-2.66-.58-5.53,3.71-7.76,4.98-.48.01-.51.14-.87-.21-.6-.57-.87-1.5-1.21-2.23-2.11-4.6-2.08-5.32-2.12-10.42-.63.66-3.19,4.13-3.81,4.16-.6.03-.8-.26-1.5-.09l-.23.41c-.06.11-.24.43-.29.54-.7,1.57-3.09,2.86-4.48,3.96-.86-1.97-1.65-3.81-2.8-5.64.54-1.12,2-3,1.97-4.14-.18-.05-.44-.12-.63-.15-.38-.06-.72-.05-1.08-.15-1.86-.57-4.19-1.88-5.12-3.64.11-2.15,2.86-2.51,3.44-4.4-1.35-1.42-3.35-.23-5.12-.55-1.53-.27-4.46-2.46-5.17-3.87-.87-1.73,1.21-2.03,1.5-3.41-.41-.58-1.04-1.36-.86-2.12.28-1.13,1.68-1.93,2.58-2.58l4.42-.4c-1.04-1.5-3.19-3.77-3.24-5.59-.03-1.94,4.42-4.07,5.87-5.27,1.94,1.02,3.88,1.25,5.88,2.06,1.13-.99,2.38-1.85,3.61-2.72l-.26-.17c-1.01-.63-1.77-1.09-2.06-2.31.81-2.9,4.57-1.85,6.27-3.15.27-.21.6-.78.83-1.07,1.16-.18,2.51.23,3.65.44,5.91-2.54,10.51-6.19,15.97-9.54,1.28-.78,4.22-2.38,4.57-3.88l-.4-.21c-2.2.11-4.14,1.5-6.28,1.53-3.03.05-7.76-1.94-10.39-1.12-.2.23-.41.34-.43.67-.05,1.74,2.38,4.19,3.51,5.43-1.36.09-2.32,0-3.44.92-.53.44-1.04.82-1.64,1.19-.87.09-1.51-.43-2.23-.85-.95,1.22-1.62,2.81-3.15,3.36-1.18-.17-2.08-1.04-3.01-1.73l-1.8,2.05c-1.82-.01-3.62.78-5.36.6-1.61-1.3-1.13-4.08-2.08-5.9-.5-.96-.67-1.76-.85-2.83l-3.27.75c-.57,2.34-1.54,3.7-3.61,5.03-1.82,1.18-1.38-.44-2.54-.11-.76.21-1.24.89-2.09.7-.93-1.13-.73-3.96-.78-5.36-1.91,1.93-3.87,2.4-6.39,3.13-.18.35-.34.63-.58.95l-.66.02c-.36-.3-.69-.6-1.02-.95-.16-.07-.37-.15-.54-.22-.62.11-1.11.51-1.68.83-.78-.01-.73-.08-1.28-.63-.55-1.51-.11-3.81.09-5.4.34-.44.66-.85.95-1.34-1.96-.81-3.76-1.73-5.3-3.19-.96-.92-1.45-1.74-1.5-3.09.29-.92,1.01-1.38,1.73-1.96.31-1.04.41-2.09.55-3.18.03-.01.04-.03.08-.04,1.27-.76,2.43-1.22,3.84-1.67-.47-1.16-1.02-3.32-.43-4.51.63-1.25,3.65.02,4.74.12.7.06,1.42-.14,2.1-.29-.9-.87-.96-1.12-1.28-2.34-.78-.83-1.76-.64-2.8-1.06-1.18-.46-2.96-1.73-3.29-3.02-.52-2.06,1.88-1.44,2.17-2.54.23-.86-.14-1.3.38-2.16,2-.99,5.78.54,7.79,1.16-.61-.73-1.39-1.54-1.62-2.51-.26-1.13-.28-2.19.37-3.18.64-.47,1.15-.66,1.94-.67,4.52-.08,6.5,2.34,9.4,5.23.63.03.64-.03,1.16-.4.24-1.82-1.86-3.7-2.51-5.43.46-1.33,6.43-4.17,8.15-5.2,1.59.14,2.61.09,4.08-.6,1.82.81,4.36,2.28,6.37,2.05,2.15-.24,3.25-1.93,4.49-3.5-3.42.92-7.46,1.74-10.96.81-2.72-.72-4.34-2.34-5.72-4.68,1.04-1.74,2.17-2.49,3.7-3.74.31-.57.69-4.6.64-5.46-1.68-2.8-7.7,1.07-10.44-.54-.41-.75-.43-1.24-.17-2.06.64-1.97,3.36-2.86,5.07-3.55-1.89.17-3.7.2-5.56-.23-.87-.2-1.33-.43-1.79-1.18.11-.47.18-.89.18-1.38-1.07-.32-2.42.24-3.52.43-.98.15-1.44.12-2.25-.46-.17-.41-.32-.76-.26-1.24.18-1.33,1.92-2.38,2.9-3.18l-.78-.72c-.29-.26-.66-.55-.85-.89-.35-.58-.25-.99-.08-1.6,1.13-1.18,2.74-1.27,4.26-1.51-.75-.41-1.51-.83-2.25-1.25-.78-.46-1.68-.96-1.93-1.88.63-1.44,2.52-2.12,3.41-3.45-.06-.7-.09-1.21.08-1.89,3.18-2.32,6.14,1.74,7.49,1.56.52-.08,1.45-1.19,1.99-1.19.44,0,.99.24,1.51.26-.66-.67-1.51-1.45-1.89-2.31-.23-.51-.31-1.12,0-1.61.87-1.42,2.98-1.53,4.45-1.71-1.72-1.22-5.79-2.18-6.29-4.07-.04-.15-.02-.41.02-.56.39-1.28,1.7-1.79,2.8-2.34l-2.66-2.54c.15-1.42.53-3.12,1.48-4.22.49-.58,1.19-.93,1.96-.92,1.27.05,2.19,1.01,3.07,1.79,1.15-.84,2.35-1.7,3.84-1.62,1.59.08,2.64,1.24,3.62,2.35.05.06.09.11.14.17,1.85-2.43-1.9-5.89-.83-8.61.73-1.88,2.05-.69,3.47-1.36.6-.73.58-2.15.86-3.1.44-.44.66-.69,1.33-.69,1.44,0,2.43,1.62,3.18,2.65,1.21-.37,2.03-.57,3.27-.18.79,1.15.32,2.97.78,4.37.34,1.02,1.62,3.24,2.58,3.68l.09-.37c-.55-1.18-1.25-2.92-1.06-4.25.11-.73.23-.81.79-1.22,1.24-.14,2.34.44,3.55.69.41-.43.34-.24.5-.75.29-.9.47-2.06,1.33-2.63,2.75-1.83,6.36,2.77,8.74,3.13.75.12.87-.03,1.45-.46.08-.2.24-.38.24-.6,0-.08-.09-.11-.14-.17-1.64-1.82-3.26-3.03-3.82-5.59-.69-3.16,1.48-2.17,2.54-3.9-1.18-1.19-1.62-3.12-2.83-4.07-1.25-.14-2.26,1.19-3.51,1.38l-.73-.63c-.47.17-.35.06-.67.38-.52.5-.92.92-1.57,1.28-.69-.06-.78-.11-1.35-.52-.76-1.39-.18-2.78.18-4.22-1.38-.57-2.52.93-4.22-.03-.75-1.16-1.32-2.31-1.33-3.71.49-.99,1.41-1.41,2.29-2.05.18-.86-.23-1.3-.61-2.06,1.51-.83,2.72-1.62,3.97-2.78.11.05.22.11.34.15l.47.21c.34.15.75.4,1.12.44.6.08.98-.09,1.47-.41.37-.24.41-.31.89-.4.67.41,1.25.87,2.06.95l.11-.29c-.5-.37-.98-.64-1.24-1.22-.38-.86.28-2.02.63-2.78l.17-.35-3.72-1.22c-.2-.61-.41-1.21-.64-1.8-.2-.54-.46-1.06-.5-1.64-.08-.87.2-1.74.76-2.4,1.15-1.34,4.17-1.64,5.84-1.79-1.5-.7-3.36-1.41-4.32-2.81-.47-.7-.57-1.35-.43-2.19.61-.92,1.71-1.13,2.69-1.56l.05-.54c-.21-.37-.54-.81-.66-1.21-.2-.64-.11-.79.2-1.31.4-.21.83-.41,1.19-.67.47-.34.5-.75.61-1.3.21-1.07.32-1.63,1.18-2.35,1.93.15,5.12,2.05,6.82,2.96l.23-.08c.05-.99.08-1.71.55-2.6.61-.43.92-.64,1.7-.58,2.52.18,4.72,2.98,6.28,4.72.32-.52.64-1.07,1.02-1.55.38-.49.66-.64,1.25-.72.7.46,1.39.79,2.17,1.1l.26.09h-.09s.85-.41.85-.41c-.58-.72-1.24-1.3-1.92-1.9l1.94-2.12c-.57-.29-1.27-.57-1.76-.96-.76-.63-.87-1.82-1.06-2.74-1.65-.17-3.3-.3-4.95-.43-1.33-1.27-3.12-2.14-4.36-3.46-.55-.58-.89-1.56-.75-2.35.17-.98,1.01-1.62,1.83-2.05,2.43-1.27,4.05-.99,6.48-.18-1.83-2.9-5.89-3.71-6.62-5.61-.14-.37-.15-.73.02-1.08.55-1.28,2.06-1.7,3.26-2.19-.47-.9-.89-1.74-.63-2.78.41-.57.69-.84,1.31-1.16.76-.02,1.21.46,1.79.9.38.29.43.23.89.26.46-.83.93-1.85,1.91-2.12,1.74-.49,3.64,1.07,4.98,1.99-1.02-1.19-2.87-3.55-2.81-5.2.03-.73.15-.84.66-1.3,1.25-.24,1.71.09,2.78.66l.4-.14c.24-.41.5-1.02.84-1.36.26-.28.52-.35.87-.32,2.94.27,5.98,4.52,7.55,6.65-.41-.93-.93-1.97-1.06-2.99-.09-.81.11-1.41.61-2.03.72-.29,1.3-.05,2.02.15.5.14.23.14.79-.05.09-.4.18-.82.31-1.21.44-1.41,2.89-2.49,4.2-3.2.7-.38,1.01-.72,1.8-.49.37.44.41.76.5,1.32.08.5.15.95.32,1.45.52-.12.35-.02.73-.35.57-.51.9-.95,1.67-1.12,1.11.35,1.79,2.12,2.86,2.81.43-.75-.24-1.48.17-2.38.64-.15,1.25-.31,1.8-.69.63-.43.84-.89.96-1.61-1.02-1.59-5.99-1.48-7.96-2.37-1.33-1.74.35-1.73.26-3.35-.06-1.11-.92-1.99-1.02-3.09-.05-.43.18-.54.44-.84,2.2-.98,4.69-.9,7.04-.96-1.15-.98-2.38-1.9-3.22-3.16-.09-.72-.14-.78.23-1.39.44-.21,1.01-.43,1.39-.73,1-.79.34-2.32,1.27-3.23.09-.09.21-.16.33-.2.68-.26,1.25-.14,1.84.22.7.41,1.16.96,1.35,1.77.03.15.06.32.09.47h.2c.18-.64.43-1.38.96-1.82.58-.48.81-.51,1.53-.52,1.48.66,2.43,2.22,3.41,3.47.29-1.47.46-2.49,1.59-3.5.41-.12.64-.29,1.07-.14,1.28.46,1.79,2.03,2.32,3.16.7-1.65.99-2.11,2.63-2.9l.32-.15-.52-.44.37.15c-.15-.41-.15-.32-.21-.7-.29-1.62.12-2.19,1.04-3.49-.98-.84-2.29-1.86-2.61-3.16.54-.8,2.45-.89,2.72-1.73.29-.84-.35-1.62.49-2.35,1.38-1.21,2.35.99,3.69,1.13.58-.32,1.07-.58,1.74-.67.78.38,1.36,1.44,1.86,2.14.67-.96,1.53-1.57,2.45-2.28-.21-.52-.38-.89-.38-1.45.44-.54.92-.96,1.44-1.42.25-.87.31-1.56.31-2.46v-.31c.64-.81,3.33-1.13,4.45-1.42,2.48,3.46,2.09.78,4.37,1.39.66.17,1.28.66,1.57,1.28.37.78.14,1.47-.12,2.23-.17.5-.32.86-.29,1.39.78.06,1.3-.25,2-.54.96.46,1.94.9,2.9,1.33-.17-1.4-.78-2.92-.04-4.26.96-.44,2.05-.03,3.12-.01,1.89-1.97,2.61.09,3.3-.57,2.26-2.19.31-2.05,4.26-3.59-1.77-.98-3.73-1.28-5.64-1.91-1.1-.35-2.64-.84-3.19-1.89l.46-.78c-.06-1.07-1.22-1.59-1.74-2.57.15-.76.46-1.42.81-2.11.43-.82.95-1.94,1.88-2.23,1.77,0,3.29.82,4.8,1.68-.61-1.16-1.7-2.73-1.39-4.03.81-.48,1.74-.44,2.66-.51.79-.05,1.18-.08,1.86-.52.46-.29.76-.47,1.31-.58,1.3.34,2.31,1.89,3.09,2.92-.08-1.64-.34-3.47.27-5.03.84-.55,1.6.06,2.54-.2.44-.12.82-1.11,1.04-1.51.64-.31.66-.32,1.36-.18.54.52.81.92,1.56,1.1.47-.38.92-.69,1.44-.99,2.75.76,1.6,4.02,3.27,5.21.58-.05.89-.05,1.42.21.63.87.84,2,1.13,3.03l2.57-1.51.18.23.32.37c.46.55.95,1.28,1.6,1.62.41.2.43.09.84-.04.93-3.01-4.19-3.36-4.82-6.01.52-1.04,2.54-2.06,3.44-2.9.26-.24.17-.21.55-.29,1.19-.23,2.38.8,3.33,1.42.08-1.07.06-2.23.4-3.24l.5-.14c3.15,1.06,2.11-.69,4.56-1.07.72.24.95.73,1.35,1.33l.17.26c.09-.32.18-.64.29-.95.25-.75.44-1.3,1.16-1.67.5.2.89.35,1.43.37.99-1.3-.21-2.98,1.21-4.42.9-.09,1.09.23,1.9.47.93.27,1.35-.14,2.17-.57,1.99-.08,1.53,1.44,2.78,2.19.78.47,1.79.08,2.34,1.02.78,1.33.08,3.29,1.59,4.37.41-.57.67-.86,1.3-1.21,1.67.09,2.71,1.65,3.78,2.78.54-1.24,1.21-2.38,1.86-3.56-.02-.02-.05-.04-.07-.05-.84-.66-1.51-1.53-1.9-2.52-.75-1.87-.25-2.76.72-3.4.6-.4.76-.26,1.43-.11l.4.09c1.05-.55.93-1.67,1.96-2.32,1.27.12,2.37,1.16,3.35,1.93l-1.33-1.74c-.95-1.25-2.77-3.32-2.37-5.03.15-.66.58-.93,1.12-1.24.9-.08,1.57.17,2.43.46l.37.12c.31-.54.61-1.02,1.01-1.5l.53-.03c1.29.44,2.09,1.7,2.95,2.71.18-.81.35-1.85.98-2.46.54-.52,1.03-.7,1.77-.64,2.09.15,3.39,2.4,4.57,3.87.4-.8.79-1.67,1.45-2.28.35-.32.86-.58,1.35-.52,1.28.15,1.97,1.39,2.66,2.35.01-1.02-.23-2.75.18-3.68.28-1.18,1.16-1.45,2.23-1.9M187.72,335.61l-.35-.44c1.5.32,6.51,6.98,7.44,8.43,4.31,6.71,6.57,14.45,15.41,16.37,2.09.46,4.25.6,6.32,1.05,5.67,1.27,10.33,4.54,14.62,8.32-12.28-23.4-13.59-27.17-40.14-35.46-13.53-4.23-22.96-3.25-36.18-5.03-6.22-.84-12.42-2.76-18.63-3.21.66.81,1.27,1.59,1.83,2.46-1.37.84-2.81,2.05-4.51,1.68-.31-.06-.58-.18-.87-.27-.6-.21-1.38-.28-1.97.06-.73.41-1.28,2.06-2.11,2.7-1.59-.14-3.1-2.99-4.49-2.21l-.17.29c-.44.81-.72,1.27-1.53,1.76.76,1.05,4.08,1.94,5.35,2.76,1.19-.64,2.49-1.22,3.88-.84,1.77.49,2.7,2.46,3.59,3.91,1.13-.72,1.82-1.08,3.16-1.25.98-.12,1.73-.2,2.32-1.09.6-.85.63-1.72,1.6-2.18,1.21.17,1.92.66,2.92,1.31l3.07-1.25c2.47,1.77,4.58,4.55,5.12,7.6.14.81.12,1.67.12,2.49,8.8.14,11.97.81,20.86-1.71-4.03-2.4-15.85-7.88-18.49-10.86,2.64.31,35.08,15.47,39.27,18.02-2.32-4.55-4.63-9.12-7.44-13.43M244.78,331.48c2.87-16.62-2.06-34.32-11.73-47.99-4.84-6.84-10.49-12.68-16.33-18.65-1.27-1.3-2.89-3.38-4.46-4.2.4,7.03,1.42,14.08,2.29,21.06,1.02,8.23,1.59,17.26,4.46,25.08.96,2.6,2.35,4.92,4.43,6.78,2.4,2.14,5.25,3.86,7.84,5.76,2.95,2.17,5.6,4.61,8.11,7.27,1.18,1.25,3.51,5.07,5.04,5.45l.35-.57ZM289.5,360.23c5.61-1.28,11.18-2.46,14.51-7.7,1.18-1.85,2.02-3.92,3.12-5.83,2.93-5.12,7.18-8.75,11.9-12.14-4.78,5.3-8.98,10.19-12.11,16.68,2.46-1.68,4.92-3.31,7.58-4.69,4.31-2.23,8.87-3.97,13.24-6.09,5.12-2.49,9.91-5.44,14.72-8.46,1.05-.67,3.62-1.94,4.14-3.06-.64-.05-1.15-.03-1.77.09-9.18.92-18.17,2.64-27.2,4.49-5.21,1.07-10.4,1.99-15.43,3.77-8.52,3.04-18.71,8.75-24.48,15.75-4.03,4.87-6.25,11.58-7.19,17.75,5.62-4.72,11.62-8.99,18.98-10.55M266.41,347.46c4-5.5,7.51-8.17,13.03-12.04l1.25-.69c4.29-2.83,8.38-5.53,11.87-9.36,12.72-14.07,11.35-24.3,32.99-28.6,1.31-.26,2.49-.66,2.86-2.05-.3-.6-.37-.75-.92-1.13-1.38.01-3.09,1.82-4.26.38-.83-1.01-.98-2.31-2.37-2.72-7.15.81-45.85,28.83-52.37,35.34-2.14,7.15-2.51,13.43-2.08,20.86M264.48,312.97c9.16-9.97,21.73-20.92,24.85-34.62.84-3.7.83-7.65.67-11.42-.17-3.56-.57-7.12-1.21-10.63-2.55,4.03-4.72,8.28-7.13,12.4-7.97,13.58-13.79,23.11-16.75,39.07-.34,1.77-1.02,3.68-1.04,5.47.5-.08.3.03.61-.26M201.02,324.49c-1.5-4.08-2.72-8.26-3.99-12.42-5.53-2.84-11.88-5.53-18.07-6.41-.58.84-1.08,1.71-1.97,2.26-2.18.35-2.61-2.23-5.06-.4-2.43-.5-3.7-3.88-6.15-2.93-.63.24-1.01.28-1.62-.04-1.8-.9-3.07-3.04-4.25-4.61-.9-.37-1.8-.76-2.75-1.02l-.14.52c-.15.57-.35,1.05-.61,1.59,1.65,5.93,11.3,12.69,16.43,15.59,9.06,5.12,19.38,8.8,29.43,11.42l-1.27-3.54ZM302.74,324.57l-2.09,3.07c6.83-1.47,14.02-2.64,20.45-5.44,4.4-1.91,8.2-5.05,12.1-7.79,5.62-3.96,11.38-8.02,17.3-11.5-.46-.67-.87-1.34-1.27-2.08-.5-.93-.85-1.51-1.91-1.88-.7,2.37-1.22,3.97-2.93,5.84-1.37-.66-3.39-1.97-4.92-1.63-1.91,1.21-.83,4.95-3.83,4.23-1.18-.27-2.21-1.18-3.18-1.88l-.26.12c-1.18.55-3.8,1.66-5.07,1.33-.64-.17-.96-.47-1.14-1.11-.37-1.21.2-2.25-.82-3.19-12.39,2.98-15.75,12.37-22.42,21.92M207.77,304.07c.85.66,1.73,1.3,2.55,1.99-.73-3.91-1.38-7.8-1.71-11.76-.28-3.18-.28-6.49-.84-9.62-.23-1.27-.58-2.64-1.25-3.76-1.83-3.02-5.18-5.54-7.53-8.19-2.22-2.49-4.02-5.6-6.43-7.87-1.22.67-2.51.99-3.85,1.34.8,4.73.32,9.27.2,14.04,1.51,2.43,3.25,4.69,4.76,7.12,4.72,7.56,6.46,11.18,14.1,16.71M204.75,315.51c5.82,17.72,11.58,15.27,22.27,27.75,4.89,5.7,7.82,11.99,11.74,18.27.34.49.63,1.25,1.21,1.38,0-.37-.02-.72-.06-1.07-.14-3.19-.7-6.46-1.45-9.56-3.33-13.85-9.48-19.11-20.34-27.31-4.37-3.3-8.67-6.61-13.36-9.45M311.06,265.28c-8.37,6.48-14.48,18.48-19.61,27.58-2.32,3.19-4.69,6.46-7.42,9.32,3.16-2.17,6.34-4.29,9.53-6.4,3.01-1.99,22.77-13.47,23.43-15.03-.44-.61-.83-1.25-1.48-1.66-.67.52-1.48,1.11-2.28,1.42-.72.26-1.51.34-2.18-.08-.49-.3-.81-.79-.96-1.34-.29-.99-.09-2,.41-2.9.67-1.24,2.06-2.31,3.47-2.54,1.01-.17,1.38.4,2.17.92.87-1.07,1.82-2.2,3.02-2.9,1.22-.72,2-.32,3.3.05-.63-1.1-1.39-2-2.22-2.95-.84-.32-1.37.99-2.38.98-1.97-1.74-1.57-.34-3.62-.61-1.15-.15-2.55-2.9-3.18-3.85M154.61,323.28c6.58.06,13.15.18,19.73.37-3.83-2.41-8.12-4.89-11.29-8.14-2.87-2.93-5.35-8.58-9.42-9.82-.38.76-.6,1.36-1.4,1.76-.93.03-1.76-.29-2.64-.58-.06.08-.12.15-.18.23-.7.9-1.33,1.25-2.37,1.68.14.63.35.84.73,1.3,1.02,1.24,2.93,3.06,2.86,4.7-1.8,2.47-4.06-.26-6.26,3.67-.9-.2-2.05-.67-2.89-.31-.21.61-.41,1.22-.73,1.79-.63.18-1.04-.06-1.62-.3l-.28.24c.15.6.31.81.86,1.11,3.97,2.23,10.51,2.18,14.91,2.31M237.83,277.74l2.54,2.87c.69-8.74,3.16-21.08-2.99-28.41-.87-1.04-2.17-2.43-3.34-3.06-.87.76-1.86,1.83-3.1,1.85-.96.02-1.73-.61-2.44-1.18.38,3.19.99,6.34,1.6,9.48,1.34,6.87,2.67,13.26,7.74,18.43M267.32,276.78c3.88-7.51,7.41-15.2,11.52-22.59-1.94-1.79-3.33-1.97-5.9-2.2-.73-.72-1.45-1.47-2.29-2.08-4.41,4.93-7.79,10.9-9.35,17.38,1.38,4,3.33,7.77,4.71,11.8l1.31-2.32ZM348.54,323.56c6.8.53,13.35-.5,20.08-1.1,2.35-.21,5.82.21,7.88-.95l.14-.38-.32-.64c-.47-.01-.93.02-1.4.06-.95-.66-.67-2.37-2.05-2.06-2.75.61-2.46,3.73-6.14,2.28-.93.18-1.1.46-1.8,1.05-.73-.56-1.22-1.33-1.97-1.88-1.1-.82-2.99-1.59-3.83-2.63-.29-.35-.35-.87-.4-1.3-.03-.23-.05-.44-.06-.67l-.53-.03c-3.83.92-7.67,1.79-11.52,2.61-4.51.93-9.48,1.59-13.71,3.42-2.46,1.07-4.57,2.66-6.83,4.08,8.4-1.69,13.9-2.18,22.47-1.86M254.54,259.05c3.84-4.28,4.74-10.43,4.4-15.99-.08-1.22-.24-2.38-.72-3.51-.64-.47-.84-.24-1.5-.49-.51-.18-1.65-3.7-2.32-4.44-2.31,6.75-4,14.54-4,21.72.83,1.01,1.96,2.76,3.3,3.02.41.06.54-.12.84-.31M194.62,132.22c.9-3.59-.75-8.78-2.61-11.87-1.93-3.19-4.89-5.56-8.57-6.39-.2-.05-.4-.08-.61-.11-1.04,3.04-.84,5.74.6,8.64,2.2,4.38,6.83,7.76,11.2,9.71M310.32,133.32l1.86-1.27c3.94-2.84,9.33-6.22,10.1-11.44.24-1.68.02-4.63-1.08-5.99-.24-.31-.57-.55-.98-.64-.23-.05-.64-.02-.88,0-4.05,2.57-6.52,5.61-7.62,10.42-.66,2.92-.99,5.94-1.39,8.92M147.19,197.66c3.77-1.16,6.96-3.08,9.7-5.96-2.6-2.11-5.35-3.67-8.84-3.25-.15.02-.31.06-.46.09-3.16.86-6.93,2.46-8.66,5.41-.44.76-.79,1.76-.44,2.63.32.76,1.04,1.16,1.8,1.36,2.03.52,4.87.23,6.9-.27M218.08,250.78c-.72,1.04-1.31,1.99-2.67,2.23-1.48.26-3.3-.54-4.63-1.13,4.08,5.28,9.59,8.9,14.3,13.58l2.66,2.63c-.85-5.82-1.83-11.73-2.35-17.58-.5,1.01-.89,2.02-1.82,2.69-.7.14-1.04.15-1.66-.2-1.35-.79-2.23-1.86-3.82-2.21M204.43,269.66c1.05,1.17,2.09,2.37,3.22,3.47-.52-5.27-.79-10.72-2.08-15.87-.56-.52-1.19-1.02-1.72-1.57-.24-1.27-.37-2.92-1.45-3.77-.57-.44-1.39-.64-2.06-.82.28,1.19.58,2.38.82,3.59-.75.26-1.56.58-2.34.69-1.1.15-2.53-.23-3.54.15,2.38,4.92,5.39,10.17,9.15,14.14M181.92,296.92c3.71.95,7.41,1.83,11.2,2.52-.96-3.77-1.86-10.14-5.47-12.31-.58-.34-1.22-.58-1.88-.7-.06.08-.11.17-.17.25-.89,1.39-.93,3.88-2,4.83-.47.01-.78-.05-1.22-.17-.63-.18-1.25-.21-1.8.21-.61.46-1.04,1.34-1.44,1.99-1.6-.44-3.05-.96-4.55-1.68.66,1.08,1.28,2.21,2.02,3.27,1.76.66,3.51,1.27,5.31,1.8M255,296.46c2.58-6.93,3.83-14.51.61-21.49-.63-1.36-1.31-2.63-2.34-3.74-2.38,6.61-2.58,19.38.49,25.75.18.37.06.18.53.53.31-.34.49-.64.7-1.05M306.73,135.23c-1.13-3.97-3.96-7.38-7.56-9.41-2.9-1.63-5.77-1.94-9.04-1.79-.03,2.52,1.11,4.37,2.84,6.17,2.79,2.92,7.28,5.3,11.38,5.31.81,0,1.6-.15,2.38-.29M204.06,134.62c3.86-1.86,8.92-4.75,10.51-9.06.15-.4.15-.76.14-1.19-.41-.67-.7-.96-1.5-1.14-1.24-.27-2.81,0-4.05.2-4.06,1.36-7.16,4.05-9.07,7.9-.49.98-.73,1.79-.63,2.89.35.58.47.86,1.18,1.05,1.02.3,2.46-.34,3.42-.64M174.19,129.55c1.45,2.72,3.38,4.11,6.34,5.04,2.76.85,5.74,1.08,8.63,1.13,1.97-.08,3.91-.24,5.88-.47-5.02-2.63-8.1-7.27-14.22-7.65-2.49.21-4.4.87-6.63,1.96M308.91,132.65c1.02-4.05,2.23-9.18.02-13.04-1.24-2.15-3.42-3.44-5.8-4-.29-.06-.32-.06-.57-.09-1.33,2.66-1.3,4.8-.34,7.62,1.11,3.22,3.3,7.36,5.97,9.53.56.12.34.18.72-.01M261.58,154.31c3.68-.26,7.82-1.48,10.28-4.4.53-.63.95-1.25.89-2.11-.03-.54-.41-.98-.84-1.27-1.27-.84-2.99-.78-4.46-.87-5.16.82-8.87,3.94-12.4,7.65,2.18.58,4.26.96,6.54.99M245.22,154.17c1.24-.18,2.44-.37,3.66-.69-2.03-3.74-5.51-6.43-9.6-7.62-1.62-.47-3.24-.61-4.92-.44-1.05.4-2.12.81-3.18,1.24,2.44,3.48,5.18,6.54,9.59,7.36,1.51.29,2.95.29,4.44.15M254.05,151.8c3.94-2.99,8.05-5.93,8.84-11.19.17-1.07.21-2.17,0-3.22-.55-.57-.69-.44-1.48-.47-3.02.86-5.73,2.37-7.27,5.22-1.18,2.17-2.06,6.77-1.34,9.21.08.26.12.35.24.61.61.18.49.11,1.01-.15M166.49,192.81l.14-.4c-2.09-2.43-5.65-3.15-8.08-5.32-2.18-1.97-2.89-5.02-5.19-6.81-1.33-1.04-2.92-1.28-4.52-1.63-.58,2.54-.26,4.29,1.18,6.49,2.52,3.88,7.31,6.7,11.81,7.59,1.5.31,3.18.29,4.67.08M197.53,132.28c2.53-3.97,7.67-10.45,6.48-15.47-.18-.78-.75-1.68-1.53-1.97-.12-.05-.24-.06-.38-.09-2.37.98-4.18,2.11-5.18,4.6-1.31,3.35-1.76,8.8-.32,12.14.17.4.34.63.72.86l.21-.06ZM453.92,280c.43-.9.79-1.56.73-2.58-.33-.69-.41-.9-1.14-1.22-2.46-1.08-7.65,1.73-10.57,1.6-3.42-.14-6.52-1.99-9.68-3.13,2.89,3.89,7.33,7.47,12.23,8.26,2.23.37,4.92.08,6.8-1.3.64-.46,1.15-1.04,1.63-1.64M251.18,152.17c.41-4.06.95-8.66-1.76-12.11-1.69-2.15-4.06-3.18-6.67-3.68-.23,5.1.73,8.8,4.2,12.65,1.05,1.15,2.66,2.81,4.23,3.15M297.59,270.9c1.54-2.47,2.96-5.02,4.48-7.51,1.13-1.88,2.47-3.73,3.39-5.73l-.4-.03c-.75-.08-1.65-.05-2.18-.66-.69-.79-1.07-1.93-1.92-2.57-3.96,4.55-6.15,9.74-5.67,15.85.09,1.07.23,2.14.37,3.19.67-.84,1.34-1.66,1.94-2.55M338.68,194.63c2.55-.37,4.46-1.6,5.99-3.7,1.59-2.17,2.47-5.22,2.05-7.9-.24-1.51-1.3-3.44-2.57-4.31-.08-.05-.17-.08-.24-.11-3.03,3.28-3.05,7.41-4.9,11.24-.67,1.41-2.11,2.41-2.46,3.88.2.69.08.79.72,1.19l1.1-.58.32.27ZM311.37,135.35c1.97-.31,4.02-.73,6-.89,3.35-.49,10.54-.81,12.77-3.65.24-.32.34-.67.43-1.05-.21-.79-.44-1.25-1.17-1.67-1.38-.79-3.3-1.08-4.86-1.16-5.8,1.28-8.8,4.69-13.16,8.42M359.52,198.15c1.59.08,4.08.49,5.33-.76.47-.47.52-.95.43-1.59-.18-1.47-2.26-2.98-3.42-3.65-1.92-1.13-4.26-1.8-6.51-1.77-2.38.37-4.69.87-6.99,1.57,3.38,2.49,7.01,5.27,11.16,6.2M349.73,190.72c3.31-1.3,7.39-3.21,8.99-6.63.31-.66.49-1.43.14-2.12-.57-1.05-2.14-1.54-3.22-1.73-.4-.06-.78-.11-1.18-.15-2.11.35-3.38.89-4.66,2.66-1.82,2.52-2.47,6.22-3.3,9.19,1.05-.4,2.14-.87,3.22-1.22M75.08,236.52c-1.22-3.15-2.46-6.22-5.5-8.05-1.99-1.19-4.98-1.94-7.24-1.25-.76.23-1.56.69-1.86,1.47-.29.73-.08,1.53.34,2.17,1.65,2.63,5.54,3.76,8.37,4.51l-.49.57c-2.46-.08-6.63.32-8.4,2.14-.4.4-.67.95-.66,1.51.01.79.57,1.42,1.18,1.85,2.09,1.45,5.42,1.18,7.8.66,2.47-.55,4.84-1.66,6.75-3.36-1.11-.78-2.21-1.6-3.42-2.21l.21-.46,2.92.47ZM165.56,187.6c3.32-.72,5.82-2.38,7.65-5.28,1.34-2.14,1.93-4.38,1.82-6.9l-.31-.55-.63-.09c-3.45,1.07-6.93,2.87-8.74,6.15-.86,1.56-1.3,3.86-.64,5.58.18.47.4.86.84,1.1M123.7,154.11c2.38-3.6,3.96-7.62,3.04-12.04-.4-1.91-1.42-3.7-3.1-4.75-.12-.08-.24-.15-.38-.23-2.17,2.58-3.45,5.15-3.19,8.63.21,2.75,1.59,6.41,3.64,8.38M428.21,235.89c2.7-3.24,5.8-6.28,5.5-10.84-.11-1.59-.43-4.11-1.7-5.22-.2-.17-.29-.23-.53-.4-2.58,2.27-4.89,4.44-5.18,8.11-.23,2.87.66,6.02,1.31,8.81l.26.03.34-.49ZM404.91,205.24c2.08-.46,4.61-.95,5.88-2.78.11-.72.18-.95-.21-1.6-.73-1.24-2.99-1.76-4.29-1.89-1.63-.18-3.54-.12-5.18.09-2.08.44-4.57.64-5.96,2.4-.11.72-.15.89.27,1.53,1.1,1.63,4.64,2.24,6.43,2.32,1.02.05,2.06.03,3.05-.06M101.34,204.84c2.47-.24,5.41-.66,7.1-2.7.47-.58.83-1.37.63-2.12-.21-.82-.99-1.36-1.74-1.66-1.39-.57-3.63-.69-5.13-.63-3.54.72-6.09,1.59-8.87,4,2.69,1.59,4.99,2.4,8.02,3.12M147.81,170.37c1.85-1.82,2.41-3.8,2.44-6.37.03-2.78-.54-6.34-2.58-8.35-.58-.58-1.16-.9-1.99-.99-1.73,2.28-3.03,4.58-2.58,7.54.47,3.15,2.64,5.86,4.7,8.17M76.95,235.24c1.56-3.47,2.4-7.38.93-11.04-.73-1.86-2.14-3.48-4.02-4.26-.31-.12-.61-.23-.92-.34-1.22,2.86-2.5,5.73-1.27,8.83,1.02,2.58,3.4,4.81,5.27,6.81M266.01,246.49c3.92-4.03,9.48-5.51,12.16-10.78-1.64-1.56-3.45-2.58-5.45-3.62.4,1.67.99,3.82.09,5.42-.52.92-1.54,1.39-2.52,1.62-.96.21-2,.26-2.98.34-.86.06-1.62.5-2.37.87-.72-.21-1.19-.64-1.77-1.08-.26,1.31.67,7.06,1.28,8.05l.47.2c.49-.27.73-.57,1.09-1.01M286.14,90.45c2.32-1.4,4.08-3.1,4.81-5.83.3-1.14.46-2.6-.18-3.65-.63-1.01-1.85-1.31-2.93-1.47-.49-.06-.87-.02-1.34.06-1.94.95-2.75,2.05-3.45,4.09-.63,1.8-1.21,4.61-.4,6.4.27.6.61.82,1.16,1.11.86.12,1.57-.35,2.34-.72M215.14,78.71c-1.51,1.16-2.89,2.27-3.16,4.29-.21,1.62.49,3.15,1.5,4.38,1.11,1.36,2.57,2.46,4.12,3.27.67.29,1.45.75,2.18.58.93-2.75.93-6.78-.34-9.44-.61-1.28-1.54-2.46-2.96-2.87-.43-.11-.9-.17-1.34-.21M90.28,242.12c2.03-.43,4.75-.82,5.94-2.73.28-.44.38-.99.23-1.5-.26-.81-.79-1.24-1.53-1.59-1.7-.83-4.02-.79-5.87-.7-1.91.41-5.76.93-6.67,2.95-.28.6-.17,1.08.15,1.63.73,1.27,3.18,1.68,4.48,1.82,1.08.11,2.17.17,3.27.12M345.34,96.77c-.14-3.24-.43-6.45-2.95-8.81-2.46-2.32-6-2.95-9.27-2.84,1.04,4.12,3.93,7.47,7.53,9.65,1.48.92,2.99,1.56,4.69,2M444.2,241.88c.93-.15,1.85-.32,2.78-.41-2.6-3.48-5.82-5.73-10.22-6.34-1.19-.17-2.54-.14-3.73-.05-1.11.2-1.98.41-2.99.96l-.37.56c.32,1.24,1.42,1.8,2.47,2.41,3.8,2.17,7.68,2.98,12.05,2.86M83.65,201.76l.86-.37c.23-.81.17-1.25-.25-2-1.57-2.75-4.87-5.22-7.9-6.02-1.21-.32-2.69-.38-3.91-.17-.7.44-1.34.67-1.6,1.53-.2.66.08,1.31.49,1.83,1.97,2.54,6.66,4.76,9.81,5.07.82.06,1.66.11,2.5.12M352.35,167.26l2.47-1.31c2.83-1.94,6.93-5.24,7.5-8.84.11-.69,0-1.38-.47-1.93-.78-.9-2.29-1.19-3.42-1.21-2.72,1.57-4.31,3.39-5.13,6.51-.6,2.2-.78,4.54-.95,6.78M222.8,91.9c2.76-3.08,6.8-8.08,6.52-12.52-.06-.86-.32-1.33-.84-2-.4-.18-.78-.4-1.19-.52-2.89,1.77-4.73,3.59-5.59,6.99-.64,2.55-.75,5.57.11,8.08l.4.29.6-.32ZM280.38,91.73c.87-.87.72-3.88.73-5.07.03-3.08-.57-6.2-2.8-8.48-1.11-1.13-2.4-1.74-3.85-2.35-1.1,3.3-1.22,5.86.41,9.07,1.31,2.57,3.45,4.83,5.5,6.83M346.57,314.84c5.53-1.1,7.19-.35,11.62-4.2-.85.37-1.89.99-2.84.81-.37-.43-.66-.82-.95-1.3-1.15-1.82-3.15-1.93-5.05-2.6-.08-.03-.15-.03-.23-.05-3.7,2.89-7.45,5.77-10.89,8.97,2.78-.55,5.57-1.04,8.34-1.63M152.32,167.71c3.27-2.32,6.8-6.18,7.54-10.29.14-.76.03-1.48-.53-2.06-.37-.37-.87-.54-1.36-.58-2.66.92-4.72,1.92-6.06,4.55-1.22,2.38-1.56,5.8-.69,8.34l.4.26.7-.21ZM338.69,187.2c.49-2.75.02-5.16-1.63-7.45-1.86-2.6-4.51-4.18-7.41-5.33-.6,2.76-.66,4.99.96,7.48,1.8,2.79,4.73,4.35,7.83,5.22l.24.08ZM381.79,153.8c4.29,3.02,7.61,4.44,12.95,3.56,1.21-.29,3.05-.52,3.79-1.63.23-.35.08-.57,0-.93-1.96-2.08-6.75-2.81-9.53-2.92-.83-.03-1.65.02-2.47.06-1.63.43-2.99,1.01-4.49,1.76l-.24.11ZM322.59,141.84c1.8.09,4.44.54,5.86-.87.44-.44.61-.99.51-1.6-.2-1.16-1.24-2.06-2.21-2.6-2.29-1.24-4.8-1.08-7.29-.76-2.38.37-4.83.99-7.22.9,3.33,2.17,6.52,3.83,10.35,4.93M417.36,200.38c2.47-1.97,4.05-4.03,4.44-7.29.24-1.98-.08-4.35-1.41-5.92-.35-.41-.75-.78-1.19-1.1-2.76,2.84-4.08,6.23-4.09,10.2,0,1.01.06,2.99.84,3.73.53.49.76.49,1.41.38M353.9,168.13c2.4.52,4.83.99,7.21,1.54,2.24.2,5.73.79,7.56-.92.52-.47.85-.99.82-1.71-.01-.78-.61-1.48-1.21-1.92-1.36-1.04-3.44-1.51-5.1-1.59-3.7.61-6.31,2.52-9.29,4.6M111.22,223.2c3.15-.21,5.56-.96,7.71-3.45,1.24-1.44,2.99-4.23,2.86-6.14,0-.11-.03-.2-.06-.29-.29-.08-.49-.15-.79-.12-3.6,1.02-8.66,2.9-10.69,6.32-.35.58-.55,1.25-.41,1.94.17.81.75,1.3,1.39,1.74M280.03,59.61c1.74-.24,3.22-.34,4.38-1.83.5-.66.61-1.15.63-1.94-.28-.72-.57-1.13-1.27-1.48-.82-.4-1.6-.58-2.52-.59-1.63.59-3.7,1.3-4.55,2.96-.27.53-.2.75-.11,1.31.84,1.14,2.12,1.31,3.44,1.57M355.83,209.52c-2.66.92-12.26,4.05-13.39,6.25l.41.32c4.28.06,8.32-.31,11.52-3.53.76-.78,1.66-1.77,1.8-2.9l-.34-.14ZM272.18,49.87c-1.79-1.83-3.44-2.96-5.99-3.51,1.05,3.96,3.97,5.97,7.04,8.37l-1.05-4.86ZM449.48,294.84c.43-1.43.85-2.63,1.64-3.99,0,0,0,0,0-.02-2.06-1.92-4.63-4.92-7.16-6.15.76,3.18,2.05,9.42,4.7,11.61h.53c.15-.49.24-.93.29-1.45M296.97,60.82c1.3,3.57,3.82,6.39,7.29,8.02,1.24.58,2.55.96,3.91,1.16-1.21-3.48-3.06-6.35-6.51-8-1.48-.72-3.09-.99-4.69-1.18M345.99,69.17c1.62-1.4,3.15-3.25,3.38-5.48.08-.72-.09-1.36-.6-1.88-.53-.55-1.5-.75-2.23-.76-1.86,1.36-2.6,3.15-2.98,5.39-.17.95-.17,1.8.2,2.72.47.4.64.57,1.3.46.26-.03.7-.32.93-.44M197.91,69.27c2.2-1.36,6.99-4.6,7.36-7.35.09-.7-.21-.87-.66-1.31-.57-.15-1.05-.24-1.65-.26-2.6,1.36-5.79,3.6-6.7,6.57-.26.89-.21,1.51.12,2.37l.43.26,1.1-.28ZM226.19,58.42c-1.15-1.65-2.4-3.16-4.51-3.53-.73-.12-1.51-.06-2.24-.03-.96.46-1.97.98-2.4,2.02-.17.43-.04.66.05,1.08.78,1.04,2.12,1.7,3.41,1.85,1.01.12,2.05.02,3.04-.11l2.66-1.28ZM212.83,41.76c1.5.89,4.72,2.17,6.48,1.62.38-.12.44-.17.75-.37.03-.43,0-.67-.14-1.09.41-1.01.12-2.92-.18-3.92-.66-2.08-1.86-3.16-3.71-4.15-1.08,3.48,2.72,5.27,3.89,8.09-1.33-1.11-3.27-2.67-5.12-2.57-.61.03-.9.18-1.42.44-.52.75-.47,1.05-.55,1.94M381.88,204.43c-1.79,1.94-2.47,4.18-2.38,6.83.03.86.17,1.99.66,2.72l.64.08-.14.09c.21-.11.46-.2.64-.35,1.6-1.65,3.22-3.88,3.12-6.31-.05-.99-.46-1.91-1.24-2.54-.4-.31-.84-.4-1.3-.52M403.34,117.21c-2.98-1.91-5.12-2.9-8.78-2.61-2.08.87-3.82,1.92-5.62,3.28,2.84.83,5.8,1.54,8.77,1.15,1.95-.4,3.85-.92,5.64-1.82M86.43,222.85c-3.35,1.65-5.25,2.6-6.52,6.41-.52,1.56-.99,3.88-.67,5.5l.37.29.61-.26c3.04-2.32,6.72-4.73,7.31-8.84.12-.89.25-1.8-.08-2.67-.4-.29-.49-.35-1.02-.43M248.75,27.33c-.05,1.27.61,1.27.53,2.02-1.15-.03-2.7-.26-3.62.57-.34.31-.4.66-.43,1.11-.06.92.6,1.94,1.25,2.51.5.44,1.34.64,1.96.85,1.27-.14,2.27-.24,3.13-1.31.52-.67.78-1.59.66-2.43-.2-1.35-1.22-2.17-2.28-2.92-.43-.32-.69-.4-1.2-.4M424.71,234.09c.58-2.73.75-5.47-.92-7.89-1.82-2.66-5.22-3.82-8.23-4.45.21,3.82,2.21,7.62,5.02,10.22.92.85,2.54,2.05,3.82,2.17.11-.02.21-.05.31-.05M158.95,177.32c-1.1,1.68-2.18,3.27-1.82,5.39.31,1.76,1.62,2.99,3.07,3.91.24.15.49.31.75.44l.56-.02c.87-1.7.31-4.75-.24-6.49-.43-1.39-1.02-2.54-2.32-3.24M161.56,69.31c.92-.23,1.83-.43,2.73-.7,1.65-.82,3.83-2.02,4.47-3.88.17-.49.14-.79.06-1.3-.53-.83-1.02-1.13-1.97-1.34-.35-.08-.7-.12-1.04-.18-1.99,1.24-3.27,2.72-3.85,5.02-.2.78-.31,1.59-.41,2.38M186.39,275.95l.56.46.43-.14c.73-2.31.35-4.76-.17-7.09-.89-.67-1.62-1.21-2.66-1.59-.93,1.11-1.63,1.45-3.02,1.74,1.27,2.46,3.1,4.49,4.86,6.61M256.98,59.92c-1.16.35-2.75.96-3.36,2.11-.38.72-.44,1.45-.14,2.21.52,1.3,1.65,2.15,2.92,2.63.58.21,1.19.4,1.8.5,1.12-.14,2.37-.4,3.15-1.3.56-.66.81-1.39.67-2.24-.2-1.19-1.07-2.25-2.05-2.9-.93-.66-1.88-.87-2.99-1.01M160.66,68.56c.41-1.62.49-3.02-.37-4.53-1.05-1.85-2.95-2.86-4.82-3.71-.55,1.53-.96,2.64-.26,4.18.92,2.05,3.54,3.18,5.45,4.06M61.57,283.18c-2.81,1.63-7.3,3.96-8.19,7.33-.56,2.17.38,3.88,1.47,5.67.6.58.6.73,1.42.76,3.24-1.99,3.96-9.61,5.21-13.07.15-.43.11-.23.09-.69M342.98,69.94c.14-2.23-.21-3.73-1.77-5.41-1.42-1.54-3.13-2.43-5.1-3.05-.29,1.5-.38,2.52.47,3.83,1.38,2.09,4.28,3.39,6.4,4.63M238.98,46.4c-3.15,1.16-6.29,3.28-7.67,6.48-.23.52-.4.95-.26,1.51.63-.08.34.03.86-.31,2.96-1.85,6.49-3.71,8.46-6.68l.08-.56c-.6-.43-.72-.4-1.47-.44M257.01,28.75c-1.3,1.01-2.76,1.86-3.22,3.51.15.75.29,1.16,1.01,1.57.76.44,1.68.64,2.52.86,1.21-.57,2.4-1.28,2.78-2.66.18-.66.2-1.27-.17-1.88-.6-1.02-1.85-1.24-2.92-1.4M377.27,118.81c-1.02-1.8-1.89-2.77-3.64-3.86-.24,3.45.6,6.57,2.77,9.3l.35-.29c.35-1.76.55-3.35.52-5.15M377.26,89.27c1.27-.37,2.11-.57,2.77-1.8.29-.55.23-.53.17-1.1-.81-.81-2.21-.78-3.3-.86l.03-.92c-.47-.38-.58-.35-1.19-.41-1.74,1.57-2.4,3.74-3.48,5.76,1.68-.2,3.36-.38,5.01-.67M78.26,159.48l-1.68-1.01.31-.23c.08.03.15.06.23.09.69.26,1.04.35,1.79.17.49-.57.6-.66.55-1.45-.08-.99-1.07-2.28-1.89-2.78-.87-.55-1.77-.63-2.78-.64-.26,1.51.02,2.02.4,3.42v-.02s-1.39-.43-1.39-.43l-.23.18c.11.96.25,1.74,1.07,2.4.86.67,2.18.69,3.21.78l.38-.21.05-.27ZM275.34,56.3c.98-1.71,2.63-4.63,1.99-6.63-.21-.67-.54-1.12-1.19-1.41-.27-.12-.7-.15-.98-.18-1.4,1.71-1.8,3.36-1.62,5.57.08.95.24,1.89,1.07,2.46.28.18.46.25.73.18M292.95,260.68c.75-1.45,2.58-4.22,2.08-5.82-.21-.69-.92-1.07-1.54-1.33-1.13.81-1.53,1.31-1.73,2.7-.15,1.05-.29,3.3.35,4.18.18.26.32.27.69.31.05,0,.11-.03.15-.05M83.04,193.17c.7,3.02,1.71,5.24,4.18,7.25,1.3-1.42,1.6-3.65,1.5-5.51-.12-2.17-.81-4.51-2.53-5.94-.34-.29-.7-.49-1.1-.69-.9,1.59-1.56,3.1-2.04,4.89M140.6,140.96l1.16-.2c.06-.09.12-.2.18-.29.28-.4.57-.64.93-.95.11-.37.27-.55.05-.92-.72-1.12-2.87-1.65-4.12-1.86-1.04.15-2.02.21-2.9.87-.34.6-.34.58-.2,1.24,1.15,1.33,2.57,1.92,4.29,2.08.21.02.41.02.61.03M351.84,131.53c1.43,4.46,3.68,7.09,7.5,9.7-.09-2.69-.18-5.41-2.31-7.36-1.48-1.36-3.3-1.86-5.19-2.34M410.05,235.59c-1.21.29-3.15.5-3.85,1.65-.2.34-.06.52.02.87,1.7,1.85,5.62,2.66,8.08,2.77.93.05,1.88-.03,2.81-.11,1.36-.44,3.13-.81,3.86-2.14-.06-.64-.18-.89-.72-1.28-2.52-1.83-7.18-1.94-10.2-1.76M149.6,138.61c1.92-1.05,4.05-2.7,4.66-4.93.23-.82.08-1.5-.12-2.32l-.2-.21c-1.82,1.15-4.21,2.72-4.67,4.98-.18.92.08,1.63.34,2.49M379.52,151.79l4.81-.31c3.19-.5,6.45-.98,8.52-3.79.33-.44.46-.84.55-1.39-.23-.63-.41-1.02-1.07-1.3-.92-.38-2-.33-2.98-.35-3.99.43-6.18,2.44-8.58,5.45-.44.55-.86,1.11-1.25,1.68M333.38,216.76c2.47,3.08,5.24,4.92,9.23,5.42.27.03.55.05.82.06-2.37-2.93-5.42-4.99-9.26-5.41-.27-.03-.53-.06-.79-.08M284.43,92.56c2.14.49,4.26.93,6.41,1.3,1.97-.05,6.12.14,7.47-1.63.43-.57.4-.73.3-1.39-.92-1.14-2.52-1.31-3.89-1.48-.63-.08-1.27-.05-1.89,0-3.1.66-5.5,2.14-8.4,3.21M115.4,115.97c1.76-.66,2.64-1.88,3.44-3.56.47-1.02.8-2.08.38-3.16-.43-.4-.38-.44-.99-.58-1.57.67-3.7,1.56-4.34,3.28-.26.69-.23,1.54.11,2.2.35.66.93,1.25,1.4,1.82M105.37,106.06c-.46.58-1.1,1.27-1.07,2.06.05.9.66,1.63,1.37,2.14,1.38.98,3.68,1.64,5.35,1.85.43-.58.72-.95.55-1.71-.34-1.59-1.89-2.78-3.22-3.53-.93-.54-1.91-.78-2.98-.81M126.58,203.03c-.81-1.56-1.6-2.57-3.32-3.15-1.74-.6-3.79-.41-5.6-.31,1.24,1.83,2.55,2.84,4.78,3.24,1.33.23,2.78.21,4.14.21M414.95,112.43l1.47-2.49-3.66-1.88c.08,1.73-.02,4.05.92,5.54l.46.08c.43-.4.6-.73.83-1.25M225.61,56.57c-.49-1.7-.92-3.31-2.57-4.25-.96-.53-2.15-.64-3.22-.82.35,1.62,1.67,2.43,2.98,3.28.93.6,1.91,1.14,2.81,1.79M381.84,331.74l-2.32,1.71c1.3.84,2.57,2.55,3.99,2.96.63-1.94-.33-1.24.9-3.51-.49-.44-.86-.55-1.47-.73-.38-.12-.73-.28-1.1-.43M347.28,92.42c1.72-2.98,3.27-6.55,2.28-10.05-.44-1.59-1.53-2.92-2.99-3.68-.2-.11-.43-.21-.64-.29-1.36,1.34-2.29,2.72-2.23,4.7.06,2.11,1.53,8.16,3.1,9.58l.49-.26ZM250.8,61.19c.53.82,1.18,1.66,1.56,2.57.7-1.5,1.47-3.21.92-4.87-.24-.73-.57-1.16-1.24-1.56-.66,1.22-.92,2.52-1.24,3.86M191.13,138.13c-3.45-.61-7.15-1.4-10.66-.92-1.57.52-4.4,1.18-5.24,2.69-.2.37-.05.59.03.98,1.22,1.19,2.96,1.39,4.6,1.37,1.67-.01,3.45-.26,5.04-.73,2.31-.86,4.23-2,6.23-3.39M388.08,209.65c-2.72,1.11-4.06,2.24-5.77,4.67,1.56.67,2.93,1.22,4.66,1.28,1.94-.29,3.39-.82,4.63-2.41.61-.79.93-1.48.78-2.5-.46-.67-.84-1.08-1.7-1.21-.84-.12-1.76.06-2.6.17M277.68,54.45c1.41-.38,2.95-.66,4.18-1.42l.21-.52c-.33-.47-.53-.63-1.07-.84-1.34.38-2.84,1.02-3.54,2.34-.17.3-.15.35-.21.64.14-.06.32-.09.43-.2M243.76,247.56c.18-.9.41-1.82.52-2.73-.75-1.37-1.4-2.86-2.52-3.97-.61.14-.53.41-.99.61-1.24.55-3.33-.86-4.34-1.47-.85-.52-1.82-1.34-2.82-1.47-.18,1.36.38,2.24,1.22,3.31,1.35,1.7,6.42,5.77,8.4,6.15.09.02.18.02.26.02l.27-.46ZM104.97,156.57c3.16,1.88,5.28,2.9,9.06,2.37,2.37-.31,4.25-1.01,6.39-2.06-2.4-2.12-5.35-3.13-8.48-3.54-3.04.26-4.72,1.33-6.96,3.24M144.35,140.16c.96-1.04,1.3-2.82,1.24-4.2-.03-.83-.17-1.96-.81-2.54-.18-.17-.31-.2-.51-.3-.75,1.02-1.19,1.92-1.62,3.1l-.06.15c.55,1.28,1.05,2.58,1.76,3.79M127.88,86.95c-.87.26-1.67.38-2.21,1.18.01.46-.09.55.27.89.98.87,2.21.87,3.47.75.79-.43,1.57-.73,2-1.57-.08-.44.03-.55-.38-.82-.95-.6-2.08-.46-3.15-.41M246.46,236.64c.17,1.19.27,2.31.82,3.41l.37.14c.6-1.86,1.47-3.83.96-5.8-.29-.29-.46-.44-.83-.61l-1.33,2.87ZM289.51,43.49c2.03-.93,4.03-2.08,4.89-4.28-.06-.33.02-.52-.3-.72-.5-.31-1.25-.35-1.83-.31-1.41.96-4.44,2.89-4.81,4.63-.01.09-.01.2-.03.29.43.44.56.5,1.24.49.23,0,.61-.08.85-.11M157.79,217.96c2.17,1.5,4,2.23,6.54,2.89,1.02-.32,1.85-.58,2.69-1.25l.26-.58c-.41-.7-.95-.9-1.73-1.13-1.21-.35-2.7-.18-3.95-.14-1.25.11-2.54.23-3.8.21M287.27,41.52c.95-1.25,2.11-2.6,1.89-4.28-.12-.92-.67-1.54-1.25-2.23-1.45,2.06-1.74,3.74-1.4,6.23l.46.37.3-.09ZM382.69,216.25c2.5,3.16,5.73,6.98,10.05,7.42.9.09,1.83.03,2.73,0-.61-2.43-1.5-4.38-3.74-5.74-2.63-1.57-6.06-1.54-9.04-1.68M363.24,93.93c-2.95-.98-6.03-1.47-9.15-1.42-1.91.46-5.12,1.22-6.29,2.89-.24.35-.15.57-.14.98.75.99,1.85,1.28,3.04,1.47,1.83.29,3.7.03,5.51-.17,2.75-.78,4.86-1.88,7.03-3.74M280.24,94.53c-2.54-.84-4.63-1.16-7.32-.99-2.38.78-4.93,1.97-6.09,4.35-.31.61-.34,1.04-.23,1.73.5.61.89.9,1.7,1.01,1.33.18,3.27-.31,4.55-.67,3.13-1.33,5.13-2.96,7.39-5.42M81.68,150.09l-.89.69c-.12,2.29.6,3.6,1.82,5.51h.35c.12-2.08-.08-4.12-.93-6.03l-.35-.17ZM113.91,104.39c-1.07,1.8-1.25,3.47-.86,5.53l.17.18c.29-.14.54-.21.76-.44.78-1.42,1.72-2.73,1.45-4.41-.55-.63-.7-.63-1.53-.86M125.7,193.64c-.24,1.31-.47,2.6-.6,3.92.46.92.89,2.18,1.79,2.72h.44l.04-.18.35-.02.63.66.18.38c.54-.99.46-2.34.12-3.38-.53-1.68-1.66-2.96-2.96-4.11M133.99,88.29c.6-1.27,1.28-2.61.9-4.05-.14-.52-.52-1.01-.96-1.31-.49,1.66-1.05,3.25-.61,4.99l.38.37h.29ZM142.76,95.06c2.28,2.11,4.98,3.09,8.08,3.02.78-.02,1.54-.12,2.31-.23,1.89-.64,3.65-1.33,5.42-2.24-3.56-1.8-6.8-3.1-10.87-2.79-1.82.52-3.35,1.19-4.93,2.24M228,57.13c1.1-2.02,2.29-4.26,1.6-6.64-.35-1.24-1.19-2.28-2.31-2.9-1.41,2.28-1.68,4.99-1.07,7.59.15.66.37,1.13.72,1.7l.67.38.38-.12ZM132.48,87.44c.08-1.28-.05-2.41-.9-3.45-.41-.5-.85-.72-1.44-.96-.31.78-.67,1.48-.35,2.34.4,1.07,1.71,1.65,2.69,2.08M348.51,92.88c1.22-.49,2.47-.96,3.68-1.51,2.76-1.19,7.19-3.08,8.45-6.02-.05-.58.03-.87-.51-1.24-.84-.58-2.67-.61-3.66-.58-2.66.75-4.64,1.73-6.08,4.23-.89,1.57-1.45,3.38-1.88,5.12M280.69,35.74c.61,2.02,2.43,5.18,4.31,6.2.18.11.41.18.63.14,0-1.68.08-3.44-1.22-4.7-.98-.98-2.43-1.3-3.71-1.63M431.52,234.21c2,.21,3.94.17,5.94.01,3.31-1.65,5.65-3.16,7.47-6.52-1.89-.38-3.73-.69-5.67-.5-2.4.43-4.34,1.33-5.82,3.34-.81,1.1-1.37,2.38-1.92,3.67M367.79,143.34c-.79.08-1.91.05-2.58.44.47.15.92.29,1.4.37.98-.06,1.63-.06,2.46-.63l-.06-.23c-.41,0-.79-.03-1.22.05M105.89,113.51c-.93.58-2.2,1.19-2.4,2.38-.08.43.15.63.35.98,1.97,1.39,4.92,1.34,7.21.96.21-.03.41-.08.63-.12,1.01-.37,2.02-.7,3.01-1.1-2.87-2.54-5.01-3.25-8.8-3.1M123.13,120.17c.59,2.12,1.34,3.54,2.96,5.1l2.6-2.41c1.7-2.14,2.66-4.06,3.51-6.64-1.34.21-2.72.4-4.03.7-.86-.47-1.82-1.14-2.72-1.48-1.22,1.53-1.85,2.87-2.32,4.73M381.82,117.89c-1.85,1.16-3.82,3.33-4.35,5.53-.18.72-.12,1.05.17,1.73l.66.31c1.45-1.16,4.7-3.53,4.67-5.59-.01-.66-.34-1.44-.89-1.85-.08-.06-.18-.08-.26-.12M130.98,165.12c2.14,3.04,4.83,4.81,8.51,5.47,1.28.23,2.52.27,3.82.26.99-.06,2.01-.08,3.01-.23-2.37-3.25-4.87-6.08-9.09-6.75-1.04-.17-2.06-.14-3.1-.11-1.07.41-2.12.82-3.15,1.36M255.78,27.19c-.81.98-1.63,1.89-2.11,3.08l.2.29.21-.02c.79-.67,1.63-1.25,2.08-2.21-.05-.61.02-.63-.38-1.15M421.49,201.16c-.75.12-1.28.06-1.85.61.55.82,1.88,1.01,2.84,1.19,2,.4,3.99.55,6.03.69l.95-.21.29-.47c-.8-1.08-3.13-1.45-4.41-1.65-1.28-.18-2.57-.24-3.85-.15M369.68,83.71c-.26,1.09-.31,1.82.26,2.83.52.93,1.65,1.88,2.66,2.2.51-1.36,1.09-2.55.51-3.97-.96-1.01-2.09-.95-3.42-1.05M224.41,35.01c-1.8,1.27-3.21,1.86-3.56,4.23-.14.92-.01,1.74.18,2.64.37.17.21.2.43.14,1.51-1.6,3.74-3.67,3.8-6-.29-.58-.31-.69-.86-1.01M193.8,66.91c-.32-2.67-1.01-5.28-3.22-7.04-1.97-1.56-4.2-1.8-6.61-1.57.37,2.52,1.89,4.26,3.93,5.74,1.79,1.3,3.8,2.21,5.91,2.87M149.49,206.16c-.03,2.54.11,4.67,2,6.58,1.57,1.59,3.96,2.64,5.89,3.7-.55-3.35-1.38-6.77-4.31-8.86-.96-.69-1.91-1.01-3.04-1.28l-.34-.09c-.08,0-.14-.03-.21-.05M120.54,205.88c-1.6.38-3.09.85-3.99,2.34-.32.54-.56,1.15-.46,1.77.12.69.6,1.18,1.19,1.48,1.01.53,2.17.41,3.27.35,1.62-.72,3.6-1.65,4.25-3.45.18-.52.17-.81.08-1.34-.35-.53-.7-.87-1.36-1.02-.96-.23-2-.2-2.98-.12M373.91,194.38c-1.16,3.28-.99,6.87.47,10.03.31.66.66.93,1.31,1.22.29-.08.6-.12.87-.24,1.16-2.31,2.14-4.84,1.25-7.44-.37-1.08-1.21-2.35-2.26-2.89-.52-.28-1.1-.47-1.65-.69M251.76,63.92c-.66-1.44-1.21-2.86-2.81-3.42-.54-.18-1.1-.29-1.67-.35-1.69.32-3.56.84-4.54,2.4-.41.67-.52,1.31-.34,2.08.23.96,1.24,1.8,2.08,2.23.61.32,1.33.54,2,.73,2.57-.5,3.62-1.16,5.07-3.34l.2-.32ZM312.29,65.83c2.2-1.51,5.86-4.02,6.51-6.8.12-.54.08-.83-.06-1.33-.55-.67-1.18-.96-2.03-1.02-.27-.02-.55-.02-.84-.02-2.75,1.3-4.31,3.18-5.36,6.05-.4,1.05-.67,2.11-.43,3.22.29.27.32.46.75.44.6-.03.96-.27,1.47-.55M396.84,106.41c-3.59,2.11-4.75,4.54-6.14,8.31l3.48-1.22c2.25-.87,5.45-2.49,6.32-4.92.17-.49.18-.73.08-1.22-.52-.63-.92-.89-1.74-.96-.67-.06-1.34-.06-2,.02M318.39,65.42c-2.57.55-6.54,1.3-8.05,3.67-.29.46-.21.44-.17.95.92.75,2.49.55,3.62.46.05,0,.09-.02.14-.03,2.81-.12,6.52-.96,8.45-3.19.21-.26.31-.5.38-.82-.87-.96-1.85-.96-3.12-1.02-.41-.01-.82-.01-1.25,0M427.96,153.25c-1.24.29-2.92.57-3.74,1.6l.11.46c1.62.96,3.27.78,5.08.73.75,2.11,1.33,5.06,2.57,6.9.21-.18.38-.32.51-.57,1.66-2.55,3.18-5.07,4.43-7.85-2.48.81-4.28.96-6.86.69-.49-.66-1.11-1.85-1.94-1.99-.06-.01-.11.02-.15.02M198.67,50.88c-2.52,1.79-4.18,4.09-4.7,7.19-.43,2.55.14,4.89,1.45,7.1,2.02-3.02,5.73-8.05,5.07-11.85-.15-.92-.57-1.68-1.38-2.17-.14-.11-.29-.2-.44-.27M309.09,66.81c.44-4.52,1.02-9.68-2.14-13.44-1.3-1.56-2.84-2.35-4.73-2.93-.69,5.36,3.25,11.77,6.38,15.88.24.32.17.21.49.49M167.73,85.03c-2.61,1.36-5.38,2.95-6.38,5.91-.4,1.16-.34,2.34-.15,3.53.63.23.73.05,1.34-.18,2.63-1.42,6.2-4.02,6.86-7.18.14-.63.06-.92-.37-1.39-.34-.35-.84-.61-1.3-.69M389.41,103.25c-1.77,1.63-2.77,3.13-2.81,5.62-.05,2.11.57,4.44,1.31,6.42h.35l.18-.2c1.91-2.34,3.83-5.25,3.56-8.41-.11-1.28-.63-2.12-1.62-2.92-.38-.31-.5-.38-.98-.5M363.68,135.9c-.98.27-2.08.67-2.64,1.59-.44.73-.56,1.45-.32,2.28.37,1.16,1.45,2.26,2.55,2.73.81.35,1.79.46,2.66.46,1.13-.38,1.94-.61,2.57-1.71.41-.72.38-1.67.12-2.43-.4-1.13-1.4-2.14-2.47-2.64-.75-.35-1.65-.34-2.46-.27M183.11,65.37c-.73.5-1.08.63-1.45,1.45.2.84.46,1.19,1.18,1.66,2.95,1.97,7,2.79,10.46,3.15.78-.32.96-.35,1.47-1.05-.11-.83-.57-1.18-1.22-1.68-2.83-2.18-6.86-3.8-10.43-3.53M219.35,93c-3.56-1.74-7.51-3.96-11.62-3.65-1.91.41-3.82.6-5.3,1.95-.12.4-.27.58-.06.98.6,1.1,2.31,1.67,3.44,1.94,2.23.53,4.66.44,6.89,0l6.66-1.22ZM346.57,152.99c-.28,4.67.17,10.69,3.59,14.33.18.2.27.23.49.35.41-.26.3-.11.44-.37.6-3.74,1.6-8.45-.92-11.73-.96-1.25-2.2-1.94-3.6-2.58M156.43,80.37c-1.47,3.05-1.04,6.19.09,9.27.52,1.44,1.1,2.76,2.44,3.56l.49-.03c1.18-3.01,2.4-6.72.95-9.85-.58-1.25-1.59-2.21-2.89-2.69-.35-.11-.72-.18-1.08-.26M228.18,93.57c-1.04.17-2.32.2-2.96,1.16-.23.35-.14.6-.11,1.01,1.18,2.2,4.52,3.79,6.86,4.47.9.26,1.82.37,2.75.44.87-.15,1.59-.23,2.31-.81.32-.64.44-.78.2-1.51-.63-1.91-4.22-3.77-5.99-4.34-.99-.32-2.01-.43-3.05-.43M380.95,136.27c-1.83,1.79-3.62,4.02-3.62,6.7,0,2.08.49,5.01,1.73,6.7.57.05.35.11.66-.02,2.23-2.61,4.18-5.5,3.91-9.13-.11-1.39-.78-2.98-1.92-3.83-.35-.26-.41-.27-.75-.43M406.92,186.82c-.49,3.59-.64,7.1,1.68,10.17,1.15,1.53,2.66,2.43,4.46,2.96.81-2.72.96-5.53-.44-8.1-1.3-2.38-3.4-3.77-5.7-5.04M111.56,145.61c-.67.49-1.04.73-1.3,1.56.03,1.25.52,2.03,1.4,2.89,2.2,2.12,5.33,3.65,8.28,4.37l.35.09.21.05.89-.17c.38-.9.03-1.85-.31-2.72-.93-2.4-2.78-4.6-5.16-5.64-1.44-.61-2.84-.47-4.37-.43M146.29,81.26c-.05,3.04.24,5.3,2.47,7.59,2.14,2.18,4.9,3.31,7.73,4.31-1.02-3.83-2.24-8.55-5.94-10.68-1.3-.76-2.78-.99-4.26-1.22M426.33,194.05c-1.99.7-4.38,1.51-5.39,3.53-.2.4-.21.78-.25,1.22.32.76.51,1.16,1.33,1.5,1.51.63,4.02.32,5.57-.06,1.88-.66,4.51-1.53,5.47-3.41.18-.35.2-.7.2-1.1-.43-.89-.85-1.31-1.8-1.6-1.56-.47-3.53-.18-5.13-.08M96.99,187.57c-2.98,1.94-5.54,3.94-6.29,7.64-.31,1.48-.75,3.42.06,4.8.61.26.63.26,1.27.09,3.31-1.77,5.39-4.2,6.48-7.85.29-.99.64-2.43.18-3.44-.23-.51-.7-.83-1.13-1.16l-.57-.08Z"/>
      </g>
    </g>
  </g>
</svg>