<?xml version="1.0" encoding="UTF-8"?>
<svg id="Layer_1" xmlns="http://www.w3.org/2000/svg" xmlns:xlink="http://www.w3.org/1999/xlink" version="1.1" viewBox="0 0 551.32 452.96">
  <!-- Generator: Adobe Illustrator 30.5.1, SVG Export Plug-In . SVG Version: 2.1.4 Build 3)  -->
  <defs>
    <style>
      .st0 {
        fill: none;
      }

      .st1 {
        fill: #efe3ce;
      }

      .st2 {
        fill: #1f3d3a;
      }

      .st3 {
        clip-path: url(#clippath-1);
      }

      .st4 {
        clip-path: url(#clippath-3);
      }

      .st5 {
        clip-path: url(#clippath-4);
      }

      .st6 {
        clip-path: url(#clippath-2);
      }

      .st7 {
        clip-path: url(#clippath);
      }
    </style>
    <clipPath id="clippath">
      <rect class="st0" width="551" height="452.94"/>
    </clipPath>
    <clipPath id="clippath-1">
      <rect class="st0" width="551" height="452.94"/>
    </clipPath>
    <clipPath id="clippath-2">
      <rect class="st0" width="551" height="452.94"/>
    </clipPath>
    <clipPath id="clippath-3">
      <rect class="st0" width="551" height="452.94"/>
    </clipPath>
    <clipPath id="clippath-4">
      <rect class="st0" width="551" height="452.94"/>
    </clipPath>
  </defs>
  <g id="Apple">
    <g class="st7">
      <g class="st3">
        <path class="st2" d="M261.39,7.3c.92-.66,1.84-1.34,2.87-1.91,2.31-1.29,5.04-2.05,7.9-1.62,4.39.65,7.18,3.53,9.48,6.22,1.24-.08,2.53-.19,3.77-.11,4.38.26,8.12,2.71,10.93,5.13,3.46,3.01,4.97,5.72,4.63,9.78,6.65-1.76,13.46-2.79,20.24-4.19.35-.95.71-1.91,1.27-2.81,1.03-1.69,2.88-3,5.16-3.61,3.96-1.05,9.05-.28,12.68,1.18,6.48,2.61,9.93,7.62,12.02,12.8-1.63,1.07-3.39,1.98-5.23,2.82-4.12,1.88-9.11,3.25-13.92,2.24-6.5-1.37-10.4-6.06-13.55-10.29-3.6.64-7.14,1.39-10.77,1.94.75.15,1.47.29,2.21.46,9.26,2.02,13.17,6.07,17.72,12.35,4.19-3.04,9.05-3.29,14.45-3.6.15-.12.33-.24.49-.36,1.91-1.38,4.03-2.21,6.7-2.09,5.94.26,10.1,4.16,13.76,7.3,1.49-.18,2.99-.29,4.48-.43,7.21,3.18,10.77,8.34,14.06,13.98,2.77-4.85,7.65-8.32,13.6-10.77,4.38,2.75,7.72,5.85,9.29,10.09,1.51,4.09,1.32,9.4-1.54,13.13-1.27,1.64-3.88,3.79-6.4,4.23-1.31.22-2.85.35-3.92.98l.06.33.19-.11c.57.71,4.51,1.7,5.66,2.21,3.18,1.39,5.49,3.37,7.72,5.55.01-.18.04-.33.05-.51.63-5.68,4.23-10.48,9.83-14.13.25.14.47.26.7.41,6.3,4.01,10.18,10.14,10.79,16.4,7.39-.86,13.35-1.02,19.85,2.21-.75,2.03-1.81,4-3.34,5.75-3.89,4.48-9.22,6.13-15.84,7.11.92.54,1.82,1.11,2.7,1.7,3.21,2.21,6.88,6.4,7,9.8.04.91-.32,1.77-1.18,2.41-2.09,1.55-6.08,1.09-8.76,1.04,5.33,1.74,11.45.15,15.67,3.76,2.19,1.9,3.3,4.4,3.04,6.93-.25,2.53-1.77,4.87-4.27,6.51-4.16,2.71-9.42,2.78-14.55,2.46.53,2.06,1.07,4.2,2.03,6.17-3.71,1.77-8.04,3.01-11.42,5.13-3.88,2.43-5.88,6.17-9.36,8.89-2.43,1.91-5.4,3.5-8.07,5.23-2.35,1.51-4.42,3.21-6.54,4.92,4.26-.31,9.99-1.15,14.07.05,2.95-4.71,6.05-9.4,11.18-12.97,4.27-2.98,8.46-4.17,14.24-3.96.63-.84,1.31-1.71,2.09-2.46,3.13-3,7.62-2.36,12.04-2.78,2.57-1.82,4.33-2.83,7.76-3.49-1.75-3.65-2.43-7.26-2.38-11.16,8.26-1.81,17.65-2.12,25.44,1.13,5.42,2.26,7.89,5.74,9.55,10.12-3.82,2.73-8.04,4.29-13.03,5.34,2.71.07,5.76.25,8.22,1.16,3.13,1.15,4.52,3.25,5.58,5.66,1.98.2,3.99.47,5.85,1.08,4.48,1.48,6.48,4.27,8.25,7.56,1.48.73,2.59,1.65,3.63,2.73,3.16-2.9,6.56-4.51,11.14-5.83.84.99,1.54,2,2.22,3.07,3.35,5.27,4.33,10.9,1.86,16.51,2.03.58,3.77,1.2,5.19,2.53,2.78,2.61,2.52,6.26,2.03,9.4,7.34.19,12.74,1.76,18.15,5.63-4.17,4.73-8.37,7.38-15.33,9.35.7,2.05,1.42,4.33.01,6.32-1.6,2.22-5.09,2.86-8,3.55.49.76.99,1.51,1.49,2.26.83,0,1.68-.03,2.52-.04,9.29-.18,15.12,1.84,21.81,6.74-5.19,4.45-10.67,8.82-18.01,11.12-3.3,1.02-7.05,1.64-10.42.47-4.7-1.66-3.55-3.1-4.91-6.15-1.17-.29-3.34.28-4.62.36-2.21.12-4.62-.14-6.84-.21l.18.61.47-.44c4.38.84,8.26,1.98,11.46,4.51,5.37,4.23,5.73,9.36,5.63,14.99-12.34.19-17.83-1.37-26.8-7.86-4.59.83-9.08,1.94-13.67,2.82,6.27,1.24,11.5,2.64,15.77,6.55,6.5,5.96,6.48,13.07,5.58,20.39-9.28-.65-20.42-3.44-27.75-7.99-3.55-2.21-6.26-5.16-6.63-8.75-.39-3.58,1.65-6.38,4.59-8.99-16.04,2.64-28.76,10.74-43.8,15.3-6.9,2.1-13.93,3.26-21.25,4.04-4.24.46-8.65.73-12.77,1.62-6.44,1.38-12.91,4.76-18.78,7.22-4.73,1.98-9.57,3.79-14.31,5.74-1.72.71-3.81,1.55-5.24,2.57-2.6,1.84-4.69,4.51-6.77,6.72-2.91,3.07-6.01,6.06-9.47,8.78-5.3,4.16-11.85,7.15-18.05,10.41-15.13,7.99-23.92,17.88-29.11,31.26l-5.09,13.37c-2.39,6.25-5.01,12.47-5.66,19.01-.36,3.62.04,7.3.61,10.9,1.81,11.43,5.16,22.77,8.3,34.02,2.45,8.75,4.59,20.56,10.14,28.36,4.2,5.9,12.46,8.05,20.39,9.83-6.26-.25-12.64,0-18.86-.54,2.19,1.04,4.34,2.07,6.36,3.32-5.31-.15-10.86-.91-15.9-2.22,1.39,1.02,2.73,2.1,4.06,3.17-6.29.04-18.33-2.41-25.06-3.41,2.02,1.19,3.72,2.63,5.18,4.22-7.07-.69-12.56-1.66-18.19-5.12-5.38,1.52-11.03,2.74-16.62,3.76,1.34-1.54,2.95-2.84,4.69-4.11-7.66,1.24-15.23,2.56-23.1,2.82,6.67-2.2,14.8-4.44,19.43-8.93,11.85-11.49,11.28-60.28,13.19-76.24,1.1-9.08,5.3-17.9,3.91-27.11-2.02-13.27-13.31-23.82-27.76-30.64-6.26-2.96-13.4-5.56-18.85-9.37-6.51-4.55-7.12-9.65-13.9-13.71-5.88-3.53-12.3-6.5-18.54-9.64-4.39-2.21-8.83-4.81-13.6-6.5-2.98-1.04-5.9-1.55-9.11-1.91-9.25-1.03-18.75-1.01-27.83-2.82-9.55-1.91-18.21-6.22-28.37-5.21,0,3.5-1,6.72-3.82,9.51-7.28,7.23-20.64,9.18-31.72,10.22-.61-2.18-.89-4.49-.9-6.73-.07-5.7,2.45-11.09,7.75-15.15,3.74-2.88,8.93-4.89,14.3-4.8,5.55.1,9.15,2.2,12.78,5.14,3.01-.06,6.01-.16,9.01-.33-3.71-2.28-7.54-4.63-11.79-6.3-11.38-4.49-26.29-4.56-38.86-4.27-.57.97-1.13,1.95-1.89,2.83-5.33,6.1-16.66,8.64-25.52,9.87-.43-2.79-1.11-5.45-.01-8.21,1.79-4.56,6.7-9.37,12.25-11.57,2.53-1.01,5.52-1.47,8.29-.73,3.35.9,5.01,3.05,6.44,5.35,3.75-.04,7.62.28,11.39.43,3.99.15,8.09.12,12.06.48-5.24-2.39-10.32-5.02-15.15-7.88-1.81.86-3.82,1.42-5.92,1.63-4.37.43-7.25-.68-10.53-2.68-.82.31-1.75.57-2.64.72-2.67.47-5.16-.75-7.3-1.82-.93,3.37-2.21,6.59-5.44,9.11-2.57,2.01-5.72,2.88-9.35,2.9-10.47.08-21.71-4.72-29.03-10.23,1.38-1.19,2.77-2.35,4.31-3.41,6.51-4.45,15.98-8.1,24.91-7.56,4.51.28,7.47,1.9,10.32,4.44-.42-2.24-.6-3.58.72-5.68-3.74.14-7.47.25-10.86-1.22-1.58-.69-2.93-1.74-3.34-3.14-.54-1.85.47-3.29,1.72-4.78-3.23.31-6.61.68-9.69-.35-2.38-.8-4.23-2.24-5.08-4.15-.93-2.07-.57-4.49.78-6.4,1.75-2.52,4.62-3.8,8.08-4.53-1.27-2.61-1.91-5.46-.61-8.13,1.41-2.86,4.45-4.2,7.9-5.34-3.32-1.74-5.73-4.02-6.55-7.12-1.18-4.52,1.37-9,4.62-12.65,1.54.41,3.11.83,4.59,1.38,6.67,2.52,9.25,6.12,11.56,11.32l.57-2.41c-1.63-2.53-2.45-5.28-1.93-8.1.64-3.46,3.13-6.5,6.72-8.59,4.33-2.52,9.05-3.11,14.3-2.57.6-.31,1.18-.59,1.81-.84,4.46-1.84,9.26-1.02,13.81.11,1.31-1.42,2.46-2.92,3.74-4.34,2.95-3.33,6.88-6.44,12.3-7.12,4.24-.54,7.28.84,10.6,2.61.11-.03.2-.05.29-.08,2.16-.66,4.37-.58,6.63-.51-4.24-1.09-6.58-2.75-9.86-4.95-3.6-.21-6.43-.47-9.75-1.62-2.29.4-4.69.54-7.02.76.14.71.22,1.42.12,2.13-.49,3.4-3.05,6.6-6.54,8.65-4.38,2.6-9.58,3.1-14.91,2.54-2.77-.29-6.29-.88-8-2.74-.83-.91-1-1.99-.72-3.07.82-3.28,4.62-6.62,8.12-8.45,4.33-2.25,10.81-4.11,16.07-3.19,2.87.5,4.13,2.12,5.55,3.9,1.58-.58,3.21-1.08,4.81-1.62-2.36-2.02-4.13-4.37-4.09-7.17.05-3.33,2.45-5.6,5.4-7.81-1.48-2.53-2.63-5.29-2.39-8.09.32-3.83,2.88-6.39,6.4-8.86-1.93-.37-3.85-.81-5.65-1.5-5.76-2.21-9.25-6.27-11.28-10.85.72-.61,1.47-1.23,2.25-1.8,5.49-3.93,10.81-4.95,18.14-4.72-.07-2.07-.12-4.13.46-6.17,1.21-4.3,4.6-7.31,9.33-9.64,2.77.8,5.01,1.77,6.98,3.5,3.39,2.96,4.9,7.19,4.55,11.09-.32,3.34-2.14,6.72-5.44,8.92l2.16,1.67c1-2.09,2.25-3.68,4.02-5.45-.13-.98-.21-1.95-.13-2.93.36-4.16,4.81-6.62,8.55-9.15l3.35.59,1.96-2.6c-4.1-.91-7.62-2.07-10.53-4.58-3.18-2.76-4.55-6.27-4.3-9.92.32-4.37,3.16-9.31,7.4-12.26,5.9,1.37,10.47,3.71,14.99,6.86,2.36-2.2,4.9-3.55,8.23-4.77.71-1.94,1.42-3.76,2.87-5.47,2.5-3.01,6.54-4.89,11.1-5.34,1.46-.14,3.14-.08,4.55-.41,2.36-.57,4.2-1.98,6.7-2.34,3.96-.58,7.44,1.67,10.51,3.29.21-.43-.04-.94-.14-1.4-.35,0-.14.04-.56-.21.11-.18.33-.58.36-.75.18-.72-.82-.78-1.51-.86-6.79-.87-12.61-1.55-17.51-5.68-.05-1.3-.07-2.57.18-3.87.85-4.46,4.69-8.47,9.42-11.05,6.44-3.5,17.7-5.62,25.47-4.4,1.52.24,2.94.72,3.76,1.78,1.6,2.06.35,6.66-.26,8.9-.35,1.01-.64,1.98-.79,3.03.68-.52.97-1.44,1.31-2.13.25-.22.47-.45.75-.65,3.35-2.49,7.51-2.38,11.85-2.34.08-.22.18-.46.26-.68,1.11-2.83,2.88-4.77,6.4-6.15,5.1-2.02,10.49-1.82,15.86-.57.96-1.92,2.16-3.67,4.12-5.1,4.41-3.22,10.42-3.65,16.2-3.53M287.17,315.89l4.62-5.5c10.04-10.91,21.88-14.67,35.66-21.46,3.85-1.88,7.51-4.12,10.56-6.75,12.42-10.61,21.09-24.72,27.39-38.02,2.05-4.33,4.19-8.93,4.73-13.55.49-4.26-.92-8.86-1.55-13.11-.6-4.34-.75-8.74-.47-13.09-3.88-1.18-7.28-2.78-8.94-5.89-.67-1.22-1.27-6.65-2.03-7-9.26,6.26-17.41,13.31-23.74,21.48-4.77,6.17-7.04,13.22-10.28,19.88-4.05,8.41-8.91,16.59-14.55,24.43-2.92,4.05-6.02,8.02-9.29,11.92-5.84,6.95-13.16,13.66-13.92,22.24-.43,4.91.46,10,.97,14.89.32,3.17.43,6.35.85,9.5M263.04,309.7l3.95,2.78c.01-15.33-2.49-30.54-11.13-44.52-2.7-4.36-5.98-8.46-9.28-12.57-4.17-5.19-8.01-10.27-13.66-14.6-3.99-3.07-8.27-5.94-12.25-9.01-4.52-3.49-8.5-7.18-12.37-11.09-2.22-2.25-10.6-12.53-11.93-13.33-5.35,6.17-7.94,17.93-7.93,25.17,0,2.68.49,5.38,1.17,7.99,1.03,4.05,2.59,8.02,4.66,11.84,2.78,5.03,6.81,9.57,10.21,14.34,4.76,6.68,8.69,13.9,14.67,19.99,2.19,2.24,4.74,4.02,7.79,5.56,3.81,1.92,8.03,3.39,12.11,4.96,8.6,3.31,17.2,7.17,23.98,12.49M216.75,174.23c-1.82,7-4.45,15.64-1.56,22.59,1.49,3.61,4.03,6.94,6.4,10.24,3.11,4.36,6.16,8.75,9.75,12.9,6.34,7.31,13.13,14.85,20.44,21.6,1.69,1.71,3.44,3.41,5.29,5.02,1.63-4.49,3.44-8.88,5.95-13.15,3.61-6.15,11.35-15.62,12.39-22.04.39-2.41-.6-4.58-2.12-6.65-2.23-3.01-5.38-5.68-8.25-8.36-3.46-3.25-6.84-6.55-9.86-10.05-3.44-4.01-6.72-8.23-9.36-12.58-1.24-2.02-1.95-4.45-3.39-6.35-2.88,3.86-6.27,7.26-12.13,8.5-4.66,1.01-9.35,0-13.53-1.66M277.26,273.35c6.68-4.16,20.56-18.36,24.35-24.42,1.52-2.38,2.46-4.95,2.8-7.58.35-2.68.18-5.43-.15-8.12-.7-5.45-5.12-28.33-8.39-32.1-.07-.08-.18-.15-.25-.22-9.97,9.21-29.17,39.52-27.77,51.12.57,4.8,3.67,9.28,5.94,13.71,1.27,2.5,2.36,5.07,3.48,7.62M360.78,266.69c5.63-1.92,11.22-4.02,16.72-6.18,11.17-4.37,42.27-17.68,46.34-26.72,1.13-2.5,1.06-5.38,1.31-8.01-6.58.03-12.4-.04-18.47-2.28-1.81-.67-3.51-1.87-5.4-2.35-5.65,3.47-26.55,16.27-29.43,20.21-2.92,3.97-3.44,9.04-5.23,13.36-1.68,4.06-4.02,7.97-5.84,11.99M244.82,164.28c1.89,10.74,17.79,23.98,27.04,32.03,2.99,2.6,6.22,5.87,9.75,8.05.11.07.25.12.35.19,3.13-4.23,9.14-10.77,7.45-15.93-1.84-5.63-9.04-10.03-13.66-14.42-2.93-2.79-5.66-5.87-7.93-9.03-5.37-7.58-3.98-13.34-7.75-20.52-5.02,1.04-9.71.94-14.81.33-1.77-.21-3.65-.57-5.44-.59,8.27,3.44,10.24,6.06,12.92,13,.49,1.26,1.25,3.35.28,4.52-1.49,1.82-5.66,2.13-8.19,2.35M161.67,262.93c-5.42-3.29-10.97-6.49-15.88-10.26-4.12-3.19-8.18-6.43-12.2-9.71-4.02-3.29-7.93-7.22-12.92-9.64-7.59-3.65-17.25-5.34-25.73-7.4-5.12-1.24-10.04-3.51-15.42-3.9.26,2,2.39,4.2,3.81,5.87,5.37,6.38,11.07,12.18,18.76,17.09,9.49,6.04,24.91,14.15,36.85,16.19,7.34,1.26,15.26,1.37,22.74,1.75M468.37,210.58c-7.65,5.02-16.75,8.57-24.13,13.77-6.55,4.6-11.43,10.34-17.51,15.28-7.09,5.77-15.43,10.62-23.2,15.8,1.28-.18,2.63-.3,3.85-.61,20.85-2.14,34.8-6.44,50.02-18.12,4.24-3.26,8.26-6.64,11.92-10.3,1.88-1.88,3.75-3.83,5.26-5.9-.96-1.3-2.66-3.25-2.07-4.78.33-.88,1.48-1.33,2.5-1.62,3.09-.88,6.01-1.33,8.81-2.81l.19-.5c-.42-.44-.72-.62-1.49-.71-.19-.03-.39,0-.57,0-4.94.84-8.58.99-13.59.48M147,237.43c.01,5.24-.01,9.79,5.22,13.74,3,2.27,6.65,4.02,10.16,5.79,7.83,3.91,16,7.4,24.16,10.9,4.42,1.89,9.18,3.69,13.3,5.96l3.98,2.22c-4.55-7.99-10.82-21-18.33-27.4-3.55-3.03-8.08-5.51-12.56-7.62-5.45-2.58-13.88-5.51-18.65-8.21-2.21,1.9-4.3,3.44-7.26,4.62M379.66,149.94l-3.11,1.43c-.47,3.94-1.06,8.89.01,12.76l3.46-3.29c2.71-2.56,5.44-5.11,8.09-7.69-2.25-1.09-5.77-3.21-8.46-3.21M371.59,174.59c1.41-.8,2.88-1.58,4.19-2.47,3.27-2.13,4.06-4.24,6.74-6.39,2.5-2.02,5.51-3.6,8.25-5.41,2.63-1.73,5.01-3.71,7.4-5.59-2.35-.18-4.69-.53-7.04-.64-2.12,2.81-5.11,5.35-7.72,7.92-4.16,4.12-8.14,8.23-11.84,12.58M503.53,175.42c4.98,1.78,7.54,4.51,9.4,8.39.42.86.75,1.79,1.28,2.61.39-2.65.78-5.24.75-7.91l.33-.05c.35-.05.68-.14,1-.21-.11-.37,0-.42-.35-.58-.43-.2-.68-.18-1.17-.21-3.51-.21-6.22-3.91-8.55-5.71-.89,1.23-1.72,2.49-2.71,3.68M209.32,172.67c-2.12-.46-3.81-1.02-5.58-2.07-.29,2.26,1.65,8.9,3.32,10.77l.29-.11.11-.86c.56-2.6,1.11-5.16,1.86-7.73M427.85,199.87c1.28,1.47,2.56,2.96,3.81,4.45.56.59,1.07,1.35,1.98,1.62,1.95-2.37,3.16-11.78,2.36-14.56-.21-.73-.5-1.35-1.41-1.74-.12-.05-.26-.1-.39-.14-3.27,1.7-4.42,7.34-6.2,10.13l-.15.22h0ZM298.18,191.46c2.49-2.25,4.8-4.6,6.9-7.07.13-3.37.75-7.57-1-10.74-1.88,2.39-7.52,13.78-6.93,16.25.14.55.65,1.08,1.04,1.55M119.81,229.4c-5.52-6.5-11.1-12.95-15.63-19.91-3.99.21-8.83.26-12.09-1.84-2.71-1.76-2.49-4.58-4.55-6.33-.97.94-1.93,1.88-2.93,2.81,2.78,1.27,5.21,2.79,6.13,5.31.92,2.57-.19,4.85-1.91,7.04-.14.18-.28.33-.42.5,8.37,4.84,17.52,9.21,27.64,11.56,1.27.33,2.5.64,3.77.88M377.89,210.25c3.75-2.83,7.47-5.71,11.11-8.61-1.67-1.96-2.36-4.17-3.82-6.18-1.21,3.49-2.53,6.69-6.84,8.64-.99.46-2.02.76-3.11,1.04.21,1.43.21,4.4,1.54,5.38.7,0,.58,0,1.11-.26M373.65,234.35c3.6-1.59,7.11-3.28,10.53-5.09,5.21-3,10.37-6.04,15.46-9.17-3.18-2.25-7.79-5.28-8.04-8.84-.08-1.05.26-2.06,1.2-2.83,1.88-1.55,5.05-1.8,7.62-2.05-3.42-.86-6.58-2-9.93-3-4.52,3.43-9.36,6.58-13.85,10.03-.14,3.98-.35,7.98-1.03,11.93-.53,3.03-1.39,5.99-1.96,9M312.02,228.39c.35,1.05.67,2.13,1.1,3.15,4.74-8.64,16.59-24,16.88-32.69.12-3.9-1.46-8.06-2.7-11.83-1.06-3.19-1.82-6.91-3.58-9.91-.09-.15-.15-.32-.29-.43-7.9,6.32-14.88,13.26-22.66,19.67,5.01,10.4,8.26,21.2,11.24,32.03M144.21,165.3c.97,2.45,1.67,4.85,2.31,7.36,1.04-.97,2.07-1.94,3.27-2.79,1.1-.66,2.17-1.37,3.3-2-2.97-.8-5.95-1.59-8.87-2.56M184.16,189.04c-1.93-1.11-4.06-2.36-6.27-3.09-5.04,4.92-1.53,7.38-10.37,11,2.49,3.03,5.09,6.95,3.91,10.65-.63,1.95-2.17,3.25-4.39,4.23l-.22.1c4.52,2.82,8.36,6.51,11.97,10.01l.7.35c1.31-1.18.75-5.49.71-7.04-4.23-2.26-6.91-4.98-7.8-8.95-.93-4.37.43-8.85,3.82-12.44,2.17-2.27,4.67-3.61,7.96-4.81M373.77,205.15l-4.27-.32c.14,3.89.6,16.19,3.39,19l.12-.31c1.25-5.51,1.49-12.76.76-18.36M467.74,199.78l-2.78,1.39c-3.06.18-4.63.35-6.72,2.26-2.31,2.13-8.04,10.92-8.58,13.69.75.04,1.47-.37,2.14-.64,5.14-2.24,10.03-4.66,14.73-7.4-2.14-2.61-2.57-4.24-1.74-7.32l3.04-1.71v-.22l-.08-.04h0ZM71.56,235.04c6.77,3.55,13.23,6.89,21.04,8.97,1.03.26,2.1.52,3.09.87-3.99-3.97-8.44-7.7-12.13-11.86-3.49-3.91-6.29-8.24-10.06-12.01-2.98-.26-5.76-.48-8.74-.19l-.56.26c.7.58,2.42.79,3.41,1.05,4.13,1.16,7.44,3.68,7.3,7.26-.09,2.27-1.49,3.97-3.35,5.63M118.5,147.25c3.51,1.67,6.7,3.26,8.64,6.21,2.97.22,6.05.32,8.98.76l1.46.1.04-.24c-1.89-1.52-3.7-2.93-5.04-4.77-4.38-.21-7.54-2.26-11.67-2.74l-2.39.69h0ZM368.91,143.83c1.54-1.44,2.99-2.94,4.1-4.62-2.86-.55-5.95-1.37-8.91-1.56.57,3.33.63,6.72,1.32,10.02,1.18-1.27,2.43-2.52,3.49-3.84M269.59,139.25c-3.64,3.98-4.95,8.45-3.89,13.26,2.12,9.57,10.63,17.25,18.62,24.36l.56.31c.46-.44.28-.66.19-1.22-.25-1.73-.88-3.44-1.18-5.17-.61-3.33-.86-6.68-1.1-10.02-5.24-2.94-12.16-6.51-13.35-11.82-.67-2.92.72-5.43,2.45-7.95-.76-.58-1.54-1.13-2.29-1.74M323.26,169.42c.28-3.5,1.06-12.17.2-15.32-5.63,5.11-12.71,9.22-15.88,15.64.79,3.25,1.6,6.51,2.19,9.79l.39.68.4.07c4.63-3.11,8.67-7.27,12.71-10.85M175.23,143.76l1.04.46.33-.21c0-1.15-.61-2.25-1.2-3.3-.79-1.42-7.28-11.07-8.5-12.01-.53,1.16-.5,1.98-.35,3.18-.6.22-1.18.41-1.81.59l-.08.25c1.34,1.16,2.67,2.32,3.82,3.61,2.05,2.28,3.98,5.63,6.74,7.42M363.25,137.4c-.74-.79-1.45-1.5-2.35-2.18-5.28,8.81-12.13,16.66-19.89,24.29-3.58,3.53-7.79,6.85-10.79,10.69.04,4.63.69,9.24,1.98,13.76.78,2.76,1.84,5.53,2.46,8.32l.49.33c2.56-1.9,6.44-10.62,8.16-13.52,2.25-3.87,4.81-7.63,7.65-11.28,3.32-4.26,7.07-8.42,9.79-12.93,1.42-2.34,2.59-4.94,2.66-7.56.08-3.32-.63-6.57-.18-9.91M365.22,154.9c2.28-1.41,7.66-3.97,8.03-6.21.07-.4.07-.8.07-1.22.04-1.31.83-1.84,2-2.74-.36-.88-.67-2.25-1.39-2.97-1.86,2.86-10.07,10.45-9.82,13.08l.36.2.75-.15h0ZM143.6,164.2c3.7.86,7.14,2.07,10.61,3.34,6.05-1.42,12-2.18,17.87.17,1.25.5,2.39,1.18,3.55,1.8-3.62-2.88-7.31-5.72-10.68-8.78-2.93-2.67-6.09-6.66-9.58-8.79-4.24,1.59-7.93,2.14-12.46,2.93-.82.15-2.57-.12-3.11.2l.28.05c9.71,1.73,19.36,3.79,25.78,10.08l-.28.4.43-.08h-.32c-11.45-6.47-23.2-9.76-37.39-10.94l-.26.43c.46.8,1.03,1.2,2.09,1.51,4.69,1.37,9.48-.31,12.47,4.49.64,1.01.83,2.07.99,3.18M224.02,135.31c-.57,5.57-1.42,10.91-3.11,16.36,1.7-1.48,3.37-3.04,5.35-4.3,1.95-.97,7.12-2.57,7.44-4.44.28-1.66-1.65-3.7-2.7-5.11-2.42-.73-4.66-1.59-6.98-2.5M381.74,136.86c-1.93.75-3.88,1.34-5.91,1.88.42,1.07.76,2.18,1.41,3.19,1.48-1.29,4.48-3.37,5.04-4.98l-.54-.11h-.01ZM497.17,227.68c1.47-1.34,3.37-2.27,5.21-3.28-2.38.65-4.41,1.43-6.55,2.47-4.69,2.34-9.04,5.02-13.28,7.78,4.53-.66,9.14-1.34,13.7-1.81-.16-1.92,0-3.35.92-5.17M409.42,95.66c-2.04.05-3.53,0-5.05,1.19-.25.61-.36.91.04,1.5.5.72,1.86,1.59,2.87,1.84.08.03.19.03.28.04l.6-.44c2.32-2.54,4.77-4.8,7.66-6.98-1.53-1.26-3.05-2.86-4.76-3.92-.14,2.45-.63,4.48-1.62,6.78M39.9,186.59c1.1,1.39,2.35,2.78,3.01,4.33.25.59.56,1.77,1.14,2.13l.05-.12c.25-3.4,1.75-5.81,4.26-8.55-2.52-1.01-3.75-1.89-4.62-4l-.11-.25c-.6,2.7-1.31,4.37-3.74,6.46M176.97,171.27c.78,5.53.78,8.45,5.38,12.97,2.05,2.02,4.4,3.83,7,5.42,2.14,1.33,11.88,7.01,13.7,6.89-3.13-4.44-7.44-7.76-12.02-11.27-1.53-1.18-3.23-2.35-4.59-3.65-3.27-3.13-5.31-7.91-9.49-10.35M225.86,117.75c0-1.31-.07-2.64.01-3.94-2.43-.4-4.88-.75-7.23-1.37.89,2.94,1.61,5.83,1.89,8.85,1.07-.71,2.21-1.4,3.25-2.14.7-.46,1.42-.9,2.07-1.41M214.78,127.66l3.64,2.53c-.83-3.28.39-5,.83-8.06.46-3.03-.53-9.11-3.35-11.35-1.46,4.62-3.23,7.8-8.23,10.8,2.07,2.21,4.66,4.12,7.11,6.1M329.02,125.21c.5-.84,1.06-1.69,1.49-2.56.83-1.47,1.6-2.96,2.32-4.47-2.52-.41-4.94-1.01-7.37-1.59,1,2.85,1.86,5.95,3.55,8.61M153.24,73.98c-1.74-.15-3.41-.3-5.11-.65-1.07.95-2.12,1.91-3.35,2.74,1.42.26,3.12.79,4.51.28,1.28-.86,2.56-1.65,3.96-2.37M378.57,69.25c4.7-.39,7.79-.26,12.16,1.12l.99.2.19-.24c-1.54-2.07-5.72-1.91-8.05-3.28-2.12-1.22-2.46-3.31-4.19-4.69-1.24,1.01-1.91,1.87-1.81,3.29.07,1.2.43,2.42.71,3.58M375.16,68.78c-1.63-1.62-3.68-1.99-6.09-2.67l1.81,2.86,4.3-.19h-.01ZM197.67,36.61c-2.28,1.19-4.44,2.54-6.86,3.54.57,1.77,1.24,3.5,1.91,5.25l.53.24c1.79-.4,3.56-.84,5.35-1.19-.93-2.74-.53-5.11-.92-7.85M356.67,124.67c2.85-2.92,3.44-6.95,2.77-10.51-.14-.69-.22-1.35-.84-1.89l-3,1.05c.07,3.8.43,7.59,1.07,11.35M356.25,134.01c-1.1-1.54-1.79-2.88-2.12-4.63-.42-2.13.14-14.43-1.18-15.06-1,.36-2.09.72-2.95,1.26-4.52,2.82-15.27,13.66-17.22,17.86-1.77,3.81-4.55,25.73-2.8,29.03.07.15.19.28.28.41.79-.12,1.18-.47,1.75-.88,10.65-9.62,16.76-16.74,24.23-28.01M323.83,142.48c.07.58,0,1.04.46,1.52.72-1.12,2.56-9.97,2.42-11.28-.32-3.01-1.86-5.9-2.63-8.84-.64-2.42-.78-5.1-1.65-7.45-.35-.95-4.45-3.01-5.72-4.05-1-.83-1.91-2.07-3.01-2.77-.6,7.24-2.45,10.8-6.79,17.17,3,2.3,5.97,4.74,9.25,6.82,1.59,1.01,4.69,2.26,5.79,3.54,1.2,1.41,1.53,3.68,1.89,5.34M145.06,245.56c-.25-2.57-.46-5.17-.49-7.76-2.78-.3-4.84-1.02-7.28-2.07,1.1,2.52,3.92,8.34,7.28,9.67.14.07.32.11.49.16M116.22,220.09c-1.27-3.98-2.5-7.99-4.37-11.83l-5.4.15c1.65,3.26,6.4,9.46,9.76,11.68M278.64,137.35l-8.98-.46v.88c1.28.4,2.84.31,4.19.68,1.04.28,2.07.98,3.06,1.39l.25-.22,1.49-2.27h-.01ZM154.7,133.56l-.56.2c1.47.63,3.06.86,4.55,1.43,3.64,1.39,7.16,3.57,10.49,5.36l.35-.11c-1.58-2.49-3.69-4.67-5.98-6.79-2.95-.21-5.92-.31-8.86-.1M198.93,123.86c-1.95.07-4.2.31-6.09.12,1.07,1.42,2.19,2.77,3.48,4.09l1.2-1.66,1.42-2.56h-.01ZM173.05,120.77c-1.42,1.66-3.16,3.13-4.6,4.76,1.11,1.71,2.35,3.36,3.63,5l1.42,1.73v-.41c-.07-1.87,1.24-9.64.19-10.65-.19-.2-.39-.28-.64-.43M334.43,127.06c2.77-2.22,9.54-7.48,11.17-9.88l-.26-.21c-2.39.59-4.8,1.16-7.19,1.71-1.04,1.88-4.13,6.35-3.96,8.27l.25.12h-.01ZM199.39,184.1c-3.7-5.47-7.45-10.92-10.81-16.53-3.68-6.14-6.29-13.91-12.09-19.07-3.58-3.17-8.43-5.11-12.43-7.87.32,2.97-.35,5.65-2.87,8.01-1.04.98-2.3,1.77-3.56,2.54,3.88,2.06,6.93,5.02,10.21,7.58,3.51,2.74,7.23,5.32,10.65,8.13,5.85,4.81,11.29,9.91,17.25,14.64l3.65,2.56h0ZM195.5,131.87c-2.43-2.18-4.63-4.44-6.19-7.09-2.32-.14-4.63-.29-6.97-.47.46,4.92-.4,8.31-3.84,12.47,3.37,9.75,9.21,18.53,14.77,27.59,1.86,3.04,3.44,6.4,5.8,9.22l.36.26c.71-3.21-5.09-17.89-7.07-21.37.79-1.38,1.56-2.65,1.84-4.15l.08-.43c.9-5.24-.22-10.4,1.2-16.04M114.26,97.53c.67,1.51,1.91,3.47,1,5.06-.4.71-1.11,1.24-1.82,1.77,1.32.19,5.42,1.05,6.47.66l1.89-.1c-.85-1.63-5.62-6.33-7.54-7.4M86.81,218.59c-1.45.91-2.87,1.82-4.26,2.77,4.12.97,8.23,1.92,12.28,3.07l4.16.83c-4.13-2.17-8.14-4.43-12.18-6.68M181.84,215.5c.19,4.53.15,9.08,2.67,13.28l.75,1.03h.35c1.24-3.15,1.44-6.61,2.36-9.84.76-2.67,2.31-5.43,2.71-8.12l-.28-.25c-2.71,2.52-4.37,3.3-8.57,3.9M514.97,188.25c-.76,1.54-1.63,3.32-1.35,4.99l.33.05.39-.44c.18-.39.32-1.02.78-1.23.78-.35,1.11-.57,1.54-1.18-.08-.8-.93-1.66-1.68-2.2M432.51,209.96c-1.34-2.82-2.66-7.05-5.62-9.11-.68-.15-1.11-.16-1.81-.11-2.52.55-8.99,1.26-10.34,3,.71,1.51,4.81,4.37,6.3,5.96,1.91,2.02,3.37,4.18,4.7,6.44l1.86,3.21c2.1-2.96,3.75-6.11,4.88-9.4M454.94,203.45c1.07-.69,2.21-1.33,2.99-2.22-.26-.3-.08-.24-.43-.29-1.1.26-2.22.44-3.06,1.07-.19.61-.12.71.33,1.27.06.07.13.12.18.18M305.03,139.36l.58.41c1.77-.54,3.67-2.49,5.15-3.48-3.07-3.53-9.4-8.28-10.61-12.25-1.7,3.94-3.61,6.98-7.27,10.08,5.01.79,8.84,2.1,12.16,5.23M119.84,105.49c2.21,1.02,4.44,2.1,6.83,2.82-1.34-1.6-3.2-2.37-5.59-2.75-.43-.07-.82-.1-1.24-.07M300.88,113.05c-.18-3,.26-6.38-.78-9.28l-.36-.15c-1.84.76-3.68,1.49-5.56,2.22,1.91,1.49,3.53,3.05,4.91,4.85l1.79,2.35h0ZM492.91,225.87c-6.54-.14-10.61-.87-16.02-3.76-5,6.62-11.64,12.25-17.76,18.23,4.06-1.08,8.05-2.2,11.83-3.84,7.52-3.25,14.8-6.9,21.95-10.63M363.86,185.61c4.97-1.73,9.92-3.43,15.42-1.82,1.24.36,2.32.9,3.37,1.51,1.34,1.8,2.17,3.84,3.11,5.78,2.03-2.02,4.17-3.41,6.88-4.88-4.91-1.45-9.25-3.07-11.49-7.04-.63-1.08-1.03-3.48-2.29-4.12-5.55,3.11-10.65,6.5-15.01,10.56M220.93,134.79c-4.13-3.93-10.67-10.5-16.69-12.37-5.45,7.74-5.63,16.56-4.6,25.15,3.77-.77,7.76-1.41,11.36.18,1.96.87,3.37,2.3,4.53,3.77l.36.29c1.86-1.23,4.49-14.41,5.04-17.01M288.17,165.4c1.1,5.6,3.23,10.67,5.63,16,.89-1.11,1.56-2.25,2.24-3.44,1.79-3,3.64-5.96,4.81-9.14-4.41-.88-8.53-2.02-12.68-3.43M341.27,196.11c6.55-4.3,13.46-8.7,18.85-13.9,3.14-3.03,5.77-6.39,8.55-9.61,2.49-2.86,5.16-4.96,5.55-8.59.14-1.29.56-11.64.4-12.25-4.54,3.05-9.21,6.07-13.26,9.52-7.89,6.76-13.17,15.61-16.8,24.17-1.31,3.07-3.06,6.6-3.32,9.8,0,.29,0,.57.04.84M303.66,101.34c-.96,5.5-1.98,16.19.7,21.21l1.67-2.61c2.56-4.37,3.42-8.75,4.41-13.44-2.17-1.78-4.24-3.69-6.77-5.16M138.67,205.8c-3.84,1.78-5.65,4.83-6.67,8.06-1.45,4.58-.79,8.79-.18,13.4.26-1.73.56-3.43.93-5.13,1.28-3.03,3.37-5.63,7.16-7.15,1.95-.77,3.92-1.08,6.08-1.34-2.29-1.59-4.52-3.03-5.63-5.32-.46-.95-.39-2.24-1.7-2.53M194.73,196.38c1.1,2.93,2.64,5.57,4.63,8.21,3.55,4.67,19.11,20.63,24.51,22.81.11.04.21.07.29.11-6.97-9.75-16.82-25.63-29.44-31.14M123.47,201.54c-2.38,2.96-4.55,4.66-8.67,6.14,2.14,7.58,3.18,14.62,9.58,20.96,2.12,2.09,4.6,3.98,6.88,5.97,1.06,1.01,2.1,2.07,3.28,2.99-8.15-11.43-7.8-19.23-3.55-31.61-2.59-1.33-4.95-3.24-7.54-4.45M154.81,231.54c8.39,2.68,16.09,6.59,24.37,9.37,2.6,1.26,5.23,2.5,7.69,3.91-2.43-10.74-5.52-17.53-14.48-26.15-2.36-2.27-4.77-4.57-7.8-6.35-2.77,2.26-5.76,3.14-9.57,3.91,2.53,2.92,3.37,5.81,2.5,9.28-.5,2.13-1.59,4.06-2.73,6M434.3,226.54c5.23-4.87,12.23-11.17,13.45-17.55.43-2.25.04-4.53-.25-6.78l-.07-.61c-3.49-1.37-6.2-2.79-8.69-5.16-.63-.61-1.11-1.33-1.75-1.9-.99,4.11-.53,8.36-1.55,12.53-2.03,8.2-5.55,16.01-6.88,24.35,2.02-1.55,3.85-3.22,5.73-4.88"/>
      </g>
      <g class="st6">
        <path d="M119.84,105.49c.43,0,.79,0,1.21.07,2.39.39,4.27,1.15,5.59,2.75-2.38-.72-4.6-1.81-6.81-2.82"/>
      </g>
      <g class="st4">
        <path d="M502.38,224.41c-1.84,1.02-3.74,1.95-5.21,3.28-.47-.22-.9-.54-1.35-.8,2.14-1.04,4.17-1.82,6.57-2.48"/>
        <path class="st2" d="M387.32,291.39c-3.67-2.26-6.9-5.74-9.07-9.01-2.18-3.3-4.34-8.1-3.01-11.65.51-1.35,1.58-2.51,3.16-3.06,3.57-1.21,12.01-1.16,15.74.1,2.83,1.32,5.36,2.66,6.56,5.28,2.85,6.24.12,17.99-2.97,23.61-3.81-1.28-7.11-3.22-10.41-5.27"/>
        <path class="st2" d="M408.23,282.41c-4.54-.32-9.47-1.86-13.38-3.7-3.93-1.85-8.78-5-9.86-8.59-.41-1.38-.23-2.83.77-3.99,2.29-2.6,9.49-6.26,13.46-6.82,3.23-.12,6.22-.09,8.9,1.62,6.33,4.06,11.38,15.27,12.28,21.41-4.04.58-8.08.37-12.18.08"/>
        <path class="st2" d="M400.92,252.68c1.48,3.6,1.79,7.99,1.35,11.72-.44,3.76-1.91,8.73-5.42,11.01-1.33.87-3,1.32-4.68,1.02-3.77-.69-10.68-4.73-12.9-7.55-1.44-2.42-2.6-4.72-1.82-7.46,1.89-6.48,12.11-14.88,18.47-18.04,2.26,2.86,3.67,6.02,5,9.28"/>
        <path class="st2" d="M441.56,271.8c-4.52-.46-9.39-2.16-13.2-4.11-3.84-1.97-8.55-5.26-9.47-8.89-.35-1.39-.11-2.84.96-3.96,2.39-2.53,9.76-5.96,13.75-6.39,3.23-.02,6.22.11,8.81,1.89,6.15,4.26,10.69,15.61,11.32,21.77-4.06.45-8.09.12-12.16-.3"/>
        <path class="st2" d="M428.59,286.93c-2.65-3.09-4.44-7.24-5.3-10.91-.86-3.71-1.14-8.82,1.44-11.85.98-1.15,2.43-1.98,4.13-2.09,3.85-.23,11.85,1.99,14.93,4.16,2.19,1.98,4.11,3.9,4.28,6.72.4,6.67-6.54,17.14-11.55,21.69-3.14-2.2-5.57-4.9-7.95-7.7"/>
      </g>
      <g class="st5">
        <path d="M205.43,25.44c.14.39.19.58.5.9-.35.68-.64,1.6-1.31,2.13.18-1.02.46-2,.79-3.03"/>
        <path class="st1" d="M323.88,94.97c0,2.03-1.81,3.68-4.05,3.68s-4.05-1.65-4.05-3.68,1.81-3.68,4.05-3.68,4.05,1.65,4.05,3.68"/>
        <path class="st1" d="M339.37,86.14c0,2.03-1.81,3.68-4.05,3.68s-4.05-1.65-4.05-3.68,1.81-3.68,4.05-3.68,4.05,1.65,4.05,3.68"/>
        <path class="st1" d="M289.38,53.46c0,2.03-1.81,3.68-4.05,3.68s-4.05-1.65-4.05-3.68,1.81-3.68,4.05-3.68,4.05,1.65,4.05,3.68"/>
        <path class="st1" d="M313.67,58.17c0,2.03-1.81,3.68-4.05,3.68s-4.05-1.65-4.05-3.68,1.81-3.68,4.05-3.68,4.05,1.65,4.05,3.68"/>
        <path class="st1" d="M262.62,55.82c0,2.03-1.81,3.68-4.05,3.68s-4.05-1.65-4.05-3.68,1.81-3.68,4.05-3.68,4.05,1.65,4.05,3.68"/>
        <path class="st1" d="M246.43,100.86c0,2.03-1.81,3.68-4.05,3.68s-4.05-1.65-4.05-3.68,1.81-3.68,4.05-3.68,4.05,1.65,4.05,3.68"/>
        <path class="st1" d="M336.2,120.29c0,2.03-1.81,3.68-4.05,3.68s-4.05-1.65-4.05-3.68,1.81-3.68,4.05-3.68,4.05,1.65,4.05,3.68"/>
        <path class="st1" d="M354.51,100.86c0,2.03-1.81,3.68-4.05,3.68s-4.05-1.65-4.05-3.68,1.81-3.68,4.05-3.68,4.05,1.65,4.05,3.68"/>
        <path class="st1" d="M280.23,64.95c0,2.03-1.81,3.68-4.05,3.68s-4.05-1.65-4.05-3.68,1.81-3.68,4.05-3.68,4.05,1.65,4.05,3.68"/>
        <path class="st1" d="M264.03,68.77c0,2.03-1.81,3.68-4.05,3.68s-4.05-1.65-4.05-3.68,1.81-3.68,4.05-3.68,4.05,1.65,4.05,3.68"/>
        <path class="st1" d="M317.54,114.99c0,2.03-1.81,3.68-4.05,3.68s-4.05-1.65-4.05-3.68,1.81-3.68,4.05-3.68,4.05,1.65,4.05,3.68"/>
        <path class="st1" d="M241.15,88.79c0,2.03-1.81,3.68-4.05,3.68s-4.05-1.65-4.05-3.68,1.81-3.68,4.05-3.68,4.05,1.65,4.05,3.68"/>
        <path class="st1" d="M242.55,64.06c0,2.03-1.81,3.68-4.05,3.68s-4.05-1.65-4.05-3.68,1.81-3.68,4.05-3.68,4.05,1.65,4.05,3.68"/>
        <path class="st1" d="M222.13,105.87c0,2.03-1.81,3.68-4.05,3.68s-4.05-1.65-4.05-3.68,1.81-3.68,4.05-3.68,4.05,1.65,4.05,3.68"/>
        <path class="st1" d="M226.36,96.15c0,2.03-1.81,3.68-4.05,3.68s-4.05-1.65-4.05-3.68,1.81-3.68,4.05-3.68,4.05,1.65,4.05,3.68"/>
        <path class="st1" d="M215.09,100.86c0,2.03-1.81,3.68-4.05,3.68s-4.05-1.65-4.05-3.68,1.81-3.68,4.05-3.68,4.05,1.65,4.05,3.68"/>
        <path class="st1" d="M503.33,189.96c0,2.03-1.81,3.68-4.05,3.68s-4.05-1.65-4.05-3.68,1.81-3.68,4.05-3.68,4.05,1.65,4.05,3.68"/>
        <path class="st1" d="M518.83,181.13c0,2.03-1.81,3.68-4.05,3.68s-4.05-1.65-4.05-3.68,1.81-3.68,4.05-3.68,4.05,1.65,4.05,3.68"/>
        <path class="st1" d="M468.83,148.45c0,2.03-1.81,3.68-4.05,3.68s-4.05-1.65-4.05-3.68,1.81-3.68,4.05-3.68,4.05,1.65,4.05,3.68"/>
        <path class="st1" d="M493.12,153.16c0,2.03-1.81,3.68-4.05,3.68s-4.05-1.65-4.05-3.68,1.81-3.68,4.05-3.68,4.05,1.65,4.05,3.68"/>
        <path class="st1" d="M442.08,150.8c0,2.03-1.81,3.68-4.05,3.68s-4.05-1.65-4.05-3.68,1.81-3.68,4.05-3.68,4.05,1.65,4.05,3.68"/>
        <path class="st1" d="M425.88,195.85c0,2.03-1.81,3.68-4.05,3.68s-4.05-1.65-4.05-3.68,1.81-3.68,4.05-3.68,4.05,1.65,4.05,3.68"/>
        <path class="st1" d="M515.66,215.28c0,2.03-1.81,3.68-4.05,3.68s-4.05-1.65-4.05-3.68,1.81-3.68,4.05-3.68,4.05,1.65,4.05,3.68"/>
        <path class="st1" d="M533.96,195.85c0,2.03-1.81,3.68-4.05,3.68s-4.05-1.65-4.05-3.68,1.81-3.68,4.05-3.68,4.05,1.65,4.05,3.68"/>
        <path class="st1" d="M459.68,159.93c0,2.03-1.81,3.68-4.05,3.68s-4.05-1.65-4.05-3.68,1.81-3.68,4.05-3.68,4.05,1.65,4.05,3.68"/>
        <path class="st1" d="M443.48,163.76c0,2.03-1.81,3.68-4.05,3.68s-4.05-1.65-4.05-3.68,1.81-3.68,4.05-3.68,4.05,1.65,4.05,3.68"/>
        <path class="st1" d="M497,209.98c0,2.03-1.81,3.68-4.05,3.68s-4.05-1.65-4.05-3.68,1.81-3.68,4.05-3.68,4.05,1.65,4.05,3.68"/>
        <path class="st1" d="M420.6,183.78c0,2.03-1.81,3.68-4.05,3.68s-4.05-1.65-4.05-3.68,1.81-3.68,4.05-3.68,4.05,1.65,4.05,3.68"/>
        <path class="st1" d="M422.01,159.05c0,2.03-1.81,3.68-4.05,3.68s-4.05-1.65-4.05-3.68,1.81-3.68,4.05-3.68,4.05,1.65,4.05,3.68"/>
        <path class="st1" d="M401.59,200.85c0,2.03-1.81,3.68-4.05,3.68s-4.05-1.65-4.05-3.68,1.81-3.68,4.05-3.68,4.05,1.65,4.05,3.68"/>
        <path class="st1" d="M405.81,191.14c0,2.03-1.81,3.68-4.05,3.68s-4.05-1.65-4.05-3.68,1.81-3.68,4.05-3.68,4.05,1.65,4.05,3.68"/>
        <path class="st1" d="M394.55,195.85c0,2.03-1.81,3.68-4.05,3.68s-4.05-1.65-4.05-3.68,1.81-3.68,4.05-3.68,4.05,1.65,4.05,3.68"/>
        <path class="st1" d="M153.16,197.47c0,2.03-1.81,3.68-4.05,3.68s-4.05-1.65-4.05-3.68,1.81-3.68,4.05-3.68,4.05,1.65,4.05,3.68"/>
        <path class="st1" d="M168.65,188.64c0,2.03-1.81,3.68-4.05,3.68s-4.05-1.65-4.05-3.68,1.81-3.68,4.05-3.68,4.05,1.65,4.05,3.68"/>
        <path class="st1" d="M118.66,155.96c0,2.03-1.81,3.68-4.05,3.68s-4.05-1.65-4.05-3.68,1.81-3.68,4.05-3.68,4.05,1.65,4.05,3.68"/>
        <path class="st1" d="M142.95,160.67c0,2.03-1.81,3.68-4.05,3.68s-4.05-1.65-4.05-3.68,1.81-3.68,4.05-3.68,4.05,1.65,4.05,3.68"/>
        <path class="st1" d="M91.9,158.32c0,2.03-1.81,3.68-4.05,3.68s-4.05-1.65-4.05-3.68,1.81-3.68,4.05-3.68,4.05,1.65,4.05,3.68"/>
        <path class="st1" d="M75.7,203.36c0,2.03-1.81,3.68-4.05,3.68s-4.05-1.65-4.05-3.68,1.81-3.68,4.05-3.68,4.05,1.65,4.05,3.68"/>
        <path class="st1" d="M165.48,222.79c0,2.03-1.81,3.68-4.05,3.68s-4.05-1.65-4.05-3.68,1.81-3.68,4.05-3.68,4.05,1.65,4.05,3.68"/>
        <path class="st1" d="M183.79,203.36c0,2.03-1.81,3.68-4.05,3.68s-4.05-1.65-4.05-3.68,1.81-3.68,4.05-3.68,4.05,1.65,4.05,3.68"/>
        <path class="st1" d="M109.5,167.44c0,2.03-1.81,3.68-4.05,3.68s-4.05-1.65-4.05-3.68,1.81-3.68,4.05-3.68,4.05,1.65,4.05,3.68"/>
        <path class="st1" d="M93.31,171.27c0,2.03-1.81,3.68-4.05,3.68s-4.05-1.65-4.05-3.68,1.81-3.68,4.05-3.68,4.05,1.65,4.05,3.68"/>
        <path class="st1" d="M146.82,217.49c0,2.03-1.81,3.68-4.05,3.68s-4.05-1.65-4.05-3.68,1.81-3.68,4.05-3.68,4.05,1.65,4.05,3.68"/>
        <path class="st1" d="M70.42,191.29c0,2.03-1.81,3.68-4.05,3.68s-4.05-1.65-4.05-3.68,1.81-3.68,4.05-3.68,4.05,1.65,4.05,3.68"/>
        <path class="st1" d="M71.83,166.56c0,2.03-1.81,3.68-4.05,3.68s-4.05-1.65-4.05-3.68,1.81-3.68,4.05-3.68,4.05,1.65,4.05,3.68"/>
        <path class="st1" d="M51.41,208.36c0,2.03-1.81,3.68-4.05,3.68s-4.05-1.65-4.05-3.68,1.81-3.68,4.05-3.68,4.05,1.65,4.05,3.68"/>
        <path class="st1" d="M55.64,198.65c0,2.03-1.81,3.68-4.05,3.68s-4.05-1.65-4.05-3.68,1.81-3.68,4.05-3.68,4.05,1.65,4.05,3.68"/>
        <path class="st1" d="M44.37,203.36c0,2.03-1.81,3.68-4.05,3.68s-4.05-1.65-4.05-3.68,1.81-3.68,4.05-3.68,4.05,1.65,4.05,3.68"/>
        <path class="st1" d="M229.04,125.75c0,2.03-1.81,3.68-4.05,3.68s-4.05-1.65-4.05-3.68,1.81-3.68,4.05-3.68,4.05,1.65,4.05,3.68"/>
        <path class="st1" d="M244.53,116.92c0,2.03-1.81,3.68-4.05,3.68s-4.05-1.65-4.05-3.68,1.81-3.68,4.05-3.68,4.05,1.65,4.05,3.68"/>
        <path class="st1" d="M194.53,84.24c0,2.03-1.81,3.68-4.05,3.68s-4.05-1.65-4.05-3.68,1.81-3.68,4.05-3.68,4.05,1.65,4.05,3.68"/>
        <path class="st1" d="M218.83,88.95c0,2.03-1.81,3.68-4.05,3.68s-4.05-1.65-4.05-3.68,1.81-3.68,4.05-3.68,4.05,1.65,4.05,3.68"/>
        <path class="st1" d="M167.78,86.59c0,2.03-1.81,3.68-4.05,3.68s-4.05-1.65-4.05-3.68,1.81-3.68,4.05-3.68,4.05,1.65,4.05,3.68"/>
        <path class="st1" d="M151.58,131.64c0,2.03-1.81,3.68-4.05,3.68s-4.05-1.65-4.05-3.68,1.81-3.68,4.05-3.68,4.05,1.65,4.05,3.68"/>
        <path class="st1" d="M241.36,151.07c0,2.03-1.81,3.68-4.05,3.68s-4.05-1.65-4.05-3.68,1.81-3.68,4.05-3.68,4.05,1.65,4.05,3.68"/>
        <path class="st1" d="M259.67,131.64c0,2.03-1.81,3.68-4.05,3.68s-4.05-1.65-4.05-3.68,1.81-3.68,4.05-3.68,4.05,1.65,4.05,3.68"/>
        <path class="st1" d="M185.38,95.72c0,2.03-1.81,3.68-4.05,3.68s-4.05-1.65-4.05-3.68,1.81-3.68,4.05-3.68,4.05,1.65,4.05,3.68"/>
        <path class="st1" d="M169.19,99.55c0,2.03-1.81,3.68-4.05,3.68s-4.05-1.65-4.05-3.68,1.81-3.68,4.05-3.68,4.05,1.65,4.05,3.68"/>
        <path class="st1" d="M222.7,145.77c0,2.03-1.81,3.68-4.05,3.68s-4.05-1.65-4.05-3.68,1.81-3.68,4.05-3.68,4.05,1.65,4.05,3.68"/>
        <path class="st1" d="M146.3,119.56c0,2.03-1.81,3.68-4.05,3.68s-4.05-1.65-4.05-3.68,1.81-3.68,4.05-3.68,4.05,1.65,4.05,3.68"/>
        <path class="st1" d="M147.71,94.84c0,2.03-1.81,3.68-4.05,3.68s-4.05-1.65-4.05-3.68,1.81-3.68,4.05-3.68,4.05,1.65,4.05,3.68"/>
        <path class="st1" d="M127.29,136.64c0,2.03-1.81,3.68-4.05,3.68s-4.05-1.65-4.05-3.68,1.81-3.68,4.05-3.68,4.05,1.65,4.05,3.68"/>
        <path class="st1" d="M131.51,126.92c0,2.03-1.81,3.68-4.05,3.68s-4.05-1.65-4.05-3.68,1.81-3.68,4.05-3.68,4.05,1.65,4.05,3.68"/>
        <path class="st1" d="M120.25,131.64c0,2.03-1.81,3.68-4.05,3.68s-4.05-1.65-4.05-3.68,1.81-3.68,4.05-3.68,4.05,1.65,4.05,3.68"/>
        <path class="st1" d="M234.87,88.65c0,2.03-1.81,3.68-4.05,3.68s-4.05-1.65-4.05-3.68,1.81-3.68,4.05-3.68,4.05,1.65,4.05,3.68"/>
        <path class="st1" d="M250.36,79.82c0,2.03-1.81,3.68-4.05,3.68s-4.05-1.65-4.05-3.68,1.81-3.68,4.05-3.68,4.05,1.65,4.05,3.68"/>
        <path class="st1" d="M200.37,47.14c0,2.03-1.81,3.68-4.05,3.68s-4.05-1.65-4.05-3.68,1.81-3.68,4.05-3.68,4.05,1.65,4.05,3.68"/>
        <path class="st1" d="M224.66,51.85c0,2.03-1.81,3.68-4.05,3.68s-4.05-1.65-4.05-3.68,1.81-3.68,4.05-3.68,4.05,1.65,4.05,3.68"/>
        <path class="st1" d="M173.61,49.5c0,2.03-1.81,3.68-4.05,3.68s-4.05-1.65-4.05-3.68,1.81-3.68,4.05-3.68,4.05,1.65,4.05,3.68"/>
        <path class="st1" d="M157.42,94.54c0,2.03-1.81,3.68-4.05,3.68s-4.05-1.65-4.05-3.68,1.81-3.68,4.05-3.68,4.05,1.65,4.05,3.68"/>
        <path class="st1" d="M247.2,113.97c0,2.03-1.81,3.68-4.05,3.68s-4.05-1.65-4.05-3.68,1.81-3.68,4.05-3.68,4.05,1.65,4.05,3.68"/>
        <path class="st1" d="M265.5,94.54c0,2.03-1.81,3.68-4.05,3.68s-4.05-1.65-4.05-3.68,1.81-3.68,4.05-3.68,4.05,1.65,4.05,3.68"/>
        <path class="st1" d="M191.22,58.62c0,2.03-1.81,3.68-4.05,3.68s-4.05-1.65-4.05-3.68,1.81-3.68,4.05-3.68,4.05,1.65,4.05,3.68"/>
        <path class="st1" d="M175.02,62.45c0,2.03-1.81,3.68-4.05,3.68s-4.05-1.65-4.05-3.68,1.81-3.68,4.05-3.68,4.05,1.65,4.05,3.68"/>
        <path class="st1" d="M228.54,108.67c0,2.03-1.81,3.68-4.05,3.68s-4.05-1.65-4.05-3.68,1.81-3.68,4.05-3.68,4.05,1.65,4.05,3.68"/>
        <path class="st1" d="M152.14,82.47c0,2.03-1.81,3.68-4.05,3.68s-4.05-1.65-4.05-3.68,1.81-3.68,4.05-3.68,4.05,1.65,4.05,3.68"/>
        <path class="st1" d="M153.55,57.74c0,2.03-1.81,3.68-4.05,3.68s-4.05-1.65-4.05-3.68,1.81-3.68,4.05-3.68,4.05,1.65,4.05,3.68"/>
        <path class="st1" d="M133.13,99.55c0,2.03-1.81,3.68-4.05,3.68s-4.05-1.65-4.05-3.68,1.81-3.68,4.05-3.68,4.05,1.65,4.05,3.68"/>
        <path class="st1" d="M137.35,89.83c0,2.03-1.81,3.68-4.05,3.68s-4.05-1.65-4.05-3.68,1.81-3.68,4.05-3.68,4.05,1.65,4.05,3.68"/>
        <path class="st1" d="M126.09,94.54c0,2.03-1.81,3.68-4.05,3.68s-4.05-1.65-4.05-3.68,1.81-3.68,4.05-3.68,4.05,1.65,4.05,3.68"/>
        <path class="st1" d="M318.63,67.18c0,2.03-1.81,3.68-4.05,3.68s-4.05-1.65-4.05-3.68,1.81-3.68,4.05-3.68,4.05,1.65,4.05,3.68"/>
        <path class="st1" d="M334.12,58.35c0,2.03-1.81,3.68-4.05,3.68s-4.05-1.65-4.05-3.68,1.81-3.68,4.05-3.68,4.05,1.65,4.05,3.68"/>
        <path class="st1" d="M284.13,25.67c0,2.03-1.81,3.68-4.05,3.68s-4.05-1.65-4.05-3.68,1.81-3.68,4.05-3.68,4.05,1.65,4.05,3.68"/>
        <path class="st1" d="M308.42,30.38c0,2.03-1.81,3.68-4.05,3.68s-4.05-1.65-4.05-3.68,1.81-3.68,4.05-3.68,4.05,1.65,4.05,3.68"/>
        <path class="st1" d="M257.37,28.02c0,2.03-1.81,3.68-4.05,3.68s-4.05-1.65-4.05-3.68,1.81-3.68,4.05-3.68,4.05,1.65,4.05,3.68"/>
        <path class="st1" d="M241.17,73.07c0,2.03-1.81,3.68-4.05,3.68s-4.05-1.65-4.05-3.68,1.81-3.68,4.05-3.68,4.05,1.65,4.05,3.68"/>
        <path class="st1" d="M330.95,92.5c0,2.03-1.81,3.68-4.05,3.68s-4.05-1.65-4.05-3.68,1.81-3.68,4.05-3.68,4.05,1.65,4.05,3.68"/>
        <path class="st1" d="M349.26,73.07c0,2.03-1.81,3.68-4.05,3.68s-4.05-1.65-4.05-3.68,1.81-3.68,4.05-3.68,4.05,1.65,4.05,3.68"/>
        <path class="st1" d="M274.97,37.15c0,2.03-1.81,3.68-4.05,3.68s-4.05-1.65-4.05-3.68,1.81-3.68,4.05-3.68,4.05,1.65,4.05,3.68"/>
        <path class="st1" d="M258.78,40.98c0,2.03-1.81,3.68-4.05,3.68s-4.05-1.65-4.05-3.68,1.81-3.68,4.05-3.68,4.05,1.65,4.05,3.68"/>
        <path class="st1" d="M312.29,87.2c0,2.03-1.81,3.68-4.05,3.68s-4.05-1.65-4.05-3.68,1.81-3.68,4.05-3.68,4.05,1.65,4.05,3.68"/>
        <path class="st1" d="M235.89,60.99c0,2.03-1.81,3.68-4.05,3.68s-4.05-1.65-4.05-3.68,1.81-3.68,4.05-3.68,4.05,1.65,4.05,3.68"/>
        <path class="st1" d="M237.3,36.27c0,2.03-1.81,3.68-4.05,3.68s-4.05-1.65-4.05-3.68,1.81-3.68,4.05-3.68,4.05,1.65,4.05,3.68"/>
        <path class="st1" d="M216.88,78.07c0,2.03-1.81,3.68-4.05,3.68s-4.05-1.65-4.05-3.68,1.81-3.68,4.05-3.68,4.05,1.65,4.05,3.68"/>
        <path class="st1" d="M221.11,68.35c0,2.03-1.81,3.68-4.05,3.68s-4.05-1.65-4.05-3.68,1.81-3.68,4.05-3.68,4.05,1.65,4.05,3.68"/>
        <path class="st1" d="M209.84,73.07c0,2.03-1.81,3.68-4.05,3.68s-4.05-1.65-4.05-3.68,1.81-3.68,4.05-3.68,4.05,1.65,4.05,3.68"/>
        <path class="st1" d="M415.35,150.48c0,2.03-1.81,3.68-4.05,3.68s-4.05-1.65-4.05-3.68,1.81-3.68,4.05-3.68,4.05,1.65,4.05,3.68"/>
        <path class="st1" d="M430.84,141.65c0,2.03-1.81,3.68-4.05,3.68s-4.05-1.65-4.05-3.68,1.81-3.68,4.05-3.68,4.05,1.65,4.05,3.68"/>
        <path class="st1" d="M380.85,108.97c0,2.03-1.81,3.68-4.05,3.68s-4.05-1.65-4.05-3.68,1.81-3.68,4.05-3.68,4.05,1.65,4.05,3.68"/>
        <path class="st1" d="M405.14,113.68c0,2.03-1.81,3.68-4.05,3.68s-4.05-1.65-4.05-3.68,1.81-3.68,4.05-3.68,4.05,1.65,4.05,3.68"/>
        <path class="st1" d="M354.09,111.33c0,2.03-1.81,3.68-4.05,3.68s-4.05-1.65-4.05-3.68,1.81-3.68,4.05-3.68,4.05,1.65,4.05,3.68"/>
        <path class="st1" d="M337.89,156.37c0,2.03-1.81,3.68-4.05,3.68s-4.05-1.65-4.05-3.68,1.81-3.68,4.05-3.68,4.05,1.65,4.05,3.68"/>
        <path class="st1" d="M427.67,175.8c0,2.03-1.81,3.68-4.05,3.68s-4.05-1.65-4.05-3.68,1.81-3.68,4.05-3.68,4.05,1.65,4.05,3.68"/>
        <path class="st1" d="M445.98,156.37c0,2.03-1.81,3.68-4.05,3.68s-4.05-1.65-4.05-3.68,1.81-3.68,4.05-3.68,4.05,1.65,4.05,3.68"/>
        <path class="st1" d="M371.69,120.46c0,2.03-1.81,3.68-4.05,3.68s-4.05-1.65-4.05-3.68,1.81-3.68,4.05-3.68,4.05,1.65,4.05,3.68"/>
        <path class="st1" d="M355.5,124.28c0,2.03-1.81,3.68-4.05,3.68s-4.05-1.65-4.05-3.68,1.81-3.68,4.05-3.68,4.05,1.65,4.05,3.68"/>
        <path class="st1" d="M409.01,170.5c0,2.03-1.81,3.68-4.05,3.68s-4.05-1.65-4.05-3.68,1.81-3.68,4.05-3.68,4.05,1.65,4.05,3.68"/>
        <path class="st1" d="M332.61,144.3c0,2.03-1.81,3.68-4.05,3.68s-4.05-1.65-4.05-3.68,1.81-3.68,4.05-3.68,4.05,1.65,4.05,3.68"/>
        <path class="st1" d="M334.02,119.57c0,2.03-1.81,3.68-4.05,3.68s-4.05-1.65-4.05-3.68,1.81-3.68,4.05-3.68,4.05,1.65,4.05,3.68"/>
        <path class="st1" d="M313.6,161.38c0,2.03-1.81,3.68-4.05,3.68s-4.05-1.65-4.05-3.68,1.81-3.68,4.05-3.68,4.05,1.65,4.05,3.68"/>
        <path class="st1" d="M317.83,151.66c0,2.03-1.81,3.68-4.05,3.68s-4.05-1.65-4.05-3.68,1.81-3.68,4.05-3.68,4.05,1.65,4.05,3.68"/>
        <path class="st1" d="M306.56,156.37c0,2.03-1.81,3.68-4.05,3.68s-4.05-1.65-4.05-3.68,1.81-3.68,4.05-3.68,4.05,1.65,4.05,3.68"/>
        <path class="st2" d="M283.85,105.08c-4.52-.46-9.39-2.16-13.2-4.11-3.84-1.97-8.55-5.26-9.47-8.89-.35-1.39-.11-2.84.96-3.96,2.39-2.53,9.76-5.96,13.75-6.39,3.23-.02,6.22.11,8.81,1.89,6.15,4.26,10.69,15.61,11.32,21.77-4.06.45-8.09.12-12.16-.3"/>
        <path class="st2" d="M212.64,93.37c-4.52-.46-9.39-2.16-13.2-4.11-3.84-1.97-8.55-5.26-9.47-8.89-.35-1.39-.11-2.84.96-3.96,2.39-2.53,9.76-5.96,13.75-6.39,3.23-.02,6.22.11,8.81,1.89,6.15,4.26,10.69,15.61,11.32,21.77-4.06.45-8.09.12-12.16-.3"/>
        <path class="st2" d="M367.9,80.68c-4.52-.46-9.39-2.16-13.2-4.11-3.84-1.97-8.55-5.26-9.47-8.89-.35-1.39-.11-2.84.96-3.96,2.39-2.53,9.76-5.96,13.75-6.39,3.23-.02,6.22.11,8.81,1.89,6.15,4.26,10.69,15.61,11.32,21.77-4.06.45-8.09.12-12.16-.3"/>
        <path class="st2" d="M462.45,190.99c-4.52-.46-9.39-2.16-13.2-4.11-3.84-1.97-8.55-5.26-9.47-8.89-.35-1.39-.11-2.84.96-3.96,2.39-2.53,9.76-5.96,13.75-6.39,3.23-.02,6.22.11,8.81,1.89,6.15,4.26,10.69,15.61,11.32,21.77-4.06.45-8.09.12-12.16-.3"/>
        <path class="st2" d="M453.12,273.96c-4.52-.46-9.39-2.16-13.2-4.11-3.84-1.97-8.55-5.26-9.47-8.89-.35-1.39-.11-2.84.96-3.96,2.39-2.53,9.76-5.96,13.75-6.39,3.23-.02,6.22.11,8.81,1.89,6.15,4.26,10.69,15.61,11.32,21.77-4.06.45-8.09.12-12.16-.3"/>
        <path class="st2" d="M407.59,289.58c-4.52-.46-9.39-2.16-13.2-4.11-3.84-1.97-8.55-5.26-9.47-8.89-.35-1.39-.11-2.84.96-3.96,2.39-2.53,9.76-5.96,13.75-6.39,3.23-.02,6.22.11,8.81,1.89,6.15,4.26,10.69,15.61,11.32,21.77-4.06.45-8.09.12-12.16-.3"/>
        <path class="st2" d="M67.39,195.51c-1.72-3.52-2.31-7.91-2.11-11.65.2-3.77,1.34-8.81,4.69-11.25,1.27-.93,2.92-1.45,4.61-1.23,3.81.53,10.97,4.25,13.37,6.94,1.59,2.35,2.92,4.6,2.3,7.36-1.46,6.56-11.11,15.4-17.25,18.85-2.44-2.75-4.05-5.85-5.59-9.04"/>
        <path class="st2" d="M52.22,230.65c-1.72-3.52-2.31-7.91-2.11-11.65.2-3.77,1.34-8.81,4.69-11.25,1.27-.93,2.92-1.45,4.61-1.23,3.81.53,10.97,4.25,13.37,6.94,1.59,2.35,2.91,4.6,2.3,7.36-1.46,6.56-11.11,15.4-17.25,18.85-2.44-2.75-4.05-5.85-5.59-9.04"/>
        <path class="st2" d="M156.11,218.93c-1.72-3.52-2.31-7.91-2.12-11.65.2-3.77,1.34-8.81,4.69-11.25,1.27-.93,2.92-1.45,4.61-1.23,3.81.53,10.97,4.25,13.37,6.94,1.59,2.35,2.91,4.6,2.3,7.36-1.46,6.56-11.11,15.4-17.25,18.85-2.44-2.75-4.05-5.85-5.59-9.04"/>
        <path class="st2" d="M124.59,181.84c-1.72-3.52-2.31-7.91-2.12-11.65.2-3.77,1.34-8.81,4.69-11.25,1.27-.93,2.92-1.45,4.61-1.23,3.81.53,10.97,4.25,13.37,6.94,1.59,2.35,2.92,4.6,2.3,7.36-1.46,6.56-11.11,15.4-17.25,18.85-2.44-2.75-4.05-5.85-5.59-9.04"/>
        <path class="st2" d="M136.27,113.51c-1.72-3.52-2.31-7.91-2.12-11.65.2-3.77,1.34-8.81,4.69-11.25,1.27-.93,2.92-1.45,4.61-1.23,3.81.53,10.97,4.25,13.37,6.94,1.59,2.35,2.92,4.6,2.3,7.36-1.46,6.56-11.11,15.4-17.25,18.85-2.44-2.75-4.05-5.85-5.59-9.04"/>
        <path class="st2" d="M281.02,68.6c-1.72-3.52-2.31-7.91-2.12-11.65.2-3.77,1.34-8.81,4.69-11.25,1.27-.93,2.92-1.45,4.61-1.23,3.81.53,10.97,4.25,13.37,6.94,1.59,2.35,2.92,4.6,2.3,7.36-1.46,6.56-11.11,15.4-17.25,18.85-2.44-2.75-4.05-5.85-5.59-9.04"/>
        <path class="st2" d="M400.09,194.53c-1.72-3.52-2.31-7.91-2.12-11.65.2-3.77,1.34-8.81,4.69-11.25,1.27-.93,2.92-1.45,4.61-1.23,3.81.53,10.97,4.25,13.37,6.94,1.59,2.35,2.91,4.6,2.3,7.36-1.46,6.56-11.11,15.4-17.25,18.85-2.44-2.75-4.05-5.85-5.59-9.04"/>
        <path class="st2" d="M200.47,107.65c-1.72-3.52-2.31-7.91-2.12-11.65.2-3.77,1.34-8.81,4.69-11.25,1.27-.93,2.92-1.45,4.61-1.23,3.81.53,10.97,4.25,13.37,6.94,1.59,2.35,2.91,4.6,2.3,7.36-1.46,6.56-11.11,15.4-17.25,18.85-2.44-2.75-4.05-5.85-5.59-9.04"/>
      </g>
    </g>
  </g>
</svg>