<?xml version="1.0" encoding="UTF-8"?>
<svg id="Layer_1" xmlns="http://www.w3.org/2000/svg" xmlns:xlink="http://www.w3.org/1999/xlink" version="1.1" viewBox="0 0 602.17 719">
  <!-- Generator: Adobe Illustrator 30.5.1, SVG Export Plug-In . SVG Version: 2.1.4 Build 3)  -->
  <defs>
    <style>
      .st0 {
        fill: none;
      }

      .st1 {
        fill: #1f3d3a;
      }

      .st2 {
        clip-path: url(#clippath-1);
      }

      .st3 {
        clip-path: url(#clippath-3);
      }

      .st4 {
        clip-path: url(#clippath-4);
      }

      .st5 {
        clip-path: url(#clippath-2);
      }

      .st6 {
        clip-path: url(#clippath-7);
      }

      .st7 {
        clip-path: url(#clippath-6);
      }

      .st8 {
        clip-path: url(#clippath-9);
      }

      .st9 {
        clip-path: url(#clippath-8);
      }

      .st10 {
        clip-path: url(#clippath-5);
      }

      .st11 {
        clip-path: url(#clippath);
      }
    </style>
    <clipPath id="clippath">
      <rect class="st0" x=".34" width="601.83" height="511"/>
    </clipPath>
    <clipPath id="clippath-1">
      <rect class="st0" x=".34" y="11.3" width="600.74" height="707.7"/>
    </clipPath>
    <clipPath id="clippath-2">
      <rect class="st0" x="27.53" y="14.02" width="573.55" height="704.98"/>
    </clipPath>
    <clipPath id="clippath-3">
      <rect class="st0" x=".34" y="11.3" width="600.74" height="707.7"/>
    </clipPath>
    <clipPath id="clippath-4">
      <rect class="st0" x="27.53" y="14.02" width="573.55" height="704.98"/>
    </clipPath>
    <clipPath id="clippath-5">
      <rect class="st0" x=".34" y="11.3" width="600.74" height="707.7"/>
    </clipPath>
    <clipPath id="clippath-6">
      <rect class="st0" x=".34" y="11.3" width="573.55" height="704.98"/>
    </clipPath>
    <clipPath id="clippath-7">
      <rect class="st0" x=".34" y="11.3" width="600.74" height="707.7"/>
    </clipPath>
    <clipPath id="clippath-8">
      <rect class="st0" x=".34" y="11.3" width="573.55" height="704.98"/>
    </clipPath>
    <clipPath id="clippath-9">
      <rect class="st0" x=".34" y="11.3" width="600.74" height="707.7"/>
    </clipPath>
  </defs>
  <g class="st11">
    <g class="st2">
      <g class="st5">
        <path class="st1" d="M299.62,25.39c.96-1.04,1.92-2.08,2.98-2.97,2.41-2,5.24-3.18,8.23-2.52,4.58,1.02,7.47,5.49,9.88,9.68,1.29-.12,2.64-.29,3.93-.17,4.56.42,8.46,4.23,11.37,8,3.6,4.68,5.17,8.91,4.83,15.22,6.93-2.73,14.01-4.35,21.07-6.51.36-1.47.74-2.97,1.31-4.37,1.07-2.63,3-4.67,5.37-5.63,4.13-1.65,9.42-.44,13.2,1.83,6.74,4.05,10.34,11.87,12.52,19.92-1.7,1.67-3.53,3.08-5.44,4.4-4.29,2.94-9.47,5.06-14.48,3.48-6.77-2.12-10.83-9.43-14.1-16-3.75.99-7.43,2.16-11.21,3.02.77.23,1.54.45,2.3.71,9.64,3.14,13.71,9.45,18.45,19.21,4.36-4.73,9.42-5.12,15.05-5.6.16-.18.34-.38.5-.57,1.99-2.15,4.2-3.44,6.98-3.24,6.18.42,10.5,6.47,14.32,11.36,1.56-.27,3.11-.45,4.67-.66,7.5,4.95,11.21,12.97,14.63,21.75,2.87-7.55,7.96-12.95,14.16-16.75,4.56,4.29,8.03,9.1,9.68,15.72,1.57,6.37,1.38,14.63-1.61,20.44-1.31,2.55-4.03,5.9-6.66,6.57-1.35.36-2.96.54-4.09,1.52l.05.52.2-.17c.6,1.11,4.68,2.64,5.9,3.44,3.3,2.16,5.71,5.24,8.03,8.63.02-.27.04-.52.06-.79.65-8.84,4.4-16.32,10.23-21.99.26.21.49.42.72.65,6.56,6.24,10.6,15.77,11.23,25.52,7.69-1.33,13.9-1.58,20.65,3.44-.77,3.17-1.88,6.23-3.48,8.95-4.05,6.98-9.61,9.53-16.5,11.05.96.84,1.9,1.73,2.8,2.64,3.34,3.44,7.16,9.97,7.28,15.26.04,1.41-.32,2.75-1.23,3.75-2.17,2.42-6.33,1.71-9.11,1.62,5.55,2.7,11.91.23,16.31,5.85,2.28,2.96,3.44,6.85,3.17,10.78-.25,3.93-1.84,7.58-4.45,10.13-4.32,4.23-9.8,4.34-15.13,3.83.54,3.21,1.12,6.53,2.11,9.59-3.87,2.75-8.38,4.68-11.88,8-4.03,3.78-6.13,9.59-9.75,13.84-2.53,2.97-5.63,5.45-8.39,8.14-2.44,2.36-4.61,5-6.8,7.66,4.43-.48,10.4-1.79,14.65.09,3.07-7.35,6.29-14.63,11.64-20.19,4.45-4.64,8.81-6.5,14.83-6.17.65-1.31,1.35-2.67,2.17-3.83,3.25-4.67,7.93-3.68,12.53-4.32,2.68-2.83,4.51-4.41,8.08-5.43-1.83-5.69-2.53-11.3-2.48-17.36,8.61-2.81,18.38-3.29,26.47,1.77,5.64,3.51,8.21,8.93,9.95,15.76-3.98,4.25-8.38,6.66-13.56,8.3,2.83.1,5.98.39,8.55,1.81,3.25,1.79,4.7,5.06,5.81,8.81,2.06.31,4.16.72,6.09,1.68,4.67,2.31,6.74,6.65,8.59,11.75,1.54,1.14,2.69,2.55,3.78,4.25,3.29-4.52,6.84-7.01,11.6-9.08.87,1.54,1.61,3.12,2.32,4.77,3.49,8.21,4.51,16.96,1.93,25.68,2.11.9,3.93,1.88,5.4,3.93,2.9,4.07,2.63,9.74,2.11,14.63,7.65.29,13.25,2.73,18.89,8.77-4.34,7.37-8.72,11.48-15.96,14.56.72,3.18,1.49,6.74.01,9.83-1.66,3.45-5.29,4.46-8.32,5.54.5,1.19,1.03,2.36,1.56,3.51.87-.02,1.76-.04,2.62-.06,9.68-.27,15.73,2.85,22.7,10.49-5.4,6.93-11.1,13.74-18.76,17.29-3.44,1.58-7.35,2.55-10.85.72-4.9-2.58-3.68-4.83-5.12-9.58-1.22-.45-3.48.44-4.81.57-2.3.18-4.81-.21-7.12-.31l.18.96.49-.69c4.56,1.31,8.61,3.08,11.94,7.01,5.59,6.57,5.97,14.57,5.86,23.34-12.84.29-18.56-2.12-27.91-12.23-4.78,1.29-9.46,3.02-14.24,4.4,6.52,1.93,11.98,4.1,16.42,10.19,6.77,9.29,6.74,20.34,5.81,31.74-9.65-1.02-21.25-5.36-28.88-12.43-3.68-3.44-6.51-8.03-6.9-13.61-.39-5.58,1.72-9.92,4.78-13.99-16.69,4.1-29.95,16.72-45.59,23.82-7.17,3.27-14.51,5.09-22.12,6.29-4.41.71-9,1.14-13.29,2.52-6.71,2.15-13.44,7.41-19.55,11.24-4.91,3.08-9.96,5.9-14.9,8.93-1.79,1.11-3.96,2.42-5.47,3.99-2.71,2.87-4.88,7.01-7.05,10.45-3.02,4.77-6.25,9.43-9.85,13.66-5.52,6.47-12.33,11.12-18.79,16.2-15.75,12.43-24.9,27.83-30.31,48.64l-5.29,20.82c-2.49,9.73-26.81,1.44-28.26-12.88-2.1-20.65-13.86-37.07-28.9-47.69-6.51-4.61-13.94-8.66-19.62-14.59-6.78-7.08-7.42-15.03-14.47-21.34-6.13-5.49-12.8-10.12-19.3-15.01-4.57-3.44-9.19-7.49-14.16-10.12-3.1-1.62-6.13-2.42-9.47-2.97-9.62-1.6-19.52-1.56-28.98-4.4-9.95-2.97-18.95-9.68-29.53-8.12,0,5.45-1.04,10.45-3.98,14.8-7.58,11.26-21.48,14.29-33.02,15.91-.63-3.39-.92-6.99-.95-10.47-.07-8.87,2.55-17.26,8.07-23.58,3.89-4.47,9.3-7.62,14.89-7.47,5.77.15,9.53,3.41,13.31,8.02,3.13-.09,6.25-.25,9.38-.52-3.87-3.56-7.85-7.2-12.28-9.8-11.84-6.99-27.35-7.1-40.45-6.65-.6,1.5-1.18,3.03-1.98,4.41-5.55,9.49-17.34,13.45-26.57,15.37-.45-4.35-1.15-8.48-.01-12.79,1.87-7.1,6.98-14.59,12.75-18.01,2.64-1.56,5.75-2.28,8.62-1.14,3.49,1.4,5.21,4.75,6.71,8.33,3.91-.06,7.93.44,11.87.66,4.16.23,8.43.18,12.55.75-5.47-3.72-10.75-7.8-15.77-12.26-1.88,1.34-3.98,2.21-6.17,2.54-4.54.66-7.54-1.06-10.96-4.19-.85.48-1.83.87-2.75,1.13-2.79.72-5.37-1.17-7.59-2.83-.97,5.24-2.3,10.26-5.66,14.17-2.68,3.12-5.94,4.47-9.73,4.52-10.91.12-22.6-7.35-30.22-15.92,1.42-1.85,2.87-3.66,4.48-5.31,6.78-6.93,16.64-12.61,25.93-11.77,4.68.44,7.78,2.96,10.75,6.92-.43-3.48-.61-5.58.76-8.84-3.88.21-7.78.39-11.3-1.89-1.65-1.08-3.06-2.7-3.48-4.89-.57-2.9.49-5.12,1.79-7.46-3.37.48-6.87,1.06-10.1-.54-2.48-1.25-4.4-3.48-5.28-6.45-.98-3.23-.6-6.99.81-9.97,1.83-3.92,4.8-5.91,8.41-7.06-1.31-4.07-1.99-8.49-.63-12.65,1.46-4.46,4.63-6.53,8.23-8.3-3.45-2.7-5.97-6.26-6.82-11.08-1.23-7.04,1.42-14.01,4.81-19.69,1.61.64,3.24,1.29,4.78,2.15,6.94,3.91,9.62,9.53,12.03,17.63l.6-3.75c-1.7-3.93-2.55-8.22-2-12.61.66-5.37,3.25-10.12,7-13.36,4.51-3.92,9.42-4.85,14.89-3.99.61-.48,1.23-.92,1.88-1.31,4.64-2.85,9.64-1.58,14.38.16,1.35-2.21,2.57-4.53,3.88-6.77,3.07-5.18,7.16-10.04,12.8-11.08,4.41-.84,7.58,1.31,11.03,4.07.11-.05.2-.09.31-.12,2.25-1.04,4.54-.9,6.9-.79-4.41-1.71-6.85-4.29-10.27-7.7-3.75-.33-6.69-.72-10.15-2.52-2.38.63-4.88.84-7.31,1.18.15,1.11.23,2.21.12,3.32-.5,5.28-3.17,10.27-6.79,13.46-4.56,4.04-9.99,4.83-15.51,3.96-2.87-.45-6.55-1.38-8.32-4.26-.87-1.41-1.04-3.11-.76-4.79.85-5.1,4.81-10.31,8.46-13.16,4.51-3.5,11.25-6.39,16.73-4.97,2.98.77,4.3,3.29,5.77,6.08,1.65-.9,3.34-1.68,5.01-2.52-2.46-3.14-4.3-6.8-4.25-11.15.05-5.18,2.55-8.72,5.63-12.16-1.54-3.93-2.73-8.24-2.49-12.59.33-5.96,3-9.95,6.66-13.79-2-.58-4.02-1.27-5.87-2.33-5.98-3.44-9.62-9.76-11.74-16.9.76-.96,1.54-1.92,2.35-2.79,5.71-6.12,11.25-7.7,18.88-7.35-.07-3.23-.12-6.44.47-9.59,1.27-6.71,4.79-11.39,9.72-15.01,2.87,1.25,5.21,2.75,7.27,5.45,3.53,4.59,5.1,11.2,4.74,17.26-.32,5.21-2.22,10.45-5.66,13.88l2.24,2.6c1.04-3.24,2.35-5.72,4.18-8.48-.12-1.52-.22-3.03-.12-4.56.38-6.47,5.01-10.31,8.89-14.24l3.49.92,2.04-4.04c-4.26-1.41-7.93-3.23-10.96-7.12-3.32-4.31-4.74-9.76-4.47-15.44.32-6.8,3.29-14.48,7.7-19.09,6.13,2.12,10.91,5.76,15.61,10.67,2.46-3.41,5.1-5.54,8.57-7.43.74-3.02,1.49-5.85,2.98-8.51,2.6-4.68,6.8-7.62,11.56-8.3,1.52-.21,3.27-.12,4.74-.65,2.46-.87,4.37-3.08,6.98-3.65,4.13-.9,7.74,2.6,10.94,5.12.22-.66-.04-1.46-.15-2.16-.36.02-.15.06-.58-.33.11-.27.34-.9.38-1.17.18-1.13-.85-1.2-1.57-1.33-7.07-1.35-13.13-2.42-18.23-8.84-.05-2.01-.07-3.99.18-6.02.88-6.95,4.88-13.19,9.8-17.2,6.71-5.45,18.42-8.75,26.51-6.85,1.57.38,3.06,1.13,3.91,2.78,1.67,3.21.36,10.37-.27,13.87-.36,1.56-.66,3.08-.84,4.7.7-.81,1.01-2.25,1.35-3.3.26-.36.49-.71.77-1.02,3.49-3.87,7.81-3.71,12.33-3.65.09-.36.18-.71.27-1.06,1.15-4.41,3-7.43,6.66-9.58,5.32-3.14,10.92-2.83,16.51-.87.99-3,2.25-5.7,4.29-7.93,4.59-5.01,10.85-5.69,16.88-5.49M326.46,505.68l4.81-8.55c10.45-16.99,22.77-22.83,37.13-33.39,4.02-2.94,7.81-6.41,10.99-10.49,12.93-16.51,21.95-38.47,28.5-59.18,2.14-6.74,4.36-13.9,4.91-21.09.5-6.62-.96-13.81-1.61-20.4-.61-6.77-.77-13.6-.49-20.38-4.03-1.83-7.58-4.34-9.31-9.16-.69-1.89-1.33-10.34-2.11-10.88-9.64,9.74-18.12,20.71-24.73,33.43-4.97,9.59-7.32,20.56-10.71,30.95-4.21,13.09-9.27,25.81-15.13,38.03-3.03,6.31-6.28,12.49-9.68,18.55-6.08,10.82-13.7,21.25-14.48,34.61-.45,7.64.47,15.55,1.01,23.17.32,4.94.45,9.89.88,14.78M301.34,496.05l4.1,4.34c.01-23.85-2.59-47.55-11.57-69.3-2.8-6.79-6.23-13.18-9.65-19.57-4.34-8.08-8.34-15.99-14.21-22.74-4.16-4.79-8.61-9.24-12.75-14.03-4.7-5.43-8.84-11.18-12.87-17.26-2.31-3.5-11.03-19.51-12.42-20.76-5.56,9.59-8.27,27.92-8.24,39.18,0,4.19.5,8.36,1.22,12.44,1.07,6.3,2.69,12.49,4.85,18.42,2.9,7.82,7.09,14.89,10.64,22.32,4.95,10.39,9.04,21.63,15.28,31.13,2.27,3.48,4.94,6.26,8.11,8.66,3.96,3,8.35,5.27,12.6,7.73,8.95,5.15,17.91,11.15,24.96,19.44M253.14,285.2c-1.9,10.88-4.63,24.33-1.62,35.15,1.56,5.63,4.2,10.81,6.66,15.94,3.24,6.79,6.42,13.61,10.15,20.07,6.6,11.39,13.67,23.1,21.29,33.62,1.76,2.67,3.59,5.31,5.5,7.8,1.7-6.99,3.57-13.82,6.2-20.46,3.76-9.58,11.8-24.31,12.9-34.31.39-3.75-.61-7.12-2.21-10.34-2.32-4.68-5.6-8.84-8.59-13.01-3.6-5.06-7.12-10.19-10.27-15.66-3.57-6.24-7-12.8-9.74-19.59-1.29-3.14-2.03-6.93-3.53-9.89-3,5.99-6.53,11.3-12.63,13.24-4.85,1.56-9.73.02-14.09-2.58M316.14,439.46c6.94-6.47,21.4-28.58,25.35-38.02,1.57-3.71,2.57-7.7,2.91-11.8.36-4.19.18-8.45-.16-12.64-.72-8.48-5.33-44.08-8.73-49.95-.07-.12-.18-.23-.26-.36-10.38,14.32-30.36,61.51-28.91,79.56.59,7.47,3.82,14.44,6.18,21.34,1.33,3.89,2.46,7.89,3.61,11.87M403.08,429.1c5.86-3,11.68-6.26,17.39-9.62,11.63-6.8,44-27.51,48.25-41.59,1.18-3.89,1.11-8.36,1.35-12.47-6.85.04-12.91-.06-19.22-3.56-1.88-1.04-3.65-2.91-5.63-3.66-5.87,5.39-27.64,25.33-30.63,31.46-3.03,6.18-3.57,14.08-5.44,20.8-1.76,6.33-4.18,12.41-6.08,18.66M282.36,269.71c1.97,16.72,18.52,37.33,28.14,49.86,3.11,4.04,6.47,9.14,10.15,12.53.11.1.26.18.36.29,3.25-6.57,9.51-16.75,7.76-24.79-1.92-8.77-9.41-15.61-14.21-22.44-3.06-4.35-5.9-9.14-8.24-14.05-5.59-11.78-4.14-20.77-8.07-31.94-5.22,1.62-10.11,1.46-15.43.52-1.84-.33-3.8-.87-5.66-.92,8.61,5.36,10.65,9.43,13.45,20.23.5,1.95,1.3,5.21.28,7.04-1.56,2.83-5.9,3.3-8.54,3.66M195.82,423.25c-5.64-5.12-11.42-10.1-16.53-15.97-4.29-4.97-8.51-10.01-12.69-15.11-4.18-5.12-8.24-11.24-13.45-15.01-7.9-5.69-17.96-8.3-26.78-11.51-5.33-1.94-10.45-5.48-16.05-6.08.27,3.12,2.49,6.53,3.96,9.14,5.59,9.92,11.52,18.96,19.53,26.6,9.88,9.41,25.93,22.02,38.36,25.2,7.65,1.95,15.88,2.12,23.67,2.73M515.06,341.78c-7.96,7.8-17.43,13.34-25.12,21.43-6.82,7.16-11.9,16.09-18.23,23.77-7.38,8.98-16.05,16.53-24.14,24.6,1.34-.27,2.73-.48,4.02-.96,21.7-3.33,36.22-10.04,52.07-28.2,4.41-5.09,8.61-10.33,12.41-16.03,1.95-2.94,3.91-5.96,5.48-9.18-.99-2.01-2.76-5.06-2.15-7.46.34-1.38,1.54-2.06,2.6-2.52,3.22-1.38,6.25-2.06,9.16-4.37l.2-.77c-.43-.69-.76-.98-1.56-1.11-.2-.04-.39,0-.6.02-5.13,1.31-8.93,1.54-14.14.75M180.54,383.58c.02,8.16-.01,15.24,5.43,21.4,3.13,3.54,6.93,6.26,10.58,9.02,8.16,6.1,16.66,11.51,25.16,16.96,4.61,2.96,9.54,5.75,13.83,9.29l4.14,3.45c-4.74-12.43-11.26-32.69-19.08-42.66-3.68-4.7-8.41-8.57-13.07-11.87-5.67-4.02-14.44-8.57-19.42-12.77-2.3,2.96-4.47,5.36-7.55,7.19M422.73,247.39l-3.24,2.22c-.49,6.14-1.11,13.84.01,19.86l3.6-5.12c2.83-3.98,5.66-7.95,8.43-11.96-2.35-1.71-6.01-5-8.81-5M414.32,285.77c1.46-1.25,3-2.46,4.36-3.84,3.4-3.32,4.24-6.6,7.01-9.95,2.6-3.14,5.74-5.6,8.59-8.41,2.73-2.69,5.21-5.76,7.7-8.7-2.44-.27-4.89-.81-7.32-.99-2.21,4.37-5.32,8.33-8.03,12.32-4.32,6.41-8.46,12.8-12.32,19.59M551.67,287.06c5.2,2.76,7.85,7.01,9.78,13.06.43,1.33.77,2.79,1.34,4.07.39-4.13.81-8.16.77-12.31l.34-.09c.36-.09.7-.21,1.04-.33-.11-.58,0-.64-.37-.9-.45-.31-.7-.27-1.22-.33-3.65-.33-6.47-6.1-8.89-8.89-.92,1.92-1.79,3.87-2.83,5.72M245.41,282.78c-2.21-.71-3.96-1.58-5.81-3.23-.31,3.51,1.72,13.87,3.45,16.75l.31-.16.11-1.33c.58-4.04,1.15-8.03,1.94-12.04M472.89,325.11c1.34,2.28,2.65,4.61,3.96,6.93.58.92,1.12,2.1,2.06,2.52,2.03-3.68,3.29-18.34,2.46-22.67-.22-1.14-.53-2.1-1.46-2.7-.12-.09-.27-.15-.39-.21-3.4,2.64-4.61,11.42-6.46,15.77l-.16.36h0ZM337.92,312.02c2.58-3.5,4.99-7.16,7.17-10.99.12-5.24.77-11.78-1.04-16.72-1.95,3.72-7.84,21.46-7.21,25.29.15.85.69,1.68,1.08,2.42M152.24,371.07c-5.75-10.12-11.56-20.17-16.27-30.99-4.16.31-9.19.42-12.59-2.87-2.83-2.73-2.59-7.12-4.74-9.85-1.02,1.46-2.01,2.94-3.06,4.37,2.9,1.98,5.43,4.35,6.39,8.27.96,3.99-.2,7.55-1.99,10.94-.15.27-.29.52-.43.77,8.72,7.53,18.24,14.32,28.77,17.98,1.31.52,2.6.99,3.92,1.38M420.89,341.26c3.91-4.41,7.78-8.89,11.57-13.41-1.73-3.06-2.46-6.5-3.98-9.62-1.27,5.43-2.64,10.4-7.12,13.45-1.03.71-2.1,1.18-3.24,1.62.22,2.22.22,6.85,1.61,8.36.72-.02.61,0,1.15-.42M416.48,378.77c3.75-2.48,7.39-5.1,10.96-7.91,5.43-4.67,10.8-9.41,16.09-14.26-3.3-3.51-8.11-8.22-8.38-13.76-.09-1.65.27-3.21,1.25-4.41,1.95-2.42,5.26-2.79,7.93-3.18-3.56-1.33-6.85-3.12-10.34-4.67-4.7,5.33-9.74,10.24-14.41,15.61-.15,6.2-.36,12.41-1.07,18.57-.54,4.7-1.45,9.32-2.04,14.01M352.31,369.5c.36,1.65.69,3.32,1.14,4.91,4.94-13.45,17.27-37.36,17.58-50.88.12-6.08-1.52-12.55-2.8-18.42-1.11-4.97-1.9-10.76-3.72-15.43-.09-.23-.16-.5-.31-.66-8.23,9.83-15.5,20.62-23.58,30.62,5.21,16.18,8.61,32.99,11.71,49.86M177.64,271.31c1.01,3.81,1.73,7.55,2.41,11.45,1.08-1.5,2.15-3.02,3.4-4.35,1.14-1.04,2.26-2.12,3.44-3.12-3.1-1.25-6.2-2.48-9.24-3.98M219.24,308.27c-2-1.73-4.23-3.68-6.52-4.81-5.24,7.66-1.6,11.48-10.8,17.13,2.58,4.7,5.29,10.82,4.07,16.57-.65,3.03-2.26,5.06-4.57,6.57l-.23.15c4.7,4.4,8.7,10.13,12.45,15.57l.72.54c1.35-1.83.77-8.54.74-10.94-4.4-3.51-7.2-7.75-8.12-13.93-.98-6.8.45-13.78,3.98-19.36,2.26-3.54,4.86-5.63,8.28-7.49M416.6,333.33l-4.45-.5c.15,6.06.61,25.2,3.53,29.57l.12-.48c1.3-8.57,1.56-19.86.8-28.58M514.41,324.97l-2.9,2.16c-3.18.27-4.83.54-7,3.51-2.41,3.3-8.38,17.01-8.93,21.3.77.06,1.54-.58,2.22-.99,5.36-3.48,10.43-7.25,15.34-11.51-2.22-4.05-2.68-6.6-1.81-11.39l3.17-2.67-.02-.36-.07-.06h0ZM102.01,379.85c7.05,5.54,13.76,10.72,21.9,13.97,1.07.42,2.19.81,3.22,1.35-4.16-6.18-8.79-11.99-12.63-18.46-3.64-6.1-6.55-12.82-10.47-18.69-3.1-.42-5.98-.75-9.09-.29l-.58.42c.72.9,2.52,1.23,3.55,1.65,4.3,1.81,7.74,5.72,7.59,11.3-.09,3.54-1.56,6.18-3.49,8.77M150.87,243.22c3.65,2.6,6.98,5.09,8.99,9.65,3.1.36,6.29.5,9.35,1.19l1.52.15.04-.38c-1.98-2.37-3.86-4.56-5.24-7.43-4.56-.33-7.85-3.51-12.15-4.26l-2.49,1.08h-.01ZM411.54,237.89c1.61-2.25,3.11-4.58,4.26-7.19-2.98-.85-6.2-2.12-9.27-2.43.59,5.18.65,10.45,1.38,15.59,1.23-1.98,2.53-3.92,3.64-5.97M308.16,230.76c-3.8,6.2-5.16,13.16-4.05,20.64,2.21,14.89,11.07,26.85,19.38,37.91l.58.48c.47-.69.29-1.04.2-1.89-.26-2.69-.91-5.36-1.23-8.06-.64-5.18-.91-10.39-1.14-15.59-5.47-4.58-12.66-10.13-13.9-18.4-.69-4.53.76-8.45,2.55-12.37-.8-.9-1.61-1.77-2.38-2.7M364.02,277.72c.29-5.45,1.11-18.94.2-23.83-5.86,7.95-13.24,14.35-16.53,24.33.84,5.06,1.66,10.13,2.27,15.24l.39,1.06.42.1c4.83-4.85,9.03-11.32,13.24-16.9M209.94,237.78l1.08.71.34-.31c0-1.79-.63-3.5-1.25-5.15-.84-2.21-7.58-17.23-8.84-18.69-.54,1.81-.53,3.08-.36,4.95-.61.36-1.23.65-1.88.92l-.09.39c1.39,1.81,2.79,3.62,3.98,5.63,2.14,3.56,4.14,8.76,7.01,11.56M405.65,227.88c-.76-1.23-1.5-2.33-2.44-3.39-5.5,13.72-12.63,25.94-20.71,37.81-3.72,5.49-8.11,10.66-11.23,16.63.04,7.2.72,14.38,2.06,21.42.81,4.31,1.92,8.62,2.57,12.95l.5.52c2.65-2.96,6.71-16.53,8.5-21.04,2.35-6.02,5.01-11.89,7.96-17.56,3.45-6.62,7.36-13.12,10.19-20.13,1.49-3.65,2.69-7.68,2.76-11.77.09-5.16-.65-10.22-.18-15.43M407.71,255.12c2.37-2.19,7.97-6.18,8.35-9.65.07-.63.07-1.25.07-1.89.04-2.04.87-2.87,2.08-4.26-.38-1.38-.69-3.5-1.45-4.62-1.94,4.46-10.49,16.27-10.22,20.35l.38.31.77-.23h.01ZM177.01,269.59c3.86,1.34,7.43,3.23,11.05,5.21,6.29-2.21,12.49-3.39,18.61.25,1.3.77,2.49,1.83,3.68,2.79-3.76-4.47-7.62-8.91-11.12-13.66-3.06-4.16-6.35-10.37-9.99-13.67-4.41,2.48-8.24,3.33-12.97,4.56-.85.23-2.68-.18-3.24.31l.29.09c10.11,2.69,20.14,5.9,26.84,15.7l-.29.63.45-.12-.32.02c-11.91-10.1-24.15-15.22-38.91-17.05l-.27.66c.47,1.25,1.07,1.87,2.17,2.36,4.88,2.12,9.88-.48,12.98,6.99.66,1.56.87,3.23,1.03,4.95M260.72,224.62c-.6,8.68-1.49,16.99-3.24,25.46,1.77-2.31,3.51-4.73,5.58-6.71,2.03-1.5,7.42-3.99,7.74-6.92.29-2.58-1.72-5.76-2.8-7.95-2.51-1.14-4.84-2.48-7.27-3.89M424.91,227.04c-2,1.17-4.03,2.09-6.14,2.94.43,1.67.8,3.39,1.46,4.97,1.54-2,4.67-5.24,5.24-7.75l-.57-.17h0ZM545.05,368.41c1.54-2.08,3.5-3.54,5.43-5.1-2.48,1.02-4.59,2.22-6.82,3.84-4.88,3.65-9.41,7.81-13.83,12.11,4.72-1.04,9.51-2.08,14.27-2.81-.16-3,0-5.21.96-8.06M453.71,162.92c-2.14.09-3.67-.02-5.26,1.85-.26.93-.38,1.41.04,2.33.53,1.13,1.94,2.48,2.98,2.85.09.04.2.04.28.06l.61-.69c2.42-3.96,4.97-7.47,7.97-10.87-1.6-1.95-3.17-4.46-4.95-6.1-.15,3.81-.65,6.98-1.68,10.55M69.07,304.45c1.14,2.16,2.44,4.34,3.13,6.74.26.92.58,2.75,1.19,3.3l.06-.18c.26-5.28,1.83-9.04,4.43-13.3-2.62-1.56-3.91-2.96-4.81-6.23l-.11-.39c-.61,4.2-1.35,6.8-3.89,10.06M211.75,280.6c.81,8.62.81,13.16,5.6,20.19,2.14,3.14,4.58,5.96,7.28,8.43,2.22,2.06,12.37,10.91,14.27,10.72-3.25-6.92-7.74-12.07-12.52-17.55-1.58-1.83-3.37-3.66-4.78-5.69-3.4-4.88-5.54-12.31-9.88-16.12M262.63,197.29c0-2.04-.07-4.1.01-6.14-2.53-.63-5.09-1.17-7.52-2.12.92,4.58,1.68,9.08,1.97,13.78,1.12-1.11,2.3-2.16,3.38-3.33.72-.71,1.49-1.4,2.15-2.19M251.1,212.72l3.8,3.93c-.87-5.1.39-7.79.87-12.55.47-4.7-.54-14.17-3.49-17.68-1.52,7.19-3.37,12.14-8.57,16.8,2.15,3.44,4.84,6.41,7.39,9.49M370.01,208.91c.53-1.31,1.11-2.63,1.56-3.98.87-2.28,1.66-4.61,2.42-6.95-2.62-.64-5.13-1.56-7.66-2.48,1.04,4.43,1.94,9.26,3.68,13.4M187.05,129.18c-1.81-.23-3.54-.48-5.32-1.02-1.12,1.47-2.2,2.97-3.49,4.26,1.49.42,3.24,1.23,4.68.44,1.34-1.33,2.65-2.55,4.13-3.68M421.59,121.81c4.9-.6,8.11-.42,12.66,1.74l1.03.31.2-.37c-1.61-3.23-5.94-2.97-8.39-5.1-2.21-1.89-2.57-5.15-4.36-7.28-1.29,1.56-1.99,2.91-1.88,5.12.07,1.87.45,3.77.74,5.58M418.05,121.08c-1.7-2.52-3.83-3.11-6.35-4.16l1.88,4.46,4.47-.29ZM233.29,71c-2.37,1.85-4.61,3.96-7.15,5.52.6,2.75,1.29,5.45,1.99,8.18l.54.38c1.87-.63,3.71-1.31,5.56-1.85-.97-4.26-.54-7.95-.96-12.22M398.79,208.05c2.96-4.53,3.59-10.82,2.87-16.36-.15-1.08-.23-2.1-.87-2.96l-3.13,1.65c.07,5.91.45,11.83,1.12,17.68M398.35,222.61c-1.14-2.4-1.87-4.47-2.21-7.2-.43-3.32.15-22.47-1.23-23.44-1.04.57-2.17,1.12-3.07,1.95-4.7,4.4-15.89,21.25-17.92,27.81-1.84,5.93-4.74,40.05-2.91,45.19.07.23.2.44.29.65.84-.18,1.23-.72,1.83-1.38,11.09-14.99,17.45-26.06,25.23-43.59M364.61,235.79c.07.9,0,1.62.47,2.37.76-1.74,2.65-15.51,2.52-17.56-.33-4.68-1.94-9.18-2.73-13.76-.68-3.77-.81-7.93-1.72-11.6-.36-1.47-4.63-4.68-5.94-6.31-1.04-1.29-1.99-3.23-3.13-4.31-.61,11.29-2.55,16.8-7.08,26.73,3.13,3.57,6.2,7.39,9.62,10.61,1.65,1.56,4.88,3.51,6.02,5.52,1.25,2.19,1.6,5.72,1.97,8.3M178.53,396.24c-.26-3.99-.47-8.06-.5-12.07-2.9-.48-5.05-1.6-7.58-3.23,1.14,3.92,4.09,12.97,7.58,15.05.15.11.33.16.5.25M148.51,356.58c-1.33-6.2-2.6-12.43-4.54-18.42l-5.63.23c1.72,5.09,6.66,14.72,10.16,18.19M317.58,227.79l-9.35-.71v1.38c1.34.63,2.95.48,4.36,1.06,1.08.44,2.15,1.52,3.18,2.16l.26-.36,1.56-3.54h-.01ZM188.57,221.9l-.58.31c1.54.98,3.18,1.34,4.74,2.22,3.8,2.16,7.46,5.55,10.92,8.35l.36-.17c-1.65-3.87-3.83-7.26-6.22-10.58-3.07-.31-6.17-.48-9.22-.15M234.6,206.8c-2.03.11-4.37.48-6.35.18,1.12,2.21,2.27,4.31,3.61,6.37l1.25-2.58,1.49-3.98h0ZM207.66,202c-1.49,2.58-3.29,4.88-4.79,7.41,1.15,2.67,2.44,5.22,3.78,7.79l1.49,2.69v-.65c-.07-2.91,1.29-15.01.2-16.57-.2-.31-.39-.44-.68-.66M375.64,211.79c2.87-3.45,9.92-11.63,11.63-15.39l-.27-.33c-2.49.92-4.99,1.81-7.48,2.67-1.08,2.94-4.3,9.89-4.13,12.86l.26.18h-.01ZM235.07,300.57c-3.84-8.51-7.76-17.01-11.25-25.73-3.83-9.56-6.55-21.65-12.59-29.69-3.72-4.94-8.77-7.95-12.95-12.23.32,4.62-.37,8.81-2.98,12.47-1.08,1.52-2.38,2.75-3.71,3.96,4.03,3.21,7.21,7.8,10.64,11.8,3.65,4.26,7.52,8.29,11.09,12.65,6.09,7.49,11.75,15.43,17.96,22.8l3.8,3.98ZM231.03,219.28c-2.53-3.39-4.83-6.92-6.44-11.03-2.42-.21-4.83-.45-7.25-.72.47,7.66-.42,12.92-3.99,19.39,3.51,15.17,9.58,28.83,15.37,42.94,1.93,4.73,3.59,9.97,6.04,14.35l.38.42c.74-5-5.29-27.86-7.36-33.26.84-2.15,1.62-4.13,1.92-6.45l.09-.66c.95-8.16-.23-16.18,1.25-24.96M146.46,165.81c.69,2.36,1.99,5.39,1.04,7.87-.42,1.11-1.15,1.94-1.9,2.75,1.38.29,5.64,1.65,6.73,1.04l1.97-.15c-.88-2.54-5.83-9.85-7.85-11.51M117.89,354.24c-1.5,1.41-2.98,2.83-4.43,4.31,4.29,1.5,8.57,3,12.79,4.79l4.32,1.29c-4.3-3.38-8.46-6.89-12.68-10.39M216.81,349.44c.2,7.05.16,14.14,2.79,20.67l.77,1.6.36-.02c1.28-4.89,1.5-10.26,2.46-15.3.8-4.16,2.41-8.45,2.83-12.64l-.29-.39c-2.83,3.92-4.53,5.15-8.92,6.08M563.59,307.04c-.8,2.4-1.7,5.16-1.41,7.76l.34.09.39-.69c.18-.6.33-1.6.81-1.92.81-.54,1.15-.87,1.61-1.83-.09-1.25-.98-2.58-1.76-3.41M477.75,340.82c-1.39-4.4-2.76-10.97-5.83-14.17-.7-.23-1.15-.25-1.88-.16-2.62.85-9.35,1.95-10.76,4.67.74,2.35,5.01,6.8,6.56,9.29,1.99,3.14,3.51,6.5,4.9,10.04l1.94,5c2.19-4.59,3.91-9.51,5.09-14.63M501.08,330.69c1.12-1.08,2.3-2.06,3.11-3.45-.27-.48-.09-.37-.45-.45-1.14.42-2.31.69-3.18,1.67-.2.96-.12,1.11.34,1.98.05.11.12.18.18.27M345.04,230.94l.61.64c1.84-.84,3.82-3.87,5.36-5.42-3.21-5.49-9.78-12.88-11.05-19.06-1.77,6.14-3.76,10.87-7.58,15.7,5.21,1.23,9.2,3.27,12.66,8.14M152.27,178.23c2.3,1.58,4.61,3.27,7.11,4.4-1.39-2.49-3.33-3.68-5.82-4.29-.45-.11-.85-.15-1.29-.11M340.72,189.98c-.18-4.67.27-9.92-.81-14.44l-.38-.23c-1.92,1.19-3.83,2.33-5.79,3.45,1.99,2.33,3.67,4.74,5.12,7.55l1.87,3.66h-.01ZM540.62,365.59c-6.8-.21-11.05-1.35-16.68-5.85-5.21,10.31-12.11,19.06-18.49,28.37,4.24-1.68,8.39-3.41,12.32-5.97,7.82-5.06,15.4-10.74,22.83-16.55M406.27,302.91c5.17-2.69,10.33-5.33,16.05-2.84,1.29.57,2.42,1.4,3.51,2.36,1.39,2.79,2.26,5.97,3.24,8.99,2.11-3.14,4.34-5.31,7.16-7.6-5.12-2.27-9.62-4.77-11.95-10.94-.65-1.68-1.07-5.42-2.38-6.41-5.77,4.85-11.09,10.12-15.62,16.45M257.5,223.81c-4.3-6.12-11.1-16.34-17.38-19.26-5.67,12.05-5.86,25.77-4.79,39.13,3.92-1.2,8.08-2.19,11.83.27,2.04,1.35,3.51,3.59,4.72,5.87l.38.45c1.94-1.92,4.68-22.42,5.24-26.48M327.49,271.46c1.14,8.72,3.37,16.61,5.86,24.9.92-1.73,1.62-3.5,2.33-5.36,1.87-4.67,3.8-9.29,5.01-14.21-4.59-1.38-8.88-3.14-13.2-5.33M382.76,319.25c6.82-6.68,14.01-13.54,19.62-21.63,3.27-4.7,6.01-9.95,8.89-14.95,2.59-4.46,5.37-7.73,5.77-13.36.15-2,.58-18.11.42-19.06-4.72,4.74-9.58,9.45-13.79,14.83-8.21,10.51-13.71,24.3-17.49,37.61-1.35,4.77-3.18,10.27-3.45,15.26,0,.45,0,.87.04,1.31M343.62,171.74c-.99,8.56-2.06,25.2.72,33.02l1.73-4.07c2.65-6.8,3.56-13.61,4.59-20.92-2.26-2.76-4.41-5.75-7.05-8.03M171.88,334.32c-3.99,2.78-5.87,7.52-6.94,12.55-1.5,7.12-.84,13.67-.18,20.86.27-2.69.58-5.33.97-8,1.34-4.7,3.51-8.77,7.46-11.12,2.03-1.2,4.09-1.68,6.33-2.09-2.38-2.48-4.7-4.7-5.86-8.29-.47-1.47-.39-3.48-1.77-3.93M230.23,319.69c1.14,4.56,2.75,8.68,4.83,12.79,3.68,7.26,19.9,32.1,25.51,35.51.11.06.22.1.31.17-7.25-15.17-17.5-39.91-30.65-48.46M156.04,327.7c-2.48,4.61-4.74,7.25-9.03,9.56,2.22,11.78,3.3,22.75,9.99,32.62,2.21,3.24,4.79,6.2,7.16,9.31,1.11,1.56,2.19,3.23,3.41,4.64-8.48-17.8-8.12-29.93-3.68-49.19-2.69-2.06-5.16-5.04-7.85-6.93M188.67,374.4c8.73,4.19,16.74,10.27,25.38,14.59,2.71,1.95,5.44,3.89,8.01,6.1-2.53-16.72-5.75-27.29-15.06-40.69-2.46-3.54-4.97-7.12-8.12-9.89-2.87,3.51-5.98,4.89-9.96,6.1,2.64,4.53,3.51,9.03,2.6,14.44-.53,3.3-1.65,6.33-2.84,9.35M479.6,366.61c5.44-7.58,12.74-17.38,14-27.32.45-3.5.04-7.06-.26-10.55l-.07-.93c-3.64-2.12-6.46-4.35-9.04-8.03-.65-.93-1.15-2.06-1.83-2.96-1.03,6.39-.54,13.01-1.61,19.51-2.11,12.76-5.77,24.92-7.16,37.88,2.1-2.42,4.02-5.01,5.97-7.6"/>
      </g>
      <g class="st3">
        <path d="M397.69,287.95c.91-.06,1.9-.15,2.79.12,1.15.36,2.27,1.18,2.87,2.4.5,1.04.6,2.31.29,3.44-.57,2.06-1.88,3.06-3.44,4.07-.76.27-1.33.44-2.14.17-2.03-.69-3.06-3.66-3.92-5.64,1.11-1.68,2.17-3.12,3.55-4.53"/>
        <path d="M152.27,178.23c.45-.02.84,0,1.27.11,2.49.6,4.45,1.79,5.82,4.29-2.48-1.13-4.79-2.81-7.09-4.4"/>
      </g>
      <g class="st4">
        <path d="M550.47,363.3c-1.92,1.58-3.89,3.03-5.43,5.1-.49-.36-.95-.84-1.41-1.25,2.22-1.62,4.34-2.83,6.84-3.84"/>
        <path class="st1" d="M339.4,14.28c4.7-.75,10.12.25,14.58,1.98,4.48,1.74,10.23,5.21,12.28,10.39.77,1.98.98,4.25.26,6.29-1.65,4.58-8.03,12.11-11.91,14.05-3.25,1.06-6.31,1.83-9.47-.04-7.5-4.46-15.57-20.13-18.08-29.22,3.96-1.98,8.12-2.76,12.37-3.44"/>
      </g>
      <g class="st10">
        <path d="M241.37,53.62c.15.6.2.9.53,1.4-.36,1.06-.68,2.49-1.35,3.3.18-1.61.47-3.12.84-4.7"/>
      </g>
      <g class="st7">
        <path class="st1" d="M301.81,22.68c6.02-.18,12.28.48,16.88,5.49,2.04,2.22,3.29,4.94,4.29,7.93,5.59-1.95,11.19-2.27,16.51.87,3.65,2.15,5.5,5.16,6.66,9.58.09.36.18.71.27,1.06,4.52-.06,8.84-.23,12.33,3.65.29.31.53.66.77,1.02.34,1.06.65,2.49,1.35,3.3-.16-1.62-.47-3.14-.84-4.7-.64-3.5-1.94-10.66-.27-13.87.85-1.65,2.33-2.4,3.91-2.78,8.08-1.89,19.8,1.4,26.51,6.85,4.93,3.99,8.92,10.24,9.8,17.2.26,2.01.23,3.99.18,6.02-5.1,6.44-11.15,7.49-18.23,8.84-.72.12-1.76.21-1.57,1.33.04.27.27.9.38,1.17-.43.39-.22.36-.58.33-.11.71-.36,1.5-.15,2.16,3.21-2.52,6.82-6.02,10.94-5.12,2.6.57,4.52,2.76,6.98,3.65,1.46.52,3.22.44,4.74.65,4.75.69,8.95,3.62,11.56,8.3,1.5,2.67,2.25,5.49,2.98,8.51,3.48,1.89,6.12,4.02,8.57,7.43,4.7-4.91,9.47-8.56,15.61-10.67,4.41,4.61,7.38,12.28,7.7,19.09.27,5.69-1.15,11.14-4.47,15.44-3.02,3.89-6.69,5.7-10.96,7.12l2.04,4.04,3.49-.92c3.88,3.93,8.51,7.76,8.89,14.24.09,1.52,0,3.03-.12,4.56,1.83,2.75,3.13,5.22,4.18,8.48l2.24-2.6c-3.44-3.44-5.33-8.68-5.66-13.88-.36-6.06,1.22-12.65,4.74-17.26,2.06-2.7,4.4-4.2,7.27-5.45,4.91,3.62,8.45,8.3,9.72,15.01.6,3.17.54,6.37.47,9.59,7.63-.36,13.17,1.23,18.88,7.35.81.87,1.6,1.83,2.35,2.79-2.11,7.14-5.75,13.46-11.74,16.9-1.87,1.07-3.87,1.74-5.87,2.33,3.65,3.84,6.33,7.85,6.66,13.79.23,4.35-.96,8.66-2.49,12.59,3.07,3.44,5.58,6.98,5.63,12.16.05,4.35-1.79,8.01-4.25,11.15,1.67.84,3.37,1.62,5.01,2.52,1.46-2.79,2.79-5.31,5.77-6.08,5.48-1.41,12.22,1.47,16.73,4.97,3.65,2.85,7.62,8.06,8.46,13.16.29,1.68.11,3.38-.76,4.79-1.77,2.9-5.44,3.81-8.32,4.26-5.53.87-10.96.09-15.51-3.96-3.64-3.21-6.29-8.18-6.79-13.46-.11-1.11-.01-2.21.12-3.32-2.42-.36-4.91-.57-7.31-1.18-3.45,1.79-6.4,2.19-10.15,2.52-3.41,3.41-5.86,5.99-10.27,7.7,2.37-.11,4.67-.25,6.9.79.11.04.2.09.31.12,3.45-2.75,6.62-4.89,11.03-4.07,5.64,1.04,9.73,5.9,12.8,11.08,1.31,2.22,2.53,4.56,3.88,6.77,4.74-1.74,9.73-3.02,14.38-.16.65.39,1.27.84,1.88,1.31,5.47-.85,10.38.09,14.89,3.99,3.75,3.24,6.33,8,7,13.36.54,4.4-.31,8.68-2,12.61l.6,3.75c2.41-8.09,5.09-13.72,12.03-17.63,1.54-.85,3.17-1.5,4.78-2.15,3.38,5.69,6.04,12.65,4.81,19.69-.85,4.8-3.37,8.36-6.82,11.08,3.6,1.77,6.77,3.86,8.23,8.3,1.35,4.16.69,8.6-.63,12.65,3.6,1.14,6.58,3.14,8.41,7.06,1.41,2.97,1.79,6.74.81,9.97-.88,2.97-2.8,5.21-5.28,6.45-3.22,1.6-6.73,1.02-10.1.54,1.3,2.33,2.35,4.56,1.79,7.46-.42,2.19-1.83,3.81-3.48,4.89-3.53,2.28-7.42,2.1-11.3,1.89,1.38,3.27,1.19,5.37.76,8.84,2.96-3.96,6.06-6.47,10.75-6.92,9.3-.85,19.15,4.83,25.93,11.77,1.61,1.65,3.06,3.45,4.48,5.31-7.62,8.57-19.31,16.05-30.22,15.92-3.78-.04-7.05-1.39-9.73-4.52-3.37-3.92-4.68-8.93-5.66-14.17-2.22,1.67-4.81,3.56-7.59,2.83-.92-.25-1.9-.65-2.75-1.13-3.41,3.12-6.42,4.85-10.96,4.19-2.19-.33-4.29-1.2-6.17-2.54-5.02,4.46-10.31,8.54-15.77,12.26,4.13-.57,8.39-.52,12.55-.75,3.93-.23,7.96-.72,11.87-.66,1.5-3.57,3.22-6.93,6.71-8.33,2.87-1.14,5.98-.42,8.62,1.14,5.77,3.41,10.88,10.91,12.75,18.01,1.14,4.31.43,8.43-.01,12.79-9.22-1.92-21.02-5.87-26.57-15.37-.8-1.38-1.38-2.91-1.97-4.41-13.09-.45-28.61-.36-40.45,6.65-4.43,2.6-8.41,6.24-12.28,9.8,3.13.27,6.25.44,9.38.52,3.78-4.61,7.54-7.87,13.31-8.02,5.59-.15,10.99,3,14.89,7.47,5.52,6.33,8.13,14.72,8.07,23.58-.01,3.48-.31,7.08-.95,10.47-11.53-1.62-25.44-4.64-33.02-15.91-2.92-4.35-3.98-9.35-3.98-14.8-10.58-1.56-19.58,5.13-29.53,8.12-9.46,2.83-19.35,2.79-28.98,4.4-3.34.57-6.39,1.35-9.47,2.97-4.97,2.63-9.58,6.68-14.16,10.12-6.5,4.89-13.17,9.51-19.3,15.01-7.05,6.31-7.69,14.26-14.47,21.34-5.67,5.93-13.11,9.99-19.62,14.59-15.05,10.61-26.8,27.03-28.9,47.69-1.45,14.32-25.77,22.61-28.26,12.88l-5.29-20.82c-5.4-20.82-14.56-36.22-30.31-48.64-6.46-5.09-13.28-9.73-18.79-16.2-3.6-4.23-6.84-8.89-9.85-13.66-2.17-3.44-4.34-7.58-7.05-10.45-1.5-1.58-3.67-2.9-5.47-3.99-4.94-3.03-9.99-5.85-14.9-8.93-6.12-3.83-12.84-9.1-19.55-11.24-4.29-1.38-8.88-1.82-13.29-2.52-7.62-1.2-14.94-3.02-22.12-6.29-15.64-7.1-28.9-19.71-45.59-23.82,3.06,4.07,5.17,8.41,4.78,13.99s-3.22,10.18-6.9,13.61c-7.63,7.08-19.22,11.41-28.88,12.43-.95-11.41-.96-22.47,5.81-31.74,4.45-6.1,9.89-8.27,16.42-10.19-4.78-1.38-9.46-3.11-14.24-4.4-9.35,10.12-15.06,12.53-27.91,12.23-.11-8.76.27-16.75,5.86-23.34,3.33-3.93,7.38-5.7,11.94-7.01l.49.69.18-.96c-2.31.11-4.83.5-7.12.31-1.34-.12-3.6-1.02-4.81-.57-1.42,4.74-.22,6.99-5.12,9.58-3.51,1.83-7.42.85-10.85-.72-7.65-3.56-13.35-10.37-18.76-17.29,6.96-7.64,13.02-10.76,22.7-10.49.87.02,1.76.04,2.62.06.53-1.17,1.04-2.33,1.56-3.51-3.02-1.08-6.66-2.09-8.32-5.54-1.46-3.08-.7-6.65.01-9.83-7.23-3.06-11.61-7.19-15.96-14.56,5.64-6.04,11.25-8.48,18.89-8.77-.5-4.89-.77-10.58,2.11-14.63,1.49-2.06,3.29-3.03,5.4-3.93-2.57-8.72-1.56-17.49,1.93-25.68.7-1.65,1.45-3.23,2.32-4.77,4.75,2.06,8.3,4.56,11.6,9.08,1.08-1.68,2.25-3.11,3.78-4.25,1.84-5.12,3.92-9.45,8.59-11.75,1.93-.96,4.03-1.38,6.09-1.68,1.11-3.75,2.55-7.01,5.81-8.81,2.57-1.41,5.74-1.71,8.55-1.81-5.2-1.65-9.58-4.07-13.56-8.3,1.73-6.83,4.3-12.23,9.95-15.76,8.11-5.06,17.86-4.58,26.47-1.77.05,6.06-.65,11.68-2.48,17.36,3.59,1.02,5.4,2.6,8.08,5.43,4.59.64,9.27-.33,12.53,4.32.81,1.17,1.52,2.52,2.17,3.83,6.02-.33,10.38,1.52,14.83,6.17,5.36,5.56,8.57,12.85,11.64,20.19,4.25-1.87,10.22-.57,14.65-.09-2.19-2.67-4.36-5.31-6.8-7.66-2.76-2.69-5.86-5.16-8.39-8.14-3.61-4.25-5.71-10.06-9.75-13.84-3.51-3.3-8.01-5.24-11.88-8,.99-3.06,1.57-6.39,2.11-9.59-5.33.5-10.81.39-15.13-3.83-2.6-2.55-4.2-6.2-4.45-10.13-.27-3.93.88-7.82,3.17-10.78,4.4-5.63,10.76-3.14,16.31-5.85-2.79.09-6.94.79-9.11-1.62-.91-.99-1.27-2.33-1.23-3.75.12-5.29,3.94-11.83,7.28-15.26.91-.92,1.84-1.82,2.8-2.64-6.89-1.52-12.44-4.08-16.5-11.05-1.6-2.73-2.69-5.79-3.48-8.95,6.74-5.01,12.97-4.77,20.65-3.44.64-9.74,4.67-19.27,11.23-25.52.23-.23.47-.44.72-.65,5.85,5.66,9.58,13.13,10.23,21.99.01.27.04.52.06.79,2.31-3.39,4.72-6.47,8.03-8.63,1.22-.79,5.29-2.33,5.9-3.44l.2.17.05-.52c-1.12-.98-2.73-1.17-4.09-1.52-2.62-.69-5.33-4.02-6.66-6.57-2.98-5.81-3.18-14.08-1.61-20.44,1.65-6.62,5.12-11.42,9.68-15.72,6.2,3.81,11.29,9.2,14.16,16.75,3.41-8.78,7.12-16.8,14.63-21.75,1.56.21,3.11.39,4.67.66,3.82-4.89,8.13-10.94,14.32-11.36,2.79-.18,4.99,1.11,6.98,3.24.16.18.34.38.5.57,5.63.48,10.69.87,15.05,5.6,4.74-9.76,8.81-16.07,18.45-19.21.76-.25,1.52-.48,2.3-.71-3.78-.85-7.47-2.01-11.21-3.02-3.27,6.57-7.35,13.88-14.1,16-5.01,1.58-10.19-.54-14.48-3.48-1.92-1.31-3.75-2.73-5.44-4.4,2.17-8.06,5.77-15.86,12.52-19.92,3.78-2.27,9.08-3.48,13.2-1.83,2.37.96,4.3,3,5.37,5.63.58,1.4.96,2.9,1.31,4.37,7.05,2.16,14.14,3.8,21.07,6.51-.34-6.31,1.23-10.54,4.83-15.22,2.91-3.77,6.82-7.58,11.37-8,1.28-.12,2.64.04,3.93.17,2.41-4.19,5.29-8.66,9.88-9.68,2.98-.66,5.82.52,8.23,2.52,1.07.9,2.03,1.94,2.98,2.97M274.97,502.97c.43-4.89.57-9.85.88-14.78.54-7.62,1.46-15.53,1.01-23.17-.8-13.36-8.41-23.79-14.48-34.61-3.4-6.06-6.63-12.25-9.68-18.55-5.86-12.22-10.92-24.93-15.13-38.03-3.38-10.39-5.74-21.36-10.71-30.95-6.6-12.73-15.08-23.69-24.73-33.43-.8.54-1.42,8.99-2.11,10.88-1.73,4.83-5.28,7.32-9.31,9.16.29,6.78.12,13.61-.49,20.38-.65,6.6-2.11,13.78-1.61,20.4.57,7.19,2.79,14.35,4.91,21.09,6.55,20.71,15.57,42.67,28.5,59.18,3.18,4.08,6.98,7.55,10.99,10.49,14.36,10.55,26.68,16.4,37.13,33.39l4.81,8.55h.01ZM300.09,493.32c7.05-8.28,16-14.3,24.96-19.44,4.25-2.46,8.65-4.73,12.6-7.73,3.17-2.4,5.82-5.18,8.11-8.66,6.24-9.49,10.33-20.73,15.28-31.13,3.55-7.43,7.74-14.49,10.64-22.32,2.15-5.93,3.78-12.11,4.85-18.42.7-4.08,1.22-8.27,1.22-12.44.02-11.26-2.68-29.58-8.24-39.18-1.39,1.25-10.11,17.26-12.42,20.76-4.03,6.08-8.17,11.83-12.87,17.26-4.14,4.79-8.59,9.24-12.75,14.03-5.87,6.74-9.88,14.65-14.21,22.74-3.44,6.39-6.85,12.79-9.65,19.57-8.99,21.75-11.6,45.45-11.57,69.3l4.1-4.34h-.04ZM348.28,282.47c-4.36,2.6-9.24,4.14-14.09,2.58-6.09-1.94-9.62-7.25-12.63-13.24-1.5,2.96-2.24,6.74-3.53,9.89-2.75,6.78-6.17,13.34-9.74,19.59-3.14,5.45-6.67,10.6-10.27,15.66-2.98,4.16-6.28,8.33-8.59,13.01-1.6,3.23-2.6,6.6-2.21,10.34,1.08,10,9.13,24.73,12.9,34.31,2.63,6.65,4.51,13.46,6.2,20.46,1.92-2.49,3.75-5.13,5.5-7.8,7.62-10.51,14.68-22.23,21.29-33.62,3.72-6.45,6.9-13.28,10.15-20.07,2.46-5.13,5.1-10.33,6.66-15.94,3-10.82.27-24.27-1.62-35.15M285.28,436.75c1.15-3.98,2.3-7.97,3.61-11.87,2.37-6.89,5.59-13.87,6.18-21.34,1.45-18.04-18.54-65.23-28.91-79.56-.07.12-.18.23-.26.36-3.4,5.87-8.01,41.49-8.73,49.95-.34,4.19-.53,8.45-.16,12.64.34,4.1,1.34,8.09,2.91,11.8,3.96,9.43,18.41,31.54,25.35,38.02M198.35,426.38c-1.9-6.24-4.32-12.32-6.08-18.66-1.87-6.72-2.41-14.62-5.44-20.8-3-6.12-24.76-26.06-30.63-31.46-1.97.75-3.75,2.62-5.63,3.66-6.31,3.5-12.37,3.6-19.22,3.56.26,4.1.18,8.57,1.35,12.47,4.25,14.08,36.62,34.79,48.25,41.59,5.71,3.35,11.53,6.62,17.39,9.62M319.06,267c-2.64-.36-6.98-.84-8.54-3.66-1.01-1.83-.22-5.09.28-7.04,2.8-10.81,4.85-14.89,13.45-20.23-1.87.05-3.82.59-5.66.92-5.32.93-10.19,1.11-15.43-.52-3.92,11.15-2.48,20.14-8.07,31.94-2.35,4.91-5.2,9.7-8.24,14.05-4.81,6.83-12.3,13.67-14.21,22.44-1.76,8.03,4.51,18.22,7.76,24.79.11-.1.26-.18.36-.29,3.67-3.39,7.04-8.49,10.15-12.53,9.62-12.53,26.16-33.14,28.14-49.86M405.61,420.54c7.79-.6,16.02-.77,23.67-2.73,12.42-3.18,28.48-15.8,38.36-25.2,8.01-7.64,13.94-16.67,19.53-26.6,1.46-2.6,3.68-6.02,3.96-9.14-5.6.6-10.72,4.14-16.05,6.08-8.82,3.21-18.88,5.82-26.78,11.51-5.21,3.77-9.27,9.89-13.45,15.01-4.18,5.1-8.41,10.13-12.69,15.11-5.1,5.87-10.88,10.85-16.53,15.97M86.36,339.06c-5.21.79-9,.57-14.14-.75-.2-.02-.39-.06-.6-.02-.8.12-1.12.42-1.56,1.11l.2.77c2.91,2.31,5.94,3,9.16,4.37,1.07.45,2.26,1.14,2.6,2.52.61,2.4-1.15,5.43-2.15,7.46,1.57,3.23,3.53,6.24,5.48,9.18,3.8,5.7,8,10.94,12.41,16.03,15.85,18.17,30.36,24.87,52.07,28.2,1.28.48,2.68.69,4.02.96-8.08-8.08-16.77-15.64-24.14-24.6-6.33-7.68-11.41-16.61-18.23-23.77-7.69-8.09-17.16-13.63-25.12-21.43M420.89,380.86c-3.1-1.83-5.26-4.23-7.55-7.19-4.97,4.2-13.74,8.77-19.42,12.77-4.67,3.29-9.38,7.16-13.07,11.87-7.81,9.97-14.35,30.23-19.08,42.66l4.14-3.45c4.29-3.54,9.22-6.33,13.83-9.29,8.5-5.45,17-10.87,25.16-16.96,3.65-2.75,7.44-5.48,10.58-9.02,5.44-6.17,5.4-13.24,5.43-21.4M178.69,244.68c-2.8,0-6.46,3.29-8.81,5,2.76,4.02,5.6,8,8.43,11.96l3.6,5.12c1.12-6.02.5-13.72.01-19.86l-3.24-2.22h.01ZM187.11,283.04c-3.84-6.78-8-13.18-12.32-19.59-2.71-3.99-5.82-7.95-8.03-12.32-2.44.18-4.88.72-7.32.99,2.49,2.94,4.97,6.02,7.7,8.7,2.86,2.81,5.98,5.27,8.59,8.41,2.79,3.35,3.61,6.65,7.01,9.95,1.35,1.39,2.9,2.6,4.36,3.84M49.76,284.33c-1.03-1.85-1.9-3.81-2.83-5.72-2.42,2.79-5.24,8.56-8.89,8.89-.5.06-.76.02-1.22.33-.37.25-.26.31-.37.9.34.12.69.25,1.04.33l.34.09c-.04,4.14.38,8.18.77,12.31.57-1.27.91-2.73,1.34-4.07,1.93-6.03,4.59-10.28,9.78-13.06M356.01,280.07c.77,3.99,1.35,8,1.94,12.04l.11,1.33.31.16c1.73-2.9,3.76-13.24,3.45-16.75-1.84,1.65-3.6,2.52-5.81,3.23M128.37,322.03c-1.84-4.35-3.06-13.13-6.46-15.77-.12.06-.27.12-.39.21-.95.6-1.25,1.56-1.46,2.7-.84,4.32.43,18.99,2.46,22.67.93-.42,1.49-1.6,2.06-2.52,1.3-2.33,2.62-4.64,3.96-6.93l-.16-.36h0ZM263.51,309.29c.39-.72.95-1.56,1.08-2.42.61-3.83-5.26-21.57-7.21-25.29-1.83,4.94-1.18,11.47-1.04,16.72,2.19,3.83,4.59,7.49,7.17,10.99M449.19,368.35c1.31-.37,2.6-.85,3.92-1.38,10.53-3.66,20.06-10.45,28.77-17.98-.15-.25-.29-.5-.43-.77-1.79-3.39-2.95-6.95-1.99-10.94.96-3.92,3.49-6.29,6.39-8.27-1.04-1.44-2.04-2.91-3.06-4.37-2.15,2.73-1.92,7.12-4.74,9.85-3.4,3.29-8.43,3.18-12.59,2.87-4.72,10.82-10.53,20.88-16.27,30.99M180.54,338.53c.54.42.43.39,1.15.42,1.39-1.52,1.39-6.14,1.61-8.36-1.14-.44-2.21-.92-3.24-1.62-4.48-3.03-5.86-8.02-7.12-13.45-1.52,3.12-2.25,6.56-3.98,9.62,3.8,4.52,7.66,8.99,11.57,13.41M184.96,376.05c-.6-4.68-1.5-9.31-2.04-14.01-.7-6.17-.92-12.37-1.07-18.57-4.67-5.37-9.72-10.28-14.41-15.61-3.49,1.54-6.78,3.33-10.34,4.67,2.68.39,5.98.77,7.93,3.18.98,1.2,1.34,2.76,1.25,4.41-.27,5.54-5.06,10.24-8.38,13.76,5.29,4.85,10.67,9.59,16.09,14.26,3.56,2.81,7.21,5.43,10.96,7.91M249.11,366.79c3.1-16.86,6.5-33.68,11.71-49.86-8.08-10-15.35-20.8-23.58-30.62-.15.17-.22.44-.31.66-1.83,4.67-2.62,10.45-3.72,15.43-1.29,5.87-2.92,12.34-2.8,18.42.31,13.51,12.64,37.43,17.58,50.88.45-1.6.77-3.27,1.14-4.91M423.79,268.6c-3.03,1.5-6.14,2.73-9.24,3.98,1.18.99,2.3,2.08,3.44,3.12,1.24,1.34,2.31,2.85,3.4,4.35.68-3.89,1.39-7.64,2.41-11.45M382.2,305.54c3.41,1.87,6.02,3.96,8.28,7.49,3.53,5.58,4.95,12.55,3.98,19.36-.92,6.18-3.72,10.4-8.12,13.93-.04,2.42-.61,9.11.74,10.94l.72-.54c3.76-5.43,7.76-11.18,12.45-15.57l-.23-.15c-2.31-1.52-3.92-3.54-4.57-6.57-1.23-5.75,1.49-11.87,4.07-16.57-9.2-5.64-5.55-9.47-10.8-17.13-2.3,1.13-4.52,3.08-6.52,4.81M184.82,330.61c-.76,8.72-.5,20.01.8,28.58l.12.48c2.91-4.35,3.38-23.5,3.53-29.57l-4.45.5ZM86.94,322.32l-.02.36,3.17,2.67c.87,4.79.42,7.33-1.81,11.39,4.9,4.26,9.99,8.03,15.34,11.51.69.42,1.45,1.06,2.22.99-.57-4.29-6.52-17.98-8.93-21.3-2.17-2.97-3.82-3.24-7-3.51l-2.9-2.16s-.07.06-.07.06ZM499.41,377.13c-1.93-2.58-3.4-5.22-3.49-8.77-.15-5.58,3.29-9.49,7.59-11.3,1.03-.42,2.83-.75,3.55-1.65l-.58-.42c-3.11-.45-6.01-.12-9.09.29-3.93,5.87-6.84,12.59-10.47,18.69-3.83,6.47-8.46,12.28-12.63,18.46,1.03-.54,2.15-.93,3.22-1.35,8.14-3.24,14.85-8.43,21.9-13.97M448.05,239.41c-4.3.75-7.59,3.93-12.15,4.26-1.39,2.87-3.27,5.06-5.24,7.43l.04.38,1.52-.15c3.06-.69,6.25-.84,9.35-1.19,2-4.58,5.33-7.06,8.99-9.65l-2.49-1.08h-.01ZM189.88,235.16c1.11,2.06,2.41,3.99,3.64,5.97.72-5.15.77-10.4,1.38-15.59-3.07.31-6.29,1.58-9.27,2.43,1.15,2.6,2.65,4.94,4.26,7.19M293.27,228.05c-.77.93-1.6,1.82-2.38,2.7,1.79,3.92,3.23,7.82,2.55,12.37-1.25,8.27-8.45,13.82-13.9,18.4-.23,5.21-.5,10.4-1.14,15.59-.33,2.7-.98,5.37-1.23,8.06-.09.85-.27,1.2.2,1.89l.58-.48c8.32-11.05,17.18-23.02,19.38-37.91,1.11-7.47-.26-14.42-4.05-20.64M237.42,275.01c4.21,5.58,8.41,12.05,13.24,16.9l.42-.1.39-1.06c.61-5.1,1.45-10.18,2.27-15.24-3.29-9.99-10.67-16.39-16.53-24.33-.91,4.89-.09,18.38.2,23.83M391.48,235.06c2.87-2.79,4.88-8,7.01-11.56,1.19-2,2.58-3.81,3.98-5.63l-.09-.39c-.65-.27-1.27-.57-1.88-.92.16-1.87.18-3.14-.36-4.95-1.27,1.46-8.01,16.48-8.84,18.69-.61,1.65-1.25,3.35-1.25,5.15l.34.31,1.08-.71h0ZM195.78,225.15c.47,5.21-.27,10.26-.18,15.43.07,4.08,1.29,8.12,2.76,11.77,2.84,7.01,6.74,13.51,10.19,20.13,2.95,5.69,5.6,11.56,7.96,17.56,1.79,4.52,5.83,18.09,8.5,21.04l.5-.52c.65-4.34,1.76-8.63,2.57-12.95,1.34-7.04,2.03-14.22,2.06-21.42-3.13-5.97-7.5-11.14-11.23-16.63-8.08-11.87-15.21-24.09-20.71-37.81-.95,1.06-1.68,2.16-2.44,3.39M194.5,252.63l.38-.31c.27-4.08-8.28-15.91-10.22-20.35-.76,1.13-1.07,3.24-1.45,4.62,1.22,1.4,2.04,2.22,2.08,4.26,0,.65,0,1.27.07,1.89.38,3.48,5.98,7.47,8.35,9.65l.77.23h.01ZM424.41,266.86c.16-1.73.36-3.39,1.03-4.95,3.11-7.47,8.11-4.88,12.98-6.99,1.11-.48,1.7-1.11,2.17-2.36l-.27-.66c-14.78,1.83-27,6.95-38.91,17.05l-.32-.02.45.12-.29-.63c6.69-9.8,16.73-13.01,26.84-15.7l.29-.09c-.57-.5-2.38-.09-3.24-.31-4.72-1.23-8.55-2.09-12.97-4.56-3.64,3.32-6.93,9.51-9.99,13.67-3.51,4.75-7.36,9.18-11.12,13.66,1.19-.96,2.38-2.01,3.68-2.79,6.12-3.65,12.32-2.46,18.61-.25,3.61-1.98,7.2-3.87,11.05-5.21M340.71,221.91c-2.42,1.41-4.75,2.75-7.27,3.89-1.08,2.19-3.1,5.37-2.8,7.95.32,2.91,5.71,5.42,7.74,6.92,2.06,1.98,3.8,4.4,5.58,6.71-1.76-8.48-2.64-16.78-3.24-25.46M175.97,224.49c.58,2.49,3.71,5.75,5.24,7.75.66-1.58,1.03-3.3,1.46-4.97-2.11-.85-4.14-1.77-6.14-2.94l-.57.17h0ZM56.38,365.68c.96,2.85,1.12,5.06.96,8.06,4.75.72,9.54,1.77,14.27,2.81-4.43-4.31-8.95-8.48-13.83-12.11-2.22-1.62-4.34-2.83-6.82-3.84,1.92,1.56,3.89,3.02,5.43,5.1M147.72,160.21c-1.03-3.59-1.54-6.74-1.68-10.55-1.79,1.65-3.37,4.14-4.95,6.1,3,3.39,5.55,6.92,7.97,10.87l.61.69c.09-.02.2-.02.28-.06,1.04-.38,2.46-1.73,2.98-2.85.42-.92.29-1.4.04-2.33-1.6-1.87-3.13-1.77-5.26-1.85M532.36,301.73c-2.53-3.24-3.28-5.85-3.89-10.06l-.11.39c-.91,3.27-2.19,4.67-4.81,6.23,2.6,4.26,4.18,8.02,4.43,13.3l.06.18c.61-.57.93-2.4,1.19-3.3.69-2.42,1.99-4.58,3.13-6.74M389.68,277.88c-4.34,3.81-6.47,11.24-9.88,16.12-1.41,2.01-3.18,3.84-4.78,5.69-4.78,5.48-9.26,10.64-12.52,17.55,1.9.18,12.05-8.66,14.27-10.72,2.71-2.48,5.16-5.28,7.28-8.43,4.79-7.04,4.79-11.57,5.6-20.19M338.79,194.58c.66.79,1.42,1.47,2.15,2.19,1.08,1.17,2.26,2.22,3.38,3.33.29-4.7,1.04-9.2,1.97-13.78-2.44.96-4.99,1.5-7.52,2.12.09,2.04.01,4.1.01,6.14M350.32,209.99c2.55-3.08,5.24-6.06,7.39-9.49-5.21-4.67-7.05-9.62-8.57-16.8-2.95,3.5-3.96,12.97-3.49,17.68.47,4.77,1.73,7.46.87,12.55l3.8-3.93h0ZM231.41,206.19c1.76-4.14,2.64-8.97,3.68-13.4-2.53.91-5.05,1.83-7.66,2.48.76,2.36,1.56,4.67,2.42,6.95.45,1.35,1.03,2.67,1.56,3.98M414.38,126.46c1.46,1.13,2.79,2.36,4.13,3.68,1.45.79,3.21-.02,4.68-.44-1.29-1.29-2.37-2.79-3.49-4.26-1.77.54-3.51.79-5.32,1.02M179.84,119.1c.29-1.82.66-3.71.74-5.58.11-2.21-.6-3.56-1.88-5.12-1.79,2.15-2.15,5.39-4.36,7.28-2.44,2.12-6.78,1.87-8.39,5.1l.2.37,1.03-.31c4.56-2.16,7.76-2.35,12.66-1.74M187.84,118.66l1.88-4.46c-2.52,1.06-4.64,1.65-6.35,4.16l4.47.29ZM368.15,68.28c-.42,4.26.02,7.95-.96,12.22,1.87.54,3.71,1.23,5.56,1.85l.54-.38c.7-2.73,1.39-5.43,1.99-8.18-2.53-1.56-4.78-3.66-7.15-5.52M202.63,205.34c.66-5.85,1.04-11.77,1.12-17.68l-3.13-1.65c-.64.85-.72,1.87-.87,2.96-.71,5.54-.09,11.83,2.87,16.36M203.07,219.88c7.78,17.53,14.14,28.61,25.23,43.59.6.65.99,1.19,1.83,1.38.09-.21.22-.42.29-.65,1.83-5.15-1.07-39.26-2.91-45.19-2.03-6.56-13.22-23.42-17.92-27.81-.91-.84-2.03-1.4-3.07-1.95-1.38.98-.8,20.13-1.23,23.44-.34,2.73-1.07,4.8-2.21,7.2M236.82,233.06c.38-2.58.72-6.12,1.97-8.3,1.14-2,4.37-3.96,6.02-5.52,3.41-3.23,6.5-7.04,9.62-10.61-4.52-9.92-6.46-15.44-7.07-26.73-1.14,1.08-2.08,3.02-3.13,4.31-1.33,1.62-5.59,4.83-5.94,6.31-.91,3.66-1.04,7.82-1.72,11.6-.8,4.58-2.41,9.08-2.73,13.76-.15,2.06,1.76,15.82,2.52,17.56.47-.75.39-1.47.47-2.37M422.9,393.51c.18-.09.36-.15.5-.25,3.49-2.08,6.44-11.14,7.58-15.05-2.53,1.62-4.68,2.75-7.58,3.23-.04,4.02-.26,8.08-.5,12.07M452.92,353.86c3.51-3.48,8.45-13.12,10.16-18.19l-5.63-.23c-1.93,5.99-3.22,12.22-4.54,18.42M285.41,228.61l.26.36c1.03-.65,2.1-1.73,3.18-2.16,1.41-.58,3.02-.44,4.37-1.06v-1.38l-9.37.71,1.56,3.54h0ZM412.87,219.18c-3.06-.33-6.15-.17-9.22.15-2.38,3.3-4.57,6.71-6.22,10.58l.36.17c3.48-2.79,7.12-6.18,10.92-8.35,1.56-.9,3.19-1.25,4.74-2.22l-.58-.31h0ZM368.31,208.06l1.25,2.58c1.34-2.06,2.49-4.16,3.61-6.37-1.97.29-4.32-.09-6.35-.18l1.49,3.98h0ZM393.77,199.28c-.27.23-.47.36-.68.66-1.08,1.56.27,13.66.22,16.57v.65l1.46-2.69c1.34-2.57,2.62-5.12,3.78-7.79-1.5-2.54-3.3-4.83-4.79-7.41M226.04,208.88c.18-2.97-3.03-9.92-4.13-12.86-2.49-.85-4.99-1.74-7.48-2.67l-.27.33c1.7,3.75,8.76,11.93,11.63,15.39l.26-.18h-.01ZM370.15,293.87c6.2-7.37,11.87-15.3,17.96-22.8,3.56-4.37,7.43-8.39,11.09-12.65,3.41-3.99,6.6-8.6,10.64-11.8-1.31-1.2-2.62-2.43-3.71-3.96-2.62-3.66-3.3-7.85-2.98-12.47-4.18,4.29-9.22,7.31-12.95,12.23-6.04,8.03-8.76,20.13-12.59,29.69-3.49,8.72-7.39,17.22-11.25,25.73l3.8-3.98ZM370.41,216.55c1.49,8.78.31,16.8,1.25,24.96l.09.66c.29,2.33,1.08,4.31,1.92,6.45-2.06,5.42-8.11,28.28-7.36,33.26l.38-.42c2.46-4.37,4.1-9.62,6.04-14.35,5.79-14.11,11.87-27.77,15.37-42.94-3.59-6.47-4.47-11.74-3.99-19.39-2.42.27-4.83.52-7.25.72-1.61,4.13-3.91,7.64-6.44,11.03M454.96,163.1c-2,1.67-6.96,8.97-7.85,11.51l1.97.15c1.08.6,5.36-.75,6.73-1.04-.74-.81-1.49-1.65-1.9-2.75-.93-2.48.36-5.52,1.04-7.87M483.53,351.53c-4.21,3.5-8.38,7.01-12.68,10.39l4.32-1.29c4.21-1.79,8.5-3.29,12.79-4.79-1.45-1.47-2.94-2.9-4.43-4.31M384.62,346.71c-4.37-.93-6.09-2.16-8.92-6.08l-.29.39c.42,4.19,2.03,8.48,2.83,12.64.96,5.04,1.18,10.4,2.46,15.3l.36.02.77-1.6c2.62-6.53,2.58-13.61,2.79-20.67M37.84,304.31c-.77.84-1.66,2.16-1.76,3.41.45.96.8,1.29,1.61,1.83.49.31.63,1.31.81,1.92l.39.69.34-.09c.28-2.6-.61-5.37-1.41-7.76M123.69,338.1c1.18,5.12,2.9,10.04,5.09,14.63l1.94-5c1.39-3.54,2.91-6.89,4.9-10.04,1.56-2.48,5.82-6.93,6.56-9.29-1.41-2.7-8.13-3.81-10.76-4.67-.72-.09-1.18-.06-1.88.16-3.07,3.21-4.45,9.79-5.83,14.17M100.34,327.96c.05-.09.12-.17.18-.27.47-.87.54-1.02.34-1.98-.87-.98-2.04-1.25-3.18-1.67-.36.09-.18-.02-.45.45.81,1.4,1.99,2.37,3.11,3.45M256.38,228.21c3.45-4.88,7.46-6.92,12.66-8.14-3.82-4.83-5.81-9.56-7.58-15.7-1.27,6.18-7.85,13.57-11.05,19.06,1.54,1.54,3.51,4.58,5.36,5.42l.61-.64ZM449.15,175.5c-.43-.04-.84,0-1.29.11-2.49.6-4.43,1.79-5.82,4.29,2.49-1.13,4.81-2.81,7.11-4.4M262.56,183.61c1.45-2.81,3.13-5.22,5.12-7.55-1.95-1.13-3.87-2.27-5.79-3.45l-.38.23c-1.08,4.52-.64,9.78-.81,14.44l1.87-3.66h-.01ZM60.8,362.88c7.43,5.81,15.01,11.48,22.83,16.55,3.92,2.55,8.08,4.29,12.32,5.97-6.36-9.3-13.28-18.07-18.49-28.37-5.63,4.5-9.88,5.64-16.68,5.85M195.15,300.2c-4.54-6.33-9.85-11.6-15.62-16.45-1.31.99-1.73,4.73-2.38,6.41-2.33,6.18-6.83,8.68-11.95,10.94,2.83,2.28,5.05,4.46,7.16,7.6.98-3.02,1.84-6.2,3.24-8.99,1.08-.96,2.22-1.79,3.51-2.36,5.74-2.49,10.88.15,16.05,2.84M343.92,221.1c.57,4.07,3.3,24.57,5.24,26.48l.38-.45c1.22-2.28,2.68-4.52,4.72-5.87,3.75-2.46,7.9-1.47,11.83-.27,1.07-13.36.88-27.08-4.79-39.13-6.28,2.91-13.08,13.13-17.38,19.26M273.95,268.74c-4.32,2.19-8.61,3.96-13.2,5.33,1.22,4.94,3.14,9.56,5.01,14.21.7,1.85,1.41,3.62,2.33,5.36,2.49-8.28,4.72-16.18,5.86-24.9M218.66,316.54c.04-.44.04-.85.04-1.31-.27-5-2.1-10.49-3.45-15.26-3.78-13.33-9.27-27.11-17.49-37.61-4.21-5.37-9.08-10.07-13.79-14.83-.16.96.27,17.07.42,19.06.39,5.64,3.18,8.91,5.77,13.36,2.89,5,5.63,10.24,8.89,14.95,5.6,8.09,12.8,14.95,19.62,21.63M257.81,169.03c-2.64,2.28-4.79,5.27-7.05,8.03,1.03,7.31,1.94,14.11,4.59,20.92l1.73,4.07c2.79-7.81,1.72-24.46.72-33.02M429.55,331.61c-1.38.45-1.3,2.46-1.77,3.93-1.15,3.59-3.48,5.81-5.86,8.29,2.25.39,4.3.87,6.33,2.09,3.94,2.35,6.12,6.41,7.46,11.12.39,2.67.7,5.31.97,8,.65-7.19,1.33-13.74-.18-20.86-1.07-5.04-2.95-9.78-6.94-12.55M371.19,316.98c-13.14,8.55-23.4,33.29-30.65,48.46.09-.06.2-.11.31-.17,5.63-3.41,21.83-28.25,25.51-35.51,2.08-4.1,3.68-8.22,4.83-12.79M445.38,324.99c-2.69,1.89-5.16,4.88-7.85,6.93,4.43,19.26,4.79,31.4-3.68,49.19,1.23-1.41,2.31-3.08,3.41-4.64,2.37-3.1,4.95-6.06,7.16-9.31,6.67-9.86,7.76-20.83,9.99-32.62-4.29-2.31-6.55-4.95-9.03-9.56M412.76,371.67c-1.19-3.02-2.31-6.03-2.84-9.35-.91-5.42-.04-9.91,2.6-14.44-3.98-1.2-7.09-2.58-9.96-6.1-3.14,2.76-5.66,6.35-8.12,9.89-9.31,13.41-12.53,23.98-15.06,40.69,2.57-2.21,5.29-4.14,8.01-6.1,8.62-4.34,16.64-10.4,25.38-14.59M121.82,363.9c1.95,2.58,3.87,5.18,5.97,7.6-1.39-12.97-5.05-25.13-7.16-37.88-1.07-6.5-.58-13.12-1.61-19.51-.66.9-1.18,2.01-1.83,2.96-2.59,3.68-5.4,5.91-9.04,8.03l-.07.93c-.28,3.5-.7,7.06-.26,10.55,1.27,9.92,8.55,19.74,14,27.32"/>
      </g>
      <g class="st6">
        <path d="M449.15,175.5c-2.3,1.58-4.61,3.27-7.09,4.4,1.38-2.49,3.33-3.68,5.82-4.29.43-.11.81-.12,1.27-.11"/>
      </g>
      <g class="st9">
        <path d="M50.95,360.58c2.49,1.02,4.61,2.22,6.84,3.84-.47.42-.92.9-1.41,1.25-1.54-2.06-3.51-3.51-5.43-5.1"/>
        <path class="st1" d="M262.02,11.56c4.25.66,8.41,1.46,12.37,3.44-2.52,9.1-10.58,24.77-18.08,29.22-3.17,1.88-6.22,1.11-9.47.04-3.89-1.94-10.27-9.47-11.91-14.05-.72-2.04-.53-4.31.26-6.29,2.04-5.18,7.79-8.63,12.28-10.39,4.45-1.73,9.88-2.73,14.58-1.98"/>
      </g>
      <g class="st8">
        <path d="M360.05,50.9c.36,1.58.65,3.11.84,4.7-.69-.81-.99-2.25-1.35-3.3.33-.5.38-.8.53-1.4"/>
        <rect class="st1" x="272.18" y="523.28" width="57.09" height="39.33"/>
      </g>
    </g>
  </g>
</svg>