<?xml version="1.0" encoding="UTF-8"?>
<svg id="Layer_1" data-name="Layer 1" xmlns="http://www.w3.org/2000/svg" xmlns:xlink="http://www.w3.org/1999/xlink" viewBox="0 0 489.08 576.16">
  <defs>
    <style>
      .cls-1 {
        fill: none;
      }

      .cls-2 {
        fill: #1f3d3a;
      }

      .cls-3 {
        clip-path: url(#clippath-1);
      }

      .cls-4 {
        clip-path: url(#clippath-3);
      }

      .cls-5 {
        clip-path: url(#clippath-4);
      }

      .cls-6 {
        clip-path: url(#clippath-2);
      }

      .cls-7 {
        clip-path: url(#clippath-7);
      }

      .cls-8 {
        clip-path: url(#clippath-6);
      }

      .cls-9 {
        clip-path: url(#clippath-8);
      }

      .cls-10 {
        clip-path: url(#clippath-5);
      }

      .cls-11 {
        clip-path: url(#clippath);
      }
    </style>
    <clipPath id="clippath">
      <rect class="cls-1" x="0" y="0" width="489.08" height="576.16"/>
    </clipPath>
    <clipPath id="clippath-1">
      <rect class="cls-1" x="22.13" y="2.21" width="466.95" height="573.95"/>
    </clipPath>
    <clipPath id="clippath-2">
      <rect class="cls-1" x="0" y="0" width="489.08" height="576.16"/>
    </clipPath>
    <clipPath id="clippath-3">
      <rect class="cls-1" x="22.13" y="2.21" width="466.95" height="573.95"/>
    </clipPath>
    <clipPath id="clippath-4">
      <rect class="cls-1" x="0" y="0" width="489.08" height="576.16"/>
    </clipPath>
    <clipPath id="clippath-5">
      <rect class="cls-1" x="0" y="0" width="466.95" height="573.95"/>
    </clipPath>
    <clipPath id="clippath-6">
      <rect class="cls-1" x="0" y="0" width="489.08" height="576.16"/>
    </clipPath>
    <clipPath id="clippath-7">
      <rect class="cls-1" x="0" y="0" width="466.95" height="573.95"/>
    </clipPath>
    <clipPath id="clippath-8">
      <rect class="cls-1" x="0" y="0" width="489.08" height="576.16"/>
    </clipPath>
  </defs>
  <g id="Hazelnut">
    <g class="cls-11">
      <g class="cls-3">
        <path class="cls-2" d="M243.65,11.47c.78-.85,1.56-1.69,2.43-2.42,1.96-1.63,4.27-2.59,6.7-2.05,3.73.83,6.08,4.47,8.04,7.88,1.05-.1,2.15-.24,3.2-.14,3.71.34,6.89,3.44,9.26,6.51,2.93,3.81,4.21,7.25,3.93,12.39,5.64-2.22,11.41-3.54,17.15-5.3.29-1.2.6-2.42,1.07-3.56.87-2.14,2.44-3.8,4.37-4.58,3.36-1.34,7.67-.36,10.75,1.49,5.49,3.3,8.42,9.66,10.19,16.22-1.38,1.36-2.87,2.51-4.43,3.58-3.49,2.39-7.71,4.12-11.79,2.83-5.51-1.73-8.82-7.68-11.48-13.03-3.05.81-6.05,1.76-9.13,2.46.63.19,1.25.37,1.87.58,7.85,2.56,11.16,7.69,15.02,15.64,3.55-3.85,7.67-4.17,12.25-4.56.13-.15.28-.31.41-.46,1.62-1.75,3.42-2.8,5.68-2.64,5.03.34,8.55,5.27,11.66,9.25,1.27-.22,2.53-.37,3.8-.54,6.11,4.03,9.13,10.56,11.91,17.71,2.34-6.15,6.48-10.54,11.53-13.64,3.71,3.49,6.54,7.41,7.88,12.8,1.28,5.19,1.12,11.91-1.31,16.64-1.07,2.08-3.28,4.8-5.42,5.35-1.1.29-2.41.44-3.33,1.24l.04.42.16-.14c.49.9,3.81,2.15,4.8,2.8,2.69,1.76,4.65,4.27,6.54,7.03.02-.22.03-.42.05-.64.53-7.2,3.58-13.29,8.33-17.9.21.17.4.34.59.53,5.34,5.08,8.63,12.84,9.14,20.78,6.26-1.08,11.32-1.29,16.81,2.8-.63,2.58-1.53,5.07-2.83,7.29-3.3,5.68-7.82,7.76-13.43,9,.78.68,1.55,1.41,2.28,2.15,2.72,2.8,5.83,8.12,5.93,12.42.03,1.15-.26,2.24-1,3.05-1.77,1.97-5.15,1.39-7.42,1.32,4.52,2.2,9.7.19,13.28,4.76,1.86,2.41,2.8,5.58,2.58,8.78-.2,3.2-1.5,6.17-3.62,8.25-3.52,3.44-7.98,3.53-12.32,3.12.44,2.61.91,5.32,1.72,7.81-3.15,2.24-6.82,3.81-9.67,6.51-3.28,3.08-4.99,7.81-7.94,11.27-2.06,2.42-4.58,4.44-6.83,6.63-1.99,1.92-3.75,4.07-5.54,6.24,3.61-.39,8.47-1.46,11.93.07,2.5-5.98,5.12-11.91,9.48-16.44,3.62-3.78,7.17-5.29,12.07-5.02.53-1.07,1.1-2.17,1.77-3.12,2.65-3.8,6.46-3,10.2-3.52,2.18-2.3,3.67-3.59,6.58-4.42-1.49-4.63-2.06-9.2-2.02-14.13,7.01-2.29,14.96-2.68,21.55,1.44,4.59,2.86,6.68,7.27,8.1,12.83-3.24,3.46-6.82,5.42-11.04,6.76,2.3.08,4.87.32,6.96,1.47,2.65,1.46,3.83,4.12,4.73,7.17,1.68.25,3.39.59,4.96,1.37,3.8,1.88,5.49,5.41,6.99,9.57,1.25.93,2.19,2.08,3.08,3.46,2.68-3.68,5.57-5.71,9.44-7.39.71,1.25,1.31,2.54,1.89,3.88,2.84,6.68,3.67,13.81,1.57,20.91,1.72.73,3.2,1.53,4.4,3.2,2.36,3.31,2.14,7.93,1.72,11.91,6.23.24,10.79,2.22,15.38,7.14-3.53,6-7.1,9.35-12.99,11.85.59,2.59,1.21,5.49.01,8-1.35,2.81-4.31,3.63-6.77,4.51.41.97.84,1.92,1.27,2.86.71-.02,1.43-.03,2.13-.05,7.88-.22,12.81,2.32,18.48,8.54-4.4,5.64-9.04,11.19-15.27,14.08-2.8,1.29-5.98,2.08-8.83.59-3.99-2.1-3-3.93-4.17-7.8-.99-.37-2.83.36-3.92.46-1.87.15-3.92-.17-5.8-.25l.15.78.4-.56c3.71,1.07,7.01,2.51,9.72,5.71,4.55,5.35,4.86,11.86,4.77,19-10.45.24-15.11-1.73-22.72-9.96-3.89,1.05-7.7,2.46-11.59,3.58,5.31,1.57,9.75,3.34,13.37,8.3,5.51,7.56,5.49,16.56,4.73,25.84-7.86-.83-17.3-4.36-23.51-10.12-3-2.8-5.3-6.54-5.62-11.08-.32-4.54,1.4-8.08,3.89-11.39-13.59,3.34-24.38,13.61-37.12,19.39-5.84,2.66-11.81,4.14-18.01,5.12-3.59.58-7.33.93-10.82,2.05-5.46,1.75-10.94,6.03-15.92,9.15-4,2.51-8.11,4.8-12.13,7.27-1.46.9-3.22,1.97-4.45,3.25-2.21,2.34-3.97,5.71-5.74,8.51-2.46,3.88-5.09,7.68-8.02,11.12-4.49,5.27-10.04,9.05-15.3,13.19-12.82,10.12-20.27,22.66-24.68,39.6l-4.31,16.95c-2.03,7.92-21.83,1.17-23.01-10.49-1.71-16.81-11.28-30.18-23.53-38.83-5.3-3.75-11.35-7.05-15.97-11.88-5.52-5.76-6.04-12.24-11.78-17.37-4.99-4.47-10.42-8.24-15.71-12.22-3.72-2.8-7.48-6.1-11.53-8.24-2.52-1.32-4.99-1.97-7.71-2.42-7.83-1.3-15.89-1.27-23.59-3.58-8.1-2.42-15.43-7.88-24.04-6.61,0,4.44-.85,8.51-3.24,12.05-6.17,9.17-17.49,11.63-26.88,12.95-.51-2.76-.75-5.69-.77-8.52-.06-7.22,2.08-14.05,6.57-19.2,3.17-3.64,7.57-6.2,12.12-6.08,4.7.12,7.76,2.78,10.84,6.53,2.55-.07,5.09-.2,7.64-.42-3.15-2.9-6.39-5.86-10-7.98-9.64-5.69-22.27-5.78-32.93-5.41-.49,1.22-.96,2.47-1.61,3.59-4.52,7.73-14.12,10.95-21.63,12.51-.37-3.54-.94-6.9-.01-10.41,1.52-5.78,5.68-11.88,10.38-14.66,2.15-1.27,4.68-1.86,7.02-.93,2.84,1.14,4.24,3.87,5.46,6.78,3.18-.05,6.46.36,9.66.54,3.39.19,6.86.15,10.22.61-4.45-3.03-8.75-6.35-12.84-9.98-1.53,1.09-3.24,1.8-5.02,2.07-3.7.54-6.14-.86-8.92-3.41-.69.39-1.49.71-2.24.92-2.27.59-4.37-.95-6.18-2.3-.79,4.27-1.87,8.35-4.61,11.54-2.18,2.54-4.84,3.64-7.92,3.68-8.88.1-18.4-5.98-24.6-12.96,1.16-1.51,2.34-2.98,3.65-4.32,5.52-5.64,13.55-10.27,21.11-9.58,3.81.36,6.33,2.41,8.75,5.63-.35-2.83-.5-4.54.62-7.2-3.16.17-6.33.32-9.2-1.54-1.34-.88-2.49-2.2-2.83-3.98-.46-2.36.4-4.17,1.46-6.07-2.74.39-5.59.86-8.22-.44-2.02-1.02-3.58-2.83-4.3-5.25-.8-2.63-.49-5.69.66-8.12,1.49-3.19,3.91-4.81,6.85-5.75-1.07-3.31-1.62-6.91-.51-10.3,1.19-3.63,3.77-5.32,6.7-6.76-2.81-2.2-4.86-5.1-5.55-9.02-1-5.73,1.16-11.41,3.92-16.03,1.31.52,2.64,1.05,3.89,1.75,5.65,3.18,7.83,7.76,9.79,14.35l.49-3.05c-1.38-3.2-2.08-6.69-1.63-10.27.54-4.37,2.65-8.24,5.7-10.88,3.67-3.19,7.67-3.95,12.12-3.25.5-.39,1-.75,1.53-1.07,3.78-2.32,7.85-1.29,11.71.13,1.1-1.8,2.09-3.69,3.16-5.51,2.5-4.22,5.83-8.17,10.42-9.02,3.59-.68,6.17,1.07,8.98,3.31.09-.04.16-.07.25-.1,1.83-.85,3.7-.73,5.62-.64-3.59-1.39-5.58-3.49-8.36-6.27-3.05-.27-5.45-.59-8.26-2.05-1.94.51-3.97.68-5.95.96.12.9.19,1.8.1,2.7-.41,4.3-2.58,8.36-5.53,10.96-3.71,3.29-8.13,3.93-12.63,3.22-2.34-.37-5.33-1.12-6.77-3.47-.71-1.15-.85-2.53-.62-3.9.69-4.15,3.92-8.39,6.89-10.71,3.67-2.85,9.16-5.2,13.62-4.05,2.43.63,3.5,2.68,4.7,4.95,1.34-.73,2.72-1.37,4.08-2.05-2-2.56-3.5-5.54-3.46-9.08.04-4.22,2.08-7.1,4.58-9.9-1.25-3.2-2.22-6.71-2.03-10.25.27-4.85,2.44-8.1,5.42-11.23-1.63-.47-3.27-1.03-4.78-1.9-4.87-2.8-7.83-7.95-9.56-13.76.62-.78,1.25-1.56,1.91-2.27,4.65-4.98,9.16-6.27,15.37-5.98-.06-2.63-.1-5.24.38-7.81,1.03-5.46,3.9-9.27,7.91-12.22,2.34,1.02,4.24,2.24,5.92,4.44,2.87,3.74,4.15,9.12,3.86,14.05-.26,4.24-1.81,8.51-4.61,11.3l1.82,2.12c.85-2.64,1.91-4.66,3.4-6.9-.1-1.24-.18-2.47-.1-3.71.31-5.27,4.08-8.39,7.24-11.59l2.84.75,1.66-3.29c-3.47-1.15-6.46-2.63-8.92-5.8-2.7-3.51-3.86-7.95-3.64-12.57.26-5.54,2.68-11.79,6.27-15.54,4.99,1.73,8.88,4.69,12.71,8.69,2-2.78,4.15-4.51,6.98-6.05.6-2.46,1.21-4.76,2.43-6.93,2.12-3.81,5.54-6.2,9.41-6.76,1.24-.17,2.66-.1,3.86-.53,2-.71,3.56-2.51,5.68-2.97,3.36-.73,6.3,2.12,8.91,4.17.18-.54-.03-1.19-.12-1.76-.29.02-.12.05-.47-.27.09-.22.28-.73.31-.95.15-.92-.69-.98-1.28-1.08-5.76-1.1-10.69-1.97-14.84-7.2-.04-1.64-.06-3.25.15-4.9.72-5.66,3.97-10.74,7.98-14,5.46-4.44,15-7.12,21.58-5.58,1.28.31,2.49.92,3.18,2.26,1.36,2.61.29,8.44-.22,11.29-.29,1.27-.54,2.51-.68,3.83.57-.66.82-1.83,1.1-2.69.21-.29.4-.58.63-.83,2.84-3.15,6.36-3.02,10.04-2.97.07-.29.15-.58.22-.86.94-3.59,2.44-6.05,5.42-7.8,4.33-2.56,8.89-2.3,13.44-.71.81-2.44,1.83-4.64,3.49-6.46,3.74-4.08,8.83-4.63,13.74-4.47M265.5,402.49l3.92-6.96c8.51-13.83,18.54-18.59,30.23-27.18,3.27-2.39,6.36-5.22,8.95-8.54,10.53-13.44,17.87-31.32,23.2-48.18,1.74-5.49,3.55-11.32,4-17.17.41-5.39-.78-11.24-1.31-16.61-.5-5.51-.63-11.07-.4-16.59-3.28-1.49-6.17-3.53-7.58-7.46-.56-1.54-1.08-8.42-1.72-8.86-7.85,7.93-14.75,16.86-20.13,27.22-4.05,7.81-5.96,16.74-8.72,25.2-3.43,10.66-7.55,21.01-12.32,30.96-2.47,5.14-5.11,10.17-7.88,15.1-4.95,8.81-11.15,17.3-11.79,28.18-.37,6.22.38,12.66.82,18.86.26,4.02.37,8.05.72,12.03M245.05,394.65l3.34,3.53c.01-19.42-2.11-38.71-9.42-56.42-2.28-5.53-5.07-10.73-7.86-15.93-3.53-6.58-6.79-13.02-11.57-18.51-3.39-3.9-7.01-7.52-10.38-11.42-3.83-4.42-7.2-9.1-10.48-14.05-1.88-2.85-8.98-15.88-10.11-16.9-4.53,7.81-6.73,22.73-6.71,31.9,0,3.41.41,6.81.99,10.13.87,5.13,2.19,10.17,3.95,15,2.36,6.37,5.77,12.12,8.66,18.17,4.03,8.46,7.36,17.61,12.44,25.34,1.85,2.83,4.02,5.1,6.6,7.05,3.22,2.44,6.8,4.29,10.26,6.29,7.29,4.19,14.58,9.08,20.32,15.83M205.81,222.99c-1.55,8.86-3.77,19.81-1.32,28.62,1.27,4.58,3.42,8.8,5.42,12.98,2.64,5.53,5.23,11.08,8.26,16.34,5.37,9.27,11.13,18.81,17.33,27.37,1.43,2.17,2.92,4.32,4.48,6.35,1.38-5.69,2.91-11.25,5.05-16.66,3.06-7.8,9.61-19.79,10.5-27.93.32-3.05-.5-5.8-1.8-8.42-1.89-3.81-4.56-7.2-6.99-10.59-2.93-4.12-5.8-8.3-8.36-12.75-2.91-5.08-5.7-10.42-7.93-15.95-1.05-2.56-1.65-5.64-2.87-8.05-2.44,4.88-5.32,9.2-10.28,10.78-3.95,1.27-7.92.02-11.47-2.1M257.1,348.58c5.65-5.27,17.42-23.27,20.64-30.95,1.28-3.02,2.09-6.27,2.37-9.61.29-3.41.15-6.88-.13-10.29-.59-6.9-4.34-35.89-7.11-40.67-.06-.1-.15-.19-.21-.29-8.45,11.66-24.72,50.08-23.54,64.77.48,6.08,3.11,11.76,5.03,17.37,1.08,3.17,2,6.42,2.94,9.66M327.88,340.14c4.77-2.44,9.51-5.1,14.16-7.83,9.47-5.54,35.82-22.4,39.28-33.86.96-3.17.9-6.81,1.1-10.15-5.58.03-10.51-.05-15.65-2.9-1.53-.85-2.97-2.37-4.58-2.98-4.78,4.39-22.5,20.62-24.94,25.61-2.47,5.03-2.91,11.46-4.43,16.93-1.43,5.15-3.4,10.1-4.95,15.19M229.6,210.38c1.6,13.61,15.08,30.39,22.91,40.59,2.53,3.29,5.27,7.44,8.26,10.2.09.08.21.15.29.24,2.65-5.35,7.74-13.64,6.32-20.18-1.56-7.14-7.66-12.71-11.57-18.27-2.49-3.54-4.8-7.44-6.71-11.44-4.55-9.59-3.37-16.91-6.57-26-4.25,1.32-8.23,1.19-12.56.42-1.5-.27-3.09-.71-4.61-.75,7.01,4.36,8.67,7.68,10.95,16.47.41,1.59,1.06,4.24.23,5.73-1.27,2.3-4.8,2.69-6.95,2.98M159.14,335.38c-4.59-4.17-9.3-8.22-13.46-13-3.49-4.05-6.93-8.15-10.33-12.3-3.4-4.17-6.71-9.15-10.95-12.22-6.43-4.63-14.62-6.76-21.8-9.37-4.34-1.58-8.51-4.46-13.07-4.95.22,2.54,2.03,5.32,3.22,7.44,4.55,8.08,9.38,15.44,15.9,21.66,8.04,7.66,21.11,17.93,31.23,20.52,6.23,1.59,12.93,1.73,19.27,2.22M419.05,269.05c-6.48,6.35-14.19,10.86-20.45,17.45-5.55,5.83-9.69,13.1-14.84,19.35-6.01,7.31-13.07,13.46-19.65,20.03,1.09-.22,2.22-.39,3.27-.78,17.67-2.71,29.49-8.17,42.39-22.96,3.59-4.14,7.01-8.41,10.1-13.05,1.59-2.39,3.18-4.85,4.46-7.47-.81-1.64-2.25-4.12-1.75-6.07.28-1.12,1.25-1.68,2.12-2.05,2.62-1.12,5.09-1.68,7.46-3.56l.16-.63c-.35-.56-.62-.8-1.27-.9-.16-.03-.32,0-.49.02-4.18,1.07-7.27,1.25-11.51.61M146.7,303.08c.02,6.64-.01,12.41,4.42,17.42,2.55,2.88,5.64,5.1,8.61,7.34,6.64,4.97,13.56,9.37,20.48,13.81,3.75,2.41,7.77,4.68,11.26,7.56l3.37,2.81c-3.86-10.12-9.17-26.61-15.53-34.73-3-3.83-6.85-6.98-10.64-9.66-4.62-3.27-11.76-6.98-15.81-10.4-1.87,2.41-3.64,4.36-6.15,5.85M343.88,192.21l-2.64,1.81c-.4,5-.9,11.27.01,16.17l2.93-4.17c2.3-3.24,4.61-6.47,6.86-9.74-1.91-1.39-4.89-4.07-7.17-4.07M337.03,223.45c1.19-1.02,2.44-2,3.55-3.13,2.77-2.7,3.45-5.37,5.71-8.1,2.12-2.56,4.67-4.56,6.99-6.85,2.22-2.19,4.24-4.69,6.27-7.08-1.99-.22-3.98-.66-5.96-.81-1.8,3.56-4.33,6.78-6.54,10.03-3.52,5.22-6.89,10.42-10.03,15.95M448.85,224.5c4.23,2.25,6.39,5.71,7.96,10.63.35,1.08.63,2.27,1.09,3.31.32-3.36.66-6.64.63-10.02l.28-.07c.29-.07.57-.17.85-.27-.09-.47,0-.52-.3-.73-.37-.25-.57-.22-.99-.27-2.97-.27-5.27-4.97-7.24-7.24-.75,1.56-1.46,3.15-2.3,4.66M199.52,221.02c-1.8-.58-3.22-1.29-4.73-2.63-.25,2.86,1.4,11.29,2.81,13.64l.25-.13.09-1.08c.47-3.29.94-6.54,1.58-9.8M384.72,255.48c1.09,1.86,2.16,3.75,3.22,5.64.47.75.91,1.71,1.68,2.05,1.65-3,2.68-14.93,2-18.46-.18-.93-.43-1.71-1.19-2.2-.1-.07-.22-.12-.32-.17-2.77,2.15-3.75,9.3-5.26,12.84l-.13.29ZM274.83,244.82c2.1-2.85,4.06-5.83,5.84-8.95.1-4.27.63-9.59-.85-13.61-1.59,3.03-6.38,17.47-5.87,20.59.12.69.56,1.37.88,1.97M123.66,292.9c-4.68-8.24-9.41-16.42-13.25-25.23-3.39.25-7.48.34-10.25-2.34-2.3-2.22-2.11-5.8-3.86-8.02-.83,1.19-1.64,2.39-2.49,3.56,2.36,1.61,4.42,3.54,5.2,6.73.78,3.25-.16,6.15-1.62,8.91-.12.22-.24.42-.35.63,7.1,6.13,14.85,11.66,23.42,14.64,1.07.42,2.12.81,3.19,1.12M342.38,268.63c3.18-3.59,6.33-7.24,9.42-10.92-1.41-2.49-2-5.29-3.24-7.83-1.03,4.42-2.15,8.47-5.8,10.95-.84.58-1.71.96-2.64,1.32.18,1.81.18,5.58,1.31,6.81.59-.02.5,0,.94-.34M338.79,299.17c3.05-2.02,6.02-4.15,8.92-6.44,4.42-3.8,8.79-7.66,13.1-11.61-2.69-2.86-6.6-6.69-6.82-11.2-.07-1.34.22-2.61,1.02-3.59,1.59-1.97,4.28-2.27,6.46-2.59-2.9-1.08-5.58-2.54-8.42-3.8-3.83,4.34-7.93,8.34-11.73,12.71-.12,5.05-.29,10.1-.87,15.12-.44,3.83-1.18,7.59-1.66,11.41M286.55,291.62c.29,1.34.56,2.7.93,4,4.02-10.95,14.06-30.42,14.31-41.42.1-4.95-1.24-10.22-2.28-15-.9-4.05-1.55-8.76-3.03-12.56-.07-.19-.13-.41-.25-.54-6.7,8-12.62,16.79-19.2,24.93,4.24,13.17,7.01,26.86,9.53,40.59M144.34,211.68c.82,3.1,1.41,6.15,1.96,9.32.88-1.22,1.75-2.46,2.77-3.54.93-.85,1.84-1.73,2.8-2.54-2.52-1.02-5.05-2.02-7.52-3.24M178.21,241.77c-1.63-1.41-3.44-3-5.31-3.92-4.27,6.24-1.3,9.35-8.79,13.95,2.1,3.83,4.31,8.81,3.31,13.49-.53,2.47-1.84,4.12-3.72,5.35l-.19.12c3.83,3.58,7.08,8.25,10.14,12.68l.59.44c1.1-1.49.63-6.95.6-8.91-3.58-2.86-5.86-6.31-6.61-11.34-.8-5.54.37-11.22,3.24-15.76,1.84-2.88,3.96-4.58,6.74-6.1M338.89,262.17l-3.62-.41c.12,4.93.5,20.52,2.87,24.07l.1-.39c1.06-6.98,1.27-16.17.65-23.27M418.52,255.37l-2.36,1.76c-2.59.22-3.93.44-5.7,2.86-1.96,2.69-6.82,13.85-7.27,17.34.63.05,1.25-.47,1.81-.81,4.36-2.83,8.49-5.9,12.49-9.37-1.81-3.3-2.18-5.37-1.47-9.27l2.58-2.17-.02-.29-.06-.05ZM82.77,300.05c5.74,4.51,11.2,8.73,17.83,11.37.87.34,1.78.66,2.62,1.1-3.39-5.03-7.16-9.76-10.28-15.03-2.96-4.97-5.33-10.44-8.52-15.22-2.52-.34-4.87-.61-7.4-.24l-.47.34c.59.73,2.05,1,2.89,1.34,3.5,1.47,6.3,4.66,6.18,9.2-.07,2.88-1.27,5.03-2.84,7.14M122.55,188.81c2.97,2.12,5.68,4.14,7.32,7.86,2.52.29,5.12.41,7.61.97l1.24.12.03-.31c-1.61-1.93-3.14-3.71-4.27-6.05-3.71-.27-6.39-2.86-9.89-3.47l-2.03.88ZM334.77,184.47c1.31-1.83,2.53-3.73,3.47-5.85-2.43-.69-5.05-1.73-7.55-1.98.48,4.22.53,8.51,1.12,12.69,1-1.61,2.06-3.19,2.96-4.86M250.6,178.67c-3.09,5.05-4.2,10.71-3.3,16.8,1.8,12.12,9.01,21.86,15.78,30.86l.47.39c.38-.56.24-.85.16-1.54-.21-2.19-.74-4.36-1-6.56-.52-4.22-.74-8.46-.93-12.69-4.45-3.73-10.31-8.25-11.32-14.98-.56-3.69.62-6.88,2.08-10.07-.65-.73-1.31-1.44-1.94-2.2M296.08,216.9c.24-4.44.9-15.42.16-19.4-4.77,6.47-10.78,11.68-13.46,19.81.68,4.12,1.35,8.25,1.85,12.41l.32.86.34.08c3.93-3.95,7.35-9.22,10.78-13.76M170.64,184.38l.88.58.28-.25c0-1.46-.51-2.85-1.02-4.19-.68-1.8-6.17-14.03-7.2-15.22-.44,1.47-.43,2.51-.29,4.03-.5.29-1,.53-1.53.75l-.07.32c1.13,1.47,2.27,2.95,3.24,4.58,1.74,2.9,3.37,7.13,5.71,9.41M329.97,176.32c-.62-1-1.22-1.9-1.99-2.76-4.48,11.17-10.28,21.12-16.86,30.78-3.03,4.47-6.6,8.68-9.14,13.54.03,5.86.59,11.71,1.68,17.44.66,3.51,1.56,7.02,2.09,10.54l.41.42c2.16-2.41,5.46-13.46,6.92-17.13,1.91-4.9,4.08-9.68,6.48-14.3,2.81-5.39,5.99-10.68,8.3-16.39,1.21-2.97,2.19-6.25,2.25-9.58.07-4.2-.53-8.32-.15-12.56M331.65,198.5c1.93-1.78,6.49-5.03,6.8-7.86.06-.51.06-1.02.06-1.54.03-1.66.71-2.34,1.69-3.47-.31-1.12-.56-2.85-1.18-3.76-1.58,3.63-8.54,13.25-8.32,16.57l.31.25.63-.19ZM143.83,210.28c3.14,1.09,6.05,2.63,9,4.24,5.12-1.8,10.17-2.76,15.15.2,1.06.63,2.03,1.49,3,2.27-3.06-3.64-6.2-7.25-9.05-11.12-2.49-3.39-5.17-8.44-8.13-11.13-3.59,2.02-6.71,2.71-10.56,3.71-.69.19-2.18-.15-2.64.25l.24.07c8.23,2.19,16.4,4.8,21.85,12.78l-.24.51.37-.1-.26.02c-9.7-8.22-19.66-12.39-31.68-13.88l-.22.54c.38,1.02.87,1.52,1.77,1.92,3.97,1.73,8.04-.39,10.57,5.69.54,1.27.71,2.63.84,4.03M211.98,173.67c-.49,7.07-1.21,13.83-2.64,20.73,1.44-1.88,2.86-3.85,4.54-5.46,1.65-1.22,6.04-3.25,6.3-5.63.24-2.1-1.4-4.69-2.28-6.47-2.04-.93-3.94-2.02-5.92-3.17M345.65,175.64c-1.63.95-3.28,1.7-5,2.39.35,1.36.65,2.76,1.19,4.05,1.25-1.63,3.8-4.27,4.27-6.31l-.46-.14ZM443.46,290.73c1.25-1.69,2.85-2.88,4.42-4.15-2.02.83-3.74,1.81-5.55,3.13-3.97,2.97-7.66,6.36-11.26,9.86,3.84-.85,7.74-1.69,11.62-2.29-.13-2.44,0-4.24.78-6.56M369.1,123.44c-1.74.07-2.99-.02-4.28,1.51-.21.76-.31,1.15.03,1.9.43.92,1.58,2.02,2.43,2.32.07.03.16.03.23.05l.5-.56c1.97-3.22,4.05-6.08,6.49-8.85-1.3-1.59-2.58-3.63-4.03-4.97-.12,3.1-.53,5.68-1.37,8.59M55.95,238.66c.93,1.76,1.99,3.53,2.55,5.49.21.75.47,2.24.97,2.69l.05-.15c.21-4.3,1.49-7.36,3.61-10.83-2.13-1.27-3.18-2.41-3.92-5.07l-.09-.32c-.5,3.42-1.1,5.54-3.17,8.19M172.11,219.24c.66,7.02.66,10.71,4.56,16.44,1.74,2.56,3.73,4.85,5.93,6.86,1.81,1.68,10.07,8.88,11.62,8.73-2.65-5.63-6.3-9.83-10.19-14.29-1.29-1.49-2.74-2.98-3.89-4.63-2.77-3.97-4.51-10.02-8.04-13.12M213.54,151.42c0-1.66-.06-3.34.01-5-2.06-.51-4.14-.95-6.12-1.73.75,3.73,1.37,7.39,1.6,11.22.91-.9,1.87-1.76,2.75-2.71.59-.58,1.21-1.14,1.75-1.78M204.15,163.98l3.09,3.2c-.71-4.15.32-6.34.71-10.22.38-3.83-.44-11.54-2.84-14.39-1.24,5.85-2.74,9.88-6.98,13.68,1.75,2.8,3.94,5.22,6.02,7.73M300.96,160.88c.43-1.07.9-2.14,1.27-3.24.71-1.86,1.35-3.75,1.97-5.66-2.13-.52-4.18-1.27-6.24-2.02.85,3.61,1.58,7.54,3,10.91M152,95.97c-1.47-.19-2.88-.39-4.33-.83-.91,1.2-1.79,2.42-2.84,3.47,1.21.34,2.64,1,3.81.36,1.09-1.08,2.16-2.08,3.36-3M342.95,89.97c3.99-.49,6.6-.34,10.31,1.42l.84.25.16-.3c-1.31-2.63-4.84-2.42-6.83-4.15-1.8-1.54-2.09-4.19-3.55-5.93-1.05,1.27-1.62,2.37-1.53,4.17.06,1.52.37,3.07.6,4.54M340.07,89.37c-1.38-2.05-3.12-2.53-5.17-3.39l1.53,3.63,3.64-.24ZM189.65,48.6c-1.93,1.51-3.75,3.22-5.82,4.49.49,2.24,1.05,4.44,1.62,6.66l.44.31c1.52-.51,3.02-1.07,4.53-1.51-.79-3.47-.44-6.47-.78-9.95M324.39,160.18c2.41-3.69,2.92-8.81,2.34-13.32-.12-.88-.19-1.71-.71-2.41l-2.55,1.34c.06,4.81.37,9.63.91,14.39M324.03,172.03c-.93-1.95-1.52-3.64-1.8-5.86-.35-2.7.12-18.29-1-19.08-.85.46-1.77.91-2.5,1.59-3.83,3.58-12.94,17.3-14.59,22.64-1.5,4.83-3.86,32.61-2.37,36.79.06.19.16.36.24.53.68-.15,1-.59,1.49-1.12,9.03-12.2,14.21-21.22,20.54-35.49M296.56,182.76c.06.73,0,1.32.38,1.93.62-1.42,2.16-12.63,2.05-14.3-.27-3.81-1.58-7.47-2.22-11.2-.55-3.07-.66-6.46-1.4-9.44-.29-1.2-3.77-3.81-4.84-5.14-.85-1.05-1.62-2.63-2.55-3.51-.5,9.19-2.08,13.68-5.76,21.76,2.55,2.91,5.05,6.02,7.83,8.64,1.34,1.27,3.97,2.86,4.9,4.49,1.02,1.78,1.3,4.66,1.6,6.76M145.07,313.39c-.21-3.25-.38-6.56-.41-9.83-2.36-.39-4.11-1.3-6.17-2.63.93,3.19,3.33,10.56,6.17,12.25.12.09.27.13.41.2M120.63,281.1c-1.08-5.05-2.12-10.12-3.7-15l-4.58.19c1.4,4.14,5.42,11.98,8.27,14.81M258.27,176.25l-7.61-.58v1.12c1.09.51,2.4.39,3.55.86.88.36,1.75,1.24,2.59,1.76l.21-.29,1.27-2.88ZM153.24,171.45l-.47.25c1.25.8,2.59,1.09,3.86,1.81,3.09,1.76,6.07,4.52,8.89,6.8l.29-.14c-1.34-3.15-3.12-5.91-5.06-8.61-2.5-.25-5.02-.39-7.51-.12M190.72,159.16c-1.65.09-3.56.39-5.17.15.91,1.8,1.85,3.51,2.94,5.19l1.02-2.1,1.21-3.24ZM168.78,155.25c-1.21,2.1-2.68,3.97-3.9,6.03.94,2.17,1.99,4.25,3.08,6.34l1.21,2.19v-.53c-.06-2.37,1.05-12.22.16-13.49-.16-.25-.32-.36-.55-.54M305.54,163.22c2.34-2.81,8.08-9.47,9.47-12.53l-.22-.27c-2.03.75-4.06,1.47-6.09,2.17-.88,2.39-3.5,8.05-3.36,10.47l.21.15ZM191.1,235.5c-3.13-6.93-6.32-13.85-9.16-20.95-3.12-7.78-5.33-17.63-10.25-24.17-3.03-4.02-7.14-6.47-10.54-9.96.26,3.76-.3,7.17-2.43,10.15-.88,1.24-1.94,2.24-3.02,3.22,3.28,2.61,5.87,6.35,8.66,9.61,2.97,3.47,6.12,6.75,9.03,10.3,4.96,6.1,9.57,12.56,14.62,18.56l3.09,3.24ZM187.81,169.32c-2.06-2.76-3.93-5.63-5.24-8.98-1.97-.17-3.93-.37-5.9-.59.38,6.24-.34,10.52-3.25,15.79,2.86,12.35,7.8,23.47,12.51,34.96,1.57,3.85,2.92,8.12,4.92,11.68l.31.34c.6-4.07-4.31-22.68-5.99-27.08.68-1.75,1.32-3.36,1.56-5.25l.07-.54c.77-6.64-.19-13.17,1.02-20.32M118.96,125.79c.56,1.92,1.62,4.39.85,6.41-.34.9-.94,1.58-1.55,2.24,1.12.24,4.59,1.34,5.48.85l1.6-.12c-.72-2.07-4.75-8.02-6.39-9.37M95.7,279.2c-1.22,1.15-2.43,2.3-3.61,3.51,3.49,1.22,6.98,2.44,10.41,3.9l3.52,1.05c-3.5-2.75-6.89-5.61-10.32-8.46M176.23,275.29c.16,5.74.13,11.51,2.27,16.83l.63,1.3.29-.02c1.04-3.98,1.22-8.35,2-12.46.65-3.39,1.96-6.88,2.3-10.29l-.24-.32c-2.3,3.19-3.69,4.19-7.26,4.95M458.56,240.77c-.65,1.95-1.38,4.2-1.15,6.32l.28.07.32-.56c.15-.49.27-1.3.66-1.56.66-.44.94-.71,1.31-1.49-.07-1.02-.8-2.1-1.43-2.78M388.67,268.27c-1.13-3.58-2.25-8.93-4.75-11.54-.57-.19-.94-.2-1.53-.13-2.13.69-7.61,1.59-8.76,3.8.6,1.91,4.08,5.54,5.34,7.56,1.62,2.56,2.86,5.29,3.99,8.17l1.58,4.07c1.78-3.74,3.18-7.74,4.14-11.91M407.67,260.02c.91-.88,1.87-1.68,2.53-2.81-.22-.39-.07-.3-.37-.37-.93.34-1.88.56-2.59,1.36-.16.78-.1.9.28,1.61.04.09.1.15.15.22M280.63,178.81l.5.52c1.5-.68,3.11-3.15,4.36-4.41-2.61-4.47-7.96-10.49-9-15.52-1.44,5-3.06,8.85-6.17,12.78,4.24,1,7.49,2.66,10.31,6.63M123.69,135.9c1.87,1.29,3.75,2.66,5.79,3.58-1.13-2.03-2.71-3-4.74-3.49-.37-.09-.69-.12-1.05-.09M277.11,145.47c-.15-3.8.22-8.08-.66-11.76l-.31-.19c-1.56.97-3.12,1.9-4.71,2.81,1.62,1.9,2.99,3.86,4.17,6.15l1.52,2.98ZM439.86,288.44c-5.54-.17-9-1.1-13.58-4.76-4.24,8.39-9.86,15.52-15.05,23.1,3.45-1.37,6.83-2.78,10.03-4.86,6.37-4.12,12.54-8.74,18.59-13.47M330.48,237.41c4.21-2.19,8.41-4.34,13.07-2.31,1.05.46,1.97,1.14,2.86,1.92,1.13,2.27,1.84,4.86,2.64,7.32,1.72-2.56,3.53-4.32,5.83-6.19-4.17-1.85-7.83-3.88-9.73-8.91-.53-1.37-.87-4.41-1.94-5.22-4.7,3.95-9.03,8.24-12.72,13.39M209.36,173.01c-3.5-4.98-9.04-13.3-14.15-15.68-4.62,9.81-4.77,20.98-3.9,31.86,3.19-.98,6.58-1.78,9.63.22,1.66,1.1,2.86,2.92,3.84,4.78l.31.37c1.58-1.56,3.81-18.25,4.27-21.56M266.34,211.8c.93,7.1,2.74,13.52,4.77,20.27.75-1.41,1.32-2.85,1.9-4.36,1.52-3.8,3.09-7.56,4.08-11.57-3.74-1.12-7.23-2.56-10.75-4.34M311.34,250.71c5.55-5.44,11.41-11.02,15.97-17.61,2.66-3.83,4.89-8.1,7.24-12.17,2.11-3.63,4.37-6.29,4.7-10.88.12-1.63.47-14.74.34-15.52-3.84,3.86-7.8,7.69-11.23,12.07-6.68,8.56-11.16,19.78-14.24,30.62-1.1,3.88-2.59,8.36-2.81,12.42,0,.37,0,.71.03,1.07M279.47,130.62c-.81,6.97-1.68,20.52.59,26.88l1.41-3.31c2.16-5.54,2.9-11.08,3.74-17.03-1.84-2.25-3.59-4.68-5.74-6.54M139.65,262.98c-3.25,2.26-4.78,6.12-5.65,10.22-1.22,5.8-.68,11.13-.15,16.98.22-2.19.47-4.34.79-6.51,1.09-3.83,2.86-7.14,6.07-9.05,1.65-.98,3.33-1.37,5.15-1.7-1.94-2.02-3.83-3.83-4.77-6.75-.38-1.2-.32-2.83-1.44-3.2M187.16,251.07c.93,3.71,2.24,7.07,3.93,10.41,3,5.91,16.2,26.13,20.77,28.91.09.05.18.08.25.14-5.9-12.35-14.25-32.49-24.95-39.45M126.76,257.59c-2.02,3.75-3.86,5.9-7.35,7.78,1.81,9.59,2.69,18.52,8.13,26.56,1.8,2.64,3.9,5.05,5.83,7.58.9,1.27,1.78,2.63,2.78,3.78-6.9-14.49-6.61-24.37-3-40.05-2.19-1.68-4.2-4.1-6.39-5.64M153.32,295.61c7.11,3.41,13.63,8.36,20.66,11.88,2.21,1.59,4.43,3.17,6.52,4.97-2.06-13.61-4.68-22.22-12.26-33.13-2-2.88-4.05-5.8-6.61-8.05-2.34,2.86-4.87,3.98-8.11,4.97,2.15,3.69,2.86,7.35,2.12,11.76-.43,2.69-1.34,5.15-2.31,7.61M390.18,289.27c4.43-6.17,10.37-14.15,11.4-22.24.37-2.85.03-5.75-.21-8.59l-.06-.76c-2.96-1.73-5.26-3.54-7.36-6.54-.53-.76-.94-1.68-1.49-2.41-.84,5.2-.44,10.59-1.31,15.88-1.72,10.39-4.7,20.29-5.83,30.84,1.71-1.97,3.27-4.08,4.86-6.19"/>
      </g>
      <g class="cls-6">
        <path d="M323.49,225.23c.74-.05,1.55-.12,2.27.1.94.29,1.85.96,2.34,1.95.41.85.49,1.88.24,2.8-.46,1.68-1.53,2.49-2.8,3.31-.62.22-1.08.36-1.74.14-1.65-.56-2.49-2.98-3.19-4.59.9-1.37,1.77-2.54,2.89-3.69"/>
        <path d="M123.69,135.9c.37-.02.68,0,1.03.09,2.03.49,3.62,1.46,4.74,3.49-2.02-.92-3.9-2.29-5.77-3.58"/>
      </g>
      <g class="cls-4">
        <path d="M447.88,286.57c-1.56,1.29-3.17,2.47-4.42,4.15-.4-.29-.77-.68-1.15-1.02,1.81-1.32,3.53-2.3,5.57-3.13"/>
        <path class="cls-2" d="M276.04,2.42c3.83-.61,8.24.2,11.87,1.61,3.65,1.42,8.33,4.24,10,8.46.63,1.61.8,3.46.21,5.12-1.34,3.73-6.54,9.86-9.7,11.44-2.65.86-5.14,1.49-7.71-.03-6.11-3.63-12.68-16.39-14.72-23.79,3.22-1.61,6.61-2.25,10.07-2.8"/>
      </g>
      <g class="cls-5">
        <path d="M196.23,34.45c.12.49.16.73.43,1.14-.29.86-.55,2.03-1.1,2.69.15-1.31.38-2.54.68-3.83"/>
      </g>
      <g class="cls-10">
        <path class="cls-2" d="M245.43,9.26c4.9-.15,10,.39,13.74,4.47,1.66,1.81,2.68,4.02,3.49,6.46,4.55-1.59,9.11-1.85,13.44.71,2.97,1.75,4.48,4.2,5.42,7.8.07.29.15.58.22.86,3.68-.05,7.2-.19,10.04,2.97.24.25.43.54.63.83.28.86.53,2.03,1.1,2.69-.13-1.32-.38-2.56-.68-3.83-.52-2.85-1.58-8.68-.22-11.29.69-1.34,1.9-1.95,3.18-2.26,6.58-1.54,16.12,1.14,21.58,5.58,4.01,3.25,7.26,8.34,7.98,14,.21,1.64.19,3.25.15,4.9-4.15,5.24-9.08,6.1-14.84,7.2-.59.1-1.43.17-1.28,1.08.03.22.22.73.31.95-.35.32-.18.29-.47.27-.09.58-.29,1.22-.12,1.76,2.61-2.05,5.55-4.9,8.91-4.17,2.12.46,3.68,2.25,5.68,2.97,1.19.42,2.62.36,3.86.53,3.87.56,7.29,2.95,9.41,6.76,1.22,2.17,1.83,4.47,2.43,6.93,2.83,1.54,4.98,3.27,6.98,6.05,3.83-4,7.71-6.97,12.71-8.69,3.59,3.75,6.01,10,6.27,15.54.22,4.63-.94,9.07-3.64,12.57-2.46,3.17-5.45,4.64-8.92,5.8l1.66,3.29,2.84-.75c3.16,3.2,6.93,6.32,7.24,11.59.07,1.24,0,2.47-.1,3.71,1.49,2.24,2.55,4.25,3.4,6.9l1.82-2.12c-2.8-2.8-4.34-7.07-4.61-11.3-.29-4.93.99-10.3,3.86-14.05,1.68-2.2,3.58-3.42,5.92-4.44,4,2.95,6.88,6.76,7.91,12.22.49,2.58.44,5.19.38,7.81,6.21-.29,10.72,1,15.37,5.98.66.71,1.3,1.49,1.91,2.27-1.72,5.81-4.68,10.96-9.56,13.76-1.52.87-3.15,1.42-4.78,1.9,2.97,3.13,5.15,6.39,5.42,11.23.19,3.54-.78,7.05-2.03,10.25,2.5,2.8,4.54,5.68,4.58,9.9.04,3.54-1.46,6.52-3.46,9.08,1.36.68,2.74,1.32,4.08,2.05,1.19-2.27,2.27-4.32,4.7-4.95,4.46-1.15,9.95,1.2,13.62,4.05,2.97,2.32,6.2,6.56,6.89,10.71.24,1.37.09,2.75-.62,3.9-1.44,2.36-4.43,3.1-6.77,3.47-4.5.71-8.92.07-12.63-3.22-2.96-2.61-5.12-6.66-5.53-10.96-.09-.9-.01-1.8.1-2.7-1.97-.29-4-.46-5.95-.96-2.81,1.46-5.21,1.78-8.26,2.05-2.78,2.78-4.77,4.88-8.36,6.27,1.93-.09,3.8-.2,5.62.64.09.03.16.07.25.1,2.81-2.24,5.39-3.98,8.98-3.31,4.59.85,7.92,4.8,10.42,9.02,1.07,1.81,2.06,3.71,3.16,5.51,3.86-1.42,7.92-2.46,11.71-.13.53.32,1.03.68,1.53,1.07,4.45-.69,8.45.07,12.12,3.25,3.05,2.64,5.15,6.51,5.7,10.88.44,3.58-.25,7.07-1.63,10.27l.49,3.05c1.96-6.59,4.14-11.17,9.79-14.35,1.25-.69,2.58-1.22,3.89-1.75,2.75,4.63,4.92,10.3,3.92,16.03-.69,3.91-2.74,6.81-5.55,9.02,2.93,1.44,5.51,3.14,6.7,6.76,1.1,3.39.56,7-.51,10.3,2.93.93,5.36,2.56,6.85,5.75,1.15,2.42,1.46,5.49.66,8.12-.72,2.42-2.28,4.24-4.3,5.25-2.62,1.3-5.48.83-8.22.44,1.06,1.9,1.91,3.71,1.46,6.07-.34,1.78-1.49,3.1-2.83,3.98-2.87,1.86-6.04,1.71-9.2,1.54,1.12,2.66.97,4.37.62,7.2,2.41-3.22,4.93-5.27,8.75-5.63,7.57-.69,15.59,3.93,21.11,9.58,1.31,1.34,2.49,2.81,3.65,4.32-6.2,6.98-15.72,13.07-24.6,12.96-3.08-.03-5.74-1.13-7.92-3.68-2.74-3.19-3.81-7.27-4.61-11.54-1.81,1.36-3.92,2.9-6.18,2.3-.75-.2-1.55-.53-2.24-.92-2.78,2.54-5.23,3.95-8.92,3.41-1.78-.27-3.49-.98-5.02-2.07-4.09,3.63-8.39,6.95-12.84,9.98,3.36-.46,6.83-.42,10.22-.61,3.2-.19,6.48-.59,9.66-.54,1.22-2.91,2.62-5.64,5.46-6.78,2.34-.93,4.87-.34,7.02.93,4.7,2.78,8.86,8.88,10.38,14.66.93,3.51.35,6.86-.01,10.41-7.51-1.56-17.11-4.78-21.63-12.51-.65-1.12-1.12-2.37-1.6-3.59-10.66-.37-23.29-.29-32.93,5.41-3.61,2.12-6.85,5.08-10,7.98,2.55.22,5.09.36,7.64.42,3.08-3.75,6.14-6.41,10.84-6.53,4.55-.12,8.95,2.44,12.12,6.08,4.49,5.15,6.62,11.98,6.57,19.2-.01,2.83-.25,5.76-.77,8.52-9.39-1.32-20.71-3.78-26.88-12.95-2.38-3.54-3.24-7.61-3.24-12.05-8.61-1.27-15.94,4.18-24.04,6.61-7.7,2.3-15.75,2.27-23.59,3.58-2.72.46-5.2,1.1-7.71,2.42-4.05,2.14-7.8,5.44-11.53,8.24-5.29,3.98-10.72,7.74-15.71,12.22-5.74,5.14-6.26,11.61-11.78,17.37-4.62,4.83-10.67,8.13-15.97,11.88-12.25,8.64-21.82,22.01-23.53,38.83-1.18,11.66-20.98,18.41-23.01,10.49l-4.31-16.95c-4.4-16.95-11.85-29.49-24.68-39.6-5.26-4.14-10.81-7.92-15.3-13.19-2.93-3.44-5.57-7.24-8.02-11.12-1.77-2.8-3.53-6.17-5.74-8.51-1.22-1.29-2.99-2.36-4.45-3.25-4.02-2.47-8.13-4.76-12.13-7.27-4.98-3.12-10.45-7.41-15.92-9.15-3.49-1.12-7.23-1.48-10.82-2.05-6.2-.98-12.16-2.46-18.01-5.12-12.73-5.78-23.53-16.05-37.12-19.39,2.49,3.31,4.21,6.85,3.89,11.39-.32,4.54-2.62,8.29-5.62,11.08-6.21,5.76-15.65,9.29-23.51,10.12-.77-9.29-.78-18.29,4.73-25.84,3.62-4.97,8.05-6.73,13.37-8.3-3.89-1.12-7.7-2.53-11.59-3.58-7.61,8.24-12.26,10.2-22.72,9.96-.09-7.13.22-13.64,4.77-19,2.71-3.2,6.01-4.64,9.72-5.71l.4.56.15-.78c-1.88.09-3.93.41-5.8.25-1.09-.1-2.93-.83-3.92-.46-1.16,3.86-.18,5.69-4.17,7.8-2.86,1.49-6.04.69-8.83-.59-6.23-2.9-10.87-8.44-15.27-14.08,5.67-6.22,10.6-8.76,18.48-8.54.71.02,1.43.03,2.13.05.43-.95.85-1.9,1.27-2.86-2.46-.88-5.42-1.7-6.77-4.51-1.19-2.51-.57-5.41.01-8-5.89-2.49-9.45-5.85-12.99-11.85,4.59-4.92,9.16-6.9,15.38-7.14-.41-3.98-.63-8.61,1.72-11.91,1.21-1.68,2.68-2.47,4.4-3.2-2.09-7.1-1.27-14.24,1.57-20.91.57-1.34,1.18-2.63,1.89-3.88,3.87,1.68,6.76,3.71,9.44,7.39.88-1.37,1.83-2.53,3.08-3.46,1.5-4.17,3.19-7.69,6.99-9.57,1.57-.78,3.28-1.12,4.96-1.37.9-3.05,2.08-5.71,4.73-7.17,2.09-1.15,4.67-1.39,6.96-1.47-4.23-1.34-7.8-3.31-11.04-6.76,1.41-5.56,3.5-9.96,8.1-12.83,6.6-4.12,14.54-3.73,21.55-1.44.04,4.93-.53,9.51-2.02,14.13,2.92.83,4.4,2.12,6.58,4.42,3.74.52,7.55-.27,10.2,3.52.66.95,1.24,2.05,1.77,3.12,4.9-.27,8.45,1.24,12.07,5.02,4.36,4.53,6.98,10.46,9.48,16.44,3.46-1.52,8.32-.46,11.93-.07-1.78-2.17-3.55-4.32-5.54-6.24-2.25-2.19-4.77-4.2-6.83-6.63-2.94-3.46-4.65-8.19-7.94-11.27-2.86-2.69-6.52-4.27-9.67-6.51.81-2.49,1.28-5.2,1.72-7.81-4.34.41-8.8.32-12.32-3.12-2.12-2.08-3.42-5.05-3.62-8.25-.22-3.2.72-6.37,2.58-8.78,3.58-4.58,8.76-2.56,13.28-4.76-2.27.07-5.65.64-7.42-1.32-.74-.81-1.03-1.9-1-3.05.1-4.31,3.21-9.63,5.93-12.42.74-.75,1.5-1.48,2.28-2.15-5.61-1.24-10.13-3.32-13.43-9-1.3-2.22-2.19-4.71-2.83-7.29,5.49-4.08,10.56-3.88,16.81-2.8.52-7.93,3.8-15.69,9.14-20.78.19-.19.38-.36.59-.53,4.76,4.61,7.8,10.69,8.33,17.9.01.22.03.42.05.64,1.88-2.76,3.84-5.27,6.54-7.03.99-.64,4.31-1.9,4.8-2.8l.16.14.04-.42c-.91-.8-2.22-.95-3.33-1.24-2.13-.56-4.34-3.27-5.42-5.35-2.43-4.73-2.59-11.46-1.31-16.64,1.34-5.39,4.17-9.3,7.88-12.8,5.05,3.1,9.19,7.49,11.53,13.64,2.78-7.15,5.8-13.68,11.91-17.71,1.27.17,2.53.32,3.8.54,3.11-3.98,6.62-8.91,11.66-9.25,2.27-.15,4.06.9,5.68,2.64.13.15.28.31.41.46,4.58.39,8.7.71,12.25,4.56,3.86-7.95,7.17-13.08,15.02-15.64.62-.2,1.24-.39,1.87-.58-3.08-.69-6.08-1.64-9.13-2.46-2.66,5.35-5.98,11.3-11.48,13.03-4.08,1.29-8.3-.44-11.79-2.83-1.56-1.07-3.05-2.22-4.43-3.58,1.77-6.56,4.7-12.91,10.19-16.22,3.08-1.85,7.39-2.83,10.75-1.49,1.93.78,3.5,2.44,4.37,4.58.47,1.14.78,2.36,1.07,3.56,5.74,1.76,11.51,3.09,17.15,5.3-.28-5.14,1-8.58,3.93-12.39,2.37-3.07,5.55-6.17,9.26-6.51,1.04-.1,2.15.03,3.2.14,1.96-3.41,4.31-7.05,8.04-7.88,2.43-.54,4.74.42,6.7,2.05.87.73,1.65,1.58,2.43,2.42M223.58,400.28c.35-3.98.46-8.02.72-12.03.44-6.2,1.19-12.64.82-18.86-.65-10.88-6.85-19.37-11.79-28.18-2.77-4.93-5.4-9.97-7.88-15.1-4.77-9.95-8.89-20.3-12.32-30.96-2.75-8.46-4.67-17.39-8.72-25.2-5.37-10.36-12.28-19.29-20.13-27.22-.65.44-1.16,7.32-1.72,8.86-1.41,3.93-4.3,5.96-7.58,7.46.24,5.52.1,11.08-.4,16.59-.53,5.37-1.72,11.22-1.31,16.61.46,5.85,2.27,11.68,4,17.17,5.33,16.86,12.68,34.74,23.2,48.18,2.59,3.32,5.68,6.15,8.95,8.54,11.69,8.59,21.72,13.35,30.23,27.18l3.92,6.96ZM244.03,392.43c5.74-6.74,13.03-11.64,20.32-15.83,3.46-2,7.04-3.85,10.26-6.29,2.58-1.95,4.74-4.22,6.6-7.05,5.08-7.73,8.41-16.88,12.44-25.34,2.89-6.05,6.3-11.8,8.66-18.17,1.75-4.83,3.08-9.86,3.95-15,.57-3.32.99-6.73.99-10.13.02-9.17-2.18-24.08-6.71-31.9-1.13,1.02-8.23,14.05-10.11,16.9-3.28,4.95-6.65,9.63-10.48,14.05-3.37,3.9-6.99,7.52-10.38,11.42-4.78,5.49-8.04,11.93-11.57,18.51-2.8,5.2-5.58,10.41-7.86,15.93-7.32,17.71-9.44,37-9.42,56.42l3.34-3.53ZM283.27,220.77c-3.55,2.12-7.52,3.37-11.47,2.1-4.96-1.58-7.83-5.9-10.28-10.78-1.22,2.41-1.82,5.49-2.87,8.05-2.24,5.52-5.02,10.86-7.93,15.95-2.56,4.44-5.43,8.63-8.36,12.75-2.43,3.39-5.11,6.78-6.99,10.59-1.3,2.63-2.12,5.37-1.8,8.42.88,8.14,7.43,20.13,10.5,27.93,2.14,5.41,3.67,10.96,5.05,16.66,1.56-2.03,3.05-4.18,4.48-6.35,6.2-8.56,11.95-18.1,17.33-27.37,3.03-5.25,5.62-10.81,8.26-16.34,2-4.18,4.15-8.41,5.42-12.98,2.44-8.81.22-19.76-1.32-28.62M231.98,346.37c.94-3.24,1.87-6.49,2.94-9.66,1.93-5.61,4.55-11.29,5.03-17.37,1.18-14.69-15.09-53.11-23.54-64.77-.06.1-.15.19-.21.29-2.77,4.78-6.52,33.78-7.11,40.67-.28,3.41-.43,6.88-.13,10.29.28,3.34,1.09,6.59,2.37,9.61,3.22,7.68,14.99,25.68,20.64,30.95M161.2,337.93c-1.55-5.08-3.52-10.03-4.95-15.19-1.52-5.47-1.96-11.9-4.43-16.93-2.44-4.98-20.16-21.22-24.94-25.61-1.6.61-3.05,2.13-4.58,2.98-5.14,2.85-10.07,2.93-15.65,2.9.21,3.34.15,6.98,1.1,10.15,3.46,11.46,29.81,28.32,39.28,33.86,4.65,2.73,9.39,5.39,14.16,7.83M259.48,208.17c-2.15-.29-5.68-.68-6.95-2.98-.82-1.49-.18-4.14.23-5.73,2.28-8.8,3.95-12.12,10.95-16.47-1.52.04-3.11.48-4.61.75-4.33.76-8.3.9-12.56-.42-3.19,9.08-2.02,16.4-6.57,26-1.91,4-4.23,7.9-6.71,11.44-3.92,5.56-10.01,11.13-11.57,18.27-1.43,6.54,3.67,14.83,6.32,20.18.09-.08.21-.15.29-.24,2.99-2.76,5.73-6.91,8.26-10.2,7.83-10.2,21.3-26.98,22.91-40.59M329.94,333.17c6.34-.49,13.04-.63,19.27-2.22,10.11-2.59,23.19-12.86,31.23-20.52,6.52-6.22,11.35-13.57,15.9-21.66,1.19-2.12,3-4.9,3.22-7.44-4.56.49-8.73,3.37-13.07,4.95-7.18,2.61-15.37,4.74-21.8,9.37-4.24,3.07-7.55,8.05-10.95,12.22-3.4,4.15-6.85,8.25-10.33,12.3-4.15,4.78-8.86,8.83-13.46,13M70.03,266.84c-4.24.64-7.33.46-11.51-.61-.16-.02-.32-.05-.49-.02-.65.1-.91.34-1.27.9l.16.63c2.37,1.88,4.84,2.44,7.46,3.56.87.37,1.84.93,2.12,2.05.5,1.95-.94,4.42-1.75,6.07,1.28,2.63,2.87,5.08,4.46,7.47,3.09,4.64,6.51,8.91,10.1,13.05,12.9,14.79,24.72,20.25,42.39,22.96,1.04.39,2.18.56,3.27.78-6.58-6.58-13.65-12.73-19.65-20.03-5.15-6.25-9.29-13.52-14.84-19.35-6.26-6.59-13.97-11.1-20.45-17.45M342.38,300.87c-2.52-1.49-4.28-3.44-6.15-5.85-4.05,3.42-11.19,7.14-15.81,10.4-3.8,2.68-7.64,5.83-10.64,9.66-6.36,8.12-11.68,24.61-15.53,34.73l3.37-2.81c3.49-2.88,7.51-5.15,11.26-7.56,6.92-4.44,13.84-8.85,20.48-13.81,2.97-2.24,6.06-4.46,8.61-7.34,4.43-5.02,4.4-10.78,4.42-17.42M145.2,190c-2.28,0-5.26,2.68-7.17,4.07,2.25,3.27,4.56,6.51,6.86,9.74l2.93,4.17c.91-4.9.41-11.17.01-16.17l-2.64-1.81ZM152.05,221.23c-3.13-5.52-6.51-10.73-10.03-15.95-2.21-3.25-4.74-6.47-6.54-10.03-1.99.15-3.97.59-5.96.81,2.03,2.39,4.05,4.9,6.27,7.08,2.33,2.29,4.87,4.29,6.99,6.85,2.27,2.73,2.94,5.41,5.71,8.1,1.1,1.13,2.36,2.12,3.55,3.13M40.23,222.28c-.84-1.51-1.55-3.1-2.3-4.66-1.97,2.27-4.27,6.97-7.24,7.24-.41.05-.62.02-.99.27-.3.2-.21.25-.3.73.28.1.56.2.85.27l.28.07c-.03,3.37.31,6.66.63,10.02.46-1.03.74-2.22,1.09-3.31,1.57-4.91,3.74-8.37,7.96-10.63M289.56,218.81c.63,3.25,1.1,6.51,1.58,9.8l.09,1.08.25.13c1.41-2.36,3.06-10.78,2.81-13.64-1.5,1.34-2.93,2.05-4.73,2.63M104.23,252.97c-1.5-3.54-2.49-10.69-5.26-12.84-.1.05-.22.1-.32.17-.77.49-1.02,1.27-1.19,2.2-.68,3.52.35,15.46,2,18.46.76-.34,1.21-1.3,1.68-2.05,1.06-1.9,2.13-3.78,3.22-5.64l-.13-.29ZM214.25,242.6c.32-.59.77-1.27.88-1.97.5-3.12-4.28-17.56-5.87-20.59-1.49,4.02-.96,9.34-.85,13.61,1.78,3.12,3.74,6.1,5.84,8.95M365.42,290.68c1.07-.3,2.12-.69,3.19-1.12,8.57-2.98,16.33-8.51,23.42-14.64-.12-.2-.24-.41-.35-.63-1.46-2.76-2.4-5.66-1.62-8.91.78-3.19,2.84-5.12,5.2-6.73-.85-1.17-1.66-2.37-2.49-3.56-1.75,2.22-1.56,5.8-3.86,8.02-2.77,2.68-6.86,2.59-10.25,2.34-3.84,8.81-8.57,17-13.25,25.23M146.7,266.41c.44.34.35.32.94.34,1.13-1.24,1.13-5,1.31-6.81-.93-.36-1.8-.75-2.64-1.32-3.65-2.47-4.77-6.53-5.8-10.95-1.24,2.54-1.83,5.34-3.24,7.83,3.09,3.68,6.24,7.32,9.42,10.92M150.3,296.95c-.49-3.81-1.22-7.58-1.66-11.41-.57-5.02-.75-10.07-.87-15.12-3.8-4.37-7.91-8.37-11.73-12.71-2.84,1.25-5.52,2.71-8.42,3.8,2.18.32,4.87.63,6.46,2.59.8.98,1.09,2.25,1.02,3.59-.22,4.51-4.12,8.34-6.82,11.2,4.31,3.95,8.69,7.81,13.1,11.61,2.9,2.29,5.87,4.42,8.92,6.44M202.53,289.41c2.52-13.73,5.29-27.42,9.53-40.59-6.58-8.14-12.5-16.93-19.2-24.93-.12.14-.18.36-.25.54-1.49,3.8-2.13,8.51-3.03,12.56-1.05,4.78-2.38,10.05-2.28,15,.25,11,10.29,30.47,14.31,41.42.37-1.3.63-2.66.93-4M344.74,209.47c-2.47,1.22-5,2.22-7.52,3.24.96.81,1.87,1.69,2.8,2.54,1.01,1.09,1.88,2.32,2.77,3.54.55-3.17,1.13-6.22,1.96-9.32M310.88,239.55c2.78,1.52,4.9,3.22,6.74,6.1,2.87,4.54,4.03,10.22,3.24,15.76-.75,5.03-3.03,8.47-6.61,11.34-.03,1.97-.5,7.42.6,8.91l.59-.44c3.06-4.42,6.32-9.1,10.14-12.68l-.19-.12c-1.88-1.24-3.19-2.88-3.72-5.35-1-4.68,1.21-9.66,3.31-13.49-7.49-4.59-4.52-7.71-8.79-13.95-1.87.92-3.68,2.51-5.31,3.92M150.19,259.96c-.62,7.1-.41,16.29.65,23.27l.1.39c2.37-3.54,2.75-19.13,2.87-24.07l-3.62.41ZM70.5,253.21l-.02.29,2.58,2.17c.71,3.9.34,5.97-1.47,9.27,3.99,3.47,8.13,6.54,12.49,9.37.56.34,1.18.86,1.81.81-.46-3.49-5.31-14.64-7.27-17.34-1.77-2.42-3.11-2.64-5.7-2.86l-2.36-1.76-.06.05ZM406.31,297.83c-1.57-2.1-2.77-4.25-2.84-7.14-.12-4.54,2.68-7.73,6.18-9.2.84-.34,2.3-.61,2.89-1.34l-.47-.34c-2.53-.37-4.89-.1-7.4.24-3.2,4.78-5.57,10.25-8.52,15.22-3.12,5.27-6.89,10-10.28,15.03.84-.44,1.75-.76,2.62-1.1,6.63-2.64,12.09-6.86,17.83-11.37M364.49,185.71c-3.5.61-6.18,3.2-9.89,3.47-1.13,2.34-2.66,4.12-4.27,6.05l.03.31,1.24-.12c2.49-.56,5.09-.68,7.61-.97,1.63-3.73,4.34-5.75,7.32-7.86l-2.03-.88ZM154.31,182.25c.9,1.68,1.96,3.25,2.96,4.86.59-4.19.63-8.47,1.12-12.69-2.5.25-5.12,1.29-7.55,1.98.94,2.12,2.16,4.02,3.47,5.85M238.48,176.46c-.63.76-1.3,1.48-1.94,2.2,1.46,3.19,2.63,6.37,2.08,10.07-1.02,6.73-6.88,11.25-11.32,14.98-.19,4.24-.41,8.47-.93,12.69-.27,2.2-.8,4.37-1,6.56-.07.69-.22.98.16,1.54l.47-.39c6.77-9,13.99-18.74,15.78-30.86.9-6.08-.21-11.74-3.3-16.8M193.01,214.69c3.43,4.54,6.85,9.81,10.78,13.76l.34-.08.32-.86c.5-4.15,1.18-8.29,1.85-12.41-2.68-8.13-8.69-13.34-13.46-19.81-.74,3.98-.07,14.96.16,19.4M318.44,182.17c2.34-2.27,3.97-6.51,5.71-9.41.97-1.63,2.1-3.1,3.24-4.58l-.07-.32c-.53-.22-1.03-.46-1.53-.75.13-1.52.15-2.56-.29-4.03-1.03,1.19-6.52,13.42-7.2,15.22-.5,1.34-1.02,2.73-1.02,4.19l.28.25.88-.58ZM159.11,174.1c.38,4.24-.22,8.35-.15,12.56.06,3.32,1.05,6.61,2.25,9.58,2.31,5.71,5.49,11,8.3,16.39,2.4,4.63,4.56,9.41,6.48,14.3,1.46,3.68,4.75,14.73,6.92,17.13l.41-.42c.53-3.53,1.43-7.03,2.09-10.54,1.09-5.73,1.65-11.58,1.68-17.44-2.55-4.86-6.11-9.07-9.14-13.54-6.58-9.66-12.38-19.61-16.86-30.78-.77.86-1.37,1.76-1.99,2.76M158.07,196.47l.31-.25c.22-3.32-6.74-12.95-8.32-16.57-.62.92-.87,2.64-1.18,3.76.99,1.14,1.66,1.81,1.69,3.47,0,.53,0,1.03.06,1.54.31,2.83,4.87,6.08,6.8,7.86l.63.19ZM345.25,208.06c.13-1.41.29-2.76.84-4.03,2.53-6.08,6.6-3.97,10.57-5.69.9-.39,1.38-.9,1.77-1.92l-.22-.54c-12.03,1.49-21.98,5.66-31.68,13.88l-.26-.02.37.1-.24-.51c5.45-7.98,13.62-10.59,21.85-12.78l.24-.07c-.46-.41-1.94-.07-2.64-.25-3.84-1-6.96-1.7-10.56-3.71-2.96,2.7-5.64,7.74-8.13,11.13-2.86,3.87-5.99,7.47-9.05,11.12.97-.78,1.94-1.64,3-2.27,4.98-2.97,10.03-2,15.15-.2,2.94-1.61,5.86-3.15,9-4.24M277.1,171.46c-1.97,1.15-3.87,2.24-5.92,3.17-.88,1.78-2.52,4.37-2.28,6.47.26,2.37,4.65,4.41,6.3,5.63,1.68,1.61,3.09,3.58,4.54,5.46-1.43-6.9-2.15-13.66-2.64-20.73M142.98,173.56c.47,2.03,3.02,4.68,4.27,6.31.54-1.29.84-2.69,1.19-4.05-1.72-.69-3.37-1.44-5-2.39l-.46.14ZM45.62,288.51c.78,2.32.91,4.12.78,6.56,3.87.59,7.77,1.44,11.62,2.29-3.61-3.51-7.29-6.9-11.26-9.86-1.81-1.32-3.53-2.3-5.55-3.13,1.56,1.27,3.17,2.46,4.42,4.15M119.98,121.23c-.84-2.92-1.25-5.49-1.37-8.59-1.46,1.34-2.74,3.37-4.03,4.97,2.44,2.76,4.52,5.63,6.49,8.85l.5.56c.07-.02.16-.02.23-.05.85-.31,2-1.41,2.43-2.32.34-.75.24-1.14.03-1.9-1.3-1.52-2.55-1.44-4.28-1.51M433.13,236.45c-2.06-2.64-2.67-4.76-3.17-8.19l-.09.32c-.74,2.66-1.78,3.8-3.92,5.07,2.12,3.47,3.4,6.53,3.61,10.83l.05.15c.5-.46.76-1.95.97-2.69.56-1.97,1.62-3.73,2.55-5.49M316.97,217.03c-3.53,3.1-5.27,9.15-8.04,13.12-1.15,1.64-2.59,3.13-3.89,4.63-3.89,4.46-7.54,8.66-10.19,14.29,1.55.15,9.81-7.05,11.62-8.73,2.21-2.02,4.2-4.3,5.93-6.86,3.9-5.73,3.9-9.42,4.56-16.44M275.54,149.21c.54.64,1.16,1.2,1.75,1.78.88.95,1.84,1.81,2.75,2.71.24-3.83.85-7.49,1.6-11.22-1.99.78-4.06,1.22-6.12,1.73.07,1.66.01,3.34.01,5M284.93,161.76c2.08-2.51,4.27-4.93,6.02-7.73-4.24-3.8-5.74-7.83-6.98-13.68-2.4,2.85-3.22,10.56-2.84,14.39.38,3.88,1.41,6.07.71,10.22l3.09-3.2ZM188.12,158.66c1.43-3.37,2.15-7.3,3-10.91-2.06.74-4.11,1.49-6.24,2.02.62,1.92,1.27,3.8,1.97,5.66.37,1.1.84,2.17,1.27,3.24M337.08,93.75c1.19.92,2.27,1.92,3.36,3,1.18.64,2.61-.02,3.81-.36-1.05-1.05-1.93-2.27-2.84-3.47-1.44.44-2.86.64-4.33.83M146.13,87.76c.24-1.48.54-3.02.6-4.54.09-1.8-.49-2.9-1.53-4.17-1.46,1.75-1.75,4.39-3.55,5.93-1.99,1.73-5.52,1.52-6.83,4.15l.16.3.84-.25c3.71-1.76,6.32-1.91,10.31-1.42M152.65,87.4l1.53-3.63c-2.05.86-3.78,1.34-5.17,3.39l3.64.24ZM299.44,46.39c-.34,3.47.02,6.47-.78,9.95,1.52.44,3.02,1,4.53,1.51l.44-.31c.57-2.22,1.13-4.42,1.62-6.66-2.06-1.27-3.89-2.98-5.82-4.49M164.69,157.97c.54-4.76.85-9.58.91-14.39l-2.55-1.34c-.52.69-.59,1.52-.71,2.41-.58,4.51-.07,9.63,2.34,13.32M165.05,169.81c6.33,14.27,11.51,23.29,20.54,35.49.49.53.81.97,1.49,1.12.07-.17.18-.34.24-.53,1.49-4.19-.87-31.96-2.37-36.79-1.65-5.34-10.76-19.07-14.59-22.64-.74-.68-1.65-1.14-2.5-1.59-1.12.8-.65,16.39-1,19.08-.28,2.22-.87,3.91-1.8,5.86M192.52,180.54c.31-2.1.59-4.98,1.6-6.76.93-1.63,3.56-3.22,4.9-4.49,2.78-2.63,5.29-5.73,7.83-8.64-3.68-8.08-5.26-12.57-5.76-21.76-.93.88-1.69,2.46-2.55,3.51-1.08,1.32-4.55,3.93-4.84,5.14-.74,2.98-.85,6.37-1.4,9.44-.65,3.73-1.96,7.39-2.22,11.2-.12,1.68,1.43,12.88,2.05,14.3.38-.61.32-1.2.38-1.93M344.02,311.17c.15-.07.29-.12.41-.2,2.84-1.69,5.24-9.07,6.17-12.25-2.06,1.32-3.81,2.24-6.17,2.63-.03,3.27-.21,6.58-.41,9.83M368.46,278.89c2.86-2.83,6.88-10.68,8.27-14.81l-4.58-.19c-1.57,4.88-2.62,9.95-3.7,15M232.08,176.92l.21.29c.84-.53,1.71-1.41,2.59-1.76,1.15-.47,2.46-.36,3.56-.86v-1.12s-7.63.58-7.63.58l1.27,2.88ZM335.85,169.24c-2.49-.27-5.01-.14-7.51.12-1.94,2.69-3.72,5.46-5.06,8.61l.29.14c2.83-2.27,5.8-5.03,8.89-6.8,1.27-.73,2.6-1.02,3.86-1.81l-.47-.25ZM299.57,160.19l1.02,2.1c1.09-1.68,2.03-3.39,2.94-5.19-1.6.24-3.52-.07-5.17-.15l1.21,3.24ZM320.3,153.04c-.22.19-.38.29-.55.54-.88,1.27.22,11.12.18,13.49v.53s1.19-2.19,1.19-2.19c1.09-2.09,2.13-4.17,3.08-6.34-1.22-2.07-2.69-3.93-3.9-6.03M183.75,160.85c.15-2.42-2.47-8.08-3.36-10.47-2.03-.69-4.06-1.42-6.09-2.17l-.22.27c1.38,3.05,7.13,9.71,9.47,12.53l.21-.15ZM301.07,230.05c5.05-6,9.66-12.46,14.62-18.56,2.9-3.56,6.05-6.83,9.03-10.3,2.78-3.25,5.37-7,8.66-9.61-1.07-.98-2.13-1.98-3.02-3.22-2.13-2.98-2.69-6.39-2.43-10.15-3.4,3.49-7.51,5.95-10.54,9.96-4.92,6.54-7.13,16.39-10.25,24.17-2.84,7.1-6.02,14.02-9.16,20.95l3.09-3.24ZM301.28,167.1c1.21,7.15.25,13.68,1.02,20.32l.07.54c.24,1.9.88,3.51,1.56,5.25-1.68,4.41-6.6,23.02-5.99,27.08l.31-.34c2-3.56,3.34-7.83,4.92-11.68,4.71-11.49,9.66-22.61,12.51-34.96-2.92-5.27-3.64-9.56-3.25-15.79-1.97.22-3.93.42-5.9.59-1.31,3.36-3.18,6.22-5.24,8.98M370.12,123.58c-1.63,1.36-5.67,7.3-6.39,9.37l1.6.12c.88.49,4.36-.61,5.48-.85-.6-.66-1.21-1.34-1.55-2.24-.76-2.02.29-4.49.85-6.41M393.38,276.99c-3.43,2.85-6.82,5.71-10.32,8.46l3.52-1.05c3.43-1.46,6.92-2.68,10.41-3.9-1.18-1.2-2.39-2.36-3.61-3.51M312.85,273.07c-3.56-.76-4.96-1.76-7.26-4.95l-.24.32c.34,3.41,1.65,6.9,2.3,10.29.78,4.1.96,8.47,2,12.46l.29.02.63-1.3c2.13-5.32,2.1-11.08,2.27-16.83M30.53,238.55c-.63.68-1.35,1.76-1.43,2.78.37.78.65,1.05,1.31,1.49.4.25.51,1.07.66,1.56l.32.56.28-.07c.23-2.12-.5-4.37-1.15-6.32M100.42,266.06c.96,4.17,2.36,8.17,4.14,11.91l1.58-4.07c1.13-2.88,2.37-5.61,3.99-8.17,1.27-2.02,4.74-5.64,5.34-7.56-1.15-2.2-6.62-3.1-8.76-3.8-.59-.07-.96-.05-1.53.13-2.5,2.61-3.62,7.97-4.75,11.54M81.41,257.8c.04-.07.1-.14.15-.22.38-.71.44-.83.28-1.61-.71-.8-1.66-1.02-2.59-1.36-.29.07-.15-.02-.37.37.66,1.14,1.62,1.93,2.53,2.81M208.45,176.59c2.81-3.97,6.07-5.63,10.31-6.63-3.11-3.93-4.73-7.78-6.17-12.78-1.03,5.03-6.39,11.05-9,15.52,1.25,1.25,2.86,3.73,4.36,4.41l.5-.52ZM365.39,133.68c-.35-.03-.68,0-1.05.09-2.03.49-3.61,1.46-4.74,3.49,2.03-.92,3.92-2.29,5.79-3.58M213.48,140.28c1.18-2.29,2.55-4.25,4.17-6.15-1.59-.92-3.15-1.85-4.71-2.81l-.31.19c-.88,3.68-.52,7.96-.66,11.76l1.52-2.98ZM49.22,286.23c6.05,4.73,12.22,9.35,18.59,13.47,3.19,2.08,6.58,3.49,10.03,4.86-5.18-7.57-10.81-14.71-15.05-23.1-4.58,3.66-8.04,4.59-13.58,4.76M158.6,235.2c-3.7-5.15-8.02-9.44-12.72-13.39-1.07.81-1.41,3.85-1.94,5.22-1.9,5.03-5.56,7.07-9.73,8.91,2.3,1.86,4.11,3.63,5.83,6.19.8-2.46,1.5-5.05,2.64-7.32.88-.78,1.81-1.46,2.86-1.92,4.67-2.03,8.86.12,13.07,2.31M279.72,170.8c.46,3.31,2.69,20,4.27,21.56l.31-.37c.99-1.86,2.18-3.68,3.84-4.78,3.05-2,6.43-1.2,9.63-.22.87-10.88.72-22.05-3.9-31.86-5.11,2.37-10.65,10.69-14.15,15.68M222.75,209.59c-3.52,1.78-7.01,3.22-10.75,4.34.99,4.02,2.56,7.78,4.08,11.57.57,1.51,1.15,2.95,1.9,4.36,2.03-6.74,3.84-13.17,4.77-20.27M177.74,248.5c.03-.36.03-.69.03-1.07-.22-4.07-1.71-8.54-2.81-12.42-3.08-10.85-7.55-22.07-14.24-30.62-3.43-4.37-7.39-8.2-11.23-12.07-.13.78.22,13.9.34,15.52.32,4.59,2.59,7.25,4.7,10.88,2.35,4.07,4.58,8.34,7.24,12.17,4.56,6.59,10.42,12.17,15.97,17.61M209.61,128.41c-2.15,1.86-3.9,4.29-5.74,6.54.84,5.95,1.58,11.49,3.74,17.03l1.41,3.31c2.27-6.36,1.4-19.91.59-26.88M349.43,260.77c-1.12.37-1.06,2-1.44,3.2-.94,2.92-2.83,4.73-4.77,6.75,1.83.32,3.5.71,5.15,1.7,3.21,1.91,4.98,5.22,6.07,9.05.32,2.17.57,4.32.79,6.51.53-5.85,1.08-11.19-.15-16.98-.87-4.1-2.4-7.96-5.65-10.22M301.92,248.86c-10.7,6.96-19.05,27.1-24.95,39.45.07-.05.16-.09.25-.14,4.58-2.78,17.77-23,20.77-28.91,1.69-3.34,3-6.69,3.93-10.41M362.32,255.38c-2.19,1.54-4.2,3.97-6.39,5.64,3.61,15.68,3.9,25.56-3,40.05,1-1.15,1.88-2.51,2.78-3.78,1.93-2.52,4.03-4.93,5.83-7.58,5.43-8.03,6.32-16.96,8.13-26.56-3.49-1.88-5.33-4.03-7.35-7.78M335.76,293.39c-.97-2.46-1.88-4.91-2.31-7.61-.74-4.41-.03-8.07,2.12-11.76-3.24-.98-5.77-2.1-8.11-4.97-2.56,2.25-4.61,5.17-6.61,8.05-7.58,10.92-10.2,19.52-12.26,33.13,2.09-1.8,4.31-3.37,6.52-4.97,7.02-3.53,13.55-8.47,20.66-11.88M98.9,287.06c1.59,2.1,3.15,4.22,4.86,6.19-1.13-10.56-4.11-20.46-5.83-30.84-.87-5.29-.47-10.68-1.31-15.88-.54.73-.96,1.64-1.49,2.41-2.11,3-4.4,4.81-7.36,6.54l-.06.76c-.23,2.85-.57,5.75-.21,8.59,1.03,8.08,6.96,16.07,11.4,22.24"/>
      </g>
      <g class="cls-8">
        <path d="M365.39,133.68c-1.87,1.29-3.75,2.66-5.77,3.58,1.12-2.03,2.71-3,4.74-3.49.35-.09.66-.1,1.03-.09"/>
      </g>
      <g class="cls-7">
        <path d="M41.2,284.36c2.03.83,3.75,1.81,5.57,3.13-.38.34-.75.73-1.15,1.02-1.25-1.68-2.86-2.86-4.42-4.15"/>
        <path class="cls-2" d="M213.04.21c3.46.54,6.85,1.19,10.07,2.8-2.05,7.41-8.61,20.17-14.72,23.79-2.58,1.53-5.06.9-7.71.03-3.17-1.58-8.36-7.71-9.7-11.44-.59-1.66-.43-3.51.21-5.12,1.66-4.22,6.34-7.03,10-8.46,3.62-1.41,8.04-2.22,11.87-1.61"/>
      </g>
      <g class="cls-9">
        <path d="M292.85,32.24c.29,1.29.53,2.53.68,3.83-.56-.66-.81-1.83-1.1-2.69.27-.41.31-.65.43-1.14"/>
        <rect class="cls-2" x="221.31" y="416.82" width="46.48" height="28.77"/>
      </g>
    </g>
  </g>
</svg>