<?xml version="1.0" encoding="UTF-8"?>
<svg id="Layer_1" data-name="Layer 1" xmlns="http://www.w3.org/2000/svg" xmlns:xlink="http://www.w3.org/1999/xlink" viewBox="0 0 451.71 549.21">
  <defs>
    <style>
      .cls-1 {
        fill: none;
      }

      .cls-2 {
        fill: #a53b28;
      }

      .cls-3 {
        clip-path: url(#clippath-1);
      }

      .cls-4 {
        clip-path: url(#clippath);
      }
    </style>
    <clipPath id="clippath">
      <rect class="cls-1" y="0" width="451.71" height="549.21"/>
    </clipPath>
    <clipPath id="clippath-1">
      <rect class="cls-1" y="0" width="451.71" height="549.21"/>
    </clipPath>
  </defs>
  <g id="Horse">
    <g class="cls-4">
      <g class="cls-3">
        <path class="cls-2" d="M196.83,513.34c-2.88,0-6.1.05-6.4.15-.05,1.37-.05,2.68-.05,4,0,4.88.29,9.03.39,9.81,0,.39-1.81,1.27-4.25,1.27-.44,0-1.61-.05-1.81-.24-.24-.24-.29-4.15-.29-8.98v-5.76c-.68-.63-2.3-3.37-2.3-4.98,0-.05,1.56-.15,2.39-.15.05-3.47.05-6.44.05-7.96v-1.03c-.59-1.07-1.27-3.32-1.27-4.64,0-.1,0-.2.05-.24.05,0,.49-.05,1.02-.05,3.12,0,6.44,1.17,6.44,1.66-.05.34-.34,6.35-.34,11.13v.98c.73,0,3.91-.05,6.49-.05,1.95,0,3.61.05,3.61.1,0-5.96.39-12.11.39-12.3,0-.25,2.49-1.66,5.12-1.66.2,0,.63,0,.63.19,0,0-.54,7.18-.54,15.43,0,9.57.29,15.23,2.64,17.57,0,.1-.1.2-.15.25-.98.78-3.61,1.71-5.76,1.71-.34,0-.59-.1-.59-.1-1.12-1.12-1.61-2.88-1.71-16.06-.83-.05-2.25-.05-3.81-.05"/>
        <path class="cls-2" d="M211.08,514.17c0-6.88,2.73-10.69,2.98-10.84.44-.24,2.1-.29,3.22-.29h.93c0-6.98,6.01-8.54,8.79-8.54,9.28,0,13.57,6.01,13.57,17.09,0,7.86-2.83,17.33-15.23,17.33-10.4,0-14.25-7.08-14.25-14.74M227.43,499.72c-2.78,0-4.05,2-4.05,3.71,0,4.49,4.39,9.42,4.39,9.42,0,.44-2.39,1.61-4.69,1.61-.34,0-3.22-3.12-4.2-7.86-.39.44-1.61,2.69-1.61,7.33,0,5.37,3.37,9.91,8.1,9.91,7.47,0,8.89-6.64,8.89-12.64,0-8.59-2.98-11.47-6.84-11.47"/>
        <path class="cls-2" d="M256.38,515.3c-.24.15-3.17.78-4.64,1.03.05,5.42.2,10.25.49,11.42-.83.83-3.71,1.17-4.93,1.17-1.12,0-1.76-.29-1.76-.29,0-7.18.29-28.17.29-28.17-.93-1.17-1.85-4.3-1.85-5.08,0-.1,0-.15.05-.2.2-.24,4.93-.54,9.52-.54,6.25,0,15.77,1.17,15.77,8.84,0,4.25-3.12,7.57-7.62,9.76,0,.69,5.23,12.3,7.96,15.03.05.49-2.78,1.66-5.37,1.66-.54,0-1.22-.1-1.22-.1-1.66-1.66-6.4-13.28-6.69-14.55M262.87,503.73c0-2.73-3.42-3.95-7.42-3.95-1.95,0-3.47.29-3.47.29-.2,1.42-.29,5.91-.29,10.84,8.49-.78,11.18-4.73,11.18-7.18"/>
        <path class="cls-2" d="M277.46,529.06c-4.1,0-5.37-.39-5.37-.39-.34-.34-.44-3.12-.44-5.81,0-2.39.1-4.74.2-5.23.15-.49,2.59-1.71,4.74-1.71,0,0,0,5.76,1.22,6.98.44.44,1.51.49,1.85.49,4.15,0,7.76-2.68,7.76-5.91,0-5.95-14.69-5.08-14.69-13.77,0-4.05,4.83-9.47,16.65-9.47.54,0,2.05.15,2.15.24,0,0,.05.15.05.29,0,.93-.39,3.9-1.22,4.79-.05,0-.59-.1-1.36-.1-3.22,0-9.33.78-9.33,4.2,0,4.69,14.4,3.61,14.4,13.57,0,6.44-6.88,11.81-16.6,11.81"/>
        <path class="cls-2" d="M311.73,508.12c2.34,0,4,.05,4,.15,0,1.9-1.51,4.78-1.71,4.74-.78,0-7.18.24-7.91.73-.05.05-.05.63-.05,1.51,0,2.39.1,6.74.24,6.88.69.68,6.98.78,8.4.78,2.78,0,5.08-.34,5.13-.34.05,0,.1,0,.1.05,0,1.61-1.32,4.15-2.44,5.22-.15.15-3.47.49-9.67.49-3.86,0-7.52-.19-7.66-.39-.2-.15-.29-4.39-.29-6.88,0-2.25.05-4.78.1-7.28-1.12-.97-2.49-3.66-2.49-5.27,0-.05,1.03-.1,2.59-.15,0-2.05.05-3.91.05-5.27s-.05-2.2-.1-2.29c-.78-.78-2.25-4.49-2.25-5.23.39-.39,12.94-.54,17.14-.54,2.29,0,4.1.05,4.1.19,0,2.3-1.81,4.93-2.1,4.88-.15-.05-.73-.1-1.46-.1-2.83,0-8.64.34-9.03.73-.24.25-.29,3.27-.29,5.37,0,1.17.05,2.05.05,2.05,1.95-.05,3.91-.05,5.57-.05"/>
        <path class="cls-2" d="M93.92,528.23l4.97,1.36c-.45,2.36-1.05,4.72-1.81,7.07-.75,2.36-1.69,4.55-2.82,6.59-1.13,2.03-2.55,3.77-4.25,5.23l-4.67-2.94c2.36-2,4.23-4.56,5.61-7.68,1.38-3.11,2.37-6.32,2.97-9.64M95.13,483.6h52.99v4.97h-47.42v33.88h-5.57v-38.84ZM95.13,520.11h53.29v4.97h-53.29v-4.97ZM98.21,496.02h47.27v4.67h-47.27v-4.67ZM98.21,507.99h47.27v4.67h-47.27v-4.67ZM104.76,530.87l4.74-.75c.7,2.36,1.31,4.93,1.81,7.72.5,2.78.78,5.21.83,7.26l-5.12.83c0-1.35-.11-2.9-.34-4.63-.23-1.73-.5-3.5-.83-5.31-.33-1.81-.69-3.51-1.09-5.12M117.71,530.42l4.44-1.05c1.05,2.11,2.03,4.42,2.94,6.93.9,2.51,1.5,4.62,1.81,6.32l-4.74,1.36c-.3-1.76-.87-3.92-1.69-6.48-.83-2.56-1.74-4.92-2.75-7.07M118.24,486.23h5.65v35.91h-5.65v-35.91ZM129.9,529.29l4.06-1.65c1.36,1.5,2.67,3.22,3.95,5.16,1.28,1.93,2.19,3.6,2.75,5.01l-4.37,1.96c-.55-1.45-1.44-3.17-2.67-5.16-1.23-1.98-2.47-3.75-3.73-5.31M147.22,520.11h5.64c-.05,1.2-.1,2.03-.15,2.48-.3,5.27-.65,9.56-1.05,12.87-.4,3.31-.85,5.86-1.35,7.64-.5,1.78-1.1,3.05-1.81,3.8-.65.75-1.37,1.28-2.15,1.58-.78.3-1.72.48-2.82.53-1.01.15-2.37.21-4.1.19-1.73-.03-3.55-.11-5.46-.26-.05-.75-.21-1.62-.49-2.6-.28-.98-.64-1.84-1.09-2.6,1.86.2,3.59.33,5.19.38,1.61.05,2.74.05,3.39,0,.7,0,1.25-.05,1.66-.15.4-.1.75-.3,1.05-.6.5-.55.95-1.62,1.35-3.2.4-1.58.78-3.93,1.13-7.04.35-3.11.7-7.18,1.05-12.2v-.83Z"/>
        <path class="cls-2" d="M98.67,78.54c0,.66-.1,1.33-.24,1.99.36-.56.76-1.11,1.23-1.58,2.53-2.53,5.69-2.16,5.69-2.16,0,0,.37,3.16-3.12,5.64-.56-.95-2.62-.39-3.52-.9-.92-.52-1.5-2.58-2.57-2.57-1.03,0-1.59,2.04-2.54,2.6-.95.55-3,.04-4.43.93-2.53-2.53-2.17-5.69-2.17-5.69,0,0,3.16-.37,5.69,2.16.47.47.87,1.01,1.23,1.58-.14-.65-.25-1.32-.25-1.99,0-3.58,2.49-5.55,2.49-5.55,0,0,2.49,1.97,2.49,5.55M207.43,229.85c-.71-.16-1.43-.26-2.15-.33.71,3.29-3.22,4.56-4.23,6.47-1,1.91.19,5.88-1.51,6.95-1.75,1.11-4.85-1.69-6.93-1.6-2.01.09-4.86,3.16-6.77,2.16-1.24-.53-1.47.18-1.63.9-1.57,6.83,2.32,11.68,2.32,11.68,0,0,5.62-2.67,7.18-9.5.28-1.21.4-2.47.43-3.72.44,1.17.97,2.32,1.63,3.37,3.72,5.94,9.9,6.62,9.9,6.62,0,0,2.08-5.86-1.64-11.8-.66-1.05-1.46-2.03-2.33-2.94,1.14.52,2.33.95,3.54,1.23,6.83,1.57,11.68-2.32,11.68-2.32,0,0-2.68-5.62-9.5-7.18M275.73,176.2c-.47,0-.93.06-1.39.14-.29.79-.92,1.66-.91,2.33,0,.7.65,1.59.94,2.38,4.95.14,6.92-2.36,6.92-2.36,0,0-1.97-2.49-5.55-2.49M262.15,175.87c.59-1.54,2.64-1.03,3.6-1.58.95-.56,1.51-2.6,2.54-2.6,1.06,0,1.64,2.05,2.57,2.57.89.51,2.96-.05,3.52.9,3.49-2.48,3.12-5.64,3.12-5.64,0,0-3.16-.37-5.69,2.16-.47.47-.87,1.01-1.23,1.58.14-.65.24-1.32.24-1.98,0-3.58-2.49-5.56-2.49-5.56,0,0-2.49,1.97-2.49,5.56,0,.66.1,1.33.24,1.98-.36-.56-.76-1.11-1.23-1.58-2.53-2.53-5.69-2.16-5.69-2.16,0,0-.37,3.16,2.17,5.69.25.25.55.44.84.65M451.71,282.66s-20.15,21.46-47.38,7.1c-24.1-12.71-23.81-44.14-28.01-62.52-6.06-26.52-15.68-42.71-33.13-52.98-5.69-3.35-10.05-4.95-13.66-5.63,4.49,3.71,8.24,7.88,11.15,12.29,27.11,41.09,12.43,65.53,33.25,105.07,6.28,11.92,11.87,18.51,16.14,29.84.64,3.31-.33,7.53-3.47,15.47-4.07,10.31-9.67,73.05-9.14,90.05-2.35,4.06-7.79,6.23-12.83,6.33,3.33,1.74,6.34,2.06,8.89,1.52-.13,1.21-.14,2.44-.06,3.34.57,6.38-14.23,8.09-15.18,1.57-5.66-38.81,25.44-97.54,4.36-110.76-11.17-3.06-24.86-9.16-37.29-15.92-1.53-.87-3.06-1.75-4.57-2.63-4.83-2.83-9.61-5.69-14.32-8.64-4.68-2.99-9.23-6.15-13.64-9.49-4.37-3.38-8.61-6.92-12.64-10.68-3.95-3.84-7.73-7.86-11.13-12.2-1.7-2.03-2.92-4.33-4.11-6.79-1.16-2.45-2.14-5-3-7.6-1.66-5.21-2.88-10.59-3.38-16.04-.53-5.45-.32-10.98,1.3-16.44-3.13,4.82-4.28,10.79-4.41,16.56-.06,5.82.88,11.6,2.51,17.15.8,2.7,1.73,5.37,2.86,7.99-32,24.53-92.29,27.83-99.59,28.14.07-2.24.04-4.48-.13-6.71-.43-5.23-1.4-10.43-3.17-15.34-1.76-4.9-4.38-9.56-7.95-13.24,2.48,4.47,4.13,9.2,5.09,14.06,1,4.84,1.46,9.76,1.31,14.66-.13,4.9-.72,9.74-1.49,14.57-.17,1.03-.36,2.04-.55,3.06-2.68,8.14-5.86,16.88-9.41,26.21-1.72,4.53-5.9,17.28-5.95,31,.45,23.06,3.06,56.16,5.44,67.15-.1,1.21-.75,2.37-1.47,3.69-1.9,2.67-5.26,5.14-7.81,7.67,2.4-.31,4.43-.88,6.15-1.66.05,1.21.22,2.42.43,3.29,1.5,6.23-13.09,10.14-14.79,3.78-8.24-30.8-.03-61.65-3.47-91.18-1.04-5.45-2.15-10.85-3.3-16.16-.18-.59-.31-1.22-.4-1.87-4.2-19.26-8.89-37.24-12.84-51.42-5.02-2.84-9.48-6.15-13.43-9.8-17.93,8.81-39.4,14.69-56.88,16.74-20.57,3.08,27.75,27.42,47.03,36.72,1.79.86,2.21,2.95,3.22,5.95.21,2.29,0,4.61-.73,6.86-.71,2.26-1.97,4.38-3.51,6.4,2.1-1.41,5.02-3.01,6.35-5.32.71-1.23,1.22-2.58,1.57-3.98.73.52,1.47.98,2.06,1.29,5.7,2.93-.74,16.32-6.78,13.68-64.53-28.25-77.55-58.26-80.38-68.34-.92-11.49,35.68-37.53,57.17-51.79,1.22,2.94,2.61,5.78,4.17,8.5,1.89,3.24,3.96,6.35,6.25,9.29,2.29,2.94,4.76,5.73,7.52,8.23-3.45-6.57-6.72-13.03-9.47-19.66-1.33-3.17-2.53-6.37-3.43-9.68-8.81-35.8.56-59.67,3.82-108.78,1.32-19.9.53-31.53-2.18-37.36.26-1.76.43-3.53.44-5.3.05-4.46-.57-8.82-1.58-13.06-.29,4.35-.58,8.64-1.37,12.76-.71,3.74-1.88,7.31-3.39,10.71-3.89,5.96-8.79,11.15-12.43,13.98-6.47,5.02-16.38,12.8-18.37,23.72-1.11,6.11-.18,15.42-5.95,17.66-5.77,2.25-17.13-8.47-17.13-14.94,0-12.27.32-22.71.79-31.43.26-2.12.32-4.26.42-6.39.04-.68.08-1.38.11-2.07.27-3.7.56-7.01.64-10,.42-5.47,1.03-10.97,2.11-15.91,1-4.55,2.49-9.01,4.61-13.33-3.21,3.58-7.94,8.94-9.97,15.1-1.19,2.98-2.16,6.3-2.95,9.74C2.71,65.79.4,61.66.05,55.52c-.76-13.36,6.93-20.26,16.38-23.75l-7.24-14.08c2.72.3,6.53,1.61,10.63,3.35,1.57,6.35,2.84,13.14,5.09,14.08.56-5.09-.53-13.18-3.38-18.62-1.72-5.05-3.61-7.04-3.3-7.42.43-.52,7.45.29,14.37,3.7,5.16-6.57,14.33-12.07,29.55-3.76,0,0,18.83-22.6,36.53,3.77,0,0,28.24-12.78,29.05,18.65,0,0,32.79-9.89,22.92,31.62,0,0,27.83-4.05,19.21,29.37,0,0,28.94-2.88,21.13,34.27-4.47,21.28,32.52,12.43,32.52,12.43,0,0-21.8,27.71-49.17,20.15-27.39-10.9-30.29-34.36-43.68-70.82-6.32-16.68-14.77-35.52-28-47.43-15.04-13.89-38.84-16.88-54.41-12.07,15.97.98,34.19-.48,50.66,15.36,12.3,11.6,20.88,31.27,25.86,47.43,9.26,29.38,12.61,78.97,64.38,79.53,31.74,1.37,68.2-15.6,82.31-17.54,14.29-1.96,27.21-.31,38.21,3.68,5.39-4.72,13.38-7.79,24.27-2.34,0,0,19.17-17.13,38.02,7.79,0,0,21.28-7.65,26.65,21.4,0,0,21.42,2.21,15.96,29.66,0,0,18.8,10.55,8.1,28.96,0,0,15.72,5.01,8.05,27.53,0,0-1.14,4.16,1.34,7.62,2.48,3.46,8.13,6.32,16.76,5.23.94-.15,1.9-.33,2.9-.6M173.68,99.93c-.28.7.07,1.5.82,1.8,1.51.6,2.87,1.4,3.91,2.31,1.15,1.03,1.98,2.13,2.55,3.38,1.13,2.34,1.48,5.29,3.34,9.94,1.15-1.61,1.82-3.55,2.01-5.76.18-2.1-.22-4.3-1.13-6.19-.92-1.98-2.44-3.68-4.26-4.79-1.7-1.03-3.55-1.58-7.24-.69M154.24,69.24c-.28.7.07,1.5.82,1.8,1.51.6,2.87,1.4,3.91,2.31,1.13,1.02,1.99,2.15,2.55,3.38,1.13,2.34,1.48,5.29,3.34,9.94,1.15-1.62,1.82-3.55,2.01-5.76.18-2.1-.22-4.3-1.13-6.19-.92-1.98-2.44-3.68-4.26-4.79-1.7-1.03-3.55-1.58-7.24-.69M133.92,37.05c-.26.71.11,1.5.88,1.77,1.53.55,2.91,1.31,3.98,2.19,1.18,1,2.05,2.07,2.65,3.29,1.21,2.3,1.65,5.24,3.65,9.83,1.1-1.65,1.71-3.61,1.82-5.82.12-2.1-.35-4.29-1.32-6.15-.99-1.94-2.55-3.6-4.41-4.65-1.73-.98-3.6-1.46-7.26-.46M105.79,16.36c0,.75.6,1.38,1.42,1.39,1.43.02,2.83.23,4.04.61,1.35.45,2.48,1.01,3.44,1.73,1.09.81,2.03,1.73,2.79,2.75.79,1.04,1.53,2.27,4.59,3.33.22-1.78-.12-3.69-.99-5.49-.77-1.67-2.03-3.18-3.65-4.37-1.57-1.14-3.46-1.89-5.33-2.1-.82-.09-1.63-.1-2.4-.01-1.16.12-2.23.45-3.2.97-.44.23-.72.69-.73,1.19M91.97,22.49c9.78,5.93,18.79,11.39,24.91,17.83,20.65,21.7,19.04,51.26,43.61,90.24,9,14.36,22.3,22.43,41.73,18.77-12.28-.6-22.84-7.24-34.76-24.76-24.99-36.54-21.83-67.85-43.96-87.2-7.21-6.31-16.38-12.11-31.53-14.88M72.45,10.24c1.41-.66,2.9-1.11,6.14-1.42.85,0,1.67.08,2.45.25,1.47.31,2.85.81,4.08,1.5,1.28.69,2.57,1.61,5.88,1.4-.62-1.83-1.84-3.51-3.5-4.87-1.51-1.27-3.43-2.18-5.53-2.61-.82-.16-1.65-.25-2.49-.25-1.27,0-2.5.19-3.66.56-2.15.69-3.86,1.83-5.08,3.38-.32.41-.39.96,1.71,2.06M37.39,16.11c-.18.47-.09.99,2.22,1.5,2.26-1.92,4.76-3.11,7.44-3.55.83-.13,1.67-.2,2.52-.2,1.88,0,3.85.33,7.09.77.53-.45.6-1.24.15-1.77-1.18-1.41-2.8-2.43-4.81-3.05-1.13-.36-2.34-.54-3.59-.54-.7,0-1.41.06-2.12.17-1.97.34-3.8,1.09-5.29,2.19-1.72,1.26-2.93,2.77-3.6,4.47M17.07,116.37c-6.04-.89-2.38,10.83-.64,11.05.9.12.49-1.86.79-4.7.27-2.63,1.35-6.13-.15-6.35M18.51,68.83c-2.76,3.18-2.98,6.79-3.35,10.35-.42,3.56-.73,7.15-.94,10.74-.2,3.59-.32,7.2-.25,10.81.07,3.61.28,7.23.87,10.8,1.21-7.12,2.47-14.09,3.76-21.09l1.86-10.5c.63-3.5,1.5-6.96-1.95-11.11M23.53,62.81c-2.3-10.13,4.11-8.39,9.9-15.14-11.22,1.93-15.81,7.76-10.12,15.51.17-.04.27-.2.23-.38M37.38,52.1s-9.35-1.17-11.88,4.52c-.76,1.71-1.69,6.38-.69,6.34,1.2-.05,4.24-1.78,6.26-3.56,3.54-3.13,6.31-7.3,6.31-7.3M44.35,98.97c1.5-1.18-.24-5.36-3.89-9.34-3.6-3.93-7.09-6.77-7.7-6.26-.33.3-.05,1.33.63,3.01.69,1.65,1.74,3.86,3.13,6.15,1.39,2.29,2.91,4.21,4.34,5.38,1.41,1.16,2.79,1.64,3.49,1.06M54.19,88.41c.95-1.45-2.11-4.79-6.78-7.46-4.64-2.65-8.85-4.13-9.39-3.31-.51.83,2.42,4.05,6.66,7.38,2.13,1.63,4.24,2.87,5.97,3.48,1.73.62,3.1.62,3.53-.09M60.2,76.58c.55-1.49-3.13-4.08-8.23-5.78-5.08-1.7-9.53-2.23-9.91-1.19-.38,1.04,3.22,3.58,8.14,5.75,4.9,2.16,9.44,2.71,9.99,1.22M63.81,64.56c.32-1.48-3.69-3.51-8.96-4.55-5.27-1.04-9.74-.93-9.99.24-.27,1.15,3.7,3.17,8.9,4.53,5.19,1.36,9.71,1.26,10.05-.22M65.87,52.59c.17-1.46-4.02-3.08-9.37-3.61-5.33-.53-9.78.03-9.92,1.25-.15,1.22,4.01,2.83,9.32,3.6,5.31.78,9.79.22,9.97-1.25M66.82,40.67c.05-1.46-4.27-2.73-9.64-2.83-5.36-.09-9.74.83-9.78,2.07-.06,1.24,4.24,2.5,9.59,2.82,5.36.32,9.76-.61,9.83-2.07M20.07,280.95c-.28-1.12-1-2.45-2.08-3.68-2.17-2.47-4.98-3.43-6.22-2.06-1.21,1.44-.45,4.28,1.68,6.35,2.13,2.07,4.87,2.93,6.1,1.93.63-.51.81-1.4.53-2.53M30.69,275.75c1.43-.83.74-4.1-1.54-7.3-2.27-3.2-5.23-4.83-6.59-3.64-1.38,1.17-.63,4.54,1.58,7.36,2.23,2.85,5.1,4.39,6.55,3.58M31.3,307.95c2.82,3.37,5.82,6.58,9.06,9.59,3.23,3.03,6.78,5.75,10.46,8.22,3.69,2.46,7.5,4.7,11.38,6.78,3.85,2.12,7.67,4.31,13.34,2.53-1.47-1.96-3.25-3.27-5.1-4.42-1.86-1.13-3.88-1.92-5.81-2.88-3.88-1.89-7.75-3.76-11.53-5.79-3.78-2.01-7.46-4.19-11.05-6.58-3.6-2.38-7.12-4.96-10.75-7.44M41.01,260.57c-2.39-3.88-5.49-6.13-6.91-5.03-1.43,1.09-.69,4.85,1.65,8.39,2.32,3.52,5.41,5.76,6.9,5.02,1.49-.75.76-4.5-1.63-8.37M53.3,253.38c-2.5-4.54-5.74-7.41-7.2-6.37-1.47,1.03-.67,5.26,1.77,9.45,2.45,4.19,5.67,7.04,7.19,6.35,1.52-.69.74-4.9-1.76-9.43M65.9,246.74c-2.59-5.2-5.92-8.64-7.44-7.69-1.52.95-.67,5.68,1.88,10.53,2.55,4.85,5.87,8.27,7.43,7.66,1.55-.61.71-5.32-1.87-10.51M372.54,359.94c-3,8.87-5.05,18-6.84,27.15-.87,4.58-1.66,9.18-2.3,13.8-.68,4.61-1.52,9.27,2.16,14.24,2.57-4.42,2.74-8.99,3.16-13.6l1.36-13.81c.87-9.23,1.77-18.45,2.47-27.78M298.23,193.42c0,5.69,3.47,12.01,6.31,15.2-.55-2.8-.95-5.97-.95-8.96,0-8,7.69-8,7.69,0,0,2.99-.4,6.16-.96,8.96,2.85-3.19,6.32-9.51,6.32-15.2,0-8-18.41-8-18.41,0M320.48,228.9c-2.59-1.5-5.14-3.43-7.29-5.31,1.33,4.06,5.07,10.22,10,13.07,6.93,4,16.13-11.94,9.2-15.94-4.93-2.84-12.13-3-16.32-2.13,2.7.92,5.65,2.16,8.24,3.65,6.93,4,3.08,10.67-3.84,6.66M303.59,234.21c0-2.99.4-6.17.95-8.96-2.85,3.19-6.31,9.51-6.31,15.2,0,8,18.41,8,18.41,0,0-5.69-3.46-12.01-6.32-15.2.55,2.8.96,5.97.96,8.96,0,8-7.69,8-7.69,0M314.36,216.93c0-3.82-3.66-7.29-7.48-7.29s-6.36,3.46-6.36,7.29,3.1,6.92,6.92,6.92,6.92-3.1,6.92-6.92M222.51,197.95c1.81-3.29,4.31-5.63,6.37-7.04,2.07-1.39,3.59-1.83,3.64-1.75.07.09-1.08,1.2-2.43,3.1-1.34,1.86-2.94,4.67-3.92,7.44,2.33-.04,4.69-2.47,8.31-5.47,1.2-.87,2.31-1.92,3.59-2.78.62-.49,1.31-.81,1.97-1.29.7-.32,1.4-.71,2.11-1.05.75-.29,1.45-.55,3.85-1.33,1.04-.32,1.73-.59,1.77-.74.04-.15-.39-.65-1.26-1.38-.44-.35-.99-.8-1.67-1.2-.69-.36-1.5-.73-2.42-1.1-.92-.37-1.98-.52-3.13-.73-1.14-.15-2.38-.1-3.65,0-2.5.36-5.15,1.31-7.2,2.88-3.15,2.36-4.84,5.03-5.66,7.21-.82,2.21-.79,3.99-.25,5.23M209,182.31c-.07,2.1-.05,4.62.44,6.71.76,3.19,1.52,4.98,2.81,5.88.44-1.58.53-3.61.6-5,.06-1.43.06-2.39.14-2.41.06-.01.58.82,1.13,2.23.27.71.55,1.57.74,2.54.18,1.01.35,1.97.18,3.36,1.7-.83,2.83-3.74,1.85-8.02-.62-2.73-2.41-5.2-4.06-6.79-1.64-1.62-3.16-2.44-3.33-2.35-.21.1-.42,1.75-.51,3.85M157.23,189.05c.13,3.31.52,5.23,1.62,6.37.74-1.49,1.22-3.47,1.56-4.83.33-1.4.52-2.35.61-2.36.06,0,.41.92.68,2.43.12.75.23,1.65.23,2.66-.02,1.04-.03,2.02-.47,3.36,1.82-.49,3.5-3.15,3.37-7.57-.09-2.82-1.37-5.61-2.68-7.51-1.3-1.92-2.64-3.03-2.82-2.98-.23.06-.74,1.64-1.23,3.7-.47,2.07-.93,4.56-.85,6.74M127.24,136.23c-1.24.89.35,6.16,3.58,11.86,3.23,5.68,7.36,9.53,9.17,8.49,1.82-1.03.17-6.43-3.64-11.95-3.82-5.54-7.87-9.27-9.12-8.39M112.62,132.58c1.03-.29,1.47-1.8,1.33-3.9-.14-2.11-.9-4.85-2.12-7.73-1.22-2.88-2.62-5.34-3.82-7.05-1.2-1.71-2.19-2.58-2.8-2.34-.61.25-.77,1.7-.65,3.74.14,2.06.56,4.8,1.38,7.72.82,2.92,1.91,5.47,3.14,7.21,1.23,1.76,2.53,2.65,3.55,2.36M109.31,156.64c-.64-2.94-1.57-5.53-2.45-7.34-.89-1.8-1.75-2.82-2.47-2.69-.72.14-1.19,1.49-1.47,3.48-.27,1.98-.35,4.66-.05,7.58.3,2.92.95,5.53,1.86,7.4.9,1.86,2.03,2.92,3.1,2.8,2.19-.23,2.82-5.38,1.49-11.24M111.04,229.46c0,3.86,2.35,8.14,4.28,10.3-.38-1.9-.65-4.04-.65-6.08,0-5.42,5.21-5.42,5.21,0,0,2.03-.27,4.18-.65,6.08,1.93-2.16,4.28-6.44,4.28-10.3,0-5.42-12.48-5.42-12.48,0M117.34,154.35c2.01,5.86,5.32,10.13,7.31,9.41,2.01-.7,1.4-6.07-1.26-11.84-2.68-5.81-5.91-9.9-7.26-9.28-.7.31-.86,1.81-.65,3.9.22,2.11.83,4.88,1.86,7.81M112.59,245.39c0,2.59,2.1,4.69,4.69,4.69s4.69-2.1,4.69-4.69-2.48-4.94-5.07-4.94-4.31,2.35-4.31,4.94M121.18,249.91c.91,2.75,3.44,6.92,6.78,8.85,4.69,2.71,10.93-8.09,6.24-10.8-3.34-1.93-8.22-2.04-11.06-1.45,1.83.62,3.83,1.46,5.58,2.48,4.69,2.71,2.09,7.23-2.61,4.51-1.76-1.01-3.48-2.32-4.94-3.6M127.96,232.02c-3.34,1.93-5.88,6.1-6.78,8.85,1.46-1.27,3.18-2.58,4.94-3.6,4.7-2.71,7.3,1.8,2.61,4.51-1.76,1.02-3.75,1.85-5.58,2.48,2.83.59,7.72.48,11.06-1.44,4.7-2.71-1.54-13.51-6.24-10.81M115.07,105.73c-1.08.84.65,6.01,3.89,11.6,1.65,2.79,3.46,5.14,5.13,6.64,1.66,1.5,3.19,2.18,4.06,1.65,1.8-1.05,0-6.34-3.96-11.72-3.96-5.38-8.02-9.01-9.11-8.17M96.18,67.61c-2.23,0-3.63,4.1-5.56,4.91-2.01.83-5.89-1.05-7.41.47-1.51,1.51.37,5.39-.47,7.4-.8,1.94-4.91,3.34-4.91,5.57s4.1,3.63,4.91,5.56c.83,2.01-1.05,5.89.47,7.4,1.51,1.52,5.4-.37,7.41.47,1.94.8,3.33,4.9,5.56,4.9s3.63-4.1,5.56-4.9c2.01-.83,5.89,1.05,7.4-.47,1.52-1.51-.37-5.4.47-7.4.8-1.94,4.9-3.34,4.9-5.56s-4.1-3.63-4.9-5.57c-.83-2.01,1.05-5.89-.47-7.4-1.52-1.51-5.4.37-7.41-.47-1.94-.8-3.34-4.91-5.56-4.91M94.89,134.96c1.12.07,2.1-1.14,2.67-3.03.58-1.9.74-4.56.5-7.47-.24-2.9-.78-5.49-1.32-7.37-.56-1.87-1.14-2.94-1.74-2.91-.6.02-1.19,1.21-1.77,3.07-.56,1.83-1.13,4.34-1.4,7.15-.27,2.81-.14,5.4.42,7.35.55,1.9,1.53,3.14,2.65,3.21M94.13,150.6c-.37-1.88-.89-3.04-1.61-3.06-.71-.05-1.5.97-2.32,2.71-.8,1.73-1.62,4.14-2.15,6.85-.53,2.71-.62,5.24-.26,7.16.35,1.91,1.17,3.26,2.24,3.42,1.08.15,2.18-.86,2.99-2.63.82-1.77,1.34-4.3,1.5-7.15.15-2.83-.05-5.41-.41-7.3M85.04,112.77c-.59-.22-1.6.59-2.81,1.88-1.21,1.32-2.64,3.25-3.9,5.53-1.26,2.29-2.08,4.55-2.3,6.41-.24,1.89.2,3.29,1.18,3.78.98.51,2.3-.07,3.55-1.5,1.25-1.4,2.4-3.59,3.27-6.16.87-2.56,1.35-4.99,1.54-6.77.17-1.77.06-2.95-.53-3.18M90.1,60.68c-1.09-.75-2.14-1.7-3.02-2.61.44,1.84,1.87,4.7,3.94,6.13,2.92,2.02,7.56-4.69,4.65-6.7-2.07-1.43-5.25-1.77-7.13-1.53,1.16.51,2.42,1.16,3.51,1.91,2.91,2.02.97,4.82-1.94,2.8M87.59,53.32c-.72-1.53-2.59-1.89-4.12-1.17-1.53.72-2.19,2.55-1.46,4.08.72,1.53,2.55,2.19,4.08,1.46,1.53-.72,2.23-2.84,1.51-4.37M79.85,64.97c-.29,3.53,7.84,4.2,8.13.67.21-2.51-1.09-5.43-2.23-6.94.14,1.26.2,2.67.09,3.99-.29,3.53-3.69,3.25-3.4-.28.11-1.32.4-2.71.75-3.92-1.37,1.3-3.13,3.97-3.34,6.48M92.45,46.78c-2.28,1.08-4.16,3.66-4.89,5.4,1.02-.75,2.21-1.51,3.41-2.08,3.2-1.51,4.66,1.57,1.46,3.08-1.2.57-2.55,1.01-3.77,1.32,1.82.54,5,.73,7.28-.35,3.21-1.51-.28-8.89-3.48-7.37M81.49,43.95c-.21,2.51,1.17,5.68,2.31,7.19-.14-1.26-.2-2.67-.09-3.99.29-3.53,3.69-3.25,3.4.28-.11,1.32-.4,2.71-.75,3.92,1.37-1.3,3.13-3.97,3.34-6.48.29-3.53-7.91-4.46-8.2-.92M73.89,52.34c2.07,1.44,5.25,1.77,7.13,1.54-1.16-.51-2.42-1.16-3.51-1.91-2.91-2.02-.97-4.82,1.94-2.8,1.09.76,2.14,1.7,3.02,2.61-.44-1.84-1.87-4.7-3.94-6.13-2.91-2.02-7.56,4.68-4.64,6.7M77.1,63.06c2.28-1.08,4.16-3.66,4.89-5.4-1.02.75-2.21,1.51-3.41,2.08-3.2,1.51-4.66-1.57-1.46-3.08,1.2-.57,2.55-1.01,3.77-1.31-1.82-.54-5-.73-7.28.35-3.2,1.51.28,8.89,3.48,7.37M71.9,158.46c-.19,1.83.2,3.25,1.15,3.76.95.5,2.29-.12,3.55-1.46,1.27-1.35,2.48-3.46,3.43-5.95.94-2.5,1.48-4.88,1.66-6.67.18-1.81-.03-2.96-.7-3.24-.67-.29-1.74.4-2.99,1.71-1.25,1.31-2.67,3.23-3.9,5.51-1.23,2.28-2,4.52-2.19,6.36M97.2,208.65c2.13-.88,6.23,1.11,7.83-.49,1.6-1.6-.39-5.71.5-7.84.85-2.05,5.19-3.53,5.19-5.89s-4.34-3.84-5.19-5.89c-.88-2.12,1.11-6.23-.5-7.83-1.6-1.6-5.71.39-7.83-.49-2.05-.85-3.53-5.19-5.89-5.19s-3.84,4.34-5.89,5.19c-2.13.88-6.23-1.11-7.83.49-1.6,1.6.39,5.71-.49,7.83-.85,2.05-5.19,3.53-5.19,5.89s4.34,3.84,5.19,5.89c.88,2.13-1.11,6.23.5,7.84,1.6,1.6,5.71-.39,7.83.49,2.05.85,3.53,5.19,5.89,5.19s3.84-4.34,5.89-5.19M99.96,242.77c3.34,1.93,8.62,2.1,11.46,1.5-1.83-.62-3.83-1.46-5.58-2.48-4.69-2.71-2.09-7.23,2.61-4.51,1.76,1.01,3.48,2.33,4.94,3.6-.91-2.75-3.44-6.93-6.78-8.85-4.7-2.71-11.33,8.03-6.64,10.74M113.38,249.91c-1.45,1.27-3.18,2.58-4.94,3.6-4.69,2.71-7.3-1.8-2.61-4.51,1.76-1.02,3.75-1.85,5.58-2.48-2.84-.59-7.72-.48-11.06,1.45-4.69,2.71,1.54,13.51,6.24,10.8,3.34-1.93,5.87-6.1,6.78-8.85M123.52,261.33c0-3.86-2.35-8.14-4.28-10.3.37,1.9.65,4.05.65,6.08,0,5.42-5.21,5.42-5.21,0,0-2.03.27-4.18.65-6.08-1.93,2.16-4.28,6.44-4.28,10.3,0,5.42,12.48,5.42,12.48,0M127.81,284.41c5.44-.62,9.84-2.47,9.81-4.12-.04-1.66-4.74-2.43-10.5-1.72-5.76.71-10.15,2.55-9.8,4.12.35,1.57,5.04,2.34,10.49,1.72M129.23,297.74c4.83-.47,8.75-2.2,8.74-3.85,0-1.65-4.19-2.55-9.34-2-5.15.55-9.06,2.27-8.73,3.85.33,1.57,4.5,2.47,9.33,2M132.47,416.67c-.04-2.24-.4-4.46-.59-6.7-.4-4.48-.78-8.98-1.13-13.49l-2.08-27.18c-1.57,9.03-2.13,18.18-2.34,27.31-.07,4.57-.04,9.15.2,13.73.19,4.56.3,9.28,5.02,13.21.78-2.4.91-4.63.91-6.89M137.51,334.75c.12-1.66-2.48-2.89-5.78-2.75-3.3.14-5.77,1.54-5.57,3.13.21,1.59,2.79,2.82,5.77,2.75,2.97-.07,5.48-1.47,5.59-3.13M137.98,321.12c.07-1.66-3.08-2.78-6.99-2.51-3.92.27-6.86,1.78-6.61,3.36.26,1.59,3.38,2.71,6.98,2.51,3.6-.2,6.56-1.71,6.63-3.36M138.11,307.5c.02-1.65-3.65-2.66-8.18-2.26-4.54.4-7.96,2.02-7.66,3.6.29,1.58,3.94,2.6,8.16,2.26,4.22-.34,7.66-1.95,7.69-3.6M150.69,212.59c-.76-1.74-3.63-3.01-7.98-2.23-2.78.49-5.35,2.17-7.04,3.75-1.71,1.57-2.62,3.05-2.54,3.23.09.21,1.73.49,3.84.68,2.12.16,4.65.26,6.79-.14,3.26-.61,5.1-1.28,6.07-2.53-1.58-.52-3.61-.71-5.01-.84-1.43-.12-2.4-.17-2.42-.26,0-.06.85-.54,2.31-1.02.73-.23,1.6-.47,2.59-.62,1.03-.13,2.01-.26,3.4-.02M145.02,194.67c.09-.06,1.16,1.15,3,2.61,1.8,1.44,4.56,3.19,7.3,4.32.06-2.34-2.29-4.82-5.14-8.62-.83-1.26-1.83-2.43-2.63-3.76-.46-.65-.75-1.36-1.2-2.06-.28-.73-.64-1.46-.94-2.18-.22-.73-.46-1.45-1.14-3.95-.27-1.06-.5-1.77-.65-1.81-.15-.04-.67.36-1.44,1.21-.37.43-.85.96-1.28,1.62-.39.67-.81,1.48-1.22,2.38-.41.91-.61,1.97-.88,3.11-.21,1.14-.21,2.38-.18,3.67.25,2.54,1.07,5.25,2.56,7.38,2.22,3.28,4.83,5.11,6.98,6.05,2.18.93,3.98.99,5.25.52-3.23-1.98-5.46-4.61-6.78-6.75-1.31-2.15-1.67-3.7-1.6-3.75M227.17,239.38c.94-4.08-6.21-8.56-6.92-12.76-.68-4.05,4.67-10.62,2.35-14.32-2.32-3.7-10.57-1.75-13.91-4.13-3.47-2.46-4.38-10.85-8.47-11.79-4.08-.93-8.56,6.22-12.76,6.92-4.05.68-10.63-4.67-14.32-2.35-3.69,2.32-1.75,10.57-4.13,13.92-2.46,3.47-10.85,4.38-11.79,8.47-.94,4.08,6.22,8.56,6.92,12.76.68,4.05-4.67,10.62-2.35,14.32,2.32,3.7,10.57,1.75,13.91,4.13,3.47,2.47,4.38,10.86,8.47,11.79,4.08.94,8.56-6.21,12.76-6.92,4.05-.68,10.63,4.67,14.32,2.35,3.7-2.32,1.75-10.57,4.13-13.92,2.46-3.47,10.86-4.38,11.79-8.47M249.1,202.55c-.07-.22-1.67-.67-3.73-1.06-2.07-.37-4.56-.72-6.71-.54-3.27.29-5.15.77-6.22,1.93,1.5.66,3.49,1.05,4.86,1.32,1.4.26,2.35.41,2.36.49,0,.06-.89.46-2.38.8-.74.16-1.63.31-2.62.36-1.03.03-2,.06-3.35-.31.58,1.8,3.29,3.34,7.66,2.99,2.79-.22,5.5-1.63,7.31-3.03,1.84-1.39,2.88-2.77,2.82-2.96M281.29,191.67c1.52-1.52-.37-5.4.47-7.41.8-1.94,4.9-3.34,4.9-5.56s-4.1-3.63-4.9-5.56c-.83-2.01,1.05-5.89-.47-7.41-1.51-1.51-5.4.37-7.41-.47-1.94-.8-3.34-4.91-5.56-4.91s-3.63,4.1-5.57,4.91c-2.01.83-5.89-1.05-7.4.47-1.51,1.52.37,5.39-.46,7.41-.8,1.94-4.91,3.33-4.91,5.56s4.1,3.63,4.91,5.56c.83,2.01-1.05,5.89.46,7.4,1.51,1.52,5.4-.37,7.4.47,1.94.8,3.34,4.9,5.57,4.9s3.63-4.1,5.56-4.9c2.01-.83,5.89,1.05,7.41-.47M281.88,213.05c4.93,2.84,12.73,3.09,16.91,2.22-2.7-.92-5.65-2.16-8.24-3.66-6.93-4-3.08-10.66,3.85-6.66,2.59,1.5,5.14,3.43,7.29,5.31-1.34-4.06-5.08-10.22-10.01-13.07-6.93-4-16.72,11.85-9.8,15.85M291.68,236.66c4.93-2.85,8.67-9.01,10.01-13.07-2.15,1.88-4.7,3.81-7.29,5.31-6.93,4-10.77-2.66-3.85-6.66,2.59-1.49,5.54-2.73,8.24-3.65-4.18-.87-11.39-.71-16.32,2.13-6.93,4,2.28,19.94,9.2,15.94M360.15,313.77c-6.7-2.91-13.19-6.17-19.5-9.73-6.32-3.54-12.5-7.3-18.47-11.34-5.97-4.03-11.75-8.34-17.21-12.94-2.75-2.29-5.27-4.8-7.94-7.14-1.37-1.14-2.62-2.37-4.08-3.46-1.4-1.13-2.76-2.3-5.83-2.19,1.42,3.58,3.61,6.72,6.13,9.48,2.52,2.77,5.44,5.11,8.32,7.45,5.79,4.65,11.93,8.77,18.26,12.54,6.34,3.74,12.89,7.12,19.62,10.05,3.35,1.5,6.78,2.8,10.23,4.04,1.72.64,3.47,1.17,5.2,1.76,1.74.55,3.53.99,5.28,1.48M336.43,250.35c-2.42.33-3.41,5.15-5.56,6.4-2.07,1.2-6.76-.37-8.31,1.65-1.54,2.02,1.21,6.13.6,8.45-.63,2.4-5.03,4.62-4.71,7.05.32,2.42,5.15,3.4,6.4,5.55,1.2,2.07-.37,6.76,1.65,8.31,2.02,1.55,6.13-1.21,8.45-.6,2.4.64,4.62,5.03,7.04,4.71,2.42-.32,3.4-5.15,5.55-6.4,2.07-1.2,6.76.37,8.31-1.65,1.54-2.02-1.21-6.13-.6-8.45.64-2.4,5.03-4.62,4.71-7.04-.33-2.42-5.15-3.41-6.4-5.55-1.2-2.07.37-6.77-1.65-8.31-2.02-1.54-6.13,1.21-8.45.6-2.4-.64-4.62-5.04-7.04-4.71M323.2,197.2c-4.93,2.85-8.67,9.01-10,13.07,2.15-1.88,4.69-3.81,7.29-5.31,6.93-4,10.77,2.66,3.84,6.66-2.59,1.5-5.54,2.74-8.24,3.66,4.18.87,11.39.71,16.32-2.13,6.93-4-2.28-19.95-9.2-15.94M333.82,159.9c-1.88-2.98-5.37-4.94-10.4-5.3-3.61,0-6.9,1.35-7.5,5.6,1.14-.64,2.51-1.14,4.03-1.48,1.02-.21,2.05-.32,4.21-.27,1.44.12,2.83.43,4.13.91,1.53.6,2.79,1.27,5.17,2.13.53-.34.69-1.04.36-1.58M411.59,221.02c1.5.93,2.82,2.08,3.79,3.32,1.04,1.36,1.76,2.78,2.13,4.24.79,2.83.57,6.21,1.44,11.33,1.49-1.53,2.55-3.48,3.13-5.79.57-2.21.55-4.55-.06-6.77-.6-2.25-1.85-4.34-3.52-5.9-1.79-1.65-3.88-2.68-6.9-.43M396.52,190.18c-.1.35-.06.72.99,1.71,1.74.5,3.37,1.28,4.71,2.24,1.43,1.07,2.56,2.28,3.36,3.63,1.64,2.64,2.41,6.05,4.67,10.78,1.01-1.94,1.46-4.17,1.35-6.61-.09-2.31-.8-4.6-2.04-6.62-1.23-2.02-3.04-3.73-5.12-4.8-1.8-.92-3.65-1.39-7.91-.33M374.35,168.08c.07.7.64,1.23,2.99,1.16,1.11,0,2.16.12,3.1.36,1.47.39,2.74,1.01,3.8,1.86,2.07,1.57,3.72,4.05,7.48,7.35.29-1.96.02-3.99-.82-6.04-.79-1.95-2.14-3.73-3.81-5.01-1.72-1.35-3.84-2.18-6.87-2.38-1.91,0-3.71.48-5.22,1.4-.45.28-.7.77-.65,1.3M345.45,157.6c1.52-.57,3.06-.89,4.53-.92,1.5,0,2.86.26,4.08.79,2.41.97,4.66,2.92,8.06,6.51.69-.08,1.18-.71,1.09-1.4-.24-1.96-1.04-3.85-2.39-5.61-1.27-1.67-3.05-3.03-5-3.82-1.36-.57-2.87-.87-4.36-.87-.69,0-1.36.06-2.02.19-2.22.43-4.13,1.45-5.54,2.94-.36.38-.47.93,1.54,2.2M428.1,289.66s-10.05-2.61-18.31-26c-.82-2.31-5.23-19.95-6.15-24.09-1.62-7.3-3.33-13.73-5.2-19.67-2.14-6.81-4.83-13.22-7.97-19.04-3.29-6.14-7.47-11.76-12.42-16.71-4.97-4.89-11.1-10.52-17.48-13.14-13.68-5.63-18.64-5.14-18.64-5.14,0,0,10.74,5.93,16.45,9.61,5.85,3.8,11.85,7.85,15.8,12.34,7.53,8.35,13.21,19.53,17.39,34.18,1.7,5.84,3.02,11.96,4.59,19.22,1.59,7.32,5.04,28.76,13.36,39.03,6.69,8.26,18.59,9.41,18.59,9.41M429.23,261.45c.57-2.2.55-4.55-.06-6.77-.59-2.24-1.84-4.34-3.52-5.9-1.79-1.65-3.88-2.68-6.9-.43,1.5.93,2.81,2.08,3.79,3.32,1.04,1.35,1.76,2.78,2.13,4.24.79,2.83.57,6.21,1.44,11.33,1.49-1.53,2.55-3.48,3.13-5.79M262.3,181.05c.3-.79.92-1.66.91-2.33,0-.7-.64-1.59-.94-2.38-4.95-.14-6.92,2.36-6.92,2.36,0,0,1.97,2.49,5.56,2.49.46,0,.93-.06,1.39-.14M183.76,236.71c-.73-1.16-2.74-1.97-4.05-2.99-.82.35-1.64.74-2.39,1.21-5.94,3.72-6.62,9.9-6.62,9.9,0,0,5.86,2.08,11.8-1.64.76-.48,1.48-1.05,2.17-1.65-.34-1.62-.21-3.73-.91-4.84M84.94,196.92c.31-.84.97-1.76.97-2.46,0-.74-.68-1.68-.99-2.52-5.24-.14-7.33,2.49-7.33,2.49,0,0,2.09,2.64,5.88,2.64.49,0,.98-.07,1.47-.15M84.79,191.44c.63-1.63,2.8-1.09,3.81-1.68,1.01-.59,1.6-2.75,2.69-2.75,1.12,0,1.74,2.17,2.71,2.73.95.54,3.14-.05,3.72.95,3.69-2.62,3.3-5.97,3.3-5.97,0,0-3.34-.39-6.02,2.29-.5.5-.92,1.07-1.3,1.67.15-.69.26-1.4.26-2.1,0-3.79-2.64-5.88-2.64-5.88,0,0-2.64,2.09-2.64,5.88,0,.7.11,1.41.26,2.1-.39-.59-.81-1.17-1.3-1.67-2.68-2.68-6.02-2.29-6.02-2.29,0,0-.39,3.34,2.29,6.02.26.26.58.46.89.69M94.04,199.1c-1.01.59-1.6,2.74-2.69,2.75-1.12,0-1.74-2.17-2.71-2.72-.95-.54-3.14.05-3.72-.96-3.69,2.63-3.3,5.97-3.3,5.97,0,0,3.34.39,6.02-2.29.5-.5.92-1.07,1.3-1.67-.15.69-.26,1.4-.26,2.1,0,3.79,2.64,5.88,2.64,5.88,0,0,2.64-2.09,2.64-5.88,0-.7-.11-1.41-.26-2.1.39.59.81,1.17,1.3,1.67,2.68,2.68,6.02,2.29,6.02,2.29,0,0,.39-3.34-2.29-6.02-1.51.94-3.68.39-4.69.98M200.64,226.01c.73,1.16,2.74,1.97,4.05,2.99.82-.35,1.63-.74,2.39-1.21,5.94-3.72,6.62-9.9,6.62-9.9,0,0-5.86-2.08-11.8,1.64-.77.48-1.48,1.05-2.17,1.65.34,1.62.21,3.73.91,4.84M179.12,233.2c-.71-3.29,3.22-4.56,4.22-6.48,1-1.91-.19-5.87,1.51-6.95,1.76-1.11,4.85,1.69,6.93,1.6,2.01-.09,4.86-3.16,6.77-2.16,1.23.52,1.47-.18,1.63-.91,1.57-6.83-2.32-11.68-2.32-11.68,0,0-5.61,2.67-7.18,9.5-.28,1.21-.41,2.47-.43,3.72-.44-1.18-.97-2.32-1.63-3.37-3.72-5.94-9.9-6.62-9.9-6.62,0,0-2.08,5.86,1.64,11.8.66,1.05,1.46,2.03,2.33,2.94-1.14-.52-2.33-.96-3.54-1.23-6.83-1.57-11.68,2.32-11.68,2.32,0,0,2.67,5.62,9.5,7.18.71.16,1.43.26,2.16.33M97.68,191.94c-.31.84-.97,1.76-.97,2.46,0,.74.68,1.68,1,2.52,5.24.14,7.32-2.49,7.32-2.49,0,0-2.09-2.64-5.88-2.64-.49,0-.98.07-1.47.15M274.49,181.52c-.59,1.54-2.64,1.03-3.59,1.58-.95.56-1.51,2.59-2.54,2.6-1.06,0-1.64-2.05-2.56-2.57-.89-.51-2.96.05-3.52-.9-3.49,2.48-3.12,5.64-3.12,5.64,0,0,3.16.37,5.69-2.17.47-.47.87-1.01,1.23-1.58-.14.65-.24,1.32-.24,1.98,0,3.58,2.49,5.55,2.49,5.55,0,0,2.49-1.97,2.49-5.55,0-.66-.1-1.33-.24-1.98.36.56.76,1.1,1.23,1.58,2.53,2.53,5.69,2.17,5.69,2.17,0,0,.37-3.16-2.17-5.69-.25-.25-.55-.44-.84-.65M343.86,274.62c-.48.64-.52,1.89-.8,2.81,4.4,3.55,7.92,2.66,7.92,2.66,0,0-.07-3.63-3.32-6.11-2.17-.33-3.35.03-3.8.64M338.49,276.89c-1.25-.16-3.17,1.31-4.11.6-.97-.73-.07-3-.55-4.11-.46-1.08-2.72-2.01-2.57-3.26-4.88-.16-6.74,2.96-6.74,2.96,0,0,2.61,2.52,6.67,1.98.75-.1,1.49-.32,2.21-.58-.58.5-1.14,1.03-1.6,1.63-2.48,3.25-1.58,6.77-1.58,6.77,0,0,3.63-.07,6.11-3.32.46-.6.83-1.28,1.15-1.97-.06.76-.07,1.53.03,2.28.55,4.05,3.67,5.91,3.67,5.91,0,0,2.52-2.61,1.98-6.67-.05-.42-.15-.83-.27-1.23-1.64,1.05-3.15-.84-4.4-.99M339.93,265.32c1.25.16,3.17-1.31,4.11-.6.97.73.07,3,.55,4.12.46,1.08,2.72,2.01,2.57,3.26,4.88.16,6.74-2.96,6.74-2.96,0,0-2.61-2.52-6.67-1.98-.75.1-1.49.32-2.21.58.58-.5,1.14-1.03,1.59-1.63,2.48-3.25,1.59-6.77,1.59-6.77,0,0-3.63.06-6.11,3.32-.46.6-.83,1.28-1.15,1.97.06-.76.07-1.53-.03-2.28-.54-4.05-3.66-5.91-3.66-5.91,0,0-2.52,2.61-1.98,6.67.05.41.15.83.27,1.24,1.64-1.05,3.15.84,4.4.99M302.79,301.78c7.55,5.14,15.45,9.7,23.31,15.6.31,6.31-3.58,15.07-20.31,29.46-6.79,5.84-29.14,34.33-38.47,50.45-.64.29-1.2.63-1.82.9-4.25,1.74-9.03-.93-14.57-2.27,2.27,3.2,4.86,5.13,7.58,6.02-.76.87-1.44,1.83-1.88,2.57-3.25,5.52-16.24-1.66-13.27-7.54,19.66-38.94,44.99-56.71,60.58-70.88.64-.58,1.27-1.19,1.89-1.82-20.29-8.45-52.99-33.51-64.92-47.7,8.17-3.42,15.92-7.55,22.65-12.56.53.89,1.09,1.76,1.72,2.59,3.33,4.71,7.06,9.1,10.99,13.31,4.02,4.11,8.2,8.08,12.69,11.67,4.48,3.59,9.09,6.99,13.82,10.19M294.67,341.35c-3.96,2.35-7.52,5.37-10.88,8.52-3.37,3.15-6.52,6.52-9.59,9.92-3.05,3.42-6.02,6.9-8.92,10.4-1.44,1.76-3,3.41-4.28,5.29-1.27,1.88-2.38,3.87-1.65,7.53,4.73-2,7.38-5.84,10.12-9.48,2.78-3.63,5.46-7.31,8.16-10.96,2.69-3.66,5.4-7.29,8.17-10.87,2.8-3.57,5.66-7.07,8.86-10.36M102.2,83.6c-.29.79-.92,1.66-.91,2.33,0,.7.64,1.59.94,2.38,4.95.14,6.92-2.36,6.92-2.36,0,0-1.97-2.49-5.56-2.49-.47,0-.93.06-1.39.14M90.15,88.31c.29-.79.92-1.66.92-2.33,0-.7-.64-1.59-.94-2.38-4.95-.13-6.92,2.36-6.92,2.36,0,0,1.97,2.49,5.56,2.49.46,0,.93-.06,1.39-.14M334.56,267.59c.48-.63.52-1.89.8-2.81-4.4-3.55-7.92-2.66-7.92-2.66,0,0,.07,3.63,3.32,6.11,2.18.32,3.35-.04,3.81-.64M102.34,88.78c-.59,1.54-2.64,1.03-3.59,1.58-.95.55-1.51,2.59-2.54,2.6-1.06,0-1.64-2.05-2.56-2.58-.89-.51-2.96.05-3.52-.9-3.49,2.48-3.12,5.64-3.12,5.64,0,0,3.16.37,5.69-2.17.47-.47.87-1.01,1.23-1.57-.14.65-.25,1.32-.25,1.98,0,3.58,2.49,5.55,2.49,5.55,0,0,2.49-1.97,2.49-5.55,0-.66-.1-1.33-.24-1.98.36.56.76,1.11,1.23,1.57,2.53,2.53,5.69,2.17,5.69,2.17,0,0,.37-3.16-2.17-5.69-.25-.25-.55-.44-.84-.65"/>
      </g>
    </g>
  </g>
</svg>