<?xml version="1.0" encoding="UTF-8"?>
<svg id="Layer_1" xmlns="http://www.w3.org/2000/svg" version="1.1" viewBox="0 0 265.09 307.2">
  <!-- Generator: Adobe Illustrator 30.5.1, SVG Export Plug-In . SVG Version: 2.1.4 Build 3)  -->
  <defs>
    <style>
      .st0 {
        fill: #2d2e2d;
      }
    </style>
  </defs>
  <path class="st0" d="M22.81,224.41c.36-.07.75-.13,1.08-.28t.05-.01h0c.02-.07.03-.15.05-.22,0-.18.03-.39.1-.61.06-.57.05-1.2.07-1.74.13-2.78.08-5.59-.01-8.38-3.62.28-7.41.33-10.62-.61-.31,2.26-.59,4.53-.75,6.81-.07.95-.62,3.48-.01,4.31.56.76,3.02.75,3.86.83,2.02.18,4.18.29,6.18-.11Z"/>
  <path class="st0" d="M30.45,221.18c1.26-.09,2.54-.2,3.79-.34.44-.07,1.02-.25,1.47-.25.16-1.53.51-4.9.52-5.29.03-.93.07-1.86.08-2.79-2.68-.08-5.39.03-8.15.31-.48.05-.98.09-1.48.14.12,2.8.2,5.67-.07,8.45,1.28-.07,2.55-.14,3.84-.22Z"/>
  <path class="st0" d="M36.02,238.94c8.55-5.87,19.35-9.37,28.83-13.51,2.67-1.17,8.04-3.7,6.92-4-1.65-.44-5.52-5-7.03-6.26-7.81-6.52-16.22-12.49-25.19-17.3-5.17-2.77-12.51-6.27-19.27-6.53h-.11c-2.73-.09-5.38.34-7.72,1.61-5.57,2.98-5.62,11.55-.64,15.27,2.77,2.07,6.69,2.14,9.99,2.05,1.32-.03,2.65-.13,3.96-.23.15-.05.28-.06.39-.03,3.82-.31,7.6-.8,11.38-.83.4-.02.82-.02,1.22,0,2.36.03,4.7.26,7.07.85,5.69,1.41,11.35,4.1,15.92,7.84.92-.07.87,1.72.08,2.59h0s-.03.05-.03.05c-.26.36-.6.63-.92.7,0,0-.01.01-.02.01-6.92,5.07-15.77,6.84-23.71,9.65-6.34,2.25-13.81,4.61-18.53,9.7-2.59,2.79-4.94,9.25-.13,11.55,2.36,1.13,4.73.09,6.47-1.54.48-.45.92-.94,1.29-1.45,0-.01.01-.01.02-.02,0-.01.01-.01.01-.01.88-1.24,1.77-2.51,2.75-3.69,2.05-2.46,4.38-4.65,7.02-6.46Z"/>
  <path class="st0" d="M42.66,88.07c-9.92,7.13-23.34,7.36-34.07,2.01,1.6,1.91,3.37,3.68,5.26,5.19,9.01,7.24,18.95,5.81,28.75.83,13.09-6.65,24.71-18.49,31.42-31.61.07-.14.14-.25.21-.36.37-.92.76-1.84,1.17-2.75.4-.91.82-1.79,1.26-2.67-9.93.98-16.36,5.31-21.57,13.87-3.51,5.76-6.85,11.48-12.43,15.48Z"/>
  <path class="st0" d="M82.13,49.77c-4.62-1.41-9.85-1.78-14.55-1.16-11.76,1.54-16.74,9.99-23.62,18.41-4.94,6.04-10.87,12-18.55,14.31-7.91,2.39-15.81.05-22.9-3.6,1.01,2.46,2.36,4.76,4.14,6.76.15.16.21.38.21.63,13.09,8.49,31.64,7.39,41.45-5.7,4.01-5.33,6.54-11.69,11.34-16.43,5.13-5.06,11.73-6.91,18.74-7.48,1.15-1.99,2.39-3.9,3.73-5.73Z"/>
  <path class="st0" d="M4.68,74.95c9.01,4.44,18.78,6.17,27.82.11,8.48-5.69,12.58-14.91,19.66-21.86,8.31-8.16,21.32-9.87,32.17-6.27h.01c2.3-2.82,4.83-5.42,7.54-7.83-7.18-4.19-15.92-6.54-24.13-6.44-7.95.1-16.48,2.57-21.62,9-3.16,3.95-4.83,8.85-6.95,13.39-4.11,8.75-10.93,16.28-20.98,17.82-6.39.98-13.26-1.32-18.19-5.62,1.07,2.73,2.59,5.29,4.54,7.46.06.07.1.15.14.23Z"/>
  <path class="st0" d="M111.44,13.85c2.94-3.03,4.63-7.09,5.42-11.41-2.51-1.79-5.94-2.41-9.43-2.44h-.48c-3.49.03-7.02.66-9.7,1.28-.47.1-.93.23-1.38.37-1.8,3.82-2.84,7.9-2.38,11.72,1.16,9.7,13.43,5.17,17.95.48Z"/>
  <path class="st0" d="M78.62,30.45c5.83,1.2,11.4,3.41,16.04,6.32,6.17-4.93,13.16-8.89,20.63-11.89,3.72-4.44,6.58-11.43,5.08-17.23-.03-.14-.07-.28-.11-.4-.16-.55-.36-1.06-.6-1.53-.26-.55-.59-1.06-.94-1.51-1.46,7.33-5.18,13.91-12.39,16.88-7.34,3.03-14.16.88-14.89-7.56-.32-3.62.28-7.34,1.51-10.92-11.26,4.46-17.84,15.16-14.33,27.75.01.02.01.06.01.08Z"/>
  <path class="st0" d="M152.65,246.98c-1-1.47-1.8-3.09-2.44-4.82-.37,2-.85,3.98-1.38,5.9-4.26,15.55-13.96,28.17-26.58,37.28-.4.31-.82.6-1.23.87v.02c-5.06,3.51-10.55,6.47-16.33,8.85-12.45,5.13-25.4,6.76-38.73,7.25-9.07.34-17.96.63-25.6,4.86,11.93-2.87,23.49-2.14,36-.99,17.84,1.63,34.74-1.07,50.75-9.47,4.21-2.21,8.35-4.96,12.23-8.17,1.32-1.09,2.62-2.24,3.86-3.44,9.64-9.22,16.84-21.32,17.65-34.48-3.1.38-6.21-.75-8.2-3.68Z"/>
  <path class="st0" d="M174.69,185.47c-.25-3.77-.8-8.04-4.15-10.39-7.11-4.98-13.08.49-15.69,6.76-2.9,6.92-4.07,14.66-4.76,22.09-.75,7.96-.8,16.07.08,24.02.16,1.46.35,3.07.59,4.72.08.49.16,1.01.25,1.52.74,4.19,2,8.5,4.63,11.37,1.88,2.03,4.18,2.46,6.77,1.76h.01c.17-.09.33-.15.48-.15.14-.03.26-.08.4-.13,5.45-1.95,5.62-7.67,5.88-12.6.3-5.59-.15-13.24,5.13-16.82,3.13-2.11,7.25-2.08,10.86-1.93,3.51.15,9.08,1.79,12.48.46,5.29-2.07,1.56-16.48.44-21.36-3.52-2.09-9.72-1.53-13.57-1.8-2.25-.16-7.27.29-8.98-1.69-1.15-1.33-.76-4.21-.86-5.81Z"/>
  <path class="st0" d="M177.6,187.87c1.67,2.57,7.72,1.92,10.63,2.11,3.56.25,8.56-.11,11.72,1.87.18.01.33.14.41.4.03.05.06.09.06.15.02.08.03.17.06.25,1.51,6.64,4.72,18.64.08,24.45-4.84,6.08-15.97-.02-22.9,1.71-2.09,12.56-6.63,50.16,16.07,44.67,13.27-3.19,16.79-15.7,17.49-27.74.33-5.79.68-11.54,1.37-17.25-.08-.29-.02-.69.13-1.08.37-2.9.84-5.78,1.44-8.65,1.43-6.93,3.42-13.73,5.79-20.4,2.68-7.53,6.24-14.69,7.49-22.64,1.91-12.12-.76-27.42-13.01-33.19-2.15-1.02-4.76-1.7-7.54-2-.33.17-.6.11-.79-.07-9.61-.82-20.85,2.85-22.24,12.6-1.47,10.34,2.46,20.49.15,31.01-1.05,4.76-2.98,10.1-6.4,13.79ZM210.43,140.66c7.76,2.18,10.73,10.74,9.15,17.94-2.49,11.31-10.78,20.33-9.16,32.42.18,1.32-2.21,3.4-2.48,1.38-.94-6.99.76-12.82,3.7-19.11,3.34-7.17,8.79-16.41,4.09-24.13-5.69-9.35-18.69-6.18-20.75,4.26-.72,3.69-.39,7.79.65,11.4.36,1.24-1.91,3.73-2.39,2.06-3.15-10.84,2.03-30.48,17.19-26.21Z"/>
  <path class="st0" d="M225.48,215.55c2.56-.08,5.15-.15,7.71-.37,3.36-.3,4.23-1.82,4.88-5.22.57-2.94.9-7.21-.94-9.83-1.59-2.23-4.73-2.85-7.25-3.29-3.2-.56-6.49-.76-9.75-.72-2.05,6.39-3.79,12.87-4.87,19.64,3.4-.05,6.81-.1,10.22-.22Z"/>
  <path class="st0" d="M95.47,39c-.53.43-1.05.85-1.55,1.28-7.83,6.63-14.05,14.99-17.84,24.95-2.94,7.73-5.38,15.15-10.12,22.12-9.8,14.4-24.1,25.89-39.85,33.2-8.18,3.79-15.33,7.8-18.81,16.64-2.37,6.01-2.82,13.02-.87,19.21,1.41,4.5,4.19,8.94,9.42,8.78,4.27-.14,8.18-2.48,12.05-4.7.09-.07.18-.11.28-.15,2.13-1.23,4.26-2.38,6.45-3.09,15.69-5.14,30.22,17.78,45.47,6.34,7-5.24,9.64-15.73,1.67-21.04-2.7-1.79-5.98-2.97-9.17-3.46-1.53-.24-.13-3.37,1.2-3.16,3.22.51,6.56,1.67,9.33,3.39,11.69,7.33,4.67,24.41-6.15,28.95-6.93,2.92-14.79.71-21.32-2.25-4.91-2.24-9.4-6.17-14.94-6.61-3.95-.3-7.6,1.1-11.04,2.83h-.01c2.91,9.32.83,19.54-5.95,26.4,9.52.99,18.75,6.55,26.44,11.53,6.18,4,12.09,8.41,17.69,13.19,1.83,1.56,8.23,5.83,8.04,8.32-.31,3.94-11.65,6.9-14.21,8.01-12.24,5.36-25.04,9.53-33.44,20.26,7.89,6.65-7.08,32.28,13.05,25.91,1.1-1.28,2.34-2.46,3.73-3.59,10.55-8.53,24.87-11.51,36.88-17.35,6.7-3.25,13.18-6.84,18.02-12.62,4.9-5.85,8.41-12.84,11.39-19.82,5.92-13.92,9.79-28.63,13.51-43.26,5.22-20.59,11.01-40.98,20.8-59.96,6.96-13.51,15.88-26.59,27.88-36.14,12.63-10.06,28.21-15.85,43.98-18.7,9.62-1.74,19.92-2.8,29.83-2.07-7.07-13.91-17.94-25.49-32.35-32.74-14.8-7.45-31.54-9.95-47.97-10.04-17.49-.09-35.45,1.79-51.84,8.22-7.15,2.8-13.82,6.56-19.67,11.23ZM92.13,193.09c-1.78-.13-3.57-.25-5.36-.38-.45-.03-.67-.49-.65-.88.13-7.41.25-14.81.38-22.23.01-.15.05-.32.12-.48.2-.79.78-1.64,1.42-1.76,1.53-.25,3.07-.51,4.6-.76.57-.1.94.28.95.86.13,7.78.25,15.57.38,23.36.01.9-.78,2.34-1.84,2.26ZM113.97,193.09c-4.98.13-9.95.25-14.94.38-.45.01-.64-.53-.64-.88v-25.28c0-.33.16-.74.41-1.09.28-.55.68-1.02,1.11-1.15,1.4-.38,2.82-.76,4.22-1.15.56-.15.95.33.95.86-.11,5.54-.22,11.07-.32,16.61-.01.61-.21,1.65-.16,2.45.17.03.55.1,1.26-.09,2.52-.69,5.88-.22,8.53-.31.47-.02.61.54.64.88.26,2.17.52,4.34.77,6.52.11.97-.85,2.24-1.84,2.26ZM151.36,80.32c-4.39,2.99-9.15,5.54-14.13,7.65,3.91,12.74-.26,27.52-14.68,30.58-15.17,3.23-25.39-9.91-27.9-23.5-.02-.08-.02-.17-.01-.28-4.23-.37-8.4-1.03-12.46-2.05-1.54-.39-.08-3.47,1.18-3.16,22.67,5.69,48.77,1.01,67.95-12.1,1.64-1.13,1.1,2.13.05,2.85ZM143.98,58.28c3.48-1.22,7.23-3.01,9.88-5.68,1.59-1.59,1.7,1.38.68,2.4-7.29,7.31-19.5,9.24-29.28,8.45-14.16-1.15-28.03,1.34-38.81,11.38-1.64,1.53-1.74-1.41-.68-2.4,7.85-7.31,19.04-12.04,29.68-12.71,9.79-.62,18.89,1.94,28.52-1.44Z"/>
  <path class="st0" d="M108.46,94.88c.79,4.09,4.29,6.88,8.63,7.02,6.21.22,9.24-4.05,7.93-9.78-5.41,1.43-10.98,2.36-16.56,2.76Z"/>
  <path class="st0" d="M238.13,65.45c-16.36.25-33.14,3.39-48.04,10.33-47.78,22.26-55.39,79.88-68.85,124.87-3.82,12.74-8.27,25.74-15.46,37.03-6.42,10.1-14.97,15.96-25.72,20.97-10.31,4.79-21.81,7.69-31.41,13.89-9.53,6.15-12.85,15.77-13.61,26.11,2.71-8.42,7.63-15.78,15.26-21.35,10.5-7.68,23.32-11.11,35.25-15.87,11.32-4.53,20.92-10.35,27.06-21.19,6.76-11.95,10.84-25.48,14.93-38.51,9.4-29.96,16.69-62.25,33.48-89.18,14.82-23.8,41.14-34.44,68.22-36.81,7.64-.67,15.79-1.02,23.54.08,1.05.14,2.08.31,3.11.52.46.09.91.18,1.36.29.21.05.4.1.6.16,1.63-4.67.93-9.41-4.69-10.46-.24-.05-.48-.09-.74-.13-1.15-.2-2.31-.34-3.48-.45-3.59-.36-7.24-.37-10.81-.31Z"/>
  <path class="st0" d="M209.55,127.74c6.32,1.02,12.08,4.23,15.88,10.11,6.92,10.72,5.94,25.01,2.08,36.62-2.09,6.26-4.32,12.37-6.34,18.48,4.92-.11,10.38.12,14.82,2.08,6.04,2.68,5.56,10.93,4.02,16.32-1.61,5.69-4.26,6.76-9.72,7.09-5.15.31-10.32.41-15.48.47h0c-.1.78-.18,1.55-.26,2.33-.87,8.7-.29,17.81-2.63,26.29-2.85,10.29-13.14,21.01-24.74,19.47-18.93-2.52-14.31-33.79-12.03-47.04-1.08.79-1.95,1.97-2.55,3.68-2.69,7.75,1.23,17.63-5.53,23.98-1.14,1.07-2.44,1.88-3.79,2.4-.39,4.14-1.53,8.29-2.88,12.16-3.05,8.78-7.91,16.39-14.03,22.8,6.3-.3,12.6-.66,18.89-1.02,9.98-.59,20.12-.71,29.84-3.24,27.34-7.08,43.72-30.25,52.17-55.84,8.3-25.09,10.61-51.31,11.01-77.6.13-8.04.33-16.3.28-24.57-15.05-3.48-37.44-6.04-49,5.02Z"/>
  <path class="st0" d="M257.49,80.13c-.18-.07-.37-.13-.55-.18-.02-.01-.06-.02-.09-.03-.98-.3-2.01-.53-3.07-.69-2.26-.36-4.64-.45-6.8-.6-12.71-.85-25.68.37-38.02,3.49-13.24,3.36-26.2,9.22-36.12,18.8-10.33,10-16.67,23.79-22.01,36.92-11.11,27.42-17.55,56.41-27.82,84.12-3.48,9.39-7.38,19.35-13.87,27.13-6.16,7.37-14.89,11.71-23.64,15.22-10.45,4.19-21.51,7.29-31.19,13.19-10.76,6.57-16.8,16.34-18.72,28.33,7.41-11.55,17.2-19.2,31.67-20.7,14.43-1.47,28.67-.8,40.58-10.52,20.06-16.38,28.43-45.6,34.22-69.79,4.72-19.7,8.52-39.36,16.18-58.24,4.98-12.24,11.18-24.33,19.89-34.36,9.98-11.47,23-17.71,37.7-21.1,13.04-3.01,27.27-3.56,40.39-.4.68.16,1.36.33,2.02.52.24.07.48.13.72.2.46.11.92.24,1.36.38,1.28-4.08,1.83-9.33-2.1-11.37-.23-.11-.48-.23-.75-.32Z"/>
  <path class="st0" d="M259.15,95.03c-.78-.28-1.57-.52-2.37-.74h0c-4.78-1.36-9.87-1.94-14.77-2.25-18.27-1.18-39.92,2.67-54.6,14.25-20.2,15.95-29.72,44.07-36.1,68.07-4.54,17.09-7.37,34.51-12.86,51.37-6.7,20.52-16.93,45.16-36.95,56.05-9.97,5.42-21.24,5.44-32.25,6.25-5.96.45-11.94,1.36-17.3,4.16-5.91,3.08-10.29,8.02-13.87,13.49,7.91-5.26,17.23-6.06,26.99-6.41,18.57-.68,36.12-3.57,52.3-13.4,16.86-10.25,31.23-29.55,31.12-50.1-.55-3.06-.83-6.15-1.08-9.01-.78-9.33-.41-18.81.93-28.07,1.36-9.34,4.75-27.5,16.23-28.39,3.25-13.47,7.45-26.94,15.1-38.59,9.35-14.24,24.18-23.37,40.62-27.36,12.03-2.91,25.48-3.28,37.54.1.77.22,1.53.45,2.29.69.11.03.23.08.34.11.39.13.78.26,1.17.4,1.16-4.02,1.99-8.86-2.26-10.52-.08-.05-.16-.07-.25-.1Z"/>
  <path class="st0" d="M260.31,108.69c-.74-.25-1.49-.48-2.21-.68-.25-.08-.51-.15-.75-.22-6.04-1.72-12.41-2.45-18.69-2.51-19.63-.18-41.08,7.11-53.72,22.71-9.79,12.1-14.54,27.42-18.1,42.34.88.09,1.83.29,2.8.59,3.48,1.07,5.61,3.73,6.63,7.15.68,2.25.29,5.08.6,7.47,14.77-15.49-7.93-47.27,16.55-56.11,4.33-1.57,8.96-2.29,13.43-1.99,8.45-9.84,22.98-10.86,35.12-10.19,5.25.29,10.49.98,15.65,1.95.28.06.57.1.88.15.68.09,1.41.2,2.1.34.49.1.95.24,1.37.43.08.03.2.07.31.1.08-.13.16-.28.24-.47,1.49-3.38,4.76-7.11.24-9.91-.75-.46-1.6-.83-2.47-1.14h0Z"/>
</svg>