<?xml version="1.0" encoding="UTF-8"?>
<svg id="Layer_1" xmlns="http://www.w3.org/2000/svg" version="1.1" viewBox="0 0 288 273.03">
  <!-- Generator: Adobe Illustrator 30.5.1, SVG Export Plug-In . SVG Version: 2.1.4 Build 3)  -->
  <path d="M252.49,65.01c-5.68-27.43-51.97-40.79-92.63-41.66-13.62-.29-30.03-.91-67.2,5.71-29.61,5.27-58.83,39.17-69.87,88.04-11.04,48.87,21.23,69.85,38.66,76.59,29.18,11.29,93.88,9.49,132.02,7.59,34.85-1.73,51.58-39.6,56.91-57.27,4.83-16.04,7.79-51.58,2.12-79.01ZM243.69,143.68c-8.28,25.33-24.39,49.7-54.89,51.45-31.02,1.77-104.56,4.45-131.87-12.48-26.61-16.5-35.44-38.03-25.86-76.74,7.93-32.06,37.82-67.19,72.48-71.93,28.35-3.88,39.32-4.97,58.76-3.49,46.59,3.54,81.58,21.12,84.55,37.28,4.25,23.09,4.37,52.82-3.18,75.92Z"/>
  <path d="M225.49,70.45c-7.13-21.84-51.02-27.22-77.24-28.21-45.73-1.73-67.45,8.66-82.7,22.22-19.94,17.73-36.38,66.45-18.61,99.06,14.72,26.99,85.75,26.84,114.46,27.13,26.38.27,49.93-10.35,61.91-31.62,11.67-20.71,10.7-62.45,2.16-88.58ZM221.43,147.82c-7.58,17.77-29.74,37.92-62.3,36.74-34.69-1.26-91.39-1.33-105.56-24.25-18.61-30.11,3.08-86.37,24.44-98.24,21.75-12.08,48.1-15.67,74.9-13.63,36.24,2.76,54.71,7.69,63.85,21.56,9.15,13.87,11.57,61.58,4.66,77.8Z"/>
  <path d="M193.12,90.54c-16.14-2.19-58.38-2.5-83.01,1.9-8.83,1.58-19.16,3.97-24.85,10.35-4.83,5.42-5.66,16.55,4.11,20.02,9.78,3.47,26.35,3.27,32.66,6.75,8.46,4.66,6.2,28.92,8.1,35.86,1.89,6.94,21.26,6.12,26.1,2.48,5.52-4.14,7.93-12.58,10.94-27.9,1.34-6.84,5.25-9.75,15.34-12.19,11.39-2.76,28.38-.42,33.48-15.03,5.3-15.18-10.12-20.5-22.87-22.24ZM198.14,119.1c-11.28,1.86-29.2,4.17-34.8,11.89-7.33,10.1-2.69,29.21-14.12,31.94-7.89,1.88-13.3.57-13.91-3.21-1.04-6.38,0-36.22-12.39-37.11-15.97-1.15-35.6-5.76-34.07-11.51,2.24-8.45,12.27-11.2,28.99-13.09,16.72-1.89,30.28-1.65,40.06-1.96,13.88-.45,48.18.64,51.02,7.89,2.84,7.25-.53,13.47-10.78,15.16Z"/>
  <path d="M194.83,104.39c-5.09-3.09-25.58-2.07-41.67-2.3-39.17-.54-55.22,4.88-54.28,9.01,1.8,7.88,32.08,7.64,35.55,8.58,3.47.95,2.77,34.43,10.59,33.58,5.39-.59,7.22-12.4,8.31-17.32,1.21-5.43,3.58-10.22,9.13-15.38,7.25-6.73,12.53-1.79,27.65-5.35,6.2-1.46,10.58-7.26,4.71-10.83ZM162.59,114.28c-4.05,2.61-8.78,6.61-10.98,10.71-2.21,4.1-4.83,22.08-6.47,18.03-3.49-8.62.32-27.6-7.25-28.55-7.57-.95-30.02-2.6-25.52-4.24,6.39-2.33,32.18-2.51,37.22-2.37,12.25.34,44.74-2.27,41.05,1.64-4.08,4.33-22.69,1.34-28.04,4.79Z"/>
  <path d="M283.19,136.89c4.73-21.13,7.24-38.37,1.46-77.78-4.37-29.85-47.6-52.9-74.79-56.37C186.81-.21,123.16-.86,91.13,1.18c-14.49.92-35.65,9.29-46.08,15.87-11.45,7.23-29.93,29.76-36.24,48.99S-2.93,141.78,1.78,163.43c5.19,23.89,27.12,37.27,27.12,37.27,0,0-8.96,7.63-15.76,16.41-4.52,5.84-9.5,13.52-6.14,29.18,3.74,17.38,21.72,26.05,41.13,26.69,22.09.74,32.64-7.44,34.97-9.56,5.44-4.92,8.25,2.95,17.77,5.75,20.8,6.12,54.23,2.75,62.48.76,12.35-2.98,14.43-7.03,16.97-9.05,3.21-2.55,11.68,1.28,15.91,3.58,5.86,3.18,14.75,4.78,30.53,2.72,17.43-2.28,28.5-8.39,35.56-23.43,8.28-17.63-4.8-32.1-9.52-38.74-2.48-3.5,8.72-16.51,12.96-23.24,7.42-11.79,12.69-23.75,17.42-44.88ZM83.58,250.15c-3.05,5.83-17.65,20.62-43.86,14.32-26.21-6.3-26.96-22.13-22.64-34.73,4.31-12.6,13.2-19.3,22.99-20.13,9.79-.83,17.66,6.27,15.3,12.61-4.06,10.88-15.23,9.79-16.89,11.12-1.66,1.33,2.84,5.75,9.97,6.25,7.13.5,15.15-4.05,17.8-7.86,2.65-3.81,4.76-11.78,4.93-12.61.17-.83,4.44-.17,5.27-.17s-1.81,7.93-1.81,10.09-3.37,10.58-9.18,14.39c-5.81,3.81-18.09,8.85-26.54,4.21-8.46-4.64-7.22-13.01-6.55-17.41.78-5.06,7.26-1.43,9.07-7.22.43-1.36-5.94-4.14-10.86-.67-3,2.12-5.77,6.99-6.1,12.79-.33,5.8,3.84,17.1,18.6,20.09,14.76,2.98,30-6.88,35.57-17.11,3.65-6.71,3.35-15.94,4.18-17.43.83-1.49,2.74-.25,4.23,1.9,1.49,2.16-.78,22.38-3.51,27.58ZM179.33,249.77c-2.88,5.88-10.9,12.49-32.36,14.6-25.75,2.53-41.39-1.83-44.77-2.83-6.87-2.03-7.3-7.96-7.3-8.46s.78-13.27,1.94-21.89c.36-2.65.58-8.06,2.07-8.55,1.49-.5,25.84-.73,25.84,1.43,0,.52-.32,16.91,13.66,18.96,16.22,2.38,20.51-4.21,21.01-6.69.5-2.49.81-10.69,1.81-11.02,1-.33,15.56-.14,17.72.52,2.16.66,1.81,21,.38,23.93ZM136.43,224.98c.83-.17,12.55-.42,15.04-.26,2.49.17,2.31,7.45,1.32,10.1-1,2.65-9.69,5.68-16.82,1.04-7.13-4.64-2.54-10.28.46-10.88ZM255.79,229.91c-2.68,17.88-11.69,25.49-25.24,28.77-13.38,3.24-33.33,2.24-38.77-7.34-3.8-6.7-1.12-25.67.31-26.96,1.42-1.29,5.98-.44,6.48,0,.5.44-2.93,11.26,2.42,20.73,5.09,9.01,16.4,9.73,25.84,9.24,9.28-.47,14.91-5.65,21.21-13.58,2.4-3.02,2.57-12.94-.6-14.73-.71-.4-1.62,6.41-4.61,10.12-4.32,5.36-8.09,9.4-18.01,10.27-9.28.81-15.18-.79-18.16-5.06-2.98-4.27-2.47-16.48-1.04-17.26,1.42-.78,3.75-.64,4.79,1.04,1.04,1.68.7,6.5,7.69,9.93,4.92,2.42,9.47,2.59,13.83,1.3,4.92-1.47,7.23-7.64,5.99-7.36-3.11.69-5.39-.32-7.29-.5-6.36-.58-10.96-7.31.17-12.35,6.49-2.94,12.83-2.39,17.98-.26,3.98,1.64,7.95,7.63,7,14ZM205.65,215.15c-39.98,2.66-121.29.41-141.16-8.42-19.87-8.83-54.61-18.38-54.61-64.45S16.33,52.72,44.68,31.07c21.92-16.73,42.69-20.97,55.82-21.77,16.37-.99,93.01,0,106.77,3.09,39.54,8.86,63.49,28.71,66.07,50.63,3.51,29.77,4.8,56.29-2.05,78.58-9.89,32.19-27.27,71-65.66,73.55Z"/>
</svg>