<?xml version="1.0" encoding="UTF-8"?>
<svg xmlns="http://www.w3.org/2000/svg" version="1.1" viewBox="0 0 307.22 384.4">
  <!-- Generator: Adobe Illustrator 30.5.1, SVG Export Plug-In . SVG Version: 2.1.4 Build 3)  -->
  <defs>
    <style>
      .st0 {
        fill: #1f3d3a;
      }
    </style>
  </defs>
  <g id="Layer_1">
    <path class="st0" d="M51.44,384.4c-11.58-31.8-22.36-78,9.48-101.59,10.08-7.09,22.55-8.96,33.85-13.18,7.57-2.75,14.68-6.94,20.29-12.77,5.62-5.75,10.06-12.73,12.42-20.44,4.71-15.61,2.07-32.11,2.35-48.16.02-8.1.56-16.22,1.87-24.24,3.87-24.12,15.33-46.61,31.13-65.06,9.17-10.7,19.74-20.49,30.98-28.98,0,0,4.85-3.64,4.85-3.64,0,0,.06.08.06.08-40.24,30-68.49,70.11-67.95,121.86-.18,24.95,4.31,49.46-15.43,68.86-5.69,5.82-12.86,9.98-20.44,12.85-7.57,2.91-15.51,4.68-22.99,7.71-15.67,5.81-25.91,19.44-29.41,35.53-5.2,23.88,1.67,48.64,8.93,71.17h0Z"/>
    <path class="st0" d="M77.45,377.41c-13.71-26.06-20.11-58.43-8.21-86.36,3.44-7.78,8.33-14.89,10.71-23.1,3.63-12.13,4.07-25.38.42-37.55-6.38-21.25-22.42-36.35-16.72-60.45,1.63-8.52,6.68-15.95,13.03-21.69,9.45-8.59,19.2-16.87,27.3-26.8,5.47-6.52,10.42-13.46,15.01-20.62,8.22-12.98,40.43-65,17.55-73.27-9.56-2.98-21.99.81-30.2,6.05-17.94,12.18-24.71,34.66-28,55.09-7.87,48.27,9.8,106.12,44.52,140.8,17.62,16.39,36.64,22.72,55.28,3.66,12.1-11.92,20.73-27.35,34.8-37.28,10.78-7.84,24.63-8.76,36.54-2.91,7.63,3.69,14.65,9.42,19.98,15.7-8.56-9.24-19.44-17.46-32.29-18.88-13.22-1.63-24.78,5.57-33.49,14.89-16.53,16.6-31.65,49.2-60.01,39.39-16.36-5.87-28.22-19.65-37.87-33.52-23.45-35.47-35.1-79.69-28.33-121.97,3.8-24.3,14.07-53.37,40.22-60.72,7.78-2.11,18.3-3.83,24.35,2.84,11.62,14.82-14.03,56.27-22.72,70.35-4.57,7.19-9.5,14.17-14.96,20.72-8.06,9.96-17.82,18.33-27.23,26.94-6.26,5.72-11.18,12.96-12.77,21.39-6.49,28.79,17.54,44.54,19.16,72.68.62,8.54-.37,17.19-2.87,25.39-2.41,8.24-7.36,15.39-10.82,23.15-8.47,19.59-7.7,42.19-1.77,62.4,2.25,8.18,5.94,16.2,9.4,23.71h0Z"/>
  </g>
  <g id="Layer_2">
    <path class="st0" d="M42.91,354.3c6.03-5.16,13.47-13.72,4.73-20.19-6.75-5.09-15.8-5.39-23.77-4.81,8.04-2.15,17.68-1.32,24.12,4.39,5.81,5.13,5.28,11.53-.06,16.76-1.49,1.51-3.14,2.85-4.96,3.93l-.06-.08h0Z"/>
    <path class="st0" d="M46.58,300.25c-8.37-11.33-13.77-27.03,7.01-16.89,10.79,5.26,17.87,15.99,18.33,27.99-2.23-11.93-7.84-21.24-18.6-27.51-3.5-1.9-8.1-4.36-12.09-2.81-4.63,2.66,4,15.83,5.34,19.22h0Z"/>
    <path class="st0" d="M66.37,348.18c6.31-.93,12.48-2.56,18.15-5.45,9.19-5.37,15.46-14.63,19.31-24.39,0,0,.1.03.1.03-2.28,10.62-9.81,19.51-19.24,24.65-5.36,3.35-12.12,5.68-18.32,5.17h0Z"/>
    <path class="st0" d="M85.16,272.99c2.16,2.24,6.33,7.85,9.72,6.85,1.11-.5,1.9-1.76,2.44-3.01,2.16-5.13,2.04-11.49-.69-16.45-2.77-5.07-8.53-7.46-14.09-7.58-5.65-.3-11.34,1.9-16.19,4.51,8.59-7.06,25.06-8.62,30.77,2.81,2.52,4.89,3.7,17.45-1.9,20.53-4.11,1.22-8.08-4.78-10.13-7.6,0,0,.08-.06.08-.06h0Z"/>
    <path class="st0" d="M118.52,253.34c5.1,2.47,7.34,8.13,7.62,13.5.46,5.47-2.86,10.96-7.62,13.52,0,0-.05-.08-.05-.08,3.88-3.51,6.79-8.16,7.13-13.44.55-5.49-3.72-9.88-7.08-13.5h0Z"/>
    <path class="st0" d="M206.08,201.85c-9.23-10.56-21.52-4.86-20.97,8.72.44,5.48,5.04,9.63,9.68,12.06,18.54,8.98,31.31-.36,36.59-18.83,3.05-10.44,2.79-21.83,1.55-32.45,1.08,5.37,1.69,10.86,1.64,16.37-.11,23.85-12.98,48.24-39.94,35.22-8.3-4.12-13.07-11.38-8.91-20.51,2.47-5.59,8.34-8.33,14.04-5.78,2.3.97,5.25,3.16,6.32,5.2h0Z"/>
    <path class="st0" d="M130.4,198.85c-7.5-1.43-13.13-7.37-16.54-13.92-3.56-6.59-3.52-15.01-.03-21.6,0,0,.09.04.09.04-2.52,7.78-2.39,16.57,1.64,23.79,3.24,5.59,9.35,8.95,14.83,11.69h0Z"/>
    <path class="st0" d="M130.4,217.4c-3.06-.62-12.16-2.79-9.16-7.4,2.16-2.41,5.46-3.24,8.18-4.69,6.67-3.22,12.82-7.59,18.01-12.83,3.55-3.36,6.58-7.63,9.49-11.38-4.52,8.9-11.9,16.4-20.72,21.07-4.34,2.39-9.02,4.35-13,7.17-5.67,4.18,4.58,6.64,7.2,8.05h0Z"/>
    <path class="st0" d="M80.7,226.31c-5.14,1.79-10.81,1.74-16.03.29-8.87-1.71-17.31-6.73-21.83-14.71,0,0,.08-.06.08-.06,5.74,6.69,13.11,12.44,21.82,14.45,5.25.96,10.82.41,15.96.03h0Z"/>
    <path class="st0" d="M71.85,201.77c9.69-6.91,16.35-15.44,2.69-22.76-9.21-4.64-19.52-6.26-29.67-7.61,4.93-.29,10.42.56,15.44,1.56,7.49,1.5,24.94,8.12,22.44,17.98-.78,2.61-2.57,4.7-4.46,6.47-1.94,1.76-4.11,3.22-6.38,4.45,0,0-.05-.08-.05-.08h0Z"/>
    <path class="st0" d="M85.14,140.99c6.97,1.41,14.62,1.41,20.98-2.07,4.38-2.48,6.82-7.09,4.29-11.82-3.16-6.56-10.08-10.32-16.52-12.79,7.07,1.38,14.33,5.55,17.38,12.41,3.92,7.89-5.03,13.73-11.7,15.39-4.68,1.05-10.19.76-14.43-1.11h0Z"/>
    <path class="st0" d="M76.17,136.9c-6.41-2.21-11.85-6.93-15.11-12.86-3.55-5.76-5.55-12.54-4.92-19.34.46-4.39,1.57-9.28,3.91-12.83-1.59,4.17-2.54,8.52-2.84,12.91-1.06,15.81,6.06,24.49,18.97,32.12h0Z"/>
    <path class="st0" d="M76.18,87.3c3.9-.61,7.77-1.2,11.53-2.18,3.91-.85,8.51-3.15,4.49-7.32-5.63-5.39-13.64-7.98-20.31-11.47,7.48,2.2,15.41,5.14,20.73,11.11,6.61,8.13-11.64,10.51-16.44,9.85h0Z"/>
    <path class="st0" d="M85.14,61.17c3.58.3,7.06.65,10.62.49,5.87-.9,11.07-4.04,15.92-7.34,0,0,.07.07.07.07-3.88,4.8-9.97,6.98-15.95,7.59-3.44.68-7.62.83-10.66-.81h0Z"/>
    <path class="st0" d="M98.37,39.82c-3.92-4.89-3.4-11.71-.99-17.18,2.31-5.65,8.41-9.39,14.45-9.34,0,0,0,.1,0,.1-7.03,1.46-13.96,6.26-15.51,13.58-.7,4.38.61,8.86,2.04,12.84h0Z"/>
    <path class="st0" d="M144.82,39.84c-2.87,1.21-5.62,2.68-8.03,4.59-1.2.95-2.32,2-3.28,3.18-.95,1.18-1.79,2.46-2.27,3.88-.23.71-.43,1.43-.47,2.17-.02.37-.05.74.01,1.11.06.37.05.75.15,1.11.32,1.48,1.13,2.83,2.11,4,2.02,2.34,4.82,3.91,7.73,4.89,5.81,1.97,12.4,2.02,17.79-.88,5.44-2.78,9.51-7.86,11.78-13.64l.09.03c-1.67,6.01-5.7,11.55-11.38,14.55-1.42.73-2.92,1.33-4.47,1.7-.78.16-1.56.35-2.36.4l-1.19.13-1.19.02c-3.18.04-6.34-.62-9.26-1.81-1.48-.55-2.85-1.34-4.19-2.15-.63-.47-1.31-.87-1.89-1.41-.29-.26-.61-.5-.89-.77l-.82-.85c-.29-.27-.49-.62-.74-.92-.24-.31-.48-.63-.66-.99-.19-.35-.41-.68-.57-1.05l-.42-1.13c-.13-.38-.16-.79-.24-1.19-.09-.4-.09-.8-.09-1.21,0-.82.15-1.62.39-2.4,1.01-3.13,3.37-5.52,5.87-7.41,2.56-1.86,5.46-3.2,8.46-4.07l.03.09Z"/>
    <path class="st0" d="M142.23,131.57c-13.13-20.17,2.53-24.35,19.87-18.46,4.39,1.62,9.12,3.63,12.75,6.29-4.3-1.97-8.63-3.82-13.1-5.28-6.54-2.16-23.22-6.93-23.53,4.15-.03,4.65,2.43,9.2,4.01,13.3h0Z"/>
    <path class="st0" d="M174.9,87.31c5.14,1.71,10.27,3.28,15.6,4.16,8.97.84,17.91-1.26,26.36-4.16,0,0,.04.09.04.09-7.96,4.61-17.45,5.54-26.44,4.39-5.33-.34-11.2-1.57-15.56-4.48h0Z"/>
    <path class="st0" d="M274.51,196.56c8.03-6.58,21.14-3.21,28.24,2.96,2.19,1.91,3.61,3.91,4.48,5.32-1.72,1.13-4.49,2.74-8.15,3.96-5.87,1.96-9.64,1.26-10.03,2.66-.57,2.04,7.27,3.99,12,10.13,4.31,5.6,4.56,12.75,3.98,18.23-4.68.2-10.64-.36-16.13-3.7-6.68-4.07-10.03-10.64-11.45-9.86-1.13.62,1.03,4.75.52,11.1-.3,3.78-1.42,6.81-2.32,8.77-2.49-.53-11.3-2.73-16.77-10.94-1.84-2.76-6.54-9.81-3.45-17.07,3.19-7.51,12.11-9.09,12.88-9.22.41-3.17,1.71-8.66,6.2-12.35Z"/>
    <path class="st0" d="M226.45,175.99c-5.99-.3-10.29-6.85-10.93-12.25-.2-1.67-.03-3.08.15-4.02,1.18.19,2.99.57,5.03,1.47,3.27,1.45,4.62,3.21,5.33,2.76,1.04-.65-1.56-4.53-1.19-9,.33-4.07,3.01-7.23,5.38-9.35,2.08,1.73,4.41,4.29,5.46,7.86,1.28,4.34.15,8.45,1.06,8.68.72.18,1.41-2.43,4.09-4.96,1.6-1.5,3.26-2.36,4.41-2.85.86,1.19,3.78,5.56,2.93,11.2-.29,1.9-1.02,6.74-5.16,8.64-4.29,1.97-8.72-.82-9.1-1.07-1.41,1.2-4.1,3.04-7.46,2.87Z"/>
    <path class="st0" d="M147.93,181.39c-6.29-3-7.98-11.94-6.26-18.02.53-1.88,1.34-3.31,1.96-4.24,1.18.72,2.95,1.95,4.73,3.82,2.87,3.01,3.52,5.5,4.48,5.34,1.4-.23.35-5.56,2.74-10.19,2.17-4.22,6.45-6.41,9.95-7.62,1.46,2.79,2.82,6.57,2.35,10.87-.57,5.23-3.61,9.14-2.73,9.78.7.51,2.6-1.98,6.6-3.49,2.39-.9,4.55-1.08,6-1.09.39,1.66,1.57,7.65-1.86,13.32-1.16,1.91-4.1,6.78-9.39,6.97-5.48.2-8.98-4.77-9.28-5.2-2.05.66-5.76,1.43-9.28-.25Z"/>
    <path class="st0" d="M207.08,77.06c8.37,3.53,18.52-2.56,22.95-9.5,1.37-2.14,2.06-4.18,2.43-5.57-1.72-.52-4.44-1.18-7.82-1.3-5.41-.18-8.4,1.33-9.07.26-.99-1.57,5.11-5.15,7.55-11.48,2.23-5.76.66-11.82-1.19-16.28-3.98.99-8.83,2.94-12.61,7.11-4.6,5.07-5.77,11.41-7.16,11.12-1.1-.24-.32-4.24-2.32-9.44-1.19-3.1-2.88-5.36-4.13-6.78-1.95,1.06-8.8,5.09-11.35,13.34-.86,2.78-3.05,9.85,1.35,15.17,4.54,5.5,12.41,4.62,13.09,4.53,1.13,2.56,3.59,6.84,8.27,8.82Z"/>
    <path class="st0" d="M104.1,331.48c4.06,5.06,12.51,4.7,17.65,1.84,1.59-.88,2.72-1.92,3.43-2.67-.91-.91-2.39-2.26-4.47-3.48-3.34-1.96-5.73-2.02-5.79-2.92-.09-1.32,4.96-1.5,8.65-4.65,3.36-2.86,4.44-7.21,4.79-10.63-2.84-.73-6.55-1.16-10.35.18-4.61,1.62-7.51,5.21-8.28,4.55-.61-.52,1.24-2.77,1.76-6.72.31-2.35.01-4.35-.29-5.67-1.59,0-7.27.2-11.67,4.52-1.48,1.45-5.27,5.16-4.32,9.99.98,5,6.23,7.13,6.69,7.3-.16,1.99-.07,5.52,2.2,8.35Z"/>
    <path class="st0" d="M118.97,270.51c-4.79-.82-9.35,3.58-10.81,7.74-.45,1.28-.57,2.43-.59,3.2.96.06,2.46.08,4.23-.27,2.84-.56,4.22-1.71,4.7-1.24.7.7-2.04,3.31-2.54,6.9-.46,3.27,1.09,6.24,2.59,8.34,1.95-1,4.25-2.61,5.71-5.24,1.78-3.2,1.62-6.65,2.38-6.66.6-.01.68,2.17,2.35,4.64,1,1.47,2.15,2.44,2.97,3.03.89-.79,3.97-3.72,4.3-8.33.11-1.55.39-5.51-2.54-7.74-3.04-2.32-7.03-.9-7.38-.77-.9-1.2-2.7-3.13-5.38-3.59Z"/>
    <path class="st0" d="M64.73,306.86c-4.85.29-8.29,5.61-8.77,9.99-.15,1.35,0,2.49.15,3.25.95-.16,2.41-.48,4.06-1.23,2.64-1.19,3.72-2.63,4.29-2.27.84.52-1.23,3.68-.91,7.3.3,3.29,2.48,5.83,4.42,7.53,1.67-1.42,3.54-3.5,4.37-6.4,1.01-3.52.07-6.85.81-7.03.59-.15,1.16,1.96,3.35,3.99,1.31,1.21,2.65,1.89,3.59,2.28.69-.97,3.02-4.53,2.29-9.09-.24-1.54-.87-5.45-4.23-6.97-3.48-1.57-7.05.72-7.36.92-1.15-.96-3.34-2.44-6.06-2.28Z"/>
    <path class="st0" d="M23.97,322.8c-.89-4.78-6.61-7.52-11.01-7.45-1.36.02-2.47.31-3.21.56.28.92.78,2.33,1.73,3.87,1.51,2.47,3.07,3.36,2.79,3.98-.41.9-3.81-.76-7.35.01-3.23.71-5.48,3.19-6.92,5.33,1.62,1.48,3.92,3.08,6.9,3.54,3.62.56,6.8-.79,7.08-.08.22.56-1.8,1.39-3.53,3.82-1.03,1.45-1.54,2.87-1.81,3.84,1.05.56,4.87,2.43,9.31,1.14,1.49-.44,5.3-1.55,6.38-5.07,1.12-3.65-1.6-6.91-1.84-7.18.81-1.26,2-3.62,1.5-6.29Z"/>
    <path class="st0" d="M176.9,51.5c4.53-1.75,6.18-7.87,5.3-12.19-.27-1.33-.76-2.37-1.14-3.05-.86.44-2.15,1.2-3.49,2.41-2.15,1.94-2.74,3.64-3.39,3.47-.96-.24.05-3.88-1.36-7.23-1.29-3.05-4.14-4.8-6.51-5.82-1.16,1.86-2.3,4.42-2.21,7.43.12,3.66,2.02,6.54,1.38,6.94-.51.32-1.7-1.51-4.4-2.77-1.61-.75-3.1-.99-4.11-1.08-.36,1.14-1.49,5.24.59,9.36.7,1.39,2.49,4.93,6.16,5.34,3.79.43,6.49-2.84,6.72-3.13,1.39.56,3.93,1.3,6.46.32Z"/>
    <path class="st0" d="M120.89,165.57c4.67-1.33,6.87-7.28,6.39-11.66-.15-1.35-.54-2.43-.85-3.14-.89.36-2.25,1-3.7,2.08-2.32,1.74-3.06,3.37-3.7,3.15-.94-.32.4-3.86-.7-7.32-1-3.15-3.69-5.15-5.95-6.39-1.33,1.75-2.7,4.19-2.88,7.2-.22,3.66,1.42,6.7.74,7.04-.54.27-1.55-1.66-4.13-3.16-1.54-.89-3-1.27-4-1.45-.46,1.1-1.97,5.08-.26,9.37.57,1.45,2.03,5.13,5.65,5.88,3.74.77,6.73-2.24,6.98-2.5,1.33.69,3.79,1.65,6.41.91Z"/>
    <path class="st0" d="M109.82,21.96c.98,5.56,7.58,8.82,12.7,8.79,1.58,0,2.88-.33,3.73-.61-.31-1.08-.88-2.72-1.96-4.52-1.73-2.89-3.53-3.94-3.19-4.65.49-1.04,4.41.93,8.54.07,3.76-.78,6.4-3.64,8.1-6.11-1.86-1.74-4.52-3.62-7.97-4.19-4.2-.69-7.91.83-8.22,0-.25-.66,2.11-1.6,4.15-4.39,1.22-1.67,1.83-3.31,2.15-4.44-1.21-.66-5.63-2.88-10.8-1.43-1.74.49-6.17,1.73-7.47,5.82-1.34,4.23,1.77,8.04,2.05,8.37-.96,1.45-2.36,4.18-1.82,7.29Z"/>
    <path class="st0" d="M114.07,59.2c2,1.91,5.55,1.29,7.57-.21.62-.46,1.04-.96,1.3-1.32-.43-.34-1.14-.82-2.08-1.22-1.52-.64-2.54-.53-2.61-.91-.11-.55,2.01-.91,3.4-2.45,1.26-1.4,1.47-3.29,1.43-4.76-1.24-.15-2.84-.12-4.36.65-1.86.94-2.88,2.62-3.25,2.39-.29-.19.37-1.24.37-2.94,0-1.01-.24-1.84-.44-2.38-.67.09-3.06.49-4.68,2.56-.55.7-1.94,2.47-1.27,4.47.69,2.06,3.03,2.66,3.24,2.71.04.85.28,2.34,1.4,3.41Z"/>
    <path class="st0" d="M75.72,62.36c1.6-3.81-1.18-8.44-4.34-10.45-.98-.62-1.9-.94-2.54-1.1-.24.79-.54,2.03-.58,3.56-.08,2.47.61,3.82.13,4.13-.71.45-2.35-2.32-5.24-3.43-2.63-1.01-5.39-.29-7.41.55.46,1.81,1.35,4.02,3.25,5.74,2.31,2.09,5.2,2.62,5.07,3.25-.11.5-1.93.15-4.3,1.06-1.41.55-2.44,1.32-3.09,1.89.49.89,2.33,4.01,6.09,5.16,1.27.39,4.49,1.38,6.91-.62,2.5-2.07,2.09-5.66,2.05-5.97,1.16-.52,3.11-1.64,4.01-3.77Z"/>
    <path class="st0" d="M65,93.99c4.11-.51,6.74-5.24,6.9-8.99.05-1.16-.14-2.12-.31-2.76-.8.19-2.03.55-3.38,1.27-2.18,1.16-3.01,2.44-3.53,2.17-.75-.39.84-3.2.36-6.26-.44-2.79-2.44-4.82-4.18-6.16-1.34,1.3-2.82,3.18-3.36,5.69-.66,3.05.32,5.83-.29,6.03-.49.16-1.09-1.6-3.07-3.2-1.18-.95-2.36-1.46-3.18-1.74-.53.87-2.32,4.02-1.44,7.86.29,1.29,1.04,4.59,3.99,5.69,3.05,1.14,5.96-1.01,6.21-1.2,1.03.75,2.98,1.89,5.28,1.6Z"/>
    <path class="st0" d="M48.87,210.15c3.46-2.28,3.74-7.67,2.23-11.11-.47-1.06-1.06-1.84-1.49-2.34-.64.52-1.58,1.38-2.48,2.63-1.44,2.01-1.63,3.52-2.21,3.51-.84-.02-.66-3.24-2.43-5.78-1.62-2.31-4.31-3.25-6.47-3.69-.63,1.76-1.13,4.1-.51,6.59.75,3.03,2.86,5.09,2.4,5.54-.37.36-1.69-.96-4.17-1.52-1.48-.34-2.76-.27-3.62-.16-.09,1.01-.31,4.63,2.17,7.69.83,1.03,2.96,3.66,6.09,3.34,3.24-.32,4.9-3.53,5.04-3.81,1.26.22,3.51.38,5.44-.9Z"/>
    <path class="st0" d="M98.67,106.22c2.54-5.14-.92-11.78-5.13-14.83-1.3-.94-2.56-1.46-3.42-1.74-.39,1.07-.91,2.76-1.11,4.88-.32,3.41.53,5.35-.18,5.73-1.03.56-3.06-3.41-6.96-5.19-3.55-1.62-7.43-.86-10.31.14.48,2.55,1.53,5.68,4.01,8.22,3.03,3.09,6.98,4.07,6.75,4.93-.19.69-2.69.04-6.04,1.11-2,.63-3.49,1.62-4.43,2.35.6,1.27,2.88,5.75,7.99,7.66,1.72.65,6.1,2.29,9.62-.28,3.64-2.66,3.38-7.66,3.35-8.09,1.66-.62,4.45-2.01,5.87-4.89Z"/>
    <path class="st0" d="M49.23,168.23c.62-5.7-4.9-10.76-9.9-12.18-1.55-.44-2.9-.49-3.81-.47,0,1.14.09,2.9.63,4.97.87,3.31,2.33,4.84,1.8,5.45-.77.88-4.04-2.16-8.32-2.5-3.89-.31-7.28,1.74-9.64,3.66,1.32,2.23,3.38,4.82,6.59,6.35,3.9,1.87,7.96,1.43,8.03,2.32.06.71-2.51.96-5.3,3.11-1.66,1.28-2.72,2.71-3.36,3.72,1,.99,4.68,4.41,10.13,4.46,1.84.02,6.52.06,8.94-3.56,2.51-3.75.55-8.35.38-8.75,1.35-1.15,3.49-3.41,3.84-6.6Z"/>
    <path class="st0" d="M169.38,122.87c-1.72,4.75,1.95,10.23,5.94,12.49,1.23.7,2.38,1.03,3.17,1.19.24-.97.53-2.5.5-4.38-.05-3.01-.98-4.63-.41-5.04.84-.59,3.01,2.69,6.6,3.87,3.27,1.07,6.59.03,9.02-1.13-.67-2.18-1.89-4.83-4.32-6.81-2.95-2.41-6.51-2.88-6.39-3.66.1-.62,2.35-.3,5.18-1.56,1.69-.75,2.9-1.76,3.65-2.49-.65-1.06-3.08-4.75-7.74-5.93-1.57-.4-5.57-1.41-8.4,1.18-2.93,2.68-2.21,7.03-2.14,7.41-1.39.7-3.7,2.19-4.66,4.85Z"/>
    <path class="st0" d="M217.45,90.88c.61,2.74,3.96,4.21,6.49,4.09.78-.04,1.42-.23,1.84-.38-.18-.53-.5-1.33-1.07-2.2-.92-1.4-1.84-1.88-1.69-2.24.22-.53,2.21.37,4.24-.15,1.85-.47,3.1-1.95,3.89-3.21-.96-.82-2.32-1.7-4.05-1.91-2.1-.25-3.91.59-4.08.18-.14-.32,1.01-.84,1.97-2.27.57-.85.84-1.68.97-2.25-.62-.3-2.86-1.31-5.39-.48-.85.28-3.03.99-3.58,3.05-.57,2.13,1.05,3.95,1.2,4.11-.44.74-1.08,2.13-.74,3.66Z"/>
    <path class="st0" d="M66.14,253.28c-1.54-2.34-5.2-2.52-7.53-1.49-.72.32-1.25.72-1.58,1.01.35.43.94,1.07,1.79,1.67,1.36.98,2.39,1.1,2.38,1.49-.02.57-2.2.45-3.91,1.66-1.56,1.1-2.2,2.93-2.49,4.39,1.19.43,2.78.76,4.46.34,2.05-.51,3.44-1.94,3.75-1.63.24.25-.65,1.14-1.02,2.82-.23,1-.18,1.87-.1,2.45.68.06,3.14.2,5.21-1.48.7-.57,2.47-2.01,2.26-4.13-.22-2.19-2.4-3.31-2.59-3.41.15-.85.25-2.37-.61-3.68Z"/>
  </g>
</svg>