<?xml version="1.0" encoding="UTF-8"?>
<svg id="Layer_1" xmlns="http://www.w3.org/2000/svg" version="1.1" viewBox="0 0 288 266.84">
  <!-- Generator: Adobe Illustrator 30.5.1, SVG Export Plug-In . SVG Version: 2.1.4 Build 3)  -->
  <path d="M287.69,97.76c-2.03-62.33-35.22-83.65-68.39-92.75C195.29-1.58,125.23-.14,105.38.89,85.54,1.92,54.19-.75,28.06,30.78-1.84,66.85-.39,112.41.23,142.59c.77,38.13,24.14,63.32,25.64,64.54,1.5,1.22.18,2.7-1.14,3.84-1.02.88-17.93,18.06-11.87,34.55,6.14,16.71,21.01,20.35,43.69,21.25,27.04,1.07,41.11-11.59,42.91-13.65,1.8-2.06,5.82,3.54,11.6,6.83,8.38,4.77,18.36,6.03,36.79,4.87,19.42-1.22,32.8-9.77,36.93-12.09,4.12-2.32,5.15,3.15,8.25,5.8,5.28,4.51,16.42,9.79,34.02,7.47,18.56-2.45,33.71-10.36,41.5-23.96,8.63-15.07.39-25.63-1.42-28.98-1.8-3.35,4.62-9.25,8.03-19.79,4.25-13.14,14.78-26.97,12.54-95.5ZM70.37,258.96c-20.17,1.95-33.07-1.8-37.91-3.99-5.87-2.65-14.31-9.22-11.96-19.07,2.34-9.85,9.16-19.1,15.16-18.67,9.93.7,30.41,8.13,30.49,12.11.08,3.98-7.97,8.2-12.66,6.33-4.19-1.67-1.33-6.41-2.03-7.03-.7-.63-4.61-1.25-4.61,1.48s-1.51,12.09,10.63,11.1c10.48-.86,13.29-7.19,14.07-9.06.78-1.87.39-3.98,2.66-4.14,2.27-.16,24.55,2.19,24.94,4.22.39,2.03-8.21,24.73-28.77,26.72ZM142.6,256.07c-36.9.7-35.3-13.91-34.94-16.57.31-2.34.42-6.51,1.41-6.49,3.13.08,22.28-.39,22.9.47.63.86-1.88,11.07,10.79,10.94,14.77-.16,13.76-10.16,17.82-10.55,4.3-.41,23.53-.7,24.7,0,1.15.69-4.61,21.47-42.68,22.19ZM138.23,234.26c.47-1.33,11.32-.71,11.18.47-.39,3.36-6.33,4.53-8.83,3.67-2.5-.86-2.89-2.59-2.35-4.14ZM231.02,257.63c-27,5.43-38.07-7.89-38.46-13.91-.08-1.19,1.66-8.29,2.66-9.85,1.8-2.81,13.84-2.35,15.56-1.8,5.39,1.72,3.83,3.75,6.1,7.19,2.27,3.44,5.1,6.52,15.24,5.86,10.79-.7,14.69-7.13,15.63-8.36,2.03-2.66.31-5.23-1.64-5.16-1.95.08-3.13,5.08-8.91,7.27-3.55,1.34-13.85.19-15.95-2.89-3.99-5.86,15.5-9.07,18.06-9.69,5.78-1.41,17.04-5.87,19.39-6.1,4.14-.39,5.63.64,6.18,8.83.63,9.38-7.43,23.29-33.85,28.6ZM255.73,208.03c-21.22,13.91-54.73,17.78-107.56,17.35-54.65-.44-96.74-7.04-116.67-27.48-19.93-20.44-22.96-51.44-19.67-91.89,3.35-41.22,27.66-83.04,59.02-90.69,12.15-2.96,46.39-5.32,62.89-5.67,16.5-.34,49.49-1.19,65.98,1.03,21.65,2.92,41.67,11.59,53.87,22.41,12.2,10.82,26.72,37.87,25.34,85.45-1.36,47.21-14.53,83.8-23.2,89.49Z"/>
  <path d="M156.94,24.21c-17.19.45-48.28,1.08-74.89,15.28-28.27,15.09-47.95,48.12-46.23,97.01,1.66,47.25,52.28,69.75,113.36,65.03,39.66-3.07,66.07-4.76,84.97-24.55,24.59-25.75,37.03-79.05,16.01-118.2-20.53-38.24-63.81-35.33-93.23-34.56ZM75.48,58.04c16.56-20.87,43.37-24.97,85.49-27.13,56.42-2.9,77.41,15.52,80.41,26.58,2,7.34-13.2,19.26-14.78,19.46-1.03.13,4.97-7.78,2.9-18.96-.46-2.48-4.93-8.1-3.59-.14.26,1.55,1.02,15.67-10.28,23.88-9.41,6.83-27.97,13.2-35.25,13.98-1.75.19,5.87-3.92,11.08-19.58,1.81-5.43,3.48-16.23,1.55-17-1.95-.78-4.16,9.55-5.59,15.39-1.38,5.6-8.24,20.68-28.94,25.58-17.79,4.21-35.37,2.11-33.18.71,8.12-5.22,19.32-16.31,23.26-27.57,2.57-7.34,2.9-14.04,1.55-13.78-2.69.51-3.09,14.75-14.95,26.73-4.75,4.8-16.26,14.88-23.52,15.26-7.26.38-27.95-8.65-26.61-9.98,1.34-1.34,14-4.07,22.29-17.65,2.85-4.66,7.09-15.78,4.57-19.58-1.49-2.25-1.55,15.07-17.91,27.25-4.87,3.62-15.85,8.95-18.43,1.1-2.36-7.18-3.71-19.94-.07-24.52ZM248.69,136.24c-9.27,25.55-14.64,34.85-29.76,44.3-11.8,7.37-71.89,23.21-126.43,10-25.85-6.26-52.89-29.99-49.43-66.87,3.27-34.78,20.03-61.33,21.73-61.76,1.7-.43-3.32,22.96,9.8,32.37,26.75,19.19,57.15,21.63,103.43,9.8,50.3-12.85,52.38-18.24,58.29-22.38,9.14-6.39,11.01-11.76,11.54-10.78,6.66,12.12,7.19,47.81.83,65.32Z"/>
  <path d="M103.63,115.85c-7.98-.61-21.37,5.65-19.65,17.92,1.26,9.01,10.77,13.26,17.68,13.26s20.01-4.66,20.51-15.59c.34-7.48-6.47-14.66-18.54-15.59ZM99.4,131.15c-.36.81-2.19,1.43-3.82.77-1.63-.66-2.91-3.6-3.32-4.97-.41-1.37.16-2.68,1.88-3.14,1.71-.46,4.26,1.58,4.98,2.69.71,1.12.63,3.83.28,4.64ZM104.01,137.24c-.92.65-1.9.55-3.07.55s-.6-3.08-.11-3.7c.56-.71,4.35-.05,4.81.66.46.71-.87,1.96-1.63,2.49ZM105.59,123.31c-.36.71-3.2.61-4.53.26-1.32-.36-1.15-2.1-.46-3.2.25-.41,4.07-.2,4.88.1.81.31.46,2.13.1,2.84ZM111.62,128.17c-1.07.15-1.8-.45-2.76-1.16-.97-.71-.29-1.82.4-2.23.61-.36,4.15.03,4.35.84.2.81-.92,2.39-1.99,2.54Z"/>
  <path d="M142.92,143.71c-9.09-.37-18.54,7.98-18.91,14.97-.5,9.57,11.17,17.18,20.88,16.45,10.43-.79,16.87-9.59,16.33-16.69-.49-6.51-7.37-14.29-18.3-14.73ZM132.05,159.62c-.15.71-1.17.92-1.98.66-.81-.25-1.22-2.32-.51-2.64,1.58-.71,2.65,1.27,2.49,1.98ZM137.44,154.59c-.61,1.33-2.54.71-3.71.55-1.17-.15-.71-1.16-.6-2.76.06-.82,3.34-.38,4.2-.28.86.1.63,1.36.11,2.49ZM144.46,159.4c-.46.81-3.51.88-4.38-.14-.86-1.02-.16-2.38,1-3.01.56-.31,2.76-.18,3.32.28s.51,2.06.06,2.87ZM146.18,151.44c0-.97,2-.84,3.26-.66.77.11.9,2.43.44,3.1-.46.66-2.19.32-3.21.17-1.02-.15-.5-1.63-.5-2.6ZM150.1,167.69c-1.17.51-4.57-2.63-4.98-3.44-.41-.81,1.51-1.97,3.43-2.64,2.03-.71,5.01.4,4.96,1.98-.05,1.58-2.24,3.59-3.41,4.1ZM156.21,159.37c-.31.76-2.14.51-3.15.25s-.56-2.44-.56-3.25,1.06-.9,2.03-1c.48-.05,1.57-.07,1.88.44.31.51.11,2.8-.19,3.56Z"/>
  <path d="M171.65,116.1c-6.19.38-15.51,6.46-15.35,14.73.12,6.38,6.78,13.77,15.84,13.13,10.44-.74,16.58-9.7,15.84-18.04-.56-6.38-8.35-10.31-16.33-9.82ZM162.22,130.43c-.1-1.27.24-2.4,1.32-3.41.76-.71,2.36-1.12,2.82.1.46,1.22-1.55,3.21-2.26,4.12-.71.92-1.78.46-1.88-.81ZM170.36,133.79c-.71.66-3.6,3.01-4.72,3.01s1.36-4.13,2.02-4.74c.66-.61,2.14-2.03,3.82-2.03s-.41,3.1-1.12,3.76ZM172.85,122.24c-.36.71-4.73.21-3.97-.31,2.09-1.42,4.32-.41,3.97.31ZM176.78,137c-.46.71-2.43.57-2-.36,1.14-2.45,2.74-.79,2,.36ZM178.97,124.96c-.25.76-2.15.33-3.22-.03-1.07-.36-.24-2.67.78-3.18.71-.36,1.8.12,2.32.33.83.33.37,2.11.11,2.87Z"/>
</svg>
