<?xml version="1.0" encoding="UTF-8"?>
<svg id="Layer_1" xmlns="http://www.w3.org/2000/svg" version="1.1" viewBox="0 0 288 279.85">
  <!-- Generator: Adobe Illustrator 30.5.1, SVG Export Plug-In . SVG Version: 2.1.4 Build 3)  -->
  <path d="M241.95,56.56c-18.87-24.88-57.7-25.17-86.55-25.84-18.9-.44-35.42.98-50.22,2.56-14.81,1.59-32.08,10.47-44.34,21.31-12.47,11.02-23.97,23.34-26.77,54.38-3.37,37.39.56,60.19,20.12,75.67,20.23,16.01,60.92,22.43,114.02,20.19,53.11-2.24,73.64-32.25,80.29-47.64,4.98-11.53,16.03-70.84-6.55-100.63ZM247,96.44c-.69,19.91-.07,50.29-10.73,67.17-10.66,16.89-34.25,31.05-71.89,33.45-38.48,2.46-90.84.72-113.15-25.36-17.52-20.48-12.9-79.24.84-97,15.38-19.87,34.03-33.09,59.62-35.19,19.66-1.62,80.79-.77,89.23,1.5,8.44,2.27,17.55,6.42,23.7,10.23,13.81,8.56,23.07,25.29,22.37,45.21Z"/>
  <path d="M233.4,78.62c-1.28-13.74-28.84-28.96-42.59-30.67-13.75-1.71-68.05-3.1-84.42.49-9.4,2.06-24.11,9.25-33.6,17.74-9.49,8.49-28.47,23.71-27.08,65.64,1.39,41.93,38.8,53.42,54.14,55.47,15.34,2.06,40.45,5.11,70.33.8,33.82-4.88,53.48-21.08,59.63-31.58,9.11-15.54,4.87-64.15,3.59-77.89ZM170.22,56.12c1.76-1.42,8.98-3.03,13.03-2.69,4.06.34,8.17,2.96,9.54,4.9,2.83,4.04-10.7,14.13-15.98,16.62-5.28,2.49-18.14,4.3-19.74.78-1.6-3.52,1.57-9.36,6.82-13.77,2.11-1.77,4.57-4.42,6.32-5.84ZM150.99,53.2c3.52-1.07,10.4-.57,12.34-.57,1.94,0-4.56,6.36-7.37,8.48-2.81,2.12-3.84,9.35-5.07,11.47-1.23,2.12-.51,4.23-7.39,3.73-6.88-.5-5.65-2.62-6.02-6.14-.37-3.52,2.06-8.49,5.42-11.65,2.63-2.48,4.57-4.25,8.09-5.31ZM120.61,55.64c4.57-3.01,18.22-3.45,18.75-2.05.53,1.41-3.86,4.42-6.49,8.48-2.63,4.06-.31,11.28-3.31,10.76-3-.52-7-.94-9.84-6.21-2.31-4.29-2.44-8.79.89-10.98ZM52.73,123.33c7.58-.91,18.69-3.11,28.02-.22,5.76,1.79,16.51,10.52,22.5,15.05,8.65,6.54,21.31,6.6,32.25,7.44,10.93.84,29.47.74,39.69-1.86,12.2-3.11,23.58-21.44,29.41-23.99,8.1-3.55,16.61-4.44,20.31-4.28,1.87.08,2.02,5.01.79,5.37-1.23.36-10.87.12-13.52,1.27-10.73,4.64-18.91,22.97-35.34,26.77-14.48,3.35-58.17.35-68.46-2.45-8.78-2.39-20.23-15.43-25.83-17.92-9.29-4.13-24.49-1.27-27.13-1.09-2.64.19-4.84-3.83-2.67-4.09ZM108.81,181.27c-2.46,1.95-34.56-4.28-47.49-21.85-9.33-12.68-7.24-20.33-6.43-23.76,1.04-4.41,18.79-1.55,22.31-1.38,3.53.16,13.28,10.93,17.01,14.17,5.49,4.78,15.91,4.28,16.97,4.8,1.06.52.1,26.07-2.36,28.02ZM128.38,182.46c-.35,1.23-8.98,1.06-11.46-.16-2.47-1.22-.79-23.53,0-26.97.52-2.29,10.12-.38,10.82.5.71.88.99,25.4.64,26.64ZM163.01,181.52c-1.58,1.77-26.4,3.09-27.99,1.86-1.59-1.23-2.69-24.29-1.44-27.22.52-1.24,26.33-.9,27.5.43,1.72,1.95,3.52,23.17,1.94,24.93ZM182.34,178.06c-1.4,1.94-10.96,3.32-12.9,2.62-1.94-.7-2.4-19.9-1.52-22.58.52-1.59,12.18-2.3,12.53-1.42.36.88,3.29,19.43,1.88,21.38ZM216.25,158.84c-7.72,10.25-23.56,17.83-26.19,18.07-3.66.33-4.55-21.98-3.34-23.47.16-.19,9.55-2.48,13.27-7.47,3.68-4.95,9.93-16.44,10.99-17.5,1.05-1.06,13.77-2.22,15.01-.46,1.24,1.76-.48,18.54-9.74,30.84ZM227.44,98.32c-.2,5.09-1.95,6.73-5.14,9.56-2.77,2.46-17.63.73-27.54,8.58-5.83,4.62-12.8,17.49-21.78,20.52-8.98,3.03-45.85.67-58.17-3.42-12.18-4.04-22.05-17.91-29.63-19.47-7.58-1.56-14-1.77-20.73,1.42-4.59,2.17-9.53,2.14-10.17-.65-1.77-7.62,7.5-28.43,15.42-36.57,14.02-14.39,34.07-24.03,36.19-22.45,2.12,1.58.83,9.6,8.84,17.55,9.91,9.83,23,11.8,38.67,12.9,19.04,1.34,33.53-6.73,38.8-11.51,5.27-4.78,11.29-15.79,12.76-15.23,9.75,3.75,15.92,12.56,18.96,17.53,4.29,7.03,3.72,16.8,3.54,21.25Z"/>
  <path d="M264.72,201.91c-1.02-1.02,8.39-8.72,12.97-23.14,7.98-25.12,8.94-51.91,5.03-90.13-4.79-46.81-41.45-73.31-75.69-81.61C184.5,1.58,152-2.6,102.99,1.92,53.97,6.44,24.08,32.94,16.24,53.39c-7.3,19.03-9.26,50.07-10.48,67.43,0,0-.7,16.59-.61,41.35s26.21,44.32,27.23,44.31c1.02,0-13.11,2.52-18.87,6.45-8.38,5.71-16.41,14.07-12.5,35.5,3.91,21.43,17.93,30.45,45.77,31.37,27.84.92,47.42-12.7,47.42-12.7.13-.23,9.11,7.34,16.56,8.83,20.44,4.09,42.82,3.3,65.71.51,14-1.71,21.58-8.18,25.45-9.52.72-.25,15.08,7.8,39.34,6.69,24.26-1.11,43.58-15.06,46.36-32.85,3.74-24.01-21.88-37.84-22.9-38.86ZM87.45,253.67c-3.03,9.39-16.22,16.67-29.91,16.97-12.73.28-32.33,2.81-43.59-18.24-11.26-21.06,6.27-37.16,23.1-37.85,19.63-.81,23.41,10.44,23.43,18,.04,10.8-11.88,14.11-16.55,9.61-3.4-3.28.66-8.17-4.81-10.66-2.41-1.1-9.55,6.25-3.71,14.58,6.31,9.02,23.02,6.82,29.65.77,6.64-6.05,10.13-13.48,10.48-19,.21-3.2,8.04-.54,10,.37,2.39,1.12,6.13,12.38,1.9,25.45ZM190.63,262.08c-6.51,5.3-12.53,8.21-41.18,8.32-31.54.12-43.51-1.71-45.67-8.61-.81-2.59-2.4-6.8-3.19-13.28-.89-7.26-1.97-15.22.71-17.53,1.23-1.06,20.25,1.72,23.39,2.09,3.14.37,2.53,5.27,3.42,8.53.89,3.26,4.4,13.16,17.46,12.48,16.71-.86,14.7-15.19,18.62-16.19,3.51-.89,23.21-3.97,27.71-3.18,3.52.61,3.55,7.77,3.81,11.54.27,3.77,1.42,10.54-5.09,15.84ZM134.24,235.79c-.39-2.76,5.55-1.87,10.67-1.3,6.22.7,9.42-.29,9.81,2.73.39,3.01-.73,9.6-9.89,9.96-8.05.32-10.21-8.63-10.6-11.39ZM182.62,226.35c-25.2,2.3-85.04-1.73-116.24-14.12-31.2-12.39-50.68-30.44-51.78-53.16-1.11-22.71,1.17-86.68,11.36-103.17C38.14,36.21,58.34,15.14,105.72,9.92c20.16-2.22,60.26-2.27,75.08.49,14.82,2.75,54.68,8.99,73.16,34.19,18.48,25.2,21.36,43.32,21.41,57.61.05,14.29,2.84,78.35-18.29,94.77-21.13,16.41-39.48,26.18-74.46,29.38ZM273.5,251.35c-11.29,15.79-38.92,18.4-54.39,13.28-16.1-5.34-14.13-23.59-13.11-28.87,1.36-7.04,8.36-7.42,11-7.18,2.64.24,1.78,6.02,6.89,10.37,7.06,6,21.36,5.94,25.69,5.14,5.52-1.02,8.53-4.58,7.27-7.97-1.27-3.39-5.53-1.51-9.8-1.11-4.27.39-5.84-.38-9.87-2.25-4.03-1.87.05-5.86,2.13-9.21,1.25-2.01,3.73-4.81,9.75-7.97,6.02-3.16,11.3-3.8,18.43,1.59,6.93,5.25,16.02,20.21,6.02,34.19Z"/>
</svg>