<?xml version="1.0" encoding="UTF-8"?>
<svg id="Layer_1" data-name="Layer 1" xmlns="http://www.w3.org/2000/svg" xmlns:xlink="http://www.w3.org/1999/xlink" viewBox="0 0 133.13 330.73">
  <defs>
    <style>
      .cls-1 {
        fill: none;
      }

      .cls-2 {
        fill: #16181a;
      }

      .cls-3 {
        clip-path: url(#clippath-1);
      }

      .cls-4 {
        fill: #fff;
      }

      .cls-5 {
        clip-path: url(#clippath);
      }
    </style>
    <clipPath id="clippath">
      <rect class="cls-1" width="133.13" height="330.73"/>
    </clipPath>
    <clipPath id="clippath-1">
      <rect class="cls-1" width="133.13" height="330.73"/>
    </clipPath>
  </defs>
  <g id="Artwork_19" data-name="Artwork 19">
    <g class="cls-5">
      <g class="cls-3">
        <path class="cls-2" d="M58.65,2.16c6.38-4.08,15.76-2.18,20.09,4.01,2.04,2.72,2.76,6.11,3.44,9.37,6.52-1.86,14.79-.39,18.54,5.77,2.47,3.56,2.57,8.1,1.56,12.19,7.14.91,14.15,3.77,19.44,8.74,7.44,7.03,11.81,17.3,11.38,27.56-.62,13.09-7.72,25.94-19.13,32.63-6.58,4.59-14.62,6-21.62,9.69,1.78.97,3.89,1.81,4.91,3.72,3.12,4.76-.48,11.83-5.92,12.81-3.67.96-7.15-.97-10.15-2.84-.45.47-1.35,1.43-1.8,1.9,4.44,3.06,2.85,9.58-1.14,12.28.36,1.88.39,3.91,1.38,5.63,1.71,2.12,4.18,4.07,4.15,7.07.13,3.44-2.4,6.06-4.51,8.46,3.92,3.15,2.55,9.33-1.21,12.02-.23,23.86-.13,47.73-.14,71.6.91,3.74,3.18,7.17,4.16,10.91-.03,4.36,1.21,9.92-3.26,12.61-.03,1.4-.05,2.81-.07,4.24,3.56.04,7.13.05,10.7.07.1,2.25.15,4.5.16,6.77,1.51,0,3.03,0,4.55.04.08-2.19.18-4.37.33-6.54,8.28-.29,16.6-.31,24.89,0,.21,6.65.16,13.29.23,19.94-4.41-.01-8.8.05-13.2.06-.02-2.4.09-4.8-.08-7.18-1.27-.17-2.55-.2-3.8-.26-.05,2.51-.1,5.03-.14,7.56-4.14-.26-8.73,1.23-12.28-1.52-.23.45-.67,1.33-.89,1.78-1.62.01-3.24.02-4.84.02-.04,1.28-.06,2.57-.07,3.88,1.55-.05,3.11-.1,4.67-.14.09,1.77.36,3.47,2.65,3.14-.02-.73-.05-2.19-.06-2.92,3.63.03,7.26.04,10.9.09.05,2.39.09,4.78.13,7.18,1.23.01,2.47.02,3.71.05.06-2.39.12-4.78.25-7.15,4.34.07,8.68.02,13.02-.05-.22,6.64.54,13.54-.41,20.02-8.01.33-16.05.3-24.06.07-1.04-2.19-.21-4.94-.35-7.34-1.78-.04-3.55-.08-5.32-.11-.01,2.44-.02,4.89-.03,7.35-3.61.14-7.23.18-10.83.14.13,4.48-.62,10.05-5.29,12.06-5.07,1.81-11.72,1.9-15.82-2.08-1.88-1.71-2.2-4.35-2.15-6.74-.04-17.23.18-34.47-.03-51.7-1.84-1.63-4.06-3.48-3.84-6.21.11-3.69-.97-8,1.63-11.08.32-2.84,2.69-5.07,2.33-8.02-.07-23.58.11-47.17-.12-70.75-3.77-2.62-4.98-8.76-1.18-11.89-2.23-2.23-4.82-4.79-4.54-8.23-.03-3.13,2.17-5.49,4.23-7.54,1.53-1.42.81-3.76,1.2-5.58-3.52-2.84-5.93-9.36-1.09-12.15-.48-.61-1.43-1.84-1.91-2.46-2.32,2.29-5.42,3.98-8.78,3.59-5.97-.03-10.47-7.34-7.54-12.64.93-2.41,3.6-3.07,5.8-3.76-6.15-3.41-13.14-4.84-19.3-8.22C10.27,97.63,1.67,85.31.23,71.78c-2.24-18.19,12.16-37.21,30.87-38.04-2.12-5.25-.66-11.71,3.66-15.41,4.52-3.84,11.16-4.33,16.61-2.37.05-5.39,2.34-11.13,7.28-13.8"/>
        <path class="cls-4" d="M58.39,6.82c4.89-5.05,14.13-3.81,17.89,2,1.58,2.26,1.88,5.06,2.23,7.74-2.21,1.85-2.43,4.8-3.08,7.42,5.69-6.09,16.64-8.11,22.52-1.19-.54.37-1.08.74-1.62,1.12l-1.33-1.71c-.19-.1-.58-.31-.78-.41-.28-.28-.84-.84-1.12-1.12l-.7.39.13.74c.42,0,1.27-.01,1.69-.01l.2.5.58-.09.02,1.61.46.83.48.6c1.08.63,2.42.18,3.62.27-.16,2.97-.49,6.01-2.62,8.27l-.27-.38c1.3-1.98,1.55-4.35,1.82-6.64-.37.03-1.12.09-1.5.12-.06.78-.18,2.36-.24,3.14-.37-1.3-.33-2.58.11-3.83-2.86-.71-3.63-4.91-7.17-4.8l-.21-.77,2.32.45.17-1.13c-3.54.22-7.06.53-10.55,1.16l.66,1.11c-5.24-.29-9.06,4.62-10.95,8.99.89-.68,2.65-2.03,3.54-2.71-.72,1.23-1.49,2.43-2.21,3.65l-1.93-.6c.44.78,1.33,2.34,1.77,3.12-.72-.81-1.38-1.66-2.05-2.5-2.19,7.1-2.78,15.08.46,21.97,1.05,2.2,3.49,3.74,3.5,6.38-1.89-1.75-3.68-3.69-4.75-6.05-1.78-3.68-1.13-8-2.73-11.73-1.34-3.2-2.08-6.62-3.54-9.76-1.07-.03-2.13-.07-3.19-.12-.32-5-5.4-7.95-9.28-10.33.08-.4.23-1.19.31-1.58-3.01-1.08-6.23-.67-9.35-.75l.51,1.69c-.68-.32-2.03-.97-2.71-1.29l.85,2.11c-1.89-2.49-3.84.81-1.98,1.84-1.15,2.63.21,6.2,2.98,7.05-.43-.59-1.29-1.76-1.72-2.35.49-3.17,4.13.21,3.06,1.97-1.13,2.5-4.94.72-5.34-1.46-.86-1.51.7-3.41-.37-4.78-1.83.07-1.16,2.56-1.33,3.79-.41,2.16,1.2,3.68,2.45,5.19-3.06-.99-5.06-4.49-4.11-7.61.74-4.05,4.35-7.03,8.3-7.67,4.54-1.07,9.13.7,13.02,2.95,1.59-.62,3.59-3.13,3.03,2.39.08-.85.24-2.55.32-3.4,2.39,6.29,6.02,12.01,8.23,18.39,1.1-4.64,2.7-9.18,5.26-13.24,2.8-4.46,4.39-10.54,1.28-15.26-2.22-3.32-6.34-4.01-10-4.49l.8,1.48c-3.98-1.51-6.42,3.38-7.61,6.37.7-.53,2.09-1.57,2.78-2.09-.69,1.25-1.6,2.43-1.73,3.91-.32-.49-.96-1.48-1.28-1.98.02,2.35.57,4.94-1.11,6.9-.68-4.73-.2-10.07,3.11-13.78"/>
        <path class="cls-2" d="M69.26,5.29c4.84,1.04,7.54,5.56,8.6,10.05-.52.84-1.05,1.68-1.57,2.52.37-5.32-3.06-9.57-7.03-12.57"/>
        <path class="cls-4" d="M61.58,15.62c.28-4.41,6.82-6.52,9-2.31,3.14,5.63-2.07,10.94-3.85,16.07-1.9-4.48-5.27-8.71-5.15-13.76"/>
        <path class="cls-2" d="M92.4,21.06l.7-.39c.28.28.84.84,1.12,1.12-.42,0-1.27,0-1.69,0l-.13-.74Z"/>
        <path class="cls-2" d="M52.37,21.91c5.32.94,8.26,6.3,10.83,10.57l-2.02-.18c-1.2-4.37-5.1-7.22-8.73-9.55-.02-.21-.06-.63-.08-.84"/>
        <path class="cls-2" d="M94.22,21.79c.2.1.59.31.78.41l-.58.09-.2-.5Z"/>
        <path class="cls-4" d="M44.23,25.48c4.85-.19,9.03,2.8,11.6,6.7,3.82,5.59,5.56,13.05,3.14,19.54-2.31-7.08-7.65-12.57-14.19-15.93,2.99-3.03,2.02-7.38-.55-10.31"/>
        <path class="cls-4" d="M76.65,33.17c2.56-4.5,7.25-8.44,12.77-7.58-3.14,2.64-3.65,7.11-1.04,10.33-6.48,3.42-11.88,8.83-14.43,15.8-1.34-6.23-.78-13.08,2.7-18.55"/>
        <path class="cls-4" d="M91.61,32.4c-2.55-1.47-.64-5.55,2.11-4.91,1.92.2.72,2.19.73,3.39-.62-.41-1.87-1.24-2.49-1.65-.19,2.42,1.62,3.45,3.79,2.64-1.18,1.09-2.8,1.82-4.14.53"/>
        <path class="cls-2" d="M71.52,31.4q.47.3,0,0"/>
        <path class="cls-4" d="M95.75,31.87q.06-.9,0,0"/>
        <path class="cls-4" d="M60.73,34.21c.89.18,1.78.37,2.68.56.46,3.68,2.51,7.13,2.01,10.93-.36,5.25-2,11-6.35,14.34,1.23-3.2,3.6-5.91,4.25-9.33,1.02-3.81.55-7.79-.22-11.59-.54-1.74-.39-4.04-2.37-4.91"/>
        <path class="cls-4" d="M25.73,38.33c8.52-2.7,18.42-.12,24.69,6.18,5.64,5.76,7.65,15.55,2.83,22.4-3.21,4.44-11.49,6.48-14.54.87-2.35-3.71,1.8-8.38,5.69-6.42,3.36,1.39-.27,6.49-3,4.2,1.35,4.71,5.15.36,7.88.98-1.6-1.45.23-2.91.56-4.35,1.05-2.44.61-5.15.86-7.71.39,2.63.19,5.29.16,7.95l1.09.08c.81-3.63.66-7.35-.47-10.89-2.6-4.48-6.69-7.73-11.33-9.92h2.47l-.12-1.12-1.47.93-.79-1.11c-3.95-.52-8.01-.66-11.93.1-.97.17-.78,1.15-.7,1.87,2.92-.32,5.92-.68,8.85-.11-4.26.19-8.49.58-12.65,1.52.88-.34,2.64-1.04,3.51-1.38-4.89-1.94-9.14,2.83-12.44,5.83-2.08,2.74-3.85,5.68-5.74,8.55-.38.92-.76,1.85-1.15,2.78-2.51,5.39-.91,11.47-1.17,17.19.19.2.57.59.76.79.06,7.36,6.25,12.66,10.38,18.16-6.23-5.5-11.86-12.41-13.3-20.81-1.93-9.04.24-18.85,5.81-26.22,3.68-5.1,9.33-8.49,15.26-10.34"/>
        <path class="cls-4" d="M77.45,60.85c-2.03-12.84,10.54-23.86,22.79-23.55,14.43-.13,26.67,12.4,28.46,26.32,2.08,12.28-4.04,25.11-14.14,32.1,8.28-6.73,13.37-17.29,13.23-27.98,0-7.49-2.92-15.08-8.36-20.3-7.79-7.84-21.05-10.16-30.54-4.02-2.57,1.42-4.66,3.61-5.99,6.22-.41-.45-1.23-1.36-1.64-1.81.32.7.96,2.11,1.28,2.82l-1.96-.44c.07.7.21,2.1.28,2.8-2.05-.12-1.1,2-1.31,3.14.04,4.51-.73,9.86,3.34,13.01,3.37,3.92,10.88,1.76,11.28-3.48.06-2.18-2.07-2.95-3.86-3.07.34.46,1.01,1.38,1.35,1.84-1.29.7-2.77,2.6-4.36,1.38-2.16-3.66,4-6.6,6.26-3.47,3.07,2.86.49,7.71-3.07,8.66-6.41,2.08-12.79-3.85-13.04-10.17"/>
        <path class="cls-2" d="M43.5,41.98q.68.6,0,0"/>
        <path class="cls-4" d="M22.45,44.04q.59.59,0,0"/>
        <path class="cls-4" d="M82.53,53.81c.61-3.84,3.52-7.05,6.89-8.82-2.58,2.73-5.06,5.52-6.89,8.82"/>
        <path class="cls-4" d="M23.27,50.55c6.03-4.38,14.69-3.71,20.48.74,2.41,1.92,3.31,5.04,3.83,7.96-2.29-.94-4.74-2.63-7.31-1.66-4,1.02-6.54,5.26-5.77,9.28.21,3.6,3.17,6.04,5.72,8.19-3.85,3.03-3.58,9.42.4,12.2,1.98,1.74,4.72.85,7.04.57-1.38,3.52-4.53,6.4-8.52,6.23-8.47.76-18.82-5.84-17.31-15.28.52-3.52,5.89-.56,6.25-4.03.45-3.35-2.5-6.29-5.66-6.76-3.04-.78-5.93.72-8.5,2.14-.07-7.47,2.89-15.37,9.35-19.58"/>
        <path class="cls-4" d="M90.02,51.49c5.84-4.81,14.78-4.87,20.8-.37,6.39,4.14,8.6,12.19,8.59,19.41-3.3-2.27-8.03-3.87-11.62-1.33-2.05,1.48-4.22,4.86-2.2,7.13,1.5.16,3.02.11,4.53.31,2.7,3.23,1.23,7.86-1.01,10.91-5.18,7.3-18.21,9.69-23.29,1.01,3.43.33,7.76-.32,9.17-3.98,1.87-3.33.16-7.04-2.09-9.66,4.8-2.43,7.78-9.24,4.18-13.86-2.47-3.69-7.41-4.6-11.12-2.23.54-2.8,1.59-5.69,4.06-7.34"/>
        <path class="cls-2" d="M51.36,49.48q.79.52,0,0"/>
        <path class="cls-2" d="M52.18,65.31c1.76-4.31-.56-9.42,1.98-13.34.88,4.48,1.28,9.42-1.07,13.55-1.39,3.1-4.61,4.83-7.79,5.54-2.11.4-3.67-1.46-5.34-2.39-.52-2.21-.85-5.08,2.05-5.82-1.27,1.66-1.87,3.76.24,4.96,3.3,2.18,6.83-.73,9.67-2.3-.89-.02-1.78-.04-2.65-.05.29-.83.87-2.5,1.16-3.34.54,1.07,1.11,2.16,1.75,3.19"/>
        <path class="cls-4" d="M9.62,69.78c-.7-5.74,1.31-11.37,4.5-16.07-4.16,7.61-5.11,17.66-.71,25.3,1.13-2.36,1.82-5.29,4.27-6.7,2.03-1.4,5.08-1.33,6.74.63-4.08-1.1-6.26,3.55-6.63,6.85-.15,13.96,19.06,23,29.75,14.23,3.28-2.42,3.24-6.74,4.37-10.12,1.56,7.25-4.5,14.27-11.59,15.08-10.52,1.89-22.36-5.89-23.35-16.82-.56-3.57,1.59-6.69,3.21-9.65-4.8,1.52-5.58,7.07-5.58,11.37-1.77-4.66-4.9-8.93-4.98-14.1"/>
        <path class="cls-4" d="M81.31,55.1c.17-.04.52-.13.69-.17.43,3.98-.21,8.85,3.25,11.72,1.72,1.83,4.33.69,6.43.38-2.01,2.31-5.68,2.24-7.67-.04-3.38-2.98-2.5-7.89-2.7-11.89"/>
        <path class="cls-4" d="M59.81,64.43c3.22-.97,5.57-3.41,6.87-6.45,1.11,3.22,4.09,5.02,7.01,6.4,1.76,3.43,3.97,6.59,6.43,9.56-3.86,2.66-6.25,6.99-6.66,11.64-3.08,1.6-5.51,4.18-6.79,7.41-1.02-3.52-3.91-5.7-6.74-7.71-.72-4.67-2.75-9.18-6.7-11.98,2.99-2.28,5.02-5.5,6.58-8.87"/>
        <path class="cls-4" d="M108.29,73.09c2.72-2.23,7.24-1.98,9.27,1.07,1.9,2.46,1.4,5.68,1.32,8.57-.48-3.89-1.4-8.7-5.6-10.21,2.23,2.54,3.99,5.69,3.5,9.2-1.13,13.34-18,22.08-29.46,15.01-4.78-2.56-6.84-7.96-7.13-13.08-1.52,1.52-.68,4.18-.77,6.15.26,4.81,4.19,7.96,7.63,10.73-6.24-2.96-10.65-9.94-9.4-16.93.52-5.18,6.85-9.05,11.59-6.58,1.73.8,2.43,2.66,3.02,4.34l-1.01.24c-.26-.49-.77-1.49-1.03-1.98-1.22,1.5-2.64,2.84-4.42,3.67.12-1.3.57-2.48,1.36-3.54-.99-.12-2.97-.38-3.96-.51,1.77-.5,3.59-.79,5.39-1.16-3.73-1.09-7.63,1.29-8.5,5.02,1.68-.7,2.18-2.96,3.89-3.74-.92,2.02-2.48,4.03-2.21,6.4-.06,5.48,4.54,9.92,9.58,11.26,10.35,2.66,22.27-4.78,24.14-15.36.99-4.21-2.48-9.62-7.2-8.57"/>
        <path class="cls-4" d="M41.63,79.67c2.35-6.8,15.6-2.2,12.79,4.58l1.5-1.3c.07.68.2,2.05.27,2.74l-1.84-.89c.21,1.88.38,3.76.5,5.65-2.33-3.61-.58-10.42-5.86-11.83-.73-1.07-1.71-1.3-2.94-.7l.02.66c.73,0,2.19.03,2.92.04.77,1.33,1.81,2.54,2.06,4.12-1.62-1.97-3.68-3.32-6.22-3.77-.92.91-2.56,4.92.11,3.53l.53-.49c1.93-.97-.16,2.44-1.3,2.4-1.51-1.1-3.41-2.59-2.54-4.74"/>
        <path class="cls-2" d="M46.05,77.92c1.23-.6,2.21-.37,2.94.7-.73,0-2.19-.03-2.92-.04l-.02-.66Z"/>
        <path class="cls-4" d="M58.5,90.1c2.3-.75,3.62,2.08,4.59,3.7,3.33,6.1,2.28,13.17,2.85,19.82.43,4.73,1.62,9.36,2.49,14.03-1.57-.01-3.13-.02-4.68-.02.6-4.67,1.84-9.26,1.91-13.98.2-3.65-.66-7.22-.78-10.84l-1.78.16c.53-.18,1.6-.53,2.13-.71-.97-3.45-2.23-7.05-4.99-9.5-.72-.82-2.03-1.38-1.74-2.66"/>
        <path class="cls-4" d="M69.18,96.05c.81-2.7,2.66-4.9,4.84-6.62.23.44.68,1.31.91,1.75-2.27,1.19-3.93,3.13-5.75,4.87"/>
        <path class="cls-4" d="M68.52,104.9c-.64-4.06,1.84-7.83,4.68-10.48-1.83,3.37-3.94,6.64-4.68,10.48"/>
        <path class="cls-4" d="M57.09,95.42c3.06.69,3.63,4.02,4.9,6.4l.51-1.93,1.05.25c-.4.43-1.19,1.29-1.59,1.72,2.11,6.12,2.7,12.87.61,19.09.09-5.05.86-10.22-.62-15.15-.87-3.78-2.98-7.06-4.86-10.38"/>
        <path class="cls-4" d="M48.26,104.28c2.4-1.45,4.55-3.26,6.67-5.08,3.79,5.68,5.13,12.59,4.35,19.33-4.49-4.17-5.99-10.56-11.02-14.25"/>
        <path class="cls-4" d="M78.44,99.45c1.95,1.71,3.96,3.38,6.22,4.69-4.83,3.35-6.08,9.51-10.45,13.28-.72-6.29.41-12.81,4.23-17.97"/>
        <path class="cls-4" d="M38.05,105.35c4.35.81,9.52,1.87,11.63,6.29,2.61,4.37.22,9.88-3.58,12.62-3.43,2.4-8.72-1.55-7.44-5.53.38-2.28,3.04-2.49,4.8-3.14.85,1.23,1.4,2.6,1.12,4.12l-1.99-.63-.64.56c-.72,3.36,2.52,1.76,4.44,1.69-1.19,1.11-2.91.91-4.39,1.13-.44-1.47-.88-2.93-1.34-4.38-.85,1.89-1.56,4.52.84,5.63,3.3,2.23,6.72-1.1,7.55-4.24.94-2.23,1.13-5.05-.4-7.05-.38,2.3-.72,4.87.4,7.05l-1.03-.63c-.41.62-1.22,1.87-1.63,2.49.86-3.13,2.57-6.77.1-9.65-1.7-3.43-5.03-5.08-8.44-6.33"/>
        <path class="cls-4" d="M88.77,106.3c1.87-.08,3.72-.26,5.6-.32-1.63.65-3.31,1.58-5.13,1.11l.78,1.7-1.32-.98c-.14,1.64-1.33,2.86-2.3,4.08.66-1.5,1.33-2.99,2.01-4.47-.71,1.28-4.46,2.79-3.51,4.58l.53.41c.59.44.22.94-1.1,1.49-.32.91-.95,2.73-1.26,3.64l1.99-.5c.02.31.07.92.09,1.23l-2-.33c.84,3.44,4.13,7.63,8.11,6.12,3.35-.97,3.67-6.73-.74-6.72.47.73,1.42,2.21,1.89,2.95-1.73-.32-3.47-.02-5.19.09l.77,1.21c-.54-.26-1.62-.79-2.16-1.05,1.84-.41,2.84-1.87,3.03-3.69,1.93-1.3,5.04-.62,5.5,1.91,1.25,4.06-4.04,8.17-7.52,5.35-6.67-3.31-6.11-14.08.61-16.98l1.67-.02-.35-.81Z"/>
        <path class="cls-2" d="M47.49,111.28q.7.59,0,0"/>
        <path class="cls-2" d="M48.65,112.42c1.53,2,1.34,4.82.4,7.05-1.12-2.18-.78-4.75-.4-7.05"/>
        <path class="cls-4" d="M53.16,117.58c3.76,1.77,5.26,5.97,6.56,9.62-.23.1-.7.28-.94.38-1.3-3.66-3.96-6.55-5.62-10"/>
        <path class="cls-4" d="M73.63,126.92c.55-3.75,2.66-7.66,6.26-9.18-2.11,3.02-3.47,6.75-6.26,9.18"/>
        <path class="cls-2" d="M41.5,123.71c-2.4-1.11-1.69-3.74-.84-5.63.46,1.45.9,2.91,1.34,4.38,1.48-.22,3.2-.02,4.39-1.13.41-.62,1.22-1.87,1.63-2.49l1.03.63c-.83,3.14-4.25,6.47-7.55,4.24"/>
        <path class="cls-4" d="M56.39,129.9c.08,1.2.16,2.41.25,3.63.38-.01,1.13-.02,1.51-.03-.45-.96-.87-1.9-1.3-2.84,6.68.09,13.41-.06,20.05.58,2.04.8.74,2.86-.14,4.03-.02-.91-.06-2.74-.08-3.66-4.49.12-8.97.35-13.45.57-1.14,0-2.27.17-3.2.86,4.05.43,8.13.76,12.18,1.25-5.05-.07-10.06.83-15.1.7-2.51-.41-2.03-3.58-.72-5.09"/>
        <path class="cls-4" d="M59.57,139.88c1.12.35,2.87-.14,3.25,1.42,1.71.54,3.48,1,5.03,1.93-2.85.12-5.7.1-8.53.4.07-1.26.16-2.51.25-3.75"/>
        <path class="cls-4" d="M58.72,145c4.4.25,9.02-.23,13.26,1.2-4.68.45-9.38.71-14.07.71.2-.48.61-1.43.81-1.91"/>
        <path class="cls-4" d="M55.21,150.15c3.53-1.29,7.39-.62,11.07-.66,3.89.28,7.85-.25,11.69.55,2.33,1.56,1.63,4.9-.67,6.08.56-1.28,1.16-2.55,1.8-3.79-.44-.37-1.31-1.11-1.74-1.48-7.36-1.1-14.69.86-22,1.45-.01.33-.01.99-.02,1.32.42-.32,1.25-.96,1.67-1.28,5.71-.78,11.39.64,17.09.92-5.75.23-11.5.42-17.23.86,4.01,1.33,8.35.53,12.5,1.07-4.47.65-9.17,1.42-13.61.26-2.38-.46-2.71-4.35-.55-5.3"/>
        <path class="cls-4" d="M56.89,160.92c4.38-.24,8.75.33,13.13.31l.05.53c-4.06.05-8.12.67-12.17.37-.25-.3-.75-.9-1.01-1.21"/>
        <path class="cls-4" d="M55.91,165.52c2.24-1.13,4.87-.6,7.29-.63,4.35.37,8.73.04,13.08.37,1.47.61.64,2.36.44,3.53-.12-.78-.37-2.33-.49-3.11-4.99.71-10.06.9-14.94,2.25-2.08.17-5.91,1.1-5.38-2.41"/>
        <path class="cls-4" d="M59.2,172.99c1.13.09,2.27.18,3.42.28-.14,24.53-.04,49.06,0,73.59-.89.02-2.66.06-3.55.09.23-24.66-.22-49.31.12-73.96"/>
        <path class="cls-4" d="M64.15,173.47l1.43.07c-.16,24.39.11,48.79-.08,73.18l-1.38-.05c-.13-12.63.15-25.26.21-37.89-.26-11.77-.26-23.54-.18-35.31"/>
        <path class="cls-4" d="M57.68,249.36c3.61.05,7.24.09,10.81.75-1.09.91-2.39,1.29-3.88,1.14l.38,1.04c-2.41,0-4.81.03-7.21.07-.04-1.01-.08-2.01-.1-3"/>
        <path class="cls-4" d="M55.32,255.44c7.49-.31,15.02-.31,22.5.19-.15,2.72.68,5.82-.81,8.29-.21-2.63-.12-5.26-.11-7.88-4.95.45-10.1.07-14.86,1.69,1.47.33,2.96.66,4.45.99-.95.65-2.04.91-3.27.8l.15,1.34c.83.03,2.49.09,3.32.11-1.13,1.03-2.42,1.2-3.88.5l.25,1.45c1.57.07,3.15.2,4.73.4-3.87,1.54-8.29,1.03-12.3.34-.15-2.74-.15-5.48-.17-8.22"/>
        <path class="cls-4" d="M58.95,269.4c.93.02,2.77.05,3.7.07-.38,17.36-.31,34.74.02,52.1.28,0,.84-.02,1.12-.02.4-17.1-.14-34.22.42-51.31l1.21-.84c-.06,13.44-.06,26.89-.04,40.34-.03,5.29.36,10.65-.83,15.86-2.25-.2-5.52-.88-5.37-3.79-.26-17.47.08-34.95-.23-52.41"/>
        <path class="cls-4" d="M78.52,276.35c2.49,0,4.98,0,7.48-.04.03,2.14.07,4.28.12,6.43,3.81,0,7.62-.12,11.43-.13.03-2.16.04-4.29.02-6.43,6.12,0,12.25,0,18.37-.09-.1,4.59.49,9.24-.23,13.79-.96-4.1-.37-8.36-.64-12.53-5.51-.05-11.02,0-16.53,0,.02,2.14.07,4.28.16,6.43-4.35.13-8.71.16-13.04-.24-.22-2.03-.43-4.06-.62-6.07-2.19-.16-4.37-.26-6.55-.31.01-.2.02-.61.03-.81"/>
      </g>
    </g>
  </g>
</svg>