<?xml version="1.0" encoding="UTF-8"?>
<svg id="Layer_1" data-name="Layer 1" xmlns="http://www.w3.org/2000/svg" xmlns:xlink="http://www.w3.org/1999/xlink" viewBox="0 0 142.11 208.61">
  <defs>
    <style>
      .cls-1 {
        fill: none;
      }

      .cls-2 {
        fill: #16181a;
      }

      .cls-3 {
        clip-path: url(#clippath-1);
      }

      .cls-4 {
        fill: #fff;
      }

      .cls-5 {
        clip-path: url(#clippath);
      }
    </style>
    <clipPath id="clippath">
      <rect class="cls-1" width="142.11" height="208.61"/>
    </clipPath>
    <clipPath id="clippath-1">
      <rect class="cls-1" width="142.11" height="208.61"/>
    </clipPath>
  </defs>
  <g id="Artwork_15" data-name="Artwork 15">
    <g class="cls-5">
      <g class="cls-3">
        <path class="cls-2" d="M25.47,24.83C36.63,7.27,58.63-2.84,79.21.7c13.79,2.04,26.92,9.34,35.22,20.66,8.7,11.44,11.85,26.21,11,40.38,6.06,4.66,10.19,12.08,10.04,19.81-.94,6.96-3.02,14.06-1.12,21.07,2.73,10.94,7.5,21.54,7.63,33,1.37,21.33-8.35,42.77-24.69,56.4-12.84,11.27-30.12,16.86-47.1,16.58-20.68.25-41.22-9.68-53.88-26.02C5.51,169.21-1.25,152.07.19,134.71c.46-12.14,6.03-23.25,8.08-35.08,1.75-8.97-3.4-18.13.2-26.89,1.44-4.59,5.25-7.66,8.46-10.98-.77-12.75,1.34-26.14,8.54-36.93"/>
        <path class="cls-4" d="M26.99,30.41C36.77,11.18,60.32.18,81.31,5.42c13.39,2.87,26.18,11.43,31.9,24.16-3.92-5.27-7.99-10.58-13.49-14.31-7.45-5.24-16.59-7.46-25.56-8.04,8.37,2.44,17.38,4.31,24.16,10.22,9.91,8.27,17.46,20.93,16.46,34.18-.92-9.21-3.67-18.48-9.77-25.64-12.68-16.45-37.91-20.44-55.6-10.07-13.35,7.6-22.52,22.29-22.92,37.71-.35,1.88.56,4.39-1.57,5.46-.3-6.45.22-12.96,1.73-19.25-.21.09-.61.28-.81.37-2.28,5.89-2.98,12.2-3.04,18.47-.4.39-1.21,1.18-1.61,1.57-.24-10.19.63-20.81,5.8-29.84"/>
        <path class="cls-4" d="M63.15,12.58c10.33-2.19,21.17.64,30.12,5.96,13.15,8.37,20.63,24.31,19.61,39.76-.31-.03-.92-.1-1.23-.13-1-10.24-2.25-21.22-9-29.5-12.65-17.04-39.31-20.47-56.17-7.79-8.61,6.02-14.56,15.55-16.51,25.85-.67,3.84-.65,7.76-1.19,11.63-1.13-1.77-.42-3.85-.39-5.77.29-19.28,15.93-36.69,34.76-40.01"/>
        <path class="cls-4" d="M87.38,20.84c9.42,4.4,16.92,12.6,20.47,22.37,1.74,4.79,1.73,9.94,2.07,14.96-.5.08-1.51.24-2.02.32-.6-8.74-1.35-18.22-6.91-25.42-3.58-5.04-8.66-8.67-13.61-12.23"/>
        <path class="cls-4" d="M48.26,32.68c7.02-7.45,17.8-11.16,27.91-9.43,6.55,1.22,12.74,4.33,17.65,8.85,7.06,6.95,9.96,17.07,9.7,26.81-8.77,3.17-15.23,11.11-16.38,20.39-10.55-.58-21.12-.61-31.65,0-1.6-6.18-4.29-12.56-9.65-16.39-2.1-1.67-4.77-2.44-6.82-4.15-.88-9.5,2.43-19.33,9.24-26.07"/>
        <path class="cls-4" d="M11.67,77.53c1.61-8.95,10.45-15.77,19.49-15.37,5.75.48,11.62,2.77,15.27,7.42,3.16,3.89,4.01,8.94,4.79,13.74,13.22-.27,26.47-.5,39.72-.05.63-7.49,4.03-15.36,11.11-18.8,9.26-4.82,22.31-1.28,26.69,8.52,3.47,6.9-.21,14.41-.06,21.61-.43,11.49,5.73,21.7,7.28,32.87,1.67,7.95.75,16.06-.51,23.98-.51.25-1.53.73-2.04.98,2.3-9.45,2.78-19.83-.94-28.99,1.45,9.54,2.07,19.36-.52,28.77-2.36,9.18-7.08,17.59-12.36,25.38-.05-1.63-.17-3.24-.36-4.84,5.18-7.97,10.68-16.3,11.85-25.96,1.46-9.23.67-18.86-2.5-27.66-.97-2.49-2.39-5.63-5.43-5.87-4.33-.35-8.66.26-12.97.04-4.19-3.06-8.22-6.4-12.91-8.7-18.44-10.36-42.91-8.63-59.62,4.4-2.15,1.41-3.86,3.62-6.31,4.49-4.72.06-9.5-.81-14.16.11-2.01.97-3.01,3.13-3.92,5.03-4.88,12.08-4.93,25.93-.4,38.12,1.07,3.2,3.43,6.58,7.19,6.54,10.48.41,20.99,0,31.49.47,0,7.14-.11,14.29.08,21.44-4.93-1.98-9.63-4.46-14.54-6.47,4.3,3.75,9.75,5.77,14.81,8.25-.08.52-.23,1.56-.31,2.08-5.38-2.08-10.46-4.82-15.67-7.25,3.72,3.64,8.6,5.75,13.26,7.93,1.19.6,2.99.95,2.83,2.69-6.2-.71-11.59-4.72-17.07-7.5,3.9,4.48,9.69,6.69,14.95,9.18,1.23.36,2.08,1.28,2.51,2.5-7.46-1.5-13.81-6.1-20.38-9.69,5.39,5.3,12.42,8.42,19.13,11.68,1.13.57,1.98,1.59,2.83,2.53-17.45-4.23-32.71-16.35-41.27-32.08-4.59-8.04-8.01-17-8.21-26.35-1.1-12.09,2.81-23.8,6.46-35.14,1.44-4.46,1.9-9.18,1.87-13.84-.06-5.42-2.21-10.76-1.15-16.19"/>
        <path class="cls-2" d="M28.97,72.24c2.48-1.84.07-5.9,2.7-7.58.19,2.63.09,5.26.3,7.89,2.22-1.81,1.17-4.86,1.39-7.3,1.27.79,2.21,2.88,4.12,1.46-.05,2.73.41,5.61-.82,8.17-.52-2.54-.71-5.11-1.08-7.66-.93,1.77-1.02,3.82-1.34,5.75,1.23,1.27,3.03,2.59,2.7,4.63-.33,4.83.32,9.68-.3,14.49-1.54-3.55-.41-7.65-1.19-11.38-2.75,3.75-.72,8.84-1.76,13.16-1.42-3.39-.66-7.14-1.09-10.68l-1.07,1.02c-.38,4.15.32,8.4-.77,12.48-.58-4.15-.4-8.36-.48-12.53l-1.65-.16c-.29,3.66.56,7.58-.81,11.09-.25-3.81-.11-7.62-.26-11.43h-1.17c-.2,3.38.88,7.01-.52,10.21-.51-4.51-.18-9.16-1.71-13.49-1.02-2.85-.29-6.15,2.04-8.14l-1.49-.02c-.09-.71-.26-2.13-.35-2.84l-.69.43c-.53,4.54.01,9.12-.17,13.68-.13,4.08.65,8.38-.84,12.29-.76-8.97-.7-17.99-.96-26.98l.57-1.05c.57.17,1.72.49,2.29.66l.36-1.4c.4-.35,1.19-1.04,1.59-1.38.07,2.34.01,4.68-.07,7.02.39-.23,1.17-.68,1.56-.91-.11-2-.17-3.99-.22-5.98l1.77.07c-.22,2.13-.49,4.26-.58,6.41"/>
        <path class="cls-2" d="M99.68,70.24c3.22-4.04,8.73-4.71,13.55-4.13-3,.29-6.27-.13-8.83,1.77-6.14,3.2-9.17,10.44-8.73,17.14-2.64-5.12.67-10.86,4.01-14.78"/>
        <path class="cls-2" d="M115.73,66.69c4.04.35,8.07,2.21,10.08,5.91,4.77,7.67.55,16.78.85,25.08-2.72-6.13,1.3-12.7-.2-19-.9-4.36-3.25-9.14-7.77-10.62-1.03-.41-2.01-.86-2.96-1.37"/>
        <path class="cls-2" d="M38.36,67.21c2.45.7,1.51,3.46,1.73,5.33-.03,5.83.21,11.7-.5,17.5-.58-.67-.84-1.44-.79-2.31-.04-6.84-.19-13.68-.44-20.52"/>
        <path class="cls-2" d="M108.83,68.4c2.86-.55,5.79.15,8.58.82,5.13,1.68,7.66,7.74,6.37,12.78-.66-2.77-.9-5.77-2.71-8.09-2.73-3.94-8.18-6.35-12.76-4.22-3.61,1.25-4.9,5.17-7.09,7.94,1.57-3.63,3.08-8.53,7.61-9.23"/>
        <path class="cls-2" d="M40.97,68.82c.43.47,1.29,1.39,1.73,1.86.26,5.73.24,11.47-.09,17.2-1.19-2.21-.83-4.8-.98-7.2-.04-3.97-.7-7.9-.66-11.86"/>
        <path class="cls-2" d="M18.69,71.73c.57-.79,1.71-2.36,2.28-3.14-.49,6.68-.51,13.37-.44,20.07-.04,2.71.26,5.52-.75,8.11-.62-8.34-1.22-16.68-1.09-25.04"/>
        <path class="cls-2" d="M105.08,75.58c1.5-6.42,12.6-6.4,13.13.62.78-.53,1.57-1.04,2.39-1.54,1.91,3.71.78,9.09-3.46,10.53,1.96-2.79,3.44-5.94,3.11-9.48-2.16,2.64-1.65,7.1-5.11,8.7-5.31,2.65-12.22-3.07-10.06-8.83"/>
        <path class="cls-2" d="M43.37,71.31c1.87,1.57,2.73,3.88,3.43,6.17-.33.11-1.01.32-1.34.43-.02,3.72-.02,7.48-.59,11.17-.76-5.88-.96-11.86-1.5-17.77"/>
        <path class="cls-2" d="M15.35,80.69c-.25-2.97.84-5.82,2.72-8.08-.79,4.95-.96,9.96-.62,14.96.02,3.7.61,7.54-.66,11.11-.54-5.99-1.16-11.99-1.44-17.99"/>
        <path class="cls-4" d="M107.97,79.83c-.83-3.57,2.67-7.62,6.14-5.09-1.64,2.16-3.61,4.04-6.14,5.09"/>
        <path class="cls-4" d="M115.14,76.22c.42,3.08-2.19,4.83-4.83,5.44,1.93-1.52,3.9-3.06,4.83-5.44"/>
        <path class="cls-2" d="M46.83,87.79c-.52-3.33-1.75-7.2.36-10.2-.05,3.39.47,6.86-.36,10.2"/>
        <path class="cls-2" d="M45.93,89.53c5.5-2.65,11.65-3.99,17.75-3.67-5.44,2.01-11.66,1.4-16.79,4.38-.24-.18-.72-.53-.96-.71"/>
        <path class="cls-2" d="M68.51,85.97c4.08-2.57,9.81,2.44,7.64,6.81-.97,3.77-6.76,5.35-9.06,1.96-2.6-2.5-1.75-7.18,1.42-8.77"/>
        <path class="cls-2" d="M78.98,86.69c5.97-.29,11.83,1.79,17.38,3.79,4.09,1.71,8.1,3.94,11.11,7.27-6.14-3.48-12.36-7.02-19.29-8.66-3.08-.81-6.32-.95-9.2-2.4"/>
        <path class="cls-2" d="M90.85,85.72c5.84,1.51,11.57,3.89,16.72,7.03-3.51-.56-6.54-2.53-9.85-3.69-2.34-.99-5.12-1.34-6.87-3.34"/>
        <path class="cls-4" d="M67.63,90.58c1.04-1.63,2.98-3.5,5.03-2.15,2.71,1,.81,4.38-.63,5.73-.7.07-2.09.22-2.79.29,1.92-.59,5.19-2.2,3.79-4.65-1.96-2.15-2.95,1.39-4.22,2.52-.29-.43-.88-1.3-1.18-1.74"/>
        <path class="cls-2" d="M51.76,90.36c3.89-1,8.05-2.3,12.08-1.4-6.06,1.31-12.14,2.42-18,4.47,1.22-2.06,3.85-2.35,5.92-3.07"/>
        <path class="cls-2" d="M79.08,90.11c4.35-.79,8.63.92,12.74,2.17,6.03,2.31,12.16,5.22,16.47,10.18-4.89-3.01-9.68-6.26-15.11-8.22-4.51-2.01-9.42-2.71-14.1-4.13"/>
        <path class="cls-2" d="M44.79,96.58c5.27-3.7,12.21-5.1,18.58-4.58-6.27,1.21-12.45,2.78-18.58,4.58"/>
        <path class="cls-2" d="M79.99,93.03c5.7-.46,11.03,2.48,16.19,4.59,4.79,2.62,10.23,5.08,13.28,9.83-8.66-6.88-18.87-11.48-29.47-14.42"/>
        <path class="cls-2" d="M44.92,100.11c5.03-3.4,11.44-5.71,17.56-5-6,1.14-11.78,3.06-17.56,5"/>
        <path class="cls-2" d="M19.27,98.84c3.33-2.06,7.57,1.31,7.66,4.86.3,3.12-2.72,5.76-5.71,5.67-2.82.34-4.18-2.73-5.38-4.72-.22-2.41,1.27-4.79,3.43-5.81"/>
        <path class="cls-2" d="M116.61,100.01c2.38-2.81,7.46-1.93,8.9,1.42,1.52,3.21-.38,7.25-3.75,8.34-1.03-2.39,1.47-4.14,2.22-6.21-1.83,1.83-3.49,3.84-4.69,6.15-4.17-1.19-5.43-6.6-2.68-9.7"/>
        <path class="cls-4" d="M18.47,102.31c1.14-1.02,2.53-1.55,4.07-1.71-1.15,2.26-3.38,3.78-4.15,6.27.06-1.53.08-3.05.08-4.56"/>
        <path class="cls-4" d="M119.61,101.02c.59,0,1.78.01,2.37.02-.93,1.47-2.01,2.86-3.23,4.09-2.19.13-.79-3.93.86-4.11"/>
        <path class="cls-4" d="M54.07,105.69c1.5-.63,2.97-1.23,4.52-1.82,2.98,3.34,6.87,6.4,11.54,6.54,5.15.4,10.03-2.29,13.29-6.14,1.7.85,3.38,1.81,4.82,3.11-.71-.07-2.15-.2-2.86-.26.25.68.76,2.05,1.02,2.73-.73-.3-2.18-.91-2.9-1.22.22.77.66,2.3.89,3.07-.77-.39-2.31-1.16-3.08-1.54.23.8.68,2.39.91,3.19-.66-.49-1.96-1.46-2.62-1.95.13.77.39,2.29.51,3.05l-1.38-1.8c-.24.6-.72,1.8-.97,2.4l-1.75-1.75c.31,3.42-1.74,1.65-2.36.49-.13.47-.4,1.42-.53,1.89-1.01-2.64-2.86,1.3-3.73-1.18-1.06-.13-2.12-.3-3.13-.5l-.65,1.45c-.33-.63-.99-1.89-1.32-2.53-.5.35-1.5,1.03-2.01,1.38-.11-.62-.35-1.86-.46-2.48-.52.21-1.55.63-2.07.84-.02-.57-.07-1.7-.1-2.26-.56.21-1.68.63-2.24.84.14-.57.43-1.71.58-2.28-.45.01-1.34.03-1.79.04-.42-1.31-1.13-2.41-2.13-3.31"/>
        <path class="cls-4" d="M45.99,113.99c1.69-1.47,3.46-2.88,5.34-4.14-.4.75-1.19,2.25-1.59,3,.98-.36,2.95-1.06,3.94-1.42-4.92,3.76-8.91,8.91-10.11,15.1-1.04,6.26-.15,13.27,4.17,18.19-2.64,0-5.26.12-7.86.35-5.61-11.32-3.53-26.72,7.23-34.25-.28.79-.84,2.38-1.12,3.17"/>
        <path class="cls-4" d="M91.69,109.9c2.81.91,5.02,2.8,6.95,4.98-.53.85-1.04,1.7-1.53,2.56.56-.39,1.67-1.18,2.23-1.57.21.82.62,2.46.83,3.28-1.36-.06-2.63.21-3.82.79-1.74-3.51-4.31-6.47-7-9.27.9.36,2.72,1.08,3.62,1.43l-1.28-2.2Z"/>
        <path class="cls-4" d="M101.94,118.3c-1.19,1.11-2.77-1.85-1.03-2,.26.5.77,1.5,1.03,2"/>
        <path class="cls-4" d="M113.04,121.52c-.9-.77-.76-3.88.84-2.3.92.59.46,3-.84,2.3"/>
        <path class="cls-4" d="M114.95,118.17c.83.79,1.63,1.63,2.4,2.51,1.53,1.71,1.59,4.85,4.28,5.22.24,1.79-3.51,2.48-1.1,3.75.06.44.17,1.34.23,1.78l-1.72.85c.83,1.88,1.78,3.71,2.74,5.55.28,3.2.65,6.4.73,9.62l.62.03c-.13-3.31-.75-6.56-1.21-9.83,3.61,2.54,2.99,7.22,3,11.06-.15,1.96.11,4.15-1.07,5.86.09.46.26,1.38.34,1.84l-1.95-.82c.16.7.49,2.1.65,2.8h-1.12c-.24-1.81-.49-3.61-.6-5.41-.46.05-1.37.16-1.82.22.93-4.99,1.1-10.23-.79-15.03-2.36-6.49-6.31-12.3-8.36-18.9,3.55,2.18,3.67,7.04,6.81,9.56-.67-1.3-1.42-2.56-2.19-3.78.48-.81.98-1.6,1.51-2.38-.94-1.3-1.64-2.86-1.38-4.5"/>
        <path class="cls-4" d="M29.38,120.86c.36-.45,1.08-1.35,1.44-1.79l.32,1.81c.97-.37,1.96-.73,2.96-1.09-.16.66-.48,1.99-.64,2.65-1.45-.28-2.82-.87-4.08-1.58"/>
        <path class="cls-4" d="M55.13,123.61c.12-2.97,3.88-2.76,6.02-2.82,7.35.32,14.74-.13,22.08.29,4.85.8,2.81,7.36,2.58,10.75-1.29-2.42-.96-5.21-1.11-7.85-.32-.27-.95-.81-1.27-1.08-.07,2.06-.1,4.14-.2,6.21-1.83-1.3-.91-3.8-1.27-5.66l-1.21-.1c.05,1.35.16,2.71.25,4.07-6.05-6.68-19.22-5.01-22.24,3.84l-.85-.1c.31-2.63,1.1-5.15,2.01-7.63-2.75.74-2.23,4.03-2.19,6.19.51,4.66-1.45,9.85,1.41,14.05,1.92,2.68,3.2,5.66,3.55,8.98.26-1.35.55-2.69.84-4.03,1.57,2.86,4.61,4.39,6.58,6.88-4.07.84-7.75,3.81-8.19,8.14-.78,3.54,1.23,6.82,3.82,9.04-.07,8.47-.65,16.94-.14,25.41,1.78-1.77.06-4.61.27-6.79,3.42-.04,6.85-.21,10.29-.24.13-6.37-.29-12.74-.13-19.12,3.12-2.05,4.24-5.8,3.96-9.39,1.16,1.9,3.45,3.47,3.29,5.95.21,9.11-.46,18.24.27,27.34,1.38-1.71,1.05-3.99,1.16-6.03.16-7.3-.04-14.61.1-21.91l1.1.17c.14,9.46.76,19.01.06,28.41-2.33,2.52-6.57,2.01-9.71,2.85-.66-.61-1.31-1.2-1.95-1.78l2.21-.24c-.15-.98-.45-2.95-.6-3.94-.53,1.41-.13,3.4-1.77,4.13-.64-1.02-1.25-2.05-1.84-3.08.05.78.15,2.34.21,3.11.9.66,1.8,1.34,2.73,2.03-6.25.48-12.45-1.5-18.64-.42l.34-1.04c-.44-.12-1.33-.37-1.77-.49-.65-15.66-.14-31.37-.16-47.05.34-9.02-.3-18.04.11-27.05"/>
        <path class="cls-4" d="M98.69,121.43c1.45-.14,2.91-.29,4.39-.48v.39c-.55.55-1.63,1.65-2.17,2.2.96-.1,2.88-.32,3.85-.42-.85.64-1.74,1.22-2.66,1.72v.64s1.95-.16,1.95-.16c-.17.49-.5,1.48-.66,1.98l.85,1.68c-4.44-.88-.38,1.44.31,2.45-.7.06-2.08.17-2.78.23.73.61,1.48,1.22,2.25,1.84-.71.09-2.14.27-2.85.36.51.36,1.52,1.06,2.03,1.41-1.16.77-2.36,1.38-3.61,1.85.67,1.08,2.33,2.02,1.57,3.5-1.87-.12-3.35-1.32-4.9-2.18,2.44-5.31,4.41-11.2,2.43-17.01"/>
        <path class="cls-4" d="M20.51,122.01c2.75-.01,5.5.28,8.27.25.32.54.96,1.6,1.28,2.13-3.16-.78-6.85-.32-9.55-2.38"/>
        <path class="cls-4" d="M96.01,122.82c3.01-3,3.09,2.62,2.34,4.31-2.28.36-2.82-2.65-2.34-4.31"/>
        <path class="cls-4" d="M33.66,123.73c.35,1.62-4.22,1.37-3.11-.31.78.08,2.33.23,3.11.31"/>
        <path class="cls-4" d="M90.95,123.92c1.58-.4,3.18-.81,4.78-1.21-.25,1.82-.56,3.63-.92,5.44-1.01-.99-1.39-2.29-1.81-3.55-.09,1.44-.56,2.72-1.42,3.83-.25-1.51-.46-3.01-.63-4.51"/>
        <path class="cls-4" d="M20.04,125.88c2.18-1.33,4.83.05,7.19.03,2.22.57,5.22-.43,6.74,1.79-3.05.57-6.26-.55-9.16-.09.28.49.84,1.49,1.12,1.98-2.7-.04-5.96-1.61-8.31.21.7.12,2.08.35,2.77.47-.74,1.43-2.12,1.93-3.62,1.53.07-.7.21-2.09.28-2.79.32-.32.97-.97,1.29-1.29,1.74.07,3.52.41,5.27-.04-.87-1.02-2.06-1.62-3.57-1.8"/>
        <path class="cls-4" d="M62,140.61c-3-5.53,1.11-13.12,7.26-14,4.71-1.28,8.4,2.47,11.95,4.88,12.01,8.96,24.74,16.98,36.39,26.41-2.8,7.01-8.14,12.62-13.44,17.82-.82,1.21-2.13.78-3-.08-9.99-8.33-19.33-17.42-29.46-25.57-3.34-3.03-7.39-5.49-9.7-9.46"/>
        <path class="cls-4" d="M121.44,128.76c1.06-1.65,2.94,1.84.92,1.81-.23-.46-.69-1.36-.92-1.81"/>
        <path class="cls-4" d="M124.19,132.39c.9-1.13,1.77-2.31,2.67-3.46.27,3.39,1.15,6.68,1.73,10.02-3.19-1.84-6.12-4.29-7.79-7.63.85.26,2.54.8,3.39,1.07"/>
        <path class="cls-4" d="M27.24,129.7c1.87.1,3.73.19,5.62.27-1.17,2.02-1.67,4.09.69,5.29l-2.46-1.87c1.9,4.39-1.32,8.69-2.87,12.7.15-3.59,2.03-6.74,3.22-10.04-.39-.64-.77-1.27-1.14-1.9-.59,5.37-4.94,9.93-4.33,15.49l.85.94c.22-1.79.64-3.53,1.27-5.21-.09,4.28-1.62,8.37-2.65,12.49.07-2.48.73-4.87,1.14-7.3l-1.77-1.21c.07.99.2,2.95.27,3.94-.67-1.19-1.17-2.43-1.71-3.65.21,2.24.53,4.48.77,6.73-.17.02-.53.06-.71.07-.17-.52-.5-1.58-.67-2.11-.7,1.67-1.29,3.39-1.89,5.1-.95-.61-1.88-1.21-2.79-1.81,2.06-9.61,5.83-18.71,9.16-27.92"/>
        <path class="cls-2" d="M68.32,129.84c5.24-2.53,11.48,3.23,10.33,8.66-.82,5.2-8.5,7.86-12.09,3.84-3.94-3.3-3.34-10.68,1.76-12.5"/>
        <path class="cls-4" d="M67.56,134c2.42-3.7,8.81-.69,7.67,3.64l-2.19-2.48c-.21,1.79-.02,3.49,1.66,4.58-1.63-1.43-3.45-.77-5.19-.33.72-.67,1.46-1.31,2.17-2.01-.46-.43-1.4-1.29-1.87-1.73l.37,1.74-1.25.12-.88.26c-2.31.17-.93-2.61-.49-3.79"/>
        <path class="cls-2" d="M88.22,139.07c7.08,5.17,14.47,9.9,21.65,14.94,2.13,1.53,4.34,3.08,5.85,5.29-4.5-1.72-7.66-5.71-12.04-7.7-.88-1.59-2.53-2.7-4.31-2.89-.52-1.32-1.48-2.14-2.86-2.47l-.66.31.4-.38-.38-.47c-.8-1.19-2.35-2.3-3.79-1.64l.79-.95c-1.71-1.18-3.36-2.42-4.65-4.04"/>
        <path class="cls-4" d="M49.69,142.87c-.32-1.61.29-2.54,1.84-2.8-.07,1.71-.15,3.42-.23,5.14-2.23-.54-3.61-2.28-4.78-4.09.56.12,1.67.35,2.22.47l.95,1.28Z"/>
        <path class="cls-2" d="M88.07,142.02c1.34.65,2.64,1.36,4.01,2.04.66,1.15,1.67,1.75,3.04,1.8l.75-.16-.4.38.38.47c.76,1.14,1.99,2.34,3.52,2.16.29,1.9,2.4,3.4,4.31,2.89l-.86.76c2.44,1.61,4.91,3.22,7,5.31-2.03-.13-3.55-1.55-5.12-2.62-5.64-4.23-11.3-8.43-16.63-13.03"/>
        <path class="cls-2" d="M7.1,143.69c2.19,11.43,7.16,22.04,12.98,32.02-5.81-5.45-8.88-13.22-11.13-20.7-.97-3.7-1.9-7.47-1.85-11.32"/>
        <path class="cls-4" d="M92.08,144.06c1.44-.66,2.99.45,3.79,1.64l-.75.16c-1.37-.05-2.38-.65-3.04-1.8"/>
        <polygon class="cls-4" points="95.87 145.7 96.25 146.17 95.85 146.55 95.47 146.08 95.87 145.7"/>
        <path class="cls-4" d="M95.85,146.55l.66-.31c1.38.33,2.34,1.15,2.86,2.47-1.53.18-2.76-1.02-3.52-2.16"/>
        <path class="cls-4" d="M40.95,147.88c3.35-.27,6.74-.23,10.11.08-2.65,2.89-7.27,1.48-10.75,2,.16-.52.48-1.56.64-2.08"/>
        <path class="cls-4" d="M99.37,148.71c1.78.19,3.43,1.3,4.31,2.89-1.91.51-4.02-.99-4.31-2.89"/>
        <path class="cls-4" d="M37.26,150.96c2.23,1.15.95,3.86,1.32,5.8-1.51-.32-2.4-1.42-1-2.62-.08-.79-.24-2.38-.32-3.18"/>
        <path class="cls-4" d="M40.43,151.94c3.62.06,7.24-.19,10.88,0-.23.46-.69,1.38-.91,1.84-3.42.48-6.87.51-10.3.52.08-.59.25-1.77.33-2.36"/>
        <path class="cls-4" d="M133.03,152.72c.86-.17,1.74-.34,2.63-.51-1.48,1.41-1.65,3.52-2.38,5.32-3.68,10.32-9.52,20.01-17.64,27.43-7.28,6.12-15,12.82-24.62,14.61,4.83-2.45,9.97-4.42,14.19-7.91,3.96-3.36,7.85-6.81,11.97-9.97,7.62-8.04,13.46-18.12,15.85-28.97"/>
        <path class="cls-2" d="M79.17,153.83c9.27,5.53,16.98,13.23,25.23,20.12-2.64.7-4.41-1.8-6.26-3.15-6.22-5.78-12.96-10.97-18.97-16.97"/>
        <path class="cls-2" d="M101.5,155.13c.49.21,1.46.65,1.95.87l-.26.64c-1.43.36-1.99-.14-1.69-1.51"/>
        <path class="cls-2" d="M103.19,156.64c3.89,1.51,7.19,4.35,10.3,7.1-3.23-.13-5.3-2.99-7.73-4.72l-1.13,1.23.93-1.21c-.83-.78-1.62-1.58-2.37-2.4"/>
        <path class="cls-4" d="M22.36,157.85c.32.12.95.35,1.27.47l-.4.81-.94.04-.46-.79.53-.53Z"/>
        <path class="cls-2" d="M88.07,157.43c3.01,1.18,5.31,3.51,7.74,5.57,3.57,2.99,7.27,5.82,10.76,8.91-.47.09-1.42.27-1.89.35-5.99-4.4-11.23-9.74-16.61-14.83"/>
        <path class="cls-2" d="M101.06,157.9c1.44-.24,2.02.32,1.74,1.68-1.38.19-1.96-.37-1.74-1.68"/>
        <path class="cls-2" d="M109.82,157.67c1.83.69,4.15,1.94,4.55,4.15-2.19-.93-4.08-2.41-5.96-3.82l1.41-.33Z"/>
        <path class="cls-2" d="M94.13,158.67c3.85,2.45,7.15,5.66,10.94,8.21,1.12,1.05,3.32,1.69,2.83,3.62-5.28-2.92-9.61-7.49-13.77-11.83"/>
        <path class="cls-2" d="M98.38,158.91c1.31-.32,1.85.21,1.63,1.6l-.63.3c-.25-.48-.75-1.42-1-1.9"/>
        <path class="cls-2" d="M56.59,170.69c.2-3.68-.18-7.47.92-11.03.89,11.98,1.22,24.04.72,36.04l-1.37,1.13c-.78-8.68-.26-17.43-.27-26.14"/>
        <path class="cls-2" d="M102.8,159.58c.46.17,1.38.5,1.83.67,1.51.92,3.02,2.08,3.69,3.8-2.18-.98-4.28-2.39-5.52-4.47"/>
        <path class="cls-2" d="M100.01,160.51c2.27.68,3.94,2.48,5.54,4.16-2.47-.28-4.1-2.38-5.54-4.16"/>
        <path class="cls-4" d="M117.14,172.11c2.04-3.99,3.61-8.48,7.05-11.52-1.36,4.2-3.34,8.95-7.05,11.52"/>
        <path class="cls-2" d="M108.32,164.05c.99-.81,3.03.46,2.67,1.74-1.16.3-2.08-.11-2.74-1.24l.07-.5Z"/>
        <path class="cls-2" d="M105.55,164.67c1.42-.36,2.89,1.33,3.79,2.37-.85,1.5-4.3-.82-3.79-2.37"/>
        <path class="cls-2" d="M38.77,167.77c3.61.65,7.3.03,10.94.42.22.29.66.87.89,1.16-3.76.04-7.52-.22-11.25-.52.27.56.8,1.68,1.07,2.23,2.89,0,7.44-.86,9.04,2.27-3.23-.72-6.43-1.54-9.72-1.82-.32-1.26-.63-2.51-.97-3.74"/>
        <path class="cls-2" d="M80.87,179.67c.09-3.66-.25-7.41.86-10.96.43,9.39.51,18.82.08,28.21-.22-.26-.65-.77-.87-1.02-.27-5.41-.08-10.82-.07-16.23"/>
        <path class="cls-2" d="M60.2,169.21c.88,2.02.67,4.26.75,6.42.1,7.11.16,14.23.07,21.35l-1.23.04c.16-9.26-.37-18.57.41-27.81"/>
        <path class="cls-2" d="M25.67,171.28c3.91-1.79,8.33,2.47,7.42,6.47-.4,3.97-6.02,5.42-8.72,2.8-3.03-2.36-2.49-7.97,1.3-9.27"/>
        <path class="cls-2" d="M39.03,173c3.25.8,7.34.86,9.55,3.71-3.21-1.15-6.73-1.73-9.55-3.71"/>
        <path class="cls-4" d="M113.86,173.37c1.25-.34,3,1.46,1.54,2.44-1.2,1.47-4.58,1.48-4.03-.98.72-.66,1.55-1.14,2.49-1.46"/>
        <path class="cls-4" d="M24.66,177.13c-.87-2.45,2.66-4.73,4.64-3.09.84.58,1.26,1.57,1.89,2.37-1.74-.54-5.5-3.22-5.79-.05,1.49,1.16,3.03,2.26,4.51,3.46-2.11.03-4.01-1.05-5.25-2.69"/>
        <path class="cls-2" d="M62.81,174.28c.83,2,.65,4.21.79,6.33.07,5.75.42,11.5.2,17.25-1.08-.35-1.53-1.07-1.37-2.16,0-7.13-.29-14.31.38-21.42"/>
        <path class="cls-2" d="M113.52,174.9q.72.55,0,0"/>
        <path class="cls-2" d="M78.22,175.68h.78c.12,7.37.23,14.74-.19,22.1-.4-.98-.92-1.95-.82-3.04.02-6.35-.05-12.71.23-19.06"/>
        <path class="cls-4" d="M113.95,179.68c-1.67-.92,1.84-3.05,2.86-2.08.23,1.45-1.8,1.91-2.86,2.08"/>
        <path class="cls-4" d="M107.94,181.69c1.38-.7,2.77-1.43,4.22-2.05-1.37,1.76-2.93,3.36-4.39,5.02.04-.74.13-2.23.17-2.97"/>
        <path class="cls-4" d="M93.05,184.38c1.91-2.12,4.63-3.37,7.44-3.81-1.94,2.13-4.84,2.88-7.44,3.81"/>
        <path class="cls-4" d="M93.35,187.44c3.81-2.18,7.6-4.67,11.96-5.61-3.55,2.62-7.61,4.77-11.96,5.61"/>
        <path class="cls-4" d="M92.25,195.46c7.54-3.06,13.73-8.41,19.95-13.44l2.01.51c-6.18,5.67-13.51,11.27-21.96,12.93"/>
        <path class="cls-4" d="M106.33,183.08c.41.52.83,1.06,1.27,1.59-4.73,2.37-9.12,5.57-14.37,6.76,4.39-2.73,9.25-4.81,13.1-8.35"/>
      </g>
    </g>
  </g>
</svg>