<?xml version="1.0" encoding="UTF-8"?>
<svg id="Layer_1" xmlns="http://www.w3.org/2000/svg" version="1.1" viewBox="0 0 1814.68 441.84">
  <!-- Generator: Adobe Illustrator 30.5.1, SVG Export Plug-In . SVG Version: 2.1.4 Build 3)  -->
  <defs>
    <style>
      .st0 {
        fill: #2d2e2d;
      }
    </style>
  </defs>
  <path class="st0" d="M1586.6,376.34c8.44-.85,14.2,6.76,21.38,9.72,2.91,1.22,6.02,2.07,9.22,2.67-5.69-3.72-9.85-8.93-14.69-14.77-3.24-3.91-9.84-9.96-15.36-10.02-4.6-.05-6.82,4.5-4.33,8.39.97,1.53,2.36,2.9,3.79,4.01Z"/>
  <path class="st0" d="M1606.19,198.17c-.38,3.92-.16,8.02.65,11.89,1.21-.07,2.43-.14,3.64-.2,2.91-.16,5.8-.31,8.71-.47,3.64-8.07,2.26-18.78.3-27.21-8.04,2.61-12.46,7.3-13.31,15.99Z"/>
  <path class="st0" d="M1641.64,177.1c-1.17.2-2.36.39-3.53.6v1.78c1.18-.07,2.36-.13,3.53-.2v-2.18Z"/>
  <path class="st0" d="M1641.64,182.37c-1.17.06-2.34.13-3.53.2v4.48c1.18-.06,2.36-.11,3.53-.18v-4.49Z"/>
  <path class="st0" d="M1641.64,189.96c-1.17.07-2.34.13-3.53.18v3.92c1.18-.05,2.36-.09,3.53-.15v-3.95Z"/>
  <path class="st0" d="M1641.64,197.01c-1.17.06-2.34.1-3.53.15v4.83c1.18-.05,2.36-.09,3.53-.14v-4.84Z"/>
  <path class="st0" d="M1638.12,208.4c1.18-.07,2.36-.13,3.53-.2v-3.25c-1.17.05-2.34.09-3.53.15v3.3Z"/>
  <path class="st0" d="M1644.14,176.69v2.45c1.61-.09,3.23-.18,4.84-.28-.02-.94-.03-1.9-.06-2.85-1.6.22-3.2.44-4.78.68Z"/>
  <path class="st0" d="M1644.14,186.74c1.66-.08,3.32-.17,4.99-.25-.03-1.52-.06-3.02-.09-4.53-1.63.09-3.26.18-4.9.28v4.5Z"/>
  <path class="st0" d="M1644.14,193.81c1.7-.07,3.41-.14,5.11-.22-.02-1.33-.05-2.68-.07-4.01-1.69.08-3.37.17-5.05.25v3.98Z"/>
  <path class="st0" d="M1644.14,201.75c1.76-.07,3.5-.15,5.26-.22-.02-1.61-.06-3.22-.09-4.84-1.72.08-3.45.15-5.17.22v4.84Z"/>
  <path class="st0" d="M1644.14,208.08c1.79-.09,3.59-.2,5.39-.29-.02-1.06-.05-2.1-.06-3.16-1.78.08-3.56.15-5.33.22v3.23Z"/>
  <path class="st0" d="M1600.08,248.44c4.3,1.92,8.79,3.44,13.39,4.65h.05c.13.05.24.08.37.1,3.22.84,6.48,1.54,9.78,2.11h.01c.13-.02.25,0,.34.06h.01c7.88,1.36,15.92,2.06,23.75,2.53-9.7-4.77-15.83-13.53-13.46-26.2,1.71-9.12,7.83-16.54,15.77-20.85-14.96.8-29.94,1.6-44.91,2.39-.03.01-.07.01-.1.01-7.43.39-14.87.78-22.3,1.18-.1,2.48-.14,4.98-.13,7.46.02,4.55-.23,9.32,1.78,13.53,3.02,6.31,9.49,10.29,15.65,13.02Z"/>
  <path class="st0" d="M1629.71,421.39c6.08.75,12.42-1.74,16.55-6.21,5.99-6.49,4.76-13.85,2.53-21.54-2.2-7.61-1.92-15.33.22-22.9,2.29-8.14,8.33-16.46,2.42-24.5-4.88-6.64-13.74-8.85-21.56-8.94-4.3,3.16-9.77,3.54-15.5,3.2-9.35-.57-17.43,1.22-25.4,4.91,2.16,5.02,1.84,10.64-.68,15.47t-.01.02c.72,0,1.45.09,2.17.28,6.78,1.8,12.32,7.7,16.39,13.14,5.61,7.48,12.08,13.11,21.29,15.58h.03c.44.02.87.03,1.31.05,1.48.03.15,3.19-1.2,3.16-.36-.01-.7-.02-1.05-.03-.06,0-.1,0-.16-.01-.02,0-.03.01-.06,0-.02,0-.05-.01-.07-.01-5.86-.23-11.85-1.1-17.44-2.84-8.08-2.51-14.8-11.6-23.8-10.65-.01,0-.01.01-.01.01-.07.02-.14.03-.21.03-.03,0-.08-.01-.11-.01s-.08.01-.12.01c-3.92.54-5.87,5.62-3.75,8.98.72,1.16,1.92,1.9,2.93,2.77,1.31,1.1,2.49,2.18,3.39,3.54,9.53,1.67,18.78,7.15,25.48,13.95,5.25,5.32,8.24,11.56,16.4,12.56Z"/>
  <path class="st0" d="M1651.42,175.69c.02,1.01.05,2.02.06,3.03,1.55-.08,3.1-.17,4.64-.25-.02-1.11-.04-2.23-.08-3.34-1.54.18-3.08.37-4.62.56Z"/>
  <path class="st0" d="M1651.54,181.82c.03,1.51.06,3.02.09,4.54,1.56-.08,3.11-.16,4.68-.24-.03-1.53-.07-3.05-.11-4.56-1.55.08-3.1.17-4.65.26Z"/>
  <path class="st0" d="M1651.69,189.44c.02,1.36.05,2.7.08,4.05,1.56-.07,3.14-.13,4.71-.2-.03-1.37-.07-2.72-.1-4.09-1.56.08-3.13.16-4.69.24Z"/>
  <path class="st0" d="M1651.83,196.59c.02,1.61.06,3.23.09,4.84,1.59-.06,3.16-.13,4.75-.2-.03-1.61-.08-3.23-.12-4.84-1.57.07-3.15.13-4.72.2Z"/>
  <path class="st0" d="M1656.81,207.4c-.02-1.02-.05-2.05-.08-3.07-1.59.07-3.17.14-4.76.2.02,1.05.03,2.09.06,3.13,1.6-.08,3.18-.16,4.78-.25Z"/>
  <path class="st0" d="M1698.16,205.21c4.83-10.43,4.17-23.29-1.61-33.3-.02-.05-.03-.09-.05-.14-7.61.31-15.17.85-22.65,1.53-4.47,10.47-4.79,23,.4,33.18,7.96-.41,15.94-.84,23.9-1.26Z"/>
  <path class="st0" d="M1699.38,285.11c1.49.92,3.11,1.63,4.81,2.17,0,.01.01.01.02.01-4.9-7.23-5.84-18.82-6.5-26.68-3.17.17-6.32.33-9.47.49.01,8.98,3.3,19.16,11.14,24.01Z"/>
  <path class="st0" d="M1709.63,288.26c.08.06.14.13.2.21,1.99.24,4.06.35,6.13.35-2.7-4.76-3.46-11.01-4.24-16.16-.64-4.23-1.14-8.5-1.44-12.79-3.32.22-6.63.41-9.95.6t-.01.01c.76,8.87,2.16,22.51,9.32,27.79Z"/>
  <path class="st0" d="M1713.58,171.5c.03,1.23.07,2.46.1,3.7,1.48-.03,2.97-.06,4.45-.09-.02-1.17-.06-2.34-.09-3.53-1.48-.03-2.98-.07-4.46-.08Z"/>
  <path class="st0" d="M1713.77,178.33c.05,1.34.08,2.69.12,4.05,1.48-.03,2.97-.08,4.45-.12-.03-1.33-.07-2.68-.12-4.01-1.48.02-2.97.06-4.45.08Z"/>
  <path class="st0" d="M1713.98,185.49c.02,1.02.06,2.03.08,3.06,1.48-.06,2.95-.1,4.44-.15-.03-1.01-.06-2.01-.08-3.01-1.48.03-2.95.07-4.44.1Z"/>
  <path class="st0" d="M1714.15,191.64c.05,1.64.09,3.29.14,4.93,1.47-.06,2.94-.13,4.41-.18-.05-1.63-.08-3.26-.13-4.9-1.47.06-2.95.1-4.43.15Z"/>
  <path class="st0" d="M1718.91,204.1c-.05-1.54-.08-3.08-.13-4.61-1.47.06-2.93.13-4.4.18.05,1.55.09,3.1.13,4.65,1.47-.08,2.93-.15,4.4-.23Z"/>
  <path class="st0" d="M1719.74,288.72c2.34-.1,4.67-.29,6.87-.47-2.39-4.45-2.91-10.39-3.53-15.01-.63-4.71-1.07-9.48-1.29-14.24-2.72.23-5.45.44-8.17.63-.25.02-.52.03-.78.06.29,3.65.71,7.3,1.25,10.91.89,5.77,1.69,13.17,5.5,17.86.06.08.1.17.14.26Z"/>
  <path class="st0" d="M1720.57,171.65c.02,1.14.06,2.28.09,3.41,1.61-.02,3.22-.06,4.83-.08-.05-1.05-.09-2.08-.14-3.11-1.59-.08-3.18-.16-4.78-.22Z"/>
  <path class="st0" d="M1720.74,178.2c.03,1.33.07,2.67.1,4,1.66-.05,3.31-.08,4.95-.13-.06-1.32-.12-2.64-.17-3.96-1.63.03-3.25.06-4.88.09Z"/>
  <path class="st0" d="M1720.93,185.31c.02,1,.06,2,.08,2.99,1.69-.06,3.38-.11,5.07-.17-.05-.98-.09-1.95-.14-2.93-1.67.03-3.33.08-5.01.12Z"/>
  <path class="st0" d="M1721.09,191.42c.05,1.62.08,3.24.13,4.87,1.74-.08,3.47-.15,5.21-.23-.07-1.61-.14-3.22-.21-4.83-1.71.07-3.41.13-5.13.18Z"/>
  <path class="st0" d="M1726.77,203.69c-.07-1.52-.14-3.02-.21-4.53-1.75.07-3.5.15-5.26.22.04,1.53.08,3.06.13,4.59,1.78-.09,3.56-.18,5.34-.28Z"/>
  <path class="st0" d="M1700.95,233.16c.07-.22.1-.42.08-.62-.01-.06-.03-.11-.03-.17-.01-.06-.02-.13-.03-.17-2.08-11.94-30.82-11.16-30.99,1.53-.16,12.48,29.05,11.7,30.98-.56Z"/>
  <path class="st0" d="M1636.59,231.95c-2.45,15.85,10.15,24.22,24.28,26.47.1.01.2.06.27.09h.03c6.9.2,13.81.17,20.69-.18h.05c8.04-.4,16.09-.86,24.14-1.4,2.92-.2,5.87-.39,8.83-.6,3.98-1.75,7.87-3.59,11.09-6.62,7.07-6.65,7.75-16.9,4.38-25.65-3.72-9.69-13.85-15.95-24.11-16.19-11.07.6-22.12,1.18-33.19,1.77-.18.08-.36.1-.51.02-4.22.23-8.42.45-12.64.68-11.28,1.93-21.5,9.94-23.32,21.62ZM1683.46,217.73c10.07-.79,29.59,1.64,31.01,14.69.06.13.08.31.07.55,0,.13-.01.24-.05.37-1.04,11.28-14.88,15.5-24.39,16.26-9.5.75-31.02-1.7-31.07-15.24-.06-11.53,15.51-15.92,24.43-16.63Z"/>
  <path class="st0" d="M1730.47,287.94c2.05-.15,4.14-.32,6.22-.55-2.63-7.98-4.17-16.57-4.17-25.04,0-1.47.05-2.93.14-4.39-2.76.3-5.53.57-8.3.83.18,3.54.49,7.08.92,10.61.68,5.7,1.14,13.88,5.01,18.56.07,0,.13-.01.18-.01Z"/>
  <path class="st0" d="M1727.9,172.01c.04.98.09,1.95.14,2.93,2.08-.05,4.17-.08,6.26-.11-.03-.78-.07-1.55-.1-2.33-2.09-.18-4.19-.36-6.3-.48Z"/>
  <path class="st0" d="M1728.18,178.06c.06,1.32.12,2.63.17,3.95,2.08-.06,4.16-.1,6.25-.16-.06-1.3-.11-2.61-.17-3.91-2.08.03-4.17.08-6.25.11Z"/>
  <path class="st0" d="M1728.49,185.13c.05.98.08,1.94.13,2.91l6.24-.21c-.05-.95-.08-1.91-.13-2.85-2.08.05-4.16.1-6.24.15Z"/>
  <path class="st0" d="M1728.75,191.15c.07,1.6.14,3.19.21,4.8,2.08-.09,4.15-.18,6.23-.28-.07-1.57-.14-3.16-.21-4.75-2.07.08-4.15.15-6.23.22Z"/>
  <path class="st0" d="M1732.47,203.38c1.01-.06,2.03-.1,3.04-.16-.07-1.48-.13-2.95-.2-4.44-2.07.09-4.14.17-6.22.26.07,1.51.14,3,.21,4.51,1.05-.06,2.1-.11,3.16-.17Z"/>
  <path class="st0" d="M1739.66,286.99c1.33-.18,2.65-.41,3.96-.69-1.97-5.25-3.06-10.93-2.94-16.38.09-4.91,1.44-9.43,3.69-13.45-3.09.45-6.18.85-9.3,1.2-.48,9.91,1.3,20.03,4.57,29.33,0-.01.01-.01.01-.01Z"/>
  <path class="st0" d="M1647.48,290.66c-.24-4.5-3.29-8.31-7.83-9.09-4.86-.82-9.89,2.53-9.93,7.71-.06,10.58,17.13,12.92,17.76,1.38ZM1638.65,286.27c2.23.39,3.8,2.25,3.93,4.49-.29,5.25-8.56,3.33-8.44-1.38.06-2.33,2.4-3.48,4.5-3.11Z"/>
  <path class="st0" d="M1576.9,348.35c3.17-.53,6.22-2.24,9.24-4.03.57-.34,1.14-.69,1.71-1.02,2.08-1.24,4.16-2.41,6.27-3.19,8.35-3.05,16.21-2.64,24.93-2.47,7.64.15,14.66-4.05,15.06-12.3.31-6.39-3.53-11.81-9.79-13.25-5.17-1.18-10.83.51-11.19,6.5-.08,1.29-2.61,3.38-2.48,1.38.84-13.83,19.62-15.09,24.7-3.11,2.26,5.34,1.41,11.76-1.79,16.54-.2.29-.39.57-.6.84,12,.87,26.11,8.03,23.34,22.12-1.53,7.77-5.87,14.36-6.48,22.51-.62,8.38,3.76,15.54,3.55,23.7-.22,9.18-6.37,17.39-14.87,20.65-4.16,1.6-8.8,1.97-13.1.68-5.54-1.67-8.27-5.63-11.82-9.84-6.01-7.11-14.89-13.05-24.16-15.42,1.3,4.99.69,10.83,1.8,15.82,1.56,6.96,4.79,13.62,10.69,17.9,7.68,5.6,17.61,5.77,26.72,6.37,8.91.57,18.57,1.09,27.16-1.83,10.49-3.56,12.31-12.28,11.94-22.41-.32-9.1-2.33-18.16-1.84-27.29.52-9.46,4.01-17.97,9.03-25.91,1.13-1.77,2.92-.75,1.79,1.03-4.57,7.24-7.85,14.87-8.34,23.5-.33,5.95.48,11.87,1.1,17.78,1,9.49,2.63,21.28-3.71,29.38-1,1.28-2.13,2.37-3.36,3.31,22.18,7.12,49.06,8.29,70.26-1.79-5.25-5.76-6.79-13.94-5.29-22.67,1.2-6.88,4.91-13.99,10.47-18.49-1.77-1.67-3.39-3.53-4.83-5.61-13.46-19.56-8.27-47.54-4.76-69.35,1.83-11.41,7.4-21.43,17.62-26.96-.4-.77-.78-1.56-1.13-2.37-5.04,1.2-10.32,1.71-15.49,2.06h-.01c-.14.05-.27.06-.4.02t-.01,0c-.39.03-.77.06-1.15.08-9.77.63-22.38,2.28-30.92-3.69-8.06-5.63-11.29-16.77-10.97-26.28-1.7.08-3.4.16-5.1.25h-.05c-.87.05-1.75.07-2.63.1-15.54.51-31.21-.02-46.63-1.99-2.49-.32-5.14-.67-7.87-1.08-1.06,1.43-2.03,2.92-2.91,4.46-.68,1.2-2.07,3.11-2.03,4.5.08,2.56,1.92,2.37,4.16,2.11,7.65-.84,14.89-3.34,22.66-1.68,8.65,1.85,15.65,9.17,23.43,13.19,5.01,2.6,10.19,4.96,15.48,6.95,1.25.47-.37,3.49-1.72,2.98-7.33-2.75-14.54-6.14-21.27-10.14-4.76-2.83-8.95-7.08-14.17-9-5.83-2.14-12.17-1.51-18.15-.44-3.65.64-13.24,4.18-12.99-2.41.14-3.73,2.75-7.68,5.16-10.91-2.59-.43-5.22-.92-7.86-1.52h-.01c-6.11,15.12-19.08,23.9-31.19,34.2-7.09,6.03-11.11,13.81-14.16,22.58-2.8,8.09-4.8,17.61-2.26,26.03,1.54,5.1,5.37,9.89,11.24,8.91ZM1699.4,361.27c1.82-1.33,1.89,1.52.68,2.4-20.28,14.97-18.46,44.47-7.89,64.81.62,1.21-1.48,3.88-2.14,2.61-11.47-22.09-12.51-53.67,9.35-69.82ZM1618.6,281.34c9.12-4.71,20.86-6.33,30.63-2.93,8.66,3.02,16.03,8.85,24.9,11.72,3.88,1.26,7.95,2.36,12.03,2.79,1.53.16.14,3.29-1.18,3.15-6.07-.64-12.09-2.4-17.82-4.8-10.07,6.65-29.68,19.03-40.68,7.77-3.92-4.01-5.6-10.3-5.61-15.9-.75.32-1.48.68-2.22,1.06-1.82.93-1.22-2.24-.05-2.85Z"/>
  <path class="st0" d="M1782.66,200.71c-.55-4.86-2.29-9.84-4.95-13.81-4.67-6.95-12.17-9.19-19.94-10.87-.45-.1-.91-.18-1.36-.28-1.77,8.75-.56,18.23,3.36,26.18,7.63-.41,15.26-.82,22.89-1.22Z"/>
  <path class="st0" d="M1767.72,405.21c-2.53-.24-5.06-.61-7.55-1.1-.88,1.51-1.6,3.16-1.94,4.84-1.3,6.44,4.23,8.45,9.55,9.41,4.34.79,10.48,1.84,14.41-.87,3.86-2.67,2.73-8.4,1.84-12.26-.02-.14-.02-.29,0-.44-5.36.91-10.94.93-16.31.43Z"/>
  <path class="st0" d="M1746.9,286.43c.54,1.25,1.13,2.47,1.77,3.64,3.43-1.48,6.98-2.39,10.58-2.92-2.68-6.91-3.94-15.25-1.45-22.21,2.86-8.01,11-12.56,19.16-13.33,6.78-.63,16.8,1.91,16.61,10.45-.17,8.02-8.33,11.99-15.35,11.85-1.49-.02-.16-3.17,1.18-3.15,4.24.08,9.64-1.05,11.23-5.62,1.26-3.62-.8-6.64-3.81-8.47-4.75-2.9-11.38-2.42-16.41-.69-13.65,4.68-12.93,19.59-8.07,30.79,2.46-.24,4.94-.34,7.43-.38h.01c9.37-.13,19.96.62,28.68,4.68,10.46-9.23,11.38-24.41,4.98-36.48-2.7-5.1-7.1-8.83-12.22-11.15-1.03-.47-2.11-.88-3.21-1.24-4.22-1.38-8.77-1.87-13.15-1.47-9.46.87-19.03,5.14-25.13,12.04-.92,1.03-1.77,2.14-2.52,3.3-2.76,4.24-4.3,9.26-4.01,14.92.25,4.96,1.47,10.14,3.44,14.87.16.11.24.32.25.57Z"/>
  <path class="st0" d="M1615.63,180.67c13.59-5.79,29.64-7.37,44.16-9,12.65-1.43,25.39-2.31,38.13-2.65.16-.06.32-.07.47-.01,5.99-.16,11.97-.21,17.96-.11,16.39.25,33.64.91,49.43,5.73,11.83,3.61,18.69,13.83,19.47,25.95,7.49-.4,14.97-.79,22.47-1.2-1.18-7.85-3.93-15.38-8.31-20.86-11.63-14.57-32.72-18.53-50.2-20.32-22.24-2.28-44.76-1.01-67,.72-9.94.78-19.87,1.72-29.81,2.54-10.8.87-21.66,1.18-32.27,3.6-9.39,2.14-18.86,5.87-25.56,13.05-6.55,7.01-9.49,16.38-10.85,25.68-.37,2.51-.62,5.01-.78,7.53,7.04-.37,14.09-.75,21.13-1.13-1.85-11.09.23-24.71,11.55-29.53Z"/>
  <path class="st0" d="M1758.55,205.08c-.18.08-.36.1-.51.03-13.23.7-26.45,1.4-39.67,2.1,8.22,3.73,14.35,11.31,15.93,20.66.3,1.8.45,3.53.45,5.18,0,10.15-5.49,17.57-13.7,22.8.75-.05,1.48-.1,2.23-.16h.01c.22-.1.41-.13.57-.05h.01c3.47-.29,6.95-.59,10.43-.94.28-.15.53-.2.7-.07,0,0,0-.01.01-.01,3.82-.39,7.63-.85,11.43-1.38,9.79-13.33,30.07-19.66,45.47-13.24,6.58-4.04,12-9.6,14.42-17.43,1.84-5.94,2.43-13.07,1.73-20.13-9.4.5-18.8,1-28.2,1.5-7.11.38-14.23.75-21.34,1.13Z"/>
  <path class="st0" d="M1803.09,395.56c-1.9,1.86-3.98,3.42-6.18,4.7h-.01c8.8,6.55,12.76,19.52,3.53,27.8-7.62,6.83-21.54,6.61-31.07,6.27-9.92-.33-26.17-1.49-30.79-12.19-3.5-8.1,1.21-17.21,6.95-23.26h0c-2.08-1.16-4.07-2.48-5.91-4-9.68,6.54-12.66,21.34-8.62,31.79,1.01,2.62,2.61,4.76,4.6,6.49.24.02.39.17.46.39,7.02,5.8,18.51,7.06,26.82,7.45,12.08.57,25.01-.36,36.66-3.8,8.49-2.51,14.14-9.25,14.63-18.21.52-9.27-4.31-17.48-10.62-23.87l-.45.45Z"/>
  <path class="st0" d="M1779.86,338.53c-4.91-.84-9.99,2.55-10.02,7.78-.06,10.7,17.3,13.03,17.93,1.39-.24-4.55-3.32-8.4-7.91-9.17Z"/>
  <path class="st0" d="M1776.4,327.7c-9.18.99-16.31,9.32-16.28,18.48.03,10.06,8.79,18.11,18.84,17.1,9.43-.95,15.7-9.16,16.25-18.19.02-.09.03-.2.02-.29.01-.18,0-.32-.03-.44-.69-9.77-8.57-17.76-18.79-16.66ZM1762.61,344.8c.03-9.18,8.87-15.46,17.57-13.74,7.36,1.44,12.22,7.81,12.56,15.12-.93,19.59-30.2,17.16-30.13-1.38Z"/>
  <path class="st0" d="M1797.82,294.5c-.47.18-.75-.03-.87-.43-8.62-4.1-19.14-4.65-28.36-4.54h-.01c-7.14.1-14.3.83-20.8,3.79-.01.01-.02.02-.03.02-.07.02-.15.06-.23.1-.85.39-1.68.82-2.5,1.3-13.12,7.58-14.4,22.25-16.2,35.83-2.64,20.03-4.77,46.3,12.08,60.96.05.02.07.05.1.08.33.3.68.59,1.02.86,10.58,8.47,25.89,10.87,39.07,9.68,11.71-1.07,21.88-6.59,27.19-17.35,4.53-9.2,5.49-19.88,5.91-29.99.37-9.22.72-18.57.36-27.79-.37-9.43-2.02-19.44-8.71-26.6-2.33-2.49-5.05-4.44-8-5.93ZM1807.84,368.79c-2.99,18.55-16.94,27.19-34.69,27.42-12.62.15-27.53-1.78-34.54-13.73-5.16-8.79-4.98-19.73-4.79-29.59.31-16.81-1.13-38.23,11.68-51.24,14.86-15.11,46.83-10.6,58.33,6.56,11.45,17.08,7.07,41.62,4.02,60.59Z"/>
  <path class="st0" d="M14.88,245.7c-.46,2.59-.93,5.17-1.39,7.76,3.2.82,6.3,1.42,9.56,1.11.03-.2.07-.38.1-.57,0-.15.03-.3.07-.45.33-1.88.65-3.77.98-5.65-1.37-.14-2.72-.29-4.09-.47-2.07-.26-3.8-.87-5.23-1.72Z"/>
  <path class="st0" d="M32.99,253.38c.34-1.6.7-3.19,1.05-4.79-2.53-.11-5.05-.28-7.55-.49-.23,1.31-.46,2.61-.68,3.92,2.39.46,4.78.91,7.18,1.37Z"/>
  <path class="st0" d="M63.03,245.47c-2.9-.66-5.73-1.56-8.48-2.65-5.84-2.3-11.26-5.49-16.5-8.92-4.76-3.13-17.64-15.07-23.13-8.24-5.87,7.27-2.88,17.4,6.39,18.62,9.85,1.28,19.94,1.31,29.86,1.36,3.95.02,7.92,0,11.87-.16Z"/>
  <path class="st0" d="M28.25,270.94c4-1.78,7.84-3.9,11.69-5.98,8.89-4.83,17.39-10.39,25.48-16.46-1.09.11-2.21.18-3.29.23-8.3,3.78-16.59,7.56-25.02,11.06-5.09,2.11-10.19,3.25-15.66,3.98-2.39.32-5.32.32-7.54,1.33-3.25,1.47-4.03,6.68-.64,8.71.45.26.94.45,1.47.57.17-.03.32-.01.44.09,4.13.72,9.96-2.15,13.08-3.54Z"/>
  <path class="st0" d="M57.07,57.56c-3.02,2.64-5.03,6.14-6.35,10.04,7.15-.45,14.28-.9,21.43-1.33.71-.05,1.44-.09,2.16-.14-1.94-5.5-.95-12.23.49-17.88-6.34,2.16-12.73,4.94-17.73,9.31Z"/>
  <path class="st0" d="M79.02,46.86c-.59.18-1.17.38-1.77.57-1.39,5.29-2.68,13.27.26,18.5,7.26-.45,14.51-.91,21.78-1.36-2.33-6.9-1.47-15.36-.48-22.49-6.68,1.23-13.31,2.76-19.79,4.77Z"/>
  <path class="st0" d="M109.59,40.34c-2.79.4-5.6.84-8.39,1.32-1.01,7.22-1.95,16.24,1.21,22.72,6.58-.4,13.18-.82,19.77-1.22-3.03-7.02-1.94-16.81-1.14-24.2-3.83.4-7.64.85-11.45,1.38Z"/>
  <path class="st0" d="M116.2,78.55c-.01,1.13.39,2.37.93,3.3.06.1.09.21.11.32,2.32-.13,4.65-.26,6.98-.39.74-2.33,1.11-5.88-2.07-6.26-2.02-.23-5.92.45-5.95,3.03Z"/>
  <path class="st0" d="M135.58,74.33c-2.34.34-3.21,1.33-2.7,3.62.22,1.02.61,2.05,1.13,2.94.06.09.09.21.11.32,2.17-.13,4.36-.25,6.53-.37.45-3.39-.93-7.12-5.07-6.52Z"/>
  <path class="st0" d="M123.42,38.72c-.83,7.57-1.9,17.98,2.16,24.22,7.52-.46,15.03-.93,22.55-1.4-3.14-7.42-2.77-16.41-1.15-24.22-7.87.17-15.73.64-23.56,1.4Z"/>
  <path class="st0" d="M18.47,209.66c6.7-1.59,12.5-4.87,19.66-4.48,5.36.29,8.83,4.62,13.84,5.95,9.23,2.46,21.83-2.96,23.1-13.23,1.44-11.57-17.36-22.16-21.36-7.84-.39,1.39-3.02,2.77-2.42.62,2.8-10.02,13.65-14.09,21.73-6.58,6,5.57,5.77,14.45,1.48,20.95-4.77,7.26-14.62,11.2-23.13,9.35-3.65-.78-6.25-3.02-9.49-4.68-4.36-2.24-9.48-1.48-14.09-.29-1.92.49-3.73,1.07-5.5,1.61.92,3.13-.1,6.7-1.57,9.64,4.96.33,10.46,4.44,14.78,7.34,6.61,4.46,13.33,8.85,20.79,11.79,4.13,1.63,8.35,2.36,12.62,3.45.77.2,2.38.36,2.85,1.13.77,1.23.3,2.13-.85,2.77-.08.09-.16.17-.24.24-9.72,7.67-20.03,14.66-30.94,20.54-7.16,3.85-15.59,9.35-23.96,9.61-.17.01-.33-.02-.51-.02.02,7.89,3.44,16.2,10.88,19.64,8.16,3.76,18.39,3.07,27.16,3.28,6.45.15,11.28,1.22,17.1,3.71,10.07,4.32,22.8,4.55,33.56,4.57,12.93.03,27.03-1.11,38.77-7.04-.1-.21-.21-.4-.3-.61-3.62-8.19-3.29-18.26,1.93-25.67,1.82-2.57,4.08-4.78,6.64-6.67-5.21-8.96-7.94-19.85-9.49-29.9-4.05-26.37,1.71-52.89,12.93-76.82-4.22-3.64-6.96-8.72-7.13-15.57-.16-6.09,1.39-12.48,3.94-18.1-6.84.69-13.66,1.39-20.46,2.23-.7.08-1.41.14-2.11.22-12.72,1.45-25.86,1.3-38.6.32-15.69-1.2-32.09-3.96-46.45-10.84-8.37,9.95-17.47,19.5-25.35,29.81-7.83,10.25-13.32,23.77-16.46,36.19-1.32,5.25-2.85,11.89-.84,17.18,2.41,6.34,11.68,7.57,17.5,6.21ZM100.47,236.17c-1.85.47-3.7.95-5.56,1.44-.38.09-.84-.09-.9-.53-1.77-11.39-3.55-22.79-5.32-34.19-.16-1.05.57-2.6,1.79-2.6h4.77c.15-.02.29.01.39.13.17.14.24.37.23.64,2.02,10.84,4.06,21.69,6.09,32.52.18.99-.46,2.32-1.49,2.59ZM131.81,223.46c-6.9,3.14-13.79,6.29-20.67,9.42-.51.22-1.02.21-1.23-.4l-10.34-31.03c-.15-.45.07-1.08.42-1.6.18-.38.45-.7.76-.85,1.33-.67,2.68-1.33,4.02-2.01.49-.25,1.01-.18,1.22.39,2.73,7.63,5.47,15.26,8.21,22.88.29.82.51,1.93.9,2.82.85-.51,1.96-.8,2.88-1.18,3.54-1.45,7.09-2.91,10.64-4.36.44-.18.72-.23,1.09.11,1.05,1.03,2.09,2.06,3.14,3.08.74.71-.36,2.41-1.03,2.72ZM58.6,153.9c9.65-6.56,23.23-11.45,34.84-8.35,10.03,2.67,14.51,11.86,22.48,17.53.01.01.03.01.05.03.34.24.68.48,1.03.71,3.96,2.54,10.65,5.09,14.74,3.4,1.9-.79,1.29,2.33.06,2.84-6.5,2.68-12.08.22-17.12-3.82-13.26,7.46-30.22,13.27-44.39,4.78-5.52-3.31-10.42-8.65-12.86-14.68-.36-.88.52-2,1.17-2.45Z"/>
  <path class="st0" d="M87.39,171.52c6.19-.69,10.2-6.07,10.65-11.97.02-.1.03-.21.02-.31.01-.2-.01-.33-.05-.46-.55-6.23-5.54-11.23-12.12-10.46-5.95.7-10.57,6.34-10.53,12.27.06,6.39,5.56,11.64,12.02,10.93ZM91.86,158.9c.03.1.06.22.06.36s-.02.28-.06.41c-.31,2.77-2.21,5.46-5.15,5.77-2.86.31-5.15-2-5.18-4.8-.03-2.85,2.17-5.77,5.06-6.16,2.86-.4,4.96,1.75,5.27,4.42Z"/>
  <path class="st0" d="M146.98,76.92c.09,1.07.59,2.47.97,3.18.05.1.08.21.09.32,2.28-.13,4.54-.25,6.8-.39.08-.16.17-.39.2-.45.29-.72.53-1.47.61-2.24.23-2.36-1.49-3.32-3.67-3.41-2.21-.09-5.24.23-5,2.99Z"/>
  <path class="st0" d="M144.29,239.22c1.65,9.38,4.36,19.49,9.35,27.75,5.91-3.6,12.95-5.73,19.69-6.71-3.9-3.18-7.11-7.44-9.34-13.12-5.61-14.33-5.55-31.42-4.47-46.51.83-11.35,4.13-22.66,11.17-31.66-5.42-.93-10.53-2.73-14.58-5.64-10.89,23.7-16.38,49.93-11.81,75.89Z"/>
  <path class="st0" d="M149.27,37.27c-1.55,7.87-1.79,17.04,2.15,24.08,6.65-.41,13.3-.83,19.95-1.24-2.53-6.71-1.67-15.53-1.06-22.42-6.99-.39-14.02-.52-21.04-.41Z"/>
  <path class="st0" d="M193.04,268.29c-5.86-.92-11.38-2.61-16.17-5.52-.15.09-.31.15-.48.16-7.48.57-16.41,2.85-23.24,7.29-.13.1-.26.2-.39.25-6.17,4.14-10.5,10.11-10.24,18.32.39,12.09,7.93,20.55,20.24,18.81,4.94-.69,9.89-2.44,14.33-4.82-2.76-12.68,5.9-26.08,15.95-34.5Z"/>
  <path class="st0" d="M178.23,38.24c-1.85-.16-3.71-.26-5.57-.39-.64,7.09-1.39,16.11,1.94,22.05,7.47-.46,14.93-.92,22.4-1.38-2.61-5.57-2.86-12.56-2.55-18.54-5.63-.9-11.26-1.33-16.21-1.75Z"/>
  <path class="st0" d="M224.72,56.8c-5.38-10.04-16.46-14.28-27.86-16.39-.2,6.06.31,12.91,3.61,17.89,8.08-.51,16.16-1.01,24.25-1.51Z"/>
  <path class="st0" d="M212.72,269.23c-5.49.14-11.1.09-16.5-.51-5.85,4.33-11.19,10.18-14.45,16.66-6.41,12.81-.26,28.44,14.08,31.82,7.93,1.86,21.62.97,26.59-6.62,1.71-2.61,2.85-5.57,3.51-8.73.15-.71.28-1.42.37-2.16h0c1.45-10.64-2.1-22.96-7.45-30.96-2.02.28-4.08.44-6.15.49Z"/>
  <path class="st0" d="M146.53,125.76c.93-.09,1.86-.2,2.79-.3,7.71-.8,16.87-1.53,26.57-2.63-2.67-8.55-2.76-18.69,2.78-26.14,1.38-1.85,2.31.39,1.28,1.79-4.98,6.69-3.75,16.63-1.09,24.01,4.77-.57,9.65-1.25,14.54-2.07-1.21-12.6,1.88-25.83,14.59-31.21,6.06-2.55,13.35-3.17,19.89-2.14.47-2.71.8-5.44.97-8.14-7.49.43-14.99.85-22.48,1.28-52.54,2.98-105.08,5.95-157.62,8.94.12,1.8.28,3.54.45,5.17.15,1.45.34,2.92.56,4.38,6.69-1.79,14.31-2.22,20.98-.56,14.11,3.52,17.85,16.69,16.73,29.83,7.89.82,15.87,1.09,23.78.92-3.57-8.95-4.25-19.56,1.52-27.8,1.33-1.88,2.26.38,1.28,1.79-4.91,6.99-3.27,18.12.43,25.9,5.71-.21,11.37-.64,16.9-1.31,4.03-.49,8.08-.94,12.12-1.38-3.02-8.65-4.14-18.86-.54-27.44.68-1.62,3.08-1.92,2.18.2-3.55,8.48-1.83,18.64,1.39,26.91Z"/>
  <path class="st0" d="M228.94,75.84c.02-5.63-.8-11.08-2.83-16.05-7.23.45-14.47.9-21.7,1.36-51.53,3.19-103.05,6.39-154.57,9.58-1.16,4.94-1.41,10.3-1.25,15.34,7.49-.43,14.97-.85,22.46-1.28,14.34-.82,28.69-1.63,43.04-2.44-.34-1.17-.47-2.4-.29-3.59.62-3.96,4.32-6.06,8.04-6.39,5.72-.49,5.93,5.11,4.67,9.26,1.47-.08,2.94-.16,4.41-.24-1.31-3.85-.61-8.32,3.84-9.83,2.93-.99,6.23-.47,7.63,2.51.94,1.99,1.05,4.46.6,6.63.64-.03,1.29-.07,1.93-.11-.37-1.2-.53-2.46-.39-3.69.43-3.82,3.61-5.83,7.21-6.09,3.32-.25,6.4.98,6.42,4.68,0,1.48-.39,3-.98,4.41,23.93-1.36,47.84-2.71,71.76-4.07Z"/>
  <path class="st0" d="M238.62,104.96c3.88-12.35,6.71-25.27,5.55-38.29-1.2-13.3-7.45-28.34-19.92-34.73-16.81-8.62-38.69-9.03-57.14-9.42-24.37-.52-48.99,1.18-72.97,5.59-17.17,3.15-39.18,6.92-50.52,21.58-14.46,18.7-13.85,45.9-1.76,65.78,3.38,1.83,6.91,3.4,10.49,4.75-4.09-10.5-6.14-22.23-6.14-33.34.01-11.41,1.57-24.78,10.99-32.38,15.24-12.35,38.57-15.47,57.32-17.82,23.95-3,48.63-3.71,72.62-.79,16.24,1.98,34.05,5.61,40.89,20.97.05.06.08.14.1.22.86,2,1.56,4.18,2.03,6.6,3.2,16.19-1.7,34.65-8.48,49.62,6.14-2.24,11.87-4.96,16.93-8.32Z"/>
  <path class="st0" d="M173.2,166.04c.09-.1.17-.2.26-.29,9.27-9.72,23.71-15.63,37.22-15.25h.03c15,.51,30.6,4.33,40.51,16.2.63-3.31,1.21-6.64,1.69-10.02v-.03c.03-.18.07-.38.09-.57,1.91-13.46,2.37-27.28-.8-40.42-1.11-4.61-2.68-10.08-5.78-13.91-2,1.79-4.13,3.45-6.38,4.95-.18.18-.38.31-.59.39-8.98,5.9-19.61,9.72-29.88,12.38-18.3,4.72-37.12,6.71-55.93,8.62-2.39,4.94-3.86,10.71-3.88,16.15-.06,13.79,11.12,19.98,23.43,21.8Z"/>
  <path class="st0" d="M36.64,112.34c-10.38-21.85-8.15-49.13,8.23-67.47,12.22-13.68,35.21-17.32,52.24-20.29,26.26-4.57,53.3-6.21,79.91-4.92,11.29.55,22.66,1.61,33.69,4.15,7.12,1.64,15.01,3.8,20.65,8.71,20.29,17.64,17.08,47.15,10.11,70.43,10.93-8.22,18.02-19.81,17.94-36.39-.13-25.31-12.87-47.53-36.36-57.61C200.57-.71,174.56-.48,150.55.38c-20.6.75-41.46.8-61.98,3.08-20.23,2.24-42.28,7.07-57.33,21.78-15.81,15.46-21.57,43.04-13.97,63.76,3.69,10.06,10.79,17.66,19.38,23.34Z"/>
  <path class="st0" d="M241.9,259.33c-5.76,4.46-12.46,7.38-19.62,8.83,5.3,8.98,7.68,20.49,6.16,30.99,16.11,5.15,36.31-8.09,31.41-26.48-2.1-7.88-10.19-12.53-17.95-13.34Z"/>
  <path class="st0" d="M198.03,224.07c1.68,6.41,5.46,11.48,13.63,11.94,7.4.41,11.26-5.52,13.41-12.3-2.34.16-4.75.18-7.15.24-5.57.13-13.03.83-19.89.11Z"/>
  <path class="st0" d="M226.84,187.46c-2-7.19-6.42-12.64-15.35-12.11-.02,0-.05.01-.08.01-3.45.38-6.91,1.88-9.42,4.27-2.91,2.76-4.17,6.38-4.71,10.27.71-.2,1.44-.38,2.15-.55,6.77-1.59,17.82-3.13,27.42-1.9Z"/>
  <path class="st0" d="M228.21,220.12c7.39-1.15,13.95-4.29,14.99-13.2.56-8.85-5.5-13.3-12.79-15.28-.91-.26-1.84-.47-2.78-.64-2.7-.52-5.47-.74-8.06-.76-5.26-.05-14.51.45-22.56,2.6-.8.21-1.59.44-2.37.69-9.52,3.05-16.43,8.73-11.12,19.12,2.23,4.36,6.3,6.63,11.07,7.76.91.21,1.84.39,2.79.53,7.4,1.07,15.87.01,21.73-.13,2.23-.05,4.57-.14,6.87-.39.75-.08,1.49-.17,2.23-.29Z"/>
  <path class="st0" d="M254.93,158.75c-.54,3.48-1.18,6.93-1.86,10.33,8.95,12.56,10.61,29.6,9.64,44.57-.88,13.84-4.82,28.02-13.78,38.87-1.17,1.41-2.41,2.75-3.71,3.98,3.94.74,7.5,2.36,10.38,4.69,13.65-23.59,24.1-52.46,14.48-79.41-2.96-8.31-8.09-17.26-15.15-23.02Z"/>
</svg>