<?xml version="1.0" encoding="UTF-8"?>
<svg id="Layer_1" xmlns="http://www.w3.org/2000/svg" version="1.1" viewBox="0 0 273.81 318.03">
  <!-- Generator: Adobe Illustrator 30.5.1, SVG Export Plug-In . SVG Version: 2.1.4 Build 3)  -->
  <defs>
    <style>
      .st0 {
        fill: #2d2e2d;
      }
    </style>
  </defs>
  <path class="st0" d="M14.87,245.7c-.46,2.59-.93,5.17-1.39,7.76,3.2.82,6.3,1.42,9.56,1.11.03-.2.07-.38.1-.57,0-.15.03-.3.07-.45.33-1.88.65-3.77.98-5.65-1.37-.14-2.72-.29-4.09-.47-2.07-.26-3.8-.87-5.23-1.72h0Z"/>
  <path class="st0" d="M32.98,253.38c.34-1.6.7-3.19,1.05-4.79-2.53-.11-5.05-.28-7.55-.49-.23,1.31-.46,2.61-.68,3.92,2.39.46,4.78.91,7.18,1.37h0Z"/>
  <path class="st0" d="M63.02,245.47c-2.9-.66-5.73-1.56-8.48-2.65-5.84-2.3-11.26-5.49-16.5-8.92-4.76-3.13-17.64-15.07-23.13-8.24-5.87,7.27-2.88,17.4,6.39,18.62,9.85,1.28,19.94,1.31,29.86,1.36,3.95.02,7.92,0,11.87-.16h0Z"/>
  <path class="st0" d="M28.24,270.94c4-1.78,7.84-3.9,11.69-5.98,8.89-4.83,17.39-10.39,25.48-16.46-1.09.11-2.21.18-3.29.23-8.3,3.78-16.59,7.56-25.02,11.06-5.09,2.11-10.19,3.25-15.66,3.98-2.39.32-5.32.32-7.54,1.33-3.25,1.47-4.03,6.68-.64,8.71.45.26.94.45,1.47.57.17-.03.32-.01.44.09,4.13.72,9.96-2.15,13.08-3.54h0Z"/>
  <path class="st0" d="M57.06,57.56c-3.02,2.64-5.03,6.14-6.35,10.04,7.15-.45,14.28-.9,21.43-1.33.71-.05,1.44-.09,2.16-.14-1.94-5.5-.95-12.23.49-17.88-6.34,2.16-12.73,4.94-17.73,9.31Z"/>
  <path class="st0" d="M79.01,46.86c-.59.18-1.17.38-1.77.57-1.39,5.29-2.68,13.27.26,18.5,7.26-.45,14.51-.91,21.78-1.36-2.33-6.9-1.47-15.36-.48-22.49-6.68,1.23-13.31,2.76-19.79,4.77h0Z"/>
  <path class="st0" d="M109.58,40.34c-2.79.4-5.6.84-8.39,1.32-1.01,7.22-1.95,16.24,1.21,22.72,6.58-.4,13.18-.82,19.77-1.22-3.03-7.02-1.94-16.81-1.14-24.2-3.83.4-7.64.85-11.45,1.38Z"/>
  <path class="st0" d="M116.19,78.55c-.01,1.13.39,2.37.93,3.3.06.1.09.21.11.32,2.32-.13,4.65-.26,6.98-.39.74-2.33,1.11-5.88-2.07-6.26-2.02-.23-5.92.45-5.95,3.03Z"/>
  <path class="st0" d="M135.57,74.33c-2.34.34-3.21,1.33-2.7,3.62.22,1.02.61,2.05,1.13,2.94.06.09.09.21.11.32,2.17-.13,4.36-.25,6.53-.37.45-3.39-.93-7.12-5.07-6.52h0Z"/>
  <path class="st0" d="M123.41,38.72c-.83,7.57-1.9,17.98,2.16,24.22,7.52-.46,15.03-.93,22.55-1.4-3.14-7.42-2.77-16.41-1.15-24.22-7.87.17-15.73.64-23.56,1.4h0Z"/>
  <path class="st0" d="M18.46,209.66c6.7-1.59,12.5-4.87,19.66-4.48,5.36.29,8.83,4.62,13.84,5.95,9.23,2.46,21.83-2.96,23.1-13.23,1.44-11.57-17.36-22.16-21.36-7.84-.39,1.39-3.02,2.77-2.42.62,2.8-10.02,13.65-14.09,21.73-6.58,6,5.57,5.77,14.45,1.48,20.95-4.77,7.26-14.62,11.2-23.13,9.35-3.65-.78-6.25-3.02-9.49-4.68-4.36-2.24-9.48-1.48-14.09-.29-1.92.49-3.73,1.07-5.5,1.61.92,3.13-.1,6.7-1.57,9.64,4.96.33,10.46,4.44,14.78,7.34,6.61,4.46,13.33,8.85,20.79,11.79,4.13,1.63,8.35,2.36,12.62,3.45.77.2,2.38.36,2.85,1.13.77,1.23.3,2.13-.85,2.77-.08.09-.16.17-.24.24-9.72,7.67-20.03,14.66-30.94,20.54-7.16,3.85-15.59,9.35-23.96,9.61-.17.01-.33-.02-.51-.02.02,7.89,3.44,16.2,10.88,19.64,8.16,3.76,18.39,3.07,27.16,3.28,6.45.15,11.28,1.22,17.1,3.71,10.07,4.32,22.8,4.55,33.56,4.57,12.93.03,27.03-1.11,38.77-7.04-.1-.21-.21-.4-.3-.61-3.62-8.19-3.29-18.26,1.93-25.67,1.82-2.57,4.08-4.78,6.64-6.67-5.21-8.96-7.94-19.85-9.49-29.9-4.05-26.37,1.71-52.89,12.93-76.82-4.22-3.64-6.96-8.72-7.13-15.57-.16-6.09,1.39-12.48,3.94-18.1-6.84.69-13.66,1.39-20.46,2.23-.7.08-1.41.14-2.11.22-12.72,1.45-25.86,1.3-38.6.32-15.69-1.2-32.09-3.96-46.45-10.84-8.37,9.95-17.47,19.5-25.35,29.81-7.83,10.25-13.32,23.77-16.46,36.19-1.32,5.25-2.85,11.89-.84,17.18,2.41,6.34,11.68,7.57,17.5,6.21h-.01ZM100.46,236.17c-1.85.47-3.7.95-5.56,1.44-.38.09-.84-.09-.9-.53-1.77-11.39-3.55-22.79-5.32-34.19-.16-1.05.57-2.6,1.79-2.6h4.77c.15-.02.29,0,.39.13.17.14.24.37.23.64,2.02,10.84,4.06,21.69,6.09,32.52.18.99-.46,2.32-1.49,2.59ZM131.8,223.46c-6.9,3.14-13.79,6.29-20.67,9.42-.51.22-1.02.21-1.23-.4l-10.34-31.03c-.15-.45.07-1.08.42-1.6.18-.38.45-.7.76-.85,1.33-.67,2.68-1.33,4.02-2.01.49-.25,1.01-.18,1.22.39,2.73,7.63,5.47,15.26,8.21,22.88.29.82.51,1.93.9,2.82.85-.51,1.96-.8,2.88-1.18,3.54-1.45,7.09-2.91,10.64-4.36.44-.18.72-.23,1.09.11,1.05,1.03,2.09,2.06,3.14,3.08.74.71-.36,2.41-1.03,2.72h0ZM58.59,153.9c9.65-6.56,23.23-11.45,34.84-8.35,10.03,2.67,14.51,11.86,22.48,17.53.01,0,.03,0,.05.03.34.24.68.48,1.03.71,3.96,2.54,10.65,5.09,14.74,3.4,1.9-.79,1.29,2.33.06,2.84-6.5,2.68-12.08.22-17.12-3.82-13.26,7.46-30.22,13.27-44.39,4.78-5.52-3.31-10.42-8.65-12.86-14.68-.36-.88.52-2,1.17-2.45h0Z"/>
  <path class="st0" d="M87.38,171.52c6.19-.69,10.2-6.07,10.65-11.97.02-.1.03-.21.02-.31.01-.2-.01-.33-.05-.46-.55-6.23-5.54-11.23-12.12-10.46-5.95.7-10.57,6.34-10.53,12.27.06,6.39,5.56,11.64,12.02,10.93h.01ZM91.85,158.9c.03.1.06.22.06.36s-.02.28-.06.41c-.31,2.77-2.21,5.46-5.15,5.77-2.86.31-5.15-2-5.18-4.8-.03-2.85,2.17-5.77,5.06-6.16,2.86-.4,4.96,1.75,5.27,4.42Z"/>
  <path class="st0" d="M146.97,76.92c.09,1.07.59,2.47.97,3.18.05.1.08.21.09.32,2.28-.13,4.54-.25,6.8-.39.08-.16.17-.39.2-.45.29-.72.53-1.47.61-2.24.23-2.36-1.49-3.32-3.67-3.41-2.21-.09-5.24.23-5,2.99Z"/>
  <path class="st0" d="M144.28,239.22c1.65,9.38,4.36,19.49,9.35,27.75,5.91-3.6,12.95-5.73,19.69-6.71-3.9-3.18-7.11-7.44-9.34-13.12-5.61-14.33-5.55-31.42-4.47-46.51.83-11.35,4.13-22.66,11.17-31.66-5.42-.93-10.53-2.73-14.58-5.64-10.89,23.7-16.38,49.93-11.81,75.89h-.01Z"/>
  <path class="st0" d="M149.26,37.27c-1.55,7.87-1.79,17.04,2.15,24.08,6.65-.41,13.3-.83,19.95-1.24-2.53-6.71-1.67-15.53-1.06-22.42-6.99-.39-14.02-.52-21.04-.41h0Z"/>
  <path class="st0" d="M193.03,268.29c-5.86-.92-11.38-2.61-16.17-5.52-.15.09-.31.15-.48.16-7.48.57-16.41,2.85-23.24,7.29-.13.1-.26.2-.39.25-6.17,4.14-10.5,10.11-10.24,18.32.39,12.09,7.93,20.55,20.24,18.81,4.94-.69,9.89-2.44,14.33-4.82-2.76-12.68,5.9-26.08,15.95-34.5h0Z"/>
  <path class="st0" d="M178.22,38.24c-1.85-.16-3.71-.26-5.57-.39-.64,7.09-1.39,16.11,1.94,22.05,7.47-.46,14.93-.92,22.4-1.38-2.61-5.57-2.86-12.56-2.55-18.54-5.63-.9-11.26-1.33-16.21-1.75h0Z"/>
  <path class="st0" d="M224.71,56.8c-5.38-10.04-16.46-14.28-27.86-16.39-.2,6.06.31,12.91,3.61,17.89,8.08-.51,16.16-1.01,24.25-1.51h0Z"/>
  <path class="st0" d="M212.71,269.23c-5.49.14-11.1.09-16.5-.51-5.85,4.33-11.19,10.18-14.45,16.66-6.41,12.81-.26,28.44,14.08,31.82,7.93,1.86,21.62.97,26.59-6.62,1.71-2.61,2.85-5.57,3.51-8.73.15-.71.28-1.42.37-2.16h0c1.45-10.64-2.1-22.96-7.45-30.96-2.02.28-4.08.44-6.15.49h0Z"/>
  <path class="st0" d="M146.52,125.76c.93-.09,1.86-.2,2.79-.3,7.71-.8,16.87-1.53,26.57-2.63-2.67-8.55-2.76-18.69,2.78-26.14,1.38-1.85,2.31.39,1.28,1.79-4.98,6.69-3.75,16.63-1.09,24.01,4.77-.57,9.65-1.25,14.54-2.07-1.21-12.6,1.88-25.83,14.59-31.21,6.06-2.55,13.35-3.17,19.89-2.14.47-2.71.8-5.44.97-8.14-7.49.43-14.99.85-22.48,1.28-52.54,2.98-105.08,5.95-157.62,8.94.12,1.8.28,3.54.45,5.17.15,1.45.34,2.92.56,4.38,6.69-1.79,14.31-2.22,20.98-.56,14.11,3.52,17.85,16.69,16.73,29.83,7.89.82,15.87,1.09,23.78.92-3.57-8.95-4.25-19.56,1.52-27.8,1.33-1.88,2.26.38,1.28,1.79-4.91,6.99-3.27,18.12.43,25.9,5.71-.21,11.37-.64,16.9-1.31,4.03-.49,8.08-.94,12.12-1.38-3.02-8.65-4.14-18.86-.54-27.44.68-1.62,3.08-1.92,2.18.2-3.55,8.48-1.83,18.64,1.39,26.91h0Z"/>
  <path class="st0" d="M228.93,75.84c.02-5.63-.8-11.08-2.83-16.05-7.23.45-14.47.9-21.7,1.36-51.53,3.19-103.05,6.39-154.57,9.58-1.16,4.94-1.41,10.3-1.25,15.34,7.49-.43,14.97-.85,22.46-1.28,14.34-.82,28.69-1.63,43.04-2.44-.34-1.17-.47-2.4-.29-3.59.62-3.96,4.32-6.06,8.04-6.39,5.72-.49,5.93,5.11,4.67,9.26,1.47-.08,2.94-.16,4.41-.24-1.31-3.85-.61-8.32,3.84-9.83,2.93-.99,6.23-.47,7.63,2.51.94,1.99,1.05,4.46.6,6.63.64-.03,1.29-.07,1.93-.11-.37-1.2-.53-2.46-.39-3.69.43-3.82,3.61-5.83,7.21-6.09,3.32-.25,6.4.98,6.42,4.68,0,1.48-.39,3-.98,4.41,23.93-1.36,47.84-2.71,71.76-4.07h0Z"/>
  <path class="st0" d="M238.61,104.96c3.88-12.35,6.71-25.27,5.55-38.29-1.2-13.3-7.45-28.34-19.92-34.73-16.81-8.62-38.69-9.03-57.14-9.42-24.37-.52-48.99,1.18-72.97,5.59-17.17,3.15-39.18,6.92-50.52,21.58-14.46,18.7-13.85,45.9-1.76,65.78,3.38,1.83,6.91,3.4,10.49,4.75-4.09-10.5-6.14-22.23-6.14-33.34,0-11.41,1.57-24.78,10.99-32.38,15.24-12.35,38.57-15.47,57.32-17.82,23.95-3,48.63-3.71,72.62-.79,16.24,1.98,34.05,5.61,40.89,20.97.05.06.08.14.1.22.86,2,1.56,4.18,2.03,6.6,3.2,16.19-1.7,34.65-8.48,49.62,6.14-2.24,11.87-4.96,16.93-8.32v-.02Z"/>
  <path class="st0" d="M173.19,166.04c.09-.1.17-.2.26-.29,9.27-9.72,23.71-15.63,37.22-15.25h.03c15,.51,30.6,4.33,40.51,16.2.63-3.31,1.21-6.64,1.69-10.02v-.03c.03-.18.07-.38.09-.57,1.91-13.46,2.37-27.28-.8-40.42-1.11-4.61-2.68-10.08-5.78-13.91-2,1.79-4.13,3.45-6.38,4.95-.18.18-.38.31-.59.39-8.98,5.9-19.61,9.72-29.88,12.38-18.3,4.72-37.12,6.71-55.93,8.62-2.39,4.94-3.86,10.71-3.88,16.15-.06,13.79,11.12,19.98,23.43,21.8h.01Z"/>
  <path class="st0" d="M36.63,112.34c-10.38-21.85-8.15-49.13,8.23-67.47,12.22-13.68,35.21-17.32,52.24-20.29,26.26-4.57,53.3-6.21,79.91-4.92,11.29.55,22.66,1.61,33.69,4.15,7.12,1.64,15.01,3.8,20.65,8.71,20.29,17.64,17.08,47.15,10.11,70.43,10.93-8.22,18.02-19.81,17.94-36.39-.13-25.31-12.87-47.53-36.36-57.61C200.56-.71,174.55-.48,150.54.38c-20.6.75-41.46.8-61.98,3.08-20.23,2.24-42.28,7.07-57.33,21.78-15.81,15.46-21.57,43.04-13.97,63.76,3.69,10.06,10.79,17.66,19.38,23.34h-.01Z"/>
  <path class="st0" d="M241.89,259.33c-5.76,4.46-12.46,7.38-19.62,8.83,5.3,8.98,7.68,20.49,6.16,30.99,16.11,5.15,36.31-8.09,31.41-26.48-2.1-7.88-10.19-12.53-17.95-13.34h0Z"/>
  <path class="st0" d="M198.02,224.07c1.68,6.41,5.46,11.48,13.63,11.94,7.4.41,11.26-5.52,13.41-12.3-2.34.16-4.75.18-7.15.24-5.57.13-13.03.83-19.89.11h0Z"/>
  <path class="st0" d="M226.83,187.46c-2-7.19-6.42-12.64-15.35-12.11-.02,0-.05,0-.08,0-3.45.38-6.91,1.88-9.42,4.27-2.91,2.76-4.17,6.38-4.71,10.27.71-.2,1.44-.38,2.15-.55,6.77-1.59,17.82-3.13,27.42-1.9h0Z"/>
  <path class="st0" d="M228.2,220.12c7.39-1.15,13.95-4.29,14.99-13.2.56-8.85-5.5-13.3-12.79-15.28-.91-.26-1.84-.47-2.78-.64-2.7-.52-5.47-.74-8.06-.76-5.26-.05-14.51.45-22.56,2.6-.8.21-1.59.44-2.37.69-9.52,3.05-16.43,8.73-11.12,19.12,2.23,4.36,6.3,6.63,11.07,7.76.91.21,1.84.39,2.79.53,7.4,1.07,15.87,0,21.73-.13,2.23-.05,4.57-.14,6.87-.39.75-.08,1.49-.17,2.23-.29h0Z"/>
  <path class="st0" d="M254.92,158.75c-.54,3.48-1.18,6.93-1.86,10.33,8.95,12.56,10.61,29.6,9.64,44.57-.88,13.84-4.82,28.02-13.78,38.87-1.17,1.41-2.41,2.75-3.71,3.98,3.94.74,7.5,2.36,10.38,4.69,13.65-23.59,24.1-52.46,14.48-79.41-2.96-8.31-8.09-17.26-15.15-23.02h0Z"/>
</svg>