<?xml version="1.0" encoding="UTF-8"?>
<svg id="Layer_1" xmlns="http://www.w3.org/2000/svg" version="1.1" viewBox="0 0 251.82 283.04">
  <!-- Generator: Adobe Illustrator 30.5.1, SVG Export Plug-In . SVG Version: 2.1.4 Build 3)  -->
  <defs>
    <style>
      .st0 {
        fill: #2d2e2d;
      }
    </style>
  </defs>
  <path class="st0" d="M54.06,240.61c0-.23,0-.46-.03-.62-.32-1.59-.32-3.32-.51-4.93-.65-6.06-1.38-12.1-2.11-18.15-6.55.13-14.76.78-19.49,5.36-1.72,1.67-2.02,3.71-2.99,5.61.36,2.57.7,5.14,1.06,7.71.41,3.08,1.79,7.3,1.4,10.37,0,.06-.01.09-.01.15.88-.22,1.8-.38,2.7-.57,3.72-.79,7.45-1.6,11.16-2.45,1.72-.4,6.62-2.54,8.83-2.47h0Z"/>
  <path class="st0" d="M58.21,226.42c.45,2.87.91,5.73,1.36,8.61.14.86.09,2.92.48,4,.1,0,.29,0,.62.03.85.07,1.73,0,2.6,0h18.77v-21.9c-8.43-.12-16.87-.29-25.33-.28.49,3.18,1,6.37,1.51,9.54h0Z"/>
  <path class="st0" d="M88.69,239.02c.67-.08,1.36-.08,2.02-.13,2.46-.15,4.93-.3,7.39-.45,3.37-.21,6.72-.41,10.08-.62v-20.74c-7.29.21-14.56.2-21.85.13.69,7.23.94,14.74,2.36,21.81Z"/>
  <path class="st0" d="M114.13,216.87h-.01c.33,6.09.66,12.17.99,18.25,5.1-1.31,10.19-2.63,15.3-3.94-.23-5.14-.46-10.26-.7-15.4-2.42.22-4.84.41-7.25.6-2.78.21-5.55.37-8.32.49h0Z"/>
  <path class="st0" d="M112.51,87.16c-11.58.85-21.9,10.48-21.86,22.44.05,12.91,12.18,22.02,24.56,21.05,11.91-.93,21.23-10.27,21.83-22.16.02-.09.03-.2.02-.28,0-.17,0-.31-.03-.43-.75-12.7-11.93-21.56-24.52-20.64v.02ZM104.34,106.96c.12-11.29,18.42-8.88,19.08,1.38-.7,11.11-19.18,9.1-19.08-1.38Z"/>
  <path class="st0" d="M62.35,213.92c20.41.8,40.91.82,61.29-.71,8.41-.63,16.9-1.47,25.16-3.28,3.72-.8,11.31-1.86,13.19-5.78.2-.4.42-.68.67-.84.4-.83.82-1.67,1.23-2.49-7.71,5.8-17.89,9.17-27.35,8.26-9-.86-16.72-5.93-25.96-5.91-6.16,0-10.83,1.94-16.4,4.01-.79.29-1.08.72-1.91.8-1.49.15-4.22-1.93-5.71-2.48-2.32-.85-4.71-1.52-7.15-1.93-6.11-1.03-12.26-.26-17.72,2.73-1.84,1.01-4.31,3.69-6.46,3.92-2.25.24-4.64-1.49-6.92-1.85-3.11-.48-6.26-.28-9.27.7-7.18,2.34-13.38,9.25-16.55,15.59.99,1.02,2.21,1.93,3.41,2.46.48.21.69.33.77.4,0,0,.01-.02.03-.05.06-.05.1-.1.16-.15.05-.06.08-.11.13-.16,1.06-1.33,1.57-4.23,2.65-5.61,7.19-9.11,22.57-8.04,32.71-7.65v.02Z"/>
  <path class="st0" d="M161.81,96.67c6.78-3.39,15.09-5.01,21.5-6.06,4.77-.78,9.89-1.3,15.16-1.47,4.03-13.09,2.31-28.87-5.46-40.1-12.02-17.38-35.88-23.16-55.78-24.47-20.85-1.38-43.12,2.09-61.3,12.84-20.24,11.96-32.94,35.89-29.03,59.6,1.74,10.49,7.65,21.83,16.84,27.78.11.08.18.17.25.28,1.25-.4,2.54-.74,3.84-.98-.16-5.23.7-10.64,2.03-15.63,5.9-21.89,26.28-36.48,49.09-34.52,16.08,1.37,32.11,10.73,42.85,22.73h.01Z"/>
  <path class="st0" d="M35.89,122.18c6.38,4.07,14.72,6.01,22.31,5.41h0c.67-.39,1.34-.74,2.03-1.06-11.83-8.84-17.19-25.12-16.33-39.34,1.39-23.02,14.12-42.92,34.23-53.92,19.89-10.87,44.05-13.89,66.35-11.31,21.19,2.47,45.57,10.62,54.67,31.75,4.62,10.76,5.03,24.05,1.59,35.36h0c11.94-.16,24.37,1.54,34.75,6.24,6.87-12.33,7.15-28.94,4.81-42.3-2.41-13.77-7.7-29.19-18.59-38.68-8.08-7.06-18.62-10.23-29.01-11.95C177.01-.22,160.85-.12,144.95.11,109.47.61,67.57-.97,41.78,28.01c-14.87,16.72-20.29,39.73-19.73,61.65.31,12.4,2.56,25.34,13.85,32.52h-.01Z"/>
  <path class="st0" d="M15.93,190.73c3.68-.91,6.84-3.21,10.21-5.09.48-.28.97-.54,1.46-.78,1.4-.71,2.87-1.32,4.45-1.69,7.96-1.88,18.51,5.69,24.37-1.76,4.02-5.1-.72-10.3-5.5-11.88-1.25-.41.35-3.44,1.72-2.99,9.77,3.24,10.03,17.11.25,21-3.37,1.34-7.06.18-10.4-.61-4.45-1.07-8.22-1.6-12.71-.21-.82.25-1.61.57-2.39.95-4.85,9.27-12.42,25.74-6.31,35.27,3.36-6.23,8.46-12.03,14.64-15.31,5.13-2.71,10.86-3.34,16.46-1.8,2.16.59,3,1.36,4.92.56,1.46-.59,2.8-1.93,4.18-2.71,4.18-2.38,8.81-3.67,13.64-3.72,3.91-.05,7.76.72,11.47,1.92,2.09.68,5.45,2.99,7.16,2.79,1.39-.16,3.29-1.68,4.65-2.19,2.6-1,5.29-1.69,8.04-2.07,8.57-1.2,15.95,1.11,23.93,3.87,12.2,4.22,26.49.37,35.94-8.26.17-.16.33-.28.47-.34,5.88-10.65,13.55-19.98,27.14-19.36,17.16.78,34.58,19.39,30.4,36.96-3.15,13.19-18.8,26.22-32.48,19.66-1.25-.6.43-3.61,1.72-2.99,8.6,4.13,17.41-.36,23.24-7,15.25-17.36-4.76-43.19-24.79-43.5-22.08-.33-24.96,25.87-35.42,39.53-7.1,9.27-19.55,15.23-30.01,19.64-17.42,7.37-36.33,11.04-55.23,10.71-7.46-.14-28.67-2.29-29.65,7.32,17,2.05,34.69,1.06,51.7.25,24.78-1.17,53.75-4.17,71.59-23.62,6.46-7.03,9.87-15.86,14.72-23.96,3.69-6.14,8.91-13.89,16.7-14.81,7.09-.84,15.46,4.7,14.16,12.45-.83,4.94-5.95,12.49-11.62,12.43-7.64-.08-7.75-10.72-2.61-14.2,5.85-3.96,9.73.85,10.26,6.15.63-1.03,1.1-2.09,1.33-2.99,1.48-5.71-4.39-9.94-9.5-10.65-4.46-.62-8.23,1.63-11.2,4.77-9.73,10.2-12.92,24.77-23.1,34.82-11.27,11.15-26.64,16.81-41.95,19.71-19.54,3.7-39.96,3.86-59.79,3.73-6.75-.05-13.61-.07-20.35-.77.26.94.67,1.95,1.24,3.06,4.46,8.69,12.96,14.38,22.23,16.67,13.72,3.41,28.3,3.56,42.36,3.24,16.82-.4,33.61-1.98,50.29-4.15,13.39-1.74,26.74-3.84,39.96-6.53,11.81-2.4,23.6-5.24,32.86-13.54,19.93-17.86,19.84-49.17,20.71-73.95.51-14.35.52-28.76-.56-43.09-.9-11.79-1.74-26.35-8.37-36.61-3.41-5.27-9.46-7.06-15.25-8.77-8.63-2.53-17.69-3.71-26.67-3.84-9.78-.14-19.64.98-29.02,3.8-2.71.82-6.14,1.8-9.35,3.22-.56.25-1.13.51-1.68.78-4.01,2.01-7.41,4.79-8.24,8.86-1.05,5.16-.93,10.34-2.91,15.33-2.34,5.9-6.79,10.49-12.02,13.95-10.61,7-25.22,12.2-36.64,4.29-9.66-6.71-15.53-16.09-28.63-15.8-10.45.22-21.31,6.07-25.21,15.58,9.64-6,23.27-9.64,32.51-1.56,4.15,3.63,5.75,8.78,8.98,13.07,3.84,5.1,8.8,9.33,14.43,12.34,17.46,9.37,43.81,6.17,58.52-7.07,10.99-9.88,16.56-26.42,31.81-30.96,14.58-4.33,31.11,1.95,39.04,14.78,7.95,12.86,9,29.33,8.35,44.04-.6,13.5-2.69,27.24-6.72,40.16-5.23,16.73-18.46,30.43-34.75,36.82-7.2,2.82-18.81,5.77-25.56.32-4.55-3.68-4.55-10.29-1.53-14.93,3.78-5.83,11.55-7.16,17.56-3.91,7.62,4.13,6.23,11.85,2.23,17.73,1.45-.28,2.76-.6,3.84-.92,18.58-5.54,32.19-20.73,37.13-39.16,3.22-12.03,5.05-24.58,5.4-37.03.37-13.16-.7-27.55-7.33-39.23-7.12-12.55-21.74-19.07-35.98-16.13-14.27,2.94-20.23,17.47-29.21,27.24-18.58,20.2-55.34,23.03-75.19,3.3-5.86-5.84-8.68-15.64-15.81-19.69-9.26-5.25-22.09-.43-29.42,4.77-.82.59-1.86.32-1.54-.88.77-2.9,2.17-5.67,3.82-8.16,1.63-2.48,3.64-4.69,5.93-6.56-8.6-.17-17.62-3.33-23.78-9.2-12.31,5.36-20.56,17.32-25.25,29.52-3.78,9.83-7.12,23.93-1.16,33.61,2.56,4.14,7.7,7.18,12.68,5.96h-.01Z"/>
</svg>