<?xml version="1.0" encoding="UTF-8"?>
<svg id="Layer_1" xmlns="http://www.w3.org/2000/svg" version="1.1" viewBox="0 0 1800.01 423.8">
  <!-- Generator: Adobe Illustrator 30.5.1, SVG Export Plug-In . SVG Version: 2.1.4 Build 3)  -->
  <defs>
    <style>
      .st0 {
        fill: #2d2e2d;
      }
    </style>
  </defs>
  <path class="st0" d="M1571.92,358.3c8.44-.85,14.2,6.76,21.38,9.72,2.91,1.22,6.02,2.07,9.22,2.67-5.69-3.72-9.85-8.93-14.69-14.77-3.24-3.91-9.84-9.96-15.36-10.02-4.6-.05-6.82,4.5-4.33,8.39.97,1.53,2.36,2.9,3.79,4.01Z"/>
  <path class="st0" d="M1591.52,180.13c-.38,3.92-.16,8.02.65,11.89,1.21-.07,2.43-.14,3.64-.2,2.91-.16,5.8-.31,8.71-.47,3.64-8.07,2.26-18.78.3-27.21-8.04,2.61-12.46,7.3-13.31,15.99Z"/>
  <path class="st0" d="M1626.97,159.06c-1.17.2-2.36.39-3.53.6v1.78c1.18-.07,2.36-.13,3.53-.2v-2.18Z"/>
  <path class="st0" d="M1626.97,164.33c-1.17.06-2.34.13-3.53.2v4.48c1.18-.06,2.36-.11,3.53-.18v-4.49Z"/>
  <path class="st0" d="M1626.97,171.92c-1.17.07-2.34.13-3.53.18v3.92c1.18-.05,2.36-.09,3.53-.15v-3.95Z"/>
  <path class="st0" d="M1626.97,178.97c-1.17.06-2.34.1-3.53.15v4.83c1.18-.05,2.36-.09,3.53-.14v-4.84Z"/>
  <path class="st0" d="M1623.44,190.36c1.18-.07,2.36-.13,3.53-.2v-3.25c-1.17.05-2.34.09-3.53.15v3.3Z"/>
  <path class="st0" d="M1629.46,158.66v2.45c1.61-.09,3.23-.18,4.84-.28-.02-.94-.03-1.9-.06-2.85-1.6.22-3.2.44-4.78.68Z"/>
  <path class="st0" d="M1629.46,168.7c1.66-.08,3.32-.17,4.99-.25-.03-1.52-.06-3.02-.09-4.53-1.63.09-3.26.18-4.9.28v4.5Z"/>
  <path class="st0" d="M1629.46,175.77c1.7-.07,3.41-.14,5.11-.22-.02-1.33-.05-2.68-.07-4.01-1.69.08-3.37.17-5.05.25v3.98Z"/>
  <path class="st0" d="M1629.46,183.71c1.76-.07,3.5-.15,5.26-.22-.02-1.61-.06-3.22-.09-4.84-1.72.08-3.45.15-5.17.22v4.84Z"/>
  <path class="st0" d="M1629.46,190.04c1.79-.09,3.59-.2,5.39-.29-.02-1.06-.05-2.1-.06-3.16-1.78.08-3.56.15-5.33.22v3.23Z"/>
  <path class="st0" d="M1585.4,230.4c4.3,1.92,8.79,3.44,13.39,4.65h.05c.13.05.24.08.37.1,3.22.84,6.48,1.54,9.78,2.11h.01c.13-.02.25,0,.34.06h.01c7.88,1.36,15.92,2.06,23.75,2.53-9.7-4.77-15.83-13.53-13.46-26.2,1.71-9.12,7.83-16.54,15.77-20.85-14.96.8-29.94,1.6-44.91,2.39-.03.01-.07.01-.1.01-7.43.39-14.87.78-22.3,1.18-.1,2.48-.14,4.98-.13,7.46.02,4.55-.23,9.32,1.78,13.53,3.02,6.31,9.49,10.29,15.65,13.02Z"/>
  <path class="st0" d="M1615.03,403.35c6.08.75,12.42-1.74,16.55-6.21,5.99-6.49,4.76-13.85,2.53-21.54-2.2-7.61-1.92-15.33.22-22.9,2.29-8.14,8.33-16.46,2.42-24.5-4.88-6.64-13.74-8.85-21.56-8.94-4.3,3.16-9.77,3.54-15.5,3.2-9.35-.57-17.43,1.22-25.4,4.91,2.16,5.02,1.84,10.64-.68,15.47t-.01.02c.72,0,1.45.09,2.17.28,6.78,1.8,12.32,7.7,16.39,13.14,5.61,7.48,12.08,13.11,21.29,15.58h.03c.44.02.87.03,1.31.05,1.48.03.15,3.19-1.2,3.16-.36-.01-.7-.02-1.05-.03-.06,0-.1,0-.16-.01-.02,0-.03.01-.06,0-.02,0-.05-.01-.07-.01-5.86-.23-11.85-1.1-17.44-2.84-8.08-2.51-14.8-11.6-23.8-10.65-.01,0-.01.01-.01.01-.07.02-.14.03-.21.03-.03,0-.08-.01-.11-.01s-.08.01-.12.01c-3.92.54-5.87,5.62-3.75,8.98.72,1.16,1.92,1.9,2.93,2.77,1.31,1.1,2.49,2.18,3.39,3.54,9.53,1.67,18.78,7.15,25.48,13.95,5.25,5.32,8.24,11.56,16.4,12.56Z"/>
  <path class="st0" d="M1636.75,157.66c.02,1.01.05,2.02.06,3.03,1.55-.08,3.1-.17,4.64-.25-.02-1.11-.04-2.23-.08-3.34-1.54.18-3.08.37-4.62.56Z"/>
  <path class="st0" d="M1636.86,163.78c.03,1.51.06,3.02.09,4.54,1.56-.08,3.11-.16,4.68-.24-.03-1.53-.07-3.05-.11-4.56-1.55.08-3.1.17-4.65.26Z"/>
  <path class="st0" d="M1637.01,171.4c.02,1.36.05,2.7.08,4.05,1.56-.07,3.14-.13,4.71-.2-.03-1.37-.07-2.72-.1-4.09-1.56.08-3.13.16-4.69.24Z"/>
  <path class="st0" d="M1637.15,178.55c.02,1.61.06,3.23.09,4.84,1.59-.06,3.16-.13,4.75-.2-.03-1.61-.08-3.23-.12-4.84-1.57.07-3.15.13-4.72.2Z"/>
  <path class="st0" d="M1642.14,189.36c-.02-1.02-.05-2.05-.08-3.07-1.59.07-3.17.14-4.76.2.02,1.05.03,2.09.06,3.13,1.6-.08,3.18-.16,4.78-.25Z"/>
  <path class="st0" d="M1683.49,187.17c4.83-10.43,4.17-23.29-1.61-33.3-.02-.05-.03-.09-.05-.14-7.61.31-15.17.85-22.65,1.53-4.47,10.47-4.79,23,.4,33.18,7.96-.41,15.94-.84,23.9-1.26Z"/>
  <path class="st0" d="M1684.7,267.07c1.49.92,3.11,1.63,4.81,2.17,0,.01.01.01.02.01-4.9-7.23-5.84-18.82-6.5-26.68-3.17.17-6.32.33-9.47.49.01,8.98,3.3,19.16,11.14,24.01Z"/>
  <path class="st0" d="M1694.95,270.22c.08.06.14.13.2.21,1.99.24,4.06.35,6.13.35-2.7-4.76-3.46-11.01-4.24-16.16-.64-4.23-1.14-8.5-1.44-12.79-3.32.22-6.63.41-9.95.6t-.01.01c.76,8.87,2.16,22.51,9.32,27.79Z"/>
  <path class="st0" d="M1698.91,153.46c.03,1.23.07,2.46.1,3.7,1.48-.03,2.97-.06,4.45-.09-.02-1.17-.06-2.34-.09-3.53-1.48-.03-2.98-.07-4.46-.08Z"/>
  <path class="st0" d="M1699.09,160.29c.05,1.34.08,2.69.12,4.05,1.48-.03,2.97-.08,4.45-.12-.03-1.33-.07-2.68-.12-4.01-1.48.02-2.97.06-4.45.08Z"/>
  <path class="st0" d="M1699.3,167.45c.02,1.02.06,2.03.08,3.06,1.48-.06,2.95-.1,4.44-.15-.03-1.01-.06-2.01-.08-3.01-1.48.03-2.95.07-4.44.1Z"/>
  <path class="st0" d="M1699.47,173.61c.05,1.64.09,3.29.14,4.93,1.47-.06,2.94-.13,4.41-.18-.05-1.63-.08-3.26-.13-4.9-1.47.06-2.95.1-4.43.15Z"/>
  <path class="st0" d="M1704.23,186.06c-.05-1.54-.08-3.08-.13-4.61-1.47.06-2.93.13-4.4.18.05,1.55.09,3.1.13,4.65,1.47-.08,2.93-.15,4.4-.23Z"/>
  <path class="st0" d="M1705.07,270.68c2.34-.1,4.67-.29,6.87-.47-2.39-4.45-2.91-10.39-3.53-15.01-.63-4.71-1.07-9.48-1.29-14.24-2.72.23-5.45.44-8.17.63-.25.02-.52.03-.78.06.29,3.65.71,7.3,1.25,10.91.89,5.77,1.69,13.17,5.5,17.86.06.08.1.17.14.26Z"/>
  <path class="st0" d="M1705.89,153.61c.02,1.14.06,2.28.09,3.41,1.61-.02,3.22-.06,4.83-.08-.05-1.05-.09-2.08-.14-3.11-1.59-.08-3.18-.16-4.78-.22Z"/>
  <path class="st0" d="M1706.07,160.16c.03,1.33.07,2.67.1,4,1.66-.05,3.31-.08,4.95-.13-.06-1.32-.12-2.64-.17-3.96-1.63.03-3.25.06-4.88.09Z"/>
  <path class="st0" d="M1706.25,167.28c.02,1,.06,2,.08,2.99,1.69-.06,3.38-.11,5.07-.17-.05-.98-.09-1.95-.14-2.93-1.67.03-3.33.08-5.01.12Z"/>
  <path class="st0" d="M1706.41,173.38c.05,1.62.08,3.24.13,4.87,1.74-.08,3.47-.15,5.21-.23-.07-1.61-.14-3.22-.21-4.83-1.71.07-3.41.13-5.13.18Z"/>
  <path class="st0" d="M1712.09,185.65c-.07-1.52-.14-3.02-.21-4.53-1.75.07-3.5.15-5.26.22.04,1.53.08,3.06.13,4.59,1.78-.09,3.56-.18,5.34-.28Z"/>
  <path class="st0" d="M1686.28,215.13c.07-.22.1-.42.08-.62-.01-.06-.03-.11-.03-.17-.01-.06-.02-.13-.03-.17-2.08-11.94-30.82-11.16-30.99,1.53-.16,12.48,29.05,11.7,30.98-.56Z"/>
  <path class="st0" d="M1621.91,213.91c-2.45,15.85,10.15,24.22,24.28,26.47.1.01.2.06.27.09h.03c6.9.2,13.81.17,20.69-.18h.05c8.04-.4,16.09-.86,24.14-1.4,2.92-.2,5.87-.39,8.83-.6,3.98-1.75,7.87-3.59,11.09-6.62,7.07-6.65,7.75-16.9,4.38-25.65-3.72-9.69-13.85-15.95-24.11-16.19-11.07.6-22.12,1.18-33.19,1.77-.18.08-.36.1-.51.02-4.22.23-8.42.45-12.64.68-11.28,1.93-21.5,9.94-23.32,21.62ZM1668.79,199.69c10.07-.79,29.59,1.64,31.01,14.69.06.13.08.31.07.55,0,.13-.01.24-.05.37-1.04,11.28-14.88,15.5-24.39,16.26-9.5.75-31.02-1.7-31.07-15.24-.06-11.53,15.51-15.92,24.43-16.63Z"/>
  <path class="st0" d="M1715.79,269.9c2.05-.15,4.14-.32,6.22-.55-2.63-7.98-4.17-16.57-4.17-25.04,0-1.47.05-2.93.14-4.39-2.76.3-5.53.57-8.3.83.18,3.54.49,7.08.92,10.61.68,5.7,1.14,13.88,5.01,18.56.07,0,.13-.01.18-.01Z"/>
  <path class="st0" d="M1713.23,153.97c.04.98.09,1.95.14,2.93,2.08-.05,4.17-.08,6.26-.11-.03-.78-.07-1.55-.1-2.33-2.09-.18-4.19-.36-6.3-.48Z"/>
  <path class="st0" d="M1713.5,160.02c.06,1.32.12,2.63.17,3.95,2.08-.06,4.16-.1,6.25-.16-.06-1.3-.11-2.61-.17-3.91-2.08.03-4.17.08-6.25.11Z"/>
  <path class="st0" d="M1713.81,167.09c.05.98.08,1.94.13,2.91l6.24-.21c-.05-.95-.08-1.91-.13-2.85-2.08.05-4.16.1-6.24.15Z"/>
  <path class="st0" d="M1714.08,173.11c.07,1.6.14,3.19.21,4.8,2.08-.09,4.15-.18,6.23-.28-.07-1.57-.14-3.16-.21-4.75-2.07.08-4.15.15-6.23.22Z"/>
  <path class="st0" d="M1717.79,185.34c1.01-.06,2.03-.1,3.04-.16-.07-1.48-.13-2.95-.2-4.44-2.07.09-4.14.17-6.22.26.07,1.51.14,3,.21,4.51,1.05-.06,2.1-.11,3.16-.17Z"/>
  <path class="st0" d="M1724.98,268.96c1.33-.18,2.65-.41,3.96-.69-1.97-5.25-3.06-10.93-2.94-16.38.09-4.91,1.44-9.43,3.69-13.45-3.09.45-6.18.85-9.3,1.2-.48,9.91,1.3,20.03,4.57,29.33,0-.01.01-.01.01-.01Z"/>
  <path class="st0" d="M1632.81,272.62c-.24-4.5-3.29-8.31-7.83-9.09-4.86-.82-9.89,2.53-9.93,7.71-.06,10.58,17.13,12.92,17.76,1.38ZM1623.97,268.23c2.23.39,3.8,2.25,3.93,4.49-.29,5.25-8.56,3.33-8.44-1.38.06-2.33,2.4-3.48,4.5-3.11Z"/>
  <path class="st0" d="M1562.22,330.31c3.17-.53,6.22-2.24,9.24-4.03.57-.34,1.14-.69,1.71-1.02,2.08-1.24,4.16-2.41,6.27-3.19,8.35-3.05,16.21-2.64,24.93-2.47,7.64.15,14.66-4.05,15.06-12.3.31-6.39-3.53-11.81-9.79-13.25-5.17-1.18-10.83.51-11.19,6.5-.08,1.29-2.61,3.38-2.48,1.38.84-13.83,19.62-15.09,24.7-3.11,2.26,5.34,1.41,11.76-1.79,16.54-.2.29-.39.57-.6.84,12,.87,26.11,8.03,23.34,22.12-1.53,7.77-5.87,14.36-6.48,22.51-.62,8.38,3.76,15.54,3.55,23.7-.22,9.18-6.37,17.39-14.87,20.65-4.16,1.6-8.8,1.97-13.1.68-5.54-1.67-8.27-5.63-11.82-9.84-6.01-7.11-14.89-13.05-24.16-15.42,1.3,4.99.69,10.83,1.8,15.82,1.56,6.96,4.79,13.62,10.69,17.9,7.68,5.6,17.61,5.77,26.72,6.37,8.91.57,18.57,1.09,27.16-1.83,10.49-3.56,12.31-12.28,11.94-22.41-.32-9.1-2.33-18.16-1.84-27.29.52-9.46,4.01-17.97,9.03-25.91,1.13-1.77,2.92-.75,1.79,1.03-4.57,7.24-7.85,14.87-8.34,23.5-.33,5.95.48,11.87,1.1,17.78,1,9.49,2.63,21.28-3.71,29.38-1,1.28-2.13,2.37-3.36,3.31,22.18,7.12,49.06,8.29,70.26-1.79-5.25-5.76-6.79-13.94-5.29-22.67,1.2-6.88,4.91-13.99,10.47-18.49-1.77-1.67-3.39-3.53-4.83-5.61-13.46-19.56-8.27-47.54-4.76-69.35,1.83-11.41,7.4-21.43,17.62-26.96-.4-.77-.78-1.56-1.13-2.37-5.04,1.2-10.32,1.71-15.49,2.06h-.01c-.14.05-.27.06-.4.02t-.01,0c-.39.03-.77.06-1.15.08-9.77.63-22.38,2.28-30.92-3.69-8.06-5.63-11.29-16.77-10.97-26.28-1.7.08-3.4.16-5.1.25h-.05c-.87.05-1.75.07-2.63.1-15.54.51-31.21-.02-46.63-1.99-2.49-.32-5.14-.67-7.87-1.08-1.06,1.43-2.03,2.92-2.91,4.46-.68,1.2-2.07,3.11-2.03,4.5.08,2.56,1.92,2.37,4.16,2.11,7.65-.84,14.89-3.34,22.66-1.68,8.65,1.85,15.65,9.17,23.43,13.19,5.01,2.6,10.19,4.96,15.48,6.95,1.25.47-.37,3.49-1.72,2.98-7.33-2.75-14.54-6.14-21.27-10.14-4.76-2.83-8.95-7.08-14.17-9-5.83-2.14-12.17-1.51-18.15-.44-3.65.64-13.24,4.18-12.99-2.41.14-3.73,2.75-7.68,5.16-10.91-2.59-.43-5.22-.92-7.86-1.52h-.01c-6.11,15.12-19.08,23.9-31.19,34.2-7.09,6.03-11.11,13.81-14.16,22.58-2.8,8.09-4.8,17.61-2.26,26.03,1.54,5.1,5.37,9.89,11.24,8.91ZM1684.73,343.23c1.82-1.33,1.89,1.52.68,2.4-20.28,14.97-18.46,44.47-7.89,64.81.62,1.21-1.48,3.88-2.14,2.61-11.47-22.09-12.51-53.67,9.35-69.82ZM1603.93,263.3c9.12-4.71,20.86-6.33,30.63-2.93,8.66,3.02,16.03,8.85,24.9,11.72,3.88,1.26,7.95,2.36,12.03,2.79,1.53.16.14,3.29-1.18,3.15-6.07-.64-12.09-2.4-17.82-4.8-10.07,6.65-29.68,19.03-40.68,7.77-3.92-4.01-5.6-10.3-5.61-15.9-.75.32-1.48.68-2.22,1.06-1.82.93-1.22-2.24-.05-2.85Z"/>
  <path class="st0" d="M1767.99,182.67c-.55-4.86-2.29-9.84-4.95-13.81-4.67-6.95-12.17-9.19-19.94-10.87-.45-.1-.91-.18-1.36-.28-1.77,8.75-.56,18.23,3.36,26.18,7.63-.41,15.26-.82,22.89-1.22Z"/>
  <path class="st0" d="M1753.05,387.17c-2.53-.24-5.06-.61-7.55-1.1-.88,1.51-1.6,3.16-1.94,4.84-1.3,6.44,4.23,8.45,9.55,9.41,4.34.79,10.48,1.84,14.41-.87,3.86-2.67,2.73-8.4,1.84-12.26-.02-.14-.02-.29,0-.44-5.36.91-10.94.93-16.31.43Z"/>
  <path class="st0" d="M1732.22,268.39c.54,1.25,1.13,2.47,1.77,3.64,3.43-1.48,6.98-2.39,10.58-2.92-2.68-6.91-3.94-15.25-1.45-22.21,2.86-8.01,11-12.56,19.16-13.33,6.78-.63,16.8,1.91,16.61,10.45-.17,8.02-8.33,11.99-15.35,11.85-1.49-.02-.16-3.17,1.18-3.15,4.24.08,9.64-1.05,11.23-5.62,1.26-3.62-.8-6.64-3.81-8.47-4.75-2.9-11.38-2.42-16.41-.69-13.65,4.68-12.93,19.59-8.07,30.79,2.46-.24,4.94-.34,7.43-.38h.01c9.37-.13,19.96.62,28.68,4.68,10.46-9.23,11.38-24.41,4.98-36.48-2.7-5.1-7.1-8.83-12.22-11.15-1.03-.47-2.11-.88-3.21-1.24-4.22-1.38-8.77-1.87-13.15-1.47-9.46.87-19.03,5.14-25.13,12.04-.92,1.03-1.77,2.14-2.52,3.3-2.76,4.24-4.3,9.26-4.01,14.92.25,4.96,1.47,10.14,3.44,14.87.16.11.24.32.25.57Z"/>
  <path class="st0" d="M1600.95,162.63c13.59-5.79,29.64-7.37,44.16-9,12.65-1.43,25.39-2.31,38.13-2.65.16-.06.32-.07.47-.01,5.99-.16,11.97-.21,17.96-.11,16.39.25,33.64.91,49.43,5.73,11.83,3.61,18.69,13.83,19.47,25.95,7.49-.4,14.97-.79,22.47-1.2-1.18-7.85-3.93-15.38-8.31-20.86-11.63-14.57-32.72-18.53-50.2-20.32-22.24-2.28-44.76-1.01-67,.72-9.94.78-19.87,1.72-29.81,2.54-10.8.87-21.66,1.18-32.27,3.6-9.39,2.14-18.86,5.87-25.56,13.05-6.55,7.01-9.49,16.38-10.85,25.68-.37,2.51-.62,5.01-.78,7.53,7.04-.37,14.09-.75,21.13-1.13-1.85-11.09.23-24.71,11.55-29.53Z"/>
  <path class="st0" d="M1743.88,187.04c-.18.08-.36.1-.51.03-13.23.7-26.45,1.4-39.67,2.1,8.22,3.73,14.35,11.31,15.93,20.66.3,1.8.45,3.53.45,5.18,0,10.15-5.49,17.57-13.7,22.8.75-.05,1.48-.1,2.23-.16h.01c.22-.1.41-.13.57-.05h.01c3.47-.29,6.95-.59,10.43-.94.28-.15.53-.2.7-.07,0,0,0-.01.01-.01,3.82-.39,7.63-.85,11.43-1.38,9.79-13.33,30.07-19.66,45.47-13.24,6.58-4.04,12-9.6,14.42-17.43,1.84-5.94,2.43-13.07,1.73-20.13-9.4.5-18.8,1-28.2,1.5-7.11.38-14.23.75-21.34,1.13Z"/>
  <path class="st0" d="M1788.42,377.52c-1.9,1.86-3.98,3.42-6.18,4.7h-.01c8.8,6.55,12.76,19.52,3.53,27.8-7.62,6.83-21.54,6.61-31.07,6.27-9.92-.33-26.17-1.49-30.79-12.19-3.5-8.1,1.21-17.21,6.95-23.26h0c-2.08-1.16-4.07-2.48-5.91-4-9.68,6.54-12.66,21.34-8.62,31.79,1.01,2.62,2.61,4.76,4.6,6.49.24.02.39.17.46.39,7.02,5.8,18.51,7.06,26.82,7.45,12.08.57,25.01-.36,36.66-3.8,8.49-2.51,14.14-9.25,14.63-18.21.52-9.27-4.31-17.48-10.62-23.87l-.45.45Z"/>
  <path class="st0" d="M1765.18,320.5c-4.91-.84-9.99,2.55-10.02,7.78-.06,10.7,17.3,13.03,17.93,1.39-.24-4.55-3.32-8.4-7.91-9.17Z"/>
  <path class="st0" d="M1761.72,309.66c-9.18.99-16.31,9.32-16.28,18.48.03,10.06,8.79,18.11,18.84,17.1,9.43-.95,15.7-9.16,16.25-18.19.02-.09.03-.2.02-.29.01-.18,0-.32-.03-.44-.69-9.77-8.57-17.76-18.79-16.66ZM1747.93,326.76c.03-9.18,8.87-15.46,17.57-13.74,7.36,1.44,12.22,7.81,12.56,15.12-.93,19.59-30.2,17.16-30.13-1.38Z"/>
  <path class="st0" d="M1783.14,276.46c-.47.18-.75-.03-.87-.43-8.62-4.1-19.14-4.65-28.36-4.54h-.01c-7.14.1-14.3.83-20.8,3.79-.01.01-.02.02-.03.02-.07.02-.15.06-.23.1-.85.39-1.68.82-2.5,1.3-13.12,7.58-14.4,22.25-16.2,35.83-2.64,20.03-4.77,46.3,12.08,60.96.05.02.07.05.1.08.33.3.68.59,1.02.86,10.58,8.47,25.89,10.87,39.07,9.68,11.71-1.07,21.88-6.59,27.19-17.35,4.53-9.2,5.49-19.88,5.91-29.99.37-9.22.72-18.57.36-27.79-.37-9.43-2.02-19.44-8.71-26.6-2.33-2.49-5.05-4.44-8-5.93ZM1793.16,350.75c-2.99,18.55-16.94,27.19-34.69,27.42-12.62.15-27.53-1.78-34.54-13.73-5.16-8.79-4.98-19.73-4.79-29.59.31-16.81-1.13-38.23,11.68-51.24,14.86-15.11,46.83-10.6,58.33,6.56,11.45,17.08,7.07,41.62,4.02,60.59Z"/>
  <path class="st0" d="M54.06,240.61c0-.23,0-.46-.03-.62-.32-1.59-.32-3.32-.51-4.93-.65-6.06-1.38-12.1-2.11-18.15-6.55.13-14.76.78-19.49,5.36-1.72,1.67-2.02,3.71-2.99,5.61.36,2.57.7,5.14,1.06,7.71.41,3.08,1.79,7.3,1.4,10.37,0,.06-.01.09-.01.15.88-.22,1.8-.38,2.7-.57,3.72-.79,7.45-1.6,11.16-2.45,1.72-.4,6.62-2.54,8.83-2.47Z"/>
  <path class="st0" d="M58.21,226.42c.45,2.87.91,5.73,1.36,8.61.14.86.09,2.92.48,4,.1-.01.29.01.62.03.85.07,1.73,0,2.6,0h18.77v-21.9c-8.43-.12-16.87-.29-25.33-.28.49,3.18,1,6.37,1.51,9.54Z"/>
  <path class="st0" d="M88.69,239.02c.67-.08,1.36-.08,2.02-.13,2.46-.15,4.93-.3,7.39-.45,3.37-.21,6.72-.41,10.08-.62v-20.74c-7.29.21-14.56.2-21.85.13.69,7.23.94,14.74,2.36,21.81Z"/>
  <path class="st0" d="M114.13,216.87h-.01c.33,6.09.66,12.17.99,18.25,5.1-1.31,10.19-2.63,15.3-3.94-.23-5.14-.46-10.26-.7-15.4-2.42.22-4.84.41-7.25.6-2.78.21-5.55.37-8.32.49Z"/>
  <path class="st0" d="M112.51,87.16c-11.58.85-21.9,10.48-21.86,22.44.05,12.91,12.18,22.02,24.56,21.05,11.91-.93,21.23-10.27,21.83-22.16.02-.09.03-.2.02-.28.01-.17,0-.31-.03-.43-.75-12.7-11.93-21.56-24.52-20.64ZM104.34,106.96c.12-11.29,18.42-8.88,19.08,1.38-.7,11.11-19.18,9.1-19.08-1.38Z"/>
  <path class="st0" d="M62.35,213.92c20.41.8,40.91.82,61.29-.71,8.41-.63,16.9-1.47,25.16-3.28,3.72-.8,11.31-1.86,13.19-5.78.2-.4.42-.68.67-.84.4-.83.82-1.67,1.23-2.49-7.71,5.8-17.89,9.17-27.35,8.26-9-.86-16.72-5.93-25.96-5.91-6.16,0-10.83,1.94-16.4,4.01-.79.29-1.08.72-1.91.8-1.49.15-4.22-1.93-5.71-2.48-2.32-.85-4.71-1.52-7.15-1.93-6.11-1.03-12.26-.26-17.72,2.73-1.84,1.01-4.31,3.69-6.46,3.92-2.25.24-4.64-1.49-6.92-1.85-3.11-.48-6.26-.28-9.27.7-7.18,2.34-13.38,9.25-16.55,15.59.99,1.02,2.21,1.93,3.41,2.46.48.21.69.33.77.4,0-.01.01-.02.03-.05.06-.05.1-.1.16-.15.05-.06.08-.11.13-.16,1.06-1.33,1.57-4.23,2.65-5.61,7.19-9.11,22.57-8.04,32.71-7.65Z"/>
  <path class="st0" d="M161.81,96.67c6.78-3.39,15.09-5.01,21.5-6.06,4.77-.78,9.89-1.3,15.16-1.47,4.03-13.09,2.31-28.87-5.46-40.1-12.02-17.38-35.88-23.16-55.78-24.47-20.85-1.38-43.12,2.09-61.3,12.84-20.24,11.96-32.94,35.89-29.03,59.6,1.74,10.49,7.65,21.83,16.84,27.78.11.08.18.17.25.28,1.25-.4,2.54-.74,3.84-.98-.16-5.23.7-10.64,2.03-15.63,5.9-21.89,26.28-36.48,49.09-34.52,16.08,1.37,32.11,10.73,42.85,22.73Z"/>
  <path class="st0" d="M35.89,122.18c6.38,4.07,14.72,6.01,22.31,5.41h.01c.67-.39,1.34-.74,2.03-1.06-11.83-8.84-17.19-25.12-16.33-39.34,1.39-23.02,14.12-42.92,34.23-53.92,19.89-10.87,44.05-13.89,66.35-11.31,21.19,2.47,45.57,10.62,54.67,31.75,4.62,10.76,5.03,24.05,1.59,35.36h.01c11.94-.16,24.37,1.54,34.75,6.24,6.87-12.33,7.15-28.94,4.81-42.3-2.41-13.77-7.7-29.19-18.59-38.68-8.08-7.06-18.62-10.23-29.01-11.95C177.01-.22,160.85-.12,144.95.11,109.47.61,67.57-.97,41.78,28.01c-14.87,16.72-20.29,39.73-19.73,61.65.31,12.4,2.56,25.34,13.85,32.52Z"/>
  <path class="st0" d="M15.93,190.73c3.68-.91,6.84-3.21,10.21-5.09.48-.28.97-.54,1.46-.78,1.4-.71,2.87-1.32,4.45-1.69,7.96-1.88,18.51,5.69,24.37-1.76,4.02-5.1-.72-10.3-5.5-11.88-1.25-.41.35-3.44,1.72-2.99,9.77,3.24,10.03,17.11.25,21-3.37,1.34-7.06.18-10.4-.61-4.45-1.07-8.22-1.6-12.71-.21-.82.25-1.61.57-2.39.95-4.85,9.27-12.42,25.74-6.31,35.27,3.36-6.23,8.46-12.03,14.64-15.31,5.13-2.71,10.86-3.34,16.46-1.8,2.16.59,3,1.36,4.92.56,1.46-.59,2.8-1.93,4.18-2.71,4.18-2.38,8.81-3.67,13.64-3.72,3.91-.05,7.76.72,11.47,1.92,2.09.68,5.45,2.99,7.16,2.79,1.39-.16,3.29-1.68,4.65-2.19,2.6-1,5.29-1.69,8.04-2.07,8.57-1.2,15.95,1.11,23.93,3.87,12.2,4.22,26.49.37,35.94-8.26.17-.16.33-.28.47-.34,5.88-10.65,13.55-19.98,27.14-19.36,17.16.78,34.58,19.39,30.4,36.96-3.15,13.19-18.8,26.22-32.48,19.66-1.25-.6.43-3.61,1.72-2.99,8.6,4.13,17.41-.36,23.24-7,15.25-17.36-4.76-43.19-24.79-43.5-22.08-.33-24.96,25.87-35.42,39.53-7.1,9.27-19.55,15.23-30.01,19.64-17.42,7.37-36.33,11.04-55.23,10.71-7.46-.14-28.67-2.29-29.65,7.32,17,2.05,34.69,1.06,51.7.25,24.78-1.17,53.75-4.17,71.59-23.62,6.46-7.03,9.87-15.86,14.72-23.96,3.69-6.14,8.91-13.89,16.7-14.81,7.09-.84,15.46,4.7,14.16,12.45-.83,4.94-5.95,12.49-11.62,12.43-7.64-.08-7.75-10.72-2.61-14.2,5.85-3.96,9.73.85,10.26,6.15.63-1.03,1.1-2.09,1.33-2.99,1.48-5.71-4.39-9.94-9.5-10.65-4.46-.62-8.23,1.63-11.2,4.77-9.73,10.2-12.92,24.77-23.1,34.82-11.27,11.15-26.64,16.81-41.95,19.71-19.54,3.7-39.96,3.86-59.79,3.73-6.75-.05-13.61-.07-20.35-.77.26.94.67,1.95,1.24,3.06,4.46,8.69,12.96,14.38,22.23,16.67,13.72,3.41,28.3,3.56,42.36,3.24,16.82-.4,33.61-1.98,50.29-4.15,13.39-1.74,26.74-3.84,39.96-6.53,11.81-2.4,23.6-5.24,32.86-13.54,19.93-17.86,19.84-49.17,20.71-73.95.51-14.35.52-28.76-.56-43.09-.9-11.79-1.74-26.35-8.37-36.61-3.41-5.27-9.46-7.06-15.25-8.77-8.63-2.53-17.69-3.71-26.67-3.84-9.78-.14-19.64.98-29.02,3.8-2.71.82-6.14,1.8-9.35,3.22-.56.25-1.13.51-1.68.78-4.01,2.01-7.41,4.79-8.24,8.86-1.05,5.16-.93,10.34-2.91,15.33-2.34,5.9-6.79,10.49-12.02,13.95-10.61,7-25.22,12.2-36.64,4.29-9.66-6.71-15.53-16.09-28.63-15.8-10.45.22-21.31,6.07-25.21,15.58,9.64-6,23.27-9.64,32.51-1.56,4.15,3.63,5.75,8.78,8.98,13.07,3.84,5.1,8.8,9.33,14.43,12.34,17.46,9.37,43.81,6.17,58.52-7.07,10.99-9.88,16.56-26.42,31.81-30.96,14.58-4.33,31.11,1.95,39.04,14.78,7.95,12.86,9,29.33,8.35,44.04-.6,13.5-2.69,27.24-6.72,40.16-5.23,16.73-18.46,30.43-34.75,36.82-7.2,2.82-18.81,5.77-25.56.32-4.55-3.68-4.55-10.29-1.53-14.93,3.78-5.83,11.55-7.16,17.56-3.91,7.62,4.13,6.23,11.85,2.23,17.73,1.45-.28,2.76-.6,3.84-.92,18.58-5.54,32.19-20.73,37.13-39.16,3.22-12.03,5.05-24.58,5.4-37.03.37-13.16-.7-27.55-7.33-39.23-7.12-12.55-21.74-19.07-35.98-16.13-14.27,2.94-20.23,17.47-29.21,27.24-18.58,20.2-55.34,23.03-75.19,3.3-5.86-5.84-8.68-15.64-15.81-19.69-9.26-5.25-22.09-.43-29.42,4.77-.82.59-1.86.32-1.54-.88.77-2.9,2.17-5.67,3.82-8.16,1.63-2.48,3.64-4.69,5.93-6.56-8.6-.17-17.62-3.33-23.78-9.2-12.31,5.36-20.56,17.32-25.25,29.52-3.78,9.83-7.12,23.93-1.16,33.61,2.56,4.14,7.7,7.18,12.68,5.96Z"/>
</svg>