<?xml version="1.0" encoding="UTF-8"?>
<svg id="Layer_1" xmlns="http://www.w3.org/2000/svg" version="1.1" viewBox="0 0 288 281.44">
  <!-- Generator: Adobe Illustrator 30.5.1, SVG Export Plug-In . SVG Version: 2.1.4 Build 3)  -->
  <path d="M251.81,73.07c-3.14-18.32-28.37-34.19-42.95-37.1-12.71-2.54-62.18-1.86-88.69-1.32-26.38.53-43.22,14.58-53.16,25.58-6.42,7.1-14.71,19.74-16.97,26.1-2.25,6.36-8.57,22.13-3,50.36,5.57,28.23,28.45,45.35,42.69,51.42,22.4,9.54,69.33,4.71,103.67,5.3,31.02.53,56.92-38.83,58.95-51.95,2.3-14.84,2.83-48.77-.53-68.38ZM241.38,139.77c-1.72,8.22-19.53,43.29-51.61,43.29-34.34,0-74.72,4.59-94.74-5.48-20.02-10.07-33.67-26.68-36.59-43.64-2.55-14.84-3.76-36.31,3-48.23,6.76-11.93,11.58-20.41,19.8-26.5,8.22-6.1,16.75-14.4,33.58-15.19,18.27-.86,74.5-4.06,94.92,1.77,20.42,5.83,30.93,21.2,34.11,30.21,3.18,9.01.31,50.51-2.47,63.78Z"/>
  <path d="M115.53,62.17c-6.54.71-17.4,15.12-6.54,20.32,8.48,4.06,14.32-4.24,16.26-9.01,1.94-4.77-1.61-12.19-9.72-11.31ZM112.34,77.37c-4.49-2.47.49-10.68,4.24-9.54,7.6,2.3-.71,11.48-4.24,9.54Z"/>
  <path d="M190.28,67.65c-14.21-4.1-21.82,15.8-7.6,20.67,12.37,4.24,23.51-16.08,7.6-20.67ZM183.74,83.38c-5.69-2.01.71-11.13,4.07-10.25,7.06,1.86,1.94,12.37-4.07,10.25Z"/>
  <path d="M196.31,146.11c-1.12-5.03-6.89-6.89-12.37-6.71-7.44.24-16.44,14.54-3.36,20.14,12.37,5.3,17.14-7.07,15.73-13.43ZM183.41,154.23c-5.13-1.06-.86-10.46,3-9.01,7.07,2.65,2.12,10.07-3,9.01Z"/>
  <path d="M105.59,135.52c-8.48-.53-16.97,14.84-8.13,20.85,7.27,4.94,15.02,0,17.32-7.95,1.13-3.92-3.01-12.51-9.19-12.9ZM101.88,151.42c-5.3-2.47,1.65-10.28,3.89-9.01,4.06,2.3,1.41,11.49-3.89,9.01Z"/>
  <path d="M203.29,107.79c-1.06,0-22.54-1.89-30.57-3.1-8.03-1.21-13.33-5.55-17.88-12.2-5.41-7.9-4.62-31.17-4.47-41.76,0,0-2.52-.45-3.73-.45s-2.37,24.8-3.62,33.13c-1.25,8.33-13.43,19.88-21.12,22.09-6.12,1.76-43.75,4.95-44.81,4.95s-.53,1.7-.53,2.47,32.53,1.12,42.35,1.75c11.64.74,20.73,16.27,21.84,18.91,2.67,6.39,2.53,35.46,1.92,36.06-.61.61,2.83,1.45,2.83.09s2.89-25.61,4.71-32.72c1.82-7.11,13.15-18.47,20.12-21.48,6.97-3.01,33.36-3.95,33.36-3.95,0,0,.68-3.78-.38-3.78ZM154.41,117.86c-4.51,3.94-8.42,14.36-8.42,14.36,0,0-1.47-9.65-9.26-15.24-3.75-2.69-9.02-3.86-15.88-6.16-.17-.06,11.78-3.7,17.47-9.39,6.19-6.19,8.14-14.91,8.14-14.91,1.54,7.8,4.1,12.08,6.71,14.73,3.55,3.61,16.12,8.03,16.12,8.03.06,0-10.21,4.5-14.88,8.58Z"/>
  <path d="M272.8,197.63c3.89-5.71,11-12.32,14.45-30.48,1.64-8.64.2-62.57-.53-98.72-.65-31.91-36.26-66.03-68.96-67.71-30.9-1.59-134.76-.36-169.73,1.84C22.64,4.16,4.35,40.2,3.77,51.47c-.63,12.37-5.04,84.45-3.41,107.51,1.63,23.07,13.69,38.78,19.39,46.38,0,0-4.91,4.13-8.66,11.11-2.67,4.98-5.95,10.84-3.88,30.36,2.04,19.21,18.03,25.24,22.46,27.13,9.69,4.13,24.47,5.41,41.63,4.11,23.78-1.81,33.37-13.4,33.37-13.4,0,0,4.15,5.62,7.5,7.88,4.39,2.97,12.69,6.98,33.11,7.11,27.93.18,40.05-14.74,40.05-14.74,0,0,7.33,7.87,14.35,11.24,6.72,3.23,15.14,5.72,34.43,5.22,24.61-.64,40.56-18.81,41.89-36.84,1.44-19.43-20.18-27.96-21.26-30.14-1.09-2.17,9.6-4.32,18.08-16.78ZM102.08,252.12c-4.77,12.71-23.88,16.96-38.37,17.05-12.91.08-30.49,1.43-41.61-12.89-12.99-16.73-2.17-39.62,4.47-42.79,3.53-1.69,10.2,1.99,12.03,2.75,3.37,1.4,10.28,3.55,13.65,4.86,3.37,1.31,8.49,4.56,7.33,9.75-1.78,7.94-13.26,4.73-13.58,5.67-1.2,3.44,3.88,10.37,18.23,6.36,16.73-4.67,15.59-18,17.28-18.47,1.68-.47,18.15-.6,20.95-.13,2.27.38,4.39,15.14-.37,27.85ZM66.63,223.28c3.27,0,6.83.14,9.17.33,1.27.1-1.09,8.27-9.51,10.84-.72.22.08-.78.69-4.47.84-5.14-2.21-6.7-.34-6.7ZM184.07,248.28c-1.84,6.27-4.68,20.69-37.21,21.59-27.02.75-36.65-8.04-36.83-11.49-.1-1.87,2.05-8.98,3.29-16.09,1.06-6.1,1.08-13.83,1.11-16.95,0-.73,18.69-.32,19.72.05,1.03.37-1.87,23.08,13.93,23.08,18.04,0,18.56-20.7,19.31-21.07.75-.37,16.59-1.08,17.9-.98,1.31.09.37,16.45-1.22,21.87ZM141.25,227.57c0-1.03,17.39-.87,18.6-.78.92.07-1.87,14.58-10.1,14.02-8.59-.59-8.51-7.44-8.51-13.24ZM266.15,243.99c-1.22,15.42-12.53,30.18-36.93,29.62-25.06-.58-33.37-11.31-34.03-12.43-.65-1.12-1.93-7.73-.12-13.16,1.55-4.64.77-17.7,2.24-20.62.65-1.31,14.06-1.45,13.13-1.45-.09,0-.7,9.44-.23,14.86.53,6.11,6.01,10.26,16.85,9.8,10.84-.47,13.48-9.42,12.64-9.79-.84-.37-8.36,3.17-13.5-3.1-5.99-7.3,8.86-14.39,18.23-15.12,9.99-.78,22.86,7.11,21.73,21.4ZM218.83,238.06c.61,4.01,2.72,5.32,2.72,5.32,0,0-1.89.69-4.13-1.37-2.82-2.61-.52-14.35-.52-15.47,0,0,2.44.02,3.55.02s-3.05,2.21-1.63,11.5ZM216.91,215.71c-28.21,1.04-145.84.21-165.1-4.83-17.47-4.57-38.98-17.85-40.19-51.88-1.16-32.56-1.99-96.97,4.64-111.54C26.57,24.77,42.73,13.08,55.8,11.36c5.81-.76,68.05-2.24,85.62-2.58,33.35-.65,61.27-2.57,80.81-.07,23.26,2.97,52.26,29.55,54.45,59.01,2.2,29.46,3.65,83.1-2.04,102.61-3.81,13.07-22.72,44.09-57.75,45.38Z"/>
</svg>