<?xml version="1.0" encoding="UTF-8"?>
<svg id="Layer_1" data-name="Layer 1" xmlns="http://www.w3.org/2000/svg" xmlns:xlink="http://www.w3.org/1999/xlink" viewBox="0 0 146.86 328.71">
  <defs>
    <style>
      .cls-1 {
        fill: none;
      }

      .cls-2 {
        fill: #16181a;
      }

      .cls-3 {
        clip-path: url(#clippath-1);
      }

      .cls-4 {
        fill: #fff;
      }

      .cls-5 {
        clip-path: url(#clippath);
      }
    </style>
    <clipPath id="clippath">
      <rect class="cls-1" width="146.86" height="328.71"/>
    </clipPath>
    <clipPath id="clippath-1">
      <rect class="cls-1" width="146.86" height="328.71"/>
    </clipPath>
  </defs>
  <g id="Artwork_21" data-name="Artwork 21">
    <g class="cls-5">
      <g class="cls-3">
        <path class="cls-2" d="M46.32,1.36c9.24-1.76,18.86-1.79,28.13-.21,2.43.64,5.96,1.15,6.69,3.99.61,26.59-1.35,53.48,3.55,79.79,2.12,12.22,6.4,23.96,11.72,35.13,5.07,11.41,10.39,23.22,10.78,35.91.45,8.86-.96,17.92-4.94,25.9-2.58,5.32-6.29,9.98-9.02,15.21.55.09,1.66.27,2.21.37-1.46,7.18-.64,14.5-1.1,21.73-3.18,5.16-2.89,11.8-7.04,16.47,3.22-.18,6.45-.23,9.67-.28.43-2.74.04-6.45,2.88-7.99,2.28-1.16,4.66.84,5.1,3.06,1.2,5.08.99,10.44.1,15.56-.34,2.16-2.14,4.6-4.62,3.69-3.29-.76-2.77-4.82-3.21-7.37-3.89-.1-7.78.04-11.68-.02,3.93,3.33.96,9.02,3.92,12.79,1.4,1.96,3.61,3.06,5.69,4.17,6.12,3.03,12.36,5.81,18.53,8.74-.37-4.86-.14-10.04,2.47-14.3,3.25-5.61,9.85-9.43,16.41-8.26,7.39.74,13.24,7.36,14.05,14.58,1.06,6.94-1.24,14.03-5.4,19.58-3.86,5.76-9.73,9.63-14.49,14.54-3.34,3.24-4.98,7.68-5.8,12.17-2.89,1.85-3.89,5.35-6.29,7.68-2.85,2.78-5.38,5.92-8.54,8.37-3.53,2.07-7.67,2.77-11.62,3.65-15.8,2.9-31.96,3.07-47.97,2.33-8.79-.71-17.63-1.75-26.11-4.26-3.35-.87-6.08-3.1-8.32-5.66-3.72-3.98-8.72-7.78-9.17-13.65-.21-7.22-.1-14.45-.2-21.67-1.97-2.46-3.76-5.92-1.94-8.95,2.12-2.97,5.78-4.22,8.79-6.06,7.06-4.16,14.93-6.79,21.77-11.34,5.49-3.3-.34-12.67,6.43-14.89-.19-1.28-.36-2.55-.53-3.82-3.99-2.84-6.09-7.42-6.91-12.13-.22-3.34-3.34-5.63-3.28-9,.16-5,.69-10.01.02-14.99-.07-1.92-1.23-4.44,1.06-5.55-2.87-5.62-7.06-10.48-9.42-16.36-5.85-13.24-5.28-28.6-.4-42.04,5.62-15.55,13.88-30.2,17.55-46.43,6.26-28.08,4.57-57.07,4.78-85.62-.24-3.1,3.34-4,5.7-4.56"/>
        <path class="cls-4" d="M45.34,5.55c6.25-1.43,12.7-1.66,19.09-1.59,4.17.2,8.48.27,12.37,1.96-10.41,1.44-21.07,1.36-31.46-.37"/>
        <path class="cls-4" d="M44.3,6.32c3.59,2.49,8.05,2.46,12.22,2.9,6.95.53,14.04.04,20.7-2.08-.45,8.29-.09,16.6-.16,24.89.04,22.43.45,45.24,6.74,66.94,4.31,13.73,10.99,26.53,15.96,40.01,3.94,10.48,4.64,22.17,1.81,33.01-1.9,6.78-5.63,12.85-9.67,18.55-2.6,3.65-2.74,8.27-4.24,12.36-1.4-1.91-2.43-4.19-4.43-5.56-2.39,1.08-3.58,3.67-5.11,5.66-.58-2.37-2.4-4.02-3.67-5.99-.53-2.85.28-6.07-1.48-8.58-1.95-2.53-5.4-3.01-8.38-3.01,5.16-4.05,6.04-11.35,4.73-17.39-1.61-7.56-5.3-14.47-9.08-21.14-.34,8.02-4.87,14.78-7.61,22.06-2.19,5.71-.09,11.87,3.61,16.42-2.56.65-5.57.82-7.53,2.79-1.87,2.89-.89,6.61-1.62,9.82-1.04,1.33-2.27,2.49-3.39,3.77-1.22-1.68-2.59-3.24-4.1-4.66-2.01,1.25-3.66,2.96-5.02,4.89-2.52-3.34-2.26-7.86-4.85-11.17-3.59-5.23-7.26-10.55-9.04-16.72-4.12-11.68-2.67-24.59,1.64-35.99,3.31-8.46,6.95-16.79,10.6-25.1,5.17-12.03,8.22-24.91,9.48-37.92,2.47-22.83,2.01-45.83,1.89-68.76"/>
        <path class="cls-2" d="M47.03,12.92c-.06-1.22.07-2.42.88-3.38,2.2,15.56.93,31.39-.06,47.01-.14-.01-.42-.04-.56-.05-.13-14.53-.22-29.06-.26-43.58"/>
        <path class="cls-2" d="M73.78,10.37c1.62,1.44.84,3.75,1.1,5.63.93,24.98-.76,50.2,3.71,74.93,1.06,6.44,3.48,12.57,4.64,18.98-7.07-15.5-9.46-32.6-10.52-49.45-.3-13.51-.05-27.02.25-40.52.08-3.21.08-6.44.82-9.57"/>
        <path class="cls-2" d="M68.77,14.94c-.1-1.05.39-1.97.85-2.85,1.7,22.91.14,45.98,2.59,68.86.43,5.13,1.58,10.17,1.92,15.3-1.35-3.29-1.88-6.83-2.55-10.29-4.44-23.41-3.34-47.34-2.81-71.02"/>
        <path class="cls-2" d="M45.18,83.05c.51-2.75.68-5.59,1.68-8.22-.34,12.87-2.44,25.71-5.96,38.09-2.47,8.61-7.07,16.43-9.38,25.09-.99,3.02-1.41,6.21-2.63,9.16.34-9.13,3.28-17.91,6-26.56,4.31-12.25,8.37-24.68,10.29-37.56"/>
        <path class="cls-2" d="M96.16,148.86c-1.93-11.77-7.83-22.4-10.48-33.96,6.15,13.85,14.7,27.49,14.65,43.15.4,13.31-4.99,27.99-16.85,35.05,1.65-2.09,4.47-3.33,5.07-6.12l.67.63c1.85-3.9,4.13-7.6,5.45-11.73,2.9-8.67,3-18.08,1.49-27.02"/>
        <path class="cls-2" d="M89.92,142.71c5.17,11.64,5.45,25.94-.89,37.21-2.24,4.55-6.02,8.08-8.36,12.55-.24.05-.71.15-.95.2,6.43-9.67,11.24-20.85,11.78-32.6.53-5.85-.76-11.61-1.58-17.36"/>
        <path class="cls-2" d="M36.66,192.72c-14.24-11.35-18.3-31.94-12.6-48.75-1.27,12.48-.3,25.57,5.57,36.87,1.91,4.22,5.06,7.7,7.03,11.88"/>
        <path class="cls-4" d="M55.8,169.13c1.95-4.51,4.15-8.92,5.99-13.48,2.25,5.26,5.1,10.47,5.47,16.3.39,3.88-.79,7.68-2.25,11.23-1-2.7-1.05-6.37-3.96-7.81-3.58.5-3.85,4.98-4.2,7.83-2.78-4.11-3.02-9.57-1.05-14.07"/>
        <path class="cls-4" d="M60.15,177.53c1.22-.67,1.54.98,1.84,1.83.29,1.72.21,3.48.25,5.23-.82.17-2.46.5-3.28.66.12-2.6.07-5.31,1.19-7.72"/>
        <path class="cls-4" d="M50.83,190.47c5.69-2.58,12.32-2.44,18.3-1.03,2.54.71,2.02,3.72,2.19,5.74-.83-1.96-1.03-5.03-3.77-5.05-5.17-.37-10.89-1.13-15.67,1.34-.51,2.54-.1,5.16-.23,7.74-2.01-2.19-.75-5.98-.82-8.74"/>
        <path class="cls-4" d="M53.28,192.25c1.37-.37,2.77-.56,4.2-.57,1.37,1.02,2.78,2.01,4.13,3.08-1.13-.38-2.26-.76-3.38-1.15.04,2.15-.16,4.3-.45,6.43-.95.54-2.34,2.59-3.36,1.01-2.6-2.22-1.75-5.9-1.14-8.8"/>
        <path class="cls-4" d="M37.37,203.79c.47-1.1.93-2.2,1.69-3.12.7,1.35,1.32,2.74,1.88,4.17-1.54,2.82-.04,7.78,3.74,7.76,1.33-1.01,1.8-2.7,2.62-4.06-1.49-2.5-.75-5.33,1.24-7.3,1.21,1.15,2.37,2.35,3.51,3.58-.32.84-.95,2.53-1.27,3.37.83,1.64,1.7,3.26,2.61,4.87,1.56-.51,3.24-.85,4.56-1.89-.06-3.13-1.4-6.92,1.58-9.16.98-1.37,2.17.44,3,1.03,2.91,2.07-.51,6.29,1.95,8.7.91,1.31,3.1,1.84,4.16.42,3.47-2.36-.72-7.06,2.47-9.65.8-1.21,2.19-.83,2.93.22-.71.28-2.12.82-2.82,1.1-.86,2.85,1.17,6.27-1.45,8.53-1.49,2.32-5.04,1.86-6.44-.3-2.35-2.72.9-7.24-2.88-9.05-3.82,3.26,1.98,9.07-3.05,11.45,3.04,2.54,7.48,1.43,11.15,2.13-6.3,1.93-13.55-1.3-19.31,2.4,13.68.43,27.63,1.08,41.06-1.93l.1.76c-7.83,1.67-15.86,2.03-23.83,2.54-11.78.42-23.91.76-35.26-2.93,5.93.72,11.89,1.09,17.86,1.39-.03-.7.33-1.96-.79-1.89-4.76-.4-9.67-.51-14.14-2.37,2.07.02,4.14.1,6.22.09-1.67-2.95-5.81-1.98-8.68-2.82-.44-2.96-.88-5.93-.95-8.92,1.3,2.61,1.09,5.6,1.91,8.35,1.71.44,3.75.38,5.21-.73.33-2.26.34-4.61-.58-6.74"/>
        <path class="cls-4" d="M88.83,211.75c.84-2.99.93-6.18,2.2-9.03-.16,3.13-.9,6.2-1,9.35-.3-.08-.9-.24-1.2-.32"/>
        <path class="cls-4" d="M36.95,223.62c7.56.28,15.12.96,22.69,1.36-1.2,3.41.01,7.06-.33,10.59-5.31.76-10.6-.24-15.85-1.01-1.55-3.34-1.69-7.45-4.12-10.26-1.89,3.14,1.16,6.79,1.81,10.03-2.67-2.86-2.74-7.2-4.2-10.71"/>
        <path class="cls-2" d="M42.45,224.79c.59.22,1.76.66,2.34.88,1.33,2.87,1.96,6.02,2.45,9.14-4.59-.7-4.13-6.44-4.79-10.02"/>
        <path class="cls-4" d="M78.79,234.15c1-3.15,1.25-6.77,3.32-9.44-.58,3.28-1.38,6.67-3.32,9.44"/>
        <path class="cls-2" d="M47.8,225.51c.66.08,1.98.23,2.64.3.81,3.02,1.3,6.12,1.87,9.2-.75-.09-2.25-.26-3-.35-.9-2.95-1.77-6.05-1.51-9.15"/>
        <path class="cls-2" d="M53.23,225.74c.96.06,2.88.16,3.84.22.2,2.8.52,5.58,1.01,8.35-1.17.66-2.52.74-3.83.83-.53-3.11-.79-6.26-1.02-9.4"/>
        <path class="cls-4" d="M69.88,226.09c.29.06.87.18,1.15.24-.67,2.92-.54,6.15-2.25,8.74.02-3.04.56-6.02,1.1-8.98"/>
        <path class="cls-4" d="M76.04,225.53c.74,2.94-.31,6.39-2.1,8.79.49-2.98,1.22-5.91,2.1-8.79"/>
        <path class="cls-4" d="M100.96,245.2c-.12-4.75-2.05-10.07.17-14.54.19,4.84,1.45,9.78-.17,14.54"/>
        <path class="cls-4" d="M85.28,238.42c4-.34,8.03-.09,12.04-.31l.07.72c-4.03-.19-8.11.27-12.11-.41"/>
        <path class="cls-4" d="M41.15,241.79c7.48.77,15.06.91,22.45,2.36-5.14,1.1-10.42.59-15.6.09-2.4-.4-5.14-.41-6.85-2.45"/>
        <path class="cls-4" d="M37.91,246.24c15.31,2.7,31.02,2.68,46.34.06-1.66,1.3-3.87,1.13-5.82,1.53-8.8,1.1-17.64,1.81-26.47,2.56,5.66,1.86,11.8.97,17.61,2.12-6.05.58-12.15.45-18.21.91,6.11,2.39,12.95,1.26,19.36,2.05-7.31,1.35-14.8,1.2-22.17.53-3.76-.5-7.61-1.03-11.07-2.66,2.75-.15,5.5.08,8.25-.08-2.44-1.62-5.42-2.08-7.84-3.69,2.59.21,5.17.96,7.79.53-2.44-1.61-5.39-2.19-7.77-3.86"/>
        <path class="cls-4" d="M118.55,256.05c2.82-7.68,15.35-10.92,20.11-3.47-3.81-2.17-8.56-2.95-12.71-1.29-4.95,1.58-8.04,6.74-8.21,11.77-.11,2.25-.41,4.49-1.12,6.65l1.75.5c-.65-.16-1.93-.47-2.58-.63,2.15-4.18.3-9.35,2.76-13.53"/>
        <path class="cls-4" d="M82.88,249.16c2.84-.25-.01,2.74-1.5,2.06-1.71-.69.58-2.12,1.5-2.06"/>
        <path class="cls-4" d="M124.38,258.03c2.46-3.68,8.32-4.69,11.38-1.22,2.86,4.21,2.3,10.01-.09,14.32-4.03,7.13-10.97,11.85-16.05,18.14.18-2.41.17-4.84.52-7.22,1.3-1.78,3.25-3.56,2.68-6.02-.67-5.93-2.3-12.78,1.56-18"/>
        <path class="cls-4" d="M31.27,260.93c2.18.13,3.57-1.73,5.16-2.88,7.16,1.96,14.67,1.99,22.03,2.6,9.06.72,18.02-1.15,26.93-2.58,7.11,5.37,15.47,8.66,23.37,12.66,2.2,1.15,4.5,2.28,6.14,4.21-3.16.41-6.34.54-9.52.73,1.93-.65,3.9-1.3,5.59-2.47-2.85-1.05-5.7.07-8.52.53,1.58-.71,3.18-1.4,4.76-2.13-2.4-1.53-5.15-.51-7.69-.07,1.26-.84,2.53-1.67,3.78-2.52-2.62-.25-5.24.07-7.83.48,1.46-.76,2.93-1.5,4.36-2.29-2.6-.36-5.21-.43-7.82-.5.89-.4,2.66-1.21,3.55-1.61-2.05-.38-4.13-.39-6.2-.3.92-.6,1.83-1.19,2.74-1.8-1.7-.09-3.39-.15-5.09-.16.53-.48,1.59-1.42,2.12-1.89-1.11.06-3.33.2-4.44.26.43-.56,1.3-1.69,1.73-2.26-11.3,1.63-22.66,2.88-34.03,3.95,4.64,1.41,9.63.67,14.36,1.74-5.04.89-10.19.28-15.26.9,5.57,2.07,11.81.32,17.41,2.27-6.14.95-12.38.25-18.55.93,6.64,1.96,13.75.29,20.45,1.87-7.02.5-14.07.77-21.11.93-.01.24-.02.72-.03.96,7.7.48,15.43.44,23.13.89-8.35,1.66-16.97.89-25.43,1.48,8.48,2.06,17.41,1.96,26.07,1.2v.6c-6.63.73-13.27,1.47-19.94,1.42-2.48.02-5.1-.65-7.46.39,9.7,1.77,19.68,1.38,29.48.86-9.18,1.99-18.63,1.84-27.98,1.83-4.98-.03-10.1-1.04-14.96.52,17.12,2.34,34.57,2.91,51.8,1.46,11.01-1.56,22.63-1.35,32.82-6.41.22.3.66.9.88,1.2-7.61,3.94-16.25,4.99-24.63,6.09-26.97,2.26-54.49,3.49-81.1-2.42-3.35-.91-7.4-1.8-8.83-5.39,6.86,3.39,14.61,4.69,22.23,4.52-1.16-1.81-3.47-1.8-5.32-2.35-4.42-.93-8.82-2-12.99-3.76,7.28-5.28,15.79-8.53,23.71-12.7-.12.61-.37,1.82-.49,2.43,3.06.13,6.11.61,9.18.43-2.07-1.79-4.97-2.32-7.63-2.08-.31-.6-.62-1.19-.93-1.77"/>
        <path class="cls-4" d="M140.9,257.94c1.91,4.84,1.66,10.44-.78,15.04-3.26,6.25-8.47,11.4-14.46,15.05,8.28-7.77,17.34-17.77,15.24-30.09"/>
        <path class="cls-2" d="M35.32,259.72c2.25.47,4.51,1.03,6.55,2.14-2.27.14-4.53-.2-6.76-.56l.21-1.58Z"/>
        <path class="cls-2" d="M25.2,266.54c3.71-2.77,8.54-.12,12.42,1.1-2.82.57-5.92-.59-8.56.28.65,2.06,3.76.95,4.89,2.76-4.61.4-9.19-.36-13.74-1.01,2.82,2.76,7.47,1.6,10.68,3.79-3.32.27-6.65,0-9.97-.02,1.77,2.31,5.22,1.71,7.57,3.26-6.32.49-12.7-.35-18.79-2.04,1.56-.73,3.04-2.72,4.9-2.12,2.37,1.03,4.82,1.88,7.41,2.17-1.24-2.47-4.51-1.25-6.38-2.87.58-1.86,3.4-1.57,4.86-2.52,2-2.42,4.84-1.36,7.44-1.25-.68-.38-2.04-1.15-2.73-1.53"/>
        <path class="cls-4" d="M6.73,284.54c10.69,3.74,22.06,4.44,33.26,5.35,10.52,1.18,21.14.72,31.69,1.57-10.29.74-20.62.82-30.93.48,3.45,2.1,7.76,1.26,11.6,1.82,7.39.81,14.83.49,22.24.64-11.22,1.98-22.63.68-33.93.98,1.89,1.6,4.51,1.08,6.78,1.45,8.88.93,17.81.92,26.72,1.54v.29c-11.03.56-22.09.64-33.14.37,1.88,2.09,4.96,1.27,7.44,1.79,8.35,1.02,16.82.69,25.16,1.76-10.96.77-21.96.87-32.94.39.44.33,1.3.99,1.74,1.31,10.6,1.39,21.3,1.56,31.98,1.72-11.16,1.81-22.5.9-33.74,1.26,1.82,1.73,4.51,1.15,6.77,1.56,8.98,1.08,18.02.86,27.03,1.14-11.3,1.96-22.8.81-34.17,1.48,2.17,1.26,4.74,1.2,7.15,1.48,8.96.98,17.98.34,26.97.86-3.95.72-7.96.92-11.95,1.11-15.33.18-30.95.59-45.83-3.69-3.35-1-7.26-2.11-9.18-5.27-1.06-7.06-.42-14.27-.72-21.39"/>
        <path class="cls-4" d="M106.46,288.81c3.06-1.42,6.1-2.88,9.24-4.14-.09,4.09-.55,8.17-.4,12.27,0,3.05.39,6.22-.58,9.17-1.71,2.99-5.39,3.79-8.47,4.65,2.45-2.27,6.2-3.26,7.55-6.53-2.73.86-5.41,1.99-8.27,2.39,2.62-2.08,6.86-2.36,8.31-5.64-2.53.52-4.98,1.39-7.53,1.81,2.49-1.86,5.71-2.5,7.97-4.69-2.62.14-5.22.57-7.84.66,2.8-1.15,5.84-1.95,8.07-4.13-2.48-.35-4.85.64-7.27,1,2.2-1.73,5.26-2.27,6.95-4.6-2.69.06-5.21,1.01-7.79,1.61,2.41-2.03,6.03-2.46,7.83-5.16-2.67-.28-5.1,1.34-7.77,1.33"/>
        <path class="cls-2" d="M9.13,286.58c5.1,1.51,10.3,2.65,15.43,4.03-4.94.79-9.92-.11-14.72-1.25-.18-.69-.53-2.08-.71-2.78"/>
        <path class="cls-2" d="M9.51,289.91c4.26,2.21,9.57,2.08,13.42,4.99-4.39.04-8.67-.98-12.94-1.9-.12-.78-.36-2.32-.48-3.09"/>
        <path class="cls-2" d="M9.69,293.48c3.95,1.84,8.23,2.74,12.34,4.11.21.25.63.76.84,1.01-4.49.03-8.83-1.18-13.22-1.95.01-.8.03-2.38.04-3.17"/>
        <path class="cls-2" d="M9.65,297.06c4.28,2.61,9.69,2.58,13.82,5.42-4.71.18-9.26-1.19-13.76-2.36l-.06-3.06Z"/>
        <path class="cls-2" d="M11.82,304.36c-1.81-.19-1.52-2.07-.86-3.21,3.82,2.66,8.67,2.82,12.86,4.65-3.98.88-8.09-.74-12-1.44"/>
        <path class="cls-2" d="M9.38,306.03c.69-.45,1.38-.9,2.08-1.34,3.58,3.4,9.38,2.62,13.29,5.67-5.26-.41-11.3-.51-15.37-4.33"/>
      </g>
    </g>
  </g>
</svg>