<?xml version="1.0" encoding="UTF-8"?>
<svg id="Layer_1" xmlns="http://www.w3.org/2000/svg" version="1.1" viewBox="0 0 360.06 443.49">
  <!-- Generator: Adobe Illustrator 30.5.1, SVG Export Plug-In . SVG Version: 2.1.4 Build 3)  -->
  <defs>
    <style>
      .st0 {
        fill: #f1d380;
      }
    </style>
  </defs>
  <path class="st0" d="M127.24,173.75c.19.43,1.14,2.51,3.44,4.16,3.58,2.57,9.7,3.13,13.08-.09.53-.51,1.92-1.83,2.31-3.49.08.21.16.42.23.64.14.45,1.05,3.43-.43,5.23-1.6,1.96-4.9,1.21-5.02,2.01-.12.88,3.83,2.08,6.39,2.61,2.21.46,3.33.67,4.07.1.35-.27,1.32-1.22.21-7.09-.92-4.87-1.39-7.3-3.15-9.78-2.89-4.07-6.99-5.59-8.12-5.99-4.27-1.52-8.47-1.27-15.5-.35-3.4.44-5.59,1.08-8.28-.1-3.59-1.57-5.38-5.17-5.72-4.93-.26.19.85,2.25,1.87,3.77.7,1.05,1.42,2.12,2.63,3.19,2.33,2.07,4.86,2.71,5.87,2.95,1.06.25,1.59.21,5.85.08-.18.47-.34.98-.45,1.56-.51,2.67.38,4.77.72,5.52h0Z"/>
  <path class="st0" d="M244.06,282.05c5.98-10.03,1.66-21.91.95-23.86-1.43-3.92-3.37-6.81-4.76-8.6.76,1.64,6.9,15.5,0,27.73-2.89,5.13-7.01,8.07-8.46,9.03-6.2,4.11-12.34,4.34-16.92,4.51-2.23.08-8.53.14-16.07-2.58-5.28-1.91-13.93-4.77-15.01-10.39-.28-1.43-.22-3.84-.18-5.8.06-2.69.09-4.03.5-5.7.28-1.12.61-1.93.94-2.58,3.1-2.9,4.02-10.49,11.37-12.89.25-.08,1.86-.52,2.38.21.98,1.39-2.85,5.71-2.38,6.18.34.34,2.76-1.45,4.76-4.05,1.15-1.49,2.86-3.78,3.37-7.25.23-1.54.79-5.42-.99-6.82-1.57-1.23-3.48.65-9.52,1.92-2.36.5-7.54.49-10.78.7-.67.04-1.33.04-2,0-3.24-.2-8.42-.2-10.78-.7-6.04-1.27-7.94-3.15-9.52-1.92-1.79,1.4-1.22,5.28-.99,6.82.51,3.47,2.22,5.75,3.37,7.25,2,2.6,4.42,4.39,4.76,4.05.47-.47-3.36-4.79-2.38-6.18.52-.74,2.13-.32,2.38-.21,7.91,3.27,8.72,10.08,11.4,12.83.34.66.68,1.48.97,2.64.41,1.67.44,3.01.5,5.7.04,1.97.09,4.38-.18,5.8-1.09,5.62-9.73,8.48-15.01,10.39-7.54,2.72-13.84,2.66-16.07,2.58-4.57-.17-10.71-.4-16.92-4.51-1.45-.96-5.56-3.9-8.46-9.03-6.9-12.23-.76-26.09,0-27.73-1.39,1.79-3.33,4.68-4.76,8.6-.71,1.95-5.03,13.83.95,23.86,3.35,5.62,8.36,8,12.79,10.1,1.69.8,13.48,6.21,27.17,3.33,4.05-.85,6.89-2.14,13.32-2.79,2.53-.26,7.85-.27,8.49-.29.64.02,5.96.04,8.49.29,6.43.66,9.28,1.94,13.32,2.79,13.69,2.88,25.48-2.53,27.17-3.33,4.44-2.11,9.44-4.48,12.79-10.1h0Z"/>
  <path class="st0" d="M217.9,315.68c.8-.96,1.59-1.92,2.21-3.01,1.31-2.13,2.09-4.59,2.24-7.02.15-2.44-.33-4.83-1.22-6.97.26,2.31.18,4.6-.39,6.71-.61,2.1-1.6,4.01-3,5.61-1.36,1.63-3.02,2.98-4.83,4.14-1.8,1.16-3.75,2.14-5.76,2.96-4.04,1.64-8.33,2.77-12.67,3.52-2.17.37-4.37.66-6.56.83-2.19.19-4.39.27-6.57.23-4.36-.08-8.78-.62-13.1-1.49-4.32-.88-8.56-2.15-12.49-3.97-3.9-1.84-7.53-4.3-9.85-7.83-1.14-1.76-1.93-3.78-2.25-5.96-.33-2.18-.18-4.47.23-6.75-1.03,2.08-1.71,4.39-1.85,6.82-.18,2.43.32,4.94,1.32,7.25,1.02,2.3,2.56,4.36,4.33,6.1,1.78,1.74,3.78,3.21,5.88,4.45,4.22,2.47,8.78,4.16,13.42,5.33,4.65,1.17,9.4,1.83,14.24,1.95,4.85.06,9.63-.44,14.31-1.46,4.67-1.04,9.28-2.55,13.58-4.81,2.15-1.12,4.21-2.46,6.1-4.04.95-.78,1.84-1.66,2.67-2.57v-.02Z"/>
  <path class="st0" d="M143.34,285.19c3.49.94,7.14.98,10.61.43,3.47-.57,6.84-1.74,9.78-3.57-3.34.86-6.67,1.43-9.99,1.61-3.32.17-6.61-.08-9.74-.91-.77-.24-1.55-.47-2.31-.74-.74-.33-1.49-.63-2.21-.99-.7-.4-1.43-.76-2.13-1.18-.68-.44-1.35-.91-2-1.41-2.59-2.02-4.8-4.56-6.73-7.43.98,3.32,2.87,6.42,5.44,8.91,2.55,2.5,5.82,4.31,9.29,5.27h0Z"/>
  <path class="st0" d="M211.38,285.62c3.47.55,7.12.51,10.61-.43,3.47-.97,6.74-2.77,9.29-5.27,2.56-2.49,4.46-5.59,5.44-8.91-1.93,2.87-4.14,5.41-6.73,7.43-.65.5-1.32.96-2,1.41-.69.42-1.42.79-2.13,1.18-.73.35-1.48.65-2.21.99-.76.27-1.54.5-2.31.74-3.13.82-6.42,1.07-9.74.91-3.32-.18-6.65-.75-9.99-1.61,2.94,1.83,6.3,3,9.78,3.57h0Z"/>
  <path class="st0" d="M155.17,218.2c.36-4.69,1.15-9.34,2.42-13.92,1.26-4.58,2.97-9.05,4.95-13.53-3.18,3.73-5.65,8.08-7.44,12.69-.94,2.3-1.64,4.69-2.19,7.12-.58,2.43-.88,4.91-1.1,7.39-.32,4.98.02,10.01,1.22,14.83,1.16,4.82,3.04,9.46,5.71,13.57-1.4-4.69-2.5-9.35-3.14-14.05-.29-2.35-.5-4.71-.57-7.06l-.03-1.77.03-1.76c-.02-1.18.1-2.35.15-3.52h0Z"/>
  <path class="st0" d="M208.54,232.32c-.63,4.7-1.74,9.36-3.14,14.05,2.67-4.11,4.55-8.74,5.71-13.57,1.19-4.82,1.54-9.86,1.22-14.83-.21-2.48-.52-4.97-1.1-7.39-.55-2.43-1.25-4.82-2.19-7.12-1.79-4.62-4.27-8.96-7.44-12.69,1.98,4.47,3.69,8.95,4.95,13.53,1.27,4.57,2.06,9.23,2.42,13.92.05,1.17.17,2.35.15,3.52l.03,1.76-.03,1.77c-.07,2.35-.28,4.71-.57,7.06h0Z"/>
  <path class="st0" d="M183.34,155.7c-.22-2.3-.97-6.94-4.14-11.72-2.91-4.4-6.49-6.83-8.46-7.97,2.77,3.78,6.39,9.7,8.46,17.63.31,1.21.76,3.1,1.58,9.32,1.96,14.91,2.02,23.93,2.58,23.93.53,0,.74-8.15,2.4-23.59.65-6.06.94-7.81,1.32-9.58,1.66-7.76,4.54-13.72,6.74-17.56-1.72,1.28-3.94,3.24-5.91,6.11-3.69,5.35-4.4,10.76-4.57,13.44h0Z"/>
  <path class="st0" d="M258.18,200.26c-.78,1.56-1.66,3.21-2.54,4.7-.89,1.51-1.85,2.96-2.9,4.33-1.04,1.39-2.18,2.69-3.43,4.04-1.22,1.36-2.58,2.78-3.8,4.46-2.5,3.33-4.08,7.39-4.58,11.41-.26,2.01-.29,4.02-.17,5.99.14,1.97.44,3.9.87,5.78.86,3.77,2.21,7.35,3.95,10.71-.1-.95-.25-1.87-.38-2.8l-.34-2.78-.24-2.76c-.03-.92-.13-1.83-.13-2.74-.02-.91-.05-1.81,0-2.71,0-.9.08-1.79.14-2.67.17-1.76.43-3.49.85-5.15.85-3.32,2.31-6.31,4.45-8.84,1.06-1.28,2.3-2.54,3.64-3.9,1.31-1.37,2.65-2.86,3.87-4.45,1.2-1.6,2.3-3.28,3.26-5.01.94-1.77,1.79-3.43,2.56-5.26,1.56-3.62,2.64-7.53,3.01-11.48.79-7.91-1.17-15.88-5.21-22.27,1.77,7.34,2.18,14.69.64,21.56-.75,3.44-1.94,6.71-3.51,9.86v-.02Z"/>
  <path class="st0" d="M122.95,240.96c.43-1.88.73-3.81.87-5.78.12-1.97.09-3.97-.17-5.99-.5-4.01-2.08-8.08-4.58-11.41-1.22-1.67-2.59-3.1-3.8-4.46-1.24-1.35-2.39-2.65-3.43-4.04-1.06-1.37-2.01-2.82-2.9-4.33-.88-1.49-1.76-3.14-2.54-4.7-1.57-3.15-2.77-6.43-3.51-9.86-1.54-6.87-1.13-14.23.64-21.56-.32.5-.62,1.02-.91,1.54.11-.51.23-1.03.35-1.54-4.04,6.39-6,14.35-5.2,22.27.37,3.95,1.45,7.86,3.01,11.48.77,1.83,1.62,3.49,2.56,5.26.96,1.73,2.06,3.41,3.26,5.01,1.21,1.59,2.55,3.08,3.87,4.45,1.33,1.36,2.58,2.62,3.64,3.9,2.14,2.53,3.59,5.52,4.45,8.84.42,1.66.68,3.39.85,5.15.06.88.13,1.77.14,2.67.05.9.01,1.8,0,2.71,0,.91-.1,1.82-.13,2.74l-.24,2.76-.34,2.78c-.12.93-.27,1.86-.38,2.8.26-.51.51-1.02.76-1.54-.07.51-.14,1.02-.2,1.54,1.74-3.36,3.09-6.94,3.95-10.71l-.02.02Z"/>
  <path class="st0" d="M97.58,165.19c.76-2.29,1.16-4.63,1.44-6.94.48-4.63.4-9.23.7-13.59.06-1.09.17-2.16.32-3.17.14-.99.39-2.05.64-3.09.51-2.07,1.2-4.08,2.04-6,1.68-3.82,4.16-7.19,7.27-9.58,1.54-1.22,3.2-2.23,4.95-3.07,1.74-.85,3.68-1.58,5.63-2.13,1.95-.57,3.97-.97,6.03-1.23,2.06-.23,4.16-.3,6.29-.24,4.27.12,8.55.98,12.93,2.3l.33-.59c-3.51-3.05-7.88-5.27-12.57-6.42-2.34-.59-4.77-.92-7.22-1-2.45-.06-4.93.15-7.37.62-2.45.48-4.81,1.23-7.12,2.36-2.3,1.13-4.44,2.62-6.3,4.39-3.73,3.56-6.2,8.05-7.86,12.59-.83,2.28-1.45,4.61-1.86,6.96-.2,1.18-.39,2.33-.49,3.59-.1,1.22-.13,2.42-.12,3.58.07,4.67.51,9.11.42,13.5-.05,2.18-.22,4.35-.69,6.41s-1.26,4.03-2.62,5.57c-1.33,1.57-3.17,2.72-5.21,3.44-2.04.73-4.26,1.06-6.49,1.12l-.02.67c2.28.19,4.62.12,6.91-.42,2.28-.56,4.54-1.65,6.31-3.37,1.82-1.71,2.98-3.98,3.73-6.25h0Z"/>
  <path class="st0" d="M79.14,73.11l-.17,2.11c-.13,1.42-.34,2.86-.57,4.3-.44,2.88-1.07,5.77-1.72,8.65-.67,2.88-1.42,5.76-2.25,8.67-.79,2.91-1.66,5.81-2.42,8.81-.77,2.99-1.47,6.11-1.72,9.38-.2,3.27.14,6.61,1.02,9.67.43,1.52.94,3.05,1.61,4.51.66,1.45,1.43,2.85,2.32,4.15.89,1.3,1.86,2.52,2.91,3.67,1.06,1.13,2.19,2.19,3.38,3.14-1.82-2.46-3.41-5.04-4.58-7.76-1.19-2.72-1.92-5.51-2.29-8.4-.39-2.88-.33-5.69.15-8.46.5-2.77,1.4-5.54,2.36-8.36l3-8.6c.95-2.91,1.94-5.85,2.73-8.87.83-3.01,1.48-6.07,2-9.19.23-1.57.44-3.14.57-4.75.01-.16.02-.32.03-.47,2.41.78,4.83,1.58,7.22,2.4,1.88.66,3.77,1.29,5.62,1.99,1.87.67,3.7,1.4,5.46,2.18.9.39,1.71.79,2.55,1.26.84.47,1.65.99,2.45,1.53,1.6,1.08,3.13,2.3,4.59,3.62,2.93,2.64,5.54,5.7,7.95,8.98-1.52-3.77-3.54-7.4-6.12-10.67-2.59-3.28-5.71-6.18-9.38-8.48-3.59-2.25-7.3-4-11.05-5.68-3.76-1.65-7.53-3.15-11.42-4.53l-4.22-1.49.03,4.8v.85c0,.33-.03.68-.04,1.02v.02Z"/>
  <path class="st0" d="M107,95.7c1.25.08,2.48.24,3.65.58,1.19.35,2.41.8,3.55,1.29l2.61,1.13-1.22-2.54c-.55-1.13-1.16-2.12-1.91-3.1-.37-.48-.79-.95-1.26-1.38-.48-.45-.98-.81-1.47-1.14-2.01-1.37-4.24-2.25-6.37-3.01-2.15-.77-4.22-1.51-6.27-2.44l-6.18-2.79-1.24-.56-.21,1.35c-.26,1.68-.76,3.51-1.3,5.24-.55,1.75-1.17,3.48-1.84,5.2-1.33,3.44-2.98,6.77-4.39,10.26-.7,1.74-1.35,3.53-1.78,5.39s-.63,3.75-.66,5.64c-.04,3.76.45,7.52,1.56,11.09-.8-3.64-1.01-7.38-.77-11.05.22-3.69,1.32-7.19,2.88-10.53,1.55-3.35,3.28-6.66,4.78-10.12.75-1.72,1.44-3.48,2.04-5.28.46-1.39.89-2.76,1.22-4.22,1.66.8,3.32,1.58,5.01,2.34,2.08.96,4.28,1.77,6.39,2.54,2.12.78,4.16,1.55,5.91,2.74.44.3.87.61,1.22.93.37.34.71.71,1.03,1.13.04.05.08.11.12.17-.3-.09-.6-.18-.91-.27-1.35-.37-2.75-.53-4.11-.58-2.75-.1-5.48.35-8.06,1.13l-4.35,1.31,4.49.48c2.06.22,4.09.98,5.78,2.21,1.33.95,2.45,2.19,3.31,3.59-2.67-.39-5.44-.04-7.86,1.08l-1.27.59,1.34.29c1.02.22,2.02.69,2.68,1.47.66.79.96,1.86.96,2.94-.03,2.18-1.1,4.31-2.6,5.98,1.63-1.53,2.93-3.6,3.12-5.96.07-1.16-.15-2.42-.9-3.42-.47-.62-1.09-1.09-1.77-1.43,2.43-.68,5.02-.66,7.4.07l1.37.42-.56-1.36c-.89-2.18-2.38-4.12-4.27-5.57-.87-.67-1.82-1.22-2.82-1.67,1.3-.17,2.6-.24,3.9-.17h.03Z"/>
  <path class="st0" d="M277.03,174.81c2.3.55,4.64.61,6.91.42l-.02-.67c-2.23-.06-4.45-.39-6.49-1.12-2.04-.71-3.89-1.87-5.21-3.44-1.35-1.54-2.15-3.51-2.62-5.57-.47-2.06-.64-4.23-.69-6.41-.09-4.39.35-8.83.42-13.5.01-1.17-.02-2.36-.12-3.58-.1-1.26-.29-2.41-.49-3.59-.42-2.35-1.04-4.68-1.86-6.96-1.66-4.54-4.13-9.03-7.86-12.59-1.86-1.76-4-3.25-6.3-4.39-2.31-1.14-4.67-1.89-7.12-2.36-2.44-.47-4.91-.68-7.37-.62-2.45.08-4.88.42-7.22,1-4.69,1.15-9.05,3.36-12.57,6.42l.33.59c4.38-1.32,8.67-2.18,12.93-2.3,2.12-.07,4.23,0,6.29.24,2.06.26,4.08.66,6.03,1.23,1.94.55,3.88,1.28,5.63,2.13,1.76.84,3.42,1.86,4.95,3.07,3.11,2.39,5.58,5.76,7.27,9.59.84,1.91,1.53,3.92,2.04,6,.25,1.04.5,2.1.64,3.09.15,1.02.26,2.08.32,3.17.3,4.36.22,8.96.7,13.59.27,2.32.68,4.66,1.44,6.94.75,2.27,1.91,4.53,3.73,6.25,1.77,1.73,4.03,2.82,6.31,3.37h0Z"/>
  <path class="st0" d="M285.42,66.43l-4.22,1.49c-3.89,1.38-7.66,2.88-11.42,4.53-3.75,1.67-7.46,3.42-11.05,5.68-3.67,2.3-6.79,5.2-9.38,8.48-2.58,3.28-4.6,6.9-6.12,10.67,2.41-3.28,5.02-6.34,7.95-8.98,1.46-1.32,2.99-2.54,4.59-3.62.8-.55,1.61-1.06,2.45-1.53.85-.47,1.65-.87,2.55-1.26,1.76-.77,3.59-1.51,5.46-2.18,1.85-.71,3.74-1.34,5.62-1.99,2.39-.82,4.81-1.61,7.22-2.4.01.16.02.32.03.47.13,1.61.34,3.18.57,4.75.52,3.12,1.17,6.18,2,9.19.79,3.02,1.79,5.96,2.73,8.87l3,8.6c.96,2.83,1.87,5.59,2.36,8.36.48,2.76.54,5.58.15,8.46-.36,2.89-1.1,5.68-2.29,8.4-1.17,2.72-2.76,5.3-4.58,7.76,1.2-.96,2.32-2.01,3.38-3.14,1.04-1.15,2.02-2.37,2.91-3.67.88-1.3,1.66-2.69,2.32-4.15.66-1.46,1.17-2.99,1.61-4.51.88-3.07,1.22-6.4,1.02-9.67-.24-3.27-.94-6.39-1.72-9.38-.77-3-1.64-5.9-2.42-8.81-.82-2.91-1.58-5.79-2.25-8.67-.65-2.89-1.27-5.77-1.72-8.65-.23-1.44-.44-2.88-.57-4.3l-.17-2.11c-.02-.34-.04-.69-.04-1.02v-.85l.03-4.8v-.02Z"/>
  <path class="st0" d="M283.85,114.82c-.03-1.88-.23-3.78-.66-5.64s-1.08-3.65-1.78-5.39c-1.41-3.49-3.06-6.82-4.39-10.26-.67-1.72-1.29-3.45-1.84-5.2-.54-1.73-1.04-3.56-1.3-5.24l-.21-1.35-1.24.56-6.18,2.79c-2.05.92-4.12,1.67-6.27,2.44-2.14.76-4.37,1.64-6.37,3.01-.49.34-.99.7-1.47,1.14-.47.43-.88.9-1.26,1.38-.75.98-1.37,1.97-1.91,3.1l-1.22,2.54,2.61-1.13c1.14-.49,2.36-.94,3.55-1.29,1.17-.35,2.4-.51,3.65-.58,1.3-.07,2.6,0,3.9.17-1,.44-1.96,1-2.82,1.67-1.89,1.44-3.37,3.39-4.27,5.57l-.56,1.36,1.37-.42c2.38-.73,4.98-.75,7.4-.07-.68.34-1.29.81-1.77,1.43-.75,1-.98,2.26-.9,3.42.19,2.36,1.49,4.42,3.12,5.96-1.5-1.66-2.57-3.79-2.6-5.98,0-1.08.31-2.15.96-2.94.67-.78,1.66-1.25,2.68-1.47l1.34-.29-1.27-.59c-2.42-1.12-5.19-1.47-7.86-1.08.86-1.4,1.99-2.64,3.31-3.59,1.7-1.23,3.72-1.99,5.78-2.21l4.49-.48-4.35-1.31c-2.58-.78-5.31-1.23-8.06-1.13-1.36.05-2.76.21-4.11.58-.31.08-.61.17-.91.27.04-.05.08-.11.12-.17.32-.41.67-.79,1.03-1.13.35-.33.78-.63,1.22-.93,1.75-1.19,3.79-1.97,5.91-2.74,2.11-.77,4.31-1.58,6.39-2.54,1.68-.76,3.35-1.54,5.01-2.34.33,1.46.76,2.82,1.22,4.22.6,1.79,1.29,3.55,2.04,5.28,1.5,3.46,3.23,6.77,4.78,10.12,1.57,3.34,2.66,6.84,2.88,10.53.24,3.67.04,7.41-.77,11.05,1.11-3.56,1.6-7.32,1.56-11.09h.03Z"/>
  <path class="st0" d="M108.25,378.13c-3.72,3.32-7.99,5.96-12.53,7.91-3.04,1.3-6.21,2.32-9.42,3.04,1.44-5.59,2.41-11.29,2.9-17.03.63-7.38.42-14.82-.64-22.13-1.08-7.31-3-14.48-5.77-21.29-2.75-6.82-6.32-13.28-10.56-19.25l-2.49-3.51.02,4.3h0c0,4.06-.56,8.18-1.62,12.11-1.05,3.94-2.69,7.7-4.88,11.06-2.2,3.36-5.02,6.29-8.32,8.54-2.21,1.53-4.63,2.74-7.17,3.65,1.98-4.56,3.53-9.32,4.53-14.22.63-3.11,1.05-6.28,1.22-9.46.18-3.17.05-6.41-.22-9.53-.29-3.11-.68-6.3-1.44-9.43-.73-3.13-1.78-6.19-3.01-9.11-.61-1.47-1.28-2.9-1.95-4.33l-1.93-4.13c-1.21-2.78-2.39-5.57-3.37-8.41-2.03-5.67-3.39-11.5-3.82-17.41-.22-2.96-.2-5.96-.14-9.02.03-1.54.06-3.1.12-4.59l.09-2.27.15-2.27c.42-6.04,1.23-12.08,2.33-18.06.54-2.99,1.16-5.98,1.84-8.94.67-2.95,1.41-5.95,2.23-8.79l3.93-13.57-8.56,11.19c-3.37,4.41-6.4,8.87-9.3,13.52-2.87,4.64-5.54,9.44-7.85,14.46-1.15,2.51-2.2,5.08-3.1,7.74-.91,2.68-1.62,5.35-2.23,8.04-.39,1.69-.72,3.4-1.01,5.11-.93-2.64-1.78-5.3-2.56-7.98-1.81-6.23-3.21-12.58-4.15-19-.95-6.41-1.47-12.89-1.5-19.37,0-3.24.05-6.48.28-9.71.15-3.23.47-6.51.84-9.71,1.49-12.87,5-25.46,10.12-37.37,1.28-2.97,2.67-5.91,4.11-8.9,1.43-2.98,2.85-5.94,4.34-8.82,1.5-2.88,3.05-5.68,4.83-8.21,1.77-2.55,3.82-4.8,6.15-6.87l10.43-9.25-13.24,4.37c-3.89,1.29-7.54,3.34-10.73,5.67-3.21,2.34-6.1,4.88-8.93,7.42-1.74,1.55-3.38,3.26-4.88,5.08,1-3.29,2.21-6.5,3.67-9.58,1.86-3.95,4.13-7.68,6.87-11.04,2.71-3.39,5.89-6.3,9.43-8.91,3.54-2.61,7.44-5.06,11.18-7.82,3.75-2.77,7.36-5.78,10.65-9.07,6.64-6.54,12.41-13.91,17.22-21.86l7.04-11.63-10.38,8.72c-5.88,4.94-12.66,8.81-19.94,11.21-3.64,1.19-7.4,1.98-11.21,2.42-1.58.17-3.17.26-4.76.29,4.62-2.65,9.05-5.68,13.17-9.1,2.96-2.43,5.78-5.05,8.4-7.85s5.14-5.72,7.37-8.97c1.11-1.62,2.12-3.32,3.05-4.97s1.81-3.22,2.76-4.7c.95-1.48,1.99-2.92,3.12-4.29,1.11-1.39,2.29-2.72,3.51-4.01,4.92-5.16,10.85-9.34,17.22-12.71,6.38-3.38,13.26-5.88,20.31-7.72,3.53-.93,7.1-1.7,10.71-2.28,1.8-.28,3.61-.54,5.42-.76,1.8-.23,3.62-.31,5.44-.44,3.65-.15,7.32-.14,11,.02,3.68.17,7.35.53,11.02.99,7.33.99,14.65,2.4,21.78,4.71-3.32-1.74-6.84-3.13-10.4-4.35-3.57-1.2-7.21-2.22-10.9-3.04-1.84-.43-3.7-.78-5.56-1.12l-2.81-.44-2.82-.37c-3.77-.45-7.57-.72-11.4-.73-7.69-.07-15.29,1.01-22.74,2.71-7.44,1.79-14.73,4.34-21.63,7.85-6.88,3.5-13.31,8.09-18.74,13.73-1.35,1.42-2.66,2.87-3.86,4.42-1.23,1.52-2.37,3.14-3.42,4.81-1.05,1.67-1.97,3.38-2.86,5s-1.77,3.14-2.76,4.62c-1.94,2.96-4.24,5.78-6.66,8.49-2.43,2.7-5.01,5.27-7.73,7.69-5.45,4.83-11.45,9.07-17.83,12.71l-6.15,3.51h6.8c4.07.5,8.2.58,12.3.22,4.09-.39,8.16-1.15,12.09-2.39,3.91-1.23,7.69-2.85,11.28-4.81-3.04,3.86-6.33,7.51-9.87,10.9-3.2,3.09-6.61,5.91-10.21,8.52-3.6,2.62-7.45,4.98-11.26,7.75-3.81,2.75-7.43,6.01-10.44,9.72-3.05,3.69-5.57,7.77-7.63,12.04-4.13,8.55-6.39,17.77-7.7,26.97l-2.53,17.78,7.77-16.22c1.62-3.38,3.27-6.58,5.29-9.53,2-2.97,4.32-5.59,6.99-7.96,1.59-1.42,3.19-2.83,4.81-4.16-.79,1.37-1.53,2.75-2.25,4.13-1.56,2.99-3,5.99-4.44,8.98-1.43,2.97-2.88,6.01-4.22,9.11-5.35,12.38-9.04,25.55-10.62,38.97-.39,3.36-.73,6.68-.89,10.06-.23,3.37-.26,6.75-.25,10.13.06,6.75.64,13.5,1.66,20.17,1.01,6.67,2.49,13.27,4.4,19.73,1.9,6.47,4.23,12.81,6.95,18.97l4.74,10.73.61-11.71c.27-5.21.97-10.4,2.1-15.5.57-2.55,1.23-5.08,2.04-7.5.82-2.44,1.79-4.85,2.87-7.23,2.16-4.76,4.71-9.39,7.47-13.9.34-.55.69-1.09,1.03-1.63-.29,1.5-.56,3-.82,4.51-1.05,6.16-1.82,12.37-2.18,18.64l-.13,2.35-.06,2.36c-.05,1.59-.06,3.11-.08,4.66-.04,3.1-.03,6.28.24,9.47.52,6.39,2.06,12.67,4.25,18.58,1.06,2.98,2.31,5.86,3.59,8.72l2.02,4.23c.66,1.35,1.31,2.71,1.9,4.08,1.19,2.75,2.17,5.54,2.87,8.4.72,2.86,1.12,5.81,1.43,8.83,1.41,11.9-1.08,24.03-6.3,34.89l-1.67,3.48,3.73-.94c4.28-1.08,8.4-2.91,12.02-5.49,3.62-2.56,6.71-5.87,9.06-9.59,2.36-3.73,4.01-7.84,5.05-12.06.67-2.74,1.12-5.51,1.33-8.31,2.84,4.84,5.24,9.92,7.13,15.18,2.41,6.65,3.97,13.58,4.73,20.58.74,7,.66,14.07-.21,21.04-.86,6.97-2.48,13.83-4.8,20.44h0l-1.77,5.11,5.17-1.17c5.37-1.21,10.41-3.18,15.14-5.77,4.71-2.59,9.04-5.9,12.66-9.84,3.61-3.95,6.46-8.53,8.39-13.41,1.92-4.9,2.92-10.08,3.06-15.25-.65,5.12-2.14,10.1-4.45,14.62-2.32,4.52-5.44,8.55-9.14,11.88l.03.03Z"/>
  <path class="st0" d="M24.42,180.83c.36-4.53,1.15-9.04,2.35-13.44,1.15-4.42,2.79-8.73,4.73-12.91,1.98-4.16,4.29-8.2,6.93-12.05-3.18,3.42-6.02,7.2-8.42,11.26-2.43,4.04-4.4,8.38-5.95,12.87-1.51,4.5-2.61,9.16-3.21,13.9-.57,4.74-.69,9.54-.34,14.31l.47,6.33,3.28-5.48c1.08-1.8,2.26-3.53,3.54-5.18.63-.83,1.32-1.62,2.02-2.4l1.03-1.18,1.1-1.11c2.95-2.95,6.2-5.63,9.75-7.88.87-.58,1.78-1.11,2.7-1.63.9-.54,1.85-1,2.78-1.49.93-.5,1.9-.92,2.84-1.39.97-.42,1.94-.85,2.92-1.24,3.12-1.23,6.33-2.26,9.6-3.11-.5,1.97-.95,3.94-1.31,5.94-.53,2.91-.97,5.83-1.27,8.76-.27,2.94-.47,5.88-.49,8.82-.04,2.94.07,5.87.31,8.79.19-2.92.47-5.83.83-8.71.37-2.89.8-5.76,1.36-8.6.54-2.85,1.17-5.67,1.91-8.46.75-2.79,1.54-5.56,2.47-8.29l.86-2.54-2.73.47c-2.18.38-4.36.83-6.51,1.39-2.15.57-4.28,1.24-6.38,1.99-4.21,1.5-8.27,3.44-12.08,5.83-3.8,2.39-7.4,5.16-10.54,8.42l-1.18,1.22-1.1,1.28c-.74.85-1.48,1.71-2.15,2.62-.12.16-.24.33-.37.5-.05-2.54.02-5.08.25-7.61h0Z"/>
  <path class="st0" d="M49.74,261.04c.37,2.62.9,5.25,1.58,7.82s1.53,5.07,2.4,7.55l1.35,3.69.69,1.83c.21.57.42,1.16.62,1.75.78,2.37,1.47,4.86,2.04,7.29l3.02,12.99,1.02-13.32c.24-3.1.61-6.28,1.13-9.37.52-3.1,1.15-6.1,2.16-9.02,1-2.91,2.28-5.73,3.8-8.44.44-.81.92-1.61,1.41-2.4,0,1.02.01,2.03.04,3.03.03,1.07.08,2.15.15,3.28.32,4.45,1.55,8.75,3.19,12.78,1.64,4.05,3.8,7.81,6.09,11.44,1.16,1.81,2.37,3.57,3.58,5.34,1.21,1.76,2.45,3.5,3.56,5.32-1.81-3.88-4.04-7.55-5.97-11.33-1.99-3.75-3.73-7.62-5.09-11.57-1.35-3.96-2.16-8.05-2.31-12.13-.02-4.13.13-8.46.88-12.34l1.37-7.09-4.6,5.6c-2.1,2.55-4.06,5.23-5.75,8.1-1.7,2.86-3.1,5.92-4.23,9.07-1.11,3.13-1.89,6.4-2.39,9.62,0-.02-.02-.04-.02-.06l-.74-1.79-1.44-3.58c-1.86-4.8-3.53-9.58-4.48-14.57-.47-2.5-.94-5.07-1.32-7.6-.39-2.54-.66-5.1-.89-7.66-.43-5.14-.46-10.32-.3-15.53-.96,5.12-1.51,10.34-1.57,15.59-.05,2.63.06,5.25.25,7.88s.45,5.21.82,7.83h-.05Z"/>
  <path class="st0" d="M138.25,16.94c-4.49-.38-9.03-.09-13.51.65-4.47.79-8.91,2.13-13.02,4.08-2.07.96-4.08,2.01-6.03,3.13-1.95,1.14-3.85,2.32-5.7,3.46l-7.85,4.85,9.14-1.29c3.74-.53,7.53-.67,11.3-.43,1.51.1,3.02.26,4.52.48-.47.17-.93.34-1.4.51-2.66,1.01-5.18,2.12-7.81,3.28-2.59,1.2-5.04,2.74-7.29,4.43l-6.67,5.11c2.48-1.31,4.89-2.76,7.3-4.15,2.4-1.41,4.85-2.62,7.43-3.53,2.55-.94,5.3-1.69,7.92-2.5,2.63-.77,5.35-1.49,7.81-1.68l8.26-.63-7.92-2.66c-3.83-1.29-7.83-2.11-11.88-2.46-1.42-.12-2.85-.18-4.27-.19,1.53-.93,3.07-1.82,4.65-2.63,3.84-1.95,7.82-3.62,12.04-4.6,4.2-1.04,8.55-1.59,12.92-1.68,4.37-.05,8.77.36,13.06,1.54-4.07-1.79-8.53-2.76-13.01-3.11v.02Z"/>
  <path class="st0" d="M235.21,359.08c.14,4.37.07,8.77-.95,12.88-.48,2.06-1.2,4.02-2.17,5.87-.96,1.84-2.13,3.58-3.4,5.26-1.28,1.68-2.66,3.28-4.13,4.88-1.44,1.6-2.93,3.16-4.41,4.71-3.01,3.07-6.12,6-9.4,8.74-3.25,2.78-6.69,5.33-10.18,7.94-3.49,2.6-7.1,5.26-10.45,8.4-1.68,1.56-3.29,3.23-4.77,5.01-.74.89-1.46,1.8-2.14,2.73l-.94,1.25c-.28.39-.61.74-.92,1.11-1.27,1.46-2.76,2.81-4.34,4.06-.12.1-.25.19-.38.29,0-.13,0-.27-.02-.4-.15-2.13-.4-4.28-.87-6.44-.23-1.08-.53-2.17-.88-3.26-.2-.54-.42-1.1-.63-1.63l-.67-1.47c-.93-1.95-1.99-3.83-3.18-5.63-2.37-3.61-5.28-6.81-8.46-9.61-3.21-2.79-6.71-5.17-10.33-7.2-1.8-1.02-3.64-1.96-5.4-2.88-.87-.45-1.77-.92-2.34-1.32-.77-.58-1.53-1.17-2.27-1.8-1.47-1.26-2.87-2.6-4.17-4.05-.63-.74-1.29-1.46-1.88-2.24l-.91-1.15-.86-1.19c-4.58-6.41-7.61-13.95-9.86-21.7.51,4.02,1.33,8.01,2.54,11.92,1.18,3.92,2.82,7.73,4.89,11.33,2.04,3.63,4.64,6.96,7.62,9.94.75.75,1.53,1.46,2.32,2.16,1.02.83,1.89,1.34,2.78,1.9,1.76,1.06,3.45,2.07,5.1,3.14,6.59,4.23,12.39,9.47,16.33,15.91.99,1.6,1.87,3.27,2.63,4.99l.55,1.3.43,1.21c.25.83.48,1.7.65,2.59.35,1.79.55,3.67.65,5.56.05.95.07,1.9.07,2.86s-.02,1.94-.07,2.79l-.34,5.65,4.95-2.63c.62-.33,1.09-.61,1.61-.92.51-.31,1-.62,1.49-.95.98-.64,1.93-1.33,2.86-2.06,1.85-1.45,3.62-3.04,5.2-4.89.39-.47.79-.92,1.16-1.42l1.02-1.38c.6-.83,1.23-1.65,1.89-2.43,1.31-1.58,2.7-3.09,4.2-4.53,2.98-2.88,6.35-5.52,9.77-8.25,3.43-2.71,6.87-5.56,10.14-8.6,3.26-3.05,6.35-6.28,9.22-9.67,1.44-1.69,2.83-3.42,4.16-5.19,1.35-1.74,2.65-3.59,3.86-5.5,2.44-3.8,4.22-8.23,4.7-12.74.23-2.26.2-4.5,0-6.71s-.59-4.38-1.05-6.52l-.03-.02Z"/>
  <path class="st0" d="M197.87,386.07c-1.4,1.25-2.79,2.51-4.11,3.86-2.66,2.67-5.08,5.59-7.25,8.69-1.37,1.96-2.63,3.99-3.78,6.08-1.01-1.76-2.19-3.43-3.55-4.95-1.15-1.3-2.45-2.47-3.83-3.53-1.39-1.06-2.88-1.9-4.31-2.7-1.43-.8-2.81-1.55-4.16-2.37-1.35-.81-2.61-1.75-3.88-2.71-2.51-1.95-4.82-4.2-6.98-6.65,1.46,2.93,3.4,5.64,5.67,8.08,2.26,2.43,5,4.55,7.69,6.32,2.68,1.79,4.92,3.7,6.83,6.07,1.9,2.34,3.38,5.01,4.53,7.84l1.75,4.29,2.07-4.17c1.59-3.21,3.36-6.34,5.32-9.34,1.96-3.01,4.11-5.89,6.4-8.67,1.13-1.4,2.35-2.74,3.58-4.07,1.24-1.32,2.49-2.64,3.82-3.89,2.6-2.56,5.39-4.94,8.23-7.33-3.38,1.56-6.57,3.5-9.62,5.67-1.52,1.09-2.98,2.27-4.43,3.47h0Z"/>
  <path class="st0" d="M108.53,362.67c1.18-1.88,2.24-3.83,3.19-5.83.5-.99.9-2.02,1.36-3.03.41-1.03.81-2.06,1.18-3.11,1.45-4.19,2.5-8.51,3.08-12.89.36-2.61.56-5.24.61-7.88.93,1.24,1.84,2.5,2.72,3.79,1.87,2.74,3.59,5.59,5.22,8.5,1.61,2.92,3.1,5.92,4.47,8.98s2.61,6.19,3.77,9.37c-.61-3.33-1.45-6.62-2.47-9.87-1.03-3.24-2.23-6.44-3.65-9.55-1.39-3.12-2.99-6.15-4.75-9.1-1.75-2.95-3.69-5.79-5.79-8.51l-3.27-4.26.08,5.45c.06,4.19-.18,8.39-.82,12.52-.59,4.14-1.6,8.21-2.92,12.16-1.34,3.94-3.07,7.76-5.15,11.37-1.01,1.74-2.1,3.43-3.28,5.06.05-.33.1-.66.14-1,.28-2.58.32-5.18.11-7.75-.24-2.57-.69-5.11-1.43-7.55-.72-2.45-1.7-4.81-2.92-7.02.82,2.39,1.46,4.81,1.86,7.27.4,2.45.61,4.92.57,7.38-.03,2.46-.25,4.9-.73,7.3-.48,2.39-1.12,4.74-2,6.99l-2.62,6.65,5.17-5.08c3.15-3.1,5.93-6.58,8.27-10.35h0Z"/>
  <path class="st0" d="M356.73,185.56c-1.57-13.43-5.27-26.6-10.62-38.97-1.34-3.1-2.79-6.15-4.22-9.11-1.44-2.99-2.88-5.99-4.44-8.98-.72-1.38-1.47-2.76-2.25-4.13,1.62,1.34,3.21,2.74,4.81,4.16,2.67,2.37,4.99,4.99,6.99,7.96,2.02,2.95,3.67,6.15,5.29,9.53l7.77,16.22-2.53-17.78c-1.31-9.21-3.57-18.42-7.7-26.97-2.06-4.27-4.57-8.35-7.63-12.04-3.01-3.71-6.63-6.97-10.44-9.72-3.81-2.77-7.66-5.13-11.26-7.75s-7.01-5.43-10.21-8.52c-3.54-3.39-6.83-7.05-9.87-10.9,3.59,1.96,7.36,3.58,11.28,4.81,3.93,1.23,8,1.99,12.09,2.39,4.1.36,8.23.28,12.3-.22h6.8l-6.14-3.51c-6.32-3.61-12.27-7.8-17.68-12.58-2.7-2.39-5.26-4.93-7.68-7.6-2.4-2.68-4.7-5.47-6.65-8.39-.98-1.46-1.88-2.96-2.75-4.54-.88-1.58-1.78-3.27-2.8-4.93-2.06-3.33-4.45-6.41-7.1-9.24-5.34-5.63-11.66-10.24-18.44-13.8-6.79-3.56-14-6.15-21.36-7.99-3.68-.9-7.41-1.59-11.16-2.11-3.74-.53-7.55-.82-11.34-.83-3.79-.04-7.57.15-11.32.59-3.74.43-7.46,1.06-11.11,1.91-3.66.82-7.26,1.87-10.79,3.1-3.52,1.24-6.97,2.69-10.26,4.42,7.06-2.31,14.28-3.83,21.54-4.8,3.63-.46,7.27-.79,10.91-.95l2.73-.07c.91-.02,1.82.01,2.72,0,.91-.02,1.81.03,2.72.05.9.03,1.81.05,2.71.13,3.61.18,7.17.71,10.75,1.3,3.57.62,7.11,1.4,10.59,2.36,6.98,1.86,13.76,4.42,20.04,7.83,6.28,3.4,12.1,7.6,16.94,12.75,2.39,2.59,4.63,5.34,6.48,8.29.94,1.48,1.8,3.05,2.73,4.69.93,1.64,1.96,3.32,3.06,4.92,2.24,3.19,4.74,6.07,7.35,8.84,2.61,2.77,5.41,5.35,8.35,7.76,4.08,3.36,8.45,6.35,13.01,8.97-1.59-.03-3.18-.12-4.76-.29-3.81-.44-7.57-1.23-11.21-2.42-7.28-2.39-14.06-6.27-19.94-11.21l-10.38-8.72,7.04,11.63c4.81,7.95,10.59,15.32,17.22,21.86,3.3,3.29,6.91,6.31,10.65,9.07s7.65,5.21,11.18,7.82c3.54,2.61,6.72,5.52,9.43,8.91,2.73,3.35,5,7.09,6.87,11.04,1.46,3.09,2.67,6.3,3.67,9.58-1.5-1.82-3.14-3.53-4.88-5.08-2.84-2.54-5.73-5.09-8.93-7.42-3.19-2.33-6.84-4.39-10.73-5.67l-13.24-4.37,10.43,9.25c2.33,2.07,4.38,4.32,6.15,6.87,1.78,2.54,3.33,5.34,4.83,8.21,1.49,2.88,2.92,5.85,4.34,8.82,1.44,3,2.83,5.93,4.11,8.9,5.13,11.92,8.63,24.5,10.12,37.37.37,3.21.69,6.48.84,9.71.23,3.23.28,6.47.28,9.71-.03,6.48-.56,12.96-1.5,19.37-.94,6.42-2.34,12.77-4.15,19-.78,2.68-1.63,5.34-2.56,7.98-.29-1.71-.63-3.41-1.01-5.11-.61-2.69-1.32-5.36-2.23-8.04-.9-2.65-1.95-5.23-3.1-7.74-2.31-5.02-4.97-9.81-7.85-14.46-2.89-4.65-5.93-9.12-9.3-13.52l-8.56-11.19,3.93,13.57c.82,2.84,1.56,5.84,2.23,8.79.68,2.97,1.3,5.95,1.84,8.94,1.1,5.99,1.91,12.02,2.33,18.06l.15,2.27.09,2.27c.06,1.49.1,3.05.12,4.59.07,3.07.08,6.06-.14,9.02-.43,5.92-1.79,11.74-3.82,17.41-.98,2.84-2.16,5.63-3.37,8.41l-1.93,4.13c-.68,1.42-1.35,2.86-1.95,4.33-1.23,2.93-2.28,5.98-3.01,9.11-.75,3.13-1.15,6.32-1.44,9.43-.27,3.12-.41,6.36-.22,9.53.18,3.18.59,6.35,1.22,9.46.99,4.9,2.55,9.66,4.53,14.22-2.53-.91-4.95-2.13-7.17-3.65-3.3-2.25-6.12-5.17-8.32-8.54-2.19-3.37-3.82-7.13-4.88-11.06s-1.63-8.05-1.62-12.11h0l.02-4.3-2.49,3.51c-4.23,5.97-7.8,12.43-10.56,19.25-2.77,6.81-4.69,13.99-5.77,21.29-1.06,7.31-1.27,14.75-.64,22.13.48,5.74,1.46,11.44,2.9,17.03-3.21-.72-6.38-1.74-9.42-3.04-4.54-1.95-8.81-4.59-12.53-7.91-3.71-3.33-6.83-7.37-9.14-11.88-2.3-4.52-3.8-9.5-4.45-14.62.14,5.16,1.14,10.35,3.06,15.25,1.93,4.89,4.78,9.47,8.39,13.41,3.62,3.93,7.95,7.24,12.66,9.84,4.73,2.59,9.77,4.56,15.14,5.77l5.17,1.17-1.77-5.11h0c-2.32-6.61-3.94-13.47-4.8-20.44-.87-6.97-.95-14.04-.21-21.04.76-7,2.32-13.93,4.73-20.58,1.89-5.26,4.29-10.34,7.13-15.18.21,2.8.65,5.57,1.33,8.31,1.04,4.22,2.69,8.33,5.05,12.06,2.35,3.73,5.44,7.03,9.06,9.59,3.61,2.58,7.74,4.41,12.02,5.49l3.73.94-1.67-3.48c-5.22-10.86-7.71-22.98-6.3-34.89.31-3.02.71-5.97,1.43-8.83.7-2.86,1.69-5.66,2.87-8.4.58-1.38,1.23-2.73,1.9-4.08l2.02-4.23c1.28-2.86,2.54-5.74,3.59-8.72,2.18-5.91,3.73-12.19,4.25-18.58.27-3.19.28-6.37.24-9.47-.01-1.55-.03-3.07-.08-4.66l-.06-2.36-.13-2.35c-.36-6.27-1.13-12.48-2.18-18.64-.26-1.51-.53-3.02-.82-4.51.34.54.69,1.09,1.03,1.63,2.76,4.51,5.3,9.14,7.47,13.9,1.08,2.38,2.05,4.79,2.87,7.23.81,2.42,1.47,4.95,2.04,7.5,1.14,5.09,1.83,10.28,2.1,15.5l.61,11.71,4.74-10.73c2.72-6.16,5.05-12.5,6.95-18.97,1.91-6.46,3.39-13.06,4.4-19.73,1.01-6.67,1.59-13.42,1.66-20.17,0-3.38-.02-6.76-.25-10.13-.16-3.38-.5-6.69-.89-10.06h0Z"/>
  <path class="st0" d="M335.56,187.94c-.67-.91-1.41-1.76-2.15-2.62l-1.11-1.28-1.18-1.22c-3.14-3.25-6.74-6.03-10.54-8.42-3.81-2.39-7.88-4.34-12.08-5.83-2.1-.75-4.23-1.42-6.38-1.99-2.15-.56-4.33-1.01-6.51-1.39l-2.73-.47.86,2.54c.93,2.73,1.71,5.5,2.47,8.29.74,2.79,1.37,5.61,1.91,8.46.56,2.84.99,5.71,1.36,8.6.36,2.89.64,5.79.83,8.71.24-2.92.35-5.85.31-8.79-.02-2.94-.22-5.88-.49-8.82-.29-2.93-.74-5.86-1.27-8.76-.36-1.99-.81-3.97-1.31-5.94,3.27.85,6.48,1.88,9.6,3.11.98.39,1.95.82,2.92,1.24.95.47,1.92.88,2.84,1.39.93.49,1.88.95,2.78,1.49.92.52,1.83,1.04,2.7,1.63,3.55,2.25,6.79,4.92,9.75,7.88l1.1,1.11,1.03,1.18c.69.78,1.39,1.56,2.02,2.4,1.28,1.65,2.46,3.38,3.54,5.18l3.28,5.48.47-6.33c.35-4.77.23-9.57-.34-14.31-.6-4.74-1.69-9.4-3.21-13.9-1.56-4.49-3.52-8.82-5.95-12.87-2.4-4.06-5.24-7.84-8.42-11.26,2.65,3.85,4.96,7.88,6.94,12.05,1.94,4.18,3.57,8.49,4.73,12.91,1.2,4.41,1.99,8.91,2.35,13.44.22,2.53.3,5.08.25,7.61-.12-.17-.24-.33-.37-.5h0Z"/>
  <path class="st0" d="M279.69,291.95c2.29-3.63,4.45-7.39,6.09-11.44,1.64-4.03,2.86-8.32,3.19-12.78.07-1.13.12-2.2.15-3.28.03-1.01.05-2.02.04-3.03.49.79.96,1.59,1.41,2.4,1.51,2.71,2.8,5.52,3.8,8.44,1.01,2.91,1.64,5.91,2.16,9.02.51,3.09.89,6.26,1.13,9.37l1.02,13.32,3.02-12.99c.57-2.44,1.26-4.93,2.04-7.29.19-.6.4-1.18.62-1.75l.69-1.83,1.35-3.69c.87-2.48,1.72-4.98,2.4-7.55.68-2.57,1.22-5.2,1.58-7.82.37-2.62.63-5.2.82-7.83.18-2.62.3-5.25.25-7.88-.07-5.25-.61-10.47-1.57-15.59.16,5.21.13,10.39-.3,15.53-.23,2.57-.5,5.12-.89,7.66-.38,2.53-.86,5.1-1.32,7.6-.96,5-2.62,9.77-4.48,14.57l-1.44,3.58-.74,1.79s-.02.04-.02.06c-.51-3.22-1.28-6.49-2.39-9.62-1.13-3.15-2.53-6.21-4.23-9.07-1.69-2.87-3.65-5.55-5.75-8.1l-4.6-5.6,1.37,7.09c.75,3.88.9,8.21.88,12.34-.15,4.08-.96,8.18-2.31,12.13-1.36,3.95-3.1,7.82-5.09,11.57-1.94,3.78-4.16,7.45-5.97,11.33,1.11-1.83,2.35-3.56,3.56-5.32s2.41-3.53,3.58-5.34h-.05Z"/>
  <path class="st0" d="M257.46,28.4l9.87.62-8.78-4.44c-3.72-1.88-7.58-3.48-11.54-4.77-3.96-1.29-8.02-2.23-12.1-2.9-4.1-.61-8.23-.96-12.35-.91-4.12.01-8.22.4-12.24,1.13,2.04,0,4.08.02,6.11.11,2.03.1,4.05.25,6.05.45,4.01.45,7.99,1.07,11.88,2.03,3.9.9,7.73,2.08,11.45,3.5.91.35,1.82.71,2.72,1.08-1.3.1-2.61.24-3.9.43-4.34.64-8.61,1.78-12.69,3.4l-9.72,3.86,10.4.06c3.87.02,7.73.62,11.44,1.76,3.71,1.15,7.27,2.83,10.49,5.07,1.63,1.1,3.17,2.33,4.66,3.66,1.51,1.35,2.94,2.7,4.31,4.18,2.71,2.95,5.11,6.22,7.18,9.74-1.43-3.83-3.4-7.49-5.87-10.82-1.22-1.67-2.58-3.28-3.99-4.76-1.41-1.51-2.94-2.97-4.58-4.3-3.31-2.62-7.05-4.74-11.05-6.2-1-.36-2.01-.68-3.03-.96,1.01-.2,2.02-.38,3.04-.52,4.03-.6,8.13-.76,12.21-.5h.03Z"/>
  <path class="st0" d="M263.03,343.13c.57-1.89,1.17-3.76,1.84-5.62,1.36-3.71,2.96-7.35,4.76-10.92-2.37,3.22-4.47,6.66-6.24,10.28-.9,1.8-1.72,3.65-2.45,5.53-.73,1.85-1.47,3.73-2.11,5.67-1.25,3.89-1.96,8.09-1.85,12.25.02,1.37.13,2.75.29,4.11-.86-1.22-1.68-2.47-2.45-3.75-1.09-1.77-2.05-3.62-2.94-5.5-.47-.93-.85-1.9-1.28-2.85-.38-.97-.77-1.94-1.12-2.92-1.41-3.93-2.48-7.99-3.17-12.14-.75-4.14-1.04-8.36-1.11-12.59l-.07-4.26-2.11,3.58c-1.67,2.83-3.3,5.68-4.91,8.54-.82,1.42-1.6,2.87-2.4,4.31-.8,1.44-1.57,2.89-2.34,4.34,1.01-1.3,2-2.61,2.98-3.93.97-1.32,1.97-2.63,2.92-3.97,1.13-1.55,2.25-3.11,3.36-4.66-.06,3.03.1,6.08.43,9.11.48,4.38,1.46,8.7,2.83,12.91,1.4,4.2,3.25,8.26,5.53,12.07,2.29,3.81,5.01,7.36,8.12,10.54l6.25,6.41-3.07-8.37c-1.31-3.56-2.09-7.32-2.34-11.12-.27-3.81.08-7.61,1.05-11.37.45-1.89,1.01-3.78,1.58-5.69h.02Z"/>
  <path class="st0" d="M225.37,57.91c1.44.05,2.87.19,4.31.38,1.43.19,2.87.44,4.27.82-2.69-1.12-5.56-1.85-8.47-2.29-2.91-.46-5.89-.56-8.86-.39-5.94.39-11.89,2.14-17.07,5.28-2.61,1.55-5.02,3.4-7.23,5.4-2.23,2.01-4.32,4.22-6.15,6.66-1.84,2.43-3.35,5.14-4.54,7.94-.42.99-.8,2-1.16,3.01-.4-.94-.81-1.88-1.26-2.81-1.29-2.69-2.75-5.38-4.7-7.78-1.92-2.4-4.22-4.56-6.82-6.21-1.31-.84-2.62-1.53-3.96-2.19-.67-.33-1.34-.65-2.03-.94-.68-.31-1.37-.59-2.06-.86-5.54-2.2-11.45-3.34-17.33-3.55-2.94-.09-5.88.04-8.78.43-2.89.4-5.78.98-8.49,2.02,1.4-.36,2.84-.53,4.27-.68,1.43-.15,2.87-.24,4.3-.27,2.87-.05,5.73.04,8.55.41,5.65.65,11.16,2.18,16.28,4.49,2.54,1.15,5.06,2.54,7.29,4.06,2.23,1.53,4.14,3.46,5.75,5.63s2.93,4.59,4.11,7.13c1.17,2.54,2.18,5.22,3.25,7.92l2.23,5.67,1.64-5.86c.79-2.81,1.55-5.51,2.61-8.07,1.04-2.57,2.41-4.95,3.97-7.23,1.58-2.27,3.42-4.38,5.45-6.33.49-.5,1.01-.98,1.55-1.44.53-.47,1.04-.97,1.58-1.4.54-.45,1.07-.9,1.64-1.3l.84-.63.87-.58c4.64-3.1,9.99-5.16,15.62-5.99,2.81-.44,5.68-.56,8.55-.45h-.02Z"/>
  <path class="st0" d="M167.43,47.83c-1.68-.6-3.4-1.05-5.14-1.33-1.74-.29-3.5-.47-5.25-.48-1.75,0-3.5.09-5.21.36s-3.42.64-5.02,1.28c3.38-.57,6.81-.5,10.13-.09,3.33.41,6.56,1.31,9.58,2.61,1.5.65,2.98,1.44,4.31,2.3,1.31.85,2.46,1.89,3.41,3.12,1.94,2.43,3.16,5.48,4.45,8.68l1.81,4.46,1.35-4.63c.48-1.65.95-3.21,1.58-4.67s1.46-2.81,2.39-4.1c.94-1.29,2.05-2.48,3.26-3.59,1.23-1.11,2.45-2.16,3.83-3.02,2.74-1.73,5.87-2.9,9.17-3.4,3.29-.51,6.73-.46,10.1.21-3.18-1.35-6.72-1.89-10.25-1.78-3.53.15-7.11,1.04-10.3,2.78-1.59.86-3.1,1.91-4.46,3.04-1.38,1.14-2.68,2.41-3.84,3.84-1.17,1.42-2.12,3.03-2.9,4.7-.14.31-.26.62-.39.92-.13-.28-.26-.55-.4-.82-.81-1.6-1.75-3.2-3-4.6-1.22-1.42-2.7-2.64-4.31-3.57-1.6-.91-3.21-1.6-4.9-2.2v-.02Z"/>
  <path class="st0" d="M249.07,161.62c-2.69,1.18-4.88.54-8.28.1-7.02-.92-11.22-1.17-15.5.35-1.13.4-5.23,1.92-8.12,5.99-1.76,2.48-2.22,4.91-3.15,9.78-1.11,5.87-.14,6.82.21,7.09.75.57,1.87.36,4.07-.1,2.56-.53,6.52-1.73,6.39-2.61-.11-.8-3.42-.05-5.02-2.01-1.47-1.81-.56-4.78-.43-5.23.07-.22.15-.43.23-.64.39,1.66,1.77,2.98,2.31,3.49,3.38,3.22,9.5,2.66,13.08.09,2.3-1.65,3.25-3.73,3.44-4.16.33-.75,1.22-2.84.72-5.52-.11-.58-.27-1.1-.45-1.56,4.26.13,4.79.17,5.85-.08,1-.24,3.54-.88,5.87-2.95,1.2-1.07,1.92-2.15,2.63-3.19,1.02-1.51,2.13-3.58,1.87-3.77-.34-.24-2.13,3.36-5.72,4.93h0Z"/>
</svg>