<?xml version="1.0" encoding="UTF-8"?>
<svg id="Layer_1" data-name="Layer 1" xmlns="http://www.w3.org/2000/svg" xmlns:xlink="http://www.w3.org/1999/xlink" viewBox="0 0 500 501.54">
  <defs>
    <style>
      .cls-1 {
        fill: none;
      }

      .cls-2 {
        clip-path: url(#clippath-1);
      }

      .cls-3 {
        fill: #fff;
      }

      .cls-4 {
        fill: #9a6c29;
      }

      .cls-5 {
        clip-path: url(#clippath);
      }
    </style>
    <clipPath id="clippath">
      <rect class="cls-1" y="0" width="500" height="501.54"/>
    </clipPath>
    <clipPath id="clippath-1">
      <rect class="cls-1" y="0" width="500" height="501.54"/>
    </clipPath>
  </defs>
  <g id="Leo">
    <g class="cls-5">
      <g class="cls-2">
        <path class="cls-4" d="M398.09,404.19c-3.44,0-6.92-.23-10.42-.71-.97-.13-3.43-.69-6.8-1.45-1.41-.32-2.63-.6-3.13-.7-1.6-.32-2.64-1.86-2.33-3.46.32-1.6,1.86-2.64,3.46-2.32.53.1,1.81.39,3.3.73,2.19.5,5.5,1.25,6.29,1.36,38.63,5.29,74.35-21.85,79.63-60.48.82-6.03.87-12.13.14-18.15-.12-.98.26-1.96,1.02-2.6,13.25-11.28,21.84-26.99,24.2-44.23,2.51-18.39-2.2-36.74-13.26-51.66-.68-.92-.77-2.15-.23-3.15,4.01-7.45,6.62-15.5,7.77-23.92,4.48-32.79-14.83-64.77-45.91-76.03-1.16-.42-1.93-1.52-1.94-2.75-.3-34.82-26.58-64.64-61.13-69.36-12.82-1.75-25.84.03-37.65,5.15l-2.26.03-1.62-1.58c-9.72-22.79-30.98-39.03-55.49-42.38-24.74-3.38-49.7,6.73-65.17,26.38-.95,1.21-2.69,1.48-3.97.62-9.04-6.12-19.14-9.97-30-11.46-37.79-5.16-72.57,20.2-79.18,57.74-.25,1.41-1.47,2.44-2.9,2.44h-.39c-35.16,0-65.2,26.21-69.97,61.12-1.13,8.24-.81,16.51.94,24.57.23,1.05-.14,2.14-.95,2.85-12.89,11.24-21.27,26.76-23.59,43.69-2.87,21.03,3.76,42.03,18.19,57.63.68.73.94,1.75.7,2.71-.62,2.53-1.11,5.06-1.45,7.53-2.56,18.71,2.33,37.3,13.75,52.34,11.42,15.04,28.02,24.73,46.73,27.29l.32.03,1.91,1.09c11.39,14.31,27.63,23.55,45.73,26.02,1.61.22,2.74,1.71,2.52,3.32s-1.71,2.74-3.32,2.52c-19.21-2.63-36.49-12.29-48.79-27.27-41.41-6.12-70.37-44.58-64.69-86.15.3-2.18.7-4.4,1.21-6.62C4.46,258.19-2.33,235.95.71,213.69c2.43-17.78,11.03-34.11,24.27-46.19-1.59-8.2-1.81-16.57-.67-24.92,5.08-37.14,36.56-65.19,73.75-66.19,8.2-39.34,45.2-65.63,85.32-60.15,10.87,1.48,21.03,5.16,30.24,10.94C230.47,7.27,256.61-2.84,282.51.7c25.59,3.5,47.91,19.96,58.92,43.25,12.07-4.7,25.18-6.25,38.11-4.48,36.76,5.03,64.87,36.27,66.18,73.12,32.56,12.79,52.6,46.8,47.84,81.65-1.16,8.5-3.7,16.66-7.56,24.27,11.21,15.89,15.92,35.16,13.28,54.47-2.48,18.16-11.35,34.75-25.03,46.89.6,6.01.49,12.08-.32,18.09-5.24,38.34-38.17,66.24-75.84,66.24"/>
        <path class="cls-4" d="M176.24,325.97c-59.61-29.25-99.65-83.36-99.65-134.63,0-85.13,94.16-151.17,175.16-151.17,40.73,0,86.59,16.46,122.69,44.02,39.52,30.18,61.29,68.23,61.29,107.15,0,26.36-10.27,52.92-29.71,76.82-17.73,21.8-42.08,40.47-70.41,54l-2.54-5.32c58.78-28.06,96.77-77.32,96.77-125.5,0-37.04-20.95-73.43-58.97-102.46-35.11-26.81-79.63-42.81-119.11-42.81s-81.77,15.98-114.63,42.75c-35.23,28.7-54.64,65.11-54.64,102.52,0,49.08,38.72,101.06,96.36,129.34l-2.6,5.3Z"/>
        <path class="cls-4" d="M188.03,453.5h-.71c-25.83-.3-48.49-18.43-55.12-44.1-2.21-8.56-2.32-18.21-.3-26.49,5.26-21.51,20.59-37.55,35.41-53.06,6.93-7.25,13.47-14.1,19.08-21.48,5.15-6.79,9.92-14.23,14.16-22.1,7.88-14.61,24.76-52.24,11.48-85.94l-.39-.99c-2.55-6.56-4.41-10.24-5.53-10.93-15.17-6.09-28.66-7.61-60.03,1.09-1.57.44-3.19-.49-3.63-2.05-.44-1.57.49-3.19,2.05-3.63,33-9.15,47.4-7.47,63.88-.84,3.2,1.29,5.55,5.99,8.75,14.23l.38.96c14.19,36.01-3.51,75.57-11.78,90.9-4.39,8.14-9.32,15.83-14.66,22.87-5.81,7.65-12.77,14.94-19.51,21.99-14.29,14.95-29.07,30.41-33.95,50.39-1.77,7.25-1.67,16.08.28,23.61,5.96,23.1,26.31,39.41,49.48,39.68h.65c27.13,0,54.98-19.03,65.75-27.26,1.29-.99,3.14-.74,4.13.55.99,1.29.74,3.14-.55,4.13-11.25,8.6-40.4,28.48-69.34,28.48"/>
        <path class="cls-4" d="M255.57,426.53c-1.63,0-2.95-1.32-2.95-2.95v-43.34c0-1.63,1.32-2.95,2.95-2.95s2.95,1.32,2.95,2.95v43.34c0,1.63-1.32,2.95-2.95,2.95"/>
        <path class="cls-4" d="M256.15,501.54c-31.72,0-57.53-23.49-57.53-52.36h5.9c0,25.62,23.16,46.46,51.64,46.46s51.64-20.84,51.64-46.46h5.9c0,28.87-25.81,52.36-57.54,52.36"/>
        <path class="cls-4" d="M339.94,492.84c-1.19,0-2.17-.94-2.21-2.13-.04-1.22.91-2.24,2.13-2.29.18,0,17.93-.75,36.5-11.43,24.81-14.26,39.28-38.58,43.02-72.27.13-1.21,1.23-2.09,2.44-1.95,1.21.14,2.09,1.23,1.95,2.44-4.87,43.92-27.37,65.41-45.38,75.72-19.51,11.16-37.62,11.89-38.38,11.91h-.08Z"/>
        <path class="cls-4" d="M341.5,478.81h0c-1.22,0-2.2-1-2.2-2.22,0-1.22,1-2.2,2.21-2.2h.05c2.58,0,51.35-.81,60.07-58.54.18-1.21,1.31-2.04,2.52-1.86,1.21.18,2.04,1.31,1.86,2.52-9.32,61.71-63.6,62.3-64.5,62.3"/>
        <path class="cls-4" d="M341.95,462.61h0c-1.22,0-2.21-1-2.2-2.22,0-1.22,1.06-2.2,2.22-2.2h.02c1.75,0,36.54-.55,42.76-41.73.18-1.21,1.31-2.05,2.52-1.86,1.21.18,2.04,1.31,1.85,2.51-6.8,45.06-46.52,45.5-47.16,45.5"/>
        <path class="cls-4" d="M172.7,492.84h-.08c-.76-.03-18.88-.76-38.38-11.92-18.01-10.3-40.51-31.8-45.38-75.72-.14-1.21.74-2.3,1.95-2.44,1.22-.13,2.3.74,2.44,1.95,3.75,33.78,18.28,58.12,43.18,72.37,18.57,10.62,36.16,11.33,36.33,11.33,1.22.04,2.18,1.07,2.13,2.29-.04,1.19-1.02,2.14-2.21,2.14"/>
        <path class="cls-4" d="M171.14,478.81c-.88,0-55.18-.59-64.5-62.3-.18-1.21.65-2.33,1.86-2.52,1.21-.19,2.33.65,2.52,1.86,8.75,57.98,59.27,58.54,60.09,58.54h.02c1.21,0,2.2.98,2.21,2.2,0,1.22-.98,2.22-2.2,2.22h0Z"/>
        <path class="cls-4" d="M170.7,462.61c-.64,0-40.36-.43-47.16-45.5-.18-1.21.65-2.33,1.85-2.51,1.21-.19,2.33.65,2.52,1.86,6.22,41.18,41.01,41.73,42.76,41.73h.02c1.22,0,2.21.99,2.22,2.2,0,1.22-.98,2.21-2.2,2.22h0Z"/>
        <path class="cls-4" d="M177.76,208.79l-1.39-.04c-6.48-.36-12.43-3.2-16.76-7.98-4.34-4.79-6.53-10.96-6.17-17.38.07-1.22,1.11-2.13,2.33-2.08,1.22.07,2.15,1.11,2.08,2.33-.29,5.23,1.49,10.26,5.03,14.16,3.55,3.92,8.42,6.24,13.74,6.53,10.93.62,20.36-7.67,20.97-18.46.07-1.22,1.12-2.12,2.33-2.08,1.22.07,2.15,1.11,2.08,2.33-.72,12.77-11.45,22.67-24.23,22.67"/>
        <path class="cls-4" d="M184.61,195.46c-.23,4.08-3.72,7.2-7.8,6.97-4.08-.23-7.2-3.72-6.97-7.8.23-4.08,3.72-7.2,7.8-6.97s7.2,3.72,6.97,7.8"/>
        <path class="cls-3" d="M176.1,190.46c-.09,1.6-1.45,2.81-3.05,2.72-1.59-.09-2.82-1.45-2.72-3.05.09-1.59,1.45-2.81,3.05-2.73,1.59.09,2.82,1.45,2.72,3.05"/>
        <path class="cls-4" d="M323.7,453.5c-28.93,0-58.08-19.88-69.34-28.48-1.29-.99-1.54-2.84-.55-4.13s2.84-1.54,4.13-.55c10.77,8.23,38.62,27.26,65.75,27.26h.65c23.17-.26,43.51-16.58,49.48-39.68,1.95-7.53,2.05-16.36.28-23.61-4.88-19.98-19.66-35.44-33.95-50.39-6.74-7.05-13.71-14.34-19.51-21.99-5.34-7.04-10.27-14.73-14.66-22.87-8.27-15.34-25.96-54.9-11.78-90.9l.38-.97c3.2-8.23,5.55-12.94,8.75-14.22,16.48-6.62,30.88-8.31,63.88.84,1.57.44,2.49,2.06,2.05,3.63-.44,1.57-2.06,2.49-3.63,2.05-31.37-8.7-44.86-7.18-60.1-1.05-1.04.65-2.9,4.33-5.45,10.89l-.39,1c-13.28,33.7,3.61,71.33,11.48,85.94,4.24,7.87,9.01,15.3,14.16,22.1,5.6,7.38,12.14,14.23,19.08,21.48,14.83,15.51,30.16,31.55,35.41,53.06,2.02,8.28,1.91,17.93-.3,26.49-6.63,25.67-29.29,43.8-55.12,44.1h-.71Z"/>
        <path class="cls-4" d="M333.96,208.5c-12.79,0-23.52-9.9-24.23-22.67-.07-1.22.86-2.26,2.08-2.33,1.21-.03,2.26.86,2.33,2.08.61,10.8,10.01,19.08,20.96,18.47,5.31-.3,10.19-2.62,13.74-6.54,3.54-3.91,5.32-8.94,5.03-14.16-.07-1.22.86-2.26,2.08-2.33,1.19-.05,2.26.86,2.33,2.08.36,6.42-1.83,12.59-6.17,17.38-4.33,4.79-10.28,7.62-16.76,7.99l-1.39.04Z"/>
        <path class="cls-4" d="M327.11,195.46c.23,4.08,3.72,7.2,7.8,6.97,4.08-.23,7.2-3.72,6.97-7.8-.23-4.08-3.72-7.2-7.8-6.97-4.08.23-7.2,3.72-6.97,7.8"/>
        <path class="cls-3" d="M335.62,190.46c.09,1.6,1.45,2.81,3.05,2.72,1.59-.09,2.81-1.45,2.72-3.05-.09-1.59-1.45-2.81-3.05-2.73-1.6.09-2.82,1.45-2.72,3.05"/>
        <path class="cls-4" d="M255.51,391.59h0c-1.63,0-2.94-1.33-2.94-2.95h0c.01-4.34-1.4-7.87-4.31-10.79-8.25-8.27-26.12-8.91-31.41-8.91-1.62,0-2.6.05-2.64.06-1.14.06-2.22-.54-2.76-1.55-.54-1.01-.45-2.24.23-3.16.67-.91,16.85-22.2,42.98-22.2,15.2,0,30.48,7.27,45.42,21.61.71.54,1.17,1.39,1.17,2.35,0,1.64-1.33,3.03-2.97,2.95l-.35-.02s-2.96-.34-7.18-.34c-12.04,0-32.24,2.6-32.28,20.01h0c0,1.63-1.32,2.95-2.95,2.95M220.66,363.12c8.77.38,23.54,2.32,31.76,10.56,1.12,1.13,2.09,2.33,2.9,3.61,5.12-9.27,17.2-14.45,34.83-14.56-11.88-9.8-23.79-14.75-35.5-14.75-15.96,0-27.99,9.28-33.99,15.14"/>
        <path class="cls-4" d="M218.21,459.55c-1.38,0-2.61-.97-2.89-2.37-.32-1.59.71-3.15,2.31-3.47.21-.04,21.56-4.48,36.02-18.95,1.15-1.15,3.02-1.15,4.17,0,1.15,1.15,1.15,3.02,0,4.17-15.76,15.76-38.09,20.37-39.04,20.56l-.58.06Z"/>
        <path class="cls-4" d="M293.27,459.55l-.58-.06c-.94-.19-23.28-4.8-39.03-20.56-1.15-1.15-1.15-3.02,0-4.17,1.15-1.15,3.02-1.15,4.17,0,14.51,14.51,35.81,18.9,36.02,18.95,1.6.32,2.63,1.87,2.31,3.47-.28,1.4-1.51,2.37-2.89,2.37"/>
        <path class="cls-4" d="M170.01,295.8l-.97-.17c-41.3-14.46-71.86-50.8-76.06-90.44-2.24-21.09,3.59-41.5,15.58-54.58,1.1-1.2,2.96-1.28,4.17-.18,1.2,1.1,1.28,2.97.18,4.17-10.7,11.67-16.09,30.82-14.06,49.97,3.96,37.42,32.96,71.78,72.15,85.5,1.54.54,2.35,2.22,1.81,3.76-.43,1.21-1.56,1.98-2.78,1.98"/>
        <path class="cls-4" d="M168.32,272.9l-.97-.17c-30.62-10.72-53.29-37.68-56.4-67.1-1.66-15.72,2.69-30.94,11.65-40.71,1.1-1.2,2.96-1.28,4.16-.18,1.2,1.1,1.28,2.96.18,4.16-7.71,8.42-11.6,22.25-10.13,36.1,2.88,27.2,23.97,52.18,52.49,62.16,1.54.54,2.35,2.22,1.81,3.76-.43,1.21-1.56,1.97-2.78,1.97"/>
        <path class="cls-4" d="M130.69,190.44c1.85,2.26,1.51,5.6-.75,7.44-2.26,1.85-5.6,1.51-7.45-.75-1.84-2.26-1.51-5.6.76-7.45,2.26-1.84,5.6-1.51,7.44.76"/>
        <path class="cls-4" d="M128.91,205.7c1.45,1.77,1.18,4.39-.6,5.84-1.77,1.45-4.39,1.18-5.84-.59-1.45-1.77-1.18-4.39.6-5.84,1.77-1.45,4.39-1.18,5.84.6"/>
        <path class="cls-4" d="M129.88,219.66c1.04,1.28.85,3.15-.43,4.2-1.28,1.04-3.16.85-4.2-.43-1.04-1.28-.85-3.15.43-4.2,1.28-1.04,3.16-.85,4.2.43"/>
        <path class="cls-4" d="M134.03,230.7c.76.94.62,2.32-.32,3.08-.94.76-2.32.62-3.08-.32-.76-.94-.62-2.32.31-3.08.94-.77,2.32-.63,3.08.31"/>
        <rect class="cls-4" x="136.92" y="239.2" width="2.42" height="2.42" transform="translate(-115.04 353.45) rotate(-84.18)"/>
        <rect class="cls-4" x="143.05" y="245.52" width="1.91" height="1.91" transform="translate(-115.89 364.56) rotate(-84.14)"/>
        <path class="cls-4" d="M340.59,295.8c-1.22,0-2.36-.76-2.78-1.98-.54-1.54.27-3.22,1.81-3.76,39.19-13.72,68.18-48.08,72.15-85.5,2.03-19.15-3.36-38.3-14.06-49.97-1.1-1.2-1.02-3.06.18-4.17,1.2-1.1,3.06-1.02,4.16.18,11.99,13.08,17.81,33.48,15.58,54.58-4.2,39.64-34.77,75.98-76.06,90.44l-.97.17Z"/>
        <path class="cls-4" d="M342.29,272.9c-1.22,0-2.36-.76-2.78-1.97-.54-1.54.27-3.22,1.81-3.76,28.51-9.98,49.6-34.96,52.48-62.16,1.47-13.85-2.41-27.68-10.13-36.1-1.1-1.2-1.02-3.06.18-4.16,1.2-1.1,3.06-1.02,4.16.18,8.96,9.77,13.31,24.99,11.65,40.71-3.12,29.42-25.78,56.38-56.4,67.1l-.97.17Z"/>
        <path class="cls-4" d="M379.92,190.44c-1.85,2.26-1.51,5.6.76,7.44,2.26,1.85,5.59,1.51,7.44-.75,1.85-2.26,1.51-5.6-.76-7.45-2.26-1.84-5.6-1.51-7.44.76"/>
        <path class="cls-4" d="M381.7,205.7c-1.45,1.77-1.18,4.39.59,5.84,1.78,1.45,4.39,1.18,5.84-.59,1.45-1.77,1.18-4.39-.59-5.84-1.78-1.45-4.39-1.18-5.84.6"/>
        <path class="cls-4" d="M380.73,219.66c-1.04,1.28-.85,3.15.43,4.2,1.27,1.04,3.15.85,4.19-.43,1.04-1.28.85-3.15-.43-4.2-1.28-1.04-3.16-.85-4.2.43"/>
        <path class="cls-4" d="M376.58,230.7c-.77.94-.63,2.32.31,3.08.94.76,2.32.62,3.08-.32.77-.94.62-2.32-.32-3.08-.94-.77-2.32-.63-3.08.31"/>
        <rect class="cls-4" x="371.26" y="239.2" width="2.42" height="2.42" transform="translate(-22.46 39.01) rotate(-5.82)"/>
        <rect class="cls-4" x="365.65" y="245.52" width="1.91" height="1.91" transform="translate(-23.04 38.33) rotate(-5.8)"/>
        <path class="cls-4" d="M40.82,110.37l-2.12-.9c-14.71-15.3-31.6-43.11-28.53-88.72.08-1.13.79-2.12,1.84-2.54.62-.25,62.65-24.46,104.99,27.05,1.03,1.26.85,3.11-.4,4.15-1.25,1.03-3.11.85-4.15-.4C76.66,5.47,25.88,19.71,15.93,23.06c-2.33,42.31,13.34,68.09,27.01,82.32,1.13,1.17,1.09,3.04-.08,4.17l-2.04.82Z"/>
        <path class="cls-4" d="M442.82,117.59l-2.04-.82c-1.18-1.13-1.21-2.99-.08-4.17,11.87-12.35,28.36-46.73,25.89-91.43-9.61-3.22-57.31-16.56-92.67,21.54-1.11,1.19-2.98,1.26-4.17.15-1.19-1.11-1.26-2.97-.16-4.17,42.11-45.36,100.33-22.61,100.92-22.38,1.05.42,1.76,1.41,1.84,2.54,2.99,44.52-12.11,81.92-27.4,97.83l-2.13.9Z"/>
        <path class="cls-4" d="M182.59,79.13c-1.25,2.62-4.39,3.72-7.01,2.47-2.62-1.26-3.73-4.4-2.47-7.02,1.25-2.62,4.4-3.72,7.01-2.47,2.62,1.26,3.73,4.4,2.47,7.02"/>
        <path class="cls-4" d="M166.62,85.62c-.98,2.05-3.45,2.92-5.5,1.94-2.06-.99-2.92-3.45-1.94-5.5.98-2.06,3.45-2.92,5.5-1.94,2.05.98,2.92,3.45,1.94,5.5"/>
        <path class="cls-4" d="M154.91,93.21c-.71,1.48-2.48,2.1-3.96,1.39-1.48-.71-2.1-2.48-1.39-3.95.71-1.48,2.48-2.1,3.96-1.39s2.1,2.48,1.39,3.95"/>
        <path class="cls-4" d="M145.71,99.6c-.52,1.08-1.82,1.54-2.91,1.02-1.08-.52-1.54-1.82-1.02-2.91.52-1.08,1.82-1.54,2.91-1.02,1.08.52,1.54,1.82,1.02,2.91"/>
        <rect class="cls-4" x="135.25" y="106.09" width="2.41" height="2.41" transform="translate(-27.86 51.32) rotate(-19.37)"/>
        <rect class="cls-4" x="128.5" y="114.84" width="1.9" height="1.9" transform="translate(-31.08 49.5) rotate(-19.38)"/>
        <path class="cls-4" d="M394.82,126.61l-2.29-1.08c-55.31-67.84-141.67-68.63-142.54-68.63-1.63,0-2.95-1.32-2.95-2.95s1.32-2.95,2.95-2.95c.89,0,90.04.81,147.1,70.8,1.03,1.26.84,3.12-.42,4.15l-1.86.66Z"/>
        <path class="cls-4" d="M307.71,30.88l-1.13-.53c-1.04-1.24-25.85-30.12-64.52-6.41l-2.03-.48.49-2.03c40.89-25.08,68.06,6.7,68.33,7.03l-.19,2.07-.94.34Z"/>
        <path class="cls-4" d="M298.59,34.38l-1.17-.57c-.65-.84-16.24-20.46-42.32-5.85l-2.01-.56.56-2.01c28.35-15.88,45.92,6.4,46.1,6.63l-.27,2.06-.9.31Z"/>
        <path class="cls-4" d="M291.87,39.31l-1.17-.57c-.46-.6-11.52-14.49-30.02-4.12l-2.01-.56.56-2.01c20.76-11.63,33.67,4.72,33.8,4.89l-.27,2.07-.9.31Z"/>
        <path class="cls-4" d="M423.63,97.31l-1.45-1.26c-.24-1.6-6.33-39.13-51.61-39.13h-.09l-1.47-1.47,1.56-1.48c47.88,0,54.47,41.23,54.53,41.65l-1.24,1.67-.22.02Z"/>
        <path class="cls-4" d="M414.03,95.53l-1.46-1.31c-.11-1.06-3.18-25.93-33.05-27.07l-1.42-1.53,1.53-1.42c32.47,1.24,35.83,29.42,35.86,29.7l-1.31,1.62h-.16Z"/>
        <path class="cls-4" d="M405.71,96.23l-1.46-1.31c-.08-.75-2.27-18.36-23.46-19.17l-1.42-1.53,1.53-1.42c23.78.91,26.26,21.6,26.28,21.81l-1.31,1.62h-.16Z"/>
        <path class="cls-4" d="M478.06,200.54l-.57-.12-.79-1.93c.62-1.49,14.87-36.8-23.97-60.25l-.5-2.02,2.02-.5c41.06,24.78,25.33,63.52,25.17,63.91l-1.36.9Z"/>
        <path class="cls-4" d="M470.77,194.05l-.62-.14-.71-1.96c.45-.96,10.71-23.83-14.26-40.27l-.42-2.04,2.04-.42c27.13,17.87,15.43,43.72,15.3,43.98l-1.33.85Z"/>
        <path class="cls-4" d="M463.29,190.34l-.62-.14-.71-1.96c.32-.68,7.57-16.89-10.14-28.55l-.42-2.04,2.04-.42c19.88,13.09,11.28,32.07,11.19,32.26l-1.33.85Z"/>
        <path class="cls-4" d="M463.23,300.59l-1.25-.7.48-2.03c1.37-.85,33.43-21.4,15.33-63l.76-1.94,1.94.77c19.13,43.98-16.12,66.46-16.48,66.68l-.77.22Z"/>
        <path class="cls-4" d="M461.03,291.07l-1.28-.75.55-2.01c.93-.53,22.53-13.23,11.69-41.09l.84-1.91,1.91.84c11.78,30.28-12.73,44.58-12.98,44.72l-.73.19Z"/>
        <path class="cls-4" d="M457.09,283.72l-1.29-.75.55-2.01c.65-.37,15.94-9.39,8.26-29.15l.84-1.91,1.91.84c8.63,22.18-9.37,32.68-9.55,32.78l-.73.19Z"/>
        <path class="cls-4" d="M409.62,385.74l-1.47-1.44,1.44-1.5c1.62-.03,39.67-1.35,45.33-46.36l1.65-1.28,1.28,1.65c-5.99,47.59-47.78,48.93-48.21,48.93h-.03Z"/>
        <path class="cls-4" d="M412.62,376.43h-.06l-1.44-1.5,1.47-1.45h.17c2.3,0,26.11-.7,30.88-29.37l1.7-1.21,1.21,1.7c-5.21,31.37-32.51,31.84-33.93,31.84"/>
        <path class="cls-4" d="M412.96,368.1h-.03l-1.45-1.5,1.5-1.44c.77.02,18.51.06,21.98-20.86l1.7-1.21,1.21,1.69c-3.82,22.99-23.86,23.32-24.91,23.32"/>
        <path class="cls-4" d="M80.41,351.25l-.29-.03c-47.05-9.32-45.45-51.1-45.43-51.52l1.55-1.39,1.4,1.54c-.08,1.61-1.44,39.67,43.06,48.48l1.16,1.73-1.44,1.19Z"/>
        <path class="cls-4" d="M73.48,339.44l-.34-.04c-31.6-7.56-29.4-35.85-29.37-36.14l1.6-1.33,1.34,1.6c-.09,1.06-1.95,26.05,27.12,33.01l1.09,1.78-1.43,1.13Z"/>
        <path class="cls-4" d="M73.91,330.76l-.34-.04c-23.15-5.54-21.53-26.31-21.51-26.52l1.6-1.33,1.33,1.6c-.07.78-1.34,18.46,19.26,23.39l1.09,1.78-1.43,1.13Z"/>
        <path class="cls-4" d="M120.01,378.17c-17.65,0-23.51-15.39-23.58-15.56l.88-1.89,1.89.88c.27.73,6.67,17.26,27.41,12.91l1.75,1.14-1.14,1.74c-2.6.55-5,.79-7.21.79"/>
        <path class="cls-4" d="M120.17,370.88c-12.37,0-16.49-10.82-16.54-10.94l.88-1.89,1.89.87c.18.49,4.45,11.41,18.2,8.53l1.74,1.14-1.14,1.75c-1.81.38-3.49.55-5.03.55"/>
        <path class="cls-4" d="M28.95,261.78l-1.09-.48c-32.16-35.59-5.91-68.13-5.65-68.46l2.07-.2.2,2.07c-1.03,1.25-24.86,30.95,5.56,64.6l-.11,2.08-.99.38Z"/>
        <path class="cls-4" d="M30.45,248.17l-1.13-.53c-20.82-24.94-2.15-46.31-1.96-46.53l2.08-.11.12,2.08c-.71.79-17.13,19.72,2.03,42.67l-.19,2.07-.95.34Z"/>
        <path class="cls-4" d="M35.98,241.47l-1.13-.53c-15.25-18.27-1.54-33.96-1.4-34.12l2.08-.11.12,2.08c-.5.56-12.12,13.99,1.47,30.26l-.19,2.08-.94.34Z"/>
        <path class="cls-4" d="M39.4,165.95l-1.45-1.25c-9.01-58.31,39.93-74.03,40.43-74.18l1.84.97-.98,1.84c-1.92.59-46.99,15.16-38.38,70.91l-1.23,1.68-.23.02Z"/>
        <path class="cls-4" d="M50.19,152.91l-1.46-1.31c-4.53-39.62,28.98-48.93,29.32-49.03l1.8,1.05-1.05,1.8c-1.28.34-31.39,8.8-27.15,45.84l-1.3,1.63h-.17Z"/>
        <path class="cls-4" d="M60.46,149.74l-1.46-1.31c-3.31-28.94,21.22-35.76,21.47-35.83l1.8,1.05-1.05,1.8c-.91.24-22.31,6.28-19.29,32.65l-1.3,1.63h-.17Z"/>
        <path class="cls-4" d="M119.25,68.46l-.55-.11-.82-1.92c19.43-48.54,63.86-38.44,64.3-38.33l1.08,1.78-1.77,1.09c-1.72-.42-42.41-9.57-60.88,36.56l-1.37.93Z"/>
        <path class="cls-4" d="M133.32,63.4l-.6-.13-.74-1.95c14.43-32.3,44.25-24.27,44.55-24.19l1.02,1.82-1.82,1.02c-1.13-.32-27.69-7.37-41.06,22.55l-1.35.87Z"/>
        <path class="cls-4" d="M142.55,65.61l-.6-.13-.75-1.95c10.56-23.63,32.42-17.75,32.65-17.69l1.02,1.82-1.81,1.02c-.8-.22-19.65-5.21-29.16,16.05l-1.34.88Z"/>
        <path class="cls-4" d="M365.25,361.53l-1.22-.26c-1.48-.67-2.13-2.42-1.46-3.9.14-.32,10.46-23.74,5-57.78-.26-1.61.83-3.12,2.44-3.38,1.6-.26,3.12.84,3.38,2.44,5.77,35.97-4.99,60.15-5.45,61.16-.49,1.09-1.56,1.73-2.68,1.73"/>
        <path class="cls-4" d="M144.37,361.53c-1.12,0-2.19-.64-2.68-1.73-.46-1.01-11.23-25.19-5.45-61.16.26-1.61,1.77-2.71,3.38-2.44,1.61.26,2.7,1.77,2.44,3.38-5.49,34.23,4.89,57.55,5,57.78.67,1.48.02,3.23-1.46,3.91l-1.22.26Z"/>
        <path class="cls-4" d="M246.16,161.41c-1.63,0-2.95-1.32-2.95-2.95,0-14.81-4.68-25.48-13.92-31.73-26.41-17.86-81.72,3.98-82.28,4.2-1.51.61-3.23-.13-3.83-1.64-.61-1.51.13-3.23,1.64-3.83,2.38-.96,58.76-23.23,87.77-3.62,10.96,7.41,16.52,19.73,16.52,36.62,0,1.63-1.32,2.95-2.95,2.95"/>
        <path class="cls-4" d="M265.01,161.41c-1.63,0-2.95-1.32-2.95-2.95,0-16.89,5.55-29.21,16.52-36.62,29-19.61,85.38,2.66,87.77,3.62,1.51.6,2.24,2.32,1.64,3.83-.61,1.51-2.32,2.24-3.83,1.64-.55-.22-55.86-22.07-82.27-4.2-9.23,6.25-13.92,16.92-13.92,31.73,0,1.63-1.32,2.95-2.95,2.95"/>
        <path class="cls-4" d="M326.78,425.02c-3.1,0-6.26-.55-9.31-1.68-8.84-3.3-14.21-10.68-14.36-19.75-.1-6.49,3.82-12.7,9.76-15.46,4.8-2.23,12.92-1.76,17.34,2.47,3.46,3.32,4.4,9.16,2.23,13.89-1.88,4.11-5.62,6.31-9.97,5.89-2.57-.24-5.09-2.23-6.13-4.83-.89-2.22-.54-4.47.96-6.19.8-.92,2.2-1.02,3.12-.22.92.8,1.02,2.2.22,3.12-.16.19-.59.67-.19,1.65.41,1.03,1.53,1.98,2.44,2.07,3.35.32,4.9-1.95,5.53-3.33,1.39-3.03.84-6.84-1.27-8.86-2.94-2.82-9.08-3.2-12.41-1.66-4.39,2.04-7.28,6.61-7.2,11.38.12,7.18,4.41,13.04,11.48,15.68,6.78,2.53,16.38,1.99,22.55-4.9,4.7-5.25,6.3-12.8,4.16-19.69-2.03-6.54-6.88-11.19-13.33-12.76-1.19-.29-1.91-1.49-1.62-2.67.29-1.19,1.48-1.92,2.67-1.62,7.87,1.92,14.04,7.81,16.5,15.74,2.59,8.37.64,17.54-5.09,23.94-4.52,5.05-11.16,7.78-18.08,7.78"/>
        <path class="cls-4" d="M184.94,425.02c-6.92,0-13.56-2.73-18.08-7.78-5.73-6.4-7.68-15.58-5.09-23.94,2.46-7.94,8.63-13.82,16.5-15.74,1.19-.29,2.38.44,2.67,1.62.29,1.19-.44,2.38-1.62,2.67-6.44,1.57-11.3,6.22-13.33,12.76-2.14,6.89-.54,14.44,4.16,19.69,6.17,6.89,15.77,7.42,22.55,4.9,7.07-2.64,11.37-8.5,11.48-15.68.08-4.77-2.82-9.34-7.2-11.38-3.33-1.54-9.48-1.16-12.41,1.66-2.11,2.02-2.66,5.84-1.27,8.86.63,1.38,2.2,3.65,5.53,3.33.91-.09,2.03-1.03,2.44-2.07.39-.98-.03-1.47-.19-1.65-.8-.93-.7-2.32.22-3.12.92-.8,2.32-.7,3.12.22,1.5,1.72,1.85,3.98.96,6.19-1.04,2.6-3.56,4.58-6.13,4.83-4.36.41-8.09-1.79-9.97-5.89-2.17-4.73-1.23-10.57,2.23-13.89,4.42-4.24,12.54-4.7,17.34-2.47,5.94,2.76,9.87,8.97,9.76,15.46-.15,9.07-5.52,16.45-14.36,19.75-3.05,1.13-6.2,1.68-9.31,1.68"/>
        <path class="cls-4" d="M397.05,50.13l-2.09-.87c-1.15-1.15-1.14-3.02.01-4.17,27.32-27.18,72.43-28.93,74.33-28.99,1.62-.05,2.99,1.22,3.04,2.85.05,1.63-1.22,2.99-2.85,3.04-.44.02-44.71,1.76-70.37,27.28l-2.08.86Z"/>
        <path class="cls-4" d="M103.4,71.03l-2.13-.91C60.88,28.03,13.36,23.91,12.88,23.88c-1.62-.12-2.84-1.54-2.71-3.16.12-1.62,1.53-2.84,3.16-2.71,2.03.15,50.18,4.25,92.2,48.04,1.13,1.17,1.09,3.04-.09,4.17l-2.04.82Z"/>
        <path class="cls-4" d="M460.48,31.49c-.89.94-.84,2.42.1,3.31.94.89,2.42.84,3.31-.1.89-.94.85-2.42-.1-3.31-.94-.89-2.42-.85-3.31.1"/>
        <rect class="cls-4" x="460.84" y="39.24" width="2.6" height="2.6" transform="translate(-.98 13.43) rotate(-1.66)"/>
        <rect class="cls-4" x="460.81" y="46.35" width="1.87" height="1.87" transform="translate(-1.21 13.89) rotate(-1.72)"/>
        <rect class="cls-4" x="460.73" y="51.56" width="1.37" height="1.37" transform="translate(-1.35 13.7) rotate(-1.7)"/>
        <polygon class="cls-4" points="459.98 56.82 460.01 57.89 461.09 57.86 461.05 56.79 459.98 56.82"/>
        <rect class="cls-4" x="459.38" y="61.25" width=".85" height=".85" transform="translate(-1.52 12.61) rotate(-1.57)"/>
        <path class="cls-4" d="M22.92,38.33c1.33,1.1,1.52,3.08.42,4.41-1.1,1.34-3.08,1.52-4.41.42-1.33-1.1-1.52-3.08-.42-4.41,1.1-1.33,3.08-1.52,4.41-.42"/>
        <path class="cls-4" d="M23.78,48.73c1.05.86,1.19,2.41.33,3.46-.86,1.05-2.41,1.19-3.46.33-1.05-.86-1.19-2.42-.33-3.46.87-1.05,2.41-1.19,3.46-.33"/>
        <rect class="cls-4" x="22.6" y="58.27" width="2.5" height="2.5" transform="translate(-5.51 2.52) rotate(-5.42)"/>
        <rect class="cls-4" x="24.19" y="65.14" width="1.84" height="1.84" transform="translate(-6.08 2.64) rotate(-5.38)"/>
        <polygon class="cls-4" points="27.76 71.9 27.9 73.33 26.47 73.46 26.33 72.04 27.76 71.9"/>
        <rect class="cls-4" x="28.24" y="77.75" width="1.13" height="1.13" transform="translate(-7.36 3.11) rotate(-5.49)"/>
        <path class="cls-4" d="M252.17,212.71c0-2.3,1.86-4.16,4.16-4.16s4.16,1.86,4.16,4.16-1.86,4.16-4.16,4.16-4.16-1.86-4.16-4.16"/>
        <path class="cls-4" d="M253.14,201.71c0-1.76,1.43-3.19,3.19-3.19s3.19,1.43,3.19,3.19-1.43,3.19-3.19,3.19-3.19-1.43-3.19-3.19"/>
        <path class="cls-4" d="M253.73,192.15c0-1.44,1.17-2.6,2.6-2.6s2.6,1.17,2.6,2.6-1.17,2.6-2.6,2.6-2.6-1.17-2.6-2.6"/>
        <path class="cls-4" d="M254.51,183.96c0-1.01.82-1.83,1.82-1.83s1.82.82,1.82,1.83-.82,1.82-1.82,1.82-1.82-.82-1.82-1.82"/>
        <path class="cls-4" d="M256.82,315.77c-1.63,0-2.95-1.32-2.95-2.95v-79.58c0-1.63,1.32-2.95,2.95-2.95s2.95,1.32,2.95,2.95v79.58c0,1.63-1.32,2.95-2.95,2.95"/>
        <path class="cls-4" d="M242.56,301.88c-1.63,0-2.95-1.32-2.95-2.95v-51.81c0-1.63,1.32-2.95,2.95-2.95s2.95,1.32,2.95,2.95v51.81c0,1.63-1.32,2.95-2.95,2.95"/>
        <path class="cls-4" d="M272.61,301.88c-1.63,0-2.95-1.32-2.95-2.95v-51.81c0-1.63,1.32-2.95,2.95-2.95s2.95,1.32,2.95,2.95v51.81c0,1.63-1.32,2.95-2.95,2.95"/>
      </g>
    </g>
  </g>
</svg>