<?xml version="1.0" encoding="UTF-8"?>
<svg id="Layer_1" data-name="Layer 1" xmlns="http://www.w3.org/2000/svg" xmlns:xlink="http://www.w3.org/1999/xlink" viewBox="0 0 500 483.05">
  <defs>
    <style>
      .cls-1 {
        fill: none;
      }

      .cls-2 {
        clip-path: url(#clippath-1);
      }

      .cls-3 {
        fill: #9a6c29;
      }

      .cls-4 {
        clip-path: url(#clippath);
      }
    </style>
    <clipPath id="clippath">
      <rect class="cls-1" y="0" width="500" height="483.05"/>
    </clipPath>
    <clipPath id="clippath-1">
      <rect class="cls-1" y="0" width="500" height="483.05"/>
    </clipPath>
  </defs>
  <g id="Libra">
    <g class="cls-4">
      <g class="cls-2">
        <path class="cls-3" d="M428.16,483.05H67.47c-1.37,0-2.55-.98-2.79-2.33-.24-1.35.52-2.68,1.81-3.16l180.33-66.63h1.96l180.13,66.56c1.2.33,2.08,1.43,2.08,2.73,0,1.57-1.27,2.83-2.84,2.83M83.31,477.38h328.98l-164.48-60.78-164.49,60.78Z"/>
        <path class="cls-3" d="M267.67,420.86c-1.56,0-2.83-1.27-2.83-2.83V39.51c0-1.57,1.27-2.83,2.83-2.83s2.83,1.27,2.83,2.83v378.51c0,1.57-1.27,2.83-2.83,2.83"/>
        <path class="cls-3" d="M227.93,420.86c-1.56,0-2.83-1.27-2.83-2.83V39.51c0-1.57,1.27-2.83,2.83-2.83s2.83,1.27,2.83,2.83v378.51c0,1.57-1.27,2.83-2.83,2.83"/>
        <path class="cls-3" d="M92.11,115.93c-26.44,0-54.05-8.06-79.83-23.31-4.64-2.74-7.94-7.13-9.28-12.36-1.34-5.23-.57-10.66,2.18-15.3,3.62-6.12,10.29-9.91,17.4-9.91,3.6,0,7.15.97,10.26,2.81,19.55,11.56,40.05,17.67,59.3,17.67,8.95,0,17.63-1.31,25.78-3.9,14.7-4.66,25.42-16.53,37.83-30.26,10.4-11.51,21.12-23.38,35.56-32.49C200.51,3.07,211.23,0,222.31,0c8.7,0,17.49,1.93,25.49,5.59C255.8,1.93,264.59,0,273.29,0c11.08,0,21.8,3.07,31,8.87,14.44,9.11,25.17,20.98,35.55,32.47,12.43,13.76,23.15,25.62,37.85,30.29,8.16,2.58,16.83,3.9,25.78,3.9,19.25,0,39.75-6.11,59.3-17.67,3.11-1.84,6.66-2.81,10.26-2.81,7.11,0,13.78,3.8,17.4,9.91,2.74,4.64,3.52,10.07,2.18,15.3-1.34,5.22-4.64,9.61-9.28,12.36-25.79,15.25-53.39,23.3-79.83,23.3-13.09,0-25.88-1.95-38.01-5.8-25.13-7.97-41.32-25.88-55.6-41.69-8.96-9.91-17.4-19.25-27.14-25.4-2.71-1.71-5.99-2.62-9.46-2.62-4.67,0-9.3,1.61-13.04,4.54l-.35.25-1.04.73-.71.44-.97.54-.85.42-.9.39-.99.37-.81.26-1.09.3-.79.17-1.12.19-.83.1-1.06.08h-1.89s-1.02-.08-1.02-.08l-.87-.1-1.07-.18-.82-.18-1.06-.29-.84-.27-.96-.37-.91-.4-.83-.41-1-.56-.68-.43-1.03-.73-.35-.25c-3.76-2.93-8.39-4.55-13.06-4.55-3.48,0-6.75.9-9.46,2.62-9.75,6.15-18.2,15.5-27.14,25.4-14.28,15.81-30.46,33.73-55.6,41.7-12.14,3.85-24.93,5.8-38.02,5.8M22.58,60.71c-5.12,0-9.92,2.73-12.52,7.13-1.98,3.34-2.53,7.25-1.56,11.01.97,3.76,3.34,6.92,6.68,8.89,24.91,14.73,51.52,22.52,76.94,22.52,12.51,0,24.72-1.86,36.3-5.53,23.67-7.51,39.31-24.82,53.1-40.09,9.21-10.2,17.92-19.83,28.33-26.4,3.62-2.29,7.94-3.49,12.48-3.49,5.93,0,11.8,2.04,16.53,5.74l.28.19.73.51.49.31.72.4.6.29.66.29.69.26.6.19.76.21.6.13.77.13.63.07.74.06h1.36l.77-.06.6-.07.8-.14.57-.12.78-.21.59-.19.72-.27.63-.28.61-.3.7-.4.51-.32.71-.5.26-.18c4.76-3.72,10.63-5.75,16.55-5.75,4.55,0,8.86,1.21,12.48,3.49,10.4,6.56,19.1,16.19,28.31,26.37,13.82,15.3,29.45,32.61,53.12,40.11,11.58,3.67,23.79,5.53,36.3,5.53,25.43,0,52.04-7.78,76.94-22.52,3.34-1.97,5.71-5.13,6.68-8.89.97-3.76.41-7.67-1.57-11.01-2.6-4.4-7.4-7.13-12.52-7.13-2.59,0-5.14.7-7.38,2.02-20.41,12.07-41.92,18.46-62.18,18.46-9.53,0-18.78-1.4-27.49-4.16-16.17-5.13-27.36-17.52-40.33-31.87-10.14-11.22-20.6-22.8-34.38-31.49-8.29-5.23-17.96-8-27.98-8-8.31,0-16.69,1.94-24.26,5.61h-2.47c-7.56-3.67-15.95-5.61-24.25-5.61-10.01,0-19.69,2.77-27.98,8-13.78,8.7-24.24,20.28-34.36,31.48-12.98,14.37-24.18,26.76-40.34,31.88-8.71,2.76-17.96,4.16-27.5,4.16-20.26,0-41.76-6.38-62.18-18.46-2.24-1.33-4.79-2.02-7.37-2.02"/>
        <path class="cls-3" d="M237.92,244.36c-1.57,0-2.83-1.27-2.83-2.83V93.78c0-1.57,1.27-2.83,2.83-2.83s2.83,1.27,2.83,2.83v147.74c0,1.57-1.27,2.83-2.83,2.83"/>
        <path class="cls-3" d="M237.92,345.45c-1.57,0-2.83-1.27-2.83-2.83v-67.71c0-1.56,1.27-2.83,2.83-2.83s2.83,1.27,2.83,2.83v67.71c0,1.56-1.27,2.83-2.83,2.83"/>
        <path class="cls-3" d="M376.07,96.35c-1.5-1.5-3.94-1.5-5.44,0-1.5,1.51-1.5,3.94,0,5.44,1.51,1.5,3.94,1.5,5.44,0,1.5-1.5,1.5-3.94,0-5.44"/>
        <path class="cls-3" d="M364.95,92.92c-1.18-1.18-3.09-1.18-4.27,0-1.18,1.18-1.17,3.09,0,4.27,1.18,1.18,3.09,1.18,4.27,0,1.18-1.18,1.17-3.09,0-4.27"/>
        <rect class="cls-3" x="352.58" y="88.5" width="3.06" height="3.07"/>
        <rect class="cls-3" x="346.34" y="84.35" width="2.25" height="2.25"/>
        <rect class="cls-3" x="341.68" y="80.33" width="1.76" height="1.76" transform="translate(-.17 .72)"/>
        <rect class="cls-3" x="337.91" y="76.01" width="1.39" height="1.39"/>
        <path class="cls-3" d="M141.15,77.02c-2.12.15-3.72,1.99-3.56,4.11.15,2.12,1.99,3.72,4.11,3.56,2.12-.15,3.72-1.99,3.56-4.11-.15-2.12-1.99-3.72-4.11-3.56"/>
        <path class="cls-3" d="M131.27,84.71c-1.66.12-2.91,1.56-2.8,3.22.12,1.66,1.56,2.91,3.22,2.79,1.66-.12,2.91-1.56,2.8-3.22-.12-1.66-1.56-2.91-3.22-2.79"/>
        <path class="cls-3" d="M121.83,89.86c-1.19.08-2.09,1.12-2.01,2.32.09,1.19,1.12,2.09,2.32,2.01,1.19-.09,2.09-1.12,2.01-2.32-.09-1.19-1.12-2.09-2.32-2.01"/>
        <rect class="cls-3" x="113.06" y="93.06" width="2.25" height="2.25" transform="translate(-31.81 118.61) rotate(-49.01)"/>
        <rect class="cls-3" x="106.86" y="94.71" width="1.76" height="1.76" transform="translate(-35.05 114.47) rotate(-49.11)"/>
        <rect class="cls-3" x="101.05" y="95.35" width="1.39" height="1.39" transform="translate(-37.47 109.99) rotate(-49.07)"/>
        <path class="cls-3" d="M450.92,80.2c-2.11-.22-4.01,1.31-4.23,3.42-.22,2.11,1.31,4.01,3.42,4.23,2.11.22,4.01-1.31,4.23-3.42.22-2.11-1.3-4.01-3.42-4.23"/>
        <path class="cls-3" d="M440.23,85.77c-1.66-.17-3.14,1.03-3.32,2.68-.18,1.66,1.02,3.14,2.68,3.32,1.66.18,3.14-1.02,3.32-2.68.17-1.66-1.03-3.14-2.68-3.32"/>
        <path class="cls-3" d="M432.27,88.78c-1.19-.12-2.26.74-2.38,1.93-.13,1.19.74,2.26,1.93,2.38,1.19.13,2.26-.74,2.38-1.93.12-1.19-.74-2.26-1.93-2.38"/>
        <rect class="cls-3" x="424.32" y="91.98" width="2.25" height="2.25" transform="translate(36.24 288.54) rotate(-39.01)"/>
        <rect class="cls-3" x="418.5" y="93.82" width="1.76" height="1.76" transform="translate(33.73 284.77) rotate(-38.96)"/>
        <rect class="cls-3" x="412.89" y="95.22" width="1.39" height="1.39" transform="translate(31.56 281.14) rotate(-38.92)"/>
        <path class="cls-3" d="M25.72,80.94c2.03.62,3.18,2.77,2.56,4.8-.62,2.03-2.77,3.18-4.8,2.56-2.03-.62-3.18-2.77-2.56-4.8.62-2.03,2.77-3.18,4.8-2.56"/>
        <path class="cls-3" d="M35.18,88.3c1.59.49,2.49,2.17,2.01,3.77-.49,1.59-2.17,2.49-3.77,2.01-1.59-.49-2.49-2.17-2.01-3.77.49-1.59,2.17-2.49,3.76-2.01"/>
        <path class="cls-3" d="M44.31,93.28c1.14.35,1.79,1.56,1.44,2.7-.35,1.15-1.56,1.79-2.71,1.44-1.15-.35-1.79-1.56-1.44-2.71.35-1.14,1.56-1.79,2.71-1.44"/>
        <rect class="cls-3" x="49.69" y="97.35" width="2.25" height="2.25" transform="translate(-40.34 35.45) rotate(-28.04)"/>
        <rect class="cls-3" x="55.61" y="99.94" width="1.76" height="1.76" transform="translate(-40.81 38.46) rotate(-28.08)"/>
        <rect class="cls-3" x="61.57" y="101.49" width="1.39" height="1.39" transform="translate(-40.76 41.32) rotate(-28.07)"/>
        <path class="cls-3" d="M101.31,105.2c-7.35,0-12.22-1-12.78-1.12-1.53-.33-2.5-1.84-2.17-3.37.33-1.53,1.83-2.5,3.36-2.17.37.08,37.44,7.55,65.12-22.17,1.07-1.15,2.86-1.21,4-.14,1.14,1.07,1.21,2.86.14,4-19.75,21.21-43.4,24.96-57.68,24.96"/>
        <path class="cls-3" d="M405.63,104.58c-10.18,0-16.55-1.31-17.18-1.45-1.53-.33-2.5-1.84-2.17-3.37.33-1.53,1.84-2.5,3.36-2.17.37.08,36.8,7.49,77.68-14.98,1.37-.75,3.09-.25,3.85,1.12.75,1.37.25,3.09-1.12,3.85-25.63,14.09-49.25,17-64.42,17"/>
        <path class="cls-3" d="M174.93,47.05l-1.51-.43c-1.33-.83-1.72-2.58-.89-3.91,24.06-38.26,58.75-31.02,59.09-30.95,1.53.34,2.49,1.86,2.15,3.38-.34,1.53-1.85,2.48-3.38,2.15-1.28-.28-31.21-6.33-53.06,28.43-.54.86-1.46,1.33-2.4,1.33"/>
        <path class="cls-3" d="M319.63,47.3c-.93,0-1.83-.45-2.37-1.28-22.62-34.48-53.29-27.48-53.6-27.4-1.51.37-3.05-.56-3.42-2.08-.37-1.52.56-3.05,2.08-3.42.35-.09,34.88-8,59.67,29.79.86,1.31.49,3.07-.81,3.93l-1.55.46Z"/>
        <path class="cls-3" d="M130.77,471.77c-1.14,0-2.22-.7-2.65-1.83-.56-1.46.18-3.1,1.64-3.66l112.94-42.91c1.46-.56,3.1.18,3.66,1.64.56,1.46-.18,3.1-1.64,3.66l-112.94,42.91-1.01.19Z"/>
        <path class="cls-3" d="M205.92,454.56c-1.14,0-2.22-.7-2.65-1.83-.56-1.46.18-3.1,1.64-3.65l37.8-14.36c1.46-.55,3.1.18,3.65,1.64.56,1.46-.18,3.1-1.64,3.65l-37.79,14.36-1.01.19Z"/>
        <path class="cls-3" d="M364.29,474.14h-81.61c-1.56,0-2.83-1.27-2.83-2.83s1.27-2.83,2.83-2.83h81.61c1.56,0,2.83,1.27,2.83,2.83s-1.27,2.83-2.83,2.83"/>
        <path class="cls-3" d="M483.95,78.08l-1.13-1.13c0-1.76-.69-4.6-1.27-5.77-1.2-2.45-3.11-4.48-5.55-5.84l-.43-1.54,1.54-.43c2.83,1.59,5.07,3.95,6.47,6.82.71,1.45,1.5,4.58,1.5,6.77l-1.13,1.13Z"/>
        <path class="cls-3" d="M480.04,81.63l-1.13-1.13c0-2.16-.83-5.52-1.53-6.96-1.44-2.96-3.76-5.4-6.69-7.05l-.43-1.55,1.55-.43c3.33,1.88,5.96,4.65,7.61,8.03.83,1.71,1.76,5.39,1.76,7.96l-1.13,1.13Z"/>
        <path class="cls-3" d="M409.2,70.96c-7.52,0-21-2.45-29.24-6.06-1.43-.63-2.09-2.3-1.46-3.73.63-1.43,2.31-2.09,3.73-1.46,7.89,3.46,21.52,5.83,27.95,5.56,13.15-.54,25.77-5.1,36.49-13.17,1.25-.94,3.03-.69,3.97.56.94,1.25.69,3.03-.56,3.97-11.64,8.76-25.36,13.71-39.67,14.3l-1.22.02Z"/>
        <path class="cls-3" d="M410.08,60.79c-4.87,0-13.42-1.52-18.89-3.92-1.43-.63-2.09-2.3-1.46-3.73.63-1.43,2.31-2.09,3.73-1.46,4.86,2.13,13.23,3.6,17.2,3.43,8.1-.33,15.87-3.14,22.48-8.11,1.25-.94,3.03-.69,3.97.56.94,1.25.69,3.03-.56,3.97-7.53,5.67-16.4,8.86-25.65,9.25h-.82Z"/>
        <path class="cls-3" d="M414.94,355.75c-8.77,0-24.48-2.86-34.09-7.07-1.43-.63-2.09-2.3-1.46-3.73.63-1.43,2.31-2.09,3.73-1.46,9.31,4.08,25.37,6.89,33,6.57,15.53-.64,30.42-6.01,43.08-15.54,1.25-.94,3.03-.69,3.97.56.94,1.25.69,3.02-.56,3.97-13.58,10.22-29.58,15.99-46.26,16.68l-1.42.03Z"/>
        <path class="cls-3" d="M416,343.82c-5.66,0-15.79-1.84-21.99-4.55-1.43-.63-2.09-2.3-1.46-3.73s2.3-2.08,3.73-1.46c5.76,2.53,15.66,4.28,20.39,4.06,9.6-.4,18.81-3.72,26.64-9.61,1.25-.94,3.03-.69,3.97.56.94,1.25.69,3.03-.56,3.97-8.75,6.59-19.06,10.31-29.82,10.75l-.91.02Z"/>
        <path class="cls-3" d="M95.22,70.96c-7.52,0-21-2.45-29.24-6.06-1.43-.63-2.09-2.3-1.46-3.73.63-1.43,2.31-2.09,3.73-1.46,7.89,3.46,21.54,5.83,27.95,5.56,13.16-.54,25.77-5.1,36.5-13.17,1.25-.94,3.03-.69,3.97.56.94,1.25.69,3.03-.56,3.97-11.64,8.76-25.36,13.71-39.67,14.3l-1.22.02Z"/>
        <path class="cls-3" d="M96.1,60.79c-4.87,0-13.42-1.52-18.89-3.92-1.43-.63-2.09-2.3-1.46-3.73.63-1.43,2.31-2.09,3.73-1.46,4.86,2.13,13.23,3.6,17.2,3.43,8.1-.33,15.87-3.14,22.48-8.11,1.25-.94,3.03-.69,3.97.56.94,1.25.69,3.03-.56,3.97-7.53,5.67-16.4,8.86-25.65,9.25h-.82Z"/>
        <path class="cls-3" d="M248.03,38.67l-1.54-.07c-1.61-.16-4.69-1.13-6.55-2.28l-.37-1.56,1.56-.37c1.5.92,4.28,1.82,5.58,1.95,2.72.26,5.45-.3,7.89-1.65l1.54.44-.44,1.54c-2.38,1.32-5.01,2-7.67,2"/>
        <path class="cls-3" d="M248.49,33.9l-1.8-.09c-1.89-.18-5.52-1.33-7.7-2.68l-.37-1.56,1.56-.37c1.84,1.13,5.13,2.19,6.73,2.35,3.28.33,6.57-.36,9.51-1.99l1.54.44-.44,1.54c-2.81,1.56-5.89,2.36-9.02,2.36"/>
        <path class="cls-3" d="M248.07,57.2l-2.32-.11c-2.5-.24-7.42-1.8-10.25-3.53l-.37-1.56,1.56-.38c2.53,1.55,7.06,2.99,9.27,3.2,4.51.43,9.03-.54,13.07-2.79l1.54.44-.44,1.54c-3.75,2.09-7.88,3.17-12.07,3.17"/>
        <path class="cls-3" d="M247.64,62.79l-1.56-.06c-2.24-.16-6.65-1.45-9.2-2.93l-.41-1.55,1.55-.41c2.26,1.31,6.28,2.49,8.23,2.63,3.98.28,7.94-.66,11.45-2.72l1.55.4-.4,1.56c-3.45,2.03-7.29,3.08-11.2,3.08"/>
        <path class="cls-3" d="M247.68,68.2l-1.27-.05c-1.82-.13-5.34-1.14-7.48-2.38l-.41-1.55,1.55-.41c1.79,1.04,4.97,1.97,6.51,2.09,3.16.23,6.28-.52,9.06-2.15l1.55.4-.4,1.55c-2.8,1.65-5.92,2.51-9.1,2.51"/>
        <path class="cls-3" d="M12.29,77.65h-.09s-1.04-1.22-1.04-1.22c.26-3.24,1.47-6.26,3.48-8.74,1.02-1.25,3.53-3.28,5.52-4.19l1.5.55-.55,1.5c-1.6.74-3.88,2.56-4.71,3.57-1.72,2.12-2.76,4.71-2.98,7.49l-1.13,1.04Z"/>
        <path class="cls-3" d="M15.56,81.99h-.09s-1.04-1.22-1.04-1.22c.3-3.81,1.72-7.36,4.1-10.28,1.2-1.47,4.16-3.86,6.49-4.94l1.5.56-.56,1.5c-1.96.9-4.66,3.06-5.68,4.31-2.08,2.56-3.32,5.68-3.59,9.03l-1.13,1.04Z"/>
        <path class="cls-3" d="M497.07,303.73h-172.5c-.98,0-1.88-.51-2.4-1.33l-.14-2.75,91.81-187.8c.49-1,1.47-1.64,2.62-1.59,1.11.03,2.1.7,2.53,1.71l80.69,187.81-.24,2.67c-.52.8-1.41,1.28-2.36,1.28M329.1,298.06h163.66l-76.55-178.18-87.11,178.18Z"/>
        <path class="cls-3" d="M410.87,365.15c-22.52,0-44.02-6.52-60.55-18.35-16.62-11.91-26.78-28.11-28.58-45.61l.72-2.19,2.1-.93h172.62l2.11.93.71,2.19c-1.8,17.51-11.95,33.71-28.58,45.61-16.53,11.83-38.03,18.35-60.55,18.35M327.81,303.73c5.31,31.51,41.03,55.76,83.07,55.76s77.75-24.25,83.07-55.76h-166.13Z"/>
        <path class="cls-3" d="M416.38,303.73c-1.56,0-2.83-1.27-2.83-2.83V113.09c0-1.56,1.27-2.83,2.83-2.83s2.83,1.27,2.83,2.83v187.8c0,1.57-1.27,2.83-2.83,2.83"/>
        <path class="cls-3" d="M470.45,287.15c-1.49-3.31-.02-7.19,3.28-8.69,3.3-1.49,7.2-.02,8.69,3.28,1.49,3.3.02,7.19-3.28,8.69-3.31,1.49-7.19.02-8.69-3.28"/>
        <path class="cls-3" d="M465.09,270.78c-1.17-2.59-.02-5.64,2.57-6.81,2.59-1.17,5.64-.02,6.81,2.58,1.17,2.59.02,5.64-2.57,6.81-2.59,1.17-5.64.02-6.81-2.57"/>
        <path class="cls-3" d="M460.18,257.45c-.84-1.86-.01-4.06,1.85-4.9,1.86-.84,4.06-.01,4.9,1.85.84,1.86.01,4.06-1.85,4.9-1.86.84-4.05.01-4.9-1.85"/>
        <path class="cls-3" d="M455.47,247.02c-.62-1.37,0-2.98,1.36-3.6,1.37-.62,2.98,0,3.6,1.36.62,1.37,0,2.98-1.36,3.6-1.37.62-2.98,0-3.6-1.36"/>
        <path class="cls-3" d="M401.68,186.73c-1.48,3.31-5.36,4.79-8.67,3.32-3.31-1.48-4.79-5.37-3.32-8.68,1.48-3.31,5.36-4.79,8.67-3.32,3.31,1.48,4.8,5.36,3.32,8.68"/>
        <path class="cls-3" d="M393,201.61c-1.16,2.6-4.21,3.76-6.8,2.6-2.6-1.16-3.76-4.21-2.6-6.81,1.16-2.6,4.21-3.76,6.8-2.6,2.6,1.16,3.76,4.21,2.6,6.81"/>
        <path class="cls-3" d="M386.3,214.12c-.83,1.87-3.02,2.7-4.89,1.87-1.87-.83-2.7-3.02-1.87-4.89.83-1.87,3.02-2.7,4.89-1.87,1.87.84,2.7,3.03,1.87,4.89"/>
        <path class="cls-3" d="M381.63,224.57c-.61,1.37-2.22,1.99-3.59,1.38-1.37-.61-1.99-2.22-1.37-3.59.61-1.37,2.22-1.99,3.59-1.37,1.37.62,1.99,2.22,1.38,3.59"/>
        <path class="cls-3" d="M464.63,315.49h-137.46c-1.57,0-2.83-1.27-2.83-2.83s1.27-2.83,2.83-2.83h137.46c1.56,0,2.83,1.27,2.83,2.83s-1.27,2.83-2.83,2.83"/>
        <path class="cls-3" d="M405.33,291.29c-1.56,0-2.83-1.27-2.83-2.83v-60.42c0-1.56,1.27-2.83,2.83-2.83s2.83,1.27,2.83,2.83v60.42c0,1.57-1.27,2.83-2.83,2.83"/>
        <path class="cls-3" d="M344.55,292.58l-1.2-.27c-1.42-.67-2.03-2.35-1.36-3.77l24.11-51.29c.66-1.42,2.36-2.03,3.77-1.36,1.42.67,2.03,2.35,1.36,3.77l-24.11,51.29c-.48,1.03-1.5,1.63-2.57,1.63"/>
        <path class="cls-3" d="M93.19,355.75c-8.77,0-24.48-2.86-34.09-7.07-1.43-.63-2.09-2.3-1.46-3.73.63-1.43,2.31-2.09,3.73-1.46,9.31,4.08,25.35,6.89,33,6.57,15.53-.64,30.43-6.01,43.08-15.54,1.25-.94,3.03-.69,3.97.56.94,1.25.69,3.02-.56,3.97-13.58,10.22-29.58,15.99-46.26,16.68l-1.42.03Z"/>
        <path class="cls-3" d="M94.25,343.82c-5.66,0-15.8-1.84-21.99-4.55-1.43-.63-2.09-2.3-1.46-3.73.63-1.43,2.3-2.08,3.73-1.46,5.76,2.53,15.69,4.28,20.39,4.06,9.6-.4,18.82-3.72,26.64-9.61,1.25-.94,3.03-.69,3.97.56.94,1.25.69,3.03-.56,3.97-8.75,6.59-19.06,10.31-29.82,10.75l-.91.02Z"/>
        <path class="cls-3" d="M175.32,303.73H2.82c-.98,0-1.89-.51-2.4-1.33l-.14-2.75L92.09,111.84c.49-1,1.49-1.64,2.61-1.59,1.11.03,2.1.7,2.53,1.71l80.69,187.81-.24,2.67c-.52.8-1.41,1.28-2.37,1.28M7.36,298.06h163.66L94.47,119.88,7.36,298.06Z"/>
        <path class="cls-3" d="M89.13,365.15c-22.52,0-44.02-6.52-60.55-18.35C11.95,334.89,1.8,318.69,0,301.18l.71-2.19,2.1-.93h172.62l2.11.93.72,2.19c-1.8,17.51-11.96,33.71-28.58,45.61-16.53,11.83-38.03,18.35-60.55,18.35M6.06,303.73c5.31,31.51,41.03,55.76,83.07,55.76s77.76-24.25,83.06-55.76H6.06Z"/>
        <path class="cls-3" d="M94.63,303.73c-1.56,0-2.83-1.27-2.83-2.83V113.09c0-1.56,1.27-2.83,2.83-2.83s2.83,1.27,2.83,2.83v187.8c0,1.57-1.27,2.83-2.83,2.83"/>
        <path class="cls-3" d="M148.7,287.15c-1.49-3.31-.02-7.19,3.28-8.69,3.31-1.49,7.19-.02,8.68,3.28,1.5,3.3.03,7.19-3.28,8.69-3.31,1.49-7.19.02-8.69-3.28"/>
        <path class="cls-3" d="M143.34,270.78c-1.17-2.59-.02-5.64,2.57-6.81,2.6-1.17,5.65-.02,6.81,2.58,1.17,2.59.02,5.64-2.57,6.81-2.59,1.17-5.64.02-6.81-2.57"/>
        <path class="cls-3" d="M138.44,257.45c-.84-1.86-.01-4.06,1.85-4.9,1.86-.84,4.06-.01,4.9,1.85.84,1.86.01,4.06-1.85,4.9-1.86.84-4.06.01-4.9-1.85"/>
        <path class="cls-3" d="M133.73,247.02c-.62-1.37,0-2.98,1.36-3.6,1.37-.62,2.98,0,3.6,1.36.62,1.37,0,2.98-1.36,3.6-1.37.62-2.98,0-3.6-1.36"/>
        <path class="cls-3" d="M79.93,186.73c-1.48,3.31-5.36,4.79-8.67,3.32-3.31-1.48-4.8-5.37-3.32-8.68,1.48-3.31,5.36-4.79,8.67-3.32,3.31,1.48,4.79,5.36,3.32,8.68"/>
        <path class="cls-3" d="M71.26,201.61c-1.16,2.6-4.21,3.76-6.8,2.6-2.6-1.16-3.76-4.21-2.6-6.81,1.16-2.6,4.21-3.76,6.8-2.6,2.6,1.16,3.76,4.21,2.6,6.81"/>
        <path class="cls-3" d="M64.55,214.12c-.83,1.87-3.02,2.7-4.89,1.87-1.87-.83-2.7-3.02-1.87-4.89.83-1.87,3.02-2.7,4.89-1.87,1.87.84,2.7,3.03,1.87,4.89"/>
        <path class="cls-3" d="M59.88,224.57c-.61,1.37-2.22,1.99-3.59,1.38-1.37-.61-1.99-2.22-1.37-3.59.61-1.37,2.22-1.99,3.59-1.37,1.37.62,1.98,2.22,1.37,3.59"/>
        <path class="cls-3" d="M142.89,315.49H5.42c-1.56,0-2.83-1.27-2.83-2.83s1.27-2.83,2.83-2.83h137.47c1.57,0,2.83,1.27,2.83,2.83s-1.27,2.83-2.83,2.83"/>
        <path class="cls-3" d="M83.58,291.29c-1.56,0-2.83-1.27-2.83-2.83v-60.42c0-1.56,1.27-2.83,2.83-2.83s2.83,1.27,2.83,2.83v60.42c0,1.57-1.27,2.83-2.83,2.83"/>
        <path class="cls-3" d="M22.81,292.58l-1.2-.27c-1.41-.67-2.02-2.35-1.36-3.77l24.11-51.29c.66-1.42,2.35-2.03,3.77-1.36,1.41.67,2.02,2.35,1.36,3.77l-24.11,51.29c-.48,1.03-1.5,1.63-2.57,1.63"/>
      </g>
    </g>
  </g>
</svg>