<?xml version="1.0" encoding="UTF-8"?>
<svg id="Layer_1" xmlns="http://www.w3.org/2000/svg" version="1.1" viewBox="0 0 360.06 283.56">
  <!-- Generator: Adobe Illustrator 30.5.1, SVG Export Plug-In . SVG Version: 2.1.4 Build 3)  -->
  <defs>
    <style>
      .st0 {
        fill: #f1d380;
      }
    </style>
  </defs>
  <path class="st0" d="M357.34,213.44h-4.9c1-1.09,1.62-2.54,1.62-4.14,0-3.04-2.24-5.57-5.15-6.04.67-.54,1.09-1.36,1.09-2.29,0-1.51-1.14-2.75-2.6-2.92.51-.53.83-1.25.83-2.05,0-1.51-1.14-2.75-2.6-2.92.51-.53.83-1.25.83-2.05,0-1.51-1.14-2.75-2.6-2.92.51-.53.83-1.25.83-2.05,0-1.51-1.14-2.75-2.6-2.92.51-.53.83-1.25.83-2.05,0-1.51-1.14-2.75-2.6-2.92.51-.53.83-1.25.83-2.05,0-1.51-1.14-2.75-2.6-2.92.51-.53.83-1.25.83-2.05,0-1.51-1.14-2.75-2.6-2.92.51-.53.83-1.25.83-2.05,0-1.51-1.14-2.75-2.6-2.92.51-.53.83-1.25.83-2.05,0-1.51-1.14-2.75-2.6-2.92.51-.53.83-1.25.83-2.05,0-1.51-1.14-2.75-2.6-2.92.51-.53.83-1.25.83-2.05,0-1.51-1.14-2.75-2.6-2.92.51-.53.83-1.25.83-2.05,0-1.51-1.14-2.75-2.6-2.92.51-.53.83-1.25.83-2.05,0-1.51-1.14-2.75-2.6-2.92.51-.53.83-1.25.83-2.05,0-1.51-1.14-2.75-2.6-2.92.51-.53.83-1.25.83-2.05,0-1.51-1.14-2.75-2.6-2.92.51-.53.83-1.25.83-2.05,0-1.51-1.14-2.75-2.6-2.92.51-.53.83-1.25.83-2.05,0-1.51-1.14-2.75-2.6-2.92.51-.53.83-1.25.83-2.05,0-1.51-1.14-2.75-2.6-2.92.51-.53.83-1.25.83-2.05,0-1.51-1.14-2.75-2.6-2.92.51-.53.83-1.25.83-2.05,0-1.51-1.14-2.75-2.6-2.92.51-.53.83-1.25.83-2.05,0-1.51-1.14-2.75-2.6-2.92.51-.53.83-1.25.83-2.05,0-1.51-1.14-2.75-2.6-2.92.51-.53.83-1.25.83-2.05,0-1.51-1.14-2.75-2.6-2.92.51-.53.83-1.25.83-2.05,0-1.51-1.14-2.75-2.6-2.92.51-.53.83-1.25.83-2.05,0-1.51-1.14-2.75-2.6-2.92.51-.53.83-1.25.83-2.05,0-1.62-1.32-2.94-2.94-2.94-.21,0-.42.02-.62.07.54-.91.86-1.98.86-3.11,0-2.02-.99-3.81-2.51-4.93,1.66-.59,3.1-1.61,4.19-2.92,2.91-3.51,3.09-9.07,1.55-13.22-3.66-9.91-15.66-12.38-24.53-8.63-2.18.92-4.62,2.11-6.48,3.58.16-.92.45-2.88-.52-5.14-1.75-4.04-6.08-5.62-10.22-4.85-.64.12-1.27.31-1.87.58-.45.2-.81.45-1.2.73-.57.42-1.47,1.04-1.61,1.24-.04.06,1.84,2.77,1.99,3.15.68,1.65,1.28,4,1.1,5.61-.78,7.09-6.99,11.68-13.67,14.06-13.48,4.81-30.45.18-39.91-10.51-1.2-1.36-2.17-2.8-2.17-2.8-.22-.33-.41-.63-.58-.9,1.29-.21,4.57-.92,6.61-3.67,3.3-4.46,1.22-11.39-2.38-14.83-4.43-4.24-12.53-4.52-19.1.17v-1.79c0-3.42-2.77-6.18-6.18-6.18h-.14v-8.22c1.63-1.19,2.66-2.88,2.66-4.76,0-3.6-3.73-6.51-8.32-6.51s-8.32,2.91-8.32,6.51c0,1.88,1.03,3.57,2.66,4.76v8.22h-.14c-1.81,0-3.44.79-4.57,2.03-4.64-4.73-11.07-6.26-15.91-4.08-4.54,2.05-8.82,7.88-7.19,13.19,1,3.27,3.86,5.04,5.01,5.67-.25.2-.53.42-.85.66,0,0-1.39,1.03-2.98,1.92-12.48,6.92-30.03,5.62-41.13-3.42-5.5-4.48-9.82-10.88-8.19-17.82.37-1.58,1.72-3.59,2.91-4.92.27-.3,2.95-2.23,2.93-2.3-.07-.24-.7-1.12-1.1-1.7-.27-.4-.53-.76-.89-1.09-.48-.45-1.01-.84-1.57-1.17-3.65-2.1-8.25-2.07-11.25,1.16-1.68,1.81-2.05,3.75-2.21,4.67-1.27-2-3.16-3.93-4.91-5.53-7.11-6.5-19.25-8.18-26.01-.06-2.83,3.4-4.53,8.7-2.95,12.98.87,2.38,2.69,4.42,5.2,5.5-1.65,1.1-2.74,2.97-2.74,5.1,0,1.14.32,2.2.86,3.11-.2-.04-.41-.07-.62-.07-1.62,0-2.94,1.32-2.94,2.94,0,.8.32,1.52.83,2.05-1.47.17-2.6,1.41-2.6,2.92,0,.8.32,1.52.83,2.05-1.47.17-2.6,1.41-2.6,2.92,0,.8.32,1.52.83,2.05-1.47.17-2.6,1.41-2.6,2.92,0,.8.32,1.52.83,2.05-1.47.17-2.6,1.41-2.6,2.92,0,.8.32,1.52.83,2.05-1.47.17-2.6,1.41-2.6,2.92,0,.8.32,1.52.83,2.05-1.47.17-2.6,1.41-2.6,2.92,0,.8.32,1.52.83,2.05-1.46.17-2.6,1.41-2.6,2.92,0,.8.32,1.52.83,2.05-1.47.17-2.6,1.41-2.6,2.92,0,.8.32,1.52.83,2.05-1.47.17-2.6,1.41-2.6,2.92,0,.8.32,1.52.83,2.05-1.47.17-2.6,1.41-2.6,2.92,0,.8.32,1.52.83,2.05-1.47.17-2.6,1.41-2.6,2.92,0,.8.32,1.52.83,2.05-1.47.17-2.6,1.41-2.6,2.92,0,.8.32,1.52.83,2.05-1.47.17-2.6,1.41-2.6,2.92,0,.8.32,1.52.83,2.05-1.47.17-2.6,1.41-2.6,2.92,0,.8.32,1.52.83,2.05-1.47.17-2.6,1.41-2.6,2.92,0,.8.32,1.52.83,2.05-1.47.17-2.6,1.41-2.6,2.92,0,.8.32,1.52.83,2.05-1.47.17-2.6,1.41-2.6,2.92,0,.8.32,1.52.83,2.05-1.47.17-2.6,1.41-2.6,2.92,0,.8.32,1.52.83,2.05-1.47.17-2.6,1.41-2.6,2.92,0,.8.32,1.52.83,2.05-1.47.17-2.6,1.41-2.6,2.92,0,.8.32,1.52.83,2.05-1.47.17-2.6,1.41-2.6,2.92,0,.8.32,1.52.83,2.05-1.47.17-2.6,1.41-2.6,2.92,0,.8.32,1.52.83,2.05-1.47.17-2.6,1.41-2.6,2.92,0,.8.32,1.52.83,2.05-1.47.17-2.6,1.41-2.6,2.92,0,.8.32,1.52.83,2.05-1.47.17-2.6,1.41-2.6,2.92,0,.92.43,1.75,1.09,2.29-2.92.47-5.15,2.99-5.15,6.04,0,1.6.62,3.05,1.62,4.14h-3.59c-1.72,0-2.96,1.65-2.47,3.3,3.87,12.99,30.27,23.05,62.26,23.05s58.39-10.05,62.26-23.05c.49-1.65-.75-3.3-2.47-3.3h-4.9c1-1.09,1.62-2.54,1.62-4.14,0-3.04-2.24-5.57-5.15-6.04.67-.54,1.09-1.36,1.09-2.29,0-1.51-1.14-2.75-2.6-2.92.51-.53.83-1.25.83-2.05,0-1.51-1.14-2.75-2.6-2.92.51-.53.83-1.25.83-2.05,0-1.51-1.14-2.75-2.6-2.92.51-.53.83-1.25.83-2.05,0-1.51-1.14-2.75-2.6-2.92.51-.53.83-1.25.83-2.05,0-1.51-1.14-2.75-2.6-2.92.51-.53.83-1.25.83-2.05,0-1.51-1.14-2.75-2.6-2.92.51-.53.83-1.25.83-2.05,0-1.51-1.14-2.75-2.6-2.92.51-.53.83-1.25.83-2.05,0-1.51-1.14-2.75-2.6-2.92.51-.53.83-1.25.83-2.05,0-1.51-1.14-2.75-2.6-2.92.51-.53.83-1.25.83-2.05,0-1.51-1.14-2.75-2.6-2.92.51-.53.83-1.25.83-2.05,0-1.51-1.14-2.75-2.6-2.92.51-.53.83-1.25.83-2.05,0-1.51-1.14-2.75-2.6-2.92.51-.53.83-1.25.83-2.05,0-1.51-1.14-2.75-2.6-2.92.51-.53.83-1.25.83-2.05,0-1.51-1.14-2.75-2.6-2.92.51-.53.83-1.25.83-2.05,0-1.51-1.14-2.75-2.6-2.92.51-.53.83-1.25.83-2.05,0-1.51-1.14-2.75-2.6-2.92.51-.53.83-1.25.83-2.05,0-1.51-1.14-2.75-2.6-2.92.51-.53.83-1.25.83-2.05,0-1.51-1.14-2.75-2.6-2.92.51-.53.83-1.25.83-2.05,0-1.51-1.14-2.75-2.6-2.92.51-.53.83-1.25.83-2.05,0-1.51-1.14-2.75-2.6-2.92.51-.53.83-1.25.83-2.05,0-1.51-1.14-2.75-2.6-2.92.51-.53.83-1.25.83-2.05,0-1.51-1.14-2.75-2.6-2.92.51-.53.83-1.25.83-2.05,0-1.51-1.14-2.75-2.6-2.92.51-.53.83-1.25.83-2.05,0-1.51-1.14-2.75-2.6-2.92.51-.53.83-1.25.83-2.05,0-1.51-1.14-2.75-2.6-2.92.51-.53.83-1.25.83-2.05,0-1.62-1.32-2.94-2.94-2.94-.21,0-.42.02-.62.07.54-.91.86-1.98.86-3.11,0-1.87-.84-3.54-2.17-4.66,2.2-.61,3.75-1.91,5.02-3.83,2.61-3.95.9-9.18,0-9.41,1.83.47,4.88,2.34,8.66,6.22,4.9,5.62,9.08,13.58,14.14,19.12,8.67,9.48,19.7,12.7,24.17,14,4.42,1.29,13.32,3.77,24.49,1.71,12.57-2.33,21.21-9.16,25.67-13.48v3.55c0,3.42,2.77,6.18,6.18,6.18h-.59v186.04h-2.26c-3.41,0-6.18,2.76-6.18,6.18v13.08c-1.06,0-1.92.88-1.92,1.95v2.87h-1.81c-2.9,0-5.25,2.35-5.25,5.25v9.8h-37.94c-2.9,0-5.26,2.35-5.26,5.26v3.45h133.73v-3.45c0-2.9-2.35-5.26-5.26-5.26h-38.58v-9.8c0-2.9-2.35-5.25-5.25-5.25h-1.17v-2.87c0-1.07-.86-1.93-1.92-1.95v-13.08c0-3.41-2.76-6.18-6.18-6.18h-1.97V49.67h-.59c2.47,0,4.59-1.45,5.58-3.54,3.15,5.59,8.82,13.33,18.42,18.88,9.84,5.68,19.06,6.31,23.65,6.57,4.65.26,16.12.91,27.46-5.13,6.63-3.53,13.23-9.64,19.72-13.3,4.86-2.39,8.36-3.14,10.24-2.97-.94-.08-4.29,4.28-3.15,8.87.78,3.11,2.46,5.27,6.08,6.62-1.66,1.1-2.75,2.97-2.75,5.1,0,1.14.32,2.2.86,3.11-.2-.04-.41-.07-.62-.07-1.62,0-2.94,1.32-2.94,2.94,0,.8.32,1.52.83,2.05-1.47.17-2.6,1.41-2.6,2.92,0,.8.32,1.52.83,2.05-1.47.17-2.6,1.41-2.6,2.92,0,.8.32,1.52.83,2.05-1.47.17-2.6,1.41-2.6,2.92,0,.8.32,1.52.83,2.05-1.46.17-2.6,1.41-2.6,2.92,0,.8.32,1.52.83,2.05-1.47.17-2.6,1.41-2.6,2.92,0,.8.32,1.52.83,2.05-1.47.17-2.6,1.41-2.6,2.92,0,.8.32,1.52.83,2.05-1.46.17-2.6,1.41-2.6,2.92,0,.8.32,1.52.83,2.05-1.47.17-2.6,1.41-2.6,2.92,0,.8.32,1.52.83,2.05-1.47.17-2.6,1.41-2.6,2.92,0,.8.32,1.52.83,2.05-1.46.17-2.6,1.41-2.6,2.92,0,.8.32,1.52.83,2.05-1.47.17-2.6,1.41-2.6,2.92,0,.8.32,1.52.83,2.05-1.47.17-2.6,1.41-2.6,2.92,0,.8.32,1.52.83,2.05-1.46.17-2.6,1.41-2.6,2.92,0,.8.32,1.52.83,2.05-1.46.17-2.6,1.41-2.6,2.92,0,.8.32,1.52.83,2.05-1.47.17-2.6,1.41-2.6,2.92,0,.8.32,1.52.83,2.05-1.47.17-2.6,1.41-2.6,2.92,0,.8.32,1.52.83,2.05-1.47.17-2.6,1.41-2.6,2.92,0,.8.32,1.52.83,2.05-1.47.17-2.6,1.41-2.6,2.92,0,.8.32,1.52.83,2.05-1.46.17-2.6,1.41-2.6,2.92,0,.8.32,1.52.83,2.05-1.46.17-2.6,1.41-2.6,2.92,0,.8.32,1.52.83,2.05-1.47.17-2.6,1.41-2.6,2.92,0,.8.32,1.52.83,2.05-1.47.17-2.6,1.41-2.6,2.92,0,.8.32,1.52.83,2.05-1.46.17-2.6,1.41-2.6,2.92,0,.8.32,1.52.83,2.05-1.47.17-2.6,1.41-2.6,2.92,0,.8.32,1.52.83,2.05-1.46.17-2.6,1.41-2.6,2.92,0,.92.43,1.75,1.09,2.29-2.92.47-5.15,2.99-5.15,6.04,0,1.6.62,3.05,1.62,4.14h-3.59c-1.72,0-2.96,1.65-2.47,3.3,3.87,12.99,30.27,23.05,62.26,23.05s58.39-10.05,62.26-23.05c.49-1.65-.75-3.3-2.47-3.3l-.14-.03ZM181.07,2.19c.96-.96,2.99-.04,3.83.66,1.21,1,2.48,3.73,1.02,5.05-.75.68-1.37.26-1.86-.45-.5-.73-.88-1.36-1.6-1.92-.76-.58-1.67-1.26-1.74-2.3-.03-.43.11-.79.35-1.04ZM174.93,11.65h9.58v1.69h-9.58s0-1.69,0-1.69ZM67.18,39.18c-.51.53-.83,1.25-.83,2.05,0,1.51,1.14,2.75,2.6,2.92-.51.53-.83,1.25-.83,2.05,0,1.51,1.14,2.75,2.6,2.92-.51.53-.83,1.25-.83,2.05,0,1.51,1.14,2.75,2.6,2.92-.51.53-.83,1.25-.83,2.05,0,1.51,1.14,2.75,2.6,2.92-.51.53-.83,1.25-.83,2.05,0,1.51,1.14,2.75,2.6,2.92-.51.53-.83,1.25-.83,2.05,0,1.51,1.14,2.75,2.6,2.92-.51.53-.83,1.25-.83,2.05,0,1.51,1.14,2.75,2.6,2.92-.51.53-.83,1.25-.83,2.05,0,1.51,1.14,2.75,2.6,2.92-.51.53-.83,1.25-.83,2.05,0,1.51,1.14,2.75,2.6,2.92-.51.53-.83,1.25-.83,2.05,0,1.51,1.14,2.75,2.6,2.92-.51.53-.83,1.25-.83,2.05,0,1.51,1.14,2.75,2.6,2.92-.51.53-.83,1.25-.83,2.05,0,1.51,1.14,2.75,2.6,2.92-.51.53-.83,1.25-.83,2.05,0,1.51,1.14,2.75,2.6,2.92-.51.53-.83,1.25-.83,2.05,0,1.51,1.14,2.75,2.6,2.92-.51.53-.83,1.25-.83,2.05,0,1.51,1.14,2.75,2.6,2.92-.51.53-.83,1.25-.83,2.05,0,1.51,1.14,2.75,2.6,2.92-.51.53-.83,1.25-.83,2.05,0,1.51,1.14,2.75,2.6,2.92-.51.53-.83,1.25-.83,2.05,0,1.51,1.14,2.75,2.6,2.92-.51.53-.83,1.25-.83,2.05,0,1.51,1.14,2.75,2.6,2.92-.51.53-.83,1.25-.83,2.05,0,1.51,1.14,2.75,2.6,2.92-.51.53-.83,1.25-.83,2.05,0,1.51,1.14,2.75,2.6,2.92-.51.53-.83,1.25-.83,2.05,0,1.51,1.14,2.75,2.6,2.92-.51.53-.83,1.25-.83,2.05,0,1.51,1.14,2.75,2.6,2.92-.51.53-.83,1.25-.83,2.05,0,1.51,1.14,2.75,2.6,2.92-.51.53-.83,1.25-.83,2.05,0,1.15.66,2.14,1.61,2.62-2.29.89-3.91,3.11-3.91,5.7,0,1.6.62,3.05,1.62,4.14h-42.05c1-1.09,1.62-2.54,1.62-4.14,0-2.8-1.9-5.17-4.47-5.89.78-.53,1.29-1.42,1.29-2.44s-.53-1.93-1.32-2.46c.8-.53,1.32-1.43,1.32-2.46s-.53-1.93-1.32-2.46c.8-.53,1.32-1.43,1.32-2.46s-.53-1.93-1.32-2.46c.8-.53,1.32-1.43,1.32-2.46s-.53-1.93-1.32-2.46c.8-.53,1.32-1.43,1.32-2.46s-.53-1.93-1.32-2.46c.8-.53,1.32-1.43,1.32-2.46s-.53-1.93-1.32-2.46c.8-.53,1.32-1.43,1.32-2.46s-.53-1.93-1.32-2.46c.8-.53,1.32-1.43,1.32-2.46s-.53-1.93-1.32-2.46c.8-.53,1.32-1.43,1.32-2.46s-.53-1.93-1.32-2.46c.8-.53,1.32-1.43,1.32-2.46s-.53-1.93-1.32-2.46c.8-.53,1.32-1.43,1.32-2.46s-.53-1.93-1.32-2.46c.8-.53,1.32-1.43,1.32-2.46s-.53-1.93-1.32-2.46c.8-.53,1.32-1.43,1.32-2.46s-.53-1.93-1.32-2.46c.8-.53,1.32-1.43,1.32-2.46s-.53-1.93-1.32-2.46c.8-.53,1.32-1.43,1.32-2.46s-.53-1.93-1.32-2.46c.8-.53,1.32-1.43,1.32-2.46s-.53-1.93-1.32-2.46c.8-.53,1.32-1.43,1.32-2.46s-.53-1.93-1.32-2.46c.8-.53,1.32-1.43,1.32-2.46s-.53-1.93-1.32-2.46c.8-.53,1.32-1.43,1.32-2.46s-.53-1.93-1.32-2.46c.8-.53,1.32-1.43,1.32-2.46s-.53-1.93-1.32-2.46c.8-.53,1.32-1.43,1.32-2.46s-.53-1.93-1.32-2.46c.8-.53,1.32-1.43,1.32-2.46s-.53-1.93-1.32-2.46c.8-.53,1.32-1.43,1.32-2.46s-.53-1.93-1.32-2.46c.8-.53,1.32-1.43,1.32-2.46s-.53-1.93-1.32-2.46c.8-.53,1.32-1.43,1.32-2.46s-.53-1.93-1.32-2.46c.8-.53,1.32-1.43,1.32-2.46,0-.67-.22-1.28-.6-1.77.23-.1.46-.21.68-.34-.05.22-.08.44-.08.67,0,1.51,1.14,2.75,2.6,2.92l.04.2ZM60.43,172.93c-1.79-.52-3.11-2.18-3.11-4.14,0-2.38,1.93-4.31,4.31-4.31s4.31,1.93,4.31,4.31c0,1.96-1.32,3.62-3.11,4.14,0,0-2.4,0-2.4,0ZM61.01,36.36c.21.02.41.03.62.03s.42,0,.62-.03c.5.24.85.74.85,1.34,0,.82-.66,1.48-1.48,1.48s-1.48-.66-1.48-1.48c0-.59.35-1.1.85-1.34h.02ZM61.63,41.13c.82,0,1.48.66,1.48,1.48s-.66,1.48-1.48,1.48-1.48-.66-1.48-1.48.66-1.48,1.48-1.48ZM61.63,46.04c.82,0,1.48.66,1.48,1.48s-.66,1.48-1.48,1.48-1.48-.66-1.48-1.48.66-1.48,1.48-1.48ZM61.63,50.95c.82,0,1.48.66,1.48,1.48s-.66,1.48-1.48,1.48-1.48-.66-1.48-1.48.66-1.48,1.48-1.48ZM61.63,55.86c.82,0,1.48.66,1.48,1.48s-.66,1.48-1.48,1.48-1.48-.66-1.48-1.48.66-1.48,1.48-1.48ZM61.63,60.77c.82,0,1.48.66,1.48,1.48s-.66,1.48-1.48,1.48-1.48-.66-1.48-1.48.66-1.48,1.48-1.48ZM61.63,65.68c.82,0,1.48.66,1.48,1.48s-.66,1.48-1.48,1.48-1.48-.66-1.48-1.48.66-1.48,1.48-1.48ZM61.63,70.59c.82,0,1.48.66,1.48,1.48s-.66,1.48-1.48,1.48-1.48-.66-1.48-1.48.66-1.48,1.48-1.48ZM61.63,75.5c.82,0,1.48.66,1.48,1.48s-.66,1.48-1.48,1.48-1.48-.66-1.48-1.48.66-1.48,1.48-1.48ZM61.63,80.41c.82,0,1.48.66,1.48,1.48s-.66,1.48-1.48,1.48-1.48-.66-1.48-1.48.66-1.48,1.48-1.48ZM61.63,85.32c.82,0,1.48.66,1.48,1.48s-.66,1.48-1.48,1.48-1.48-.66-1.48-1.48.66-1.48,1.48-1.48ZM61.63,90.24c.82,0,1.48.66,1.48,1.48s-.66,1.48-1.48,1.48-1.48-.66-1.48-1.48.66-1.48,1.48-1.48ZM61.63,95.15c.82,0,1.48.66,1.48,1.48s-.66,1.48-1.48,1.48-1.48-.66-1.48-1.48.66-1.48,1.48-1.48ZM61.63,100.06c.82,0,1.48.66,1.48,1.48s-.66,1.48-1.48,1.48-1.48-.66-1.48-1.48.66-1.48,1.48-1.48ZM61.63,104.97c.82,0,1.48.66,1.48,1.48s-.66,1.48-1.48,1.48-1.48-.66-1.48-1.48.66-1.48,1.48-1.48ZM61.63,109.88c.82,0,1.48.66,1.48,1.48s-.66,1.48-1.48,1.48-1.48-.66-1.48-1.48.66-1.48,1.48-1.48ZM61.63,114.79c.82,0,1.48.66,1.48,1.48s-.66,1.48-1.48,1.48-1.48-.66-1.48-1.48.66-1.48,1.48-1.48ZM61.63,119.7c.82,0,1.48.66,1.48,1.48s-.66,1.48-1.48,1.48-1.48-.66-1.48-1.48.66-1.48,1.48-1.48ZM61.63,124.61c.82,0,1.48.66,1.48,1.48s-.66,1.48-1.48,1.48-1.48-.66-1.48-1.48.66-1.48,1.48-1.48ZM61.63,129.52c.82,0,1.48.66,1.48,1.48s-.66,1.48-1.48,1.48-1.48-.66-1.48-1.48.66-1.48,1.48-1.48ZM61.63,134.43c.82,0,1.48.66,1.48,1.48s-.66,1.48-1.48,1.48-1.48-.66-1.48-1.48.66-1.48,1.48-1.48ZM61.63,139.35c.82,0,1.48.66,1.48,1.48s-.66,1.48-1.48,1.48-1.48-.66-1.48-1.48.66-1.48,1.48-1.48ZM61.63,144.26c.82,0,1.48.66,1.48,1.48s-.66,1.48-1.48,1.48-1.48-.66-1.48-1.48.66-1.48,1.48-1.48ZM61.63,149.17c.82,0,1.48.66,1.48,1.48s-.66,1.48-1.48,1.48-1.48-.66-1.48-1.48.66-1.48,1.48-1.48ZM61.63,154.08c.82,0,1.48.66,1.48,1.48s-.66,1.48-1.48,1.48-1.48-.66-1.48-1.48.66-1.48,1.48-1.48ZM61.63,158.99c.82,0,1.48.66,1.48,1.48s-.66,1.48-1.48,1.48-1.48-.66-1.48-1.48.66-1.48,1.48-1.48ZM60.02,40.15c-.8.53-1.32,1.43-1.32,2.46s.53,1.93,1.32,2.46c-.8.53-1.32,1.43-1.32,2.46s.53,1.93,1.32,2.46c-.8.53-1.32,1.43-1.32,2.46s.53,1.93,1.32,2.46c-.8.53-1.32,1.43-1.32,2.46s.53,1.93,1.32,2.46c-.8.53-1.32,1.43-1.32,2.46s.53,1.93,1.32,2.46c-.8.53-1.32,1.43-1.32,2.46s.53,1.93,1.32,2.46c-.8.53-1.32,1.43-1.32,2.46s.53,1.93,1.32,2.46c-.8.53-1.32,1.43-1.32,2.46s.53,1.93,1.32,2.46c-.8.53-1.32,1.43-1.32,2.46s.53,1.93,1.32,2.46c-.8.53-1.32,1.43-1.32,2.46s.53,1.93,1.32,2.46c-.8.53-1.32,1.43-1.32,2.46s.53,1.93,1.32,2.46c-.8.53-1.32,1.43-1.32,2.46s.53,1.93,1.32,2.46c-.8.53-1.32,1.43-1.32,2.46s.53,1.93,1.32,2.46c-.8.53-1.32,1.43-1.32,2.46s.53,1.93,1.32,2.46c-.8.53-1.32,1.43-1.32,2.46s.53,1.93,1.32,2.46c-.8.53-1.32,1.43-1.32,2.46s.53,1.93,1.32,2.46c-.8.53-1.32,1.43-1.32,2.46s.53,1.93,1.32,2.46c-.8.53-1.32,1.43-1.32,2.46s.53,1.93,1.32,2.46c-.8.53-1.32,1.43-1.32,2.46s.53,1.93,1.32,2.46c-.8.53-1.32,1.43-1.32,2.46s.53,1.93,1.32,2.46c-.8.53-1.32,1.43-1.32,2.46s.53,1.93,1.32,2.46c-.8.53-1.32,1.43-1.32,2.46s.53,1.93,1.32,2.46c-.8.53-1.32,1.43-1.32,2.46s.53,1.93,1.32,2.46c-.8.53-1.32,1.43-1.32,2.46s.53,1.93,1.32,2.46c-.8.53-1.32,1.43-1.32,2.46s.51,1.91,1.29,2.44c-2.58.72-4.47,3.09-4.47,5.89,0,1.6.62,3.05,1.62,4.14H15.09c1-1.09,1.62-2.54,1.62-4.14,0-2.6-1.63-4.81-3.91-5.7.96-.49,1.61-1.48,1.61-2.62,0-.8-.32-1.52-.83-2.05,1.47-.17,2.6-1.41,2.6-2.92,0-.8-.32-1.52-.83-2.05,1.47-.17,2.6-1.41,2.6-2.92,0-.8-.32-1.52-.83-2.05,1.47-.17,2.6-1.41,2.6-2.92,0-.8-.32-1.52-.83-2.05,1.46-.17,2.6-1.41,2.6-2.92,0-.8-.32-1.52-.83-2.05,1.47-.17,2.6-1.41,2.6-2.92,0-.8-.32-1.52-.83-2.05,1.47-.17,2.6-1.41,2.6-2.92,0-.8-.32-1.52-.83-2.05,1.46-.17,2.6-1.41,2.6-2.92,0-.8-.32-1.52-.83-2.05,1.47-.17,2.6-1.41,2.6-2.92,0-.8-.32-1.52-.83-2.05,1.47-.17,2.6-1.41,2.6-2.92,0-.8-.32-1.52-.83-2.05,1.47-.17,2.6-1.41,2.6-2.92,0-.8-.32-1.52-.83-2.05,1.47-.17,2.6-1.41,2.6-2.92,0-.8-.32-1.52-.83-2.05,1.47-.17,2.6-1.41,2.6-2.92,0-.8-.32-1.52-.83-2.05,1.47-.17,2.6-1.41,2.6-2.92,0-.8-.32-1.52-.83-2.05,1.47-.17,2.6-1.41,2.6-2.92,0-.8-.32-1.52-.83-2.05,1.47-.17,2.6-1.41,2.6-2.92,0-.8-.32-1.52-.83-2.05,1.47-.17,2.6-1.41,2.6-2.92,0-.8-.32-1.52-.83-2.05,1.47-.17,2.6-1.41,2.6-2.92,0-.8-.32-1.52-.83-2.05,1.47-.17,2.6-1.41,2.6-2.92,0-.8-.32-1.52-.83-2.05,1.47-.17,2.6-1.41,2.6-2.92,0-.8-.32-1.52-.83-2.05,1.47-.17,2.6-1.41,2.6-2.92,0-.8-.32-1.52-.83-2.05,1.47-.17,2.6-1.41,2.6-2.92,0-.8-.32-1.52-.83-2.05,1.46-.17,2.6-1.41,2.6-2.92,0-.8-.32-1.52-.83-2.05,1.47-.17,2.6-1.41,2.6-2.92,0-.8-.32-1.52-.83-2.05,1.47-.17,2.6-1.41,2.6-2.92,0-.8-.32-1.52-.83-2.05,1.47-.17,2.6-1.41,2.6-2.92,0-.23-.03-.46-.08-.67.22.12.44.24.68.34-.37.49-.6,1.11-.6,1.77,0,1.03.53,1.93,1.32,2.46l.04-.2ZM55.75,34.78c.82,0,1.48.66,1.48,1.48s-.66,1.48-1.48,1.48-1.48-.66-1.48-1.48.66-1.48,1.48-1.48ZM53.98,39.75c.82,0,1.48.66,1.48,1.48s-.66,1.48-1.48,1.48-1.48-.66-1.48-1.48.66-1.48,1.48-1.48ZM52.21,44.71c.82,0,1.48.66,1.48,1.48s-.66,1.48-1.48,1.48-1.48-.66-1.48-1.48.66-1.48,1.48-1.48ZM50.44,49.68c.82,0,1.48.66,1.48,1.48s-.66,1.48-1.48,1.48-1.48-.66-1.48-1.48.66-1.48,1.48-1.48ZM48.67,54.65c.82,0,1.48.66,1.48,1.48s-.66,1.48-1.48,1.48-1.48-.66-1.48-1.48.66-1.48,1.48-1.48ZM46.89,59.62c.82,0,1.48.66,1.48,1.48s-.66,1.48-1.48,1.48-1.48-.66-1.48-1.48.66-1.48,1.48-1.48ZM45.12,64.59c.82,0,1.48.66,1.48,1.48s-.66,1.48-1.48,1.48-1.48-.66-1.48-1.48.66-1.48,1.48-1.48ZM43.35,69.56c.82,0,1.48.66,1.48,1.48s-.66,1.48-1.48,1.48-1.48-.66-1.48-1.48.66-1.48,1.48-1.48ZM41.58,74.52c.82,0,1.48.66,1.48,1.48s-.66,1.48-1.48,1.48-1.48-.66-1.48-1.48.66-1.48,1.48-1.48ZM39.81,79.49c.82,0,1.48.66,1.48,1.48s-.66,1.48-1.48,1.48-1.48-.66-1.48-1.48.66-1.48,1.48-1.48ZM38.04,84.46c.82,0,1.48.66,1.48,1.48s-.66,1.48-1.48,1.48-1.48-.66-1.48-1.48.66-1.48,1.48-1.48ZM36.27,89.43c.82,0,1.48.66,1.48,1.48s-.66,1.48-1.48,1.48-1.48-.66-1.48-1.48.66-1.48,1.48-1.48ZM34.5,94.4c.82,0,1.48.66,1.48,1.48s-.66,1.48-1.48,1.48-1.48-.66-1.48-1.48.66-1.48,1.48-1.48ZM32.72,99.37c.82,0,1.48.66,1.48,1.48s-.66,1.48-1.48,1.48-1.48-.66-1.48-1.48.66-1.48,1.48-1.48ZM30.95,104.34c.82,0,1.48.66,1.48,1.48s-.66,1.48-1.48,1.48-1.48-.66-1.48-1.48.66-1.48,1.48-1.48ZM29.18,109.3c.82,0,1.48.66,1.48,1.48s-.66,1.48-1.48,1.48-1.48-.66-1.48-1.48.66-1.48,1.48-1.48ZM27.41,114.27c.82,0,1.48.66,1.48,1.48s-.66,1.48-1.48,1.48-1.48-.66-1.48-1.48.66-1.48,1.48-1.48ZM25.64,119.24c.82,0,1.48.66,1.48,1.48s-.66,1.48-1.48,1.48-1.48-.66-1.48-1.48.66-1.48,1.48-1.48ZM23.87,124.21c.82,0,1.48.66,1.48,1.48s-.66,1.48-1.48,1.48-1.48-.66-1.48-1.48.66-1.48,1.48-1.48ZM22.1,129.18c.82,0,1.48.66,1.48,1.48s-.66,1.48-1.48,1.48-1.48-.66-1.48-1.48.66-1.48,1.48-1.48ZM20.33,134.15c.82,0,1.48.66,1.48,1.48s-.66,1.48-1.48,1.48-1.48-.66-1.48-1.48.66-1.48,1.48-1.48ZM18.55,139.12c.82,0,1.48.66,1.48,1.48s-.66,1.48-1.48,1.48-1.48-.66-1.48-1.48.66-1.48,1.48-1.48ZM16.78,144.08c.82,0,1.48.66,1.48,1.48s-.66,1.48-1.48,1.48-1.48-.66-1.48-1.48.66-1.48,1.48-1.48ZM15.01,149.05c.82,0,1.48.66,1.48,1.48s-.66,1.48-1.48,1.48-1.48-.66-1.48-1.48.66-1.48,1.48-1.48ZM13.24,154.02c.82,0,1.48.66,1.48,1.48s-.66,1.48-1.48,1.48-1.48-.66-1.48-1.48.66-1.48,1.48-1.48ZM11.47,158.99c.82,0,1.48.66,1.48,1.48s-.66,1.48-1.48,1.48-1.48-.66-1.48-1.48.66-1.48,1.48-1.48ZM6.28,168.79c0-2.38,1.93-4.31,4.31-4.31s4.31,1.93,4.31,4.31c0,1.96-1.32,3.62-3.11,4.14h-2.4c-1.79-.52-3.11-2.18-3.11-4.14ZM116.99,168.79c0,1.96-1.32,3.62-3.11,4.14h-2.4c-1.79-.52-3.11-2.18-3.11-4.14,0-2.38,1.93-4.31,4.31-4.31s4.31,1.93,4.31,4.31ZM113.28,160.47c0,.82-.66,1.48-1.48,1.48s-1.48-.66-1.48-1.48.66-1.48,1.48-1.48,1.48.66,1.48,1.48ZM111.51,155.5c0,.82-.66,1.48-1.48,1.48s-1.48-.66-1.48-1.48.66-1.48,1.48-1.48,1.48.66,1.48,1.48ZM109.74,150.53c0,.82-.66,1.48-1.48,1.48s-1.48-.66-1.48-1.48.66-1.48,1.48-1.48,1.48.66,1.48,1.48ZM107.97,145.56c0,.82-.66,1.48-1.48,1.48s-1.48-.66-1.48-1.48.66-1.48,1.48-1.48,1.48.66,1.48,1.48ZM106.19,140.6c0,.82-.66,1.48-1.48,1.48s-1.48-.66-1.48-1.48.66-1.48,1.48-1.48,1.48.66,1.48,1.48ZM104.42,135.63c0,.82-.66,1.48-1.48,1.48s-1.48-.66-1.48-1.48.66-1.48,1.48-1.48,1.48.66,1.48,1.48ZM102.65,130.66c0,.82-.66,1.48-1.48,1.48s-1.48-.66-1.48-1.48.66-1.48,1.48-1.48,1.48.66,1.48,1.48ZM100.88,125.69c0,.82-.66,1.48-1.48,1.48s-1.48-.66-1.48-1.48.66-1.48,1.48-1.48,1.48.66,1.48,1.48ZM99.11,120.72c0,.82-.66,1.48-1.48,1.48s-1.48-.66-1.48-1.48.66-1.48,1.48-1.48,1.48.66,1.48,1.48ZM97.34,115.75c0,.82-.66,1.48-1.48,1.48s-1.48-.66-1.48-1.48.66-1.48,1.48-1.48,1.48.66,1.48,1.48ZM95.57,110.78c0,.82-.66,1.48-1.48,1.48s-1.48-.66-1.48-1.48.66-1.48,1.48-1.48,1.48.66,1.48,1.48ZM93.8,105.82c0,.82-.66,1.48-1.48,1.48s-1.48-.66-1.48-1.48.66-1.48,1.48-1.48,1.48.66,1.48,1.48ZM92.02,100.85c0,.82-.66,1.48-1.48,1.48s-1.48-.66-1.48-1.48.66-1.48,1.48-1.48,1.48.66,1.48,1.48ZM90.25,95.88c0,.82-.66,1.48-1.48,1.48s-1.48-.66-1.48-1.48.66-1.48,1.48-1.48,1.48.66,1.48,1.48ZM88.48,90.91c0,.82-.66,1.48-1.48,1.48s-1.48-.66-1.48-1.48.66-1.48,1.48-1.48,1.48.66,1.48,1.48ZM86.71,85.94c0,.82-.66,1.48-1.48,1.48s-1.48-.66-1.48-1.48.66-1.48,1.48-1.48,1.48.66,1.48,1.48ZM84.94,80.97c0,.82-.66,1.48-1.48,1.48s-1.48-.66-1.48-1.48.66-1.48,1.48-1.48,1.48.66,1.48,1.48ZM83.17,76c0,.82-.66,1.48-1.48,1.48s-1.48-.66-1.48-1.48.66-1.48,1.48-1.48,1.48.66,1.48,1.48ZM81.4,71.04c0,.82-.66,1.48-1.48,1.48s-1.48-.66-1.48-1.48.66-1.48,1.48-1.48,1.48.66,1.48,1.48ZM79.63,66.07c0,.82-.66,1.48-1.48,1.48s-1.48-.66-1.48-1.48.66-1.48,1.48-1.48,1.48.66,1.48,1.48ZM77.85,61.1c0,.82-.66,1.48-1.48,1.48s-1.48-.66-1.48-1.48.66-1.48,1.48-1.48,1.48.66,1.48,1.48ZM76.08,56.13c0,.82-.66,1.48-1.48,1.48s-1.48-.66-1.48-1.48.66-1.48,1.48-1.48,1.48.66,1.48,1.48ZM74.31,51.16c0,.82-.66,1.48-1.48,1.48s-1.48-.66-1.48-1.48.66-1.48,1.48-1.48,1.48.66,1.48,1.48ZM72.54,46.19c0,.82-.66,1.48-1.48,1.48s-1.48-.66-1.48-1.48.66-1.48,1.48-1.48,1.48.66,1.48,1.48ZM70.77,41.22c0,.82-.66,1.48-1.48,1.48s-1.48-.66-1.48-1.48.66-1.48,1.48-1.48,1.48.66,1.48,1.48ZM69,36.26c0,.82-.66,1.48-1.48,1.48s-1.48-.66-1.48-1.48.66-1.48,1.48-1.48,1.48.66,1.48,1.48ZM61.63,34.58c-2.38,0-4.31-1.93-4.31-4.31s1.9-4.27,4.25-4.31c.19.01.37.02.56.03,2.14.25,3.82,2.07,3.82,4.28,0,2.38-1.93,4.31-4.31,4.31h0ZM69.24,4.64c-3.54.38-7.04,1.69-9.4,4.52-1.09,1.3-1.66,2.88-1.92,4.53-.42,2.68,1.12,6.59,4.12,6.88,2.15.21,4.47-2.01,3.86-4.21-.31-1.13-1.3-2.09-2.48-1.67.19.06.38.29.52.45.13.14.19.34.19.53.01.74-.5,1.51-1.26,1.64-.67.11-1.38-.26-1.72-.84-.38-.66-.45-1.56-.11-2.25.71-1.42,2.72-2.09,4.21-1.52.71.28,1.31.8,1.75,1.43,1.15,1.61,1.22,3.9.25,5.62-.97,1.72-2.91,2.84-4.89,2.88-2.33.05-4.7-1.41-5.85-3.42-.98-1.71-1.35-3.69-1.04-5.64,0-.04,0-.08.02-.11.64-3.81,3.52-7.32,7.05-8.84,1.87-.81,3.92-1.22,5.96-1.21,1,0,2.04.08,3.01.28.53.1,1.04.25,1.54.45.26.11.85.33,1.37.76-1.6-.26-3.55-.46-5.17-.28v.02ZM112.82,42.76c-1.59-.53-4.23-1.12-8.85-4.4-.2-.14-.36-.26-.46-.33-1.95-1.42-5.53-4.28-9.13-9.02-.59-.78-2.74-4.67-3.54-5.85-1.35-2.01-2.45-3.55-3.43-4.86-.91-1.22-2.3-2.89-4.08-4.64.02-.02.45.08,1.3.69,1.95,1.42,3.47,2.57,3.47,2.57,1.15,1.01,1.67,1.35,1.67,1.35,0-.14,0-.34.02-.58,0,0,.04-.65.18-1.34.21-1.06.73-2.42.87-2.72,1.9-4.05,7.07-6.87,10.94-3.53-.53-.08-3.92-.56-6.34,1.71-1.97,1.84-2.09,4.36-2.17,5.78-.05,1.03-.09,4.35,3.27,9.63,3.41,5.36,7.55,8.38,10.26,10.32,2.27,1.62,6.63,4.48,12.68,6.31.97.29,1.53.42,1.52.44,0,0-5.28-.56-8.17-1.54h-.01ZM164.42,37.45c-2.76,4.13-7.24,7.18-7.24,7.18-5.18,3.42-10.36,5.07-10.5,4.78-.11-.24,3-1.79,7.99-5.08,3.64-2.4,5.72-4.18,7.5-7.19.85-1.43,2.44-4.21,1.97-7.65-.14-1-.39-2.85-1.91-4.16-1.6-1.38-4.37-1.89-6.3-.56-.99.68-1.63,1.93-1.4,3.11.41-.9,1.7-1.17,2.53-.64s1.16,1.66.91,2.62c-.4,1.55-2.16,2.54-3.74,2.26-1.58-.28-2.84-1.66-3.19-3.22s.13-3.24,1.08-4.53c1.13-1.53,2.9-2.56,4.77-2.89.36-.06,4.31-.78,7.19,1.9,3.78,3.52,2.97,10.16.35,14.08h-.01ZM200.21,265.58h0v8.33h-3.43v-8.29h-.03c0-2.51-2.1-4.55-4.7-4.55h3.46c2.58,0,4.67,2.01,4.7,4.5h0ZM183.57,51.03h1.18v183.33h-1.18V51.03ZM182.22,234.36h-1.82V51.03h1.82v183.33ZM175.87,234.36h-1.18V51.03h1.18v183.33ZM177.23,51.03h1.82v183.33h-1.82V51.03ZM186.7,236.42c3.04,0,5.51,2.47,5.51,5.51v13.04h-4.45v-13.04c0-3.04-2.47-5.51-5.51-5.51h4.45ZM206.53,59.69c-.23.23-4.57-3.05-8.31-8.01,0,0-3.21-4.36-4.43-9.18-1.16-4.58.29-11.1,5.03-13.16,3.61-1.57,7.09.43,7.41.61,1.66.94,2.98,2.49,3.54,4.32.47,1.53.36,3.28-.49,4.64s-2.5,2.23-4.08,1.97-2.91-1.79-2.77-3.38c.09-.98.77-1.94,1.73-2.17.96-.23,2.09.46,2.18,1.45.62-1.03.42-2.42-.28-3.4-1.37-1.9-4.16-2.34-6.13-1.58-1.87.73-2.73,2.39-3.19,3.29-1.6,3.08-1.02,6.24-.7,7.87.67,3.43,2.04,5.81,4.67,9.29,3.6,4.76,6.02,7.26,5.83,7.45h0ZM272.77,50.16c-1.36.91-2.9,1.99-4.85,3.44-1.14.85-4.47,3.8-5.29,4.34-4.97,3.27-9.31,4.77-11.62,5.45-.12.04-.31.09-.54.16-5.46,1.55-8.15,1.22-9.82,1.19-3.05-.05-8.21-1.28-8.21-1.28,0-.02.57.04,1.58.09,6.31.29,11.38-.94,14.06-1.72,3.19-.92,8.11-2.39,13.11-6.3,4.93-3.85,6-6.99,6.3-7.99.41-1.37,1.13-3.78-.11-6.17-1.53-2.95-4.88-3.63-5.41-3.73,4.76-1.86,8.69,2.53,9.13,6.98.03.33.06,1.78-.09,2.85-.1.7-.28,1.32-.28,1.32-.06.23-.13.42-.17.55,0,0,.6-.15,2.02-.72,0,0,1.81-.57,4.13-1.26,1-.3,1.44-.25,1.45-.22-2.26,1.05-4.12,2.16-5.39,3.01h0ZM352.25,209.3c0,1.96-1.32,3.62-3.11,4.14h-2.4c-1.79-.52-3.11-2.18-3.11-4.14,0-2.38,1.93-4.31,4.31-4.31s4.31,1.93,4.31,4.31h0ZM295.7,213.44c-1.79-.52-3.11-2.18-3.11-4.14,0-2.38,1.93-4.31,4.31-4.31s4.31,1.93,4.31,4.31c0,1.96-1.32,3.62-3.11,4.14h-2.4ZM248.06,203.6c.96-.49,1.61-1.48,1.61-2.62,0-.8-.32-1.52-.83-2.05,1.47-.17,2.6-1.41,2.6-2.92,0-.8-.32-1.52-.83-2.05,1.47-.17,2.6-1.41,2.6-2.92,0-.8-.32-1.52-.83-2.05,1.47-.17,2.6-1.41,2.6-2.92,0-.8-.32-1.52-.83-2.05,1.47-.17,2.6-1.41,2.6-2.92,0-.8-.32-1.52-.83-2.05,1.47-.17,2.6-1.41,2.6-2.92,0-.8-.32-1.52-.83-2.05,1.47-.17,2.6-1.41,2.6-2.92,0-.8-.32-1.52-.83-2.05,1.47-.17,2.6-1.41,2.6-2.92,0-.8-.32-1.52-.83-2.05,1.47-.17,2.6-1.41,2.6-2.92,0-.8-.32-1.52-.83-2.05,1.47-.17,2.6-1.41,2.6-2.92,0-.8-.32-1.52-.83-2.05,1.47-.17,2.6-1.41,2.6-2.92,0-.8-.32-1.52-.83-2.05,1.47-.17,2.6-1.41,2.6-2.92,0-.8-.32-1.52-.83-2.05,1.47-.17,2.6-1.41,2.6-2.92,0-.8-.32-1.52-.83-2.05,1.47-.17,2.6-1.41,2.6-2.92,0-.8-.32-1.52-.83-2.05,1.47-.17,2.6-1.41,2.6-2.92,0-.8-.32-1.52-.83-2.05,1.47-.17,2.6-1.41,2.6-2.92,0-.8-.32-1.52-.83-2.05,1.47-.17,2.6-1.41,2.6-2.92,0-.8-.32-1.52-.83-2.05,1.47-.17,2.6-1.41,2.6-2.92,0-.8-.32-1.52-.83-2.05,1.47-.17,2.6-1.41,2.6-2.92,0-.8-.32-1.52-.83-2.05,1.46-.17,2.6-1.41,2.6-2.92,0-.8-.32-1.52-.83-2.05,1.47-.17,2.6-1.41,2.6-2.92,0-.8-.32-1.52-.83-2.05,1.47-.17,2.6-1.41,2.6-2.92,0-.8-.32-1.52-.83-2.05,1.47-.17,2.6-1.41,2.6-2.92,0-.8-.32-1.52-.83-2.05,1.47-.17,2.6-1.41,2.6-2.92,0-.8-.32-1.52-.83-2.05,1.47-.17,2.6-1.41,2.6-2.92,0-.8-.32-1.52-.83-2.05,1.47-.17,2.6-1.41,2.6-2.92,0-.23-.03-.46-.08-.67.22.12.44.24.68.34-.37.49-.6,1.11-.6,1.77,0,1.03.53,1.93,1.32,2.46-.8.53-1.32,1.43-1.32,2.46s.53,1.93,1.32,2.46c-.8.53-1.32,1.43-1.32,2.46s.53,1.93,1.32,2.46c-.8.53-1.32,1.43-1.32,2.46s.53,1.93,1.32,2.46c-.8.53-1.32,1.43-1.32,2.46s.53,1.93,1.32,2.46c-.8.53-1.32,1.43-1.32,2.46s.53,1.93,1.32,2.46c-.8.53-1.32,1.43-1.32,2.46s.53,1.93,1.32,2.46c-.8.53-1.32,1.43-1.32,2.46s.53,1.93,1.32,2.46c-.8.53-1.32,1.43-1.32,2.46s.53,1.93,1.32,2.46c-.8.53-1.32,1.43-1.32,2.46s.53,1.93,1.32,2.46c-.8.53-1.32,1.43-1.32,2.46s.53,1.93,1.32,2.46c-.8.53-1.32,1.43-1.32,2.46s.53,1.93,1.32,2.46c-.8.53-1.32,1.43-1.32,2.46s.53,1.93,1.32,2.46c-.8.53-1.32,1.43-1.32,2.46s.53,1.93,1.32,2.46c-.8.53-1.32,1.43-1.32,2.46s.53,1.93,1.32,2.46c-.8.53-1.32,1.43-1.32,2.46s.53,1.93,1.32,2.46c-.8.53-1.32,1.43-1.32,2.46s.53,1.93,1.32,2.46c-.8.53-1.32,1.43-1.32,2.46s.53,1.93,1.32,2.46c-.8.53-1.32,1.43-1.32,2.46s.53,1.93,1.32,2.46c-.8.53-1.32,1.43-1.32,2.46s.53,1.93,1.32,2.46c-.8.53-1.32,1.43-1.32,2.46s.53,1.93,1.32,2.46c-.8.53-1.32,1.43-1.32,2.46s.53,1.93,1.32,2.46c-.8.53-1.32,1.43-1.32,2.46s.53,1.93,1.32,2.46c-.8.53-1.32,1.43-1.32,2.46s.53,1.93,1.32,2.46c-.8.53-1.32,1.43-1.32,2.46s.53,1.93,1.32,2.46c-.8.53-1.32,1.43-1.32,2.46s.51,1.91,1.29,2.44c-2.58.72-4.47,3.09-4.47,5.89,0,1.6.62,3.05,1.62,4.14h-42.05c1-1.09,1.62-2.54,1.62-4.14,0-2.6-1.63-4.81-3.91-5.7l.04-.2ZM298.38,78.2c0,.82-.66,1.48-1.48,1.48s-1.48-.66-1.48-1.48c0-.59.35-1.1.86-1.34.21.02.41.03.62.03s.42-.01.62-.03c.5.24.86.74.86,1.34h0ZM296.9,202.46c-.82,0-1.48-.66-1.48-1.48s.66-1.48,1.48-1.48,1.48.66,1.48,1.48-.66,1.48-1.48,1.48ZM296.9,197.55c-.82,0-1.48-.66-1.48-1.48s.66-1.48,1.48-1.48,1.48.66,1.48,1.48-.66,1.48-1.48,1.48ZM296.9,192.63c-.82,0-1.48-.66-1.48-1.48s.66-1.48,1.48-1.48,1.48.66,1.48,1.48-.66,1.48-1.48,1.48ZM296.9,187.72c-.82,0-1.48-.66-1.48-1.48s.66-1.48,1.48-1.48,1.48.66,1.48,1.48-.66,1.48-1.48,1.48ZM296.9,182.81c-.82,0-1.48-.66-1.48-1.48s.66-1.48,1.48-1.48,1.48.66,1.48,1.48-.66,1.48-1.48,1.48ZM296.9,177.9c-.82,0-1.48-.66-1.48-1.48s.66-1.48,1.48-1.48,1.48.66,1.48,1.48-.66,1.48-1.48,1.48ZM296.9,172.99c-.82,0-1.48-.66-1.48-1.48s.66-1.48,1.48-1.48,1.48.66,1.48,1.48-.66,1.48-1.48,1.48ZM296.9,168.08c-.82,0-1.48-.66-1.48-1.48s.66-1.48,1.48-1.48,1.48.66,1.48,1.48-.66,1.48-1.48,1.48ZM296.9,163.17c-.82,0-1.48-.66-1.48-1.48s.66-1.48,1.48-1.48,1.48.66,1.48,1.48-.66,1.48-1.48,1.48ZM296.9,158.26c-.82,0-1.48-.66-1.48-1.48s.66-1.48,1.48-1.48,1.48.66,1.48,1.48-.66,1.48-1.48,1.48ZM296.9,153.35c-.82,0-1.48-.66-1.48-1.48s.66-1.48,1.48-1.48,1.48.66,1.48,1.48-.66,1.48-1.48,1.48ZM296.9,148.43c-.82,0-1.48-.66-1.48-1.48s.66-1.48,1.48-1.48,1.48.66,1.48,1.48-.66,1.48-1.48,1.48ZM296.9,143.52c-.82,0-1.48-.66-1.48-1.48s.66-1.48,1.48-1.48,1.48.66,1.48,1.48-.66,1.48-1.48,1.48ZM296.9,138.61c-.82,0-1.48-.66-1.48-1.48s.66-1.48,1.48-1.48,1.48.66,1.48,1.48-.66,1.48-1.48,1.48ZM296.9,133.7c-.82,0-1.48-.66-1.48-1.48s.66-1.48,1.48-1.48,1.48.66,1.48,1.48-.66,1.48-1.48,1.48ZM296.9,128.79c-.82,0-1.48-.66-1.48-1.48s.66-1.48,1.48-1.48,1.48.66,1.48,1.48-.66,1.48-1.48,1.48ZM296.9,123.88c-.82,0-1.48-.66-1.48-1.48s.66-1.48,1.48-1.48,1.48.66,1.48,1.48-.66,1.48-1.48,1.48ZM296.9,118.97c-.82,0-1.48-.66-1.48-1.48s.66-1.48,1.48-1.48,1.48.66,1.48,1.48-.66,1.48-1.48,1.48ZM296.9,114.06c-.82,0-1.48-.66-1.48-1.48s.66-1.48,1.48-1.48,1.48.66,1.48,1.48-.66,1.48-1.48,1.48ZM296.9,109.15c-.82,0-1.48-.66-1.48-1.48s.66-1.48,1.48-1.48,1.48.66,1.48,1.48-.66,1.48-1.48,1.48ZM296.9,104.24c-.82,0-1.48-.66-1.48-1.48s.66-1.48,1.48-1.48,1.48.66,1.48,1.48-.66,1.48-1.48,1.48ZM296.9,99.32c-.82,0-1.48-.66-1.48-1.48s.66-1.48,1.48-1.48,1.48.66,1.48,1.48-.66,1.48-1.48,1.48ZM296.9,94.41c-.82,0-1.48-.66-1.48-1.48s.66-1.48,1.48-1.48,1.48.66,1.48,1.48-.66,1.48-1.48,1.48ZM296.9,89.5c-.82,0-1.48-.66-1.48-1.48s.66-1.48,1.48-1.48,1.48.66,1.48,1.48-.66,1.48-1.48,1.48ZM296.9,84.59c-.82,0-1.48-.66-1.48-1.48s.66-1.48,1.48-1.48,1.48.66,1.48,1.48-.66,1.48-1.48,1.48ZM298.55,203.41c.78-.53,1.29-1.42,1.29-2.44s-.53-1.93-1.32-2.46c.8-.53,1.32-1.43,1.32-2.46s-.53-1.93-1.32-2.46c.8-.53,1.32-1.43,1.32-2.46s-.53-1.93-1.32-2.46c.8-.53,1.32-1.43,1.32-2.46s-.53-1.93-1.32-2.46c.8-.53,1.32-1.43,1.32-2.46s-.53-1.93-1.32-2.46c.8-.53,1.32-1.43,1.32-2.46s-.53-1.93-1.32-2.46c.8-.53,1.32-1.43,1.32-2.46s-.53-1.93-1.32-2.46c.8-.53,1.32-1.43,1.32-2.46s-.53-1.93-1.32-2.46c.8-.53,1.32-1.43,1.32-2.46s-.53-1.93-1.32-2.46c.8-.53,1.32-1.43,1.32-2.46s-.53-1.93-1.32-2.46c.8-.53,1.32-1.43,1.32-2.46s-.53-1.93-1.32-2.46c.8-.53,1.32-1.43,1.32-2.46s-.53-1.93-1.32-2.46c.8-.53,1.32-1.43,1.32-2.46s-.53-1.93-1.32-2.46c.8-.53,1.32-1.43,1.32-2.46s-.53-1.93-1.32-2.46c.8-.53,1.32-1.43,1.32-2.46s-.53-1.93-1.32-2.46c.8-.53,1.32-1.43,1.32-2.46s-.53-1.93-1.32-2.46c.8-.53,1.32-1.43,1.32-2.46s-.53-1.93-1.32-2.46c.8-.53,1.32-1.43,1.32-2.46s-.53-1.93-1.32-2.46c.8-.53,1.32-1.43,1.32-2.46s-.53-1.93-1.32-2.46c.8-.53,1.32-1.43,1.32-2.46s-.53-1.93-1.32-2.46c.8-.53,1.32-1.43,1.32-2.46s-.53-1.93-1.32-2.46c.8-.53,1.32-1.43,1.32-2.46s-.53-1.93-1.32-2.46c.8-.53,1.32-1.43,1.32-2.46s-.53-1.93-1.32-2.46c.8-.53,1.32-1.43,1.32-2.46s-.53-1.93-1.32-2.46c.8-.53,1.32-1.43,1.32-2.46s-.53-1.93-1.32-2.46c.8-.53,1.32-1.43,1.32-2.46,0-.67-.22-1.28-.6-1.77.23-.1.46-.21.68-.34-.05.22-.08.44-.08.67,0,1.51,1.14,2.75,2.6,2.92-.51.53-.83,1.25-.83,2.05,0,1.51,1.14,2.75,2.6,2.92-.51.53-.83,1.25-.83,2.05,0,1.51,1.14,2.75,2.6,2.92-.51.53-.83,1.25-.83,2.05,0,1.51,1.14,2.75,2.6,2.92-.51.53-.83,1.25-.83,2.05,0,1.51,1.14,2.75,2.6,2.92-.51.53-.83,1.25-.83,2.05,0,1.51,1.14,2.75,2.6,2.92-.51.53-.83,1.25-.83,2.05,0,1.51,1.14,2.75,2.6,2.92-.51.53-.83,1.25-.83,2.05,0,1.51,1.14,2.75,2.6,2.92-.51.53-.83,1.25-.83,2.05,0,1.51,1.14,2.75,2.6,2.92-.51.53-.83,1.25-.83,2.05,0,1.51,1.14,2.75,2.6,2.92-.51.53-.83,1.25-.83,2.05,0,1.51,1.14,2.75,2.6,2.92-.51.53-.83,1.25-.83,2.05,0,1.51,1.14,2.75,2.6,2.92-.51.53-.83,1.25-.83,2.05,0,1.51,1.14,2.75,2.6,2.92-.51.53-.83,1.25-.83,2.05,0,1.51,1.14,2.75,2.6,2.92-.51.53-.83,1.25-.83,2.05,0,1.51,1.14,2.75,2.6,2.92-.51.53-.83,1.25-.83,2.05,0,1.51,1.14,2.75,2.6,2.92-.51.53-.83,1.25-.83,2.05,0,1.51,1.14,2.75,2.6,2.92-.51.53-.83,1.25-.83,2.05,0,1.51,1.14,2.75,2.6,2.92-.51.53-.83,1.25-.83,2.05,0,1.51,1.14,2.75,2.6,2.92-.51.53-.83,1.25-.83,2.05,0,1.51,1.14,2.75,2.6,2.92-.51.53-.83,1.25-.83,2.05,0,1.51,1.14,2.75,2.6,2.92-.51.53-.83,1.25-.83,2.05,0,1.51,1.14,2.75,2.6,2.92-.51.53-.83,1.25-.83,2.05,0,1.51,1.14,2.75,2.6,2.92-.51.53-.83,1.25-.83,2.05,0,1.51,1.14,2.75,2.6,2.92-.51.53-.83,1.25-.83,2.05,0,1.51,1.14,2.75,2.6,2.92-.51.53-.83,1.25-.83,2.05,0,1.15.66,2.14,1.61,2.62-2.29.89-3.91,3.11-3.91,5.7,0,1.6.62,3.05,1.62,4.14h-42.05c1-1.09,1.62-2.54,1.62-4.14,0-2.8-1.9-5.17-4.47-5.89l.04.2ZM348.54,200.98c0,.82-.66,1.48-1.48,1.48s-1.48-.66-1.48-1.48.66-1.48,1.48-1.48,1.48.66,1.48,1.48ZM346.77,196.01c0,.82-.66,1.48-1.48,1.48s-1.48-.66-1.48-1.48.66-1.48,1.48-1.48,1.48.66,1.48,1.48ZM345,191.04c0,.82-.66,1.48-1.48,1.48s-1.48-.66-1.48-1.48.66-1.48,1.48-1.48,1.48.66,1.48,1.48ZM343.23,186.07c0,.82-.66,1.48-1.48,1.48s-1.48-.66-1.48-1.48.66-1.48,1.48-1.48,1.48.66,1.48,1.48ZM341.46,181.1c0,.82-.66,1.48-1.48,1.48s-1.48-.66-1.48-1.48.66-1.48,1.48-1.48,1.48.66,1.48,1.48ZM339.69,176.13c0,.82-.66,1.48-1.48,1.48s-1.48-.66-1.48-1.48.66-1.48,1.48-1.48,1.48.66,1.48,1.48ZM337.92,171.17c0,.82-.66,1.48-1.48,1.48s-1.48-.66-1.48-1.48.66-1.48,1.48-1.48,1.48.66,1.48,1.48ZM336.14,166.2c0,.82-.66,1.48-1.48,1.48s-1.48-.66-1.48-1.48.66-1.48,1.48-1.48,1.48.66,1.48,1.48ZM334.37,161.23c0,.82-.66,1.48-1.48,1.48s-1.48-.66-1.48-1.48.66-1.48,1.48-1.48,1.48.66,1.48,1.48ZM332.6,156.26c0,.82-.66,1.48-1.48,1.48s-1.48-.66-1.48-1.48.66-1.48,1.48-1.48,1.48.66,1.48,1.48ZM330.83,151.29c0,.82-.66,1.48-1.48,1.48s-1.48-.66-1.48-1.48.66-1.48,1.48-1.48,1.48.66,1.48,1.48ZM329.06,146.32c0,.82-.66,1.48-1.48,1.48s-1.48-.66-1.48-1.48.66-1.48,1.48-1.48,1.48.66,1.48,1.48ZM327.29,141.35c0,.82-.66,1.48-1.48,1.48s-1.48-.66-1.48-1.48.66-1.48,1.48-1.48,1.48.66,1.48,1.48ZM325.52,136.39c0,.82-.66,1.48-1.48,1.48s-1.48-.66-1.48-1.48.66-1.48,1.48-1.48,1.48.66,1.48,1.48ZM323.75,131.42c0,.82-.66,1.48-1.48,1.48s-1.48-.66-1.48-1.48.66-1.48,1.48-1.48,1.48.66,1.48,1.48ZM321.97,126.45c0,.82-.66,1.48-1.48,1.48s-1.48-.66-1.48-1.48.66-1.48,1.48-1.48,1.48.66,1.48,1.48ZM320.2,121.48c0,.82-.66,1.48-1.48,1.48s-1.48-.66-1.48-1.48.66-1.48,1.48-1.48,1.48.66,1.48,1.48ZM318.43,116.51c0,.82-.66,1.48-1.48,1.48s-1.48-.66-1.48-1.48.66-1.48,1.48-1.48,1.48.66,1.48,1.48ZM316.66,111.54c0,.82-.66,1.48-1.48,1.48s-1.48-.66-1.48-1.48.66-1.48,1.48-1.48,1.48.66,1.48,1.48ZM314.89,106.57c0,.82-.66,1.48-1.48,1.48s-1.48-.66-1.48-1.48.66-1.48,1.48-1.48,1.48.66,1.48,1.48ZM313.12,101.61c0,.82-.66,1.48-1.48,1.48s-1.48-.66-1.48-1.48.66-1.48,1.48-1.48,1.48.66,1.48,1.48ZM311.35,96.64c0,.82-.66,1.48-1.48,1.48s-1.48-.66-1.48-1.48.66-1.48,1.48-1.48,1.48.66,1.48,1.48ZM309.58,91.67c0,.82-.66,1.48-1.48,1.48s-1.48-.66-1.48-1.48.66-1.48,1.48-1.48,1.48.66,1.48,1.48ZM307.8,86.7c0,.82-.66,1.48-1.48,1.48s-1.48-.66-1.48-1.48.66-1.48,1.48-1.48,1.48.66,1.48,1.48ZM306.03,81.73c0,.82-.66,1.48-1.48,1.48s-1.48-.66-1.48-1.48.66-1.48,1.48-1.48,1.48.66,1.48,1.48ZM304.26,76.76c0,.82-.66,1.48-1.48,1.48s-1.48-.66-1.48-1.48.66-1.48,1.48-1.48,1.48.66,1.48,1.48ZM291.29,58.28c-.34-1.95.5-4.07,2.11-5.21.62-.44,1.36-.74,2.12-.76,1.59-.05,3.26,1.25,3.46,2.83.09.76-.28,1.58-.86,2.08-.52.44-1.31.55-1.9.22-.67-.37-.9-1.27-.64-1.97.07-.18.19-.35.36-.44.19-.1.44-.26.64-.25-.97-.8-2.22-.22-2.89.74-1.31,1.87.13,4.74,2.23,5.26,2.92.73,5.69-2.45,6.18-5.11.31-1.65.29-3.33-.3-4.91-1.28-3.45-4.14-5.86-7.35-7.4-1.47-.71-3.37-1.17-4.97-1.46.63-.23,1.26-.25,1.54-.26.54-.03,1.07,0,1.6.09.99.14,1.99.42,2.93.75,1.93.67,3.72,1.74,5.21,3.13,2.82,2.62,4.36,6.88,3.69,10.69,0,.04-.01.08-.02.11-.36,1.94-1.37,3.68-2.86,4.96-1.76,1.51-4.47,2.09-6.65,1.27-1.85-.7-3.31-2.4-3.65-4.35h.02ZM296.9,66.46c2.38,0,4.31,1.93,4.31,4.31s-1.93,4.31-4.31,4.31-4.31-1.93-4.31-4.31,1.93-4.31,4.31-4.31ZM291.01,75.28c.82,0,1.48.66,1.48,1.48s-.66,1.48-1.48,1.48-1.48-.66-1.48-1.48.66-1.48,1.48-1.48ZM289.24,80.25c.82,0,1.48.66,1.48,1.48s-.66,1.48-1.48,1.48-1.48-.66-1.48-1.48.66-1.48,1.48-1.48ZM287.47,85.22c.82,0,1.48.66,1.48,1.48s-.66,1.48-1.48,1.48-1.48-.66-1.48-1.48.66-1.48,1.48-1.48ZM285.7,90.19c.82,0,1.48.66,1.48,1.48s-.66,1.48-1.48,1.48-1.48-.66-1.48-1.48.66-1.48,1.48-1.48ZM283.93,95.16c.82,0,1.48.66,1.48,1.48s-.66,1.48-1.48,1.48-1.48-.66-1.48-1.48.66-1.48,1.48-1.48ZM282.16,100.13c.82,0,1.48.66,1.48,1.48s-.66,1.48-1.48,1.48-1.48-.66-1.48-1.48.66-1.48,1.48-1.48ZM280.39,105.09c.82,0,1.48.66,1.48,1.48s-.66,1.48-1.48,1.48-1.48-.66-1.48-1.48.66-1.48,1.48-1.48ZM278.62,110.06c.82,0,1.48.66,1.48,1.48s-.66,1.48-1.48,1.48-1.48-.66-1.48-1.48.66-1.48,1.48-1.48ZM276.84,115.03c.82,0,1.48.66,1.48,1.48s-.66,1.48-1.48,1.48-1.48-.66-1.48-1.48.66-1.48,1.48-1.48ZM275.07,120c.82,0,1.48.66,1.48,1.48s-.66,1.48-1.48,1.48-1.48-.66-1.48-1.48.66-1.48,1.48-1.48ZM273.3,124.97c.82,0,1.48.66,1.48,1.48s-.66,1.48-1.48,1.48-1.48-.66-1.48-1.48.66-1.48,1.48-1.48ZM271.53,129.94c.82,0,1.48.66,1.48,1.48s-.66,1.48-1.48,1.48-1.48-.66-1.48-1.48.66-1.48,1.48-1.48ZM269.76,134.91c.82,0,1.48.66,1.48,1.48s-.66,1.48-1.48,1.48-1.48-.66-1.48-1.48.66-1.48,1.48-1.48ZM267.99,139.87c.82,0,1.48.66,1.48,1.48s-.66,1.48-1.48,1.48-1.48-.66-1.48-1.48.66-1.48,1.48-1.48ZM266.22,144.84c.82,0,1.48.66,1.48,1.48s-.66,1.48-1.48,1.48-1.48-.66-1.48-1.48.66-1.48,1.48-1.48ZM264.45,149.81c.82,0,1.48.66,1.48,1.48s-.66,1.48-1.48,1.48-1.48-.66-1.48-1.48.66-1.48,1.48-1.48ZM262.67,154.78c.82,0,1.48.66,1.48,1.48s-.66,1.48-1.48,1.48-1.48-.66-1.48-1.48.66-1.48,1.48-1.48ZM260.9,159.75c.82,0,1.48.66,1.48,1.48s-.66,1.48-1.48,1.48-1.48-.66-1.48-1.48.66-1.48,1.48-1.48ZM259.13,164.72c.82,0,1.48.66,1.48,1.48s-.66,1.48-1.48,1.48-1.48-.66-1.48-1.48.66-1.48,1.48-1.48ZM257.36,169.69c.82,0,1.48.66,1.48,1.48s-.66,1.48-1.48,1.48-1.48-.66-1.48-1.48.66-1.48,1.48-1.48ZM255.59,174.65c.82,0,1.48.66,1.48,1.48s-.66,1.48-1.48,1.48-1.48-.66-1.48-1.48.66-1.48,1.48-1.48ZM253.82,179.62c.82,0,1.48.66,1.48,1.48s-.66,1.48-1.48,1.48-1.48-.66-1.48-1.48.66-1.48,1.48-1.48ZM252.05,184.59c.82,0,1.48.66,1.48,1.48s-.66,1.48-1.48,1.48-1.48-.66-1.48-1.48.66-1.48,1.48-1.48ZM250.28,189.56c.82,0,1.48.66,1.48,1.48s-.66,1.48-1.48,1.48-1.48-.66-1.48-1.48.66-1.48,1.48-1.48ZM248.5,194.53c.82,0,1.48.66,1.48,1.48s-.66,1.48-1.48,1.48-1.48-.66-1.48-1.48.66-1.48,1.48-1.48ZM246.73,199.5c.82,0,1.48.66,1.48,1.48s-.66,1.48-1.48,1.48-1.48-.66-1.48-1.48.66-1.48,1.48-1.48ZM241.54,209.3c0-2.38,1.93-4.31,4.31-4.31s4.31,1.93,4.31,4.31c0,1.96-1.32,3.62-3.11,4.14h-2.4c-1.79-.52-3.11-2.18-3.11-4.14Z"/>
</svg>