<?xml version="1.0" encoding="UTF-8"?>
<svg id="Layer_1" data-name="Layer 1" xmlns="http://www.w3.org/2000/svg" xmlns:xlink="http://www.w3.org/1999/xlink" viewBox="0 0 380.65 503.01">
  <defs>
    <style>
      .cls-1 {
        fill: none;
      }

      .cls-2 {
        fill: #1f3d3a;
      }

      .cls-3 {
        clip-path: url(#clippath-1);
      }

      .cls-4 {
        clip-path: url(#clippath);
      }
    </style>
    <clipPath id="clippath">
      <rect class="cls-1" y="0" width="380.65" height="503.01"/>
    </clipPath>
    <clipPath id="clippath-1">
      <rect class="cls-1" y="0" width="380.65" height="503.01"/>
    </clipPath>
  </defs>
  <g id="Linden">
    <g class="cls-4">
      <g class="cls-3">
        <path class="cls-2" d="M188.48,3.01c.78-1.02,1.61-2.02,2.41-3.01,1.54,2.89,2.11,5,1.93,8.28.69-.93,1.16-1.7,2.33-1.94l.5.41c.8,2.26.11,5.15-.53,7.38,2.08-3.42,3.55-5.86,7.51-7.23-.45,4.09-1.78,7.78-3.88,11.33-1.15,1.33-2.14,2.7-3.13,4.12,1.51-.98,2.61-2.18,3.79-3.49,2.18-1.13,3.85-1.5,6.34-1.49-.65,2.23-1.52,4.4-2.59,6.46.98.24,1.76.38,2.51,1.07.15.36.33.56.18.95-.42,1.07-1.64,1.57-2.59,2.05l-1.01.53c-.77,1.47-1.25,3.15-2.06,4.56l-2.56,1.19c-.47,1.35-1.19,2.98-.63,4.41.6.33.53.21,1.14.03,1.55-1.55,1.38-4.08,2.68-5.55,1.25-1.43,4.41-2.89,6.05-3.94l.51.03.57.78c1.68-.63.78-3.99,4.31-2.5.62.26,1.04.59,1.35,1.19.01,1.25-.9,2.09-1.67,3,1.13.6,2.6,1.13,2.95,2.48.44,1.69-.03,3.97.68,5.51l.38.09c.26-.5.26-.65.26-1.19.42-.24.83-.47,1.26-.66.23-.66-.18-1.25-.48-1.87-.59-1.22-1.47-2.71-1.07-4.12.18-.65.41-.9.96-1.25,1.38-.02,2.71.96,3.87,1.64-3.55-3.87-3.88-6.83-3.9-11.92,2.21,1.67,3.94,3.66,5.74,5.75-.07-1.64-.51-3.76.62-5.1.57-.14,1.1-.18,1.68-.23.86-.77.89-1.33.93-2.42.03-.47.05-.95.06-1.41.96-1.22,2.02-2.3,3.13-3.39,1.31,1.9,4.48,6.25,4.11,8.6-.06.36-.09.72-.15,1.08,1.01-.8,2.12-1.96,3.37-2.3.32.06.51.01.74.28,1.43,1.76-.39,4.88.3,6.74.14-.08.27-.15.41-.23,1.52-.8,3.37-.03,4.85.5.35.12.69.24,1.02.38l-.17.29c-1.37,2.41-3.97,4.07-4.58,5.18-.18.33-.01,1.2.08,1.55.18.65.48.83,1.05,1.1,1.22-.23,2.05-1.26,2.97-2.05,2.62-2.24,6.28.56,9.27.61,0,0,0,0,0,0-1.07,1.82-2.32,4.36-3.97,5.74-1.07.89-2.65,1.36-3.48,2.47l.12.33c.35,1.04.63,1.76.12,2.8-.72,1.46-3.12,3.21-4.68,3.58-.68.17-1.32.09-2,.01-.44-.04-.23-.03-.78-.03-.17.63-.2.66.06,1.25.74.51,2.45,1.04,3.36.92.53-.06,1.13-.5,1.58-.78,1.08.27,3.3.54,4.03,1.34.12.68.08.95-.3,1.54-.57.92-1.57,1.69-1.72,2.79.65.95,4.74,2.03,6.04,2.59l.23-.2c-.1-2.97-4.88-5.96-2.96-9.17,1.13-.12,2.5.69,3.51,1.19-.44-1.57-1.25-3.9-.39-5.45.36-.66.56-.66,1.24-.83,1.99.47,2.9,2.17,3.91,3.78l.45.72c-.44-2.35-.5-6.31.99-8.34.23-.32.36-.27.71-.36.87.5,1.11,1.14,1.52,2.03.26.54.44.81.96,1.14.86.15,1.28-.59,1.91.11.62.69,1.01,2.33,1.31,3.22,1.58-4.17,4.43-7.45,8.1-9.99.5,1.94,1.27,3.52,2.14,5.31-.51.72-1.25,1.47-1.35,2.38.74.35,1.97-.36,2.36.11-.17,1.29-.69,2.51-.86,3.76-.81,1.2-1.64,2.39-2.41,3.64,1.13-.96,2.11-1.91,3.06-3.05,1.23-1.29,2.5-2.06,4.36-2.14.66-.03.89.09,1.45.41.32.56.48,1.1.33,1.75-.5,2.06-3.67,2.88-3.73,4.77.95.23,1.69-.44,2.56-.09.2,1.05-.32,1.93-.9,2.79-1.07,1.55-3.15,1.88-4.47,3.18l.09.26c.45-.06.83-.15,1.25-.29.32.59-.12.93.32,1.38,1.88-.5,4.11-2.7,6.05-1.49.44.27.38.41.51.87-.17.8-.38,1.57-.63,2.33,1.46.78,3.04,1.23,4.62,1.73-.56.72-1.14,1.6-1.85,2.15-1.29.99-4.3,1.37-5.24,2.66-.92,1.28.15,2.94-2.06,3.15-2.66.25-6.77-1.13-8.94,1.01-.26.24-.24.27-.42.51l.09.39c.18.8.32,1.05-.12,1.75-.6.3-1.2.59-1.76.95l.12.5c2.09.93,8.49-1.76,9.45.6-.21,1.52-1.08,2.45-2.03,3.61,1.76,1.6,3.75,3.39,5.86,4.49.38-2.51-1.51-6.61-.38-8.84.48-.95,1.49-1.93,2.18-2.76,1.78,3.69,3.84,6.17,5.24,10.21-.05-2.11,1.13-8.32,2.7-9.74.23-.2.44-.27.71-.39.68.15.92.27,1.31.84.27.39.48.84.71,1.27,1.79-2.64,3.55-4.12,6.68-5.03.29,1.87.5,3.7.63,5.6l-1.67,3.21c1.13-.71,2.44-1.79,3.84-1.49.36.42.48.5.45,1.08-.09,2.48-2.29,4.82-3.31,6.97,2.82-.96,4.34-1.31,7.27-.62-.83,1.3-1.63,2.71-2.74,3.76-1.1,1.04-3.58,2.08-4.27,3.22l.24.3,1.51-.12c.59.68-.15,1.87.45,2.47,1.55-.77,2.6-2.42,4.12-3.09,1.75-.77,3.87-.42,5.71-.87,2.12-.51,3.21-1.55,5.89-1.99-.47,1.72-.87,3.49-1.51,5.16-.75.62-1.33.89-1.66,1.82.3.63.54.87,1.2,1.16,1.57.66,3.04.9,4.53,1.82-5.58,4.56-11.55,5.52-18.46,6.82,2.63.8,10.07,1.85,11.86,3.6-1.19,1.55-4.27,1.61-5.85,3.28-.51.54-.84.71-1.61.72-.72.02-1.46-.01-2.2-.05-.57.81-.9,1.3-1.94,1.51-2.83.54-3.91-1.97-5.99-2.15-.74-.06-1.93.47-2.53-.06-.29-.26-.54-.62-.78-.93-.38-.06-.23-.12-.48.06-.03.35-.06.69-.08,1.05-.03.53,0,.29-.1.87,1.13.69,2.75,1.46,3.12,2.85.33,1.2.42,2.15,1.01,3.31.43.21.69.23,1.16.3.93.14,2.05.39,2.57,1.29.32.54.27,1.05.03,1.61-.71,1.64-2.33,3.22-3.7,4.33.98.23,1.93.32,2.65,1.09.23.66.3.81-.03,1.47-.83,1.7-4.46,3.01-6.07,3.93l.12.23c.92-.14,1.96-.72,2.77-.35.17.44.21.89.62,1.11,1.44.8,1.65,1.6,2.21,3.09.53-.74.93-1.4,1.28-2.24-.03-.17-.06-.33-.09-.5-.27-1.94.86-7.51,2.21-8.9.45-.45.66-.42,1.23-.41.89.53,2.18,3.1,2.67,3.13.25-3.52.77-6.02,2.45-9.15,1.22,2.47,2.89,5.12,3.63,7.75.54,2.6-.23,5.27-.54,7.86,1.31-.77,2.29-1.58,3.19-2.82-1.25-1.96-2.02-3.16-1.93-5.54.03-1.44.15-2.59,1.22-3.63.89-.08,1.18.26,1.93.72l.32-.09c.26-.95-.24-1.49-.33-2.38-.3-3.07,1.82-6.37,3.45-8.81,1.13,2.89,3.33,5.42,4.2,8.34.06-1.45.16-2.76.68-4.11.48-1.28,1.33-3.49,2.7-3.97.38-.14.56.06.9.2,1.31,1.94,1.13,5.33,1.04,7.63.41-.75.81-1.49,1.25-2.23,2.27-3.82,5.04-5.43,9.26-6.49.09,2.66.47,5.61-.59,8.13-.66.65-1.66,1.45-1.85,2.36.78-.23,1.33-.86,1.91-1.42.98,0,2.06.11,3.01-.06l1.36.26c.35.56.47.72.36,1.41-.57,3.64-6.2,5.66-8.61,7.96-.2.2-.41.38-.6.56,1.37-.02,3.13.2,4.14-.9.29-.3.53-.66.77-.99,1.97.33,2.45,1.76,3.97,2.53,1.7.87,4.24-.24,5.87,1.29.04.63-.06.87-.51,1.34-1.19,1.22-2.86,1.66-3.82,3.1-.08.11-.15.2-.21.3-.04.06-.09.12-.13.2-1.35.01-2.76-.08-4.06.27-.78,1.19,1.01,2.15-1.93,2.76-2.18.44-4.77.14-6.85-.63l-2.79,1.46c1.88,1.17,3.88,1.67,5.92,2.48,2.71,1.08,5.54,2.97,7.84,4.76-1.72.93-3.07,1.63-5.06,1.78l.32,3.1c-1.49.09-2.95.13-4.46.06-.92.62-1.52,1.01-2.6,1.17-.5.08-1.01.18-1.51.26-.2.41.08.93-.29,1.08-1.46.66-7.99-1.51-9.77-2.09-.54-.66-.96-1.32-1.84-1.57-.65.11-.99.24-1.4.8-.39.54-.69,1.19-1.01,1.78,3.46,2.03,5.92,3.9,8.11,7.33l-3.75-.51c.39.92.8,1.64.63,2.65-.39.6-.47.74-1.2.92-2.54.59-5.83-2.36-7.93-2.76-.23-.04-.46.04-.64.18-.61.45-1.12.6-1.83.39-1.67-.47-5.98-5.15-7.8-6.49-.26-.2-.51-.38-.78-.57-.33,2.08-.68,3.25-1.97,4.97,2.45,1.05,4.88,1.87,7.5,2.36,1.45.27,3.05.33,4.42.81.63.23,1.33.6,1.63,1.23.29.62.15,1.38-.18,1.96-.53.87-1.46,1.69-2.18,2.41-2.12-.18-4.23-.29-6.37-.33,2.41,1.04,4.82,2.05,7.23,3.04.18-1.04.29-1.88,1.22-2.54.57-.41,1.16-.51,1.84-.38,1.23.27,1.97,1.02,2.79,1.93l.23.24s.09.1.13.15c.5-.8.92-1.67,1.79-2.09.36.02.62-.08.9.18,1.29,1.17,1.29,5.36,1.45,7.01.77.51,1.42.86,1.76,1.75,0,1.22-.59,2.24-.54,3.49.53.48,1.14.83,1.25,1.58.39,2.5-2.11,7-3.03,9.36,2.09-1.46,4.09-2.98,5.87-4.83-1.16-1.01-2.11-1.9-2.24-3.51-.14-1.54.14-3.07.05-4.61-.09-1.46-.71-2.86-.77-4.32-.15-3.63,2.98-9.11,4.09-12.73,1.22-.57,3.16-1.72,4.47-1.63.12.09,2.91,5.38,2.94,5.57.2,1.13-.89,2.15-.38,3.3.57.33.74.51,1.42.54.44-.98-.53-3.96-.18-5.58.48-2.26,2.06-4.23,2.76-6.74,2.41-2.05,5.09-3.51,8.08-4.55.42,3.54.63,6.97-1.57,10.09-.18.26-.41.45-.63.65-.42.39-.84.77-1.28,1.14l.09.23c1.23-.6,2.14-1.75,3.16-2.62,2.48-2.11,5.73-2.71,8.84-3.28-1.19,1.97-1.3,4.14-2.26,5.71-1.25,2.02-2.39,1.91-3.75,4.92,4.44-3.63,7.44-5.75,13.43-5.21.69.06,1.39.17,2.08.27-.57,1.07-1.22,2.66-2.11,3.46-.8.71-1.91,1.23-2.54,2.08l.81.93c-.03.35.05.5-.27.72-1.34.92-3.48.68-4.95,1.55l-.03.27c2.15.1,3.37.65,5.24,1.67-4.67,4.3-8.11,4.79-13.92,6.68,4.7.23,9.29.24,13.94,1.05-4.86,4.11-8.88,6.28-15.35,5.73-.36-.03-.71-.07-1.05-.13,2,1.96,4.14,2.93,6.77,3.76,2.3-1.2,6.44-3.67,9.05-3.37.56.42.68.5.75,1.23.18,1.85-1.37,5.18-1.97,6.94,2.39-1.02,4.76-1.25,6.99-2.7,2.95-.02,5.98-.12,8.91.27-1.43,2.32-2.98,4.53-4.18,6.97-.87-.09-1.88-.32-2.66.12-.48.65-.84,1.36-1.31,2.02-.69-.39-1.52-1.01-2.32-.98.23.65.84.93,1.43,1.22.3.15.62.29.93.42.96.47,2.65,1.04,3.07,2.09.15.38-.05.51-.21.84-1.11.81-2.42.9-3.75,1.19l-.21.26c-1.1,1.32-1.96,1.76-3.69,1.88-2.21.14-4.26-.26-6.22-1.25l-.35.06c-.06.56.01.83.23,1.36.54.3.92.35,1.51.44,2.3.33,4.76,3.58,6.28,5.21-7.47,1.55-14.23,1.11-21-2.65.57.87,1.11,1.82,1.79,2.62,6.22,1.94,8.51,5.22,12.93,9.68-5.07,1.27-9.2,1.55-14.4,1.22,2.68,1.7,4.89,3.98,7.17,6.17-1.67.45-3.22.81-4.98.75-2.71-.11-8.61-2.53-10.78-1.14.14.6.2.59.71.89,2.12,1.25,6.67,1.49,7.93,3.49,0,.62-.06.89-.53,1.34-2.26,2.26-6.74,3.28-9.74,4.11l1.97,1.28c1.04-.42,3-1.51,4.11-1.05.96.39,1.25,1.67,1.49,2.57.03.1.05.23.08.33,1.34-1.1,1.52-3.28,3.36-3.66,1.01.57,1.73,2.05,2.36,3.01-.1-1.85-.44-4.98.8-6.52.29-.36.6-.63,1.07-.71.62-.11,1.45.09,2.06.18,2.32-2.33,1.13-4.11,5.15-6.04.62-.29,1.46-.69,2.15-.69s.78.17,1.26.62c.56,1.63-.78,6.23.11,6.86.63-.2.39-.01.74-.56,1.84-2.92,5.9-5,9.24-5.77,2.08-.48,4.21-.33,6.31-.06-1.34,2.29-3.46,6.49-5.21,8.17l-.65-.12c-.27.57-.21.5-.12,1.07.96.43,1.96-.03,2.92-.39.84-.32,1.62-.86,2.38-1.34,2.57,1.16,5.19,2.21,7.92,2.96-1.41,1.39-3.1,1.94-4.52,3.15-1.52,1.29.95,3.39-2.74,3.33-.9-.01-1.82-.12-2.72-.21-.36.72-.66,1.57-1.48,1.88-.86.33-2.03.3-2.95.36,3.69,1.7,6.02,3.3,8.35,6.67-1.35.39-2.77.84-4.18.93-1.25.09-3.39-.18-4.52.14-.06.01-.32.36-.35.39-.39.6-.3.89-.95,1.33-2.17-.17-3.73-2.94-5.96-1.7l-.21.39c.63,1.54,3.94,2.62,3.43,4.32-3.04,2.27-8.64,1.29-12.31,1.37-.81-.86-1.75-1.74-2.41-2.72-.51-.74-.95-2.32-1.7-2.68-.86.48-1.63,1.07-2.41,1.66,2.17.86,5.66,2.71,6.61,4.95.23.53.33,1.16.47,1.7,5.42,1.99,11.05,2.88,16.27,5.42-3.52,2.53-7.17,4.7-11.71,3.97-1.26-.2-2.41-.71-3.55-1.25.07.07.15.15.22.23,1.25,1.19,2.68,1.78,4.08,2.72,2.5,1.66,5.4,3.87,7.44,6.07l.02.47c-1.22,1.05-4.58,1.05-6.14.95-1.87-.12-12.43-3.33-13.25-4.3-1.54-1.82-1.19-4.98-2.7-7,.02-1.04.47-2.33.08-3.27-.44,0-.68.1-1.09.27-.66.27-1.14.29-1.82-.01-1.27-.54-2.5-1.61-3.6-2.42.48.66,1.04,1.23,1.01,2.09-.29.41-.3.41-.8.62.41,1.94,2.17,2.92,1.63,5.09-.72.5-1.16-.26-1.32.54.42.42.84.62,1.37.89.09.53.08.65-.24,1.11-.35.53-.92.93-1.42,1.34,1.72.68,3.55,1.31,5.19,2.17-4.83,2.96-10.22,4.85-15.22,7.5.09-.01.17-.03.26-.04,2.42-.47,4.7-1.67,7.04-2.41,3.95-1.24,11.32-2.5,15.05-.23.2.33.39.45.24.86-.57,1.63-5.45,3.64-5.13,5.03,2.21.26,7.5.45,9.53-.24,3.1-1.04,5.83-5.03,9.38-2.82.24.66.17,1-.1,1.66-.72,1.75-2.11,3.45-3.19,5.01,2.79-2.47,5.92-3.4,9.59-3.51l.48.24c-.01.11-.01.2-.03.3-.03.32-.03.59,0,.89,2.36-.24,4.88-1.1,7.24-.54l.45.38-.02.45c-1.11.9-2.72.89-3.7,1.85.09.78.44,1.87-.08,2.54-.65.87-2.26,1.02-3.24,1.32-.39.12-.27.11-.65.44l.07.33c.17.69.38,1.26.14,1.97-.39.42-.72.81-1.34.86-1.16.08-2.11-.9-3.25-.78-.08.1-.14.19-.21.3-.74.98-1.3,1.46-2.55,1.58-1.41.14-3.16-.42-4.55-.75,1.91,1.19,3.28,1.85,5.62,1.9,3.13,2.27,6.25,4.71,9.65,6.56-1.31.38-2.69.84-4.07.92-1.35.09-4.88-.6-5.87-.01-.01.1-.01.21-.03.32-.08.78-.09,1.29-.66,1.9-1.16.5-2.05.21-3.18-.23-1.29-.5-2.45-1.14-3.81-1.47.68,3.12,1.68,5.8,3.4,8.51-4.47-.6-11.76-3.28-14.65-6.86-.5-.62-.89-1.34-1.28-2.03-.48,1.73-1.25,3.75-1.37,5.54-.12,2,1.34,5.51.21,7.15-1.28.3-2.32-.41-3.39-1.05-3.28-1.99-6.52-4.59-7.47-8.49-.26-1.05-.48-2.12-.69-3.19-1.05,1.54-2.09,3.07-3.1,4.64-1.29-.54-2.3-1.19-3.43-2.02-.23-.89-.42-1.78-.66-2.66-1.04-.35-2.57-1.08-3.63-.96l-.09.5c.99,1.21,2,2.41,3.07,3.55.35,2.23.77,4.21,1.63,6.32-2.76-.08-7.27.54-9.66-.9-1.05-.59-2.47-1.57-3.67-1.62l-.33.22.08.35c.09.03.18.05.27.07,1.28.39,1.81.93,2.65,1.94,1.61,2.24,2.92,4.38,5.31,5.87.6.38.9.51,1.22,1.16-.81,1.16-2.95,1.52-4.3,1.73-.84.14-1.7.17-2.54.06-1.88-.22-3.69-.99-5.52-1.4-1.52-.33-3.22-.42-4.67-.96-.72-.27-1.43-.71-2.05-1.17-.35-.27-.68-.57-1.01-.87-.57.38-.93.48-1.25,1.11l.24.1c.8.33,1.61.68,2.02,1.51.18.36.03.77-.02,1.16,2.45.75,6.89.26,8.58,2.38.08.66.05.93-.41,1.48-.89,1.07-5.63,3.3-5.75,3.69,1.69.38,4.77.07,6.38-.6,1.87-.78,8.66-5.92,10.18-5.36,2.54.93,3.95-2.14,6.26.96.29.19.54.36.83.55,2.12.37,5.4.41,6.9,1.67.05.83-.08,1.29-.65,1.93-1.26,1.4-6.83,3.72-7.16,5,4.56,1.59,5.42-3.93,12.76,2.53,1.04.92,2.52,2.11,3.13,3.37.24.51.26.51.04,1.05-1.97.81-4.46-1.05-6.08-.36v.29c-.03.8-.06,1.26-.48,1.96-.62.35-.9.48-1.6.29-1.73-.48-3.07-1.93-4.85-2.32l-.08.32c.74,1.2,2.03,2.71,2.3,4.06-.15.33-.11.5-.5.62-3.45,1.02-8.49-1.6-11.5-3.13.72,2.6,1.48,5.18,2.41,7.72-3.55-.01-6.61-.36-9.86-1.88-1.4-1.87-2.57-3.57-4.56-4.85-.63,1.63-1.25,3.3-2,4.88-1.22-1.42-2.79-4.44-4.55-4.86-1.63.54-2.29,2.42-3.06,3.84-.98-1.05-2.35-2.29-3.04-3.54-.96-1.76-.98-4-2.24-5.56-.44-.54-.87-1.1-1.32-1.64-.07.06-.14.12-.21.18-1.1.89-2.32,1.46-3.58,2.08.24.39.48.68.78,1.02-.14.51-.15.62-.63.92-3.37,2.12-10.28-.71-11.95.27.45,1.37,3.04,2.71,4.31,3.36,2.38,1.23,9.23,3.63,10.09,6.16-.24.78-1.79,1.48-1.61,1.88,1.94,1.11,3.69,2.45,5.59,3.64,2.03,1.28,4.32,2.09,6.17,3.66-6.68,1.78-10.03,1.81-16.54-.38.26.86.89,1.63,1.28,2.44.62,1.26,1.11,2.65,1.57,3.97-5.9-.84-8.87-1.49-12.72-6.47-.39-.5-.38-.81-.47-1.4-.03-.23-.1-.45-.15-.68-.03-.1-.04-.21-.07-.32-.11-.38-.08-.27-.35-.66-.6.96-.36,2.8-.32,3.93-1.49,1.31-3.01,2.57-4.44,3.93-1.38-1.97-3.84-4.56-4.36-6.93-.35-1.56.43-3.51-.23-4.97l-.27.15c-.2.84-.38,1.7-.54,2.54-.83.9-1.64,1.76-2.59,2.53-.09-.05-.18-.11-.27-.15-1.28-.69-5.9-.98-6.25-2.26-.5-1.87,2.39-6.14,3.33-7.71,1.08-.41,1.82-.72,2.65-1.55l-.02-.29c-2.92.14-6.68,1.91-9.5,2.88-1.1-.5-1.73-.75-2.93-.71-.95.04-2.27.11-3.01-.6-.29-.29-.23-.6-.26-.98.22-.5.47-.96.6-1.51-13.14,1.05-31.07,11.52-39.36,21.29-2.03,2.41-4.65,5.63-5.22,8.82-.57,3.19-.24,6.86-.16,10.12.12,5.74.27,11.47.45,17.19.69,23.05,1.07,46.3,3.07,69.27.35,4.02.68,8.2,1.76,12.09,2.77.44,5.45.84,8.26.92-9.35,2.45-19.24,3.72-28.87,2.47-3.84-.5-7.59-1.57-11.43-2.06,1.76-.42,3.55-.8,5.3-1.29.29-4.73.92-9.42,1.19-14.15,1.37-25.92,2.17-51.86,2.39-77.82.02-5.18.86-14.35-.1-19.03-1.01-4.86-4.29-9.75-7.53-13.41-7.51-8.46-12.67-10.33-23.59-12.07-3.66-.59-7.44-1.21-11.14-1.42-.66-.03-1.32-.09-1.9.29-.63,1.34,1.11,2.6-1.13,3.39-1.46.51-7.17-1.19-7.57-.8,3.36,4.21,4,2.61,4.3,8.97-1.63-.56-3.22-.96-4.91-1.31-.3.9-.5,1.84-1.24,2.48-2.54.84-5.27-2.76-6.5-.08-.87,1.91-1.23,5.22-3.4,6.16-.5.21-.5.14-.99.03-1.64-1.45-2.35-3.99-2.82-6.05-1.12,2.71-4.28,4.41-6.19,6.67-3.13,1.04-6.23,1.45-9.5,1.81,1.99-1.75,3.08-3.94,4.73-5.95.93-.74,1.67-1.64,2.44-2.54-.94.51-1.89,1.12-2.9,1.42-.04.02-.1.05-.14.07-.36.29-.62.59-1.08.72-.12.03-.26.06-.38.08-2.27.53-4.68,1.19-7.04,1.02-1.87-.12-3.67-.81-5.53-1.07-1.5-.21-3.24,0-4.76.07,4.11-3.01,8.57-4.88,13.47-6.23l.12-.26c-1.26-.36-2.53-.71-3.79-1.04,3.79-3.1,8.78-5.28,13.31-7.09,1.43-.57,3.73-.18,4.77-1.04l-.39-.68c-.03-.83.38-1.31.81-1.97l.2-.3-.12-.21c-.57.29-1.29.74-1.94.78-1.01.08-2.45-.6-3.46-.8-2.33-.47-5.06-.41-7.41-.07.95-.96,1.84-1.96,2.74-2.95-1.26-.35-2.54-.56-3.84-.77-.87.6-1.78,1.13-2.71,1.66-3.12,1.73-3.88,4.11-4.82,7.3-.96-.48-1.9-1.02-2.83-1.54-1.93,3.42-4.5,4.71-7.89,6.4.15-.84,1.65-8.4,1.64-8.46-.62.59-.87,1.16-1.22,1.93l-.13.32c-1.31.53-3.43,1.14-4.49,2.02-.93.78-1.57,1.88-2.62,2.54-2,1.26-4.62,1.85-6.88,2.53.92-1.81,1.97-3.66,2.71-5.54.29-.72.39-1.44.72-2.15h.5c1.04-.6,1.75-1.6,2.5-2.51-1.1.65-2.2,1.29-3.31,1.94-.78.62-1.42,1.04-2.39,1.25-4.18.89-8.53,1.79-12.81,1.99,1.52-1.88,3.15-3.67,4.65-5.56.36-.54.75-.99.8-1.67-.83.23-1.52.89-2.2,1.42-.38.18-.66.32-1.1.26-1.99-.3-4.41.57-6.41.87-.57-.27-.95-.39-1.25-.96l.66-1.42-.17-.18c-.35.09-.62.18-.93.33-.53.26-.86-.16-1.34-.44-1.94-1.1-3.48-1.52-5.66-1.96,2.57-.84,5.04-2.05,7.63-2.9,3.28-1.1,6.47-1.46,9.6-3.09-2.3-1.01-4.65-1.63-6.89-2.82.6-.59,1.23-1.14,1.87-1.7-1.55-1.16-3.07-2.35-4.53-3.63,5.48-.92,9.89.1,15.17,1.53-.89-1.01-1.58-2.08-2.29-3.21.59-.01,1.18-.01,1.77-.06.58-.04,1.16-.18,1.65-.5,1.35-.87,2.17-2.45,3.43-3.43,2.6-2.03,6.19-2.95,8.34-5.55l-.06-.41c-2.95-.33-3.91,2.14-6.13,2.65-.57.14-.78-.21-1.22-.51l.12.3-.39-.59c-.92.69-1.21,1.4-2.36,1.7-.96-.41-.11-.33-.53-1.01-2.74-.53-6.47.06-9.35.12,4.71-5.21,6.94-7.14,13.56-9.56l.07-.77c-1.19-.19-2.56.11-3.7.45-.47.62-.89.98-1.63,1.2-1.31.41-1.99.77-3.07,1.63-2.3-.03-4.62,0-6.92.09-.29.41-.57.81-.86,1.2-3.12,4.25-7.83,4.62-12.61,5.36,1.34-2.09,2.65-4.21,3.9-6.35-.36-.69-.74-1.37-1.11-2.05,1.85-.74,3.63-1.55,5.39-2.47-1.24.1-2.44.32-3.66.53-5.27,4.86-4.24,1.7-6.13,2.03-.35.66-.68,1.42-1.11,2.03-1.99,2.74-7.36,3.19-10.43,3.6.95-2.14,2.74-4.43,3.48-6.47-.54-.08-.95-.09-1.39-.45.26-1.33,2.91-2.8,4.04-3.64-2.26.78-10.57,3.24-12.66,2.74-.63-.6-.62-.9-.83-1.73-.3.07-.57.17-.87.27-.09.03-.2.07-.29.11-1.61-.26-3.31-.48-4.65-1.48-.13-.32-.33-.5-.16-.84.68-1.41,7.24-3.82,8.96-4.68.9-.45,2.21-1.02,2.54-2.02-1.57.21-4.06,1.46-5.45.96-.39-.53-.63-.87-1.2-1.22-.83.03-1.55.07-2.35-.21-.45-.47-.48-.56-.63-1.19.24-.48.48-.89.57-1.43-1.11-.84-2.73-.45-3.9-1.28-.45-.32-.74-.65-.77-1.2l.66-.24c.59-1.32-2.47-2.9-2.75-4.38l.33-.27c2.38-.3,8.82.04,11.21.5,1.2.23,2.5.92,3.63,1.41-.69-1.31-2.79-3.6-2.9-4.98l.36-.3c3.58-.89,7.23,1.4,10.31,2.99l.3-.04.47-.06c.21-.03.42-.06.63-.09,1.37-.15,1.97.33,3.03,1.16.84.77,1.87,1.29,2.83,1.88-.69-.8-1.31-1.6-1.9-2.47.09-.8.17-1.43.72-2.02.47-.08.9-.17,1.35-.32-2.48-1.65-4.14-2.88-6.11-5.15,4.32-.24,6.46.57,10.39.81.27-.38.54-.71.87-1.04,2.35-.27,5.31,1.14,7.51,1.9,1.1-.59,2.15-1.26,3.22-1.9-2.39-1.13-4.8-.99-7.34-1.55-1.29-.29-2.53-.86-3.73-1.4,1.54-1.38,3.37-2.45,5.09-3.6-1.28-1.39-2.62-3.09-4.26-4.03-.75-.44-1.2-.48-2.05-.29-1.07,1.01-1.02,2.54-1.61,3.82-.3.66-.68.81-1.31,1.08-.9.03-1.45-.45-2.14-.95-.48.69-.99,1.35-1.72,1.84-5.72,3.82-11.09,3.48-17.45,2.12,1.65-1.61,3.67-2.95,5.54-4.3l6.01-3.48c-1.07.21-2.14.41-3.19.69-4.74.2-7.68-2.09-11.92-3.69,6.02-3.13,12.36-4.41,19.07-4.85.95-.92,2.03-1.61,3.06-2.45-.2-.74.03-1.58.14-2.32l-.29-.3c-1.96-.01-3.45.54-4.95,1.79l-.24.2-.08-.38-.18.6c-2.45-.26-5.13-.39-7.5-1.07-.89-.26-1.73-.72-2.15-1.54,2.76-1.99,5.46-4.29,8.04-6.52-2.44.71-5.25,2.93-7.81,2.62-.33-.24-.54-.29-.65-.71-.29-1.16.53-2.26,1.05-3.22-5.1,5-8.82,3.12-15.05,3.21,1.41-1.97,3.28-3.87,5.22-5.32.39-.29.24-.09.42-.57-.56-.33-1.02-.62-1.46-1.1.03-.63.12-1.19-.26-1.73-.09-.01-.18-.03-.27-.05-.12-.01-.23-.04-.35-.06-.42-.08-.57-.12-.92-.41-1.13-.92-1.54-1.19-3-1.31-.71-.04-1.29-.12-1.97-.3-.92-.84-.47-1.4-1.02-2.33-.71-1.22-2.39-1.73-3.07-3.07,1.49-.89,6.16-1.97,7.87-1.84,1.88.15,3.75,1.6,5.71,1.01-.53-.96-3.07-1.72-4.08-2.5-.54-.42-.89-.8-.98-1.48.51-.65.95-.74,1.7-1.07-.48-1.41-2.6-2.36-3.43-3.78,0-.32-.11-.57.17-.78.81-.68,2.6-.44,3.6-.35,2.27.23,5.19.53,7.24,1.58,2.11,1.08,6.4,6.8,8.07,7.04-.38-1.41-1.33-2.11-1.48-3.79-.1-1.1-.07-1.82.63-2.71.65-.35,1.1-.42,1.82-.27.98.21,1.9.68,2.79,1.13,3.66,1.85,3.43,3.95,5.58,7.02.96,1.37,2.15,2.47,3.84,2.75l.23-.18c-.36-.63-.81-1.31-1.09-1.99-.26-.63-.18-.87.11-1.48,1.58-1.04,3-.15,4.71-.01.6.04.86,0,1.31-.42.12-.92-.14-1.31-.47-2.15,1.1-.65,2.18-1.08,3.37-1.51.02-1.11.02-2.23.02-3.34-.5-.32-.65-.41-1.26-.15-.74.3-1.29,1.01-2.08,1.25-2.83.84-6.99.33-9.94.32,1.14-1.82,2.3-3.64,3.69-5.28,2.45-2.66,5.33-4.94,7.62-7.75-2.59,2.08-4.98,3.76-7.99,5.21l-3.76,1.58c-2.8-.78-5.64-1.54-8.52-2.05,1.28-1.25,6.47-5.98,7.72-6.38.83-.27,1.78-.45,2.35-1.16l-.21-.8c.41-.92,2.36-1.74,3.25-2.26l.05-.35-.53-.44c-2.71-.65-4.98,1.51-7.21,2.8-2.93-.44-5.79-1.31-8.67-1.99,1.67-1.32,3.69-2.88,4.98-4.56.06-2.56,1.07-1.09,2.38-2.48l-.15-.39c-1.94.2-3.67,1.04-5.55,1.46-3.82.86-8.33-1.22-11.73-2.71,2.36-1.43,4.58-2.95,6.68-4.74-1.63-.32-4.88-.6-6.01-1.76-.03-.72.26-.84.68-1.38-1.04-1.4-3.6-1.7-4.43-3.28-.14-.27,0-.53.07-.8,2.14-2.2,6.68-.01,8.72-.36-.06-.45-.09-.83-.04-1.29.44-.26.77-.45,1.28-.44,1.27.03,2.53,1.04,3.28,1.97.3.38.53.65.95.9l1.22-.29c1.14.47,2.29.87,3.46,1.23l.44-.48.05.33c-.32-.35-.15-.24-.59-.44-.59-.27-1.22-.48-1.7-.92-.09-.08-.16-.17-.26-.26l-.2-.33c-.11-.17-.21-.33-.3-.5-.75-1.32-1.61-2.02-2.63-3.09-.51-.54-1.07-1.04-1.05-1.79,1.66-1.37,8.67-.42,10.99-.44.69.99,1.32,2.05,1.99,3.05.74.33,2.09,1.1,2.88.93-.24-.45-.53-.86-.81-1.28-.02-.35-.12-.62.12-.89.42-.5,1.04-.62,1.66-.65,2.38-.11,5.68,2.36,7.3,3.99-.01-.96-.03-1.85-.3-2.79-.57-.69-1.51-.44-2.18-.98-.48-.39-.42-2-.99-2.11-1.93-.38-5.37,1.37-7.36.24-1.88-1.08-6.68-1.6-7.75-3.21.15-2.82,6.49-3.87,8.19-5.43v-.32c-1.82-.36-4.09-.02-5.96,0-.56-.5-1.17-1.16-1.93-1.27-3.06-.44-5.01-1.66-7.42-3.51,2.63-1.1,5.12-2.63,8.01-2.95-1.63-.63-3.4-1.55-4.95-2.33-1.97-1.01-2.38-1.76-3.01-3.79-.98-.66-2.02-1.25-2.72-2.2-.05-.41-.17-.53.15-.84.95-1.01,2.85-.6,4.14-.74.29-.32.65-.75,1.05-.92,2.45-1.02,5.03,2.85,7.1,3.67-.08-.66-.24-1.45-.13-2.11.09-.54.21-.57.65-.86,3.34.32,6.29,4.25,9.29,5.63.09.05.18.07.27.12-1.64-2-3.81-4.55-6.01-5.96-1.79-1.14-3.4-1.57-5.01-3.12,1.61.6,5.63,2.56,7.24,1.87.29-.95-.41-1.79-.33-2.77.23-.03.59-.07.8-.13,1.26-.36,1.04-1.96,1.64-2.97.29-.5.39-.5.92-.63,3.81,1.75,7.44,10.24,9.89,13.73l.23.32c.03-.98.08-1.96.15-2.94.13-2.09.6-5.39,2.21-6.82,1.76.6,1.63,2.59,2.77,3.75.27-.21.51-.35.81-.5,2.26,1.6,1.84,5.37,2.57,7.77.45.05.89.11,1.32.18.38,1.87.71,4.55.47,6.43-.71.54-1.69.54-2.54.63,1.26,1.25,2.77,2.53,4.35,3.37.42.23.6.41,1.08.24-.44-.83-.83-1.49-.92-2.44.86-1.99,1.04-9.21,1.58-12.09,2.18,1.75,3.51,4.2,5.63,5.92,3.12.36,5.4,3.3,8.04,4.92.72-.95,1.18-1.41,2.41-1.62.87-.15,1.73-.33,2.6-.53-2.23-.17-4.74.14-6.83-.75-.72-.3-1.25-.66-1.54-1.39.54-.57,1.37-.74,2.11-.99.1-.6-.42-.72-.93-.96-3.13-1.4-5.06-2.54-6.76-5.6,1.6-.89,3.12-1.81,4.61-2.84-4.85,1.2-4.95.06-9.36-.8-1.16-.23-2.53-.05-3.7.03,1.31-1.91,2.59-3.84,4.02-5.66,2.23-.68,4.35-2.08,6.55-2.98-.12-.65-.21-1.02.12-1.61.06-.11.12-.2.18-.29-1.55-.15-4.08,2.3-6.71,1.33-.1-.36-.12-.59-.1-.98,0-.12.01-.24.03-.36-1.02.08-1.94,1.57-2.99,1.94-3.78,1.36-8.18,1.08-12.13.96l1.79-1.91c-5.66-.29-6.74-.35-11.21-4.19,2.12-.6,4.2-1.05,6.19-2.02l1.02-2.17c2.42-.26,5.78.29,7.54-1.61.48-.18.75-.2,1.25-.11.59.12,1.1.14,1.68.15-1.14-.53-2-.81-3.27-.84-.5-.06-.98-.08-1.48-.08-1.51-.03-3.87.17-5.22-.41-.89-.38-.38-1.35-1.18-1.94-.98-.72-2.3-1.22-3.39-1.82-2.2-1.23-3.72-2.88-5.43-4.67,1.91-.66,4.41-.6,6.16-1.44.01-.44.03-.83.14-1.27.36-1.51,4.44-.08,5.54-.71-.23-.6-.47-.65-.98-1.02l-.77.23c-.03-.27-.06-.53-.09-.8-1.73-2.33-5.39-3.69-7.74-5.49,2.35-.59,4.64-.81,7.04-.86-.83-.53-1.58-1.14-2.35-1.73.24-.47.54-.99.65-1.51.23-1.2-.96-2.32-1.64-3.18.03-1.52.16-2.95.41-4.46,3.52,1.51,5.28,3.64,7.86,6.29.57-.84,1.11-1.67,1.87-2.38,1.7.51,3.87,7.15,6.25,9.42l.27.26c-1.13-2.61-1.71-4.73-1.4-7.62.12-1.07.41-2.72,1.39-3.36.35-.23.5-.06.84.04,1.25,1.3,1.42,2.74,1.7,4.44.06-.3.12-.59.18-.89.12-.63.15-1.19.56-1.72.27-.35.45-.27.86-.35,3.42,2.05,3.27,5.5,4.76,8.6.38.8.68.9,1.49,1.17.12.05.26.08.38.12,1.31,1.75-.51,3.64.24,5.51.45.45.36.54,1.04.57,0-.32-.03-.57-.14-.87-.19-.56-.3-.86-.15-1.44.29-1.13.2-2.29.32-3.45.23-2.35,1.04-4.4,2.11-6.47,1.17,1.36,2.12,2.88,3.24,4.28,1.35,1.71,2.86,3.37,4.27,5.04,1.37,1.62.45,6.11,2.09,8.72.36.57.86,1.01,1.55,1.08.62.08,1.46-.14,1.93-.57.66-.59.83-1.62.87-2.45.1-2.06-.51-5.12-1.9-6.68-.96-.36-1.46-.08-2.42.16-.6-.51-.57-.99-.74-1.75-.17-.16-.45-.44-.59-.62-.45-.56-.41-.69-.35-1.37,1.15-1.55,4.14-1.71,5.96-2.02l.15-.26c-.36-.42-6.56-2.12-7.87-2.7,1.91-1.01,7.71-3.9,9.54-4.15.68-.09.36.07.86-.39,0-.35.03-.84-.07-1.17-.14-.42-.32-.77-.69-1.01-1.75-1.07-5.6.56-7.5,1.07-1.61-.32-10.94-4.21-12.27-5.07l-.3-.2,1.02-.51c1.96-.96,4.25-3.57,6.04-4.11.69-.21,1.79.05,2.54.02-.32-.56-.83-.96-1.29-1.4-.92-.29-1.88-.04-2.82.05-.44.05-.93.12-1.37.03-1.66-.35-7.06-3.75-8.44-4.86,1.07-.35,4-.96,4.62-1.78-.63-1.05-1.57-1.88-2.24-2.9-.68-1.02-1.07-2.47-1.48-3.63.08,0,.15.02.23.02.12.02.24.03.36.05,2.38.21,4.64,1.24,6.95,1.84.78-.44.01-.75.53-1.46,2.86.47,5.86,4.87,7.81,7.03.35-.32-.28.26.07-.07-1.67-2.43-1.72-3.96-1.66-6.47,2.68.32,4.71.5,7.3,1.46-2.42-2.08-9.78-5-10.69-7.99l.24-.35c1.58-.42,3.25.08,4.82.42-.62-.99-1.58-2.32-1.55-3.51,1.08-.44,3.15,1.28,4.34,1.64l.07-.27c-.45-.75-.48-.72-1.31-1.01-.12-.36-.18-.63-.18-1.02.01-1.1-2.03-2.92-2.3-4.36l.32-.18,1.23.32.23-.13c-.01-.83-.3-1.54-.59-2.32.18-.72.32-.72.93-1.17.5-.93-.21-2-.06-3.03.07-.48,0-.29.47-.63,2.5.69,4.85,4.52,6.71,4.89.45.09,1.05-.42,1.43-.66l.3-.21.56.2c3.01,3.55,2.42,9.57,2.17,13.92.5-1.39.95-2.77,1.16-4.23.3-2.12-.27-6.47,1.08-8.1.36-.44.72-.71,1.32-.65,1.76.17,3.33,2.69,4.32,3.94.18,2.06.95,2.86,2.32,4.3l1.82-1.51c1.99.11,4.02-.02,6.01-.06-.6-.14-1.22-.27-1.82-.44-1.54-.42-5.25-1.66-6.05-3.05.5-.47,1.7-.35,2.41-.38.01-.45.09-.65.26-1.07,1.67-1.62,4.55-1.26,6.71-1.26-2.21-.9-3.64-2.57-5.68-3.54-.77-.36-1.66.15-2.36-.23-2.71-1.46-1.62-2.06-5.34-2.74-1.58-2.12-3.88-3.12-5.89-4.76,2.3-.9,5.49-2.7,7.92-2.09.65.17.98.27,1.64.09l.16-.32-.03-.51c.35-.6.65-.53,1.29-.71.11-.42-1.82-1.25-2.18-1.93-.09-.83.2-1.4.51-2.14l.14-.33c-1.85-1.93-4.2-3.25-6.01-5.25.66-.15,1.35-.29,2-.5.81-.27,1.37-.95,1.72-1.72.2-.43.17-.43.57-.77,1.76.45,3.43,1.55,5.06,2.39-.54-1.66-2.23-4.47-1.6-6.17l.69-.15c.11-.12.24-.23.3-.38.29-.72-.03-2.91-.01-3.79.03-1.23.26-2.48.44-3.7,2.02,1.49,4.09,5.16,6.34,5.92l.87-.48c1.69.48,1.48,5.48,3.06,6.41.9-1.51.74-3.31,1.52-4.88.3-.59.45-.9,1.1-1.16.86.74.72,1.88,1.43,2.72.38-.09.74-.15,1.13-.18.81,2.71,1.63,5.3,1.85,8.13.9-2.24,1.36-5.3,2.98-7.16.47-.53.74-.62,1.43-.68,2.76,1.13,1.82,6.04,3.12,8.34l.27.05c.23-.51.48-.95.78-1.42,1.1-.27,6.65,2.93,8.14,3.52.57-.59.98-1.26,1.66-1.75.56.18.72.27,1.31.14.41-.62.54-.68.47-1.4-.86-.72-2.27-.84-3.34-1.15-1.1-.3-1.76-.57-2.35-1.6-.11-.81.39-1.38.8-2.05-.95-.47-2.03-.9-2.86-1.55-2.99-2.29-5.78-7.72-7.16-11.24,5.13.17,8.91-.06,13.46,2.77-3.09-4.23-4.03-8.43-5.04-13.47,2.05.66,4.08,1.36,6.11,2.06.75-2.23-.42-4.83.75-7.09.29-.17.42-.35.78-.27.8.18,1.23.8,1.66,1.45.51.77,1.07,1.46,1.67,2.15.01-.23.01-.45.03-.68.17-2.51,1.26-8.37,3.33-9.93.36-.27.42-.17.84-.14.75.68,1.13,1.43,1.6,2.32.56,1.05,1.02,1.82,1.87,2.68.08.08.15.15.24.23-1.19,4.62,1.02,2.17,1.35,6.34.59-1.05,1.14-2.17,1.84-3.15.54-.77,1.18-1.29,2.12-1.43.57.29.83.48,1.07,1.1.86,2.27-.21,5.28-1.01,7.45.8-.57,1.91-1.54,2.85-1.81.69-.2.87-.06,1.4.32.71,1.34.83,3.13,1.07,4.62.32-.38.63-.75.95-1.11.95-1.1,2.15-1.08,3.37-1.73.07-.23.15-.45.24-.68.29-.78.41-1.01,1.14-1.33,2.33.3,4.11,1.99,5.49,3.76.3.39.57.66,1.01.93l.54-.45c.33-.9-2.09-2.42-2.51-4.02-.12-.47.26-.92.51-1.29.06-.08.11-.15.17-.24l-.89-.84c-.17-.59-.74-9.15-.59-9.66.27-.23.35-.41.74-.38,2.53.23,5.9,4.44,7.38,6.25-2.61-5.03-4.61-9.12-5.06-14.86,4.52,1.76,4.5,3.51,6.61,7.38-.29-2.06-.72-5.81.15-7.72.21-.47.09-.3.65-.5.45.26.68.38,1.19.47l-.13-2.83ZM203.84,370.57c2.69-1.94,5.36-3.78,8.29-5.36,2.84-1.52,6.12-2.77,8.68-4.74,3.04-2.35,5.64-6.32,8-9.34l11.56-14.85c-2.38.98-6.23,3.85-8.76,2.9-.47-.5-.47-.53-.54-1.22.29-.66,1.87-2.23,1.82-2.66l-.26-.08c-4.11,1.6-7.85,3.76-11.69,5.9-8.86,4.94-17.35,9.96-21.64,19.67-2.2,4.97-2.71,9.99-2.74,15.36l7.27-5.58ZM175.71,368.52c1.55,1.31,3.07,2.62,4.59,3.96-5.48-16.18-11.92-30.17-28.08-38.22-.14-.06-.26-.12-.39-.18l-.17,3.64c-1.87-.48-3.78-.92-5.63-1.46l-.69,3.16c5.06,7.85,10.31,15.79,18.18,21.11,4.03,2.72,8.43,4.89,12.19,7.99M183.4,350.28c.53-8,.92-16.18.71-24.2-1.9.18-5.34,1.23-7.03.54-.32-.33-.36-.24-.36-.63-.03-2.2,2.24-5.67,3.17-7.72-1.49,1.41-4.8,4.92-7.04,4.79-.63-.03-.99-.32-1.32-.84-.96-1.52-.15-4.48.47-6.05.47-1.19,2.15-3.25,2.11-4.38l-.15-.15c-1.25.93-5.22,4.74-6.42,5.03-.18.04-.68,0-.87-.03-.56-.07-1.17-.38-1.66-.1,2.17,4.02,4.6,8.01,6.53,12.14,3.31,7.15,7.13,17.88,11.6,24.03.09-.75.3-1.64.27-2.42M151.26,358.57l5.42,1.16c-2.44-2.57-4.76-5.22-6.88-8.07-3.11-4.2-10.16-16.84-14.7-18.37-.23.8-.47,1.41-.08,2.21,1.57,3.1,6.14,4.73,5.07,8.95-.33,1.32-1.01,2.33-1.9,3.34-.63-.41-1.25-.96-2.03-.92-.41.93.08,2.57-.03,3.69,1.78,2,2.89,3.67,3.9,6.14,3.73.63,7.46,1.34,11.23,1.87M199.67,342.47c4.27-6.74,9.83-13.48,13.08-20.72-1.37.57-2.78,1.38-4.29,1.25-.44-.38-.57-.42-.62-1.04-.13-1.61,1.13-3.15.9-4.73-4.47,2.95-7.22,7.67-11.01,11.36-.63,5.78-.95,12.08-.54,17.89.81-1.35,1.7-2.66,2.48-4.02M226.68,359.76c6.23-1.88,16.75-4.21,20.12-10.38.11-.2.21-.39.3-.57l-.07-.35c-.56-2.65.66-4.24.96-6.79-.4.15-.26.02-.45.35-.96,1.65-2.63,2.75-4.5,3.19-.99.24-1.87.39-2.86.12-.42-.42-.53-.54-.45-1.2.09-.89.65-1.94,1.1-2.71,1.01-1.41,2.44-2.63,3.29-4.12-1.7,1.1-2.72,2.32-3.9,3.93-4.77,5.93-9.69,11.95-13.54,18.54M279.69,213.06c-.39.65-.75,1.1-.66,1.88.41.39.48.48,1.08.5.86,0,1.88-.36,2.71-.63.86-1.17,1.99-3.19,3.51-3.49.77-.15,1.68.09,2.29.6.06.05.1.11.15.17.57-.41,3.22-9.06,5.34-9.42,1.07.96,1.65,3.19,2.17,4.55.3-2.76.65-7.3,2.89-9.19.72-.62,1.55-.75,2.47-.68.71-2.32-1.28-4.89-.62-6.34-1.25-.77-5.28-.65-6.88-.6.62.38,1.62.84,1.85,1.57.14.47.11.98.26,1.44.39,1.13,1.45,1.76,1.46,3.09-.36.39-.41.47-.98.5-2.66.09-5.57-2.03-8.01-2.93,1.93,1.43,4.38,2.87,5.45,5.07-.01.39.09.62-.24.89-1.52,1.29-7.55.45-9.57.35.87,1.11,2.56,2.83,2.32,4.38-.09.66-.45.93-1.01,1.22-1.2.63-3.52.06-4.83-.15,1.43,1.04,2.69,2.15,3.87,3.48-.57,1.16-1.13,2.09-2.06,2.99-.98.26-1.97.53-2.95.78M162.49,334.51c2.59,1.96,5.16,3.96,7.79,5.85-2.75-5.33-7.06-17.4-10.74-21.19-.9-.93-1.79-1.32-2.98-1.78l-.38-.15-.23-.09c.24,2.29.9,5.4-.57,7.4-.36.5-.86.84-1.46.95-2.45.42-5.79-4.17-7.49-2.65.26,1.31,2.63,2.81,3.72,3.55,4.11,2.81,8.4,5.01,12.34,8.1M95.9,202.8c-1.88-.68-3.81-1.26-5.73-1.76-.89-.23-3.75-.53-4.32-.93-.09-.06-.12-.2-.18-.29-.62-.93-2.45-2.42-2.66-3.33.5-.83,5.22-1.87,6.47-2.48.3-.15.6-.3.9-.47-3.33-1.01-6.98-1.93-10.04-3.6l-.18-.1.3-.15c1.26-.65,5.03-1.55,5.45-2.72-.57-.24-.27-.21-.86-.06-2.45.62-4.68.18-7.03-.71,1.14,3.34,2.24,6.64,2.86,10.13-.75.84-1.38,1.65-1.28,2.84.1,1.14.74,2.02,1.64,2.69.68.5,1.35.96,2.06,1.41.63-1.17,1.24-2.36,1.9-3.51,1.13,3.01,3.73,7.07,6.73,8.47,1.2.56,2.44.65,3.67.14,1.64-.69,2.59-2.29,3.6-3.69-1.1-.74-2.12-1.4-3.29-1.9M212.67,340.31c5.21-2.95,15.17-7.54,19.1-11.69-.24-1.05-.45-2.14-.78-3.16-1.48,1.48-3.02,2.53-4.68,3.78-.8-1.04-1.51-2.06-2.18-3.19l.5-1.05c-.17-.41-.03-.3-.28-.45-1.55,1.16-1.93,3.13-3.34,4.32-2.03,1.71-4.41,2.99-6.64,4.42-4.41,2.83-7.16,7.62-9.4,12.22,2.57-1.73,5.12-3.49,7.72-5.19M227.6,236.54c1.7-.51,3.42-1.11,4.3-2.77.51-.96.57-2.05.18-3.07-.54-1.43-1.87-2.47-3.27-3.01-1.19-.45-2.44-.57-3.7-.5-1.57.41-3.3.84-4.2,2.32-.45.75-.59,1.6-.38,2.45.36,1.47,1.58,2.71,2.86,3.45,1.19.66,2.82,1.23,4.2,1.13M106.34,272.59l1.57.45c.32-.56.33-.95.42-1.57,1.4-1.53,3.13-2.5,4.45-4.15-5.55,2.47-7.42,3.4-13.83,2.9.05-.09.07-.18.12-.27,1.01-2.14,4.33-5.82,3.64-8.16l-.75-.56c-.81.87-.96,1.14-1.22,2.29-.15.69-.23,1.11-.75,1.63-1.51.66-2.96.59-4.58.56-1.08,1.73-1.97,2.63-3.75,3.7,1.37.57,2.71,1.08,4.14,1.5.71,1.14,1.04,1.96,2.47,2.3,2.72.68,5.42-1.64,8.07-.63M285.85,273.13c1.19-.62,2.33-1.14,2.72-2.53.23-.8-.03-1.67-.47-2.33-1.1-1.73-3.51-3.01-5.48-3.4-.74-.15-1.43-.15-2.18-.11-1.13.36-2.57.81-3.11,1.99-.29.62-.18,1.26.11,1.85,1.02,2.06,3.87,3.61,6,4.26.81.24,1.58.29,2.41.27M128.3,138.26l.99.05c.15-1.1-.56-2.14-1.19-3.01-1.91-2.62-5.34-5.24-8.62-5.57-.45-.05-.9-.03-1.36,0-.98.51-1.93.9-2.17,2.08-.14.68.12,1.28.54,1.79,2.47,3.01,8.2,4.09,11.8,4.67M256.82,137.32c2.72-.36,5.4-.75,7.21-3.07.51-.66.89-1.44.77-2.32-.06-.42-.3-.75-.63-1.02-1.11-.92-3.13-.8-4.47-.68-3.94,1.58-6.26,3.93-9,7.09,2.05.06,4.08.09,6.12,0M186.89,146.38c1.4-.38,2.77-.89,3.57-2.18.45-.72.56-1.58.36-2.41-.33-1.32-1.37-2.44-2.54-3.09-1.01-.56-2.11-.72-3.24-.86-1.37.36-3.08.92-3.88,2.18-.38.6-.47,1.32-.29,2,.38,1.49,1.78,2.68,3.07,3.36.89.5,1.96.83,2.95.99M164.35,219.55c1.23-.69,2.47-1.31,2.93-2.74.3-.95.15-1.91-.36-2.77-.75-1.25-2.26-2.23-3.67-2.53-.74-.15-1.55-.12-2.29-.12-1.29.72-2.6,1.46-3.02,3-.27.96-.06,1.93.48,2.74.81,1.22,2.39,2.11,3.82,2.36.69.12,1.41.08,2.11.06M240.96,163.42c1.37-.62,2.62-1.16,3.19-2.63.3-.77.23-1.64-.13-2.38-.57-1.17-1.85-2.02-3.09-2.36-.99-.29-1.94-.21-2.95-.12-1.25.68-2.48,1.38-2.95,2.82-.27.83-.21,1.7.21,2.47.63,1.17,1.88,1.88,3.14,2.2.87.21,1.7.12,2.57.01M113.35,110.68c-.62.53-1.08.87-1.32,1.67.18.38.35.62.6.96.33.47.36.65.39,1.2-.42-.12-.62-.23-.98-.44-.6-.35-1.16-.5-1.82-.63l-.48.22-.06.54c.48.54.98,1.04,1.52,1.52-.03.53-.21.81-.45,1.28.24,1.37,1.07,1.94,2.17,2.69.84.57,1.64.78,2.63,1.01.47-.17.83-.33,1.23-.62,0-2.09-1.08-3.02-2.48-4.41l-.71-.69.04-.15c1.38.53,3.85,1.54,5.28.86.68-.32.69-.48.89-1.14-.25-1.2-.93-1.97-1.94-2.66-1.34-.93-2.9-1.23-4.51-1.22M74.87,338.97c-1.87-.3-3.43-.05-5.28-.03-2.47.03-4.83-.26-7.24-.78,2.47,1.25,4.15,2.03,5.76,4.35,1.33.24,2.38.53,3.54,1.2.32,1.14.42,2.17.5,3.34,1.4.14,4.21.69,5.4.06h-.14s-.15-.33-.15-.33c-1.46-.65-2.47-.92-3.27-2.36v-.56c.83-.5,1.91-.21,2.57-.89-.48-1.02-1.93-.77-1.19-2.39.45-1.01,1.87-2.17,1.59-3.32l-2.11,1.71ZM289.25,158.69c-1.44.83-2.15,2.35-2.93,3.75,1.25-1.02,2.38-2.11,3.49-3.28.38.5.81.93,1.25,1.39.24-.47.18-.5.68-.74.77.24,1.07.48,1.61,1.08.06.06.1.12.16.2.96.23,2.05-.32,2.95-.62l.54-2.98c-2.6.56-5.19.44-7.75,1.2M128.67,322.85c1.26-.57,2.48-1.32,2.89-2.74.21-.69.04-1.07-.23-1.71-.77-.69-1.58-.93-2.62-.98-1.11.81-2.5,1.91-2.74,3.39-.12.75.02.92.41,1.53.83.45,1.32.54,2.29.51M252.97,319.51c-.63.57-1.26,1.1-1.31,2.02-.01.5.26.93.62,1.26.98.87,2.02,1.07,3.28,1.16.56-.45,1.11-.92,1.29-1.65.15-.63-.06-1.07-.45-1.56-.75-.95-2.3-1.15-3.43-1.22M250.55,66.51c-.98.42-1.94.75-2.32,1.83-.33.96-.23,2.02.27,2.9.18.32.2.32.41.54.53-.03.33.08.65-.2,1.32-1.04,2.42-1.94,3.08-3.54-.04-.75-.03-.72-.57-1.25-.53-.14-.96-.27-1.52-.3M198.22,323.86c1.48-1.68,4.51-4.89,4.5-7.28,0-.48-.01-.62-.35-.93-1.28,1.54-2.41,2.47-4.24,3.36-.15,1.66-.3,3.22.09,4.86M178.63,65.55c.42-.6.81-1.11.66-1.91-.23-1.17-1.37-1.88-2.35-2.41-.5-.27-1.01-.47-1.54-.66-.65.78-1.22,1.42-1.01,2.51.17.84.81,1.37,1.52,1.76.83.48,1.78.6,2.71.71M128.7,68.3c-.48.6-.86,1.04-.98,1.82.15.68.33,1.17.93,1.57.9.6,1.9.78,2.95.78.51-.54,1.14-1.14,1.17-1.94.03-.63-.23-1.07-.68-1.49-.86-.8-2.32-.81-3.4-.74M97.3,105.33l-1.28.68c-.15.59-.14.29-.06.9-.47.29-.92.53-1.41.75-.17.3-.09.41-.03.74.48.51.87.83,1.49,1.17,1.01-.95,2.26-1.9,2.89-3.13v-.6c-.59-.44-.93-.45-1.59-.51M309.76,196.33c-.74.71-1.4,1.29-1.46,2.39-.09,1.75,1.13,2.66.48,4.68l.13.21c.39-.36.74-.71,1.05-1.14.81-.83,1.65-1.34,2.65-1.91-.86-1.22-1.65-2.36-2.33-3.7-.26-.51-.12-.39-.53-.53M286.39,140.59c.98-.04,1.35-.04,2.02-.8.63-.71.86-1.37.98-2.29l-.23-.54c-.56-.15-.66-.2-1.2-.04-1.73.42-2.87.72-3.91,2.29-.18.27-.21.48-.21.78.35.5.45.68,1.13.75.44.06,1.01-.09,1.43-.15M43.85,279.05c2.41-.06,4.63-.6,6.38-2.41.22-.23.33-.44.41-.74-.59-.32-.75-.24-1.4-.24-1.1.13-1.75.47-2.66,1.1-1.14,0-1.31-1.32-2.23-.81-.41.78-.8,1.5-1.04,2.36.17.48.08.47.54.74M325.51,229.15c.62-.53,1.01-.84,1.28-1.64-.06-.69-.08-.9-.6-1.41-.69-.68-2.11-.9-3.01-1.04-.65.65-.93.99-1.13,1.88.17.78.33,1.28,1.05,1.7.72.44,1.58.48,2.41.51M237.21,301.09c.51-.54,1.1-.98,1.11-1.81.01-.59-.39-1.1-.83-1.43-.8-.62-1.76-.66-2.72-.69-.62.63-1.11,1.04-1.23,1.97.21.68.33.99.96,1.37.8.48,1.79.53,2.71.59M111.59,145c.27-.68.59-1.32.29-2.06-.33-.78-.95-1.16-1.71-1.4-.9-.29-1.82-.39-2.75-.48-.23.74-.47,1.37-.12,2.12.35.77,1.07,1.17,1.85,1.41.81.24,1.62.33,2.45.4M284.36,112.35c1.05-.47,1.52-1.7,1.05-2.76-.47-1.05-1.7-1.52-2.75-1.05-1.05.47-1.54,1.7-1.07,2.75.47,1.05,1.7,1.52,2.77,1.05M89.58,99.9l.32.3c.59-1.05.09-3.21-.24-4.3-.21-.69-.41-1.26-.89-1.8h-.78c-.71.14-1.31.15-1.87.63.06.07.1.15.17.23,1.19,1.76,1.49,3.69,3.3,4.95M320.55,301.11c-.02.99.07,1.4.57,2.24.27.47.66.89.45,1.44-.04.1-.3.44-.38.54l.14.2c1.67.06,3.43-.29,5.06-.63l.69-.33c-.14-.59-.24-.62-.72-.95-1.73-1.16-3.94-1.65-5.81-2.51M268.83,140.2c.98-.45,1.44-1.6,1.02-2.6-.42-.99-1.55-1.49-2.56-1.11-.69.26-1.19.87-1.28,1.59-.11.72.2,1.46.78,1.9.59.44,1.36.53,2.03.23M104.54,142.74c-.01-1.17-.12-1.94-.99-2.8-.98-.98-2.53-1.37-3.87-1.34.15,1.28.71,2.38,1.76,3.16.96.72,1.93.95,3.1.98M88.68,159.23c.41-.72.63-1.1.51-1.96-.48-.92-1.1-1.22-2.05-1.52-.48-.15-.96-.26-1.44-.35-.38.87-.66,1.4-.42,2.35.47.75.95,1.07,1.79,1.26.53.12,1.07.2,1.61.21M301.03,185.84c.54.53.96.87,1.68,1.17l.63-.2c.54-1.11.2-2.42-.06-3.61-.39-.18-.23-.15-.48-.17-1.4.17-2.36.98-3.72,1.19-.3.05-.59.11-.89.17.74.71,1.97.83,2.83,1.45M288.19,96.65c-1.01.75-2.03,1.6-2.26,2.92-.09.56.05.81.32,1.26.35.15.71.39,1.08.38,1.01-.93,2.27-1.94,2.35-3.42-.24-.51-.54-.92-1.13-1.08-.11-.03-.23-.03-.36-.06M146.2,124.47c-.01-1.1-.04-2.09-.84-2.93-.72-.77-1.67-.9-2.68-.99-.21.96-.5,1.99.15,2.87.71.95,2.27.99,3.37,1.05M81.9,339.72c1.14-.86,1.23-1.76,1.49-3.11,1.61-1.11,2.36-2.72,3.24-4.42-.24-.32-.09-.23-.39-.32-1.7,1.49-4.6,4.57-4.8,6.98-.04.48.15.51.47.87M210.68,132.16c-1.25,1.01-2.33,1.84-2.54,3.55-.09.69.02,1.38.48,1.94.75.92,2.09,1.11,3.21,1.08.33-.01.29-.01.56-.05,1.08-.57,2.15-1.17,2.57-2.41.27-.78.2-1.57-.18-2.3-.44-.86-1.45-1.45-2.35-1.67-.59-.13-1.16-.13-1.75-.15M145.92,301.51c.71-.5,1.2-.8,1.55-1.62-.08-.68-.05-.87-.68-1.3-.45-.3-1.29-.42-1.82-.44-.69.53-1.14.83-1.42,1.7.12.69.11.89.74,1.28.42.27,1.14.38,1.62.38M184.35,39.6c.26-.96.53-1.92.72-2.92-1.1-1.48-2.57-2.98-4.26-3.73,1.19,2.21,2.08,4.47,3.07,6.79l.32.06.15-.2ZM287.16,345.44c-1.11.32-2.14.6-3.16,1.16v.27l.5.04c1.11-.04,2.03-.04,3.07-.51.17-.24.33-.33.29-.63l-.5-.3.16.02-.36-.05ZM268.6,340.67c.26-.77.44-1.23.2-2.05-.63-.78-1.31-.84-2.24-.95-.38-.05-.77-.08-1.14-.11-.26.74-.33,1.11-.23,1.9.42.57.74.92,1.47,1.07.6.13,1.31.12,1.94.13M111.73,344.53c.15-.84.21-.99.75-1.65.68-.23,1.16-.1,1.84.03.26-.57-.03-1.19-.26-1.76-.08-.21-.18-.41-.26-.6l.18-.96-.3-.29c-1.41,1.39-3.22,2.36-4.89,3.39,1.17.47,2.05.9,2.93,1.85M101.5,214.85c.27.89.47,1.9,1.4,2.3,1.05.45,2.68-.05,3.76-.27-1.02-1.2-3.63-1.76-5.16-2.03M53.19,231.76c1.57-.56,2.93-1.08,4.05-2.39l.07-.5c-.75-.77-1.29-.78-2.33-.78h-1.35c-1.26,1.61-2.65,3.24-3.75,4.96l3.31-1.29ZM16.87,255.19l.15-.3c-1.68-.53-4.08-.59-5.87-.59l-.14.71c.68.63,1.51.62,2.39.59,1.17-.04,2.32-.21,3.46-.41M196.66,55.81c-.59.8-1.25,1.56-1.1,2.62.08.44.32.74.68,1.01.3.23.84.38,1.2.51.6-.77.92-1.23,1.08-2.2-.13-.66-.29-1.02-.84-1.45-.27-.23-.72-.38-1.02-.5M181.32,84.82c-.06.92-.15,1.87.5,2.63.44.51,1.11.74,1.76.84,0-.95.1-2.08-.68-2.77-.44-.41-1.04-.54-1.58-.71M326.43,301.51c-.8-1.01-1.6-1.92-2.54-2.8l-2.96-.24c1.13,1.99,3.45,2.44,5.51,3.04M63.55,258.66c.8.71,1.58,1.44,2.45,2.06l.42.06c1.65-1.28,6.62-5.03,7.39-6.67-.3-.54-.38-.56-.95-.83-2.92,2.32-6.32,3.24-9.31,5.37M133.1,83.02c-.1-.74-.15-1.67-.74-2.18-.59-.53-1.47-.6-2.23-.71.09.84.12,1.46.66,2.17.77.47,1.4.59,2.3.72M54.71,255.09c.62-.39.96-.51,1.28-1.19-.74-.53-2.08-.36-2.99-.35-.57.18-1.02.17-1.32.72.45.54,1.28.71,1.96.81.38.05.72.01,1.08,0M261.53,69.99c-.83.87-1.74,1.7-2.18,2.84.09.62.09.84.68,1.22.47.29,1.46.41,2,.51.56-.56,1.17-1.43,1.22-2.23.03-.69-.3-1.08-.78-1.53-.3-.29-.62-.54-.93-.81M250.77,77.69c-.03.08-.04.14-.07.21-.65,1.62-2.21,2.39-1.94,4.26.44.62.74.92,1.37,1.32,1.32-1.2,1.7-2.71,2.24-4.35-.57-.45-1.14-.87-1.6-1.45M82.39,254.71c1.64-.69,5.4-1.9,6.08-3.66.15-.41,0-.84-.06-1.26l-.35-.11c-1.08.8-3.31,2.84-4.62,2.86-.47,0-1.08-.33-1.51-.54-1.41.18-1.65.99-2.74,1.7-.8.53-1.82.89-2.69,1.31-.26.57-.2.84.01,1.43.29.81.69,1.61,1.05,2.39.74.38.9.47,1.73.44,1.78-.87,2.12-3.01,3.09-4.56M140.23,112.74c-.74.41-1.28.66-1.73,1.41-.07.66-.11,1.02.29,1.6.8,1.17,3.02,2.2,4.39,2.33.47.05.95.03,1.41-.03.81-.5,1.37-.83,1.85-1.67.07-.71.11-1.05-.33-1.65-.83-1.13-3.04-1.87-4.38-1.97-.5-.02-.99-.02-1.51-.02M78.5,168.07c.21-1.6.44-2.6,1.46-3.85.62-.23.78-.33,1.41-.01,1.02.5,1.84,1.88,2.99,2.03l.12-.23-.51-1.29.23-.29,1.14.03.2-.35c-.2-.56-.84-1.34-.93-1.82-.27-1.33.71-2.03-.92-2.89-.07-.05-.15-.07-.24-.11-.95,1.07-1.28,1.25-2.75,1.33-1.46.06-2.26-.35-3.46-1.1.86,1.16,1.64,2.27,2.29,3.57-.8.53-1.58,1.05-2.47,1.41-1.35.53-3.38.51-4.21,1.85l.21.33c.78.05,1.22-.19,1.88-.54,1.2.62,2.39,1.26,3.57,1.93M177.89,54.1c.09-.78.23-.98-.28-1.64-.53-.69-1.49-1.22-2.29-1.53.36,1.08.63,2.24,1.43,3.1.56.23.57.24,1.14.08M251.28,352.12c.57-.65,1.11-1.02,1.23-1.88-.24-.26-.44-.45-.74-.65-.42.78-1.04,1.67-1.11,2.56l.35.12.27-.15ZM157.91,50.2c-.8,1.46-3.82,2.23-3.36,3.54.33.95,1.67,1.65,2.5,2.12.81-.24,1.52-.42,1.96-1.22.5-.9.75-2.38.38-3.36-.29-.74-.57-.78-1.23-1.11l-.24.03ZM183.33,59.65c.21-1.01.45-2.11-.21-3.01-.48-.68-1.32-.95-2.09-1.17-.13,1.07-.24,2.08.44,3.01.42.57,1.17,1.01,1.87,1.17M216.01,328.51c1.16-.78,2.53-1.6,3.1-2.93l-.13-.47c-.51-.24-.84-.32-1.4-.35-.96,1.11-2.24,2.54-2.62,3.99l.21.23.84-.47ZM299.13,148.17c.95-.78,2.24-2.32,2.27-3.63.02-.41-.03-.47-.1-.83l-.53-.45c-.78,1.22-2.33,3.06-2.11,4.53l.47.38ZM267.95,112.8c-2.6.53-6.09,1.55-7.67,3.88-.32.45-.23.32-.32.84.38.54.66.66,1.34.77,1.88.3,8.25-.47,8.83-.14l.11,1.67.56.39c-.01.71-.07.95.27,1.58.75.26,1.2.18,1.91-.18,1.46-.75,2.54-1.77,3.54-3.05-1.51-.35-2.09-.59-3.21-1.69-.47-.45-.96-.86-1.5-1.22.47-.95.95-1.87,1.26-2.87-1.73-.09-3.4-.11-5.12.02M253.96,84.81c-.8.56-1.82,1.1-1.94,2.18-.11.96.62,1.85,1.13,2.59.84-.78,1.82-1.72,1.76-2.98-.01-.68-.44-1.34-.95-1.79M126.6,85.95c.21,1.16.36,1.85,1.38,2.56.89.6,1.94.98,2.89,1.49-.1-1.07-.08-2.42-1.02-3.13-.8-.6-2.3-.72-3.25-.92M150.22,88c.36.89.63,1.85,1.58,2.26.5.21,1.02.32,1.55.42-.18-.87-.27-1.46-.9-2.14-.77-.41-1.37-.48-2.23-.54M295.82,319.61c.74-.16,1.43-.29,1.87-1.01.35-.57.32-.84.23-1.44l-.17-.16c-.87.33-2.11.59-2.6,1.41.09.69.24.71.68,1.2M130.1,350.69l-3-.39c-.53-.72-1.08-1.69-1.83-2.15-.06.99,0,1.61.66,2.39,1.13,1.35,3.04,1.88,4.74,1.97.5.03.96-.01,1.46-.06-.65-.65-1.29-1.22-2.03-1.76M142.41,147.72c-.63.69-1.26,1.35-1.11,2.38.14.84.78,1.4,1.49,1.81,1.02.6,1.97.72,3.15.8.56-.68,1.08-1.29.89-2.24-.19-.98-1.14-1.64-1.99-2.05-.77-.38-1.58-.56-2.42-.69M104.61,118.6c-.36,1.37-.36,2.2.33,3.46.5.9,1.4,1.63,2.39,1.93.51.15.99.14,1.52.08.53-.99.89-1.91.54-3.05-.32-1.05-1.02-1.73-2-2.2-.87-.42-1.87-.27-2.78-.21M335.29,313.47c.98,1.23,2.24,3.23,3.69,3.9-.47-1.38-.84-2.78-2.29-3.42-.45-.2-.93-.33-1.4-.48M270.33,171.53c1.01.71,1.93,1.32,2.6,2.39.38.57.83,1.51,1.43,1.79.29-.42.51-.83.72-1.28.11.03.2.05.3.08.36.08.56.06.9-.01,1.45-1.2,3.94-4.77,4.23-6.53l-.35-.21c-3.1,1.73-7.07,1.63-9.84,3.78M69.79,208.19c.32-1.36-.03-2.24-.74-3.43s-2.11-2.68-3.49-3.01c-.32-.08-.71-.06-1.02-.08-.27.74-.39.92-.21,1.72.83,1.01,1.99,1.7,3.07,2.41.98.65,1.65,1.49,2.39,2.39M225.76,54.77c.72-1.22,1.49-2.54,1.17-4.03-.17-.77-.57-1.4-1.01-2.03-.59,1.63-1.71,3.73-1.08,5.46.3.21.6.42.92.6M128.28,79.33c.5-.56.53-.6.63-1.34-.35-.96-.96-1.99-1.88-2.51-.29-.17-.63-.18-.95-.23-.33.35-.83.66-.77,1.16.11,1.07.92,1.57,1.73,2.15.39.3.78.54,1.23.77M206.76,46.99c-1.57.9-3.55,3.94-4.09,5.63-.27.83.12,1.39.43,2.12.72-.66.75-1.28.9-2.21.33-2.08,2.75-3.69,2.75-5.54M296.34,252.29l-3.45,1.23c1.22.53,2.42,1.05,3.63,1.61l.59.26c.6-.35.63-.47.95-1.1.02-.69-.03-.95-.41-1.54-.45-.17-.86-.33-1.31-.47M230.92,86.25c-.59.41-1.31.78-1.49,1.54-.15.66-.09.84.23,1.38.6.14.8.21,1.37-.1.17-.09.36-.27.51-.39.69-.51,1.37-.92,1.81-1.68-.63-.53-1.61-.26-2.42-.74M61.39,196.37c-1.93-3.17-3.82-5.22-7.4-6.35l-.27.29c-.81.83-3.84,2.54-4.11,2.96-.13.23-.13.51-.21.77.38.96.89,1.31,1.82,1.71,2.09.92,3.78,1.04,6.03.86,1.38-.09,2.77-.14,4.14-.24M271.91,86c-.87,1.47-1.5,2.74-1.43,4.5.56.13.3.16.78-.06.75-.18,1.26-.14,1.65-.9.38-.74.3-1.57-.01-2.3-.23-.56-.53-.87-.99-1.23M164.68,106.24c-.9.09-1.69.66-2.06,1.49-.36.83-.24,1.81.3,2.53.56.72,1.45,1.1,2.35.96,1.35-.2,2.29-1.43,2.14-2.78-.15-1.35-1.37-2.33-2.72-2.2M72.09,241.23c1.13-.6,2.36-1.22,2.65-2.6.17-.8-.15-1.53-.66-2.14-1.15-1.31-2.82-1.91-4.5-1.97-.33-.01-.66-.01-.99-.01-1.02.53-2.24,1.01-2.71,2.15-.29.69-.18,1.46.21,2.08.74,1.19,2.44,2.12,3.78,2.35.74.15,1.51.17,2.23.15M308.54,235.02c-.95.6-1.81,1.08-2.09,2.26-.17.71-.02,1.31.36,1.93.57.93,1.85,1.57,2.89,1.72.38.06.77.09,1.14.1,1.01-.54,1.91-1.01,2.32-2.14.21-.6.2-1.29-.08-1.88-.45-.96-1.52-1.67-2.53-1.89-.68-.15-1.34-.12-2.02-.09M90.53,133.05c.06,1.11-.07,2.89.75,3.73.62.63,1.87.84,2.71,1.04l.21.69.47-.03c.06-.11.11-.21.17-.32.29-.53.48-.75.93-1.13.92-.33.98-.32,1.54-1.19l-.08-.53-.6-.41c-.78.24-1.9.84-2.66.5-1.35-.63-1.57-1.82-3.43-2.36M268.24,267.8c-.69.51-.93.54-1.16,1.4.29.83.78,1.2,1.54,1.6,2.21,1.16,4.75,1.55,7.19,1.87l.53-.24c-.21-.63-.57-.84-1.13-1.16-2.33-1.28-4.83-1.82-6.97-3.46M220.36,102.73c-1.19.51-1.76,1.88-1.28,3.09.48,1.2,1.84,1.8,3.05,1.37.81-.3,1.41-1.02,1.55-1.88.14-.86-.21-1.73-.9-2.27-.69-.53-1.62-.65-2.42-.3M118.5,75.27c-.15-.77-.24-1.41-.9-1.91-.8-.6-2.2-.63-3.17-.77.21,1.01.36,1.96,1.34,2.51.83.47,1.85.33,2.74.17M319.25,204.83c-.71-1.22-1.37-2.74-2.66-3.4-.83,1.01-2.29,2.32-2.23,3.7.01.45.23.54.5.87,1.76.54,3.13.02,4.74-.68,1.31,1.52,2.89,3.27,4.59,4.33,1.49-.75,2.38-1.4,3.33-2.77-2.96-.26-5.61-.65-8.26-2.06M58.41,205.48c-1.67-1.49-3.04-2.29-5.19-3.01-.5-.17.02,0-.62-.27-.51-.22-.96-.18-1.51-.18l.29.29c2.09,2.02,2.71,3.9,3.36,6.64l.1-.12.08.39c.27-.53.51-1.04.72-1.58l1.04-.68c.65-.45,1.19-.92,1.73-1.47M189.32,69.29c-.68.77-1.32,1.35-1.19,2.47.09.71.38,1.16.95,1.56.75.54,1.82.56,2.69.44.59-.57,1.34-1.19,1.41-2.06.04-.62-.15-1.13-.59-1.57-.86-.81-2.18-.87-3.28-.84M318.56,199.79c2.02-.2,4.18-.29,6.11-.93l.26-.29c1.46-1.68,3.14-2.98,5.45-3.07,1.13-.04,3.39.5,4.26,0,.02-.54.11-.36-.24-.74-1.47-1.53-4.12-2.14-5.94-3.17-3.25,2.74-7.03,5.06-9.89,8.2M148.78,213.92c-.32.99-.42,1.58.14,2.54.81,1.41,3.1,1.72,4.54,1.97l.47.08c.26-.86.48-1.55.04-2.41-.56-1.13-1.64-1.69-2.81-2-.81-.21-1.56-.24-2.38-.18M315.79,257.47c-2.02-2.15-4.02-3.75-6.52-5.33.03,1.91-.12,3.66,1.37,5.09,1.46,1.38,3.88,2,5.54,3.22l-.39-2.98ZM72.18,195.88c-.84.99-1.93,2.15-1.64,3.58.15.75.32.87.87,1.34.99.23,1.8.27,2.72-.26.89-.24,1.48-.29,2.14-.95,0-.65-.04-.93-.53-1.4-.98-.96-2.36-1.63-3.57-2.32M76.47,285.5c-1.11.51-2.56,1.14-2.87,2.48-.14.53.01,1.02.41,1.42.62.62,1.84.71,2.66.74,1.01-.42,1.94-.75,2.45-1.81.22-.44.21-.77.19-1.23-.32-.63-.54-.95-1.22-1.24-.48-.21-1.11-.3-1.63-.36M235.62,66.87c-1.16.29-2.54.77-3.15,1.91-.33.65-.18.95.02,1.58.68.72,1.38.92,2.33,1.13,1.32-.36,2.51-.63,3.21-1.94.18-.35.19-.68.21-1.05-.27-.62-.59-1.07-1.23-1.31-.44-.15-.92-.23-1.38-.32M278.55,99.22c-.86.89-1.5,1.66-1.5,2.95,0,.72.27,1.37.78,1.88.59.56,1.28.75,2.06.89,1.04-.81,1.65-1.51,1.82-2.85.11-.78-.1-1.55-.66-2.14-.72-.72-1.55-.74-2.5-.74M144.82,68.89c-.66.35-1.28.56-1.61,1.28.04.66.09.96.59,1.43.99.93,2.65,1.4,3.97,1.49.86-.54,1.78-1.13,2.02-2.18.09-.44-.09-.65-.26-1.04-1.62-1.29-2.72-1.16-4.71-.98M101.48,95.72c-.78.66-1.66,1.23-1.72,2.35-.01.39.12.75.39,1.07.96,1.1,2.98,1.22,4.32,1.17.74-.66,1.55-1.23,1.58-2.32.01-.51-.24-.99-.63-1.31-1.17-.99-2.51-.98-3.94-.96M120.49,163c-.47.56-.98,1.11-.98,1.88,0,.65.36,1.22.84,1.61,1.2.99,3.16,1.38,4.69,1.23.42-.54,1.01-1.13.96-1.87-.03-.68-.38-1.22-.92-1.61-1.29-.9-3.05-1.14-4.61-1.25M303.66,287.04c-.62.47-1.53,1.02-1.71,1.83-.14.63.01,1.08.41,1.58.86,1.11,2.72,1.19,3.97,1.19.89-.53,1.79-.96,2.03-2.05.09-.39-.02-.8-.24-1.14-.63-.95-2.08-1.4-3.15-1.44-.43-.01-.87.02-1.31.03M123.32,200.83c-.29.75-.35,1.35-.03,2.11.65,1.57,2.62,2.63,4.11,3.19.95.35,1.91.3,2.89.23-.03-1.4-.24-2.53-1.3-3.55-1.47-1.43-3.72-1.73-5.67-1.97M208.11,225.4c-.95.42-1.87.78-2.23,1.86-.21.63-.07,1.19.24,1.76.53.96,1.82,1.49,2.84,1.67.21.03.44.05.65.08,1.04-.39,1.96-.65,2.39-1.78.23-.59.21-1.2-.06-1.76-.39-.83-1.23-1.44-2.12-1.67-.54-.15-1.14-.17-1.71-.17M42.07,207.13c-1.05.63-2.27,1.27-2.54,2.6-.1.56.06,1.11.45,1.52.98,1.02,2.39.89,3.67.78.98-.5,2-.95,2.42-2.03.18-.48.12-.81.03-1.29-.54-.84-1.1-1.23-2.08-1.48-.66-.15-1.29-.14-1.96-.11M57.68,302.84c-1.45.27-3.12.48-4.05,1.77-.39.54-.42.84-.32,1.49.68.77,1.35.84,2.32.9.53.03,1.02.03,1.55-.03,1.42-.21,2.92-.5,3.85-1.7.42-.54.44-.84.39-1.52-.39-.53-.81-.81-1.47-.89-.74-.09-1.55-.07-2.27-.03M275.27,249.27c-.86.36-1.9.72-2.27,1.67-.2.51-.23.95,0,1.46.38.89,1.55,1.65,2.47,1.87.6.14,1.26.09,1.88.09.96-.51,2-.99,2.3-2.12.12-.42.12-.8-.08-1.2-.38-.84-1.4-1.4-2.26-1.59-.66-.18-1.35-.17-2.05-.17M250.76,210.4c-1.14.5-2.36,1.16-2.83,2.41-.23.59-.23,1.24.12,1.78.45.71,1.25,1.11,2.08,1.22.53.08,1.07.09,1.6.08,1.13-.6,2.2-1.16,2.63-2.45.18-.51.2-1.08-.06-1.58-.44-.86-1.46-1.22-2.35-1.37-.41-.06-.8-.06-1.19-.08M78.44,309.79c-.74.98-1.16,1.7-.98,2.98.2,1.34,1.02,2.38,2.11,3.11.98.68,1.91.84,3.07.89.63-.77,1.08-1.31,1.01-2.36-.09-1.31-.86-2.5-1.87-3.3-1.01-.8-2.03-1.26-3.34-1.33M132.3,277.39c-1.55.9-2.72,1.81-3.19,3.63-.13.53-.07.92.05,1.45.41.6.78.95,1.52,1.1.65.13,1.34.1,1.99,0,1.41-.74,2.74-1.48,3.27-3.09.18-.54.23-1.11-.03-1.64-.35-.71-1.05-1.08-1.79-1.25-.6-.14-1.19-.21-1.81-.2M235.08,122.1c-1.53,1.1-3.01,2.29-3.34,4.29-.09.54-.03.84.14,1.35.57.59.98.83,1.82.86.5.02.93-.01,1.41-.1,1.52-.84,3.02-1.93,3.45-3.73.15-.63.18-1.17-.21-1.73-.5-.71-1.29-.89-2.09-.95-.41-.03-.78-.01-1.17.02M247.19,278.71c-.9.6-1.83,1.13-2.14,2.24-.23.84,0,1.62.5,2.32.84,1.17,2.57,1.76,3.96,1.82h.33c.98-.66,2.05-1.25,2.33-2.48.18-.75-.02-1.54-.5-2.12-1.05-1.29-2.9-1.67-4.49-1.77M105.33,247.69c-.86.56-1.85,1.1-2,2.23-.1.8.32,1.49.87,2.02,1.35,1.28,3.13,1.7,4.92,1.97.86-.56,1.75-1.05,1.96-2.15.15-.8-.18-1.6-.71-2.2-.95-1.08-2.51-1.88-3.96-1.93-.36,0-.72.03-1.08.06M101.99,168.58c-.71.41-1.6.8-1.9,1.6-.21.54-.12,1.11.18,1.6.74,1.16,2.69,2.09,4.02,2.3.66.11,1.35.12,2.02.11.83-.47,1.81-.98,2.03-2,.14-.6-.12-1.13-.47-1.6-.81-1.1-2.87-1.97-4.21-2.06-.54-.05-1.11.02-1.67.06M335.84,207.41c-.77.63-1.67,1.46-1.81,2.51-.12.96.18,1.79.84,2.5,1.15,1.25,2.64,1.7,4.33,1.67h0c.99-.9,1.97-1.78,1.96-3.22-.01-.95-.51-1.73-1.22-2.3-1.17-.93-2.65-1.17-4.11-1.16M237.78,110.55c-1.75.68-2.63,2.62-1.99,4.38.65,1.76,2.57,2.68,4.35,2.08,1.17-.41,2.03-1.41,2.26-2.63.23-1.22-.23-2.47-1.19-3.27-.96-.78-2.27-.99-3.43-.56M239.73,240.13c-1.67.39-3.13.98-4.03,2.53-.33.57-.56,1.25-.35,1.91.23.71.9,1.16,1.58,1.37.68.21,1.46.21,2.17.23,1.55-.36,2.86-.92,3.76-2.3.42-.65.77-1.44.51-2.24-.2-.62-.69-.99-1.28-1.22-.71-.27-1.6-.29-2.36-.27M139.42,240.33c-.66.78-1.23,1.46-1.13,2.57.1,1.11.89,1.96,1.78,2.54,1.67,1.1,3.43,1.55,5.4,1.6.68-.75,1.16-1.28,1.1-2.36-.05-.98-.78-1.9-1.52-2.48-1.65-1.34-3.52-1.94-5.63-1.87M85.57,231.04c-1.25.68-2.06,1.05-2.5,2.47.07,1.04.36,1.55,1.14,2.2,1.48,1.22,2.95,1.47,4.79,1.35.99-.36,1.94-.84,2.47-1.81.2-.36.23-.8.14-1.2-.27-1.13-1.75-2.08-2.72-2.51-1.08-.45-2.15-.51-3.31-.5M133.23,197.76c-.84.59-1.79,1.1-1.99,2.2-.14.77.17,1.52.66,2.09.89,1.02,2.81,1.97,4.18,1.99.48,0,.98-.08,1.46-.15.87-.5,1.81-.98,2.06-2.05.15-.66-.09-1.34-.5-1.85-.84-1.08-2.6-2.08-3.97-2.23-.62-.07-1.28-.03-1.91,0M236.25,184.03c-1.6,1.04-3.52,2.36-4.03,4.33-.13.53-.1.81.03,1.32.49.63.92.92,1.73.99.78.08,1.58-.03,2.35-.12,1.67-.68,3.13-1.55,3.84-3.31.24-.6.35-1.23.05-1.85-.33-.68-1.08-1.11-1.79-1.28-.68-.14-1.46-.09-2.17-.09M84.99,305.36c-1.38.56-2.84,1.11-3.51,2.57-.29.63-.41,1.34-.09,2,.39.86,1.28,1.34,2.15,1.55.77.18,1.58.14,2.38.12,1.41-.38,2.93-.9,3.67-2.27.39-.72.45-1.43.15-2.2-.3-.77-1.13-1.35-1.88-1.6-.9-.3-1.96-.24-2.87-.18M160.27,274.09c-.92.81-1.79,1.57-1.81,2.87-.01,1.04.57,1.94,1.29,2.63,1.43,1.37,3.3,2.14,5.22,2.48.83-.69,1.52-1.35,1.65-2.5.13-1.17-.44-2.26-1.19-3.1-1.28-1.4-3.02-2.3-4.94-2.39h-.24ZM301.62,251.79c-.93.41-1.84.95-2.32,1.88-.32.62-.26,1.23-.01,1.85.53,1.38,2.35,2.45,3.69,2.89,1.07.35,1.96.24,3.06.09.86-.54,1.99-1.22,2.27-2.26.21-.72.12-1.25-.26-1.9-.8-1.38-3.08-2.23-4.56-2.47-.62-.09-1.25-.11-1.87-.09M287.82,305.73l-.48.04v.36c1.47.89,3.76,1.43,5.49,1.38,2.33,2.05-.03,5.58,5.7,5,.44-.04.86-.16,1.28-.27.74-.66,1.32-1.4,1.43-2.42.06-.66-.21-1.23-.66-1.7-2.45-2.5-8.44-2.56-11.75-2.48-.35,0-.66.05-1.01.09M151.62,241.14c-.98.72-1.94,1.41-2.2,2.68-.16.81.09,1.57.59,2.2.99,1.26,2.86,2.09,4.44,2.2.62.04,1.23,0,1.85-.06.9-.65,1.76-1.25,2.03-2.39.2-.81-.03-1.62-.51-2.3-.86-1.19-2.63-2.15-4.08-2.33-.71-.06-1.43-.02-2.12.01M292.93,230.52c-.89.32-2,.86-2.47,1.73-.33.63-.35,1.17-.14,1.85.42,1.34,2.11,2.57,3.34,3.1,1.04.44,2.09.59,3.22.62,1.04-.48,2.36-1.26,2.71-2.44.23-.78-.03-1.52-.5-2.14-1.07-1.46-2.92-2.41-4.7-2.62-.48-.08-.98-.09-1.48-.11"/>
      </g>
    </g>
  </g>
</svg>