<?xml version="1.0" encoding="UTF-8"?>
<svg id="Layer_1" xmlns="http://www.w3.org/2000/svg" version="1.1" viewBox="0 0 288 274.13">
  <!-- Generator: Adobe Illustrator 30.5.1, SVG Export Plug-In . SVG Version: 2.1.4 Build 3)  -->
  <path d="M285.71,88.33c-3.76-42.98-21.4-65.42-43.2-75.88C228.6,5.79,150.44-1.09,126.01.15c-26.74,1.35-44.97,4.6-51.47,5.62C44.77,10.44,8.71,45.24,4.99,65.16c-2.23,11.97-10.84,79.11,1.55,111.07,2.98,7.68,20.89,24.9,19.58,25.75-6.74,4.37-11.46,10.53-14.49,19.59-3.82,11.4-2.85,33.82,9.12,43.25,16.97,13.37,39.2,9.14,49.14,6.72,9.94-2.42,19.49-12.21,20.87-14.03,1.73-2.28,4.98,4.54,8.75,6.94,7.29,4.63,14.28,5.1,32.53,6.18,26.16,1.55,38.73-11.3,43.75-15.03,2.12-1.58,8.02,8.58,12.97,9.59,21.39,4.36,38.26,1.06,53.58-2.44,15.32-3.49,22.67-14.54,27.16-27.88,5.12-15.21-3.99-25.92-5.7-28.77-3.79-6.34,15.84-13.81,20.78-35.53,3.68-16.17,4.89-39.25,1.13-82.23ZM86.42,246.98c-1.41,6.04-7.14,17.36-19.72,19.64-9.18,1.66-28.62,2.73-36.83-3.58-6.03-4.64-10.58-11.1-11.66-16.74s-.67-12.07-.17-16.34c.89-7.64,7.57-19.92,16.14-20.77,9.95-.99,13.55-1.13,20.23,4.9,3.27,2.95,3.07,15.71.39,17.86-2.69,2.15-5.66,3.83-7.39,1.1-1.05-1.65-4.55-8.9-6.7-7.55-2.15,1.34-4.69,11.19-.26,14.61,6.84,5.28,18.35,1.99,22.76-.02,5.82-2.65,7.53-5.31,9.33-12.76.83-3.43.76-10.66,1.84-10.75,2.41-.22,13.01.85,13.46,2.15.72,2.09-.18,23-1.41,28.26ZM62.33,224.16c-.06-4.29-2.68-9.02,4-8.37,2.07.2,2.65,3.3,2.64,5.22-.08,9.53-9.04,14.36-8.64,12.48,1.08-5.05,2.08-3.68,2-9.33ZM172.05,234.57c-1.06,9.27-3.92,16.6-8.76,20.36-4.84,3.76-14.2,7.13-29.88,7.31-11.93.14-28.92-.53-33.76-5.63-4.84-5.1-3.05-16.46-2.44-25.31.3-4.3-1.07-9.59,1.08-11.47,2.15-1.88,19.01-.65,20.9.42,1.88,1.07-1.13,13.55,1.29,18.11,2.42,4.57,13.16,4.97,19.15,3.34,7.07-1.93,8.9-16.35,11.05-18.5,2.15-2.15,14.19-1.46,18.76-.38,4.57,1.07,3.09,7.46,2.61,11.74ZM126.39,221.67c1.34-3.22,13.41-2.92,15.29-.77,1.88,2.15.75,9.12-1.67,12.08-2.42,2.96-10.55,4.09-13.24,1.67-2.69-2.42-1.79-9.6-.39-12.97ZM262.74,230.53c-.64,12.1-11.37,20.43-15.94,23.12-4.57,2.69-19.67,4.02-28.26,4.29-8.6.27-30.72.86-34.7-5.31-2.39-3.7-1.68-24.73-1.16-28.01.58-3.62,19.57-3.8,19.98-2.22.75,2.84-.85,7.94,1.89,14.59,2.57,6.23,11.09,10.84,19.95,9.97,10.48-1.02,14.49-8.13,13.95-10.01-.54-1.88-13.11,1.69-17.35-1.86-4.7-3.94-.88-13.17,1.99-15.27,6.17-4.5,13.56-8.49,29.98-7.04,10.15.9,10.11,9.15,9.66,17.74ZM213.53,229.75c1.12,4.3,4.5,8.7,4.05,9.26-.45.56-6.92-1.83-8.94-6.04-1.1-2.29-2.69-11.11-.71-12.1,1.58-.79,7.48-1.48,6.93.15-1.57,4.7-2.1,5.72-1.32,8.72ZM275.48,171.77c-10.3,26.95-33.51,33.35-55.81,38.45-22.1,5.06-126.62,3.13-151.34-3.85-24.72-6.98-50.25-19.07-55.35-39.22-5.1-20.14-3.79-75.35-1.8-85.34,3.67-18.39,11.64-33.15,21.29-43.09,12.84-13.21,36.73-26.86,72.99-28.15,38.64-1.37,90.19.75,102.01,3.43,11.82,2.69,37.78,6.31,48.26,19.74,10.48,13.43,17.21,37.23,20.44,60.6,3.22,23.37,3.32,66.94-.69,77.42Z"/>
  <path d="M78.17,68.85c-1.51.89-3.45,6.36.71,6.54,4.15.18,4.15-4.86,3.45-6.1-.71-1.24-2.65-1.33-4.16-.44Z"/>
  <path d="M84.61,94.64c-2.07-.08-4.07,5.57-.53,6.63,3.54,1.06,7.6-6.36.53-6.63Z"/>
  <path d="M104.92,110.52c-1.9,2.03-2.65,4.86-.53,6.54,2.12,1.68,4.86,1.06,5.39-1.68.53-2.74-2.3-7.6-4.86-4.86Z"/>
  <path d="M142.7,114.49c-2.32.91-3.36,5.92-1.15,6.98,2.21,1.06,5.66-.88,4.95-3.71-.71-2.83-1.77-4.07-3.8-3.27Z"/>
  <path d="M181.5,109.91c-2.53,1.2-5.57,5.13-1.24,6.01,4.33.88,6.28-2.74,5.66-4.42-.62-1.68-2.74-2.39-4.42-1.59Z"/>
  <path d="M208.56,94.16c-1.9.44-2.74,5.57,1.06,5.21,3.8-.35,2.39-6.01-1.06-5.21Z"/>
  <path d="M215.36,69.69c-2.7.97-2.74,6.01.8,5.3s2.65-6.54-.8-5.3Z"/>
  <path d="M248.55,98.6c-1.91-30.22-30.47-55.69-54.82-60.22-22.15-4.12-67.26.02-81.4,1.72-19.58,2.35-21.81,3.93-35.72,12.7-16.26,10.26-38.59,48.23-29.02,94.93,9.17,44.77,54.36,47.32,100.83,47.32s67.08-17.22,82.22-32.09c15.14-14.87,20.18-28.61,17.92-64.36ZM180.56,43.52c.42.5-.08,3.74-1.16,4.74-1.08,1-2.32-2.3-2.74-3.99-.25-1,3.49-1.25,3.91-.75ZM180.48,64.13c-.25,1-3.97.87-3.49-.5.58-1.66,3.74-.5,3.49.5ZM170.17,50.34c.5-.42,3.33-.75,4.41-.17,1.08.58,3.08,4.49,2.99,5.99-.08,1.5-2.5,2.99-3.74,3.24-1.25.25-1-1.58-1.66-2.58-.67-1-2.74-1.58-3.58-2.74-.83-1.16.49-2.83,1.58-3.74ZM152.04,71.03c1.16-.08,3.41,4.24,3.24,5.24-.17,1-5.74,4.24-7.65,4.57-1.91.33-3.7-1.53-5.24-3.41-.75-.91,8.48-6.32,9.65-6.4ZM138.73,73.03c-1.75.17-4.01-4.85-5.24-6.82-.42-.67,8.65-5.32,9.23-5.49.58-.17,4.99,4.9,5.07,5.57s-7.32,6.57-9.06,6.73ZM154.78,66.63c-1-.66,3.66-4.49,4.57-5.15.92-.66,5.16-3.82,5.74-3.66.58.17,5.16,4.66,4.82,5.57-.33.91-8.57,7.98-9.9,8.4-1.33.42-3.37-3.91-5.24-5.15ZM170.67,68.37c1-.91,4.91,1,4.66,2.58-.25,1.58-3.58,5.82-4.57,6.73-1,.91-3.99.17-5.66,0-1.66-.17-2.08-.91-2.08-2.24s5.49-5.09,7.65-7.07ZM168.17,43.27c.5,1-1.83,5.49-3.41,5.99-1.58.5-6-4.22-6.57-6.07-.33-1.08,9.48-.91,9.98.08ZM160.52,53.16c-.17,1-7.23,7.57-9.31,7.57s-5.17-3.24-5.49-5.49c-.08-.58,7.98-6.73,9.31-6.9,1.33-.17,5.66,3.82,5.49,4.82ZM142.23,41.94c1.91-.42,8.07.75,8.65,1.5.58.75-7.07,8.4-8.15,8.89-1.08.5-5.32-2.89-6.24-4.9-.42-.91,3.83-5.07,5.74-5.49ZM138.48,55.41c-.08.91-7.82,8.48-9.15,8.23-1.33-.25-3.13-4.73-3.91-6.48-.33-.75,2.16-3.16,2.83-3.91.67-.75,3.74-2.99,4.74-3.16s5.57,4.41,5.49,5.32ZM133.33,77.02c-.83,1.33-3.49,1.33-5.49-.33-2-1.66-2.59-2.7-2.25-4.07.17-.67,2.74-.17,4.24.08,1.5.25,4.32,2.99,3.49,4.32ZM120.27,47.34c0-1.25,6.65-3.24,7.57-3.16.92.08.83,2.33.33,3.41-.5,1.08-5.24,4.99-6.9,5.15-1.66.17-1-2.65-1-5.4ZM118.19,62.22c-.08-.91,4.16-.67,5.07.17.92.83,1.75,4.32.83,5.24-.91.91-4.07,1-5.4,0-1.33-1-.36-3.91-.5-5.4ZM103.68,48.33c.53-.96,4.17-1.74,6.23-1.74,1.13,0,.91,2.25.91,4.17s-1.51,15.28,5.82,25.66c8.14,11.52,27.51,14.9,43.21,12.32,16.93-2.78,23.78-17.6,25.7-23.61,3.23-10.13,2.64-21.43,3.34-21.43s5.02.19,5.62,1.06c.84,1.2.02,8.63-1.39,17.96-1.47,9.74-4.35,20.97-14.18,27.61-10.17,6.87-22.2,9.67-42.62,7.22-20.42-2.45-32.25-16.53-33.93-24.94-1.44-7.23.23-22.34,1.29-24.29ZM233.97,143.96c-.26,2.61-2.75-18.31-10.13-23.01-3.22-2.05,4.58,20.26,3.04,32.45-1.08,8.55-17.22,19.38-20.09,20.94-2.87,1.56,1.06-13.8-.17-22.78-1.36-9.93-1.22-13.83-6.26-19.83-1.82-2.16,1.17,16,1.29,22.35.19,10.2-1.66,17.79-3.23,21.71-1.57,3.91-19.97,10.15-19.27,8.16,1.33-3.81,3.82-17.51,3.95-20.94.34-9.27,2.92-12.19-2.23-24.03-1.36-3.12-2.75,14.03-2.92,17.68-1,21.33-4.69,26.17-8.6,29.04-3.91,2.87-19.28,2.99-21.11,1.68-1.83-1.3,6.06-11.9,7.9-18.88,2.17-8.26,3.43-18.71-1.71-27.03-2.8-4.52-2.38,14.03-3.09,18.96-2.18,15.1-10.67,23.9-14.59,26.51-3.91,2.61-14.14,1.91-17.01,1.13-2.87-.78,5.45-8.1,9.1-18.71,1.94-5.64,3.21-23.39.86-26.78-2.35-3.39-5.09,17.08-7.21,23.17-4.35,12.52-9.73,18.69-14.43,20.26-4.7,1.57-14.82-1.56-12.88-2.98,2.4-1.76,8.49-10.58,9.15-16.77.49-4.6,2.57-10.39.24-21.57-.43-2.06-3.86,12.9-6.61,19.57-1.57,3.81-5.23,13.93-8.79,14.89-8.01,2.15-18.95-1.48-21.12-6.35-1.5-3.37,8.55-10.99,11.68-17.51,3.13-6.52,2.62-12.89-.86-18.02-1.64-2.41-3.83,3.16-4.09,7.94-.17,3.15-.83,10.55-5.53,14.2-4.7,3.65-8.56,5.87-10.65,3.26-2.09-2.61-11.16-29.35-5.36-61.81,4.88-27.28,31-46.35,43.6-52.35,0,0-3.14,14.19.67,28.76,2.52,9.65,12.7,19.57,24.55,23.33,16.45,5.22,38.95,3.2,49.42,0,13.23-4.04,23.83-17.66,25.75-29.83,1.93-12.17,2-20,2.61-20.61.61-.61-.65-6.07,5.13-2.17,6.8,4.57,31.36,19.76,36.86,49.97,5.73,31.52-7.56,43.08-7.85,46.01Z"/>
</svg>