<?xml version="1.0" encoding="UTF-8"?>
<svg id="Layer_1" data-name="Layer 1" xmlns="http://www.w3.org/2000/svg" xmlns:xlink="http://www.w3.org/1999/xlink" viewBox="0 0 140.12 205.12">
  <defs>
    <style>
      .cls-1 {
        fill: none;
      }

      .cls-2 {
        fill: #16181a;
      }

      .cls-3 {
        clip-path: url(#clippath-1);
      }

      .cls-4 {
        fill: #fff;
      }

      .cls-5 {
        clip-path: url(#clippath);
      }
    </style>
    <clipPath id="clippath">
      <rect class="cls-1" y="0" width="140.12" height="205.12"/>
    </clipPath>
    <clipPath id="clippath-1">
      <rect class="cls-1" y="0" width="140.12" height="205.12"/>
    </clipPath>
  </defs>
  <g id="Artwork_14" data-name="Artwork 14">
    <g class="cls-5">
      <g class="cls-3">
        <path class="cls-2" d="M23.63,26.74C31.87,12.14,47.49,1.88,64.2.32c19.91-2.23,41,7.33,51.24,24.8,7.15,10.98,8.9,24.47,7.93,37.31,6.76,4.99,11.41,13.21,10.28,21.79-1.07,6.71-3.12,13.6-.99,20.34,2.6,8.46,6.26,16.71,7.05,25.62,2.65,22.83-7.69,46.73-26.1,60.48-17.13,13.25-40.58,17.68-61.45,12.1-11.04-3.15-21.6-8.48-30.05-16.33C9.79,174.67,1.12,158.46.14,141.27c-.69-10.54,1.29-21.2,5.19-30.99,1.1-2.89,2.13-5.84,2.63-8.91,1.77-8.73-3.59-17.48-.7-26.12,1.45-5.28,5.54-9.14,9.51-12.65-1.18-12.27.53-25.11,6.86-35.86"/>
        <path class="cls-4" d="M27.33,29.23c7.31-13.53,21.53-23.01,36.84-24.56,17.7-2.21,36.57,6.21,46,21.48-8.99-11.75-23.33-19.41-38.22-19.49,7.65,1.48,15.29,3.75,21.8,8.17,7.82,5.12,14.43,12.5,17.45,21.46,2.03,5.44,2.43,11.27,2.54,17.02-1.32-10.93-4.07-22.41-12.27-30.34-13.7-15.27-38.68-17.26-55.34-5.8-10.53,6.57-17.16,18.17-19.26,30.22-.61,4.01-.65,8.07-1,12.11-2.11-.84-1.14-3.43-1.41-5.13.05-4.41.65-8.81.3-13.22-1.39,4.9-2.25,9.97-2.06,15.08-.12,1.71.48,3.9-1.57,4.75-.79-10.86.55-22.25,6.2-31.75"/>
        <path class="cls-4" d="M59.03,12.97c13.43-3.85,28.75-.14,38.89,9.48,10.22,9.23,13.98,23.75,12.84,37.13-1.5-.91-1.07-2.78-1.26-4.23-.42-6.63-1.06-13.38-3.73-19.54-4.63-11.46-15.64-19.7-27.64-22.05-8.3-1.96-17.01-.48-24.83,2.6-11.22,4.79-19.85,15.06-22.66,26.93-1.55,5.2-1.4,10.64-1.98,15.97-1.24-9.87.73-20.11,6.12-28.53,5.45-8.68,14.25-15.31,24.25-17.76"/>
        <path class="cls-4" d="M89.49,22.45c7.34,3.91,12.76,10.78,15.95,18.37,1.57,4.64,2.04,9.59,2.25,14.47-.04,1.55.3,3.4-1.09,4.51-.85-6.16-.57-12.51-2.45-18.5-2.5-7.79-8.15-14.12-14.66-18.85"/>
        <path class="cls-4" d="M42.99,39c5.8-10.16,17.38-17.19,29.23-16.23,7.96.82,15.67,4.54,21.21,10.33,6.63,7.26,8.47,17.6,7.97,27.13-4.87,2.23-9.53,5.39-12.35,10.06-2.05,2.95-2.73,6.52-3.69,9.91-10.3-.74-20.64-.6-30.95-.2-.98-8.89-7.29-16.29-15.31-19.85-.35-7.19-.07-14.88,3.89-21.15"/>
        <path class="cls-4" d="M95.85,68.88c4.99-4.16,11.89-6.33,18.32-4.81,8.53,1.85,15.55,10.3,14.71,19.18-.62,5.04-1.84,10-2.14,15.07.01,4.44,1.7,8.62,3.03,12.79-3.74-7.46-3.98-16.17-1.77-24.11,2.54-7.99-2.85-17.25-10.75-19.62-7.56-2.47-16.85-.3-21.51,6.45-3.03,3.8-3.48,8.76-4.38,13.34-6.34.51-12.8-.53-19.19-.56-7.36-.23-14.72.18-22.07.23-1.63-5.24-2.2-11.15-6.02-15.4-2.08-2.62-5.23-4.04-8.34-4.99.6.71,1.81,2.14,2.42,2.85-1.96-.93-3.84-2.42-6.08-2.32-3.39.89-6.96,2-9.4,4.65,2.77-1.1,5.63-2.1,8.67-2.12-4.16,1.55-9.57,3.2-10.25,8.37-.48-.6-.94-1.2-1.37-1.8,1.05-1.34,2.12-2.69,3.01-4.17-5.13,3.19-5.34,9.92-5.74,15.3l-1.08-.11c.02-2.69.12-5.39-.16-8.06-.57,2.87-.29,5.81-.15,8.72l1.33-.52c-.76,6.36,1.4,12.85-.5,19.14-2.47,8.49-6.08,16.83-6.11,25.83.12,7.77-.46,16.13,3.47,23.16,1.05,2.07,3.51,1.42,5.41,1.55,8.92-.24,17.85.25,26.77-.32,1.1-5.19,2.09-10.71,5.54-14.94,3.94-4.68,9.57-8.1,15.73-8.75,6.5-.64,13.36,1.55,17.97,6.26,5.06,4.66,7.2,11.41,9.16,17.79,10.06-.34,20.14.35,30.19-.21,3.31-4.43,4.2-10.19,4.77-15.56,1.03-11.26-2.11-22.33-5.76-32.85,5.41,9.64,8.04,20.84,7.79,31.87-.5,6.31-1.51,12.99-5.07,18.34-10.97.91-22.03.35-33.02.31-1.03-5.57-1.78-11.54-5.69-15.96-7.96-10.6-25.81-10.62-33.93-.2-3.96,4.49-4.82,10.51-5.46,16.23-10.66.1-21.33.22-31.98-.21-2.36.12-3.61-2.18-4.44-4.02-3.59-7.99-3.84-16.95-4.03-25.56-1.26,9.9-.9,20.18,2.71,29.59,2.43,6.71,6.12,12.89,10.42,18.57-8.82-8.63-14.03-20.53-15.95-32.61-1.8-12.4,1.36-24.87,5.92-36.33,3.31-8.05,1.46-16.74.41-25.02-.98-6.12,2.14-12.32,6.98-15.95,5.1-3.54,11.86-4.81,17.82-2.9,6.62,1.9,11.76,7.94,12.91,14.7.34,1.89.67,3.78,1.05,5.67,13.04-1.52,26.17-.95,39.24-.2.51-5.73,2.22-11.77,6.59-15.78"/>
        <path class="cls-4" d="M23.47,79.09c.28-2.49,2.15-4.35,4.41-5.28-.13.56-.39,1.68-.51,2.23l1.8-.53c-.38.7-1.12,2.08-1.5,2.77l-1.38-1.43c-.56,2.08-1.21,4.21-.62,6.36-.7-1.4-1.54-2.72-2.2-4.12"/>
        <path class="cls-4" d="M106.06,77.27c1.41-2.54,4.43-2.77,7.01-2.97-3.12,2.23-5.41,5.33-7.29,8.62-.28-1.88-1.15-4.02.28-5.65"/>
        <path class="cls-4" d="M107.59,82.58c1.36-2.66,3.1-5.92,6.45-6.24-1.5,1.51-3.19,2.94-3.9,5.01-.64.31-1.91.92-2.55,1.23"/>
        <path class="cls-4" d="M18.91,78.54c.48-.23,1.42-.7,1.9-.93-1.77,6.46-.69,13.15-1.08,19.74-1.26-6.2-1.28-12.53-.82-18.81"/>
        <path class="cls-4" d="M54.22,89.88c12.21-1.64,24.82-2.01,36.88.9-5.91-1.09-11.93-.45-17.88-.78-6.33-.36-12.67-.08-19-.12"/>
        <path class="cls-4" d="M53.06,94.77c12.73-.46,25.52-.73,38.24.08-12.73.36-25.51.43-38.24-.08"/>
        <path class="cls-4" d="M27.71,150.31c-1.48-18.28-1.21-36.68-.43-54.98,1.12,18.3,1.41,36.66.43,54.98"/>
        <path class="cls-4" d="M30.38,121.28c-.15-8.65.68-17.29.29-25.94,1.52,8.54.94,17.3,1.19,25.95-.15,9.65.11,19.36-1.26,28.95.46-9.65-.35-19.3-.22-28.96"/>
        <path class="cls-4" d="M34.58,99.11c2.11,16.59,1.15,33.4.09,50.03-.68-16.67-.75-33.35-.09-50.03"/>
        <path class="cls-4" d="M109.13,99.44c.86,10.25.71,20.54.66,30.81-.11,4.95-.04,9.97-1.05,14.85-.06-11.96-.97-23.95-.08-35.91.26-3.24.34-6.5.47-9.75"/>
        <path class="cls-4" d="M104.5,113.25c.03-3.97.45-7.93,1.29-11.8.31,15.45.68,30.95-.36,46.38-.1,0-.29,0-.39,0-.53-11.52-.73-23.06-.54-34.59"/>
        <path class="cls-4" d="M45.2,102.92c2.47-.26,4.95-.42,7.45-.55-.55,10.73.71,21.55-.75,32.22-1.07-3.68-.89-7.53-.91-11.31.02-6.5-.1-13.01-.1-19.51-.33.18-1.01.54-1.34.72-.38,11.28.46,22.62-.9,33.86-1.02-4.62-.72-9.38-.74-14.07.09-6.65-.11-13.3-.04-19.95-.29.04-.86.14-1.15.18,0,13.28.51,26.67-1.08,39.88-.89-13.81.11-27.66-.44-41.47"/>
        <path class="cls-4" d="M87.11,102.06c2.53.2,5.08.38,7.64.55-.14,12.77.07,25.55.01,38.32l-.23.09c-1.5-12.13-.77-24.43-1.07-36.64l-1.18-.04c-.09,11.09.47,22.24-.64,33.3-.96-2.66-.89-5.52-.98-8.3-.27-8.38-.13-16.77-.19-25.15l-1.12.03c-.79,9.77.34,19.62-.78,29.36-.86-1.25-1.26-2.74-1.22-4.24-.34-9.09-.15-18.19-.24-27.28"/>
        <path class="cls-4" d="M67.64,103.87c1.22-.61,2.98-1.26,4.24-.34-.11,1.56-3.95,1.54-4.24.34"/>
        <path class="cls-4" d="M112.65,104.24c1.2,7.29.68,14.69.74,22.04-.16,4.43.27,8.94-.78,13.3-1.12-11.76-.36-23.57.04-35.34"/>
        <path class="cls-4" d="M65.92,105.69c3.12-.4,6.3-.4,9.43.02-3.1.68-6.35.67-9.43-.02"/>
        <path class="cls-4" d="M62.83,109.23c5.37-1.6,11.35-1.35,16.59.67-5.52-.41-11.13.06-16.59-.67"/>
        <path class="cls-4" d="M61.07,112.13c6.31-1.85,13.11-.83,19.37.82-6.47.11-12.94-.37-19.37-.82"/>
        <path class="cls-4" d="M115.57,128.57c-.51-5.44-.53-10.96.15-16.39.45,5.44.73,10.98-.15,16.39"/>
        <path class="cls-4" d="M60.99,115.63c6.2-2.06,13-1.39,19.24.17-6.41.4-12.84.08-19.24-.17"/>
        <path class="cls-4" d="M62.01,118.89c5.62-1.98,12.07-1.56,17.49.91-2.53-.01-5.24-.21-7.4,1.34,1.08.22,3.23.66,4.3.88-4.44.41-8.9-.14-13.32-.37,2.82-.92,5.79-1.08,8.75-.76-.01-.65.25-1.74-.75-1.66-3.04-.06-6.07,0-9.07-.34"/>
        <path class="cls-4" d="M53.13,156.23c-.43-10.19,10.05-19.49,20.15-16.89,7.33,1.42,12.1,8.71,12.49,15.87.42,12.63.24,25.29.17,37.93l-.55-.1c-.02-11.59-.17-23.18.16-34.76.22-5.13-.99-10.86-5.55-13.87-8.71-7.06-23.31-.16-24.35,10.74-.63,12.96-.16,25.96-.93,38.91-.29,0-.87.03-1.16.03-.52-12.61-.27-25.24-.43-37.86"/>
        <path class="cls-4" d="M56.95,156.33c.02-6.46,5.58-11.07,11.09-13.33,2.1-.07,4.18.42,6.25.81-1.32.02-2.62.02-3.91,0l-.05,1.2c2.3.37,4.53,1.23,6.04,3.08-2.27-.95-4.49-2.63-7.07-2.12-5.7.29-10.4,5.73-10.02,11.38-.11,3.62,2.5,6.43,4.92,8.8-.36,2.74-.48,5.54-1.11,8.24-.81-3.11,1.42-7.56-2.01-9.4-.34,6.46-.5,12.94-1.47,19.35-.09-6.68.28-13.38-.17-20.05-.24-.4-.73-1.19-.97-1.59-.23,9.19-.36,18.39-.69,27.58-1.02-11.28-1.04-22.64-.83-33.96"/>
        <path class="cls-4" d="M77.28,149.17c2.63,2.68,4.33,6.47,3.66,10.28-.39,3.32-2.96,5.7-5.18,7.93.28,7.17,1.35,14.32,1.13,21.5-4.18-.2-8.74.93-12.65-.8,3.91-.36,7.85-.11,11.78-.34-.48-7.14-1.29-14.25-1.82-21.38,2.38-1.9,5.23-3.92,5.62-7.22.86-3.58-1.27-6.8-2.54-9.97"/>
        <path class="cls-4" d="M23.96,166.03c1.53-1.06,3.46-.99,5.22-.7-1.81.98-3.12,2.54-4.27,4.2l-.17-2.61c-.76,1.6-1.1,3.45-2.43,4.71.16-1.89-.34-4.48,1.65-5.6"/>
        <path class="cls-4" d="M109.57,169.67c.64-2.16,1.86-4.91,4.69-4.19,3.8.09,4.35,5.21,3.15,7.89-2.37,3.23-7.14,1.59-8.37-1.81,1.55,1.28,2.83,3.54,5.21,3.04,1.6.24,2.14-1.48,2.97-2.46,1.38-3.43-1.92-6.61-5.32-6.09,1.27,1.8,2.12,3.83,2.16,6.07-1.62-.59-3.12-1.45-4.49-2.45"/>
        <path class="cls-4" d="M89.04,192.98c8.13-3.26,16.14-7.08,23.24-12.26-5.52,5.37-12.37,9.25-19.53,11.98-1.21.58-2.48.42-3.71.28"/>
        <path class="cls-4" d="M29.46,181.38c5.23,3.18,10.37,6.59,16.16,8.72,2.01,1,4.69,1.1,5.95,3.23-8.42-1.37-15.76-6.5-22.11-11.95"/>
      </g>
    </g>
  </g>
</svg>