<?xml version="1.0" encoding="UTF-8"?>
<svg id="Layer_1" data-name="Layer 1" xmlns="http://www.w3.org/2000/svg" xmlns:xlink="http://www.w3.org/1999/xlink" viewBox="0 0 147.68 334.54">
  <defs>
    <style>
      .cls-1 {
        fill: none;
      }

      .cls-2 {
        fill: #16181a;
      }

      .cls-3 {
        clip-path: url(#clippath-1);
      }

      .cls-4 {
        fill: #fff;
      }

      .cls-5 {
        clip-path: url(#clippath);
      }
    </style>
    <clipPath id="clippath">
      <rect class="cls-1" y="0" width="147.68" height="334.54"/>
    </clipPath>
    <clipPath id="clippath-1">
      <rect class="cls-1" y="0" width="147.68" height="334.54"/>
    </clipPath>
  </defs>
  <g id="Artwork_13" data-name="Artwork 13">
    <g class="cls-5">
      <g class="cls-3">
        <path class="cls-2" d="M44.94,5.32C70.63-4.88,102.04-.34,122.76,18.32c14.48,12.43,23.57,30.89,24.73,49.92,1.81,24-9.42,48.59-28.95,62.7-8.36,6.36-18.15,10.69-28.37,12.98,1.21,1.86,2.59,3.98,1.87,6.32-.49,3.08-3.75,4.29-5.48,6.53-1.1,2.2-.4,4.95,1.03,6.84,1.23,1.97,3.47,3.95,2.33,6.49,2.36,1.89,3.9,4.86,3.52,7.94-.44,4.22-4.56,6.87-5.09,11.08-2.28,15.8.92,31.66,3.94,47.12-.41,5.37-.12,10.77.06,16.15,2.39,0,4.79.04,7.2.13.11,1.81.19,3.62.29,5.44,1.76,0,3.53,0,5.33.04-.03-1.89.01-3.76.06-5.64,4.59-.17,9.19-.04,13.8-.03.1,5.47.11,10.95.14,16.43-4.34.09-8.68.07-13.01,0,0,1.93.02,3.86.07,5.8,4.21.03,8.42-.04,12.65-.02.45,5.64.25,11.32.23,16.97-4.15.01-8.29.07-12.43.06-.07-2.05-.13-4.1-.15-6.15-2.13-.01-4.25-.02-6.36-.03-.11,1.98-.21,3.95-.28,5.93-2.52.01-5.02.06-7.52.1-.07,1.44-.13,2.88-.17,4.33,2.62,2.65,4.17,6.76,2.34,10.3-1.9,4.59-8.2,4.35-9.86,9.16,1.71,3.33,3.44,7.22,1.93,10.97-2.19,7.41-11.96,10.76-18.31,6.44-6.12-3.11-7.86-11.67-3.84-17.13-1.17-1.82-1.8-4.29-4.15-4.9-3.53-1.21-6.11-4.66-5.87-8.44-.12-3.41,3.77-5.43,3.06-8.93-.09-18.96.51-38.01-.89-56.92,3.35-15.42,6.15-31.33,4.23-47.14-.42-4.52-5.05-7.31-5.07-11.92-.42-2.88,1.21-5.44,3.35-7.2-.04-.73-.13-2.18-.17-2.91,1.72-2.44,4.31-4.76,4.15-8.01.04-3.54-3.98-4.74-5.6-7.38-1.07-2.47-.2-5.17.77-7.51-12.71-3.12-24.77-9.07-34.33-18.1C8.96,112.53-.55,92.56.02,72.17c-.25-13.62,3.92-27.14,11.13-38.63C19.23,21.02,31.27,11.18,44.94,5.32"/>
        <path class="cls-4" d="M15.08,34.37C30.15,10.76,60.94-1.2,88.06,5.57c16.41,3.61,31.53,13.36,40.79,27.48-4.27-4.69-8.43-9.59-13.7-13.21C93.92,4.61,63.94,1.58,40.81,14.3,24.39,23.02,12.2,39.06,7.92,57.12c-3.43,14.81-2.03,30.69,4.28,44.54,2.99,6.88,8.05,12.48,12.61,18.33C.96,99.08-2.72,60.24,15.08,34.37"/>
        <path class="cls-4" d="M63.44,11.01c11.32-1.71,22.97.67,33.26,5.49,6.96,4.87,14.8,8.7,20.52,15.16,18.44,19.4,20.62,51.54,5.87,73.69-11.28,17.74-32.42,28.37-53.35,27.46-13.49-1.4-26.99-6.2-37.09-15.48-8.88-7.47-16-17.19-19.6-28.28-5.37-15.58-2.84-33.3,5.24-47.49,9.21-16.47,26.33-28.34,45.15-30.55"/>
        <path class="cls-2" d="M63.78,13.3c11.16-1.8,22.76.06,33.11,4.45,5.24,3.47,10.9,6.42,15.45,10.83,20.64,19.05,24.45,53.37,8.31,76.41-8.62,13.24-23.1,22.4-38.66,24.92-15.91,2.9-32.98-1.04-45.83-10.92-7.87-5.53-13.52-13.59-17.98-21.99-8.15-17.65-6.76-39.31,3.5-55.82,8.93-15.02,24.99-25.08,42.1-27.88"/>
        <path class="cls-4" d="M74.79,16.5c8.3,1.14,16.81,2.36,24.31,6.35,9.66,5.07,17.92,13.19,22.63,23.07-3.4-3.09-7.19-6.04-11.85-6.81-5.12-1.38-10.49.08-14.9,2.79.43-7.19-2.08-14.59-7.52-19.43-3.54-3.24-8.3-4.38-12.67-5.97"/>
        <path class="cls-4" d="M51.72,24.01c3.51-1.6,7.18-2.82,10.95-3.66-6.32,3.51-10.79,10.42-10.46,17.77-.53,4.9,1.88,9.27,4.02,13.46-2.96-2.08-4.96-5.17-7.52-7.67-.3-.88-.59-1.76-.87-2.64-1.14-1.22-2.33-2.41-3.85-3.14-.36,2.31.67,4.11,2.67,5.26-1.98,2.05-3.96,4.09-5.81,6.24-2.68-1.78-5.17-3.86-7.98-5.42-1.18.65-1.35,1.43-.51,2.36,2.05,1.87,4.39,3.39,6.66,5-2.84,5.23-5.74,10.62-6.42,16.63-.63,7.19.3,14.53,3.1,21.2.77,2.5-1.95,2.87-3.74,2.5-.18.98-.34,1.95-.48,2.93l1.07-1.96c1.64,1.96,2.58-.31,4.07-.45,2.43,2.76,3.98,6.25,6.57,8.94-1.83,1.49-3.51,3.14-5.13,4.84,2.89.98,3.76-3.28,6.23-4.04,1.58,1.57,3.13,3.23,5.01,4.49-.69,5.35,1.37,10.93,5.47,14.46,6.14,5.08,16.24,4.6,21.57-1.45,4.12-5.07,4.02-12.3,1.61-18.11-1.33,1.16-2.9,2.26-4.19,3.38,1.05-.02,3.15-.07,4.19-.09-1.06.9-2.22,1.72-3.3,2.57.95.05,2.83.14,3.77.19-.99.82-2.07,1.54-3.1,2.27.75.37,2.25,1.11,2.99,1.49-.72.17-2.16.52-2.88.7.84.76,1.68,1.53,2.53,2.31-1-.09-3.01-.27-4.02-.36.84.97,1.73,1.94,2.6,2.91-.26.16-.79.48-1.06.64-1.07-.66-2.15-1.27-3.24-1.84.68.99,2.04,2.96,2.72,3.95-1.1-.42-3.3-1.25-4.4-1.67.61,1.16,1.23,2.32,1.86,3.48-1.52-.43-2.83-1.2-3.93-2.33,0,1.37.68,3.05-.8,3.88-.21-.67-.64-2.03-.85-2.7-.59.11-1.78.34-2.37.45-.25.59-.75,1.76-.99,2.34-.55-1-.87-2.07-.99-3.21-.81.96-1.6,1.93-2.47,2.82.01-.94.05-2.83.06-3.78-.69.64-2.09,1.91-2.78,2.55.02-1.01.05-3.05.07-4.06-.35-.05-1.04-.16-1.39-.21.12.51.34,1.54.45,2.05-.3-.38-.89-1.15-1.19-1.53l-2.02.45c.79-1.06,1.77-1.97,2.76-2.86-1.38.12-2.72.04-4.03-.25.96-.89,2.03-1.69,3.07-2.51-1.04-.09-3.11-.25-4.15-.33.79-1.07,1.88-1.67,3.26-1.8l.05-1.07c-.72,0-2.15-.04-2.87-.06l.18-1.43c1.16-.18,2.45-.24,3.53-.86-1.43-.45-2.67-1.17-3.71-2.17,1.49,0,3,.03,4.52.08-1.04-.9-2.08-1.78-3.08-2.69,1,.14,2.98.43,3.98.57-1.17-1.01-1.59-2.2-1.26-3.55.71.55,2.12,1.65,2.83,2.2-.25-.91-.75-2.73-1-3.65l3.6,2.24c-.35-.77-1.04-2.32-1.39-3.1l1.41-.59c.47.75,1.42,2.25,1.89,3.01.26-1.06.77-3.16,1.03-4.21.41,1.25.81,2.51,1.21,3.77.49-.9,1.48-2.7,1.98-3.61-.02.95-.05,2.85-.07,3.8.56-.65,1.67-1.93,2.22-2.57-.04.87-.12,2.61-.16,3.48,1-.96,1.99-1.9,3.06-2.82-.21.98-.65,2.93-.87,3.91.63-.43,1.87-1.29,2.5-1.72,2.31.23-1.54,2.84-1.21,3.8,1.64-.7,3.33-1.51,5.08-2.02-1.89-2.05-4.01-3.88-6.04-5.77,5.41,1.09,8.83,6.73,9.64,11.86,1.24,7.43-5.53,13.1-4.63,20.51-9.26.73-18.78-.58-27.14-4.75-.1-.94-.16-1.89-.18-2.83-.06.62-.18,1.85-.24,2.47-.92-.38-2.76-1.14-3.68-1.53.93-.81,1.94-1.6,2.48-2.75-1.3.51-2.58,1.1-3.82,1.67l-.9-1.37c1.39-.85,1.98-2.16,1.77-3.93-1.14,1.19-2.42,2.37-2.72,4.07-1.73-2.22-4.59-3.2-6.15-5.57l.6-.99c.62-.18,1.85-.55,2.47-.73-.28.68-.83,2.03-1.11,2.7,2.07,1.09,1.65-1.13,1.68-2.48-.55-.34-1.65-1.02-2.2-1.36-1.28.77-3.19,2.41-3.88.07,1.22-.53,2.45-1.05,3.69-1.57-1.32-1.94-3.22-3.31-5-4.76-1.04.39-3.25,2.74-3.15.25.93-.63,2.77-1.88,3.7-2.51-1.4.33-4.19,1-5.58,1.33.85-1.1,1.87-2.07,2.91-3.02-1.12.07-3.35.21-4.47.28.99-1.3,2.54-2,3.79-3.03-1.34.16-4.02.47-5.36.62,1.11-1.42,2.74-2.34,4.13-3.48l-2.14.14c.09-.76.26-2.28.35-3.04-1.58.35-3.11.73-4.68.98,1.21-1.55,3.02-2.44,4.5-3.71-1.89.36-3.74.82-5.64,1.1,1.06-1.03,2.29-1.82,3.55-2.6-.24-.78-.73-2.35-.97-3.14-1.16.23-2.33.43-3.47.57,1.04-1.14,2.54-1.59,3.88-2.32-1.1-.19-3.28-.58-4.37-.78.88-.85,1.97-1.28,3.26-1.26l.02-1.18c-.9,0-2.71-.03-3.61-.05,1.04-1.04,2.34-1.71,3.89-2-.91-.99-2.38-.78-3.53-1.01l.03-.98c.78-.03,2.33-.08,3.11-.11l-.07-1.41c-1.32-.21-2.62-.27-3.77-.97,1.49-.46,2.99-.92,4.51-1.35-1.34-.82-3.3-.93-4.01-2.49,1.33-.21,2.91-.1,4.1-.95-1.47-.52-2.81-1.24-4.02-2.17,1.02-.05,3.05-.14,4.06-.19-.7-1.04-1.7-1.58-3.02-1.63l.09-.94c1.27-.26,2.77-.28,3.82-1.23-.95-.33-2.84-.98-3.79-1.31.99-1.49,2.77-.7,4.25-.76l-.06-1.29c-.81-.16-2.41-.49-3.21-.66.74-2.34,3.67-.17,4.62-2.22l-2.36-.89-.98-1.43c1.15.15,3.47.43,4.63.58-.8-1.1-1.86-1.81-3.2-2.14l.63-1.08c.91.07,2.74.21,3.65.27-.79-1.29-2.02-2.23-3.05-3.29,1.65.18,3.31.37,4.99.56-1.13-1.06-2.32-2.03-3.48-3.03,1.68.29,3.37.69,5.1.5-.99-1.2-1.96-2.37-2.89-3.59,1.3.58,2.58,1.21,3.84,1.91,1.3-1.66-.11-3.05-.98-4.48,1.35.62,2.74,1.17,4.19,1.65-.98-1.42-1.95-2.77-2.95-4.15,1.93.52,3.76,1.5,5.83,1.47-1.02-.97-2.06-1.92-3.12-2.83.12-.25.35-.75.47-1,1.49.86,3.02,1.68,4.75,2.01,1.07-2.43,3.51-3.81,5.83-4.81.08.52.25,1.58.33,2.1l1.62-.46c-.16,1.02-.47,3.05-.63,4.07,2.03-.84,1.9-3.31,2.55-5.08-.87-.09-2.6-.26-3.47-.34,1.1-2.99,4.09-4.8,5.72-7.49l-3.51,1.61c.37-1.18,1.15-1.93,2.34-2.26"/>
        <path class="cls-4" d="M70.77,24.06c.13-1.34.22-2.83,1.32-3.76.22.83.67,2.5.89,3.33.83-1.12,1.68-2.25,2.55-3.36.22,1.31.44,2.62.66,3.93.88-1.15,1.75-2.3,2.69-3.42l.33,4.32c.95-.96,1.88-1.94,2.87-2.89.01,1.04.02,3.12.03,4.16,1.03-.66,2.07-1.32,3.13-1.99-.16,1.04-.48,3.12-.63,4.16,1.18-.52,2.39-1.02,3.62-1.5-.59,1.27-1.18,2.55-1.78,3.81.95-.11,2.83-.34,3.78-.45-.71,1.06-1.49,2.07-2.15,3.15,1.21.36,2.48.66,3.75.98-1.21.57-2.51.97-3.34,2.05.93.28,2.8.85,3.73,1.14-.99.81-2.18,1.33-3.29,1.89,1.06.71,2.18,1.39,3.23,2.16-.9.24-2.71.73-3.61.97,1,.82,2,1.61,3.05,2.42-1.07.09-3.21.27-4.28.35.79.96,1.59,1.9,2.43,2.83-1.34.53-2.74.06-4.06-.17.61,1.2,1.3,2.38,1.78,3.65-1.15-.42-2.27-.9-3.34-1.44.12.94.36,2.82.48,3.76-1.09-.7-2.14-1.44-3.17-2.19.08,1.02.24,3.07.31,4.09-.98-.86-1.94-1.72-2.89-2.59-.12,1.21-.24,2.42-.35,3.63-.97-.95-1.89-1.98-2.8-2.97-.11.88-.34,2.62-.46,3.5-1.06-.86-1.69-2.07-2.32-3.23-.4.98-.81,1.96-1.15,2.94l-1.29-.06c-.01-.82-.03-2.46-.04-3.28-1.09,1.01-2.19,2.07-3.24,3.11.09-.93.26-2.79.35-3.72-1.29.69-2.56,1.56-4.08,1.44.26-.79.79-2.38,1.06-3.17-.99.23-2.96.69-3.95.93.42-1.04.86-2.07,1.31-3.1-1.32-.04-2.63-.14-3.91-.29.66-.98,1.4-1.92,2.1-2.89-1.01.05-3.04.15-4.05.2.9-1.11,1.87-2.19,2.82-3.28-.9.03-2.68.1-3.58.13-.56-2.17,2.86-1.73,2.5-3.63-.7-.07-2.1-.19-2.8-.25l.15-1.31c1.36.05,2.39-.46,3.09-1.53-.72-.12-2.16-.35-2.88-.47l.04-1.3c.87-.07,2.63-.21,3.51-.29-1.15-.94-2.34-1.83-3.39-2.86,1.05.11,3.15.32,4.2.43-.76-.75-2.27-2.24-3.02-2.99,1.02.17,3.06.52,4.08.69-1.06-1.02-1.55-2.19-1.46-3.51.91.47,1.79,1,2.65,1.59,1.25-1.21.03-2.77-.06-4.11,1.13.71,2.27,1.43,3.42,2.15-.15-.98-.43-2.94-.58-3.93,1.08.97,2.15,1.95,3.27,2.9-.03-1.05-.1-3.15-.14-4.19,1.01,1.08,1.92,2.21,2.91,3.33"/>
        <path class="cls-4" d="M46.73,25.93c.52.08,1.58.23,2.11.3-1.04,2.54-2.44,5.27-4.99,6.53-1.79.52-2.58-1.21-2.99-2.54,1.02.28,3.05.84,4.07,1.12-.31-.82-.92-2.48-1.23-3.31.98.16,2.95.48,3.94.64-.23-.68-.69-2.05-.91-2.74"/>
        <path class="cls-2" d="M99.2,29.57c3.35-1.89,6.88,2.73,4.73,5.65-1.53,2.66-6.2,1.83-6.89-1.08-.32-1.76.54-3.74,2.16-4.57"/>
        <path class="cls-4" d="M100.83,34.78c-2.49.18-2.53-3.6-.41-4.21-.53,1.5-.3,2.82.7,3.98.37-.87,1.12-2.61,1.49-3.48-.15,1.39.48,4.16-1.78,3.71"/>
        <path class="cls-4" d="M38.39,32.63c1.28-.77,3.84.99,2.78,2.45-1.31.61-3.32-1.11-2.78-2.45"/>
        <path class="cls-2" d="M67.75,40.96c-.55-3.67,1.97-7.88,6.04-7.51,5.35.17,7,8.77,2.06,10.86-2.75,1.45-5.38-.7-7.45-2.31.32-.38.96-1.14,1.28-1.51-.49.12-1.45.35-1.93.47"/>
        <path class="cls-4" d="M123.97,33.25c5.99,7.88,10.92,16.85,12.56,26.72,5.81,26.48-7.48,55.48-30.85,68.96-13.06,7.75-28.96,11.03-43.93,8.04-10.06-1.93-19.94-5.91-27.73-12.68,9.88,7.63,22.26,11.72,34.71,11.86,13.78.67,27.73-3.24,39.07-11.1,13.36-8.93,22.88-23.21,26.54-38.8,2.46-11.57,2.26-23.81-1.45-35.1-1.85-6.47-5.43-12.22-8.92-17.9"/>
        <path class="cls-4" d="M69.35,37.04c1.04-1,3-3.21,4.45-1.75-1.03,1.3-2.2,2.46-3.33,3.65-.28-.48-.84-1.43-1.12-1.9"/>
        <path class="cls-4" d="M71.38,41.85c.46-2.86,2.67-4.86,4.87-6.5-.36,2.89-2.47,5.08-4.87,6.5"/>
        <path class="cls-4" d="M100.15,41.31c.9.89,1.78,1.81,2.66,2.74.36-1.07.76-2.15,1.17-3.22.39.7,1.16,2.1,1.55,2.79.47-1.33,1.24-2.45,2.31-3.37.12.84.35,2.51.46,3.35.93-.82,1.85-1.69,2.79-2.53-.01.87-.02,2.61-.03,3.48.69-.62,2.06-1.86,2.75-2.48-.03.94-.08,2.82-.11,3.76,1.07-.75,2.16-1.47,3.29-2.17-.34.81-1.01,2.42-1.35,3.23.77-.24,2.32-.72,3.1-.96l-1.79,2.98c.99-.3,2.96-.9,3.95-1.2-.68,1.13-1.37,2.24-2.03,3.36.96-.22,2.88-.65,3.84-.87-.54.83-1.64,2.48-2.18,3.31.82.04,2.47.12,3.29.16-.75,1.01-1.69,1.87-2.49,2.81.82.07,2.44.22,3.25.3-.19,1.37-2.02,1.43-2.85,2.21.99.72,1.96,1.43,3,2.15-.87.08-2.61.24-3.48.31.91,1.01,1.9,1.94,2.88,2.9-.91.02-2.74.05-3.66.07.88.91,1.77,1.79,2.67,2.71-.95-.1-2.85-.29-3.8-.39.65,1.11,1.31,2.23,1.98,3.36-1.11-.02-2.35-1.22-3.32-.27.24,1.03.46,2.07.67,3.11-1.18-.26-2.32-.56-3.45-.9.17.9.52,2.69.69,3.58-1.13-.64-2.24-1.28-3.34-1.91.09.85.27,2.55.37,3.4-.93-.73-1.82-1.47-2.73-2.18-.19.81-.58,2.43-.77,3.24-.69-.93-1.36-1.85-2.03-2.77-.6,1.02-1.13,2.05-1.71,3.06-.45-1.04-.89-2.07-1.31-3.11-.71.92-1.39,1.84-2.07,2.76-.24-.8-.72-2.4-.97-3.19-.95.79-1.89,1.6-2.82,2.39.09-.9.27-2.7.36-3.6-.81.61-2.43,1.82-3.24,2.43.21-.91.62-2.72.82-3.63-1.21.55-2.41,1.1-3.6,1.64.52-1.08,1.06-2.16,1.61-3.23-1.06.13-3.19.41-4.25.55.73-1.07,1.47-2.15,2.21-3.22-1.03.17-3.09.52-4.12.7.69-.79,2.09-2.38,2.79-3.18-.94,0-2.8-.02-3.73-.03.86-.98,1.73-1.96,2.61-2.94-.87-.07-2.59-.22-3.46-.3.87-.86,1.78-1.67,2.73-2.47-1.19-.76-2.35-1.52-3.48-2.33.93-.08,2.78-.23,3.7-.3l.09-1.18c-.76-.21-2.27-.64-3.03-.85,1.2-.82,2.61-.81,4.03-.96l.08-1.16-2.38-.51c.85-1.05,2-1.48,3.46-1.26-.38-.7-1.14-2.11-1.52-2.81.61.29,1.85.88,2.47,1.17-.21-1.25-.73-2.54-.05-3.76.55.47,1.64,1.41,2.18,1.87-.09-1-.26-3-.35-4,.61.6,1.83,1.79,2.44,2.38.6-.68-.27-3.65,1.32-2.95.45.43,1.34,1.29,1.79,1.72.04-.95.11-2.84.14-3.79"/>
        <path class="cls-4" d="M41.38,49.69c1.96-1.96,3.89-3.96,6.07-5.7,5.69,7.99,13.98,13.59,20.05,21.22-1.25-.23-2.49-.44-3.52-1.18-7.65-4.6-15.14-9.45-22.6-14.34"/>
        <path class="cls-2" d="M90.89,58.38c.85-4.04,2.79-8.37,6.63-10.36-2.63,3.19-4.24,7.04-6.63,10.36"/>
        <path class="cls-2" d="M29.62,53.63c.77-1.19,1.67-2.33,2.78-3.24-.47,1.54-1.61,2.71-2.63,3.89,1.52,1.17,4.17,1.66,4.16,4.05-1.28-.06-2.51-.3-3.71-.73-.07-.66-.22-1.99-.29-2.66l-.47.25c-.25,1.4-.88,2.67-2.48,2.24.71-1.36.75-3.55,2.64-3.8"/>
        <path class="cls-2" d="M103.33,52.78c6.21-2.15,12.23,5.58,9.29,11.23-2.29,5.46-10.98,5.32-13.53.15-2.46-4.13-.32-9.86,4.24-11.38"/>
        <path class="cls-4" d="M39.86,52.54c5.05,4.16,11.04,7.58,14.62,13.22-3.75.13-7.15-1.65-10.74-2.38,3.72,2.02,7.89,3.1,11.44,5.5.04-.78.13-2.34.17-3.11.49.46,1.47,1.4,1.96,1.87-1.77,7.81,1.21,16.52,8.47,20.41-.57-3.16,1.79-5.25,4.07-6.88-.23,2.71-1.63,5.29-3.84,6.9,4.3,1.92,9.55,2.93,13.89.56.27.91.6,1.8.98,2.67l-.08.75c-.63-.58-1.9-1.74-2.54-2.32.11.89.33,2.65.44,3.53-.79-.79-1.55-1.6-2.32-2.38-.07,1.43-.41,2.79-1.01,4.08-.21-.97-.65-2.92-.86-3.9-.73,1.12-1.41,2.25-2.12,3.37-.08-.92-.23-2.76-.31-3.67-.59.67-1.77,2.02-2.37,2.69-.58-1.11-1.1-2.1-1.89-3.02-.5.79-1.49,2.37-1.99,3.16-.08-.98-.25-2.95-.33-3.94-.56-.08-1.68-.24-2.24-.32-.48-.62-1.45-1.86-1.94-2.47.48,1.73-1.37,4.74,1.14,5.53l.48-3.23c.78,1.42,1.1,2.99,1.53,4.55-6.6.55-12.48,5.55-14.72,11.68-5.01-3.59-9.17-8.23-11.99-13.72.74.09,2.24.28,2.99.38,1.42-.94,2.91-1.82,4.27-2.89-1.61.25-3.14.77-4.64,1.32l.24.87h-3.27c-.75-2.48-1.54-4.93-2.26-7.41,6.79-1.01,13.08-4.34,19.96-5.21-.71.94-2.11,2.82-2.81,3.77,1.58-.33,3.16-.68,4.77-1.03-1.35-1.03-2.51-2.21-1.67-3.94-2.36-.94.74-4.11-2.39-3.74.7-.81,1.4-1.63,2.11-2.45-.68-.14-2.03-.43-2.7-.57.59-.15,1.75-.44,2.34-.59l.02-1.03c-.72-.18-2.14-.55-2.85-.74.12.61.36,1.83.47,2.44-2.42.26-4.9.86-7.3.19-.12.42-.35,1.27-.47,1.69,2.43.45,6.13-1.64,7.91.39l-.51.84c-3.93.24-7.87-.2-11.78.17.36-.84,4.41-.53,3.4-2.29-3.39-.19-6.79.93-10.21.9.1-4.24,1.14-8.36,2.37-12.4,1.62,1.95,3.98,2.76,6.45,2.89-1.86-1.47-4.05-2.47-6.34-2.99,1.17-2.65,2.54-5.2,4-7.7"/>
        <path class="cls-4" d="M100.7,58.67c-2.21-3.17,2.74-4.88,5.1-4.87,5.58-.34,8.6,8.12,3.88,11.23-3.23,2.93-8.82,1.59-10.25-2.53-.36-1.62-1.96-4.68,1.27-3.83"/>
        <path class="cls-2" d="M101.2,57.06c2.43-5.18,11.33-1.04,9.51,4.28-.57,3.61-5.54,5.71-8.33,3.21-1.69-1.19-2.2-3.34-3.09-5.08.52-.24,1.57-.74,2.1-.99-.05,1.65.79,2.62,2.52,2.93-.38-.57-1.14-1.69-1.52-2.26.4-.51,1.18-1.52,1.58-2.03-.15,2.02,1.49,2.89,2.96,3.75,1.73-1.47,1.23-3.46.17-5.12-2.04.14-4.01.57-5.9,1.31"/>
        <path class="cls-4" d="M76.5,65.51c2.17-2.99,4.79-5.63,7.31-8.33.42,1.48,1.13,2.85,1.83,4.23-.73-.32-2.19-.95-2.92-1.26-1.92,1.93-3.2,5.05-6.22,5.36"/>
        <path class="cls-4" d="M69.13,59.16c1.17,1.38,4.11,2.47,3.25,4.54-2.13-.31-3.68-2.42-3.25-4.54"/>
        <path class="cls-4" d="M124.94,70.05c.56-2.84,1.19-5.72,2.47-8.34-.19,2.87,1.49,7.57-2.47,8.34"/>
        <path class="cls-4" d="M67.22,77.79c-4.3-3.86-1.3-12.53,4.72-12.24,3.99-.36,6.7,3.1,7.58,6.61.98,4.28,5.09,6.45,7.59,9.72,1.76-2.63,2.13-5.81,2.39-8.88,3.42,2.73,1.11,7.29-.96,10.15,5.45,3.08,11.19,5.61,16.49,8.95,2.4-2.17,3.56-5.32,5.91-7.51-.15,2.75-2.58,4.47-3.76,6.77,4.21-.49,11.34-.3,12-5.6,1.27.22,2.56.42,3.87.6v2.25c-.87-.33-1.73-2.36-2.61-1.1-.38,1.57-.47,3.15-.27,4.75.55-1.48.88-3.11,2.17-4.19-.63,2.99-1.69,5.83-2.56,8.74-.51-.7-.99-1.4-1.45-2.11-.29.55-.86,1.65-1.14,2.2.55,0,1.67,0,2.23,0-7.06,13.01-19.4,24.58-34.64,26.11-.13-.66-.38-1.96-.51-2.62.66.41,1.98,1.23,2.64,1.64.11-.42.32-1.26.42-1.68-.69.02-2.08.06-2.77.09.16-2.61,2.13-1.73,3.82-1.26-.01-2.69,1.97-4.7,2.81-7.14,1.31-3.13.77-6.58.39-9.83-.93.08-2.78.25-3.7.33,1.22-.82,2.55-1.42,3.89-2.1-2.02-4.2-3.63-8.63-6.07-12.61l-2.42-.87,1.45,1.97c-.54.33-1.61.98-2.15,1.3-.8-.67-1.59-1.33-2.37-2,1.94-1.03,4.38-2.76,6.42-.87,1.83,2.19,3.37,4.78,4.09,7.57l.89.18c.36,1.81.75,3.6,1.16,5.4,3.13-1.04,6.06-2.56,8.96-4.14-1.62,3.52-6.19,3.28-8.64,5.58,1.23,6.11-.41,12.44-4.49,17.15,2.38-.81,4.74-1.65,7.14-2.46-.8,1.07-1.61,2.12-2.42,3.16.75-.48,2.26-1.45,3.02-1.94,1.53.13,2.9-.38,3.85-1.65-.82.3-2.45.9-3.26,1.19-.56-.36-1.11-.72-1.64-1.09,5.77-2.16,11.39-6.02,14.52-11.41,1.05.68,2.67,2.01,3.55.09-.71-.57-1.4-1.14-2.08-1.71,3.84-3.98,6.2-9.12,7.81-14.34-3.94,3.48-9.4,2.47-13.86,4.55.18,1,.56,3,.74,4-7.84-7.34-18.19-10.81-27.33-16.13-3.46-2.38-8.31-.56-11.42-3.58"/>
        <path class="cls-2" d="M70.29,68.83c3.63-2.13,7.99,3.13,5.63,6.39-1.37,2.31-4.89,2.34-6.63.49-2.02-1.89-1.34-5.57,1-6.88"/>
        <path class="cls-2" d="M24.33,75.93c.54-2.01-.76-5.09,1.66-6.15.35,1.94-.64,4.44,1.1,5.92,0-1.6-.03-3.19-.09-4.79.86-.07,2.59-.22,3.45-.3,0,1.72.03,3.44.09,5.17-2.08,0-4.15.05-6.21.15"/>
        <path class="cls-4" d="M71.1,75.51c-1.26-1.38-2.09-5.39.9-4.95,2.45-.25,2.86,3.06,1.46,4.53-.13-.91-.4-2.74-.53-3.66-1.69.75-2.3,2.11-1.83,4.08"/>
        <path class="cls-4" d="M58.81,73.69c.32-1,.35-2.36,1.72-2.5.67.91,1.26,1.87,1.79,2.89-.88-.1-2.63-.29-3.51-.39"/>
        <path class="cls-4" d="M28.03,72.72l.78-.05c.01.4.02,1.19.02,1.59l-.76.06c-.01-.4-.03-1.2-.04-1.6"/>
        <path class="cls-4" d="M33.53,74.05c1.44-.05,2.9-.1,4.37-.15,4.56,1.29,9.4,1.13,14.1,1.58.17.66.5,1.97.67,2.62-5.99,1.77-11.92,3.72-17.8,5.78-.56-3.26-1.04-6.53-1.34-9.83"/>
        <path class="cls-4" d="M118.93,75.61c1.72,1.65,1.62,4.15,2.32,6.27.72-.1,2.16-.3,2.88-.4-.3,1.42-.74,2.84-.41,4.32-.63-.17-1.89-.52-2.52-.69.51-.51,1.54-1.51,2.05-2.01-.55-.04-1.66-.1-2.22-.13l-.12,3.02c-.51-.67-1-1.35-1.45-2.04.4-2.81-.31-5.57-.53-8.34"/>
        <path class="cls-2" d="M53.36,82.96c1.68-.04,3.38-.11,5.1-.19-.82,1.01-1.86,1.78-2.88,2.55.16.53.46,1.61.61,2.15-1.44.01-2.35.74-2.71,2.17l-.65.3.12.71q-1.19.28,0,0l.6-.38-.07-.63c1.47-.07,2.37-.79,2.71-2.17.03-.53.09-1.59.12-2.12,1.12-.08,2.25-.16,3.4-.25-1.74,2.22-3.37,4.55-5.67,6.24-3.41,2.69-6.08,6.51-10.3,8.02,2.84-4.45,6.47-8.33,10.02-12.22,1.65-1.08.95-3.13-.4-4.18"/>
        <path class="cls-4" d="M21.1,86.12c2.94-1.86.27,3.34,0,0"/>
        <path class="cls-4" d="M53.48,89.64c.36-1.43,1.27-2.16,2.71-2.17-.34,1.38-1.24,2.1-2.71,2.17"/>
        <path class="cls-2" d="M59.34,89.86c-1.78,0-.45-2.47.44-2.93,1.53.03.53,2.61-.44,2.93"/>
        <polygon class="cls-4" points="52.83 89.94 53.48 89.64 53.55 90.27 52.95 90.65 52.83 89.94"/>
        <path class="cls-4" d="M52.95,90.65q-1.19.28,0,0"/>
        <path class="cls-2" d="M30.24,97.35c-.64-1.9-2.1-4.2,1.03-5.16-.15.75-.47,2.23-.63,2.97l.89.47,2.9-1.42c-.81,1.78-2.66,2.28-4.19,3.14"/>
        <path class="cls-2" d="M119.1,93.03q.61.71,0,0"/>
        <path class="cls-4" d="M23.43,94.34c.4-.18,1.2-.55,1.6-.73,2.37.93-2.2,3.06-1.6.73"/>
        <path class="cls-2" d="M115.95,98.51c3.37-.07-1.56,3.01,0,0"/>
        <path class="cls-2" d="M113.88,101.62c3.37,0-1.56,2.99,0,0"/>
        <path class="cls-4" d="M105.95,102.57c.99-.98,3.79.06,2.91,1.61-1.03,1.08-4-.03-2.91-1.61"/>
        <path class="cls-2" d="M46.58,106.17c-.65,3.63-6.93-.6-3.24-2.73.05.82.16,2.46.21,3.28.75-.04,3.95-2.89,3.03-.55"/>
        <path class="cls-4" d="M30.67,106.87c.57-1.08,1.41-1.29,2.53-.63-.72,1.49-1.56,1.7-2.53.63"/>
        <path class="cls-2" d="M62.92,105.14c.47.82.96,1.64,1.46,2.46l-1.72.03c1.14,1.43,1.59,4.4,3.93,4.16.06-1.63-1.72-2.44-2.48-3.66,1-.75,1.55-1.79,1.64-3.11,1.93,1.25,4.38,3.51,3.14,6.09-.99,3.75-7.02,3.56-8.31.11-1.22-2.32.88-4.53,2.34-6.08"/>
        <path class="cls-4" d="M32.9,108.93c-.18-1.29.49-1.79,2-1.51.16,1.3-.51,1.81-2,1.51"/>
        <path class="cls-2" d="M109.79,107.57q.66.64,0,0"/>
        <path class="cls-2" d="M107.85,110.22q.63-.7,0,0"/>
        <path class="cls-2" d="M107.85,110.22q-.62.75,0,0"/>
        <path class="cls-2" d="M40.32,114.65c.09-1.52.79-2.19,2.1-2.01.55,1.2.42,2.38-.4,3.55-1.05.16-1.62-.36-1.7-1.54"/>
        <path class="cls-2" d="M103.27,114.03c-1.16-1.15,1.8-2.69,2-1.01-.5.25-1.5.76-2,1.01"/>
        <path class="cls-2" d="M91.78,119.52q.6.7,0,0"/>
        <path class="cls-2" d="M89.05,120.4q.63.64,0,0"/>
        <path class="cls-4" d="M65.21,121.23c3.29.47-1.77,2.88,0,0"/>
        <path class="cls-4" d="M61.87,147.37c6.66-.61,13.24.79,19.71,2.2-6.48,1.1-13.11,1.31-19.61.31-.02-.63-.07-1.89-.1-2.51"/>
        <path class="cls-4" d="M67.31,156.28c.28,0,.84,0,1.12,0-.08,1.74.48,3.13,1.66,4.18l.33-2.41c1.04,1,2.04,2.06,3.26,2.9-.04.45-.13,1.35-.17,1.8.55-.07,1.66-.2,2.21-.26v1.27c-.57-.14-1.72-.42-2.3-.56,1.12,1.81,3.32,2.3,4.98,3.48-4.72.25-9.44.34-14.15.3,2.38-3.07,4.15-6.74,3.06-10.71"/>
        <path class="cls-4" d="M60.32,175.64c1.85-2.8,5.52-2.49,8.47-2.47,5.63.53,11.28.57,16.94.53,2.2.07,3.96,2.37,3.07,4.47-.79-2.06-2.22-5-4.98-4.09-7.75,1.45-15.62,3.14-23.5,1.56"/>
        <path class="cls-4" d="M59.74,177.46c6.09.41,12.35-.4,18.32,1.25-5.11.43-10.26.5-15.36.03-1.16.02-2.03-.77-2.96-1.28"/>
        <path class="cls-4" d="M65.07,184.93c1.83,3.44,2.2,7.41,2.63,11.22,1.27,13.47-1.02,26.87-2.7,40.19-.82-.1-2.45-.28-3.26-.37,2.01-13.83,4.64-27.72,3.91-41.76-.16-3.1-.65-6.17-.58-9.28"/>
        <path class="cls-4" d="M69,184.74c.3.35.9,1.05,1.2,1.39,1.9,6.16,2.43,12.63,2.23,19.05-.3,10.42-.45,20.83-.12,31.25-2.07,0-4.12,0-6.17.02,3.01-17.03,4.37-34.45,2.86-51.71"/>
        <path class="cls-4" d="M82.99,190.22c.23-1.68.64-3.33,1.13-4.94-1.39,12.13-.62,24.37.94,36.44.62,4.97,2.23,9.78,2.49,14.79-.27-.32-.81-.96-1.08-1.28-3.02-14.76-5.33-29.94-3.48-45.01"/>
        <path class="cls-4" d="M74.3,190.96c1.48,6.63.62,13.49.77,20.23-.36,8.42.4,16.9-.64,25.28-1.49-1.75-.85-4.19-.97-6.28.02-13.08.75-26.15.84-39.23"/>
        <path class="cls-4" d="M60.81,239.67c7.26-.14,14.52.11,21.79-.21v.31c-3.38.15-6.75.5-10.09,1.04.39,1.58,1.44,2.13,3.17,1.64l.12.36c-3.5.23-6.97.8-10.48.71.07-.48.23-1.45.3-1.93-2.08,2.22-4.39.62-4.81-1.92"/>
        <path class="cls-4" d="M87.03,242.47c-1.44-.41-1.46-3.05.04-3.37,1.73.14,1.67,3.27-.04,3.37"/>
        <path class="cls-4" d="M62.35,245.19c.98.27,1.43.89,1.35,1.88.44,14.69.22,29.39.36,44.09-.07,1.54.17,3.18-.54,4.62-1.66.28-1.06-1.59-1.21-2.57.09-16.01,0-32.02.04-48.02"/>
        <path class="cls-4" d="M86.37,246.45c.32-.23.97-.69,1.29-.92.23,15.55-.15,31.1-.02,46.65-.2,1.37.57,3.49-1.35,3.87-.36-16.53.17-33.07.08-49.6"/>
        <path class="cls-4" d="M65.79,296.12c.62-16.72.18-33.46.44-50.18,2.14.02,4.31.03,6.48.04.25,16.77-.11,33.54.37,50.3-2.44,0-4.87-.06-7.29-.16"/>
        <path class="cls-4" d="M107.54,254.64c2.73.01,5.48.04,8.23.02-.06,3.74.07,7.5-.19,11.24-1.44-3.11-.37-6.69-.68-10-2.23-.07-4.45-.12-6.66-.16-.08,2.14-.13,4.3-.28,6.44-3.16-.04-6.47.58-9.45-.67,2.96-.53,5.99-.42,9.01-.47.03-2.14.04-4.27.02-6.4"/>
        <path class="cls-4" d="M104.85,277.59c3.63.16,7.27.1,10.92-.08-.07,3.44.09,6.89-.24,10.32-1.17-2.9-.42-6.12-.66-9.16-3.27-.07-6.54-.06-9.8.02-.05-.28-.16-.82-.22-1.1"/>
        <path class="cls-4" d="M59.4,300.76c1.16-1.25,2.92-.92,4.46-1,6.91.02,13.82.54,20.74.3l-.07,1.4c-3.8.15-7.6.34-11.39.31-.04.26-.11.79-.14,1.06,3.69.12,7.41.24,11.07.88-7.15.37-14.3,1.29-21.46.55-.09-.86-.26-2.56-.35-3.42-1.5.8-2.74,2.79-.38,3.49,6.15,2.04,12.82,1.07,19.13,2.34-6.39.36-12.89.28-19.18-1.03-2.03-.5-3.56-2.91-2.43-4.88"/>
        <path class="cls-4" d="M88.91,299.37c2.44,1.63,1.93,5.33-.92,6.12,1.5-1.78,1.88-3.93.92-6.12"/>
        <path class="cls-4" d="M66.65,324.1c-.82-2.62.42-5.33,2.07-7.33.14.83.4,2.49.53,3.32.83-1,1.63-2.04,2.54-2.99,1.02.91,1.98,1.93,2.95,2.93.12,1.74.3,3.48.48,5.23-2.42.38-5.06.68-7.17-.94,1.15,3.93,6.22,6.69,9.78,4.06,3.52-2.23,3.69-6.71,3.61-10.44,2.81,4.83-.7,11.59-6.13,12.4-3.89.39-7.79-2.43-8.66-6.24"/>
        <path class="cls-4" d="M75.71,320.49c1.44-.52,1.61,2.88.1,2.38-.03-.6-.08-1.79-.1-2.38"/>
      </g>
    </g>
  </g>
</svg>