<?xml version="1.0" encoding="UTF-8"?>
<svg id="Layer_1" data-name="Layer 1" xmlns="http://www.w3.org/2000/svg" xmlns:xlink="http://www.w3.org/1999/xlink" viewBox="0 0 150.2 334.97">
  <defs>
    <style>
      .cls-1 {
        fill: none;
      }

      .cls-2 {
        fill: #16181a;
      }

      .cls-3 {
        clip-path: url(#clippath-1);
      }

      .cls-4 {
        fill: #fff;
      }

      .cls-5 {
        clip-path: url(#clippath);
      }
    </style>
    <clipPath id="clippath">
      <rect class="cls-1" y="0" width="150.2" height="334.97"/>
    </clipPath>
    <clipPath id="clippath-1">
      <rect class="cls-1" y="0" width="150.2" height="334.97"/>
    </clipPath>
  </defs>
  <g id="Artwork_12" data-name="Artwork 12">
    <g class="cls-5">
      <g class="cls-3">
        <path class="cls-2" d="M56.7,2.14c15.83-3.7,32.93-2.71,47.93,3.76,12.06,4.95,22.72,13.21,30.54,23.65,12.42,16.17,17.34,37.7,14.03,57.74-2.9,17.73-12.54,34.21-26.45,45.56-9.63,8.44-21.77,13.24-34.05,16.28,1.28,2.07,2.36,4.51,1.64,6.99-.81,3.59-5.8,4.85-5.1,8.97-.7,4.42,3.28,7.13,4.62,10.91,1.24,2.39,4.09,4.05,3.9,7.1-.48,3.47-2.17,6.6-3.06,9.97-3.74,11.61-3.59,24.12-1.41,36.03,2.69,17.26,9.07,34.19,7.57,51.89-.52,9.82-3.47,19.63-9.32,27.62.33,1.95-.38,3.74-1.38,5.37,1.33,2.46,3.73,5.16,2.56,8.16-1.17,2.61-3.05,4.84-4.29,7.42-2.38,5.27-9.62,6.69-14.47,4.25-4.29-2.18-5.57-7.12-8.16-10.79-2.04-3.1.41-6.6,2.32-9.04-1.21-1.67-2.2-3.51-2.13-5.62-7.03-9.12-8.86-21.03-9.12-32.23.03-22.06,9.63-42.93,9.15-65.05-.32-7.24-1.04-14.62-3.88-21.35-.93-2.6-2.64-5.28-1.87-8.14.43-1.98,2.11-3.24,3.5-4.57.49-2.4,1.81-4.43,3.29-6.33,1.94-3.58,2.09-8.86-1.52-11.47-3.4-2.53-2.7-7.41-.28-10.36C30.75,143.31,5.36,116.87.94,86.19c-2.73-16.88.52-34.81,9.41-49.46C20.42,19.69,37.4,6.77,56.7,2.14"/>
        <path class="cls-4" d="M65.21,4.83c18.48-2.93,37.93,2.51,52.58,14.07,11.28,8.58,19.28,20.89,23.97,34.17,5.31,15.93,4.3,33.88-2.87,49.07-6.56,15.04-18.7,27.36-33.11,35.05-13.17,7.04-28.61,9.03-43.26,6.56-14.27-2.31-27.17-10.05-37.41-20.03-13.32-13.23-20.87-31.92-20.89-50.65.18-13.35,4.53-26.48,11.86-37.6C27.24,19.03,45.34,7.21,65.21,4.83"/>
        <path class="cls-2" d="M64.18,6.77c17.42-2.71,35.88,1.36,50.31,11.55,11,7.56,19.41,18.55,24.58,30.8,6.12,15.53,6.29,33.28.59,48.96-6.06,16.02-18.05,29.71-33.17,37.76-12.42,6.38-26.79,9.2-40.65,7.05-13.98-1.18-26.85-8.27-37.16-17.49C5.49,105.37-.72,68.67,14.47,42.1c6.33-11.58,15.59-21.79,27.49-27.76,6.99-3.56,14.43-6.39,22.22-7.57"/>
        <path class="cls-4" d="M63.32,13.89c13.25-2.33,27.32-.97,39.4,5.18,15.13,7.12,26.94,20.93,31.57,37,4.84,15.91,3.22,33.97-5.3,48.36-6.58,12.2-17.48,21.95-30.32,27.17-15.09,6.71-32.79,6.36-47.95.09-13.84-5.87-25.58-16.81-31.78-30.57-6.99-15.61-7.73-34.1-1.05-49.96,7.49-19.1,25.28-33.59,45.43-37.27"/>
        <path class="cls-2" d="M32.67,33.06c9.29-10.07,22.55-15.92,36.1-17.12,18.17-1.98,37.31,4.88,49.43,18.7,2.39,3.29,4.91,6.49,7.17,9.87,9.5,15.98,10.92,36.53,3.52,53.61-5.61,12.26-14.99,23.13-27.18,29.17-20.24,10.59-46.49,7.58-63.92-7.16,6.47,3.51,12.82,7.53,20.07,9.31,10.73,2.98,22.3,3.07,32.92-.41,15.28-4.86,28.42-16.16,35.24-30.71,10.07-19.62,6.8-44.75-6.84-61.84-9.86-11.37-24.77-17.66-39.59-18.81-14.84-.67-30.2,4-41.38,13.98-11.53,9.85-18.61,24.49-19.95,39.52-1.11,12.43,1.92,25.16,8.67,35.67,2.19,3.68,5.23,6.74,7.72,10.21-10.12-8.9-16.38-21.78-18.29-35.03-2.2-17.65,3.89-36.19,16.31-48.96"/>
        <path class="cls-2" d="M35.58,41.12c9.34-11.55,24.49-17.2,39.07-17.35-6.64,1.72-13.38,3.46-19.38,6.89-17.17,9.62-29.87,28.17-30.28,48.11-.17.02-.5.06-.67.08-1.11-13.37,2.45-27.41,11.26-37.73"/>
        <path class="cls-4" d="M137.76,56.11c-1.01-4.06-2.74-7.88-3.83-11.9,5.27,10.77,8.45,22.81,7.35,34.87-1.12,21.87-14.23,42.61-33.27,53.32-13.47,8.01-29.95,11.22-45.34,7.9-16.36-3.02-31.05-12.92-41.06-26.07-1.37-1.71-2.35-3.77-4.1-5.13-2.48-3.58-3.05-7.96-4.63-11.94,3.17,7.82,6.98,15.66,13.33,21.42,10.32,10.93,24.31,18.7,39.36,20.3,14.56,2.22,29.84-.87,42.42-8.52,24.92-14.52,37.78-46.53,29.77-74.25"/>
        <path class="cls-2" d="M127.3,74.04c.22,16.51-7.86,32.72-20.99,42.67-9.28,6.98-21.17,11.12-32.83,9.96,12.78-.91,24.94-6.8,34.23-15.51,10.7-9.59,17.05-23.13,19.59-37.12"/>
        <path class="cls-4" d="M66.25,150.39c4.81-1.12,9.73.16,14.56.59-2.8.54-5.69.48-8.44,1.2,2.35.87,4.49,2.35,6.98,2.85-.21.15-.62.46-.82.61h-.47c-1.24-.64-2.51-1.2-3.8-1.68l.24,2.18c-3.11.06-6.23.34-9.32,0-2.57-1.2-1.67-5.4,1.07-5.74"/>
        <path class="cls-4" d="M83.99,151.83c.27-1.46,1.85.67,1.93,1.3.43,1.19-.43,3.17-1.84,3.03-.32-1.38.7-2.91-.09-4.33"/>
        <path class="cls-4" d="M68.43,160.16c1.47.94,2.26,2.47,3.05,3.97-.07-.6-.2-1.79-.26-2.38l1.15-.12c.58,2.28,1.2,4.56,2.02,6.78.22-1.11.68-3.32.91-4.42.14,1.87.18,3.75.24,5.63-.5-.06-1.49-.18-1.99-.25.26.58.78,1.72,1.04,2.29.55-.28,1.63-.84,2.18-1.11l.54,1.81c-3.25.16-6.48.51-9.64,1.23.78.12,2.34.36,3.12.49,3.13.65,6.36.5,9.49,1.22-5.28,1.05-10.74,1.19-16.12,1.25,1.46-2.21,3.11-4.35,4.03-6.86,1.03-3.08.34-6.36.24-9.53"/>
        <path class="cls-4" d="M59.94,183.7c.31-1.86,1.73-3.25,3.62-3.41,6.39-.97,12.92-.42,19.31.32-2.36.56-4.79.73-7.18.97,2.42.19,4.86.29,7.24.89-7.59,1.05-15.33,1.48-22.99,1.23"/>
        <path class="cls-4" d="M85.05,180.33c1.41.63,2.8,1.32,4.18,2.04-.3.43-.9,1.29-1.21,1.72-1.04-1.22-2.03-2.48-2.97-3.76"/>
        <path class="cls-4" d="M62.84,188c2.9,4.49,3.64,9.95,4.72,15.09,1.77,8.24.2,16.64-.69,24.88-1.28,9.13-2,18.52-5.74,27.07-1.35,2.54.26,5.69-1.45,8.06-1.87,2.52-1.4,6.14.49,8.51-1.2,2-2,4.53-.9,6.76,1.53,2.61,1.24,5.89.02,8.57-1.42-.06-.86-1.88-1.27-2.72-2.34-11.75.36-23.58,2.46-35.14,3.54-15.68,7.18-31.78,4.82-47.93-.33-4.48-2.25-8.66-2.46-13.15"/>
        <path class="cls-4" d="M67.72,187.79c1.01.47,1.63,1.23,1.84,2.27,2.63,13.26,3.57,26.79,3.59,40.28,1.23-10.65,1.29-21.47.04-32.12,1.81,7.45,1.09,15.19,1.23,22.78.19,6.53-.14,13.06-.21,19.6-4.16,3.07-6.99,7.95-6.65,13.23-1.78.12-3.45.71-5.01,1.52,4.56-10.13,5.05-21.38,6.76-32.2,2.13-11.75.3-23.71-1.59-35.36"/>
        <path class="cls-4" d="M84.03,231.26c-1.67-9.63-2.07-19.49-.73-29.19.26,9.98.41,19.99,1.83,29.88,1.06,6.42,2.04,12.84,3.32,19.22-2.65-6.33-3.23-13.22-4.42-19.91"/>
        <path class="cls-4" d="M71.36,258.41c-2.74-4.7-1.01-12.16,4.09-14.53,4.18,3.88,6.21,10.06,3.55,15.4-.08-2.36.29-4.7.19-7.05-.32-2.54-2.04-4.53-3.61-6.41-4.55,2.39-4.43,8.17-4.22,12.59"/>
        <path class="cls-4" d="M73.32,263.17c-1.02-4.79-1.26-10.11,1.45-14.42,2.08,2.89,2.75,6.43,1.61,9.83-1.29,14-.83,28.11-1.4,42.15-.15,0-.43.03-.58.04-.32-5.9-.29-11.81-.72-17.7-.26-4.08-1.86-7.89-2.67-11.86-.61-1.61.45-3.07,1.2-4.39.77,3.83.98,7.78,2.13,11.54,0-5.08.03-10.2-1.02-15.19"/>
        <path class="cls-4" d="M62.1,262.08c.47-1.79.57-4.11,2.61-4.86,2.22-1.52,4.28,1.09,5.06,2.95,1.1,2.82,2.97,6.44.41,9.08-1.42-3.88-2.64-7.95-5.13-11.29-.98,1.38-1.9,2.8-2.95,4.12"/>
        <path class="cls-4" d="M81.74,258.15c1.89-2.12,4.76-.87,5.2,1.73-1.31-.72-3.26-2.93-4.26-.67-2.64,4.99-3.38,10.67-4.68,16.1-.42-5.82.07-12.38,3.74-17.16"/>
        <path class="cls-4" d="M64.9,262.57c3.34.07-1.42,3.01,0,0"/>
        <path class="cls-4" d="M61.04,267.24c.37-.65,1.11-1.93,1.48-2.57,8.31,2.65,7.9,13.16,8.77,20.22-2.8-2.91-1.95-7.75-4.21-11.17-1.09-2.98-4.41-4.02-6.04-6.48"/>
        <path class="cls-4" d="M82.32,265.58c.58-.08,1.74-.24,2.32-.32-1.32,1.53-2.57,3.12-3.81,4.7.47-1.47.97-2.93,1.49-4.38"/>
        <path class="cls-4" d="M84.49,267.99c.89-1.21,2.13-2.09,3.32-3,.37,2.56-2.2,3.88-3.37,5.78-5.04,6.63-5.35,15.26-6.32,23.19-.41-9.02,1.15-18.43,6.37-25.97"/>
        <path class="cls-4" d="M60.46,276.95c.46-1.44,1.15-2.78,2.11-3.94,2.09,1.61,3.99,3.53,4.64,6.23-1.54-2.81-4.07-3.56-6.75-2.29"/>
        <path class="cls-4" d="M82.89,278.02c1.01-1.74,2.32-3.28,3.86-4.58,3.51,2.22,4.11,6.71,3.61,10.5-.4.11-1.2.34-1.6.45,1.55-3.28,1.68-7.19-1.4-9.64-1.67.84-3.05,2.09-4.47,3.27"/>
        <path class="cls-4" d="M62.97,278.07c2.81-1.65.3,3.48,0,0"/>
        <path class="cls-4" d="M60.7,282.53c1.16-1.08,2.36,1.19,1.17,1.9-1.34,1.17-2.33-1.06-1.17-1.9"/>
        <path class="cls-4" d="M61.69,286.26c1.74-1.04,3.86-.97,5.19.71,3.07,3.59,3.99,8.69,3.42,13.29-1.01-5.44-2.03-12.73-8.61-14"/>
        <path class="cls-4" d="M83.05,287.36c1.17-1.39,3.03-1.09,4.66-1.04-6.3,1.37-7.3,8.36-8.7,13.58.4-4.37,1.16-9.06,4.04-12.54"/>
        <path class="cls-4" d="M59.48,293.15c-.23-2.21.91-4.86,3.46-3.31,3.58,2.86,5.46,7.77,5.46,12.33-.9-2.63-1.69-5.3-2.7-7.88-.5.51-1,1.01-1.49,1.52-.24-.19-.73-.57-.98-.75.48-.54,1.94-1.37.92-2.18-1.14-2.12-3.17-.1-4.67.27"/>
        <path class="cls-4" d="M60.59,296.06c3.16,2.02,4.59,5.63,5.99,8.95-2.29-2.78-4.27-5.8-5.99-8.95"/>
        <path class="cls-4" d="M65.46,309.59c5.44.48,10.9.88,16.36.26-5.03,2.24-11.46,2.36-16.36-.26"/>
        <path class="cls-4" d="M67.86,316.3c3.37.29,6.76.54,10.11,1.13-1.77.45-3.54.85-5.27,1.37,1.73.38,3.49.59,5.26.84-2.43,1.11-5.41.54-7.61,2.08,3.19.45,6.41.02,9.61-.03-4.31,1.65-9.41,1.88-13.72.14-1.91-1.9.73-3.86,1.62-5.53"/>
      </g>
    </g>
  </g>
</svg>