<?xml version="1.0" encoding="UTF-8"?>
<svg id="Layer_1" xmlns="http://www.w3.org/2000/svg" version="1.1" viewBox="0 0 288 269.82">
  <!-- Generator: Adobe Illustrator 30.5.1, SVG Export Plug-In . SVG Version: 2.1.4 Build 3)  -->
  <path d="M256.14,86.56c-1.58-14.41-16.37-20.67-18.18-24.97-1.81-4.27-.02-9.48-.67-15.58-.65-6.11-6.67-9.62-12.92-12.22-6.24-2.6-27.98-1.01-38.12-.84-13.3.23-20.92,1.81-33.02-1.37-24.79-6.53-47.11-5.38-61.91-1.83-19.67,4.71-45.25,26.22-54.12,51.78-5.94,17.1-5.61,34.23-3.68,56.11,1.86,21.08,16.17,33.62,36.44,44.56,25.33,13.66,90.13,10.67,126.17,9.29,30.34-1.16,49.05-21.24,55.54-33.42,5.33-10.01,7.91-33.49,2.4-42.49-3.57-5.83,4.21-9.43,2.07-29.02ZM167.68,37.05c4.71.11,14.45-.5,14.48,1.43.04,3.38-5.23,4.86-10.7,4.98-5.72.13-18.17.35-17.43-4.72.33-2.29,8.06-1.82,13.65-1.69ZM146.61,63.82c3.51-2.6,7.64,5.08,10.9,6.34,9.41,3.64,21.21-.19,23.81,1.89,2.6,2.08-6.76,10.36-17.16,14.65-10.4,4.29-21.32,5.07-27.56,2.21-8.93-4.09,4.74-21.18,10.01-25.08ZM129.2,73.06c-2.09,4.8-2.48,7.52-4.04,10.64-1.56,3.12-9.62,2.34-14.56,1.04-4.94-1.3-5.44-13-3.9-17.34,1.43-4.03,10.6-4.57,16.84-3.92,6.24.65,10.06-4.39,12.92-5.95,2.86-1.56,7.68-2.55,7.42-.21-.26,2.34-11.17,7.68-14.68,15.74ZM131.53,31.59c3.25.39,11.49,1.43,12.4,2.47.91,1.04-.91,4.94-7.45,4.55-5.71-.34-21.41.78-21.41-4.68,0-2.76,13.22-2.73,16.47-2.34ZM82.28,179.75c-21.19-6.37-38-19.51-42.42-36.92-1.28-5.03,12.41-8.41,20.42-10.12,9.1-1.95,24.96-4.03,47.07,3.25,26.19,8.62,26,35.29,19.24,43.22-6.76,7.93-23.1,6.95-44.3.58ZM246.23,145.48c-2.53,3.69-5.38,8.37-22.21,15.24-12.63,5.16-20.85,7.25-32.81,9.72-2.7.56,10.89,6.97,38.24-5.77,7.57-3.53,8.33-4.25,7.35.11-1.6,7.11-20.76,21.91-57.8,21.6-10.28-.09-49.82.31-49.5-.12,6.76-8.97,9.28-22.32,2.76-35.85-6.8-14.09-24.17-22.37-38.48-23.8-14.3-1.43-27.67-.87-36.3,1.16-7.48,1.76-17.88,5.07-17.33,5.1,0,0-4.47-30.08,7.46-55.02,10.01-20.93,25.51-35.08,39.07-40.29,11.83-4.55,21.06-4.03,23.01-2.08,1.95,1.95.91,7.02,9.75,7.8,8.84.78,19.49,1.19,19.49,1.19,0,0-2.85,9.08-10.78,10.9-4.86,1.11-23.8.12-26.53,3.76-2.73,3.64-7.79,27.43,9.5,33.93,17.29,6.5,40.31,5.46,52.4,1.69,12.09-3.77,23.27-14.17,25.22-19.37,1.95-5.2,2.22-11.27.14-12.05-2.08-.78-24.97-.3-29.78-1.6-4.81-1.3-10.22-10.81-7.53-13.5,3.9-3.9,26,1.15,32.24-2.23,6.24-3.38,5.85-7.8,7.28-8.32,1.43-.52,11.7-.65,14.3-.39,10.74,1.07,17.49,1.37,22.3,8.26,3.8,5.44,3.72,14.08,2.42,19.14-1.3,5.07-4.57,12.23-9.77,17.69-3.77,3.96-13.52,11.7-18.46,14.82-4.55,2.87,11.12,3.65,21.99-6.31,9.51-8.71,12.25-21.46,15.83-18,8.71,8.45,9.92,11.05,10.74,21.62.91,11.7-4.7,20.33-13.07,25.69-6.32,4.04-19.37,9.88-27.17,11.7-4.1.96,12.29,4.07,20.93.64,10.72-4.25,15.64-13.02,17.57-9.72,5.52,9.43,1.02,17.56-2.47,22.64Z"/>
  <path d="M99.45,158.84c-.03-5.38-3.87-11.29-14.14-12.98-6.59-1.08-12.37.93-13.28,5.48-1.65,8.23,1.04,14.68,13.13,15.72,12.09,1.04,14.31-3.85,14.29-8.22ZM86.61,162.73c-5.28,0-11.43-3.45-10.1-9.66.81-3.82,12.21-2,15.58.58,4.12,3.15.58,9.09-5.48,9.09Z"/>
  <path d="M263.83,197.23c-1.03-.41,12.73-12.04,15.74-35.16,1.2-9.19,2.63-70.54,2.05-84.99-.58-14.45.22-22.35-14.09-41.59C239.29-2.49,194.94,2.73,164.6.31c0,0-39.12-1.1-72.81.87C38.21,4.3,11.43,45.36,7.01,56.11c-4.47,10.86-9.36,74.86-5.76,99.47,1.75,11.97,16.64,29.5,21.06,34.31,0,0-21.84,14.82-21.84,35.74s10.21,31.68,18.85,37.17c11.88,7.54,31.99,8.07,45.72,5.91,16.66-2.63,24.02-7.73,30.35-13.96.09-.09,5.53,4.93,12.14,7.15,13.91,4.68,27.59,7.43,52.64,7.3,30.95-.16,45.88-16.4,46.27-16.53.39-.13,5.18,4.73,13.83,8.27,13.65,5.59,34.03,3.22,43.34-.52,11.96-4.81,22.6-11.98,24.29-32.77,1.66-20.4-14.34-26.61-24.05-30.42ZM88.23,249.49c-8.03,12.13-22.14,11.74-37.14,12.02-16.84.32-34.22-7.02-38.91-17.17-5.68-12.31-3.51-24.72-1.17-29.72,3.9-8.32,10.45-18.06,16.13-18.16,5.68-.11,18.8,4.41,29.54,10.2,7.58,4.09,16.61,9.61,10.59,17.38-4.9,6.32-13.31,9.23-18.65,4.76-4.73-3.95-1-9.46-1.94-10.3-.95-.83-7.49-1.62-9.39,4.9-1.22,4.2.53,14.1,10.21,18.62,9.68,4.52,19.05,5.58,29.36-1.89,10.31-7.47,10.6-26.37,10.91-26.58.32-.21,8.41.51,9.91.68,1.75.19-.19,21.26-9.46,35.26ZM76.6,214.13l6.51-3.11c-.13,4.69-1.37,22.04-13.99,27.87-8.98,4.15-17.91-.4-15.16-.58,8.18-.54,15.46-2.23,18.95-8.26,2.46-4.25,5.84-8.69,3.69-15.93ZM202,241.18c-3.37,10.84-19.1,20.04-45.73,20.25-26.63.21-53.23-9.54-54.7-11.75-1.47-2.21-.19-8.5,1.08-14.7.7-3.46,3.73-15.15,4.46-18.41,0,0,21.99,1.26,22.83,1.26s-.16,6.03.49,12.1c.53,4.94,3.23,17.23,24.77,17.23,26.82,0,32.59-25.65,33.33-26.17.74-.53,14.63-.53,15.05-.11.42.42,1.79,9.47-1.58,20.3ZM141.02,226.66c.25,6.36,6.85,8.71,15.35,8.64,11.7-.09,14.39-6.49,14.96-8.64,1.21-4.59,1.71-4.98,5.93-5.15,5.37-.21,4.43.52,3.8,2.52s-3.68,17.71-27.36,17.46c-20.63-.21-20.61-21.05-16.75-20.95,4.75.12,3.87.64,4.08,6.12ZM147.16,222.24c-.03-1.7,5.06-1.81,8.43-1.6,4.58.27,9.13.39,8.92,2.96-.24,2.94-4.21,4.53-8.67,4.68-9.42.32-8.65-3.98-8.68-6.04ZM92.7,206.91c-26.14-4.99-50.84-13.4-63.97-27.04-17.51-18.2-17.19-26.06-17.88-41.48-.69-15.42.24-61.61,3.67-72.42C20.25,47.86,47.49,12.07,88.57,9.81c28.82-1.58,37.67-1.87,51.59-1.6,20.02.39,49.6.25,75.43,4.58,25.83,4.33,57.77,34.44,57.78,63.71,0,29.99,2.68,84.03-6.65,101.99-9.17,17.64-28.94,34.68-54.11,34.38-25.31-.3-88.73,0-119.91-5.96ZM239.63,231.51c-4.37,1.07-9.52-1.07-10.88-2.43-3.56-3.56-4.05-6.67-3.97-6.97.32-1.26,3.51-1.28,4.46-1.28s1.89,2.06,3.1,4.8c2.47,5.59,8.52,5.58,7.29,5.88ZM252.17,255.99c-19.68,3.89-34.52-1.63-39.25-9.52-3.55-5.91.49-14.67.29-24.57l7.39.05s-.61,5.22,1.51,9.63c3.08,6.39,14.13,7.18,24.13,5.08,13.03-2.74,14.01-12.99,12.63-14.18-1.38-1.19-7.83,4.53-14.77,5.44-4.47.58-8.1-1.9-6.32-7.48,1.79-5.58,18.55-14.4,27.11-13.4,11.79,1.37,14.79,10.98,14.57,22.24-.21,11.33-7.62,22.82-27.3,26.71Z"/>
</svg>