<?xml version="1.0" encoding="UTF-8"?>
<svg id="Layer_1" data-name="Layer 1" xmlns="http://www.w3.org/2000/svg" xmlns:xlink="http://www.w3.org/1999/xlink" viewBox="0 0 477 501">
  <defs>
    <style>
      .cls-1 {
        fill: none;
      }

      .cls-2 {
        fill: #1f3d3a;
      }

      .cls-3 {
        clip-path: url(#clippath-1);
      }

      .cls-4 {
        clip-path: url(#clippath);
      }
    </style>
    <clipPath id="clippath">
      <rect class="cls-1" width="477" height="501"/>
    </clipPath>
    <clipPath id="clippath-1">
      <rect class="cls-1" width="477" height="501"/>
    </clipPath>
  </defs>
  <g id="Maple">
    <g class="cls-4">
      <g class="cls-3">
        <path class="cls-2" d="M218.82,25.72c-1.36-11.62,6.53-16.26,11.83-25.67,4.46,9.55,11.3,14.71,11.17,26.09,3.62-2.2,7.53-4.01,11.32-5.9.81,7.08.5,10.51-2.36,17.02,1.18-.37,2.36-.74,3.52-1.21,4.33-1.73,6.3-4.46,8.08-8.6.16.42.36.84.55,1.24,1.67,3.44,4.24,4.67,7.65,5.88-.68-5.22.11-8.94,2.54-13.59,3.23,1.92,6.13,4.15,9.02,6.55,3.2-5.3,8.91-9.92,8.86-16.62v-.26l.24-.16c.7.31,1.18.71,1.73,1.23,6.32,5.84,8.1,13.56,8.44,21.86,3.43-1.88,6.53-4.53,9.6-6.9,1.6,2.7,2.85,5.79,3.1,8.92.37,4.59-1.49,7.97-4.35,11.33,3.15-1.05,6.03-2.1,8.91-3.75-.18,2.65-.21,5.48-.82,8.07-1.05,4.38-4.56,7.61-8.28,9.91,2.01.29,3.83.63,5.76,1.23.47-2.12.84-4.27,1.29-6.4,2.7,2.01,5.43,3.27,8.52,4.53-.24-1.02-.49-2.05-.61-3.1-.58-4.58.86-7.95,3.61-11.51,2.59,1.71,4.88,4.15,7.14,6.27,5.09-5.69,8.83-8.45,11.45-16,1.31,1.2,2.33,2.47,3.22,3.99,3.35,5.79,3.51,12.08,1.86,18.41,2.47-.66,4.98-1.26,7.47-1.88-.16,2.34-.36,4.59-1.21,6.79-1.44,3.72-4.12,5.54-7.63,7.06,1.7.79,3.51,1.26,5.3,1.78-.27,4.19-1.86,7.23-4.04,10.73,5.04-3.26,7.73-6.87,13.61-9.42.68,2.01,1.08,3.93,2.21,5.74,5.12-4.22,11.38-4.57,16.71-9.62.86,3.56,1.57,7.11,1.26,10.8-.44,5.11-2.81,8.42-6.63,11.64,2.65,1.31,6.48,2.21,8.78,3.8l-.68,1.92c-1.23,1.97-2.54,3.7-4.09,5.43,2.8-2.08,5.72-3.81,8.76-5.5l2.15-1.05c.86,3.12,1.79,6.34,2.34,9.52,6.08-2.39,11.07-3.93,14.81-9.6,2.39,6.11,4.48,13.61,1.65,19.95-1.39,3.1-3.67,5.22-6.55,6.89,3.94.02,7.86-.21,11.8-.24-2.41,5.64-7.21,9.05-12.79,11.28-1.28.52-2.62.94-3.94,1.32,4.14,1.86,7.66,4.38,10.99,7.45-6.3,3.94-13.63,4.83-20.9,4.88,4.64,2.93,6.55,6.24,8.07,11.36,6.72-4.31,11.93-7.92,15.23-15.45,4.17,5.92,4.99,11.43,5.21,18.56,4.3-2.26,8.61-4.38,13.26-5.88,5.87-1.91,11.44-2.8,16.88-5.92-2.97,4.14-2.49,8.87-3.01,13.67-1.15,10.86-7.02,18.98-16.97,23.42,3.33.39,6.84.58,10.01,1.75,6.55,2.42,14.87,9.26,21.93,8.45,1-.11,2.01-.53,2.94-.87-11.83,8.36-13.45,16.08-29.66,14.57,3.51,5.71,7.84,10.01,14.52,11.61l.26.07c-9.29,4.48-14.94,5.11-24.94,2.94-.76,2.41-1.54,4.85-2.6,7.14l2.73.34c1.5.06,2.96.23,4.44.45l3.85.65.53-.39-.16.32.31.39-.52.05c-1.45,2.26-3.28,4.43-4.91,6.58,6.55,1.76,12.4,1.52,18.98.49-2.73,5.48-6.27,10.22-10.52,14.61,4.93,5.11,9.21,7.73,15.52,10.83-3.09,2.54-6.34,5.03-10.3,5.97-5.35,1.26-9.78-.66-14.24-3.38,1.94,5.01,3.41,10.3,3.56,15.7-5.4-3.33-10.26-6.47-16.79-6.63,2.46,4.15,5.59,5.87,10.01,7.31-2,.58-3.94,1.73-5.9,2.49-5.8,2.26-11.25,1.76-17.2.5,1,4.75,2.7,10.64,6.39,14.05,3.38,3.14,7.32,3.35,11.67,3.27-2.94,1.57-5.92,2.96-9.15,3.78-7.27,1.84-13.48.95-19.92-2.83-.6,3.78-.79,7.76-1.2,11.57-4.64-5.59-7.7-8.5-14.48-11.28-.81,3.59-1.91,6.98-3.12,10.46-1.75-3.62-3.36-6.92-6.81-9.2.73,3.41,1.37,6.58,3.22,9.62,2.89,4.79,7.5,7.68,12.83,9.02-2.39,1.53-4.64,2.57-7.45,3.09-6.45,1.19-13.03-.03-18.44-3.74-.34,5.29-1.73,10.33-2.64,15.52-3.41-6.32-6.48-10.8-12.37-15.03-1.54,3.8-2.05,7.31-1.5,11.36-1.05-.24-2.09-.55-3.12-.9-8.5-2.96-10.76-10.12-14.29-17.57-2.36,2.94-3.64,5.88-4.8,9.46-2.99-7.37-4.11-10.36-4.78-18.41-2.94,2.75-5.24,5.88-7.27,9.34-.37-.76-.65-1.54-.89-2.36-1.67-5.66-2.02-11.46.94-16.76,3.2-5.72,8.23-7.6,14.21-9.29-2.41-.76-4.9-1.39-7.37-1.96-17.07-3.86-39.07-2.47-54.17,7.16-5.3,3.39-8.16,7.61-9.49,13.76-2.28,10.6-1.39,22.21-.82,32.96,1.13,21.71,2.81,44.29,10.64,64.79,2.17,5.66,4.87,10.96,7.7,16.33,1.95,3.72,3.78,7.73,6.08,11.23,4.28,6.51,28.11,17.89,35.76,20.19,7.73,2.33,15.84,3.15,23.42,5.98,4.56,1.7,8.84,4.04,13.22,6.11,5.74,2.72,11.51,4.88,17.64,6.56,12.75,3.51,25.9,5.27,38.86,7.81l-19.56.32c-9.54.23-18.86.6-28.26-1.44-9.21-2-17.83-6.19-27.09-7.9-9.46-1.74-19.19-1.24-28.71-2.54-6.03-.82-11.48-3.3-17.38-4.41-.11-.02-.23-.03-.34-.07,4.77,2.31,9.34,5.14,14.16,7.31,11.3,5.08,22.7,9.44,33.64,15.32,2.93,1.57,6.11,3.1,8.81,5.08-14.34-5.67-33.22-6.95-48.51-7.1-8.79-.08-17.18.44-25.86-1.52-6.87-1.55-13.24-4.72-19.46-7.9,6.58,11.28,14.24,17.59,26.82,21.72-15.19-1.31-27.25-2.86-38.59-14.42-3.94-4.03-7.35-8.34-12.2-11.35-5.12,1.71-10.28,3.36-15.34,5.29-5.45,2.07-10.77,4.45-16.21,6.52-12.87,4.88-26.01,8.45-39.68,10.02-2.36.27-5.64,1.15-7.94.84,1.54-1.02,4.53-1.46,6.3-2.05,2.28-.76,4.51-1.62,6.71-2.59,14.52-6.5,27.66-15.73,38.67-27.21-5.46,3.36-11.12,8.05-17.51,9.38-8.16,1.7-16.59-.26-24.72-1.16-4.12-.45-8.28-.58-12.43-.4-6.89.32-13.56,2.47-20.19,4.2-4.83,1.29-9.73,2.3-14.68,3.02-13.71,1.92-28.11.92-41.59,3.44,11.98-5.72,29.55-6.5,42.66-10.33,10.8-3.15,19.88-10.31,30.84-13.09,9.46-2.39,19.82-1.05,28.82-5.12,3.51-1.59,6.53-3.98,9.38-6.55,5.66-5.11,10.54-11.11,15.45-16.91,3.2-3.77,6.66-7.53,9.31-11.72,1.52-2.42,2.59-5.07,3.59-7.74,4.61-12.41,6.61-25.43,8.41-38.49,2.46-17.86,4.15-35.74,3.09-53.78-.29-4.93-.36-10.75-2.52-15.26-2.85-5.95-10.57-9.21-16.42-11.25-16.96-5.92-36.69-6.24-53.07,1.65,3.94.16,8.16.7,11.82,2.28,3.18,1.39,5.85,3.7,7.08,7.01,2.17,5.88-.32,12.01-2.8,17.35-1.47-3.62-3.28-6.3-6.16-8.96-1.49,6.11-3.09,12.08-6.74,17.28-.68-3.1-1.75-5.38-3.31-8.15-.53,1.5-1.12,3.02-1.78,4.48-3.12,6.77-8.58,11.93-15.6,14.5.65-4.83-.08-8.42-1.68-13-3.96,4.44-7.32,9.49-10.35,14.6-1.62-4.48-2.47-9.83-2.73-14.6-2.36,1.31-5.06,2.41-7.68,3.09-7.34,1.89-13.59-.19-19.9-3.96,5.64-.97,10.04-2.6,13.82-7.08,1.66-1.97,4.7-6.92,4.14-9.55-.13-.65-.44-.76-.95-1.08-2.18.63-6.5,6.24-7.73,8.26-.05.08-.11.18-.16.28-1.1-3.44-2.63-6.35-4.87-9.21-3.73,4.72-8.45,8.18-13.93,10.64,1.78-3.62,2.09-6.16,1.52-10.09-1.68.92-3.38,1.68-5.24,2.18-8.18,2.17-16.54-.21-23.66-4.27,3.85-.1,7.74-.81,10.73-3.44,4.09-3.59,4.9-8.87,5.21-14-.27.07-.55.15-.82.21-6.79,1.66-13.22.73-19.22-2.89,4.96-1.65,7.61-4.04,10.14-8.52-6.19,1.33-11.9,3.86-17.65,6.4.57-5.14,1.2-10.02,3.3-14.79-2.51,1.49-5.03,2.62-7.94,2.94-6.45.73-11.65-2.8-16.46-6.68,6.16-2.05,10.41-4.82,14.92-9.46-5.17-4.27-8.18-9.71-11.02-15.7,7.24,1.88,12.14,1.81,19.4.39-1.49-2.54-3.35-4.98-5.16-7.29,3.75-1.02,7.4-2.23,11.07-3.54-.73-1.42-1.33-2.93-1.92-4.4-8.29,2.12-16.1.73-23.62-3.12,6.35-2.49,10.46-6.06,15.39-10.64-1.88-.34-3.73-.78-5.58-1.31-8.76-2.52-17.68-7.52-22.24-15.68,1.37.47,2.8,1.39,4.27,1.44,5.37.21,14.06-6.22,19.61-8.02,3.07-1,6.19-1.23,9.41-1.31-9.7-5.19-18.1-12.61-19.25-24.23-.5-5.04-.18-8.74-1.92-13.69,11.14,6.26,19.44,4.36,28.68,14.82-.31-8.05.9-14.05,4.69-21.21,3.56,5.72,7.32,10.86,11.61,16.05,3.36-4.11,7.76-8.28,12.25-11.11-9.05-.48-14.08-1-20.64-7.74,3.4-1.71,6.72-3.48,10.25-4.9-3.01-.79-5.74-1.96-8.34-3.67-2.39-1.58-7.81-6.16-8.37-9.02,1.23.97,9.34.44,11.28.36-1.44-1.47-2.81-2.96-3.91-4.7-4.36-6.85-3.43-15.95-1.75-23.52,4.27,5.19,11.98,7.21,17.39,11.23l.9-9.02c2.97,1.49,6.13,2.73,9.18,4.06l-2.18-7.65c2.97-.79,6.16-1.86,9.21-2.21-1.75-1.6-3.35-3.22-4.54-5.29-3.01-5.17-2.78-12.12-1.33-17.73,4.25,4.72,10.51,5.92,15.63,9.54.61-2.15,1.46-4.25,2.23-6.35,4.87,2.81,7.65,5.67,9.67,10.94.99-.6,2.05-1.07,3.09-1.57-1.49-2.72-2.86-5.48-4.14-8.29,2.18-.08,4.38,0,6.56.01l-.32-.26c-5.8-4.48-9.08-9.6-10.02-16.89,2.62.9,5.24,1.78,7.87,2.62-.18-1.2-.36-2.41-.44-3.62-.48-7.29,1.71-14.34,6.53-19.85,2.6,7,8.44,10.52,13.43,15.7,2.47-1.68,5.03-3.07,7.78-4.25.86,4.25,2.07,8.4,2.94,12.66,1.75-1.49,3.31-3.1,4.87-4.79l.05.19.08.32c.61,2.73,1.58,5.35,2.51,8,1.52-2.21,2.57-3.2,5.12-4.07-1.12-.57-2.21-1.21-3.23-1.92-3.98-2.81-5.95-6.97-6.81-11.64,3.51,0,7.02-.37,10.51-.65-.86-.99-1.7-2.07-2.26-3.27-2.23-4.66-1.25-10.48.37-15.18,3.47,2.75,7.65,4.85,11.62,6.76-.74-7.86,1.29-13.98,6.21-20.17.82-1.03,2.67-3.57,3.99-3.72l.19.36c-.1.29-.21.57-.24.89-.45,4.64,6.71,13.85,9.46,17.65,2.75-2.89,6.06-4.98,9.73-6.48.32,4.91.95,9.89,1.79,14.74,1.42.08,3.36-1.18,4.62-1.83,1.1-2.2,1.73-4.7,2.46-7.03.37.91.81,1.83,1.33,2.65,2.81,4.44,7.47,5.62,12.27,6.71-4.83-6.25-4.99-9.97-4.4-17.59,3.93,1.74,7.53,3.88,11.12,6.14M78.75,176.37c5.07-2.76,10.22-3.36,15.81-4.3.4,3.96.82,7.94.99,11.91l-.05,1.18.26.13c.42-.63.82-1.23,1.16-1.91.08-.07.16-.13.24-.19.31-.26.52-.49.76-.78,2.08-2.44,5.09-3.65,8.29-3.91,2.89-.23,6,.29,8.81.95.24,3.91-.71,7.68-3.3,10.72-.86,1-1.91,1.81-3.01,2.51,3.72.55,6.71,1.7,9.76,3.93-3.15,3.64-5.56,5.96-10.28,7.48,5.4,5.82,11.09,11.4,16.37,17.33,9.57,10.73,18.74,23.33,30.78,31.41,3.04,2.04,6.32,3.6,9.65,5.11-15.03-15.5-5.29-30.27-29.73-44.92l.42-.32,4.14,1.65c-1.21-2.59-4.32-7.76-4.93-10.13,1,.31,4.35,6.92,5.14,8.11,1.23,1.88,6.81,7.69,8.6,8.07.6-3.8-8.65-27.29-10.22-32.72l-.11-.39c5.56,9.33,9.05,19.56,12.46,29.79,3.31-4.7,5.92-9.83,7.52-15.36l.24.05c-.42,6.35-3.86,11.64-6.42,17.27,2.23,5.04,4.27,9.96,5.54,15.34,2.86-9.04,9.68-15.78,17.05-21.37-1.88-2.55-3.86-4.9-6.22-7.03-4.66-4.17-10.05-7.48-15.1-11.15-3.56-2.59-6.95-5.95-10.99-7.73-4.59-2.02-9.75-2.86-14.52-4.43-11.43-3.81-22.13-9.55-31.62-16.99-5.88,2.83-11.35,3.67-17.85,3.72,0,2.38.15,4.67.32,6.98M254.77,229.39c-1.12-8.37-4.45-10.93-8.2-18.01-5.58-10.55-7.16-22.81-7.11-34.61.99,4.38,1.34,8.88,2.51,13.21,1.2-6.89,3.85-13.82,7.15-19.98l.76.57c-2.23,5.66-5.09,11.69-6.11,17.68-1.42,8.34,2.15,15.4,6.85,22.05-1.65-18.3,4.69-27.11,14.11-41.74-2.33-6.92-4.9-13.84-6.39-21l.24-1.86c.91,1.91,1.62,3.9,2.57,5.79,2.09,4.15,4.62,7.95,7.21,11.79,2.41-11.22,3.31-22.66,4.61-34.04.66-5.83,1.8-11.64,2.34-17.47-4.04-1.58-5.7-3.57-7.76-7.31-1.28,6.97-2.46,13.98-4.48,20.79-1.42,4.78-4.67,9.6-5.12,14.56l-.42.21c-2.1,2.34-6.53,11.64-8.61,15.05-3.07,5.03-6.72,9.68-9.59,14.84-9.08,16.67-13.37,35.53-12.37,54.49.5,9.88,2.51,19.62,5.96,28.89,7.29-6.58,17.15-15.29,21.84-23.89M299.16,196.63c5.69,6.77,10.48,13.29,11.59,22.31,3.46-6.39,6.72-13.01,10.88-18.99,2.6-3.77,6.61-7.86,8.81-11.35l.31-.05c-.49,1.31-5.97,8.6-7.21,10.57-3.77,5.96-7.13,12.61-9.75,19.14,3.46-3.13,14.31-12.04,18.46-13.01-2.44,2.3-5.24,4.3-7.79,6.48-4.2,3.57-8.49,7.27-11.9,11.64-5.2,6.68-8.31,14.89-11.82,22.5-1.7,3.64-3.56,7.21-5.58,10.68,6.03-3.26,11.78-6.9,16.94-11.46,5.58-4.93,10.26-10.78,15.26-16.28,7.23-7.95,17.39-17.23,26.71-22.65-4.58-2.43-9.04-4.9-10.7-10.2-.39-1.26-.63-2.55-.87-3.85,3.2,2.17,6.14,1.86,9.86,1.7-2.64-3.61-3.95-6.93-4.51-11.38-.16-1.23-.11-2.65-.45-3.83-.19-.68-.24-.6-.87-.74-16.28,5.51-32.99,8.89-47.36,18.77M259.77,272.32c13.16-5.79,26.66-9.96,32.36-24.51,2.85-7.26,3.22-14.95.07-22.18-1.54-3.54-7.13-12.56-10.2-14.53-4.56,7.36-8.84,14.84-13.27,22.24-8.02,13.38-17.26,26.32-16.72,42.68,2.6-1.2,5.16-2.51,7.76-3.7M185.81,116.06c1.15,5.48,2.04,11.02,2.65,16.6,1.47,12.53,1.78,22.87,11.98,31.78,6.21,5.41,12.66,10.51,16.92,17.72l1.28,2.18c3.62-9.83,4.8-18.17,2.56-28.51-.78-3.56-1.79-7.18-3.3-10.49-3.88-8.49-12.59-12.95-18.22-20.09-2.88-3.65-4.82-11.25-6.42-12.96-2.38,1.83-4.51,3.04-7.45,3.78M281.14,199.89l2.6-1.97c3.91-2.75,7.81-5.53,12.03-7.79,14.32-7.69,32.57-13.95,35.82-32.09.18-1.03.34-2.08.49-3.13-2.52-2.18-3.74-4.27-3.99-7.7-.36-4.75,1.7-9.96,4.12-13.95l-.15-.21c-3.43,2.41-7.23,5.98-11.77,5.14-.15-.03-.29-.05-.44-.08-.95,1.91-1.41,4.12-2.04,6.17-1.07,3.53-2.8,7.11-4.96,10.09-14.03,19.15-28.89,17.28-31.71,45.52M207.57,272.32c-2.78-8.58-12.88-22.95-17.91-31.3-3.23-5.37-5.92-10.96-8.71-16.55-1.55-3.3-3.17-6.6-5.03-9.73-2.89,3.3-6.3,6.77-8.55,10.52-1.6,1.52-2.97,4.7-3.69,6.77-1.88,5.51-1.21,10.93,1.33,16.12,1.5,2.99,3.44,5.75,5.77,8.16,6.81,7.18,14.74,8.84,23.86,11.54,4.35,1.31,8.62,2.99,12.93,4.46M308.76,259.86c8.58,1.84,18.1,1.6,26.83,1.46,10.65-.4,21.26-1.83,31.63-4.27-4.53-.99-8.95-2.65-11.62-6.69-2.3-3.46-2.31-7.35-2.22-11.33,2.15.74,4.27,1.5,6.37,2.36.89-3.46,2.01-6.97,4.61-9.56,2.26,1.33,4.14,3.07,6,4.88,1.57-3.07,3.38-5.25,5.9-7.6-3.05-1.15-5.14-2.25-6.87-5.12-.08-1.28.03-3.05-.45-4.23-9.29,10.09-17.8,13.29-30.39,17.51-3.8,1.28-7.77,2.49-11.2,4.61-4.67,2.89-7.85,7.45-11.56,11.38-2.21,2.33-4.65,4.44-7.03,6.61M324.2,94.69c1.08-2.1,1.68-4.74,2.3-7.02-1.37,2.02-2.68,4.09-3.91,6.21-2.26,4.07-4.4,8.28-6.87,12.22-3.39-2.6-7.1-4.8-10.39-7.53,3.04,8.24,6.87,16.65,11.65,24.02,4.3-3.12,8.99-5.82,13.55-8.55,3.86-2.31,7.73-4.72,11.74-6.79-6.9,1.92-13.93,3.46-20.95,4.92.61-5.8,1.05-11.86,2.89-17.47M81.05,184.36c-2.39,4.77-5.08,8.63-8.96,12.33-.84-1.57-10.96-14.08-11.75-14.45,2.67,5.56,4.98,11.3,7.82,16.76-.39.6-.55.55-1.24.71-6.34,1.37-15.7,1.05-21.9-.29,7.32,3.86,16.29,5.03,24.47,5.24-1.46,5.25-3.46,9.84-6.64,14.27l.06.31c6-2.62,13.11-13.13,15.49-19.2,1.88-4.8,3.02-10.51,2.65-15.68M291.42,139.34c1.16-.79,2.25-1.57,3.26-2.55-3.93-.65-7.58-1.68-11.35-2.94,1.97-3.7,3.93-7.4,5.62-11.25-2.57-.05-6.43,0-8.37-1.97-2.07-2.12-1.18-6.5-3.18-8.92-1.66,11.32-.97,23.45-.32,34.83,2.26-1.62,4.45-2.83,7.02-3.88,2.42-1,5.17-1.79,7.32-3.31M68,253.11c-8.73,2.89-17.49,4.43-26.7,4.2,10.09,3.02,19.67,2.25,29.94,1.28-1.37,7.89-4.32,13.11-9.31,19.29,6.81-4.98,11.43-11.96,14.48-19.72,1.29-.5,2.55-1.05,3.83-1.57-4.01-3.22-7-7.79-9.75-12.08-1.97-3.23-3.9-6.5-5.74-9.8.68,2.44,2.51,7.74,3.82,9.78l1.21,4.09c-5.48-1.28-9.81-3.52-14.45-6.61,3.7,4.33,8.15,7.73,12.67,11.14M174.85,198.39l3.9,3.25c-1.41-12.67-5.08-20.63-15.29-28.76-7.82-6.22-14.19-10.09-20.53-18.4-3.9-5.12-12.99-21.93-16.26-24.68.31.89.65,1.58.49,2.54-.49.73-1.26,1.17-1.97,1.65.27.52.57.63,1.13.79.24.08.49.11.74.18,1.7.42,3.12,1.97,3.98,3.44,1.41,2.44,1.49,5.54.74,8.21-.78,2.78-2.47,5.04-4.22,7.29,8.99,27.93,28.06,28.27,47.3,44.49M94.13,137.83c1.21.92,2.41,1.81,3.48,2.88-3.02,3.2-7.37,5.29-11.4,6.92,5.32.02,12.12.16,16.15-3.9,3.51-3.52,4.09-9.5,3.94-14.24-.08-2.81-.23-7.23-1.62-9.73.08,5.95-1.05,11.4-3.49,16.83-3.61-1.28-7.19-2.55-10.64-4.22-3.68-1.79-7.23-3.94-10.86-5.87,4.61,4.17,9.55,7.57,14.43,11.33M308.76,133.23l-3.43,3.25,3.46-2.1c1.31,1.63,2.57,3.28,3.8,4.98.52,1.2,1.63,2.52,2.33,3.65-.58.57-1.16,1.08-1.86,1.5-4.79,2.92-10.72,2.07-15.87.87-1.42,6.92-3.01,13.76-4.98,20.55,13.68-8.63,20.32-12.5,26.98-27.96.11-1.73-.18-3.4-.27-5.11-2.13,1.21-4.77,3.12-7.35,2.47-1.16-.31-2.01-1.23-2.8-2.1M164.15,166.04l.69-.02c.16-.6.08-.69-.08-1.28-1.94-7.43-2.81-15.7-3.52-23.34-4.41,2.79-9.05,4.3-13.68,6.61-.65-4.53-.74-9.21.29-13.69-1.78-.18-3.49-.05-5.25-.16-2.7.29-5.35,1.75-8.07,2.31,6.93,10.46,16.67,26.56,29.61,29.57M364.62,185.59c.19-3.64.47-7.13,1.23-10.7.37-1.84.79-3.69,1.26-5.51,4.3,3.09,9.17,5.21,12.35,9.63.31-2.83.83-5.22,1.89-7.86-1.73-.78-3.44-1.49-5.3-1.89-2.89-.65-5.98-.74-8.71-1.94-2.07-.91-3.69-2.33-5.54-3.57-3.94,5.66-8.58,9.57-14.1,13.61,6.58,1.86,11.8,3.51,16.92,8.23M397.25,250.54c2.65-2.38,5.12-4.88,8.02-6.97-3.01,1.37-6.03,2.99-8.88,4.69-2.28,1.08-4.53,2.17-7,2.71,1.39-5.04,2.46-9.99,3.54-15.1-3.72,8.26-7.21,14.26-13,21.3l.36.02c.76.03,1.96-.08,2.57.45,1.23,1.07,2.38,2.89,3.39,4.19,3.54,4.43,7,9.31,11.3,13.03-3.3-5.01-6.61-10.54-8.55-16.24,7.13,1,15.86,1.57,22.99.29,1.34-.02,2.81-.34,4.14-.53l-3.12-.42c-2.49-.61-5.19-.79-7.74-1.26-3.9-.73-7.71-1.76-11.62-2.42,1.1-1.34,2.44-2.49,3.61-3.73M387.11,196.55c-4.19-3.57-6.47-8.15-8.37-13.22.74,6.09.92,15.32,5.37,19.95,2.2,2.28,4.82,4.01,6.98,6.4,2.63,2.91,5.01,6.74,8.05,9.18.18.15.37.26.55.39l.32-.19c-2.07-4.12-4.65-7.97-7.01-11.95,7.01-.92,16.46-3.83,22.86-6.92-8.86,2.04-17.2,3.3-25.8-.34,2.41-3.85,9.75-15.24,9.13-19.67-3.07,6.29-6.68,11.85-12.07,16.38M171.2,121.8c2.17,7.34,4.67,14.03,8.54,20.67,1.55,2.59,3.17,5.11,4.91,7.58.66-8.99.68-17.72.05-26.71-.16-2.34-.15-4.91-.71-7.19-.82-.57-1.89-.49-2.89-.49-1.1,3.33-1.91,6.66-2.59,10.09-2.83-1.02-4.96-2.09-7.31-3.96M169.02,136.61c-3.86,9.62-3.09,19.12.9,28.58,3.33,7.87,8.7,14.77,12.75,22.29.58-2.05,1.2-4.09,1.84-6.13,1.31-3.94,1.26-5.69,5.08-7.92,1.15-.66,2.1-1.23,3.01-2.23-7.01-7.6-12.93-15.39-18.17-24.29-1.94-3.35-3.17-7.18-5.42-10.3M291.48,142.17c-7.47,3.05-11.98,5.43-15.21,13.24-2.88,6.93-3.48,14.97-.58,22,.7,1.7,1.62,3.59,2.65,5.11,7.02-11.85,13.93-23.89,16.71-37.55-1.15-.39-2.8-.71-3.49-1.68.05-.11.1-.21.15-.32.18-.44.14-.26.14-.7l-.37-.1ZM92.9,281.99c-.4,3.81-1,7.6-1.39,11.41-.19,1.24-.49,2.49-.74,3.73l.16.34-.32.57.15-.73.03.5-.1.21c1.47-2.68,2.31-5.79,3.23-8.7,1.52-3.73,2.51-7.78,3.61-11.65,7.89-4.17,17.52-6.9,26.35-4.22,3.91,1.2,7.14,3.67,9.08,7.34,1.83,3.46,1.89,7.03,1.86,10.86,9.93-5.9,21.37-9.05,32.68-10.93,4.12-.68,8.47-.97,12.51-1.99-18.67-7.89-39.33-8.92-59.26-10.88-8.79-.86-17.54-2.09-26.32-3.09,1.89,2.91,4.09,8.02,3.49,11.54-.08.52-.24.65-.58,1-2,.37-5.66-2.21-7.76-2.78-3.17-.84-6.61-1.16-9.88-1.2,3.57,1.66,6.87,3.25,10.07,5.58-6.64,4.41-12.37,9.34-17.67,15.31,7.32-4.7,12.43-8.99,20.79-12.24M125.37,297.91c-7.08,1.46-13.61,3.75-20.3,6.42,5.85-1.05,12.72-2.94,18.67-2.26-1.23,3.64-2.46,7.29-3.52,10.98-.19.63-.6,1.41-.47,2.05,3.3-4.75,4.87-10.54,10.28-13.55,2.07,2.85,3.43,5.74,4.59,9.05-.08-4.49-.34-9.02-1.07-13.48-6.32-1.84-11.98-4.98-18.52-6.21,3.64,1.96,7.29,4.2,10.35,7M325.01,293.06c.6,4.83-1.8,10.31-3.43,14.82,2.04-3.15,3.48-6.74,6.09-9.49,3.96,4.36,6.22,9.75,8.36,15.16-.61-5.04-2.23-9.54-3.3-14.45,6.08.57,12.74.78,18.62,2.38-2.49-1.2-4.96-2.31-7.57-3.2-3.23-1.1-6.77-1.97-9.78-3.59,1.21-1.13,2.42-2.23,3.57-3.43,1.71-1.07,3.33-2.67,4.77-4.09-2.15,1.31-4.33,2.55-6.58,3.7-3.57,1.59-6.9,1.92-10.76,2.18M275.82,85.28c9.34,2.55,15.71,2.28,25.02-.37l.87-.32-.18-.28c-2.05-.39-4.19-.23-6.27-.34-4.69-.26-9.91-2.25-13.77-4.88,1.58-2.8,4.38-4.56,6.37-7.07,2.68-3.39,4.78-7.19,7.21-10.77-4.61,4.03-10.46,6.87-15.49,10.41-2.91-4.46-7.58-10.81-12.72-12.72,2.7,3.22,5.92,8.6,5.53,12.98-.05.61-.24.99-.65,1.44-2.51.73-5.59.45-8.2.44,2.67,2.25,5.24,3.95,8.29,5.61-1.45,5.51-2.38,10.99-3.1,16.63,2.18-3.67,4.33-7.5,7.08-10.77M386.93,164.85c-1.66-1.07-3.35-2.08-5.04-3.09,1.1,1.55,2.17,3.15,3.38,4.62.57.71,1.2,1.37,1.79,2.05l2.25-2.34c-.78-.48-1.54-.89-2.38-1.24M212.76,57.35c3.64,4.51,6.85,8.18,11.67,11.48,1.68.86,3.36,1.55,5.12,2.21,6.61-1.18,11.95-3.23,16.71-8.11-4.14,2.07-8.23,3.49-12.85,3.91.5-3.77,2.13-11.38,1.29-14.71-2.1,4.77-3.94,9.83-7.19,13.95-5.46-2.23-10.09-5.19-14.76-8.73M207.67,238.36c.18-7.13.84-14.14,2.38-21.13.97-4.45,2.44-8.99,2.76-13.53.76-10.46-7.73-19.85-14.42-26.9-1.68-1.78-3.51-3.8-5.56-5.14-5.92,16.7-8.23,28.63-.21,45.26,3.59,7.42,8.79,16.05,15.05,21.43M204.53,128.1c3.31,3.2,7.21,5.59,10.62,8.65-3.7-7.76-5.17-16.52-7.92-24.64-2.6-7.73-5.87-15.21-9.76-22.37-1.79-3.27-3.83-6.35-5.64-9.6,3.38-3.44,5.71-7.13,8.1-11.27-3.06,2.07-6.14,3.09-9.67,4.09-3.98-2.26-7.81-6.71-10.41-10.43-1.07-1.54-2.21-3.89-3.7-4.98,1.73,6.68,3.49,13.3,4.53,20.14-5.33,4.3-11.12,5.59-17.6,7.29,7.26,1.74,15.61,4.11,22.5-.07.55-.34,1.08-.68,1.6-1.05.91,2.78,1.83,5.54,2.59,8.36,3.57,1.81,7,4.11,10.23,6.48-2.73,2.43-5.38,4.4-8.62,6.1,1.32,1.02,2.67,1.97,4.06,2.93l-1.5,3.06c2.31,6.69,5.46,12.36,10.61,17.31M354.04,143.98c1.37.11,2.75.26,4.12.36-5.96,13.4-27.77,30.07-40.38,37.4,12.79-3.8,33.75-5.93,40.72-18.72.15-.27.29-.55.42-.82-2.62-6.97-1.5-11.82,1.04-18.64,2.21.68,14.43,4.9,15.76,4.54-1.42-.82-2.98-1.36-4.45-2.07-2.96-1.42-6.11-3.61-8.34-6.03,4.44-3.9,8.83-7.87,13.3-11.72,1.54-1.32,3.04-2.68,4.51-4.07-1.65.99-3.33,1.94-5.01,2.89-5.38,3.18-10.75,6.37-16.34,9.18-2.25-4.35-3.3-8.39-3.94-13.21.02-.83.16-1.88-.23-2.6l-.15.44c-1.63,7.66.4,15.41-1.04,23.07M375.13,209.23c-1.73,1.08-3.48,2.05-5.32,2.98-4.8,2.12-10.36,3.25-15.44,1.29-.97-.37-1.84-.92-2.68-1.5-7.03,4.98-15.61,11.15-18.7,19.54l.08.53c3.22,1.42,12.9-1.33,16.25-2.62,8.86-3.44,15.16-9.67,21.68-16.31,1.31-1.37,2.76-2.62,4.14-3.91M260.54,49.06c1.18-.76,2.31-1.63,2.63-3.09.13-.6.16-1.26-.07-1.83l-.16-.14c-.94,1.37-2.42,3.18-2.59,4.88l.18.18ZM125.11,155.71c-2.93-.19-5.75-.44-8.62-1.13,4.48,4.96,9.44,9.97,14.58,14.26l.32.02c-2.09-4.4-4.17-8.78-6.29-13.14M134.1,179.22c1.44.31,2.8.66,4.19,1.13-3.93-3.51-7.58-7.34-11.33-11.02-4.93-4.77-9.89-9.49-14.9-14.16-2.76-2.6-5.29-5.74-8.44-7.89.24,7.34.34,9.91-4.41,16.02,10.44,8.1,22.28,12.53,34.9,15.92M337.78,151.53c-2.59,5.37-3.95,11.28-6.69,16.57l2.94-2.86c3.01-3.2,5.88-6.34,7.56-10.46-1.24-1.12-2.47-2.26-3.81-3.25M76.3,162.29c-.53.05-1.68-.02-2.05.32l.32.27c1.18,1.02,1.78,1.97,2.46,3.36l.34.13c1.05-1.42,2.02-2.86,2.97-4.33l-4.04.24ZM260.12,223.85c7.05-10.09,14.1-21.3,11.8-34.16-.61-3.41-4.49-18.22-6.82-20.09-6.95,11.67-15.23,24.55-11.62,38.75,1.37,5.46,4.56,10.28,6.64,15.5M235.18,117.71c2.75-2.41,5.35-4.82,7.37-7.9,3.17-5.27,5.51-10.6,7.68-16.38-3.67.86-7.16,1.57-10.57-.57-3.01-1.89-5.16-5.37-7.24-8.18-1.42,10.39.26,22.9,2.76,33.02M228.74,116.82c-.02-5.01.07-10.02.26-15.03.16-3.85,2.36-28.61.7-30.44l-.32-.16c-.84,2.31-1.52,4.65-2.05,7.05-1.03,4.49-1.62,11.23-6.4,13.38-2.84,1.28-6.55.63-9.42-.29,3.02,5.24,6.85,9.91,9.99,15.03,2.46,3.48,4.88,6.95,7.26,10.46M133.71,90.39c3.12,7.05,5.87,13.77,7.89,21.23-6.69,2-13,2.25-19.83.71,6.08,3.56,10.2,4.57,16.96,5.93.63.13,1.18.03,1.41.73.1.34.06.84.08,1.18.5.27.55.27,1.08.13.86-.23,1.73-.78,2.52-1.18,6.97-4.46,11.64-9.26,13.47-17.59.24-1.08.4-2.2.5-3.31-3.23,2.65-6.47,5.58-10.07,7.71-2.72-2.67-5.29-5.45-7.73-8.36-1.58-1.92-3.04-3.99-4.69-5.87-.47-.49-.95-1-1.59-1.31M87.92,210.76c1.78,3.33,3.3,6.66,4.77,10.13,9.5,3.3,18.82,6.93,27.88,11.27,2.15,1.03,8.88,5.51,10.28,5.76-.19-.66-.45-1.13-.79-1.71-5.12-7.94-10.75-15.7-17.44-22.39-4.41,2.59-8.89,3.1-13.82,1.8-3.91-1.04-7.19-3.28-10.88-4.85M336,273.7c6.39-1.55,13.85-2.49,19.77,1.12,1.99,1.21,3.27,2.76,4.59,4.66.39-1.15.78-2.23,1.31-3.31,6.66,4.96,7.76,10.85,8.91,18.67l.03.27c.23-4.53.4-9.04.32-13.56,5.41,3.07,11.35,5.06,16.97,7.7-5.11-3.94-10.59-7.63-15.5-11.78,2.83-2.09,5.61-4.3,8.49-6.32-3.44,1.2-14.69,5.14-17.67,3.67-.6-.29-1.02-.68-1.23-1.33-.66-2.04.79-5.12,1.88-6.84,1.24-1.99,2.78-3.44,4.58-4.93l-.1-.31c-9.68,2.91-19.7,4.32-29.69,5.75l-24.41,3.49c-11.38,1.58-25.04,2.96-35.43,8.11,15.05.87,29.21,3.46,43.6,8.07.19-3.38,1.1-6.08,3.75-8.36,2.78-2.42,6.42-3.65,9.84-4.77M298.77,197.05c-5.3,3.28-10.17,7.48-14.43,12.04l.19.24c6.85,8.84,10.98,11.46,14.1,23.07.24,1.67.45,3.31.65,4.98,4.49-7.5,10.52-15.52,8.15-24.75-1.34-5.21-4.75-11.82-8.65-15.58M198.03,87.29c2.49,6.47,5.93,12.53,8.42,19.01,3.09,8.02,5.21,16.36,8.42,24.3,4.95,12.24,9.65,19.66,12.2,33.17.42-.9.95-1.83,1.28-2.76,5.55-16.67,1.15-28.5-6.42-43.58-3.62-7.23-7.99-14.06-11.64-21.29-2.15-.23-4.04-.63-5.51-2.36-1.46-1.71-1.88-3.96-2.2-6.11-1.52-.15-3.04-.31-4.56-.37M115.63,261.24c10.46.84,23.36,1.88,33.82,1.21-4.62-4.98-9.13-10.35-14.18-14.9-9.64-8.7-21.98-14.39-33.7-19.72-4.79-2.17-10.23-3.33-14.79-5.87,1.31,4.2,1.41,8.16.69,12.5,3.49-2.09,9.05-5.67,13.32-4.66.66.16,1.25.5,1.62,1.1,1.08,1.73.24,4.56-.35,6.37-.58,1.79-1.34,3.56-2.18,5.24,4.4-1.29,8.08-.14,12.17,1.54-2.52,4.64-6.32,9.02-11.57,10.52-4.56,1.29-9.55.47-14.19.02,2.31,1.15,4.62,2.39,7.05,3.26,7,2.5,14.97,2.6,22.31,3.39M267.23,84.98c-1.92,1.12-3.77,1.78-5.93,2.26-2.33,3.35-4.93,5.59-8.53,7.45-1.44,4.41-3.12,8.76-5.04,12.98-3.43,7.44-9.49,15.78-9.49,24.21,0,5.37,1.74,10.91,2.97,16.12l.63,2.65c15.18-19.17,17.43-28.42,22.65-51.57,1-4.46,2.94-9.29,2.97-13.85l-.23-.26Z"/>
      </g>
    </g>
  </g>
</svg>