<?xml version="1.0" encoding="UTF-8"?>
<svg id="Layer_1" xmlns="http://www.w3.org/2000/svg" version="1.1" viewBox="0 0 343.67 122.84">
  <!-- Generator: Adobe Illustrator 30.5.1, SVG Export Plug-In . SVG Version: 2.1.4 Build 3)  -->
  <path d="M35.93,3.65C-6.99,20.81,14.06,62.67,47.51,55.99,109.74,43.55,82.68-15.05,35.93,3.65Z"/>
  <path d="M279.55,3.65c-42.92,17.16-21.86,59.02,11.59,52.34,62.23-12.44,35.17-71.03-11.59-52.34Z"/>
  <path d="M11.37,77.97c-12.73,5.45-16.89,45.84-1.3,44.85,61.78-3.9,286.68-2.69,305.64-3.25,18.97-.56,27.96,3.18,27.96-20.8,0-10.59-7.14-19.31-22.76-18.2-13.45.95-64.83-1.15-88.81-1.15s-212.92-4.79-220.73-1.45Z"/>
</svg>