<?xml version="1.0" encoding="UTF-8"?>
<svg id="Layer_1" xmlns="http://www.w3.org/2000/svg" version="1.1" viewBox="0 0 288 272.91">
  <!-- Generator: Adobe Illustrator 30.5.1, SVG Export Plug-In . SVG Version: 2.1.4 Build 3)  -->
  <path d="M263.28,201.16c-2.73-.25,6.68-10.8,9.39-19.46,5.29-16.9,10.24-27.31,10.59-75.09.35-48.82-13.09-74.83-50.37-90.79C199.3,1.44,184.6,0,146.62,0,123.22,0,52.08-1.42,23.91,39.37,2.35,70.59-2.21,106.78.86,147.06c2.63,34.49,27.25,63.14,27.37,64.19.12,1.05-19.64,4.73-18.57,26.33.97,19.58,10.4,31.15,37.85,34.81,28.55,3.81,46.64-14.23,48.04-14.46,1.4-.23,3.37,1.44,6.52,3.3,3.14,1.86,16.57,12.01,42.37,11.39,33.29-.81,45.24-16.64,47.09-16.47,2.05.18,10.98,15.74,44.28,13.06,45.78-3.68,51.65-25.89,52.18-42.75.52-16.44-17.37-24.61-24.71-25.29ZM64.25,265.1c-18.95,1.5-43.42-1.87-45.97-23.52-2.39-20.38,12.11-23.01,15.6-23.11,7.18-.21,14.84,4.31,18.13,6.84,3.28,2.53,7.13,5.51,5.15,9.95-2.33,5.2-5.7,9.95-11.78,6.8-4.49-2.32-1.99-5.27-.68-6.63,1.78-1.85,1.5-4.61-1.09-4.99-2.31-.34-8.39,2.24-8.01,10.06.34,7.03,9.92,11.87,19.29,7.29,7.4-3.62,8.71-8.76,9.04-11.01.41-2.8,2.14-5.19,3.11-5.24,4.38-.21,24.38,2.05,25.88,5.33,3.19,6.96-5.42,26.39-28.66,28.24ZM184.78,244.31c-.96,4.17-3.21,17.3-38.85,19.28-38.23,2.13-45.21-13.06-45.35-20.1-.06-3.28,1.5-7.11,3.9-8.48,2.39-1.37,23.8-.34,24.76-.27.96.07,1.98.75,2.6,3.08.62,2.32,2.59,12.03,14.98,12.03,13.54,0,15.25-13.61,16.14-14.91.89-1.3,21.07-3.08,22.3-2.8,1.23.27.23,9.1-.48,12.17ZM139.15,236.18c.82-1.3,15.05-1.57,15.6-.75.55.82-1.98,9.44-7.25,9.23-3.96-.15-9.71-6.31-8.34-8.48ZM143.93,228.63c-47.79,1.51-88.78-3.93-107.73-24.23-15.32-16.42-24.59-37.03-26.81-65.36-2.22-28.33,1.42-75.56,24.07-96.94C69.84,7.8,117.98,10.13,147.01,10.19c30.42.06,59.75-.77,93.39,22.02,30.73,20.82,33.29,44.37,33.63,61.95.4,20.65-.51,45.4-3.24,60.24-2.73,14.85-11.1,44.88-37.73,56.66-23.83,10.54-40.63,16.04-89.12,17.58ZM224.93,261.89c-35.25-2.67-29.05-25.32-27.43-28.03,2.74-4.58,26.61-7.73,28.52-7.38,1.6.29,1.09,5.33,2.74,9.3,1.64,3.97,7.59,8.19,17.51,7.59,8.96-.55,10.94-6.5,10.12-7.73-.82-1.23-3.15-1.98-9.58-.48-6.43,1.5-10.26-1.37-10.53-6.63-.24-4.59,17.51-18.67,24.35-19.28,6.76-.61,17.48,4,19.02,16.96,1.57,13.26-13.13,38.84-54.72,35.69Z"/>
  <path d="M78.3,118.39c-.32-1.37-1.89-3.36-4.83-3.26-2.87.1-6.52,2.72-7.99,4.73-3.68,5.04-4.31,13.23-1.89,13.86,1.9.5,2.4-7.82,3.99-10.5,2-3.36,3.68-4.62,6.2-4.2,2.52.42,4.83.74,4.52-.63Z"/>
  <path d="M246.71,89.03c-7.32-49.06-46.27-68.95-101.93-64.85-85.9,6.32-105.17,45.23-112.17,79.19-5.24,25.42,7.48,60.04,17.59,69.97,10.07,9.9,24.76,31.4,90.66,30.38,65.9-1.02,89.29-24.58,94.58-31.23,8.5-10.69,18.1-37.72,11.27-83.45ZM232.71,67.2c.4-1.7,4.35,11.56,5.31,17.53,1.23,7.67,5.59,26.05,4.55,33.44-1.04,7.39-3.79,13.7-10.45,14.72-4.97.76-9.9-1.11-11.16-4.87-.82-2.47,2.38-4.65,2.84-9.57.28-3.03.85-7.67-5.97-12.13-7.6-4.96-15.07,1.33-16.21,3.79-1.12,2.44-.85,5.59,1.33,5.68,2.18.09,4.26-3.13,5.59-4.17,1.33-1.04,3.79-1.99,6.54-.47,3.6,1.99,3.98,9.47-3.32,15.06-7.3,5.59-20.74,5.63-26.43,1.21-6.82-5.31-2.3-15.87,1.41-18.55,5.8-4.18,13.94-6.02,18.14-8.08,7.35-3.61,11.33-5.25,17.16-12.88,6.25-8.2,10-17.88,10.67-20.72ZM211.3,138.57c-.07,1.09-.15,3.93-.44,4.8-.29.87-4.51,6.26-6.55,6.4s-.51-6.85.15-9.24c1.02-3.71,4.15-6.84,5.75-7.35,1.6-.51,1.22,3.42,1.09,5.38ZM168.29,30.39c3.19-.88,30.65-2.04,31.02,10.92.54,18.93-32.04,30.6-37.53,29.58-3.02-.56-6.26-5.77-5.29-18.25,1.15-14.93,9.08-21.5,11.81-22.25ZM151.77,29.48c1.14-.72,7.56-.93,8.23.36.88,1.7-6.3,9.99-7.81,20.56-1.09,7.6.66,15.54,2.83,20.76.79,1.9-10.63,2.71-14.64-.14-2.81-2-3.73-14-3.3-22.33.54-10.51,12.99-18.15,14.68-19.21ZM135.03,30.73c1.36-1.15,6.09-.39,5.29,1.02-1.72,3.03-7.28,9.66-8.3,16.65-.43,2.98.43,22.5.36,23.04-.07.54-.88,1.56-2.44.88-1.56-.68-7.07-10.61-6.52-21.3.58-11.1,10.57-19.4,11.61-20.29ZM106.59,34.7c8.01-2.04,17.22-2.04,18.12-.58.88,1.42-4.33,6.44-5.56,13.97-1,6.19.28,11.12,1.42,14.79.88,2.85,2.72,7.12,1.09,7.67-4.43,1.47-21.58-6.13-24.3-20.04-2.18-11.19,3.82-14.44,9.23-15.81ZM83.05,47.3c.11-2.18,5.55-5.55,6.21-5.23.65.33-1.63,5.12,3.92,17.31,5.55,12.19,23.84,19.99,44.44,20.36,24.29.44,42.91-6.93,53.26-13.5,12.53-7.95,15.79-25.26,16.01-26.02.22-.76,3.59,0,4.57.11.98.11.54,2.83-.65,9.36-1.2,6.54-4.23,17.47-10.22,23.89-4.15,4.45-10.37,11.42-59.38,11.82-62.31.5-58.41-33.24-58.16-38.11ZM65.19,63.85c1.85-3.81,10.78-14.05,12.74-13.94,1.96.11,1.13,6.69,2.07,11.11,1.42,6.64,10.47,22.87,33.11,27.33,27.12,5.33,69.55.97,83-4.46,15.9-6.42,20.59-36.15,20.48-37.45-.11-1.31,3.33-.99,4.14-.11,2.51,2.72,4.36,7.84,4.79,12.74.41,4.66,3.68,21.07-25.81,36.47-44,22.97-107.94,10.08-128.09,1.74-22.11-9.15-8.84-28.45-6.43-33.42ZM100.53,122.82c-.51-2.94-1.02-10.24.9-10.88,2.12-.71,1.54,2.3,2.18,5.5.21,1.04,2.02,6.9,6.79,11.26,7.68,7.04,21.21,8.06,28,7.42,6.79-.64,15.41-3.2,15.41-2.18s-7.38,15.91-29.15,10.28c-24.06-6.22-23.6-18.47-24.12-21.42ZM118.84,150.6c-.51.38-13.19.77-20.23,3.46-3.25,1.24-12.42,4.35-15.37,5.89-2.95,1.54-8.58,4.48-8.07,3.2.51-1.28,10.63-6.91,16.9-10.24,6.43-3.41,12.83-10.93,14.73-9.34,3.97,3.33,12.55,6.66,12.04,7.04ZM124.23,121.7c-3.33.51-6.58-1.29-8.55-2.57-3.46-2.26-7.34-4.75-4.9-5.78,2.43-1.02,21.14-1.59,21.64,0,1.41,4.48-4.85,7.84-8.18,8.35ZM136.51,121.67c2.43-2.56,2.69-5.38,2.69-7.04s4.67-1.8,10.69-2.31c6.02-.51,10.06-1.4,10.06,5.26,0,6.15-11.25,11.21-20.73,11.46-4.1.11-11.41-1.73-11.15-2.37.26-.64,6.02-2.43,8.45-4.99ZM151.11,146.38c2.82-1.41,5.76-4.1,7.81-6.78,5.06-6.64,5.51-23.42,12.29-29.31.83-.72,4.61.77,5.12,1.02.51.26-.77,9.98-.51,13.31.26,3.33,3.84,7.94,4.48,8.83.64.9-1.89,4.14-4.7,10.45-2.73,6.14-1.76,13.47-3.07,13.91-1.02.34-8.02-3-12.21-4.18-5.89-1.66-14.21-2.13-16.39-2.9-2.18-.77,4.35-2.94,7.17-4.35ZM44.78,157.57c-.95.42-5.04-11.55-5.25-13.65-.21-2.1-2.94-36.97,2.52-56.93,4.06-14.84,13.04-22.5,12.82-21.64-.95,3.78-2.38,10.52-2.94,13.86-1.58,9.45,2.84,16.91,2.52,18.8-.32,1.89-7.46,8.72-9.77,21.74-2.94,16.6,1.05,37.39.11,37.81ZM61.06,172.48c-1.09,1.99-9.04-12.5-10.61-30.88-1.5-17.5,2.74-28.45,6.2-32.35,4.94-5.57,12.98-7.22,26.27-1.47,16.5,7.14,17.76,26.89,15.97,32.66-1.79,5.78-12.4,7.98-22.28,14.28-8.61,5.5-13.77,14.49-15.55,17.75ZM103.47,193.48c-.64,3.07-19.34-4.1-24.84-6.4-5.51-2.3-3.14-5.57-1.28-7.55,2.05-2.18,21.38-11.39,22.92-11.65,1.54-.26,1.41,5.12,1.79,9.6.26,3.08,2.05,12.93,1.41,16ZM137.4,196.17c-.26.9-17.77-.08-26.25-1.49-3.07-.51-4.23-19.16-3.84-24.15.38-4.99,5.4-5.05,9.48-5.59,1.92-.26,7.34-.43,9.9-.3,2.56.13,7.26.68,8.28,1.07,1.02.38,2.69,29.57,2.43,30.46ZM130.11,158.28c-10.76.13-26.66,1.26-33.04,2.94-10.63,2.82-16.22,7.59-19.38,9.64-3.32,2.15-7.43,5.55-6.83,3.16.44-1.77,8.07-7.74,11.74-10.11,6.53-4.22,20.24-9.45,45.46-8.58,25.99.9,41.62,6.4,42.77,9.34,1.15,2.94-3.71-.26-9.35-2.18-1.92-.65-20.62-4.35-31.37-4.22ZM169.29,195.27c-7.3.51-20.41,3.07-24.33.77-1.96-1.15-1.53-7.59-2.05-11.01-.6-3.93-1.18-10.54-1.37-13.82-.26-4.52.59-5.59,3.5-5.29,4.18.43,12.6.62,18.35,3.24,7.3,3.33,10.03,7.04,15.02,12.03,4.99,4.99,9.05,9.34,9.43,10.11.38.77-11.27,3.46-18.57,3.97ZM198.87,180.17c-.26,1.02-6.02,3.46-9.22,2.94-3.2-.51-6.79-4.86-6.91-6.66-.13-1.79,1.84-2.09,3.59-2.18.9-.04,2.65.69,5.76,1.66,2.05.64,5.12,1.02,6.53.9,1.41-.13.51,2.3.26,3.33ZM180.37,159.23c-2.84-7.06,4.95-20.01,7.57-22.49,1.13-1.07,8.81-.73,10.19-.66,1.38.07,3.2.66,3.2,2.04s-2.01,3.98-2.84,6.62c-.73,2.33-1.57,9.23,3.5,9.9,6.04.8,10.48-5.31,12.08-8.22,1.6-2.91,1.67-9.75,1.89-10.7.22-.95,16.22,3.35,17.61,4.08,1.38.73-1.32,6.14-6.49,14.51-5.17,8.37-16.58,15.18-27.64,15.25-9.32.06-17-5.19-19.07-10.33ZM228.62,169.84c-6.11,7.68-20.22,15.21-24.93,16.72-2.65.85.37-4.08,1.71-5.72,1.11-1.37,2.46-4.78,3.33-6.14.46-.72,3.4-1.35,5.98-2.73,3.67-1.96,9.58-5.28,12.8-8.62,4.69-4.86,10.41-14.59,10.93-13.74.51.85-3.84,12.71-9.82,20.22Z"/>
</svg>