<?xml version="1.0" encoding="UTF-8"?>
<svg id="Layer_1" xmlns="http://www.w3.org/2000/svg" version="1.1" viewBox="0 0 271.55 274.66">
  <!-- Generator: Adobe Illustrator 30.5.1, SVG Export Plug-In . SVG Version: 2.1.4 Build 3)  -->
  <defs>
    <style>
      .st0 {
        fill: #2d2e2d;
      }
    </style>
  </defs>
  <path class="st0" d="M16.92,228.31c-5.32.29-10.72,1.57-15.84,3.17-.15,1.06-.16,2.13.02,3.18,1.69,9.55,16.28,7.62,22.93,6.85.39-.05.78-.08,1.17-.13,1.36-2.84,2.38-6.49,1.16-9.35-1.61-3.83-5.84-3.91-9.45-3.72h.01Z"/>
  <path class="st0" d="M26.38,199c.12-.32.48-.86.56-1.03.08-.21.16-.43.24-.63-1.85-.53-3.71-1.01-5.61-1.33-2.86-.48-5.73-.62-8.6-.88-.14.6-.28,1.18-.41,1.78,2.98.47,5.95.93,8.93,1.39,1.56.23,3.29.7,4.88.71h.01Z"/>
  <path class="st0" d="M15.25,81.93c4.36-2.55,7.87-9.18,10.02-13.37,1.61-3.14,3.32-6.95,3.18-10.58-.14-3.65-2.54-5.75-5.25-7.89-4.09-3.24-11.69-6.21-15.07-10.62-4.24,6.88-7.03,14.54-6.69,22.13.44,9.41,6.14,16.44,13.8,20.33h0Z"/>
  <path class="st0" d="M9.36,206.89c-1.74,2.09-.97,6.21.9,8.15.26-.2.52-.38.77-.55,7.71-5.24,18.26-4.4,27.08-3.55,4.98.49,9.85,1.4,14.71,2.33-3.82-.83-7.63-1.72-11.42-2.67-7.39-1.82-15.12-4.86-22.68-5.64-2.56-.26-7.44-.38-9.34,1.93h-.02Z"/>
  <path class="st0" d="M50.38,203.33c.67-.26,1.16-1.48,1.55-2.68-5.22-.32-10.54.07-16-.98-.34-.07-.68-.15-1.02-.22-.09.31-.18.63-.26.95,3.22.72,6.46,1.4,9.71,2.01,1.37.26,4.68,1.45,6.02.91h0Z"/>
  <path class="st0" d="M56.32,20.82c-.69-1.01-1.45-1.98-2.25-2.87-9.5-10.56-22.89-2.79-31.64,4.84-1.25,1.09-2.52,2.26-3.76,3.51,4.45,2.33,8.93,7.72,13.04,10.09,10.57,6.11,19.48-7.18,24.6-15.56h.01Z"/>
  <path class="st0" d="M9.96,36.67c.15.21.32.41.51.61,6.79,7.14,22.03,9.43,20.28,21.92-.8,5.81-3.92,11.39-7.16,16.19-1.62,2.39-3.59,5.44-5.96,7.64,3,1.22,6.22,1.99,9.49,2.25,4.26-4.45,8.32-9.09,11.51-14.64,5.41-9.41,9.38-19.57,15.66-28.49,2.26-3.22,4.78-6.19,7.49-8.98-.92-3.56-2.32-7.18-4.23-10.42-4.36,7.02-10.66,16.19-18.53,18.41-5.4,1.52-10.5-2.46-14.41-5.69-2.46-2.02-4.72-4.47-7.4-6.23-.3-.2-.61-.36-.92-.48-.83-.36-1.67-.46-2.46-.37-2.98.32-5.39,3.33-4.77,6.32.14.66.43,1.32.88,1.95h.02Z"/>
  <path class="st0" d="M78.75,213.09s.06-.02.09-.03c-4.31-8.58-10.92-17.1-19.16-21.94-7.31-4.29-14.32-2.56-22.24-3.87-4.95-.82-8.78-3.01-12.77-5.93-3.17-2.33-7.92-4.45-12.15-3.99-.4.03-.8.09-1.21.2-1.29.29-2.52.87-3.61,1.79-5.94,5.03-1.25,11.91,4.92,12.49,5.86.54,11.14,1.56,16.64,2.86.18,0,.33.03.47.12,1.34.32,2.71.65,4.11,1.01,7.91,1.99,15.8.17,23.6,1.83,8.6,1.82,16.65,8,21.28,15.47h.03Z"/>
  <path class="st0" d="M179.63,246.57c-5.3,1.11-10.88.49-12.41-5.38-1.18-4.57,1.78-8.34,5.56-11.03-2.56.91-5.07,2.14-7.32,3.18-2.2,1.01-4.38,2.03-6.56,3.06-.28.22-.52.32-.71.33-9.56,4.49-19.11,8.84-29.49,11.39-1.7.41-.67-2.79.59-3.1,8.46-2.08,16.5-5.26,24.4-8.94,1.64-.76,3.46-1.74,5.38-2.77,2.56-2.29,4.78-5.57,4.53-9.06-.32-4.32-4.28-8.23-8.31-9.65-7.08,8.08-19.38,11.04-28.66,15.38-1.85.87-1.24-2.28-.05-2.84,8.76-4.09,18.36-6.52,25.83-13.03,4.88-4.26,7.34-11.29.37-14.66-2.26-1.1-4.94-1.61-7.47-1.74-2.98,1.98-5.96,3.93-8.98,5.86-5.26,3.36-10.64,7.31-16.41,9.8-1.88.8-1.26-2.32-.05-2.85,5.76-2.49,11.15-6.44,16.41-9.8,8.93-5.7,17.75-11.61,26.28-17.88,3.71-2.74,7.38-5.53,10.87-8.53-4.53.87-9.43.03-11.6-4.37-1.57-3.22-.39-6.75,1.7-9.71-2.17,1.36-4.3,2.82-6.5,4.1-10.45,6.14-20.78,12.46-30.67,19.47-11.99,8.48-22.55,19.05-35.42,26.21-9.32,5.18-20.92,9.79-31.77,7.76-7.41-1.39-14.72-2.94-22.26-3.68-8.72-.85-19.24-1.79-26.62,3.84-.21.24-.42.41-.64.52-2.91,2.37-6.08,5.94-7.67,9.83,6.69-2.14,15.17-4.54,21.88-2.72,7.08,1.92,6.02,9.97,3.71,15.59,9.78-.9,19.92-.67,28.61,4.47,5.79,3.41,9.32,8.75,13.63,13.72,6.4,7.39,14.42,13.14,24.25,14.78,12.17,2.03,24.79-2.14,36.18-6.1.8-.28,1.6-.57,2.39-.86.03-.01.07-.02.1-.03,11.2-4.03,22.12-8.88,32.86-14.05,4.22-2.03,9.43-4,14.03-6.49v-.02Z"/>
  <path class="st0" d="M177.96,170.1c.13-.07.24-.1.35-.13.69-.76,1.3-1.56,1.71-2.42,3.67-7.62-5.24-10.74-11.38-9.62-.05.03-.08.08-.11.1-3.37,2.63-6.79,7.19-3.44,11.08,3.11,3.6,8.94,2.87,12.87.99h0Z"/>
  <path class="st0" d="M170.8,241.53c3.72,4.59,11.8,1.79,16.17-.43.06-.03.12-.05.16-.07,4.42-5.45-.86-11.5-7.22-12.06-.22.31-.48.55-.75.65-4.47,1.63-12.92,6.29-8.37,11.89v.02Z"/>
  <path class="st0" d="M147.42,55.57c-1.51,4.4-2.79,8.98-3.4,13.59-.3,2.22-.8,5.63.87,7.42,2.07,2.19,5.61.84,7.23-1.28,1.94-10.65,5.67-21.23,10.89-30.67,7-12.63,17.72-22.02,30.43-28.72,9.37-4.94,19.78-8.63,30.34-10.14-3.85-6.9-12.57-5.41-19.64-3.39-.13.07-.26.1-.39.11-.62.17-1.22.36-1.79.53-13.28,4.08-25.06,11.83-35.14,21.28-9.23,8.66-15.34,19.31-19.4,31.25v.02Z"/>
  <path class="st0" d="M182.66,25.51c-12.23,9-19.79,21.43-24.58,35.67-1.52,4.5-2.75,9.12-3.6,13.8,0,.17-.03.37-.11.59-.03.24-.09.48-.14.72-.23,1.39-.61,2.99-.53,4.41.38,6.7,6.64,4.18,9.62.79,1.05-4.65,2.22-9.27,3.55-13.85,4.31-14.76,10.1-27.6,23.57-35.91,13.95-8.61,30.83-13.53,46.93-16.15.95-.16,1.97-.34,2.99-.51-3.61-7.83-12.38-7.15-20.16-5.68-13.41,2.53-26.53,8-37.54,16.1v.02Z"/>
  <path class="st0" d="M187.53,36.53c-11.94,8.42-16.32,22.73-19.83,36.3-3.71,14.33-6.11,29.06-7.5,43.8-.47,4.96-.95,10.03-.76,15.02.2,4.9,4.41,15.27,10.38,11.11-.82-5.79.13-12.08.43-17.71.87-15.76,1.95-31.65,5.41-47.08,3.07-13.71,7.77-26.71,20.13-34.43,14.39-8.98,32.11-14.02,48.86-15.94,2.29-.25,5.38-.82,8.26-.77-.03-12.73-16.73-8.27-24.9-6.41-13.99,3.19-28.65,7.77-40.47,16.11h-.01Z"/>
  <path class="st0" d="M230.8,33c-13.54,3.05-29.21,7.63-39.95,16.88-9.31,8.02-12.09,22.75-14.13,34.22-2.21,12.4-3.17,24.97-3.87,37.53-.28,4.85-.77,9.77-.71,14.63.08,7.24,2.84,18.33,10.66,11.12-2.26-6.8-.98-16.49-.71-22.13.7-14.36,2.5-28.81,5.55-42.88,2.53-11.61,6.04-21.36,16.09-28.53,10.47-7.48,23.49-11.01,35.97-13.38,4.62-.87,12.45-3.08,18.33-2.11,5.06-13.25-21.65-6.6-27.22-5.36h0Z"/>
  <path class="st0" d="M257.78,41.61c-3.98-.94-9.17.36-12.65.92-12.03,1.93-24.32,4.63-35.17,10.37-5.65,2.99-11.1,6.94-14.54,12.46-2.93,4.69-4.06,10.45-5.23,15.79-2.8,12.66-4.52,25.66-5.38,38.6-.37,5.49-.6,11.01-.39,16.51.1,3,.05,6.93,1.15,10.01.02.05.03.08.05.13.21.54.44,1.07.72,1.54,2.37,3.93,9.03,5.78,10.56.03.2-.74.05-1.74.06-2.48.07-3.73.1-7.46.18-11.19.22-10.97.6-21.96,1.46-32.9.72-9.19,1.32-18.98,4.39-27.75,6.71-19.2,34.13-19.43,50.89-19.75,1.77,0,3.61-.21,5.3-.74,3.64-1.11,5-5,3.16-8.29-.98-1.75-2.51-2.71-4.3-3.19-.09,0-.18-.02-.26-.06h0Z"/>
  <path class="st0" d="M265.71,78.94c-1.62-7.48-3.72-16.24-6.9-22.86-1.88.64-4,.97-6.11.97-13.82.26-33.92.03-44.14,11.02-4.33,4.65-5.09,11.88-5.96,17.93-1.08,7.53-1.66,15.12-2.08,22.71-.66,11.39-.87,22.79-1.05,34.19-.05,2.84.13,5.54-1.49,8.03-2.79,4.29-7.83,5.25-11.78,1.9-1.05-.88-1.85-2.01-2.49-3.29-4.06,3.71-9.25,5.79-12.2-.72-.52-1.14-.91-2.32-1.2-3.53-5.08,3.42-10.83-.71-12.54-6.37-1.84-6.11-.72-13.38-.18-19.58.98-11.31,2.55-22.65,4.87-33.81-2.76,2.4-6.48,4.11-9.49,1.44-2.16-1.93-1.93-5.17-1.49-8-2.05,1.65-4.63,2.65-7.11,1.48-4.01-1.9-3.22-7.58-2.7-11.15,1.95-13.35,7.76-27.11,15.78-37.9,9.72-13.1,24.64-23.8,39.93-29.65-37.44-4.29-75.42-1.34-109.63,15.87-11.64,5.85-22.43,13.46-30.4,23.89-5.84,7.64-9.69,16.42-14.08,24.91-4.21,8.14-9.23,15.42-15.63,21.98-9.1,9.32-17.18,17.28-22.48,29.52-4.96,11.47-9.69,31.33,2.85,40.12,8.02,5.63,14.27-1.26,22.32-1.75,9.23-.55,23.34,6.8,29.26-4.18,5.61-10.43-10.53-22.04-17.97-12.63-1.42,1.8-2.36-.41-1.26-1.79,6.54-8.27,20.67-4.34,22.66,5.8,2.31,11.8-9.32,18.46-19.56,17.73-4.7-.33-10.22-2.37-14.93-1.68-4.25.63-8,3.25-12.28,3.88.99,3.68,1.03,7.91-.92,11.07,3.08-.1,6.24.62,8.88,2.25,5.41,3.34,9.16,6.72,15.87,7.54,8.26,1.01,15.02-.24,22.41,4.49,8.37,5.36,15.03,14.26,19.24,23.2,12.83-5.25,24.47-15.78,34.33-23.45,11.65-9.06,24.09-17.07,36.77-24.58,6.23-3.7,14.49-11.01,22.17-9.47,7.88,1.57,10.37,9.62,5.7,15.74-4.79,6.29-12.12,11.12-18.42,15.72-4.19,3.07-8.46,6.04-12.77,8.96,7.62,1.51,13.18,7.27,8.58,15.69-.22.41-.48.79-.72,1.18,4.85,2.01,8.88,6.76,8.72,12.15-.07,2.37-.9,4.69-2.16,6.79,6.52-3.32,13.7-6.22,19.8-4.38,8.48,2.55,10,11.94,3.78,17.74-5.96,5.59-15.89,8.96-23.12,12.42-8.38,4.01-16.88,7.83-25.54,11.2,27.03,3.01,56.1,4.56,81.98-4.54,17.32-6.09,30.91-18.09,38.45-34.88,10.33-23,11.25-50.22,12.04-74.95.79-24.83-.3-50.07-5.61-74.41v.04ZM84.29,160.46c-.31,3.53-2.71,6.9-6.46,7.3-3.69.4-6.75-2.6-6.78-6.23-.03-3.59,2.73-7.12,6.34-7.61,3.76-.49,6.56,2.38,6.9,5.91.02.09.03.2.03.32,0,.09-.01.2-.03.31h0ZM103.6,168.7c-4.87,7.89-8.92.09-11.91-4.4-5.09-7.64-10.46-15.31-14.8-23.41-2.55-4.75,2.28-12.88,7.53-8.56.1.05.21.13.3.26,4.48,6.87,8.92,13.78,13.25,20.75,2.49,4.02,8.68,10.41,5.63,15.35h0ZM108.95,141.91c-.32,3.6-2.77,7.01-6.57,7.42-3.76.4-6.87-2.64-6.91-6.35-.03-3.63,2.78-7.23,6.45-7.71,3.83-.51,6.69,2.42,7.03,6.02.02.09.03.2.02.31.01.1,0,.21-.02.31h0ZM128.37,113.26c-18.57,17.61-50.15,9.52-59-14.11-.45-1.21,1.77-3.71,2.39-2.06,8.29,22.14,38.37,30.42,55.93,13.77,1.63-1.55,1.72,1.4.68,2.4ZM135.62,110.91c-4.07-.92-6.93-2.37-9.1-4.73-8.57,6.1-20.52,11.17-30.97,8.01-9.03-2.72-16.24-11.24-20.19-19.56-4.77,1.63-10.47,1.8-15.13-.32-1.25-.56.41-3.57,1.72-2.99,7.65,3.48,15.2.05,21.65-4.19,6.8-4.48,15.05-7.8,23.34-6.65,7.32,1.02,13.3,5.81,16.4,12.45,3.5,7.5,4.23,12.77,13.47,14.85,1.54.34.1,3.44-1.18,3.15v-.02ZM137.78,102.72c-5.25-1.59-7.37-6.19-9.42-10.88-3.06-6.98-6.23-13.88-13.57-17.2-14-6.34-31.99-.98-43.88,7.73-1.83,1.33-1.88-1.52-.68-2.4,10.86-7.98,25.96-13.22,39.42-10.48,8.25,1.68,14.26,6.21,18.1,13.65,2.86,5.55,4.45,14.39,11.22,16.42,1.53.46.05,3.53-1.18,3.16h-.01Z"/>
  <path class="st0" d="M77.97,157.09c-2.07-.36-4.37.76-4.44,3.06-.13,4.62,8.02,6.53,8.31,1.38-.13-2.21-1.68-4.05-3.87-4.44Z"/>
  <path class="st0" d="M102.53,138.44c-2.14-.38-4.5.8-4.57,3.16-.13,4.78,8.25,6.7,8.54,1.38-.13-2.26-1.71-4.15-3.96-4.54h-.01Z"/>
  <path class="st0" d="M82.61,135.26c-1.47-1.1-4.3-1.46-4.33,1.61-.01.47.61.97.75,1.42.41,1.43,1.7,2.92,2.47,4.18,2.16,3.55,4.4,7.06,6.65,10.54,2.31,3.6,4.65,7.17,7.05,10.72.75,1.1,1.46,2.56,2.4,3.52.7.7,3.87,6.11,4.6-.28.21-1.75-3.02-5.54-3.88-6.98-2.1-3.48-4.28-6.93-6.45-10.37-3.06-4.82-6.14-9.61-9.25-14.38v.02Z"/>
  <path class="st0" d="M101.69,84.27c-6.65.78-11.83,7.04-11.78,13.66.06,7.19,6.27,13.1,13.55,12.3,6.92-.77,11.4-6.76,11.89-13.36.01-.1.03-.21.02-.31.01-.2-.01-.34-.05-.47-.61-7.03-6.24-12.68-13.64-11.81h.01ZM92.39,96.55c.03-6.02,5.85-10.02,11.51-9.06,5.22.88,8.71,5.26,8.99,10.43-.72,13.37-20.56,10.94-20.5-1.38h0Z"/>
  <path class="st0" d="M102.47,91.4c-3.07.41-5.42,3.49-5.39,6.53.03,3.01,2.53,5.49,5.6,5.16,3.14-.33,5.15-3.17,5.47-6.14.05-.14.07-.28.06-.4.01-.11-.01-.22-.03-.31-.3-2.91-2.6-5.26-5.7-4.84h-.01Z"/>
</svg>