<?xml version="1.0" encoding="UTF-8"?>
<svg id="Layer_1" xmlns="http://www.w3.org/2000/svg" version="1.1" viewBox="0 0 1807.2 435">
  <!-- Generator: Adobe Illustrator 30.5.1, SVG Export Plug-In . SVG Version: 2.1.4 Build 3)  -->
  <defs>
    <style>
      .st0 {
        fill: #2d2e2d;
      }
    </style>
  </defs>
  <path class="st0" d="M1579.12,369.5c8.44-.85,14.2,6.76,21.38,9.72,2.91,1.22,6.02,2.07,9.22,2.67-5.69-3.72-9.85-8.93-14.69-14.77-3.24-3.91-9.84-9.96-15.36-10.02-4.6-.05-6.82,4.5-4.33,8.39.97,1.53,2.36,2.9,3.79,4.01Z"/>
  <path class="st0" d="M1598.71,191.33c-.38,3.92-.16,8.02.65,11.89,1.21-.07,2.43-.14,3.64-.2,2.91-.16,5.8-.31,8.71-.47,3.64-8.07,2.26-18.78.3-27.21-8.04,2.61-12.46,7.3-13.31,15.99Z"/>
  <path class="st0" d="M1634.17,170.26c-1.17.2-2.36.39-3.53.6v1.78c1.18-.07,2.36-.13,3.53-.2v-2.18Z"/>
  <path class="st0" d="M1634.17,175.53c-1.17.06-2.34.13-3.53.2v4.48c1.18-.06,2.36-.11,3.53-.18v-4.49Z"/>
  <path class="st0" d="M1634.17,183.12c-1.17.07-2.34.13-3.53.18v3.92c1.18-.05,2.36-.09,3.53-.15v-3.95Z"/>
  <path class="st0" d="M1634.17,190.17c-1.17.06-2.34.1-3.53.15v4.83c1.18-.05,2.36-.09,3.53-.14v-4.84Z"/>
  <path class="st0" d="M1630.64,201.56c1.18-.07,2.36-.13,3.53-.2v-3.25c-1.17.05-2.34.09-3.53.15v3.3Z"/>
  <path class="st0" d="M1636.66,169.85v2.45c1.61-.09,3.23-.18,4.84-.28-.02-.94-.03-1.9-.06-2.85-1.6.22-3.2.44-4.78.68Z"/>
  <path class="st0" d="M1636.66,179.9c1.66-.08,3.32-.17,4.99-.25-.03-1.52-.06-3.02-.09-4.53-1.63.09-3.26.18-4.9.28v4.5Z"/>
  <path class="st0" d="M1636.66,186.97c1.7-.07,3.41-.14,5.11-.22-.02-1.33-.05-2.68-.07-4.01-1.69.08-3.37.17-5.05.25v3.98Z"/>
  <path class="st0" d="M1636.66,194.91c1.76-.07,3.5-.15,5.26-.22-.02-1.61-.06-3.22-.09-4.84-1.72.08-3.45.15-5.17.22v4.84Z"/>
  <path class="st0" d="M1636.66,201.24c1.79-.09,3.59-.2,5.39-.29-.02-1.06-.05-2.1-.06-3.16-1.78.08-3.56.15-5.33.22v3.23Z"/>
  <path class="st0" d="M1592.6,241.6c4.3,1.92,8.79,3.44,13.39,4.65h.05c.13.05.24.08.37.1,3.22.84,6.48,1.54,9.78,2.11h.01c.13-.02.25,0,.34.06h.01c7.88,1.36,15.92,2.06,23.75,2.53-9.7-4.77-15.83-13.53-13.46-26.2,1.71-9.12,7.83-16.54,15.77-20.85-14.96.8-29.94,1.6-44.91,2.39-.03.01-.07.01-.1.01-7.43.39-14.87.78-22.3,1.18-.1,2.48-.14,4.98-.13,7.46.02,4.55-.23,9.32,1.78,13.53,3.02,6.31,9.49,10.29,15.65,13.02Z"/>
  <path class="st0" d="M1622.23,414.55c6.08.75,12.42-1.74,16.55-6.21,5.99-6.49,4.76-13.85,2.53-21.54-2.2-7.61-1.92-15.33.22-22.9,2.29-8.14,8.33-16.46,2.42-24.5-4.88-6.64-13.74-8.85-21.56-8.94-4.3,3.16-9.77,3.54-15.5,3.2-9.35-.57-17.43,1.22-25.4,4.91,2.16,5.02,1.84,10.64-.68,15.47t-.01.02c.72,0,1.45.09,2.17.28,6.78,1.8,12.32,7.7,16.39,13.14,5.61,7.48,12.08,13.11,21.29,15.58h.03c.44.02.87.03,1.31.05,1.48.03.15,3.19-1.2,3.16-.36-.01-.7-.02-1.05-.03-.06,0-.1,0-.16-.01-.02,0-.03.01-.06,0-.02,0-.05-.01-.07-.01-5.86-.23-11.85-1.1-17.44-2.84-8.08-2.51-14.8-11.6-23.8-10.65-.01,0-.01.01-.01.01-.07.02-.14.03-.21.03-.03,0-.08-.01-.11-.01s-.08.01-.12.01c-3.92.54-5.87,5.62-3.75,8.98.72,1.16,1.92,1.9,2.93,2.77,1.31,1.1,2.49,2.18,3.39,3.54,9.53,1.67,18.78,7.15,25.48,13.95,5.25,5.32,8.24,11.56,16.4,12.56Z"/>
  <path class="st0" d="M1643.94,168.85c.02,1.01.05,2.02.06,3.03,1.55-.08,3.1-.17,4.64-.25-.02-1.11-.04-2.23-.08-3.34-1.54.18-3.08.37-4.62.56Z"/>
  <path class="st0" d="M1644.06,174.98c.03,1.51.06,3.02.09,4.54,1.56-.08,3.11-.16,4.68-.24-.03-1.53-.07-3.05-.11-4.56-1.55.08-3.1.17-4.65.26Z"/>
  <path class="st0" d="M1644.21,182.6c.02,1.36.05,2.7.08,4.05,1.56-.07,3.14-.13,4.71-.2-.03-1.37-.07-2.72-.1-4.09-1.56.08-3.13.16-4.69.24Z"/>
  <path class="st0" d="M1644.35,189.75c.02,1.61.06,3.23.09,4.84,1.59-.06,3.16-.13,4.75-.2-.03-1.61-.08-3.23-.12-4.84-1.57.07-3.15.13-4.72.2Z"/>
  <path class="st0" d="M1649.34,200.56c-.02-1.02-.05-2.05-.08-3.07-1.59.07-3.17.14-4.76.2.02,1.05.03,2.09.06,3.13,1.6-.08,3.18-.16,4.78-.25Z"/>
  <path class="st0" d="M1690.68,198.37c4.83-10.43,4.17-23.29-1.61-33.3-.02-.05-.03-.09-.05-.14-7.61.31-15.17.85-22.65,1.53-4.47,10.47-4.79,23,.4,33.18,7.96-.41,15.94-.84,23.9-1.26Z"/>
  <path class="st0" d="M1691.9,278.27c1.49.92,3.11,1.63,4.81,2.17,0,.01.01.01.02.01-4.9-7.23-5.84-18.82-6.5-26.68-3.17.17-6.32.33-9.47.49.01,8.98,3.3,19.16,11.14,24.01Z"/>
  <path class="st0" d="M1702.15,281.42c.08.06.14.13.2.21,1.99.24,4.06.35,6.13.35-2.7-4.76-3.46-11.01-4.24-16.16-.64-4.23-1.14-8.5-1.44-12.79-3.32.22-6.63.41-9.95.6t-.01.01c.76,8.87,2.16,22.51,9.32,27.79Z"/>
  <path class="st0" d="M1706.1,164.66c.03,1.23.07,2.46.1,3.7,1.48-.03,2.97-.06,4.45-.09-.02-1.17-.06-2.34-.09-3.53-1.48-.03-2.98-.07-4.46-.08Z"/>
  <path class="st0" d="M1706.29,171.49c.05,1.34.08,2.69.12,4.05,1.48-.03,2.97-.08,4.45-.12-.03-1.33-.07-2.68-.12-4.01-1.48.02-2.97.06-4.45.08Z"/>
  <path class="st0" d="M1706.5,178.65c.02,1.02.06,2.03.08,3.06,1.48-.06,2.95-.1,4.44-.15-.03-1.01-.06-2.01-.08-3.01-1.48.03-2.95.07-4.44.1Z"/>
  <path class="st0" d="M1706.67,184.81c.05,1.64.09,3.29.14,4.93,1.47-.06,2.94-.13,4.41-.18-.05-1.63-.08-3.26-.13-4.9-1.47.06-2.95.1-4.43.15Z"/>
  <path class="st0" d="M1711.43,197.26c-.05-1.54-.08-3.08-.13-4.61-1.47.06-2.93.13-4.4.18.05,1.55.09,3.1.13,4.65,1.47-.08,2.93-.15,4.4-.23Z"/>
  <path class="st0" d="M1712.26,281.88c2.34-.1,4.67-.29,6.87-.47-2.39-4.45-2.91-10.39-3.53-15.01-.63-4.71-1.07-9.48-1.29-14.24-2.72.23-5.45.44-8.17.63-.25.02-.52.03-.78.06.29,3.65.71,7.3,1.25,10.91.89,5.77,1.69,13.17,5.5,17.86.06.08.1.17.14.26Z"/>
  <path class="st0" d="M1713.09,164.81c.02,1.14.06,2.28.09,3.41,1.61-.02,3.22-.06,4.83-.08-.05-1.05-.09-2.08-.14-3.11-1.59-.08-3.18-.16-4.78-.22Z"/>
  <path class="st0" d="M1713.26,171.36c.03,1.33.07,2.67.1,4,1.66-.05,3.31-.08,4.95-.13-.06-1.32-.12-2.64-.17-3.96-1.63.03-3.25.06-4.88.09Z"/>
  <path class="st0" d="M1713.45,178.47c.02,1,.06,2,.08,2.99,1.69-.06,3.38-.11,5.07-.17-.05-.98-.09-1.95-.14-2.93-1.67.03-3.33.08-5.01.12Z"/>
  <path class="st0" d="M1713.61,184.58c.05,1.62.08,3.24.13,4.87,1.74-.08,3.47-.15,5.21-.23-.07-1.61-.14-3.22-.21-4.83-1.71.07-3.41.13-5.13.18Z"/>
  <path class="st0" d="M1719.29,196.85c-.07-1.52-.14-3.02-.21-4.53-1.75.07-3.5.15-5.26.22.04,1.53.08,3.06.13,4.59,1.78-.09,3.56-.18,5.34-.28Z"/>
  <path class="st0" d="M1693.48,226.33c.07-.22.1-.42.08-.62-.01-.06-.03-.11-.03-.17-.01-.06-.02-.13-.03-.17-2.08-11.94-30.82-11.16-30.99,1.53-.16,12.48,29.05,11.7,30.98-.56Z"/>
  <path class="st0" d="M1629.11,225.11c-2.45,15.85,10.15,24.22,24.28,26.47.1.01.2.06.27.09h.03c6.9.2,13.81.17,20.69-.18h.05c8.04-.4,16.09-.86,24.14-1.4,2.92-.2,5.87-.39,8.83-.6,3.98-1.75,7.87-3.59,11.09-6.62,7.07-6.65,7.75-16.9,4.38-25.65-3.72-9.69-13.85-15.95-24.11-16.19-11.07.6-22.12,1.18-33.19,1.77-.18.08-.36.1-.51.02-4.22.23-8.42.45-12.64.68-11.28,1.93-21.5,9.94-23.32,21.62ZM1675.98,210.89c10.07-.79,29.59,1.64,31.01,14.69.06.13.08.31.07.55,0,.13-.01.24-.05.37-1.04,11.28-14.88,15.5-24.39,16.26-9.5.75-31.02-1.7-31.07-15.24-.06-11.53,15.51-15.92,24.43-16.63Z"/>
  <path class="st0" d="M1722.99,281.1c2.05-.15,4.14-.32,6.22-.55-2.63-7.98-4.17-16.57-4.17-25.04,0-1.47.05-2.93.14-4.39-2.76.3-5.53.57-8.3.83.18,3.54.49,7.08.92,10.61.68,5.7,1.14,13.88,5.01,18.56.07,0,.13-.01.18-.01Z"/>
  <path class="st0" d="M1720.42,165.17c.04.98.09,1.95.14,2.93,2.08-.05,4.17-.08,6.26-.11-.03-.78-.07-1.55-.1-2.33-2.09-.18-4.19-.36-6.3-.48Z"/>
  <path class="st0" d="M1720.7,171.22c.06,1.32.12,2.63.17,3.95,2.08-.06,4.16-.1,6.25-.16-.06-1.3-.11-2.61-.17-3.91-2.08.03-4.17.08-6.25.11Z"/>
  <path class="st0" d="M1721.01,178.29c.05.98.08,1.94.13,2.91l6.24-.21c-.05-.95-.08-1.91-.13-2.85-2.08.05-4.16.1-6.24.15Z"/>
  <path class="st0" d="M1721.27,184.31c.07,1.6.14,3.19.21,4.8,2.08-.09,4.15-.18,6.23-.28-.07-1.57-.14-3.16-.21-4.75-2.07.08-4.15.15-6.23.22Z"/>
  <path class="st0" d="M1724.99,196.54c1.01-.06,2.03-.1,3.04-.16-.07-1.48-.13-2.95-.2-4.44-2.07.09-4.14.17-6.22.26.07,1.51.14,3,.21,4.51,1.05-.06,2.1-.11,3.16-.17Z"/>
  <path class="st0" d="M1732.18,280.15c1.33-.18,2.65-.41,3.96-.69-1.97-5.25-3.06-10.93-2.94-16.38.09-4.91,1.44-9.43,3.69-13.45-3.09.45-6.18.85-9.3,1.2-.48,9.91,1.3,20.03,4.57,29.33,0-.01.01-.01.01-.01Z"/>
  <path class="st0" d="M1640,283.82c-.24-4.5-3.29-8.31-7.83-9.09-4.86-.82-9.89,2.53-9.93,7.71-.06,10.58,17.13,12.92,17.76,1.38ZM1631.17,279.43c2.23.39,3.8,2.25,3.93,4.49-.29,5.25-8.56,3.33-8.44-1.38.06-2.33,2.4-3.48,4.5-3.11Z"/>
  <path class="st0" d="M1569.42,341.51c3.17-.53,6.22-2.24,9.24-4.03.57-.34,1.14-.69,1.71-1.02,2.08-1.24,4.16-2.41,6.27-3.19,8.35-3.05,16.21-2.64,24.93-2.47,7.64.15,14.66-4.05,15.06-12.3.31-6.39-3.53-11.81-9.79-13.25-5.17-1.18-10.83.51-11.19,6.5-.08,1.29-2.61,3.38-2.48,1.38.84-13.83,19.62-15.09,24.7-3.11,2.26,5.34,1.41,11.76-1.79,16.54-.2.29-.39.57-.6.84,12,.87,26.11,8.03,23.34,22.12-1.53,7.77-5.87,14.36-6.48,22.51-.62,8.38,3.76,15.54,3.55,23.7-.22,9.18-6.37,17.39-14.87,20.65-4.16,1.6-8.8,1.97-13.1.68-5.54-1.67-8.27-5.63-11.82-9.84-6.01-7.11-14.89-13.05-24.16-15.42,1.3,4.99.69,10.83,1.8,15.82,1.56,6.96,4.79,13.62,10.69,17.9,7.68,5.6,17.61,5.77,26.72,6.37,8.91.57,18.57,1.09,27.16-1.83,10.49-3.56,12.31-12.28,11.94-22.41-.32-9.1-2.33-18.16-1.84-27.29.52-9.46,4.01-17.97,9.03-25.91,1.13-1.77,2.92-.75,1.79,1.03-4.57,7.24-7.85,14.87-8.34,23.5-.33,5.95.48,11.87,1.1,17.78,1,9.49,2.63,21.28-3.71,29.38-1,1.28-2.13,2.37-3.36,3.31,22.18,7.12,49.06,8.29,70.26-1.79-5.25-5.76-6.79-13.94-5.29-22.67,1.2-6.88,4.91-13.99,10.47-18.49-1.77-1.67-3.39-3.53-4.83-5.61-13.46-19.56-8.27-47.54-4.76-69.35,1.83-11.41,7.4-21.43,17.62-26.96-.4-.77-.78-1.56-1.13-2.37-5.04,1.2-10.32,1.71-15.49,2.06h-.01c-.14.05-.27.06-.4.02t-.01,0c-.39.03-.77.06-1.15.08-9.77.63-22.38,2.28-30.92-3.69-8.06-5.63-11.29-16.77-10.97-26.28-1.7.08-3.4.16-5.1.25h-.05c-.87.05-1.75.07-2.63.1-15.54.51-31.21-.02-46.63-1.99-2.49-.32-5.14-.67-7.87-1.08-1.06,1.43-2.03,2.92-2.91,4.46-.68,1.2-2.07,3.11-2.03,4.5.08,2.56,1.92,2.37,4.16,2.11,7.65-.84,14.89-3.34,22.66-1.68,8.65,1.85,15.65,9.17,23.43,13.19,5.01,2.6,10.19,4.96,15.48,6.95,1.25.47-.37,3.49-1.72,2.98-7.33-2.75-14.54-6.14-21.27-10.14-4.76-2.83-8.95-7.08-14.17-9-5.83-2.14-12.17-1.51-18.15-.44-3.65.64-13.24,4.18-12.99-2.41.14-3.73,2.75-7.68,5.16-10.91-2.59-.43-5.22-.92-7.86-1.52h-.01c-6.11,15.12-19.08,23.9-31.19,34.2-7.09,6.03-11.11,13.81-14.16,22.58-2.8,8.09-4.8,17.61-2.26,26.03,1.54,5.1,5.37,9.89,11.24,8.91ZM1691.92,354.43c1.82-1.33,1.89,1.52.68,2.4-20.28,14.97-18.46,44.47-7.89,64.81.62,1.21-1.48,3.88-2.14,2.61-11.47-22.09-12.51-53.67,9.35-69.82ZM1611.12,274.5c9.12-4.71,20.86-6.33,30.63-2.93,8.66,3.02,16.03,8.85,24.9,11.72,3.88,1.26,7.95,2.36,12.03,2.79,1.53.16.14,3.29-1.18,3.15-6.07-.64-12.09-2.4-17.82-4.8-10.07,6.65-29.68,19.03-40.68,7.77-3.92-4.01-5.6-10.3-5.61-15.9-.75.32-1.48.68-2.22,1.06-1.82.93-1.22-2.24-.05-2.85Z"/>
  <path class="st0" d="M1775.18,193.87c-.55-4.86-2.29-9.84-4.95-13.81-4.67-6.95-12.17-9.19-19.94-10.87-.45-.1-.91-.18-1.36-.28-1.77,8.75-.56,18.23,3.36,26.18,7.63-.41,15.26-.82,22.89-1.22Z"/>
  <path class="st0" d="M1760.24,398.37c-2.53-.24-5.06-.61-7.55-1.1-.88,1.51-1.6,3.16-1.94,4.84-1.3,6.44,4.23,8.45,9.55,9.41,4.34.79,10.48,1.84,14.41-.87,3.86-2.67,2.73-8.4,1.84-12.26-.02-.14-.02-.29,0-.44-5.36.91-10.94.93-16.31.43Z"/>
  <path class="st0" d="M1739.42,279.59c.54,1.25,1.13,2.47,1.77,3.64,3.43-1.48,6.98-2.39,10.58-2.92-2.68-6.91-3.94-15.25-1.45-22.21,2.86-8.01,11-12.56,19.16-13.33,6.78-.63,16.8,1.91,16.61,10.45-.17,8.02-8.33,11.99-15.35,11.85-1.49-.02-.16-3.17,1.18-3.15,4.24.08,9.64-1.05,11.23-5.62,1.26-3.62-.8-6.64-3.81-8.47-4.75-2.9-11.38-2.42-16.41-.69-13.65,4.68-12.93,19.59-8.07,30.79,2.46-.24,4.94-.34,7.43-.38h.01c9.37-.13,19.96.62,28.68,4.68,10.46-9.23,11.38-24.41,4.98-36.48-2.7-5.1-7.1-8.83-12.22-11.15-1.03-.47-2.11-.88-3.21-1.24-4.22-1.38-8.77-1.87-13.15-1.47-9.46.87-19.03,5.14-25.13,12.04-.92,1.03-1.77,2.14-2.52,3.3-2.76,4.24-4.3,9.26-4.01,14.92.25,4.96,1.47,10.14,3.44,14.87.16.11.24.32.25.57Z"/>
  <path class="st0" d="M1608.15,173.83c13.59-5.79,29.64-7.37,44.16-9,12.65-1.43,25.39-2.31,38.13-2.65.16-.06.32-.07.47-.01,5.99-.16,11.97-.21,17.96-.11,16.39.25,33.64.91,49.43,5.73,11.83,3.61,18.69,13.83,19.47,25.95,7.49-.4,14.97-.79,22.47-1.2-1.18-7.85-3.93-15.38-8.31-20.86-11.63-14.57-32.72-18.53-50.2-20.32-22.24-2.28-44.76-1.01-67,.72-9.94.78-19.87,1.72-29.81,2.54-10.8.87-21.66,1.18-32.27,3.6-9.39,2.14-18.86,5.87-25.56,13.05-6.55,7.01-9.49,16.38-10.85,25.68-.37,2.51-.62,5.01-.78,7.53,7.04-.37,14.09-.75,21.13-1.13-1.85-11.09.23-24.71,11.55-29.53Z"/>
  <path class="st0" d="M1751.07,198.24c-.18.08-.36.1-.51.03-13.23.7-26.45,1.4-39.67,2.1,8.22,3.73,14.35,11.31,15.93,20.66.3,1.8.45,3.53.45,5.18,0,10.15-5.49,17.57-13.7,22.8.75-.05,1.48-.1,2.23-.16h.01c.22-.1.41-.13.57-.05h.01c3.47-.29,6.95-.59,10.43-.94.28-.15.53-.2.7-.07,0,0,0-.01.01-.01,3.82-.39,7.63-.85,11.43-1.38,9.79-13.33,30.07-19.66,45.47-13.24,6.58-4.04,12-9.6,14.42-17.43,1.84-5.94,2.43-13.07,1.73-20.13-9.4.5-18.8,1-28.2,1.5-7.11.38-14.23.75-21.34,1.13Z"/>
  <path class="st0" d="M1795.62,388.72c-1.9,1.86-3.98,3.42-6.18,4.7h-.01c8.8,6.55,12.76,19.52,3.53,27.8-7.62,6.83-21.54,6.61-31.07,6.27-9.92-.33-26.17-1.49-30.79-12.19-3.5-8.1,1.21-17.21,6.95-23.26h0c-2.08-1.16-4.07-2.48-5.91-4-9.68,6.54-12.66,21.34-8.62,31.79,1.01,2.62,2.61,4.76,4.6,6.49.24.02.39.17.46.39,7.02,5.8,18.51,7.06,26.82,7.45,12.08.57,25.01-.36,36.66-3.8,8.49-2.51,14.14-9.25,14.63-18.21.52-9.27-4.31-17.48-10.62-23.87l-.45.45Z"/>
  <path class="st0" d="M1772.38,331.7c-4.91-.84-9.99,2.55-10.02,7.78-.06,10.7,17.3,13.03,17.93,1.39-.24-4.55-3.32-8.4-7.91-9.17Z"/>
  <path class="st0" d="M1768.92,320.86c-9.18.99-16.31,9.32-16.28,18.48.03,10.06,8.79,18.11,18.84,17.1,9.43-.95,15.7-9.16,16.25-18.19.02-.09.03-.2.02-.29.01-.18,0-.32-.03-.44-.69-9.77-8.57-17.76-18.79-16.66ZM1755.13,337.96c.03-9.18,8.87-15.46,17.57-13.74,7.36,1.44,12.22,7.81,12.56,15.12-.93,19.59-30.2,17.16-30.13-1.38Z"/>
  <path class="st0" d="M1790.34,287.66c-.47.18-.75-.03-.87-.43-8.62-4.1-19.14-4.65-28.36-4.54h-.01c-7.14.1-14.3.83-20.8,3.79-.01.01-.02.02-.03.02-.07.02-.15.06-.23.1-.85.39-1.68.82-2.5,1.3-13.12,7.58-14.4,22.25-16.2,35.83-2.64,20.03-4.77,46.3,12.08,60.96.05.02.07.05.1.08.33.3.68.59,1.02.86,10.58,8.47,25.89,10.87,39.07,9.68,11.71-1.07,21.88-6.59,27.19-17.35,4.53-9.2,5.49-19.88,5.91-29.99.37-9.22.72-18.57.36-27.79-.37-9.43-2.02-19.44-8.71-26.6-2.33-2.49-5.05-4.44-8-5.93ZM1800.36,361.95c-2.99,18.55-16.94,27.19-34.69,27.42-12.62.15-27.53-1.78-34.54-13.73-5.16-8.79-4.98-19.73-4.79-29.59.31-16.81-1.13-38.23,11.68-51.24,14.86-15.11,46.83-10.6,58.33,6.56,11.45,17.08,7.07,41.62,4.02,60.59Z"/>
  <g>
    <path class="st0" d="M16.92,228.32c-5.32.29-10.72,1.57-15.84,3.17-.15,1.06-.16,2.13.02,3.18,1.69,9.55,16.28,7.62,22.93,6.85.39-.05.78-.08,1.17-.13,1.36-2.84,2.38-6.49,1.16-9.35-1.61-3.83-5.84-3.91-9.45-3.72Z"/>
    <path class="st0" d="M26.38,199.01c.12-.32.48-.86.56-1.03.08-.21.16-.43.24-.63-1.85-.53-3.71-1.01-5.61-1.33-2.86-.48-5.73-.62-8.6-.88-.14.6-.28,1.18-.41,1.78,2.98.47,5.95.93,8.93,1.39,1.56.23,3.29.7,4.88.71Z"/>
    <path class="st0" d="M15.25,81.94c4.36-2.55,7.87-9.18,10.02-13.37,1.61-3.14,3.32-6.95,3.18-10.58-.14-3.65-2.54-5.75-5.25-7.89-4.09-3.24-11.69-6.21-15.07-10.62-4.24,6.88-7.03,14.54-6.69,22.13.44,9.41,6.14,16.44,13.8,20.33Z"/>
    <path class="st0" d="M9.36,206.9c-1.74,2.09-.97,6.21.9,8.15.26-.2.52-.38.77-.55,7.71-5.24,18.26-4.4,27.08-3.55,4.98.49,9.85,1.4,14.71,2.33-3.82-.83-7.63-1.72-11.42-2.67-7.39-1.82-15.12-4.86-22.68-5.64-2.56-.26-7.44-.38-9.34,1.93Z"/>
    <path class="st0" d="M50.38,203.34c.67-.26,1.16-1.48,1.55-2.68-5.22-.32-10.54.07-16-.98-.34-.07-.68-.15-1.02-.22-.09.31-.18.63-.26.95,3.22.72,6.46,1.4,9.71,2.01,1.37.26,4.68,1.45,6.02.91Z"/>
    <path class="st0" d="M56.32,20.83c-.69-1.01-1.45-1.98-2.25-2.87-9.5-10.56-22.89-2.79-31.64,4.84-1.25,1.09-2.52,2.26-3.76,3.51,4.45,2.33,8.93,7.72,13.04,10.09,10.57,6.11,19.48-7.18,24.6-15.56Z"/>
    <path class="st0" d="M9.96,36.68c.15.21.32.41.51.61,6.79,7.14,22.03,9.43,20.28,21.92-.8,5.81-3.92,11.39-7.16,16.19-1.62,2.39-3.59,5.44-5.96,7.64,3,1.22,6.22,1.99,9.49,2.25,4.26-4.45,8.32-9.09,11.51-14.64,5.41-9.41,9.38-19.57,15.66-28.49,2.26-3.22,4.78-6.19,7.49-8.98-.92-3.56-2.32-7.18-4.23-10.42-4.36,7.02-10.66,16.19-18.53,18.41-5.4,1.52-10.5-2.46-14.41-5.69-2.46-2.02-4.72-4.47-7.4-6.23-.3-.2-.61-.36-.92-.48-.83-.36-1.67-.46-2.46-.37-2.98.32-5.39,3.33-4.77,6.32.14.66.43,1.32.88,1.95Z"/>
    <path class="st0" d="M78.75,213.1s.06-.02.09-.03c-4.31-8.58-10.92-17.1-19.16-21.94-7.31-4.29-14.32-2.56-22.24-3.87-4.95-.82-8.78-3.01-12.77-5.93-3.17-2.33-7.92-4.45-12.15-3.99-.4.03-.8.09-1.21.2-1.29.29-2.52.87-3.61,1.79-5.94,5.03-1.25,11.91,4.92,12.49,5.86.54,11.14,1.56,16.64,2.86.18,0,.33.03.47.12,1.34.32,2.71.65,4.11,1.01,7.91,1.99,15.8.17,23.6,1.83,8.6,1.82,16.65,8,21.28,15.47Z"/>
    <path class="st0" d="M179.63,246.58c-5.3,1.11-10.88.49-12.41-5.38-1.18-4.57,1.78-8.34,5.56-11.03-2.56.91-5.07,2.14-7.32,3.18-2.2,1.01-4.38,2.03-6.56,3.06-.28.22-.52.32-.71.33-9.56,4.49-19.11,8.84-29.49,11.39-1.7.41-.67-2.79.59-3.1,8.46-2.08,16.5-5.26,24.4-8.94,1.64-.76,3.46-1.74,5.38-2.77,2.56-2.29,4.78-5.57,4.53-9.06-.32-4.32-4.28-8.23-8.31-9.65-7.08,8.08-19.38,11.04-28.66,15.38-1.85.87-1.24-2.28-.05-2.84,8.76-4.09,18.36-6.52,25.83-13.03,4.88-4.26,7.34-11.29.37-14.66-2.26-1.1-4.94-1.61-7.47-1.74-2.98,1.98-5.96,3.93-8.98,5.86-5.26,3.36-10.64,7.31-16.41,9.8-1.88.8-1.26-2.32-.05-2.85,5.76-2.49,11.15-6.44,16.41-9.8,8.93-5.7,17.75-11.61,26.28-17.88,3.71-2.74,7.38-5.53,10.87-8.53-4.53.87-9.43.03-11.6-4.37-1.57-3.22-.39-6.75,1.7-9.71-2.17,1.36-4.3,2.82-6.5,4.1-10.45,6.14-20.78,12.46-30.67,19.47-11.99,8.48-22.55,19.05-35.42,26.21-9.32,5.18-20.92,9.79-31.77,7.76-7.41-1.39-14.72-2.94-22.26-3.68-8.72-.85-19.24-1.79-26.62,3.84-.21.24-.42.41-.64.52-2.91,2.37-6.08,5.94-7.67,9.83,6.69-2.14,15.17-4.54,21.88-2.72,7.08,1.92,6.02,9.97,3.71,15.59,9.78-.9,19.92-.67,28.61,4.47,5.79,3.41,9.32,8.75,13.63,13.72,6.4,7.39,14.42,13.14,24.25,14.78,12.17,2.03,24.79-2.14,36.18-6.1.8-.28,1.6-.57,2.39-.86.03-.01.07-.02.1-.03,11.2-4.03,22.12-8.88,32.86-14.05,4.22-2.03,9.43-4,14.03-6.49Z"/>
    <path class="st0" d="M177.96,170.11c.13-.07.24-.1.35-.13.69-.76,1.3-1.56,1.71-2.42,3.67-7.62-5.24-10.74-11.38-9.62-.05.03-.08.08-.11.1-3.37,2.63-6.79,7.19-3.44,11.08,3.11,3.6,8.94,2.87,12.87.99Z"/>
    <path class="st0" d="M170.8,241.54c3.72,4.59,11.8,1.79,16.17-.43.06-.03.12-.05.16-.07,4.42-5.45-.86-11.5-7.22-12.06-.22.31-.48.55-.75.65-4.47,1.63-12.92,6.29-8.37,11.89Z"/>
    <path class="st0" d="M147.42,55.58c-1.51,4.4-2.79,8.98-3.4,13.59-.3,2.22-.8,5.63.87,7.42,2.07,2.19,5.61.84,7.23-1.28,1.94-10.65,5.67-21.23,10.89-30.67,7-12.63,17.72-22.02,30.43-28.72,9.37-4.94,19.78-8.63,30.34-10.14-3.85-6.9-12.57-5.41-19.64-3.39-.13.07-.26.1-.39.11-.62.17-1.22.36-1.79.53-13.28,4.08-25.06,11.83-35.14,21.28-9.23,8.66-15.34,19.31-19.4,31.25Z"/>
    <path class="st0" d="M182.66,25.52c-12.23,9-19.79,21.43-24.58,35.67-1.52,4.5-2.75,9.12-3.6,13.8,0,.17-.03.37-.11.59-.03.24-.09.48-.14.72-.23,1.39-.61,2.99-.53,4.41.38,6.7,6.64,4.18,9.62.79,1.05-4.65,2.22-9.27,3.55-13.85,4.31-14.76,10.1-27.6,23.57-35.91,13.95-8.61,30.83-13.53,46.93-16.15.95-.16,1.97-.34,2.99-.51-3.61-7.83-12.38-7.15-20.16-5.68-13.41,2.53-26.53,8-37.54,16.1Z"/>
    <path class="st0" d="M187.53,36.54c-11.94,8.42-16.32,22.73-19.83,36.3-3.71,14.33-6.11,29.06-7.5,43.8-.47,4.96-.95,10.03-.76,15.02.2,4.9,4.41,15.27,10.38,11.11-.82-5.79.13-12.08.43-17.71.87-15.76,1.95-31.65,5.41-47.08,3.07-13.71,7.77-26.71,20.13-34.43,14.39-8.98,32.11-14.02,48.86-15.94,2.29-.25,5.38-.82,8.26-.77-.03-12.73-16.73-8.27-24.9-6.41-13.99,3.19-28.65,7.77-40.47,16.11Z"/>
    <path class="st0" d="M230.8,33.01c-13.54,3.05-29.21,7.63-39.95,16.88-9.31,8.02-12.09,22.75-14.13,34.22-2.21,12.4-3.17,24.97-3.87,37.53-.28,4.85-.77,9.77-.71,14.63.08,7.24,2.84,18.33,10.66,11.12-2.26-6.8-.98-16.49-.71-22.13.7-14.36,2.5-28.81,5.55-42.88,2.53-11.61,6.04-21.36,16.09-28.53,10.47-7.48,23.49-11.01,35.97-13.38,4.62-.87,12.45-3.08,18.33-2.11,5.06-13.25-21.65-6.6-27.22-5.36Z"/>
    <path class="st0" d="M257.78,41.62c-3.98-.94-9.17.36-12.65.92-12.03,1.93-24.32,4.63-35.17,10.37-5.65,2.99-11.1,6.94-14.54,12.46-2.93,4.69-4.06,10.45-5.23,15.79-2.8,12.66-4.52,25.66-5.38,38.6-.37,5.49-.6,11.01-.39,16.51.1,3,.05,6.93,1.15,10.01.02.05.03.08.05.13.21.54.44,1.07.72,1.54,2.37,3.93,9.03,5.78,10.56.03.2-.74.05-1.74.06-2.48.07-3.73.1-7.46.18-11.19.22-10.97.6-21.96,1.46-32.9.72-9.19,1.32-18.98,4.39-27.75,6.71-19.2,34.13-19.43,50.89-19.75,1.77,0,3.61-.21,5.3-.74,3.64-1.11,5-5,3.16-8.29-.98-1.75-2.51-2.71-4.3-3.19-.09,0-.18-.02-.26-.06Z"/>
    <path class="st0" d="M265.71,78.95c-1.62-7.48-3.72-16.24-6.9-22.86-1.88.64-4,.97-6.11.97-13.82.26-33.92.03-44.14,11.02-4.33,4.65-5.09,11.88-5.96,17.93-1.08,7.53-1.66,15.12-2.08,22.71-.66,11.39-.87,22.79-1.05,34.19-.05,2.84.13,5.54-1.49,8.03-2.79,4.29-7.83,5.25-11.78,1.9-1.05-.88-1.85-2.01-2.49-3.29-4.06,3.71-9.25,5.79-12.2-.72-.52-1.14-.91-2.32-1.2-3.53-5.08,3.42-10.83-.71-12.54-6.37-1.84-6.11-.72-13.38-.18-19.58.98-11.31,2.55-22.65,4.87-33.81-2.76,2.4-6.48,4.11-9.49,1.44-2.16-1.93-1.93-5.17-1.49-8-2.05,1.65-4.63,2.65-7.11,1.48-4.01-1.9-3.22-7.58-2.7-11.15,1.95-13.35,7.76-27.11,15.78-37.9,9.72-13.1,24.64-23.8,39.93-29.65-37.44-4.29-75.42-1.34-109.63,15.87-11.64,5.85-22.43,13.46-30.4,23.89-5.84,7.64-9.69,16.42-14.08,24.91-4.21,8.14-9.23,15.42-15.63,21.98-9.1,9.32-17.18,17.28-22.48,29.52-4.96,11.47-9.69,31.33,2.85,40.12,8.02,5.63,14.27-1.26,22.32-1.75,9.23-.55,23.34,6.8,29.26-4.18,5.61-10.43-10.53-22.04-17.97-12.63-1.42,1.8-2.36-.41-1.26-1.79,6.54-8.27,20.67-4.34,22.66,5.8,2.31,11.8-9.32,18.46-19.56,17.73-4.7-.33-10.22-2.37-14.93-1.68-4.25.63-8,3.25-12.28,3.88.99,3.68,1.03,7.91-.92,11.07,3.08-.1,6.24.62,8.88,2.25,5.41,3.34,9.16,6.72,15.87,7.54,8.26,1.01,15.02-.24,22.41,4.49,8.37,5.36,15.03,14.26,19.24,23.2,12.83-5.25,24.47-15.78,34.33-23.45,11.65-9.06,24.09-17.07,36.77-24.58,6.23-3.7,14.49-11.01,22.17-9.47,7.88,1.57,10.37,9.62,5.7,15.74-4.79,6.29-12.12,11.12-18.42,15.72-4.19,3.07-8.46,6.04-12.77,8.96,7.62,1.51,13.18,7.27,8.58,15.69-.22.41-.48.79-.72,1.18,4.85,2.01,8.88,6.76,8.72,12.15-.07,2.37-.9,4.69-2.16,6.79,6.52-3.32,13.7-6.22,19.8-4.38,8.48,2.55,10,11.94,3.78,17.74-5.96,5.59-15.89,8.96-23.12,12.42-8.38,4.01-16.88,7.83-25.54,11.2,27.03,3.01,56.1,4.56,81.98-4.54,17.32-6.09,30.91-18.09,38.45-34.88,10.33-23,11.25-50.22,12.04-74.95.79-24.83-.3-50.07-5.61-74.41ZM84.29,160.47c-.31,3.53-2.71,6.9-6.46,7.3-3.69.4-6.75-2.6-6.78-6.23-.03-3.59,2.73-7.12,6.34-7.61,3.76-.49,6.56,2.38,6.9,5.91.02.09.03.2.03.32,0,.09-.01.2-.03.31ZM103.6,168.71c-4.87,7.89-8.92.09-11.91-4.4-5.09-7.64-10.46-15.31-14.8-23.41-2.55-4.75,2.28-12.88,7.53-8.56.1.05.21.13.3.26,4.48,6.87,8.92,13.78,13.25,20.75,2.49,4.02,8.68,10.41,5.63,15.35ZM108.95,141.92c-.32,3.6-2.77,7.01-6.57,7.42-3.76.4-6.87-2.64-6.91-6.35-.03-3.63,2.78-7.23,6.45-7.71,3.83-.51,6.69,2.42,7.03,6.02.02.09.03.2.02.31.01.1,0,.21-.02.31ZM128.37,113.27c-18.57,17.61-50.15,9.52-59-14.11-.45-1.21,1.77-3.71,2.39-2.06,8.29,22.14,38.37,30.42,55.93,13.77,1.63-1.55,1.72,1.4.68,2.4ZM135.62,110.92c-4.07-.92-6.93-2.37-9.1-4.73-8.57,6.1-20.52,11.17-30.97,8.01-9.03-2.72-16.24-11.24-20.19-19.56-4.77,1.63-10.47,1.8-15.13-.32-1.25-.56.41-3.57,1.72-2.99,7.65,3.48,15.2.05,21.65-4.19,6.8-4.48,15.05-7.8,23.34-6.65,7.32,1.02,13.3,5.81,16.4,12.45,3.5,7.5,4.23,12.77,13.47,14.85,1.54.34.1,3.44-1.18,3.15ZM137.78,102.73c-5.25-1.59-7.37-6.19-9.42-10.88-3.06-6.98-6.23-13.88-13.57-17.2-14-6.34-31.99-.98-43.88,7.73-1.83,1.33-1.88-1.52-.68-2.4,10.86-7.98,25.96-13.22,39.42-10.48,8.25,1.68,14.26,6.21,18.1,13.65,2.86,5.55,4.45,14.39,11.22,16.42,1.53.46.05,3.53-1.18,3.16Z"/>
    <path class="st0" d="M77.97,157.1c-2.07-.36-4.37.76-4.44,3.06-.13,4.62,8.02,6.53,8.31,1.38-.13-2.21-1.68-4.05-3.87-4.44Z"/>
    <path class="st0" d="M102.53,138.45c-2.14-.38-4.5.8-4.57,3.16-.13,4.78,8.25,6.7,8.54,1.38-.13-2.26-1.71-4.15-3.96-4.54Z"/>
    <path class="st0" d="M82.61,135.27c-1.47-1.1-4.3-1.46-4.33,1.61-.01.47.61.97.75,1.42.41,1.43,1.7,2.92,2.47,4.18,2.16,3.55,4.4,7.06,6.65,10.54,2.31,3.6,4.65,7.17,7.05,10.72.75,1.1,1.46,2.56,2.4,3.52.7.7,3.87,6.11,4.6-.28.21-1.75-3.02-5.54-3.88-6.98-2.1-3.48-4.28-6.93-6.45-10.37-3.06-4.82-6.14-9.61-9.25-14.38Z"/>
    <path class="st0" d="M101.69,84.28c-6.65.78-11.83,7.04-11.78,13.66.06,7.19,6.27,13.1,13.55,12.3,6.92-.77,11.4-6.76,11.89-13.36.01-.1.03-.21.02-.31.01-.2-.01-.34-.05-.47-.61-7.03-6.24-12.68-13.64-11.81ZM92.39,96.56c.03-6.02,5.85-10.02,11.51-9.06,5.22.88,8.71,5.26,8.99,10.43-.72,13.37-20.56,10.94-20.5-1.38Z"/>
    <path class="st0" d="M102.47,91.41c-3.07.41-5.42,3.49-5.39,6.53.03,3.01,2.53,5.49,5.6,5.16,3.14-.33,5.15-3.17,5.47-6.14.05-.14.07-.28.06-.4.01-.11-.01-.22-.03-.31-.3-2.91-2.6-5.26-5.7-4.84Z"/>
  </g>
</svg>