<?xml version="1.0" encoding="UTF-8"?>
<svg id="Layer_1" data-name="Layer 1" xmlns="http://www.w3.org/2000/svg" xmlns:xlink="http://www.w3.org/1999/xlink" viewBox="0 0 416.25 463.52">
  <defs>
    <style>
      .cls-1 {
        fill: none;
      }

      .cls-2 {
        fill: #a53b28;
      }

      .cls-3 {
        clip-path: url(#clippath-1);
      }

      .cls-4 {
        clip-path: url(#clippath);
      }
    </style>
    <clipPath id="clippath">
      <rect class="cls-1" y="0" width="416.25" height="463.52"/>
    </clipPath>
    <clipPath id="clippath-1">
      <rect class="cls-1" y="0" width="416.25" height="463.52"/>
    </clipPath>
  </defs>
  <g id="Artwork_10" data-name="Artwork 10">
    <g class="cls-4">
      <g class="cls-3">
        <path class="cls-2" d="M187.12,447.75c-.64,0-1.41,0-1.37-.19.1-1.32.15-3.32.15-5.66,0-7.18-.39-17.28-.68-18.84-.05-.2-.1-.24-.15-.24-.15,0-.29.29-.29.29-2.25,4.05-6.1,17.18-6.1,17.18-.15.34-1.37.54-2.05.54-.73,0-2.05-.24-2.15-.44-.05-.19-5.66-16.26-6.35-17.13-.1-.2-.2-.29-.24-.29-.05,0-.1.1-.15.34-.63,3.22-.88,10.15-.88,15.62,0,3.61.1,6.59.24,7.42-1.03.98-3.76,1.17-4.93,1.17s-1.76-.29-1.76-.29c0-9.18,1.85-28.41,1.85-28.41-.98-1.17-1.9-4.15-1.9-4.93,0-.1.05-.15.05-.15.24-.24,4.39-.49,6.35-.49.58,0,3.95.05,4.15.24.39.34,4.39,11.91,5.47,15.23,0,0,.1.24.24.24.1,0,.2-.1.24-.29.39-1.27,5.12-13.91,6.39-15.18.15-.15,2.49-.44,6.64-.44.58,0,2.39.05,2.39.24,0,1.22-1.27,4.83-1.76,5.76,0,0,1.71,15.48,1.71,27.39,0,.34-2.64,1.32-5.13,1.32"/>
        <path class="cls-2" d="M194.49,432.23c0-6.88,2.73-10.69,2.98-10.84.44-.24,2.1-.29,3.22-.29h.93c0-6.98,6.01-8.54,8.79-8.54,9.28,0,13.57,6.01,13.57,17.09,0,7.86-2.83,17.33-15.23,17.33-10.4,0-14.25-7.08-14.25-14.74M210.84,417.78c-2.78,0-4.05,2-4.05,3.71,0,4.49,4.39,9.42,4.39,9.42,0,.44-2.39,1.61-4.68,1.61-.34,0-3.22-3.12-4.2-7.86-.39.44-1.61,2.69-1.61,7.33,0,5.37,3.37,9.91,8.1,9.91,7.47,0,8.89-6.64,8.89-12.64,0-8.59-2.98-11.47-6.84-11.47"/>
        <path class="cls-2" d="M245.15,446.68c-2.93-8.35-9.52-22.41-10.2-23.43-.1-.15-.2-.19-.24-.19-.1,0-.15.34-.15.34-.15,1.03-.19,3.08-.19,5.62,0,6.15.34,14.94.73,16.79-1.02.93-3.56,1.17-4.78,1.17-1.12,0-1.76-.29-1.76-.29v-1.47c0-8.44.68-26.41.68-26.41-.93-1.17-1.85-4.3-1.85-5.08,0-.1,0-.15.05-.19.2-.25,4.59-.49,6.54-.49.58,0,3.42.05,3.66.24,0,0,8.64,19.33,8.88,19.87.1.2.15.25.2.25.15,0,.2-.34.2-.34v-1.37c0-4.98-.39-15.91-.83-18.06,1.02-.93,4.2-1.56,5.42-1.56,1.37,0,1.9.1,1.9.24,0,1.22-.68,3.52-.68,3.66-.24,1.56-.34,5.32-.34,9.71,0,8.74.34,19.87.34,20.02,0,.24-2.2,1.17-5.76,1.17-1.17,0-1.81-.19-1.81-.19"/>
        <path class="cls-2" d="M267.6,428.47c-.34,0-2.83,3.9-2.83,4.44v3.17c0,3.47.05,8.64.29,9.81.1.25-2,1.27-4.74,1.27-.83,0-1.66-.24-1.66-.24-.1-.1-.15-.97-.15-2.39,0-5.03.54-16.7.54-22.8,0-2.15-.05-3.56-.24-3.86-.2-.29-1.51-3.07-1.51-3.76,0-.39,3.61-1.51,6.35-1.51,0,0,1.32,0,1.42.15.1.1.1.78.1,1.76,0,2.73-.2,7.76-.24,9.22,0,0,0,.29.15.29.05,0,.1-.05.2-.19,3.47-4.64,10.15-12.06,11.13-12.06,2.05,0,5.17,2.1,5.17,2.49-4.2,2.73-9.52,8.64-9.52,9.03,0,2,6.74,18.01,10.5,21.82.2.15-2.68,2.54-6,2.54-4-4-8.54-19.18-8.93-19.18"/>
        <path class="cls-2" d="M299.28,426.17c2.34,0,4,.05,4,.15,0,1.9-1.51,4.78-1.71,4.74-.78,0-7.18.24-7.91.73-.05.05-.05.63-.05,1.51,0,2.39.1,6.74.24,6.88.69.68,6.98.78,8.4.78,2.78,0,5.08-.34,5.13-.34s.1,0,.1.05c0,1.61-1.32,4.15-2.44,5.22-.15.15-3.47.49-9.67.49-3.86,0-7.52-.19-7.66-.39-.2-.15-.29-4.39-.29-6.88,0-2.25.05-4.78.1-7.28-1.12-.97-2.49-3.66-2.49-5.27,0-.05,1.03-.1,2.59-.15,0-2.05.05-3.91.05-5.27s-.05-2.2-.1-2.29c-.78-.78-2.25-4.49-2.25-5.23.39-.39,12.93-.54,17.14-.54,2.29,0,4.1.05,4.1.19,0,2.3-1.81,4.93-2.1,4.88-.15-.05-.73-.1-1.46-.1-2.83,0-8.64.34-9.03.73-.24.25-.29,3.27-.29,5.37,0,1.17.05,2.05.05,2.05,1.95-.05,3.91-.05,5.57-.05"/>
        <path class="cls-2" d="M322.95,426.91c.29-.97,7.71-14.45,8.69-14.45,3.17,0,6.05,1.46,6,2-2.78,3.12-10.74,14.25-11.91,18.45-.05.49-.1,1.95-.1,3.76,0,3.56.15,8.49.39,9.52,0,.44-1.12,1.17-4.88,1.17-1.37,0-1.81-.39-1.81-.39,0-5.32.15-11.47.15-13.42v-.63c-2.39-3.37-7.81-13.82-8.64-14.84-.78-.78-1.95-1.12-3.08-1.12-.05-.1-.05-.24-.05-.39,0-.88.63-2.49.78-2.64.19-.19,2.69-.63,6.69-.63.39,0,.68.1.73.15.24.19,4.54,9.91,6.93,13.47h.1Z"/>
        <path class="cls-2" d="M81.25,395.62l3.99,2.41c-1.41,2.81-3.14,5.66-5.19,8.54-2.06,2.89-4.28,5.6-6.66,8.13-2.39,2.53-4.78,4.7-7.19,6.51-.15-.5-.39-1.05-.71-1.65-.33-.6-.67-1.21-1.02-1.81-.35-.6-.7-1.1-1.05-1.5,2.21-1.46,4.44-3.3,6.7-5.53,2.26-2.23,4.36-4.67,6.32-7.3,1.96-2.64,3.56-5.23,4.82-7.79M77.34,422.5l3.84,2.26c-1.05,2.36-2.37,4.78-3.95,7.26-1.58,2.48-3.27,4.83-5.08,7.04-1.81,2.21-3.61,4.12-5.42,5.72-.2-.45-.48-.97-.83-1.54-.35-.58-.7-1.14-1.05-1.69-.35-.55-.73-1.03-1.13-1.43,1.7-1.2,3.42-2.77,5.16-4.71,1.73-1.93,3.33-4.03,4.82-6.28,1.48-2.26,2.69-4.47,3.65-6.62M65.52,398.48l3.69-2.79c3.01,2.96,5.41,5.97,7.19,9.03,1.78,3.06,3.12,6.21,4.03,9.45.9,3.24,1.52,6.55,1.84,9.94.33,3.39.49,6.84.49,10.35s-.1,7.01-.3,10.35c-.2,3.34-.54,6.3-1.02,8.88-.48,2.59-1.22,4.53-2.22,5.83-.4.6-.94,1.09-1.62,1.47-.68.38-1.47.64-2.37.79-.96.15-2.07.25-3.35.3-1.28.05-2.6.05-3.95,0-.05-.85-.22-1.75-.49-2.67-.28-.93-.64-1.74-1.09-2.45,1.46.05,2.79.07,3.99.07s2.18-.03,2.93-.07c.85-.1,1.53-.45,2.03-1.05.5-.6.89-1.61,1.17-3.01.27-1.4.51-3.1.71-5.08.2-1.98.34-4.13.41-6.44.08-2.31.11-4.64.11-7,0-4.52-.28-8.83-.83-12.95-.55-4.11-1.69-8.08-3.43-11.89-1.73-3.81-4.38-7.5-7.94-11.06M96.61,394.27l5.57,1.36c-1.16,3.36-2.55,6.81-4.18,10.35-1.63,3.54-3.46,6.94-5.5,10.2-2.03,3.26-4.3,6.15-6.81,8.66-.25-.4-.58-.85-.98-1.36-.4-.5-.82-1.01-1.24-1.54-.43-.53-.82-.94-1.17-1.24,2.21-2.26,4.24-4.88,6.1-7.87,1.86-2.99,3.49-6.1,4.89-9.33,1.4-3.24,2.51-6.31,3.31-9.22M90.66,412.11l4.82-4.89.45.23v55.78h-5.27v-51.11ZM105.57,417l5.04,1.28c-.6,2.06-1.33,4.22-2.18,6.47-.85,2.26-1.82,4.44-2.9,6.55-1.08,2.11-2.25,4.01-3.5,5.72-.5-.45-1.16-.93-1.96-1.43-.8-.5-1.48-.88-2.03-1.13,1.15-1.6,2.22-3.4,3.2-5.38.98-1.98,1.83-4.03,2.56-6.13.73-2.11,1.32-4.09,1.77-5.95M113.32,426.56h5.27v9.49c0,2.01-.19,4.2-.57,6.59-.38,2.38-1.13,4.8-2.26,7.26-1.13,2.46-2.82,4.84-5.08,7.15-2.26,2.31-5.27,4.47-9.03,6.48-.4-.55-.96-1.21-1.66-1.96-.7-.75-1.36-1.36-1.96-1.81,3.56-1.71,6.37-3.59,8.43-5.65,2.06-2.06,3.58-4.15,4.55-6.28.98-2.13,1.61-4.23,1.88-6.28.28-2.06.42-3.92.42-5.57v-9.41ZM98.87,438.91h33.87v4.89h-33.87v-4.89ZM99.47,411.66h33.42v4.82h-33.42v-4.82ZM104.59,397.43h19.12v4.82h-19.12v-4.82ZM105.19,424.3h24.99v4.89h-24.99v-4.89ZM118.29,447.56l4.14-2.18c1.31,1.66,2.66,3.43,4.07,5.31,1.4,1.88,2.73,3.71,3.99,5.49,1.25,1.78,2.28,3.32,3.09,4.63l-4.52,2.48c-.75-1.31-1.73-2.87-2.94-4.7-1.2-1.83-2.5-3.71-3.88-5.65-1.38-1.93-2.7-3.73-3.95-5.38M121.83,397.43h.6l.9-.3,3.76.45c-.2,2.66-.44,5.46-.72,8.39-.28,2.94-.62,5.61-1.01,8.02l-5.05-.45c.25-1.66.48-3.44.68-5.34.2-1.91.38-3.76.53-5.57.15-1.81.25-3.31.3-4.52v-.68Z"/>
        <path class="cls-2" d="M98.84,126.16c-3.07.78-10.4,1.24-11.03.46-1.21-1.47.71-4.29,2.53-5.46,5.43-3.52,13.88,3.64,8.5,5M85.63,125.31c.52-1.6,1.06-3.08,1.94-4.25,2.97-4.02,8.77-2.81,12.9-4.04-4.58-2.4-11.95-2.85-14.51,1.95-.89,1.67-1.09,4.55-1.02,6.25.43.38.62.28.68.09M70.13,128.34c.86-1.7-1.63-4.03-3.66-4.78-6.06-2.25-12.92,6.26-7.38,6.43,3.16.09,10.59-.75,11.04-1.65M71.97,126.56c-1.66-10.54-9.77-9.99-16.28-4.84,6.58.47,11.23-3.72,16.28,4.84M73.22,143.37c.76,0,1.64.33,2.35.6,2.8-2.87,1.32-6.87-2.66-7.24-1.79-.02-3.02.48-3.86,1.37-.62.65-.94,1.43-.9,2.19.09,1.76,2.06,3.1,4.6,3.1h.48ZM82.26,144.17c2.43-.95,3.32-1.39,4.11-1.43,2.69-.13,4.72-1.7,4.63-3.56-.08-1.71-1.97-3.16-4.12-3.16-4.9.85-5.97,4.98-5.88,6.86.04.89.67,1.3,1.27,1.3M90.94,147.52c-5.16,4.06-14.57,4.64-19.86,2.11,4.1,8.58,19.52,5.1,20.37-1.86-.22-.39-.41-.37-.51-.25M199.94,147.64c-.69-1.16-2.65-2.01-3.91-3.04-.82.33-1.63.69-2.38,1.13-5.93,3.51-6.76,9.58-6.76,9.58,0,0,5.71,2.2,11.65-1.32.77-.45,1.48-1,2.18-1.57-.29-1.6-.11-3.67-.77-4.78M223.4,141.49c-.69-.18-1.4-.29-2.11-.38.62,3.25-3.29,4.41-4.32,6.26-1.03,1.86.04,5.78-1.66,6.8-1.76,1.05-4.73-1.78-6.77-1.75-1.98.03-4.86,2.99-6.72,1.96-1.2-.55-1.45.14-1.63.85-1.71,6.68,1.99,11.55,1.99,11.55,0,0,5.59-2.49,7.3-9.17.3-1.18.46-2.42.52-3.65.4,1.17.9,2.31,1.52,3.36,3.51,5.93,9.58,6.76,9.58,6.76,0,0,2.2-5.71-1.32-11.65-.62-1.05-1.38-2.04-2.21-2.95,1.11.54,2.27,1,3.45,1.3,6.68,1.71,11.55-1.99,11.55-1.99,0,0-2.49-5.59-9.17-7.31M216.82,137.55c.69,1.16,2.65,2.01,3.91,3.04.82-.33,1.63-.69,2.38-1.13,5.94-3.51,6.76-9.58,6.76-9.58,0,0-5.71-2.2-11.65,1.32-.77.45-1.48,1-2.18,1.57.29,1.6.11,3.67.77,4.78M195.47,144.08c-.62-3.25,3.29-4.41,4.32-6.27,1.03-1.86-.04-5.78,1.66-6.8,1.76-1.05,4.73,1.78,6.78,1.75,1.98-.03,4.86-2.99,6.72-1.96,1.2.55,1.45-.14,1.63-.85,1.71-6.68-1.99-11.55-1.99-11.55,0,0-5.59,2.49-7.31,9.17-.3,1.18-.46,2.42-.52,3.65-.4-1.17-.9-2.31-1.52-3.36-3.51-5.93-9.58-6.76-9.58-6.76,0,0-2.19,5.72,1.32,11.65.62,1.05,1.38,2.03,2.21,2.95-1.11-.54-2.27-1-3.45-1.3-6.68-1.71-11.55,1.99-11.55,1.99,0,0,2.49,5.59,9.17,7.31.69.18,1.4.29,2.11.38M414.47,329.82c-3.06,5.41-15.37,9.61-18.23,16.79-6.54,16.39-15.72,12.08-21.2,13.2-10.64,2.17-7.38-2.72-6.85-6.48,1.48-10.5,31.91-25.1,22.81-33.48-9.1-8.39-79.31-51.92-84.75-61.1-1.72-2.9-3.44-16.64-5-34.09,19.73-11.28,38.82-22.02,49.05-41.1,4.08-7.65,6.73-18.73,5.46-27.42-2.97,8.13-5.01,15.96-9.29,23.02-10.61,17.95-28.67,28.47-48.29,40.05-11.7,6.09-20.02,8.89-19.11,12.22,3.53,12.96,19.44,76.78,21.9,102.49.51,5.36.89,14.1-7.82,16.43-7.87,2.11-16.52-1.69-28.39.61-3.81.74-9.77,5.35-15.77,7.72-3.14,1.24-7.85.95-8.93,1.13-8.75,1.46-6.81-6.61-3.9-10.72,5.5-7.76,8.9-8.62,18.68-10.21,11.42-1.87,24.16-4.71,21.81-12.54-3.56-11.85-40.05-83.94-40.05-94.61,0-4.87,11.49-29.45,23.99-54.73,15.73-30.21,16.16-28.33,18.61-36.44-8.5,8.49-17.67,22.28-25.14,34.72-14.18,5.36-33.61,12.86-54.02,18.4-9.96,1.91-19.73,2.77-29.8,2.07,7.19,3.03,13.76,4.28,20.01,4.48,5.69,13.88,10.15,27.86,13.89,36.62,4.82,11.3,1,49.47-7.62,71.4-1.06,2.61-1.65,3.9-2.26,5.13-1.47,4.81-.04,8.96.04,16.33.07,6.34-.37,13.01-2.09,13.71-5.97,2.41-4.56-14.13-10.81-10.66-3.86,2.14-14.57,16.48-18.46,17.56-4.53,1.26-4.24-4.72-4.24-4.72,0,0-3.25,1.74-4.61-.18-3.12-4.39,2.15-12.86,2.15-12.86-3.05-6.26,17.25-23.61,23.36-36.56,4.74-17.54-.69-42-4.96-52.47-2.89-7.09-12.9-17.79-24.03-28.22,1.1-9.85,2.59-17.54,5.65-25.89-8.8,8.59-12.01,24.12-14.15,36.78-3.47,15.36-7.13,29.78-9.94,36.59-5.32,12.89-56.38,51.29-77.58,65.29-11.35,12.35-38.08,16.55-39.15,11.94,0,0-12.1,2.17-15.11-2.29-1.31-1.95,1.46-4.37,1.46-4.37,0,0-1.81-5.27,6.15-7.92,2.1-.7,16.33-5.53,28.79-9.75,22.52-10.11,57.22-52.4,59.75-64.31,2.31-10.86,3.33-27.35,3.7-43.58.24-4.27.39-8.52.56-12.7.26-6.78.82-13.44,2.35-19.88,1.49-6.44,4.08-12.62,7.67-18.27,3.59-5.67,8.02-10.73,12.15-16.31-5.89,3.74-12.02,8.49-16.11,14.18-3.34,4.59-6.07,10.61-8.07,16.35-7.33,1.75-15.57,2.2-26.7-.79-10.01-2.69-20.08-20.51-25.43-36.92-3.63-1.93-7.04-5.32-9.22-9.85-10.92-22.69-.98-34.96,11.28-36.76-4.34,5.08-6.42,11.24-3.21,19.61-.15-8.17,3.22-14.53,8.6-19.74,6.11-5.81,15.45-10.61,30.04-13.07,10.61-1.79,19.11-.62,25.86,2.58-2.39,2.23-4.06,5.17-4.75,8.23-.88,4.27-.24,9.14,2.98,13.37-1.29-3.92-1.14-8.07.18-11.67,1.4-3.58,4.02-6.46,7.33-7.89,2.95-1.33,6.34-1.47,9.67-1.02,7.86,2.3,14.04,9.23,13.03,20.84,9.9-3.8,21.4-6.53,34.43-7.88,57.1-5.9,139.9-6.34,170.63,12.31,15.96-4.57,53.41-30.57,54.29-52.84.39-7.54-5.02-15.84-13.59-18.16-19.22-5.36-57.62,13.79-99.2,24.49-21.68,5.61-50.92,10.52-72.84,6.41-32.11-6.04-42.56-31.49-33.05-59.56.74-2.19,3.11-3.36,5.3-2.62,4.27,1.45,2.33,6.21,2.57,5.44-4.23,13.25-3.52,30.08,7.48,39.15,19.56,16.47,62.87,7.09,87.41-.12,52.47-15.5,94.14-43.43,120.09-22.23,14.73,11.99,19.13,31.76,5.86,54.6-9.68,16.69-27.7,33.74-43.78,44.07,6.02,9.22,10.51,23.09,7.56,43.17-5.8,39.62-33.15,68.44-28.3,73.14,9.28,8.99,51.64,52.36,67.02,73.88,3.95,5.52,8.55,10.75,4.17,18.5M148.05,118.76c.48,2.56,1.6,5.25,3.35,7.24,2.62,3.07,5.49,4.59,7.79,5.22,2.34.63,4.18.38,5.45-.37-3.43-1.65-5.88-4.06-7.38-6.07-1.48-2.02-1.96-3.55-1.88-3.61.1-.08,1.32.95,3.32,2.12,1.95,1.15,4.88,2.5,7.64,3.25-.05-2.58-2.44-4.93-5.47-8.15-.89-1.08-1.98-2.01-2.95-3.12-.54-.53-.93-1.15-1.49-1.74-.45-.68-.89-1.33-1.29-1.94-.38-.71-.73-1.37-1.05-1.97-1.24-2.75-1.61-3.43-1.78-3.46-.17-.03-.71.41-1.45,1.32-.36.46-.82,1.03-1.22,1.74-.36.71-.73,1.55-1.08,2.52-.35.96-.48,2.05-.66,3.24-.12,1.18-.01,2.45.14,3.76M125.23,162.98c-.47,3.8,1.42,8.7,3.05,11.07-.14-1.92-.14-4.07.11-6.07.66-5.34,5.8-4.7,5.14.64-.25,2-.78,4.09-1.38,5.91,2.17-1.89,5.01-5.83,5.48-9.63.67-5.34-11.73-7.26-12.4-1.92M127.71,175.55c-2.37,1-3.48,3.73-2.48,6.1,1,2.37,3.73,3.48,6.1,2.48,2.37-1,3.56-4.18,2.56-6.55-1-2.37-3.81-3.04-6.18-2.03M90.02,103.56c-6.18.65-9.99,3.92-12.12,8.56-2.62-3.33-6.29-5.13-11.33-4.62-10.89,1.1-20.12,8.81-17.45,22.72,1.34,6.97,5.06,13.25,10.54,16.23,1.53,10.1,10.62,17.46,22.9,16.36,15.92-1.42,21.5-10.16,21.47-19.27,8.93-2.51,11.63-11.22,12.34-20.44,1.21-15.73-16-20.64-26.36-19.54M124.48,87.18c2.1.6,3.81,2.35,4.81,4.9.91,2.54,1.13,5.4,1.3,8.6,3.43-3.09,3.52-6.59,2.71-9.86-.52-2-1.4-3.68-2.59-4.99-1.33-1.5-3.14-2.58-5.1-3.03-.84-.18-1.71-.27-2.57-.27-2.99,0-5.9,1.12-7.99,3.08-1.53,1.43-2.53,3.2-2.8,4.99-.3,1.88.12,3.88,1.15,5.49,1.28-3.5,2.04-6.13,4.12-7.56,1.39-1.04,3.18-1.64,4.93-1.64.71,0,1.39.1,2.04.29M113.16,175.24c3.05,2.31,7.85,3.02,10.72,2.78-1.73-.84-3.59-1.91-5.2-3.13-4.3-3.25-1.17-7.38,3.12-4.13,1.61,1.21,3.15,2.72,4.43,4.15-.55-2.82-2.54-7.25-5.6-9.56-4.3-3.25-11.77,6.64-7.47,9.88M117.35,191.71c3.53-1.49,6.54-5.3,7.77-7.9-1.59,1.08-3.45,2.16-5.31,2.94-4.96,2.1-6.98-2.67-2.02-4.77,1.86-.78,3.93-1.37,5.81-1.76-2.72-.93-7.55-1.42-11.08.07-4.96,2.1-.14,13.51,4.82,11.42M63.13,308.97c-2.32-2.96-5.22-4.43-6.48-3.27-1.26,1.16-.69,4.36,1.29,7.14,1.98,2.77,4.88,4.25,6.5,3.29,1.62-.96,1.03-4.16-1.3-7.15M74.46,299.51c-2.99-3.34-6.36-5.01-7.55-3.77-1.18,1.26,0,4.84,2.65,8,2.65,3.16,6.04,4.86,7.57,3.79,1.54-1.06.33-4.67-2.68-8.03M85.19,289.38c-3.68-3.7-7.53-5.57-8.65-4.26-1.11,1.32.68,5.25,4,8.77,3.33,3.52,7.21,5.44,8.68,4.29,1.48-1.14-.36-5.11-4.04-8.8M95.43,278.74c-4.37-4-8.76-6.13-9.79-4.74-1.03,1.39,1.34,5.61,5.36,9.46,4.01,3.84,8.43,6,9.82,4.76,1.4-1.23-1.02-5.48-5.39-9.49M105.18,267.66c-5.1-4.27-10.01-6.57-10.97-5.15-.98,1.42,2.04,5.92,6.76,10.06,4.71,4.14,9.64,6.46,11,5.17,1.35-1.3-1.69-5.82-6.79-10.09M122.63,263.56c.57-1.83-3.6-5.24-9.23-7.6-5.65-2.36-10.89-3.09-11.77-1.69-.87,1.41,3.23,4.79,9.17,7.57,5.95,2.79,11.25,3.55,11.82,1.71M126.86,248.58c.39-1.86-3.33-4.69-8.31-6.32-4.98-1.63-9.62-1.73-10.36-.23-.77,1.49,2.9,4.3,8.23,6.3,5.33,1.99,10.02,2.11,10.44.26M129.84,233.38c.29-1.86-3.03-4.22-7.27-5.21-4.26-1-8.14-.53-8.82,1.02-.65,1.56,2.57,3.88,7.2,5.2,4.63,1.32,8.61.86,8.88-1.01M131.48,218.02c.05-1.89-2.72-3.79-6.18-4.25-3.46-.46-6.64.49-7.11,2.11-.44,1.62,2.19,3.5,6.09,4.23,3.85.72,7.17-.2,7.2-2.1M130.76,185.64c.14,1.92.14,4.07-.11,6.07-.66,5.34-5.8,4.7-5.14-.64.25-2,.78-4.08,1.38-5.91-2.17,1.89-5.01,5.83-5.48,9.63-.67,5.34,11.63,6.87,12.3,1.53.47-3.8-1.32-8.31-2.95-10.68M145.88,184.45c-3.06-2.31-7.86-3.02-10.72-2.78,1.73.84,3.59,1.91,5.2,3.13,4.29,3.25,1.17,7.38-3.12,4.13-1.61-1.22-3.15-2.72-4.42-4.15.55,2.82,2.54,7.25,5.6,9.56,4.3,3.25,11.77-6.64,7.48-9.88M141.69,167.98c-3.53,1.49-6.54,5.29-7.77,7.89,1.59-1.08,3.45-2.16,5.31-2.94,4.96-2.1,6.97,2.67,2.01,4.77-1.86.78-3.93,1.37-5.81,1.76,2.72.93,7.55,1.43,11.08-.07,4.96-2.1.14-13.51-4.82-11.41M154.95,140.68c-.02-.07.76-.68,2.13-1.36.69-.33,1.52-.69,2.48-.96,1.01-.27,1.94-.52,3.39-.44-.96-1.86-4.02-2.93-8.28-1.66-2.72.8-5.05,2.86-6.48,4.73-1.46,1.86-2.11,3.54-1.99,3.73.13.23,1.85.46,4,.54,2.15.06,4.67.02,6.67-.59,3.06-.93,4.67-1.93,5.47-3.49-1.54-.36-3.57-.38-4.95-.4-1.43-.01-2.4,0-2.43-.09M194.95,297.79c-.9-.95-2.34-1.74-4.06-2.21-1.72-.47-3.37-.54-4.61-.33-1.25.21-2.05.74-2.26,1.51-.23.75.22,1.68,1.08,2.62.87.94,2.11,1.86,3.62,2.52,3.06,1.37,6.21.88,7.1-1.1.41-.97.01-2.07-.87-3.01M200.18,284.65c.39-1.99-2.78-3.83-6.86-4.1-4.12-.27-7.36.89-7.44,2.56-.07,1.67,2.97,3.51,6.75,4.09,3.81.58,7.18-.56,7.55-2.55M193.3,265.32c-4.62.37-8.18,2.01-7.95,3.68.22,1.67,3.84,3.02,8.22,3,2.19-.02,4.18-.43,5.64-1.09,1.45-.66,2.43-1.6,2.42-2.59.02-2.02-3.71-3.36-8.33-2.99M191.03,250.26c-5,1.22-8.65,3.44-8.23,5.02.21.8,1.42,1.34,3.14,1.63,1.71.28,3.96.3,6.39-.09,4.85-.74,8.63-2.99,8.34-5.04-.24-2.06-4.6-2.74-9.63-1.52M186.28,235.79c-5.27,2.22-8.82,5.17-8.18,6.66.69,1.48,5.42,1.3,10.56-.41,5.14-1.71,8.84-4.71,8.26-6.69-.55-2-5.42-1.75-10.64.45M179.51,222.15c-5.36,3.15-8.96,6.81-8.03,8.18.89,1.39,5.9.36,11.22-2.31,5.31-2.66,8.96-6.36,8.12-8.23-.88-1.85-5.95-.79-11.32,2.36M163.33,219.14c1.05,1.26,6.25-.63,11.63-4.24,5.37-3.6,8.89-7.96,7.81-9.72-1.1-1.75-6.35.17-11.71,4.29-5.34,4.1-8.81,8.43-7.74,9.67M174.77,113.48c-.4-2.81-2.1-5.41-3.74-7.1-1.63-1.71-3.19-2.6-3.4-2.51-.25.1-.72,1.77-1.11,3.88-.37,2.12-.69,4.61-.38,6.69.48,3.16,1.23,4.9,2.66,5.92.57-1.47.9-3.48,1.12-4.84.22-1.41.34-2.37.44-2.39.07-.01.56.85,1.03,2.3.23.73.46,1.6.59,2.59.12,1.03.24,1.99-.06,3.42,1.98-.68,3.48-3.55,2.85-7.95M236.1,138.64c-.57-4,4.86-10.34,2.67-14.03-2.19-3.69-10.35-1.99-13.59-4.41-3.35-2.51-4.04-10.79-8.03-11.81-3.99-1.02-8.58,5.9-12.73,6.49-4,.57-10.34-4.86-14.03-2.67-3.69,2.19-1.99,10.35-4.41,13.59-2.51,3.35-10.79,4.04-11.81,8.03-1.02,3.99,5.9,8.58,6.49,12.73.57,4-4.86,10.34-2.67,14.03,2.19,3.69,10.35,1.99,13.59,4.41,3.35,2.51,4.04,10.79,8.03,11.81,3.99,1.02,8.58-5.9,12.73-6.49,4-.57,10.34,4.86,14.03,2.67,3.69-2.18,1.99-10.35,4.41-13.59,2.51-3.35,10.79-4.04,11.81-8.03,1.02-3.99-5.9-8.58-6.49-12.73M242.94,96.98c-1.01-2.12-2.22-3.44-2.44-3.42-.27.01-1.24,1.44-2.27,3.31-1.01,1.88-2.1,4.13-2.45,6.17-.53,3.12-.36,4.99.69,6.4,1-1.2,1.93-2.99,2.56-4.21.65-1.26,1.07-2.13,1.16-2.11.07.01.27.97.26,2.49,0,.76-.06,1.65-.24,2.63-.21,1.01-.4,1.95-1.11,3.21,2.09-.02,4.4-2.26,5.18-6.61.5-2.78-.31-5.75-1.33-7.85M267.22,130.72c.02-.26-1.25-1.43-2.94-2.73-1.71-1.28-3.78-2.68-5.75-3.32-3.01-.98-4.89-1.08-6.43-.24,1.04,1.16,2.68,2.34,3.79,3.15,1.15.82,1.95,1.36,1.92,1.46-.02.07-1,.12-2.5-.1-.75-.12-1.63-.3-2.57-.62-.97-.36-1.87-.68-3.01-1.57-.29,2.07,1.6,4.69,5.79,6.08,2.67.89,5.74.53,7.96-.18,2.24-.69,3.72-1.69,3.74-1.92M271.44,114.22c-.25-.52-.55-1.19-.99-1.86-.47-.64-1.05-1.34-1.75-2.09-.69-.74-1.61-1.35-2.58-2.03-1-.63-2.17-1.1-3.4-1.56-2.49-.72-5.38-.92-7.93-.25-3.9.97-6.52,2.84-8.1,4.6-1.59,1.8-2.19,3.55-2.09,5.02,2.99-2.31,6.22-3.41,8.67-3.84,2.46-.41,4.02-.16,4.04-.06.03.12-1.43.76-3.36,2.01-1.89,1.22-4.38,3.23-6.26,5.34,2.32,1.12,5.47.05,9.66-1.2,1.35-.31,2.65-.87,4.06-1.24.71-.25,1.43-.32,2.2-.55.8-.1,1.57-.2,2.29-.3.8-.02,1.54-.05,2.21-.07,2.99.11,3.76.08,3.87-.06.11-.14-.05-.81-.52-1.88M326.76,122.92c1.65-1.7,3.64-3.48,5.68-4.9,5.48-3.79,9.12,1.48,3.64,5.27-2.05,1.42-4.41,2.64-6.59,3.59,3.53.44,9.5-.18,13.39-2.87,5.48-3.79-3.24-16.39-8.71-12.6-3.9,2.69-6.58,8.06-7.42,11.51M308.79,134.38c2.05-1.42,4.41-2.64,6.59-3.59-3.53-.44-9.5.18-13.39,2.87-5.48,3.79,3.24,16.39,8.71,12.6,3.9-2.69,6.58-8.06,7.42-11.51-1.65,1.7-3.64,3.48-5.68,4.9-5.48,3.79-9.12-1.48-3.64-5.27M325.71,133.58c2.62-1.81,3.26-5.95,1.45-8.57-1.81-2.62-5.38-2.72-8-.91-2.62,1.81-3.27,5.4-1.46,8.01,1.81,2.62,5.4,3.27,8.01,1.46M312.99,109.51c.38,4.72,3.9,10.18,6.48,12.63-.65-2.28-1.2-4.89-1.4-7.37-.54-6.64,5.84-7.16,6.38-.52.2,2.48.08,5.14-.19,7.5,2.15-2.83,4.59-8.31,4.21-13.03-.54-6.64-16.03-5.84-15.49.8M301.47,127.39c4.28,2.03,10.27,1.67,13.68.66-2.3-.58-4.83-1.41-7.08-2.48-6.02-2.85-3.28-8.64,2.74-5.79,2.25,1.07,4.49,2.5,6.4,3.91-1.38-3.28-4.9-8.14-9.18-10.16-6.02-2.85-12.58,11-6.56,13.85M287.11,162.61c.15.22,1.87.35,4,.3,2.14-.07,4.62-.25,6.57-.97,2.97-1.11,4.5-2.2,5.19-3.81-1.54-.26-3.55-.17-4.92-.11-1.42.07-2.38.14-2.41.05-.02-.07.71-.72,2.02-1.48.66-.37,1.46-.77,2.4-1.11.98-.33,1.89-.64,3.33-.65-1.06-1.8-4.17-2.68-8.32-1.16-2.65.96-4.82,3.15-6.12,5.09-1.33,1.94-1.86,3.64-1.74,3.83M278.77,195.2c.19-1.91.55-4.03,1.14-5.96,1.56-5.15,6.52-3.65,4.96,1.5-.58,1.93-1.46,3.89-2.37,5.59,2.46-1.49,5.92-4.89,7.04-8.55,1.56-5.15-10.3-8.75-11.86-3.6-1.11,3.66-.11,8.41,1.1,11.02M282.41,197.94c-1.76-1.88-4.71-1.97-6.59-.21-1.88,1.76-1.97,4.71-.21,6.58,1.76,1.88,5.15,1.89,7.03.14,1.88-1.76,1.53-4.63-.23-6.51M263.67,193.81c2.62,2.79,7.23,4.31,10.1,4.56-1.56-1.12-3.22-2.49-4.6-3.96-3.68-3.93.1-7.47,3.78-3.54,1.38,1.47,2.64,3.21,3.66,4.84-.07-2.88-1.27-7.57-3.89-10.37-3.68-3.93-12.73,4.54-9.04,8.47M265,210.75c3.73-.87,7.34-4.11,9-6.46-1.75.79-3.77,1.54-5.73,2-5.24,1.22-6.42-3.82-1.18-5.04,1.96-.46,4.1-.68,6.02-.74-2.52-1.38-7.2-2.69-10.93-1.81-5.24,1.22-2.43,13.29,2.82,12.07M261.88,245.91c6.04-2.09,10.52-5.36,10.01-7.32-.51-1.96-6.06-1.77-12.39.42-6.34,2.19-10.82,5.47-10.01,7.32.81,1.85,6.35,1.66,12.39-.42M267.3,261.63c5.47-1.88,9.49-4.98,8.98-6.94-.51-1.96-5.59-1.94-11.36.05-5.76,1.99-9.79,5.09-8.98,6.94.8,1.85,5.89,1.83,11.36-.05M285.82,317.88c-3.52,1.05-5.75,3.41-5.08,5.25.68,1.84,3.87,2.63,7.1,1.76,3.24-.87,5.52-3.22,5.11-5.26-.4-2.05-3.63-2.79-7.13-1.75M280.85,302.01c-4.06,1.32-6.74,3.89-5.98,5.74.76,1.85,4.43,2.39,8.2,1.21,3.78-1.19,6.46-3.77,5.99-5.74-.47-1.98-4.15-2.52-8.21-1.2M275.65,286.22c-4.63,1.55-7.74,4.31-6.96,6.16.78,1.85,4.93,2.19,9.27.76,4.33-1.43,7.45-4.19,6.96-6.16-.49-1.97-4.64-2.31-9.27-.76M270.32,270.47c-5.2,1.77-8.76,4.71-7.97,6.56.8,1.85,5.41,2.01,10.31.35s8.47-4.59,7.97-6.56c-.5-1.96-5.12-2.12-10.31-.35M279.25,207.05c-.19,1.91-.55,4.03-1.14,5.96-1.56,5.15-6.52,3.65-4.95-1.5.58-1.93,1.46-3.89,2.37-5.59-2.46,1.5-5.92,4.89-7.03,8.56-1.56,5.15,10.3,8.75,11.86,3.6,1.11-3.67.11-8.41-1.1-11.02M294.35,208.44c-2.62-2.8-7.23-4.31-10.1-4.56,1.56,1.12,3.22,2.49,4.59,3.96,3.68,3.93-.1,7.47-3.78,3.54-1.38-1.47-2.64-3.21-3.66-4.84.07,2.88,1.27,7.58,3.89,10.37,3.68,3.93,12.73-4.54,9.04-8.47M293.34,191.27c-3.73.87-7.68,4.34-9.33,6.69,1.75-.79,3.77-1.54,5.73-2,5.24-1.22,6.42,3.82,1.18,5.04-1.96.46-4.1.68-6.02.75,2.52,1.38,7.2,2.68,10.93,1.81,5.24-1.22,2.76-13.52-2.48-12.3M315.44,165.24c.13-2.4-.49-4.15-1.49-5.23-.9,3.67-2.75,6.54-4.4,8.4-1.67,1.85-3.05,2.62-3.12,2.55-.1-.08.65-1.48,1.38-3.66.72-2.13,1.42-5.25,1.58-8.08-2.51.57-4.31,3.36-6.82,6.94-.86,1.08-1.53,2.33-2.41,3.49-.4.63-.92,1.13-1.38,1.8-.56.58-1.1,1.14-1.61,1.66-.61.52-1.18,1-1.69,1.43-2.41,1.77-2.99,2.28-2.99,2.45,0,.17.54.61,1.58,1.15.52.26,1.17.59,1.93.84.77.2,1.66.4,2.67.55,1,.15,2.1.05,3.29-.02,1.17-.13,2.39-.48,3.63-.9,2.4-.99,4.78-2.63,6.37-4.73,2.45-3.18,3.34-6.27,3.48-8.64M330.87,171.1c-.38-2.1-.92-4.54-1.92-6.36-1.53-2.78-2.83-4.13-4.52-4.58-.04,1.56.35,3.54.61,4.89.28,1.39.49,2.33.4,2.38-.06.03-.81-.6-1.76-1.79-.46-.6-.98-1.33-1.44-2.21-.46-.92-.9-1.78-1.12-3.2-1.62,1.31-2.04,4.51.06,8.4,1.34,2.48,3.82,4.31,5.93,5.32,2.11,1.03,3.88,1.31,4.04,1.16.2-.18.07-1.9-.28-4M331.66,147.72c-.38-4.72-3.69-9.73-6.26-12.18.65,2.28,1.2,4.89,1.4,7.37.54,6.64-5.84,7.16-6.38.52-.2-2.48-.08-5.14.19-7.5-2.15,2.84-4.59,8.31-4.21,13.03.54,6.64,15.81,5.39,15.27-1.24M343.4,130.29c-4.28-2.03-10.27-1.67-13.68-.67,2.3.58,4.83,1.41,7.08,2.48,6.02,2.85,3.28,8.64-2.74,5.79-2.25-1.07-4.49-2.5-6.4-3.91,1.38,3.28,4.9,8.13,9.18,10.16,6.02,2.85,12.58-11,6.56-13.85M395.38,317.51c-1.88-3.49-4.44-7.85-6.9-10.95-6.42-7.83-12.73-15.04-23.93-24.64-10.95-9.35-29.08-22.25-41.32-24.41,7.4,11,21.6,16.43,53.49,43.79,5.9,5.12,13.66,10.13,18.66,16.21"/>
      </g>
    </g>
  </g>
</svg>