<?xml version="1.0" encoding="UTF-8"?>
<svg id="Layer_1" xmlns="http://www.w3.org/2000/svg" version="1.1" viewBox="0 0 360 360.03">
  <!-- Generator: Adobe Illustrator 30.5.1, SVG Export Plug-In . SVG Version: 2.1.4 Build 3)  -->
  <defs>
    <style>
      .st0 {
        fill: #010101;
      }

      .st1 {
        fill: #fff;
      }

      .st2 {
        fill: #818181;
      }
    </style>
  </defs>
  <circle class="st2" cx="180" cy="180.01" r="180"/>
  <path class="st0" d="M54.75,309.27c4.59,4.45,9.41,8.66,14.45,12.6,16.73-57.11,151.99-66.71,208.23-12.68,4.49,4.34,8.99,8.97,12.06,13.7,4.86-3.73,9.54-7.71,13.99-11.91-47.85-87.24-246.72-96.63-248.72-1.71Z"/>
  <path class="st0" d="M3.82,217.03c2.34,11.21,5.73,22.04,10.06,32.38,7.13-35.51,40.75-55.17,76.49-62.94,93.68-20.33,239.4,25.23,259.25,53.91,4.64-13.03,7.82-26.75,9.34-40.97C252.1,165.6,48.69,114.46,3.82,217.03Z"/>
  <path class="st0" d="M148.8,60.15c8.3.87,9.1.95,10.08,1.09,113.08,16.24,102.61,22.19,176.46,27.82-6.69-11.39-14.59-21.98-23.53-31.6-11.54,1.94-24.35,3.23-35.35-1.56-84.81-37.88-111.34-39.24-203.51-20.6-10.32,7.65-19.8,16.38-28.26,26.02,32.78-7.11,74.67-4.15,104.11-1.16Z"/>
  <path class="st0" d="M36.66,288.88c4.62,6.07,9.61,11.84,14.95,17.27,2.62-94.82,210.56-84.63,253.12,3.64,9.71-9.34,18.37-19.75,25.8-31.05-35.39-64.09-285.49-101.84-293.86,10.15ZM307.39,276.8c-1.14,2.33-2.27,3.78-3.08,5.17-.96-.52-2.44-1.96-4.09-4.03-2.78-.22-4.98-.88-6.03-1.56-.12-.83,1.07-2.91,2.7-5.18-.71-2.77-.99-5.28-.51-6.17.92-.42,3.4.03,6.12.92,2.37-1.47,4.53-2.52,5.35-2.34.61,1.09,1.12,3.33,1.15,6.12,1.96,1.78,3.29,3.36,3.75,4.35-1.44.71-2.96,1.74-5.36,2.73Z"/>
  <path class="st0" d="M358.95,160.57c-56.78-1.11-274.94-95.87-343.6-11.62-6.71,7.87-11.38,15.52-15.18,23.66-.51,12.56.23,25.11,2.45,38.06,16.86-34.73,69.27-77.12,228.89-46.68,56.76,10.86,108.12,27.18,127.59,34.24,1.26-12.58,1.21-25.13-.14-37.66ZM40.58,160.37c-1.14,2.33-2.27,3.78-3.08,5.17-.96-.52-2.44-1.96-4.08-4.03-2.78-.22-4.98-.88-6.03-1.56-.12-.83,1.07-2.91,2.7-5.18-.71-2.77-.99-5.28-.51-6.17.92-.42,3.4.03,6.12.92,2.37-1.47,4.53-2.52,5.35-2.34.61,1.09,1.12,3.33,1.15,6.12,1.96,1.78,3.29,3.36,3.75,4.35-1.44.71-2.96,1.74-5.36,2.73Z"/>
  <path class="st0" d="M337.6,93.01c-90.5-3.48-188.76-43.8-299.62-23.58-9.45,12.12-17.38,25.48-23.51,39.8,46.18-25.26,109.94-19.15,149.82-15.03.05,0,.66.14.63.16h-.06c18.18,3.2,39.05,4.36,80.99,12.55,46.08,8.97,78.12,15.86,105.25,17.09-3.54-10.81-8.07-21.18-13.5-30.98ZM57.55,85.79c-.2,1.54-.51,2.71-.84,3.26-.83-.45-1.83-.84-3.11-1.67-1.51.23-2.58.17-3.52.25-.07-.64.12-1.83.57-3.32-.83-1.41-1.25-2.7-1.27-3.43.36-.34,1.76-.46,3.4-.44,1.1-1.27,2.21-2.25,2.8-2.31.51.3,1.13,1.65,1.61,3.26,1.5.65,2.73,1.34,2.92,1.79-.32.66-1.23,1.66-2.56,2.61Z"/>
  <path class="st0" d="M80.39,30.08c70.61-17.28,115.7-9.83,163.29,9.31,39.54,16.26,38.33,21.07,66.82,16.66C249.63-8.02,152.37-17.84,80.39,30.08ZM242.99,28.15c-.2,1.54-.51,2.71-.84,3.26-.83-.45-1.83-.84-3.11-1.67-1.51.23-2.58.17-3.52.25-.07-.64.12-1.83.57-3.32-.83-1.41-1.25-2.7-1.27-3.43.36-.34,1.76-.46,3.4-.44,1.1-1.27,2.21-2.25,2.8-2.31.51.3,1.13,1.65,1.61,3.26,1.5.65,2.73,1.34,2.92,1.79-.32.66-1.23,1.66-2.56,2.61Z"/>
  <path class="st0" d="M95.56,339.01c52.33,27.85,115.51,28.06,168.09.42-38.96-43.01-136.63-43.73-168.09-.42ZM214.14,340.85c-.2,1.54-.51,2.71-.84,3.26-.83-.45-1.83-.84-3.11-1.67-1.51.23-2.58.17-3.52.25-.07-.64.12-1.83.57-3.32-.83-1.41-1.25-2.7-1.27-3.43.36-.34,1.76-.46,3.4-.44,1.1-1.27,2.21-2.25,2.8-2.31.51.3,1.13,1.65,1.61,3.26,1.5.65,2.73,1.34,2.92,1.79-.32.66-1.23,1.66-2.56,2.61Z"/>
  <path class="st0" d="M351.63,125.63c-40.46-1.56-102.47-17.13-138.31-21.95-11.04-1.55-49.97-6.45-49.32-6.67-48.35-4.67-100.9-8.69-151.32,16.53-5.17,12.99-8.85,26.73-10.88,41,63.61-104.37,296.35.01,356.82,3.19-1.36-11.04-3.73-21.77-7-32.1ZM314.76,138.42c-.2,1.54-.51,2.71-.84,3.26-.83-.45-1.83-.84-3.11-1.67-1.51.23-2.58.17-3.52.25-.07-.64.12-1.83.57-3.32-.83-1.41-1.25-2.7-1.27-3.43.36-.34,1.76-.46,3.4-.44,1.1-1.27,2.21-2.25,2.8-2.31.51.3,1.13,1.65,1.61,3.26,1.5.65,2.73,1.34,2.92,1.79-.32.66-1.23,1.66-2.56,2.61Z"/>
  <path class="st0" d="M124.69,190.82c-85.57,6.93-98.77,48.29-104.62,71.87,4.11,7.93,8.79,15.51,13.99,22.7,7.12-110.56,261.27-73.61,297.51-8.25,6.6-10.28,12.17-21.28,16.6-32.85-21.98-26.91-137.39-60.58-223.48-53.47ZM107.16,205.83c-1,1.15-1.87,1.8-2.54,2.46-.46-.44-1.08-1.48-1.7-2.91-1.54-.55-2.69-1.26-3.18-1.81.06-.49,1.05-1.49,2.32-2.52.02-1.68.25-3.14.66-3.58.59-.1,1.92.54,3.33,1.46,1.57-.47,2.95-.74,3.39-.51.18.71.13,2.06-.28,3.65.84,1.31,1.35,2.41,1.46,3.04-.92.18-1.95.54-3.46.73Z"/>
  <path class="st0" d="M219.34,283.86c-56.1-14.13-134.93.5-143.9,42.69,5.46,3.9,11.15,7.5,17.05,10.79,32.11-43.73,132.25-44.95,172.63,1.32,7.77-4.18,15.19-8.9,22.22-14.13-17.78-21.21-34.02-32.11-68-40.66ZM122.77,303.58c-.2,1.54-.51,2.71-.84,3.26-.83-.45-1.83-.84-3.11-1.67-1.51.23-2.58.17-3.52.25-.07-.64.12-1.83.57-3.32-.83-1.41-1.25-2.7-1.27-3.43.36-.34,1.76-.46,3.4-.44,1.1-1.27,2.21-2.25,2.8-2.31.51.3,1.13,1.65,1.61,3.26,1.5.65,2.73,1.34,2.92,1.79-.32.66-1.23,1.66-2.56,2.61Z"/>
  <path class="st1" d="M221.63,132.17c-.38-1.91-1.2-4.85-1.73-6.54,6.61-4.12,23.39-16.28,19.52-22.98-3.84-6.65-21.28,5-28.26,8.44-5.59-5.99-14.43-11.05-22.39-12.79,1.36-23.88,2.77-42.69-8.54-42.69s-10.3,18.84-9.27,42.75c-7.76,1.77-16.18,6.91-21.67,12.74-6.99-3.56-23.54-14.23-27.38-7.57-3.85,6.67,11.97,16.12,18.81,20.45-.6,1.89-1.93,6.12-2.35,8.18-56.69-2.21-82.52-6-82.52,7.11s25.26,9.98,82.56,8.13c.62,2.51,1.93,6.93,2.7,8.93-34.56,18.29-44.22,22.89-58.08,30.81,46.69,82.44,62.24,123.92,75.61,116.2,12.48-7.21-11.35-36.42-56.9-111.25,16.17-9.59,35.9-20.25,45.65-25.46,5.98,7.03,16.09,12.99,25.1,14.69-1.48,50.83-6.37,78.89,7.74,78.89s8.4-28.39,6.65-78.78c9.07-1.55,19.23-7.38,25.33-14.33,12.95,7.02,32.17,17.6,45.1,25.26-47.02,77.43-67.45,104.32-55.54,111.2,13.51,7.8,28.39-34.77,74.25-116.15-19.39-11.06-29.79-16.95-57.45-30.09.84-2.18,2.48-7.51,3.02-9.92,57.58,1.86,82.6,4.74,82.6-8.13s-25.79-9.32-82.57-7.11ZM172.13,109.97c.17,1.95,5.15,24.17,5.15,24.17,0,0-15.77-14.99-18.2-16.94,3.35-3.66,9.3-6.23,13.06-7.23ZM149.58,134.81c.4-2.9,1.75-6.33,2.18-7.68l22.48,10.4-24.66-2.72ZM149.71,144.88c.77-.04,23.87-2.47,24.73-2.52-.78.39-21.52,10.39-22.19,10.73-1.26-2.29-2.46-6.95-2.54-8.21ZM172.78,169.55c-5.08-.74-13.15-5.92-15.95-9.61,3.36-1.77,17.29-12.1,20.71-14.56-.66,4.51-4.04,19.02-4.76,24.17ZM210.58,136.39c-.18,0-24.54,1.47-24.73,1.47l23.14-8.48c.8,1.87,1.58,6.13,1.59,7.01ZM187.94,109.97c6.68,1.62,11.73,5.85,14.29,8.38-2.87,1.99-16.6,13.55-19.54,15.8.15-1.89,5.12-22.49,5.25-24.18ZM186.05,169.96c-.04-3.64-3.05-21.28-3.01-24.89,1.23.66,16.35,15.4,18.53,16.57-2.99,3.32-10.8,7.5-15.51,8.32ZM208,152.49c-.7-.33-21.75-9.63-22.52-9.99.85.06,24.01,2.8,24.77,2.85-.24,1.58-1.36,5.4-2.24,7.14Z"/>
</svg>