<?xml version="1.0" encoding="UTF-8"?>
<svg id="Layer_1" xmlns="http://www.w3.org/2000/svg" version="1.1" viewBox="0 0 288 277.64">
  <!-- Generator: Adobe Illustrator 30.5.1, SVG Export Plug-In . SVG Version: 2.1.4 Build 3)  -->
  <path d="M230.53,33.22c-26.98-16.76-63.35-16.84-81.51-16.96-20.53-.13-23.52.35-48.62,2.96-24.65,2.57-48.74,16.11-63.61,36.23-16.5,22.33-14.6,61.67-13.94,79.43.66,17.76,13.96,35.22,38.51,47.55,25.13,12.63,49.69,17.07,97.59,16.55,48.03-.53,66.63-9.89,84.34-29.61,16.78-18.69,21.22-44.05,21.96-70.55.52-18.67-.87-44.58-34.72-65.61ZM150.24,193.94c-70.13-1.32-96.42-19.19-106.69-28.66-10.26-9.47-18.05-27.29-15.82-53.73,1.59-18.77,1.37-43,17.95-59.05,16.58-16.05,31.49-25.21,54.19-27.7,19.76-2.17,36.42-2.3,48.79-2.26,17.35.05,66.39-2.96,96.86,30.94,14.87,16.55,14.14,34.78,14.66,45.7.53,10.92-.52,38.2-13.42,56.61-12.9,18.41-26.41,39.46-96.54,38.15Z"/>
  <path d="M267.51,40.13C233.55-.42,172.71.56,142.05.06c-43.22-.7-71.78,4.37-96.54,17.07C20.75,29.83,5.75,64.75,3.51,81.06c-.72,5.25-5.75,56.2-2.33,77.9,3.13,19.83,28.66,37.45,29.18,37.96.51.51-8.05,9.03-9.77,11.95-7.06,12.05-5.67,25.05-2.05,35.49,4.28,12.32,13.94,17.47,20.91,21.69,9.87,5.97,22.54,7.13,33.07,7.05,5.47-.04,20.56-2.18,25.62-5.14,8.48-4.97,9.64-8.94,10.26-8.77,2.53.67,10.47,10.4,15.57,12.62,10.15,4.42,14.56,5.5,27.02,5.81,23.99.59,30.7-11.82,32.24-11.95,1.54-.13,6.96,10.78,29.46,11.7,17.22.7,31.23-3.46,39.06-10.94,8.95-8.55,14.9-18.52,13.89-35-.82-13.32-13.05-24.32-13.05-24.32,0,0,7.72-8.85,14.58-19.09,10.92-16.31,19.12-43.16,20.04-61.84,1.05-21.38,4.53-57.13-19.69-86.05ZM104.52,250.36c-3.39,5.61-9.01,15.65-36.03,13.21-24.95-2.25-39.09-11.06-42.93-27.68-3.84-16.62.64-20.38,2.8-23.43,2.16-3.05,5.61-6.12,6.29-6.53,3.62-2.19,6.22-1.67,9.76-.59,3.54,1.08,17.29,7.89,20.54,10.52,4.62,3.74,3.69,8.55,1.09,12.71-2.46,3.93-4.69,4.99-10.02,3.28-1.92-.61-3.83-1.8-3.76-4.44.11-4.05,4.02-6.12.48-6.16-6.65-.08-9.28,2.32-10.78,6.48-1.55,4.32-3.12,17.13,8.59,21.46,10.33,3.82,24.44-1.88,30.81-11.02,5.41-7.77,4.78-17.88,5.56-17.75,6.48,1.01,16.51,2.59,20.79,3.79,1.61.45.51,20.03-3.2,26.17ZM72.78,229.83c3.34-5.58,1.8-11.55,2.36-11.53,2.19.08,4.27.39,5.39,1.18,1.09.77-.95,9.67-2.53,12.03-1.57,2.36-4.86,11.05-20.54,11.19-5.47.05-12.21-3.36-11.35-10.47.22-1.76,1.96-5.26,1.83-4.34-.37,2.65,1.28,6.92,3.54,8.33,3.06,1.91,5.88,2.71,11.11,1.77,6-1.08,8.24-4.91,10.19-8.16ZM179.98,247.17c-.59,4.82-2.61,12.88-10.98,19.43-5.58,4.37-18.29,5.21-30.47,3.11-9.74-1.68-18.27-9.85-20.93-15.95-2.66-6.1-2.47-26.47-.89-28.51.45-.58,8.3.66,9.88,1.15.53.17-.19,11.16,1.22,17.57,1.71,7.77,7.13,14.38,18.15,14.88,11.02.49,16.66-7.02,18.92-12.82,1.81-4.65,2.69-18.72,3.38-19.22.69-.49,11.04-.73,11.82-.53.79.2.47,16.07-.12,20.89ZM133.05,226.62c1.08-1.18,27.22.16,27.8.05.49-.1.3,3.73-.19,8.85s-1.93,17.76-15.31,17.46c-14.66-.32-13.88-24.63-12.3-26.36ZM257.47,228.56c2.64,9.7-1.09,25.38-13.38,34.33-13.13,9.56-26.18,8.65-41.58,5.72-10.66-2.03-15.32-14.55-11.28-29.37,1.52-5.55-1.18-8.31-1.01-12.12.03-.61,6.89-.64,7.87-.42,1.19.27-2.14,16.59,5.43,24.65,3.83,4.07,14.09,4.95,21.63,2.02,8.36-3.24,11.7-9.1,10.52-15.31-.69-3.64-4.99-6.79-4.71-5.64.74,3.08-.76,6.43-3.03,8.58-2.16,2.04-6.22,5.2-11.53,1.26-6.36-4.71-1.94-17.31,2.1-18.34,14.56-3.7,20.13-6.93,24.24-8.08,5.98-1.67,12.81,5.64,14.73,12.71ZM209.92,244.36c2.35,2.88,10.39,4.83,5.55,5.24-3.03.25-6.61.75-9.43-3.53-2.66-4.03-3.89-11.47-2.61-19.1.05-.32,6.19-1.37,6.57-1.09.62.46-1.97,3.67-2.44,6.98-.59,4.13-.32,8.21,2.37,11.51ZM268.95,166.99c-7.18,15.52-18.69,44.37-60.69,49.94-33.67,4.47-88.74,1.96-114.66-4.35-14.71-3.58-41.81-9.69-60.99-26.48-19.08-16.7-23.74-22.05-24.4-44.94-.55-18.98.25-53.24,4.36-68.63,4.11-15.39,22.03-44.29,52.69-53.9,30.66-9.62,52.2-10.3,74.7-10.55,36.45-.39,76,6.29,103.47,23.3,26.97,16.7,34.23,42.58,36.29,67.97,2.05,25.39-3.58,52.12-10.76,67.64Z"/>
  <path d="M237.19,52.32c-21.38-18.81-60.17-22.3-79.11-22.3-9.21,0-30.52.18-43.52,1.24-15.62,1.28-24.2,3.04-42.18,12.15-23.99,12.16-33.31,27.76-35.58,33.29-3.42,8.33-3.88,36.71-4.01,43.02-.13,6.44-.83,15.07,3.49,25.78,6.53,16.2,27.28,26.72,40.25,31.01,21.09,6.97,34.53,4.47,55.24,6.1,19.18,1.51,32.76,4.18,57.33-1.57,47.33-11.07,63.43-43.55,64.45-65.46.62-13.31,3.19-46.08-16.35-63.27ZM145.53,177.56c-.91.91-35.58-2.16-38.16-2.61-2.58-.46-22.26-2.47-23.18-5.05-.91-2.58,8.43-9.31,10.63-11.32,4.48-4.09-2.7-3.91-4.88-3.66-2.82.33-19.18,5.57-25.44,5.92-7.29.41-10.48-3.88-16.55-11.32-6.08-7.44-7.67-16.78-7.67-37.45s2.79-31.01,11.45-37.61c4.27-3.26,11.98-8.05,20.62-8.2,9.81-.17,30.02-.48,38.34,1.74,13.68,3.65,35.11,20.52,36.42,34.14,2.27,23.52-.66,74.51-1.57,75.42ZM165.45,130.53c1.44-1.18,9.16-6.98,9.28-16.25.16-12.69-5.39-13.93-6.54-16.49-1.15-2.56,3.49-5.51.62-13.98-1.45-4.3-5.23-9.64-11.4-10.69-2.41-.41-5.68.21-9.26.98-3.58.77-5.04,3.23-8.24,1.95-1.29-.51.38-3.33,2.3-4.09,3.88-1.55,11.62-3.92,17.67-2.05,11.27,3.49,16.24,14.49,18.07,20.04,3.61,10.96,3.44,32.78,1.05,37.45-3.44,6.71-6.25,9.05-12.55,12.19-4.81,2.4-8.79,1.18-9.58-2.26-.35-1.52,5.01-3.85,8.59-6.8ZM157.58,103.05c-.5-3.46,8.67-.68,10.08,4.69.87,3.33,1.16,7.19-.26,11.22-1.08,3.07-8.36,10.23-8.27,6.7.06-2.41-.21-13.41-1.55-22.61ZM146.98,80.84c-.68-1.24,7.75-2.43,9.41-1.92,1.66.51,7.85,2.59,8.17,10.98.15,3.94-6.35,6.44-7.71,5.1-1.3-1.29-3.51-3.36-5.92-8.36-1.36-2.81-2.74-3.57-3.96-5.79ZM247.65,104.58c-.25,10.13-1.49,33.42-20.04,49.47-14.19,12.27-25.79,18.46-46.53,22.47-10.73,2.07-26.87,2.18-26.87,2.18,0,0-.07-31,1.78-31.79,1.84-.79,21.36-2.97,27.01-15.15,6.53-14.08,2.85-34.16.7-41.46-2.94-9.98-8.41-23.48-23-25.78-10.18-1.61-16.65,0-19.28,1.45-2.63,1.45-5.39,4.42-6.11,3.94-3.86-2.52-20.66-10.13-32.64-11.32-11.97-1.18-37.24.53-38.69-.52-1.45-1.05,12.83-9.25,22.83-13.06,10-3.81,24.12-6.44,29.62-6.97,10.75-1.02,37.02-1.31,45.31-1.05,20.92.66,40.92.89,63.26,14.98,25.24,15.92,22.91,42.1,22.65,52.61Z"/>
  <path d="M82.72,81.82c-19.3-.91-28.42,9.87-29.03,21.42-.61,11.55,6.07,23.02,24.01,23.55,20.82.61,28.52-15.15,28.72-22.33.3-10.79-4.87-21.74-23.71-22.63ZM90.88,89.95c3.86-.26,2.3,4.22.42,3.81-1.47-.33-1.52-3.73-.42-3.81ZM75.44,87.19c3.39-2.71,4.49,1.51,2.19,2.55-1.42.65-2.81-2.06-2.19-2.55ZM66.82,93.07c.38-1.41,2.25-1.88,3.58-1.41,1.91.68,2.62,5.59.7,6.75-1.92,1.15-5.04-2.58-4.29-5.34ZM66.38,115.55c-2.82-.15-4.6-5.07-2.55-6.16,3.58-1.92,6.75-.43,7.52,1.49.77,1.92-1.35,4.86-4.96,4.67ZM74.09,105.96c-3.84-.64-3.03-3.57-1.44-5.15,2.18-2.17,5.3,0,5.68,2.31.38,2.3-.4,3.48-4.24,2.84ZM83.96,119.98c-1.35,1.97-3.2.07-4.87-2.36-1.66-2.43-3.4-6.15,0-8.04,1.51-.84,3.13,2.15,4.05,4.19.92,2.02,2.12,4.31.82,6.21ZM79.73,98.12c-2.18-2.82.53-5.34,2.58-6.46,1.69-.92,3.24,1.07,4.26,3.76,1.02,2.69-.05,4.58-1.98,5.73-1.92,1.15-2.69-.22-4.87-3.03ZM89.99,116.17c-2.69-.77-3.82-3.48-4.34-6.16-.51-2.69-.35-4.33.1-5.59.77-2.18,4.94-1.28,6.98,1.16,2.05,2.43,2.55,4.65,2.55,7.08s-2.61,4.28-5.3,3.51ZM96.54,102.11c-3.07.77-3.09-4.81-1.43-5.34,2.43-.77,4.5,4.57,1.43,5.34Z"/>
</svg>