<?xml version="1.0" encoding="UTF-8"?>
<svg id="Layer_1" data-name="Layer 1" xmlns="http://www.w3.org/2000/svg" xmlns:xlink="http://www.w3.org/1999/xlink" viewBox="0 0 506 503">
  <defs>
    <style>
      .cls-1 {
        fill: none;
      }

      .cls-2 {
        fill: #1f3d3a;
      }

      .cls-3 {
        clip-path: url(#clippath-1);
      }

      .cls-4 {
        clip-path: url(#clippath);
      }
    </style>
    <clipPath id="clippath">
      <rect class="cls-1" width="506" height="503"/>
    </clipPath>
    <clipPath id="clippath-1">
      <rect class="cls-1" width="506" height="503"/>
    </clipPath>
  </defs>
  <g id="Oak">
    <g class="cls-4">
      <g class="cls-3">
        <path class="cls-2" d="M229.49,15.51c0-2.01-.22-6.7,1.47-8.1,2.19-1.82,4.99,2.51,6.96,2.51-.12-1.32-.33-2.78.15-4.05.05-.12.1-.25.15-.37.79-1.92,1.91-3.68,3.31-5.19,2.38,1.76,5.16,2.79,7.15,5.07.95,1.11,1.29,1.91,1.15,3.36-.07.67-.12,1.07.12,1.72.42.25.37.34.89.23-.05-.67-.32-1.15-.6-1.76,1.02-1.84,2.23-4.4,3.95-5.62,2.26-.12,2.13,3.82,4.52,4.45,1.07.29,3.08-1.1,4.05-1.57.95.69,1.86,1.47,2.73,2.26,2.07,1.86,3.08,3.16,3.25,6.01.45-.25.92-.52,1.37-.75,1.74-.89,2.73-.7,4.55-.08,1.56.54,4.2-3.63,6.65-3.48,1.76,1.17,1.62,3.6,2.46,5.42.17-.02.42-.03.57,0,.8.14,3.57,3.68,4.28,4.49,1.29-1.04,2.53-2.14,4.27-2.13,2.8,1.47-.08,6.18,1.27,8.25.47-.11.86-.18,1.36-.07.46.11.95.13,1.41.06.99-.15,1.86-.43,2.69.16.45,1.35.87,2.16,1.88,3.2.08.1.18.18.27.27-.65.59-1.73,1.36-2.13,2.13-.49.95-.5,3.08-1.36,3.73-.3.23-1.21.45-1.27.92-.08.55.57,1.01.13,1.62-.54.75-1.86.77-2.36,1.79l.28.22c.69-.15,1.22-.32,1.91-.08.38.49.74.9,1.2,1.32.92.18,1.02.07,1.84-.3.72.3.95.87,1.34,1.49l.18.3c.17-.1.34-.2.5-.28,1.29-.74,3.21-1.74,4.74-1.05.57.25.85.62,1.05,1.15.25.65.23,1.38-.04,2.02-.26.6-.44.86-.46,1.47.3.74.49.99,1.15,1.41l.59-.13c.72-.94.95-2.34,1.26-3.48,1.52.12,2.88.3,4.33-.27-.03-.6-2.78-2.34-3.3-3.23-.47-.79-.59-1.82-.25-2.7.62-1.59,3.36-1.41,4.75-2.06-.35-.45-.67-.92-.99-1.41,1.07-1,2.76-2.53,4.05-3.18.4-.2.64-.08,1.02.1,1.81.89,1.81,2.86,2.36,4.47.23.69.39.99,1.02,1.34l.54-.23-.12-.39.2.18c1.52-4.74,1.19-6.26,3.9-11.01.9,1.52,2.04,3.48,3.6,4.42,1.29.02,2.24-.94,3.48-1.36l.82.77c.97.22,1.39-.27,2.34-.44.47-.08.67.1,1.05.4.55.43.95,1.02,1.01,1.71-.22.38-.43.7-.72,1.02l-.32.35c.15,1,1.42.9,1.89,1.92-.35,1-1.79,1.56-2.48,2.41l.29.43c.52.1,1.02.23,1.47.5.67.4,1.52,1.35,1.66,2.09l-.85.8.08.28c1.07.13,2.18.2,3.15.7.27.35.52.54.55,1,.13,2.08-1.96,4.12-3.27,5.52,1.07-.15,2.08-.38,3.16-.43,1.49.87.14,2.04.53,3.36.77,2.51-2.59,3.05-3.16,5.47l.45.7c1.19-.03,2.06-.47,3.03-1.12.42-.3.8-.55,1.27-.75.6-.25.29-.08.84-.47.15-1.57.37-3.01,1.25-4.35.6.17.82.27,1.46.14.4-1.36.82-3.03,1.52-4.27.33-.6.42-.65,1.05-.82,1.27.59,3.52,2.66,4.13,3.92.45.9.07,1.87-.3,2.71-.28.65-.48,1.22-.63,1.92.35.67.4.6,1.14.85,1.39-.59,1.11-3.95,1.99-5.31.85-1.31,2.16-3.78,3.7-4.12.79.34,1.05.99,1.47,1.69l.2.35.4.08c.37-.28.82-.74,1.24-.92.45-.2.69-.2,1.12-.02,1.47.64.67,1.41,1.14,2.6.8-.52.6-1.91,1.41-2.61l.59,1c1.66.03,3.26-2.39,5.19-1.84.8.23,1.21.9,1.47,1.66,1.41,3.82-1.52,4.27-2.73,6.86.95.37,2.56-.07,3.58-.2.23,1.15.42,1.86,1.17,2.76.28.33.58.64.79,1.04.27.52.28.87.03,1.4-.99,2.19-5.69,4.14-7.75,5.14,2.88,1.37,6.33-.18,7.87.99.22,2.9,2.01.99,3.48,2.74.42.48.52,1.26.42,1.86-.1.65-1.2,1.29-1.74,1.69-.08.33-.13.6-.27.92-.89,2.38-6.08,3.13-8.15,4.12v.48c.03.86.15,1.54.81,2.14,5.12,1.32,2.28,4.05,3.88,5.78l.59-.08c.93-.83,1.2-1.99,1.81-3.02.41-.69.61-.88,1.38-1.1l.71.56c.79-.17.91-.56,1.43-1.13,1.27-1.4,2.5-.17,4.1-.25,2.11-2.21,4.07-4.15,5.89-6.65.91,1.67,1.72,3.67,3.51,4.51.25.12.52.22.78.35.64.34.88.54,1.11,1.22-.46,1.13-1.54,1.81-2.31,2.7-.49.58-.66.83-.59,1.57l.34.1.39-.67c.96-.46,2.21.15,3.24.42l.1-.29c-.19-.35-.34-.64-.42-1.05-.25-1.37,2.97-5.84,3.77-7.08.76,1.1,1.42,2.08,2.52,2.85.66.47,1.4.91,1.71,1.71.07.17.12.34.18.51.25.57.3.79.89,1,1.84-2.03,3.07-3.83,5.25-5.59,1.55,2.85,2.62,2.4,3.61,3.78.59.83-.35,1.64-.12,2.51.29,1.03,1.18,2.33,1.62,3.38-.98.9-2.06,1.76-2.79,2.87.35.78,1.18.52,1.79,1.18-.24.42-.49.83-.76,1.23.74.52,1.47.12,2.21.58.99.59,1.42,1.84,2.33,2.57.08.07.17.15.29.18.81.29,1.38-.03,2.14.56.02.84-.27,1.62-.81,2.3-1.13,1.44-3.68,1.27-5.34,1.47l-1.5,1.86c-1.76.61-4.95.88-5.81,1.25-.24.63-.27.36-.07.88.15.39,2.75,6.05,2.8,6.08.12.1.27.12.4.19l.47-.27c.08-.73.2-1.42.34-2.13.61-.73,2.38-.93,3.31-1.17.71.85,1.33,1.76,2.03,2.62.91.13.49-.57,1.35-.9.71.46,1.03,1.52,1.37,2.26,1.4.93,2.84-1.66,4.37-1.93,1.05-.18,1.98,1.23,2.97,1.54.83.25,2.09.03,2.96-.03-.47,1.54-.84,3.75-2.38,4.56-.47.25-.83.47-1.23.86.03,1.1,1.42,1.08,1.87,2.16-.68,2.58-2.62,1.87-3.92,3.6-.46.59-.44.74-.29,1.4.27.24.56.47.81.71.56.52.69.63.73,1.42-1.27,2.43-4.37,2.25-6.05,4.07-.29.32-.2.56-.2.96.61.84,1.1,1.74,1.74,2.57l.61-.02c.86-.66,1.77-1.23,2.69-1.81.3.3.62.64.98.89.67.49.74.44,1.54.3.51-.46.93-.88,1.59-1.08.59.22.95.49,1.34.98.49.61.46,1.08.35,1.81-.07.57-.12,1.07-.07,1.64.49.14,1.13.24,1.59.47,1.72.93.45,3.58,1.05,5.14l.52-.09c.74.3,1.28,2.03,1.65,2.8l.46.03c.49-.62.76-.98.95-1.76-.41-1.49-.58-6.13.17-7.53.19-.34.81-.45,1.17-.56,1.2-.34,1.64-2.84,3.21-3.23.9-.22,1.42,2.4,2.25,2.94.52.02,1.07,0,1.55.2,1.18.47,1.57,1.99,2.03,3.06,1.23-.68,2.48-1.57,3.92-1.67.91-.07,1.25.17,1.89.74.83,2.13-.02,4-.61,6.1l2.7,1.42c-1.39,1.69-3.19,2.96-4.66,4.58l.07.32,1.71-.17c3.46,2.6,4.59-1.84,7.94-1.23.56.46.88.79,1.62.91.54-.25,1.06-.46,1.62-.62.37.15.49.27.71.62.91,1.42,1.16,1.82,2.87,2.25.52.13.29-.04.64.49-1.34,2.55.25,1.87-.64,3.12-1.34,1.87-5.2,2.63-5.86,4.9.66.57,1.92.67,2.79.86.9,1,1.72,2.06,2.59,3.09-.98.15-1.66.3-2.47.93-.46.35-.67.59-1.28.67-.61-.18-1.32-.51-1.96-.42-.41.05-.86,1-1.1,1.35-1.05.34-3.02-.25-3.98-.73-.09-.05-.17-.08-.25-.14-.14-.07-.29-.13-.42-.19l-.25-.12c-1.66,1.15-2.7,3.19-4.48,4.46l-.25.19c-1.94-.54-5.99-2.77-7.23-2.79-.69-.02-1.1.42-1.57.86v.05c.34.22.67.45,1.01.69.74.52,1.11.8,1.26,1.69-.34.75-.74,1.12-1.36,1.64-.35.3-.2.08-.34.6.87.35,1.99.25,2.75.8.82.59.1,3.07.2,4.09,0,.08.02.15.03.24-.44.4-.23.32-.76.42-.82.13-2.9-.57-3.47-.25-1.04.57-1.36,2.13-2.68,2.4-2.11.42-5.48-1.64-7.21-2.78-.52-.34-.69-.52-1.31-.59-.15.4-.2.55-.12.99.02.1.05.22.08.32-.05.12-.1.25-.15.37-.28.82-.25,1.19.15,1.95.3.55.54,1.01.6,1.66.08.74-.25,1.09-.67,1.64-.05.07-.49.62-.54.72-.32.7.02,1.02.33,1.64,1.02.32,3.04-4.38,4.9-4.91.64-.19,1.23-.05,1.78.25.67.79.57,2.05.6,3.04,1.68-.29,3.56-3.22,4.65-4.56,1.14-.1,3.19.12,4.18.7.02.13.03.25.05.39.49,2.42,4.14,2.87,5.84,4.24.55.45.64.75.72,1.43-.8,1.96-2.9,3.57-4.43,5.01.3,1.21.54,2.97,1.16,4.02.42.7.84,1.09,1.63,1.26,1.24.27,2.43,1.39,3.62,1.12,1.86-1.88.8-3.99,1.83-6.12.4-.82.92-1.56,1.81-1.88,1.44.3,1.98,1.56,2.73,2.72.65,1.02,1.68,1.46,2.7,2.03.6-1.88,1.51-5.08,3.54-5.87.86-.34,1.46-.1,2.21.32.5.27.79.45,1.38.49.6-.33,1.24-.79,1.95-.84.42-.03.62.27.94.5.17.5.32.9.62,1.36.6.94,2.33,1.09,3.35,1.31-.2,1.24-.32,2.5-.47,3.76-.76.42-1.76.86-2.28,1.56.64.39,1.44.85,1.9,1.48.5.7.8,1.86.6,2.7-.27,1.07-1.94,1.26-2.8,1.74.22.65.59,1.07,1.02,1.59,2.11.87,3.32-2.03,5.41-1.8,1.92.21,6.43,1.65,7.91,3.18.01.19.03.37.04.57-.59,1.06-.16,1.75-.54,2.64-.79,1.84-3.99,1.52-4.98,3,.32,1.21,2,1.56,2.65,2.55.4.6.28.8.1,1.44-.72.8-1.52,1.09-2.51,1.49,1.07.4,2.57.74,3.02,1.88.84,2.03,3.14,2.67,4.76,4.09-2.92,2.2-5.99,4.03-9.78,3.92l-3.3-.07c1.38.91,5.03,2.35,5.75,3.69-.5.69-.94,1.04-1.66,1.48-1.68.22-3.4-.4-5.01-.82-.22.23-.49.57-.76.75-2.67,1.73-8.38-1.33-10.95-1.63-.08.29-.17.59-.27.87-.22.59-.42.89-.44,1.52-.02,1.14.03,1.78-.55,2.8-.82.4-7.18,1.43-8.15,1.31-1.24-.17-2.31-1.24-3.62-1.31-.54-.03-1.04-.08-1.59-.15-.3-.29-.55-.52-.96-.67-.71-.25-2.18.48-2.82.77-.39.17-.27.03-.4.42,3.2,1.44,1.86,2.72,3.61,4.04,1.27.97,4.7-.05,6.19-.32.74,1.61,1.44,3.27,2.32,4.81l.1-.08c.1-.79.17-1.63.54-2.33.84-1.63,2.67-3.02,4.41-3.54.76-.23,1.76-.32,2.45.13,1.48.97,2.36,3.25,2.83,4.9.49,1.69.97,3.49.07,5.12-.45.82-.86,1.66-1.26,2.5,1.66-1.09,2.75-3.15,4.51-4.04,2.15-1.09,2.65.69,5.5-1.21,1.31-.04,3.72-.37,4.7.54-.25.5-.3.6-.29,1.21.64.44,1.22.77,1.56,1.51-.59.94-1.68.72-2.35,1.63l.17.62c.47.47.89.91,1.27,1.44-.79,1.02-2.45.81-3.14,1.85,3.25,2.58,9.63,1.76,11.12,3.1.32.29.25.55.29.96-.45,1.22-1.44,2.1-2.33,3.04,1.61.89,5.75,2.62,6.39,4.39,1.11,3.05-5.23,3.22-5.89,4.73-.18.44.29,1.21-.08,2.01-1.74,1.16-3.64.52-5.57.81l.15.37c.6.37,1.31.67,1.59,1.34-.3.55-.77.85-1.28,1.22-2.38-.37-4.66-1.54-7.01-2.16l.02.18,1.26.42-.62.99c.38.79.76,1.58,1.11,2.38-.18,1.06-1.29,1.54-1.76,2.53l.32.37c.96.07,5.68-1.07,6.74-1.48.3-.75.52-1.46,1.12-2.03l.54.05c.59.49,2.7,2.63,2.58,3.39-.1.69-.35.67-.22,1.44,1.39.71,3.99-.87,5.77-.5,1.21.25,1.86.91,2.5,1.93-.03,2.18-2.82,1.71-3.57,3.37,2.73,1.36,6.81.69,8.9,3.27.49.61.76.97.71,1.73-1.39,2.2-4.78,4.11-6.91,5.65.2.37.4.74.59,1.11.45.9.92,1.96.45,2.98-.3.64-.97,1.09-1.63,1.29-2.18.65-4.68-.94-6.52-1.95-.55.55-1.12,1.12-1.74,1.59-2.26,1.74-4.6-1.06-6.96-1.36-.3.22-.55.4-.91.54-.47.18-1.31-.37-1.76-.59-.35.65,1.16,4.21.55,6.04-2.55,2.65-6.56-1.32-9.42-.73,0,0-.01,0-.02-.01l-1.58-2.36c-.97-.24-2.03-.39-2.83-.99-.28-1.33-.45-2.4-1.56-3.24-.79-.59-1.06-.87-1.44-1.83-.03-.08-.07-.18-.1-.27l-.3-.02c-.34.3-.99,1.04-1.41,1.17-.47.17-2.13-.2-2.47.24-.64.87-.47,2-1.39,2.83-2.75.12-9.43.79-11.64-.81-.86-.62-.94-1.73-2.15-1.91-.07.13-.17.27-.22.4-.2.52-.05,1.44.1,1.96.3.15.59.32.87.5.86.55.89,1.54,1.06,2.47.22,1.21.77,1.89,1.51,2.85-.91.3-1.79.5-2.42,1.27l.07.5c.92.75,2.08,1.04,3.19,1.41.62-.37,1.24-.74,1.88-1.07.82-.42,1.32-.49,2.2-.22.8,1.02,1.11,2.72,1.49,3.96.67.6,1.59.32,2.48.38.08.15.18.29.27.45.84,1.86.49,4.95-.15,6.81-.03.12-.08.24-.12.34.4.38.42.4.97.47.35-.13.76-.32,1.12-.42,1.09-.29,1.51.15,2.43.64.28-.59.1-.3.54-.82,3.94-.2,3.37-1.9,6.09-3.27.39-.2.59-.17,1.01.02,2.63,1.19,1.83,5.12,2.43,7.38.18-.15.4-.35.59-.49,1.06-.77,1.73-.57,2.95-.37.82-.29,1.26-.7,1.88-1.31l.23-.24c.94-.02,1.76.57,2.55,1.02.96-.39,1.83-.77,2.87-.84,1.78.76,3.15.57,5.03.47-.29.81-.4,1.58-.52,2.41,3.07,3.1-.76,3.59-.44,7.45l.03.37c-1.78.64-3.52,1.27-5.23,2.08,1.24.5,3.34,1.19,4.14,2.23-.37,1.07-1.95,1.39-2.65,2.26-.2.25.25.69.29,1.11-4.43,2.62-6.14,1.54-11.02,1.01l-.2.29c.6.82,1.54,1.86,1.78,2.85.03.15.05.3.08.44.67.59,1.21.37,2.01.62,1.93.59-.02,2.31.87,3.07.84.72,2.01.77,2.5,1.83-1.71,1.73-6.14,3.97-8.47,4.54-.23.91-.5,1.74-.89,2.62-.85.62-2.26-.25-3.37-.2-.17.2-.33.42-.5.62-1.49,1.69-2.57-1.36-4.43-1.24-.34.39-.65.69-1.06,1.01-.82-.18-.92-1.02-1.74-1.42-.42.22-.79.35-1.24.45-.34-.32-.54-.59-.74-.99l-.22-.44c-.37.54.05,2.28.12,3.02.29,3.91-2.63,3.04-4.68,5.4-3.19-2.25-6.79-6.84-10.1-8.33-.76.13-1.22.28-1.96.02l.18-.77-.25-.18-.57.25c-.35,1.07.35,2.2.5,3.27.1.79-.07,1.09-.5,1.73-2.11,1.14-3.07-.29-5.11-.39-.92-.05-1.14.23-1.79.77-.54-.54-.94-.99-1.69-1.22.02.97.92,1.71,1.59,2.35.99,1.23,3.29,3.4,3.12,5.08-.17,1.66-2.35,4.12-3.74,4.93-.37.22-.74.32-1.16.39-1.31-.45-1.36-2-2.52-2.46-1.28-.52-1.98-.99-2.83-2.1-1.14.79-2.77,2.46-4.01,2.83-1.14-.25-1.52-.77-2.25-1.63-.92-1.09-2.45-.87-3.34-1.84-1.76-1.9-1.49-5.13-3.96-6.77-1.51-.08-.74.77-2.63-.4-.59,1.31-.49,3.56-2.08,4.04-1.74.54-4.04-1.21-5.38-2.18-.92-.67-1.98-2.21-3.2-2.03-1.27.19-1.93,1.23-3.25.62-1.41-2.45,1.12-3-1.78-4.54-.07-.45-.13-.9-.18-1.36-1.34-.25-1.86,1.26-3.4.4-.45-.25-.87-.4-1.36-.54-.52.27-.55.28-.82.8.27.62.59.92,1.06,1.39,2.2,2.2.6,6.49,4.65,6.51,1.74.02,3.71-.3,5.06,1.07.89.89,1.98,1.95,2.4,3.14-.22.85-1.12.82-.94,1.51,1.86,1.51,6.34,2.63,6.46,5.42.03.76-.23,1.46-.62,2.08-.64.4-1.01.6-1.78.47-1.66-.29-2.68-1.28-4.44-.89l-.02.24c1.85,1.19,5.85,3.27,6.41,5.42.1.42-.1.62-.27.99-.8.57-1.42.55-2.38.5l.29.32c1.02,1.19,1.56,1.94,1.46,3.57-.07.92-.34,1.48-1.01,2.15-1.05.4-1.89.47-2.93,0-1.02-.47-2.1-1.85-3.04-2.15-1.34-.44-2.78,1.22-4.24.4-2.53-1.41-.74-4.28-4.91-4.66-2.15-1.44-.97-6.04-4.73-5.37-.74.13-2.8.4-3.39.79-.07.05-.35.45-.4.47-.2.07-.42-.07-.64-.08-.57-.55-1.09-1.12-1.59-1.73-.64.14-1.09.37-1.68.67-.92,0-1.61-.57-2.35-1.04-.59.1-.59.07-.89.57-.92,1.54-.52,3.45-2.45,4.29-1.46.07-2.68-.72-3.74-1.66-1.53-1.36-2.31-3.17-3.64-4.66-1.04-.07-2.05-.1-3.09-.08-2.92.07-4.31-3.15-7.31-2.13l-.05.35c-.08.65-.22,1.29-.34,1.93.4.3.69.34.79.86.15.82-.1,1.54-.59,2.21-.65.87-1.81,1.73-2.93,1.81-1.66.12-3.27-1.44-4.33-2.57-.84-.89-1.38-1.83-1.85-2.93.42-1.39,1.26-3.29.72-4.71-1.43-.45-1.81-.67-2.68-1.88-.55-.77-1.07-1.09-2.01-1.24-2.7-.45-17.14-.65-19.8.07-3.64,1.01-6.98,2.92-10.72,3.67-2.48.5-5.15,0-7.66-.03-6.76-.12-13.75,3.35-19,7.34-5.62,4.28-10.77,10.53-11.65,17.76-1.12,9.04,1.81,21.13,2.48,30.4.64,8.72-.39,17.64,1.49,26.21,1.41,6.41,4.19,13.67,8.28,18.87,3.74,4.76,8.45,6.05,14.2,6.71,4.23.47,8.54.76,12.68,1.76,9.41,2.28,18.31,6.42,27.62,9.06,12.53,3.56,25.46,5.25,38.35,6.73,7.66.87,15.45,1.79,23.16,1.86-4.44,1.24-9.86.79-14.49.86-16.6.15-33.2-.24-49.79-1.12-6.98-.34-14.05-.45-21.01-1.04-5.5-.47-10.92-1.81-16.43-2.15,5.45,6.07,11.22,7.4,18.95,8.9-.8.28-1.49.47-2.35.57-7.83-.62-15.6-2.82-23.21-4.63-8.57-2.03-16.97-3.55-25.14-6.99-1.07,1.19-2.18,2.3-2.47,3.94,1.06,5.11,12.76,5.65,15.34,7.43-.84.35-2.93-.02-3.92-.05-14.19-.49-16.48-6.81-27.84-11.04-3.04,1.04-5.89,2.6-8.94,3.61-5.13,1.71-10.6,2.85-15.83,4.28,1.78-1.06,6.07-3.45,6.51-5.57.08-.45-.12-.57-.34-.92-.54-.17-.72-.18-1.27-.02-1.76.52-3.56,1.58-5.27,2.31-4.16,1.81-8.37,3.56-12.73,4.85-8.1,2.4-16.15,2.75-24.52,2.2l-.54-.8c6.99-.89,15.85-.87,21.5-5.68,1.07-.91,1.48-1.44,1.59-2.83-.59-.86-5.27.3-6.46.52-5.69,1.11-11.44,1.85-17.21,2.23-9.46.67-19.01.4-28.49.72-7.24.25-14.47.85-21.72,1.11-5.25.18-10.55.1-15.8.1-3.81,0-8.38.4-12.07-.55,1.64-.57,7.66-.42,9.91-.54,16.18-.94,32.75-1.73,48.3-6.71,9.88-3.17,19.34-7.76,29.38-10.33,9.02-2.32,22.17-.22,28.83-7.83,2.25-2.57,3.71-5.85,4.96-8.97,5.87-14.52,4.04-27.75,4.93-42.83.45-7.63,1.91-15.56,1.41-23.19-.47-6.94-4.41-13.63-9.62-18.09-5.52-4.71-13.48-8.33-20.83-8.38-2.9-.02-5.95.45-8.82-.15-1.44-.3-2.85-1.09-4.19-1.69-4.48-2.03-7.83-3.07-12.79-2.63-1.69.15-12.48,1.59-13.45,2.42-.45.38-1.39,3.19-2.2,4.12-.07.08-.13.15-.22.23,0,.42-.02.84-.02,1.24-.02.49.05,1.17-.07,1.64-.24.86-1.22,1.24-1.95,1.66-.74.45-.99.69-1.43,1.48-.24.4-.45.91-.82,1.21-.57.45-1.22.57-1.93.54-.75-.03-1.27-.32-1.74-.92-.94-1.21-.8-3.47-.6-4.88.08-.54.18-.8.02-1.32l-.5-.02c-1.32.69-2.33,1.78-3.42,2.78-1.86-1.36-2.77-1.46-5.01-1.53-1.48-.05-2.65-.37-4.06-.79.22,1.21.67,2.98.25,4.16-.34.92-1.32,1.79-2.2,2.16-.85.35-1.89.45-2.72-.02-.96-.52-1.19-1.41-1.44-2.4l-.08-.32-.45.07c-.34.42-.75,1.02-1.17,1.32-.54.4-.99.37-1.61.13-1.86-.72-1.36-3.14-1.94-4.66l-.44-.13c-2.45,1.06-2.23,4.58-4.34,5.67-1.53.79-4.61-.54-6.15-1.07l-.22.29-.03,1.19c-.02.82-.1,1.53-.4,2.3-.42,1.09-1.46,3.27-2.51,3.72-1.43-1.46-2.35-.08-3.99-.34-1.33-.2-.86-1.22-1.86-1.69-.17,1.19-.22,3.59-1.14,4.34-.45-.18-.76-.28-1.24-.28-.35.35-.7.67-1.09.97-.45.35-.52.22-1.06.15-1.26-1.12-1.46-1.21-3.1-1.32-.55-.7-.33-1.61-.42-2.5-.82-.33-2.08.27-2.95.5.38-.81,1.73-5.05,2.43-5.3.75-.28,1.47-.07,2.26-.54.27-1.04-.35-1.48-.14-2.48.81-.89,1.79-1.36,2.83-1.93-.02-.49.02-.33-.1-.87-.59-2.53-3.56-1.31-5.15-2.33v-.93c.62-1.1,1.39-1.81,2.31-2.65-.67-.6-1.21-.99-1.42-1.89,1.05-2.41,5.61-1.32,7.2-3.43-.08-.44-.18-.74-.39-1.15-.07-.13-.13-.27-.2-.4l.25-.65c2.59-2.18,4.59-1.36,7.62-1.24.53-1.84,1.62-1.96,1.72-2.51-.48-.35-.9-.67-1.31-1.12.37-.6.67-.65,1.27-.95l.07-.42c-2.43-.89-4.94.03-7.35-1.34-.1-.05-.2-.12-.3-.18.47.97.92,1.91,1.07,2.98.13.85.05,1.71-.55,2.38-1.37,1.54-4.97,1.52-6.93,1.74l-.03.07-.37.2.12.35c-.42.62-.52.79-1.19,1.12-.47-.2-.92-.35-1.41-.5-1.54.84-7.03-.05-8.97-.34.28.69.69,1.44.85,2.16.3,1.34-.87,5.57-1.11,7.18-1.09.05-2.12.15-3.21.32-.59-1.37-.59-3.1-1.46-4.3l-.52-.03c-1.46,1.05-1.67,2.53-2.8,3.75-.32.35-.6.54-1.07.5-1.41-.07-2.36-1.39-3.26-2.34-.67,1.29-1.31,3.01-2.73,3.55-.92-.45-1.39-1.49-1.99-2.31-1-.03-2.61,1.29-3.48,1.84.72-1.32,1.57-2.79,1.61-4.32-.42.1-.74.12-1.15.08-.23-.47-.27-.37-.17-.94l1.36-.77c.17-.8-.42-1.02-.45-1.84,1.34-1.71,2.93-1.14,4.74-1.77.99-.35,2.31-2.69,2.81-3.65-.6-.13-1,.32-1.76.13-.18-.28-.3-.47-.52-.74-.47-.55-.8-.67-1.49-.67-.92.64-1.47,1.86-2.04,2.8-1.76-.49-3.48-1.99-5.29-1.52-.13.03-.27.07-.4.12-1.07-.45-1.81-1.49-2.69-2.24l-.1.02c-1.59-.59-3,0-4.55.45l-.15.42c.15.57.37,1.22.42,1.79.05.74-.12.89-.55,1.42-2.65.43-2.43,2.46-3.83,2.75-.85-.55-1.24-1.24-1.76-2.09-.92.92-1.69,1.97-3.08,2.04-2.06-1.24-.52-4-1.69-5.56-.17.13-.52.4-.7.5-.7.35-2.36-.37-3.13-.59-1.22.64-2.33,1.46-3.75,1.12-.4-.42-.8-.77-1.27-1.12-.95-.03-1.94.77-2.75,1.24l-.27-.17c-1.72-1.09-4.13-3.87-5.51-4.45-1.47-.62-3.41-.65-4.99-1.04-.95-.24-1.37-.49-1.89-1.32.29-1.16,1.34-1.44,1.66-2.44.32-1.04.22-2.36.74-3.31.84-1.56,2.95-1.84,4.5-2.26-.02-.07,0-.13-.03-.18-.05-.17-.13-.32-.2-.47.37-.62.79-1.16.77-1.91-.42-.32-.28-.35-.75-.32-1.05.07-1.62.65-2.24,1.44-.05.07-.12.13-.17.22l-.6-.07c-.43-.4-.74-.6-1.29-.8-.97.18-1.79.44-2.76.15-.89-.74-.54-1.04-1.07-1.84-.77-1.15-2.43-1.62-2.81-3.13.65-1.44,2.09-1.77,3.48-2.31-1.59-.64-4.07-1.24-5.31-2.39.86-2.31-1.05-2.75-1.02-4.79.02-1.66,1.22-1.27.6-3.66.3-.7.6-.87,1.22-1.27.87-.2,1.29-.02,2.08.32.85.37,1.42.57,2.38.47.74-.08,1.04-.25,1.49-.82.37-.45.22-.39.69-.64.74-.38,2.16.18,2.86.45.87.33,1.17.59,1.52,1.42.2.47.27.72.7,1.02l.92-.54,2.33.87.22-.15c-.4-2.44.92-1.39,1.34-2.95-.15-.08-.33-.13-.47-.23-.5-.32-.64-.77-.74-1.34-.18-1.04.37-2.64.99-3.48.49-.65.99-.82,1.77-.92,1.56.62,2.19,2.29,2.95,3.68,2.59.28,4.52,1.05,6.86,2.19.8-4.07,1.62-1.71,3-3.73-.37-.87-1.54-1.24-2.29-1.76-.57-.4-.67-.67-.74-1.32,1.32-1.67.38-3.82,1.87-5.15l1.26.32c.62-.48.54-.8.8-1.52.13-.35.17-.64.55-.75,1.54-.52,4.44,1.09,5.84,1.79.28.7.55,1.82,1.14,2.28.65-.9,1.22-2.06,1.14-3.18-.77-.2-1.52-.42-2.28-.67-.27-.34-.5-.64-.65-1.06-.49-1.35-.67-3.7.03-5,.32-.59.25-.2.17-.94-.9-.62-2.59-.67-3.68-.85-.75.82-1.41,1.72-2.09,2.61l-1.59-1.82c-.85-.29-2.09.34-3.05.45-.37-.18-.6-.18-.77-.59-.6-1.39.05-2.95.47-4.3-.49-.69-2.23.4-3.08-.08.03-.67.08-.87-.22-1.49l-.69.15c-.57.62-.03,1.4-.38,2.31-.67.58-1.36.77-2.19,1.02-1.24.37-.29,3.03-1.59,4.04-2.29,1.74-5.34,1.86-7.08,4.42-.07.1-.13.2-.2.3l-.47.05c-.44-.52-.79-1.09-1.49-1.24-1.1.45-2.88,1.27-4.07,1.02-.63-.14-1.07-.35-1.37-.95-.74-1.47.13-3.82.57-5.29-.59-.47-1.76-.87-2.51-.92-1.61-.12-2.63,1.47-3.8,2.28-.65.45-.97.48-1.74.4-4.12-3.48-5.69,1.37-9.07-.17-.65-.3-.94-.85-1.1-1.51-.4-1.44.45-2.79,1.17-3.97-1.71-1.29-6.29-4.13-6.86-6.09.54-1.67,3.62-2.6,4.7-4.07.05-.07.1-.15.15-.22,1.62.08,2.94.17,4.5-.37l.12-.39c-.79-.79-1.72-1.31-2.53-2.06-.52-.48-.57-.87-.57-1.56.42-.7.92-1.17,1.67-1.51,1.44-.65,4.8,1.17,6.33,1.71.18-1.36.43-2.95,1.57-3.85,2.12-1.67,5.52,1.49,7.73,1.59l.5-.57c.37-.08.59-.13.9-.32-.52-.87-1.76-1.51-2.59-2.08.64-1.74,1.61-3.01,2.73-4.45-2.39.25-5.17,1.78-7.51,1.42l-.3-.42c.18-.87.9-1.42,1.51-2.04-1.54.02-3.42.25-4.79-.55-1.26-2.91-5.73-3.6-6.18-5.93-.39-2.06,4.62-3.72,5.52-5.54.45-.92-1.72-2.24-2.12-3.15,1.31-1.87,5.79-.47,7.75-1.87,1.41-1.02,2.83-1.07,4.49-1.21-1.69-.38-4.5-.62-5.59-2.08.03-.69.37-.85.8-1.34.1-.82-.97-1.21-1.46-1.93.15-1.3.69-.97,1.21-1.94.27-.52.42-1.42.64-2.01,2.43-.08,10.5,3.25,12.17,2.59-.15-.95-.75-1.66-1.31-2.43.84-2.34,1.77-3.28,3.72-4.74.92-.69,1.06-1.44,1.39-2.49,2.38.28,3.95.87,5.69,2.53.33,1.1.65,2.74,1.51,3.53.34.32.5.2.92.17,1.19-.85,1.92-2.19,2.73-3.4,1.67-.22,4.13.25,5.56-.75.48-.33.59-.64.72-1.19.1-.45.18-.72.44-1.11.37-.57.28-.23.27-.9-.95-.5-1.41.32-2.16.12-.6-.17-.9-.89-1.69-1.04-.23.59-.38,1.05-.8,1.52l-.77-.15c-.49-.44-.77-.75-1.41-.92-1.02.27-1.86.99-2.71,1.61l-1.66-2.58c-.99.84-2.04,1.83-3.41,1.74-1.97-1.51-.54-4.77-1.76-6.75-1.71.54-3.08,1.88-4.79,2.31-.72.18-1.05.08-1.67-.27-.29-.64-.47-1.21-1.12-1.54-1.04.05-1.98,1.07-2.95,1.51-.55.02-.77,0-1.24-.3-2.31-1.46-2.48-.47-4.97-.3-.7.05-1.11-.02-1.64-.47,0-.57.07-.72.35-1.19.84-1.37,2.23-2.14,3.75-2.53.38-.1.2.02.47-.33-.8-.27-2.01.03-2.86.12-1.47-.72-5.69-2.85-6.95-3.73-.59-.42-.72-.8-.87-1.47,1.27-2.64,5.62-3.25,7.43-5.49.45-.55.47-.9.42-1.59-1.17-1.39-3.93-2.53-5.52-3.46,1.27-.92,2.6-1.76,3.92-2.61-1.24-1.27-3.71-3.33-3.92-5.11-.05-.43.17-.54.44-.84.62-.13,1.16-.25,1.74-.49.27-.54.57-1.3,1.07-1.64,2.95-2.06,6.33.42,9.07,1.17.54.15.6.18,1.1-.07-.58-1.17-2.78-1.98-3.72-3.06-.49-.55-.49-.82-.42-1.52,1.12-1.27,2.51-1.34,4.1-1.49-1.39-1.36-3.37-2.86-4.27-4.59,0-.42-.1-.62.18-.97.9-1.14,3.13-1.29,4.48-1.56.08-.74.2-1.4.42-2.12,1.74-.6,3.77,2.8,5.17,2.59.65-.08.27-.62,1.27-.47,1.11,1.12.62,2.58,1.52,3.58.25.27.25.17.65.14.12-1.42.22-3.43,1.19-4.57.32-.37.47-.28.92-.33.85.42,1.39,1.44,1.91,2.23,2.34.52,3.47,1.1,5.07,2.98.92,1.07,1.35,1.66,1.2,3.05l.29.27c1.12-.2,1.64-.23,2.69.24l.45.2c.5-.17.85-.28,1.24-.67,3.11-3.16-2.02-4.9-1.56-7.5.18-1.04,1.26-1.67,2.04-2.21l.3-.2c.03-.96-1.61-2.21-1.91-3.37-.32-1.14.15-1.99.69-2.96.65.03,1.1.23,1.71.5.07.03.8.35.92.39.79.15.5-1.22,1.19-1.69,1.66.77,2.58,2.7,4.27,3.33.69.25,1,.25,1.67-.03.4-.72.7-1.27,1.39-1.76,2.69-.17,1.81,1.76,3.6,2.34.05-.5-.03-.6.32-.99.67.24.32.15,1.02.25l.74-.95c1.79.54,3.15,1.24,4.4,2.64l1.51-1.22c.2-.49.4-.9.42-1.42.02-.45-.12-.12.23-.6l-.07.5.02-.57c-.67-1.19-.99-2.59-1.67-3.72-.72-1.17-2.31.32-3.32.42-.82.08-1.42-.25-2.19-.35-.72-.08-1.09.1-1.66.49-.5.35-.87.55-1.47.72-1.15-.1-2.06-1-3.05-1.59-.84-.1-1.32.07-2.11.35-.4.15-.47.05-.87-.08-1.19-1.59-3.01-2.53-4.12-4.03-.37-.5-.33-.65-.28-1.24.67-.69,1.36-.84,2.24-1.1.17-.05.35-.08.52-.15.82-.35,1.61-1.37,1.94-2.16-2.01-.45-3.72-.54-5.22-2.01-1.76-.47-2.75.84-4.24,1.51-.62.27-.97.37-1.59.1l.2-1.15c-1.19-.23-2.96.6-4.17.87-1.88-1.34-3.18-1.61-5.46-1.35l-.35.03c-1-.37-1.46-1.62-2.28-2.33-.33-.28-.57-.49-.84-.82.42-.02.82-.05,1.24-.13-.54-.39-.99-.25-1.62-.27l-.25-.27c.15-.3.27-.57.48-.82,1.71-1.98,3.65-3.05,6.21-3.21-3.51-1.97-5.69-3.71-7.93-7.06.72-.65,4.82-1.76,4.92-1.94.22-.37,0-.65.4-1.14.84-.18,1.34.02,2.11.3.43.15.47.05.89-.08,3.53-4.05,4.44.07,7.65-1.46.17-.74-2.49-2.64-2.68-3.87.4-.79.77-.92,1.51-1.39-.13-.8-.52-1.36-.9-2.06-.55-1.04-.85-1.57-.49-2.74.57-.62,1.36-.84,2.14-1.05,1.14-.32,1.52-.87,2.24-1.76l.29-.35c2.31,1.31,3.88,3.11,5.47,5.19-.2-1.26-.38-2.51-.55-3.78l.25-.32c.47.23.89.43,1.39.59.28-1.46.23-3.15,1.61-4.08.59-.4,1.21-.39,1.86-.18,3.57,1.07,2.28,5.59,3.46,7.93.9.22.65-.4,1.52-.59.79.35,1.36.65,2.24.59,1.04-.74,1.37-3.06,1.79-4.27.45-1.31,1.59-3.3,3-3.78,1.62-.57,2.95,2.79,4.14,3.45.69.37,1.89-.49,2.61-.59.84-.12,2.18.52,2.96.8,1.49-.92,2.23-3.75,2.86-5.36-1.47.03-3.21.13-4.6-.47-.15-.32-.25-.6-.35-.94-.03-.12-.07-.23-.1-.35-.57-.08-.38-.13-.87,0-.42.12-.84.27-1.27.37-.65.15-.97.23-1.56-.13-.02-.43-.03-.85-.08-1.29-.7.12-.33.12-1.06.02-.84-.7-2.11-1.61-2.54-2.61-.32-.74-.23-.92-.02-1.64,1.05-1.14,2.91-1.52,4.37-1.91-1.59-.8-3.73-1.74-5.01-3.01-.44-.44-.42-.57-.44-1.16.42-.33.6-.47.84-.95-.92-.67-2.26-1.34-2.71-2.39l.22-.49c2.48-1.56,6.23-1.62,9.07-2.04.72.17,1.05.75,1.49,1.31l.24.29.33.02c.49-1.73.15-4.45.59-6.53,1.42.8,3.01,1.67,4.22,2.79,1.37,1.29,2.55,3.48,4.15,4.37.75-.05.87-.07,1.49-.48.08-1.09-.69-2.04-1.26-2.96-.05-1.2-.3-3.2.03-4.32.18-.64.89-1.44,1.17-2.14l-.2-.23-1.94.7c-1.07-.17-2.29-.35-3.1-1.14-1.36-1.31-2.88-.4-4.42-1.49-1.34-.94-1.49-2.86-2.88-3.68-.15-.08-.32-.17-.47-.25.4-.8,6.04-2.61,7.5-3.68l.32-.24c-.95-2.14-2.71-3.8-3.9-5.82,1.57-2.44,2.09-5.67,3.33-8.34,1.39.75,2.61,1.77,3.99,2.54.84.47,1.37.4,2.26.15.87-.7,1.19-1.72,1.61-2.73.74.4,1.61.89,2.21,1.46,1.07,1.01,1.72,2.66,3.26,3.05.74-.17,1.09-.27,1.84-.04,1.02.92,1.44,2.31,1.96,3.55-.35.82-.65,1.22-.5,2.11l.47.22c.77-.3,1.12-.65,1.62-1.32.08-.1.15-.22.22-.32,1-1.41.18-3.38.25-5,.03-1.01.55-2.13.9-3.06,2.86,1.44,4.54,2.56,6.48,5.14.25-.87.45-1.84.82-2.66.33-.74.82-1.07,1.54-1.39,3.01-.2,3.82,3.48,5.99,4.7.45.25.75.47,1.14.82.03.45.03.87,0,1.32-.02.13-.02.29-.03.42.44.28.95.35,1.46.18,1.96-.65,1.31-3.55,2.19-5.15,1.14-2.06,3.3-2.38,5.39-2.93-.64-.25-1.37-.57-2.04-.69-1.17-.2-2.53.28-3.5-.49l.22-.87-.62-.18c-.49.15-1.02.37-1.54.3-.32-.04-.4-.32-.59-.55l.44-.8c-.97-1.37-2.48-2.09-3.45-3.38-.84-1.1-.42-2.98-.27-4.25l3.13.32c.87-.4.02-.6.4-1.51.67-.42,1.31-.75,1.66-1.51.07-.15.14-.32.2-.49,1.21-.38,2.44.29,3.73-.02l.22-.37c-1.06-.79-2.19-1.57-3.1-2.54-.55-.6-.94-1.19-.87-2.04.07-.85.13-1.73.79-2.33,1.04-.23,2.28.32,3.28.62-1-.92-2.43-1.74-3.21-2.83.23-.89.48-1.83.57-2.73.13-1.52-.5-3.83.25-5.19.37-.69.57-.65,1.27-.8,2.68.65,5.19,3.48,7.01,5.42l-.18-.4-.08.2.25.24c1.34-.74,1.21-2.51,2.81-3.15,2.12.45,2.26,2.71,3.95,3.57.7.35,1.41.62,2.18.39.1-.15.24-.32.28-.52.25-.99-.38-1.57-.89-2.38,1.05-1.52,2.04-3.06,3.03-4.64.05.02.1.04.13.07,5.06,2.08,2.14,4.65,4,6.8.2.24.18.17.5.15.77-1.24,1.47-2.51,2.23-3.73.7-1.14.85-1.94,1-3.26l3.13-.44c-.34-1.47-.77-3.11-.37-4.6.6-2.23,3.45-.25,4.97-1.1,1.24-1.76-.67-2.44-.59-4.22,0-.12.02-.22.03-.33.2-2.66.9-4.92,1.89-7.4.75.54,1.51,1.06,2.29,1.52,1.54.92,4.69,2.74,6.48,2.06,1-.37,1.27-.9,1.77-1.79.17-.3.32-.6.5-.89.42-.64.67-.79,1.41-.97,2.74.82,2.36,4.75,4.4,6.14.47.32.67.43,1.24.37,2.02-.22,4.23-3.58,5.54-5.1,1.09,1,2.24,1.76,3.5,2.54-.54,2.95.13,2.11,1.01,4.39.3.77-.03,1.46-.3,2.18-.03.1-.08.2-.12.3l.39.37c.43.05.92.07,1.34.18.82.2.85.3,1.27.99.45,4.8-3.83,5.16-5.09,7.82.42.35.85.74,1.32,1.04.6.4,1.11.38,1.79.25,1.72-1.2,2.51-5.14,3.35-7.1.9.25,1.81.57,2.71.85.65-.67,1.39-1.26,2.09-1.84.74.55,1.76,1.42,2.65,1.66.57.15,1,.08,1.44-.34.49-.47.95-1.26.89-1.91-3.53-2.63-1.11-3.25-2.58-5.88-.64-1.12-1.93-1.42-2.26-2.81.12-.89.28-1.57.85-2.29,1.02-1.29,2.33-1.17,3.82-1.37,3.9-.52,1.12-5.42,3.08-7.85,2.21-.89,3.78,1.39,5.88,1.62.55.07.65-1.77,1.29-2.28.62.1,1.19.23,1.81.07,1.39-1.82,2.07-4.32,3.16-6.36,2.01,1.96,2.74,2.34,5.56,2.46,1.39-.07,2.16.49,3.15,1.11M150.39,233.05c1.04,1.39,1.93,2.42,3.44,3.34.45-.91.65-1.58,1.51-2.15,1.66-.15,3.35.76,5.15.76,1.46,2.57,3.65,4.04,5.9,5.92l.42.05c-.07-.39-.17-.67-.3-1.02,2.8-1.93,1.09-2.41,2.51-4.17.67-.82,1.64-.57,2.41-1.04.75-.45,1.32-1.59,2.1-2.01.24-.13.86-.03,1.12,0,1.61.27,1.88.57,3.34-.42,1.68.55,3.03,3.64,4.22,5,1.06.22,2.53.37,3.19,1.36.44.67.47,1.59.75,2.33.72,1.84,3.19,2.48,4.85,3.19v-.07l.89,1.29c3.39-.87,6.67-1.93,9.81-3.47,1.73,1.52,5.85,4.64,6.32,6.93-.07.1-.14.2-.2.32-.2.34-.32.59-.42.96.37.87.86,1.81.84,2.77-.1.12-.22.24-.32.35-.44.5-.3.29-.5.91.94.62,2.23.6,3.32.89,2.63.69,5.68,2.68,6.71,5.28-.13.67-.47.92-.94,1.38.05,1.61-.07,5.13,1.09,6.25.92.89,1.78.91,2.99.92l.28-.18c1.21-.08,2.03.02,2.98.84,2.31,2.01.76,5.67,2.25,7.04-.52.7-1.73,1.06-2.55,1.43,2.4,1.86,5,3.45,7.36,5.35,2.52,2,4.73,4.33,6.91,6.67.08-6.66.94-15.39-2.53-21.38-1.63-2.8-3.99-5.13-6.22-7.45l-9.93-10.41c-12.78-13.13-25.84-22.5-44.92-22.77h-.84c-3.32.44-6.47,1.9-9.74,2.63-4.36,1.02-9.09.99-13.25,2.42M269.76,287.48c3.25-2.04,12.73-7.19,14.49-10.02-.45-.3-.91-.55-1.38-.82-.12-.82.7-1.22.23-1.81-.84-.24-1.39-.17-1.81-1.01-.64-1.27-.79-2.88-.25-4.21,1.17-2.95,4.06-3.8,6.14-5.85.8-.79,1.38-2.28,2.33-2.77.94-.49,2.4.35,3.24.77l.42.22c.84-.85,1.64-1.76,2.55-2.55-.8-.76-1.41-1.31-1.79-2.37-.52-2.6-.37-3.59,1.12-5.87.86-1.31,2.23-2.82,3.84-3.12.34-.07.69-.12,1.02-.15,1.32-1.24,1.83-4.17,4.07-4.04.97.07,1.93,1.41,2.8,1.01l.05-.92c1.34-.57,2.65-.59,3.99-.02,1.29.55,2.3,1.66,3.39,2.52,1.12-.52,2.25-1.06,3.37-1.56-.2-2.25-.8-5.97.75-7.83,2.03-2.4,6.76-1.42,9.57-2.57.57-.23,1.14-.45,1.71-.7.55.94,1.04,1.88,1.89,2.6.65-.1.42.05.74-.3,1.94-2.1,3.67-1.01,6.15-3.14,1.27,1.98,2.01,3.79,2.63,6.05,1.64-.47,3.14-.79,4.86-.86l2.36-2.4c1.06.12,2,.22,3.04.1,2.1-.2,4.31.47,6.19,1.39.37.49.72.99,1.06,1.49l.4-.03c1.34-2.15-.84-4.76,1.56-6.66,1.54-1.21,3.76-1.63,5.43-2.73-3.37.97-6.76,2.08-10.26,2.46-10.92,1.19-21.18-3.64-32.16-2.82-10.7.96-19.3,3.52-26.41,12.04-5.42,6.47-9.46,13.93-14.74,20.49-2.95,3.67-7.91,6.84-9.86,11.13-2.1,4.65-1.86,9.98-2.75,14.84M275.96,366.3c7.6-3.33,15.07-6.47,23.56-5.99,3.22.18,6.45,1.01,9.67.4,3.03-.55,5.83-2.2,8.48-3.71,7.01-3.97,14.22-8.6,17.22-16.47.08-.2.15-.42.23-.62-.23-.37-.08-.29-.3-.37-11.08.52-46.58,8.72-53.69,16.45-2.6,2.83-4.41,6.61-5.68,10.21l.33.15.17-.07ZM271.92,348.95c3.02-2.3,6.05-4.81,9.44-6.59,3.27-1.56,6.59-2.8,10.09-3.74,4.02-1.09,9.1-1.43,12.66-3.59,2.33-1.43,4.04-3.69,5.52-5.95,2.62-4.01,4.53-8.33,6.81-12.52-4.98-1.49-10.06-3.29-15.19-4.07-13.13,8.62-25.23,20.89-29.32,36.47M187.47,316.29c1.88,2.63,3.81,5.27,5.55,8,2.2,3.44,4.31,7.83,7.23,10.68,3.44,3.35,12.81,4.04,17.45,5.52,2.9.92,5.63,2.26,8.06,4.11,2.03,1.58,3.97,3.2,5.92,4.86-4.46-13.51-10.2-23.44-21.9-32.01-1.86-1.38-3.82-2.99-5.88-4.06-1.64-.85-3.13-.99-4.96-.8-3.96.77-7.8,2.01-11.47,3.7M227.2,365.68c.34-.5.29-.25.17-.89-.65-3.52-4.16-9.32-7.19-11.15-4.91-2.97-10.88-3.49-16.25-5.2-3.59-1.14-6.93-2.97-10.4-4.38-6.19-2.5-13.98-4.54-20.69-5,1.12,7.58,3.27,10.66,9.37,15.19,5.45,4.06,10.81,7.07,17.79,6.42,3-.29,6.04-.72,9.05-.44,6.3.55,12.32,3.07,18.14,5.43M331.28,317.09c-2.63,5.06-5.77,9.61-9.37,14.02l4.69-.62c7.56-.99,15.29-1.54,21.98-5.55,4.24-2.53,8.2-5.45,12.81-7.33,3.65-1.48,9.07-1.78,12.16-4.14.5-1.31.57-3.92-.08-5.16-.03-.07-.08-.12-.12-.19-.62.05-.79.19-1.31.5-.52-.25-.91-.55-1.36-.92l-.67-.03c-4.59,1.36-9.44,2.6-14.25,2.75-4.28.13-8.25-1.31-12.51.1-4.23,1.39-8.07,4.44-11.97,6.57M257.48,288.82c1.76-7.01-.12-15.91,3.15-22.2,4.71-9.09,20.92-17.07,23.24-27.65.89-4.04.1-8.32.15-12.41.02-1.88,1.27-7.16.49-8.52-11.47,12.42-22.72,28.02-26.42,44.82-1.51,6.84-1.71,13.87-1.51,20.86.05,1.59.23,3.65.9,5.1M162.74,328.74c7.85.62,15.51,1.64,23.15,3.54l.62-.05c0-1.96-8.82-10.51-10.41-12.11-10.55-10.56-17.46-10.56-31.74-11.15-2.58-.1-5.25-.08-7.81-.42-.71.34-.64.35-.92,1.09.2,1.79,1.49,3.17,2.87,4.24,5.35,4.18,12.81,4.85,18.28,8.74,2.35,1.63,4.01,4.11,5.97,6.12M288.3,286.19c-4.24,2.16-18.53,11.6-19.95,15.86-1.98,5.92-1.06,13.41-1.42,19.62l.33.25c4.29-3.08,31.47-31.91,32.46-35.75l-.23-.15c-3.3.52-7.11,1.85-10.34.5-.17-.07-.34-.13-.5-.2-.1-.03-.22-.08-.34-.13M236.07,321.92l.27-3.22c.67-6.37,2.08-13.87-2.28-19.25-2.52-3.12-11.65-10.65-15.46-12.05-.5.25-.84.54-1.26.92-.62.03-1.04-.08-1.61-.27-.57-.18-1.04-.39-1.63-.1-.81.4-1.58,1.38-2.53,1.21-1.27-.24-3.22-1.44-3.94-2.51-.22-.32-.37-.74-.52-1.09-.39-.13-.69-.22-1.09-.28.22.96.62,1.68,1.19,2.46,2.95,4.14,6.51,7.9,9.72,11.84,4.11,5.06,8.03,10.4,12.31,15.29,2.13,2.45,4.48,4.79,6.82,7.06M299.1,204.6c-3.34,3.3-6.76,6.57-9.84,10.11-1.26,6.52-1.09,13.8-.5,20.37.57-.39,1.23-.76,1.74-1.21,7.19-5.75,20.32-23.84,25.03-32.14-1.74-1.27-3.65-2.52-5.2-4.06-3.4,1.98-1.34,5.1-5.33,5.3-1.32,1.34-2.18,3.09-4.22,3.14-.81-.23-1.17-.87-1.68-1.51M245.26,251.65c.59-7.71,3.27-30.48.6-36.7-1.71-3.99-5.16-7.08-7.54-10.65-2.38-3.57-4.24-7.53-7.04-10.81-.33-.39-.62-.74-1.04-1.04,1.14,6.32,1.96,12.67,3.39,18.95,1.94,8.64,4.98,17.05,7.18,25.64.65,2.53,2.97,14.6,4.18,16.1.18-.5.27-.9.29-1.48M257.59,241.51c7.51-12.81,14.99-26.53,17.55-41.31.27-1.58.96-4.06.65-5.6-.07-.37-.12-.39-.27-.67-3.2,3.07-15.73,21.78-17.34,25.75-.85,2.1-.97,4.26-1.02,6.51-.07,3.81-.47,11.92.42,15.33M201.03,221.12c2.77,3.74,6.37,6.76,9.74,9.92,1.29,1.17,2.58,2.31,3.96,3.39.99-7.08,3.07-19.23-1.46-25.13-.97-1.26-3.03-3.65-4.38-4.38-1.38.67-3.14,1.79-4.65,2.08-.75.15-1.24-.44-1.91-.15-.79.35-1.19.94-1.48,1.71-1.26,3.34-.22,9,.17,12.56M444.38,296.02c.05-1.46.42-3.29-.67-4.43-1.14-1.19-3.64-1.93-5.13-2.82.77-1.63,1.81-3.39,2.04-5.16l-.25-.37-.23-.02c-1.54.75-2.1.33-3.12.85l.1.34c.2.74.42,1.27.17,2.03-.72.35-1.43.72-2.15,1.06-.12.55-.1.59.22,1.04,1.22,1.73,4.19,1.61,5.28,2.8.71.77.67,2.01,1.52,2.88.69.6,1.41,1.27,2.21,1.79M139.82,178.38l-.08-.85.79-.94c-.25-1.34-2.13-2.3-3.22-3.07-.74.5-1.31.65-1.48,1.61-.13.77-.02,1.66.32,2.36,1.22.84,2.48.14,3.67.89M246.4,173.47c-1.93,2.23-3.24,4.96-4.46,7.63,1.68,2.62,3.34,5.25,5.11,7.8l1.41,2.13c.03-2.93.92-15.51-.91-17.09-.35-.29-.72-.37-1.16-.47M145.4,140.96c1.59,1.46,3.19,2.92,4.75,4.41-.67-1.09-1.49-2.25-2.04-3.39-1.49-3.49-5.13-8.03-7.35-11.32-.97.67-1.88,1.39-2.8,2.15l.22.4c1.73,3.32,4.36,5.42,7.23,7.74M205.39,90.66c1.14-.07,2.42-.03,3.49-.47l-.97-.35c-.24-.52-.25-.77-.29-1.34-.37-.22-.44-.32-.87-.3-.94.03-1.41.05-2.18-.49-.27-.59-.54-1.17-.89-1.71-1.84.97-5.5,2.45-6.17,4.56-.17.54-.15.87-.07,1.41l.29.32c.17.18.85.86.92,1.09.29.97-.49,2.53,1.04,2.8l.24-.39c.24-.39.57-1.17,1.06-1.27.64-.13,1.24.12,1.83.32.67.25.71.17,1.39-.08l.2-.54c-.4-.47-.72-.85-1.02-1.39.3-.54.59-.7,1.07-1.07.4-.27.65-.69.94-1.09M103.01,288.76c1.91.32,3.5.32,4.9,1.81l.35.2c.71-.23,1.09-.3,1.54-.94.18-1.07.29-2.04-.37-3-1.26-1.79-3.47-1.93-5.43-2.38-.15-.03-.32-.05-.49-.07l-.5,1.11c-.07.02-.15.02-.22.03-.55.13-1.07.44-1.58.7l-.15.42c.45.92,1.17,1.46,1.94,2.11M239.06,173.65c.02.69.23,1.83-.29,2.38-.12.12-.27.18-.4.28l-.08.45c.47.67.87,1.17,1.53,1.68.3-.22.47-.35.7-.67.77-1.09,1.61-2.13,2.03-3.4l-.17-.27c-.4.34-.75.69-1.11,1.07-.72-.5-1.46-1.16-2.21-1.53M324.52,358.96c3.76.17,7.51.64,11.27.99,1.06.08,2.05.23,3.05-.17.44-.52.5-.45.54-1.17-.64-.9-1.95-1.12-2.97-1.31-2.47-.45-4.98-.52-7.48-.44-1.73.49-2.93,1.09-4.41,2.1M307.78,221.05c5.4-5.37,12.26-10.71,14.91-18.06-1.24-1.26-1.89-1.96-2.21-3.72-1.29,2.88-2.78,5.67-4.46,8.33-1.61,2.62-8.57,12.01-8.97,14.02.27-.19.52-.35.74-.57M66.04,286.54c-.75,1.74-1.22,3.49-1.69,5.33,1.42.02,2.83.07,4.24-.12.32.08.57.17.9.14-.03-.59-.15-.84-.4-1.36.57-.64,1.22-.55,1.73-1.29-.02-.15-.05-.28-.05-.44-.08-1.22.87-2.06,1.59-2.93-.69-.44-1.88-.39-2.7-.45l-3.62,1.12ZM259.21,173.92c-1.61,1.27-1.71,2.7-1.95,4.61-.49,4.28-.69,8.85-.54,13.16l1.73-2.46c1.54-2.15,3.04-4.33,4.64-6.42-.62-2.21-1.59-7.54-3.59-8.75-.1-.07-.2-.08-.3-.13M362.88,138.53l3.17-1.49c1.01-.52,2.05-1.02,3-1.63.3-1.07.85-2.36.64-3.47-.37-.34-.64-.44-1.09-.6-1.17-.42-1.91-.96-2.58-1.99-.27-.42-.52-.87-.87-1.21-.71,2.26-.17,4.51-.74,6.77-.29,1.22-.99,2.48-1.52,3.62M248.36,84.17c-1.47-2.48-3.5-4.53-5.92-6.14l-.45-.02c.08.65.34,1.27-.03,1.83-1.59-.69-2.6-2.18-4.12-3.03.79,3.09,1.78,6.09,3.05,9,2.45.5,5,.92,7.4,1.63.05-1.09.12-2.18.08-3.27M182.87,79.37l-1.09,1.27c.57.39,1.31.64,1.83,1.06,1.04.82,1.49,2.2,2.48,3.08l.47-.15c.2-.77-.1-1.29-.52-1.96-.8-1.34-1.96-2.35-3.17-3.3M400.49,305.39c1.41.57,4.66,2.3,6.12,1.89,1.51.18,3.99.64,5.42.07-.1-.55-.17-.62-.62-.94-1.39-.99-4.26-1.36-5-2.93.02-.84.15-1.98-.05-2.78-2.6,1.34-2.57,2.97-5.87,4.69M390.11,179.32c1.04-.28,1.93-.55,2.85-1.11l.02-.27c-.45-.02-.91-.04-1.36,0-1.14.28-2.3.49-3.32,1.12l.1.29.2.07-.29-.27.25.28,1.54-.12ZM286.46,177.19c-1.91-.62-3.84-1.14-5.79-1.64-1.53,2.57-1.34,6.24-1.53,9.14.99-.95,1.96-1.98,3.02-2.85,1.29-1.66,2.8-3.14,4.29-4.64M298.33,96.54l.67-.6-.19-.4c-.77-.3-1.54-.55-2.33-.82l-.64,1.06.13.45c.79.22,1.54.2,2.35.32M158.09,304.6c2.73,1.48,5.92,1.79,8.65,3.15-.25-2.25-.57-4.51-.6-6.77-3.29-.84-6.69-1.88-10.09-2.08.49,2.03,1.04,3.89,2.05,5.7M130.66,310.38c-.67.47-1.22.92-2.06,1.04-.52-.62-.81-1.11-1.71-1.17-.25-.02-.64.1-.89.17l-.95-.54c-.54.86-.66,1.01-.66,2.05.59,1.21,1.33,1.78,2.58,2.25,2.2.82,5.43.79,7.8.67l.07-.15c-1.37-1.44-2.8-2.85-4.17-4.31M385.13,185.84c.08,0,.18,0,.27.02,1.59.1,2.58.54,3.89,1.44,1.01-.6,1.61-3.27,1.98-4.44-.12.02-.22.04-.34.05-1.26.05-3.14-1.19-4.48-1.49-2.73-.6-5.6-.79-8.4-.72-.91.44-2.48,1.16-2.93,2.1-.1.2-.1.25.02.47.54.97,2.83,2.01,3.76,2.77,1.81,1.48,2.2,4.12,4.71,4.89.64-.1.96-.15,1.37-.72.14-.18.23-.52.32-.74-.02-.03-.05-.07-.07-.1-.49-1.29-.44-2.25-.1-3.52M91.56,225.61c3.89.15,7.76-.17,11.64-.54l.15-.22c.74-1.01,1.78-1.69,2.3-2.82l-.34-.27c-2.48.45-5.6,2.72-8.05,1.34-.59-.69-.72-1.12-.85-2.01-1.76,1.31-3.39,2.83-4.85,4.51M149.17,125.18c-.94.52-1.71.96-1.89,2.13-.22,1.34.7,3.13,1.26,4.32.47,1.04.3,2.18.24,3.29l1.89,2.3.22-.05.02-.1c.02-.12.03-.24.03-.35.25-1.88,1.88-5.79,1.66-7.31l-1.46-.13c-.37-.52-.25-.55-.15-1.16.17-.92.5-1.34.18-2.25-.69-.5-1.16-.59-2-.69M109.52,326.83c.86.03,1.86.18,2.67-.07,0-.45.12-.57-.24-.9-.49-.49-1.06-.79-1.64-1.11-.33-.82-.12-2.62-.67-3.15l-1.49-.08c-1.43.25-2.45.52-3.3,1.76-.34.49-.5,1.04-.42,1.63.12.79.69,1.41,1.39,1.76,1.14.59,2.5.39,3.71.17M115.2,312.83c-.67-.84-1.27-1.99-2-2.73-.65,1.09-2.11,4.12-3.45,4.29-.4.05-.92-.05-1.34-.1l-.18.4c1.19,1.47,4.43,1.51,6.27,1.73,1.24-.13,2.77-1.06,3.62-1.93l.22-.69c-.34-.54-.52-.7-1.17-.82-.64-.08-1.32-.1-1.96-.15M100.5,185.15c1.34-.4,1.74-.99,2.61-2.01.3-.35.19-.23.67-.5l.02.27c.02.22.03.45.07.67.69-.14.35.03.82-.52,1.29-1.56,4.31-1.49,6.15-2.03-1.27-1.24-2.57-2.57-4.19-3.35.1.99.39,2.26-.32,3.09-1.22,1.46-4.83,1.69-6.62,1.99l-.28-.28c-.29-.27-.59-.5-.91-.76-.59.29-.86.69-1.07,1.31-.22.6-.12,1.34.25,1.89.2.29.5.54.77.77.77.05,1.31-.23,2.03-.54M94.41,306.19c.49,1.36.94,2.7,1.54,4.02.37-.85.7-1.74,1.19-2.53.85-.25,1.66-.52,2.46-.87,1.88-.79,5.01.65,5.55.08-.69-1.04-1.93-3.35-3.22-3.54-.81-.1-1.71.08-2.47-.22.35-.94,1.44-1.61,1.49-2.58-.54-.38-.27-.28-.8-.37-.08.07-.17.15-.25.22-.67.55-3.29,1.56-3.45,1.83-.55.82-.22,1.31-1.19,1.88-.69-.12-1.19-.37-1.81-.69-.64.24-.62.22-.96.82.27.89,1.21,1.41,1.91,1.95M266.62,108.04c-.65,1.41-.4,2.45.12,3.86,1.14,3.07,2.75,5.8,3.69,8.97l1.09-2.92c.89-1.73,2.26-3.84,2.6-5.73l-.25-.55c-2.95-1.04-4.48-3.44-7.24-3.62M131,359.01c.02.17.05.33.07.49.07.55-.02.91-.23,1.43.4.74,1.31,1.02,2.06,1.26,2.58.79,5.4.77,8.03.3l.27-.52c-.55-.65-1.68-1.11-2.4-1.64-2.26-1.66-5.05-1.49-7.8-1.31M370.41,178.15c1.14-1.11,2.11-2.1,3.61-2.7.27-.57.45-.91.57-1.52-.54.35-1.02.69-1.66.87l-1.34-.45c-.99-.34-1.68-.84-2.48-1.48-.65.13-.17.02-.76.22-.79.27-1.71.5-2.48.05-.99-.59-1.36-1.11-2.57-1.26l-.97.81c.03.35-.05.52.25.77,2.45,2.13,5.17,1.31,7.83,4.69M304.4,86.13c-3.02.77-2.2,2.08-4.56,2.92-.17.07-.33.14-.49.2-.12.05-.24.08-.35.13.3,1.63.67,3,1.43,4.49,1.14.25,2.13.57,3.2.99.5.2.3.13.89.15.96-1.71.82-3.79,1.44-5.63,1.09-.69,2.13-1.27,3-2.25l-.22-.32c-.62-.07-1.17-.07-1.79-.02-.79.05-1.16-.07-1.86-.39-.13-.05-.27-.12-.4-.17-.12-.03-.2-.07-.29-.12M99.38,249.6l.39.04c.12-.1.22-.2.33-.29,1.11-.9,2.82-1.59,4.16-2.04-1.09-.54-2.62-1.06-3.34-2.04,0-.5.1-.79.29-1.24-.29-.18-.47-.32-.8-.42-2.3.96-4.36,2.18-6.47,3.47,2.05.55,3.69,1.38,5.45,2.53M171.89,352.87c.77.08,1.64.3,2.38-.02-.72-1.53-1.86-2.85-2.53-4.38-1.17-2.68-1.22-5.57-1.86-8.37-.67,1.81-1.86,4.14-1.93,6.05.23.49.47.74.84,1.11.59.59,1.43,1.7,1.49,2.55.02.4-.5,1.11-.7,1.46.7.69,1.46,1.11,2.31,1.59M337.14,287.77c-2.62,2.16-7.92,6.04-9.37,8.92l.17.24c.72-.08,1.16-.34,1.78-.67,2.3-1.12,8.28-5.3,9.44-7.26.08-.15.1-.32.17-.47-.74-.32-1.41-.57-2.18-.75M89.42,337.51c-1.19-.67-2.36-1.37-3.59-1.98-.05,1.07-.35,2.72.2,3.65.81.03,1.07-.3,1.66-.86.07-.07.14-.12.2-.18.55.07,1.09.13,1.63.22,1.31.2,2.2-.08,3.32-.72,1.28.44,3.47,1.37,4.76.85.22-.1.32-.2.49-.35-.28-.35-.55-.59-.92-.84-.12-1.07.37-1.41.33-2.32-.62-.42-1.09-.59-1.79-.79-.3.77-.47,1.32-1.19,1.79-2.25.32-3.22.02-5.1,1.51M400.89,247.29c1.78.54,3.27.97,5.01.03.99-.54,1.71-1.32,2.04-2.41.12-.38.12-.75.1-1.14-.5-.18-.52-.13-1.01-.07-2.41.27-7.14.6-9.1,1.98.47.7,2.15,1.24,2.95,1.61M353.79,142.21c1.98-2.45,5.93-5.48,5.46-8.97-.1-.7-.49-1.66-1.09-2.06-.08-.05-.17-.08-.25-.12-1.19,2.06-5.13,8.94-4.76,11.17.55.03.35.08.64-.02M165.24,360.99c2.33-.27,4.69-.65,7.03-.77,2.06-.22,3.79-.96,5.75-1.53l-9.57-2.31c.4.94.74,1.58.57,2.62l-.39.35c-1.07-.08-1.78-.65-2.53-1.37-.25,1.02-.55,2.01-.85,3.02M341.74,201.05c.05-.85.12-.94-.37-1.64-.85-.33-1.71-.47-2.58-.75.54.87,1.02,1.96,1.93,2.48l1.02-.08ZM351.38,327.49c1.74.18,3.81.6,5.3-.54.69-.52,1.01-1.19,1.39-1.94.22-.44.44-.87.65-1.29,1.54-.72,4.73-1.79,5.5-3.34-.14-.47-.02-.33-.2-.52-2.85,1.32-11.65,5.26-13.04,7.46l.4.17ZM319.29,80.56c-1.16.79-2.3,1.34-3.57,1.88.62,1.58,1.09,3.27,2.35,4.46l.5.1.89-.76c1.27-.97,2.58-1.84,3.94-2.7-1.71-.7-2.43-1.46-3.79-2.53-.13-.1-.23-.32-.32-.45M316.74,157.14c-1.91,3.08-2.52,2.68-5.72,3.79,1.11,1.66,3.15,3.79,5.1,4.31,3.09-.29,2.4-4.08,7.85-2.82,1.66.89,3,.39,4.75,0,.65.59,1.27,1.38,2.2,1.48,1.34-.57,1.94-.82,3.37-.3.12.03.22.08.33.13.62-.47.84-1.16,1.14-1.84l-.12-.37c-.86-.08-.91-.02-1.49-.64l-.25-1.24c-.81.05-2.2.33-2.83-.17-.37-.29-.7-.76-.99-1.11-1.12-.29-3.54,1.04-4.16.02-.79-1.29-.3-3.54-1.42-4.53-.37-.1-.79-.27-1.16-.27-1.66.64-2.31.84-3.1,2.58-.32.69-.33.92-1.01,1.32-.92-.02-1.64-.15-2.48-.35M342.89,298.31l7.91-2.03c1.84-.62,7.18-1.98,8.13-3.5.03-.07.07-.13.08-.2-.42.05-.84.1-1.26.15-1.17.12-1.91,1.12-2.92,1.07-.12-.32-.15-.57-.18-.91-.57-.27-1.06-.35-1.68-.43-3.22,2.16-6.87,3.59-10.09,5.85M234.92,187.4c.87-1.83,1.68-3.59,2.2-5.55-.87-1.66-1.66-3.44-2.97-4.81-.08-.08-.17-.18-.25-.27-1.12-1.14-3.03-1.96-4.56-2.35-1.38,3.29-.5,6.02.79,9.17.74,1.79,1.58,4.19,3.37,5.15.67-.12.85-.37,1.22-.94.05-.13.12-.27.2-.4M142.47,319.87c-1.73-1.06-3.35-2.37-5.01-3.56-2.78-.05-5.6.05-8.38.08l-.91-.08-.1.27c.44.34.84.67,1.31.94,3.1,2.46,9.09,1.43,13.09,2.35M380.97,177.61c4.28.1,9.05-1.42,12.39-4.21l-.07-.29-.33-.03c-1.22.27-2.41.52-3.65.64-2.06.2-6.96,1.78-8.35,3.22-.1.12-.17.25-.27.37l.28.3ZM67.9,267.36l-1.69-1.74c-1.61.22-3.2.5-4.76.87.97,1.29,3.49,1.29,4.28,2.58l-.67.55c.1.13.18.3.33.4l2.28,1.54c1.58-.55,2.65-.77,3.57-2.28.47-.76.82-1.22,1.73-1.44.84-.2,1.88-.07,2.53-.69-.24-.65-.54-.81-1.16-1.07-1.06-.47-2.36-.84-3.51-.96-.94.87-1.84,1.58-2.93,2.23M342.85,94.43c.55.35.8.47,1.46.45.95-.84,1.09-2.46,1.19-3.69.03-.39.02-.7-.07-1.09-.49-.03-.8,0-1.29.08-.8.15-1.52-.17-2.2-.62-.33-.23-.52-.44-.74-.77-.99.3-2.21.49-2.99,1.19.2.44.37.89.62,1.29l.6.05s.02-.08.02-.12c.08-.27.2-.52.29-.77.75.4,1.84,2.88,3.1,3.99M271.13,190.96c2.7-4.09,6.02-9.36,4.96-14.52-.13-.65-.3-.94-.85-1.29l-.18.02c-.59.07-1.21.08-1.78.19-2.65.45-4.83,5.06-6.12,7.16.89,2.13,1.79,4.24,2.8,6.34l1.17,2.11ZM91.48,292.14c-.52.42-1.69,1.11-1.74,1.78-.05.81-.08,2.77.27,3.42.85.35,1.32.22,2.18-.15.96-.42,1.89-.85,2.83-1.31.82-.47,2.03-.96,2.56-1.74-.52-.25-.81-.25-1.37-.3-1.31-.13-1.64-.45-2.55-1.34-.82.02-1.02.18-1.73.6-.33-.43-.35-.45-.45-.96M258.36,92.9c.25.3.5.55.79.82.24-.49.34-.91.45-1.41.47-2.08,3.15-2.14,3.81-4.36-.45-.44-.55-.45-1.14-.62-1.59.45-5.26,1.36-6.27,2.75-.1.15-.15.34-.24.5.6,1.01,1.24,1.84,1.74,2.92.54-.08.5-.22.86-.6M160.81,295.75c-.54-1.06-3.57-2.3-4.76-2.72-2.11-.74-4.41-1.19-6.57-1.74l-.5.59c-1.02-.64-1.83-1.19-3.05-1.36-.74.39-.99.35-1.26,1.17.37.82,1.26,1.11,2.03,1.41,4.31,1.71,9.52,2.16,14.12,2.65M201.35,294.44c-4.16-3.57-9.56-8.3-15.14-9.14,4.23,3.3,9.79,8.17,15.14,9.14M337.6,297.66c2.7-1.34,7.7-5.58,8.95-8.27l-.22-.44c-.25-.07-.47-.13-.74-.12-2.31,1.04-7.8,5.99-8.4,8.37-.05.17-.03.35-.07.52l.47-.07ZM89.18,256.8l3.32-2.03c1.76-1.16,3.62-2.28,5.22-3.66-1.73-.5-3.66-.96-5.18-1.93-.89,2.62-2.16,5.11-3.35,7.61M383.35,167.28c-.49.25-1.21.5-1.63.84-1.81,1.46.47,2.62-3.64,2.42l-.18.32c.03.08.07.17.1.27.64,1.81.3,2.83-.27,4.58l3.47-1.36c1.89-.64,5.9-1.51,7.02-3.17-.12-.52-.13-.65-.65-.94-1.11-.62-2.43-.44-3.45-1.31-.17-.5-.34-1.01-.52-1.51l-.25-.14ZM333.57,305.2c-.37,1.54-1.73,5.6-1.11,6.91.22-.03.43-.02.62-.12,4.14-1.83,16.65-7.63,17.96-11.97.1-.32.03-.25-.15-.54l-.57.03c-6.34,2.01-10.68,2.35-16.75,5.68M181.38,292.34c1.96,1.86,4.19,3.25,6.49,4.66-2.25-2.3-4.19-4.91-6.19-7.43-1.39-1.74-3.72-5.4-6.05-5.77-.42.35-.44.2-.45.67-.05,2.26,2.5,4.56,4.04,5.97.72.65,1.41,1.31,2.16,1.89M243.45,90.86c.55,1.09.94,2.67,1.83,3.47.62.07,1.16.03,1.78,0l.1-.37c.03-.08.05-.17.08-.25.32-.87.69-1.48,1.27-2.18-.74-1.19-4.38-2.05-5.72-2.35-.6-.14-1.21-.22-1.81-.32-.35-.05-.69-.14-1.04-.2.08.15.17.29.25.42.32.55.39.99.45,1.63.54.49.55.37,1.24.34.54-.02,1.04-.1,1.56-.18M409.56,228.76l.02.62c.65-.69,1.04-1.51,1.47-2.35-.92-2.08-1.54-3.64-3.79-4.53-.2-.08-.4-.15-.62-.23-.62.27-1.16.49-1.71.89-.42.3-.67.35-1.19.45.25.5.07.3.6.6,2.15,1.16,3.55,2.8,5.21,4.54M413.57,248.52c-.07.05-.13.1-.2.17-1.06.79-1.74.79-3.02.82.15.62.3.65.82.97,1.73,1.06,4.59,2.88,6.67,2.36l2.63-1.49-.02-.32c-.54.07-1.04.17-1.56.29-2.35-.99-2.57-2.73-5.33-2.8M263.87,175.09c.47,1.38.92,2.75,1.51,4.07.75-.12.99-.44,1.43-1.06.69-1.01,1.49-2.53,1.39-3.77l-.22-.15c-1.38.37-2.7.7-4.11.91M420.71,131.1c.44-.45,1.26-1.04,1.28-1.66-3.05-.25-4.06-.86-6.81-2.05-.59-.25-.84-.6-1.51-.72-.54.54-.76.7-.97,1.46.59,1.12,1.78,2.08,3.03,2.4.65.17,1.36.24,2.03.3l1.41,1.27c.82-.1.97-.45,1.54-1.01M123.87,171.39c-.62-.15-.86-.32-1.48-.1.59.89,1.98,1.71,2.93,2.18,1.31.71,4.23,2.68,5.58,2.35-.08-.37-.15-.55-.03-.94.17-.54.29-1.07.37-1.63.15-.97-.02-1.49-.59-2.28l-.5-.07c-.44.4-.79.75-1.31,1.02-1.61-1.59-1.49-.07-3.12-.1-.55.02-1.32-.3-1.86-.44M159.48,91.61c.62,1.22,1.24,2.43,1.76,3.69l.67.39.44-.18c.19-.79.27-2.46.96-2.92.6-.4,2.18-.74,2.51-1.39.07-.12.08-.27.12-.4-.38-.2-.82-.27-.94-.72-.12-.42-.1-.77-.1-1.21l-.27-.3c-.4.5-.7,1.24-1.41,1.22-.15,0-.86-.15-1.02-.18-1.24.22-1.86,1.19-2.72,2.01M328.95,308.22c-2.08,1.44-5.32,4.98-5.89,7.48-.05.25-.08.52-.05.77,2.16-.84,4.14-1.84,5.21-4.07.54-1.11.99-2.97.72-4.17M223.32,180.88l2.38,2.58c-.55-2.82-1.16-5.62-2.11-8.33-.5.67-.72,1.23-1.59,1.44-.92.24-1.9-.22-2.73.35,1.02,1.46,2.8,2.65,4.06,3.96M152.96,299.67c-3.64-.77-7.33-1.64-11.02-2.1-.65,2.23-2.4,2.97-4.29,4.02-.67.37-1.34.72-1.98,1.14,1.81.81,3.24,1.54,4.02,3.5.07.15.12.3.17.45,2.1,1.16,7.18.3,9.66.3h6.54c-1.48-2.36-2.53-4.61-3.1-7.33M186.41,163.69l.67.15.13.35c-.47.42-.94.82-1.39,1.24l.22.2c.54-.13,1.41-.55,1.88-.25.45.29.8.62,1.21.99.65-.2,1.01-.74,1.43-1.22l.25-.05c.62-.13,1.11-.27,1.66-.6-.07-.45-.18-.87-.34-1.31.22-.52.49-.92.82-1.38-.02-.75-.02-.87-.6-1.43-2.3-2.16-5.43-.77-7.33-4.27-.18-.34-.34-.55-.6-.84-2.08.2-2.41,1.09-4.39-.17-.35.91-.4,1.27-1.17,1.91-.89.15-1.71.18-2.61.15-1.41,1.33-2.13,2.23-4.18,2.33-.28.57-.28.3-.17.76.22.89.25,1.51.13,2.41.3.59.34.92.96,1.24.47-.42.74-.84,1.38-.94l.87,1.01.62.02c.86-1.24,1.44-2.65,2.31-3.87,3.42,1.71,3.14.02,5.01.3.45.08,2.57,2.75,3.24,3.27M355.34,129.94c.94-1.17,1.59-2.25,2.23-3.6-.74-1.09-1.71-2.26-2.11-3.52l-.35-.13c-1.29,1.69-1.74,3.24-1.48,5.37.1.82.22,1.86.87,2.35.29-.15.59-.25.84-.45M358.52,219.61c.25-.79,1.02-2.57.8-3.34-8.3.89-15.05,5.03-22.6,8.1,4.59,1.38,9.04,2.15,13.78,2.72,4.53.35,14.17-1.01,17.66-4.12.27-.23.42-.5.57-.82l-.12-.52c-.67-.08-1.22.15-1.84.35-.55-.2-.82-.43-1.24-.85-1.36.57-1.88,2.31-3.52,1.66-1.16-.47-2.65-2.23-3.49-3.17M409.91,296.64c1.48-.52,2.98-1.02,4.44-1.61l-2.93.29c-.97.1-1.42.08-2.3-.37-1.36,1.46-1.47,2.98-1.78,4.88.7-.84,1.32-1.68,1.94-2.57.27-.39.17-.25.62-.62M158.66,93.29c-.23-.84-.23-1.29-.91-1.86-.62-.05-1.26-.07-1.86-.13-.64-.07-1.14-.52-1.64-.89-.3.84-.5,1.07-.27,1.95,1.19,1.17,3.12.9,4.68.94M180.16,117.59c-.69,1.09-1.74,2.38-2.08,3.6.8-.05,1.39-.64,2.01-1.09l1.39.28c.42-.35.55-.55.74-1.07-.32-.64-.45-1.22-1.17-1.51-.24-.08-.67-.17-.89-.22M170.38,212.6c-.77-2.68-2.7-11.45-4.83-12.68l-1.36-.12c-.22,1.06-.32,2.32-1.34,2.92-2.48,1.43-4.73-2.16-7.65.92-1.07.2-2.28.55-3.35.52l-.7-.69-.32.07-.32,1.09-.4.07-.22-.35c-.2-.3-.39-.57-.6-.84l-.87.23c.74,1.98,2.7,2.97,4.53,3.79,1.11.5,2.3.8,3.46,1.14,4.66,1.17,9.46,2.25,13.98,3.92M138.9,216.05c.89-.22,2.08-.32,2.77-.94-1.01-.52-2.13-.47-3.08-1.06-.84.5-1.59.86-2.04,1.78l.15.44c.82.17,1.41,0,2.21-.22M197.39,218.7c.25-4.61,1.76-12.99-1.58-16.68-.28-.32-.59-.64-.92-.89-1.16,1.66-2.28,3.3-4.07,4.29-.59,0-.67,0-1.19-.3-.42,1.83,2.46,6.47,3.47,8.08.47.76,1.04,1.69,1.66,2.31l2.63,3.19ZM174.04,124.86c.72-.54,1.31-.96,1.81-1.71.03-.37.15-.62-.1-.92-.54-.64-1.93-1.07-2.73-1.07-.15,0-.32.02-.47.02-.49.02-.82-.05-1.29-.18l.39.89c-.54.84-1.48,1.05-2.28,1.54,1.54.47,3.1,1.06,4.68,1.44M96.03,344.92c.77.18.91.27,1.63-.02.2-.72.12-.87-.12-1.59l-1.04-.97c-.81.72-1.61,1.37-2.5,1.96v.32c.74.22,1.27.28,2.03.3M256.8,84.07c-1.05,1.01-2.31,2.2-2.4,3.74.25.32.08.18.59.3,3.5-2.36,6.69-3.17,10.86-3.59.71-2.03,1.31-3.99,1.56-6.14.12-1.02.24-1.98-.42-2.82-1.24.04-2.72,1.8-4.01,2.26-.13.05-.28.1-.42.15-.52.69-.47,1.12-.65,1.91-.44,1.84-2.56,2.68-4.06,3.57l-.87-.3c.99-.99,1.93-1.86,2.51-3.15l-.03-.59c-.75-.07-1.27.25-1.84.75-1.01.89-1.69,2.15-2.03,3.44.59.07.7.07,1.21.45M336.36,90.62c-1.29,0-2.31.15-3.32-.84-1.49-1.46-1.83-4.53-2.46-5.13-.12-.12-.34-.08-.5-.12-2.65,1.21-5.48,2.43-6.61,5.35-.15.4-.28.81-.42,1.23,2-.49,4.43-1.68,6.37-.81.39.44.74.86,1.06,1.34.55.84,1.07,1.69,1.66,2.5,1.44-1.12,2.95-2.2,4.23-3.52M284.09,184.23c1.68-1.28,3.81-2.72,5.03-4.44l-.1-.45-.34-.12c-1.78,1.27-3.69,2.88-4.9,4.71l.12.39.18-.08ZM184.99,312.58c3.17-.92,6.32-1.9,9.54-2.67l3.29-.75c-4.83-3.3-10.08-5.68-15.81-6.86.37,3.71,1.39,6.93,2.98,10.28M171.07,310.49c2.93,1.04,5.97,1.83,9,2.5-2.63-4.96-5.4-9.67-10.65-12.17.08,3.42.4,6.44,1.64,9.68M398.38,174.83c-1.07.96-1.78,1.91-2.46,3.17l3.94.52c.67-.52,1.19-.97,1.69-1.66l.02-.55c-.54-.42-.85-.49-1.49-.59-.85-.13-1.02-.3-1.63-.86-.02,0-.05-.02-.07-.03M347.94,307.01c2.88.32,5.78.6,8.68.6,2.83-.05,7.63.52,9.74-1.73.37-.39.62-.87.89-1.33.35-.59.79-1.11,1.24-1.63-.32-.77-.61-.99-1.39-1.31-1.76-.74-3.6-.81-4.48-2.75-.5-1.11-.57-2.21-1.54-2.97l-.54.02c-5.15,2.75-8.57,6.99-12.61,11.08M405.17,183.93l.59-.22c.08-.69-.12-1.07-.55-1.63-.64-.77-1.22-.9-2.2-1.02l-.79.82c.12.64-.03.42.45.75.77.52,1.69.79,2.5,1.29M381.01,315.78c3.35-1.36,4.88-2.16,8.38-.92.97-.39,1.84-.82,2.9-.82.34.47.49.82.4,1.43-.03.25-.22.59-.32.82l.05.42c.87.99,2.97,2.83,3.27,4.04l-.62.39c-.17,1.59,1.26,4.01,2.23,5.25.39.5.74.79,1.29,1.11,1.11.08,2.21-.49,3.07-1.14l.32-.62c-.23-.67-.3-.8-.84-1.27-1.02-.29-1.86.03-2.87.3l-.39-.29c.23-2.13,3.79-3.74,2.03-6.02-.74-.96-2.3-1.63-3.47-1.76l-.44.6-.34-.34.13.3c-.55-.77-.55-.99-.47-1.96-.8.02-1.04.15-1.69-.35-.29-.72-.5-1.41-.7-2.15-.64-.3-1.22-.07-1.86.1-1.26-.43-2.4-.79-3.72-.94-.32-.03-.64-.08-.96-.12-.82,1.42-1.98,1.66-3.34,2.4-4.63,2.55-9.86,2.6-14.67,4.43l.47.18c2.16.89,4.17,3.12,6.46,3.27l.57-.32c.13-.49.2-.89.25-1.39.07-.65.18-1.06.72-1.48.59-.47,1.07-.59,1.81-.72.17-.03.35-.07.52-.1l.39-.07c.74-.59,1.04-1.41,1.42-2.26M381.81,146.83c1.44-.59,4.28-1.43,5.05-2.87.3-.57.18-1.06-.1-1.61-.37-.74-1.39-1.29-2.06-1.69l-.07-.37.52-.62-.39-.29c-1.78.54-4.93,1.63-5.87,3.32l.07.44c.72.17,1.17.02,1.88-.12.7.29.67.37,1.01,1.06-.02.52-.05,1.02-.1,1.54-.05.49-.05.75.07,1.21M401.48,236.39c-.77-1.49-1.78-3.69-3.2-4.63-2.25-.04-2.8,2.11-6.02,1.94-.89.5-1.11,1.12-1.62,2-.4.67-.65.94-1.36,1.29-2.14.27-3.35-2.4-5.26-2.57-2.35-.2-7.45,1.14-9.31-.17-.75-.54-1.46-1.39-2.1-2.06.28-.89.7-1.84.49-2.77-.82-.62-1.89-.6-2.9-.74-.92.47-3.4,1.37-3.74,2.23,4.43,5.26,1.07,5.32,2.78,8.48l.29-.4-.14.42.2-.49.1.39c2.98-1.38,4.04-1.78,7.21-.59,1.26.49,2.67,1.07,3.71,1.95.27,1.74-.12,4.29,1.12,5.6,1.22.2,11.55-4.88,13.61-5.72,2.38-1.14,4.19-2.42,6.14-4.18M422.2,335.5c-.33.25-1.07.6-1.12,1.04-.1,1.11.74,2.25,1.31,3.14.17.05.34.13.52.1-.08-.39-.35-1.12-.32-1.49.07-.84,1.34-1.88.4-2.46-.18-.1-.59-.25-.79-.32M160.27,338.13c-.08.02-.15.04-.24.05-1.29.3-3.15.02-4.29.5.92,1.54,5.42,3.17,7.18,3.64,1.17.24,1.79.08,2.8-.59.52-.35.8-.69,1.16-1.21.02-.69.03-.84-.52-1.34-1.36-1.19-4.41-.99-6.09-1.06M387.88,147.65c.64-.55,1.27-.87,1.44-1.73-.34-.44-.64-.75-1.07-1.09-.64.77-1.41,1.44-1.56,2.45.44.25.7.32,1.19.37M407.41,343.18c.65.72,1.16,1.46,2.11,1.76.5-.04.91-.07,1.39-.19l-.1-.84c-1.02-.76-2.18-.57-3.4-.74M303.76,147.71c1.93-.23,4.24-.27,6.07-.87-.47-.74-1.04-.32-1.54-.77-.79-.72.32-1.39-.72-1.66-.4.15-.75.44-1.16.22-.5-.28-.74-.69-1.11-1.11-.29-.33-.15-.22-.6-.4-.27.52-.39,1.11-.94,1.32-.37.14-.72.29-1.09.45-.18.59-.35,1.17-.59,1.74-.76-.43-.8-.57-1.64-.43l-1.12.87-.02.54c.84.76,1.8.79,2.9.72.64-.05,1.02-.3,1.56-.62M107.34,237.47c.44.69.87,1.39,1.36,2.05,1.74.32,3.52.52,5.25.87,3.34.65,8.95,2.65,12.26,1.73.2-.57.37-1.07.45-1.68-.44-.28-.2-.17-.74-.35,1.78-1.58,3.25-2.26,4.11-4.58l-.23-.64c2.06-.33,3.3.84,5.2,1.09.92.13,1.63.82,2.28,1.46l1.17-3.13c-.39-.4-.77-.7-1.22-1.02.34-1.26.89-2.2,2.04-2.85.34-.2.37-.2.69-.35l-.07-.57c-.55-.4-.67-.45-1.38-.43-.03,0-.08.02-.12.02-1.22.17-2.43.34-3.64.64-.44.6-.69,1.31-1.49,1.36-.5.03-.94-.12-1.38-.32-.24.99.1,1.59-.47,2.5-.57.05-1.04-.03-1.59-.13-.99.67-1.46,1.94-2.45,2.46-.6.32-2.5-.12-3.3-.07-1.01.05-2.28.79-3.2,1.19-2.53-1.04-5.48-.2-7.95-1.32-.05-.65.15-1.79-.44-2.21-.07-.03-.77-.33-.79-.33-1.16-.49-2.03-1.21-2.98-1.99-.39.12-.22,0-.45.39-.75,1.29-1.61,2.53-3.15,2.88-1.29.29-2.93-.35-3.99-1.05-.6-.4-.77-1.41-.96-2.08l-.52-.33-.47.2c-.27.69-.27.84-.17,1.58.77.94,1.73,1.43,2.77,2.01,2.01.96,3.3,2.31,5.57,3.05M148.7,336.49c-.25,1.16-.67,2.35-.29,3.5.39.45.67.52,1.24.67.22-1.09.49-2.08.22-3.17-.37-.52-.59-.74-1.17-1.01M360.99,212.9c.72-.52,1.37-.91,1.74-1.74-.12-.65-.14-.64-.64-1.06-.69.3-1.34.5-1.74,1.19.03.82.17.94.64,1.61M142.52,319.72c1.16.95,2.28,1.91,3.52,2.75,2.65,1.57,5.3,3.02,8.01,4.46l3.62,1.52-2.65-2.6c-2.58-1.85-5.35-3.22-8.22-4.56-1.43-.55-2.85-1.07-4.29-1.58M294.27,119.04c-1.04.75-2.53,1.61-2.82,2.93l.17.22c1.02-.74,2.53-1.61,2.82-2.93l-.17-.22ZM181.73,221.89c4.61,1.07,9.41,2.5,14.1,2.97-4.19-4.11-8.63-7.95-12.88-12.01-4.07-3.89-7.83-8.23-12.52-11.39,1.78,8.02,5.79,14.44,11.3,20.42M156.18,50.6c.18,1.17.42,2.65,1.27,3.54l.74.18c.37-.28.69-.57,1.02-.89l.32-.02,1.12-.52c-.33-.5-2.7-.35-4.32-2.16-.05-.07-.1-.1-.15-.13M344.96,129.14c.87,1.48,1.78,2.88,2.8,4.27-.45.76-1.11,1.58-.99,2.5.42.49.82.81,1.36,1.16.3,1.14-.02,2.03-.62,3.05-.67,1.14-1.48,2.23-2.25,3.32.7,1.14,1.36,2.52,2.45,3.3l.45.03.49-.54c.77-2.33,1.27-4.73,1.98-7.09.69-2.31,1.59-4.56,2.23-6.89-.44-2.18-1.24-4.68-2.43-6.56l-.45-.13-.27.28c-.74.77-1.41,1.63-2.6,1.51-.82-.08-1.68-.72-2.35-1.17-1.17.17-2.35.37-3.52.49-.74-.67-1.51-1.31-2.16-2.06-.59,1.54-1.17,2.83-.7,4.49.6.64.99.86,1.88.87,1.61.05,3.17-.6,4.71-.84M337.18,205.04c-1.61,3.22-2.33,6.66-3.42,10.06-.82,2.56-1.91,5.01-3.03,7.46,2.3-.6,4.56-1.26,6.81-2.03,3.42-1.24,6.72-2.77,10.06-4.26.65-2.5,1.24-5.05,2.13-7.46.48-1.32,2.23-3.81,2.23-5.06l-.54-.15-.72.7c-1.91-.35-4.6-1.48-6.24-2.55-2.35,1.78-4.86,1.89-7.28,3.29M376.43,288.37l.72.89.49-.07c.23-.69.15-.92.02-1.64-.32-.39-.55-.62-.97-.91-.59.47-1.27.92-1.64,1.59l1.22-.33c.2.39.18.22.17.47M192.6,89.85l2.25-2.67c.54-.6,1.56-1.49,1.69-2.25-.13.02-.25.02-.38.03-2.53.18-3.57-1.21-5.67-2.2.47,2.38,1.14,4.85,2.11,7.08M322.36,72.38c.62-.65.82-.74.92-1.64-.39-.96-1.12-1.56-1.86-2.26-.54.8-1.17,1.58-1.31,2.55.29.67.35.79,1.07,1.07.34.15.82.22,1.17.29M359.31,150.08c.74.27,1.06.47,1.84.2.6-.2,1.34-.9,1.54-1.48.08-.24.07-.4.07-.62-.42-.39-.2-.32-.55-.39-1.34.35-3.1,1.01-3.92,2.16.49.27.5.18,1.02.12M407.48,239.01c-1.14.59-2.48,1.12-3.44,1.96l.15.35c1.17-.6,2.35-1.17,3.4-1.99l-.12-.32ZM87.12,355.07c-.02.08-.02.17-.03.24-.2,1.26-.67,2.06-1.61,2.92.54.27.92.18,1.49.15.39-.02.23-.03.65.1l.86.28.13-.38c.03-.08.07-.18.1-.27.28-.87.25-1.44.07-2.33-.52-.52-1.01-.55-1.66-.7M127.96,327.4c-.47-.67-.87-1.01-1.69-1.17-.47-.1-.96-.12-1.43-.13.65.79,1.07,1.19,2.16,1.27.32.03.64.03.96.03M127.56,138.17c1.02,2.25,2.46,4.19,4.84,5.1,1.14.43,2.21.62,3.39.23l-.37-1.12c-.08-.03-.15-.08-.23-.12-2.55-1.34-4.9-3.07-7.63-4.09M274,119.68l3.14-1.68c1.95-1.06,5.23-2.62,5.95-4.88.22-.67.17-1.32-.22-1.91-.65-1.01-2.05-2.06-3.13-2.53-2.77,3.3-4.6,6.86-5.74,11M334.53,283.98c-.82-.59-1.63-1.21-2.5-1.73-.72,2.13-1.83,4.31-2.2,6.51l.12.18.69-.49c1.54-1.39,2.8-2.7,3.89-4.48M140.22,147.88l-.5,1.33c-.62.27-1.19.27-1.84.28l-.13.27c.05.07.1.12.15.18.5.64.7,1.06.89,1.84.5.25.94.27,1.49.35.08.02.18.03.27.05.99-.75,1.96-1.48,3.07-2.06-.99-.97-1.93-2.03-3.39-2.25M146.64,159.06c.47.97,1.04,2.53,2.15,2.92.72.25,1.93-.12,2.65-.25.61.29.69.37.92,1.06.2.6.3,1.29.44,1.91,1.36.44,3.15,1.22,4.56,1.17.92.1,1.11.13,2-.25.25-.55.35-.65.13-1.26-.64-1.88-3.22-4.49-4.99-5.27-.25-.1-.5-.22-.77-.3-.82-1.31-1.56-3.07-3.22-3.4-.5-.1-1.04-.07-1.54-.05l-.54.84-.65-.33.32.43c-.72-.52-.89-1.04-1.24-1.81-.2-.44-.08-.27-.4-.57-.07.84.05,1.81-.64,2.43-.35.3-.84.52-1.24.74-.28.15-.55.33-.84.49l2.92,1.51ZM228.31,113.34c1.16,2.52,2.45,4.88,3.92,7.21l.75.8c.52-.02.37.08.71-.29,1.43-1.59,1.56-6.1,1.29-8.2-.15-1.17-.55-2.75-1.49-3.54-.07-.05-.15-.1-.22-.15-1.06.33-2.11.69-3.15,1.11-.55,1.04-1.12,2.06-1.81,3.05M71.23,280.44c-.96.54-1.96.99-2.68,1.86l.03.49.42.24c.97-.55,1.96-1.01,2.67-1.91l-.07-.47-.37-.2ZM161.28,361.79c1.16-.27,2.04-.47,3.02-1.17.33-.64.38-.62.2-1.32-.65.3-1.33.59-2,.85-.5-.54-.62-1.17-.8-1.88-1.43,2.38-3.25,2.97-5.52,4.38,1.69-.29,3.4-.69,5.1-.86M198.2,143.96c-.65.42-1.32.62-1.53,1.39.42.44.79.67,1.33.97l-.07.3-.55.25c.2.57.18.59.72.82,1.26.54,3.22.6,4.58.38.38-.7,1.04-1.61,1.12-2.4-1.06.38-1.64.82-2.7.28-.82-.42-2.13-1.12-2.61-1.91l-.29-.1ZM73.54,257.82c.5,1.06,1.36,2.35,1.21,3.54-.44.75-1.04.97-1.79,1.34,1.27.62,2.4,1.24,3.55,2.08,1.34-.82,3.04-2.18,4.49-2.65.79-.25,1.22.5,2.06.02-.25-.35-.71-.69-.59-1.12.12-.49.38-.74.72-1.09l-.03-.45c-.72,0-1.16.84-2.01.96-.49-.5-.62-.64-.69-1.39-.03-.42.05-.92.1-1.34-.24-.55-.44-.82-.89-1.21-.18.62-.25,1.41-.8,1.74l-1.14-.6c-.54.2-1.06.42-1.58.67-.9-.05-1.73-.27-2.61-.49M407.3,267.78c.59-1.56,2.16-2.35,2.65-3.77-.49-.42-.2-.28-.84-.39-1.07.4-2.26.7-3.03,1.59-.1.67-.12.84.27,1.46.25.39.64.77.96,1.11M219.61,131.47c2.98-.72,5.99-1.41,8.99-2.06.84-.33,1.11-.3,1.54-1.11.07-.99-.54-1.79-1.16-2.51-4.34-5.06-10.66-5.83-15.73-9.61-.91-.67-1.88-1.44-2.9-1.89,1.16,3.25,3.86,5.53,5.7,8.38,1.71,2.67,2.62,5.78,3.56,8.8M145.33,340.78c.55-1.09,1.26-2.21,1.36-3.44-.22-.6-.2-.57-.77-.89-.42,1.41-.69,2.75-.86,4.21l.22.17.05-.05ZM216.17,179.44c1.86,2.53,3.32,3.66,6.25,4.78-1.63-2.2-3.52-4.09-6.25-4.78M328.44,304l-4.09-.03c-.5,1.41-1.56,3.6-1.02,5.06.84-.1,1.44-.97,1.94-1.62,1.14-1.09,2.18-2.16,3.17-3.4M213.57,109.96c-.74.59-1.01.62-1.17,1.58.44,1.46,1.63,2.25,2.9,2.97.25.13.5.27.75.39l.39-.64c-.33-1.24-1.93-1.58-2.46-2.6-.45-.84.45-.8-.4-1.69M267.4,194.06c-.67-2.35-1.46-6.79-3.29-8.38-4.26,6.61-7.88,10.24-7.46,18.74.07,1.51.08,3.25.44,4.71.03.17.13.42.18.57l.35-.02.69-1.09c3.29-4.76,6.47-9.34,9.09-14.54M276.62,216.63c2.45-2.23,4.95-4.39,7.49-6.52,2.5-1.98,6.66-5.05,7.74-8.13l-.18-.59-.45-.17c-.55.29-1.07.59-1.68.75-.37-.4-.52-.64-.75-1.11-.65,0-1.12.32-1.68.62-1.24-.02-2.11-.79-2.92-1.66-1.48-1.56-2.18-3.61-3.79-4.98-.17,7.53-1.71,14.55-3.79,21.78M142.63,350.05c.44-.55,1.04-1.54,1.8-1.63.5-.07,1.07,0,1.59.03,1.29-.81,1.09-1.86,2.63-2.85,1.14-.29,1.73-.39,2.51-1.29.82-.96,2.18-1.53,2.77-2.62-.24-.64-.42-.84-.97-1.22-1.9-.2-3.22,1.11-4.95,1.56-2.63.69-4.88-.17-7.45,1.29-.71-.02-1.12-.13-1.64-.65-.55-.54-.91-1.58-1.22-2.25-.2-.4-.12-.25-.45-.62-.4.37-.8.55-.86,1.11-.08.8-.07,1.42-.65,2.03-.82.32-1.64.6-2.5.86.75,1.09,1.53,1.99,2.46,2.93l.42,2.77c2.18.18,4.34.43,6.5.55M418.53,262.33c3.44,1.07,5.37,1.31,8.92.55,1.44.85,2.85,1.94,4.59,1.76.28-.25.5-.3.48-.72-.02-1.21-1.32-2.46-2.18-3.18-1.31-1.07-2.87-1.74-4.48-2.23-2.62.7-4.26,2.82-6.79,3.61-.2.08-.37.15-.55.22M373.36,359.83c1.01-.67,3.17-1.52,3.84-2.48l-.32-.35h-.4c-.47,0-.84-.07-1.29-.15l-.45-.08c-.13.1-.25.2-.39.29-1.07.7-2.8.2-4.04.55.13.77.57,1.12,1.21,1.56.64.43,1.11.57,1.84.67M412.9,217.18l.12.92c-.71.64-.99,1.11-1.07,2.08-.07.74.34,1.49.72,2.08l.29.13c.75-1.36,1.74-2.67,1.49-4.28-.45-.59-.84-.77-1.54-.94M331.02,123.17c.69.17,2.55.4,2.92.92l.13-.3c-.54-1.04-1.49-3.89-2.33-4.44-.54.22-1.09.44-1.63.65-.69.27-1.09.55-1.63,1.06l-.17.64.45.55c.25-.22.49-.42.72-.65.52.84.64,1.09,1.53,1.58M245.28,115.37c-2.43-.08-5.92.15-8.17-.76-.8,2.89-2.53,8.02-.9,10.87.28.52.75.92,1.32,1.09,1.68.5,4.33-.74,5.99-1.26.77-.17,1.32-.24,1.83-.92,1.47-1.98.3-6.67-.07-9.02M128.85,321.22c-.33,1.16-.67,2.15-.57,3.35l.3.55c.92.03,1.68-.55,2.45-1.06.64-.35,1.44-.57,1.69-1.26-.54-.29-1.02-.42-1.59-.57-.84-.22-1.52-.55-2.28-1.02M414.17,230.36c2.45-1.41,3.4-3.82,4.09-6.46.29-1.06.94-2.92.62-3.96-1.29,2.26-5.3,7.91-4.71,10.41M121.98,284.68c-.02,1.43-.29,3.03.69,4.16.64.08,1.11.07,1.74-.02,1.04-.13,1.56.1,2.48.55l.13-.37c-.97-1.17-2.31-1.51-3.27-2.5-.3-.32-.37-1.07-.69-1.38-.15-.17-.84-.35-1.09-.45M179.67,69.83c.05.97.12,1.71.92,2.4.67.57,1.46.82,2.33.7.75-.1,1.37-.35,1.91-.92.07-.79.25-1.27-.15-1.96-2.55-.12-2.3,1.64-5.01-.22M122.75,141.34c-1.21.45-2.36.89-2.92,2.15-.17.39.02.59.17.95l.65-.37.25.18-.34.7.12.12c.12.03.23.05.35.08.49.12.94.28,1.39.47.57-.27.86-.49,1.07-1.11.27-.82.27-1.61.02-2.43-.27-.25-.49-.57-.77-.76M408.89,335.5l-.8.54c.15.72.76.65,1.09,1.17.62.96.44,2.35,1.26,3.2.77-.34,1.53-.7,2.31-.96.42-.5.32-1.71.22-2.4-.03-.27-.1-.39-.18-.6-.6.03-1.01.32-1.51.6-.35-.44-.42-.67-.47-1.24-.67-.27-1.21-.28-1.91-.32M93.11,218.82c-.52.42-1.04,1.07-1.74.97-.15-.02-.69-.27-.82-.33l-.62.15c-.4.7-.59,1.88-.44,2.68.05.29.17.5.35.72,1.04-.1,2.1-.15,3.1-.39.65-.81.25-2.03.64-3.02l-.47-.79ZM60.85,286.53c.08,1.49.39,3.07,1.22,4.32l.59.32c.27-.18.5-.32.72-.55.5-1.06,1.14-2.1,1.16-3.29-.39-.59-.47-.7-1.22-.85-.7-.13-1.74.02-2.46.05M177.64,295.8c-2.57-2.41-5.87-3.59-8.38-5.87-1.01-.9-2.23-4.53-3.27-4.61-1.49,1.02-2.99,1.95-4.56,2.82,3.71,3.29,7.91,5.28,12.61,6.77,1.19.3,2.41.55,3.6.89M177.71,202.57c1.83,1.49,7.29,6.61,8.97,7.24l.24-.24c-.99-2.36-3.51-4.02-3.94-6.29l-.35.03c-1.66.17-2.65,0-4.19-.57-.44-.15-.25-.1-.72-.18M400.76,281.75c.02.6.25,1.74-.22,2.15-1.02.91-2.75,1.17-3.59,2.28.2.64.4.9.99,1.26,2.53,1.53,6.22.47,7.95,2.48l.1.85c.62.4.6.42,1.32.3.47-.5.74-.81.77-1.54.03-.59-.23-1.14-.7-1.48-1.51-1.02-3.89-.42-4.96-2.2.12-.77.42-1.36.77-2.05-.07-.65-.05-.89-.64-1.32-.45-.3-1.24-.55-1.79-.74M278.43,75.75c-.57,1.09-.9,1.99-2.16,2.38-2.23.69-5.45-2.06-7.13.25-.59.8-1.01,2.95-.77,3.91.14.54.29.64.71.92l.89.08c1.12-.76,2.36-1.73,3.62-2.2,2.18-.82,4.81-.87,6.79-2.15.07-.39.15-.52-.02-.89-.35-.82-.45-1.27-.33-2.16-.54.22-.62.37-1.21.23l-.39-.38ZM221.79,108.46c-.74.55-1.48,1.06-2.28,1.53.14.43.25.57.54.9-.02.08-.03.17-.05.25-.2,1.34-.12,2.25.72,3.35,1.22,1.59,4.14,3.04,5.9,4.06l1.06.5c.32-1.34-1.71-4.43-2.43-5.6-.47-.77-3.05-4.64-3.45-5M132.61,184.6c-1.64-1.29-4.49-3.99-6.57-4.16-2.9.42-12.62,1.56-14.22,3.65-.43.57-.3.96-.22,1.61.49.72.92,1.14,1.8,1.34,1.44.32,2.31-.4,3.47-1.16.96.42,1.9.87,2.92,1.11h.28c2.51.12,2.99,1.11,5.1,1.78,2.72-2.47,2.75-.5,4.63-1.54l-.03-.38c-.07-.79-.22-1.43.25-2.11.79-.4,1.74-.18,2.6-.14M292.14,180.98c-1.26,1.06-2.45,2.2-3.72,3.22-2.3,1.86-6.04,3.67-7.48,6.29l.1.47c1.02.27,2.21-.35,3.17-.74l.24-.02c.77-.05,1.48-.03,2.25.05,1.07-.44,1.89-.92,2.82-1.64,1.11-.23,2.26.05,3.37.22,1.01-1.04,2.63-3.2,4.17-3.23l.81.57.45-.25c.45-1.56-.25-3.61-.64-5.15-.76-.22-1.43-.12-2.2-.03l-3.34.25ZM433.52,266.22c-.03.13-.05.29-.08.42-.22.84-.96,1.63-1.49,2.3,1.11,1.66,2.97,3.34,4.85,4.01l.52-.1c.15-1.54-.4-2.8.91-3.92,1.58-.35,3.09.3,4.46,1.06l.81.29c.96-.86,1.14-2.5,1.27-3.71-.12.07-.25.12-.37.18-.71.32-.92.27-1.63.05-2.35-.72-4.42,1.83-6.6,1.16-.72-.22-1.49-.99-2.08-1.44-.37-.25-.22-.17-.55-.29M324.49,319.07c-1.54.45-3.09.94-4.63,1.38-1.43,2.47-5.11,7.83-5.55,10.45l.39.17c2.73-2.08,9.37-7.88,10.08-11.32.02-.12.02-.22.03-.34l-.32-.34ZM123.89,176.89c-2.58-1.68-4.85-2.95-8.01-3.19-.08.07-.15.15-.24.22-.27.23-.55.45-.84.65-.42-.23-.8-.49-1.21-.77-1.14.17-1.41,1.38-2.58,1.51-.08-.08-.17-.17-.27-.25-.84-.79-1.09-.99-2.18-1.21-.47-.08-.94-.27-1.39-.4,1.84,2.25,4.04,4.49,6.56,6,2.6-.4,8.48-.77,10.58-2.1-.29-.44-.12-.3-.42-.47M154.62,131.82c-.79,2.97-1.34,5.85-1.49,8.92.74,1.51,1.88,4.7,3.6,5.13.94.24,1.76-.39,2.45-.92l.42-.33.89-.29.22-.45c-.29-.47-.59-.74-.99-1.11-1.24-1.12-2.41-2.87-2.41-4.61,0-.94.42-2.06.75-2.93,2.72-1.95,4.14-4.8,6.74-6.89-1.14-.81-2.28-1.68-3.5-2.36-.32.5-.59.92-.99,1.36-.62.65-.72,1.51-1.37,2.14-.89.86-1.59.14-2.43,1.71-.65.24-1.26.45-1.88.64M186.86,289.9c5.1,5.63,8.77,7.96,15.58,11.29,1.88.92,3.84,2.06,5.82,2.75-1.24-1.49-2.46-2.75-4.01-3.91-3.02-2.28-14.05-8.97-17.39-10.13M217.31,187.54l2.46,1.49c.3.35.82,1.22,1.27,1.24.49.03.87-.13,1.33-.27l.33.1c.86.27,1.51.45,2.4.42l.3-.3c-.39-1.84-3.56-3.7-5.07-4.69-1.96-1.27-4.29-2.95-6.76-2.68l-.33.08c-1.73.4-4.06-.2-5.1,1.52-.34.57-.54.94-.44,1.63,1.19.89,2.33.1,3.54.47.8.23.45,1.36,1.23,1.36l.32-.7.15.52-.02-.44c.33.15.99.33,1.27.57.59.5.29,1.17,1.24,1.07l1.86-1.39ZM176.5,315.38c2.82,2.94,5.75,5.79,8.52,8.77,2.1,2.25,4.43,6.19,7.06,7.66-1.09-5.52-6.74-11.38-10.35-15.53l-5.23-.91ZM326.26,283.31c-2.18,2.83-4.31,5.8-6.72,8.43-1.8,1.96-4.43,3.61-5.82,5.84l.27.2.22-.07c3.92-1.86,7.73-4.01,11.35-6.4.69-2.25,1.86-4.96,1.49-7.31-.27-.37-.34-.47-.79-.69M230.22,78.92c-.77-.57-1.84-1.58-2.8-1.73l-.52.84c-.54-.4-.3-.99-.82-1.44-.32.94-.74,2.05-.27,3.02.47.96,1.57,1.24,2.51,1.44,5.42,1.11,5.67,1.29,9.37,5.45-.18-.94-.39-1.86-.47-2.82-.2-1.74-.34-5.55-1.9-6.61-.5-.33-1.31-.25-1.86-.12-1.06.23-2.35,1.34-3.25,1.96M353.04,205.24c-.4,3.6-1.84,6.86-2.7,10.36,2.38-.54,4.74-1.04,7.01-1.94.92-1.09,2.41-3.27,2.23-4.76-.05-.45-.37-.57-.69-.85-.94-.2-2.23-.08-2.92-.7l-.18-.57-.39.02c-.39.52-.42.82-1.07.97-.25-.32-.29-.47-.4-.87-.22-.67-.49-1.09-.89-1.64M209.21,122.45c.45.92.96,1.69.87,2.75-.44.52-.65.72-1.38.75-1.27.05-2.68-.13-3.96-.23-.69,1.11-1.42,1.83-2.41,2.66l-.15.14c1.34,1.63,1.98,3.1,2.62,5.1l2.6,1.06c.62-.07,1.06-.22,1.63-.44,2.05-.79,4.23-.77,6.19-1.84-1.31-3.54-2.51-8.03-6-9.94M237.11,192.01c2.65,4.96,5.65,9.62,8.95,14.17l1.01.86.24-.07c.97-3.47.72-8.32.55-11.94-2.16-3.04-5.4-9.44-7.8-11.55-.97,2.8-2.21,5.68-2.95,8.53M176.57,84.67c-1.12.27-2.43.91-3.15,1.84-.32.42-.45,1.11-.6,1.61-1.14.72-3.76,1.98-4.11,3.34-.08.34.13.6.27.89,2.31,1.57,4.02-.25,6.3.27,1.19.15,2.28.24,3.35.82.12.07.25.13.37.2.08.05.17.1.25.14l.12-.22-.22-.44c-.67-1.32-1.16-2.26-.69-3.77.18-.57.24-.52.65-.87.1.05.2.1.32.15.44.18.25.15.69.13-1.11-1.86-1.51-.85-1.91-3.49l-.32.02-.52.6c-.59-.4-.39-.86-.8-1.22M345.44,165.24c.52.7.77,1.26,1.57,1.63l.52-.18c.7-.25,1.32-.44,2.08-.32.45-.1.87-.2,1.31-.33,1.32-.42,2.92-.15,4.33-.42-.07-.67-.54-1.07-.97-1.54.2-.87,1.42-1.24,1.53-1.78.42-2.26-2.42-2.11,2.2-5.27.5-.33.96-.42.9-1.06-.64-.44-1.21-.49-1.94-.59-1.02.96-1.33,1.09-2.72,1.19-2.13.15-3.47,1.59-4.78,3.14-1.49,1.71-2.97,3.54-4.02,5.53M297.76,124.19c-3.89,2.03-7.36,3.84-9.74,7.68,1.15-.13,2.3-.43,3.29.35.25.2.47.4.7.62.08,0,.15.02.24.02,1.09.08,3.2,1.01,4.11.33,1.31-.97.99-2.57,1.76-3.72.54-.82,1.48-.8,1.74-1.91l-.14-.29-1.74-.39-.1-.37c.47-.43.94-.67,1.51-.94l.08-.44c-.59-.64-.91-.74-1.71-.96M219.38,238.46c4.01,5.72,9.61,9.89,14.12,15.14.42-.57.27-1.14.18-1.83-.35-2.63-.97-5.28-1.41-7.9-1.53-9.19-2.65-14.08-8.5-21.7-1.12-1.46-2.6-3.57-4.01-4.71.28,7.03-.37,13.97-.39,20.99M137.77,219.19c2.11.79,3.18,1.41,4.14,3.49.18.4.37.82.54,1.24.12.03.25.05.37.08,1.91.44,3.39,1.33,4.96,2.5.74.55,1.56,1.53,2.41,1.83,2.13.72,9.2-1.17,11.62-1.76,2.26-.65,4.51-1.33,6.72-2.11-8.08-3-16.75-6.94-25.52-6.57-1.74.44-3.5.86-5.25,1.31M320.04,304.99c-4.86,1.11-9.37,2.58-13.98,4.49,1.04.4,2.11.77,3.12,1.22,2.38.87,5.83,2.35,8.37,1.36.87-.33,1.11-1.16,1.43-1.99.43-1.21,1.52-3.89,1.07-5.08M279.63,129.71c1.26.35,2.43.72,3.64,1.27,1.81-4.68,7.46-9.61,8.25-12.67-.44-.13-.82-.22-1.26-.3-.43-.47-.65-.82-.95-1.39-.39-.77-.82-1.07-1.56-1.51-.07.1-.13.18-.2.28-2.93,3.96-13.06,6.91-13.58,11.55.22.87.6,1.34,1.37,1.76,1.19.67,2.95.77,4.29,1.01M429.13,227c-.71.22-1.51.27-1.95.89l.77,1.12c-.37.67-.8.76-1.51.96-3.59,1.04-9.44-.22-11.6,3.62-.07.12-.13.25-.2.37,4.63-1.21,2.97-2.85,8.82-.67.77-.2,1.27-.37,2.06-.13.37.42.62.82.87,1.33.89.49,1.86.57,2.85.69.99.12,1.73.87,2.48,1.48l.34.27.2.17c.72-.49,2.26-1.22,2.62-1.96-.6-.47-1.04-.15-1.54-.44-.35-.2-.76-1.84-.94-2.25-.6-1.36-1.42-2.14-2.58-2.98-.1-.87.55-1.46,1.07-2.13-.52-.47-1.01-.34-1.69-.32h-.07ZM75.43,227.19c-1.04,2.57-1.09,4.56-3.37,6.39.44.65,1.57.57,2.3.8,1.02.32,1.86,1.46,2.45,2.3-.15.44-.05.2-.35.67.52.39,1.51.54,2.15.44.15-.02.28-.08.44-.12.25-.59.22-.94.18-1.56-.07-.9-.02-1.37.64-2.06.74-.77,2.18-1.23,3.17-1.56.1-.03.22-.08.32-.12,1.51-.34,3,1.07,4.54.77.35-.59.3-1.12.07-1.78-.24-.69-.64-1.06-1.31-1.32-1.17-.49-2.92-.05-4.13.22-.84-.44-1.34-1.14-1.94-1.85-.75.86-1.43,1.74-2.46,2.26-.49-.04-.52.08-.85-.3-.81-.95-.92-2.33-1.83-3.18M392.24,251.85c.87.81,1.78,1.66,2.8,2.28.85.52,2.3,1.01,2.98,1.68.29.29.45.96.59,1.31.65.34,1.21.52,1.91.7.54.13,1.02.18,1.34.69.18.29.3.67.42.97,2.95,1.31,7.41-.33,10.28-1.39,2.06-.65,4.19-1.24,6.19-2.06-6.09-2.3-12.12-4.38-18.29-6.4-2.2-.72-4.33-1.59-6.56-2.2-.86.65-1.69,1.24-2.35,2.1l.05.35.4.02c.5.03,1.01.07,1.49.12l.13.35-1.39,1.49ZM318.87,285.94c-11.47,5.32-14.75,8.62-22.7,18.14.05.12.08.29.2.37,7.21-4.36,15.49-9.07,21.01-15.56.49-.57,1.44-1.61,1.63-2.31.05-.17.03-.35.05-.54l-.18-.1ZM176.55,221.74c-8.21-10.46-10.38-7.26-21.14-11-2.42-.84-4.96-2.68-7.46-3.05-.77.54-1.29,1.07-1.88,1.79-.52.1-.89.03-1.39-.07-.02.59.12.99.32,1.54-.54-.48-.69-.77-1.43-.89.1.7.25.96.82,1.41,5.23,4.19,20.09,7.75,26.78,9.24l5.38,1.02ZM263.37,114.18c-.07.03-.14.07-.2.1-1.93.94-4.7.55-5.52,2.95-.62,1.81-.45,4.49.42,6.2.32.62.69.99,1.36,1.22,1.12.4,2.56.54,3.75.74,1.27.39,2.57.87,3.91.85.67-.55.85-1.07.95-1.93.32-2.7-.47-7.24-2.26-9.34-.47-.55-.97-.86-1.71-.91-.22,0-.49.07-.7.1M216.93,201.4c2.08,3.77,4.59,7.19,7.46,10.41l4.59,5.5c-.9-4.76-1.31-9.66-1.69-14.49-.17-2.06-.1-4.41-.52-6.42-.12-.6-.22-.77-.64-1.17-1.17.64-2.36,1.24-3.57,1.83l-.4-.67c-.69.64-.27,1.32-.69,2.04l-.35-.3-.05.15c-.34-.08-.84-.34-1.16-.15-1.07.62-2.05,2.36-2.98,3.27M313.52,223.55c4.38-.14,8.74-.03,13.11-.07,2.3-5.7,8.63-18.58,6.39-24.31-.25-.65-.65-1.06-1.19-1.51-.4,1.09-.89,1.91-1.58,2.83-.02.59.08.97.27,1.53-.5,1.64-3.14,3.74-4.31,5.1-2.6,3.03-4.76,6.44-7.38,9.45-1.76,2.03-4.9,4.46-6.04,6.84.25.07.47.15.72.14M329.28,353.09c2.78.69,5.6.74,8.45.99-1.79-.42-3.42-.65-4.66-2.13-.15-.69-.18-1.02.18-1.64,1.12-1.91,3.07-2.95,4.09-5.03.4-.82.72-1.24,1.49-1.73.67-.05,1.21-.02,1.86.08.67.1,1.02.12,1.66-.17,1.54-1.9,1.74-3.87,4.54-4.26,1.21.4,6.57,1.83,6.92,2.73.1.23.07.91.07,1.14.6.07,1.12.05,1.71.02.37-.02.25-.02.69.07-.15.87-.37,1.51.14,2.33.82,1.36,3.08,3.35,4.39,4.28.12-.02.25-.03.37-.03.5-.05.3-.07.74.05l-.03.97.27.17.7-.64c.6.13.8.29,1.24.72.32,1.29.05,4.07.77,4.93.82.2,1.16.23,1.99-.02.55-.54.6-.5.69-1.26-.42-.47-.86-.87-1.34-1.27l-.89-3.65-.05-.08.3-.45.37.22-.28-.45c.6-.96,1.22-1.8,2.35-2.16.94-.3,2.04-.02,2.87-.62-.2-1.51-1.84-2.41-2.38-3.79l.77-.67c-.22-.45-.07-.34-.55-.5-1.42-.49-3.65-.18-5.15-.07-.82.77-1.71,1.83-2.93,1.86-.37.02-.71-.15-.96-.44-1.39-1.56-1.01-3.92-3.49-4.58-1.33-.35-2.83.05-4.19-.02-1.73-.08-3.67-.99-5.4-.62-3.6.29-6.22.94-8.63,3.87-3.71,4.48-3.65,7.16-8.68,11.86M111.33,248.26c-6.29,1.56-11.84,4.74-17.32,8.07-1.06.64-3.19,1.73-3.79,2.82-.2.35-.18.39-.25.72.4.34.54.4.99.6.77.34,1.26.7,1.59,1.51.28.67.37,1.52.5,2.25.34.9.42,1.59,1.32,2.1.7.4,1.56.18,2.25-.12,1.41-.64,2.58-2.23,3.91-2.75.52-.2,1.26.12,1.59-.4-.02-.12-.03-.24-.05-.35-.3-1.98.38-3.22,1.59-4.78.59-.75,1.56-1.29,2.33-1.83,2.62-1.81,4.41-4.29,5.42-7.31l-.08-.52Z"/>
      </g>
    </g>
  </g>
</svg>