<?xml version="1.0" encoding="UTF-8"?>
<svg id="Layer_1" xmlns="http://www.w3.org/2000/svg" version="1.1" viewBox="0 0 288 271.74">
  <!-- Generator: Adobe Illustrator 30.5.1, SVG Export Plug-In . SVG Version: 2.1.4 Build 3)  -->
  <path d="M81.59,80.23c-.71,2.5,2.62,11.05.46,14.7-2.17,3.64-6.84,6.61-8.66,8.89-1.82,2.28-.57,3.19,1.48,2.39,2.05-.8,10.95-8.02,11.52-12.92.57-4.9-3.64-17.14-4.79-13.05Z"/>
  <path d="M184.87,102.37c-2.62-1.03-12.47-6.88-17.15-9.48-3.34-1.86-21.22-20.17-31.36-23.36-10.14-3.19-16.98-.36-21.65.89-4.67,1.25-13.17,5.25-13.17,6.73s1.37,8.54,3.08,11.05c1.71,2.51,2.39,9.57.68,11.96-1.71,2.39-8.83,9.91-7.35,12.08,1.48,2.16,3.68.99,5.85-.26,2.17-1.25,7.12-3.09,10.65-1.95,3.53,1.14,4.44,2.37,9.22.78,4.79-1.6,14.65-11.61,22.74-12.86,8.09-1.25,20.36-1.37,23.78,0,3.42,1.37,9.61,5.89,9.61,8.05s-1.4,8.03,1.56,8.83c2.96.8,2.34-2.59,3.25-4.42.91-1.82,2.88-7.03.26-8.05ZM119.88,106.2c-2.51.91-2.74.34-4.79-.57-2.05-.91-3.19-.23-4.67-.34-1.48-.11,0-1.82.34-2.62.34-.8-1.19-1.39-.68-3.42.11-.46,4.56,0,6.27.34,1.71.34,6.27,3.08,6.61,3.99.34.91-.57,1.71-3.08,2.62ZM143.36,91.85c-.46,1.03-3.88,5.51-13.06,5.98-9.03.46-17.89-5.44-19.19-9.28-.16-.48,2.72-.35,3.86-.46,1.14-.11.79,1.2,3.21,3.08,5,3.9,10.49,4.21,15.04,3.42,4.56-.8,8.55-5.81,9-6.27.46-.46,1.6,2.51,1.14,3.53ZM121.33,85.61c.11-.23,6.38-1.23,8.32-1.69,1.94-.46,5.96-.51,6.3.06.34.57.91,4.22-3.76,5.92-4.67,1.71-11.72-2.56-10.86-4.29ZM152.6,91.94c-3.53-1.37-4.26-6.61-5.28-7.75-1.03-1.14-5.67-4.07-13.31-5.33-7.64-1.25-17.3,3.82-20.61,4.16-3.31.34-4.01-.85-4.01-2.91,0-1.94,11.67-7.19,16.09-8,6.72-1.25,15.58,3.15,19.36,6.49,2.68,2.37,12.64,9.83,12.98,11.31.34,1.48-1.7,3.4-5.23,2.03Z"/>
  <path d="M261.79,84.45c-.6-3.91-4.42-15.84-10.39-24.94-8.71-13.25-14.94-22.73-33.13-28.44-10.4-3.27-46.66-4.25-63.15-3.12-8.32.57-33.55,2.01-47.68,4.29-14.13,2.28-36.38,6.88-55.22,24.29-14.86,13.73-25.86,42.47-26.51,55.46-.52,10.47-6.25,32.34,12.21,53.64,18.46,21.3,62.16,28.7,68.99,28.96,86.79,3.38,115.49-6.19,131.5-20.94,16.75-15.43,22.9-41.14,23.59-46.25,1.34-9.96,2.12-27.75-.21-42.94ZM225.15,178.74c-11.37,5.33-22.87,8.83-39.76,10.78-10.54,1.22-60.68,2.08-72.24,1.69-5.13-.17-33.26-3.51-51.19-13.51-22.62-12.62-28.56-24.52-31.18-30.78-2.62-6.27-4.76-34.22,3.77-55.33,8.45-20.91,12.93-24.82,19.75-30.78,11.92-10.42,25.99-19.61,51.97-23.9,33.72-5.56,50.55-5.42,75.05-5.67,29.67-.3,46.34,6.06,46.56,7.88.23,1.82-19.9,2.26-22.4,1.69-2.51-.57-22.89-5.26-34.31-4.44-14.97,1.07-30.09,4.44-45.82,13.9-15.73,9.46-19.95,10.01-27.02,11.15-7.07,1.14-23.13,2.41-28.15,3.66-5.01,1.25-17.67,5.13-21.31,12.3-3.65,7.18-3.21,12.35-5.13,16.86-1.41,3.31-5.66,10.7-5.36,14.36.52,6.23,5.7,11.15,5.24,13.55-.46,2.39-4.33,8.32-3.3,12.99,1.03,4.67,4.56,8.32,3.76,10.37-.8,2.05-6.19,12.21,2.01,17.91,8.21,5.7,23.76,6.35,29.23,7.14,5.47.8,18.32,10.26,30.14,12.86,14.69,3.23,30.92,1.69,42.88,1.82,12.73.14,29.66-1.6,38.33-2.73,14.94-1.95,34.74-10.14,40.67-12.96,6.89-3.27,15.77-8.03,16.11-6.78.34,1.25-10,12.08-18.32,15.98ZM53.12,128.78c-.35,1.47-1.46,2.49-2.6,3.85-1.14,1.37-.39,4.78-.5,5.81-.11,1.03-1.82,1.59-3.19.91-1.37-.68-1.71-4.67-1.71-6.38s1.36-5.9,1.71-7.63c.23-1.14,4.47-.45,5.38-.11.91.34,1.1,2.74.91,3.55ZM242.21,151.03c-7.48,7.48-21.36,20.07-55.44,25.54-24.51,3.94-45.87,3.46-61.59,3.46-14.71,0-26.05-5.94-31.06-8.33-5.01-2.39-7.04-5.47-10.69-6.04-3.65-.57-19.31-2.51-24.21-3.42-4.9-.91-8.75-2.38-9.66-5.57-.91-3.19-1.4-7.46.05-7.93,3.07-1,26.69-.72,30.45.3,3.76,1.03,3.35,1.82,7.36,2.16,4.07.35,4.81-1.89,6.15-2.42,2.6-1.04,11.95-.95,13.08.35,1.04,1.2,2.89,16.22,15.85,21.21,10.54,4.06,11.55-1.36,11.82-3.42.39-2.99-4.58-12.11-3.33-13.98,1.73-2.6,8.14-4.33,9.57-8.61.73-2.19,1.76-10.01-6.11-11.95-7.86-1.94-28.76.22-43.01-2.86-14.25-3.08-42.57-10.43-45.48-19.48-1.93-6.02.19-8.73,2.47-8.96,2.28-.23,9.57-.44,14.34-1.59,5.8-1.4,8.1-6.59,5.02-7.5-3.08-.91-6.75,2.29-10.39,2.86-3.65.57-8.68-4.27-6.63-9.74,2.05-5.47,4.7-6.86,9.48-9.48,5.41-2.96,20.18-6.44,31.24-7.92,11.06-1.48,18.82-3.06,24.63-5.46,5.81-2.39,26.09-14.55,33.05-16.15,6.95-1.6,17.93-5.2,33.35-4.24,7.63.47,19.32,4.12,19.66,5.71.34,1.59-5.04,12.64-4.59,17.53.78,8.57,6.39,10.57,5.82,11.6-.57,1.03-14.66,11.52-4.91,28.66,7.94,13.96,22.48,18.57,34.69,17.53,12.6-1.07,20.92-6.56,21.83-5.19.91,1.37-.95,21.47-12.82,33.34ZM60.73,128.76c1.71-1.37,7.07-.11,12.31.8,5.24.91,4.1,11.62,3.53,12.65-.57,1.02-2.98.08-5.26-.61-2.28-.68-3.52-1.14-7.28-.91-3.76.23-5.24-.52-7.41-2.34-2.17-1.82,1.68-7.65,4.1-9.59ZM84.44,135.59c0-1.48,3.74-.62,5.45-.62s1.95,1.88,2.07,2.79c.11.91.81,2.26-.9,3.06-1.71.8-2.06,2.87-2.52,3.78-.46.91-1.82-1.6-2.62-2.73-.8-1.14-1.48-2.96-1.48-6.27ZM98.68,138.33c.21-.53,4.67-.23,5.7.11,1.03.34,1.82,3.53,1.6,4.33-.23.8-5.47.23-7.07-.34-1.6-.57-.92-2.39-.23-4.1ZM112.25,138.78c0-1.59,12.2-.23,13.11.11.91.34-.23,23.01-.8,24.61-.57,1.6-8.78-6.27-10.49-10.6-1.71-4.33-1.82-12.42-1.82-14.13ZM233.72,115.75c-12.04,1.77-23.39-6.49-27.38-13.01-5.74-9.35-2.4-15.29.36-18.16.9-.93,3.7-1.47,4.81-1.69,1.11-.22,9.97,11.68,11.3,12.56,1.33.88,3.19.18,4.3-.48,1.11-.66-.08-7.99-.52-9.87-.44-1.88-16.15-11.8-19.36-16.88-3.2-5.08-.62-17.84,5.46-21.04,6.08-3.2,20.79-.26,28.91,9.62,8.83,10.74,15.19,26.84,15.53,38.43.33,11.6-11.34,18.75-23.39,20.52Z"/>
  <path d="M279.59,43.79c-9.16-23.41-39.89-36.37-70.55-40.91C181.84-1.15,132.12-.23,100.68,1.32c-31.44,1.56-59.25,19.61-74.58,37.02-4.65,5.28-15.87,21.11-20.53,39.48C1.15,95.23-1.71,115.75,1.15,143.28c2.49,23.97,26.81,54.87,27.16,55.33.34.46-3.38,3.25-5.2,5.33-1.08,1.24-7.79,7.4-10.26,16.49-2.61,9.6-2.26,19.2,9.01,30,12.47,11.95,22.12,14.3,41.4,14.37,26.02.1,38.05-11.82,40.67-13.07,2.62-1.25,5.63,2.71,7.64,4.4,4.96,4.18,7.26,7.38,13.54,10.06,7.6,3.24,13.62,3.66,26.51,3.46,17.41-.26,30.49-13.18,33.45-14.2,2.96-1.02,7.58,4.62,11.19,7.28,4.22,3.11,14,13.53,46.22,6.78,36.62-7.68,35.05-39.47,31.15-49.34-3.9-9.87-12.95-15.52-17.54-16.84-1.95-.56,2.21-6.54,3.98-9.7,2.44-4.34,6.77-11.1,12.52-23.59,6.19-13.46,10.96-32,12.95-41.17,2.34-10.78,2.17-20.17,2.43-33.94.26-13.77-.17-30.22-8.36-51.13ZM80.47,254.63c-10.5,3.27-19.74,2.88-29.34.85-9.6-2.03-19.22-6.14-25.32-12.69-6.1-6.55-5.11-19.3-2.82-23.76,2.03-3.95,9.09-10.02,15.3-11.26,6.21-1.24,39.06,10.95,41.43,12.65,2.37,1.69-2.03,8.08-7.22,11.02s-21.1,2.3-22.37-.53c-1.28-2.85,1.6-4.74,2.5-5.98.9-1.24-.45-3.28-3.73-3.27-1.84,0-9.74,3.65-8.36,9.15,1.91,7.61,13.27,9.71,19.81,10.13,9.34.6,18.02-3.76,23.43-10.55,2.75-3.45,3.74-11,6.62-11.31,4.01-.43,11.5,1.46,14.1,11.4,2.6,9.93-13.53,20.89-24.03,24.16ZM182.59,235.95c-1.69,11.4-11.62,23.07-30.68,24.74-21.25,1.87-28.59-5.42-32.65-9.94-4.07-4.52-3.18-7.72-3.03-11.71.14-4.01-.06-8.18-3.38-14.3-.88-1.62,2.73-2.5,4.65-2.61,1.92-.11,13.36-.35,14.6.21,1.24.56,1.09,4.97,1.2,8.25.11,3.27,3.64,11.14,15.16,10.57,11.52-.57,14.81-18.29,15.37-19.53s17.39-1.31,18.97-1.2c1.58.11,1.48,4.11-.21,15.51ZM140.62,223.92c.45-1.02,13.26-1.49,14.39-.02,1.13,1.47-.18,9.2-3.56,10.29-2.55.83-7.02,1.98-10.55-.63-1.09-.81-1.16-7.67-.29-9.64ZM265.53,242.44c-3.22,7.3-10.61,17.05-30.94,20.55-20.33,3.5-35.42-7.12-39.38-13.78-3.95-6.66-2.72-21.98-.63-25.87,1.09-2.03,6.74-2.87,10.21-3.9,4.68-1.39,11.36-2.79,11.01-1.31-.94,4.03-2.05,4.93-2.61,13.89-.61,9.62,8.86,17.32,19.93,17.43,12.3.12,16.82-6.43,18.07-9.6.62-1.55,2.06-8.19-.79-10.05-1.62-1.06-2.41,5-3.99,7.15-1.44,1.96-1.74,5.74-13.26,5.85-11.52.11-15.17-12.32-11.89-18.76,3.28-6.44,14.23-14.23,30.83-12.08,16.6,2.14,16.52,23.46,13.43,30.49ZM275.82,130.94c-1.59,8.36-7.2,24.75-15.85,41.69-6.24,12.21-11.3,19.87-13.25,21.56-1.48,1.28-19.43,12.72-37.55,16.36-18.12,3.65-43.15,3.67-65.49,3.9-22.34.23-40.33.59-50.93-1.69-10.6-2.28-39.02-5.58-55.09-21.3-16.07-15.72-24.13-30.11-25.73-51.3-1.6-21.19.24-70.01,14.94-88.58,14.7-18.57,40.47-37.12,61.33-40.65,20.86-3.53,46.86-3.32,62.02-3.39,35.01-.18,82.47,2.47,106.58,22.3,20.58,16.94,21.12,40.31,21.23,49.53.11,9.23.78,35.85-2.21,51.56Z"/>
</svg>