<?xml version="1.0" encoding="UTF-8"?>
<svg id="Layer_1" xmlns="http://www.w3.org/2000/svg" version="1.1" viewBox="0 0 247.61 281.24">
  <!-- Generator: Adobe Illustrator 30.5.1, SVG Export Plug-In . SVG Version: 2.1.4 Build 3)  -->
  <defs>
    <style>
      .st0 {
        fill: #2d2e2d;
      }
    </style>
  </defs>
  <path class="st0" d="M87.38,34c1.09,2.4,1.9,4.99,2.37,7.73,4.59.76,9.19,1.37,13.8,1.95,23.03,2.9,46.28,4.63,69.5,4.47,9.3-.07,19.03-.29,28.75-1.18.36-.03.71-.07,1.08-.11,8.17-.79,16.32-2.08,24.14-4.19l1.37-.38h.01c6.37-1.79,12.51-4.15,18.27-7.23-.22-1.91-.51-3.85-.87-5.77-14.62,4.32-29.72,6.69-44.88,8.07-37.49,3.4-76.21,1.92-113.55-3.36Z"/>
  <path class="st0" d="M231.9,7.46c-1.07-.46-2.16-.87-3.26-1.28-.44,8.21-.87,16.41-1.3,24.6,6.01-1.15,11.97-2.56,17.87-4.26-2-8.29-5.81-15.84-13.31-19.06Z"/>
  <path class="st0" d="M224.9,31.23c.45-8.62.91-17.24,1.36-25.86-5.32-1.7-10.97-2.78-16.71-3.48-2.4,10.78-4.8,21.57-7.21,32.36,7.56-.69,15.1-1.68,22.56-3.02Z"/>
  <path class="st0" d="M200.56,49.91c-6.53.71-13.1,1.2-19.71,1.48.07,2.29.14,4.56.21,6.84,6.44-.28,12.97-.68,19.5-1.36v-6.96Z"/>
  <path class="st0" d="M12.23,171.15c1.94.2,3.88.31,5.81.38.46.02.92.03,1.38.05,6.06.17,12.09.06,18.16,1.14,7.44,1.32,17.93,7.56,24.29.74,5.76-6.17,2.76-18.92-5.33-21.87-3.76-1.37-8.24.02-11.29,2.44-1.77,1.4-1.85-1.48-.68-2.4,3.34-2.65,8.04-4.47,12.32-3.45,7.24,1.72,11.11,10.81,10.46,17.64-.53,5.52-3.92,10.81-9.13,12.99-3.41,1.43-6.84,1.15-10.31.11-5.21-1.55-10.23-2.98-15.63-3.67-4.7-.59-9.43-.79-14.17-.86-1.68,1.14-1.62,4.25-1.64,6.04-.01.98.02,1.97.1,2.95.01.11.05.46.08.76,3.72.44,7.45,2.36,10.81,4.4,8.99,5.46,17.26,11.94,26.99,16.12,3.45,1.48,13.13,3.11,6.04,7.06-7.96,4.42-18.28,6.29-26.97,8.78-5.14,1.48-16.27,6.64-23.08,4.6.26,5.17,1.31,10.43,3.13,15.23,1.68,4.46,4.25,8.92,8.35,11.53,5.23,3.33,11.5,2.33,17.4,2.37,11.46.06,24.81.16,35.07,6.04,6.47,3.7,8.84,10.83,15.63,14.17,8.03,3.95,17.57,4.94,26.37,5.71,13.25,1.15,26.62,1.17,39.91,1.07,20.18-.15,43.78.67,61.93-9.73,17.15-9.84,19.94-29.17,18.77-47.27-3.4,8.02-8.22,15.35-15.36,20.12-10.1,6.75-26.41,6.39-37.99,4.29-35.34-6.44-34.48-55.21-34.54-82.48-.09-10.17,1.12-20.54,3.11-30.49,2.68-13.34,7.26-27.93,16.7-38.21-8.07,1-16.18,1.51-24.29,1.51-14.13,0-28.25-1.56-42.07-4.86-6.92-1.65-13.73-3.72-20.39-6.24-1.63-.61-7.06-3.56-8.04-3.39,0,0-.01-.01-.02,0-5.22,4.73-11.69,8.11-19.47,9.42-.03,0-.06,0-.09.01-1.15,6.33-5.76,11.94-11.31,14.95-5.95,3.23-12.79,3.7-18.57,7.49-6.64,4.36-11.42,10.95-15.8,17.44-5.04,7.49-10.31,14.97-8.54,24.52,1.15,6.22,5.22,12.15,11.88,12.85ZM88.77,200.85c-.28.14-.68.3-1.29.45-7.16,1.64-5.96-3.76-5.24-8.41.8-5.15,2-10.24,3.24-15.3,1.03-4.25,2.14-8.48,3.29-12.7.28-.98.52-1.99.82-2.98,1.39-.52,3.42-1.29,3.5,1.11-.77,6.84-1.54,13.68-2.31,20.52-.51,4.55-1.02,9.1-1.53,13.64-.12,1-.61,2.57-.48,3.65ZM104.97,201.84c-1.14-.02-3.63.39-4.61-.17-.1-.06-.17-.09-.23-.11-.05-.31.01-.77-.01-.97-.56-3.01.09-6.69.23-9.72.21-4.47.47-8.93.76-13.39.35-5.27.71-10.54,1.11-15.8,1.02-.62,2.62-.59,3.57.1.18.78-.12,2.16-.14,2.87-.1,4.11-.21,8.22-.31,12.32-.16,6.41-.32,12.83-.48,19.24-.01.36.21.9.64.88,3.26-.09,6.53-.18,9.79-.29.54-.01,3.14.2,3.03-.24.36.57.71,2.39.76,2.7.21,1.31.43,1.68.49,1.75-.08-.06-.4-.21-1.18.29-2.8,1.78-10.17.61-13.43.54ZM131.3,128.22c-12.91,13.5-32.98,19.77-51.47,17.35-1.53-.21-.14-3.33,1.18-3.16,17.35,2.28,36.84-3.24,49.01-15.99,1.59-1.64,2.52.51,1.28,1.79ZM58.84,108.66c9.15-9.37,24.02-12.6,36.42-9.37,11.28,2.94,21.02,9.53,32.95,10.45,3.38.25,7.84.45,10.93-1.31,1.77-.99,1.2,2.21.06,2.85-5.5,3.1-12.81,2.52-19.77.7-6.48,11.94-19.79,22.24-33.77,21.06-12.71-1.07-19.98-13.97-21.9-25.5-1.53,1.05-2.96,2.22-4.23,3.52-1.57,1.6-1.68-1.38-.68-2.4Z"/>
  <path class="st0" d="M228.37,51.95c6.57-1.78,12.96-4.03,19.05-6.93-.09-2.26-.23-4.71-.46-7.24-5.79,3.09-11.94,5.39-18.27,7.15-.11,2.34-.22,4.68-.32,7.02Z"/>
  <path class="st0" d="M164.37,35.79c2.52,0,5.04-.02,7.57-.05,4.32-11.8,8.63-23.59,12.95-35.39-1.15-.03-2.29-.07-3.4-.1-6.05-.21-12.1-.28-18.17-.24-5.06,11.85-10.12,23.7-15.18,35.54,5.4.16,10.81.24,16.23.24Z"/>
  <path class="st0" d="M117.93,48.95c-5.61-.62-11.17-1.32-16.7-2.11-.37,2.87-.72,5.73-1.08,8.6.91.09,1.82.2,2.72.29,4.69.46,9.38.86,14.08,1.23.32-2.67.64-5.33.98-8Z"/>
  <path class="st0" d="M98.28,32c6.49.72,13.01,1.34,19.52,1.86,7.87-11.04,15.73-22.1,23.6-33.15-7.01.43-14.01,1.06-20.97,1.9-8.42,9.68-16.85,19.36-25.27,29.04,1.03.11,2.07.24,3.11.36Z"/>
  <path class="st0" d="M200.02,34.46c2.44-10.94,4.87-21.89,7.3-32.83-6.77-.74-13.63-1-20.19-1.21-4.3,11.77-8.61,23.52-12.91,35.29,8.58-.15,17.21-.53,25.8-1.25Z"/>
  <path class="st0" d="M15.74,80.81c10.77,9.72,28.5,12.72,42.36,9.39,17.86-4.31,26.98-20.33,29.5-37.46,2.38-21.26-15.73-35.57-35.3-37.91-16.19-1.95-32.63,4-40.74,18.78-7.96,14.48-8.87,35.41,4.18,47.21ZM32.87,71.48c-.01.2-.06.43-.16.7-1.1,2.96-4.01,5.39-7.32,4.59-3.23-.77-4.71-3.85-3.96-6.96.78-3.22,3.72-5.54,7.09-4.82,3.15.68,5,3.38,4.36,6.49ZM56.9,79.03c-.01.2-.07.43-.16.7-1.1,2.96-4.02,5.39-7.32,4.59-3.24-.77-4.71-3.85-3.96-6.96.77-3.22,3.72-5.54,7.08-4.82,3.15.68,5.01,3.38,4.37,6.49ZM69.26,36.99c.77-3.22,3.72-5.55,7.08-4.83,3.15.68,5.01,3.39,4.37,6.5-.01.2-.07.43-.16.69-1.1,2.96-4.02,5.39-7.32,4.6-3.24-.78-4.71-3.86-3.96-6.96ZM74.17,59.04c3.16.69,5.01,3.39,4.37,6.5-.01.2-.07.43-.16.7-1.1,2.95-4.01,5.38-7.32,4.59-3.23-.78-4.71-3.86-3.96-6.96.77-3.22,3.72-5.55,7.08-4.83ZM50.14,22.07c.77-3.22,3.72-5.55,7.08-4.83,3.15.69,5.01,3.39,4.36,6.5-.01.2-.06.43-.16.7-1.09,2.95-4.01,5.38-7.32,4.59-3.23-.78-4.71-3.85-3.95-6.96ZM49.11,30.47c11.99-.92,18.82,7.72,19.24,18.93.02.1.03.22.02.37.01.08,0,.16-.02.25-.57,10.72-8.52,19.92-19.63,20.38-11.76.49-20.51-8.31-20.03-20.04.45-10.96,9.8-19.07,20.42-19.88ZM24.18,27.18c.78-3.23,3.72-5.55,7.09-4.83,3.15.68,5,3.38,4.36,6.49-.01.2-.06.44-.16.7-1.1,2.96-4.01,5.39-7.32,4.59-3.23-.77-4.71-3.85-3.96-6.95ZM12.06,49.38c.77-3.22,3.72-5.55,7.08-4.83,3.15.68,5.01,3.39,4.35,6.5,0,.2-.06.43-.15.69-1.1,2.97-4.02,5.39-7.32,4.6-3.24-.78-4.72-3.86-3.96-6.96Z"/>
  <path class="st0" d="M145.91,35.47c5.05-11.81,10.09-23.63,15.15-35.44-5.68.07-11.34.24-17.01.55h0c-7.94,11.17-15.88,22.32-23.82,33.48,8.55.65,17.11,1.13,25.68,1.41Z"/>
  <path class="st0" d="M157.85,51.65c-5.91-.11-11.83-.38-17.73-.76-.25,2.46-.52,4.92-.77,7.38,6.17.24,12.33.37,18.5.39v-7.01Z"/>
  <path class="st0" d="M85.48,30.4c2.37.36,4.75.65,7.11.94,8.23-9.46,16.47-18.92,24.7-28.36-.15.01-.3.03-.46.05-9.29,1.23-19.49,2.42-28.09,6.39-4.54,2.09-11.1,6.44-10.96,12.26,3.05,2.48,5.65,5.4,7.7,8.72Z"/>
  <path class="st0" d="M84.45,70.43c-2.02,4.14-4.54,7.96-7.57,11.28,1.67.61,3.53,1.77,4.62,2.21,6.26,2.49,12.69,4.55,19.21,6.23-2.45-6.06-4.88-12.12-7.33-18.19-2.99-.45-5.96-.95-8.93-1.53Z"/>
  <path class="st0" d="M125.67,94.7c-2.13-6.69-4.25-13.37-6.38-20.04-7.52-.48-15.03-1.15-22.48-2.18,2.48,6.19,4.98,12.38,7.47,18.56,7.06,1.65,14.2,2.87,21.39,3.67Z"/>
  <path class="st0" d="M172.58,93.94c.28-.24.53-.48.82-.71,3.7-3.03,8-5.13,12.6-6.44-2.1-4.14-4.21-8.27-6.3-12.42-10.07.8-20.16,1.21-30.25,1.23,1.64,6.68,3.3,13.34,4.94,20.01,6.08-.28,12.15-.83,18.19-1.67Z"/>
  <path class="st0" d="M222.66,89.97c1.2.51,2.32,1.09,3.42,1.7,1.99-.16,4.26-.62,6.48-1.34-4.68-7.06-9.37-14.11-14.04-21.17-11.74,2.25-23.6,3.88-35.52,4.94,2.02,3.99,4.05,7.96,6.07,11.95,11.16-2.29,23.65-.34,33.59,3.92Z"/>
  <path class="st0" d="M89,57.46c-.77,3.39-1.83,6.7-3.14,9.86,2.91.56,5.83,1.06,8.77,1.51.23-.07.44-.05.62.09,13.22,1.97,26.68,2.84,39.96,3.29,15.24.53,30.53.22,45.74-1,.14-.06.26-.07.38-.03,22.35-1.83,44.53-5.65,66.11-11.85.21-3.83.22-7.67.09-11.47-12.11,5.75-25.36,8.79-38.58,10.76-39.25,5.84-80.65,4.11-119.95-1.15Z"/>
  <path class="st0" d="M241.54,117.85c-3.87-15.13-14.95-24.7-30.17-27.8-16.92-3.46-33.68-1.63-44.3,13.12-12.14,16.86-15.64,41.19-15.45,61.59h0c.05,20.93-.28,46.03,10.54,64.79,6.47,11.22,17.23,16.02,29.81,16.71,13.13.72,27.03.23,35.96-10.71,3.8-4.67,6.62-10.09,8.75-15.86.21-.56.41-1.14.61-1.71h.01c2.99-8.75,4.5-18.16,5.61-26.86,1.74-13.56,2.23-27.39,1.52-41.04-.55-10.7-.21-21.79-2.88-32.23ZM234.61,181.71c-.83,12.7-2.59,26.52-8.72,37.89-5.98,11.04-15.23,13.17-26.98,13.07-9.43-.08-18.17-2.7-23.55-10.94-9.04-13.84-8.63-33.64-8.68-49.44,0-15.86,2.28-33.28,9.03-47.73,5.55-11.86,14.35-18.39,27.69-17.3,12.92,1.06,23.2,7.93,27.59,20.29,3.23,9.1,3.24,18.78,3.55,28.32.28,8.64.63,17.18.06,25.83Z"/>
  <path class="st0" d="M235.63,89.11c2.17-1.02,4.14-2.32,5.52-3.88,2.22-2.54,3.19-6.25,3.98-9.43,1.09-4.4,1.75-8.92,2.11-13.48-8.35,2.41-16.79,4.46-25.29,6.18,4.56,6.87,9.13,13.74,13.69,20.62Z"/>
  <path class="st0" d="M151.46,95.71c-1.65-6.71-3.32-13.41-4.98-20.12-3.61-.02-7.23-.07-10.84-.17-4.4-.14-8.83-.32-13.26-.56,2.14,6.72,4.29,13.45,6.42,20.17,7.53.69,15.09.91,22.65.69Z"/>
  <path class="st0" d="M28.78,218.92c4.67-1.31,9.32-2.65,13.96-4.06,4.09-1.23,8.18-2.48,12.23-3.88,1.17-.4,2.34-.82,3.49-1.28-.22-.06-.52-.13-.95-.22-1.01-.21-2.21-.79-3.19-1.2-2.32-.93-4.59-2-6.8-3.15-3.71-1.93-7.29-4.14-10.79-6.44-5.72-3.73-11.45-8.47-17.97-10.74-2.87-.99-7.68-1.74-10,.93-2.87,3.29-2.1,6.03,1.29,7.42,9.31,1.78,18.77,3.87,27.5,7.65,2.21.95,7.43,2.76,8.46,5.36,2.83,7.14-25.76,7.67-30.41,7.4-1.45-.08-5.46-1.05-6.75-.2-2.72,1.78,1.38,4.86,3.47,5.38,5.14,1.29,11.55-1.61,16.47-2.99Z"/>
  <path class="st0" d="M25.11,203.09c-2.34-.65-4.71-1.24-7.09-1.77-.02,1.07-.1,2.18-.29,3.25,2.46.25,4.92.51,7.38.76v-2.24Z"/>
  <path class="st0" d="M13,206.21c.37.03,1.51-.1,1.94,0,.01-.25.2-.8.23-.95.14-.77.21-1.56.26-2.34.06-.7.07-1.41.09-2.13-2.29-.47-4.56-.92-6.81-1.34-.06-.01-.1-.03-.16-.06-.17,2-.34,4-.52,6,.84.17,1.68.34,2.52.49.82.13,1.63.25,2.45.33Z"/>
  <path class="st0" d="M89.7,128.82c7.12-.75,12.04-6.63,12.57-13.54.02-.11.03-.22.03-.32.01-.22-.01-.37-.06-.49-1.45-16.82-27.09-14.72-26.95,1.87.06,7.58,6.95,13.27,14.4,12.48ZM99.81,116.34c-.76,13.55-22.2,11.39-22.03-1.38.18-13.68,21.32-11.24,22.03,1.38Z"/>
  <path class="st0" d="M89.55,121.23c3.47-.38,5.71-3.53,6.01-6.79.01-.11.03-.22.02-.31.01-.13-.01-.22-.03-.31-.31-3.24-2.87-5.86-6.32-5.4-3.36.45-5.92,3.77-5.88,7.09.03,3.33,2.82,6.08,6.21,5.72Z"/>
  <path class="st0" d="M203.74,155.61c.4-3.1.66-6.25.75-9.38.12-3.73.61-10.22-2.16-13.3-5.3-5.9-9.34,6.44-10.23,9.63-3.21,11.72-4.25,24.19-4.9,36.28-.3,5.6-.49,11.24-.14,16.84.24,3.79.54,7.88,3.73,10.49,3.61,2.95,8.96,1.54,10.74-2.77,1.2-2.88.54-6.68.54-9.7,0-2.17,0-4.34.01-6.52,9.93.46,23.04-2.53,24.49-13.99,1.49-11.84-13.39-16.4-22.85-17.59Z"/>
  <path class="st0" d="M48.27,63.03c6.62-.72,10.93-6.48,11.4-12.81.02-.1.03-.21.02-.31.01-.21-.01-.36-.05-.48-1.32-14.82-24.83-12.33-24.28,2.42.25,6.93,5.95,11.95,12.91,11.18ZM57.21,51.29c-.66,12.17-19.27,10.73-19.36-.82-.09-11.54,18.77-10.07,19.36.82Z"/>
</svg>