<?xml version="1.0" encoding="UTF-8"?>
<svg id="Layer_1" data-name="Layer 1" xmlns="http://www.w3.org/2000/svg" xmlns:xlink="http://www.w3.org/1999/xlink" viewBox="0 0 428.53 527.88">
  <defs>
    <style>
      .cls-1 {
        fill: none;
      }

      .cls-2 {
        fill: #a53b28;
      }

      .cls-3 {
        clip-path: url(#clippath-1);
      }

      .cls-4 {
        clip-path: url(#clippath);
      }
    </style>
    <clipPath id="clippath">
      <rect class="cls-1" y="0" width="428.53" height="527.88"/>
    </clipPath>
    <clipPath id="clippath-1">
      <rect class="cls-1" y="0" width="428.53" height="527.88"/>
    </clipPath>
  </defs>
  <g id="Ox">
    <g class="cls-4">
      <g class="cls-3">
        <path class="cls-2" d="M119.95,460.73l5.8,1.13c-1.05,3.72-2.31,7.31-3.76,10.8-1.46,3.49-3.05,6.74-4.78,9.75-1.73,3.01-3.55,5.7-5.46,8.06-.4-.3-.93-.65-1.58-1.05-.65-.4-1.32-.78-2-1.13-.68-.35-1.27-.63-1.77-.83,2-2.16,3.85-4.65,5.53-7.49,1.68-2.83,3.21-5.9,4.59-9.18,1.38-3.29,2.52-6.64,3.42-10.05M106.4,495.96h67.6v5.57h-67.6v-5.57ZM118.67,472.47h51.11v5.5h-52.77l1.66-5.5ZM138.01,458.7h5.95v69.18h-5.95v-69.18Z"/>
        <path class="cls-2" d="M209.31,498.46c0-6.88,2.73-10.69,2.98-10.84.44-.24,2.1-.29,3.22-.29h.93c0-6.98,6.01-8.54,8.79-8.54,9.28,0,13.57,6.01,13.57,17.09,0,7.86-2.83,17.33-15.23,17.33-10.4,0-14.25-7.08-14.25-14.74M225.67,484.01c-2.78,0-4.05,2-4.05,3.71,0,4.49,4.39,9.42,4.39,9.42,0,.44-2.39,1.61-4.68,1.61-.34,0-3.22-3.12-4.2-7.86-.39.44-1.61,2.69-1.61,7.32,0,5.37,3.37,9.91,8.1,9.91,7.47,0,8.89-6.64,8.89-12.64,0-8.59-2.98-11.47-6.84-11.47"/>
        <path class="cls-2" d="M243.63,512.67c-.24.34-.64.68-.73.68-4.39,0-6.44-2.05-6.44-2.25,0-.05,0-.15.39-.49,3.03-3.08,7.37-9.47,11.42-15.77-2.98-5.37-5.61-10.06-6.64-10.94-.39-.34-1.95-1.12-3.12-1.12-.05-.1-.05-.25-.05-.39,0-.93.63-2.54.83-2.73.19-.19,2.64-.63,6.69-.63.39,0,.73.1.78.15.2.15,2.34,4.49,5.17,9.91,3.66-5.76,6.54-10.3,7.18-10.3,2.98,0,5.96,2.25,5.96,2.78-2.78,2.34-6.49,7.57-10.11,13.08,3.95,7.03,8.45,14.3,11.57,16.6,0,.73-3.86,3.12-6.39,3.12h-.2c-1.66-1.61-5.08-7.67-8.59-14.01-3.42,5.47-6.35,10.4-7.71,12.3"/>
        <path class="cls-2" d="M211.82,15.67c5.14.08,9.46,1.16,10.09,1.75,1.66,1.56-16.06,3.41-16.28,10.91-.1,3.32,21.75,20.36,23.31,38.43-.08,7.06-.85,13.28-9.78,19.21-3.29-4.03-12.89-12.68-15.71-14.89.91-.19,1.72-.45,2.58-1.06,4.32,3.37,11.96,5.16,16.77,2.36-4.34.07-9.91-.03-15.03-4.4.87-1.66.93-3.34.7-5.17,3.47.55,7.04.2,10.83-1.34,1.44-.63,2.78-1.52,3.85-2.66-1.5.47-2.88.96-4.31,1.31-4.05,1.03-8.13.74-10.88-.1-.53-1.8-1.5-3.64-2.71-5.52,3.77-.32,8.8-1.87,10.71-5.09-1.2.52-2.28.98-3.4,1.38-4.05,1.57-7.66,1.22-9.16,1.02-1.07-1.48-2.22-3-3.36-4.54,3.62-.52,7.99-2.27,9.81-4.95-4.21,2.32-8.29,3.16-11.11,3.15-1.02-1.43-2-2.88-2.87-4.37,3.15-.77,6.44-2.36,7.95-4.59-3.27,1.8-6.36,2.65-8.84,2.97-.9-1.74-1.63-3.53-2.07-5.37,2.86-.02,5.83-.63,7.68-2.12-2.34.5-5.27.71-8,.47-.14-1.01-.2-2.03-.14-3.06.06-1.2.24-2.3.51-3.31,2.76.86,5.85,1.19,8.16.25-2.95-.24-5.53-.93-7.64-1.78.9-2.22,2.31-3.92,4.04-5.21,1.89,1.5,4.06,2.64,6.13,2.76-1.95-1.13-3.53-2.38-4.84-3.61,1.66-.97,3.52-1.65,5.46-2.1,1,1.67,2.25,3.12,3.73,3.92-.98-1.42-1.76-2.83-2.38-4.19,1.67-.29,3.37-.42,5.01-.45.31,1.11.76,2.11,1.39,2.93-.12-.65-.19-1.7-.2-2.92M199.3,229.68c-5.23,0-8.59-2.91-8.73-3.04.01-.78,2.84-5.91,9.45-7.1.55-.1,1.18-.11,1.77-.15-.53-.29-1.05-.59-1.54-.93-5.51-3.84-5.93-9.68-5.94-9.92.38-.49,1.66-.87,3.59-.87,2.04,0,5.1.44,8.1,2.53-.25-7.21,3.58-11.63,3.75-11.82.78.02,5.91,2.84,7.1,9.45,4.92-5.27,10.76-5.69,11-5.71.54.57,2.18,6.19-1.66,11.7,1.43.78,2.27.71,3.09.71,5.23,0,8.58,2.91,8.73,3.04-.02.78-2.84,5.91-9.45,7.09-.55.1-1.18.11-1.78.15.53.29,1.05.59,1.54.93,5.51,3.84,5.93,9.67,5.94,9.92-.38.49-1.66.87-3.59.87-2.04,0-5.1-.44-8.1-2.53.25,7.21-3.58,11.63-3.75,11.82-.78-.02-5.91-2.84-7.09-9.45-4.92,5.27-10.76,5.69-11,5.71-.54-.56-2.18-6.19,1.66-11.7-1.42-.78-2.26-.71-3.09-.71M205.08,223.81c.34,1.86-1.88,5.1-.57,6.64,1.31,1.54,4.86-.14,6.64.49,1.84.65,3.55,4.17,5.46,3.82,1.86-.34,2.21-4.2,3.75-5.51s5.41-1.04,6.04-2.82c.65-1.83-2.55-4.09-2.9-6-.34-1.86,1.89-5.1.57-6.64-1.31-1.54-4.86.14-6.64-.49-1.84-.65-3.55-4.17-5.46-3.82-1.86.34-2.21,4.2-3.75,5.51s-5.41,1.04-6.04,2.82c-.65,1.83,2.55,4.09,2.9,6M302.14,255.99c-.25-1.02,1.38-6.33,7.28-8.7-5.84-3.03-7.35-8.38-7.41-8.6.43-.85,2.75-2.08,6.07-2.08,1.8,0,3.55.36,5.22,1.08-1.98-6.27.73-11.12.84-11.32,1.02-.25,6.33,1.38,8.7,7.28,3.04-5.84,8.38-7.35,8.6-7.41.9.54,3.5,5.45,1,11.29,1.96-.25,3.62-.57,5.31-.57,3.49,0,5.91,1.36,6.01,1.42.25,1.02-1.38,6.33-7.28,8.7,5.84,3.03,7.35,8.38,7.41,8.6-.43.85-2.75,2.08-6.07,2.08-1.79,0-3.55-.36-5.22-1.08,1.98,6.27-.73,11.12-.85,11.32-1.02.25-6.33-1.38-8.69-7.28-3.04,5.84-8.38,7.35-8.6,7.41-.91-.54-3.5-5.45-1-11.29-1.96.25-3.62.57-5.32.57-3.49,0-5.91-1.36-6.01-1.42M311.13,248.65c.23,1.86,3.84,2.37,4.9,3.76,1.09,1.44.63,5.04,2.29,5.74,1.61.68,3.85-2.13,5.71-2.36,1.86-.23,4.72,1.95,6.12.89,1.44-1.09.1-4.46.81-6.13.68-1.61,4.06-2.99,3.82-4.85s-3.84-2.37-4.9-3.76c-1.09-1.44-.63-5.04-2.29-5.74-1.61-.68-3.85,2.13-5.71,2.36-1.86.23-4.72-1.95-6.12-.89-1.44,1.09-.11,4.46-.81,6.13-.68,1.61-4.06,2.99-3.83,4.85M123.02,215.53c-.17.21-4.26,5.27-11.72,5.27,4.94,6.07,4.25,12.54,4.22,12.81-3.51.65-8.48.2-12.62-3.94-.8,7.79-5.86,11.88-6.08,12.05-1.08-.17-6.13-4.26-6.13-11.71-4.95,3.81-9.92,4.26-11.86,4.26-1.6-.92-2.28-7.4,2.99-12.66-7.79-.8-11.88-5.86-12.05-6.08.17-1.08,4.26-6.14,11.71-6.14-4.93-6.07-4.25-12.54-4.22-12.82,3.5-.65,8.47-.2,12.62,3.95.8-7.79,5.86-11.88,6.08-12.05,1.08.17,6.14,4.26,6.14,11.71,4.95-3.82,9.92-4.27,11.86-4.27,1.59.92,2.28,7.4-2.99,12.66,7.79.8,11.88,5.86,12.05,6.08.34.43,0,.86,0,.86M106.67,215.05c0-2.07,3.02-5.14,1.9-7.05-1.12-1.92-5.28-.79-7.08-1.81-1.86-1.06-3.02-5.18-5.16-5.18-2.07,0-3.2,4.11-5.11,5.22-1.92,1.12-6.04.08-7.06,1.88-1.06,1.86,1.96,4.9,1.97,7.04,0,2.07-3.02,5.14-1.9,7.05,1.12,1.92,5.28.79,7.08,1.81,1.85,1.06,3.02,5.18,5.16,5.18,2.07,0,3.19-4.11,5.11-5.22,1.92-1.12,6.04-.08,7.06-1.88,1.06-1.86-1.96-4.9-1.97-7.04M220.35,87.49c3.14,4.3,3.98,8.44,3.75,11.83,14.14-2.83,23.39-12.14,22.05-13.79-1.59-1.95-4.93.17-17.11-6.49-2.02,3.41-5.21,6.5-8.68,8.45M423.95,415.48c.92,5.26,5.49,10.08,2.96,11.37-3.71,1.89-38.85,3.23-39.13-1.08,2.29-11.85,10.2-14.92,12.49-29.99,1.39-9.16-6.83-42.17-19.03-48.48-11.24-5.82-24.22-8.94-39.25-13.07-5.56-1.6-11.26-2.96-16.67-4.77-28.01-9.55-54.1-37.32-47.8-66.87-13.96,27.47,14.23,61.16,44.38,71.75,6.95,2.38,13.28,4.1,19.24,5.62,1.99,8,2.99,18.11,2.98,28.15-.02,11.6.86,19.11,8,24.77,7.14,5.65,4.94,9.76-.86,14-.92.67-1.55,1.38-2.02,2.12-2.72,1.53-5.67,2.83-8.69,4.03-3.05,1.25-6.19,2.33-9.33,3.56,3.36-.15,6.72-.49,10.04-1.15,2.41-.43,4.8-1.04,7.17-1.83.82,4.69,5.3,9.24,2.83,10.5-3.71,1.88-38.85,3.23-39.13-1.08,2.29-11.85,12.28-16.69,14.57-31.77,1.39-9.16-2.55-34.41-13.98-41.95-10.72-7.07-32.74-8.27-52.51-21.18-18.36-11.99-19.86-23.32-26.05-27.98,7.62-4.27,15.24-10.2,20.18-15.85-9.54,3.83-24.97,10.56-34.49,14.36-14.21,5.55-28.23,9.59-41.76,11.77,1.24-9.33,1.26-20.44-.97-33.1-1.96,25.53-5.66,37.92-8.62,45.93-5.52,13.65-7.9,20.14-11.07,28.37-5.31,13.75-14.74,35.47-8.53,45.59,2.46,4.01-.7,6.27-2.43,9.23-3.09,2.8-5.53,4.64-7.99,6.48-2.46,1.85-4.99,3.64-7.46,5.6,2.98-.97,5.9-2.1,8.74-3.43,1.97-.89,3.89-1.93,5.78-3.06,1.13,4.98,6.77,9.01,6.12,13.12-.5,3.16-33.61,4.5-36.66.65-1.91-2.41.85-9.28,4.81-14.94,4.33-6.19,10.29-29.87,9.94-35.55-.63-10.2-6.94-15.48-8.24-23.15-3.97-23.28-11.65-34.59-15.23-48.19-.34-1.37-.5-2.04-.65-2.72-.3-1.41-.48-2.41-.64-3.43-2.57-12.75-3.29-28.54,3.37-46.52-8.62,13.07-10.87,28.39-9.76,42.03-4.25-3.16-8.23-6.47-11.9-9.92-19.02,1.16-40.15,2.72-44.42,4.08-3.58,1.14-6.82,4.68.86,13.48,9.34,9.13,14.95,12.12,25.69,8.11,8.66-3.23,8.86-1.08,11.35,1.67,1.45,1.93,1.78,2.89,2.06,3.88,1.44,4.97,2.18,10.4,3.58,15.73.4-2.73.63-5.46.74-8.2.11-2.75.04-5.52-.32-8.35,2.92-1.42,5.85-3.58,8.72-1.9,3.51,2.05,5.5,26.37-.51,30.04-3.86,2.35-19.73-1.46-37.05-10.21-9.01-4.55-17.52-9.86-25.5-16.23-21.76-15.6-36.38-35.76-30.65-45.04,6.76-10.93,35.67-25.86,47.64-31.7,6.52,12.22,15.38,25.82,20.75,28.52-5.84-8.19-11.16-20.11-15.52-31.01-7.07-16.99-9.61-32.64-9.06-42.54,2.27-40.81,24.81-68.03,56.89-94.31,6.68,1.07,14.72.77,19.26-.15-5.98-1.65-10.72-1.72-16.29-3.68-15.53-6.67-22.9-21.05-20.9-22.31,2.37-1.49,5.16,2.51,23.41-1.72,1.63,2.77,3.48,5.45,5.6,7.92,2.56,2.99,5.45,5.69,8.51,8.13,3.02,2.48,7.18,4.79,11.16,5.68-1.93-4.16-5.21-5.99-8.22-8.27-3.01-2.26-5.9-4.67-8.52-7.35-1.95-1.96-4.06-4.76-5.6-7.16-8.6-13.96-2.75-31.94,15.5-37.54,11.12-3.41,25.9-2.53,37.78-12.4,10.97-9.11-8.49-18.35-7.81-20.18.38-1.01,8.21-.06,14.81,3.81-1.45.46-2.46.67-3.59.72,1.01.57,2.23.58,3.35.48,3.14.69,4.53,1.87,5.71,3.22-1.9.61-2.91.82-4.03.88,1.01.57,2.23.58,3.35.48,2.6,1.17,3.41,2.83,3.87,4.68-1.32.26-2.38.32-3.42.24-1.05-.05-2.08-.18-3.16-.51.76.87,1.91,1.29,3,1.57,1.12.24,2.26.33,3.42.28.59,1.16.61,2.45.42,3.82-.12.88-.33,1.74-.59,2.59-2.12-.47-3.1-.86-4.02-1.37-.94-.48-1.81-1.03-2.66-1.78.33,1.11,1.2,1.97,2.07,2.68.91.69,1.92,1.25,2.99,1.69.35,2.15-.71,3.88-1.99,5.53-.9-.21-1.81-.66-2.67-1.17-.88-.53-1.71-1.19-2.44-1.94-.76-.74-1.43-1.52-2.02-2.48,0,1.16.57,2.23,1.2,3.17.67.92,1.47,1.76,2.37,2.49.69.57,1.47,1.02,2.32,1.4-1.72,1.91-3.78,3.69-6.1,5.29-.81-.36-1.58-.92-2.31-1.54-.78-.67-1.48-1.47-2.07-2.33-.62-.85-1.15-1.74-1.57-2.78-.2,1.14.18,2.3.65,3.33.51,1.03,1.15,1.98,1.91,2.85.5.58,1.09,1.09,1.73,1.56-2.15,1.34-4.47,2.53-6.92,3.54-.7-.5-1.33-1.16-1.92-1.88-.64-.81-1.18-1.72-1.6-2.67-.45-.95-.81-1.92-1.03-3.03-.41,1.08-.24,2.29.02,3.39.31,1.1.76,2.16,1.35,3.16.37.63.83,1.22,1.34,1.78-2.64.98-5.4,1.75-8.21,2.3-1.56-.35-2.24-1.08-2.87-1.86-.64-.81-1.18-1.71-1.6-2.67-.45-.95-.81-1.92-1.03-3.03-.41,1.08-.24,2.29.02,3.39.31,1.1.76,2.16,1.35,3.16.33.57.73,1.11,1.18,1.62-2.87.62-5.23,1.25-7.18,1.9-.77-.51-1.46-1.24-2.09-2.03-.64-.81-1.18-1.71-1.6-2.67-.45-.95-.81-1.92-1.03-3.02-.41,1.08-.24,2.29.02,3.39.31,1.1.76,2.16,1.35,3.16.39.67.88,1.29,1.43,1.88-1.63.65-2.9,1.33-3.79,2.05-1.46-.47-2.54-1.04-3.61-1.64-1.07-.61-2.08-1.35-3.02-2.16-.95-.81-1.87-1.61-2.76-2.62.16,1.36.91,2.58,1.73,3.62.87,1.03,1.83,1.97,2.88,2.82.96.79,2.02,1.45,3.17,2.02-1.77,1.62-3.51,2.04-5.29,2.2-2.42.25-4.81-.16-7.43-.17,2.18,1.52,4.82,2,7.45,2.2,1.33.1,2.68,0,4.03-.25,1.59.37,1.98,1.15,2.47,1.97-1.18,1.39-2.77,2.54-4.56,3.4-2.09,1.05-4.41,1.44-6.79,2.35,2.49.65,5.04.24,7.51-.46,1.92-.58,3.81-1.58,5.38-3.05,1.37,1.88,2.97,3.56,4.74,5.04-1.18,1.42-2.79,2.6-4.62,3.47-2.09,1.05-4.41,1.44-6.79,2.35,2.49.65,5.04.24,7.51-.46,2.17-.66,4.3-1.83,5.96-3.64.82.73,1.65,1.45,2.48,2.15,1.13.96,2.28,1.9,3.43,2.83-.54.57-1.11,1.12-1.71,1.65-1.05.93-2.21,1.75-3.38,2.55-2.39,1.59-4.94,2.71-7.77,3.7,1.5.31,3.07.11,4.53-.28,1.46-.42,2.88-.99,4.25-1.66,1.38-.66,2.67-1.47,3.92-2.36.79-.57,1.53-1.22,2.24-1.93,2.12,1.71,4.22,3.43,6.18,5.24-.46,1.19-1.39,2.11-2.36,2.96-1.05.93-2.21,1.75-3.38,2.55-2.39,1.59-4.94,2.71-7.77,3.7,1.5.31,3.07.11,4.53-.28,1.46-.42,2.88-.99,4.25-1.66,1.38-.66,2.67-1.47,3.92-2.36,1.05-.76,2.03-1.65,2.94-2.7,1.17,1.33,1.83,2.26,2.17,3.24.78,2.04.44,4.26-.88,6.14-1.29,1.9-3.25,3.44-5.37,4.64-1.06.61-2.2,1.11-3.36,1.49-1.15.35-2.4.67-3.5.49,1.17,1.26,2.53,1.06,3.84.82,1.3-.28,2.58-.68,3.8-1.21,2.44-1.07,4.76-2.6,6.5-4.85.86-1.12,1.52-2.48,1.82-3.95.31-1.48.12-3.04-.34-4.43-.47-1.45-1.32-2.66-2.16-3.71-.87-1.06-1.81-2-2.77-2.9-3.34-3.1-6.92-5.75-10.51-8.34,9.8-2.17,16.48-1.83,20.44-2.17,11.07-.96,17.59-1.13,22.47.09,7.17,3.05,13.72,8.19,20.12,15.17,5.88,6.44,9.48,11.19,9.95,18.93.04,2.39-.16,4.45-.83,6.43-1.02,3.87-.99,7.78-.37,10.19,3.5,13.6,9,18.11,10.74,19.77-1.61.88-3.5,2.02-5.23,4.17-1.96,2.53-2.38,4.96-3.62,5.24-2.53.57-9.08-4.04-16.03-2.7-1.75.37-3.6,1.29-4.79,2.82-1.18,1.52-1.66,3.32-1.78,4.99-.06.99.03,6,1.02,6.07,1.28.09.23-5.42,3.04-8.28,5.6-5.68,15.43,4.38,21.65-1.32,1.67-1.47,3.45-5.5,6.7-6.98-.02,1.61-.31,3.54-.81,5.55-5.04,2.91-4.6,7.97-3.73,8.71-.94,1.63-2.12,3.02-3.45,4-2.97,2.19-15.67,5.27-21.18,2.78-.8-.36-1.61-.75-2.43-1.14-4.57-2.22-5.36-3.37-8.64-5.31-2.58-1.5-6.35-4.07-9.97-5.2-.9-.26-1.7-.31-2.4-.36-.46-.03-2.94-.15-2.94-.15-1.62-.07-3.22-.16-4.82-.3-3.41-.27-6.47-.76-9.36-1.49-6.36-1.59-11.93-4.66-16.11-8.87-2.11-2.14-3.99-4.66-5.58-7.48-1.44-2.61-2.68-5.48-3.78-8.78-.55,7.77,2.47,14.07,6.81,18.68,4.25,4.74,10.36,8.28,17.67,10.23,3.1.83,6.37,1.39,10,1.73,1.67.14,3.34.23,4.98.3,2.42.1,3.63.14,4.42.34,2.39.72,4.78,1.88,7.2,3.16.11.71.3,1.45.6,2.2,1.71,4.39,9.2,10.78,14.3,11.19,29.87,2.41,44.78,31.81,96.12,26.94,22.79-2.16,39.69,5.74,51.02,16.73,20.16-20.63,34.09-20.63,39.22-34.89.97-3.05,1.5-4.96.71-7.73-5.28-19.05-36.78-16.27-56.07-11.59,1.42,5.33-1.16,13.24-16.21,19.35-14.88,6.04-43.83.85-44.53-4.25-.33-2.4,12.1-3.2,24.09-15.62,18.52-19.18,35.24-2.57,35.24-2.57,61.24-22,81.83,17.27,55.88,40.43-7.95,7.22-18.03,12.07-29.7,24.77,30.33,33.34,10.84,78.65,50.38,105.81,6.98,4.79,1.8,15.07,5.2,39.35,1.61,11.5,3.28,22.96,10.42,28.61,7.14,5.65,6.23,9.59,3.01,12.96-.76.79-1.26,1.61-1.63,2.44-2.75,1.97-5.17,3.25-7.65,4.48-2.5,1.21-5.1,2.28-7.71,3.48,2.86-.11,5.71-.46,8.53-1.1,2.12-.48,4.23-1.12,6.3-1.98M292.06,166.98c9.21-5.71,21.02-13.87,32.75-11.14.78,0,1.01-1.08.28-1.39-5.43-2.28-12.67-1.08-18.16,1.13-6.77,2.74-13.05,8.18-14.87,11.4M288.19,170.02c15.31,6.65,33.99-9.25,38.72-11.42.67-.31.56-1.43-.5-1.35-4.68,1.34-11.28,6.23-17.93,8.85-6.12,2.45-11.91,3.97-20.29,3.93M327.9,161.77c-10.29,14.74-35.85,12.67-48.87,11.88.94.62,7.63,2.77,15.71,2.98,17.13.45,27.99-2.35,33.67-13.82.2-.41.03-.8-.52-1.04M208.96,156.65c3.43.74,3.96,3.07,4.59,2.5.85-.76,1.32-5.93-2.55-8.24-2.68-1.59-5.8-.87-6.27,1.37-.38,1.82.54,3.57,4.23,4.37M218.19,104.25c-4.69,2.13-8.77,1.01-10.52,3.84-.77,1.47-.39,3.39.66,4.71,1.22.14,3.57,2.65,5.62,1.68,3.4-1.61,3.87-6.22,3.49-8.01,1.77-1.41,1.57-2.59.75-2.21M205.87,107.64c.4.23,1.91-2.17,2.37-2.98,1.07-1.87.9-2.95,3.08-4.57.56-.43,1.59-.89,1.53-1.55-.15-1.2-3.35-1.1-5.24.89-.93.97-1.68,2.46-1.89,4.57-.1,1.05-.25,3.41.15,3.64M212.73,138.53c2.82,2.9,6.15,4.21,6.45,4.23.3.02-2.99-6.15-3.38-6.77-2.16-3.22-3.92-6.81-5.37-10.41-5.31-13.66-12.83-2.63,2.3,12.95M181.83,139.46c-.03-1.56-.27-6.64-2.19-6.66-1.87,0-2.29,5.04-2.37,6.59-.15,2.87.31,5.33,1.16,6.26,3.11-1.06,3.44-4.01,3.4-6.19M189.04,138.79c-.23-1.48-1.12-6.31-3.05-6.31-1.94.25-1.58,5.75-1.49,6.85.2,2.38,1.04,6.41,2.91,6.41,2.02-1.8,1.96-4.77,1.63-6.95M188.89,100.09c5.06,2.98,4.98.34,7.31,4.84.85,1.63,1.79,3.39,2.25,3.55.25.08.63-1.97.35-4.07-.24-1.8-1.07-3.62-1.76-4.16-1.3-1.02-3.43-1.1-6.43-1.76-.43-.09-2.39-.74-2.83.11-.35.67.89,1.35,1.11,1.48M174.89,105.77c2.68,2.17,5.54,3.46,8.75,4.25-.19,1.64,1.25,5.59,5.85,6.69,2.65.63,5.44-2.26,5.76-3.92.63.53,1.21,1.24,1.79,2.24,0-6.29-4.55-6.93-9.7-7.75-6.55-.96-7.8-.89-12.05-2.25-.45-.14-.76.44-.4.73M170.1,138.38c-.45,2.14-.67,5.11.21,6.39,3.01.65,4-3.29,4.29-5.62.19-1.55.68-6.63-1.32-6.92-1.73,0-2.87,4.71-3.18,6.15M167.7,86.96c.04,1.78-.28,3.54-.97,5.15-.69,1.62-1.87,3.01-3.47,4.11,1.92-.34,4.51-1.6,5.56-3.36,1.08-1.76,1.46-3.86,1.41-5.86-.05-2.02-.56-4.01-1.49-5.8-.94-1.76-3.19-3.44-5.06-4.19,1.25,1.54,2.25,3.09,2.93,4.73.68,1.65,1.04,3.44,1.08,5.21M162.26,142.47c2.83.91,4.39-1.93,5.25-4.75.45-1.47,1.78-6.33.09-6.98-1.97-.07-3.85,4.15-4.39,5.45-1.09,2.63-1.46,5.09-.95,6.28M156.89,132.67c-1.61,2.33-2.48,4.66-2.21,5.94,2.88,1.2,4.84-1.2,6.11-3.58.72-1.35,2.97-5.81,1.5-6.81-2.15-.15-4.87,3.68-5.4,4.45M151.48,127.87c-2.07,1.93-3.42,4.02-3.44,5.33,3.02,1.51,5.29-.48,6.74-2.18.99-1.16,4.13-5.03,2.93-6.33-2.05-.3-4.51,1.57-6.23,3.18M152.81,119.72c-1.15,0-3.31.89-5.63,2.33-2.44,1.51-4.19,3.3-4.47,4.56,2.88,1.75,4.99.77,7.05-.8,1.24-.95,5.21-4.17,4.14-5.6-.15-.23-.46-.49-1.1-.49M138.8,120.41c.17.41.63.9,1.82.9,1.32,0,3.28-.6,5.25-1.59,1.37-.7,5.78-3.09,5.09-4.82-.21-.48-.74-.73-1.57-.73-1.25,0-3.27.52-5.41,1.39-2.65,1.08-4.68,2.54-5.16,3.72-.2.5-.12.89-.02,1.12M14.56,277.5c1.99-.83,3.7-1.81,4.88-2.69,1.17-.88,1.85-1.66,1.72-2.18-.26-1-3.95-.76-8.22.51-4.28,1.28-7.28,3.48-6.7,4.91.55,1.45,4.38,1.12,8.32-.54M19.51,286.88c3.36-2.17,5.66-4.74,5.14-5.73-.55-.98-3.85-.23-7.51,1.73-1.82.99-3.35,2.12-4.3,3.17-.96,1.06-1.3,2-.9,2.59.83,1.2,4.22.4,7.58-1.76M25.85,295.38c2.8-2.4,4.51-5.11,3.82-6.05-.72-.92-3.66.12-6.75,2.44-3.07,2.29-4.89,5.11-3.89,6.11.97,1.03,4.02-.09,6.83-2.5M33.16,303.08c1.17-1.24,2.01-2.52,2.51-3.63.5-1.11.62-2.02.23-2.48-.77-.9-3.47.36-6.03,2.81-2.56,2.45-3.79,5.2-2.76,6.13,1.02.94,3.73-.34,6.05-2.83M64.56,329.02c1.22.5,2.97-.66,3.91-2.61.94-1.94.81-4.02-.29-4.63-1.09-.62-2.84.55-3.91,2.61-1.07,2.06-.94,4.13.29,4.63M54.71,324.37c1.2.58,3.14-.69,4.34-2.84,1.2-2.15,1.32-4.45.28-5.13-1.04-.68-2.98.59-4.34,2.84-1.35,2.25-1.47,4.54-.28,5.13M45.11,319.04c1.17.67,3.33-.67,4.84-3,1.51-2.32,1.93-4.81.94-5.55-.99-.74-3.15.6-4.84,3-1.69,2.39-2.11,4.88-.94,5.55M37.64,307.01c-2.08,2.45-2.94,5.2-1.8,5.94,1.13.76,3.57-.61,5.44-3.04,1.88-2.44,2.65-5.06,1.73-5.86-.48-.38-1.28-.28-2.24.25-.96.53-2.09,1.47-3.13,2.71M152.42,173.11c1.67.1,3.26-3.11,3.56-7.16.3-4.05-.58-7.5-1.95-7.71-1.37-.2-2.96,3.01-3.56,7.14-.6,4.18.28,7.63,1.95,7.73M142.81,215.54c5.11-.06,10.86-3.43,5.69.14-.66.43-1.46.92-2.4,1.35-.97.43-1.92.83-3.31,1,2.14,2.16,10.38,2.5,15.44-5.61,1.3-1.96,2.96-5.36,2.85-5.48-.46-.53-15.17,2.51-18.27,8.59M137.27,168.29c.09,1.57.6,2.62,1.44,2.78,1.7.36,3.85-2.78,4.8-7,.95-4.22.69-7.96-.57-8.35-.65-.18-1.47.49-2.32,1.71-.85,1.23-1.75,3.05-2.44,5.17-.69,2.12-1,4.14-.9,5.69M126.68,157.46c-2.52,4.02-3.22,7.95-1.57,8.78.81.4,1.96-.05,3.13-1.2,1.18-1.15,2.36-2.91,3.33-5,.97-2.09,1.58-4.1,1.84-5.65.25-1.55.22-2.72-.32-3.04-.54-.33-1.48.2-2.65,1.31-1.16,1.11-2.54,2.79-3.77,4.8M131.59,270.23c-2.78-.67-5.38-.94-7.32-.75-1.96.19-3.2.8-3.32,1.73-.24,1.89,4.01,4.06,9.49,4.86,5.47.8,10.2.35,10.55-1,.16-.7-.81-1.55-2.49-2.4-1.69-.86-4.13-1.77-6.91-2.45M117.03,149.39c-1.87,1.65-3.36,3.41-4.15,4.93-.78,1.5-.89,2.79-.2,3.42.69.63,1.98.51,3.49-.33,1.52-.83,3.22-2.3,4.81-4.15,1.59-1.85,2.8-3.71,3.55-5.18.74-1.47,1.09-2.63.69-3.06-.4-.44-1.48-.14-2.98.66-1.48.79-3.34,2.05-5.21,3.7M116.63,136.67c-1.72.35-4.01,1.06-6.41,2.14-2.4,1.08-4.43,2.35-5.72,3.6-1.29,1.25-1.86,2.48-1.4,3.29.49.8,1.86,1.02,3.61.65,1.76-.36,3.91-1.3,6.09-2.65,2.19-1.35,4.02-2.83,5.28-4.06,1.25-1.24,1.93-2.22,1.65-2.75-.25-.54-1.38-.58-3.11-.23M113.66,126.26c-1.84-.1-4.36.04-7.08.51-2.72.47-5.13,1.21-6.78,2.1-1.65.88-2.59,1.91-2.34,2.79.24.88,1.54,1.42,3.41,1.51,1.87.1,4.31-.26,6.92-.99,2.6-.74,4.88-1.68,6.51-2.56,1.63-.88,2.59-1.69,2.47-2.3-.13-.6-1.26-.95-3.11-1.05M95.34,117.03c.03.89,1.23,1.68,3.14,2.16,1.9.49,4.49.68,7.32.53,2.83-.15,5.39-.58,7.24-1.09,1.85-.52,3.02-1.11,3.06-1.75.02-.64-1.12-1.22-2.98-1.71-1.86-.48-4.47-.88-7.37-.99-2.9-.11-5.52.12-7.42.63-1.9.51-3.04,1.32-3,2.21M88.67,169.35c4.35-2.68,8.04-9.63,5.44-3.91-.34.71-1.27,2.64-1.85,3.49-.61.87-1.22,1.7-2.32,2.57,1.67.42,5.51.07,8.14-4.82,3.8-5.39,1.4-13.52.88-13.69-.66-.22-9.71,7.33-10.29,16.37M78.52,174.33c-3.37-6.97-1.94-13.77-1.64-13.76.29,0,.97,6.76,5.25,13.24,1.4-3.21-2.08-13.51,2.67-25.69.24-.69.57-1.24.77-1.76.92-2.08.81-2.64-1.45-1.87-1.55.56-10.98,3.97-13.02,14.75-1.46,7.73,3.92,14.66,7.41,15.08M69.45,181.17c-2.51-2.99-7.3-5.29-5.33-4.94,2.35.36,5.96,2.17,7.71,3.84.01-4.39-4.03-9.37-12.95-9-3.57.26-5.8,2.23-5.83,2.39-.13.75,9.5,9.1,16.41,7.71M122.48,241.18c3.04-3.05-.74-10.85.94-14.89,1.62-3.9,9.86-6.71,9.86-11.19s-8.25-7.29-9.86-11.19c-1.68-4.04,2.11-11.85-.94-14.89-3.05-3.04-10.85.74-14.89-.94-3.9-1.62-6.71-9.86-11.19-9.86s-7.29,8.25-11.19,9.86c-4.04,1.67-11.85-2.11-14.89.94-3.04,3.05.74,10.85-.94,14.89-1.62,3.9-9.86,6.71-9.86,11.19s8.25,7.29,9.86,11.19c1.68,4.04-2.11,11.85.94,14.89s10.85-.74,14.89.94c3.9,1.62,6.71,9.86,11.19,9.86s7.29-8.25,11.19-9.86c4.04-1.68,11.85,2.11,14.89-.94M119.91,286.08c-.04.89,1.07,1.73,2.76,2.36,1.7.63,4.03,1.06,6.6,1.15,5.15.17,9.39-.94,9.59-2.44.22-1.49-3.93-3.05-9.25-3.5-5.32-.45-9.67.64-9.7,2.44M129.33,303.16c4.72-.21,8.61-1.65,8.69-3.21.07-1.55-3.88-2.78-8.83-2.74-4.95.04-8.85,1.48-8.72,3.21.12,1.73,4.1,2.96,8.85,2.74M130.35,316.7c4.33-.44,7.79-2.08,7.73-3.67-.08-1.59-3.74-2.6-8.28-2.26-2.26.17-4.29.66-5.71,1.33-1.42.67-2.19,1.5-2.07,2.34.27,1.68,4,2.69,8.33,2.26M132,330.17c3.91-.57,6.99-2.33,6.87-3.93-.12-1.6-3.56-2.48-7.69-1.97-4.13.51-7.2,2.27-6.87,3.93.33,1.66,3.78,2.54,7.69,1.97M134.2,343.57c3.5-.64,6.2-2.47,6.02-4.07-.18-1.6-3.33-2.41-7.05-1.79-3.71.61-6.41,2.44-6.02,4.07.39,1.64,3.54,2.44,7.05,1.79M136.86,356.88c3.1-.67,5.42-2.51,5.19-4.12-.23-1.61-3.1-2.37-6.4-1.71-3.31.66-5.63,2.5-5.19,4.12.44,1.61,3.31,2.38,6.4,1.71M144.26,366.01c-.28-1.6-2.86-2.36-5.76-1.7-2.9.67-4.86,2.5-4.37,4.09.49,1.59,3.07,2.35,5.77,1.7,2.69-.66,4.65-2.49,4.36-4.09M145.52,251.38c-.52-3.33-3.23-11.72-5.75-13.48-.24,1.79-.04,3.9.11,5.35.31,2.8.46,2.93-.18,1.92-.25-.38-.55-.95-.9-1.66-.33-.72-.7-1.58-.98-2.57-.28-1.02-.55-2.02-.51-3.42-2.45,1.81-3.02,10.17,3.25,15.69,1.75,1.57,5.24,3.24,5.38,3.15.17-.11-.11-2.85-.42-4.98M142.35,226.9c4.88,1.17,9.12,4.13,11.02,6.51,1.45,1.84.52.66-3.06-.85-2.23-.94-6.03-2.04-9.18-2.37,1.16,2.2,4.63,3.6,8.68,6.58,3.22,2.37,6.81,5.74,9.9,11.3,1.03,2.03,1.53,2.58,2.36.34,6.67-18.75-13.41-25.63-19.72-21.51M168.59,166.2c-.12-3.79-1.39-6.89-2.83-6.93-1.44,0-2.64,3.08-2.71,7-.03,1.96.26,3.74.78,5.03.51,1.27,1.24,2,2.05,1.96,1.62-.11,2.83-3.27,2.71-7.06M321.89,347.83c9.55,26.93,8.81,32.2,11.03,49.87,4.65-7.22,1.97-19.91-.17-27.01-2.51-8.26-5.8-15.37-10.86-22.86M352.91,297.18c-.28,3.7-.3,3.47-.32,3.7-.24,1.98-.36,2.15,1.51,1.1,1.3-.76,1.67-.98,3.28-2.68,7.44-7.92,1-21.75-5.32-21.8,2.15,2.66,3.27,5.58,3.76,7.79.47,2.22.33,3.66.26,3.67-.1.02-.62-1.34-1.73-3.16-1.09-1.8-2.89-4.15-4.89-5.98-1.13,3.15,3.21,9.02,3.44,17.36M298.23,246.89c-.04,3.7-5.58,8.51-4.22,11.89,1.36,3.38,8.68,3.03,11.27,5.68,2.49,2.55,1.93,9.9,5.42,11.39,3.49,1.49,8.41-3.99,11.98-3.95,3.7.04,8.51,5.58,11.89,4.22,3.38-1.35,3.04-8.68,5.68-11.27,2.55-2.49,9.9-1.93,11.39-5.42,1.49-3.48-3.99-8.41-3.95-11.98.04-3.7,5.58-8.51,4.22-11.89s-8.68-3.04-11.27-5.68c-2.49-2.55-1.93-9.9-5.42-11.39-3.49-1.49-8.41,3.99-11.98,3.95-3.7-.04-8.51-5.58-11.89-4.22-3.38,1.35-3.04,8.68-5.68,11.27-2.55,2.49-9.9,1.93-11.39,5.42-1.49,3.48,3.99,8.41,3.95,11.98M340.64,287.29c.13-.68.32-1.48.63-2.33.33-.87.66-1.71,1.44-2.7-2.94-.18-7.51,5.47-5.74,12.57.49,2.03,1.88,4.32,2.05,4.33.2.02,1.93-1.76,2.93-3.38,1.67-2.75,3.68-8.91,2.5-11.74-1.09,1.06-2.1,2.62-2.79,3.69-1.11,1.75-1.67,3.14-1.02-.44M181.18,165.3c-.4-3.52-1.91-6.2-3.37-6.19-1.46.04-2.42,3.04-2.15,6.69.27,3.65,1.78,6.46,3.38,6.26,1.6-.16,2.53-3.29,2.14-6.77M191.84,236.5c2.15,3.36.01,10.97,3.23,13.22,3.22,2.24,9.62-2.41,13.52-1.55,3.76.83,7.61,7.78,11.63,7.06,4.02-.72,5.22-8.58,8.46-10.65,3.36-2.15,10.97-.01,13.22-3.23,2.24-3.22-2.41-9.62-1.55-13.52.82-3.76,7.78-7.61,7.06-11.63s-8.58-5.22-10.65-8.46c-2.15-3.36-.01-10.97-3.23-13.22-3.22-2.24-9.62,2.4-13.52,1.55-3.76-.83-7.61-7.78-11.63-7.06-4.02.72-5.22,8.58-8.46,10.65-3.36,2.15-10.97.01-13.22,3.23-2.24,3.22,2.4,9.62,1.55,13.52-.83,3.76-7.78,7.61-7.06,11.63.72,4.02,8.58,5.22,10.65,8.46M200.52,288.84c-.22-1.64-1.45-9.85-4.49-9.85-1.53.08-2.1,1.87-2.45,3.62-.38,1.93-.54,4.35-.47,6.8.08,2.68.47,5.11,1.11,6.84.77,2.1,1.9,3.26,3.2,3.26,3.13-.44,3.74-5.83,3.1-10.67M211.93,286.37c-.24-.88-2.4-8.56-5.5-8.56-2.77,2.63-2.43,6.89-1.72,10.31.83,4.02,2.75,8.71,5.38,8.71,3.2-.81,3.11-5.82,1.85-10.46M223.03,282.74c-1.27-3.46-3.57-7.51-5.88-7.51-2.81,2.98-2.13,6.89-1.15,9.93,1.13,3.52,3.33,7.64,5.8,7.64,3.21-1.16,2.72-5.99,1.24-10.06M233.86,278.36c-1.33-3.05-3.69-6.62-5.99-6.62-1.08.26-1.6.58-1.95,1.34-.86,1.91,0,5.46,1.07,8.15,1.24,3.1,3.53,6.73,5.89,6.73,3.27-1.36,2.59-5.88.98-9.59M244.45,273.42c-1.43-2.9-3.81-5.83-5.93-5.83-1.22.32-1.75.68-2.07,1.49-.75,1.91.17,5.15,1.28,7.54,1.27,2.74,3.55,5.93,5.82,5.93,3.33-1.49,2.56-5.72.89-9.13M254.83,268.04c-1.27-2.36-3.54-5.11-5.75-5.11-1.36.39-1.9.78-2.2,1.64-.55,1.57-.02,4.23,1.37,6.94,1.24,2.4,3.46,5.21,5.66,5.21,3.28-1.59,2.64-5.48.92-8.67M265,262.28c-1.58-2.69-3.75-4.42-5.51-4.42-1.51.46-2.06.89-2.34,1.8-.47,1.54.07,3.96,1.4,6.33,1.55,2.75,3.68,4.53,5.42,4.53,3.38-1.71,2.73-5.34,1.02-8.24M274.25,244.74c1.67-.7,3.57-1.22,5.37-1.08-2.44-3.07-8.82-3.96-13.83,1.53-1.43,1.54-2.87,4.39-2.79,4.53.32.57,13.2,1.98,16.11-3.62-4.44-.94-9.92.84-4.86-1.36M272.85,227.79c.36-.28,2.68,3.24,9.97,5.47,0-7.62-6.11-7.09-10.24-16.77-1.22-2.89-1.32-6.58-3.04-4.12-6.3,10.78-2.57,21.67,6.05,24.57,2.04.67,4.79.03,5.88-.47-3.11-1.49-5.39-3.66-6.79-5.46-1.4-1.82-1.89-3.19-1.83-3.23M287.75,214.19c-1.32-1.64-3.2-2.38-3.36-2.32-.7.26-3.84,12.23,1.28,16.07,1.58-4.27.52-10.62,1.96-5.31.44,1.71.58,5.06.18,6.85,3.61-1.53,4.65-9.53-.05-15.28M362.31,329.73c-21.91-8.64-41.33-12.83-56.89-30.05-3.48-3.5-12.88-17.46-14.28-17.1-.43.11,1.79,8.19,3.84,11.37,14.15,23.42,39.8,31.25,67.32,35.78M373.18,273.24c-.01-.2-1.33-.9-3.07-1.66-2.97-1.25-9.2-3.27-11.84-1.7,1.21.93,2.9,1.7,4.05,2.22,1.88.83,3.36,1.19-.28,1.07-1.76-.08-3.71-.41-5.28-1.32.14,1.65,2.19,3.57,6.13,4.23,4.93.84,10.33-2.33,10.29-2.86M407.56,387.71c-1.6-12.39-3.55-21.26-13.01-35.83,4.2,13.48,7.92,23.05,9.24,35.67.41,4.23,1.94,14.54,2.12,14.62.3.13,2.39-6.38,1.65-14.46"/>
      </g>
    </g>
  </g>
</svg>