<?xml version="1.0" encoding="UTF-8"?>
<svg id="Layer_1" xmlns="http://www.w3.org/2000/svg" version="1.1" viewBox="0 0 1817.33 431.77">
  <!-- Generator: Adobe Illustrator 30.5.1, SVG Export Plug-In . SVG Version: 2.1.4 Build 3)  -->
  <defs>
    <style>
      .st0 {
        fill: #2d2e2d;
      }
    </style>
  </defs>
  <path class="st0" d="M1589.24,366.27c8.44-.85,14.2,6.76,21.38,9.72,2.91,1.22,6.02,2.07,9.22,2.67-5.69-3.72-9.85-8.93-14.69-14.77-3.24-3.91-9.84-9.96-15.36-10.02-4.6-.05-6.82,4.5-4.33,8.39.97,1.53,2.36,2.9,3.79,4.01Z"/>
  <path class="st0" d="M1608.83,188.1c-.38,3.92-.16,8.02.65,11.89,1.21-.07,2.43-.14,3.64-.2,2.91-.16,5.8-.31,8.71-.47,3.64-8.07,2.26-18.78.3-27.21-8.04,2.61-12.46,7.3-13.31,15.99Z"/>
  <path class="st0" d="M1644.29,167.02c-1.17.2-2.36.39-3.53.6v1.78c1.18-.07,2.36-.13,3.53-.2v-2.18Z"/>
  <path class="st0" d="M1644.29,172.29c-1.17.06-2.34.13-3.53.2v4.48c1.18-.06,2.36-.11,3.53-.18v-4.49Z"/>
  <path class="st0" d="M1644.29,179.88c-1.17.07-2.34.13-3.53.18v3.92c1.18-.05,2.36-.09,3.53-.15v-3.95Z"/>
  <path class="st0" d="M1644.29,186.93c-1.17.06-2.34.1-3.53.15v4.83c1.18-.05,2.36-.09,3.53-.14v-4.84Z"/>
  <path class="st0" d="M1640.76,198.32c1.18-.07,2.36-.13,3.53-.2v-3.25c-1.17.05-2.34.09-3.53.15v3.3Z"/>
  <path class="st0" d="M1646.78,166.62v2.45c1.61-.09,3.23-.18,4.84-.28-.02-.94-.03-1.9-.06-2.85-1.6.22-3.2.44-4.78.68Z"/>
  <path class="st0" d="M1646.78,176.66c1.66-.08,3.32-.17,4.99-.25-.03-1.52-.06-3.02-.09-4.53-1.63.09-3.26.18-4.9.28v4.5Z"/>
  <path class="st0" d="M1646.78,183.73c1.7-.07,3.41-.14,5.11-.22-.02-1.33-.05-2.68-.07-4.01-1.69.08-3.37.17-5.05.25v3.98Z"/>
  <path class="st0" d="M1646.78,191.67c1.76-.07,3.5-.15,5.26-.22-.02-1.61-.06-3.22-.09-4.84-1.72.08-3.45.15-5.17.22v4.84Z"/>
  <path class="st0" d="M1646.78,198c1.79-.09,3.59-.2,5.39-.29-.02-1.06-.05-2.1-.06-3.16-1.78.08-3.56.15-5.33.22v3.23Z"/>
  <path class="st0" d="M1602.72,238.36c4.3,1.92,8.79,3.44,13.39,4.65h.05c.13.05.24.08.37.1,3.22.84,6.48,1.54,9.78,2.11h.01c.13-.02.25,0,.34.06h.01c7.88,1.36,15.92,2.06,23.75,2.53-9.7-4.77-15.83-13.53-13.46-26.2,1.71-9.12,7.83-16.54,15.77-20.85-14.96.8-29.94,1.6-44.91,2.39-.03.01-.07.01-.1.01-7.43.39-14.87.78-22.3,1.18-.1,2.48-.14,4.98-.13,7.46.02,4.55-.23,9.32,1.78,13.53,3.02,6.31,9.49,10.29,15.65,13.02Z"/>
  <path class="st0" d="M1632.35,411.31c6.08.75,12.42-1.74,16.55-6.21,5.99-6.49,4.76-13.85,2.53-21.54-2.2-7.61-1.92-15.33.22-22.9,2.29-8.14,8.33-16.46,2.42-24.5-4.88-6.64-13.74-8.85-21.56-8.94-4.3,3.16-9.77,3.54-15.5,3.2-9.35-.57-17.43,1.22-25.4,4.91,2.16,5.02,1.84,10.64-.68,15.47t-.01.02c.72,0,1.45.09,2.17.28,6.78,1.8,12.32,7.7,16.39,13.14,5.61,7.48,12.08,13.11,21.29,15.58h.03c.44.02.87.03,1.31.05,1.48.03.15,3.19-1.2,3.16-.36-.01-.7-.02-1.05-.03-.06,0-.1,0-.16-.01-.02,0-.03.01-.06,0-.02,0-.05-.01-.07-.01-5.86-.23-11.85-1.1-17.44-2.84-8.08-2.51-14.8-11.6-23.8-10.65-.01,0-.01.01-.01.01-.07.02-.14.03-.21.03-.03,0-.08-.01-.11-.01s-.08.01-.12.01c-3.92.54-5.87,5.62-3.75,8.98.72,1.16,1.92,1.9,2.93,2.77,1.31,1.1,2.49,2.18,3.39,3.54,9.53,1.67,18.78,7.15,25.48,13.95,5.25,5.32,8.24,11.56,16.4,12.56Z"/>
  <path class="st0" d="M1654.07,165.62c.02,1.01.05,2.02.06,3.03,1.55-.08,3.1-.17,4.64-.25-.02-1.11-.04-2.23-.08-3.34-1.54.18-3.08.37-4.62.56Z"/>
  <path class="st0" d="M1654.18,171.74c.03,1.51.06,3.02.09,4.54,1.56-.08,3.11-.16,4.68-.24-.03-1.53-.07-3.05-.11-4.56-1.55.08-3.1.17-4.65.26Z"/>
  <path class="st0" d="M1654.33,179.36c.02,1.36.05,2.7.08,4.05,1.56-.07,3.14-.13,4.71-.2-.03-1.37-.07-2.72-.1-4.09-1.56.08-3.13.16-4.69.24Z"/>
  <path class="st0" d="M1654.47,186.51c.02,1.61.06,3.23.09,4.84,1.59-.06,3.16-.13,4.75-.2-.03-1.61-.08-3.23-.12-4.84-1.57.07-3.15.13-4.72.2Z"/>
  <path class="st0" d="M1659.46,197.32c-.02-1.02-.05-2.05-.08-3.07-1.59.07-3.17.14-4.76.2.02,1.05.03,2.09.06,3.13,1.6-.08,3.18-.16,4.78-.25Z"/>
  <path class="st0" d="M1700.8,195.13c4.83-10.43,4.17-23.29-1.61-33.3-.02-.05-.03-.09-.05-.14-7.61.31-15.17.85-22.65,1.53-4.47,10.47-4.79,23,.4,33.18,7.96-.41,15.94-.84,23.9-1.26Z"/>
  <path class="st0" d="M1702.02,275.03c1.49.92,3.11,1.63,4.81,2.17,0,.01.01.01.02.01-4.9-7.23-5.84-18.82-6.5-26.68-3.17.17-6.32.33-9.47.49.01,8.98,3.3,19.16,11.14,24.01Z"/>
  <path class="st0" d="M1712.27,278.18c.08.06.14.13.2.21,1.99.24,4.06.35,6.13.35-2.7-4.76-3.46-11.01-4.24-16.16-.64-4.23-1.14-8.5-1.44-12.79-3.32.22-6.63.41-9.95.6t-.01.01c.76,8.87,2.16,22.51,9.32,27.79Z"/>
  <path class="st0" d="M1716.23,161.42c.03,1.23.07,2.46.1,3.7,1.48-.03,2.97-.06,4.45-.09-.02-1.17-.06-2.34-.09-3.53-1.48-.03-2.98-.07-4.46-.08Z"/>
  <path class="st0" d="M1716.41,168.25c.05,1.34.08,2.69.12,4.05,1.48-.03,2.97-.08,4.45-.12-.03-1.33-.07-2.68-.12-4.01-1.48.02-2.97.06-4.45.08Z"/>
  <path class="st0" d="M1716.62,175.41c.02,1.02.06,2.03.08,3.06,1.48-.06,2.95-.1,4.44-.15-.03-1.01-.06-2.01-.08-3.01-1.48.03-2.95.07-4.44.1Z"/>
  <path class="st0" d="M1716.79,181.57c.05,1.64.09,3.29.14,4.93,1.47-.06,2.94-.13,4.41-.18-.05-1.63-.08-3.26-.13-4.9-1.47.06-2.95.1-4.43.15Z"/>
  <path class="st0" d="M1721.55,194.03c-.05-1.54-.08-3.08-.13-4.61-1.47.06-2.93.13-4.4.18.05,1.55.09,3.1.13,4.65,1.47-.08,2.93-.15,4.4-.23Z"/>
  <path class="st0" d="M1722.39,278.64c2.34-.1,4.67-.29,6.87-.47-2.39-4.45-2.91-10.39-3.53-15.01-.63-4.71-1.07-9.48-1.29-14.24-2.72.23-5.45.44-8.17.63-.25.02-.52.03-.78.06.29,3.65.71,7.3,1.25,10.91.89,5.77,1.69,13.17,5.5,17.86.06.08.1.17.14.26Z"/>
  <path class="st0" d="M1723.21,161.57c.02,1.14.06,2.28.09,3.41,1.61-.02,3.22-.06,4.83-.08-.05-1.05-.09-2.08-.14-3.11-1.59-.08-3.18-.16-4.78-.22Z"/>
  <path class="st0" d="M1723.39,168.12c.03,1.33.07,2.67.1,4,1.66-.05,3.31-.08,4.95-.13-.06-1.32-.12-2.64-.17-3.96-1.63.03-3.25.06-4.88.09Z"/>
  <path class="st0" d="M1723.57,175.24c.02,1,.06,2,.08,2.99,1.69-.06,3.38-.11,5.07-.17-.05-.98-.09-1.95-.14-2.93-1.67.03-3.33.08-5.01.12Z"/>
  <path class="st0" d="M1723.73,181.34c.05,1.62.08,3.24.13,4.87,1.74-.08,3.47-.15,5.21-.23-.07-1.61-.14-3.22-.21-4.83-1.71.07-3.41.13-5.13.18Z"/>
  <path class="st0" d="M1729.41,193.61c-.07-1.52-.14-3.02-.21-4.53-1.75.07-3.5.15-5.26.22.04,1.53.08,3.06.13,4.59,1.78-.09,3.56-.18,5.34-.28Z"/>
  <path class="st0" d="M1703.6,223.09c.07-.22.1-.42.08-.62-.01-.06-.03-.11-.03-.17-.01-.06-.02-.13-.03-.17-2.08-11.94-30.82-11.16-30.99,1.53-.16,12.48,29.05,11.7,30.98-.56Z"/>
  <path class="st0" d="M1639.23,221.87c-2.45,15.85,10.15,24.22,24.28,26.47.1.01.2.06.27.09h.03c6.9.2,13.81.17,20.69-.18h.05c8.04-.4,16.09-.86,24.14-1.4,2.92-.2,5.87-.39,8.83-.6,3.98-1.75,7.87-3.59,11.09-6.62,7.07-6.65,7.75-16.9,4.38-25.65-3.72-9.69-13.85-15.95-24.11-16.19-11.07.6-22.12,1.18-33.19,1.77-.18.08-.36.1-.51.02-4.22.23-8.42.45-12.64.68-11.28,1.93-21.5,9.94-23.32,21.62ZM1686.11,207.66c10.07-.79,29.59,1.64,31.01,14.69.06.13.08.31.07.55,0,.13-.01.24-.05.37-1.04,11.28-14.88,15.5-24.39,16.26-9.5.75-31.02-1.7-31.07-15.24-.06-11.53,15.51-15.92,24.43-16.63Z"/>
  <path class="st0" d="M1733.11,277.86c2.05-.15,4.14-.32,6.22-.55-2.63-7.98-4.17-16.57-4.17-25.04,0-1.47.05-2.93.14-4.39-2.76.3-5.53.57-8.3.83.18,3.54.49,7.08.92,10.61.68,5.7,1.14,13.88,5.01,18.56.07,0,.13-.01.18-.01Z"/>
  <path class="st0" d="M1730.55,161.93c.04.98.09,1.95.14,2.93,2.08-.05,4.17-.08,6.26-.11-.03-.78-.07-1.55-.1-2.33-2.09-.18-4.19-.36-6.3-.48Z"/>
  <path class="st0" d="M1730.82,167.99c.06,1.32.12,2.63.17,3.95,2.08-.06,4.16-.1,6.25-.16-.06-1.3-.11-2.61-.17-3.91-2.08.03-4.17.08-6.25.11Z"/>
  <path class="st0" d="M1731.13,175.05c.05.98.08,1.94.13,2.91l6.24-.21c-.05-.95-.08-1.91-.13-2.85-2.08.05-4.16.1-6.24.15Z"/>
  <path class="st0" d="M1731.4,181.07c.07,1.6.14,3.19.21,4.8,2.08-.09,4.15-.18,6.23-.28-.07-1.57-.14-3.16-.21-4.75-2.07.08-4.15.15-6.23.22Z"/>
  <path class="st0" d="M1735.11,193.3c1.01-.06,2.03-.1,3.04-.16-.07-1.48-.13-2.95-.2-4.44-2.07.09-4.14.17-6.22.26.07,1.51.14,3,.21,4.51,1.05-.06,2.1-.11,3.16-.17Z"/>
  <path class="st0" d="M1742.3,276.92c1.33-.18,2.65-.41,3.96-.69-1.97-5.25-3.06-10.93-2.94-16.38.09-4.91,1.44-9.43,3.69-13.45-3.09.45-6.18.85-9.3,1.2-.48,9.91,1.3,20.03,4.57,29.33,0-.01.01-.01.01-.01Z"/>
  <path class="st0" d="M1650.12,280.58c-.24-4.5-3.29-8.31-7.83-9.09-4.86-.82-9.89,2.53-9.93,7.71-.06,10.58,17.13,12.92,17.76,1.38ZM1641.29,276.19c2.23.39,3.8,2.25,3.93,4.49-.29,5.25-8.56,3.33-8.44-1.38.06-2.33,2.4-3.48,4.5-3.11Z"/>
  <path class="st0" d="M1579.54,338.27c3.17-.53,6.22-2.24,9.24-4.03.57-.34,1.14-.69,1.71-1.02,2.08-1.24,4.16-2.41,6.27-3.19,8.35-3.05,16.21-2.64,24.93-2.47,7.64.15,14.66-4.05,15.06-12.3.31-6.39-3.53-11.81-9.79-13.25-5.17-1.18-10.83.51-11.19,6.5-.08,1.29-2.61,3.38-2.48,1.38.84-13.83,19.62-15.09,24.7-3.11,2.26,5.34,1.41,11.76-1.79,16.54-.2.29-.39.57-.6.84,12,.87,26.11,8.03,23.34,22.12-1.53,7.77-5.87,14.36-6.48,22.51-.62,8.38,3.76,15.54,3.55,23.7-.22,9.18-6.37,17.39-14.87,20.65-4.16,1.6-8.8,1.97-13.1.68-5.54-1.67-8.27-5.63-11.82-9.84-6.01-7.11-14.89-13.05-24.16-15.42,1.3,4.99.69,10.83,1.8,15.82,1.56,6.96,4.79,13.62,10.69,17.9,7.68,5.6,17.61,5.77,26.72,6.37,8.91.57,18.57,1.09,27.16-1.83,10.49-3.56,12.31-12.28,11.94-22.41-.32-9.1-2.33-18.16-1.84-27.29.52-9.46,4.01-17.97,9.03-25.91,1.13-1.77,2.92-.75,1.79,1.03-4.57,7.24-7.85,14.87-8.34,23.5-.33,5.95.48,11.87,1.1,17.78,1,9.49,2.63,21.28-3.71,29.38-1,1.28-2.13,2.37-3.36,3.31,22.18,7.12,49.06,8.29,70.26-1.79-5.25-5.76-6.79-13.94-5.29-22.67,1.2-6.88,4.91-13.99,10.47-18.49-1.77-1.67-3.39-3.53-4.83-5.61-13.46-19.56-8.27-47.54-4.76-69.35,1.83-11.41,7.4-21.43,17.62-26.96-.4-.77-.78-1.56-1.13-2.37-5.04,1.2-10.32,1.71-15.49,2.06h-.01c-.14.05-.27.06-.4.02t-.01,0c-.39.03-.77.06-1.15.08-9.77.63-22.38,2.28-30.92-3.69-8.06-5.63-11.29-16.77-10.97-26.28-1.7.08-3.4.16-5.1.25h-.05c-.87.05-1.75.07-2.63.1-15.54.51-31.21-.02-46.63-1.99-2.49-.32-5.14-.67-7.87-1.08-1.06,1.43-2.03,2.92-2.91,4.46-.68,1.2-2.07,3.11-2.03,4.5.08,2.56,1.92,2.37,4.16,2.11,7.65-.84,14.89-3.34,22.66-1.68,8.65,1.85,15.65,9.17,23.43,13.19,5.01,2.6,10.19,4.96,15.48,6.95,1.25.47-.37,3.49-1.72,2.98-7.33-2.75-14.54-6.14-21.27-10.14-4.76-2.83-8.95-7.08-14.17-9-5.83-2.14-12.17-1.51-18.15-.44-3.65.64-13.24,4.18-12.99-2.41.14-3.73,2.75-7.68,5.16-10.91-2.59-.43-5.22-.92-7.86-1.52h-.01c-6.11,15.12-19.08,23.9-31.19,34.2-7.09,6.03-11.11,13.81-14.16,22.58-2.8,8.09-4.8,17.61-2.26,26.03,1.54,5.1,5.37,9.89,11.24,8.91ZM1702.05,351.19c1.82-1.33,1.89,1.52.68,2.4-20.28,14.97-18.46,44.47-7.89,64.81.62,1.21-1.48,3.88-2.14,2.61-11.47-22.09-12.51-53.67,9.35-69.82ZM1621.25,271.26c9.12-4.71,20.86-6.33,30.63-2.93,8.66,3.02,16.03,8.85,24.9,11.72,3.88,1.26,7.95,2.36,12.03,2.79,1.53.16.14,3.29-1.18,3.15-6.07-.64-12.09-2.4-17.82-4.8-10.07,6.65-29.68,19.03-40.68,7.77-3.92-4.01-5.6-10.3-5.61-15.9-.75.32-1.48.68-2.22,1.06-1.82.93-1.22-2.24-.05-2.85Z"/>
  <path class="st0" d="M1785.3,190.64c-.55-4.86-2.29-9.84-4.95-13.81-4.67-6.95-12.17-9.19-19.94-10.87-.45-.1-.91-.18-1.36-.28-1.77,8.75-.56,18.23,3.36,26.18,7.63-.41,15.26-.82,22.89-1.22Z"/>
  <path class="st0" d="M1770.36,395.13c-2.53-.24-5.06-.61-7.55-1.1-.88,1.51-1.6,3.16-1.94,4.84-1.3,6.44,4.23,8.45,9.55,9.41,4.34.79,10.48,1.84,14.41-.87,3.86-2.67,2.73-8.4,1.84-12.26-.02-.14-.02-.29,0-.44-5.36.91-10.94.93-16.31.43Z"/>
  <path class="st0" d="M1749.54,276.35c.54,1.25,1.13,2.47,1.77,3.64,3.43-1.48,6.98-2.39,10.58-2.92-2.68-6.91-3.94-15.25-1.45-22.21,2.86-8.01,11-12.56,19.16-13.33,6.78-.63,16.8,1.91,16.61,10.45-.17,8.02-8.33,11.99-15.35,11.85-1.49-.02-.16-3.17,1.18-3.15,4.24.08,9.64-1.05,11.23-5.62,1.26-3.62-.8-6.64-3.81-8.47-4.75-2.9-11.38-2.42-16.41-.69-13.65,4.68-12.93,19.59-8.07,30.79,2.46-.24,4.94-.34,7.43-.38h.01c9.37-.13,19.96.62,28.68,4.68,10.46-9.23,11.38-24.41,4.98-36.48-2.7-5.1-7.1-8.83-12.22-11.15-1.03-.47-2.11-.88-3.21-1.24-4.22-1.38-8.77-1.87-13.15-1.47-9.46.87-19.03,5.14-25.13,12.04-.92,1.03-1.77,2.14-2.52,3.3-2.76,4.24-4.3,9.26-4.01,14.92.25,4.96,1.47,10.14,3.44,14.87.16.11.24.32.25.57Z"/>
  <path class="st0" d="M1618.27,170.59c13.59-5.79,29.64-7.37,44.16-9,12.65-1.43,25.39-2.31,38.13-2.65.16-.06.32-.07.47-.01,5.99-.16,11.97-.21,17.96-.11,16.39.25,33.64.91,49.43,5.73,11.83,3.61,18.69,13.83,19.47,25.95,7.49-.4,14.97-.79,22.47-1.2-1.18-7.85-3.93-15.38-8.31-20.86-11.63-14.57-32.72-18.53-50.2-20.32-22.24-2.28-44.76-1.01-67,.72-9.94.78-19.87,1.72-29.81,2.54-10.8.87-21.66,1.18-32.27,3.6-9.39,2.14-18.86,5.87-25.56,13.05-6.55,7.01-9.49,16.38-10.85,25.68-.37,2.51-.62,5.01-.78,7.53,7.04-.37,14.09-.75,21.13-1.13-1.85-11.09.23-24.71,11.55-29.53Z"/>
  <path class="st0" d="M1761.19,195c-.18.08-.36.1-.51.03-13.23.7-26.45,1.4-39.67,2.1,8.22,3.73,14.35,11.31,15.93,20.66.3,1.8.45,3.53.45,5.18,0,10.15-5.49,17.57-13.7,22.8.75-.05,1.48-.1,2.23-.16h.01c.22-.1.41-.13.57-.05h.01c3.47-.29,6.95-.59,10.43-.94.28-.15.53-.2.7-.07,0,0,0-.01.01-.01,3.82-.39,7.63-.85,11.43-1.38,9.79-13.33,30.07-19.66,45.47-13.24,6.58-4.04,12-9.6,14.42-17.43,1.84-5.94,2.43-13.07,1.73-20.13-9.4.5-18.8,1-28.2,1.5-7.11.38-14.23.75-21.34,1.13Z"/>
  <path class="st0" d="M1805.74,385.48c-1.9,1.86-3.98,3.42-6.18,4.7h-.01c8.8,6.55,12.76,19.52,3.53,27.8-7.62,6.83-21.54,6.61-31.07,6.27-9.92-.33-26.17-1.49-30.79-12.19-3.5-8.1,1.21-17.21,6.95-23.26h0c-2.08-1.16-4.07-2.48-5.91-4-9.68,6.54-12.66,21.34-8.62,31.79,1.01,2.62,2.61,4.76,4.6,6.49.24.02.39.17.46.39,7.02,5.8,18.51,7.06,26.82,7.45,12.08.57,25.01-.36,36.66-3.8,8.49-2.51,14.14-9.25,14.63-18.21.52-9.27-4.31-17.48-10.62-23.87l-.45.45Z"/>
  <path class="st0" d="M1782.5,328.46c-4.91-.84-9.99,2.55-10.02,7.78-.06,10.7,17.3,13.03,17.93,1.39-.24-4.55-3.32-8.4-7.91-9.17Z"/>
  <path class="st0" d="M1779.04,317.62c-9.18.99-16.31,9.32-16.28,18.48.03,10.06,8.79,18.11,18.84,17.1,9.43-.95,15.7-9.16,16.25-18.19.02-.09.03-.2.02-.29.01-.18,0-.32-.03-.44-.69-9.77-8.57-17.76-18.79-16.66ZM1765.25,334.72c.03-9.18,8.87-15.46,17.57-13.74,7.36,1.44,12.22,7.81,12.56,15.12-.93,19.59-30.2,17.16-30.13-1.38Z"/>
  <path class="st0" d="M1800.46,284.42c-.47.18-.75-.03-.87-.43-8.62-4.1-19.14-4.65-28.36-4.54h-.01c-7.14.1-14.3.83-20.8,3.79-.01.01-.02.02-.03.02-.07.02-.15.06-.23.1-.85.39-1.68.82-2.5,1.3-13.12,7.58-14.4,22.25-16.2,35.83-2.64,20.03-4.77,46.3,12.08,60.96.05.02.07.05.1.08.33.3.68.59,1.02.86,10.58,8.47,25.89,10.87,39.07,9.68,11.71-1.07,21.88-6.59,27.19-17.35,4.53-9.2,5.49-19.88,5.91-29.99.37-9.22.72-18.57.36-27.79-.37-9.43-2.02-19.44-8.71-26.6-2.33-2.49-5.05-4.44-8-5.93ZM1810.48,358.72c-2.99,18.55-16.94,27.19-34.69,27.42-12.62.15-27.53-1.78-34.54-13.73-5.16-8.79-4.98-19.73-4.79-29.59.31-16.81-1.13-38.23,11.68-51.24,14.86-15.11,46.83-10.6,58.33,6.56,11.45,17.08,7.07,41.62,4.02,60.59Z"/>
  <path class="st0" d="M29.01,22.41c-1.88-.72-4.15-1.41-5.88-.78-.57.22-.61.36-.62.39-.12.36-.15.98-.12,1.51.1,1.44.65,3.18,1.22,4.52,1.72-1.97,3.52-3.84,5.4-5.63Z"/>
  <path class="st0" d="M18.18,209.5c-.18,2.32-.37,4.64-.55,6.96h10.97c.13-2.46.26-4.92.39-7.37-.94.03-1.9.08-2.84.11-2.55.1-5.34.49-7.98.29Z"/>
  <path class="st0" d="M15.61,38.89c1.78-2.92,3.79-5.72,5.95-8.41-1-2.22-1.78-4.76-1.47-7.15.24-1.97,1.38-3.84,3.3-4.53,2.63-.94,5.73.18,8.25,1.2,1.79-1.56,3.63-3.07,5.52-4.46-.22-4.46-6.01-5.42-9.63-5-7.03.82-13.1,5.94-16.63,11.86-3.98,6.64-2.16,13.61,4.71,16.49Z"/>
  <path class="st0" d="M31,214.01h9.89c.12-1.76.22-3.52.32-5.29-3.31-.01-6.63.11-9.95.26-.08,1.68-.17,3.36-.26,5.02Z"/>
  <path class="st0" d="M21.97,206.46c9.68-.37,20.97-2.36,30.43.14,5.03,1.33,8.26,4.26,11.85,7.79,2.23,2.18,4.55,3.53,7.02,4.27-.11-.11-.23-.23-.33-.36-4.14-4.87-4.19-12.15-9.69-16.05-5.77-4.1-13.66-4.79-20.44-5.99-3.4-.61-6.83-1.21-10.11-2.24-3.44-1.08-6.58-2.91-10.11-3.71-5.1-1.16-8.42.53-9.08,6.07-.41,3.44.22,6.96,3.37,8.88,2.19,1.33,4.65,1.3,7.1,1.2Z"/>
  <path class="st0" d="M52.92,39.92c-6.04.71-10.76,6.42-10.7,12.45.05,6.53,5.68,11.87,12.27,11.15,6.3-.7,10.37-6.15,10.81-12.16.02-.1.03-.2.02-.29.01-.2-.01-.33-.05-.45-.55-6.37-5.65-11.48-12.36-10.7Z"/>
  <path class="st0" d="M17,40.27c-.3.51-.59.99-.86,1.48-3.41,5.95-5.83,12.37-6.68,19.02-1.83,14.14,5.94,25.72,19.95,28.42,6.5,1.25,13.59,1.1,20.09-.34,1.9-2,3.75-4.03,5.54-6.1-5.52.36-11.26-.2-16.48-1.85-23.31-7.45-13.14-35.81-.14-48.32,7.09-6.84,18.36-14.33,28.76-12.92,9.71,1.31,15.98,9.2,17.04,18.24,1.4-2.95,2.8-5.92,4.27-8.85-1.11-7.02-5.24-15.13-11.6-19.1-13.14-8.18-30.55,1-41.13,9.4-7.09,5.63-13.84,12.81-18.78,20.93Z"/>
  <path class="st0" d="M91.51,49c-.03-.09-.05-.18-.05-.29-2.44-2.1-4.69-4.39-6.63-6.85-.2.38-.39.76-.59,1.14-.07.25-.2.49-.36.7-2.34,4.48-4.82,8.88-7.46,13.18,1.92,3.36,4.54,6.4,7.49,9.12,4.84-3.96,9.8-10.35,7.58-17.01Z"/>
  <path class="st0" d="M96.15,74.96c5.75-3.98,9.37-10.77,7.4-17.79-3.13-1.82-6.26-3.86-9.22-6.13.08,6.29-4.24,12.3-8.85,16.35,2.56,2.21,5.3,4.17,7.95,5.91.9.57,1.8,1.11,2.71,1.65Z"/>
  <path class="st0" d="M110.45,81.54c5.81-4,9.33-10.84,7.04-17.7-3.62-1.38-7.16-2.96-10.62-4.82-.16-.08-.32-.17-.48-.26.45,6.71-3.09,13.06-8.22,17.35,3.93,2.17,8.01,3.98,12.22,5.47.01-.01.03-.03.06-.05Z"/>
  <path class="st0" d="M129.61,2.98c-3.85.9-7.65,1.99-11.35,3.31-1.06.39-2.11.79-3.16,1.23,3.22,2.99,6.75,5.53,10.49,7.64-.13-4.33,1.48-8.6,4.02-12.18Z"/>
  <path class="st0" d="M132.59,68.32c-4.1-.88-8.16-2-12.14-3.38.9,6.65-2.6,13.07-7.71,17.47,4.59,1.48,9.3,2.61,14.07,3.44,4.69-4.42,7.98-11.15,5.78-17.53Z"/>
  <path class="st0" d="M128.21,16.3c.02.08.02.18.02.28,2.95,1.48,6.03,2.72,9.19,3.75.14-7.01,2.41-14.23,6.87-19.71-3.91.38-7.78.94-11.62,1.71-.23.26-.59.67-.68.78-.69.85-1.31,1.75-1.86,2.69-1.9,3.25-2.78,6.78-1.93,10.5Z"/>
  <path class="st0" d="M93.36,250.73c3.69-2.52,8.76-2.77,13.04-3.21,6.09-.62,12.24-1.03,18.17-2.67,12.68-3.49,25.18-18.48,20.56-32.07-2.85-8.39-11.46-16.22-20.49-16.95-8.18-.66-15.56,4.42-19.38,11.41-3.05,5.57-5.47,10.01-11.62,12.63-3.63,1.56-7.58,2.15-11.51,2.1-.23,0-.46-.01-.7-.01-4.34.62-8.46.76-12.23-.52-.12.05-.23.07-.34.06-7.45-.4-14.95-.46-22.42-.18-10.16.37-28.65-.07-30.42,13.65-.48,3.68,2.05,9.78,6.52,7.83,2.09-.92,3.91-3.1,5.75-4.42,7.3-5.18,16.07-7.21,24.88-7.8,13.31-.91,26.93.65,40.02-2.61,3.6-.9,7.17-2.23,10.07-4.61,3.64-2.99,5.52-7.48,8.66-10.93,7.29-7.95,18.12-9.09,23.66,1.57,3.96,7.64-.43,18-8.92,20.19-7.75,1.99-14.72-4.77-9.64-11.8,5.53-7.65,14.86-3.25,15.99,4.68,2.45-3.55,2.19-8.21-.32-12.07-4.29-6.56-11.49-7.94-17.59-2.79-4.01,3.39-5.99,8.3-9.63,11.96-4.39,4.42-10.37,6.39-16.38,7.47-10.75,1.91-21.72,1.49-32.59,1.71-9.81.21-20,1.82-28.13,7.7-1.32.95-2.77,2.47-4.34,3.62,3.15,2.8,6.13,6.38,7.04,10.42,1.32,5.8-3.1,12.6-4.32,18.16-1.84,8.46-.62,17.28,7.62,21.69,6.11,3.28,13.68,3.01,20.32,1.86,7.84-1.37,15.41-4.19,22.5-7.77,6.22-3.13,11.41-7.73,17.43-11.04.98-.54,2-.97,3.06-1.34-4.85-7.09-13.15-19.86-4.3-25.91Z"/>
  <path class="st0" d="M144.92,87.51c5.1-4.03,8.54-10.43,6.07-16.79-5.22-.28-10.39-.88-15.5-1.84,1.03,6.26-2.05,12.64-6.27,17.35,5.15.78,10.37,1.22,15.59,1.38.03-.03.07-.07.11-.1Z"/>
  <path class="st0" d="M139.79,21.03c3.59,1.01,7.26,1.75,11,2.23-.83-8.04,2.33-16.42,6.69-23.26-3.39-.01-6.79.11-10.19.36-5.5,5.21-7.77,13.31-7.49,20.67Z"/>
  <path class="st0" d="M175.16,69.96c-7.07.79-14.2,1.1-21.31.87,1.4,6.15-1.6,12.41-6.03,16.86,3.8.05,7.58-.05,11.34-.24,3.69-6.86,9.69-12.76,16-17.49Z"/>
  <path class="st0" d="M153.37,23.56c3.9.38,7.84.49,11.77.37-1.17-7.86,1.56-16.26,5.32-23.29-1.38-.13-2.76-.23-4.13-.32-2.17-.14-4.37-.23-6.57-.28-4.51,6.79-8,15.45-6.39,23.52Z"/>
  <path class="st0" d="M108.3,112.43c-.32-5.92-4.32-10.94-10.3-11.95-6.45-1.09-13.09,3.42-13.12,10.29-.07,14.05,22.59,16.93,23.42,1.67ZM92.51,110.67c.06-2.26,2.32-3.39,4.37-3.03,2.15.38,3.67,2.17,3.78,4.33-.28,5.09-8.27,3.28-8.15-1.3Z"/>
  <path class="st0" d="M30.45,160.08c5.19-2.08,10.51-4.29,16.1-2.34,7.09,2.46,14.82,7.42,22.67,5.49,8.32-2.03,9.84-17.16,2.23-21.12-2.85-1.48-6.62-1.49-9.71-.72-1.6.4-.62-2.62.55-2.92,3.78-.95,8.48-.84,11.79,1.42,5.85,4.01,5.26,13.72,2.63,19.42-3,6.52-9.48,7.98-16.08,6.77-4.64-.85-9.01-2.67-13.32-4.49-4.64-1.97-8.35-1.92-13.12-.25-2.7.95-6.04,2.3-9.58,3.46,4.1,6.11-1.26,16.13-5.17,22.05,4.67.38,9.52,3.4,13.63,4.59,7.61,2.18,15.64,2.48,23.19,4.94,6.27,2.03,9.75,5.16,12.43,11.1,1.43,3.17,2.59,7.37,5.49,9.56,2.36,1.77,5.64,1.86,8.46,1.94,4.91.14,10.09-.7,14.22-3.53,6.09-4.18,7.6-12.62,13.48-17.43,12.38-10.14,28.94-3.64,35.76,9.84,6.32,12.45-1.4,26.09-11.08,34.23-8.54,7.18-19.96,7.34-30.56,8.5-3.5.38-10.7.55-12.34,4.44-2.54,5.99,5.29,15.93,8.61,20.72,9.11-2.03,20.18.15,28.63.98,15.36,1.53,31.06,3.19,46.35.39-6.6-5.6-10.33-13.82-8.8-23.87,1.36-8.91,7.75-16.95,15.45-21.7-11.04-7.64-15.65-20.33-17.04-33.48-1.08-10.12-.55-20.4.33-30.52,1.07-12.09,2.31-24.35,5.76-36.03.98-3.3,2.18-6.55,3.59-9.7-5.13.16-9.54-1.52-12.86-4.44-.24-.22-.47-.43-.69-.64-3.69-3.63-5.88-8.87-6-14.78-.08-4.07.77-7.92,2.29-11.53-22.62,1.16-46.55-1.72-65.91-14.33-6.36-4.14-13.22-9.68-17.19-16.39-4.23,6.67-8.81,13.11-13.79,19.25-.78.97-1.57,1.92-2.37,2.86-.08.11-.17.22-.26.31-6.25,7.4-13.08,14.38-20.55,20.54-8,6.58-16.8,11.94-24,19.52-7.96,8.4-16.76,21.4-12.6,33.61,4.28,12.55,20.05,8.01,29.39,4.26ZM117.22,261.68c-.32,3.8-2.91,7.39-6.93,7.83-4.03.44-7.41-2.84-7.45-6.83-.02-3.83,2.95-7.62,6.83-8.1,4.07-.51,7.13,2.54,7.54,6.37.03.11.05.25.05.44,0,.09-.01.2-.03.3ZM112.18,185.1c-2.98.41-5.94.84-8.92,1.25-.39.06-.77-.06-.86-.48-2.62-12.38-5.25-24.74-7.88-37.12-.03-.13-.02-.26,0-.41.08-.82.7-1.88,1.4-2.01,2.45-.46,4.9-.91,7.33-1.36.4-.07.75.08.86.49,3.16,12.4,6.32,24.8,9.48,37.2.21.84-.47,2.3-1.41,2.44ZM141.74,177.96c-6.69,1.71-13.38,3.42-20.08,5.15-.38.09-.75-.1-.85-.49l-9.48-37.3c-.1-.41.1-.98.43-1.46.25-.47.61-.86.98-.98,2.29-.65,4.57-1.31,6.86-1.98.38-.1.75.12.85.49,2.03,8.07,4.06,16.13,6.09,24.2.41,1.62,1.21,3.51,1.3,5.18.01.15.08.52.16.84.07-.02.14-.05.24-.08,4.05-1.13,8.09-2.25,12.14-3.39.39-.1.74.11.85.49.64,2.3,1.28,4.59,1.92,6.88.25.91-.49,2.19-1.4,2.44ZM72.33,103.31c11.64-9.37,28.35-8.92,40.28-.45,7.49,5.31,13.77,12.04,21.65,16.61.11.02.21.08.26.16,1.85,1.06,3.79,1.99,5.87,2.76,2.64.98,6.6,2.29,9.46,1.24,1.49-.55.56,2.52-.55,2.92-2.31.85-5.29.21-7.55-.39-3.07-.8-6.01-2.07-8.83-3.62-15.89,4.9-36.62,8.92-51.09-1.93-4.79-3.59-9.15-9.17-10.32-15.19-.14-.75.22-1.62.82-2.1Z"/>
  <path class="st0" d="M167.72,23.81c3.82-.22,7.61-.67,11.33-1.31-1.7-6.68.71-14.1,4.25-20.01-3.57-.76-7.18-1.28-10.75-1.65-3.78,6.85-6.58,15.32-4.84,22.97Z"/>
  <path class="st0" d="M181.73,22.01c2.65-.54,5.26-1.17,7.81-1.9-.74-5.18,1.15-10.45,4.46-14.51-2.82-1.08-5.73-1.95-8.71-2.65-3.46,5.62-5.76,12.72-3.56,19.07Z"/>
  <path class="st0" d="M107.64,55.75c22.09,12.14,47.92,14.15,72.51,10.73.68-.44,1.36-.87,2.02-1.28,3.64-2.24,7.46-4.23,11.38-5.96-2.64-5.56-4.3-11.79-4.84-17.89-30.73,14.53-68.56,1.06-94.07-18.81-2.05,3.06-3.63,6.4-5.32,10.08-.94,2.08-1.92,4.14-2.93,6.19,5.41,7.14,13.54,12.7,21.25,16.94Z"/>
  <path class="st0" d="M188.57,38.72c-.2-6.57,1.31-12.15,4.05-16.79-.57.18-1.15.37-1.74.54-.13.07-.25.11-.38.11-25.88,7.84-58.34,6.21-78.57-13.7-3.93,1.83-7.69,4.03-11.03,6.76-1.68,1.36-3.09,2.79-4.33,4.31,24.93,19.29,62,32.84,92,18.77Z"/>
  <path class="st0" d="M192.02,19.36c1.01-.31,2.02-.64,3.01-.99.02-.01.03-.01.06-.01,2.45-3.02,5.46-5.57,8.9-7.69-2.51-1.69-5.21-3.09-8.01-4.29-3.28,3.45-4.94,8.32-3.95,12.97Z"/>
  <path class="st0" d="M244.34,52.32c2.18.36,4.36.82,6.5,1.4,2.95-11.06-.99-22.36-14.11-23.02-8.56-.43-17.57,2.44-18.77,11.97-.11.92-.17,1.86-.17,2.8,0,2.21.31,4.46.88,6.55,8.5-1.17,17.15-1.14,25.66.29Z"/>
  <path class="st0" d="M230.83,255.35c-7.88,1.72-16.17,2.14-24.16.97-5.18-.77-20.18-8.45-21.71-.29-1.31,6.96,7.07,10.34,12.43,11.17,6.23.97,12.65.8,18.93.41,13.71-.85,28.79-2.82,41.36-8.69,15.46-7.23,10.96-22.05,4.53-34.04-1.03,1.13-2.1,2.22-3.23,3.25,2.71,2.85,4.83,6.57,5.24,10.46.98,9.16-7.38,15.12-14.79,18.41-12.49,5.55-26.63,8.55-40.32,7.39-4.77-.4-13.19-.99-16.84-4.77-.86-.9.98-3.53,2.01-2.46,2.9,3,9.79,3.55,13.61,4.01,10.2,1.25,20.62-.03,30.45-2.88,8.31-2.42,25.76-7.42,23.4-19.21-.65-3.23-3.01-6.8-5.14-8.88-1.26,1.03-2.57,2.01-3.93,2.91,10.12,12.57-12.43,20.2-21.85,22.25Z"/>
  <path class="st0" d="M196.21,58.12c1.86-.76,3.73-1.47,5.64-2.11-1.54-5.61-1.77-11.86-.75-17.49,1.83-9.98,8.35-17.79,17.64-21.73,11.96-5.07,30.07-6.57,41.43.94,14.41,9.56,11.02,29.07,7.37,43.36,2.64,1.74,5.1,3.71,7.33,5.94,6.84-11.84,10.23-26.53,4.71-39.54-5.5-12.97-18.62-19.48-31.97-21.24-12.41-1.65-28.55-1.07-40.68,5-.4.21-.8.41-1.21.63-2.52,1.37-4.84,2.98-6.9,4.87-11.35,10.45-9.09,28.72-2.62,41.37Z"/>
  <path class="st0" d="M251.18,154.11h-14.3c-1.49,0-3.71.39-5.31.1,0-.09,0-.21.02-.34.08-.83-.05-1.75-.06-2.56-.21-9.78-.4-19.56-.61-29.34-.01-.34-.18-.84-.61-.84h-12.84c-.67,0-1.32.82-1.6,1.6-.08.18-.13.38-.14.54-.69,26.18-1.38,52.36-2.06,78.54-.01.34.2.84.61.84h16.46c1.01,0,1.72-1.23,1.72-2.14v-27.68c5.86-.08,11.72-.16,17.57-.25,1.01-.01,1.74-1.22,1.74-2.14v-15.48c0-.34-.2-.84-.61-.84Z"/>
  <path class="st0" d="M280.74,144.73c-1.47-12.81-5.31-25.85-12.84-36.43-10.37-14.56-26.59-20.81-44.12-20.6-9.19.21-18.36,3.31-26.02,8.34-19.26,12.69-25.75,35.81-28.41,57.46-2.18,17.9-4.7,37.85.67,55.46,4.36,14.27,15.32,22.93,29.56,26.42,17.05,4.18,38.23,5.08,53.39-5.07,1.31-.88,2.56-1.85,3.76-2.85.15-.17.31-.31.47-.39,10.19-8.8,16.08-21.82,19.47-34.67,4.05-15.32,5.85-32.17,4.07-47.67ZM264.98,161.32c-1.61,21.35-3.8,50.01-26.39,59.99-10.15,4.48-23.52,4.82-34,1.07-8.12-2.9-12.93-9.52-15.36-17.57-4.1-13.56-3.61-28.64-3.37-42.61.25-15.18,1.15-30.91,8.98-44.36,5.85-10.08,16.94-19.41,29.21-19.49,15.5-.33,29.4,5.47,36.1,20.1,6.07,13.23,5.91,28.67,4.84,42.88Z"/>
  <path class="st0" d="M265.55,63.45c-.17-.11-.35-.24-.53-.36-4.23-2.77-8.81-4.85-13.64-6.34l-.56-.16-.55-.16c-6.07-1.74-12.5-2.53-19.02-2.53-4.64,0-9.32.4-13.95,1.15h-.01c-13.54,2.18-26.64,7.32-36.98,14.05-.1.09-.2.16-.31.21-12.48,8.22-27.57,23.24-20.64,39.65.77,1.82,1.87,3.41,3.21,4.76,2.42-5.42,5.68-10.57,9.14-15.35,6.92-9.56,15.73-17.96,26.21-23.5,14.05-7.42,29.92-8.47,45.4-5.85,14.49,2.45,32.1,9.66,40.5,22.9-.93-7.92-4.72-15.84-10.08-21.52-2.52-2.67-5.25-4.96-8.18-6.94Z"/>
  <path class="st0" d="M272.55,209.47c-2.28,4.68-5.03,9.09-8.29,13.03,6.35,11.86,11.28,27.37-2.05,36.59-11.28,7.78-27.66,9.68-40.92,11-7.18.71-14.49,1.1-21.7.47-4.85-.44-9.91-1.2-13.53-4.75-3.78-3.71-5.08-9.85-1.21-14,5.05-5.41,11.97-1.01,17.67.48,9.56,2.49,20.06,2.17,29.64-.05,5.18-1.21,13.01-2.91,16.95-6.7,2.92-2.8,4.21-5.9,2.03-9.22-.36-.55-.77-1.08-1.21-1.57-3.34,1.9-6.94,3.4-10.83,4.44-9.81,2.6-20.49,2.11-30.49.94-8.25-.98-16.7-2.9-23.96-7.11-.02-.01-.06-.03-.08-.05-10.51,5.46-17.79,16.65-14.89,28.67,3.51,14.56,16.19,19.4,29.8,20.95,15.81,1.79,32.27-.36,47.47-4.86,13.36-3.95,28.17-9.57,33.81-23.31,6.24-15.18,4.45-33.81-8.24-44.97Z"/>
  <path class="st0" d="M273.28,85.4c-20.96-17.48-55.84-20-78.97-5.76-13,7.98-24.27,21.24-30.19,35.44,3.4,2.63,7.87,3.94,12.27,3.77,9.37-18.86,26.33-33.64,48.51-34.12,20.42-.25,38.39,8.53,48.48,26.63.63,1.14,1.23,2.31,1.8,3.48,5.46-4.37,8.15-10.27,8.72-16.55-2.2-5-6.53-9.48-10.63-12.89Z"/>
</svg>