<?xml version="1.0" encoding="UTF-8"?>
<svg id="Layer_1" xmlns="http://www.w3.org/2000/svg" version="1.1" viewBox="0 0 284.24 297.59">
  <!-- Generator: Adobe Illustrator 30.5.1, SVG Export Plug-In . SVG Version: 2.1.4 Build 3)  -->
  <defs>
    <style>
      .st0 {
        fill: #2d2e2d;
      }
    </style>
  </defs>
  <path class="st0" d="M29.01,22.41c-1.88-.72-4.15-1.41-5.88-.78-.57.22-.61.36-.62.39-.12.36-.15.98-.12,1.51.1,1.44.65,3.18,1.22,4.52,1.72-1.97,3.52-3.84,5.4-5.63h0Z"/>
  <path class="st0" d="M18.18,209.5c-.18,2.32-.37,4.64-.55,6.96h10.97c.13-2.46.26-4.92.39-7.37-.94.03-1.9.08-2.84.11-2.55.1-5.34.49-7.98.29h0Z"/>
  <path class="st0" d="M15.61,38.89c1.78-2.92,3.79-5.72,5.95-8.41-1-2.22-1.78-4.76-1.47-7.15.24-1.97,1.38-3.84,3.3-4.53,2.63-.94,5.73.18,8.25,1.2,1.79-1.56,3.63-3.07,5.52-4.46-.22-4.46-6.01-5.42-9.63-5-7.03.82-13.1,5.94-16.63,11.86-3.98,6.64-2.16,13.61,4.71,16.49Z"/>
  <path class="st0" d="M31,214.01h9.89c.12-1.76.22-3.52.32-5.29-3.31,0-6.63.11-9.95.26-.08,1.68-.17,3.36-.26,5.02h0Z"/>
  <path class="st0" d="M21.97,206.46c9.68-.37,20.97-2.36,30.43.14,5.03,1.33,8.26,4.26,11.85,7.79,2.23,2.18,4.55,3.53,7.02,4.27-.11-.11-.23-.23-.33-.36-4.14-4.87-4.19-12.15-9.69-16.05-5.77-4.1-13.66-4.79-20.44-5.99-3.4-.61-6.83-1.21-10.11-2.24-3.44-1.08-6.58-2.91-10.11-3.71-5.1-1.16-8.42.53-9.08,6.07-.41,3.44.22,6.96,3.37,8.88,2.19,1.33,4.65,1.3,7.1,1.2h0Z"/>
  <path class="st0" d="M52.92,39.92c-6.04.71-10.76,6.42-10.7,12.45.05,6.53,5.68,11.87,12.27,11.15,6.3-.7,10.37-6.15,10.81-12.16.02-.1.03-.2.02-.29.01-.2-.01-.33-.05-.45-.55-6.37-5.65-11.48-12.36-10.7h.01Z"/>
  <path class="st0" d="M17,40.27c-.3.51-.59.99-.86,1.48-3.41,5.95-5.83,12.37-6.68,19.02-1.83,14.14,5.94,25.72,19.95,28.42,6.5,1.25,13.59,1.1,20.09-.34,1.9-2,3.75-4.03,5.54-6.1-5.52.36-11.26-.2-16.48-1.85-23.31-7.45-13.14-35.81-.14-48.32,7.09-6.84,18.36-14.33,28.76-12.92,9.71,1.31,15.98,9.2,17.04,18.24,1.4-2.95,2.8-5.92,4.27-8.85-1.11-7.02-5.24-15.13-11.6-19.1-13.14-8.18-30.55,1-41.13,9.4-7.09,5.63-13.84,12.81-18.78,20.93h.02Z"/>
  <path class="st0" d="M91.51,49c-.03-.09-.05-.18-.05-.29-2.44-2.1-4.69-4.39-6.63-6.85-.2.38-.39.76-.59,1.14-.07.25-.2.49-.36.7-2.34,4.48-4.82,8.88-7.46,13.18,1.92,3.36,4.54,6.4,7.49,9.12,4.84-3.96,9.8-10.35,7.58-17.01h.02Z"/>
  <path class="st0" d="M96.15,74.96c5.75-3.98,9.37-10.77,7.4-17.79-3.13-1.82-6.26-3.86-9.22-6.13.08,6.29-4.24,12.3-8.85,16.35,2.56,2.21,5.3,4.17,7.95,5.91.9.57,1.8,1.11,2.71,1.65h.01Z"/>
  <path class="st0" d="M110.45,81.54c5.81-4,9.33-10.84,7.04-17.7-3.62-1.38-7.16-2.96-10.62-4.82-.16-.08-.32-.17-.48-.26.45,6.71-3.09,13.06-8.22,17.35,3.93,2.17,8.01,3.98,12.22,5.47.01-.01.03-.03.06-.05h0Z"/>
  <path class="st0" d="M129.61,2.98c-3.85.9-7.65,1.99-11.35,3.31-1.06.39-2.11.79-3.16,1.23,3.22,2.99,6.75,5.53,10.49,7.64-.13-4.33,1.48-8.6,4.02-12.18Z"/>
  <path class="st0" d="M132.59,68.32c-4.1-.88-8.16-2-12.14-3.38.9,6.65-2.6,13.07-7.71,17.47,4.59,1.48,9.3,2.61,14.07,3.44,4.69-4.42,7.98-11.15,5.78-17.53Z"/>
  <path class="st0" d="M128.21,16.3c.02.08.02.18.02.28,2.95,1.48,6.03,2.72,9.19,3.75.14-7.01,2.41-14.23,6.87-19.71-3.91.38-7.78.94-11.62,1.71-.23.26-.59.67-.68.78-.69.85-1.31,1.75-1.86,2.69-1.9,3.25-2.78,6.78-1.93,10.5h0Z"/>
  <path class="st0" d="M93.36,250.73c3.69-2.52,8.76-2.77,13.04-3.21,6.09-.62,12.24-1.03,18.17-2.67,12.68-3.49,25.18-18.48,20.56-32.07-2.85-8.39-11.46-16.22-20.49-16.95-8.18-.66-15.56,4.42-19.38,11.41-3.05,5.57-5.47,10.01-11.62,12.63-3.63,1.56-7.58,2.15-11.51,2.1-.23,0-.46,0-.7,0-4.34.62-8.46.76-12.23-.52-.12.05-.23.07-.34.06-7.45-.4-14.95-.46-22.42-.18-10.16.37-28.65-.07-30.42,13.65-.48,3.68,2.05,9.78,6.52,7.83,2.09-.92,3.91-3.1,5.75-4.42,7.3-5.18,16.07-7.21,24.88-7.8,13.31-.91,26.93.65,40.02-2.61,3.6-.9,7.17-2.23,10.07-4.61,3.64-2.99,5.52-7.48,8.66-10.93,7.29-7.95,18.12-9.09,23.66,1.57,3.96,7.64-.43,18-8.92,20.19-7.75,1.99-14.72-4.77-9.64-11.8,5.53-7.65,14.86-3.25,15.99,4.68,2.45-3.55,2.19-8.21-.32-12.07-4.29-6.56-11.49-7.94-17.59-2.79-4.01,3.39-5.99,8.3-9.63,11.96-4.39,4.42-10.37,6.39-16.38,7.47-10.75,1.91-21.72,1.49-32.59,1.71-9.81.21-20,1.82-28.13,7.7-1.32.95-2.77,2.47-4.34,3.62,3.15,2.8,6.13,6.38,7.04,10.42,1.32,5.8-3.1,12.6-4.32,18.16-1.84,8.46-.62,17.28,7.62,21.69,6.11,3.28,13.68,3.01,20.32,1.86,7.84-1.37,15.41-4.19,22.5-7.77,6.22-3.13,11.41-7.73,17.43-11.04.98-.54,2-.97,3.06-1.34-4.85-7.09-13.15-19.86-4.3-25.91h-.02Z"/>
  <path class="st0" d="M144.92,87.51c5.1-4.03,8.54-10.43,6.07-16.79-5.22-.28-10.39-.88-15.5-1.84,1.03,6.26-2.05,12.64-6.27,17.35,5.15.78,10.37,1.22,15.59,1.38.03-.03.07-.07.11-.1Z"/>
  <path class="st0" d="M139.79,21.03c3.59,1.01,7.26,1.75,11,2.23-.83-8.04,2.33-16.42,6.69-23.26-3.39,0-6.79.11-10.19.36-5.5,5.21-7.77,13.31-7.49,20.67h0Z"/>
  <path class="st0" d="M175.16,69.96c-7.07.79-14.2,1.1-21.31.87,1.4,6.15-1.6,12.41-6.03,16.86,3.8.05,7.58-.05,11.34-.24,3.69-6.86,9.69-12.76,16-17.49Z"/>
  <path class="st0" d="M153.37,23.56c3.9.38,7.84.49,11.77.37-1.17-7.86,1.56-16.26,5.32-23.29-1.38-.13-2.76-.23-4.13-.32-2.17-.14-4.37-.23-6.57-.28-4.51,6.79-8,15.45-6.39,23.52Z"/>
  <path class="st0" d="M108.3,112.43c-.32-5.92-4.32-10.94-10.3-11.95-6.45-1.09-13.09,3.42-13.12,10.29-.07,14.05,22.59,16.93,23.42,1.67h0ZM92.51,110.67c.06-2.26,2.32-3.39,4.37-3.03,2.15.38,3.67,2.17,3.78,4.33-.28,5.09-8.27,3.28-8.15-1.3Z"/>
  <path class="st0" d="M30.45,160.08c5.19-2.08,10.51-4.29,16.1-2.34,7.09,2.46,14.82,7.42,22.67,5.49,8.32-2.03,9.84-17.16,2.23-21.12-2.85-1.48-6.62-1.49-9.71-.72-1.6.4-.62-2.62.55-2.92,3.78-.95,8.48-.84,11.79,1.42,5.85,4.01,5.26,13.72,2.63,19.42-3,6.52-9.48,7.98-16.08,6.77-4.64-.85-9.01-2.67-13.32-4.49-4.64-1.97-8.35-1.92-13.12-.25-2.7.95-6.04,2.3-9.58,3.46,4.1,6.11-1.26,16.13-5.17,22.05,4.67.38,9.52,3.4,13.63,4.59,7.61,2.18,15.64,2.48,23.19,4.94,6.27,2.03,9.75,5.16,12.43,11.1,1.43,3.17,2.59,7.37,5.49,9.56,2.36,1.77,5.64,1.86,8.46,1.94,4.91.14,10.09-.7,14.22-3.53,6.09-4.18,7.6-12.62,13.48-17.43,12.38-10.14,28.94-3.64,35.76,9.84,6.32,12.45-1.4,26.09-11.08,34.23-8.54,7.18-19.96,7.34-30.56,8.5-3.5.38-10.7.55-12.34,4.44-2.54,5.99,5.29,15.93,8.61,20.72,9.11-2.03,20.18.15,28.63.98,15.36,1.53,31.06,3.19,46.35.39-6.6-5.6-10.33-13.82-8.8-23.87,1.36-8.91,7.75-16.95,15.45-21.7-11.04-7.64-15.65-20.33-17.04-33.48-1.08-10.12-.55-20.4.33-30.52,1.07-12.09,2.31-24.35,5.76-36.03.98-3.3,2.18-6.55,3.59-9.7-5.13.16-9.54-1.52-12.86-4.44-.24-.22-.47-.43-.69-.64-3.69-3.63-5.88-8.87-6-14.78-.08-4.07.77-7.92,2.29-11.53-22.62,1.16-46.55-1.72-65.91-14.33-6.36-4.14-13.22-9.68-17.19-16.39-4.23,6.67-8.81,13.11-13.79,19.25-.78.97-1.57,1.92-2.37,2.86-.08.11-.17.22-.26.31-6.25,7.4-13.08,14.38-20.55,20.54-8,6.58-16.8,11.94-24,19.52-7.96,8.4-16.76,21.4-12.6,33.61,4.28,12.55,20.05,8.01,29.39,4.26v.02ZM117.22,261.68c-.32,3.8-2.91,7.39-6.93,7.83-4.03.44-7.41-2.84-7.45-6.83-.02-3.83,2.95-7.62,6.83-8.1,4.07-.51,7.13,2.54,7.54,6.37.03.11.05.25.05.44,0,.09-.01.2-.03.3h-.01ZM112.18,185.1c-2.98.41-5.94.84-8.92,1.25-.39.06-.77-.06-.86-.48-2.62-12.38-5.25-24.74-7.88-37.12-.03-.13-.02-.26,0-.41.08-.82.7-1.88,1.4-2.01,2.45-.46,4.9-.91,7.33-1.36.4-.07.75.08.86.49,3.16,12.4,6.32,24.8,9.48,37.2.21.84-.47,2.3-1.41,2.44h0ZM141.74,177.96c-6.69,1.71-13.38,3.42-20.08,5.15-.38.09-.75-.1-.85-.49l-9.48-37.3c-.1-.41.1-.98.43-1.46.25-.47.61-.86.98-.98,2.29-.65,4.57-1.31,6.86-1.98.38-.1.75.12.85.49,2.03,8.07,4.06,16.13,6.09,24.2.41,1.62,1.21,3.51,1.3,5.18.01.15.08.52.16.84.07-.02.14-.05.24-.08,4.05-1.13,8.09-2.25,12.14-3.39.39-.1.74.11.85.49.64,2.3,1.28,4.59,1.92,6.88.25.91-.49,2.19-1.4,2.44h-.01ZM72.33,103.31c11.64-9.37,28.35-8.92,40.28-.45,7.49,5.31,13.77,12.04,21.65,16.61.11.02.21.08.26.16,1.85,1.06,3.79,1.99,5.87,2.76,2.64.98,6.6,2.29,9.46,1.24,1.49-.55.56,2.52-.55,2.92-2.31.85-5.29.21-7.55-.39-3.07-.8-6.01-2.07-8.83-3.62-15.89,4.9-36.62,8.92-51.09-1.93-4.79-3.59-9.15-9.17-10.32-15.19-.14-.75.22-1.62.82-2.1h0Z"/>
  <path class="st0" d="M167.72,23.81c3.82-.22,7.61-.67,11.33-1.31-1.7-6.68.71-14.1,4.25-20.01-3.57-.76-7.18-1.28-10.75-1.65-3.78,6.85-6.58,15.32-4.84,22.97h0Z"/>
  <path class="st0" d="M181.73,22.01c2.65-.54,5.26-1.17,7.81-1.9-.74-5.18,1.15-10.45,4.46-14.51-2.82-1.08-5.73-1.95-8.71-2.65-3.46,5.62-5.76,12.72-3.56,19.07h0Z"/>
  <path class="st0" d="M107.64,55.75c22.09,12.14,47.92,14.15,72.51,10.73.68-.44,1.36-.87,2.02-1.28,3.64-2.24,7.46-4.23,11.38-5.96-2.64-5.56-4.3-11.79-4.84-17.89-30.73,14.53-68.56,1.06-94.07-18.81-2.05,3.06-3.63,6.4-5.32,10.08-.94,2.08-1.92,4.14-2.93,6.19,5.41,7.14,13.54,12.7,21.25,16.94Z"/>
  <path class="st0" d="M188.57,38.72c-.2-6.57,1.31-12.15,4.05-16.79-.57.18-1.15.37-1.74.54-.13.07-.25.11-.38.11-25.88,7.84-58.34,6.21-78.57-13.7-3.93,1.83-7.69,4.03-11.03,6.76-1.68,1.36-3.09,2.79-4.33,4.31,24.93,19.29,62,32.84,92,18.77Z"/>
  <path class="st0" d="M192.02,19.36c1.01-.31,2.02-.64,3.01-.99.02-.01.03-.01.06-.01,2.45-3.02,5.46-5.57,8.9-7.69-2.51-1.69-5.21-3.09-8.01-4.29-3.28,3.45-4.94,8.32-3.95,12.97h0Z"/>
  <path class="st0" d="M244.34,52.32c2.18.36,4.36.82,6.5,1.4,2.95-11.06-.99-22.36-14.11-23.02-8.56-.43-17.57,2.44-18.77,11.97-.11.92-.17,1.86-.17,2.8,0,2.21.31,4.46.88,6.55,8.5-1.17,17.15-1.14,25.66.29h0Z"/>
  <path class="st0" d="M230.83,255.35c-7.88,1.72-16.17,2.14-24.16.97-5.18-.77-20.18-8.45-21.71-.29-1.31,6.96,7.07,10.34,12.43,11.17,6.23.97,12.65.8,18.93.41,13.71-.85,28.79-2.82,41.36-8.69,15.46-7.23,10.96-22.05,4.53-34.04-1.03,1.13-2.1,2.22-3.23,3.25,2.71,2.85,4.83,6.57,5.24,10.46.98,9.16-7.38,15.12-14.79,18.41-12.49,5.55-26.63,8.55-40.32,7.39-4.77-.4-13.19-.99-16.84-4.77-.86-.9.98-3.53,2.01-2.46,2.9,3,9.79,3.55,13.61,4.01,10.2,1.25,20.62-.03,30.45-2.88,8.31-2.42,25.76-7.42,23.4-19.21-.65-3.23-3.01-6.8-5.14-8.88-1.26,1.03-2.57,2.01-3.93,2.91,10.12,12.57-12.43,20.2-21.85,22.25h.01Z"/>
  <path class="st0" d="M196.21,58.12c1.86-.76,3.73-1.47,5.64-2.11-1.54-5.61-1.77-11.86-.75-17.49,1.83-9.98,8.35-17.79,17.64-21.73,11.96-5.07,30.07-6.57,41.43.94,14.41,9.56,11.02,29.07,7.37,43.36,2.64,1.74,5.1,3.71,7.33,5.94,6.84-11.84,10.23-26.53,4.71-39.54-5.5-12.97-18.62-19.48-31.97-21.24-12.41-1.65-28.55-1.07-40.68,5-.4.21-.8.41-1.21.63-2.52,1.37-4.84,2.98-6.9,4.87-11.35,10.45-9.09,28.72-2.62,41.37h.01Z"/>
  <path class="st0" d="M251.18,154.11h-14.3c-1.49,0-3.71.39-5.31.1,0-.09,0-.21.02-.34.08-.83-.05-1.75-.06-2.56-.21-9.78-.4-19.56-.61-29.34,0-.34-.18-.84-.61-.84h-12.84c-.67,0-1.32.82-1.6,1.6-.08.18-.13.38-.14.54-.69,26.18-1.38,52.36-2.06,78.54,0,.34.2.84.61.84h16.46c1.01,0,1.72-1.23,1.72-2.14v-27.68c5.86-.08,11.72-.16,17.57-.25,1.01,0,1.74-1.22,1.74-2.14v-15.48c0-.34-.2-.84-.61-.84h.02Z"/>
  <path class="st0" d="M280.74,144.73c-1.47-12.81-5.31-25.85-12.84-36.43-10.37-14.56-26.59-20.81-44.12-20.6-9.19.21-18.36,3.31-26.02,8.34-19.26,12.69-25.75,35.81-28.41,57.46-2.18,17.9-4.7,37.85.67,55.46,4.36,14.27,15.32,22.93,29.56,26.42,17.05,4.18,38.23,5.08,53.39-5.07,1.31-.88,2.56-1.85,3.76-2.85.15-.17.31-.31.47-.39,10.19-8.8,16.08-21.82,19.47-34.67,4.05-15.32,5.85-32.17,4.07-47.67h0ZM264.98,161.32c-1.61,21.35-3.8,50.01-26.39,59.99-10.15,4.48-23.52,4.82-34,1.07-8.12-2.9-12.93-9.52-15.36-17.57-4.1-13.56-3.61-28.64-3.37-42.61.25-15.18,1.15-30.91,8.98-44.36,5.85-10.08,16.94-19.41,29.21-19.49,15.5-.33,29.4,5.47,36.1,20.1,6.07,13.23,5.91,28.67,4.84,42.88h-.01Z"/>
  <path class="st0" d="M265.55,63.45c-.17-.11-.35-.24-.53-.36-4.23-2.77-8.81-4.85-13.64-6.34l-.56-.16-.55-.16c-6.07-1.74-12.5-2.53-19.02-2.53-4.64,0-9.32.4-13.95,1.15h0c-13.54,2.18-26.64,7.32-36.98,14.05-.1.09-.2.16-.31.21-12.48,8.22-27.57,23.24-20.64,39.65.77,1.82,1.87,3.41,3.21,4.76,2.42-5.42,5.68-10.57,9.14-15.35,6.92-9.56,15.73-17.96,26.21-23.5,14.05-7.42,29.92-8.47,45.4-5.85,14.49,2.45,32.1,9.66,40.5,22.9-.93-7.92-4.72-15.84-10.08-21.52-2.52-2.67-5.25-4.96-8.18-6.94h-.01Z"/>
  <path class="st0" d="M272.55,209.47c-2.28,4.68-5.03,9.09-8.29,13.03,6.35,11.86,11.28,27.37-2.05,36.59-11.28,7.78-27.66,9.68-40.92,11-7.18.71-14.49,1.1-21.7.47-4.85-.44-9.91-1.2-13.53-4.75-3.78-3.71-5.08-9.85-1.21-14,5.05-5.41,11.97-1.01,17.67.48,9.56,2.49,20.06,2.17,29.64-.05,5.18-1.21,13.01-2.91,16.95-6.7,2.92-2.8,4.21-5.9,2.03-9.22-.36-.55-.77-1.08-1.21-1.57-3.34,1.9-6.94,3.4-10.83,4.44-9.81,2.6-20.49,2.11-30.49.94-8.25-.98-16.7-2.9-23.96-7.11-.02,0-.06-.03-.08-.05-10.51,5.46-17.79,16.65-14.89,28.67,3.51,14.56,16.19,19.4,29.8,20.95,15.81,1.79,32.27-.36,47.47-4.86,13.36-3.95,28.17-9.57,33.81-23.31,6.24-15.18,4.45-33.81-8.24-44.97l.03.02Z"/>
  <path class="st0" d="M273.28,85.4c-20.96-17.48-55.84-20-78.97-5.76-13,7.98-24.27,21.24-30.19,35.44,3.4,2.63,7.87,3.94,12.27,3.77,9.37-18.86,26.33-33.64,48.51-34.12,20.42-.25,38.39,8.53,48.48,26.63.63,1.14,1.23,2.31,1.8,3.48,5.46-4.37,8.15-10.27,8.72-16.55-2.2-5-6.53-9.48-10.63-12.89h.01Z"/>
</svg>