<?xml version="1.0" encoding="UTF-8"?>
<svg id="Layer_1" data-name="Layer 1" xmlns="http://www.w3.org/2000/svg" xmlns:xlink="http://www.w3.org/1999/xlink" viewBox="0 0 446.31 423.7">
  <defs>
    <style>
      .cls-1 {
        fill: none;
      }

      .cls-2 {
        fill: #a53b28;
      }

      .cls-3 {
        clip-path: url(#clippath-1);
      }

      .cls-4 {
        clip-path: url(#clippath);
      }
    </style>
    <clipPath id="clippath">
      <rect class="cls-1" width="446.31" height="423.7"/>
    </clipPath>
    <clipPath id="clippath-1">
      <rect class="cls-1" width="446.31" height="423.7"/>
    </clipPath>
  </defs>
  <g id="Pig">
    <g class="cls-4">
      <g class="cls-3">
        <path class="cls-2" d="M295.2,406.56c-.83.83-3.66,1.17-4.88,1.17s-1.76-.29-1.76-.29c0-7.18.29-28.17.29-28.17-.98-1.17-1.9-4.3-1.9-5.08,0-.1,0-.15.05-.19.24-.24,4.93-.54,9.57-.54,6.25,0,15.52,1.32,15.52,8.98,0,11.13-17.38,12.69-17.38,12.69.1,5.42.24,10.25.49,11.42M305.65,382.73c0-2.73-3.22-4.15-7.18-4.15-1.95,0-3.52.29-3.52.29-.2,1.42-.24,5.91-.24,10.84,8.84-.78,10.94-4.1,10.94-6.98"/>
        <path class="cls-2" d="M315.94,396.7c0-6.98.2-17.48.24-17.77-.49,0-1.85.15-2.29.29-.1,0-.1-.49-.1-1.12,0-1.36.15-3.47.29-3.61.1-.1,4.49-.78,9.96-.78.1,0,.15.29.15.78,0,.83-.15,2.39-.15,3.61,0,.1,0,.2-.15.2-.34,0-1.66,0-1.81.1-.05.1-.29,6.93-.29,13.42,0,4.15.1,8.2.39,10.15.64-.05,1.32-.05,2-.05.15,0,.2.73.2,1.66,0,1.17-.1,2.59-.15,3.03-.05.05,0,.15-.15.15-2.25,0-7.96.19-10.15.69-.1,0-.15-.59-.15-1.37,0-1.32.15-3.12.34-3.37.1-.05,1.56-.29,1.9-.29-.05-.83-.1-2.98-.1-5.71"/>
        <path class="cls-2" d="M349.04,408.02c0-1.22-.05-2.73-.24-3.17-.05-.1-.1-.1-.1-.1-.05,0-.15.1-.15.1-1.51,1.51-4.24,2.88-7.52,2.88-8.88,0-12.74-6.54-12.74-14.69,0-7.18,2.78-19.53,18.79-19.53,1.32,0,4.59.44,4.78.68.1.1.1.39.1.78,0,1.42-.39,4.3-.78,4.69,0,0-1.51-.78-5.12-.78-6.64,0-11.33,4.44-11.33,13.62,0,5.47,2.15,9.47,7.03,9.47,4.3,0,6.79-3.17,6.79-4.2v-1.56c0-1.32-.05-3.03-.29-3.27-.15-.19-2.49-.44-4.54-.44s-2.73.15-2.98.15c-.2,0-.2-.34-.2-.39,0-.93.54-3.56,1.56-4.59.34-.34,5.42-.68,11.52-.68.44,0,2.78.1,2.78.24,0,1.61-1.12,4.83-1.66,5.61,0,0-.05,13.13-.34,13.67-.3.54-2.78,1.66-4.44,1.66-.49,0-.93,0-.93-.15"/>
        <path class="cls-2" d="M198.47,391.48l3.84,2.26c-1.46,2.46-3.26,4.89-5.42,7.3-2.16,2.41-4.51,4.64-7.04,6.7-2.53,2.06-5.03,3.79-7.49,5.2-.15-.45-.38-.98-.68-1.58-.3-.6-.62-1.19-.94-1.77-.33-.57-.64-1.06-.94-1.47,2.31-1.05,4.65-2.47,7.04-4.25,2.38-1.78,4.6-3.75,6.66-5.91,2.06-2.16,3.71-4.31,4.97-6.47M194.94,379.74l3.69,2.18c-1.2,1.71-2.67,3.45-4.4,5.23-1.73,1.78-3.57,3.48-5.5,5.08-1.93,1.61-3.83,2.96-5.68,4.07-.15-.4-.38-.88-.68-1.43-.3-.55-.61-1.12-.94-1.69-.33-.58-.64-1.04-.94-1.39,1.7-.85,3.47-1.92,5.3-3.2,1.83-1.28,3.55-2.7,5.16-4.25,1.61-1.55,2.94-3.09,3.99-4.59M196.67,360.99l4.59,1.58c-1.31,2.31-2.91,4.54-4.82,6.7-1.91,2.16-3.97,4.13-6.17,5.91-2.21,1.78-4.49,3.33-6.85,4.63-.1-.35-.31-.84-.64-1.47-.33-.63-.67-1.24-1.02-1.84-.35-.6-.68-1.1-.98-1.51,3.16-1.56,6.18-3.55,9.07-5.99,2.89-2.43,5.16-5.1,6.81-8.02M180.86,358.89h30.34v5.04h-30.34v-5.04ZM189.29,371.68l3.84-2.33c2.11,2.26,3.86,4.93,5.27,8.02,1.4,3.09,2.51,6.35,3.31,9.79.8,3.44,1.36,6.88,1.66,10.31.3,3.44.38,6.67.23,9.71-.15,3.04-.51,5.68-1.09,7.94-.58,2.26-1.29,3.89-2.15,4.89-.9,1.25-1.92,2.12-3.05,2.6-1.13.48-2.47.74-4.03.79-.7,0-1.54-.01-2.52-.04-.98-.03-1.94-.06-2.9-.11-.05-.7-.16-1.53-.34-2.49-.18-.95-.44-1.78-.79-2.48,1,.1,2.01.18,3.01.23,1,.05,1.78.07,2.33.07.8,0,1.53-.11,2.18-.34.65-.22,1.25-.76,1.81-1.62.65-.75,1.18-2.08,1.58-3.99.4-1.91.65-4.2.75-6.89.1-2.68.04-5.57-.19-8.66-.23-3.09-.7-6.2-1.43-9.33-.73-3.14-1.69-6.1-2.9-8.88-1.2-2.78-2.74-5.18-4.59-7.19M207.36,370.93l4.67,2.71c-1.71,2.16-3.5,4.37-5.38,6.63-1.88,2.26-3.65,4.19-5.31,5.79l-3.54-2.33c1.05-1.1,2.18-2.41,3.39-3.91,1.2-1.51,2.35-3.05,3.43-4.63,1.08-1.58,1.99-3,2.75-4.25M201.11,383.73l3.09-2.33c1.41,1.31,2.71,2.71,3.92,4.22,1.2,1.5,2.11,2.89,2.71,4.14l-3.31,2.64c-.6-1.25-1.49-2.69-2.67-4.33-1.18-1.63-2.42-3.07-3.73-4.33M242.21,360.62l4.97,1.88c-3.01,5.22-6.54,10.16-10.58,14.83-4.04,4.67-8.42,8.92-13.13,12.76-4.72,3.84-9.59,7.19-14.6,10.05-.2-.45-.49-.98-.87-1.58-.38-.6-.78-1.22-1.2-1.84-.43-.63-.79-1.12-1.09-1.47,4.92-2.51,9.65-5.53,14.19-9.07,4.54-3.54,8.72-7.47,12.53-11.82,3.81-4.34,7.07-8.92,9.79-13.74M209.76,378.08h39.75v4.97h-39.75v-4.97ZM213.15,363.78h24.92v4.89h-24.92v-4.89ZM214.51,391.4h29.96v31.99h-5.64v-27.47h-18.9v27.77h-5.42v-32.29ZM217.29,403.22h24.16v4.44h-24.16v-4.44ZM217.29,415.49h23.94v4.74h-23.94v-4.74ZM222.56,354.44h5.42v26.5h-5.42v-26.5Z"/>
        <path class="cls-2" d="M345.31,128.95s1.94-4.9,7.63-6.6c.72-.22,1.47-.35,2.22-.46.85,1.12,2.3,2.24,2.64,3.35.32,1.06-.26,2.75-.34,4.15-.7.34-1.41.64-2.14.86-5.68,1.71-10-1.31-10-1.31M142.86,143.71c.47-1.49,1.55-3.16,1.49-4.4-.07-1.29-1.34-2.89-1.95-4.33-.84-.09-1.69-.15-2.52-.11-6.6.31-10.02,5.08-10.02,5.08,0,0,3.86,4.42,10.46,4.11.85-.04,1.7-.18,2.55-.35M140.55,133.02c.5.46,1.05.87,1.62,1.27.94-3.03,4.76-2.26,6.47-3.37,1.71-1.11,2.56-4.91,4.46-5.01,1.96-.1,3.21,3.63,4.95,4.52,1.69.86,5.46-.35,6.56,1.36.77,1,1.29.53,1.76.01,4.45-4.89,3.5-10.68,3.5-10.68,0,0-5.85-.4-10.3,4.49-.79.87-1.47,1.84-2.08,2.86.18-1.17.28-2.36.22-3.53-.31-6.6-5.08-10.02-5.08-10.02,0,0-4.42,3.86-4.11,10.46.05,1.17.26,2.35.55,3.49-.7-.95-1.47-1.86-2.34-2.65-4.89-4.45-10.68-3.5-10.68-3.5,0,0-.4,5.85,4.49,10.3M374.33,116.15c-.08,1.4-.67,3.09-.34,4.15.34,1.11,1.79,2.23,2.64,3.35.75-.1,1.5-.24,2.22-.46,5.68-1.71,7.63-6.6,7.63-6.6,0,0-4.32-3.01-10-1.31-.73.22-1.45.53-2.14.86M353.12,120.59c.54.29,1.11.53,1.69.75.16-2.85,3.66-3,4.9-4.34,1.25-1.34,1.16-4.84,2.8-5.34,1.68-.51,3.58,2.47,5.3,2.86,1.66.38,4.68-1.49,6.01-.24.89.71,1.24.18,1.54-.37,2.81-5.23.73-10.06.73-10.06,0,0-5.19.92-8,6.15-.5.92-.88,1.92-1.19,2.94-.1-1.06-.27-2.11-.57-3.12-1.71-5.68-6.6-7.63-6.6-7.63,0,0-3.02,4.32-1.31,10,.3,1.01.74,1.99,1.24,2.92-.82-.68-1.69-1.3-2.61-1.8-5.23-2.81-10.06-.73-10.06-.73,0,0,.92,5.19,6.15,8M276.32,160.36c1.25.62,2.56,1.15,3.89,1.5,7.54,1.99,13.09-2.16,13.09-2.16,0,0-2.77-6.35-10.32-8.34-.78-.21-1.58-.34-2.39-.45.67,3.69-3.76,4.96-4.94,7.05-1.18,2.09,0,6.54-1.94,7.68-1.99,1.17-5.34-2.06-7.65-2.04-2.24.02-5.52,3.34-7.62,2.16-.52-.29-.83-.79-1.04-1.4-.32.77-.6,1.55-.82,2.35-1.99,7.54,2.16,13.09,2.16,13.09,0,0,6.35-2.77,8.34-10.32.35-1.34.54-2.73.62-4.13.45,1.32,1,2.62,1.69,3.81,3.93,6.75,10.78,7.73,10.78,7.73,0,0,2.53-6.45-1.39-13.19-.7-1.2-1.55-2.31-2.48-3.35M248.97,153.61c.78.21,1.58.34,2.39.45-.67-3.69,3.76-4.96,4.94-7.05,1.18-2.09,0-6.54,1.94-7.68,2-1.17,5.34,2.06,7.65,2.04,2.24-.02,5.52-3.34,7.62-2.16.52.29.83.79,1.04,1.4.32-.77.6-1.55.82-2.35,1.99-7.55-2.16-13.09-2.16-13.09,0,0-6.35,2.77-8.34,10.32-.35,1.34-.54,2.73-.62,4.13-.45-1.32-1-2.62-1.69-3.81-3.93-6.74-10.78-7.73-10.78-7.73,0,0-2.53,6.45,1.4,13.19.69,1.2,1.55,2.31,2.48,3.36-1.25-.62-2.56-1.15-3.89-1.5-7.55-1.99-13.09,2.16-13.09,2.16,0,0,2.77,6.35,10.32,8.34M256.39,158.13c-.77-1.32-2.98-2.3-4.4-3.47-.93.36-1.85.77-2.7,1.26-6.74,3.92-7.73,10.78-7.73,10.78,0,0,6.45,2.53,13.19-1.39.87-.51,1.69-1.12,2.48-1.76-.32-1.82-.1-4.16-.84-5.42M166.98,144.63c-.51-.46-1.05-.88-1.62-1.27-.94,3.03-4.76,2.26-6.47,3.37-1.71,1.11-2.56,4.92-4.46,5.01-1.96.1-3.21-3.63-4.95-4.52-1.69-.86-5.46.35-6.56-1.36-.77-1-1.29-.53-1.76-.01-4.45,4.89-3.5,10.68-3.5,10.68,0,0,5.85.4,10.3-4.49.79-.87,1.47-1.84,2.08-2.86-.18,1.17-.28,2.36-.22,3.53.31,6.6,5.08,10.02,5.08,10.02,0,0,4.42-3.85,4.11-10.46-.06-1.17-.26-2.35-.55-3.49.7.95,1.47,1.86,2.34,2.65,4.89,4.45,10.68,3.5,10.68,3.5,0,0,.4-5.85-4.49-10.3M167.21,133.58c-.85.04-1.7.18-2.55.35-.47,1.49-1.55,3.16-1.49,4.4.07,1.29,1.34,2.89,1.95,4.33.84.09,1.69.15,2.52.11,6.6-.31,10.02-5.08,10.02-5.08,0,0-3.86-4.42-10.46-4.11M275.57,146.84c.77,1.32,2.98,2.3,4.4,3.47.93-.36,1.85-.77,2.7-1.26,6.75-3.92,7.73-10.78,7.73-10.78,0,0-6.45-2.53-13.19,1.39-.87.51-1.69,1.12-2.48,1.76.32,1.82.1,4.16.84,5.42M378.68,124.96c-.54-.29-1.11-.53-1.69-.75-.16,2.85-3.66,3-4.9,4.34-1.25,1.34-1.16,4.84-2.8,5.34-1.68.51-3.58-2.47-5.3-2.86-1.66-.38-4.68,1.49-6.01.25-.89-.71-1.24-.18-1.54.37-2.81,5.23-.73,10.06-.73,10.06,0,0,5.19-.92,8-6.15.5-.93.88-1.93,1.19-2.94.1,1.06.27,2.11.57,3.12,1.71,5.68,6.6,7.63,6.6,7.63,0,0,3.02-4.32,1.31-10.01-.3-1.01-.74-1.99-1.24-2.92.82.68,1.69,1.3,2.61,1.8,5.23,2.81,10.06.73,10.06.73,0,0-.92-5.19-6.15-8M446.3,29.7c.06,2.82-.27,5.65-.95,8.38-.64,2.78-1.79,5.28-2.93,7.94-2.4,5.26-6.57,9.79-11.31,12.98-4.16,2.87-8.63,4.88-13.11,6.53,10.19,11.16,15.89,24.69,17.92,38.75,7.35,41.29-16.83,89.74-22.71,106.54-6.09,17.4,8.28,36.85,4.79,45.17-5.27,12.54-11.89,28.67-11.31,41.72.27,6.17-.47,19.99-2.03,21.2-1.45,1.12-26.76,3.96-27.54-1.93-1.04-7.83,6.12-20.28,8.69-29.81,3.12-11.56,4.27-23.86-.9-30.86-.11-.78-.44-1.53-1.07-2.1-4.63-4.17-9.27-7.86-13.58-11.9-4.32-4.03-8.38-8.36-12.37-12.79-3.99-4.44-7.84-9.04-11.62-13.69-3.84-4.7-7.39-9.27-10.47-14.29-6.25-9.9-10.9-20.9-12.99-32.4-1.07-5.74-1.31-11.61-.79-17.38.51-5.79,1.67-11.44,3.75-17.28-4.51,4.35-7.05,10.53-8.13,16.7-1.05,6.23-.9,12.58-.07,18.78,1.66,12.44,6.31,24.28,12.6,35.02,1.6,2.68,3.33,5.27,5.13,7.81,1.85,2.54,3.72,4.92,5.59,7.33,3.77,4.79,7.62,9.53,11.65,14.15,2.93,3.37,6.06,6.59,9.27,9.74.1,1.55-.02,2.94-.51,4.1-5.27,12.54-11.89,24.07-11.31,37.12.27,6.17-.47,24.59-2.03,25.79-1.45,1.12-26.76,3.96-27.54-1.93-1.04-7.83,6.12-20.28,8.69-29.81,3.56-13.19,4.56-27.35-3.48-33.5-4.83-3.69-9.25-7.39-13.37-11.08,3.2-.36,6.4-.82,9.57-1.48l3.45-.72,3.41-.92c2.27-.58,4.44-1.7,6.36-3.18-4.92-.25-9.11,1.19-13.72,1.44-4.52.45-9.08.6-13.63.67-9.11.04-18.23-.41-27.32-1.26-9.09-.85-18.14-2.08-27.21-3.3-.68-.09-1.35-.19-2.02-.28.1-.71.19-1.42.25-2.13.28-3.63.18-7.22-.22-10.74l-.64-5.26c-.29-1.74-.25-3.49-1.12-5.23-.86,1.74-.82,3.49-1.11,5.22l-.74,5.19c-.54,3.44-.98,6.82-1.59,10.1-.3,1.7-.65,3.36-1.01,5.02-.65,1.88-1.23,3.74-1.82,5.53-5.18,15.52-10.24,15.6-12.66,35.27-1.09,8.87,3.96,19.5,1.67,25.09-2.32,5.66-9.61,27.2-13.71,27.38-6.16.27-22.19.74-22.77-.91-1.39-3.96,10.23-24.96,10.15-34.31-.03-3.48-.21-6.38-.53-8.9.67-4.54-.29-8.86-1.33-12.71-1.25-4.39-2.75-8.53-4.15-12.67-1.4-4.13-2.83-8.22-4.08-12.36l-3.92-12.57c-2.6-8.37-5.44-16.61-7.61-25.02-2.42-8.38-3.21-17-6.95-25.34-1.43,9.05.76,17.73,2.42,26.41,1.85,8.67,4.11,17.22,6.57,25.63l3.65,12.62c.91,3.14,1.9,6.24,2.93,9.33-1.1,2.81-2.06,6.67-2.88,13.36-1.09,8.87,3.96,19.5,1.67,25.09-2.32,5.66-9.61,27.2-13.7,27.38-6.16.27-22.19.74-22.77-.91-1.39-3.96,10.23-24.96,10.15-34.31-.14-18.13-4.52-20.68-9.28-34.42-4.25-12.25-7.64-24.23-10.27-34.7,4.7-2.58,9.05-5.86,12.62-9.78,2.2-2.5,4.25-5.09,5.98-7.85,1.67-2.79,3.86-5.19,4.02-8.93-3.46,1.47-4.87,4.31-7.14,6.5-2.1,2.31-4.34,4.41-6.6,6.42-4.64,3.88-9.71,7-15.28,9.22-5.55,2.27-11.47,3.65-17.46,5.17-1,.27-2.02.51-3.03.74-40.8,6.12-69.63-14.71-78.34-18.98,1.15-.08,2.31-.16,3.47-.38,2.87-.47,5.74-1.31,8.37-2.53,2.64-1.2,4.96-2.68,7.22-3.93,4.48-2.6,9.25-3.71,14.61-5.3-2.68-.95-5.51-1.22-8.32-.88-2.81.34-5.57,1.28-8.12,2.36-2.56,1.08-4.92,2.23-7.27,3-2.35.79-4.73,1.2-7.18,1.34-1.21.1-2.46.09-3.7.07-1.23,0-2.33-.15-3.56-.34-2.44-.4-5.02-1.05-7.8-1.57-2.78-.52-5.87-.8-9.1-.38-2.06.26-4.12.92-6.03,1.85-2.84-.94-5.68-2.89-7.82-6.27-11.96-18.86-.74-40.11,5.97-39.35,1.74.2,4.48-.03,7.68-.71,1.14.04,1.82.08,2.6.29,1.52.36,3.05,1.03,4.48,1.89,5.78,3.57,9.95,9.65,12,16.21,2.11,6.65,1.82,13.89.36,21.27,2.14-3.16,3.52-6.81,4.18-10.65.6-3.84.49-7.87-.46-11.73-.91-3.87-2.65-7.55-5-10.78-2.32-3.25-5.3-6.03-8.78-8.15-.65-.4-1.33-.76-2.03-1.09,8.73-4.73,19.27-14.84,21.33-24.9,1.35-6.57,3.46-12.14,6.03-16.96.75-1.02,1.53-2.02,2.35-3,3.39-4.01,7.14-7.74,11.29-11.1,4.15-3.36,8.67-6.31,13.4-8.95,2.38-1.29,4.81-2.5,7.29-3.64l3.79-1.55c1.28-.5,2.52-1.09,3.7-2.29-3.1-1.1-5.81.04-8.6.6-1.37.4-2.76.76-4.13,1.19l-4.04,1.48c-5.35,2.12-10.38,5.01-15.05,8.45-4.11,3.06-7.91,6.67-10.95,10.92-.09-3.73.78-8.34,3.33-14.11,8.51-19.25,2.49-37.15,4.75-39.19,2.77-2.5,28.29,7.47,41.45,26.95-1.11,1.17-2.19,2.41-3.16,3.82-2.56,3.64-3.9,8.41-3.47,12.77.4,4.36,1.73,8.44,4.32,11.88.33-4.32-.31-8.17-.07-11.93.2-3.74,1.11-7.11,3.05-10.21,1.89-3.13,4.76-5.93,7.45-8.98,15.99-15.38,17.86-32.84,21.01-33.79,3.03-.91,16.1,9.85,24.73,25.26.7,1.51,1.42,3.01,2.06,4.54,1.85,4.32,3.4,8.76,4.36,13.32.92,4.59,1.23,9.1,1.32,14.05,2.74-4.37,2.85-9.7,2.31-14.61-.21-2-.55-3.97-.95-5.93,62.01-4.85,75.3-11.54,135.06-21.56,51.43-8.62,85.92-.76,107.4,15.12,1.81-.32,3.63-.64,5.4-1.01,4.7-1.03,9.24-2.31,13.3-4.23.72-.35,1.4-.75,2.09-1.15-.96,0-1.92-.08-2.85-.22-2.25-.33-4.44-1.04-6.45-2.11-2.03-1.05-3.91-2.44-5.49-4.21-1.59-1.74-2.9-3.85-3.65-6.21-.77-2.34-.97-4.98-.61-7.27.61-4.75,3.49-9.28,7.5-11.74,4.03-2.49,8.61-3.25,13.06-2.54,3.19.54,6.09,2.08,8.36,4.19-.43-1.08-.94-2.13-1.52-3.15-2.25-4.05-5.34-7.69-9.13-10.51-3.78-2.84-8.32-4.75-13.52-5.02,4.91-1.91,10.85-1.07,15.7,1.44,4.91,2.5,9.04,6.49,11.86,11.27,2.83,4.77,4.5,10.31,4.61,15.95M11.09,156.13c-1.63-.24-1.87.6-2.03,1.15-.19.66-.51,1.78-1.53,3.29-.6.89-1.22,1.69-1.81,2.44-1.67,2.13-3.12,3.98-2.74,6.31.22,1.38,1.24,2.24,2.65,2.24,2.58,0,5.89-2.84,6.97-7.59,1.34-5.89-1.22-7.65-1.51-7.83M30.83,164.27c-1.13-1.08-2.3-2.2-2.94-3.66-.62-1.4-.88-2.42-1.05-3.1-.21-.81-.44-1.73-1.43-1.73-1.39.55-3.9,2.26-2.66,8.24,1.03,4.96,4.62,7.64,7.49,7.64,1.61,0,2.79-.85,3.17-2.29.56-2.11-1.04-3.63-2.57-5.11M57.25,121.67c-3.04,3.43-5.94,6.63-9.21,9.26-1.61,1.33-3.31,2.51-5.05,3.56-1.79,1.06-3.6,1.63-4.71,4.5-.28.71.04,1.43.68,1.68,2.97,1.15,5.1-.35,7.01-1.75,1.95-1.41,3.65-3.11,5.17-4.91,3-3.65,5.14-7.87,6.11-12.35M75.2,126.85c.69-1.5,1.75-2.73,2.93-3.67.94,2.28,3.64,5.31,7.71,5.97,3.03.49,5.59-2.29,6.42-4.47,1.62.81,3.24,1.66,4.86,2.55-1.05-2.5-2.85-4.1-4.78-5.55-1.96-1.43-4-2.75-6.42-3.73-1.27-.42-2.47-.97-4.48-.71-1.83.22-2.71,1.53-3.63,2.54-1.71,2.15-2.59,4.66-2.62,7.07M98.44,129.99c-2.36.36-4.1.97-5.88,1.26-1.77.3-3.52.34-5.27.17-1.76-.17-3.49-.63-5.37-.98-1.84-.33-3.91-.83-5.99-.39,1.76,1.08,3.29,2.12,5.13,2.97,1.8.88,3.84,1.41,5.95,1.57,2.11.18,4.28-.13,6.25-.86,1.96-.77,3.69-1.95,5.1-3.39.09-.09.13-.23.09-.36M295.69,66.04c1.15,7.24,3.61,12.92,5.5,12.68,1.89-.24,2.62-6.39,1.64-13.73-.99-7.34-3.45-13.01-5.5-12.68-2.05.34-2.78,6.48-1.64,13.73M288.7,100.83c-.27-2.83-1.87-5.51-3.43-7.26-1.56-1.78-3.09-2.74-3.31-2.66-.25.09-.81,1.74-1.3,3.83-.47,2.1-.92,4.58-.7,6.67.33,3.18,1.01,4.95,2.41,6.03.64-1.44,1.05-3.43,1.34-4.79.28-1.4.46-2.36.55-2.37.07,0,.52.87.93,2.35.2.74.39,1.62.48,2.62.07,1.04.15,2.01-.21,3.42,2.02-.59,3.66-3.4,3.23-7.83M279.51,68.93c1.41,7.01,4.08,12.42,5.97,12.09,1.89-.28,2.39-6.29,1.11-13.43-1.28-7.14-3.96-12.6-5.99-12.18-2.01.46-2.5,6.52-1.1,13.53M263.46,72.45c1.62,6.7,4.46,11.84,6.35,11.48,1.89-.36,2.19-6.23.68-13.1-1.52-6.87-4.36-12.01-6.35-11.48-1.99.53-2.29,6.4-.68,13.1M247.35,75.71c1.02,6.47,3.56,11.59,5.68,11.27,2.12-.31,2.76-5.92,1.41-12.53-1.35-6.61-3.88-11.62-5.67-11.19-1.79.44-2.45,5.96-1.43,12.46M231.05,77.72c.54,6.14,2.66,11.05,4.75,10.94,2.09-.11,3.18-5.33,2.42-11.67-.76-6.32-2.88-11.22-4.75-10.91-1.86.32-2.96,5.52-2.42,11.64M214.65,78.78c.23,5.65,2.08,10.27,4.14,10.3,2.05.04,3.43-4.76,3.06-10.67-.37-5.91-2.21-10.49-4.13-10.27-1.92.23-3.29,5.01-3.06,10.65M205.26,112.66c-.17-.02-.69.45-1.38,1.41-.34.48-.76,1.08-1.12,1.81-.32.74-.64,1.6-.94,2.58-.3.98-.36,2.08-.47,3.28-.05,1.19.13,2.45.36,3.76.63,2.54,1.92,5.16,3.79,7.05,2.81,2.92,5.77,4.26,8.12,4.75,2.38.48,4.21.12,5.44-.71-3.53-1.44-6.12-3.71-7.74-5.63-1.6-1.94-2.17-3.43-2.09-3.49.1-.09,1.38.87,3.45,1.91,2.02,1.03,5.03,2.2,7.83,2.77-.2-2.59-2.72-4.8-5.93-7.83-.95-1.02-2.1-1.88-3.13-2.92-.57-.5-1-1.09-1.59-1.64-.5-.65-.97-1.27-1.42-1.85-.42-.68-.82-1.32-1.18-1.9-.39-.61-.61-1.19-.89-1.68-.53-.99-.94-1.65-1.11-1.67M209.98,146.97c-.02-.07.72-.73,2.04-1.49.67-.37,1.47-.78,2.42-1.12.99-.33,1.9-.64,3.36-.65-1.07-1.81-4.2-2.7-8.39-1.18-2.68.97-4.87,3.18-6.18,5.13-1.34,1.95-1.88,3.67-1.76,3.86.15.22,1.89.35,4.04.31,2.16-.06,4.67-.25,6.63-.98,2.99-1.11,4.54-2.21,5.24-3.84-1.55-.27-3.58-.17-4.97-.11-1.43.07-2.4.14-2.43.05M198.22,79.25c.09,5.05,1.8,9.24,3.81,9.36,2.01.13,3.54-4.15,3.4-9.52-.15-5.38-1.84-9.55-3.81-9.35-1.97.2-3.49,4.46-3.4,9.51M181.79,79.56c.11,4.3,1.79,7.94,3.77,8.09,1.97.15,3.52-3.53,3.44-8.24-.08-4.71-1.76-8.34-3.77-8.1-2.01.24-3.55,3.94-3.44,8.25M117.26,65.73c.24,2.86,1.08,5.09,1.64,7.36,1.19,4.49,1.67,8.97,1.9,13.95,2.26-4.43,2.7-9.76,1.93-14.69-.31-2.45-.88-4.87-.92-6.82,0-.98.14-1.76.46-2.48.24-.57,1.14-1.8,1.7-2.82,2.51-4.23,4.64-8.67,6.4-13.24.83-2.31,1.62-4.62,2.24-6.99.32-1.18.61-2.37.88-3.56.27-1.19.42-2.43-.04-3.79-1.08.96-1.58,2.04-2.04,3.14-.45,1.1-.93,2.19-1.43,3.27-1.01,2.15-2.01,4.3-3.12,6.4-2.12,4.23-4.42,8.35-6.9,12.34-.65,1.06-1.2,1.77-1.98,3.38-.67,1.49-.84,3.15-.71,4.57M105.2,174.16c.13.24,1.83.53,3.93.71,2.12.15,4.58.24,6.53-.26,2.98-.76,4.53-1.63,5.42-3.14-1.41-.48-3.41-.64-4.76-.74-1.4-.1-2.35-.13-2.38-.22-.02-.07.77-.64,2.15-1.25.69-.29,1.53-.6,2.5-.82,1.02-.2,1.95-.4,3.41-.18-.8-1.97-3.85-3.28-8.17-2.22-2.76.67-5.13,2.65-6.59,4.46-1.49,1.81-2.16,3.46-2.05,3.66M131.75,175.1c-1.29,3.58-3.38,6.35-5.19,8.12-1.8,1.78-3.25,2.5-3.34,2.41-.08-.07.77-1.46,1.66-3.64.9-2.13,1.89-5.25,2.37-8.17-2.6.34-4.72,3.12-7.61,6.71-.96,1.09-1.74,2.34-2.69,3.42-.43.64-.98,1.07-1.49,1.68-.54.54-1.14.98-1.72,1.52-2.45,1.82-5.15,2.85-5.18,3.28-.02.17.46.68,1.44,1.37.5.32,1.11.77,1.87,1.09.76.3,1.66.6,2.69.87,1.02.19,2.17.25,3.42.28,1.19-.14,2.55-.27,3.82-.71,2.62-.8,5.02-2.44,6.82-4.42,2.64-3.07,3.76-6.07,4.11-8.43.34-2.39-.11-4.19-.99-5.38M146.78,189.74c-.06-2.26-.24-4.93-.99-7.08-1.14-3.27-2.26-5.04-3.89-5.8-.24,1.73-.14,3.87-.08,5.34.08,1.51.14,2.54.05,2.57-.07.02-.73-.79-1.49-2.21-.37-.71-.78-1.57-1.12-2.57-.33-1.04-.64-2.02-.68-3.49-1.78,1.11-2.67,4.29-1.17,8.69.95,2.81,3.16,5.2,5.13,6.68,1.97,1.51,3.72,2.18,3.91,2.06.23-.14.37-1.94.34-4.2M187.57,137.23c-.19-4.11-7.88-6.33-9.53-9.83-1.71-3.63,1.42-10.95-1.5-13.61-2.92-2.66-9.91,1.15-13.69-.22-3.64-1.31-6.58-8.75-10.68-8.56-4.11.19-6.33,7.88-9.83,9.53-3.63,1.71-10.95-1.42-13.61,1.5-2.66,2.92,1.15,9.91-.22,13.69-1.31,3.64-8.75,6.58-8.56,10.68.19,4.11,7.88,6.33,9.53,9.83,1.71,3.63-1.42,10.95,1.5,13.61,2.92,2.66,9.91-1.15,13.69.22,3.64,1.31,6.58,8.75,10.68,8.56,4.11-.19,6.33-7.88,9.83-9.53,3.63-1.71,10.95,1.42,13.61-1.5,2.66-2.92-1.15-9.92.22-13.69,1.31-3.64,8.75-6.57,8.56-10.68M202.14,179.66c3.41-1.28,6.33-2.88,8.34-4.48,2-1.59,3.09-3.19,2.7-4.35-.75-2.35-7.05-1.86-14.07,1.09-7.02,2.95-11.93,6.88-10.96,8.79.96,1.92,7.19,1.47,14-1.06M208.15,197.63c6.32-1.84,10.97-5.24,10.42-7.6-.55-2.36-6.32-2.51-12.89-.33-6.57,2.18-11.23,5.58-10.41,7.6.82,2.02,6.6,2.17,12.88.33M212.87,215.97c5.76-1.26,10.11-4.2,9.71-6.57-.39-2.38-5.6-3.06-11.64-1.51-6.04,1.55-10.37,4.48-9.68,6.57.7,2.08,5.89,2.76,11.61,1.52M216.3,234.6c5.13-.74,9.12-3.27,8.91-5.67-.21-2.39-4.8-3.53-10.25-2.53-5.45,1-9.44,3.53-8.91,5.67.53,2.14,5.12,3.27,10.25,2.53M226.14,268.14c.12-2.38-3.15-4.21-7.31-4.09-4.16.13-7.34,2.01-7.1,4.22.09,1.11,1.03,2.12,2.29,2.85,1.29.74,3.01,1.21,4.93,1.23,3.8.04,7.12-1.84,7.2-4.22M226.43,248.55c-.02-1.19-.95-2.18-2.58-2.79-1.61-.61-3.83-.85-6.23-.6-4.82.52-8.34,2.7-8.04,4.88.34,2.18,4.25,3.71,8.73,3.4,4.48-.31,8.12-2.49,8.12-4.89M228.17,118.58c-.57-2.79-2.44-5.28-4.18-6.86-1.74-1.61-3.36-2.39-3.57-2.3-.24.11-.62,1.82-.89,3.95-.25,2.14-.43,4.65,0,6.7.67,3.12,1.53,4.81,3.04,5.74.49-1.5.69-3.52.83-4.9.14-1.42.21-2.39.3-2.41.07-.01.61.81,1.18,2.24.27.71.56,1.57.75,2.55.18,1.03.36,1.98.16,3.42,1.95-.8,3.29-3.76,2.38-8.13M279.27,197.58c-1.37.78-2.87,2.15-3.9,3.08-1.05.97-1.76,1.64-1.84,1.59-.06-.04.09-1.01.62-2.45.28-.71.64-1.54,1.16-2.4.55-.88,1.06-1.71,2.18-2.64-1.98-.72-4.96.59-7.22,4.43-1.45,2.45-1.73,5.55-1.5,7.89.21,2.36.89,4.03,1.11,4.1.26.08,1.68-.93,3.31-2.33,1.62-1.42,3.44-3.16,4.49-4.98,1.6-2.77,2.09-4.6,1.6-6.29M286.08,187.03c4.2-2.44,2.33-11.7,5.1-15.34,2.87-3.77,12.24-4.48,13.43-8.99,1.19-4.51-6.61-9.76-7.24-14.46-.61-4.53,5.58-11.66,3.14-15.86s-11.7-2.33-15.34-5.1c-3.77-2.87-4.48-12.24-8.99-13.44-4.51-1.19-9.76,6.61-14.46,7.24-4.53.61-11.66-5.58-15.86-3.14-4.2,2.44-2.33,11.7-5.1,15.34-2.87,3.77-12.24,4.48-13.43,8.99-1.19,4.51,6.6,9.76,7.24,14.46.61,4.53-5.58,11.66-3.14,15.86,2.44,4.2,11.7,2.33,15.34,5.1,3.77,2.87,4.48,12.24,8.99,13.44,4.51,1.19,9.76-6.6,14.46-7.24,4.53-.61,11.66,5.58,15.86,3.14M296.45,204.01c-.13-4.05-1.43-7.03-2.84-8.96-1.44-1.95-3.04-2.91-4.51-3.11,1.65,3.43,2.05,6.85,1.97,9.36-.11,2.51-.69,4-.79,3.99-.13,0-.44-1.57-1.28-3.73-.81-2.12-2.26-5-3.96-7.3-1.59,2.06-1.2,5.38-.85,9.78.02,1.4.3,2.8.36,4.27.09.75.01,1.48.08,2.29-.07.81-.13,1.59-.19,2.32-.14.79-.28,1.53-.4,2.2-.12.71-.34,1.29-.46,1.84-.27,1.08-.4,1.85-.29,1.99.11.13.81.13,1.97-.12.57-.13,1.29-.29,2.04-.59.73-.33,1.55-.76,2.43-1.29.88-.53,1.67-1.3,2.55-2.12.83-.85,1.55-1.91,2.25-3.03,1.23-2.31,2.04-5.11,1.92-7.77M312.17,192.63c.04-.26-1.16-1.53-2.79-2.93-1.64-1.4-3.63-2.94-5.58-3.72-2.97-1.18-4.85-1.4-6.46-.66.98,1.24,2.55,2.53,3.61,3.41,1.11.9,1.88,1.5,1.84,1.59-.03.07-1.02.06-2.51-.26-.74-.17-1.62-.41-2.54-.8-.96-.42-1.84-.8-2.93-1.77-.42,2.06,1.3,4.82,5.43,6.5,2.64,1.07,5.74.91,8.03.34,2.3-.55,3.86-1.47,3.89-1.69M318.04,119.73c-.05-.26-1.6-1.05-3.6-1.85-2.01-.77-4.4-1.57-6.49-1.66-3.19-.13-5.04.28-6.31,1.51,1.33.85,3.24,1.54,4.54,2.02,1.35.49,2.27.79,2.26.89,0,.07-.94.39-2.46.58-.76.09-1.66.15-2.66.09-1.04-.08-2.01-.14-3.35-.7.28,2.09,2.83,4.12,7.28,4.33,2.84.14,5.72-1.05,7.69-2.34,1.99-1.28,3.16-2.66,3.11-2.88M318.67,104.24c.07-.16-.27-.78-1.02-1.69-.38-.44-.86-1-1.47-1.53-.63-.49-1.39-1.02-2.27-1.55-.88-.53-1.93-.87-3.06-1.27-1.14-.34-2.41-.48-3.73-.59-2.62-.02-5.47.57-7.77,1.91-3.53,2-5.56,4.53-6.62,6.68-1.06,2.18-1.16,4.05-.66,5.44,2.27-3.06,5.12-5.01,7.38-6.1,2.27-1.07,3.86-1.25,3.9-1.15.06.11-1.18,1.12-2.71,2.87-1.5,1.7-3.38,4.33-4.63,6.9,2.56.46,5.32-1.44,9.06-3.79,1.23-.67,2.34-1.56,3.61-2.31.62-.43,1.3-.69,1.99-1.13.75-.32,1.47-.62,2.15-.91.77-.24,1.48-.47,2.13-.67.68-.22,1.3-.29,1.85-.45,1.09-.26,1.83-.5,1.89-.67M319.15,63.19c-.62-7.46-2.82-13.36-4.9-13.17-2.09.2-3.09,6.46-2.27,13.86.82,7.42,3.01,13.23,4.89,13.09,1.88-.14,2.9-6.31,2.28-13.77M335.56,62.25c-.16-7.53-2.03-13.6-4.13-13.47-2.11.11-3.48,6.28-3.07,13.78.41,7.5,2.26,13.51,4.13,13.43,1.87-.11,3.24-6.23,3.07-13.73M388.46,83.11c.89,1.74,2.2.9,4-.66,1.79-1.57,4.05-3.85,6.23-6.6,2.17-2.75,3.79-5.51,4.52-7.85.74-2.33.6-4.23-.47-5.02-.53-.42-1.23-.41-2.03-.11-.8.29-1.69.87-2.6,1.68-1.83,1.64-3.76,4.26-5.46,7.39s-2.91,6.14-3.6,8.39c-.34,1.13-.55,2.08-.58,2.77M386.77,188.93c-2.2,1.04-4.66,1.84-6.91,2.41,3.32.99,9.16,1.34,13.33-.63,5.87-2.77-.51-16.28-6.38-13.5-4.18,1.97-7.61,6.7-8.96,9.9,1.86-1.38,4.05-2.77,6.24-3.81,5.87-2.77,8.53,2.87,2.67,5.64M363.02,181.54c2,1.38,3.93,3.12,5.54,4.78-.81-3.37-3.42-8.6-7.22-11.23-5.33-3.7-13.84,8.58-8.51,12.28,3.79,2.63,9.61,3.24,13.05,2.81-2.12-.92-4.42-2.12-6.42-3.51-5.33-3.7-1.78-8.83,3.55-5.13M377.03,178.38c-.2,2.42-.74,4.96-1.37,7.18,2.52-2.39,5.74-7.26,6.12-11.87.53-6.47-14.49-8.16-15.02-1.69-.38,4.6,2.14,10.41,4.23,13.17-.26-2.3-.37-4.89-.17-7.31.53-6.47,6.75-5.96,6.22.51M367.69,194.49c1.32,2.8,4.67,4,7.48,2.68,2.8-1.32,4.08-5.21,2.75-8.01-1.32-2.8-4.74-3.47-7.55-2.14-2.8,1.33-4,4.67-2.68,7.48M398.51,153.62c.21-1.66-.97-3.18-2.64-3.38-1.6-.2-3.22-.31-4.85,0-1.62.24-3.19.92-4.45,1.84-1.28.92-2.27,2.09-2.99,3.33-.72,1.25-1.22,2.55-1.5,3.9,1.79-2.06,3.85-3.83,5.98-4.38,1.06-.29,2.1-.34,3.12-.1,1.01.16,1.99.63,2.93,1.11,2.68.52,4.2-.66,4.4-2.32M376.95,79.7c.8.22,1.98-.99,3.31-3.09,1.33-2.12,2.75-5.02,3.98-8.44,1.22-3.39,1.93-6.7,1.99-9.15.08-2.47-.47-4.19-1.58-4.54-2.26-.71-5.53,4.48-7.31,11.59-1.78,7.11-1.96,13.22-.4,13.63M362.91,77c1.74.21,4.16-5.53,5.42-12.81,1.25-7.29.48-13.48-1.72-13.83-2.21-.34-4.63,5.39-5.42,12.82-.78,7.4-.01,13.61,1.72,13.82M347.91,75.9c1.82.05,3.65-5.98,4.08-13.46.43-7.48-.97-13.62-3.12-13.7-2.15-.08-3.98,5.94-4.08,13.46-.1,7.51,1.3,13.65,3.12,13.7M347.23,138.01c2.28,2.79,1.14,9.85,4.27,11.53s8.39-3.15,11.98-2.79c3.46.35,7.63,6.2,11.17,5.14,3.54-1.06,3.8-8.24,6.49-10.44,2.79-2.28,9.85-1.14,11.53-4.27,1.68-3.12-3.15-8.39-2.79-11.98.35-3.46,6.2-7.63,5.14-11.17-1.06-3.54-8.24-3.8-10.44-6.49-2.28-2.79-1.14-9.85-4.27-11.53-3.12-1.68-8.39,3.15-11.98,2.79-3.46-.35-7.63-6.2-11.17-5.13-3.54,1.06-3.8,8.24-6.49,10.44-2.79,2.28-9.85,1.14-11.53,4.27-1.68,3.12,3.15,8.39,2.79,11.98-.35,3.46-6.2,7.63-5.14,11.17,1.06,3.54,8.24,3.8,10.44,6.49M347.92,165.59c1.56-.23,2.98-.8,4.2-1.57,1.22-.77,2.26-1.69,3.13-2.77-2.54,1-5.18,1.61-7.33,1.12-1.07-.24-2.02-.67-2.82-1.36-.82-.61-1.47-1.48-2.09-2.34-2.14-1.71-4.03-1.36-4.98.02-.95,1.38-.61,3.27.77,4.22,1.33.92,2.71,1.76,4.3,2.24,1.54.54,3.25.66,4.8.43M367.66,197.1c-1.86,1.38-4.05,2.77-6.24,3.81-5.87,2.77-8.53-2.87-2.67-5.64,2.2-1.04,4.66-1.84,6.91-2.41-3.32-.99-9.16-1.34-13.33.63-5.87,2.77.51,16.28,6.38,13.5,4.17-1.97,7.61-6.7,8.96-9.9M374.55,199.01c.26,2.3.37,4.89.17,7.31-.53,6.47-6.75,5.96-6.22-.51.2-2.42.74-4.96,1.37-7.18-2.51,2.39-5.74,7.26-6.12,11.87-.53,6.47,14.35,7.7,14.88,1.23.38-4.6-2-9.94-4.09-12.71M392.7,196.82c-3.79-2.63-9.61-3.24-13.05-2.81,2.12.92,4.42,2.12,6.42,3.51,5.33,3.7,1.78,8.83-3.55,5.13-2-1.38-3.93-3.12-5.54-4.78.81,3.37,3.42,8.6,7.22,11.23,5.33,3.7,13.84-8.58,8.51-12.28M398.89,252.75c-.67-2.98-1.45-6.01-2.85-8.8-1.43-2.76-3.53-5.29-6.5-6.82-1.44-.03-1.92.61-1.82,1.29.45,3.19,1.27,5.7,2.14,8.25.91,2.51,1.98,4.99,2.65,7.63,1.4,5.27,2.16,10.76,2.19,16.37.13,5.61-.27,11.28-1.11,16.89-.93,5.58-2.12,11.22-4.95,16.32,4.05-4.3,6.32-9.99,8.13-15.58,1.74-5.66,2.79-11.52,3.27-17.48.4-5.95.2-12.09-1.14-18.07M409.94,87.73c2.75-1.92,5.02-4.03,6.35-5.93,1.34-1.9,1.78-3.63,1.06-4.61-.71-.99-2.45-.98-4.64-.04-2.18.9-4.76,2.67-7.29,4.98-2.53,2.31-4.57,4.67-5.87,6.54-1.27,1.86-1.86,3.26-1.38,3.87.5.59,2.05.29,4.19-.58,2.15-.89,4.83-2.3,7.58-4.22M415.23,159.9c-4.01-1.25-7.51-.76-7.91,1.08-.39,1.84,2.07,4.4,5.56,5.73,3.47,1.32,7.11.88,8-1.05.91-1.92-1.66-4.52-5.64-5.76M419.21,143.96c-2.42-.44-4.67-.44-6.32-.13-1.65.32-2.67.96-2.8,1.88-.19,1.83,3.2,4.21,7.62,5.3,4.44,1.1,8.59.34,9.22-1.73.65-2.07-2.87-4.47-7.72-5.32M430.56,131.82c.25-2.23-4.07-4.11-9.64-4.19-5.56-.08-10.02,1.26-9.93,3.01.02,1.77,4.27,3.64,9.5,4.18,5.23.54,9.75-.8,10.07-3M419.66,111.27c-5.98,1.18-10.52,3.42-10.13,5.01.33,1.62,5.27,2.59,11.09,2.13,2.91-.25,5.52-.9,7.39-1.81,1.86-.91,3.02-2.08,2.92-3.22-.24-2.34-5.29-3.28-11.27-2.1M414.6,95.69c-2.93,1.42-5.42,3.04-7.1,4.43-1.68,1.39-2.54,2.54-2.18,3.25.32.73,1.81.93,3.99.76,2.17-.19,5.02-.75,8.02-1.76,2.99-1.01,5.56-2.33,7.29-3.74,1.72-1.4,2.6-2.9,2.22-4.03-.43-1.11-2.05-1.6-4.27-1.4-2.22.2-5.04,1.09-7.97,2.5M440.13,30.8c-.6-2.04-1.54-3.95-2.87-5.5-2.1-2.49-5.07-4.03-8.05-4.2-3.01-.16-6.28.77-8.48,2.55-2.26,1.76-3.63,4.26-3.79,7.04-.23,2.8.72,5.14,2.59,7.31,1.89,2.08,4.55,3.77,7.47,4.53,2.98.73,5.76.7,8.5-.76.87-.43,1.68-1.04,2.44-1.72,1.34-2.9,2.06-6.05,2.21-9.24"/>
      </g>
    </g>
  </g>
</svg>