<?xml version="1.0" encoding="UTF-8"?>
<svg id="Layer_1" data-name="Layer 1" xmlns="http://www.w3.org/2000/svg" xmlns:xlink="http://www.w3.org/1999/xlink" viewBox="0 0 362.09 500.83">
  <defs>
    <style>
      .cls-1 {
        fill: none;
      }

      .cls-2 {
        fill: #1f3d3a;
      }

      .cls-3 {
        clip-path: url(#clippath-1);
      }

      .cls-4 {
        clip-path: url(#clippath);
      }
    </style>
    <clipPath id="clippath">
      <rect class="cls-1" width="362.09" height="500.83"/>
    </clipPath>
    <clipPath id="clippath-1">
      <rect class="cls-1" width="362.09" height="500.83"/>
    </clipPath>
  </defs>
  <g id="Pine">
    <g class="cls-4">
      <g class="cls-3">
        <path class="cls-2" d="M159.64,39.6c-2.08.11-4.18.17-6.25-.09-1.41-.19-2.99-.45-3.9-1.64-.14-.82-.05-.86.64-1.33,1.41-.97,3.15-1.51,4.75-2.13,4.01-1.57,7.29-3.4,10.44-6.36,5.42-5.11,7.95-11.49,9.62-18.62.63-2.63,1.13-5.42,2.65-7.71.56-.85,1.11-1.49,2.15-1.71,4.32.72,4.21,8.65,5.19,11.94.94,3.18,2.27,6.22,3.97,9.08,2.55,4.29,6.02,8.32,10.26,11.03,2.32,1.49,9.34,3.04,10.53,4.87.19.3.01.55-.08.86-2.16,1.94-7.32,1.63-10.05,1.57,1.46,1.6,3.2,2.9,4.7,4.45.71.74,1.32,1.33,1.29,2.41-.35.41-.42.49-.99.55-4.23.55-8.84-3.31-11.93-5.71.58.96,1.14,1.93,1.77,2.85,5.53,8.12,15.84,10.83,25.03,12.35,1.74.3,3.57.27,5.3.63,1.05.22,2.1.53,2.73,1.46-.05.64-.06.77-.58,1.22-2.77,2.52-7.71,2.4-11.16,2.29,1.22.5,2.48.97,3.64,1.58.86.45,1.55.95,1.83,1.9l-.39.5c-4.42,2.01-16.55.34-21.53-.89,1.88,1.61,5.97,4.48,6.76,6.79.17.5.05.49-.19.91-.11.01-.22.05-.33.05-3.63.25-9.12-3.59-11.91-5.64,1.94,3.23,3.9,5.97,7.1,8.06,7.54,4.89,20.14,5.69,28.63,3.34,2.32-.64,4.47-2.4,6.82-2.82.6-.11.67-.05,1.14.28.3.61.47,1.03.3,1.72-1,4.25-5.89,6.96-9.28,9.17,4.34,2.43,8.62,4.22,13.54,5.11,1.72.31,3.76.23,5.41.77l.2.61c-.16.66-.22.91-.83,1.3-3.15,2.05-10.99.75-14.42-.05,2.16,1.22,4.28,1.96,6.6,2.82l-.03.25-.09-.35-.24.49c-7.62,1.47-14.4-.14-21.6-2.74,1.37,1.36,5.14,4.42,5.36,6.38l-.41.3c-5.63,1.1-13.57-4.11-18.23-7.05.61,2.23,1.18,4.47,1.71,6.72-4.28-1.61-7.12-4.26-10.16-7.6,1.58,5.22,3.89,9.78,8.34,13.12,9.89,7.43,21.9,6.82,33.46,5.11,1.57.71,3.57,1.4,4.92,2.45.66.5,1,.96,1.1,1.8-.49,1.9-2.18,2.57-3.73,3.53,3.48,4.7,13.89,10.64,19.39,13.12,1.52.67,4.51,1.27,5.61,2.35-.16.38-.16.53-.52.75-3.89,2.38-18.52-.83-23.23-2.18l.47.35c2.62,1.93,4.87,4.29,7.32,6.46-10.77.39-11.88-3.42-20.3-7.98-3.29-1.79-7.05-2.77-10.69-3.57,1.52,2.76,3.04,5.52,4.73,8.17-5.27-1.76-10.19-4.01-14.5-7.57,1.76,2.62,3.57,5.23,5.64,7.6,5.01,5.75,11.14,8.95,18.92,8.18,1.79-.17,4.04-1.07,5.78-.83,2.26.31,6.41,1.74,7.9,3.48.19.67.3.83-.11,1.46-1.32,2.01-6.88,2.6-9.18,3.01,9.65,5.99,21.86,8.79,32.93,10.81,1.58.28,6.36.56,7.29,1.68-.14.49-.13.64-.52,1-3.28,3.06-15.81,2.3-20.23,2.1,1.82,1.71,8.1,5.77,8.73,7.41-.42.35-.42.33-.92.42-6.3,1.19-16.13-3.59-21.2-6.9,1.14,1.75,2.35,3.42,3.73,4.98.85.97,3.34,3.06,3.84,4.08.06.14.08.31.13.46-.3.12-.36.17-.74.22-6.14.82-15.31-7.76-19.72-11.44,1.03,4.43,2.76,8.26,4.86,12.27-9.98-2.48-18.85-12.04-25.91-19.13.55,5.05,1.82,9.51,4.59,13.82-5.55-2.76-10.47-6.24-14.95-10.52,2.26,3.62,4.61,7.05,7.62,10.09,10.63,10.67,22.08,12.1,36.45,12.15-1.38,2.1-3.75,3.78-4.47,6.27.08.61.22.99.66,1.44,1.6,1.68,4.45,2.73,6.55,3.62,12.18,5.09,24.72,6.02,37.72,6.1-4.4,2.63-9.22,3.93-14.18,5.03l-2.73.38-.06.2c.55.25,1.05.42,1.63.56,9.91,2.8,19.81,3.71,30,4.88-5.94,5.8-14.04,6.6-21.85,7.79.89.69,1.8,1.35,2.76,1.94-5.77,1.6-12.11.16-17.9-.88.5,1.53,1.1,3.07,1.22,4.7l-.27.36c-4.42-.19-21.91-12.79-26.56-15.94l-3.59-2.43c1.08,1.27,2.13,2.57,3.12,3.92,1.43,2.33,3.59,5.53,2.98,8.4-.14.64-.39,1.19-1.02,1.5-1.57.77-4.25-.39-5.72-1.1-3.59-1.69-6.88-4.4-9.95-6.9-2.15-1.86-4.22-3.85-6.38-5.69,1.65,2.32,3.38,4.72,5.36,6.75,8.31,7.93,18.76,12.54,30.14,13.86,3.71.44,7.46.41,11.16.81-1.99,2.02-4.09,3.34-6.72,4.4,3.4.35,6.6.27,9.97-.34,5.19-.92,12.76-4.18,17.18-4.62.58-.06.7,0,1.17.3.33.74.49,1.21.17,1.99-1.71,4.18-8.78,7.87-12.66,9.78,15.61,4.53,32.16,5.89,48.16,8.7-11.38,8.96-26.44,9.83-40.33,9.29,3.79,3.6,8.27,4.73,12.68,7.27-7.57,2.27-14.54.5-21.38-3.17-3.82-2.05-7.84-4.67-11.11-7.57,3.12,5.01,6.68,9.45,10.39,14.01-.25.42-.09.31-.56.45-3.4.91-9.9-2.05-12.76-3.87-5.58-3.57-9.47-8.99-13.78-13.9-2.05-2.35-4.29-4.53-6.57-6.66,1.77,3.18,3.13,6.52,4.42,9.92-4.59-2.79-8.04-6.24-11.74-10.08,6.16,13.07,18.81,19.76,31.89,24.45,2.32.83,4.65,1.55,7.07,2.12,2.78.66,5.96,1.08,8.56,2.27.55.25.86.5,1.16,1.02-.14,1.27-.92,1.83-1.88,2.62-1.08.88-3.02,1.74-3.21,3.23.49,1.13,1.32,1.49,2.43,1.93,6.1,2.37,13.2,3.17,19.7,2.99,1.99-.05,9.03-1.68,10.03-1.3.08.56.06.58-.28,1.02-1.21,1.57-3.67,2.92-5.42,3.81,7.68,4.06,16.91,6.5,25.53,7.57,4.01.5,8.65.25,12.38,1.85-6.33,4.7-13.84,6.72-21.64,7.15-1.22.06-8.18-.31-8.71.25-.11.11-.19.6-.19.69-.2,2.01,2.24,5.72,3.18,7.46-7.88-1.58-13.09-8.06-20.41-11.05,1.36,3.26,3.31,6.14,5.25,9.06-5.22-1.47-8.7-4.17-12.99-7.4,1.68,3.15,4.7,7.74,3.48,11.41-.55,1.63-1.76,2.71-3.28,3.45-1.88.91-7.18,1.77-7.91,3.34.19.68.22.78.86,1.18,3.12,1.87,14.83.71,16.08,3.02-.22,1.18-1.44,1.96-2.37,2.6-1.68,1.15-3.46,2.18-5.2,3.25,9.81,3.35,20.94,3.93,30.42-.74,2.38-1.18,6-4.01,8.68-3.53.49.53.58.81.53,1.55-.25,4.67-4.01,9.07-7.46,11.86-1.24,1-2.54,1.91-3.78,2.93,8.98,2.65,23.09,4.36,32.46,4.86,5.14.27,10.25.17,15.39.55-12.77,8.95-29.84,11.16-45.12,10.03,1.9,3.76,3.95,7.43,5.83,11.21-5.41-2.27-10.45-5.06-15.64-7.79-3.1-1.63-6.32-3.62-9.7-4.53.42,4.15,6.9,12.01,7.92,18.87-6.63-3.7-11.83-9.34-17.3-14.5-6.79-6.39-16.36-15.19-24.1-20.17.08,1.64,1.22,8.31.63,9.28-3.51-.91-12.68-10.28-15.94-13.1-1.88-1.63-3.86-3.1-5.89-4.53,5.67,6.93,18.52,19.75,27,22.57,3.46,1.16,9.61,1.58,12.48,3.54-.1.72-.22,1.02-.8,1.5-1.85,1.55-4.73,2.29-7.04,2.87,12.57,10.22,16.89,13.07,33.15,15.75.97.16,3.53.24,3.89,1.19-.72,1.24-3.17,2.13-4.53,2.48-4.25,1.08-9.42.85-13.77.49,8.59,5.52,16.53,7.26,26.49,8.56,2.92.38,5.86.85,8.79,1.03-3.98,2.41-8.01,3.81-12.46,5.06,9.5,2.96,18.7,6.63,28.34,9.23,6.85,1.85,15.84,2.38,21.97,5.09-8.4,5.77-24.36,5.19-34.31,4.01,1.19,1.6,3.34,3.79,3.92,5.66-.08.33-.05.56-.36.74-2.16,1.25-9.11-.96-11.41-1.8-2.29-.85-4.56-2.01-6.66-3.26-2.49-1.49-6.19-4.92-8.98-5.39-.6.66-.42,1.85-.39,2.71.2,4.04.83,8.09,1.16,12.13-6.27-3.03-10.31-8.04-15.34-12.63-.25,3.42-.42,6.8-1.66,10.03-7.92-7.22-10.03-19.09-19.67-24.92,1.25,6.46,3.01,12.82,4.37,19.25-1.22-.02-2.41-.03-3.62-.19l-2.26-.89c1.57,1.77,3.1,3.62,4.87,5.19,1.88,2.18,4.07,4.03,5.92,6.24-.06.02-.14.02-.2.03l-.35.03c-2.68.27-5.42-.14-8.1-.36,4.37,7.52,17.18,18.84,24.62,23.23,1.05.63,3.12,1.68,3.43,2.84-.17.17-.17.22-.42.35-1.08.56-3.39.39-4.61.38-11.21-.19-17.74-3.48-27.8-7.13.05,3.14,0,6.18-.48,9.28-9.12-4.03-10.5-18.31-15.78-21.06-.55.02-.83-.05-1.19.45-2.13,2.92-.38,11.39-.31,14.98.02,1.08-.02,1.83-.8,2.62-.5.11-.75.11-1.25-.08-5.45-1.91-9.39-13.9-11.47-18.93-.66,2.41-1.36,5.59-2.9,7.57-.71.33-.71.31-1.46.11-5.47-4.86,3.17-20.14,1.72-23.73-.36-.19-.31-.25-.63-.14-2.49.85-5.69,6.28-6.91,8.42-1.13-7.7,2.71-13.07,5.12-20.01-.19.11-.38.22-.56.35-5.24,3.32-10.36,7.43-8.84,14.37.5,2.33,1.49,4.58,2.21,6.85.44,1.41.92,3.04.61,4.53l-.42.25c-.99-.05-1.71-.24-2.59-.71-6.63-3.49-16.54-16.94-20.08-23.85-2.51-4.89-4.37-10.28-6.02-15.52.75,12.9,4.12,24.83,13.29,34.4,1.3,1.36,4.92,4.09,5.5,5.72-.52.42-.78.47-1.46.44-6.9-.2-12.33-5.64-16.89-10.24-1.52,14.58-.97,28.96.69,43.51.35,3.1.58,6.28,1.1,9.37.36,2.13.75,4.31,1.33,6.39.66,2.41,2.74,6.5,2.68,8.81-.02.39-.35.56-.6.83-2.13.66-3.87-.69-5.97-.85-.12.71-.25,1.68-.67,2.26-.28.39-.63.58-1.08.67-1.9.36-4.69-1.9-6.21-2.87-.38.93-.69,1.93-1.43,2.65-.45.44-1.11.71-1.74.61-1.8-.28-3.32-2.43-4.48-3.7-1.32,1.16-2.92,2.52-4.56,3.12-.77.28-1.61.39-2.37-.05-1.02-.61-1.13-1.72-1.35-2.79-2.7.83-5.25,1.46-8.07,1.66.33-4.95,2.48-9.65,3.37-14.53,2.57-14.03,5.2-41.06,2.19-54.82-1.11,1.39-2.34,2.65-3.68,3.82-4.72,4.12-9.25,6.11-15.55,5.66,2.63-2.43,5.52-4.42,8.01-7.04,7.43-7.87,12.29-19.9,11.94-30.75-1.96,2.96-2.66,6.54-4.07,9.76-3.34,7.71-14.01,22.54-21.85,25.34-.82.3-1.29.27-2.05-.09-2.07-3.37,3.7-10.74,2.27-15.25-1.28-4.07-7.4-6.74-10.86-8.64,3.4,6.27,7.99,11.52,6.33,19.09-1.69-1.5-4.53-6.11-6.27-6.71-.53-.19-.64-.2-1.16.05.06,3.29,2.71,9.81,3.07,14.28.22,2.73.08,5.99-1.93,8.07-.49.5-.78.6-1.47.66-1.71-1.02-1.93-4.5-2.68-6.27-.27-.61-.39-1-1.03-1.27-.71.89-.96,2.4-1.3,3.48-1.55,4.92-3.01,10.47-7.35,13.76-.71.53-1.29.85-2.19.74-2.37-2.01.06-12.35-1.3-16.02-.25-.66-.46-.78-1.08-1.05-3.6.83-8.78,13.71-11.79,17.08-.93,1.03-2.55,2.81-4.09,2.66-2.57-.24-.22-5.94-1.71-7.71-1.71-.75-5.91,1.6-7.63,2.29-7.91,3.2-16.2,4.36-24.67,4.69,2.16-2.34,4.87-4.17,7.38-6.13,7.77-6.08,16.25-12.43,21.11-21.22-3.68,1.03-7.05,2.95-10.69,4.14,1.02-2.27,2.55-4.06,4.17-5.94,2.04-2.37,4.14-4.78,6.5-6.82,4.28-3.67,9.12-6.68,13.4-10.41,4.98-4.34,9.29-9,13.29-14.25l-.08-.28c-5.24,4.89-10.67,9.58-16.05,14.31-3.96,3.5-8.13,7.63-12.65,10.39l-.25-.36-.02.44c-.3-.12-.45-.42-.64-.67-1.21-4.8,2.85-12.29,4.28-16.99.36-1.21.63-2.38,0-3.51-6.46-2.13-12.4,23.46-20.11,25.89-.64.2-.99.22-1.58-.08-1.16-2.51.47-7.37,1.07-10.01-2.98,2.54-10.55,12.43-14.07,12.63-.35.02-.71-.06-.94-.31-1.38-1.44-.2-5.64-.1-7.52.11-1.88.25-5.69-1-7.15-.52-.02-.69,0-1.15.3-.89.59-1.61,1.57-2.41,2.29-1.66,1.47-3.6,2.77-5.5,3.92-5.3,3.24-11.38,5.31-17.6,5.59.86-2.29,1.44-4.64,1.96-7.02-9.23.6-21.86.01-29.73-5.17,4.97-2.05,10.52-2.56,15.73-3.75,10-2.29,20.47-5.38,29.7-9.92-4.53-1.97-9.03-3.35-13.31-5.94,8.02-.52,15.92.17,23.88-1.55,3.35-.74,8.87-2.27,10.81-5.3l-.11-.45c-2.69-2.29-7.44-.91-10.75-1.65-1-.22-1.79-.38-2.35-1.27.42-.77,1.02-1.08,1.82-1.43,2.35-1,5.01-1.44,7.48-2.16,2.59-.75,5.17-1.79,7.65-2.85,6.69-2.85,12.4-6.55,17.69-11.53-3.67-1.21-6.71-2.18-9.33-5.24,3.13-1.35,6.07-1.52,9.39-2.02,10.75-1.61,25.39-14.68,31.77-23.23-6.71,4.48-11.55,9.53-17.63,14.64-1.13.96-3.27,3.09-4.84,2.82-.41-.08-.3-.11-.57-.55.05-2.77,1.58-5.83,2.57-8.4-6.27,3.4-11.58,8.89-17.11,13.35-2.73,2.21-5.72,4.07-8.43,6.32-3.46,2.85-7.4,7.02-11.61,8.67-.78.31-1.27.38-2.04.03-.97-2.15,2.95-10.7,3.68-13.43-7.48,2.54-14.62,8.67-22.69,9.09-.67.03-.97-.03-1.44-.49.09-2.43,6.82-6.02,8.6-7.85l.27-.28c-7.01,1.8-13.59,1.99-20.77,1-5.72-.78-20.04-4.31-23.62-9.04l.08-.47c.69-.38,1.3-.44,2.08-.5,2.08-.16,4.2.08,6.29-.03,5.11-.28,10.19-.8,15.25-1.55,6.47-1.03,12.38-2.68,18.38-5.31-2.71-2.65-5.28-5.42-6.91-8.89-.53-1.13-1.22-2.79-.6-4.01.64-1.27,2.3-.52,3.38-.2,10.27,3.06,18.53,6.35,29.51,3.67,1.88-.46,4.94-1.11,6-2.85-.09-3.07-5.3-2.52-6.99-4.4-.39-.44-.39-.42-.34-1.05,1.82-2.12,8.57-1.63,11.3-1.9,1.52-.14,2.93-.45,4.4-.86-1.77-1.08-3.62-1.99-5.39-3.07-2.3-1.43-4.5-3.29-5.08-6.06-.74-3.54,1.29-6.68,3.13-9.5-2.92,1.5-8.54,6.08-10.59,6.61-.56.14-.33.16-.82-.11-.03-2.32,3.43-5.64,4.95-7.29-4.73,1.97-8.4,5.2-12.88,7.52-2.21,1.14-5.2,2.24-7.66,1.46-.96-1.3,2.02-3.23,2.13-4.86-.38-.56-.66-.75-1.35-.88-1.82-.33-3.79-.27-5.66-.5-7.81-1-16.68-2.85-22.6-8.38,4.03-1.05,8.29-1.46,12.38-2.13,4-.64,7.9-1.52,11.86-2.37,2.73-.58,5.72-1.02,8.26-2.21.71-.33,1.43-.71,1.69-1.47-.52-2.1-5.6-1.96-6.68-4.23,1.82-1.93,21.74-.49,25.4-.66,3.87-.17,7.52-.61,11.16-1.98-1.11-2.54-3.32-4.28-4.54-6.72-.44-.89-.74-1.85-.33-2.81.96-2.21,7.69-2.34,9.83-2.76,1.58-.31,3.13-.86,4.65-1.4,9.09-3.23,20.86-8.37,27.11-15.77,1.94-2.29,3.24-4.75,4.51-7.46-3.17,3.89-6.46,6.91-10.92,9.21,1.14-3.14,2.73-6.22,4.09-9.28-6.5,5.53-10.97,13.32-17.85,18.32-3.18,2.32-9.01,4.86-13.04,3.96-.69-.16-.91-.33-1.27-.93.34-1.75,3.35-3.68,4.67-4.97,2.3-2.22,4.03-5.08,5.64-7.8-3.34,1.87-6.22,4.53-9.53,6.49-5.56,3.31-12.18,4.9-18.54,3.26-.85-.22-1.83-.44-2.3-1.24.2-.55.33-.69.85-1.03.92-.6,2.05-.99,3.06-1.44,2.7-1.21,4.65-2.65,6.71-4.76-11.38,1.1-14.79,3.43-26.67.11-3.23-.89-6.57-1.93-9.54-3.5-1.14-.6-2.76-1.49-3.17-2.77l.27-.44c3.06-1.35,7.49-1.35,10.81-1.8,2.65-.38,5.28-.83,7.92-1.35,8.16-1.6,16.27-3.63,24.37-5.56-3.2-2.54-7.71-6.65-8.98-10.61-.25-.8-.22-1.27.16-2.01,1.15-.69,4.44,1.43,5.61,2.01,6.72,3.31,12.6,5.44,20.04,3.39-1.11-.99-2.24-1.96-3.13-3.17-.46-.6-1.05-1.33-.94-2.13.99-.86,6.97,1.08,8.64,1.16,1.69.08,3.53-.22,5.19-.55,11.75-2.26,24.57-9.78,31.38-19.71l-.22-.11c-3.53,3.65-7.84,7.3-12.24,9.84-1.86,1.07-6.72,3.46-8.81,2.55-.55-.24-.86-.53-1-1.13-.64-2.82,3.57-8.13,5.12-10.19l3.16-3.59-3.89,2.62c-5.5,4.01-22.9,17.21-28.99,17.05-.71-.34-.66-.3-.91-1.05.22-1.9,1.19-3.45,2.23-5-2.4.61-11.8,2.81-13.68,1.75-.02-.41,0-.74.08-1.14.03-.14.05-.28.08-.42-1.13-.61-3.32-.67-4.62-.91-5.91-1.04-10.67-2.63-15.51-6.24,9.23-1.9,20.44-2.88,28.41-8.16-1.69.05-3.38-.03-5.08-.12-2.21-.12-7.76-.5-9.25-2.18.47-.86,1.24-1.14,2.21-1.32,2.15-.39,4.56-.19,6.77-.39,12.02-1.1,25.26-2.27,34.7-10.58-1.71-2.24-3.43-4.47-4.94-6.86,5.53.46,11.22.17,16.63-1.13,11.24-2.7,20.12-10.3,26-20-4.99,4-10.17,7.41-15.77,10.5,2.77-4.5,4.73-9.06,5.92-14.21-8.51,6.02-14.9,14.73-24.78,18.73,2.73-4.25,5.11-8.42,7.07-13.09-8.26,5.06-15.69,12.16-25.42,14.23,3.7-3.56,6.82-6.72,9.34-11.24-8.09,4.11-14.28,8.42-23.65,9.03,2.76-3.56,6.69-6.36,10.19-9.2-6.68-.66-13.18-.94-19.43-3.64,4.4-1.82,9.51-2.3,14.15-3.37,8.67-2.09,17-5.38,24.76-9.76-1.18-.28-2.37-.53-3.54-.85-1.68-.44-5.22-1.46-6.02-3.1-.19-.39-.03-.58.08-.97,1.03-1.07,2.37-1.47,3.73-1.94,7.74-2.6,9.54.7,16.8-.64,9.48-1.76,14.83-8.81,19.97-16.32-1.43,1.07-2.85,2.12-4.31,3.15-1.87,1.33-6.5,4.89-8.84,4.48l-.28-.42c-.03-2.63,1.85-5.84,2.88-8.24-4.14,1.58-8.54,2.7-12.43,4.87-3.93,2.21-6.94,5.78-11.28,7.4-1.49.56-3.73,1.08-5.25.41l-.17-.49c.72-2.16,3.39-4.58,4.91-6.27-5.22.86-14.86,3.71-19.62,1.41-.63-.3-.83-.55-1.08-1.19.61-1.74,6.86-3.97,8.7-4.91,4.94-2.52,9.51-5.99,14.09-9.12-1.05-.63-2.32-1.25-3.03-2.27-.52-.74-.61-1.68-.34-2.52.61-1.94,3.49-2.81,5.25-3.01,2.54-.3,5.2.7,7.73,1.02,7.01.88,15.44-.92,21.71-4.12,6.71-3.42,9.89-7.62,12.16-14.68-2.77,2.92-6.05,5.17-9.51,7.18.53-2.43,1.08-4.79,1.82-7.18-5.91,3.95-13.16,7.63-20.36,8.17,1.22-3.17,3.15-5.38,5.42-7.84-7.7,2.84-15.36,5.03-23.46,2.68,1.18-.23,6.35-1.55,6.96-2.16-4.01-.14-7.37,1.41-11.43-.03-.83-.3-1.44-.58-1.82-1.41.3-.85.8-1.18,1.63-1.49,1.55-.61,3.42-.77,5.05-1.13,5.01-1.1,9.18-2.65,13.32-5.69-3.56-1.88-6.91-3.97-8.59-7.82-.47-1.1-.96-2.29-.49-3.45,1.6-1.07,3.87.66,5.35,1.46,5.77,3.13,12.91,4.04,19.39,3.18,9.1-1.22,13.49-4.66,18.88-11.74-3.12,2-6.71,4.28-10.36,5.09-.91.2-2.56.55-3.37,0,.61-1.91,5.36-5.73,6.99-7.29-3.62.89-7.32,1.5-11.03,1.82-2.24.2-9.17.75-10.85-.94-.25-.25-.12-.47-.09-.8,1.39-1.72,3.63-2.4,5.61-3.23-2.21,0-4.53.08-6.69-.53-1.33-.38-3.48-1.46-4.09-2.78-.17-.36-.05-.5.06-.86.44-.34.8-.58,1.35-.72,1.6-.41,3.4-.31,5.06-.5,1.83-.2,3.68-.66,5.49-1.07,10.85-2.48,17.07-5.45,23.02-14.95-3.29,2.96-6.94,5.44-11.38,6.27-.86.16-1.55.28-2.27-.24,0-.09-.02-.19-.02-.28.36-2.12,4.7-5.17,6.32-6.54M122.89,291.21c-4.33,4.75-16.17,18.65-22.74,18.56-.75-.01-.8-.13-1.27-.64-.56-3.06,3.95-7.38,2.13-9.81-.88-.31-1.69-.06-2.51.33-.99.49-1.98,1.32-2.79,2.07-3.59,3.37-7.18,6.97-9.73,11.22,18.79.46,37.27-5.49,51-18.65,3.45-3.31,9.18-8.96,9.87-13.9l-.22-.41-.31.3c-4.26,4.03-15.05,18.43-20.5,18.26-.85-.03-1.5-.38-2.04-1.02-1.3-1.6-.97-4.39-.89-6.3M245.04,403.33c1.41,1.32,2.65,2.98,3.95,4.42,4.14,4.64,8.51,8.75,14.28,11.22-5.47-5.78-11.57-10.99-17.3-16.5-1.79-1.72-3.53-3.51-5.41-5.12,1.36,2.1,3.01,3.98,4.48,5.99M146.72,397.15c-.55,1.19-.85,2.02-.33,3.29.33.83.8,1.62,1.22,2.4.38-1.57.53-3.73-.39-5.14-.19-.27-.27-.33-.5-.55M259.6,299.84c-.09,2.62.06,7.35-1.46,9.56-.72.36-1.19.46-1.97.2-6.61-2.07-14.92-14.06-19.84-19.09,0,2.21.3,5.93-1.6,7.52-.63.53-1.44.6-2.21.42-5.74-1.38-13.43-14.65-18.68-18.38.61,6.8,7.96,13.26,12.85,17.33,13.17,10.97,30.61,16.05,47.66,15.5-3.02-3.07-5.97-6.36-9.14-9.29-1.8-1.46-3.54-2.73-5.61-3.78"/>
      </g>
    </g>
  </g>
</svg>