<?xml version="1.0" encoding="UTF-8"?>
<svg id="Layer_1" data-name="Layer 1" xmlns="http://www.w3.org/2000/svg" xmlns:xlink="http://www.w3.org/1999/xlink" viewBox="0 0 500 474.18">
  <defs>
    <style>
      .cls-1 {
        fill: none;
      }

      .cls-2 {
        clip-path: url(#clippath-1);
      }

      .cls-3 {
        fill: #9a6c29;
      }

      .cls-4 {
        clip-path: url(#clippath);
      }
    </style>
    <clipPath id="clippath">
      <rect class="cls-1" y="0" width="500" height="474.18"/>
    </clipPath>
    <clipPath id="clippath-1">
      <rect class="cls-1" y="0" width="500" height="474.18"/>
    </clipPath>
  </defs>
  <g id="Pisces">
    <g class="cls-4">
      <g class="cls-2">
        <path class="cls-3" d="M171.05,474.18c-23.47,0-44.68-3.73-59.03-10.42l-1.39-1.56-21-63.02c-.46-1.38.29-2.87,1.67-3.34,1.38-.46,2.87.29,3.34,1.67l20.63,61.93c31.4,14,95.02,13.78,142.28-8.65l-8.8-27.44c-.44-1.39.32-2.87,1.7-3.32,1.39-.45,2.87.32,3.32,1.71l9.5,29.62c.4,1.25-.17,2.59-1.34,3.17-27.6,13.62-61.06,19.65-90.88,19.65"/>
        <path class="cls-3" d="M194.38,431.26c-37.54,0-70.11-8.73-96.8-25.96-33.19-21.43-57.29-56.07-71.64-102.96-3.11-10.15,18.3-31.04,18.51-31.25,10.95-10.61,23.53-16,37.37-16,29.27,0,58.27,23.69,77.54,41.51,2.68,2.47,5.35,5.04,7.93,7.52,8.64,8.29,17.57,16.87,27.86,23.17,19.41,11.87,42.87,17.26,61.15,20.63,10.22,1.88,21.39,2.8,34.16,2.8,27.32,0,56.44-4.32,82.12-8.12l4.54-.67,1.18.09c5.09,1.61,14.18,8.34,12.2,22.35l-1.1,1.79c-.23.16-23.28,16.18-68.4,37.19-.59.28-60.43,27.91-126.63,27.91M81.82,260.37c-12.43,0-23.77,4.88-33.7,14.51-6.94,6.73-18.6,21.14-17.14,25.92,25.41,83.07,80.39,125.19,163.4,125.19,65.04,0,123.81-27.14,124.4-27.41,39.57-18.43,61.88-32.89,66.64-36.08,1.01-10.71-6.15-14.42-8.18-15.26l-3.87.57c-25.87,3.84-55.19,8.18-82.9,8.18-13.09,0-24.58-.94-35.12-2.88-18.72-3.45-42.8-8.99-62.94-21.32-10.78-6.59-19.92-15.37-28.76-23.86-2.57-2.46-5.22-5.02-7.86-7.46-18.62-17.22-46.54-40.11-73.96-40.11"/>
        <path class="cls-3" d="M139.3,345.87l-1.45-.44c-1.22-.8-1.55-2.43-.75-3.65,22.01-33.38-9.98-64.48-10.31-64.79-1.06-1-1.09-2.67-.09-3.73,1.01-1.05,2.67-1.09,3.73-.09.36.34,35.49,34.49,11.07,71.51-.51.77-1.35,1.18-2.2,1.18"/>
        <path class="cls-3" d="M65.31,307.33c-17.54,0-36.52-6.9-37.61-7.3-1.37-.5-2.07-2.02-1.56-3.39.5-1.37,2.02-2.07,3.39-1.56.35.13,34.84,12.65,51.61,3.87,1.29-.67,2.89-.18,3.56,1.11.68,1.29.18,2.88-1.11,3.56-5.18,2.71-11.62,3.71-18.27,3.71"/>
        <path class="cls-3" d="M201.81,413.37c-33.73,0-70.62-6.69-105.2-26.84-1.26-.73-1.68-2.35-.95-3.6.73-1.26,2.35-1.68,3.61-.95,58.1,33.86,123.15,28.66,167.49,18.34,48.25-11.24,83.14-30.81,83.49-31.01,1.27-.72,2.88-.27,3.59.99.72,1.27.27,2.88-.99,3.59-.35.2-35.8,20.1-84.75,31.52-19.04,4.44-41.83,7.96-66.28,7.96"/>
        <path class="cls-3" d="M203.47,401.07c-26.73,0-63-5.09-100.13-25.73-1.27-.71-1.73-2.31-1.02-3.59.71-1.27,2.31-1.73,3.59-1.02,79.24,44.05,155.51,16.48,156.28,16.19,1.36-.51,2.88.19,3.39,1.55.51,1.36-.19,2.89-1.55,3.39-.8.3-20.03,7.36-49.56,8.91-3.44.18-7.11.29-10.98.29"/>
        <path class="cls-3" d="M100.93,361.89c-1.15,0-2.3-.16-3.42-.48-3.21-.91-5.88-3.02-7.51-5.94-1.63-2.92-2.02-6.3-1.11-9.52,1.52-5.36,6.47-9.1,12.04-9.1,1.15,0,2.3.16,3.42.48,3.22.91,5.88,3.03,7.51,5.95,1.63,2.92,2.02,6.3,1.11,9.52-1.52,5.36-6.47,9.1-12.04,9.1M100.92,340.81c-3.81,0-7.19,2.56-8.23,6.23-.62,2.2-.35,4.51.76,6.51,1.11,2,2.94,3.44,5.14,4.07l2.34.33c3.81,0,7.19-2.56,8.23-6.23.63-2.2.36-4.51-.76-6.51-1.11-2-2.94-3.44-5.14-4.07l-2.34-.33Z"/>
        <path class="cls-3" d="M84.93,345.62l-.67-.12c-1.03-.37-1.56-1.5-1.2-2.53,3.82-10.66,15.6-16.22,26.27-12.4,1.03.37,1.56,1.5,1.19,2.53s-1.5,1.56-2.53,1.2c-8.61-3.09-18.12,1.4-21.2,10.01l-1.86,1.31Z"/>
        <path class="cls-3" d="M111.07,287.03l-1.81-.72c-1.29-1.2-31.06-28.45-58.64-.58-1.02,1.04-2.69,1.05-3.73.02-1.03-1.03-1.04-2.7-.02-3.73,31.23-31.56,65.66.13,66,.45,1.06,1,1.11,2.67.12,3.73l-1.92.83Z"/>
        <path class="cls-3" d="M72.4,365.86l-.84-.3c-7.66-6.32-14.27-15.01-19.65-25.85-2.53-5.1-4.58-10.33-6.42-15.21l.77-1.7,1.7.77c1.81,4.82,3.83,9.97,6.31,14.96,5.21,10.5,11.6,18.91,18.97,24.99l.18,1.86-1.02.48Z"/>
        <path class="cls-3" d="M273.38,363.49c-22.74,0-43.6-4.37-66.74-13.89-6.54-2.69-13.2-5.82-19.79-9.31-.97-.51-1.34-1.71-.83-2.67.51-.96,1.7-1.34,2.67-.82,6.48,3.43,13.03,6.5,19.45,9.14,24.84,10.22,46.96,14.37,71.76,13.47,1.05-.03,2.01.81,2.05,1.91.04,1.09-.81,2.01-1.9,2.05-2.24.08-4.47.12-6.67.12"/>
        <path class="cls-3" d="M251.69,368.41h-.13c-20.02-1.36-41.14-7.86-62.75-19.34-.97-.51-1.33-1.71-.82-2.67.51-.97,1.71-1.33,2.67-.82,21.12,11.21,41.7,17.56,61.16,18.88,1.09.07,1.91,1.02,1.84,2.11-.07,1.04-.94,1.85-1.97,1.85"/>
        <path class="cls-3" d="M171.61,445.33c-10.49,0-21.65-1.62-33.33-4.84-1.4-.39-2.23-1.84-1.84-3.24.39-1.4,1.84-2.23,3.24-1.84,16.37,4.52,31.6,5.75,45.27,3.67,1.44-.22,2.78.77,3,2.21.22,1.44-.77,2.78-2.21,3-4.56.7-9.28,1.04-14.14,1.04"/>
        <path class="cls-3" d="M71.53,356.75l-.84-.3c-5.32-4.39-9.92-10.43-13.65-17.94-1.75-3.53-3.17-7.14-4.44-10.52l.77-1.7,1.7.77c1.25,3.31,2.63,6.85,4.33,10.27,3.57,7.18,7.93,12.93,12.96,17.08l.18,1.86-1.02.48Z"/>
        <path class="cls-3" d="M72.15,349.99l-.84-.3c-3.76-3.1-7-7.36-9.64-12.66-1.23-2.49-2.23-5.02-3.12-7.38l.77-1.7,1.7.77c.87,2.3,1.83,4.76,3.01,7.14,2.46,4.97,5.47,8.93,8.95,11.8l.18,1.85-1.02.48Z"/>
        <path class="cls-3" d="M434.34,376.35c-24.85,0-46.6-9.52-47.51-9.93-1.1-.49-1.73-1.66-1.53-2.85,1.29-7.61-1.64-13.06-8.95-16.67l-.73-.53c-.48-.49-11.7-12.26-15.99-33.35-3.93-19.31-2.47-50.39,26.75-88.84.86-1.14,2.48-1.38,3.64-.55,1.38.99,33.67,24.57,29.19,57.99-3.06,22.8-3.87,32.76-4.08,36.76,18.21,1.1,37.78,6.89,39.53,7.42,7.37,1.65,14.12,2.48,20.04,2.48,15.62,0,20.53-5.83,20.58-5.89.78-.97,2.15-1.27,3.26-.71,1.11.56,1.68,1.81,1.36,3.01-11.39,42.69-41.94,51.65-65.57,51.65M390.77,362.34c5.66,2.23,23.84,8.74,43.57,8.74,29.27,0,48.86-13.71,58.34-40.77-3.88,1.72-9.66,3.25-17.97,3.25-6.34,0-13.5-.89-21.29-2.63l-.19-.05c-.22-.07-22.24-6.7-40.89-7.34-1.36-.05-2.46-1.12-2.54-2.48-.02-.26-.31-6.66,4.18-40.12,3.44-25.65-18.16-45.74-25.01-51.4-21.01,28.47-29.36,56.94-24.17,82.46,3.62,17.79,12.62,28.52,14.33,30.42,8.42,4.32,12.42,11.18,11.64,19.94"/>
        <path class="cls-3" d="M203.86,390.12c-13.51,0-29.48-1.44-44.9-6.29-1.39-.44-2.16-1.92-1.72-3.31.44-1.39,1.92-2.16,3.31-1.72,35.63,11.22,75.72,3.24,76.12,3.16,1.42-.3,2.82.63,3.11,2.06.29,1.43-.63,2.82-2.06,3.11-.99.2-15.02,3-33.86,3"/>
        <path class="cls-3" d="M424.32,365.91c-19.67,0-36.02-4.07-36.77-4.26-1.41-.36-2.27-1.79-1.91-3.2.35-1.41,1.79-2.27,3.2-1.91.78.2,77.95,19.07,94.33-26.69.49-1.37,2-2.08,3.37-1.59,1.37.49,2.09,2,1.6,3.37-7.5,20.95-27.42,32.76-57.61,34.14-2.09.1-4.17.14-6.2.14"/>
        <path class="cls-3" d="M384.58,352.48l-2.04-.96c-.35-.42-8.53-10.58-11.4-30.74-2.6-18.32-1.1-48.87,20.87-90.34.68-1.29,2.27-1.78,3.57-1.1,1.29.68,1.78,2.28,1.09,3.57-40.59,76.64-10.37,114.89-10.06,115.26.92,1.13.76,2.79-.36,3.71l-1.67.6Z"/>
        <path class="cls-3" d="M426.56,355.45l-1.05-.99.99-1.11c22.14-1.24,37.15-9.56,37.3-9.64l1.44.4-.4,1.44c-.63.35-15.59,8.64-38.21,9.91h-.06Z"/>
        <path class="cls-3" d="M426.24,349.21h-1.07s-1.03-1.1-1.03-1.1l1.08-1.03c6.19.17,10.66-1.2,10.71-1.21l1.32.7-.7,1.32c-.18.06-4.33,1.32-10.32,1.32"/>
        <path class="cls-3" d="M425.2,352.03l-1.05-1.03,1.03-1.08c10.85-.31,19.53-2.87,19.61-2.9l1.31.71-.71,1.31c-.36.11-9.03,2.67-20.16,2.98h-.03Z"/>
        <path class="cls-3" d="M382.59,293.13h0l-1.05-1.06c0-.19.22-19.29,10.4-41.73l1.4-.52.52,1.39c-9.99,22.04-10.21,40.69-10.21,40.87l-1.06,1.05Z"/>
        <path class="cls-3" d="M395.35,265.98h-.15s-.9-1.2-.9-1.2c.03-.22.78-5.42,3.78-11.85l1.4-.51.51,1.4c-2.86,6.12-3.6,11.19-3.6,11.25l-1.04.91Z"/>
        <path class="cls-3" d="M389.5,272.96l-.18-.02-.86-1.22c.02-.11,2.03-11.39,7.63-23.79l1.4-.53.53,1.4c-5.48,12.15-7.46,23.18-7.48,23.29l-1.04.87Z"/>
        <path class="cls-3" d="M96.64,349.16c.74-2.62,3.47-4.14,6.09-3.4,2.62.75,4.14,3.47,3.4,6.09-.74,2.62-3.47,4.14-6.09,3.4-2.62-.74-4.14-3.47-3.4-6.09"/>
        <path class="cls-3" d="M273.81,381.17c2.15-.59,4.37.67,4.96,2.81.59,2.15-.67,4.37-2.82,4.96-2.15.59-4.37-.67-4.96-2.82-.59-2.15.67-4.37,2.81-4.96"/>
        <path class="cls-3" d="M284.25,379.47c1.69-.47,3.43.52,3.89,2.21.47,1.68-.52,3.43-2.21,3.89-1.68.47-3.43-.52-3.89-2.21-.47-1.69.52-3.43,2.21-3.89"/>
        <path class="cls-3" d="M292.81,377.76c1.21-.33,2.46.38,2.8,1.59.33,1.21-.38,2.46-1.59,2.8-1.21.33-2.46-.38-2.8-1.59-.33-1.21.38-2.46,1.59-2.8"/>
        <path class="cls-3" d="M299.58,375.89c.89-.25,1.81.28,2.05,1.17.25.89-.28,1.81-1.16,2.06-.89.24-1.81-.28-2.05-1.17-.25-.89.28-1.81,1.16-2.06"/>
        <path class="cls-3" d="M112.21,439.73c-.61-1.71.28-3.59,2-4.21s3.6.28,4.21,2c.61,1.71-.29,3.59-2,4.21-1.71.61-3.59-.28-4.21-2"/>
        <path class="cls-3" d="M110.21,431.33c-.48-1.34.22-2.82,1.57-3.3,1.34-.48,2.82.22,3.3,1.56.48,1.34-.22,2.82-1.57,3.3-1.34.48-2.82-.22-3.3-1.57"/>
        <path class="cls-3" d="M108.3,424.48c-.34-.97.16-2.03,1.13-2.37.96-.34,2.03.16,2.37,1.12.34.97-.16,2.03-1.12,2.37-.97.34-2.03-.16-2.37-1.12"/>
        <rect class="cls-3" x="106.7" y="417.65" width="1.93" height="1.93" transform="translate(-316.71 336.53) rotate(-64.63)"/>
        <path class="cls-3" d="M126.56,365.83c2.07.83,3.07,3.18,2.23,5.25-.83,2.07-3.18,3.07-5.25,2.23-2.07-.83-3.07-3.18-2.24-5.24.83-2.07,3.18-3.07,5.25-2.24"/>
        <path class="cls-3" d="M135.89,370.81c1.62.65,2.41,2.5,1.75,4.12s-2.49,2.41-4.12,1.75c-1.62-.65-2.41-2.49-1.76-4.12.65-1.62,2.5-2.41,4.12-1.76"/>
        <path class="cls-3" d="M143.73,374.64c1.16.47,1.73,1.79,1.26,2.96-.47,1.16-1.79,1.73-2.95,1.26-1.17-.47-1.73-1.79-1.26-2.96.47-1.16,1.79-1.73,2.96-1.26"/>
        <path class="cls-3" d="M150.25,377.26c.86.34,1.27,1.32.93,2.17-.34.86-1.32,1.27-2.17.93-.86-.35-1.27-1.32-.92-2.17.34-.85,1.32-1.27,2.17-.93"/>
        <path class="cls-3" d="M242.56,289.44c-2.27-.64-3.59-3.01-2.94-5.28.65-2.27,3.01-3.59,5.28-2.94,2.27.65,3.59,3.01,2.94,5.28-.65,2.27-3.01,3.59-5.28,2.94"/>
        <path class="cls-3" d="M231.96,283.91c-1.78-.51-2.81-2.36-2.31-4.14.51-1.78,2.36-2.81,4.14-2.31,1.78.51,2.81,2.36,2.31,4.14-.5,1.78-2.36,2.81-4.14,2.31"/>
        <path class="cls-3" d="M222.37,279.44c-1.28-.36-2.02-1.7-1.66-2.98.36-1.28,1.7-2.02,2.98-1.66,1.28.36,2.02,1.7,1.66,2.98-.36,1.28-1.7,2.02-2.98,1.66"/>
        <path class="cls-3" d="M212.81,276.83c-.94-.27-1.49-1.25-1.22-2.19.27-.94,1.25-1.49,2.19-1.22.94.26,1.49,1.25,1.22,2.18-.27.94-1.25,1.49-2.19,1.22"/>
        <path class="cls-3" d="M290.71,357.59c1.87-.11,3.48,1.31,3.59,3.18.11,1.87-1.31,3.48-3.18,3.59-1.87.11-3.48-1.31-3.59-3.18-.11-1.87,1.31-3.48,3.18-3.59"/>
        <path class="cls-3" d="M299.59,358c1.47-.09,2.73,1.03,2.82,2.49.09,1.47-1.03,2.73-2.5,2.82-1.46.09-2.72-1.03-2.81-2.49-.09-1.47,1.03-2.73,2.49-2.82"/>
        <path class="cls-3" d="M306.93,358.08c1.06-.07,1.96.74,2.03,1.79.06,1.06-.74,1.96-1.79,2.03-1.05.06-1.96-.74-2.02-1.79-.06-1.05.74-1.96,1.79-2.02"/>
        <rect class="cls-3" x="311.92" y="358.13" width="1.99" height="1.99" transform="translate(-163.4 355.47) rotate(-48.49)"/>
        <path class="cls-3" d="M385.27,299.61c-.07,1.67-1.48,2.98-3.15,2.91-1.67-.07-2.98-1.48-2.91-3.15.07-1.67,1.48-2.98,3.15-2.91,1.68.06,2.98,1.48,2.92,3.15"/>
        <path class="cls-3" d="M384.11,307.48c-.05,1.31-1.16,2.34-2.47,2.29-1.31-.05-2.34-1.16-2.29-2.47.05-1.31,1.16-2.34,2.47-2.29,1.31.05,2.34,1.16,2.29,2.47"/>
        <path class="cls-3" d="M383.38,314.01c-.04.94-.83,1.68-1.78,1.64-.94-.04-1.68-.84-1.64-1.78.04-.95.83-1.68,1.78-1.64.94.04,1.68.83,1.64,1.78"/>
        <rect class="cls-3" x="381.03" y="318.36" width="1.78" height="1.78" transform="translate(-115.22 344.45) rotate(-42.79)"/>
        <path class="cls-3" d="M399.05,349.97c1.61.05,2.87,1.39,2.82,2.99-.05,1.61-1.38,2.87-2.99,2.82-1.61-.04-2.87-1.38-2.82-2.99.04-1.61,1.38-2.87,2.99-2.83"/>
        <path class="cls-3" d="M407.08,351.97c1.26.04,2.25,1.09,2.22,2.35-.04,1.26-1.09,2.25-2.35,2.22-1.26-.04-2.25-1.09-2.22-2.35.04-1.26,1.09-2.25,2.35-2.22"/>
        <path class="cls-3" d="M413.85,352.43c.9.03,1.62.78,1.59,1.69-.03.9-.78,1.62-1.69,1.59-.9-.02-1.62-.78-1.59-1.68.03-.9.78-1.62,1.69-1.59"/>
        <rect class="cls-3" x="418.43" y="352.33" width="1.7" height="1.7" transform="translate(-128.02 384.61) rotate(-43.4)"/>
        <path class="cls-3" d="M213.49,341.09c-1.09,0-2.12-.69-2.49-1.78-.47-1.38.26-2.88,1.63-3.35,19.25-6.63,39.23-18,59.39-33.79,4.14-3.24,8.25-6.69,12.23-10.03,3.2-2.69,6.51-5.46,9.84-8.13l.44-.34c2.37-1.8,3.97-3.14,5.05-4.13-15.5-.52-30.06-4.9-44.19-9.15-10.57-3.17-21.49-6.46-32.57-8.04-17.18-2.45-32.18-.07-44.58,7.07-8.82,5.08-15.84,12.26-23.5,24-.8,1.22-2.43,1.57-3.65.77-1.22-.8-1.57-2.43-.77-3.65,8.14-12.48,15.69-20.17,25.28-25.69,13.45-7.75,29.58-10.34,47.95-7.72,11.47,1.64,22.59,4.98,33.34,8.21,15.53,4.67,30.16,9.11,46.16,8.97,2.64-.06,3.52,1.59,3.75,2.28.78,2.29-.42,4.66-9.1,11.27l-.33.25c-3.28,2.63-6.57,5.39-9.75,8.06-4.01,3.36-8.16,6.84-12.37,10.14-20.62,16.15-41.12,27.8-60.93,34.62l-.86.14Z"/>
        <path class="cls-3" d="M211.43,331.5c-1.17,0-2.23-.78-2.55-1.96-.37-1.41.46-2.85,1.87-3.22.23-.07,20.71-5.87,65.55-39.22,1.17-.87,2.82-.63,3.69.54.87,1.17.63,2.82-.54,3.69-45.92,34.15-66.49,39.86-67.34,40.08l-.68.09Z"/>
        <path class="cls-3" d="M171.82,285.74l-1.82-.73c-1.06-1.01-1.1-2.67-.09-3.73,28.07-29.49,79.7-6.08,81.89-5.07,1.32.61,1.9,2.18,1.29,3.5s-2.18,1.9-3.5,1.29c-.5-.23-50.39-22.83-75.85,3.92l-1.91.82Z"/>
        <path class="cls-3" d="M177.43,301.23l-1.8-.71c-1.06-.99-1.12-2.66-.12-3.73,22.64-24.17,53.58-8.05,53.89-7.88,1.28.69,1.77,2.29,1.08,3.57-.69,1.28-2.28,1.77-3.57,1.08-1.12-.6-27.72-14.35-47.56,6.83l-1.93.83Z"/>
        <path class="cls-3" d="M208.63,323.77c-1.05,0-2.04-.63-2.45-1.66-.54-1.35.12-2.89,1.47-3.43,16.46-6.57,39-21.78,39.22-21.93,1.21-.82,2.85-.5,3.66.7.82,1.21.5,2.85-.71,3.66-.94.63-23.23,15.67-40.22,22.46l-.98.19Z"/>
        <path class="cls-3" d="M173.46,464.84c-15.35,0-31.86-1.89-48.05-7.19-1.38-.45-2.14-1.94-1.68-3.33.45-1.38,1.94-2.13,3.33-1.68,53.87,17.62,113.57-4.42,114.17-4.64,1.36-.52,2.88.18,3.4,1.54.51,1.36-.18,2.89-1.54,3.4-1.78.67-32.23,11.91-69.61,11.91"/>
        <path class="cls-3" d="M173.03,455.1c-13.61,0-29.24-1.86-44.83-7.68-1.37-.51-2.06-2.03-1.55-3.39.51-1.36,2.03-2.06,3.39-1.55,40.64,15.16,82.83,1.9,83.26,1.76,1.39-.45,2.87.32,3.32,1.7.45,1.39-.31,2.87-1.7,3.32-1.13.36-18.54,5.83-41.88,5.83"/>
        <path class="cls-3" d="M407.86,78.47c-1.11,0-2.13-.7-2.5-1.8l-20.63-61.93C353.32.73,289.7.95,242.45,23.39l8.79,27.44c.45,1.39-.32,2.87-1.7,3.32-1.39.45-2.87-.32-3.32-1.71l-9.5-29.62c-.4-1.24.17-2.59,1.34-3.17,49.32-24.35,117.34-24.43,149.91-9.23l1.39,1.56,21,63.01c.46,1.38-.29,2.88-1.67,3.34l-.83.14Z"/>
        <path class="cls-3" d="M418.18,219.09c-29.26,0-58.27-23.69-77.54-41.51-2.68-2.48-5.35-5.04-7.93-7.53-8.64-8.3-17.57-16.87-27.86-23.17-19.41-11.87-42.88-17.26-61.15-20.63-10.22-1.88-21.39-2.8-34.16-2.8-27.32,0-56.44,4.32-82.12,8.12l-4.54.67-1.18-.1c-5.09-1.6-14.19-8.34-12.2-22.35l1.1-1.79c.23-.16,23.28-16.18,68.4-37.19.59-.28,60.43-27.91,126.63-27.91,37.54,0,70.11,8.74,96.8,25.96,33.19,21.42,57.29,56.06,71.64,102.96,3.11,10.15-18.3,31.04-18.51,31.25-10.95,10.61-23.52,16-37.37,16M209.53,118.18c13.09,0,24.58.94,35.12,2.89,18.73,3.45,42.8,8.99,62.94,21.32,10.78,6.59,19.92,15.37,28.76,23.86,2.57,2.47,5.22,5.01,7.86,7.46,18.62,17.22,46.55,40.11,73.96,40.11,12.43,0,23.77-4.88,33.7-14.51,6.94-6.73,18.6-21.14,17.14-25.92-25.41-83.07-80.39-125.2-163.4-125.2-65.04,0-123.82,27.14-124.4,27.41-39.53,18.41-61.88,32.89-66.64,36.08-1.01,10.71,6.15,14.42,8.18,15.25l3.87-.57c25.87-3.83,55.19-8.18,82.9-8.18"/>
        <path class="cls-3" d="M371.39,201.74l-1.82-.73c-.36-.34-35.49-34.5-11.07-71.52.8-1.22,2.43-1.55,3.65-.75,1.22.8,1.55,2.44.75,3.65-22.01,33.38,9.98,64.48,10.31,64.79,1.05,1.01,1.09,2.67.09,3.73l-1.91.82Z"/>
        <path class="cls-3" d="M471.39,179.27l-.91-.16c-.35-.13-34.85-12.66-51.61-3.87-1.29.68-2.89.18-3.56-1.11-.67-1.29-.18-2.89,1.11-3.56,18.84-9.87,54.39,3.04,55.89,3.59,1.37.5,2.07,2.02,1.56,3.39-.39,1.06-1.4,1.72-2.48,1.72"/>
        <path class="cls-3" d="M148.46,105.22c-.92,0-1.81-.48-2.3-1.34-.72-1.27-.27-2.88,1-3.6.35-.2,35.79-20.09,84.75-31.52,45.31-10.57,111.84-15.88,171.48,18.88,1.26.73,1.68,2.35.95,3.61-.73,1.26-2.35,1.68-3.61.95-58.15-33.89-123.25-28.66-167.63-18.3-48.22,11.25-83,30.78-83.35,30.97l-1.3.34Z"/>
        <path class="cls-3" d="M395.38,103.78l-1.28-.33c-79.15-44-155.52-16.48-156.28-16.19-1.36.51-2.88-.19-3.39-1.55-.51-1.36.19-2.88,1.55-3.39.8-.3,20.03-7.36,49.56-8.91,27.23-1.43,68.61,1.81,111.12,25.44,1.27.71,1.73,2.31,1.02,3.59-.48.86-1.38,1.35-2.31,1.35"/>
        <path class="cls-3" d="M399.08,137.33c-1.15,0-2.3-.16-3.42-.48-3.22-.91-5.88-3.02-7.51-5.94-1.63-2.92-2.02-6.3-1.11-9.52,1.52-5.36,6.47-9.1,12.04-9.1,1.15,0,2.31.16,3.42.48,3.21.91,5.88,3.03,7.51,5.94,1.63,2.92,2.02,6.3,1.11,9.51-1.52,5.36-6.47,9.1-12.04,9.1M399.07,116.25c-3.81,0-7.19,2.56-8.23,6.22-.63,2.2-.35,4.51.76,6.51,1.11,2,2.94,3.44,5.14,4.07l2.34.33c3.8,0,7.19-2.56,8.23-6.23.62-2.2.35-4.51-.76-6.51-1.11-2-2.94-3.44-5.14-4.07l-2.34-.33Z"/>
        <path class="cls-3" d="M397.58,144.81c-2.29,0-4.63-.39-6.91-1.21-1.03-.37-1.56-1.5-1.19-2.53.37-1.03,1.5-1.56,2.53-1.19,8.61,3.09,18.12-1.41,21.2-10.01.37-1.03,1.5-1.57,2.53-1.19,1.03.37,1.56,1.5,1.2,2.53-3,8.38-10.92,13.61-19.35,13.61"/>
        <path class="cls-3" d="M422.33,206.14c-19.54,0-34.98-14.22-35.21-14.43-1.06-1-1.11-2.66-.11-3.73,1-1.06,2.67-1.11,3.73-.11,1.29,1.2,31.06,28.45,58.64.58,1.02-1.04,2.69-1.04,3.73-.02,1.04,1.03,1.04,2.7.02,3.73-10.36,10.48-21.08,13.98-30.79,13.98"/>
        <path class="cls-3" d="M453.28,151.47l-1.23-.85c-1.81-4.82-3.83-9.97-6.31-14.96-5.21-10.5-11.6-18.91-18.97-24.99l-.18-1.86,1.85-.18c7.66,6.32,14.27,15.01,19.65,25.85,2.53,5.1,4.58,10.32,6.42,15.21l-.77,1.7-.46.08Z"/>
        <path class="cls-3" d="M312.23,137.62l-.92-.23c-6.49-3.43-13.03-6.5-19.45-9.14-24.84-10.22-46.96-14.37-71.76-13.47-1.06.02-2.01-.81-2.05-1.9-.04-1.09.81-2.01,1.9-2.05,25.38-.92,48.02,3.32,73.41,13.77,6.53,2.69,13.2,5.82,19.79,9.3.97.51,1.34,1.7.83,2.67l-1.75,1.06Z"/>
        <path class="cls-3" d="M310.26,128.84l-.93-.23c-21.12-11.21-41.7-17.56-61.16-18.88-1.09-.07-1.91-1.02-1.84-2.11.07-1.09,1.03-1.91,2.11-1.84,20.02,1.35,41.14,7.86,62.75,19.33.97.51,1.33,1.71.82,2.67l-1.75,1.05Z"/>
        <path class="cls-3" d="M361.01,38.87l-.7-.1c-16.37-4.52-31.6-5.75-45.27-3.67-1.44.22-2.79-.77-3.01-2.21-.22-1.44.77-2.79,2.21-3.01,14.41-2.2,30.38-.92,47.47,3.8,1.4.39,2.23,1.84,1.84,3.24-.33,1.17-1.38,1.94-2.54,1.94"/>
        <path class="cls-3" d="M446.16,147.97l-1.24-.86c-1.25-3.31-2.63-6.85-4.33-10.27-3.57-7.19-7.93-12.93-12.96-17.08l-.18-1.85,1.86-.18c5.32,4.39,9.91,10.43,13.65,17.94,1.75,3.53,3.17,7.14,4.44,10.52l-.77,1.7-.47.08Z"/>
        <path class="cls-3" d="M440.2,146.32l-1.24-.85c-.87-2.3-1.83-4.76-3.01-7.14-2.46-4.96-5.47-8.94-8.95-11.8l-.17-1.85,1.85-.18c3.76,3.1,7,7.36,9.63,12.66,1.23,2.48,2.23,5.01,3.12,7.38l-.77,1.7-.46.08Z"/>
        <path class="cls-3" d="M111.52,251.05l-1.54-.49c-1.38-.99-33.67-24.57-29.19-57.99,3.06-22.81,3.87-32.77,4.08-36.76-18.21-1.1-37.78-6.89-39.53-7.41-7.38-1.65-14.12-2.48-20.05-2.48-15.62,0-20.53,5.83-20.58,5.89-.78.96-2.15,1.27-3.26.71-1.11-.57-1.69-1.81-1.37-3.01,11.39-42.69,41.94-51.65,65.58-51.65,24.85,0,46.6,9.52,47.51,9.93,1.1.49,1.73,1.66,1.53,2.85-1.29,7.61,1.64,13.06,8.95,16.66l.73.53c.48.49,11.7,12.26,15.99,33.35,3.93,19.31,2.47,50.4-26.75,88.85l-2.1,1.04ZM25.29,140.63c6.34,0,13.5.88,21.29,2.63l.19.05c.22.06,22.24,6.69,40.89,7.34,1.36.05,2.46,1.12,2.54,2.49.02.26.31,6.66-4.18,40.12-3.45,25.7,18.16,45.76,25,51.4,21.01-28.47,29.37-56.94,24.18-82.46-3.62-17.79-12.62-28.52-14.33-30.43-8.42-4.32-12.41-11.17-11.64-19.94-5.66-2.23-23.84-8.74-43.57-8.74-29.27,0-48.86,13.71-58.34,40.77,3.88-1.72,9.66-3.25,17.97-3.25"/>
        <path class="cls-3" d="M340.25,95.51l-.79-.12c-35.64-11.22-75.72-3.24-76.12-3.16-1.43.29-2.82-.63-3.11-2.06-.29-1.43.63-2.82,2.06-3.11,1.69-.34,41.84-8.33,78.76,3.29,1.39.44,2.16,1.92,1.72,3.31-.36,1.13-1.4,1.85-2.52,1.85"/>
        <path class="cls-3" d="M14.35,146.08l-.89-.16c-1.37-.49-2.09-2-1.59-3.37,7.5-20.95,27.42-32.76,57.61-34.14,22.32-1.03,42.14,3.91,42.97,4.12,1.41.36,2.27,1.79,1.91,3.2-.36,1.41-1.79,2.26-3.2,1.91-.78-.2-77.95-19.07-94.33,26.69-.39,1.08-1.4,1.75-2.48,1.75"/>
        <path class="cls-3" d="M105.65,245.15l-1.23-.31c-1.29-.68-1.78-2.28-1.09-3.56,40.59-76.64,10.37-114.89,10.06-115.27-.93-1.12-.76-2.78.36-3.71,1.12-.93,2.79-.76,3.71.36.35.42,8.53,10.58,11.4,30.74,2.61,18.32,1.1,48.87-20.87,90.34-.47.89-1.39,1.4-2.33,1.4"/>
        <path class="cls-3" d="M35.69,130.61l-.92-.54.4-1.44c.63-.35,15.59-8.64,38.22-9.91l1.11.99-.99,1.11c-22.11,1.24-37.15,9.55-37.3,9.64l-.52.13Z"/>
        <path class="cls-3" d="M63.75,128.36l-1.01-.74.7-1.32c.19-.06,4.82-1.47,11.38-1.31l1.03,1.08-1.08,1.03c-6.18-.15-10.66,1.2-10.7,1.21l-.31.05Z"/>
        <path class="cls-3" d="M54.91,127.21l-1.01-.75.71-1.31c.36-.11,9.03-2.67,20.16-2.99l1.08,1.02-1.02,1.08c-10.85.31-19.53,2.87-19.61,2.9l-.3.04Z"/>
        <path class="cls-3" d="M107.1,224.47l-.43-.1-.53-1.39c9.98-22.01,10.21-40.69,10.21-40.88l1.06-1.05h0l1.05,1.06c0,.19-.23,19.29-10.4,41.74l-.96.62Z"/>
        <path class="cls-3" d="M100.95,221.86l-.44-.1-.51-1.4c2.86-6.12,3.6-11.2,3.61-11.25l1.19-.9.9,1.19c-.03.22-.78,5.42-3.78,11.85l-.96.61Z"/>
        <path class="cls-3" d="M102.95,226.87l-.43-.09-.53-1.4c5.48-12.15,7.46-23.18,7.47-23.29l1.22-.86.86,1.22c-.02.11-2.03,11.39-7.63,23.79l-.96.62Z"/>
        <path class="cls-3" d="M403.36,125.02c-.75,2.62-3.47,4.14-6.09,3.4-2.62-.75-4.14-3.47-3.4-6.09.74-2.62,3.47-4.14,6.09-3.4,2.62.75,4.14,3.47,3.4,6.09"/>
        <path class="cls-3" d="M226.19,93.01c-2.15.59-4.37-.67-4.96-2.82-.59-2.15.67-4.37,2.82-4.96,2.15-.59,4.37.67,4.96,2.81.59,2.15-.67,4.37-2.81,4.96"/>
        <path class="cls-3" d="M215.75,94.71c-1.69.47-3.43-.52-3.89-2.21-.47-1.68.52-3.43,2.21-3.89,1.68-.47,3.43.53,3.89,2.21.47,1.68-.52,3.43-2.21,3.89"/>
        <path class="cls-3" d="M207.19,96.42c-1.21.34-2.46-.38-2.8-1.59-.33-1.21.38-2.46,1.59-2.8,1.21-.33,2.46.38,2.8,1.59s-.38,2.46-1.59,2.8"/>
        <path class="cls-3" d="M200.42,98.29c-.89.25-1.81-.28-2.06-1.17-.25-.89.28-1.81,1.16-2.06.89-.24,1.81.28,2.06,1.17.25.89-.28,1.81-1.16,2.06"/>
        <path class="cls-3" d="M387.79,34.45c.61,1.71-.28,3.6-2,4.21-1.71.61-3.6-.28-4.21-1.99-.61-1.71.28-3.6,2-4.21,1.71-.61,3.6.28,4.21,2"/>
        <path class="cls-3" d="M389.79,42.85c.48,1.34-.22,2.82-1.57,3.3-1.34.48-2.82-.22-3.3-1.57-.48-1.34.22-2.82,1.57-3.3,1.34-.48,2.82.22,3.3,1.57"/>
        <path class="cls-3" d="M391.7,49.71c.34.97-.16,2.03-1.13,2.37-.97.34-2.03-.16-2.37-1.12-.34-.97.16-2.03,1.12-2.37.97-.34,2.03.16,2.37,1.12"/>
        <rect class="cls-3" x="391.38" y="54.6" width="1.93" height="1.93" transform="translate(173.9 386.18) rotate(-64.61)"/>
        <path class="cls-3" d="M373.44,108.35c-2.07-.83-3.07-3.18-2.24-5.24.83-2.07,3.18-3.07,5.25-2.24,2.07.83,3.07,3.18,2.23,5.25-.83,2.07-3.18,3.07-5.24,2.23"/>
        <path class="cls-3" d="M364.11,103.37c-1.62-.65-2.41-2.49-1.75-4.11.65-1.62,2.49-2.41,4.11-1.76,1.62.65,2.41,2.5,1.75,4.12-.65,1.62-2.49,2.4-4.12,1.75"/>
        <path class="cls-3" d="M356.27,99.55c-1.16-.47-1.73-1.79-1.26-2.96.47-1.16,1.79-1.73,2.96-1.26,1.16.47,1.73,1.79,1.26,2.96-.47,1.16-1.79,1.73-2.95,1.26"/>
        <path class="cls-3" d="M349.75,96.92c-.86-.34-1.27-1.32-.93-2.17.34-.86,1.32-1.27,2.17-.93.86.34,1.27,1.32.93,2.17-.34.86-1.32,1.27-2.17.93"/>
        <path class="cls-3" d="M257.44,184.75c2.27.65,3.59,3.01,2.94,5.28-.65,2.27-3.01,3.59-5.28,2.94-2.27-.65-3.59-3.01-2.94-5.28.65-2.27,3.01-3.59,5.28-2.94"/>
        <path class="cls-3" d="M268.04,190.27c1.78.51,2.81,2.36,2.31,4.14-.51,1.78-2.36,2.81-4.14,2.31-1.78-.51-2.81-2.36-2.31-4.14.51-1.78,2.36-2.81,4.14-2.31"/>
        <path class="cls-3" d="M277.63,194.74c1.28.36,2.02,1.7,1.66,2.98-.36,1.28-1.7,2.02-2.98,1.66-1.28-.36-2.02-1.7-1.66-2.98.36-1.28,1.7-2.02,2.98-1.66"/>
        <path class="cls-3" d="M287.19,197.35c.94.27,1.49,1.25,1.22,2.19-.27.94-1.25,1.48-2.19,1.22-.94-.27-1.49-1.25-1.22-2.19.27-.94,1.25-1.49,2.19-1.22"/>
        <path class="cls-3" d="M209.29,116.6c-1.87.11-3.48-1.31-3.59-3.18-.11-1.87,1.31-3.48,3.18-3.59,1.87-.11,3.48,1.31,3.59,3.18.11,1.87-1.31,3.48-3.18,3.59"/>
        <path class="cls-3" d="M200.41,116.18c-1.47.09-2.73-1.03-2.81-2.49-.09-1.47,1.03-2.73,2.49-2.81,1.47-.09,2.73,1.03,2.81,2.49.09,1.46-1.03,2.72-2.49,2.81"/>
        <path class="cls-3" d="M193.07,116.1c-1.06.06-1.96-.74-2.02-1.79-.06-1.05.74-1.96,1.79-2.02,1.05-.07,1.96.74,2.02,1.79.06,1.05-.74,1.96-1.79,2.02"/>
        <rect class="cls-3" x="186.1" y="114.07" width="1.99" height="1.99" transform="translate(-23.06 178.92) rotate(-48.49)"/>
        <path class="cls-3" d="M114.73,174.58c.07-1.67,1.48-2.98,3.15-2.92,1.67.07,2.98,1.48,2.91,3.15-.07,1.68-1.48,2.98-3.15,2.92-1.68-.06-2.98-1.48-2.92-3.15"/>
        <path class="cls-3" d="M115.89,166.7c.05-1.31,1.16-2.34,2.47-2.29,1.32.05,2.34,1.16,2.29,2.47-.05,1.31-1.16,2.34-2.47,2.29-1.32-.05-2.34-1.16-2.29-2.47"/>
        <path class="cls-3" d="M116.62,160.18c.04-.95.83-1.68,1.78-1.64.94.04,1.68.83,1.64,1.78-.04.94-.83,1.68-1.78,1.64-.94-.04-1.68-.84-1.64-1.78"/>
        <rect class="cls-3" x="117.19" y="154.05" width="1.78" height="1.78" transform="translate(-73.8 121.33) rotate(-42.75)"/>
        <path class="cls-3" d="M100.95,124.21c-1.61-.04-2.87-1.38-2.83-2.99.05-1.61,1.38-2.87,2.99-2.83,1.61.05,2.87,1.39,2.82,2.99-.04,1.61-1.38,2.87-2.99,2.82"/>
        <path class="cls-3" d="M92.92,122.22c-1.26-.04-2.25-1.09-2.22-2.35.04-1.26,1.09-2.25,2.35-2.22,1.26.04,2.25,1.08,2.22,2.35-.04,1.26-1.09,2.25-2.35,2.22"/>
        <path class="cls-3" d="M86.15,121.75c-.91-.02-1.62-.78-1.59-1.69.03-.9.78-1.62,1.69-1.59.9.03,1.62.78,1.59,1.69-.03.9-.78,1.62-1.69,1.59"/>
        <rect class="cls-3" x="79.87" y="120.15" width="1.7" height="1.7" transform="translate(-61.07 88.54) rotate(-43.4)"/>
        <path class="cls-3" d="M289.85,218.03c-4.33,0-8.81-.33-13.43-.99-11.47-1.64-22.59-4.98-33.34-8.21-15.53-4.67-30.17-9.12-46.16-8.97h-.04c-2.64,0-3.48-1.59-3.71-2.28-.78-2.29.42-4.65,9.1-11.27l.33-.25c3.28-2.64,6.57-5.4,9.75-8.06,4.01-3.36,8.16-6.84,12.37-10.14,20.62-16.15,41.12-27.8,60.93-34.62,1.38-.47,2.88.26,3.35,1.63.47,1.38-.26,2.88-1.63,3.35-19.25,6.63-39.23,17.99-59.39,33.78-4.14,3.24-8.25,6.69-12.23,10.03-3.2,2.69-6.51,5.46-9.84,8.14l-.44.34c-2.37,1.8-3.97,3.14-5.05,4.12,15.5.53,30.07,4.9,44.19,9.15,10.57,3.17,21.49,6.46,32.57,8.04,17.18,2.45,32.17.07,44.58-7.07,8.82-5.08,15.84-12.26,23.5-24,.8-1.22,2.43-1.57,3.65-.77,1.22.8,1.56,2.43.77,3.65-8.14,12.48-15.7,20.17-25.28,25.69-10.06,5.8-21.63,8.71-34.52,8.71"/>
        <path class="cls-3" d="M222.12,187.61l-2.12-1.06c-.87-1.17-.63-2.82.54-3.69,45.92-34.15,66.49-39.86,67.34-40.08,1.4-.37,2.85.47,3.22,1.87.37,1.4-.46,2.85-1.87,3.22-.2.06-20.67,5.84-65.55,39.22l-1.57.52Z"/>
        <path class="cls-3" d="M291.53,207.73c-21.84,0-41.98-9.14-43.33-9.76-1.32-.61-1.9-2.18-1.29-3.5.61-1.32,2.18-1.89,3.5-1.28.5.23,50.39,22.82,75.85-3.92,1.01-1.06,2.67-1.09,3.73-.09,1.06,1.01,1.09,2.67.09,3.73-10.76,11.3-24.99,14.84-38.56,14.84"/>
        <path class="cls-3" d="M293.95,190.69c-12.95,0-23.17-5.32-23.35-5.42-1.28-.69-1.77-2.28-1.08-3.57.69-1.28,2.28-1.77,3.57-1.08,1.12.6,27.72,14.35,47.55-6.83,1-1.07,2.67-1.12,3.73-.12,1.06,1,1.12,2.66.12,3.73-9.68,10.33-20.87,13.3-30.54,13.3"/>
        <path class="cls-3" d="M251.65,177.88c-.85,0-1.68-.4-2.19-1.16-.82-1.21-.5-2.85.7-3.66.94-.64,23.23-15.68,40.23-22.46,1.35-.54,2.89.12,3.43,1.47.54,1.35-.12,2.89-1.47,3.43-16.46,6.57-39,21.77-39.22,21.93l-1.48.45Z"/>
        <path class="cls-3" d="M257.86,26.35c-1.07,0-2.07-.65-2.47-1.71-.51-1.36.17-2.88,1.54-3.4,2.51-.94,62.05-22.91,117.67-4.72,1.38.45,2.14,1.94,1.69,3.33-.45,1.38-1.94,2.14-3.33,1.68-53.81-17.6-113.57,4.42-114.17,4.64l-.93.17Z"/>
        <path class="cls-3" d="M370.88,31.87l-.92-.16c-40.64-15.16-82.83-1.9-83.25-1.77-1.39.45-2.87-.31-3.32-1.7-.45-1.39.31-2.87,1.7-3.32,1.79-.58,44.38-13.95,86.71,1.84,1.37.51,2.06,2.03,1.55,3.39-.39,1.06-1.4,1.71-2.47,1.71"/>
      </g>
    </g>
  </g>
</svg>