<?xml version="1.0" encoding="UTF-8"?>
<svg id="Layer_1" xmlns="http://www.w3.org/2000/svg" version="1.1" viewBox="0 0 360 243.78">
  <!-- Generator: Adobe Illustrator 30.5.1, SVG Export Plug-In . SVG Version: 2.1.4 Build 3)  -->
  <defs>
    <style>
      .st0 {
        fill: #f1d380;
      }
    </style>
  </defs>
  <path class="st0" d="M356.92,228.52c4.56-8.76,2.95-17.47,2.05-20.81l-1.4-5.18-.97,5.27c-1.7,9.25-7.12,16.16-13.19,16.79-5.24.54-9.78-3.86-12.51-6.51-2.48-2.4-6.24-7.07-10.23-19.81-2.05-6.55-2.61-10.35-3.1-13.71-.56-3.81-1.04-7.11-3.37-13.13-1.03-2.66-4.15-10.75-11.4-18.19-1.02-1.05-2.3-2.04-3.72-2.91-2.18-7.03-1.33-14.25-.42-21.88.46-3.83.93-7.79.96-11.68.2-20.96-10.84-45.78-28.16-63.37,1.12-.98,2.05-2.17,2.93-3.29,1.88-2.4,3.5-4.47,6.26-4.46,2.09,0,3.74.77,5.48,1.57,2.12.98,4.31,1.99,7.15,1.44,3.62-.7,6.73-3.64,9.26-8.72.24-.47.12-1.05-.29-1.39-.4-.34-.99-.36-1.42-.05-1.09.79-3.36,2.12-6.4,2.18-3.58.07-6.03-1.64-6.84-2.2-1.53-1.06-2.1-1.96-2.81-3.09-.47-.75-1.01-1.6-1.88-2.53-5.09-5.48-14.94-5.31-21.54-1.99-.11.05-.21.11-.31.17,2.22-4.35,3.38-6.57,4.96-7.91,2.43-2.07,5.63-3.2,9.52-3.36.57-.02,1.04-.47,1.1-1.04.05-.57-.32-1.1-.88-1.23-16.72-3.88-22.81-1.41-26.9,1.84-.06.04-.12.1-.17.15.41-1.19.75-2.48.99-3.86.7-4.07.35-8.37-1.01-12.46-.16-.48-.62-.8-1.13-.79-.51.02-.95.37-1.07.86-1.58,6.08-4.25,10.08-7.92,11.89-2.16,1.06-3.99,1.06-6.11,1.05-1.68,0-3.58-.02-5.76.56-4.91,1.29-9.26,5.05-12.98,11.18-2.48-.62-5.02-1.09-7.57-1.39-.15-.02-3.68-.42-7.36-.4-11.99.08-28.31,6.28-29,6.54-6.99,2.68-13.84,5.98-20.37,9.82-.57.33-.85,1-.68,1.64,1.79,6.96,4.31,13.64,7.49,19.87,4.21,8.27,9.8,15.97,16.22,22.39.47.47.94.93,1.41,1.38,1.52,1.45,3.12,2.86,4.74,4.19.25.2.54.31.83.33.5,1.4,1.12,2.55,1.68,3.6.94,1.77,1.62,3.04,1.36,4.66-.27,1.64-1.43,3.19-3.44,4.61-.37.26-.56.7-.51,1.15.06.45.36.83.78.99,1.82.69,8.28,2.65,14.92-.93,1.39-.75,2.53-1.65,3.49-2.62.34,2.33,1.61,4.06,2.84,5.74.98,1.35,2,2.74,2.55,4.46,1.13,3.55.08,7.97-3.13,13.15-.25.4-.24.91,0,1.3.05.07.1.14.16.2.26.26.64.4,1.02.35,6.35-.83,15.67-3.37,24.04-10.72,1.07-.94,2.17-2.16,3.22-3.44-.16,2.94.46,5.61.89,7.49,1.12,4.86,3.41,9.35,6.81,13.34.29.34.73.49,1.16.41.43-.09.79-.4.92-.82.58-1.78,3.93-10.85,13.34-14.32.71-.26,1.41-.47,2.1-.64.11.12.23.22.37.3,3.54,1.99,6.73,4.2,9.78,6.76,6.06,5.1,13.61,11.45,13.31,19.85v.45c-5.14,2.37-7.14,8.49-8.6,12.97l-.21.63c-.54,1.63-.77,2.7-.95,3.57-.24,1.13-.39,1.82-1.09,3.04-2.43,4.2-6.57,6.8-10.83,6.78-1.02,0-2.08-.21-3.21-.43-1.52-.3-3.08-.6-4.67-.41-2.45.29-4.85,1.45-7.11,3.42-2.24,1.96-4.1,4.49-5.4,7.34l-.1.22c-1.25,2.86-1.81,5.93-1.66,9.15l.09,1.92,1.7-.91c.47-.25.95-.49,1.42-.71,3.67-1.7,7.2-2.28,10.5-1.71,3.05.53,5.44,2.23,8.07,4.61,2.89,2.62,6.78,5.98,11.25,8.74,1.74,1.07,3.84,2.25,6.27,2.85,3.53.87,7.2.62,10.6-.71,2.68-1.05,4.95-3.21,6.49-5.92,0,.98.02,2.08.09,3.73.29,7.72,4.28,15.59,11.39,22.7,1.9,1.9,4.01,3.74,6.34,5.51l.14.1c4.82,3.67,11.43,8.69,20.33,9.56,1.93.19,3.88.17,5.82-.05,2.28-.27,8.19-1.29,13.91-4.98h0l.04-.02h0c.09-.05.17-.11.24-.15h0s.02,0,.02-.02c.06-.04.12-.08.17-.12h0c3.79-2.55,6.75-5.85,8.81-9.8h0ZM346.75,236.3l-.06.04s-.06.04-.09.06c-.01,0-.02.02-.04.03-.02.02-.04.03-.07.05s-.05.03-.09.05l-.04.03c-.69.4-1.9.93-2.83,1.24-1.2.39-3.69,1.21-9.39-.18-6.91-1.69-11.73-5.24-13.48-6.69-3.66-3.05-6.72-7.05-9.37-12.22-5.72-11.21-7.06-24.53-7.57-33.57-.56-9.94-2.41-17.39-6.17-24.91-.2-.4-.41-.8-.63-1.2.62-.94,1.11-1.77,1.5-2.5,1.26,1.29,2.36,2.68,3.3,4.15,1.46,2.27,2.51,4.57,5.72,22.35.53,2.94.92,5.2,1.27,7.19.82,4.73,1.27,7.34,2.36,11.92,2.68,11.28,4.45,14.33,5.11,15.47.86,1.47,2.59,4.46,5.63,7.5,1.83,1.83,4.14,3.68,7.01,5.23,3.56,1.91,9.51,5.1,16.75,3.16,3.85-1.04,6.7-3.17,8.68-5.22-1.84,3.2-4.37,5.9-7.53,8.02h.03ZM275.47,163.75c.08-.56.17-1.11.25-1.65.34-2.13.9-4.91,2.11-7.27.19,1.24.42,2.54.65,3.85-.52,1.3-.9,2.63-1.12,3.98-.26,1.57-.24,3.14-.23,4.65.01,1.58.02,3.08-.25,4.54-.64,3.41-1.37,7.28-4.4,10.65-2.41,2.68-5.11,4.27-8.03,4.74-2.96.48-5.69-.33-9.83-1.57h-.04c-1.4-.43-2.4-.8-3.21-1.1-1.57-.59-2.6-.98-4.39-.81-3.44.33-5.95,2.29-7.47,3.48-.95.75-1.82,1.57-2.61,2.47.14-.32.29-.64.47-1,.55-1.12,1.69-2.64,2.6-3.47,2.35-2.16,4.73-3.35,7.28-3.66,1.92-.23,3.91.27,5.84.76.39.1.77.19,1.15.29,4.18.99,10.11,1.35,14.63-2.59,4.78-4.17,5.74-10.6,6.59-16.28h.01ZM280.99,171.13c0,.34,0,.67-.01.99,0,.65-.01,1.27-.02,1.86-.01.88,0,1.76,0,2.61.05,4.12.1,7.69-2.48,10.91-3.19,3.99-7.77,6-12.88,5.66-2.81-.19-4.41-.89-6.43-1.78-1.83-.81-3.91-1.72-7.27-2.42-.3-.06-.62-.15-.96-.24-2.19-.58-5.18-1.37-10.88,1.25.32-.29.64-.57.99-.84,1.37-1.07,3.45-2.69,6.18-2.95,1.23-.12,1.84.11,3.31.66.84.31,1.88.71,3.4,1.16,4.29,1.28,7.4,2.2,10.91,1.64,3.48-.56,6.66-2.41,9.46-5.51,3.48-3.87,4.31-8.28,4.98-11.82.32-1.7.31-3.38.29-5.01,0-.93,0-1.82.04-2.7.52,2.6,1.02,4.93,1.37,6.54h0ZM251.41,191.35c.33.07.64.14.94.21l-.17.34c-.41-.24-.84-.47-1.28-.68.17.04.34.08.52.12h-.01ZM257.12,194.27c-1.55-1-2.8-1.81-4.28-2.59,2.31.59,3.91,1.3,5.36,1.93,2.07.91,4.02,1.77,7.25,1.98,5.93.39,11.23-1.94,14.94-6.57,2.5-3.13,2.96-6.54,3.02-9.94.39,2.34.61,3.94.64,4.81.24,5.61-.21,12.43-5.86,15.31-2.33,1.19-5.11,1.56-7.63,1.01-4.08-.89-8.55-2.81-12.59-5.41l-.84-.54h-.01ZM357.5,213.75h-.03s.02-.03.02-.05v.05h.01ZM311.92,172.32c2.23,5.77,2.69,8.94,3.23,12.61.5,3.44,1.08,7.34,3.19,14.08,4.16,13.27,8.19,18.24,10.87,20.84,3.02,2.93,8.08,7.82,14.45,7.17,5.47-.57,10.46-5.25,13.34-12.06.06.34.11.68.14,1.01.25,3.01-.99,5.34-1.65,6.59-.84,1.58-4.08,6.86-10.52,8.59-6.3,1.69-11.51-1.1-14.97-2.95-7.01-3.77-10.41-9.6-11.68-11.8-.56-.96-2.26-3.89-4.85-14.81-1.07-4.51-1.52-7.09-2.33-11.78-.35-2-.74-4.26-1.27-7.21-3.13-17.35-4.25-20.4-6.07-23.23-1.21-1.9-2.68-3.67-4.36-5.28.04-.16.08-.32.11-.47.55.43,1.06.88,1.51,1.34,6.9,7.08,9.89,14.82,10.87,17.37h-.01ZM292.84,46.41c-2.12.41-3.8-.37-5.75-1.27-1.8-.83-3.85-1.78-6.44-1.79-3.88,0-6.11,2.84-8.07,5.34-1.73,2.21-3.37,4.3-5.93,4.48-1.75.12-3.61-.52-5.51-1.92-.02-.02-.04-.03-.07-.05l-.79-.5c1.07.1,2.13.11,3.02-.03,1.64-.25,3.66-1.19,4.92-2.3.83-.73,1.54-1.56,2.23-2.36.7-.82,1.37-1.59,2.14-2.26,1.58-1.36,3.62-2.23,5.74-2.45,2.09-.22,4.15.63,5.91,1.43,2.35,1.08,4.51,1.97,7.13,2.02,2.78.05,5.19-.81,6.9-2.43.07-.02.14-.04.21-.07-1.71,2.35-3.6,3.73-5.64,4.13v.03ZM261.14,41.27c.35-.55.74-1.16,1.68-2.17,1-1.06,2.85-3.05,5.94-4.39,2.4-1.04,4.46-1.22,5.24-1.25.67-.02,2.05-.07,3.72.38,2.66.73,4.53,2.37,5.62,3.61.03.04.07.07.11.1.13.18.26.37.41.55-1.6-.96-2.38-1.42-2.89-1.58-.99-.31-4.52-1.19-8.3.34-1.8.73-2.97,1.72-4.58,3.11-1.22,1.04-1.77,1.71-2.26,2.29-.45.54-.84,1-1.73,1.7s-2.75,2.16-5.57,2.74c-1.5.31-3.04.31-4.58.03l-1.07-.67c2.9-.43,5.21-1.47,6.91-3.09.69-.66,1.01-1.16,1.35-1.7h0ZM293.92,42.97c-.96.23-1.86.28-2.51.27-2.33-.04-4.33-.87-6.52-1.88-1.95-.89-4.23-1.82-6.71-1.57-2.44.25-4.77,1.25-6.58,2.81-.86.74-1.6,1.6-2.3,2.42-.68.8-1.33,1.55-2.08,2.2-1.04.92-2.79,1.73-4.14,1.94-1.81.28-4.43-.16-6.15-.58l-.21-.13c.72-.03,1.43-.11,2.13-.26,3.18-.65,5.3-2.32,6.21-3.03,1.01-.8,1.47-1.34,1.95-1.92.47-.56.96-1.15,2.08-2.11,1.56-1.33,2.59-2.22,4.16-2.85,3.32-1.34,6.41-.56,7.28-.29.38.12,1.43.75,3.01,1.7l1.29.77c1.05.63,2.25,1.35,3.98,1.77.64.15,1.3.25,1.95.3h.14c.99.26,2,.41,3.03.43h-.01ZM262.4,32.93c4.96-2.5,11.95-3.05,16.61-.27-.28-.1-.57-.2-.87-.28-1.89-.52-3.5-.46-4.18-.44-.86.03-3.15.23-5.79,1.37-3.38,1.47-5.45,3.68-6.45,4.75-1.04,1.11-1.49,1.82-1.86,2.39-.31.49-.56.88-1.12,1.42-1.55,1.49-3.76,2.41-6.58,2.75.17-.11.35-.23.52-.35.67-.48,1.26-.99,1.78-1.52.19-.18.36-.36.52-.55h0c1.05-1.21,1.86-2.57,2.68-4.2,1.25-2.02,2.71-4.05,4.74-5.07h0ZM258.84,30.33c-.8,1.57-1.46,2.96-2.04,4.18-.41.87-.78,1.64-1.14,2.35-.26.42-.51.84-.75,1.25-.61,1.01-1.18,1.97-1.72,2.64-.78.96-2.52,1.92-4.25,2.77-.3-.19-.6-.37-.89-.55,1.74-1.57,3.18-3.37,4.28-5.35.79-1.42,1.12-2.43,1.46-3.5.24-.74.49-1.5.92-2.51.61-1.45,2.23-5.29,5.26-8.05,1.91-1.74,4.1-2.77,6.17-3.38-.57.36-1.1.76-1.62,1.2-1.97,1.68-3.21,4.11-5.69,8.95h0ZM245.33,32.35c.29-.4.6-.84.96-1.33,2.9-3.99,4.25-5.82,5.81-7.25,2.17-1.98,4.18-3.1,5.18-3.59.64-.31,1.29-.59,1.96-.83-1.01.51-1.96,1.09-2.82,1.77-3.5,2.71-5.7,6.56-6.43,7.82-.46.8-.84,1.55-1.21,2.28-.82,1.61-1.59,3.14-3.1,4.97-1.07,1.3-2.29,2.48-3.63,3.53-1.06-.51-2.13-1-3.21-1.47.88-.4,1.72-.88,2.49-1.44,1.61-1.16,2.35-2.2,3.98-4.46h.02ZM246.87,37.16c1.62-1.96,2.46-3.64,3.28-5.26.36-.71.73-1.45,1.17-2.21.69-1.2,2.77-4.84,6.04-7.37,1.92-1.49,4.26-2.54,6.89-3.13-1.81.69-3.66,1.71-5.32,3.23-3.28,2.99-5,7.05-5.65,8.59-.45,1.07-.72,1.9-.96,2.63-.34,1.04-.63,1.94-1.35,3.23-1.09,1.96-2.54,3.73-4.32,5.27-1.02-.59-2.05-1.15-3.09-1.69,1.21-1,2.32-2.1,3.3-3.3h.01ZM245.78,25.87c1.89-2.27,3.4-3.86,4.49-4.73,1.89-1.5,4.29-2.8,8.36-3.2-.69.26-1.36.54-2.03.86-1.08.53-3.24,1.73-5.55,3.84-1.74,1.59-3.26,3.68-6.02,7.48-.36.49-.67.93-.96,1.34-1.58,2.19-2.23,3.1-3.63,4.12-1.09.79-2.33,1.41-3.66,1.84-.79-.31-1.59-.6-2.39-.88.64-.5,1.41-1.1,2.26-1.8.92-.64,1.82-1.33,2.67-2.06.66-.57,1.97-1.74,3.26-3.21.2-.23.43-.49.69-.79.85-.88,1.69-1.81,2.5-2.79v-.02ZM241.57,27.12c-2.22,2.31-4.47,4.26-6.31,5.77-1.12.77-2.28,1.47-3.49,2.08-.27.14-.54.27-.81.4l-2.2-.48c1.31-.77,2.59-1.59,3.85-2.43l.09-.06c2.58-1.73,6.11-4.1,8.65-6.72,2.76-2.85,4.85-6.6,6.13-10.97-.02.17-.05.34-.08.5-.99,5.75-4,9.75-5.82,11.89v.02ZM217.96,32.56c.58-.83,1.21-1.62,1.88-2.36,1.34-1.47,3.58-3.56,6.68-5.13,1.89-.96,2.9-1.11,4.07-1.29,1.08-.16,2.29-.34,4.32-1.13,1.44-.56,4.14-1.62,6.73-3.7-.62.85-1.26,1.63-1.91,2.33-2.28,2.46-5.17,3.83-8.24,5.29-2.16,1.03-4.4,2.09-6.41,3.56-1.32.97-2.59,2.02-3.79,3.13,0,0,0,.02-.02.03l-3.31-.72h0ZM225.99,31.36c1.89-1.39,4.06-2.42,6.15-3.41,3.06-1.45,6.23-2.95,8.71-5.63,1.67-1.81,3.21-4.01,4.77-6.82-1.22,3.62-3.04,6.73-5.38,9.13-2.42,2.5-5.88,4.82-8.4,6.51l-.09.06c-1.69,1.13-3.44,2.22-5.22,3.22l-3.43-.74c.93-.81,1.89-1.59,2.88-2.32h0ZM227.24,18.96c1.89-.5,3.55-.49,5.16-.48,2.21.01,4.5.02,7.14-1.28,2.16-1.07,4.01-2.73,5.54-4.98-.28.59-.59,1.16-.94,1.71-2.95,4.63-7.75,6.5-9.8,7.3-1.86.73-2.94.89-3.99,1.04-1.25.19-2.42.36-4.54,1.44-3.3,1.68-5.69,3.9-7.12,5.47-.86.95-1.65,1.97-2.36,3.04l-2.19-.47c3.72-7.18,8.12-11.47,13.07-12.78h.03ZM183.21,94.77c-.72-1.35-1.46-2.74-1.93-4.58-.6-2.34-.61-4.89-.02-7.61.87.7,1.75,1.37,2.64,2.03-.47,1.54-.59,3.06-.35,4.52.19,1.18.55,1.93.97,2.81.24.5.51,1.07.8,1.82.71,1.82,1.51,3.89,1.29,5.56-.2,1.48-1.22,2.7-2.42,3.65.31-.65.53-1.31.64-2,.4-2.43-.58-4.26-1.61-6.2h0ZM195.14,91.77c-.11,1-.27,2.01-.46,3.01-.18.96-.33,1.71-.56,2.44,0,.02-.65,1.97-2.19,3.83-1.05,1.26-2.45,2.19-3.85,2.87.04-.04.08-.07.12-.11.92-.9,3.74-3.62,3.53-7.11-.06-1.09-.4-1.89-.73-2.66-.38-.89-.74-1.74-.77-3.17,0-.61.04-1.23.15-1.85,1.56.96,3.15,1.88,4.76,2.74h0ZM188.92,88.1c-.22.93-.33,1.87-.31,2.81.04,1.75.5,2.82.9,3.77.3.7.55,1.31.6,2.12.16,2.75-2.25,5.08-3.04,5.85-.35.34-.72.64-1.09.91,1.13-1.08,2.01-2.42,2.23-4.03.28-2.08-.6-4.36-1.38-6.36-.32-.81-.6-1.41-.85-1.93-.41-.85-.68-1.41-.83-2.36-.17-1.04-.11-2.13.15-3.23,1.19.85,2.4,1.67,3.63,2.46h0ZM193.02,104.24c-1.88,1.01-3.74,1.51-5.46,1.7,1.93-.79,4.07-2,5.61-3.85,1.76-2.11,2.47-4.29,2.49-4.38.26-.82.41-1.62.61-2.63.16-.83.29-1.67.4-2.5.66.34,1.32.67,1.99.99s1.34.64,2.02.94c-.3.51-.59,1.09-.91,1.72-1.37,2.69-3.07,6.04-6.75,8.01ZM205.38,113.23c-.67-2.1-1.86-3.73-2.9-5.16-1.35-1.85-2.51-3.44-2.46-5.71.04-1.58,1.3-3.8,2.22-5.43.29-.52.56-.99.78-1.41.64.27,1.29.52,1.93.77-.97,2.06-1.36,4.1-1.15,6.08.24,2.32,1.21,3.68,2.15,4.99.86,1.21,1.67,2.34,2.03,4.32.34,1.86.31,4.86-1.74,8.58-.35.64-.76,1.25-1.2,1.84,1.07-3.26,1.19-6.22.35-8.86h0ZM226.79,101.85c-.19,1.98-.65,3.88-1.38,5.66-.79,1.92-2.25,4.48-7.09,8.96-1.45,1.34-2.96,2.63-4.53,3.86,1.49-1.67,2.86-3.6,3.87-5.79,1.6-3.46,2.5-7.94,2.53-8.13.36-1.81.59-3.66.69-5.51,1.02.2,2.05.38,3.08.55,1.03.16,1.97.29,2.84.4h0ZM219.26,100.58c-.09,1.85-.32,3.71-.68,5.52-.04.18-.9,4.48-2.42,7.76-1.2,2.6-2.95,4.82-4.8,6.64.79-1.15,1.47-2.44,1.95-3.9,1.39-4.22.9-8.08.88-8.24-.09-.69-.22-1.29-.35-1.93-.21-1.01-.42-2.05-.56-3.63-.11-1.23-.13-2.48-.09-3.72,2,.57,4.02,1.06,6.07,1.5h0ZM211.59,98.6c-.07,1.44-.05,2.9.08,4.34.15,1.68.38,2.82.59,3.82.13.61.24,1.19.33,1.82,0,.04.46,3.65-.81,7.52-1.2,3.64-3.86,6.2-6.14,7.82.78-.88,1.46-1.85,2.03-2.88,2.28-4.14,2.29-7.53,1.91-9.65-.42-2.34-1.42-3.74-2.31-4.98-.89-1.24-1.65-2.31-1.85-4.21-.18-1.71.18-3.5,1.06-5.33,1.69.63,3.4,1.2,5.13,1.73h-.02ZM223.56,116.42c-3.65,3.21-7.49,5.44-11.17,6.99,2.47-1.79,4.82-3.71,7.02-5.75,5.08-4.7,6.64-7.46,7.49-9.53.79-1.93,1.3-3.98,1.5-6.11,2.11.2,3.7.24,5.07.24-.29.51-.65,1.17-1.12,2.04-.68,1.24-1.25,2.3-1.7,3.18-2.06,3.19-4.72,6.86-7.08,8.93h-.01ZM231.91,110.41c.21-.46.52-1.07.86-1.73,2.34-3.63,3.24-5.42,3.55-6.36.83.03,1.68.11,2.64.26-2.36,2.21-4.09,4.83-5.05,7.68-1.11,3.3-.92,6.04-.63,10.18.2,2.88.62,5.78,1.22,8.65-1.29-2.33-2.25-4.78-2.85-7.35-.66-2.87-1.67-7.19.25-11.33h.01ZM237.79,129.39c.39-3.5,2.38-10.61,7.9-15.95,2.02-1.95,4.39-3.56,7.05-4.78.03-.01.05-.03.08-.05,1.4,1.01,2.78,2.13,4.14,3.38-2.48.56-4.8,1.45-6.91,2.65-7.35,4.19-10.65,11.25-12.26,14.75ZM238.22,121.7c.03-.16.05-.33.08-.49.69-3.87,1.2-6.67,3.16-9.72,1.56-2.41,3.66-4.43,6.25-5.99,1.21.61,2.4,1.3,3.57,2.07-2.51,1.25-4.78,2.83-6.73,4.71-2.97,2.87-5.01,6.26-6.34,9.43h0ZM240.09,110.61c-2.14,3.32-2.69,6.4-3.39,10.31-.42,2.32-.67,4.69-.78,7.08-.51-2.56-.85-5.13-1.03-7.68-.31-4.43-.42-6.69.55-9.55.99-2.93,2.89-5.61,5.5-7.79,1.7.41,3.37.99,5.02,1.7-2.39,1.6-4.36,3.59-5.87,5.93h0ZM250.67,118.61c-3.13,1.15-5.66,2.86-7.68,4.73,1.85-2.62,4.37-5.31,7.86-7.3,2.27-1.29,4.8-2.2,7.51-2.69.01,0,.02,0,.03-.01,1.27,1.26,2.52,2.62,3.74,4.08-3.05-.41-7.14-.41-11.47,1.18h0ZM265.66,125.06c-2.37-1.99-4.82-3.78-7.44-5.42,2.79-.07,5.14.41,6.63.83.5.14,1.04-.05,1.34-.49.29-.43.28-1-.04-1.42-7.4-9.75-15.72-15.8-24.74-17.97-3.05-.73-4.98-.74-7.21-.75-2.34,0-4.99-.02-9.87-.79-8.57-1.36-16.85-3.94-24.62-7.67-6.56-3.16-12.74-7.15-18.37-11.87-.31-.26-.74-.35-1.13-.23-.39.12-.7.42-.82.81-.84,2.78-1.16,5.44-.94,7.94-.88-.77-1.75-1.56-2.6-2.37-6.78-6.45-12.67-14.4-17.04-22.98-2.91-5.72-5.26-11.83-6.98-18.19.18-.1.35-.2.53-.3,1.35-.31,2.73-.56,4.1-.73,2.55-.31,5.14-.37,7.7-.18.45.03.84-.3.87-.75s-.3-.84-.75-.87c-2.52-.19-5.07-.14-7.58.14,4.59-2.4,9.31-4.54,14.09-6.37.15-.06,13.54-5.14,24.57-6.17,5.8,2.87,13.15,9.96,14.35,13.89,1.24,4.04,1.83,9.94-2.39,15.05-5.29,6.4-12.61,8.14-13.74,8.2-.45.02-.79.4-.77.85,0,.21.1.4.24.53.16.16.38.25.61.24,1.31-.06,9.18-1.85,14.91-8.79,4.93-5.97,3.8-12.94,2.69-16.56-1.17-3.82-7.22-10.05-12.9-13.59h.39c3.5-.02,6.86.36,7,.38,2.15.25,4.29.64,6.4,1.13-.25.47-.49.95-.73,1.45-.15.32-.15.69,0,1,.06.12.13.22.22.31.15.15.35.26.57.31l18.62,4.04c.11.02.22.03.33.02,0,0,.02.03.03.04.13.13.29.23.47.28,3.49,1.1,6.91,2.48,10.17,4.11,2.09,1.05,4.15,2.22,6.13,3.47,0,0,.02.03.03.04.06.06.13.11.2.16l11.61,7.31c2.34,1.71,4.7,2.49,7,2.33.76-.05,1.46-.22,2.1-.47.04.06.08.11.13.16,16.97,17.08,27.81,41.25,27.61,61.59-.04,3.73-.5,7.61-.94,11.36-.95,8-1.94,16.27.92,24.29.08.21.54,2.34-6.66,10.84-2.26,2.68-4.62,5.19-6.2,6.82-1.22-5.63-3.92-18.6-3.76-22.8.35-9.84-7.8-16.7-14.36-22.22l.02.03ZM241.98,179.03c1.89-1.65,3.84-2.6,5.8-2.84,1.21-.14,2.52.11,3.92.38,1.19.23,2.42.47,3.67.47,5.12.02,10.08-3.05,12.94-8,.9-1.55,1.1-2.52,1.37-3.75.18-.85.39-1.82.88-3.32l.21-.63c1.23-3.76,2.88-8.81,6.45-11.05.03.28.06.58.1.88-2.57,3.08-3.51,7.44-4,10.54-.09.55-.17,1.1-.25,1.67-.79,5.26-1.68,11.23-5.79,14.81-3.74,3.26-8.84,2.92-12.47,2.06-.37-.09-.75-.18-1.12-.28-2.14-.54-4.35-1.1-6.72-.81-3.07.37-5.9,1.77-8.64,4.28h0c1.02-1.67,2.28-3.2,3.67-4.41h-.01ZM282.23,205.72c-2.93,1.15-6.09,1.36-9.13.62-2.1-.52-4-1.58-5.57-2.56-2.03-1.26-3.94-2.65-5.69-4.03,2.75,1.3,5.54,2.28,8.19,2.86,3.11.68,6.4.25,9.26-1.22,6.88-3.52,7.45-11.25,7.19-17.58-.03-.82-.19-2.13-.49-3.98.08.28.16.56.24.83l.04.14c.57,2.38,1.12,4.36,1.61,6.1.77,2.74,1.33,4.72,1.42,6.43.3,5.28-2.81,10.73-7.07,12.4h0ZM309.04,232.17l-.14-.11c-10.48-7.97-16.43-17.33-16.77-26.36-.09-2.27-.09-3.5-.09-4.8,0-1.59,0-3.23-.14-6.9-.1-2.54-.81-5.15-3.27-13.79,0-.02,0-.04-.01-.06v-.02c-.54-2.2-.99-4.43-1.4-6.82-.13-.74-.24-1.47-.35-2.18,1.07-1.13,2.34-2.5,3.66-3.99.49,1.6.91,3.13,1.13,4.53.6,3.86,1.25,7.01,1.88,10.07,1.12,5.45,2.08,10.16,2.41,17.03.35,7.34,1.38,16.07,9.19,26.86l.66.91c1.81,2.51,3.83,5.32,6.39,7.95-1.12-.8-2.17-1.6-3.14-2.34v.02ZM333.43,241.2c-1.73.2-3.49.21-5.22.05-.97-.24-2.44-.77-4.39-1.57-7.98-3.33-12.46-9.55-16.06-14.55l-.66-.92c-7.42-10.24-8.4-18.56-8.73-25.55-.33-7.06-1.32-11.86-2.46-17.41-.62-3.03-1.26-6.16-1.86-9.96-.31-1.98-.95-4.12-1.67-6.32,1.15-1.37,2.14-2.6,2.97-3.71.01.02.02.04.03.06,3.65,7.29,5.37,14.23,5.91,23.95.52,9.26,1.9,22.92,7.83,34.54,2.24,4.39,4.78,7.98,7.72,10.92.73.73,1.48,1.42,2.26,2.07,1.88,1.56,7.05,5.38,14.46,7.18,1.17.29,2.23.49,3.18.62-1.42.34-2.58.51-3.33.6h.02Z"/>
  <path class="st0" d="M182.55,49.15c-1.13-1.01-2.55-1.71-4.05-1.94-.49-.08-.98-.1-1.48-.08-2.33.13-4.16,1.55-5.78,3.11-.57.55-.97,1.12-.98,1.79-.03,1.22,1.08,2.16,1.83,2.99,2.58,2.84,6.01,4.1,9.44,1.76,2.71-1.85,3.69-5.26,1.03-7.65v.02Z"/>
  <path class="st0" d="M234.96,53.51s-.07-.04-.11-.05c.22-.94.03-2.06-.56-3.13-.95-1.74-2.7-2.99-4.81-3.45-.31-.07-.62.13-.68.44-.07.31.13.62.44.68,1.78.39,3.26,1.44,4.05,2.88.5.91.64,1.86.38,2.54-.51,1.36-3.04,2.66-6.01,1.69h-.03s-.04,0-.06,0h-.22s-.04,0-.05.02c-.02,0-.03,0-.05.02-.02,0-.03.02-.05.03-.02,0-.03.02-.05.03,0,0-.03.02-.04.03s-.03.02-.04.04c0,0-.02.03-.04.04,0,.02-.02.03-.03.05,0,.02-.02.03-.03.05,0,0,0,.02-.02.03v.06s-.02.08-.02.12v.03s0,.09,0,.14c0,0,0,.02,0,.03,0,.03.02.07.04.1,0,0,0,.02.02.04.02.04.05.08.08.11h0s.05.05.08.07c0,0,.02,0,.04.02.02,0,.04.02.06.03,1.69.69,2.96,1.98,3.49,3.54.33.98.31,1.94-.06,2.57-.73,1.25-3.45,2.09-6.21.62-.28-.15-.63-.04-.78.24-.12.23-.07.5.1.68.04.04.08.07.14.1,3.19,1.7,6.64.81,7.74-1.05.12-.2.21-.42.28-.65.08.05.16.09.26.1,2.67.3,5.21-1.32,5.81-2.97.78-2.12-.31-4.2-3.07-5.85h-.02ZM232.34,61.19c-.07,0-.15,0-.22.02.02-.59-.07-1.21-.29-1.85-.36-1.06-1-2-1.85-2.78,1.95-.08,3.59-.93,4.39-2.08,1.57.95,3.29,2.49,2.57,4.46-.4,1.1-2.35,2.48-4.61,2.23h0Z"/>
  <path class="st0" d="M288.17,109.88s-.04-.06-.07-.09c.6-.69.93-1.71.91-2.86-.03-1.87-.94-3.69-2.51-5-.23-.19-.57-.16-.76.07s-.16.57.07.76c1.32,1.11,2.09,2.63,2.12,4.19.02.98-.28,1.83-.8,2.3-1.01.9-3.65.89-5.7-1.16-.02-.02-.04-.04-.06-.07-.2-.2-.55-.22-.77-.01-.21.21-.22.55-.01.77.02.02.05.05.07.07,2.1,2.1,4.93,2.48,6.6,1.61.9,1.48,1.66,3.53.19,4.86-.82.74-3.06,1.04-4.83-.16-.25-.17-.59-.1-.75.14-.15.22-.12.51.07.69.02.02.05.05.08.07,2.1,1.43,4.94,1.18,6.17.07,1.58-1.43,1.58-3.65,0-6.24h-.02Z"/>
  <path class="st0" d="M271.88,91.43s-.03-.03-.05-.04c.42-.75.55-1.76.33-2.82-.36-1.75-1.54-3.3-3.24-4.26-.28-.16-.63-.06-.78.22-.16.28-.06.63.22.78,1.41.79,2.38,2.06,2.67,3.49.18.89.06,1.72-.33,2.23-.78,1.01-3.24,1.44-5.5-.15-.01,0-.02-.01-.03-.02-.02-.01-.03-.02-.05-.03-.02,0-.03-.01-.05-.02-.02,0-.04-.01-.05-.02-.02,0-.04,0-.05-.01h-.16s-.04,0-.05.01c-.02,0-.04,0-.05.01-.02,0-.03.01-.05.02-.02,0-.03.02-.05.02s-.03.02-.05.03c-.01.01-.03.02-.04.03s-.03.03-.04.04c0,0-.02.02-.03.03,0,0,0,.01-.01.02,0,0,0,.01-.01.02v.02c-.03.05-.06.11-.08.16v.02c-.01.06-.02.12-.01.17h0c0,.07.02.12.04.18,0,0,0,.02.01.03.02.05.06.1.1.14,0,0,0,.01.01.02,0,0,.02.02.03.02,0,0,0,.01.02.02,1.25,1.02,1.99,2.44,2.03,3.9.03.91-.24,1.71-.71,2.14-.94.86-3.44.86-5.38-1.09h-.01c-.22-.23-.59-.23-.81-.01s-.23.59,0,.81h.01c2.31,2.32,5.52,2.46,6.97,1.14.14-.13.26-.27.37-.43.05.05.1.08.17.11,2.27.99,4.84.26,5.83-1.03,1.24-1.64.86-3.73-1.09-5.89h-.05ZM267.6,97.29s-.09-.03-.14-.04c.16-.49.24-1.03.22-1.61-.03-.96-.3-1.91-.79-2.77,1.63.39,3.19.11,4.17-.63,1.07,1.2,2.08,2.92.98,4.37-.62.82-2.62,1.47-4.45.67h.01Z"/>
  <path class="st0" d="M238.3,78.72c-.25-.19-.61-.14-.8.12-.19.25-.14.61.12.8,1.47,1.1,3.04,2.8,2.12,4.7-.51,1.05-2.58,2.23-4.8,1.76-.07-.02-.15-.02-.22,0,.08-.58.05-1.22-.11-1.87-.44-1.93-1.79-3.61-3.7-4.62-.28-.15-.63-.04-.78.24s-.04.63.24.78c1.61.85,2.75,2.26,3.12,3.86.23,1.01.11,1.96-.32,2.55-.85,1.17-3.64,1.74-6.24,0-.26-.18-.62-.1-.8.16-.15.23-.12.53.07.72.03.03.06.05.09.07,3.01,2.01,6.53,1.46,7.8-.28.14-.19.25-.4.34-.62.07.06.15.11.25.13,2.63.56,5.31-.8,6.08-2.38.98-2.03.1-4.21-2.47-6.12h.01Z"/>
  <path class="st0" d="M261.6,74.72c-.13-1.11-.56-2.17-1.22-3.1,2.28.4,4.37-.36,5.22-1.69.58-.91.69-2.19.29-3.51-.56-1.9-2.01-3.49-3.98-4.38-.29-.13-.63,0-.76.29s0,.63.29.76c1.66.75,2.88,2.09,3.35,3.66.29.99.23,1.95-.16,2.57-.78,1.22-3.53,1.96-6.23.39-.01,0-.02,0-.03-.02-.02,0-.04-.02-.05-.02-.02,0-.04-.01-.05-.02-.02,0-.04,0-.05-.01h-.22s-.04,0-.05.02c-.02,0-.03.01-.05.02-.02,0-.03.02-.05.03-.02,0-.03.02-.05.03s-.03.02-.04.04c-.01.01-.03.02-.04.04-.01.01-.03.03-.04.05,0,0-.02.02-.02.03v.02s0,.01-.01.02v.02c-.03.05-.05.1-.06.16h0v.2c0,.05.02.1.05.15,0,.01.01.02.02.03.03.05.06.09.09.13h0s.01,0,.02.01c.02.02.04.04.06.05,1.51,1.03,2.48,2.55,2.66,4.19.12,1.03-.11,1.96-.6,2.5-.98,1.07-3.81,1.32-6.2-.7-.24-.2-.6-.17-.81.07-.19.23-.18.57.03.78,0,.01.02.02.04.03,2.77,2.33,6.32,2.19,7.79.6.73-.79,1.05-2.03.9-3.41l-.04-.03Z"/>
  <path class="st0" d="M211.3,199.66c-1.79-6.96-4.31-13.64-7.49-19.87-4.52-8.87-10.62-17.09-17.63-23.77-1.52-1.45-3.12-2.86-4.74-4.19-.25-.2-.54-.31-.83-.33-.5-1.4-1.12-2.55-1.68-3.6-.94-1.77-1.62-3.04-1.36-4.66.27-1.64,1.43-3.19,3.44-4.61.37-.26.56-.7.51-1.15-.06-.45-.36-.83-.78-.99-1.82-.69-8.28-2.65-14.92.93-1.39.75-2.53,1.65-3.49,2.62-.34-2.33-1.61-4.06-2.84-5.74-.98-1.35-2-2.74-2.55-4.46-1.13-3.55-.08-7.97,3.13-13.15.25-.4.24-.91,0-1.3-.25-.4-.71-.61-1.18-.55-6.35.83-15.67,3.37-24.04,10.72-1.07.94-2.17,2.16-3.22,3.44.16-2.94-.46-5.61-.89-7.49-1.12-4.86-3.41-9.35-6.81-13.34-.29-.34-.73-.49-1.16-.41-.43.09-.79.4-.92.82-.58,1.78-3.93,10.85-13.34,14.32-.71.26-1.41.47-2.1.64-.11-.12-.23-.22-.37-.3-3.54-1.99-6.74-4.2-9.78-6.76-6.06-5.1-13.61-11.45-13.31-19.85v-.45c5.14-2.38,7.14-8.5,8.61-12.98l.2-.62c.54-1.63.77-2.7.95-3.57.24-1.13.39-1.82,1.09-3.04,2.42-4.2,6.57-6.8,10.82-6.79,1.02,0,2.08.21,3.2.43,1.52.3,3.09.61,4.69.41,2.46-.3,4.85-1.45,7.11-3.42,2.29-2,4.19-4.6,5.49-7.53l.11-.26h0c1.18-2.79,1.71-5.79,1.56-8.92l-.09-1.92-1.7.91c-.47.25-.95.49-1.42.71-3.68,1.7-7.22,2.28-10.5,1.71-3.05-.53-5.44-2.23-8.07-4.61-3.09-2.79-6.85-6.02-11.25-8.74-1.74-1.08-3.84-2.25-6.27-2.85-3.53-.87-7.19-.63-10.6.71-2.68,1.05-4.95,3.21-6.49,5.92,0-.98-.02-2.08-.09-3.73-.37-9.77-6.67-19.79-17.74-28.21l-.14-.1C47.6,6.03,41,1.01,32.1.13c-1.91-.19-3.87-.17-5.82.05-2.28.27-8.18,1.28-13.88,4.96-.01,0-.02.01-.03.02-.01,0-.02.01-.03.02-.02,0-.03.02-.04.02h-.01c-.15.09-.31.19-.46.31h0c-3.76,2.55-6.7,5.83-8.75,9.77C-1.48,24.03.12,32.75,1.02,36.1l1.4,5.2.97-5.29c1.7-9.26,7.13-16.17,13.19-16.79,5.24-.54,9.78,3.86,12.51,6.5,2.49,2.41,6.25,7.1,10.24,19.81,2.05,6.55,2.61,10.35,3.1,13.7.56,3.81,1.04,7.11,3.37,13.14,1.03,2.66,4.15,10.75,11.4,18.19,1.02,1.05,2.3,2.04,3.71,2.91,2.18,7.03,1.33,14.26.42,21.88-.46,3.83-.93,7.79-.96,11.68-.2,20.96,10.84,45.78,28.16,63.37-1.12.98-2.05,2.17-2.93,3.29-1.88,2.4-3.5,4.47-6.26,4.46-2.09,0-3.74-.77-5.48-1.57-2.12-.98-4.31-1.99-7.15-1.44-3.62.7-6.73,3.64-9.26,8.72-.22.45-.13.98.22,1.32.02.02.05.04.07.07.4.34.99.36,1.42.05,1.09-.79,3.36-2.12,6.4-2.18,3.58-.07,6.03,1.64,6.84,2.2,1.53,1.06,2.1,1.96,2.81,3.09.47.75,1.01,1.6,1.88,2.53,5.08,5.48,14.94,5.31,21.54,1.99.11-.05.21-.11.31-.17-2.22,4.35-3.38,6.57-4.96,7.91-2.43,2.07-5.63,3.2-9.52,3.36-.57.02-1.04.47-1.1,1.04-.03.35.1.69.33.92.15.15.34.26.55.31,16.72,3.88,22.81,1.41,26.9-1.84.06-.04.12-.1.17-.15-.41,1.19-.75,2.48-.99,3.86-.7,4.07-.35,8.37,1.01,12.46.06.17.15.33.28.45.22.22.53.35.85.34.51-.02.95-.37,1.07-.86,1.58-6.08,4.25-10.08,7.92-11.89,2.16-1.06,3.99-1.06,6.11-1.05,1.68,0,3.58.02,5.76-.56,4.91-1.29,9.26-5.05,12.98-11.18,2.48.62,5.02,1.09,7.57,1.39.15.02,3.65.42,7.36.4,11.99-.08,28.31-6.28,29-6.54,6.99-2.68,13.84-5.98,20.37-9.82.57-.33.85-1,.68-1.64h.02ZM176.78,149.03c.72,1.35,1.46,2.74,1.93,4.58.6,2.34.61,4.89.02,7.61-.87-.7-1.75-1.37-2.64-2.03.47-1.54.59-3.06.35-4.52-.19-1.18-.55-1.93-.97-2.81-.24-.5-.51-1.07-.8-1.82-.71-1.82-1.51-3.89-1.29-5.56.2-1.48,1.22-2.7,2.42-3.65-.31.65-.53,1.31-.64,2-.4,2.43.58,4.26,1.61,6.2h0ZM164.85,152.03c.11-1,.27-2.01.46-3.01.18-.96.33-1.72.56-2.45,0-.02.65-1.97,2.2-3.83,1.05-1.26,2.45-2.19,3.85-2.88-.04.04-.08.07-.12.11-.92.9-3.74,3.62-3.53,7.11.06,1.09.4,1.89.73,2.66.38.89.74,1.74.77,3.17,0,.61-.04,1.23-.15,1.85-1.56-.96-3.15-1.88-4.76-2.74h-.01ZM171.07,155.7c.22-.93.33-1.87.31-2.81-.04-1.75-.5-2.82-.9-3.77-.3-.7-.55-1.31-.6-2.12-.16-2.75,2.25-5.08,3.04-5.85.35-.34.72-.64,1.09-.91-1.13,1.08-2.01,2.42-2.23,4.03-.28,2.08.6,4.36,1.38,6.36.32.81.6,1.41.85,1.94.41.85.68,1.41.83,2.36.17,1.04.11,2.13-.15,3.23-1.19-.85-2.4-1.67-3.63-2.46h0ZM166.98,139.56c1.88-1.01,3.74-1.51,5.46-1.7-1.93.79-4.07,2-5.61,3.85-1.76,2.11-2.47,4.28-2.49,4.38-.26.82-.42,1.62-.61,2.63-.16.83-.29,1.67-.4,2.5-.66-.34-1.32-.67-1.99-.99s-1.34-.64-2.02-.94c.3-.51.59-1.09.91-1.72,1.37-2.69,3.07-6.04,6.75-8.01h0ZM154.62,130.57c.67,2.1,1.86,3.73,2.9,5.16,1.35,1.85,2.51,3.44,2.46,5.71-.04,1.58-1.3,3.8-2.22,5.43-.29.52-.56.99-.78,1.41-.64-.27-1.29-.52-1.93-.77.97-2.06,1.36-4.1,1.15-6.08-.24-2.32-1.21-3.68-2.15-4.99-.86-1.21-1.67-2.34-2.03-4.32-.34-1.86-.31-4.86,1.74-8.58.35-.64.76-1.25,1.2-1.83-1.07,3.26-1.19,6.22-.35,8.86h0ZM133.21,141.95c.19-1.98.65-3.88,1.38-5.66.79-1.92,2.25-4.48,7.09-8.96,1.45-1.34,2.96-2.63,4.54-3.86-1.49,1.67-2.86,3.6-3.87,5.79-1.6,3.45-2.5,7.94-2.53,8.13-.36,1.81-.59,3.66-.69,5.51-1.02-.2-2.05-.38-3.08-.55-1.03-.16-1.97-.29-2.84-.4ZM140.73,143.22c.09-1.85.32-3.71.68-5.52.04-.18.9-4.48,2.42-7.76,1.2-2.6,2.95-4.82,4.8-6.65-.79,1.15-1.47,2.44-1.95,3.9-1.39,4.22-.9,8.08-.88,8.24.09.69.22,1.29.35,1.93.21,1.01.42,2.05.56,3.64.11,1.24.13,2.48.09,3.72-2-.57-4.02-1.06-6.07-1.5h0ZM148.4,145.2c.07-1.44.05-2.9-.08-4.34-.15-1.68-.38-2.82-.59-3.82-.13-.61-.24-1.19-.33-1.81,0-.04-.46-3.66.81-7.52,1.2-3.64,3.85-6.2,6.14-7.82-.78.88-1.46,1.85-2.03,2.88-2.27,4.14-2.29,7.53-1.91,9.65.42,2.34,1.42,3.74,2.31,4.98.89,1.24,1.65,2.31,1.85,4.21.18,1.71-.18,3.5-1.06,5.33-1.69-.63-3.4-1.2-5.13-1.73h.02ZM136.43,127.38c3.65-3.21,7.49-5.44,11.17-6.99-2.47,1.79-4.82,3.71-7.02,5.75-5.08,4.7-6.64,7.46-7.49,9.53-.79,1.93-1.3,3.98-1.5,6.11-2.11-.2-3.7-.24-5.07-.24.29-.51.65-1.17,1.12-2.04.68-1.24,1.25-2.3,1.7-3.18,2.06-3.19,4.72-6.86,7.08-8.93h.01ZM128.09,133.39c-.21.46-.52,1.07-.87,1.74-2.34,3.63-3.24,5.42-3.55,6.36-.83-.03-1.68-.11-2.64-.26,2.36-2.21,4.09-4.83,5.05-7.68,1.11-3.3.92-6.04.63-10.18-.2-2.88-.62-5.78-1.22-8.65,1.29,2.33,2.25,4.78,2.85,7.35.66,2.87,1.66,7.2-.25,11.33h0ZM122.21,114.41c-.39,3.5-2.38,10.61-7.9,15.95-2.02,1.95-4.39,3.56-7.05,4.78-.03,0-.05.03-.08.05-1.4-1.01-2.78-2.13-4.14-3.38,2.48-.56,4.8-1.45,6.91-2.65,7.35-4.19,10.65-11.25,12.26-14.75ZM121.77,122.1c-.03.16-.05.33-.08.49-.69,3.87-1.2,6.67-3.16,9.72-1.56,2.41-3.66,4.43-6.25,5.99-1.21-.61-2.4-1.3-3.57-2.07,2.52-1.25,4.78-2.83,6.73-4.71,2.97-2.87,5.01-6.26,6.34-9.43h-.01ZM119.9,133.19c2.14-3.32,2.69-6.4,3.39-10.31.42-2.32.67-4.69.78-7.08.51,2.56.85,5.13,1.03,7.68.31,4.43.42,6.69-.55,9.55-.99,2.93-2.89,5.61-5.5,7.79-1.7-.41-3.37-.99-5.02-1.7,2.39-1.6,4.36-3.59,5.87-5.93ZM109.32,125.19c3.13-1.15,5.66-2.86,7.68-4.73-1.85,2.62-4.37,5.31-7.86,7.3-2.27,1.29-4.8,2.2-7.51,2.69-.01,0-.02,0-.04,0-1.27-1.26-2.52-2.62-3.74-4.08,3.05.41,7.14.41,11.47-1.18h0ZM107.65,52.24l.18-.35c.42.24.85.47,1.29.68-.18-.04-.36-.09-.53-.12-.33-.07-.64-.14-.94-.21ZM102.97,49.59c1.51.98,2.74,1.77,4.19,2.53-2.31-.59-3.92-1.3-5.36-1.94-2.07-.91-4.02-1.77-7.26-1.99-5.93-.39-11.24,1.94-14.94,6.58-2.5,3.12-2.96,6.54-3.02,9.93-.39-2.32-.61-3.93-.64-4.81-.24-5.61.21-12.42,5.86-15.31,2.33-1.19,5.11-1.56,7.63-1.01,4.08.89,8.55,2.81,12.59,5.41l.94.6h0ZM79.01,72.67c0-.35,0-.69.01-1.03,0-.64.01-1.25.02-1.84.01-.88,0-1.75,0-2.6-.05-4.13-.1-7.69,2.47-10.91,3.2-3.99,7.77-6.01,12.88-5.67,2.81.19,4.41.89,6.44,1.78,1.83.81,3.91,1.72,7.27,2.42.3.06.63.15.97.24,2.19.58,5.19,1.37,10.88-1.26-.32.29-.65.58-.99.84-1.37,1.07-3.45,2.69-6.19,2.95-1.22.12-1.83-.11-3.3-.66-.84-.31-1.88-.71-3.4-1.16-4.29-1.28-7.4-2.2-10.91-1.64-3.48.56-6.66,2.41-9.46,5.52-3.48,3.87-4.31,8.28-4.97,11.82-.32,1.7-.31,3.38-.29,5.01,0,.93,0,1.82-.04,2.7-.52-2.6-1.02-4.93-1.37-6.54l-.02.03ZM81.51,85.12c.52-1.3.9-2.63,1.12-3.98.26-1.57.24-3.14.23-4.65-.01-1.58-.02-3.08.25-4.54.64-3.41,1.37-7.28,4.39-10.65,2.41-2.68,5.11-4.27,8.03-4.74,2.97-.48,5.7.33,9.86,1.58,1.4.42,2.41.79,3.21,1.09,1.57.59,2.6.97,4.38.8,3.45-.33,5.96-2.29,7.47-3.47.95-.74,1.82-1.57,2.61-2.48-.14.32-.29.65-.47,1.01-.54,1.11-1.68,2.64-2.59,3.47-2.36,2.16-4.74,3.35-7.28,3.66-1.91.23-3.9-.27-5.82-.75-.39-.1-.79-.2-1.18-.29-5.91-1.4-11.1-.48-14.63,2.59-4.78,4.17-5.74,10.6-6.59,16.28-.08.56-.17,1.11-.25,1.65-.34,2.13-.9,4.91-2.11,7.27-.2-1.24-.42-2.54-.65-3.85h.02ZM118.01,64.77c-1.88,1.65-3.84,2.61-5.8,2.84-1.21.15-2.53-.11-3.93-.39-1.19-.23-2.41-.47-3.67-.48-5.12-.01-10.08,3.06-12.94,8-.9,1.55-1.1,2.52-1.37,3.75-.18.85-.39,1.82-.88,3.32l-.2.62c-1.23,3.76-2.88,8.81-6.46,11.06-.03-.28-.06-.57-.1-.87,2.57-3.08,3.51-7.44,4-10.54.09-.54.17-1.1.25-1.67.79-5.26,1.68-11.23,5.79-14.81,3.74-3.26,8.84-2.92,12.47-2.06.38.09.76.19,1.14.28,2.13.54,4.34,1.09,6.7.81,3.06-.37,5.89-1.77,8.64-4.28,0,0,.01,0,.02,0-1.02,1.68-2.28,3.21-3.68,4.42h.02ZM77.77,38.08c2.93-1.15,6.09-1.36,9.13-.61,2.1.51,4,1.58,5.57,2.55,2.04,1.26,3.93,2.64,5.69,4.03-2.75-1.3-5.54-2.28-8.19-2.86-3.11-.68-6.4-.25-9.26,1.22-6.89,3.52-7.46,11.25-7.19,17.58.03.82.2,2.14.49,3.98l-.21-.75v-.35l-.12-.11c-.55-2.27-1.08-4.18-1.56-5.86-.77-2.74-1.33-4.72-1.42-6.43-.29-5.29,2.81-10.73,7.07-12.4h0ZM50.95,11.63l.14.11c10.48,7.97,16.43,17.33,16.77,26.36.09,2.27.09,3.5.09,4.8,0,1.59,0,3.23.14,6.9.1,2.57.82,5.2,3.3,13.91l.07.31h0c.51,2.17.94,4.29,1.31,6.48.14.81.26,1.53.36,2.18-1.07,1.13-2.35,2.5-3.66,3.99-.5-1.61-.91-3.15-1.13-4.53-.6-3.86-1.25-7.01-1.88-10.07-1.12-5.45-2.08-10.16-2.41-17.03-.35-7.34-1.38-16.07-9.19-26.86l-.66-.91c-1.8-2.51-3.82-5.31-6.37-7.94,1.12.8,2.16,1.59,3.12,2.32v-.02ZM26.56,2.6c1.75-.2,3.51-.22,5.22-.05.98.24,2.45.77,4.38,1.58,7.98,3.32,12.46,9.54,16.06,14.54l.66.92c7.42,10.25,8.4,18.56,8.73,25.55.33,7.06,1.32,11.86,2.46,17.41.62,3.03,1.26,6.16,1.86,9.96.3,1.95.94,4.1,1.67,6.32-1.16,1.37-2.14,2.61-2.97,3.72-.01-.02-.02-.04-.03-.06-3.65-7.29-5.37-14.23-5.91-23.95-.52-9.27-1.9-22.93-7.83-34.54-2.8-5.47-6.06-9.72-9.98-12.99-1.88-1.56-7.05-5.38-14.46-7.18-1.18-.29-2.23-.49-3.19-.62,1.42-.34,2.59-.51,3.33-.6h0ZM13.57,7.29l.04-.02h.02c.69-.41,1.9-.95,2.83-1.25,1.2-.39,3.68-1.21,9.38.18,6.92,1.68,11.73,5.24,13.48,6.69,3.66,3.05,6.72,7.05,9.37,12.22,5.72,11.19,7.06,24.52,7.57,33.57.56,9.94,2.41,17.39,6.17,24.91.2.4.41.8.63,1.2-.62.94-1.11,1.77-1.5,2.5-1.26-1.29-2.36-2.68-3.3-4.15-1.46-2.27-2.51-4.57-5.72-22.35-.53-2.92-.92-5.17-1.26-7.16-.82-4.75-1.28-7.36-2.37-11.96-2.68-11.28-4.45-14.33-5.11-15.48-1.38-2.36-5.04-8.64-12.63-12.72-3.56-1.91-9.51-5.11-16.75-3.16-3.85,1.04-6.69,3.15-8.67,5.2,1.9-3.3,4.53-6.06,7.83-8.21h-.01ZM48.08,71.48c-2.23-5.77-2.7-8.94-3.23-12.61-.5-3.44-1.08-7.34-3.19-14.08-4.15-13.24-8.19-18.23-10.87-20.84-3.02-2.93-8.08-7.82-14.44-7.17-5.56.58-10.49,5.16-13.35,12-.06-.32-.1-.64-.13-.96-.25-3.01.99-5.34,1.65-6.59.83-1.57,4.05-6.85,10.52-8.59,6.31-1.7,11.52,1.1,14.97,2.95,6.99,3.75,10.4,9.6,11.68,11.8.56.96,2.26,3.89,4.85,14.81,1.07,4.52,1.52,7.11,2.34,11.81.34,1.99.74,4.24,1.26,7.17,3.13,17.35,4.25,20.4,6.07,23.23,1.21,1.9,2.68,3.67,4.36,5.28-.04.16-.08.32-.11.47-.55-.43-1.06-.88-1.51-1.34-6.9-7.08-9.89-14.82-10.87-17.37v.03ZM67.15,197.39c2.12-.41,3.8.37,5.75,1.27,1.8.83,3.85,1.78,6.44,1.79,3.88,0,6.11-2.84,8.07-5.34,1.73-2.21,3.37-4.3,5.93-4.48,1.75-.12,3.6.52,5.51,1.92.02.02.04.03.07.05l.79.5c-1.07-.1-2.13-.11-3.02.03-1.64.25-3.66,1.19-4.92,2.3-.83.73-1.54,1.56-2.23,2.36-.7.82-1.37,1.59-2.14,2.26-1.58,1.36-3.62,2.23-5.74,2.45-2.09.22-4.15-.63-5.91-1.43-2.35-1.08-4.51-1.97-7.13-2.02-2.78-.05-5.19.81-6.9,2.43-.07.02-.14.04-.21.07,1.71-2.35,3.6-3.73,5.64-4.13v-.03ZM98.85,202.53c-.35.55-.74,1.16-1.68,2.17-1,1.06-2.85,3.05-5.94,4.39-2.4,1.04-4.46,1.22-5.24,1.25-.67.02-2.05.07-3.72-.38-2.67-.73-4.53-2.37-5.62-3.61-.03-.04-.07-.07-.11-.1-.13-.18-.26-.37-.41-.55,1.6.96,2.38,1.42,2.89,1.58.99.31,4.52,1.19,8.3-.34,1.8-.73,2.97-1.72,4.58-3.11,1.22-1.04,1.77-1.71,2.26-2.29.45-.54.84-1,1.73-1.7.89-.7,2.75-2.16,5.57-2.74,1.5-.31,3.04-.31,4.58-.03l1.07.67c-2.9.43-5.21,1.47-6.91,3.09-.69.66-1.01,1.16-1.35,1.7h0ZM66.08,200.83c.96-.23,1.86-.28,2.51-.27,2.33.04,4.33.87,6.52,1.88,1.95.89,4.23,1.82,6.71,1.57,2.44-.25,4.77-1.25,6.58-2.81.86-.74,1.6-1.6,2.3-2.42.68-.8,1.33-1.55,2.08-2.2,1.05-.92,2.79-1.73,4.14-1.94,1.81-.28,4.43.16,6.15.58l.21.13c-.72.03-1.43.11-2.13.26-3.18.65-5.31,2.32-6.21,3.03-1.01.8-1.47,1.34-1.95,1.92-.47.56-.96,1.15-2.08,2.11-1.56,1.33-2.59,2.22-4.16,2.85-3.32,1.34-6.41.56-7.28.29-.38-.12-1.43-.75-3.01-1.7l-1.29-.77c-1.05-.63-2.25-1.35-3.98-1.77-.64-.15-1.3-.25-1.95-.3h-.14c-.99-.26-2-.41-3.03-.43h0ZM97.6,210.87c-4.96,2.5-11.94,3.04-16.6.28.28.1.57.19.86.27,1.89.52,3.5.46,4.18.44.86-.03,3.15-.23,5.79-1.37,3.38-1.47,5.45-3.68,6.45-4.75,1.04-1.11,1.49-1.82,1.86-2.39.31-.49.56-.88,1.12-1.42,1.55-1.49,3.76-2.41,6.58-2.75-.17.11-.35.23-.52.35-.68.48-1.26.99-1.79,1.52-.18.18-.36.36-.51.55h0c-1.06,1.21-1.86,2.57-2.68,4.2-1.25,2.02-2.71,4.05-4.74,5.07h0ZM101.16,213.47c.8-1.57,1.46-2.96,2.04-4.18.41-.87.78-1.64,1.14-2.35.26-.42.51-.84.75-1.25.61-1.01,1.18-1.97,1.72-2.64.78-.96,2.52-1.92,4.25-2.77.3.19.6.37.89.55-1.74,1.57-3.18,3.37-4.28,5.35-.79,1.42-1.11,2.43-1.46,3.5-.24.74-.49,1.5-.92,2.51-.61,1.45-2.23,5.29-5.26,8.05-1.91,1.74-4.1,2.77-6.17,3.38.57-.36,1.1-.76,1.62-1.2,1.97-1.68,3.21-4.11,5.69-8.95h-.01ZM114.67,211.46c-.29.4-.6.84-.96,1.33-2.9,3.99-4.25,5.82-5.81,7.25-2.17,1.98-4.18,3.1-5.19,3.59-.64.31-1.29.59-1.96.83,1.01-.51,1.95-1.09,2.82-1.77,3.5-2.71,5.7-6.56,6.43-7.82.46-.8.84-1.55,1.21-2.28.82-1.61,1.59-3.14,3.1-4.97,1.07-1.3,2.29-2.48,3.63-3.53,1.06.51,2.13,1,3.21,1.47-.88.4-1.72.88-2.49,1.44-1.61,1.16-2.35,2.2-3.98,4.47h0ZM113.12,206.64c-1.62,1.96-2.46,3.64-3.28,5.26-.36.71-.73,1.45-1.17,2.21-.69,1.2-2.77,4.84-6.04,7.37-1.92,1.49-4.26,2.54-6.89,3.12,1.81-.69,3.66-1.71,5.32-3.23,3.28-2.99,5-7.05,5.65-8.59.45-1.07.72-1.9.96-2.63.34-1.04.63-1.94,1.35-3.23,1.09-1.96,2.54-3.73,4.32-5.27,1.02.59,2.05,1.15,3.09,1.69-1.21,1-2.32,2.1-3.3,3.3h0ZM114.21,217.93c-1.89,2.27-3.4,3.86-4.49,4.73-1.89,1.5-4.29,2.8-8.36,3.2.69-.26,1.36-.54,2.03-.86,1.08-.53,3.24-1.73,5.55-3.84,1.74-1.59,3.26-3.68,6.02-7.48.36-.49.67-.93.96-1.34,1.58-2.19,2.23-3.1,3.63-4.12,1.09-.79,2.33-1.41,3.66-1.84.79.31,1.59.6,2.39.88-.64.5-1.41,1.11-2.26,1.8-.92.64-1.82,1.33-2.67,2.06-.66.57-1.97,1.74-3.26,3.21-.2.23-.43.49-.69.79-.85.88-1.69,1.81-2.5,2.8h0ZM118.42,216.68c2.21-2.31,4.46-4.26,6.31-5.77,1.12-.77,2.28-1.47,3.49-2.09.27-.14.54-.27.81-.4l2.2.48c-1.31.77-2.59,1.59-3.85,2.43l-.09.06c-2.58,1.73-6.11,4.1-8.65,6.72-2.76,2.85-4.85,6.6-6.13,10.97.02-.17.05-.34.08-.5.99-5.75,4-9.75,5.82-11.89h0ZM142.04,211.24c-.58.83-1.21,1.62-1.88,2.36-1.34,1.47-3.58,3.56-6.68,5.13-1.89.96-2.9,1.11-4.07,1.29-1.08.16-2.29.34-4.32,1.13-1.44.56-4.14,1.62-6.73,3.7.62-.85,1.26-1.63,1.91-2.33,2.28-2.46,5.17-3.83,8.24-5.28,2.16-1.03,4.4-2.09,6.41-3.56,1.32-.97,2.59-2.02,3.79-3.13,0,0,0-.02.02-.03l3.31.72ZM134,212.44c-1.89,1.39-4.06,2.42-6.15,3.41-3.06,1.45-6.23,2.95-8.71,5.63-1.67,1.81-3.21,4.01-4.77,6.82,1.22-3.62,3.04-6.73,5.38-9.13,2.42-2.5,5.88-4.82,8.4-6.51l.09-.06c1.69-1.13,3.44-2.21,5.22-3.22l3.43.74c-.93.81-1.89,1.59-2.88,2.32h0ZM132.76,224.84c-1.89.5-3.55.49-5.16.48-2.21,0-4.5-.02-7.14,1.28-2.16,1.07-4.01,2.74-5.54,4.98.28-.59.59-1.16.94-1.71,2.94-4.63,7.75-6.5,9.8-7.3,1.86-.73,2.94-.89,3.99-1.04,1.25-.19,2.42-.36,4.54-1.44,3.3-1.68,5.69-3.9,7.12-5.47.86-.95,1.65-1.97,2.36-3.04l2.19.47c-3.72,7.18-8.12,11.47-13.07,12.78h-.03ZM189.19,208.36c-.15.06-13.54,5.14-24.57,6.17-5.8-2.87-13.15-9.96-14.35-13.89-1.24-4.04-1.83-9.94,2.39-15.05,5.28-6.4,12.61-8.14,13.74-8.2.45-.02.79-.4.77-.85-.02-.45-.4-.79-.85-.77-1.31.06-9.18,1.85-14.91,8.79-4.93,5.97-3.8,12.94-2.69,16.56.64,2.08,2.73,4.89,5.42,7.58,2.24,2.24,4.9,4.4,7.47,6.01h-.39c-3.52.02-6.96-.37-7-.38-2.15-.25-4.3-.64-6.4-1.13.25-.47.49-.95.73-1.45.15-.32.15-.69,0-1-.15-.32-.45-.55-.79-.62l-18.62-4.04c-.11-.02-.22-.03-.33-.02-.13-.15-.31-.26-.5-.32-3.49-1.1-6.91-2.48-10.17-4.11-2.09-1.04-4.14-2.21-6.12-3.47-.07-.08-.15-.15-.24-.2l-11.61-7.31c-2.34-1.71-4.7-2.49-7-2.33-.76.05-1.46.22-2.1.47-.04-.06-.08-.11-.13-.16-16.97-17.08-27.81-41.25-27.62-61.59.04-3.73.5-7.61.94-11.36.95-8,1.94-16.27-.92-24.3-.08-.21-.54-2.34,6.66-10.84,2.26-2.68,4.62-5.19,6.2-6.82,1.22,5.63,3.92,18.6,3.76,22.8-.35,9.84,7.8,16.7,14.36,22.22,2.36,1.99,4.82,3.78,7.44,5.42-2.79.07-5.14-.41-6.63-.83-.5-.14-1.04.05-1.34.49-.29.43-.28,1,.04,1.42,1.88,2.49,3.83,4.73,5.83,6.73,5.85,5.85,12.19,9.62,18.91,11.24,3.05.73,4.98.74,7.21.75,2.34,0,4.99.02,9.87.79,8.57,1.36,16.85,3.94,24.62,7.67,6.56,3.15,12.74,7.15,18.37,11.87.31.26.74.35,1.13.23.39-.12.7-.42.82-.81.84-2.78,1.16-5.44.94-7.94.88.77,1.75,1.56,2.6,2.37,6.78,6.46,12.67,14.4,17.04,22.98,2.91,5.72,5.26,11.83,6.98,18.19-.18.1-.35.2-.53.3-1.35.31-2.73.56-4.1.72-2.54.31-5.14.37-7.7.18-.45-.03-.84.3-.87.75-.02.25.07.47.24.64.13.13.31.22.51.24,2.52.19,5.07.14,7.58-.14-4.59,2.4-9.31,4.54-14.09,6.37v-.02Z"/>
  <path class="st0" d="M187.92,188.77c-2.58-2.84-6.01-4.1-9.44-1.76-2.71,1.85-3.69,5.26-1.03,7.65,1.13,1.01,2.55,1.71,4.05,1.94.49.08.98.1,1.48.08,2.33-.13,4.16-1.55,5.78-3.11.57-.55.97-1.12.98-1.79.03-1.22-1.08-2.16-1.83-2.99v-.02Z"/>
  <path class="st0" d="M130.76,195.8c-1.78-.39-3.26-1.43-4.05-2.88-.5-.91-.64-1.86-.38-2.54.51-1.36,3.04-2.66,6.01-1.69h.03s.04,0,.06,0h.22s.04,0,.05-.02c.02,0,.03,0,.05-.02.02,0,.03-.02.05-.03.02,0,.03-.02.05-.03,0,0,.03-.02.04-.03s.03-.02.04-.04c0,0,.02-.03.04-.04,0,0,.02-.03.03-.05s.02-.03.03-.05c0,0,0-.02.02-.03v-.07s0-.04,0-.06v-.23s0-.04-.02-.06c0,0,0-.03-.02-.04,0-.02-.02-.04-.03-.06,0,0,0-.02-.02-.04,0-.02-.03-.04-.04-.05,0,0-.02-.02-.03-.03-.02-.02-.03-.03-.05-.04,0,0-.02-.02-.04-.03-.02,0-.04-.02-.06-.03,0,0-.02,0-.03-.02-1.69-.69-2.96-1.98-3.49-3.53-.33-.98-.31-1.94.06-2.57.73-1.25,3.45-2.09,6.21-.62.28.15.63.04.78-.24s.04-.63-.24-.78c-3.19-1.7-6.64-.81-7.74,1.05-.12.2-.21.42-.28.65-.08-.05-.16-.09-.26-.1-2.67-.3-5.21,1.32-5.81,2.97-.57,1.55-.14,3.09,1.22,4.44.49.49,1.11.96,1.85,1.41.04.02.07.04.11.05-.22.94-.03,2.06.56,3.13.3.54.67,1.03,1.11,1.47.97.97,2.25,1.66,3.7,1.98.31.07.62-.13.68-.44.07-.31-.13-.61-.44-.68h.02ZM125.62,189.3c-1.57-.95-3.29-2.49-2.57-4.46.4-1.1,2.35-2.48,4.61-2.22.07,0,.15,0,.22-.02-.02.59.07,1.21.29,1.85.32.96.88,1.83,1.61,2.57.07.07.16.14.23.21-1.95.08-3.59.93-4.39,2.08h0Z"/>
  <path class="st0" d="M74.19,141.05c-1.32-1.11-2.09-2.63-2.12-4.19-.02-.98.28-1.83.8-2.3,1.02-.91,3.71-.89,5.77,1.23.21.22.55.22.77,0,.21-.21.22-.55.01-.77-2.11-2.16-4.98-2.56-6.67-1.69-.9-1.48-1.66-3.53-.19-4.86.82-.74,3.06-1.04,4.83.16.25.17.59.1.75-.14.17-.25.1-.58-.14-.75-2.1-1.43-4.94-1.18-6.17-.07-1.58,1.43-1.58,3.65,0,6.24.02.03.04.06.07.09-.6.69-.93,1.71-.91,2.86.03,1.66.75,3.29,2.01,4.55.16.16.32.31.49.45.23.19.57.16.76-.07s.16-.57-.07-.76h.01Z"/>
  <path class="st0" d="M91.63,158.5c-1.41-.79-2.38-2.06-2.67-3.49-.18-.89-.06-1.72.33-2.23.78-1.01,3.24-1.44,5.5.15.01,0,.02,0,.03.02.02,0,.03.02.05.03.02,0,.03,0,.05.02.02,0,.04,0,.05.02.02,0,.04,0,.06,0h.16s.04,0,.05,0c.02,0,.04,0,.05,0,.02,0,.03,0,.05-.02.02,0,.03-.02.05-.02s.03-.02.05-.03c.01,0,.03-.02.04-.03.02,0,.03-.03.04-.04,0,0,.02-.02.03-.03,0,0,0,0,.01-.02,0,0,0,0,.01-.02,0,0,.01-.02.02-.03.01-.02.02-.03.03-.05,0-.02.01-.03.02-.05,0-.02.01-.03.02-.05,0-.02,0-.04.01-.06v-.16s0-.03-.01-.05c0-.02,0-.04-.02-.06,0-.02-.01-.03-.02-.05,0-.02-.02-.04-.03-.05,0-.02-.02-.03-.03-.04-.01-.02-.02-.03-.04-.05-.01,0-.03-.03-.04-.04,0,0-.02-.02-.03-.03-1.25-1.02-1.99-2.44-2.03-3.9-.02-.91.24-1.71.71-2.14.94-.86,3.44-.86,5.38,1.09h.01c.22.23.59.23.81,0s.23-.59,0-.81h-.01c-2.31-2.32-5.52-2.46-6.97-1.14-.14.13-.26.27-.37.43-.05-.05-.1-.09-.17-.11-2.27-.99-4.84-.26-5.83,1.03-1.24,1.64-.86,3.73,1.09,5.89,0,0,.01.02.02.02,0,0,.02,0,.03.02-.42.75-.54,1.76-.33,2.82.24,1.16.83,2.23,1.7,3.1.44.44.96.84,1.53,1.16.28.16.63.06.78-.22.16-.28.06-.63-.22-.78h.05ZM87.94,147.18c.62-.82,2.62-1.47,4.45-.67.04.02.09.03.14.04-.16.49-.24,1.03-.22,1.61.03.96.3,1.91.78,2.77-1.63-.39-3.19-.1-4.17.63-1.07-1.2-2.08-2.92-.98-4.37h0Z"/>
  <path class="st0" d="M129.61,163.18c-1.61-.85-2.75-2.26-3.12-3.86-.23-1.01-.11-1.96.32-2.55.85-1.17,3.64-1.74,6.24,0,.26.18.62.1.8-.16.18-.26.11-.62-.16-.8-3.01-2.01-6.53-1.46-7.8.28-.14.19-.25.4-.34.62-.07-.06-.15-.1-.25-.12-2.63-.56-5.31.8-6.08,2.38-.81,1.69-.35,3.47,1.3,5.12.34.34.73.68,1.17,1,.25.19.61.14.8-.12.19-.25.14-.61-.12-.8-1.48-1.1-3.04-2.8-2.12-4.7.51-1.05,2.58-2.23,4.8-1.76.07.02.15.02.22,0-.08.58-.05,1.22.11,1.87.28,1.22.92,2.33,1.83,3.25.53.53,1.16,1,1.87,1.37.28.15.63.04.78-.24s.04-.63-.24-.78h0Z"/>
  <path class="st0" d="M98.56,180.73c-1.66-.75-2.88-2.09-3.35-3.66-.29-.99-.23-1.95.16-2.57.78-1.22,3.53-1.96,6.23-.39.01,0,.02,0,.03.02.02,0,.04.02.05.02.02,0,.04,0,.05.02.02,0,.04,0,.05,0h.22s.04,0,.05-.02c.02,0,.03,0,.05-.02.02,0,.03-.02.05-.03.02,0,.03-.02.05-.03.02,0,.03-.02.04-.04.01,0,.03-.02.04-.04.01,0,.03-.03.04-.05,0,0,.02-.02.02-.03,0,0,0,0,.01-.02,0,0,0,0,.01-.02,0,0,0-.02.02-.03,0-.02.02-.04.02-.05,0-.02.01-.04.02-.05,0-.02,0-.04.01-.05v-.22s-.01-.04-.02-.06c0,0,0-.03-.02-.04,0-.02-.02-.04-.03-.06,0,0-.02-.03-.02-.04-.01-.02-.02-.03-.04-.05-.01,0-.02-.03-.03-.04s-.03-.03-.05-.04c0,0-.02-.02-.03-.02-1.51-1.03-2.48-2.55-2.66-4.19-.12-1.03.11-1.96.6-2.5.98-1.07,3.81-1.32,6.2.7.24.2.6.17.81-.07.2-.24.17-.6-.07-.81-2.77-2.33-6.32-2.19-7.79-.6-.73.79-1.05,2.03-.9,3.41.13,1.11.55,2.17,1.21,3.1-2.28-.39-4.36.37-5.21,1.7-.58.91-.69,2.19-.29,3.51.31,1.06.9,2.02,1.7,2.82.64.64,1.4,1.17,2.27,1.56.29.13.63,0,.76-.29.13-.29,0-.63-.29-.76l.03.02Z"/>
</svg>