<?xml version="1.0" encoding="UTF-8"?>
<svg id="Layer_1" data-name="Layer 1" xmlns="http://www.w3.org/2000/svg" xmlns:xlink="http://www.w3.org/1999/xlink" viewBox="0 0 177.85 244.82">
  <defs>
    <style>
      .cls-1 {
        fill: none;
      }

      .cls-2 {
        fill: #16181a;
      }

      .cls-3 {
        clip-path: url(#clippath-1);
      }

      .cls-4 {
        clip-path: url(#clippath-2);
      }

      .cls-5 {
        fill: #fff;
      }

      .cls-6 {
        clip-path: url(#clippath);
      }
    </style>
    <clipPath id="clippath">
      <rect class="cls-1" y="0" width="177.85" height="244.82"/>
    </clipPath>
    <clipPath id="clippath-1">
      <rect class="cls-1" y="0" width="177.85" height="244.82"/>
    </clipPath>
    <clipPath id="clippath-2">
      <path class="cls-1" d="M15.13,156.83c0,40.82,33.09,73.91,73.91,73.91s73.91-33.09,73.91-73.91-33.09-73.91-73.91-73.91S15.13,116.01,15.13,156.83"/>
    </clipPath>
  </defs>
  <g id="Artwork_23" data-name="Artwork 23">
    <g class="cls-6">
      <g class="cls-3">
        <path class="cls-2" d="M57.4,25.92C59.98,11.98,72.91.51,87.16.07c13.68-.96,27.48,7.92,31.83,20.99,3.95,10.52,1.84,23.01-5.29,31.68-3.7,4.66-9.12,7.42-14.28,10.14.92,1.43,1.41,3.24,2.75,4.38,1.28.55,2.64.85,4,1.19,16.06,3.44,31.34,11.03,43.29,22.36,14.68,13.63,24.58,32.36,27.45,52.2,2.48,17.29.14,35.43-7.66,51.14-9.38,19.82-26.31,36.1-46.7,44.27-17,6.99-36.17,8.08-54.04,4.12C33.84,234.96,5.98,204.12,1.09,169.11c-2.58-14.93-.38-30.38,4.67-44.55,7.57-20.1,22.78-37.01,41.62-47.18,8.47-4.34,17.5-7.62,26.85-9.44,2.41-.2,3.02-3.04,4.48-4.51-3.38-2.67-7.5-4.27-10.68-7.21-8.51-7.28-13.01-19.26-10.63-30.3"/>
        <path class="cls-5" d="M67.25,13.31c4.73-5.44,11.53-9,18.7-9.76,9.02-1.05,18.28,2.72,24.19,9.58,6.73,7.14,8.49,17.62,6.35,26.99.85-7.51.31-15.67-4.09-22.07-5.04-8.16-14.76-13.02-24.28-12.54-7.44.7-14.82,4.17-19.46,10.14-2.1,2.7-4.75,5.11-5.75,8.5-3.56,9.98-.05,21.4,7.04,28.94-4.92-4.32-8.22-10.39-9.3-16.83-1.32-8.14,1.31-16.69,6.6-22.95"/>
        <path class="cls-5" d="M77.76,14.73c6.93-4.53,16.58-4.41,23.36.35,6.24,4.5,9.94,12.45,8.87,20.14-.45,5.74-4.22,10.56-8.47,14.16-4.22-9.99-20.87-10.13-25.12-.08-4.51-3.48-7.92-8.59-8.56-14.32-1.16-7.94,2.94-16.3,9.92-20.25"/>
        <path class="cls-5" d="M65.35,21.63q.5.32,0,0"/>
        <path class="cls-5" d="M63.28,29.12c.51-2-.41-5.2,1.85-6.25l.33.22c-1.51,4.66-1.57,9.59-1.09,14.44-2.08-2.19-.85-5.66-1.09-8.41"/>
        <path class="cls-5" d="M63.43,36.69c1.55.95,1.55,2.92,2.25,4.43,1.53,4.67,5.1,8.19,8.23,11.82-5.37-3.89-9.46-9.6-10.48-16.25"/>
        <path class="cls-5" d="M81.18,48.31c3.16-3.15,8.36-3.02,12.31-1.56-2.82.25-5.86-.27-8.37,1.38,2.12.15,4.26.14,6.4.24-1.54.63-3.39.64-4.62,1.87.84.08,2.53.25,3.37.33-1.32.42-2.65.8-3.98,1.18-1.91,2.63-1.36,5.82-.53,8.73-2.39-2.31-2.94-5.72-4.26-8.63-.8,3.28.15,6.51,1.31,9.57-4.46-2.71-4.43-9.22-1.63-13.11"/>
        <path class="cls-5" d="M87.31,52.11c1.32.56-1.19,7.24-1.65,3.22-.1-1.47.45-2.54,1.65-3.22"/>
        <path class="cls-5" d="M80.15,66.87c3.22-2.35,7.45-1.19,11.13-1.13-3.57,1.17-7.4,1.49-11.13,1.13"/>
        <path class="cls-5" d="M58.5,76.64c13.07-4.64,27.21-6.96,41.03-4.82,19.07,2.91,37.42,11.9,50.44,26.28-2.94-1.9-5.39-4.43-8.22-6.46-13.55-10.71-30.39-17.37-47.67-18.32-15.92-.79-32.53,2.65-45.87,11.62,10.99-6.08,23.48-8.84,35.91-9.94,17.67-1.11,35.41,4.88,49.83,14.92-12.51-7.17-26.38-12.5-40.92-13.25-15.67-.51-31.67,3.15-44.99,11.6-15.43,9.17-27.25,23.96-33.46,40.74-6.02,15.54-6.32,32.96-2.25,49.02,2.28,9.01,6.79,17.23,11.45,25.2-10.71-13.13-15.91-30.31-15.87-47.13-.33-11.4,2.67-22.58,6.75-33.12,1.34-3.29,3.26-6.32,4.35-9.71-1.99,3.94-4.33,7.68-6.22,11.67-7.17,15.97-8.89,34.34-4.66,51.34.58,1.92,2.06,3.59,1.55,5.76-5.4-13.04-6.72-27.66-3.96-41.49,5.13-28.44,25.71-53.63,52.78-63.91"/>
        <path class="cls-5" d="M79.69,80.91c18.79-2.42,38.47,2.92,53.46,14.49,14.57,10.86,25.39,26.87,29.43,44.62,3.57,14.52,2.3,30.11-3.01,44.04-5.92,14.08-15.52,26.86-28.44,35.21-16.79,11.26-38.23,15.47-57.96,10.93-22.82-4.7-42.13-21.3-52.28-41.99-7.04-15.27-9.36-32.9-5.4-49.32,3.61-15.95,12.82-30.4,25.14-41.04,11.1-9.15,24.79-15.12,39.06-16.94"/>
        <path class="cls-2" d="M83.04,82.18c15.12-1.36,30.41,2.73,43.48,10.26,14.75,8.64,26.01,22.75,31.85,38.76,5.48,15.57,5.56,32.95.27,48.58-3.73,10.04-9.24,19.51-16.61,27.33-10.17,9.96-22.77,17.85-36.84,20.75-19.8,4.58-41.38.69-58.24-10.69-14.36-10.05-25.16-25.19-29.87-42.09-7.47-27.16,2.69-57.79,23.95-75.99,11.85-9.75,26.71-15.75,42.01-16.91"/>
        <path class="cls-5" d="M84.89,87.87c.98-.05,1.96-.1,2.95-.13,0,1.53,0,3.07.03,4.62-5.4.44-10.82.92-16.1,2.19-.34-1.67-.7-3.36-.99-5.02,1.74.5,2.23,2.39,3.19,3.7-.13-1.57-1.38-3.29,0-4.68.67,1.3,1.36,2.59,2.07,3.88.09-.88.27-2.64.35-3.52.79-.11,2.37-.33,3.15-.44-1.57,1.3-.55,4.64,1.3,2.51-.28-.82-.84-2.47-1.11-3.3l1.9,1.14c.46-.3,1.39-.89,1.85-1.18.1,1.21.16,2.43.19,3.65l1.63.06c-.11-.87-.31-2.61-.41-3.48"/>
        <path class="cls-5" d="M90.42,86.98c.66,1.11,1.27,2.26,1.87,3.41.53-.78,1.58-2.35,2.11-3.13-.1,1.07-.31,3.22-.41,4.29,1.26-1.38,1.44-3.99,4.01-3.78-.17,1.14-.49,3.42-.65,4.56,2.27-.62.98-3.96,3.34-4.42.04.81.12,2.44.16,3.25.68-.65,2.04-1.94,2.72-2.59-.13,1.6-.26,3.2-.38,4.82.87-1.4,1.64-2.86,2.6-4.2l.65.83-.29,2.5c.83-.8,1.51-1.74,2.24-2.62.53.98,1.08,1.97,1.68,2.94l.6-1.7c1.93,1.06,3.96,1.93,6.07,2.6-.63,1.16-1.22,2.33-1.78,3.53,1.78-.1,2.6-1.58,3.43-2.91.8.39,1.6.8,2.41,1.21-.58,1.17-1.1,2.36-1.58,3.58,1.69-.37,2.29-2.87,4.09-2.59,1.04,1.5-.88,3.06-.94,4.63l-.32.77c-4.37-2.43-8.84-4.66-13.57-6.28-.15-.6-.46-1.81-.61-2.41-.81.4-1.57.9-2.27,1.49-5.1-1.45-10.39-2.07-15.66-2.42.11-1.8.25-3.59.48-5.36"/>
        <path class="cls-5" d="M67.89,91.1c2.85-2.71,1.74,2.36,2.4,3.75-.82.45-2.46,1.35-3.29,1.8-1.26-1.42-2.31-3.02-2.73-4.89,1.82.12,2.85,1.68,4.1,2.75-.12-.85-.36-2.56-.48-3.41"/>
        <path class="cls-5" d="M61.72,92.67c1.42.96,2.78,2.01,4.2,3.02-.26.43-.77,1.28-1.03,1.71-3.19,1.01-6.14,2.62-8.98,4.36-.06-1.74-.85-3.22-1.9-4.54.92-.48,1.83-.97,2.75-1.43.12.69.35,2.08.47,2.77,2.4-.35,1.22-2.23.75-3.71,2.31-.94,2.97,1.6,4.5,2.6.19-1.62-.06-3.21-.76-4.78"/>
        <path class="cls-2" d="M111.72,93.15c1.56-.81,2.05-.32,1.47,1.48-1.58.74-2.07.25-1.47-1.48"/>
        <path class="cls-5" d="M54.53,104.46c9.82-6.51,21.44-10,33.17-10.66l-.06,1.6c-17.1.2-33.99,8.07-44.92,21.25-5.27,6.34-9.69,13.54-11.91,21.53-.43,1.1-.29,2.91-1.76,3.2l-.28-.65c3.87-14.68,13.22-27.74,25.76-36.27"/>
        <path class="cls-5" d="M89.75,94.23c5.53-.64,10.93,1.1,16.33,1.98-.76.4-1.53.79-2.31,1.17-4.44-2.1-9.91-.6-14.02-3.15"/>
        <path class="cls-5" d="M54.08,107.77c9.8-6.91,21.73-11.06,33.76-11-2.41,3.07-2.85,6.9-2.93,10.69l1.19.1c.03-.59.11-1.78.15-2.37l.85.1c-1.5,9.98-3.11,19.95-4.27,29.98-3.04-4.21-4.44-9.54-8.2-13.22,1.54,6.33,3.65,12.51,5.42,18.78-7.4-5.16-14.64-10.55-21.95-15.83,4.16,7.78,10.54,14.05,15.15,21.55-2.05-.3-4.26-1.62-6.31-1.3,1.8,2.36,5.53,2.41,8.24,3.39.16.22.49.65.65.86-4.02.68-7.35-1.89-10.65-3.73-.55.21-1.66.62-2.21.82,2.85,1.29,5.72,2.58,8.45,4.12-9.51,1.47-19.02,2.96-28.44,4.89-.53.23-1.58.68-2.11.9,9.78,2.09,19.71,3.43,29.61,4.82-4.92,3.11-10.27,5.51-15.1,8.78,3.43-.25,6.65-1.51,10.03-2.01-.36-.63-.71-1.25-1.07-1.85.57-.4,1.71-1.2,2.28-1.6.02.97-.08,1.95-.06,2.94,2.59-1.06,5.28-1.82,7.99-2.48-5.86,6.93-11.55,14.11-16.15,21.96,7.57-4.65,13.97-10.97,21.73-15.34-2.05,5.92-3.73,11.96-5.4,18,4.07-3.72,5.4-9.44,8.51-13.88,1.17,5.33,1.68,10.79,2.71,16.15.02,1.05,1.1.81,1.81.71-1.7-9.51-2.86-19.11-4.47-28.64,1.52,1.09,3.11,2.16,5.08,2.1-.57,8,.17,16.01.02,24.02.1,2.35-1.64,4.3-1.52,6.66.39,2.45.77,4.93,1.48,7.32,1.9-.34,1.71-2.63,2.17-4.08,1.3-8.27,2.72-16.52,4.03-24.79,2.65,5,5.2,10.11,8.41,14.78-.21-4.36-2.5-8.27-2.93-12.61-.63.9-1.24,1.81-1.88,2.71.22-.63.65-1.91.87-2.55-2.49.77-2.45-2.5-3.4-3.88-1-1.5.26-2.8.92-4.08-.59,2.56.64,4.93,1.26,7.35.5.15,1.5.44,2,.58-.87-2.21-1.77-4.39-2.69-6.56,7.71,4.87,14.64,10.82,22.13,16-4.29-7.56-9.64-14.47-14.93-21.34l5.38.51c-2.49-1.4-5.12-2.3-7.64-3.55,1.8.1,3.6.23,5.41.33.04.16.11.47.15.63,1.7.96,4.67.79,5.16,3.15l1.81-.16c-.73.47-1.46.96-2.18,1.45,3.17.23,6.29,1.13,9.1,2.61h.43c0-.23.03-.7.03-.93-4.43-3.29-9.71-5.18-14.35-8.13,9.68-1.65,19.35-3.4,29.1-4.58-.88-1.86-3.04-1.62-4.69-2.02-2.56-.4-5.11-.86-7.63-1.45-.76.48-1.52.96-2.27,1.46.83.21,2.48.64,3.31.85-8.56.18-17.13-.34-25.69.04-.39-1.56-.81-3.1-1.25-4.64,7.44,1.05,14.86,2.28,22.29,3.41.78-.5,1.57-1,2.36-1.5-5.31-.66-10.53-1.85-15.85-2.42,3.35-1.76,6.62-3.67,9.93-5.51,1.8-1.06,4.03-1.66,5.12-3.59-6.09,1.58-12.06,3.59-18.08,5.4,5.05-7.41,10.94-14.24,15.52-21.98-7.47,4.8-14.47,10.32-21.45,15.8,1.17-6.28,3.57-12.24,4.85-18.49-3.31,3.55-5.15,8.1-7.85,12.08-1.05-9.19-2.61-18.33-3.39-27.54.93-3.48.03-7.07-1.48-10.24,22.71.27,44.43,15.05,53.16,35.99,1.51,3.62,3.21,7.32,3.3,11.32.47.2,1.41.59,1.88.79-2.7-13.7-9.96-26.67-21.03-35.34-6.64-5.14-14.06-10.04-22.49-11.43.69-.42,1.39-.84,2.09-1.24,9.02,3.11,17.56,7.94,24.43,14.61,12.68,11.52,19.43,28.74,19.55,45.73-.11,4.26-1.11,8.44-1.26,12.71-.46-.67-.9-1.34-1.32-2.01,1.83-7.66,1.09-15.63.31-23.37-.48.61-.96,1.24-1.42,1.88,2.79,14.85-.8,30.65-9.25,43.13-11.26,15.79-29.95,26.89-49.64,26.49.76-1.09,1.7-2.01,2.79-2.76,1.73-3.18-2.18-4.19-4.34-5.11,1.54-1.35,3.38-.52,5.13-.18-.64-1.58-1.93-2.62-3.41-3.34-1.32,1.14-4.08,2.34-3.03,4.52.71,2.18,5.33,1,4.39,3.91-1.72-.2-3.42-.56-5.14-.73,1,1,2.19,1.64,3.59,1.94-.55.58-1.08,1.18-1.6,1.79-3.06-.86-7.3.47-9.48-2.22-.59,1.11-.29,2.33,1.03,2.71-.02.31-.05.92-.07,1.23-10.24-2.05-20.17-6.23-28.3-12.86-2.27-1.89-4.23-4.13-6.65-5.82.43-.45.87-.89,1.31-1.32,5.86,7.31,14.36,12.15,22.88,15.79.61-.42,1.22-.84,1.84-1.25-11.71-3.25-21.46-11.47-28.9-20.85-4.83-6.2-7.77-13.61-9.57-21.2-.06-1.05-1.12-.76-1.79-.61,2.63,9.69,6.64,19.65,14.04,26.65-.43.41-.86.84-1.29,1.27-3.37-4.88-7.21-9.5-9.59-14.99-5.38-12.32-7.51-26.36-4.34-39.55.22-.23.68-.69.91-.92.52,1.93-.42,3.84-.66,5.75.52.73,1.05,1.47,1.58,2.22-.29-5.57,1.77-10.86,3.66-15.98,4.03-10.51,11.48-19.43,20.32-26.26"/>
        <path class="cls-5" d="M53.13,103.4c-.43-1.84-3.06-4.15-.43-5.39.96,1.34,1.94,2.67,2.97,3.97-.63.35-1.9,1.06-2.54,1.42"/>
        <path class="cls-5" d="M124.35,99.89c-.1-.99.41-1.56,1.5-1.74.05.42.13,1.26.17,1.68,1.22-.12,2.42.07,3.61.36-.77,1.27-1.55,2.53-2.25,3.84,1.94-.82,3.59-3.45,5.54-1-.9.91-1.5,1.98-1.8,3.22.9-.67,1.76-1.38,2.6-2.12.63.51,1.26,1.04,1.9,1.58-.94,1.46-1.87,2.94-2.87,4.37-2.72-2.51-5.63-4.77-8.7-6.81.21-.54.65-1.61.86-2.14-.14-.31-.42-.93-.56-1.24"/>
        <path class="cls-5" d="M47.69,101.33c.55-.35,1.66-1.03,2.21-1.38,1,1.32,2.02,2.63,3.06,3.93-.71.45-2.14,1.37-2.86,1.83-.52-1.62-1.55-2.96-2.41-4.38"/>
        <path class="cls-5" d="M44.65,103.75c2.13-2.5,3.46,1.23,5.16,2.34-4.64,2.84-7.98,7.21-11.36,11.37-4.67,6.02-8.31,12.86-10.34,20.22-.17.05-.52.15-.7.21-1.21-.99-2.53-1.83-3.85-2.64.23-3.15,2.88-1.49,4.8-1.23-1.05-1.42-3.8-2.08-2.97-4.29,1.3.45,2.61.88,3.94,1.31-.22-1.82-2.08-2.18-3.41-2.94,1.44-1.08,3.08-1.39,4.91-.93-1.21-1.02-2.52-1.94-3.37-3.3,1.67.29,3.33.7,4.99,1.09-.85-1.37-3.51-2.2-2.57-4.14,1.74-.08,3.08,1.4,4.66,1.95-.75-1.73-2.87-3.01-2.64-5.05,1.52-.49,2.86.74,4.28,1.06-.45-1.3-1.46-2.24-2.38-3.19.65-.54,1.31-1.06,1.97-1.57.76.66,1.54,1.33,2.33,1.99.04-1.59-1.09-2.64-2.17-3.62,1.45-1.81,3.67-.2,5.5-.1-.95-.9-1.92-1.77-2.9-2.63.64-.59,1.27-1.17,1.91-1.75,1.22.89,2.48,1.76,3.88,2.36-.62-1.54-1.75-2.78-2.78-4.04.51-.24,1.54-.71,2.05-.95.93.79,1.9,1.53,2.93,2.21-.57-1.28-1.19-2.52-1.87-3.74"/>
        <path class="cls-5" d="M136.68,106.88c.64.58,1.28,1.16,1.94,1.75-.95.87-1.87,1.78-2.75,2.73,1.67-.4,3.28-.99,4.89-1.56-.51,1.47-1.14,2.91-1.76,4.36,1.45-.63,2.84-1.5,4.46-1.6-.84,1.41-1.74,2.79-2.51,4.25,1.66-.79,3.46-2.62,4.86-.41-1.2.92-2.38,1.88-3.53,2.88,1.68.31,4.7-2.46,5.44.1-1.15.95-2.4,1.79-3.55,2.73,1.35,1.28,2.79-.71,4.17-.96.43.54,1.27,1.63,1.69,2.17-.85.28-2.54.83-3.39,1.11.75,2.49,2.45.87,3.84-.03.37.75,1.11,2.24,1.48,2.99-1.47.6-3.79.58-3.9,2.67,1.5-.51,2.95-1.12,4.42-1.71.25.69.74,2.06.99,2.75-1.31.24-2.94.15-3.47,1.68,1.36-.17,2.72-.36,4.07-.59.28,1.55,1.01,3.08.85,4.7-.99.52-1.99,1.01-3.02,1.46.46.24,1.36.73,1.82.98.51-.31,1.53-.92,2.04-1.22.28.91.83,2.74,1.1,3.65-1.57-.46-3.35-.96-3.77,1.07.86-.13,2.57-.38,3.43-.51.24.78.72,2.33.96,3.11-1.58.39-3.14.85-4.62,1.53,1.63.56,3.27.47,4.91-.24l.03,1.98c-.62-.02-1.86-.06-2.48-.08,0,.27-.04.8-.05,1.07.67-.04,2.02-.12,2.69-.16l-.17,1.64c-.81.15-2.43.44-3.24.59.72,1.46,1.98,1.65,3.78.57-.02.75-.04,2.26-.05,3.01-1.81.08-3.62.17-5.43.25-.13-5.87-1.56-11.57-2.34-17.34-4.46-10.08-8.83-20.68-17.46-28.01,1.28-1.04,2.62-2.03,3.63-3.36"/>
        <path class="cls-2" d="M54.3,124.3c8.27-8.13,19.13-14.98,31.1-14.75-1.16,1.13-2.83,1.14-4.31,1.48-17.41,2.96-32.59,16.85-36.43,34.2-.85,2.66-.46,5.75-2.09,8.12-.49-10.78,4.59-21.23,11.73-29.05"/>
        <path class="cls-2" d="M92.82,109.33c11.5.7,22.49,6.4,30.43,14.64,7.3,8.06,11.92,18.66,12.57,29.54-1.66-1.66-1.5-4.21-2.18-6.3-3.13-17.03-16.85-31.37-33.66-35.41-2.4-.8-5.23-.65-7.16-2.47"/>
        <path class="cls-2" d="M53.36,110.79c2.31,1.79,3.19,4.77,4.68,7.19-1.6-.44-3.2-.95-4.79-1.35.73,1.16,1.42,2.35,2.09,3.56-2.69-.73-5.59-2.2-6.42-5.08,1.73.21,3.07,1.32,4.46,2.26-.64-1-1.9-3.01-2.53-4.01,1.79.2,3.23,1.12,4.32,2.77-.61-1.78-1.31-3.53-1.81-5.34"/>
        <path class="cls-5" d="M82.81,150.63c1.34-12.56,3.4-25.02,4.89-37.56.91,4.63.48,9.36.48,14.05-.01,6.39.18,12.78.15,19.18-2.06,1.15-3.86,2.67-5.52,4.33"/>
        <path class="cls-2" d="M120.86,119.24c.74-2.7,2.69-4.91,4.93-6.51,0,.72.01,2.14.02,2.86,1.07.16,2.15.33,3.23.51-1.73,1.89-3.15,4.13-5.32,5.57.33-2.04,1.12-3.94,1.82-5.86-1.58,1.12-3.09,2.33-4.68,3.43"/>
        <path class="cls-2" d="M130.42,117.44c1.08,1.2,2.14,2.43,3.01,3.82-1.41-.56-2.8-1.16-4.17-1.8.55,1.21,1.1,2.43,1.65,3.66-1.14-.39-2.27-.78-3.39-1.19.78,1.1,1.5,2.24,2.18,3.42-1.5-.61-2.91-1.38-4.3-2.19,1.29-2.22,3-4.15,5.02-5.72"/>
        <path class="cls-2" d="M46.88,117.43c2.39,1.32,4.63,3.09,5.77,5.65-1.65-.29-3.28-.66-4.91-1.04.84,1.26,2.57,2.28,1.93,4.07-2.16-1.66-4.23-3.48-5.76-5.75,1.03.09,3.1.28,4.13.37-.29-.82-.87-2.47-1.16-3.3"/>
        <path class="cls-5" d="M162.34,119.16c6.9,11.35,10.49,24.7,10.31,37.99-.58,18.35-6.92,36.57-18.39,50.98-6.49,8.88-15.27,15.8-24.62,21.46-13.35,7-28.52,11.12-43.66,10.14-7.75-.36-15.42-1.96-22.8-4.31,16.16,4.6,33.67,5.06,49.77-.03,18.13-5.44,34.08-17.57,44.55-33.29,7.04-11.16,12.31-23.73,13.54-36.96,2.12-15.73-1-32.11-8.7-45.98"/>
        <path class="cls-5" d="M98.81,130.96c-.31,2.98-.71,6.26-2.72,8.62.33-3.03,1.55-5.85,2.72-8.62"/>
        <path class="cls-5" d="M79.02,131.74c2.43,2.48,3.38,5.94,2.8,9.35-.86-3.15-2.29-6.12-2.8-9.35"/>
        <path class="cls-5" d="M100.86,140.89c3.34-2.66,6.5-5.59,10.23-7.7-4.71,4.55-9.29,9.26-14.25,13.55-.08-2.71,2.26-4.24,4.02-5.85"/>
        <path class="cls-5" d="M68.05,134.26c4.57,3.08,8.78,6.66,13.37,9.72-.19.99-.39,1.99-.58,3-3.91-4.59-8.65-8.36-12.79-12.72"/>
        <path class="cls-2" d="M55.22,141.67c3.16.72,6.25,1.69,9.4,2.46.13.21.4.63.53.84-3.32,2.64-7.32-1.18-9.93-3.3"/>
        <path class="cls-5" d="M71.97,141.12c3.35,2.58,6.44,5.57,8.92,9.01-3.89-1.8-6.33-5.73-8.92-9.01"/>
        <path class="cls-5" d="M102.72,150.05c2.74-2.34,6.37-3.21,9.83-3.81-2.93,1.98-6.29,3.43-9.83,3.81"/>
        <path class="cls-5" d="M86.44,150.51c4.05-1.98,9.24,2.2,8.26,6.58-.49,4.6-6.87,6.73-10.06,3.41-3.44-2.71-1.97-8.4,1.8-9.99"/>
        <path class="cls-2" d="M32.36,151.4c2.68.4,6.77.78,7.77,3.64-2.81,1.28-5.86,1.96-8.88,2.57.67-2.56,3.37-2.49,5.38-3.22-1.07-.63-2.21-1.13-3.33-1.6-.33.73-1,2.21-1.33,2.94l-.45-2.29c.21-.51.63-1.53.84-2.04"/>
        <path class="cls-5" d="M52.04,155.71c9.33-1.41,18.58-3.39,27.98-4.27-.63,1.48-1.17,3.03-1.82,4.52-8.72-.28-17.46.29-26.16-.25"/>
        <path class="cls-2" d="M86.35,153.45c2.21-2.05,5.86-.13,6.2,2.67-.54,2.15-3.18,4.77-5.4,3.05-1.97-1.07-2.73-4.26-.8-5.72"/>
        <path class="cls-2" d="M137.64,153.41c2.94.1,5.88.08,8.82.03-.27,2.29.49,4.88-.8,6.96-.75-2.02.43-5.65-2.75-5.6-.06,1.22-.15,2.45-.27,3.69-2.1.16-.61-3.86-3.17-3.69-.17,1.88-.34,3.76-.6,5.64-2.08-1.7-.79-4.76-1.23-7.03"/>
        <path class="cls-2" d="M32.15,160.94c.26-3.61,5.13-3.75,7.91-3.65-.06,3.7-5.31,2.87-7.91,3.65"/>
        <path class="cls-2" d="M42.32,162.17c-.05-1.11.05-2.2.3-3.26,1.17,3.64,1.47,7.5,2.71,11.14,4.38,14.29,16.37,25.92,30.75,29.95,3.34.98,6.9,1.22,10.07,2.74-21.9-.12-41.67-18.91-43.83-40.57"/>
        <path class="cls-2" d="M134.15,163.16c.34-1.55.27-3.33,1.63-4.4-.32,22.77-20.46,43.08-43.1,44,1.56-1.86,4.27-1.35,6.38-2.05,13.24-3.17,25.46-12.17,31.13-24.72,1.96-4.05,3.24-8.4,3.96-12.83"/>
        <path class="cls-5" d="M68.29,163.73c2.1-.59,4.17-1.29,6.33-1.64-1.7,2.3-4.77,2.71-7.2,3.82.22-.54.65-1.63.87-2.18"/>
        <path class="cls-5" d="M66.11,178.28c3.98-5.89,8.75-11.29,13.75-16.3.39,2.9-2.63,4.51-4.39,6.24.54.53,1.07,1.06,1.6,1.6,1.29-1.35,2.66-2.64,4.24-3.65-1.58,2.55-4.08,4.29-6.25,6.28-.62-.66-1.24-1.3-1.86-1.93-1.9,2.97-4.46,5.44-7.09,7.76"/>
        <path class="cls-5" d="M96.07,164.48c4.95,4.16,9.28,8.99,13.76,13.64-3.4-2.09-6.38-4.75-9.44-7.26-1.93-1.73-4.42-3.47-4.32-6.38"/>
        <path class="cls-2" d="M110.35,165.93c1.07-.99,2.75,1.45,1.4,1.96-.35-.49-1.05-1.47-1.4-1.96"/>
        <path class="cls-5" d="M147.9,170.09c.48-.12,1.45-.38,1.93-.5-5.25,24.55-26.8,44.41-51.52,48.21-5.98,1.34-12.11.41-18.16.53-.19-.46-.57-1.38-.76-1.83,29.75,5.52,61.18-15.43,68.43-44.6l.08-1.81Z"/>
        <path class="cls-5" d="M81.97,170.74c1.49,3.25-1.73,6.59-2.77,9.62.37-3.35,1.68-6.48,2.77-9.62"/>
        <path class="cls-5" d="M22.66,175.87c1.72-.48,3.44-.96,5.15-1.46,2.13,7.96,6.46,15.14,11.46,21.63,4.65,5.3,9.61,10.68,16.03,13.84-.07.81-.14,1.62-.22,2.45-.52.77-1.55,2.32-2.07,3.09-2.57-1.49-.67-3.57.07-5.49-1.98.13-2.36,2.04-2.91,3.57-2.27-1.88-4.51-3.8-6.7-5.75,1.34-.69,2.46-1.63,3.37-2.81-1.54.28-2.9.95-4.07,1.99-.57-.43-1.71-1.29-2.27-1.72,1.11-1.17,4.13-1.58,3.07-3.83-1.37.86-2.7,1.78-4.01,2.73-3-1.87.59-3.64,1.81-5.28-1.72.25-3.11,1.24-4.39,2.34-1.04-1.22-2.08-2.4-3.12-3.59,1.64-.08,4.21-.47,3.46-2.92-1.28.62-2.53,1.29-3.75,2.01-.47-.54-1.41-1.61-1.89-2.15,1.25-.54,2.43-1.23,3.47-2.11-1.72-.86-3.08-.34-4.02,1.22-.47-.77-1.41-2.3-1.87-3.07,1.39-.25,2.77-.52,4.16-.83-1.28-1.33-3-.42-4.5-.15-.45-.71-1.34-2.14-1.78-2.85,1.69.49,2.82-.03,3.38-1.57-2.04.6-4.25,1.34-5.06-1.39,1.1-.2,3.28-.59,4.38-.78-1.71-2.11-4.38.78-5.65-1.96,1.53-.67,3.38-1.1,3.98-2.88-1.23.59-2.44,1.22-3.63,1.9-.62-1.41-1.25-2.8-1.88-4.18"/>
        <path class="cls-5" d="M150.22,173.71c1.78.55,3.54,1.16,5.36,1.63-.12.75-.36,2.24-.48,2.99-1.33-.7-2.75-1.19-4.22-1.4.26,1.83,2.19,1.8,3.48,2.45-.51,1.14-1,2.3-1.49,3.45-1.32-.69-2.66-1.32-4.02-1.9-.15,2.42,2.45,2.27,4.07,2.96-.92,3.76-5.1-.44-5.91,2.99,1.05-.1,3.15-.3,4.2-.4-.74,1.4-1.46,2.82-2.17,4.25-1.71-.89-3.45-1.76-5.32-2.23,3-4.53,4.89-9.64,6.5-14.79"/>
        <path class="cls-2" d="M50.38,187.76c.3.27.9.81,1.2,1.08-2.81,1.29-5.74,3.02-8.96,2.55,2.55-1.3,5.08-2.64,7.76-3.63"/>
        <path class="cls-2" d="M124.81,190.99c.7-1.98,2.5-4.61,4.62-2.67-1.48.46-2.36,1.43-2.63,2.91,1.22-.44,2.44-.92,3.64-1.42.68,1.05,2.04,2.41.96,3.71-2.34,2.38-4.12,5.68-7.5,6.72.82-1.63,2.53-2.84,2.6-4.79-1.84,1.88-4.28,1.49-6.41.46.73-1.85,2.18-3.22,3.75-4.37,1.46,1.39,2.9,2.8,4.33,4.24.93-1.34,1.83-2.69,2.66-4.08-2.13,1.17-4.17.62-6.02-.71"/>
        <path class="cls-5" d="M143.43,188.92c1.6.89,3.19,1.8,4.68,2.88-.27.74-.81,2.21-1.09,2.95-1.33-.64-2.48-2.71-4.17-1.64.76,1.46,2.37,1.65,3.82,1.98-1.69,2.09-3.57,5.78-6.79,3.77.48.47,1.43,1.42,1.91,1.89-1.32,1.32-2.54,2.73-3.79,4.12-1.22-1.27-2.53-2.44-3.79-3.65.43-.53,1.29-1.59,1.72-2.12.83,1.23,1.57,3.15,3.44,2.93.15-1.77-2.12-2.14-3.13-3.03,2.66-3.17,5.29-6.38,7.19-10.08"/>
        <path class="cls-2" d="M45.23,192.78c2.37-1.21,4.9-2.09,7.51-2.6-.61,1.2-1.23,2.38-1.87,3.57-1.37-3.17-3.85,2.06-5.64-.97"/>
        <path class="cls-2" d="M50.55,197.71c0-2.58,2.37-4.13,4.04-5.73.83,1.43,1.64,2.87,2.42,4.34-1.61-.14-3.22-.44-4.83-.54.82,1.14,1.65,2.29,2.49,3.43-1.43-.02-3.65.34-4.12-1.5"/>
        <path class="cls-2" d="M48.29,194.35q.77.55,0,0"/>
        <path class="cls-5" d="M122.46,194.36c.8-1.37,3.55-.17,2.21,1.24-.86,1.14-3.45.2-2.21-1.24"/>
        <path class="cls-2" d="M140.35,195.49c1.21-.45,3.17,1,2.71,2.32-1.2.53-3.53-.99-2.71-2.32"/>
        <path class="cls-5" d="M123.24,209.54c3.82-2.38,7.25-5.28,10.69-8.16.61,1.75,1.94,3.06,3.33,4.23-.95.96-1.88,1.94-2.79,2.95,1.22-2.38-1.4-3.3-2.58-4.64.11,1.8,1.11,3.25,2.42,4.44-.92.8-1.83,1.61-2.73,2.44-.67-1.66-1.59-3.19-3.38-3.71,0,1.97,1.74,2.97,3.04,4.14-1.24.91-2.49,1.83-3.75,2.73-1.16-1.7-2.01-3.85-4.25-4.42"/>
        <path class="cls-2" d="M46.7,209.24c-.17-1.32,2.27-2.73,2.7-1.03.22,1.34-2.28,2.75-2.7,1.03"/>
        <path class="cls-5" d="M120.86,210.98c.54-.28,1.64-.84,2.19-1.11.96,1.51,1.93,3.03,2.92,4.54-.97.74-1.94,1.49-2.9,2.25-.24-.75-.73-2.23-.97-2.97-.41-.93-.82-1.82-1.24-2.71"/>
        <path class="cls-5" d="M53.68,215.74c1.5-1.49,2.98-3.09,2.12-5.34,4.42,3.24,9.62,5.15,14.78,6.84-.41,1.81-.85,3.62-1.27,5.44-.74-.27-2.23-.81-2.97-1.08.62-1.15,1.21-2.32,1.76-3.49-1.87-.01-2.24,1.85-2.97,3.17-1.19-.53-2.39-1.06-3.58-1.56,1.25-.95,2.11-2.22,2.7-3.64-1.99-.02-2.63,1.71-3.03,3.33-.71-.34-2.13-1.03-2.84-1.37,1.19-1.24,1.72-2.83,1.65-4.54-1.05,1.19-1.69,2.63-2.26,4.11-.39-.2-1.15-.59-1.53-.78l.59-1.49-.83-.68-.03,2.14c-.57-.27-1.72-.8-2.29-1.06"/>
        <path class="cls-2" d="M69.96,214.35c-.06-.93-.13-1.86-.21-2.77,1.15,2.7,4.81,2.06,7.12,2.58-.67.45-1.34.9-2.01,1.36-1.61-.5-3.24-.89-4.9-1.17"/>
        <path class="cls-5" d="M116.99,212.94c.87-.43,2.61-1.27,3.48-1.7-.5,2.24.42,4.27,2.22,5.65-1.21.47-2.41.97-3.6,1.5-.64-1.04-1.31-2.06-2.02-3.04-.04-.81-.07-1.62-.08-2.41"/>
        <path class="cls-5" d="M116.46,213.43c-.11.95-.22,1.92-.32,2.89-.27.78-.82,2.33-1.1,3.1.42-.52,1.25-1.56,1.67-2.08l2.28,1.49c-3.3,1.27-6.61,2.5-9.9,3.82-.29-1.97-.95-3.84-1.73-5.64,3.17-.8,6.39-1.67,9.1-3.58"/>
        <path class="cls-2" d="M110.81,220.12c.05-1.3,1.24-4.45,2.37-1.85.03.47.08,1.42.11,1.89-1.02,1.07-1.85,1.06-2.48-.04"/>
        <path class="cls-5" d="M71.6,217.5c2.67.7,5.37,1.33,8.11,1.73-.54,1.89-1.11,3.78-1.58,5.7-2.49-.65-1.45-3.26-1.59-5.1-.88.17-2.62.5-3.5.67-.1,1.06-.2,2.14-.3,3.22-3.97-.09-.91-4.11-1.14-6.22"/>
        <path class="cls-5" d="M102.08,219.13c1.24-1.13,2.88-1.45,4.46-1.84-.08,2.24,3.21,6.61-1.15,6.47.04-.44.12-1.31.16-1.75-1.18-.95-2.34-1.91-3.47-2.88"/>
        <path class="cls-5" d="M89.81,219.92c3.83.04,7.72-.03,11.36-1.39.49.59.97,1.2,1.46,1.82l-1.92.59c.65.03,1.95.08,2.6.1l.14,1.08c-.72.22-2.16.66-2.88.88.8.06,2.38.18,3.18.24l.16.74c-1.04.19-3.12.58-4.16.77-.15-1.48-.31-2.91-.46-4.36-.94.79-2.02,1.22-3.24,1.29.44.05,1.31.14,1.74.19l.06,1.56c-3.65-.38.26.37,1.28,1.2-1.09.18-3.28.53-4.38.71.05-1.4.11-2.79.19-4.18-.22,1.03-.75,1.63-1.6,1.79-.23-.46-.68-1.4-.9-1.87-.85.55-1,1.55-1.27,2.47.47.2,1.42.59,1.9.79l.8.65c-1.01.12-3.03.36-4.04.48-.04-1.86-.05-3.7-.02-5.55"/>
        <path class="cls-5" d="M79.93,219.55c2.69.15,5.38.42,8.08.58.04,1.38-.5,2.47-1.61,3.27.4.39,1.2,1.16,1.61,1.55-.85.14-2.55.44-3.4.58.19-1.61.3-3.21.34-4.81-.82,1.28-1.34,2.72-1.72,4.2-.85.03-2.54.09-3.39.12.06-1.84.08-3.67.09-5.49"/>
        <path class="cls-5" d="M74.06,221.56h.79c-.05.42-.13,1.23-.17,1.63l-.76-.02c.03-.4.11-1.21.14-1.61"/>
        <path class="cls-2" d="M81.39,223.27q.55.67,0,0"/>
      </g>
      <g class="cls-4">
        <path class="cls-2" d="M172.03-159.24c2.15-1.65,4.03-3.97,6.91-4.33,3.65-1.1,7.27.53,10.36,2.36,4.91-2.64,11.46-1.01,14.84,3.37,5.91.02,10.46,4.42,12.97,9.42,5.88,1.68,7.93,7.73,9.4,12.99,4.32,4.22,5.76,10.44,3.84,16.17,3.1,3.35,3.49,8.32,1.84,12.48-1.3,2.71-.15,5.64.2,8.44,5.99-1.43,11.9-3.35,17.23-6.51,9.43-5.38,19.7-9.24,30.4-11.21,17.16-3.32,32.24-12.57,48.48-18.57,5.17-2.42,11.51-2.84,15.57-7.23,2.11-2.2,5.11-4.76,8.39-3.39,6.91,3.16,10.87,10.38,13.76,17.07,5.17,14.07,5.82,30.9-1.99,44.13-5.51,9.37-16.49,12.96-26.46,15.3-16.25,3.62-33.96,5.46-49.71-1.1-11.47-4.27-20.89-13.24-33.12-15.45-4.95-1.08-9.45,1.67-14.25,2.11-4.43-.04-8.82-.78-13.19-1.35-1.28,2.82-2.58,5.76-5.12,7.67-2.72,2.16-4.09,5.57-6.92,7.61-2.91,2.38-7.04,2.87-9.49,5.85-2.61,3.06-6.5,4.37-10.32,5.15-2.67,3.48-6.47,5.77-10.69,6.87-1.82,3.98-4.96,7.03-8.41,9.61-.56,4.25-2.57,8.07-4.58,11.79,1.82,4.05,1.82,8.48.24,12.62,3.84,3.53,4.65,8.67,4.93,13.63,3.1,3.58,4.98,7.9,5.38,12.64,3.45,3.24,5.12,7.7,5.69,12.31,5.15,3.59,7.33,9.68,7.11,15.79,3.2,4.81,3.03,10.5,1.61,15.88,1.45,5.9-.95,12.12-5.45,16.07-.33,6.81-6.22,13.47-13.46,12.1-4.82,4.89-13.33,5.01-18.18.1-5.23.21-10.8-2.76-12.47-7.9-.92-4.17-5.37-6.04-6.81-9.93-1.65-3.04-1.33-6.6.1-9.65-2.86-4.72-1.76-10.56.15-15.4-.88-5.08-.19-10.21,1.78-14.97-1.59-4.08-1.32-8.54-.33-12.71-1.78-2.94-2.89-6.21-3.18-9.62-.34-3.73-4.49-5.32-5.82-8.63-1.18-1.56-1.34-4.6-3.85-4.55-3.72-.1-6.45-2.76-9.62-4.2-3.37.62-6.75,1.58-10.2.91-1.92,2.76-4.76,4.6-7.89,5.72,1.97,3.52,3.15,7.55,1.94,11.56,6.2,3.33,12.61,6.96,16.53,13.05,6.14,8.66,6.49,20.87.9,29.88-4.98,8.27-14.03,12.63-22.18,17.11-.58,3.14,1.48,5.71,2.14,8.65,5.71,2.16,11.79,3.16,17.48,5.43,13.6,5.25,26,13.8,35.3,25.08,15.89,18.5,23.05,44.08,19.43,68.14-3.16,23.5-16.41,45.44-36,58.87-26.93,19.55-65.64,20.9-93.89,3.32C17.81,215.99,1.05,187.14,1.07,157.28c.19-17.6,5.21-35.37,15.55-49.73,9.98-13.93,23.77-25.4,39.93-31.41,5.75-2.28,11.82-3.52,17.76-5.19.66-2.87,1.62-5.65,2.75-8.37-5.77-4.11-12.51-6.84-17.67-11.79-5.24-4.87-8.12-11.89-8.86-18.91-.92-9.59,4.05-19.09,11.74-24.65,4.45-3.47,9.91-5.2,15.27-6.72,1.03-4.03,1.84-8.35,4.75-11.52,2.3-2.77,5.82-3.93,9.17-4.9.95-5.77,6.49-11.64,12.73-8.93,3.67-6.43,12.79-6.79,18.09-2.2,6.13-3,12.93,1.66,15.9,7.02,5.33,1.5,9.69,6.37,9.74,12.05,4.63,3.76,6.61,10.58,4.75,16.24,3.55,4.48,2.86,10.54.28,15.32,3,4.77,1.73,10.68-1.18,15.15,1.93,4.3,1.24,9.03-.44,13.3,1.93,3.51,2.8,7.42,4.13,11.16,3,2.17,5.66,4.72,8.44,7.18,3.43.02,6.92-.26,10.24.86,2.09-2.9,4.57-5.52,7.58-7.49-.98-4.29,2.81-7.05,3.9-10.65-1.21-4.62-1.55-9.4-1.02-14.14-3.02-3.06-5.17-7.05-4.95-11.45-3.54-2.82-6-6.86-6.74-11.34-.44-2.84-3.16-4.47-4.28-6.98-1.97-3.45-.54-8.03-3.46-11.02-2.5-3.37-4.24-8.14-2.12-12.1-4.48-4.39-4.68-11.84-1.23-16.89-2.32-4.79-.77-10.85,3.03-14.41,2.79-2.19,2.11-6.35,4.59-8.8,2.49-3.46,7.1-4.42,9.61-7.86,2.5-3.27,6.27-5.33,10.38-5.62,3.01-4.36,7.77-7.07,13.05-7.55,1.81-2.93,4.23-5.45,7.37-6.94,2.05-.83,2.6-3.09,3.56-4.86-7.86-1.22-16.06-1.46-23.75.83-6.78,1.94-12.94,5.98-20.08,6.57-3.68.32-6.96-1.7-10.13-3.22-3.83,5.12-8.95,10.72-16.01,9.87-7.96.02-9.99-9.74-16.98-11.69-3.92,4.44-10.76,7.25-16.03,3.36-1.55,7.12-5.28,14.05-11.27,18.37-5.59,2.92-12.23,2.26-18.33,2.62-8.16.18-14.07-6.72-17.06-13.6-6.1-14.11-7.51-29.99-5.33-45.13,1.26-8.74,3.5-17.82,9.17-24.81,3.38-4.33,9.18-5.57,14.41-5.34,5.53.27,11.69-.31,16.49,3.03,5.42,3.96,8.05,10.34,11.26,16.01,5.78-3.29,11.87.19,15.72,4.63,6.99-2.37,8.14-11.86,15.78-12.9,6.55-1.14,12.1,3.26,16.01,7.97,3.64-.74,7.36-1.17,11.08-.89,8.61.43,15.94,5.51,23.46,9.18,5.13,2.81,10.78,4.61,15.71,7.79,3.97,2.43,3.26,7.56,4.01,11.51,2.36.85,4.82,1.47,7.24,2.24.56-1.28,1.16-2.54,1.74-3.8-1.75-4.17-2.51-8.83-.68-13.12-2.25-3.86-3.03-8.32-3.26-12.73-3.04-2.48-4.93-5.89-6.11-9.57-3.67-2.93-8.24-4.73-11.22-8.52-4.08.69-8.26-.69-11.4-3.29-5,2.2-10.36.57-15.51,1.41.1,2.27,1.91,5.62-.92,6.93-6.23,2.24-13.38-6.16-9.31-11.8,2.12-3.35,6.37-3.78,9.94-4.29"/>
        <path class="cls-5" d="M69.9,48.79c1.33-1.08,2.69-2.13,4.03-3.21,9.21,4.34,20.07,3.85,29.44.28,1.07,1.28.88,3.02,1.2,4.59l-.9.05c-.27-.84-.82-2.52-1.09-3.36-8.92,3.61-18.65,5.25-28.25,5.3,4.37,5.14,11.47,2.27,17.19,2.3-1.93.84-5.9-.63-5.84,2.46-4.04.21-7.58-2.03-11.35-3.1-.13-1.58-.28-3.15-.4-4.72l-1.28-.15c.12.99.35,3,.49,3.99-1.39-1.29-2.52-2.69-3.24-4.42"/>
        <path class="cls-5" d="M145.09,48.6c1.4,1.35,1.26,3.28,1.43,5.06-.4.37-1.21,1.09-1.61,1.46-.01-2.18,0-4.36.18-6.52"/>
        <path class="cls-5" d="M142.15,56.34l.99-.06c.36,3.63,2.19,6.75,3.79,9.94-3.42-2.09-4.74-6.06-4.79-9.88"/>
        <path class="cls-5" d="M145.93,57.95c1.97.26,4.77.28,4.87,2.99-.7-.32-2.11-.98-2.82-1.31-.12,1.39-.24,2.78-.36,4.19-.69-1.93-1.26-3.89-1.69-5.87"/>
        <path class="cls-5" d="M80.73,60.52c3.31.13,6.65.4,9.87,1.3-3.09.55-6.24,1.11-9.36.66-.13-.49-.38-1.47-.51-1.97"/>
        <path class="cls-5" d="M149.6,64.09c1.78-.11,3.04,2.82,2.86,4.4-2.06,1-4.14-2.79-2.86-4.4"/>
        <path class="cls-5" d="M177.63,73.54c.99-4.59,5.81-5.94,8.91-8.73-1.23,4.59-6.68,4.84-8.91,8.73"/>
        <path class="cls-5" d="M79.26,70.78c.64-6.01,8.16-4.37,12.32-4.05-1.36.17-4.06.5-5.43.66.72.46,2.17,1.41,2.88,1.87-3.27.45-6.51,1.05-9.78,1.52"/>
        <path class="cls-5" d="M155.77,74.01c-.96-1.46-1.92-2.87-2.8-4.35.75.68,2.25,2.03,3.01,2.7l-.49-3.02c.73.44,2.2,1.32,2.94,1.76-.89.96-1.78,1.93-2.67,2.9"/>
        <path class="cls-5" d="M149.79,70.84c2.48,2.79,6.26,4.16,8.43,7.12-3.83-.82-7.43-3.15-8.43-7.12"/>
        <path class="cls-5" d="M165.45,73.11c2.01.4,4.09.88,6.11,1.41-1.99.46-5.04,2.13-1.99,3.74,3.25-.53,6.21-2.36,9.55-2.38-3.13,2.94-8.09,1.9-11.21,4.23.95.86,1.97,1.66,3.07,2.37-1.35-.63-3.26-.27-4.23-1.48l-.27-.94c-2.74-1.62-6-2.77-7.84-5.53,2.73,1.04,5.14,2.73,7.48,4.49.45-.96,1.37-2.87,1.82-3.83-.62-.52-1.86-1.56-2.49-2.09"/>
        <path class="cls-5" d="M26.85,102.23c13.19-15.4,32.64-24.74,52.63-27.1,27.25-2.85,55.49,9.43,72.22,31.08-6.21-5.97-12.22-12.3-19.6-16.85-15.54-9.62-34.25-14.43-52.5-12.49-4.69.46-9.23,1.8-13.9,2.33.77.47,1.55.96,2.36,1.43,9.29-2.4,19.35-3.45,28.7-.83l-.28,1.32c.91-.19,2.72-.56,3.64-.75-.68.47-2.05,1.4-2.72,1.87,13.01,2.76,25.5,8.31,36.17,16.29,11.84,8.99,19.59,22.33,24.54,36.15,6.56,19.99,3.36,42.67-7.47,60.6-14.05,23.22-41.65,37.75-68.81,35.14-16.08-1.49-31.78-8.35-43.37-19.69,10.08,8.59,22.19,14.94,35.36,17.04,21.29,4.11,44.47-2.25,60.51-16.91,19.44-16.52,28.78-43.81,24.08-68.81-2.93-16.1-11.68-31.03-24.15-41.62-12.25-9.83-27.32-16.15-42.93-17.96-20.84-1.52-42.12,6.62-56.53,21.79-18.61,18.31-26.65,47.01-19.1,72.15.76,3.05,3.56,5.53,2.87,8.89-7.6-15.42-10.1-33.59-5.7-50.33,1.34-6.65,4.33-12.78,6.17-19.29-14.35,22.91-15.2,52.95-3.78,77.25-6.66-11.42-9.3-24.81-9.47-37.92.39-19.36,8.07-38.44,21.06-52.79"/>
        <path class="cls-2" d="M55.88,83.58c3.32-1.49,6.72-2.78,10.16-4.04-.21.54-.64,1.61-.85,2.14-3.15.41-6.15,1.58-9.3,1.9"/>
        <path class="cls-5" d="M75.47,88.36c13.64-3.03,28.08-.53,40.78,4.94,17.71,7.55,31.43,23.26,37.43,41.47,4.94,14.18,4.51,29.94-.25,44.11-3.99,12.39-12,23.19-21.77,31.66-13.39,11.15-31.07,16.96-48.46,16-19.28-1.6-38.13-10.91-50.07-26.29-9.16-11.9-15.14-26.62-14.97-41.8-.51-16.51,5.39-32.85,15.57-45.76,10.38-12.77,25.49-21.61,41.73-24.33"/>
        <path class="cls-2" d="M73.06,90.93c7.25-1.13,14.66-1.26,21.98-.74,7.52.6,14.48,3.82,21.77,5.52-.91,1.08-1.8,2.17-2.58,3.34,1.33.82,2.67,1.66,4,2.49l.37-1.92c.97,1.2,1.85,2.55,3.28,3.31,1.67,1.78,3.53,3.35,6.22,3.07-2-4.86-8.65-4.16-10.77-9.12,15.26,7.03,27.48,20.53,32.83,36.51-1.27-.89-2.54-1.79-3.77-2.68.24,1.35.7,4.06.92,5.43,1.16-.95,2.29-1.97,3.34-3.03,1.27,6.59,4.04,13.2,3.65,19.91l-.7-.07c-.49-1.46-1.42-2.45-2.78-3,.12,1.9.21,3.85.73,5.72.71-.27,2.12-.83,2.83-1.1.85,3.29-.04,6.74-.44,10.06-2.67,17.04-10.69,33.83-24.6,44.49-6.23,5.44-13.77,9.03-21.52,11.74.06-.59.17-1.77.22-2.36,2.63.46,4.15-.52,4.54-2.96-1.94.38-3.56,1.49-5.34,2.2-1.74.17-4.68-.24-4.55,2.51,1.78-.21,3.7-.01,5.31.85-9.51,2.29-19.3,3.84-29.09,2.38.15-.83.47-2.5.63-3.33-1.94-.27-4.74-2.06-5.33.95l4.04.28c-1.79,1.14-4.06,1.59-6.13,1.33.56-1.21,1.16-2.38,1.81-3.52l-1.99-.21c.53-.59,1.09-1.17,1.65-1.74,7.54,2.42,15.81,2.95,23.51.97.26,1.32.54,2.63.85,3.97,1.55-.72,3.23-1.35,4.58-2.47-1.8-.54-3.53-1.02-5.21-1.78,8.49-.51,16.06-4.81,23.52-8.21-.21.56-.64,1.66-.85,2.22,2.71,2.32,4.85-1.81,7.1-2.95.19-.71.58-2.12.77-2.82-1.93.95-3.29,3.2-5.62,3.18l-.71-.36c8.03-5.91,15.7-13.07,19.75-22.37.81.53,1.62,1.09,2.45,1.67,1.9-.51,4.16-2.84,2.04-4.51h-.69c-.72.33-1.42.33-2.1,0,3.14-4.67,4.52-10.19,5.93-15.56.81.24,2.42.72,3.22.97-.07-1.73,1.88-4.94-.95-5.37-.42.95-1.24,2.83-1.66,3.77,1.52-13.56-.02-27.89-6.93-39.88-7.1-13.18-18.65-24.29-33.13-28.78,1.5-.57,3.01-1.03,4.6-1.43-1.68-1.86-3.98-2.68-6.47-2.27.83,1.13,1.66,2.27,2.5,3.43-2.57-.89-5.2-1.55-7.87-2,1.69-.85,3.5-1.15,5.44-.76-.82-2.5-3.26-2.94-5.52-2.63-.08.83-.26,2.5-.34,3.33-1.54-.36-2.85-1.04-3.96-2.06l3.32-.08c-.32-.64-.96-1.92-1.28-2.56-1.6,0-3.18.01-4.74.04-1.9-.08-6.33-2.1-5.9,1.14,2.41,1.26,5-.04,7.51-.21-.62.76-1.23,1.5-1.85,2.24-5.72-1.23-11.65-1.03-17.35.15l-.43-.83c-.02-.65-.08-1.94-.11-2.6-1.48-.26-4.65,2.81-4.85.3.21-.3.65-.88.86-1.17"/>
        <path class="cls-5" d="M77.55,93.77c.15-2.89,2.93-2.12,4.74-2.3,1.08-.01,5.46-.46,3.22,1.71-1-.07-2.96-.23-3.95-.3-.99.21-3.01.66-4.02.89"/>
        <path class="cls-2" d="M36.23,114.06c8.85-10.21,20.3-19.11,33.81-21.74-.59,1.28-1.15,2.58-1.68,3.9,2.48-.45,4.88-2.94,7.44-1.48-.11.19-.31.56-.42.75-4.55.99-8.9,2.64-13.21,4.36-.34.56-1.04,1.66-1.39,2.2,2.97,5.37,5.9,10.78,9.21,15.97-1.77.72-3.48,1.49-5.19,2.3-.85-1.39-1.54-3.2-3.57-2.68-1.15-4.23-4.89-6.91-7.59-10.12,1.04-.63,3.1-1.87,4.13-2.5l-.39,2.3c2.93,3.86,5.84,7.83,9.61,10.94-2.03-5.13-4.79-10.17-8.82-13.99h2.1c-.65-.84-1.28-1.66-1.91-2.48-1.11.75-3.34,2.24-4.45,2.98l-.33-.89c.66-5.37-6.43-.9-2.69,1.65-.02.32-.05.95-.06,1.26-13.51,9.75-22.84,25.31-24.76,41.89-1.48-.18-3.14-1.22-4.43.18,1.48.85,3.06,1.67,4.49,2.68-1.29,10.82.49,22.43,5.52,32.15-1.37.04-2.74.11-4.09.22,1.81,3.18,3.47,6.52,5.94,9.28.15,1.64,1.21,2.81,2.43,3.84,1.01-2.05.69-3.71-1.65-4.42-.3-2.69-3.33-3.73-3.59-6.51.41-.76.84-1.5,1.28-2.24,2.38,7.06,7.5,12.69,12.68,17.86,2.16,2.07,4.3,4.24,7.06,5.53-.66.57-1.33,1.14-1.97,1.73-.71-1.88-2.23-2.86-4-3.44-.4-1.93-1.71-2.9-3.9-2.93.38,1.87,1.5,3.15,3.4,3.83,1.15,1.05,2.36,2.07,3.63,3.03,2.25,1.68,4.59,3.27,7.06,4.63,1.08.59,3.23,1.76,4.31,2.35-.79-2.29-1.56-4.96-4.55-3.46-.21-.72-.65-2.18-.86-2.9l-2.12,1.62c-.26-1.34-.51-2.68-.75-3.99,5.76,4.07,12.22,7.29,19.12,8.82.05.38.13,1.14.17,1.52l-2.03-.68c-.02.64-.06,1.93-.08,2.58l3.34.22c-.92.52-1.84,1.04-2.75,1.56-16.53-5.49-32.11-16.06-40.45-31.71-6.55-12.5-10.07-26.94-8.25-41.07.4-3.19,1.16-6.33,1.47-9.52.5-.09,1.5-.3,2-.39l-1.01,3.76c3.78.51,3.7-4.03,2.59-6.42l-1.14,3.21c-.66-1.46-1.23-2.93-1.67-4.44,1.46-.12,2.7.7,4.03,1.23.76-1.55,1.51-3.1,2.23-4.67-2.26-.36-3.41.62-3.47,2.94-.43-.79-.83-1.58-1.22-2.36,3.35-6.34,6.42-12.95,11.39-18.24"/>
        <path class="cls-5" d="M87.1,92.16q.78.81,0,0"/>
        <path class="cls-5" d="M65.82,94.77c4.46.21-2.61,4.95-3.48,2.2.71-1.33,1.87-2.06,3.48-2.2"/>
        <path class="cls-5" d="M54.05,102.27c.64-3.04,3.88-4.4,6.51-5.33,2.65,1.28-1.04,2.95-2.19,3.51-1.42.65-2.87,1.27-4.31,1.82"/>
        <path class="cls-2" d="M80.85,96.69c2.29.26,3.06,2.51,4.24,4.16.11-.89.32-2.69.44-3.58,1.65-.07,3.32-.14,5-.21.17,5.24-.25,10.49.2,15.71,1.72-5.34-1.73-12.03,2.31-16.49,1.3,5.81-.21,11.83.94,17.68-2.99-.11-5.97-.12-8.95.03.11-1.82.2-3.65.3-5.46l-1.27,2.63c-1.31-2.24-.88-4.86-1.07-7.31-.44-2.48-1.45-4.77-2.14-7.16"/>
        <path class="cls-5" d="M87.17,97.47c2.08,4.68.84,10.12,1.18,15.12-3.33-4.19-2.76-10.32-1.18-15.12"/>
        <path class="cls-5" d="M43.17,109.06c1.55-1.92,3.05-4.09,5.43-5.07,2.6,3.12-2.11,3.79-4.04,5.19-.6,1.16-1.19,2.32-1.75,3.5-1.18.12-2.37.21-3.53.31,1.02-1.56,2.35-2.88,3.9-3.92"/>
        <path class="cls-2" d="M107.88,119.4c3.72-4.86,6.47-10.34,9.56-15.59,1.97,1.42.68,3.45-.21,4.93-2.26,3.85-5.05,7.44-6.49,11.72-.97-.36-1.92-.71-2.86-1.06"/>
        <path class="cls-5" d="M128.13,105.96c1.22-.74,3.24,1.21,2.31,2.4-1.33.79-3.6-1.14-2.31-2.4"/>
        <path class="cls-5" d="M132.02,109.7c1.67-.35,2.36.3,2.09,1.96-1.68.34-2.38-.31-2.09-1.96"/>
        <path class="cls-2" d="M82.11,111.39c.37.15,1.09.46,1.46.6l-.49,1.01-1.1.02-.49-.98.62-.65Z"/>
        <path class="cls-5" d="M38.78,113.75c2.35.66-1.01,4.61-2.64,3.9-.51-1.66,1.18-3.38,2.64-3.9"/>
        <path class="cls-5" d="M135.73,113.51c1.46-.69,3.03,1.81,1.86,2.91-1.47.57-2.73-1.82-1.86-2.91"/>
        <path class="cls-5" d="M139.14,117.54c1.49-.52,2.75,2.05,2.06,3.28-1.59.57-2.65-2.08-2.06-3.28"/>
        <path class="cls-5" d="M34.05,119.19c2.87-1.67,2.25,3.22.06,3.51-2.68,1.02-1.56-2.95-.06-3.51"/>
        <path class="cls-2" d="M61.26,119.12c1.75-.59,2.47.15,2.16,2.24-1.77.54-2.48-.2-2.16-2.24"/>
        <path class="cls-2" d="M121.45,129.34c5.1-2.49,9.83-5.63,14.8-8.34-3.27,4.29-7.7,7.54-11.51,11.33,4.77-1.93,8.84-5.21,13.39-7.58.37.4,1.13,1.21,1.5,1.62-4.77,2.77-9.72,5.32-14.21,8.53,5.68-1.61,9.98-6.34,15.91-7.39-.15.57-.46,1.72-.62,2.29-4.93,2.55-9.94,4.98-14.54,8.09-.94-1.39-1.87-2.78-2.77-4.16-10.59,5.85-19.43,14.27-29.42,21.02.97,4.22-2.86,9.09-7.35,7.82-3.77-.74-5.53-4.57-5.34-8.09-4.06-2.58-7.8-5.66-11.87-8.22-.79-.01-2.38-.05-3.18-.06-4.54-4.69-8.48-9.92-13.88-13.7-.49.73-1.47,2.22-1.96,2.95-1.42-1.04-3.03-1.72-4.79-1.48,1.41,1.11,2.84,2.22,4.32,3.29-.59.21-1.16.43-1.74.62-2.2-2.14-3.82-5.13-6.84-6.23-2.32-.9-4.75-1.43-7.13-2.12.98-2.62,3.39-1.1,5.4-.66-1.41-1.29-2.26-2.83-2.56-4.62,3.61,4.6,8.78,7.54,14.69,7.84,5.02,2.69,10.33,4.8,15.71,6.68,2.55.72,2.99,3.85,5.07,5.25,3.44,2.64,6.99,5.14,10.75,7.3,2.81-.89,5.85-1.64,8.21.73,9.87-7.69,21.07-13.77,29.92-22.7"/>
        <path class="cls-5" d="M142.21,122.94c1.8-.51,2.56.24,2.25,2.25-1.84.45-2.58-.3-2.25-2.25"/>
        <path class="cls-5" d="M28.72,127.77c1.21-1.67,1.94-3.92,4.19-4.53-.84,2.22-1.86,4.37-2.49,6.68-.72.01-2.17.04-2.9.05.31-.55.9-1.66,1.2-2.2"/>
        <path class="cls-5" d="M144.06,126.19c1.73-1.07,3.33,2.24,2.55,3.64-1.86.94-3.24-2.19-2.55-3.64"/>
        <path class="cls-5" d="M148.05,136.58c3.34.26,3.92,5.83,2.61,8.27-1.17-2.67-1.98-5.45-2.61-8.27"/>
        <path class="cls-5" d="M23.21,144.67c1.95-.72,2.63-.12,2.01,1.84-1.94.71-2.62.09-2.01-1.84"/>
        <path class="cls-5" d="M150.73,145.53c1.71-.96,2.67,2.19,1.73,3.32-1.78,1.04-2.84-2.23-1.73-3.32"/>
        <path class="cls-5" d="M22.29,151.57c1.84-1.72,3.28,2,1.62,3.06-1.98,1.47-2.95-1.93-1.62-3.06"/>
        <path class="cls-2" d="M27.88,151.76c5.37,2.96,11.6,2.07,16.99-.31l-.13,2.68c-4.78,2.67-10.9.79-15.2,4.21,4.76.41,9.56.32,14.36.41-.83-.66-2.51-1.99-3.34-2.65,1.01-.1,3.05-.28,4.05-.38.01,1.8.03,3.6.07,5.43-5.53-.96-11.16-.59-16.74-.59-.08-1.62-.17-3.24-.21-4.82,1.54-.52,3.07-1.08,4.59-1.67-1.16-.14-3.48-.45-4.65-.59.05-.43.17-1.28.21-1.71"/>
        <path class="cls-2" d="M130.54,152.67c5.97.96,12.5-1.09,18.1,1.16-5.63,2.05-11.69,1.03-17.52,1.42-.14-.65-.43-1.94-.58-2.58"/>
        <path class="cls-5" d="M86.63,155.23c1.84-.59,2.52.1,2.07,2.05-1.88.59-2.57-.08-2.07-2.05"/>
        <path class="cls-5" d="M21.8,157.6c.81-1.48,1.67-1.5,2.58-.06-.85,1.5-1.72,1.53-2.58.06"/>
        <path class="cls-2" d="M130.74,155.8c5.68.34,11.38.15,17.05-.32-.04,1.23-.1,3.7-.12,4.93-5.72-.11-11.43-.08-17.13.25l.28-2.62c4.97.15,9.94.07,14.93.21l.09-.74c-5,.12-10.01.02-15,.27l-.11-1.99Z"/>
        <path class="cls-5" d="M152.03,157.52c2.19.24,1.81,5.95-.7,5.13-.66-1.55-.43-3.85.7-5.13"/>
        <path class="cls-5" d="M23.31,160.04c1.8-.13,1.65,3.04-.07,2.99-1.67-.11-1.47-2.84.07-2.99"/>
        <path class="cls-5" d="M22.11,165.2c.76-.18,2.26-.54,3.02-.74.04,2.22.05,4.44.17,6.67l.98-.39c.32,2.17.62,4.35.88,6.55-3.61-1.11-2.7-5.88-3.67-8.83-.34-.82-1.03-2.45-1.37-3.27"/>
        <path class="cls-2" d="M64.97,193.87c-.65-10.95,7.99-20.78,18.46-23.01,1.86,1.98,4.58,1.41,7.03,1.59,1.8.75,3.64,1.49,5.65,1.29-1.34-.75-4.02-2.25-5.36-3,7.3,1.14,14.23,5.65,17.41,12.45,2.11,4.12,1.79,8.86,2.54,13.32-1.67,8.39-6.97,16.72-15.62,19.1-9.76,4.05-21.87-1.01-26.67-10.23-.91-1.1-1.09-3.35-2.77-3.44-.95,3.09-1.21,6.35-1.84,9.51-1.01-.52-1.99-1.02-2.95-1.52,1.53-3.27,1.91-7.39,4.74-9.85.26-2.06.1-4.15-.5-6.27-2.7,3.7-3.97,8.38-7.22,11.64.44.02,1.33.09,1.77.12.95.66.76,1.65-.57,2.96-1.26-.63-3.02-.66-3.47-2.22,1.39-2.81,3.21-5.37,4.47-8.24-2.73,2.23-3.9,5.69-5.61,8.66-.41-.38-1.23-1.11-1.63-1.48,2.96-4.89,6.19-9.62,8.89-14.67.32,1.02.65,2.06.97,3.12l2.29.14Z"/>
        <path class="cls-2" d="M85.19,170.91c1.56-.64,3.15-.66,4.75-.05-.37,1.69-3.53,1.12-4.76.57v-.52Z"/>
        <path class="cls-5" d="M149.43,170.9l1.76-1.01c-.44,4.17-2.31,8.02-3.23,12.11-.45.02-1.36.09-1.81.12.4-3.51,2.3-7.51,3.28-11.22"/>
        <path class="cls-5" d="M80.17,173.4c.88-.18,2.64-.54,3.53-.74-1.35,1.3-1.56,2.54.3,3.38.82-.54,2.44-1.63,3.26-2.18-.26.78-.77,2.35-1.03,3.14l-2.31-.51c1.05.73,2.17,1.39,3.35,1.95.13.28.39.85.51,1.14.92-.81,1.86-1.59,2.81-2.37-1-1.09-1.94-2.22-2.87-3.34,2.7.39,5.39.92,7.99,1.81-1.01,1.58,2.07,5.78,1.36.86l2.18.84.33.58c.94,1.09,1.62-.53,2.18-1.13,1.02,1.16,2.19,2.17,3.51,3.04-1.75-.27-3.54-.45-5.25.05,2.11-.02,2.65,1.72,3.25,3.44.78-.94,1.53-1.91,2.32-2.83,1.41,3.4,2.48,6.94,1.93,10.68l-1.66-.18c.57.57,1.71,1.71,2.28,2.26-1.17.14-3.52.43-4.69.57l1.41.69c.7-.05,2.1-.17,2.8-.23-.92,2.54-1.78,5.11-2.61,7.69l-1.3-.47c1.47,4.48-3.71,7.31-6.91,9.19l-.33-2.86c-.52,1.36-1.02,2.71-1.45,4.12-1.73.4-3.45.84-5.13,1.31.02-1.49.06-2.96.11-4.43-1.5,0-3,0-4.48.02-.38,1.47-.6,2.96-.77,4.49-5.06-1.84-9.89-4.51-13.25-8.83,1.33-.13,2.67-.26,4-.4.08-.62.24-1.87.31-2.49l-3.41.95,2.67-2.89c-.81.15-2.43.45-3.24.6.1.66.26,2.01.35,2.68-1.8-.75-2.85.96-3.85,2.14.56-.97,1.68-2.93,2.25-3.91l-2.74.58c.2-1.76.44-3.52.7-5.26l-1.54.7c-.09-3.01-.2-6.02-.18-9.02l1.16-.09c-.11,2.78-.08,5.58-.05,8.39.76-.85,2.26-2.56,3.02-3.4-.88-.34-1.73-.66-2.56-.97.83-2.5.34-5.95,2.8-7.6.42.97,1.26,2.92,1.67,3.89,0-.92-.02-2.75-.02-3.66.85.11,2.58.31,3.45.41l-1.68-1.41c-.67.05-2.01.14-2.68.19-1.29.01-2.57.06-3.83.13,2.07-2.41,3.4-5.94,6.73-6.86-1.68,2.09-3.65,3.95-5.05,6.26,1.41-.85,4.23-2.56,5.64-3.41-.02-.79-.09-2.36-.12-3.14,1.98.43,4.61,2.83,6.03-.13-2.45,1.05-4.44-.52-6.22-1.84,1.35-.13,4.05-.38,5.42-.51l-.4-1.11Z"/>
        <path class="cls-2" d="M127.41,173.34c4.72,2.79,9.4,5.65,14.43,7.84-.7,1.61-1.34,3.25-1.93,4.9-1.7-.6-3.41-1.21-5.12-1.64,1.26,1.13,2.78,1.93,4.28,2.75-.88,1.27-1.73,2.56-2.63,3.8-4.74-2.7-9.3-5.77-14.32-7.96,1.87-3.18,3.71-6.37,5.3-9.7"/>
        <path class="cls-5" d="M26.36,178.44c1.75-1.11,3.35,2.18,2.32,3.51-1.85.97-3.36-2.13-2.32-3.51"/>
        <path class="cls-2" d="M36.55,189.26c5.02-3.46,10.62-6.03,16.24-8.35-.99,2.84-3.78,4.31-5.86,6.27-2.55,1.94-4.6,4.58-7.62,5.83-.08-3.01,2.94-4.26,4.82-6.02-2.44,1.02-4.89,2.15-7.58,2.28"/>
        <path class="cls-2" d="M104.39,183.69q.74.78,0,0"/>
        <path class="cls-2" d="M88.86,189.11c1.04-1.61,2.22-3.12,3.59-4.45-.65,1.92-1.44,3.8-2.18,5.71,1.04,2.03,1.01,4.86-1.2,6.11-3.23,2.22-4.31,6.16-5.47,9.68-.35-.15-1.07-.46-1.42-.62.71-3.52,4.41-6.8,2.7-10.42-1.15-2.89,2-4.68,3.98-6.02"/>
        <path class="cls-2" d="M73.82,185.99q.79.66,0,0"/>
        <path class="cls-2" d="M106.71,187.57c-1.39,1.28-2.84-2.48-1.07-2.69.26.68.81,2.01,1.07,2.69"/>
        <path class="cls-5" d="M141.45,189.57c2.81-.94,2.05,3.86-.32,3.53-1.75-.41-.82-2.95.32-3.53"/>
        <path class="cls-5" d="M135.68,199.51c-.38-2.89,2.79-5.33,5.27-6.17-1.3,2.06-2.2,6.58-5.27,6.17"/>
        <path class="cls-5" d="M36.72,196.83c1.72-.28,2.35.37,1.9,1.99-1.72.28-2.36-.38-1.9-1.99"/>
        <path class="cls-2" d="M111.23,195.92c3.13,3.49,6.15,7.1,9.4,10.5.01.39.01,1.15.01,1.53-2.68-1.3-4.53-3.79-6.4-5.98-.46.85-.93,1.71-1.38,2.57-.62-2.87-1.24-5.72-1.64-8.61"/>
        <path class="cls-2" d="M69.04,199.31l1.08.05.47.98c-.37.14-1.1.44-1.48.58l-.59-.64.52-.97Z"/>
        <path class="cls-2" d="M101.23,199.57c1.86-.6,2.61.06,2.24,1.98-1.91.59-2.65-.07-2.24-1.98"/>
        <path class="cls-5" d="M39.37,201c.13-1.87,2.93-.81,3.05.58-.21,1.86-3.06.92-3.05-.58"/>
        <path class="cls-5" d="M133.08,200.55c1.76-1.63,3.18,1.28,1.35,2.28-1.68,1.78-3.31-1.39-1.35-2.28"/>
        <path class="cls-2" d="M100.37,203.02q.74.81,0,0"/>
        <path class="cls-2" d="M102.15,202.58q.74.76,0,0"/>
        <path class="cls-5" d="M105.87,202.72c4.03.17-2.13,3.39,0,0"/>
        <path class="cls-2" d="M60.82,203.97q.44.44,0,0"/>
        <path class="cls-5" d="M128.47,207.02c-.9-1.49.54-3.71,2.23-3.67,2.68.84-.33,4.92-2.23,3.67"/>
        <path class="cls-2" d="M113.8,205.31c.37-.06,1.1-.15,1.47-.2.22.81.66,2.43.88,3.23-.08,1.28-.65,1.81-1.69,1.6-.72-1.47-.94-3.02-.65-4.63"/>
        <path class="cls-2" d="M78.71,207.37q.69.69,0,0"/>
        <path class="cls-5" d="M103.31,207.51q.37.4,0,0"/>
        <path class="cls-5" d="M101.49,209.75q.32.35,0,0"/>
        <path class="cls-5" d="M86.22,211.68c.36-.43,1.07-1.27,1.41-1.69,2.5.05.81,4.18-1.09,2.64l-.32-.95Z"/>
        <path class="cls-5" d="M94.54,213.11c2.31-2.18,2.38,2.73-.02.91l.02-.91Z"/>
        <path class="cls-5" d="M117.03,212.89c3.68-.34-.74,3.72-2.58,3.39-3.64.18,1.59-2.78,2.58-3.39"/>
        <path class="cls-5" d="M60.75,217.05c-.18-1.26-.31-2.51-.42-3.76.77.77,2.33,2.32,3.12,3.09,2.67-1.12,4.41.36,4.96,3.09-1.75-.4-3.33-1.13-4.74-2.18-.74-.06-2.2-.19-2.93-.25"/>
        <path class="cls-5" d="M87.93,215.73c-2.16-.3-5.27.77-6.08-1.94,3.59,1.03,7.32.76,10.97.15-.52,2.18-3.26,1.58-4.89,1.79"/>
        <path class="cls-5" d="M80.58,221.3c.28-1.93,3.66-1.78,4.06.04-.26,1.99-3.73,1.82-4.06-.04"/>
        <path class="cls-5" d="M86.96,220.45c1.84-.88,3.61,2.11,1.03,2.37-1.9.85-3.61-2.16-1.03-2.37"/>
        <path class="cls-5" d="M90.64,220.59c2.1-.2,4.18-.35,6.32-.38-.9,2.59-3.89,2.22-6.02,2.81-.07-.6-.22-1.82-.3-2.43"/>
      </g>
    </g>
  </g>
</svg>