<?xml version="1.0" encoding="UTF-8"?>
<svg id="Layer_1" data-name="Layer 1" xmlns="http://www.w3.org/2000/svg" xmlns:xlink="http://www.w3.org/1999/xlink" viewBox="0 0 451.49 501.49">
  <defs>
    <style>
      .cls-1 {
        fill: none;
      }

      .cls-2 {
        fill: #1f3d3a;
      }

      .cls-3 {
        clip-path: url(#clippath-1);
      }

      .cls-4 {
        clip-path: url(#clippath);
      }
    </style>
    <clipPath id="clippath">
      <rect class="cls-1" width="451.49" height="501.49"/>
    </clipPath>
    <clipPath id="clippath-1">
      <rect class="cls-1" width="451.49" height="501.49"/>
    </clipPath>
  </defs>
  <g id="Poplar">
    <g class="cls-4">
      <g class="cls-3">
        <path class="cls-2" d="M205.22,5.79c.52-1.75.98-4.26,2.16-5.66.41-.11.48-.23.86,0,.97.57,2.24,3.91,3.41,3.62,1.21-.31,2.32-2.07,3.17-2.93.61,1.15,1.24,2.96,2.24,3.76,1.72-.14,3.63-1,5.21-1.67.6.32.74.38.92,1.09.31,1.18-.37,3.27-.66,4.43.83-1.21,1.62-2.44,2.48-3.64,1.32.83,2.64,1.72,4,2.49.81-.77,1.64-1.72,2.65-2.19l.47.08c.35.57.61,2.03,1.26,2.19,2.82.67,2.5-.03,5.01,2.04-.15,1.07-.28,2.16-.4,3.24,1.06-.63,2.22-1.53,3.48-1.63.61.26.83.34,1.18.95.18.34.28.78.4,1.15,1.09-1.21,2.16-2.49,3.42-3.53l2.42,3.89c.58-1.75,1.43-4.82,3.05-5.8.4-.24.61-.14,1.06-.11,1.98,1.23,3.4,6.3,5.24,6.64,3.07-2.38,3.07-5.61,5.2-6.5l.57.15c.26.52.49,1.03.71,1.57.58-.03.34.08.69-.21.51-.43.84-.8,1.55-.84.61.34.92.46,1.2,1.18.61,1.63-.7,4.05.22,5.45,2.06.66,3.91-2.59,5.7.97.38.75.57,1.6.78,2.41.52.18.51.15,1-.08.32-.15.6-.35.89-.55.55-.38.83-.51,1.5-.55.69.2,1.04.37,1.58.86.28.64.4,1.17.15,1.83-.41,1.1-1.23,1.99-1.24,3.22.45.7,1.2.41,1.14,1.26l-.84.74.2.2c.09-.02.17-.05.26-.06.69-.14,1.1-.25,1.78.03.38.38.75.75,1.15,1.09.49-.35.57-.58.83-1.12l.18-.08.17.38c.44,1.01,1.99,2.94,1.66,4.05-.2.67-.74,1.21-1.18,1.75v.31c.52.52.72.77,1.47.87,1.07-.28,2.29-1.95,3.28-1.41.61.34.94.86,1.35,1.4l.64.83c.86-.26,1.46-.8,2.16-1.33.89,1.35,1.56,2.62,2.09,4.17-.03.09-.06.18-.11.28-.83,2.13-1.9,4.42-3.24,6.27-.26.35-.15.2-.32.72.61.8,1.52,1.27,2.36,1.79.74-.6,1.18-1.03,2.16-1.09.63.32.74.35.95,1.07.32,1.07-.03,2.52-.2,3.61.34.35,1.07.9,1.29,1.3,1.4,2.59-.31,2.12,3.64,2.58.05-.89-.03-2.3.63-2.96.44-.43.96-.61,1.55-.8.14-.92-.8-2.15.06-2.81.64-.51,1.47-.6,2.25-.43.91.18,1.29.72,1.79,1.41l.2-.06c.22-1.1-.38-2.22-.98-3.13.77-.03,1.58.78,2.26,1.18.74-1.84.14-2.96,1.66-4.6.52-.12.48-.17,1.03,0,.49.15.8.12,1.3,0,.51-.69.77-1.3,1.59-1.61,1.1.51,1.46,1.56,1.93,2.62,1.03.25,2.36.4,2.9,1.44.58,1.15.11,3.24.08,4.51,1.55-.83,3.73-2.42,5.51-2.16.43.45.52.69.49,1.32-.03.43-.14.87-.22,1.3l.23.58.54.15c1.2-.77.77-1.96,2.58-2.04.77.49,1.29,1.07,1.89,1.75,1.66-.9.8-2.81,3.25-3.02.64.31.86.34,1.14,1.06.34.86.08,2.35,0,3.25.48.23.92.34,1.43.47.75.18,1.4.38,1.79,1.12.58,1.03.21,2.71-.21,3.74-.41,1.04-1.27,2.07-1.92,2.99,1.69-.05,5.08-.83,6.44,0,.21,2.68-3.63,4.08-3.04,6.55,1.44,1.2,3.82-.12,4.91,1.58-.05,1.03-.86,1.84-1.57,2.52-1.3,1.24-2.87,2.18-4.57,2.74-1.37.45-3.88.11-4.68,1.44.4.55.78.55,1.43.66,2.67.45,8.24.49,10.17,2.7.28.31.23.46.28.84-.28.6-.58.91-1.04,1.38-.58.57-.87.98-1.18,1.73-.15.38-.32.75-.46,1.14-3.2.8-5.48.18-8.25-1.44-1.49.41-3.68.81-4.72,2.05l.03.48c1.79,1.01,4.39.15,6.33.75,2.21.68,2.62,2.96,5.43,2.85.14,0,.26-.03.38-.06,1.21-.32,2.03-1.83,3.28-1.18.54.28.95.78.95,1.4.02.55-.23,1.29-.37,1.84.21.69.2.72.81,1.12.72.06,1.44.14,2.18.19-.18.96-.45,1.64-.11,2.59l.51.31c.58-.28.72-.38.98-1.01,1-2.41-3.41-5-1.43-7.09.66-.2,1.2-.31,1.89-.35.18-.52.31-1.03.4-1.58l.28-.18c.72.31,1.67.88,2.45.75.11-.55.05-1,.49-1.35,1.01.26,1.72.92,2.22,1.81.38.69.66,1.49.92,2.22,1.36-.67-.28-1.4,1.96-1.52.52-.58.6-.84,1.38-.97.78.38,1.17.74,1.49,1.55.35.92.48,1.89.58,2.87l.61.06c.43-.48.45-.74.4-1.35-.05-.6-.17-1.21-.28-1.8l.43.41c.77-.06,1.17-.21,1.84.17.17.57.31,1.12.41,1.69.52.4.45.32,1.04.34.58-.45.67-1.1.86-1.78.78-.32,1.58-.17,2.39-.09l.17-.49c.15-.43.32-.8.58-1.2.66-.08.77-.09,1.3.38.29.26.55.66.8.98l.38.08c.49-.55.58-.83,1.33-.9.66.32.78.34,1.14.96-.11,1.5-1.07,2.44-.15,3.87.84.49,1.72.37,2.65.35-.4.98-.8,1.98-1.24,2.93-.93.67-2.7,1.69-2.96,2.88-.08.34.03.29.28.61,2.07.66,6.41-.14,7.73,1.47.05.69-.14,1.18-.58,1.72-.6.72-1.36,1.38-2.04,2.04,1.3.08,2.52.2,3.54,1.06.11.4.26.57.06.97-1.4,2.73-8.14,4.48-8.17,5.05.63.58,1.53,1.23,1.76,2.05-.29.52-.38.52-.93.78-1.04-.12-1.9-.49-2.85-.89-1.85.28-3.97.51-5.41,1.86-.09.49-.15.61.17,1.04,1.43,1.92,3.02,2.12,4.76,5.06.55-1.35.89-2.44,2.28-3.13.94.21,1.04.81,1.8,1.29,1.23.8,2.56-.51,3.94.83.26,1.01-.18,1.86-.71,2.71-.9,1.5-2.24,2.64-3.08,4.17,2.16.02,3.41.17,5.06-1.41.47-.46.91-1,1.32-1.5.66-.04.65.02,1.12.45,1.09,1.03,1.98,2.55,2.79,3.79,2.04.25,5.28.21,6.83,1.66.26.67.35.83.08,1.55-.69,1.8-2.88,1.92-3.94,3.24-.61.75-.18,1.87-.92,2.56-.58.54-1.66.86-2.38,1.18-.92-.24-1.76-.43-2.71-.48l-.14.28c1.44,1.33,3.79,2.24,5.6,3.04l.57-.63c1.87.05,3.18.67,5.03.03.32.12.44.09.58.41.4.97.78,2.15.41,3.16-.38.12-.51.08-.89.01-.51.43-.8,1.03-.86,1.7-.03.34-.01.38.03.67l.43.2c.26-.24.46-.44.66-.75l.24.18c1.93,1.41,5.2,2.64,6.23,4.83l-.12.52c-1.23.67-2.5.95-3.7,1.73-1.32-.17-3.67-.18-4.8.66-.21.17-.29.31-.43.52.05.08.09.15.14.23.49.87.73,1.52.47,2.53-.21.87-.84,1.98-1.66,2.44-.63.37-1.07.46-1.76.25-3.02-.95-4.57-4.33-7.3-5.72-2.09-1.07-7.24,2.65-10.15-4.03-.29-.64-.32-1.06-.4-1.73-.02-.14-.09-.51-.12-.67-1.61-.32-2.84,1.24-4.36,1.43-2.1.26-.41-2.45-4.66-.41-.74.35-1.75.71-2.39,1.2-.24.18-.28.26-.45.48.26.63,1.03,1,1.57,1.43,1.26-.43,2.06-1.93,3.5-1.14.72.4,1.12,1.18,2.01,1.21.04-.08.09-.14.14-.21.23-.34.14-.21.49-.54,1.47.51,3.11,1.43,4.25,2.52.38.88.32,1.61.28,2.56.57.37,1.23.28,1.86.17,1.14-.18,2.67-.87,3.79-.67l.11.43c-.43.46-.84.8-1.33,1.17l.05.35.63.4c-.11.6-.26.78-.75,1.1-2.7,1.8-7.33,1.8-10.84,3.64.45.23,1.41.57,1.76.89.84.77,1.66,3.36,2.03,4.43.11.35.23.71.34,1.06,1.56,1.01,2.94,1.96,4.22,3.33.4-1.07.69-2.12,1.49-2.96.54-.23.78-.38,1.35-.08,1.63.89,2.87,4.28,4.13,5.77.71-1.06,1.32-2.15,2.36-2.91l.46.09c.51,1.03.37,2.13.34,3.25.9.38,1.99.68,2.61,1.47-.08.48-.28.83,0,1.24,2.09-1.69,3.93-8.47,6.18-9.14.51.29.57.37.74.97.4,1.35.26,2.94.17,4.36,2.9-2.09,5.88-4.08,8.91-5.97-.83,3.7-1.46,7.32-3.43,10.61l.18.14c.48.37.8.61,1.07,1.17-.75,1.57-3.47,2.41-5,3.19.83.46,1.41.83,1.99,1.56l.02.42c-.43.29-.8.4-1.29.52.28.45.09.31.63.46,2.15.57,6.03-.57,7.69.89-.25,1.15-1.11,1.62-2.06,2.22l-.28.17c2.18.14,8.7.35,10.11,1.84.11.12.18.28.28.41-1.43,1.47-4.69,1.6-6.47,2.87.09.24.02.12.31.29,1.41.8,1.53,1.46,1.92,2.94.61,2.3,1.07,4.66,1.58,6.99.58-.54,1.18-1.06,1.73-1.63.66,1.29,1.3,2.59,2.05,3.82.26-1.61.56-5.93,2.08-6.58,0,0,.01,0,.02,0,1.5.69,1.5,4.14,3.45,3.74,1.06-1,1.41-2.55,2.62-3.33.8.06.93.35,1.52.89.83-.75.92-1.98,1.92-2.55l.58.06c.78,1.56-.67,3.62-.35,5.31l.31.03c1.12-.95,2.04-2.29,3.33-2.96.6.08.49.14.84.58.26,1.35-.31,2.7-.66,4,.77.4,1.24.4,1.53,1.3.23.69.14,2.52-.29,3.11-.94,1.35-3.47,1.07-3.87,2.84l.48-.15-.2.2c1.64-.01,5.4-.57,6.62.37-.35,1.26-2.38,3.07-3.19,4.33-1.09.38-3.34.87-4.05,1.75l.08.38c1.63.81,5.98-.09,6.76,1.38-.57,1.75-4.22,3.68-5.83,4.51-1.95,1.01-4.08,1.63-6,2.7h.23c1.72-.06,5.46-1.14,6.86-.74l.37.58c1.38.15,2.76.22,4.14.35.55.51,1.1,1.03,1.69,1.5,1.53-.02,3.39-.27,4.69.67.12.43.2.37-.05.69-1.24,1.67-4.71,2.61-6.67,2.99,1.12,1.24,2.38,2.3,2.38,4.08-.4.77-.77,1.15-1.61,1.46-1.32.48-2.99.49-4.4.64-.49-.48-1.49-1.67-2.16-1.67-.41,0-.87.12-1.29.2-.89-.37-.64-1.07-1.64-.98-.22.26-.38.34-.32.71.08.38,2.36,4.07,2.78,4.63.34.46.78.77,1.27,1.06,1.04.61,1.95.9,2.68,1.92l-.03.49c-.8.52-1.69.57-2.62.69-.61.84-1.23,1.72-1.87,2.55-.87-.12-2.19-.44-2.96.05-.57.37-.95.98-1.32,1.53-.78.42-1.52.42-2.35.14-1.29-.41-3.01-2.21-4.27-1.73-.58.21-.92.6-1.18,1.14.43.69,1.21.83,1.96,1.06,1.41,1.33,2.3,3.1,3.53,4.6l-.32.05c-1.49.25-5.84,1.17-6.76,2.27-.06.66,0,.65.38,1.2,2.07,1.15,4.65-.14,6.95.57l.63-.21c.32-.69.03-1.43-.12-2.15.43-.21.22-.2.65-.06.7.23,1.24.44,1.98.29.86-.66.8-1.63,1.79-2.19,3.04,1.64,2.35,4.66,4.1,6.73l.4-.46-.03.15c.58-1.24.86-3.85,1.78-4.66.61-.14,1.23-.09,1.56-.74.2-.38.28-.95.38-1.36,1.09-.97,6.95-4.83,8.22-5.49-.4,2.58-.67,5.06-.58,7.67.84.31,1.5.4,2.09,1.09-.23.74-.63,1.58-.46,2.35,1.84-.2,3.59-1.26,5.34-1.86,1.06-.37,2.21-.52,3.3-.74-1.23,2.39-2.62,3.96-4.51,5.87.18.48.03.28.49.57-.54.74-2.16.49-3.01,1.29.18.51.4.64.77,1.01.83.84,1.36,1.41,1.38,2.62-.34.83-.75,1.18-1.55,1.52-2.82,1.15-6.62.78-9.68,1.44-.78.72-1.66,1.36-2.12,2.33l.18.48c2.13.88,5.35.49,6.33,2.93.09.23.17.44.26.68,1.4.57,2.82,1.12,4.19,1.76-3.34,1.29-6.95,2.32-9.51,4.97,5.31.57,10.02.92,14.43,4.2-2.22,2.15-5.38,4.52-8.62,4.52-1.3,0-2.65-.2-3.96-.35,1.06,1.44,2.38,3.6,2.1,5.48-.08.52-.18.72-.49,1.12-.98.52-1.78.35-2.81.06-3.79-1.07-7.9-4.74-10.23-5.38-1.12-.31-3.13.05-4.28.18.03.08.06.15.11.23.78,1.76,3.51,4.33,2.68,6.3-.17.4-.43.52-.86.63-.11.03-.83.08-.92.09-2.84.26-2.35,3.42-5.46.91-.72-.14-1.03.06-1.67.37-1.38-.05-2.95-1.95-4.22-2.62-.46,1.24-.47,1.57-1.66,2.21l.15,1.1c-.09.05-.17.08-.26.12-.41.22-.26.14-.72.41-.05.57.2,1.15.61,1.57.21.21.27.23.51.35l.32-.12-.18-1.03c1.66.35,4.39,1.92,5.71,2.96.2.6.23.71.11,1.32-.64.66-1.52.84-2.36,1.12-.58.52-.69,1.32-.89,2.04-.67.57-1.87.08-2.03.8.89,1.33,1.75,1.62,3.28,1.95.44.09.9.18,1.36.25l2.52-1.07c1.58.35,9.03,1,9.16,1.11.17.14.25.37.37.55-.18,1.01-.72,1.44-1.55,2.01-2.54,1.73-8.45,4.31-11.37,4.1,0,.01,0,0,0,0,1.63.93,3.48,1.72,4.36,3.47.02.78-.03,1.17-.63,1.75-1.26,1.23-2.88,1.33-4.55,1.24-1.73-.09-3.48-.46-5.21-.25-.37.43-.4.66-.54,1.2-1.3,1.18-4.48,1.96-6.23,1.87-1.73-.09-4.34-.24-5.87-1.04-.2-.71-.23-1.5-.86-1.9-.55.12-.89.17-1.29.58.66,3.25,7.58,8.13,7.19,12.5-.4.58-.48.72-1.23.87-3.1.6-9.82-3.47-12.78-4.74.52,1.03,1.58,2.73,1.35,3.9-.06.35-.43.49-.74.61-.08.03-.66.23-.74.25-1.03.35-1.47.58-1.93,1.6-.35.77-.69,1.84-1.6,2.1-.64.18-1.13-.11-1.66-.48-.77-.52-1.3-1.3-2.24-1.49-.08.05-.17.08-.25.12-1.13.54-2.01.74-3.22.32-1.52-.51-2.88-1.78-3.97-2.93.23-1.37.74-2.93-.11-4.16-.37-.54-.18-.35-.75-.64-.72.74-.63,2.07-1.46,2.58-.8-.2-1.3-.51-2.05-.12-.61,1.57-.9,3.66-2.52,4.49-1.66.17-3.65-1.03-4.86-2.06-1.67-1.41-2.84-3.34-4.03-5.15-.41.09-.57.18-.91.41-.86-.61-.77-1.81-1.66-2.38-.9.38-1.2,2.18-2.28,1.7-1.43-.61-1.78-2.15-2.99-2.87-.57-.34-1.78.35-2.24.08-.66-.38-.44-1.64-1.35-1.89-.95,1.15-1.58,2.61-2.19,3.97-1.06.11-2.12.26-3.18.32,1.09,1.33,3.22,3.77,2.99,5.58-.06.45-.31.49-.63.75-.74.08-1.35.05-2.09-.05.09-.43.15-.61.35-.98l-.4-.83c-.55-.06-.37-.14-.78.17-.86.66-1.55,2.33-1.61,3.39-.03.6.06.78.37,1.27,2.45,1.07,4.62-2.41,10.23,1.98.86.66,1.81,1.33,2.41,2.25l-.28.17c-.58-.15-1.17-.32-1.75-.51-1.43-.58-2.93-.81-4.43-1.1,1.55.78,3.01,1.61,4.45,2.56,1.35.75,2.7,1.44,3.73,2.62,1.24,1.43,2.56,3.76,2.3,5.74-.08.64-.37,1.17-.92,1.52-1.26.8-2.96.03-4.19-.44-2.01.6-4,1.15-6.07.49-4.43-1.41-4.36-7.47-6.27-10.89-.35-.61-.8-1.07-1.5-1.24-.21.41-.41.77-.72,1.12-.31.35-.43.25-.87.28-.83-.41-.94-.72-1.41-1.49-.86-.49-1.98-.29-2.95-.25-1.62-1.07-7.05-6.03-8.21-6.18-2.35-.32-4.05-3.62-6.3-4.65-2.38-1.09-5.62.12-7.93.93.63.98,1.18,1.98,2.06,2.76.48-.44.75-.63,1.38-.8.97.18,1.55.6,2.32,1.18,2.25,1.67,5.28,1.56,7.44,3.45,1.27,1.12,1.86,2.64,1.96,4.29.15,2.56-.68,4.22-2.32,6.1-.54.61-1.01,1.1-1.86,1.17-1.24-.61-1.76-2.93-2.58-4.08-.54-.77-1.14-1.21-2.07-1.33-.86-.11-1.61-.43-2.42-.74-.66.87-.84,2.03-1.14,3.05-.9,3.11-3.76,3.9-6.27,5.49-1.58-2.18-2.1-3.79-2.24-6.46-1.58.94-3.13,2.04-4.83,2.75-.86.35-1.53.57-2.39.2-.18-.46-.21-.71-.15-1.21.18-1.43,1.12-3.08,1.61-4.48.46-1.3.75-2.68,1.18-4.02,1.79-1.43,4.02-2.27,6-3.45-1.11-.44-2.22-.74-2.76-1.89,1.46-1.12,5.2,1.41,7.09.75-.41-.87-1.06-1.32-1.93-1.67-9.83-4.02-18.91,2.1-27.7,5.61-4.14,1.66-8.45,2.85-12.59,4.52-12.76,5.17-21.18,11.06-26.63,24.11-1.76,4.22-2.61,8.31-2.94,12.85-.44,5.87-.09,11.66.06,17.53l.55,22.79c.34,13.71-.05,28.48,1.18,41.99.38,4.19.89,8.56,2.53,12.47,4.95,11.84,16.31,10.4,26.87,12.65,3.31.71,6.3,2.56,9.68,3.16,3.36.6,6.66.27,9.88,1.6l.34.14c-2.38.03-4.75.06-7.12.37-3.17.4-6.41,1.12-9.62,1.06-3.27-.06-6.32-1.52-9.63-1.29-4.28.29-8.39,1.8-12.7,1.87-5.77.11-11.5-.98-17.29-.8-9.74.31-19.2,3.01-28.91.61-4.66-1.15-9.31-4.02-14.22-3.54-2.19.21-4.39.9-6.55,1.3-1.04.2-2.09.26-3.14.29-3.53.06-7.01-.77-10.55-.61-3.94.17-7.76,1.35-11.75,1.33-1.17,0-2.84-.09-3.82-.75,1.56-.57,3.4-.6,5.05-1.03,2.32-.61,4.51-1.66,6.83-2.3.55-.15,1.1-.32,1.69-.37,3.88-.37,5.83.06,10.09-.83,5.52-1.15,11.1-3.6,16.66-4.16,5.58-.55,11.26.26,16.87.05,8.77-28.1,7.53-60.42,7.47-89.57-.01-7.71,1.1-15.45-.28-23.13-2.01-11.32-11.5-20.54-20.58-26.83-2.19-1.52-4.48-2.91-6.7-4.4-9.33-6.23-12.3-6.79-23.34-7.62-3.38-.26-7.07-.66-10.41.01-2.41.49-8.27,3.07-9.59,5.01-.11.38-.21.71-.11,1.1.23.77.26,1.15.14,1.98-.01.09-.03.17-.05.26l.21.03c.83-1.03.29-2.02.81-2.64,1.32-1.6,3.71-1.01,5.66-3.24l.23-.28c.28.72.58,1.43.84,2.13,1.33,3.59,5.48,5.43,6.43,10.84.15.84,0,1.35-.52,2.04-.72-.06-1.09-.34-1.7-.69-1.53-.84-3.65-2.26-5.43-1.73-.12,1.2-.27,2.39-1.09,3.33-.83.97-2.29,1.7-3.54,1.82-2.82-.86-1.67-5.29-3.31-7.1-.26-.29-.41-.17-.77-.14-.89.66-1.27,1.66-1.75,2.62-3.43-.26-6.5.72-9.85,1.41.12-1.55.41-3.11.63-4.66-1.06-.2-1.7-.35-2.41-1.2.15-3.54,6.79-4.29,7.24-7.99.01-.12.01-.24.03-.38.83-.81,8.18-.01,10.58-.81.97-.32,1.55-.77,1.99-1.7l-.18-.34c-2.33-1.2-6.04-1.01-8.65-1.17-3.56,2.3-8.16,4.6-11.21,7.51-1.49,1.41-2.67,3.19-3.99,4.77.94,3.14,2.58,6.03,2.3,9.43-.09,1.13-.35,2.53-1.27,3.28-.95.32-1.89-.12-2.82-.31-.35-.06-.77-.14-1.1.09-1.56,1.14-2.53,3.1-4.28,4.22-.75.48-1.2.54-2.04.32-.44-.47-.57-.87-.64-1.5-.29-2.53.02-8.83,1.64-10.83.11-.12.21-.25.32-.38l-.43.11-.14.55.17-.25-.34-.21.2.4-.49-.31c-1.47.47-2.91.66-4.43.86-1.52,2.12-2.99,6.78-5.25,7.93-.63-.66-.61-1.78-.75-2.67l-.34-.06-1.58,1.12-2.59.17c-1.11.06-2.04-.08-2.88-.84-1.52-3.74,5.4-7.56,5.78-10.2-.51.11-.29.05-.83.26l-.38.15c-.74-.57-1.06-1.89-1.38-2.74,1.26-.87,2.51-1.63,3.94-2.22,3.24-1.36,5.98-1.56,9.23-.25,2.61-.69,5.84-.45,8.19-1.66,1.07-.55,2.06-1.49,3.08-2.16l-.93-1.5c-.46-.75-.64-1.06-1.44-1.47-1.89,0-3.13,1.81-4.39,3.07-1.84-.35-2.96.12-4.72.6-1.01-1.76-2.07-2.73-3.94-3.59-.08-.03-.15-.08-.25-.11.17-.28.34-.55.51-.81.43-.69.71-1.18.69-2.02-.02-.78-.05-1.49-.61-2.07-.6-.25-.95-.15-1.57-.05-.77.71-1.29,1.3-2.36,1.38-.29-.32-.46-.52-.84-.75l-.4.84c-1.33.47-2.9.4-4.31.46-.74.87-1.41,1.81-2.1,2.73-.51-.54-1.03-1.01-1.6-1.5l-.34.24c.08.63.14,1.15-.09,1.75-.52,1.38-1.96,2.42-3.3,2.88-.2-.11-.64-.34-.84-.4-.77-.26-2.9,2.9-4.31,3.62-.37,0-.63.08-.93-.17-1.01-.8-1.1-2.45-1.32-3.65-.55.38-1.12.8-1.69,1.15-.68.41-1.12.46-1.87.26-.74-1.76,1.44-3.08.97-4.91-1.64.4-1.75,3.39-3.16,4.23-.74-.43-1.07-1.73-1.4-2.5-.28,1.27-.54,3.01-1.36,4.03-.08.01-.17.05-.25.06-.11.03-.21.06-.34.09-1.07.28-1.67,1.32-2.5,2.01-.49.4-.51.41-1.1.35-.84-.69-1.27-1.7-1.79-2.64-1.1,1.13-2.16,2.44-3.62,3.08-1.5-.14-1.17-3.5-2.27-4.69-.11-.12-.23-.23-.35-.35.24-.61.35-1.04.35-1.7-.11-.06-.21-.17-.34-.17-.54-.02-8.96,3.3-11.43,3.43-.67.03-1.03.02-1.55-.41-.66-2.82,3.21-8.39,4.6-10.75l2.62-4.59c-1.43,1.29-2.38,3.39-4.1,4.22-2.73.08-5.55,1.01-8.25-.01-.77-.29-1.33-.8-1.59-1.61-.31-.94.17-1.83.54-2.68-3.54,1.38-8.3,2.19-12.01.98-.77-.25-1.06-.55-1.41-1.26.04-2.09,2.1-3.37,3.28-4.92-1.18-.74-2.79.09-3.83-1.07-1.33-1.5-2.9-1.98-4.51-3.07-.72-.49-1.14-.86-1.32-1.73l.43-.46c2.85-1.17,5.94-.66,8.88-.44.72-.38.66-.66.92-1.43.83.43,1.61.86,2.56.86l.03-.24c-.6-.43-1.3-.87-1.72-1.49-.08-.11-.14-.21-.2-.31,1.81-3.25-1.79-2.36-2.27-4.62.32-.55.86-.89,1.44-1.1.63.12,1.2.25,1.83.12.08-.2.2-.51.29-.68.74-1.47,3.85.57,5.86-.05l.11-.41c-.64-.72-1.95-.89-2.85-1.21-.61-.66-.72-1.32-.93-2.18-.12-.49.01-.28-.35-.63-2.53.02-4.83,1.44-7.45,1.44-1.35,0-3.93-.38-4.8-1.53-1.34-1.78,1.71-3.7,2.55-5.31-.06-.24-.09-.4-.15-.63-.66-.5-1.19-.56-1.99-.44-.22.03-.43.08-.64.11-.94.09-1.07-.05-1.79-.66l-.34.14c-.21.61-.35,1.3-.89,1.72-2.47.15-3.94,1.9-6.01,3.02-1.23.68-2.38,1-3.74.61-.48-.41-.72-.57-.89-1.2-.49-1.72.41-3.83,1.23-5.34-5.71.18-7.3-1.23-11.79-4.2,3.71-3.74,8.71-3.91,13.59-5.05-2.98-2.21-6.07-3.37-9.65-4.28,1.33-.81,2.79-2.41,4.25-2.87.88-.28,1.63.57,2.45.08.08-.63.2-1.23.34-1.84.67-.63,1.12-.58,2.01-.74.38-.34.72-.66,1.17-.92.09-.05.17-.09.26-.14-.9-3.27-8.79-1.7-11.33-3.38-.54-.35-.81-.75-.97-1.37.08-.58.22-.89.55-1.36.31-.43.54-.81.77-1.3l-.46-.49v-.45c-.98-1.24-2.18-2.27-3.28-3.4C1.79,260.81,0,259.23,0,257.85l.37-.34,1.15.08c4.8.11,8.47,3.83,12.84,5.52-1.86-1.37-3.91-2.47-5.9-3.63-.43-1.07-.89-2.02-.52-3.16.86-.08,1.84-.14,2.46-.8l-.05-.4c-.28-.23-.65-.51-.81-.84-.43-.87-.51-5-.77-6.46.88.65,1.81,1.21,2.73,1.8,2.3,1.41,4.17,3.39,6.5,4.76.93.55,1.09,2.19,1.35,3.19l.28-.05c.26-.6.37-.92.89-1.35,1.36,1.16.46,3.5,1.3,4.97,1.57-.28,2.29-4.63,3.59-5.78.49-.43.86-.57,1.49-.52.64.54.75,1.32,1.1,2.04.66,1.37,4.13,1.6,5.6,2.1l.28.09c1.15-.8,2.25-1.3,2.62-2.75-.15-.43-.32-.78-.32-1.24.02-.41.81-.97,1.12-1.26-1.44-.37-3.25-1.06-4.72-.63-.48.14-.81.21-1.32.21l-.28-.41c.31-1.4,1.69-2.3,2.22-3.59.2-.48.17-.51-.01-1-2.06-1.2-4.42.55-6.55-.11-.71-.48-.9-.98-1.23-1.72l-.14-.29c-1.86-.46-3.68-.95-5.47-1.6.57-2.5,5.34-3.77,6.38-6.13l-.64-.86c-.05-.71-.11-.77.31-1.33.48-.09.95-.18,1.43-.32-2.21-1.04-8.27,3.56-11.46,1.7-.66-.38-.69-.57-.92-1.24.26-1.73,1.21-2.76,2.35-3.99-2.91-1.23-4.99-2.35-6.96-4.88l3.82.45c6.62-4.42,11.39-1.15,13.05-2.03-.83-1.27-5.86-2.85-7.38-3.3,0,0-.01,0-.02-.01-.69-.93-1.2-1.73-2.19-2.39-.12-.08-.25-.15-.37-.24-.68-.45-1.18-.86-1.35-1.66.64-.74,2.21-.68,3.81-2.36.38-.41.12-.28.78-.32l-.69.97.21.38c1.18.28,2.35.6,3.5,1.01,1.41.49,2.65.4,4.12.32-1.09-.68-2.22-1.18-3.36-1.75-1.52-.75-6.23-3.34-6.6-4.95-.08-.35.12-.54.29-.83,1.89-1.24,4.22-1.03,6.38-1.07l-1.47-.37c-2.61-.64-3.43-1.69-4.83-3.86.52-1.49.09-3.35.81-4.65,1.6-.11,2.58,2.76,3.96,3.45.12-.77-.49-2.04-.72-2.81-.43-1.4-1.23-3.57-.5-4.92l.49-.11c1.76,1,3.02,3.45,4.11,5.11.11-1.24.09-2.7.84-3.76l.52-.08c1.04.61,1.64,1.67,2.32,2.65.67.28,1.53.84,2.27.86.41.02.52-.29.78-.57-.02-.58-.05-1.07.17-1.62l.6-.14c1.69.37,2.16,2.41,3.22,3.57.37.4.17.31.66.34.44-2.33-1.75-5.06-.67-7.16.2-.05.32-.09.55-.08,1.5.11,2.87,1.72,3.88,2.7.61-.55,1.21-1.12,1.81-1.69,1.01,1.13,2.07,2.54,3.59,2.97.87-.52,1.18-1.96,1.81-2.81.87-1.17,1.99-1.12,3.31-1.29.63-.78,1.35-1.46,2.06-2.16l-2.88-1.47c-1.64.87-3.2,1.64-5.08,1.9-2.59.35-3.56-1.38-5.21-2.96-.72-.69-1.56-1.27-2.36-1.87,2.99-1.52,5.21-2.41,8.56-2.85-1.14-.95-2.61-1.98-2.87-3.54-.12-.75-.03-.86.41-1.4,1.18-.47,2.59-.09,3.79.23.08.01.15.05.25.06.75.08,2.32-.41,2.88-.89-.41-.43-1.04-.38-1.63-.46-1.7-.6-4.22-1.55-5.51-2.84-.55-.57-.84-1.15-.84-1.95.69-.57,1.5-.38,2.38-.55-.21-.88-.49-1.7-.34-2.61,1.3-1.73,1.61-.05,3.01-.61-.35-.9-1.01-2.15-1-3.13.01-.75.18-1.3.74-1.83,1.59-1.49,2.85,1.61,4.2,1.69.23-.57.38-.98.8-1.44l.58.05c1.52.9,1.87,2.24,2.95,3.53.41.51.8.7,1.42.8.29-.31.49-.58.89-.77.81-.37,2.3,1.99,3.16,2.29.17-.15.46-.46.66-.57.75-.4,1.7.17,2.42.46.66-.67.06-1.41.75-2.22,1.32-.35,2.79.24,4.05.66-.32-.84-.64-1.76-.84-2.64-.12-.58-.22-1.15.09-1.69.48-.14.32-.17.75-.08.64.12,1.03.31,1.69.08l.17-.42c-.14-.34-.32-.72-.43-1.07-.18-.69-.23-.78.12-1.36.47-.23.77-.4,1.32-.38,1.03.03,1.6,1.56,2.27,2.27.78.03,1.01-1.12,1.66-1.66.81.54.66,1.58,1.38,1.99l.78-1.35c.74-.38,1.95-.21,2.76-.2.03-.06.06-.12.11-.2.06-.11.12-.21.18-.32.97-1.67,2.59-1.73,3.19-2.99l-.41-.32c-.63.09-.89.15-1.5-.08-1.27-.47-2.91-.14-4.25,0-1.26-1.59-4.89-3.65-5.49-4.83,1.26-1.95,4.16-1.86,5.6-3.39-.29-.41-.6-.77-.72-1.27-.06-.25-.08-.28.08-.48.55-.72,3.37-1.82,4.28-2.02,1.52-.34,3.24,1.01,4.48,1.73,1.9-.28,3.74-.46,5.66-.52-.89-.93-1.75-1.9-2.61-2.87-3.22.48-5.68-.55-8.77-1.2-1.41-.29-2.9-.43-4.32-.63-1.43,1.39-2.56,4.52-4.34,5.26-.86.35-3.04-1.1-3.85-1.5-4.2-2.1-4.13,1.46-7.58,2.36-.66.17-1.07.02-1.66-.28-.55-.8-.51-1.89-.57-2.84-2.78-.15-7.3.02-9.36-2.12-.08-.31-.21-.52-.06-.81.83-1.69,4.2-2.68,5.86-3.22-.78-.54-1.76-1.15-2.02-2.12-.11-.41.09-.57.28-.92,3.51-2.05,8.37-1.72,12.27-2.41.12-.09.23-.2.35-.28.41-.25.87-.43,1.3-.69l-.15-.18c-1.55-.08-4.02-1.75-5.54-2.41-2.47-1.07-5.02-2.48-6.04-5.11.12-.74.22-1.53.57-2.19.66-1.24,2.68-.09,3.51-.72.84-.65.94-1.63,2.07-1.92.4.21.8.43,1.23.6,1.35.52,2.52.15,3.79-.38l.32-.14.74.67c.41.38.83.8,1.29,1.13.72.52,1.76,1,2.65.71.64-.21,1.09-.72,1.36-1.32-1.19-1.38-3.79-2.1-5.29-3.28-.67-.54-1.03-.89-1.12-1.75,0,0,0-.01,0-.02.91-1.18,3.08-.81,4.44-.75-.57-1.43-1.6-3.39-1.29-4.94.46-.44.64-.49,1.33-.41.55.06.88.35,1.24.74.34.37.63.61,1.06.89.8.03,1.32-.32,1.99-.69l.32-.17c1.69.03,3.31,1.84,4.81,2.53.66.31,1.44.43,2.13.17.47-.18.61-.2.84-.66l-1.12-.98c-.2-.84.09-1.12.35-1.92.2-.6.32-.81.03-1.4-.72-.17-.69-.02-1.3.35-.97.17-2.47-.95-3.37-1.33-2.55-1.09-5.77-.58-8.11-2.35-.57-.43-.65-.69-.71-1.38.66-1.24,1.98-1.75,3.19-2.33h0c-1.87-.69-4.07-2.01-4.91-3.94.05-.45-.01-.71.29-1.04.89-.98,2.09-.94,3.31-1.03-.49-1.03-1.04-2.15-1.24-3.27-.12-.71-.06-1.03.35-1.61,2.56-.67,6.01,3.11,8.71,3.59.12.02.25.03.37.05-1.18-.86-2.16-2.04-3.42-2.76-.34-.2-.63-.34-.92-.61-.67-.63-.95-1.38-.95-2.29.46-.71.67-.69,1.46-.97l.12-.35c-.46-.64-.97-1.3-1.36-1.99-.35-.61-.46-.89-.31-1.58.83-.51,1.67-.32,2.62-.31.2-.86-.11-1.52.41-2.27,1.92-.43,2.44,1.87,4.34,1.84.71-.43,1.26-.83,2.12-.9,1.23.4,1.86,1.18,2.56,2.22.23.34.06.18.52.37.31-.49.54-1,.78-1.52.72.11,1.15,1.29,1.79,1.79.08-.02.15-.03.21-.05,1.17-.4,1.67-2.22,2.21-3.22,1.09-2.01,2.84-.74,4.43-1.33.81-.31,1.09-1.36,1.35-2.09.15-.45.31-.46.66-.74.26.03.54.06.78.15.61.23,1,.66,1.21,1.27.47,1.38-.29,2.78-.98,3.93,1.1-.2,3.01-.63,4.06.05,1.52.97-.2,2.39.12,3.63,0,.01.02.02.02.03.7.31,1.76,0,2.41-.4,1.27-.81,1.6-2.36,1.89-3.74l.06-.34c.9-.31,1.92-.4,2.87-.54.61-.69,1.18-1.44,1.76-2.18.83,1.46,1.52,2.74,2.67,4,1.04-.23,2.1-.34,3.16-.46.6-.57,1.11-1.1,1.89-1.4.86.09,1.15.37,1.86.84.89-.34,1.24-1.6,1.75-2.42.54-.21,1.03-.41,1.53-.7v-.61s-.4-.27-.4-.27c-1.46.12-2.85.81-4.2,1.35-1.84-.26-6.33-2.82-8.19-3.73-.09-2.28-.95-2.09-1.12-3.22.08-.08.15-.17.24-.25,2.16-1.95,5.68-1.09,8.24-1.03,1.89.05,2.7-1.04,3.94-2.25l.29.06c-.11-.04-.21-.12-.34-.14-1.3-.31-1.98-.43-3.08-1.27-1.06-.81-2.87-2.45-2.96-3.88-.03-.38.2-.49.43-.77,1.7-.41,4.16.49,5.81.97-2.44-2.55-1.98-5.78-4.22-8.39-.31-.35-.28-.51-.35-.97,1.38-3.11,6.17-.34,8.11-2.32l-.18-.52c-2.59-2.22-1.89-3.7-3.88-5.92.87-.68,1.69-1.41,2.5-2.15-.4-.87-.97-1.9-1.13-2.84-.11-.55-.08-.6.24-1.07,1.95-.12,2.91,2.47,4.66,3.19l.27-.15c.38-1.61-.37-2.82-.14-4.26.06-.4.25-.43.54-.66,2.19-.14,5.06,2.13,6.75,3.44.72-.95,1.35-1.95,2.58-2.15.09.09.17.17.26.26l.37.34c.28.26.46.46.78.66.51.29,1.04.25,1.57.09.26-1.61-1.23-2.16-1.72-3.48-.61-1.64.61-1.63,1.04-2.75-.14-.69-.38-1.46-.21-2.15.11-.43.43-.46.8-.66,2.07.09,1.67,2.68,3.5,3.36.8-.12,1.24-.75,1.76-1.3l2.45,3.87c-.06,1.06-.17,2.02.12,3.07l.4.21c2.47-1.7,2.21-7.32,3.9-9.37.84.05,1.47.61,2.15,1.07.18-1.11.32-2.29.6-3.36.18-.69.34-.89.97-1.21,1.03.14,1.76,1,2.53,1.67.24-1.34.26-3.08,1.07-4.2.75-.31.92-.17,1.69.03l.37-.2c.21.49.43.97.66,1.46.6-.01.61,0,1.09-.37-.2-.34-.12-.24-.35-.49-.84-.9-1.78-1.81-2.47-2.84-.64-.97-.92-1.75-.68-2.93.83-.28,1.2.17,1.98.14.9-.04.61-1.96,1.2-2.73,1.76-.18,2.07,1.41,3.28,2.38.06-.26.14-.52.2-.78.11-.54.12-1.06.41-1.53.67-1.12,2.07-1.35,3.25-1.72.77.75,1.26,1.69,2.13,2.35.95.12,1.21-.25,2.01-.74,1.24.67,2.58,1.2,3.86,1.75l-2.48-2.47c-.43-.58-.92-1.24-.86-2.01.11-1.14.9-3.16,1.73-3.93,1.49-.25,3.34,1.7,4.4.03.49-.77.55-1.58,1.35-2.07.75.24,1.18.63,1.76,1.15l.31-.15.03-.51.06-1c.05-.69.12-1.06.54-1.64.63-.34.94-.4,1.64-.18,1.01.31,2.24,1.26,3.3,1.15.01-.08.04-.15.06-.24.28-.97.78-1.98,1.75-2.45.84-.41,1.98-.55,2.88-.75.21-.91.34-1.86.97-2.56.6-.08.64-.06,1.13.34.63.51,1.1,1.2,1.67,1.76.38-.83.64-1.67,1.41-2.21.87-.31,1.75.45,2.48.98M235.37,357.77c.63-.57,1.26-1.15,1.92-1.68,5.78-5.06,12.87-8.9,19.72-12.35,2.92-1.48,6.31-2.77,8.95-4.66,3.85-2.75,6.52-6.98,9.74-10.43,10.33-11.07,21.39-18.46,35.66-23.61-1.28.08-2.71.05-3.95.25-6.64.48-13.12,1.88-19.68,2.89-13.67,2.11-17.92.78-29.56,9.58-3.68,2.77-7.24,5.8-10.24,9.29-7.29,8.52-11.44,19.64-12.55,30.71M215.7,355.4c.31-4.38-.18-8.8-.75-13.15-1.72-12.97-5.34-26.3-14.06-36.4-1.52-1.77-3.2-3.4-5.01-4.84-4.23-3.4-8.95-6.18-13.38-9.3-3.75-2.66-7.26-5.97-11.38-8.04v.43c0,.55-.09,1.08-.18,1.63,1.23,2.29,3.66,4.21,5.49,6.04,2.92,2.94,5.98,6.41,7.92,10.1,4.2,8.04,2.14,13.1,4.2,20.42,1.6,5.77,21.98,27.74,27.16,33.11M230.11,328.85c1.32-4.95,3.69-9.24,6.55-13.47,4.26-6.07,9.38-11.18,14.04-16.9,4.72-5.78,8.55-11.95,12.3-18.38,1.26-2.15,3.57-5.41,4.37-7.58-.31-.43-.42-.42-.92-.51-.63-.11-1.32.02-1.95.09-1.2.17-3.15-.66-4.09-.35-.29.09-.88,1.12-1.2,1.35-.91.65-2.21-.2-3.18.11-.29.09-.82.86-.94.88-.29.01-.74-.39-.97-.54-.6-.43-1-.66-1.77-.52-.09.02-.2.05-.29.08-.21-.66-.29-1.05-.35-1.74-.01-.28-.08-.55-.12-.83-5.09,6.37-21.47,25.87-22.44,33-.48,3.41-.03,7.09.19,10.53.34,4.92.6,9.84.78,14.78M213.7,306.59c.08-7.21.21-14.56-2.66-21.32-1.32-3.11-3.08-6.07-4.15-9.26-2.17-6.38-3.38-13.07-4.77-19.65-3.2-2.72-6.72-5.14-9.78-8.01-2.62-2.46-4.81-6.18-7.78-8.14-2.18-1.43-5.26-2.06-7.75-2.8,1.11,4.78,2.72,9.44,4.8,13.89,2.61,5.64,5.95,11,8.9,16.47,2.68,4.94,5.06,10.03,7.81,14.93,3.52,6.24,7.47,12.19,11.41,18.16,1.14,1.71,2.48,4.41,3.97,5.72M196.57,345.08c-5.38-8.93-12.73-15.85-19.62-23.58-2.55-2.85-5.09-6.67-8.2-8.86-3.08-2.15-7.46-3.18-10.95-4.57-5.57-2.21-11.04-4.88-16.86-6.44,3.37,2.95,6.91,5.58,9.92,8.9,4.38,4.81,8.07,10.37,12.81,14.84,2.83,2.68,6.32,4.55,9.63,6.57,6.01,3.67,12.04,7.15,18.27,10.44,1.65.86,3.32,1.97,5,2.69M228.78,288.5c1.11-.17,2.26-1.85,2.92-2.74,8.58-11.4,5.89-22.24,9.2-34.8,1.69-6.46,4.8-12.24,7.88-18.1,1.17-2.23,2.57-4.52,3.44-6.89l-.21-.35c-6.92,5.86-15.32,12.21-19.21,20.61-1.31,2.82-2.05,5.81-2.78,8.83-.71,2.89-1.54,5.81-1.8,8.78-.74,8.04.52,16.58.57,24.67M275.44,210.34c.17,1.4.4,2.52-.58,3.69-.4.48-.86.68-1.48.71-1.15.05-1.69-.43-2.45-1.2-.08-.08-.14-.14-.2-.21-.88,1.75-1.63,3.86-3.63,4.61-1.55.58-3.52.12-5.12-.11-1.2.63-2.09,1.29-2.98,2.32-2.31,2.64-9.52,14.58-10.29,17.9-.06.23-.03.37-.03.58.88-.06,1.63-.49,2.41-.85,2.35-1.09,4.64-2.18,6.72-3.74.52-1.28,1.01-2.58,2.05-3.55,1.14-1.09,3.83-1.28,4.35-2.92-.34-.46-.68-.78-1.11-1.15-.52-.45-.77-.77-1.08-1.37,0-.66-.06-.97.46-1.46,1.31-1.23,4.34-1.45,6.01-1.15,1.12.2,1.8.75,2.63,1.48,2.78-1.24,4.57-.57,6.78-1.45,3.94-1.55,9.09-10.83,10.57-14.7.6-1.58,1.38-3.88.61-5.51-.46-.97-1.55-1.18-2.52-1.49-1.51-.48-2.98-.74-4.55-.95-.32.78-.55,1.18-1.23,1.71-.98.12-1.4-.29-2.17-.88l-.18-.14c-1.09.21-1.15,1.74-2.24,1.82-1.26.09-2.15.06-3.02,1.04l.03.49c1.48,1.03,3.48.26,4.92,1.14-.06.51-.17.86-.32,1.34l.08.37c.17.77.37,1.38.11,2.15-.77.6-1.66,1.01-2.55,1.48M183.64,319.77c.14-2.41.06-4.72-.15-7.14-1.06-8.92-7.44-17.78-14.38-23.21-1.17-.92-2.35-1.63-3.69-2.31l-.32-.17c-.69.49-1.35,1.22-2.26,1.12-.17-.02-.34-.08-.49-.11-.52-.11-.68-.09-1.17.08l-.09.4c-.09.35-.18.68-.34,1.02-1.05-.35-.83-1.52-2.17-.88.24.32.49.63.75.94-.11.03-.21.05-.32.08-.41.11-.26.05-.6.25l.03.58c-.57-.06-3.48-3.11-5.27-3.68,2.57,5.01,14.3,18.82,18.65,22.85,3.83,3.54,8.07,6.58,11.83,10.17M261.53,235.24c-6.41,3.08-14.58,5.38-17.13,12.72-2.98,8.58-2.82,18.78-3.28,27.81,2.63-3.38,5.54-6.89,8.52-9.97.92-.91,1.8-1.69,2.4-2.86v-.66c-.65-.38-.94-.34-1.66-.38-.54.34-.69.86-.94,1.43l-.4.17c-.63-.34-.86-.97-1.18-1.57l-.23.12-.32,1.15c-.54-.12-.57-.17-.95-.57.29-1.61,2-1.91,2.49-3.28-.42-.17-.77-.28-1.21-.34.06-.75,2.04-2.23,2.72-2.8,2.74-2.31,10.4-8.04,11.16-11.4-.34-.57-.08-.35-.72-.54-.75-.22-1.11-.57-1.46-1.28-.4-.8-.45-2.06-.09-2.88.34-.78.89-1.31,1.69-1.6,2.06-.75,4.34.23,6.21,1.09.78-.95,2.12-2.21,2.38-3.43l-.29-.42c-.45-.08-.88-.12-1.32-.15-.52-.03-.88-.19-1.35-.35l-.23.05c-1.65.6-3.15.18-4.8-.08M271.97,303.54c6.06-3.03,12.07-5.92,18.69-7.52,2.72-.55,5.84-.57,8.44-1.45.26-.52-.14-.91.17-1.37,1.42-2.06,6.12-4.09,8.35-4.86,1.75.42,3.2.98,4.92.18l.08-.31-1.2-.91c.18-.71.86-1.65.62-2.29-.12.02-.25.03-.37.05-.92.08-1.83-.02-2.74-.15-1.74,2.15-3.08,4.14-5.91,4.83-.69-.15-1.04-.23-1.61-.71l-.09-.46c.4-.39.82-.68,1.26-.99.28-.57.45-1.06.61-1.66.77-2.85,6.01-3.51,4.86-6.4-.25-.62-.72-1.06-1.35-1.23-1.72-.48-2.43.28-4.11-.98-2.48,2.72-6.01,4.89-8.89,7.2-7.57,6.03-15.1,11.89-21.73,19.03M196.63,295.93c-3.14-7.26-7.77-15.01-12.87-21.04-5.09-1.09-10.29-2.03-15.32-3.37-3.32-.89-6.54-2.18-9.87-2.98,3.03,2.61,6.84,4.07,9.89,6.58,1.94,1.6,2.52,4.06,4.32,5.74,4.92,4.6,17.47,11.84,23.85,15.07M263.39,291.44l2.68-1.71c8.03-4.88,11.64-3.52,16.67-12.89.61-1.14,1.75-2.66,2.09-3.85.03-.12.02-.28.03-.4-1.08-.49-3.24-1-3.61-2.24-.28-.95.03-2.24.06-3.23,0-.04-.01-.09-.03-.15-.57.57-.88,1.05-1.77.97-1.11-.09-2.34-.75-3.35-.06-1.63,1.12-4.41,8.55-5.61,10.84-2.26,4.31-4.81,8.46-7.15,12.72M200.66,250.65c-1.08-4.69-2.71-16.66-6.64-19.24-.52-.35-1.95-1.12-2.58-1.01-.91.14-2.54,1.14-3.38.66-1.89-1.03-2.34-3.15-4.8-3.18-.55,0-.78-.18-1.23-.48-.28,5.11,3.37,9.92,6.61,13.55,1.72,1.94,10.27,10,12.21,10.2l-.18-.49ZM271.45,307.63c6.43-.91,12.86-1.88,19.27-2.89,2.48-.26,4.98-.58,7.47-.58.78-1.58,2.17-5.11,3.88-5.81.37-.15.55.03.91.17.78.97,1.01,1.88,1.01,3.12-.4.55-.82,1.09-1.23,1.63l.25.2c2.78-.43,7.89-2.91,9.78-4.98l.14-.57c-.23-.35-.2-.45-.64-.55-2.14-.52-6.51,1.69-8.27.45l.02-.31,1.18-.29c-.29-.42-.42-.43-.91-.52-1.05-.2-2.32,0-3.38.06-10.8,1.68-20.29,4.88-29.47,10.89M146.11,217.17c.08.09.15.17.21.26.51.59.88,1.05,1.11,1.8,1.03,3.38,4.94,7.55,8.04,9.26,1.12.62,2.38,1.02,3.63,1.31l.97,1.03.25-.12c0-.09.02-.17.02-.26.09-.91.31-1.49.75-2.27.32-.12.65-.28.98-.35.69.11,1.15.32,1.77-.02.12-1.54-5.43-8.75-6.72-10.26-.51-.6-1.08-1.35-1.83-1.64-.31.65.25,1.08-.26,1.51-.63-.17-.97-.45-1.46-.85l-.29.09c-1.17.38-1.94.63-3.11.08-.37-.82.4-2.21-.66-2.54-.62-.18-1.23-.09-1.86-.05-.6.2-1.08.37-1.6.72-.18.78.02,1.52.06,2.31M268.98,343.68c1.66-.55,3.34-1.06,5.03-1.52,2.98-1.03,5.95-2.03,8.75-3.54,5.58-3,10.43-7.37,15.82-10.72-1.84-.02-3.67-.03-5.51.14-10.66,1.08-17.01,6.8-23.48,14.86-.21.26-.42.52-.62.78M141.53,297.06c3.72,2.26,8.24,3.65,12.2,5.48,3.6,1.48,7.17,2.88,10.92,3.95-2.81-4.89-8.5-12.52-12.9-15.87-.66,1.09-2.11,3.6-3.38,3.94-.57.15-.34-.02-.86.06-.12.02-.25.08-.37.11l.09,1.17c-.86.09-1.2-.78-1.92-.38l-.2.72c-.62-.03-.72-.08-1.18-.57-.77-.82-1.03-1.97-2.06-2.55h-.58c-.46,1.03.01,2.89.26,3.95M248.58,314.29c9.72-4.88,15.36-11.4,21.96-19.73,1.8-2.26,3.83-4.55,5.32-7.01l-.05-.4-.21.15c-3.43,2.48-7.46,4.17-10.71,6.9-1.81,1.54-16.07,18.84-16.33,19.96,0,.06.01.09.01.12M224.64,243.15c2.35-5.17,12.44-25.01,11.46-29.08-.4-.29-.79-.6-1.18-.88-1.37,2.91-2.8,5.71-4.55,8.41-1.8,2.78-5.71,7.07-6.64,9.97-.63,1.94-.31,8.87.43,10.83.2.57.08.35.49.75M171.33,269.52c3.58.71,7.23,1.21,10.84,1.68-3.88-4.08-8.52-7.97-13.39-10.78-.66.17-1.28.32-1.95.4-1.63.18-3.41,1.14-5.06,1.55l-.28.71-.57.14c-.78-.58-1.61-1.58-2.57-1.78l-.46.29c.08.82.57,1.26,1.17,1.78,3.77,3.2,7.44,5.07,12.27,6.01M276.48,294.94c.97-.89,1.92-1.8,2.86-2.72l13.23-10.74c2.38-1.94,5.51-4.01,7.41-6.41-.15-.55-.15-.57-.63-.85-.38-.21-.81-.28-1.24-.35-.66-.14-1.42-.49-2.08-.52-.78.98-1.52,1.54-2.74,1.92-5.15,1.63-8.92,5.28-11.33,9.97-1.72,3.34-3.28,6.64-5.48,9.7M145.64,334.87c6.14.48,12.29.2,18.44.71,2.01.15,4.06.38,6.09.4-6.46-4.77-9.43-7.14-17.78-6.71-2.45,1.63-4.32,3.94-6.75,5.6M57.34,236.95c.37-.42.54-.49.65-1.05-.55-.46-.98-.65-1.72-.57-1.52.17-3.12.37-4.58.86-1.09-.57-1.8-1.28-3.02-1.62.79,1.63,1.69,3.74,3.51,4.38,1.01.37,2.18.09,3.09-.4.77-.42,1.43-1.05,2.08-1.62M149.2,151.93c.63,1.11,1.22,2.29,2.17,3.15,1.55-.35,3.03-.48,4.63-.57.69-.69,1.8-1.57,2.04-2.52-.32-.55-.48-.58-1.06-.88-.55.03-.63.11-1.14-.17l-.71.45-.65-.28c-.69.35-1.35.71-2.01,1.11-1.09.12-2.18-.12-3.28-.29M106.08,269.15c.69-2.17,2.08-2.88,3.77-4.21-1.17.37-2.48,1.04-3.71.72-.08-.06-.14-.14-.22-.2-.88-.78-1.55-1.03-2.69-1.29-2.05,1.08-1.12,1.78-2.92,1.38l-.18.37c.69,1.11,3.43,2.74,4.74,3.03.18.05.38.08.57.11.14.02.26.05.4.06.09.01.17.01.25.03M265.13,267.09l-2.28.31-.25.34c.38.51.65.6,1.25.78.49-.2.95-.39,1.41-.65.43.92.89,1.82,1.38,2.71.94-.2,1.55-.35,2.32-.95.34-.66.35-.62.15-1.34-.83-.81-1.41-.86-2.51-1.08-.23-.05-.46-.11-.69-.17-.46-.11-.28-.08-.8.05M154.13,319.5c-.06-1.51-4.37-5.84-5.61-6.98-1.11-1-1.94-1.72-3.49-1.71.46.46,1.12.86,1.08,1.57-.02.12-.17.54-.21.68.86,2.49,5.46,5.11,7.74,6.21.17.08.34.15.51.23M293.26,324.81c1.4.03,2.86-.02,4.24.11,3.72.28,9.32,1.01,12.35-1.65,1.21-1.08,1.26-2.71,2.2-4.01-.94-.34-2.4-1.11-3.35-1.08-.09.03-.17.06-.26.09-1.75.57-3.45.03-5.17.52-3.72,1.14-6.63,4.21-10.01,6.01M95.12,121.22c.03-.08.06-.14.11-.2.38-.75.71-1.05,1.43-1.48,1.15-.68,2.09-1.18,3.37-1.6.21-.06.42-.15.61-.23l-.15-.35c-1.49-.55-3.51-.88-5.11-.74-.98,1.24-2.74,3.95-4.24,4.44l.15.32-.37.39c1.15-.05,2.25-.08,3.4.06.43-.21.52-.18.8-.61M141.62,126.03c1.01-.26,2.01-1.29,2.6-2.18.09-.14.18-.37.26-.51l-.04-.11c-.14.06-.26.14-.4.2-.88.38-2.23-.03-3.18-.12-.45-.05-.86-.03-1.17-.43-.26-.35-.46-.8-.68-1.17-.23-.4-.46-.69-.78-1-.77,2.95-.6,6.54-.72,9.6.42-1.18.86-3.21,2.01-3.88.6-.37,1.46-.35,2.11-.4M327.82,96.06c.17-.88.42-1.62-.02-2.45-.66-.6-1.37-1.05-2.14-1.51-1,.71-2,1.12-3.14,1.57-1.92-1.48-3.91-3.29-6.35-3.72.35.49.71.95,1.12,1.4.45.48.77,1.02,1.11,1.58,1.2.21,2.37.43,3.54.78.46.94.39,1.12,1.4,1.51.58-.14.57-.28,1.12.06.51.31.91.68,1.34,1.09.31-.34.6-.68.89-1.05.46.17.75.4,1.12.72M286.74,252.02c.71-.83,1.61-1.62,1.63-2.74-.42-.46-.71-.74-1.28-1-.92.94-1.77,1.63-1.75,3.01.43.49.78.55,1.4.72M248.44,197.12c-1.2.75-1.72.97-2.06,2.41-.18.85-.31,1.54-.14,2.4l.45.49c.77-.02,1.18-.32,1.71-.88.38-.39.72-.82,1.03-1.26.88.2,1.38.98,2.15,1.43.74-.15,1.28-.31,1.92-.72.4-.65.66-1.18.45-1.97-.06-.26-.15-.46-.24-.72l-.29-.09c-1.11.55-2.29,1.32-3.54,1.41l-.46-.28c-.12-.66-.26-1.31-.45-1.95l-.52-.28ZM171.84,241.29c-1.18-2.69-3.2-8.33-6.12-9.47-.8-.31-1.55-.25-2.4-.2,2.03,2.75,5.61,8.1,8.52,9.67M160.43,50.02c1.35-.45,2.95-1.03,3.71-2.35.35-.61.34-.98.18-1.64-.46.18-.92.37-1.37.58-.45-.77-.89-1.55-1.11-2.43l-.09-.03-1.29.2c-.88,1.51-.34,3.54-2.2,4.12-.22.58-.28.86-.15,1.48.48.34,1,.55,1.62.4.31-.06.44-.17.71-.32M321.12,283.76c-.29-1.38-.54-3.98-1.46-5.01-1.09-.23-2.04.95-2.77.82-.48-.09-1.95-1.24-2.23-1.66-.08-.11-.14-.21-.2-.32l-.46-.2c.09.74.11,1.43.09,2.17-.02.37,0,.25.11.68.08.03.17.06.25.11,1.86.82,5.12,3.52,6.4,3.88l.28-.17v-.28ZM271.9,239.53l-.75,1.49.15.22c.77-.38,1.54-.82,2.35-1.11l.48.12c.69.98,2.01,1.54,2.88,2.45.06.06.11.12.17.18.97-.92,1.63-.95,2.91-1.22.45-.43.51-.4.55-1.01-.15-.29-.15-.32-.41-.58-1.19-1.21-4.72-1.78-6.34-1.69-1.03.08-1.34.42-1.98,1.15M127.93,132.53l.06.35c1.43.83,4.37.51,5.86.08.57-.17,1.01-.35,1.35-.86.23-.35.17-.37.22-.83-.23-.42-.75-1.32-1.17-1.57-1.52.31-5.37.23-6.27.85.52.65,1.42,1.08,1.61,1.86-.66.29-.95.19-1.66.12M289.57,212.64c1.69-1.03,2.91-2.25,4.23-3.74.08-1.48.57-4.71-.26-5.9-.05-.06-.11-.12-.15-.17l-.12.31c-1.21,2.83-3.74,6.26-4.1,9.29l.26.25.15-.03ZM180.87,210.24c-1.15.72-1.68-.06-2.32.32,3.18,2.44,5.92,1.26,9.21,4.58l.86.71.35-.09c.28-.68.23-1.18-.03-1.86-.46-1.15-1.69-2.08-2.85-2.45-1.55-.51-3.6-1.14-5.23-1.21M357.27,118.84l1.03-.26c.23-.51.29-.89.18-1.45-.28-1.31-2.21-2.45-3.27-3.03h-.25c-.12.12-.23.26-.35.38-.54.55-1.14.65-1.88.78-.2.48-.28.37-.14.78.31.88,1.89,2.48,2.77,2.71.55.15,1.34.08,1.91.08M336.87,163.62l.75-.57c0-.09-.02-.17-.02-.25-.05-.68.03-1.37.02-2.05-.45-.06-.25-.11-.58.09-.77.45-1.4.69-2.28.86-.43-.4-.68-.8-1.01-1.26-.23-.32-.18-.23-.6-.49.02,1.97-.57,4.64-.12,6.52l.42.14c1.6-.8,2.12-1.98,3.43-3M240.14,73.67c-.05.08-.09.14-.14.22-1.62,2.35-4.31,1.69-4.24,3.24.57.45.81.37,1.51.4l.45-.26.58.45c1.65-.2,3.32-.28,4.8-1.09.2-.34.35-.42.23-.82-.29-.86-1.28-1.57-2.11-1.88-.35-.14-.72-.2-1.08-.26M322.48,96.17c-1.18,1.2-2.72,2.46-3.49,3.97.12.8.42.89,1.02,1.43l.71-.09c2.34-1.08,3-2.54,4.21-4.71-.82-.17-1.68-.29-2.45-.6M112.83,352.55c1.01-.82,2.06-1.68,3.18-2.34,2.61-1.52,6.29-2.63,8.18-5.03l-.02-.4-.28-.11c-3.92,2.85-9.31,2.89-11.52,7.63.34.25.18.2.45.25M208.92,262.93c.51,3.04,1.48,7.41,3.17,10l.21.05c.02-2.58.48-6.77-1.51-8.75-.52-.49-1.23-.97-1.88-1.29M267.88,142.94l2.55-3.63c-.28,1.52-1.12,4.84-.29,6.2.05.08.11.14.15.2.38-.11.66-.23,1.02-.38.85-.35,2.2.01,3.04.31.06-.09.12-.2.17-.29,1.26-2.05,4.35-3.03,4.54-5.72l-.34-.64-.48-.06-.29.25c-.6.49-1.06.97-1.85,1.14-1.23-.21-1.98-2.48-3.28-1.83l-.18.31c-.38.62-.64,1.22-1.32,1.54l-.46-.26c-.28-1.54,2.26-2.89.23-4.14-.2-.12-.49-.2-.72-.28-.4.74-.83,1.75-1.42,2.35-2.43,2.52-3.18-.37-3.84,5.64l2.77-.69ZM231.53,186.86c.85.65,1.69,1.31,2.55,1.92.6-1.66,2.14-5.41,1.72-7.09-1.09,1.05-2.03,2.03-2.86,3.29l-2.61.15c.14.6.69,1.37,1.2,1.72M381.23,275.6c-1.28,1.32-2.21,1.46-4.08,1.51h-.26c-.51.43-.66.74-.71,1.41-.03.37.05.77.09,1.12.6.51,1.38-.05,1.34.8-.01.17-.12.49-.18.66,1.48-.83,2.98-.03,4.57-.68-.09-.83-.75-.6-.68-1.58.63-.58,1.57-1.09,1.86-1.89-.43-.78-1.14-1.08-1.95-1.35M405.36,201.07c.12-2.32,1.78-6.63,1.11-8.09-.58-.49-.72-.57-1.51-.57-.09,0-.2.02-.29.03-1.18.2-6.38.35-6.97,1.06l.34.72-.31.29-.72-.09-.12.34c1.41,1.31,4.74,1.31,5.09,3.34-.37.54-1.06,1.11-1.32,1.66-.57,1.23-.18,2.24-1.83,2.72-1.4.4-2.97.28-4.45.71,1.28.6,2.61,1.12,3.72,2,.66.54,1.21.77,1.41,1.66.09.4.08.89.09,1.31l.32.06.52-.4c.52.51.94,1.43,1.57,1.71l-.29-.55.22.17-.06-.31c-.12-.68-.35-1.49-.03-2.14.57-1.12,1.35-1.29,1.08-2.8-.18-1.03-.68-2.09-1.05-3.08,1.14.05,2.32.06,3.48.25M141.01,304.53c-1.64-1.35-9.92-8.01-11.16-8.34,1.48,3.4,5.26,6.21,8.61,7.55.83.34,1.69.55,2.55.79M237.31,191.04l.94-1.97c.6-.99.97-1.69,1.15-2.83.06-.43.12-.86.2-1.28.09-.48.05-.31.34-.8.55.29.89.65,1.32,1.09l.18-.17c-.03-.08-.05-.17-.08-.25-.29-1.06.03-2.61-.51-3.45l-.75-.32c-2.34,3.38-2.74,5.98-2.8,9.97M339,264.94c.68,1.31,1.55,3,3.09,3.46.21.06.34.03.54.02.48-.4.55-.74.74-1.32l.75-.19c0-.23.03-.52,0-.75v-.32c.54.6.8,1.09,1.6,1.31.86-.66,2.23-1.45,2.8-2.35-.52-.15-1.12-.15-1.29-.77-.05-.17-.05-.57-.06-.75-.62.05-1.21.11-1.82.2l-1.42-.68c-.38.81-.52,1.62-1.45,1.98-.89.35-2.52.17-3.49.17M114.86,182.11c-.08-1.78-.08-3.63-.48-5.38-.37-.11-.72-.23-1.09-.32-.18,1.15-.34,2.31-.43,3.48-.37-.02-.64-.05-1-.12-.14.55-.15.98.15,1.49.54.89,1.92,1.31,2.88,1.43.72.11,1.26-.14,1.88-.51.09-.62.31-1.06-.03-1.6-.77.32-1.29.97-1.88,1.54M230.11,244.82c1.63-2.86,6.87-10.89,6.57-14.06-1.65,2.86-6.89,10.77-6.57,14.06M335.55,298.11c1.45-.14,2.58-.11,3.63-1.29l.06-.45c-.63-.54-.75-.72-1.58-.77-.05,0-.09.01-.14.01-1.18.62-2.42,1.17-3.43,2.03l-.09.4c.59.15.97.14,1.55.06M170.4,258.62c2.48,2.71,6.27,4.8,9.34,6.83l.66.45.18-.15c-1.2-2.6-4.94-9.89-7.55-11-.08-.03-.17-.05-.25-.08-.94,1.32-1.31,2.66-2.38,3.95M228.79,192.21c.66-.89,2.26-2.78,2.09-3.88-.05-.26-.14-.46-.23-.69l-1.34-.26-.46,1.55-1.08.12c.17.89,1.01.57,1.08,1.52l-.88.68-.02.31c.26.2.52.48.83.65M105.4,296.97c.68-.43,1.06-.52,1.31-1.31-.48-.69-1.26-.85-1.97-1.23-.58-.31-.94-.85-1.37-1.32-.01-.01-.03-.03-.05-.04-.6.81-1.12,1.31-1.23,2.34.51.94,1.06,1.21,2.08,1.51.45.14.78.11,1.23.06M313.41,280.43l.34-.42c-.14-.58-.26-.68-.8-1.03-1.09-.71-2.51-1.05-3.77-1.29-.09.81-.37,1.51.09,2.21.61.14,1.06.14,1.69.09.77-.06,1.17,0,1.89.25.11.03.23.08.34.11.08.03.14.06.22.08M367.95,204.25c-1.63-.52-3.05-1.14-4.54-1.97l-.63.63c-1.64-.14-3.03-1.01-4.51-1.58-.17-.06-.35-.21-.51-.32,0,.97-.18,2.2.48,2.97.2.23.63.49.88.65v.34l-.69.42.08.34,1.78.11c.2.39.38.77.54,1.18.4-.23.63-.46.92-.81.17.02.34.05.52.06.75.08,1.34-.12,2.06-.31.14-.03.28-.06.43-.09.17.31.34.6.52.91.18-.12.41-.23.57-.4l2.09-2.11ZM86.58,200.7c-.52.19-1,.35-1.55.45-.25.54-.43,1.06-.63,1.61l-.28.06-.58-1.12-.45.06c-.2.49-.26.57-.03,1.09.29.65.86,1.25,1.32,1.79.71.48.88.71,1.75.69.97-.6,1.64-1.26,1.92-2.42.18-.75.15-1.37-.23-2.01l-1.25-.2ZM340.26,292.08l-2.23-1.86c-.51.86-1.66,2.27-1.61,3.21.61.22,1.2.25,1.85.31.58-.78,1.17-1.17,2-1.66M266.81,163.05c.46-.52.61-.65.77-1.31-.25-.52-.18-.51-.72-.85l-.91.48c-.59-.2-.69-.51-.95-1.03-.18-.35-.32-.72-.48-1.08-.29-.21-.58-.43-.91-.6.11.65.26.97.63,1.52.54.8.68,1.23.48,2.2-.12.57-.26,1.14-.37,1.71l.48.14-.42-.03c.12-.02.26-.02.39-.03.74-.12,1.41-.71,2.01-1.12M211.95,235.09c.35-4.44,1-9.24.66-13.69-.49-.79-.95-1.66-1.68-2.23-.21.91-.34,1.57-.97,2.26-.43.09-.78.12-1.21.15-.52.03-.8.12-1.17.51-.23.23-.43.66-.6.94l-.35-.02-.48-.61c-.43.35-.72.72-1.06,1.17l-.51.06c-.32-.34-.63-.68-.92-1.05l-.22.11c.85,2.65,2.89,4.86,4.6,6.98,1.35,1.8,2.72,3.54,3.91,5.41M110.53,330.01c1.15-.45,2.26-.86,3.31-1.52l.14-.38h-.34c-1.14.03-2.23,0-3.32.37l-.43.54c.2.49.25.65.65,1M320.59,217.88l-.31-.51c.26-.34.54-.62.85-.89-.22-.77-1.12-1.29-1.72-1.77-.62.38-1.23.97-1.95.86-.26-.55-.42-1.01-.54-1.61-.35.83-.66,1.45-.58,2.37.78.91,1.92.51,2.69,1.35-.08.63-.2.94.05,1.54l.54.18c.34-.52.66-1.02.99-1.52M50.01,201.82c-1.32-.4-2.63-.82-3.97-1.14-.05,1.2-.06,1.38.75,2.37,1.37,1.66,1.28,6.18,3.11,7.26.46-.86.22-1.78,1.25-2.14,1.15-.39,3.14.71,3.98.12l-.08-.35c-.15-.75-.34-1.37-.08-2.11.45-.32,1.25-.72,1.42-1.25-2.17-.42-5.21,2.31-7,.22-.2-1.29.05-1.86.62-2.98M309.85,142.77c.45.8.77,1.66,1.64,2.06,1.17.05,1.58-.31,2.42-1.08.48-.45.94-.89,1.4-1.34.66-.77,1.28-1.48,1.71-2.4l-.09-.32c-.46.14-.66.26-1.06.52-.48-.08-.72-.15-1.15-.38-.95-.49-6-.97-7.69-1.38-.06.98-.31,2.31.48,3.09.57.54,1.63.91,2.35,1.23M340.58,105.72c1.6-.37,3.54-1.97,4.54-3.26v-.46c-.97-.28-1.09.41-2.12-.05-1.21,1.54-3.34,1.42-5,2.41l.19.74h-.08c.85.28,1.62.46,2.48.61M119.71,300.83c-1.86-1.4-3.68-2.75-5.95-3.43,1.49,2.08,2.54,2.91,5.07,3.32.29.05.58.08.88.11M239.94,189.9c-.48.55-1.03,1.11-1.01,1.89.02.54.25,1.18.38,1.71.54-1.06,1.08-2.2.71-3.42-.01-.06-.05-.12-.08-.18M321.31,156.39c.14.98.31,2.03,1.17,2.68.63.48,1.23.48,1.97.28.18-.05.37-.11.55-.17l.39-.83-.22-.55c-.55-.25-1.03-.34-1.61-.46-.89-.17-1.49-.48-2.24-.94M310.79,210.27c.28-.92.63-1.8.55-2.78l-.31-.05c-2.2,1-3.61,1.82-4.55,4.18l.08.48h.32c1.29-.65,2.57-1.31,3.91-1.83M128.81,284.32c-.4.23-1.08.8-1.49.91-.97.25-2.26-.77-2.64.35.35.51.68,1.08,1.11,1.51l1.86,1.66c.6-1.37,1.11-2.6,1.38-4.08l-.21-.35ZM102.59,93.31c.85-.28,1.4-.29,1.95-1-.21-.57-.52-.74-1.09-.94-.48-.17-1.01-.28-1.51-.38-.74,1.17-1.49,2.31-2.14,3.52l2.79-1.2ZM98.88,158.95l.75-.82c-.12-1.14-.88-2.06-1.18-3.18l-2.72-1.46c.48,1.79.94,2.98,2.14,4.4.37.43.43.83,1.01,1.06M284.36,250.78c.78-.8,1.06-1.71,1.01-2.83-.02-.51-.08-.88-.48-1.23-.66,1.18-1.32,2.11-1.01,3.51l.48.55ZM133.87,97.77c-1.08-.68-4.2-2.02-4.69-2.97.83-1.63,3.92-4.18,3.89-5.92l-.43-.12c-2.14.82-4.38,1.57-6.11,3.12l-.14.49.29.23c.72.58,1.05.71,1.21,1.62-.75,1.86-4.2,2.58-3.61,4.18.95.63,2.12.82,3.21,1.09l.23-.12c.05-.37-.05-.83.31-1.05,1.34-.89,4.23-.55,5.83-.55M321.14,327.5c-1.51.29-2.63.55-3.94,1.4l.28-.12-.57.51.02.02.34-.32c.98.57,1.43.43,2.51.18.08.01.15.03.23.05.37.09.57.28.86.52.57-.09,1.08-.55,1.38-1.03.18-.28.18-.35.29-.63l-.14-.4c-.52-.15-.75-.22-1.26-.17M322.93,336.39l2.91,3.46c-.89.45-1.78.91-2.72,1.28,1.08,1.81,2.37,3.41,3.81,4.95l.34.17c3.75-1.8,3.51-1.66,7.69-1.12.17-.65.28-.92-.08-1.55-1.49-2.65-5.11-1.89-4.48-6.23.05-.32.11-.63.17-.95-.39-.52-.46-.46-1.04-.68l-.75,3.2c-1.92-1.18-3.55-2.09-5.84-2.52M92.21,304.93c.8.29,1.23.26,2.06.17.83-.09,1.18.01,1.94.32.23-.57.18-.66.06-1.26-.48-.46-.82-.66-1.43-.89.23-.35.38-.51.71-.78l-.09-.35-.95-.12c-.29-.54-.43-.94-.57-1.52-.2-.86-.49-1.15-1.23-1.66-.14.72-.17,1.74-.72,2.25-.09.01-.19.03-.26.05-1.49.23-2.52.72-3.6,1.77v.38c1.2.88,2.68,1.23,4.09,1.66M200.72,211.71c.17,1.15.43,2.24,1.42,2.98,1.15.85,2.57.75,3.89.55-1.48-1.58-3.24-2.8-5.31-3.54M166.61,217.53c-.89-.25-1.6-.37-2.23-1.06-.25-1.68,1.97-2.34.38-3.86-.03.08-.06.14-.09.21-.4.95-.94,1.4-1.68,2.09-.12.12-.25.25-.38.37-.38-.14-.77-.26-1.17-.39-.45,2.08.15,4.03,1.28,5.81.58.92,1.26,1.65,2.11,2.32.38-.05.74-.12,1.11-.2.94.8.62,2.66,1.11,3.77.89,1.95,2.24,3.74,3.23,5.66,1.01,1.95,1.78,4.03,2.8,5.98l.25.21c.8-2.35-2.29-13.46-3.32-15.61-.26-.54-.54-.91-1.08-1.2-.58.31-.55.41-.75,1.04-.09.26-.14.54-.21.82-.22-.46-.23-.57-.28-1.03-.15-1.74-.48-3.14-1.06-4.78.03-.08.01-.12,0-.17M112.59,104.97c-.26.71-.4,1.34-1.17,1.69-.42.18-.94.26-1.38.35-.37.48-.46.85-.4,1.46.06.6.23,1.23.37,1.82l.35.11c1.11-1.08,2.97-2.63,2.92-4.29-.02-.43-.43-.8-.69-1.14M339.23,327.78l.89-.23.05-.49c-1.4-1.59-2.31-2.17-4.43-2.31-.69-.05-1.35-.09-2.05-.18l-.45.63c.52.74,1.98,1.23,2.88,1.4.29.71.32,1.14,1,1.54l2.11-.35ZM199.32,225.68c-1.08-3.75-6.43-16.95-9.46-18.99.86,2.52,7.8,17.76,9.46,18.99M112.95,324.33l-1.18,2.37c1.63.37,3.4.97,5.06,1.08.37-.63.48-.75.46-1.48-1.29-1.31-2.48-1.91-4.34-1.97M288.57,67.43c-.26,1.15-.58,2.17.02,3.26.26.48.78.77,1.31.89.86.2,1.68,0,2.52-.15.26-.05.51-.08.77-.12-.64-1.14-1-2.12-2.35-2.51-.12-.03-.25-.06-.37-.09-.69-.26-1.32-.82-1.89-1.28M310.24,308.8c-1.72.6-6.54,1.91-7.4,3.48-.05.08-.06.15-.09.23.52.43.23.28.88.45,2.52-.83,5.24-1.58,7.35-3.24l.2-.45c-.38-.34-.43-.37-.94-.46M292.49,335.15c1.52-.05,3.05-.12,4.57-.05,3.24.12,6.86.43,9.49-1.89.68-.59,1.38-1.52,1.38-2.46,0-.69-.29-1.2-.82-1.63-1.02-.85-2.26-.77-3.49-.62-3.92,1.91-7.67,3.94-11.13,6.64M133.32,199.15c2.78,2.06,6.54,4.77,10.1,4.97l.6-.26c.26-.86-.25-1.52-.62-2.31-.68-1.52-1.26-2.41-1.44-4.06-.02-.15-.09-.31-.12-.46-1.32.42-1.2,1.09-2.66.34-.98.2-1.49.86-2.21,1.54-2.62-1.68-2.71.31-4.08-2.26l-.52-.31c.29.97.55,1.91.95,2.81M296.4,71.78c-.29.82-.4,1.03-.26,1.91,1.04,1.6,3.37.83,3.88,3.15-.51.94-1.38,2.12-1.11,3.23.11.42.4.58.71.86.6-.4.82-1.03,1.14-1.66.71-1.78,1.63-3.32,2.52-5.01-1.95-.23-3.69-.42-5.31-1.66-.51-.38-.91-.68-1.57-.82M154.71,115.52c.23,1.77.91,3.51,2.38,4.61.71.54,1.65.85,2.54.68.83-.17,1.38-.78,1.95-1.35.26-.62.54-1.23.85-1.82-.37-.52-.97-.51-1.58-.63-1.11-.21-2.26-.29-3.37-.55-.94-.24-1.81-.69-2.77-.94M72.49,276.97c-1.61.49-4.09.92-5.37,2.01v.41l.46.22c.79.37,1.54.78,2.15,1.4l.2.05c1.12.42,2.92,1.23,4.08.57.57-.32.74-.72.82-1.34.09-.91-.54-1.98-.94-2.75-.49-.37-.8-.46-1.4-.57M266.92,59.52c-3.17,2.34-6.07-.09-7.81,1.21-.05.61.03.65.43,1.09.4.45.95.74,1.46,1.03.08.02.15.02.23.03,1.52.26,3.43,2.58,4.94,1.49.78-.55,1.23-1.69,1.37-2.61.09-.72.11-1.46-.2-2.14l-.41-.11ZM116.46,292.42c-.11.08-.21.17-.32.23-.46.29-.74.34-1.28.38l-.23.49.03-.05c.03.11.05.2.08.31.8,2.24,4.77,5.15,6.92,6.09.64.28,1.18.37,1.89.26l.4-.77c-.18-.2-.41-.37-.6-.58-.66-.75-.66-2-1.44-2.77-.37.29-.69.62-1.02.95-.65-.08-.6-.15-.97-.65-.98-1.29-1.63-3.31-3.23-3.95l-.23.04ZM143.87,226.4c.89-.06,1.86,0,2.54-.69.29-.31.2-.29.21-.77-.48-.49-.78-.8-1.41-1.09-.34.34-.37.49-.49.94l-.38-.26c-1.37-.92-2.55-1.35-4.14-1.77-.03,0-.05-.02-.08-.03l.23.86c-.54.71-.82.99-1.71,1.11-.34.05-.67.08-1.01.11.06.43-.03.23.29.58.72.82,1.14,1.23,1.26,2.34,1.11.88,2.35.95,3.6,1.52.29-.98.63-1.91,1.09-2.85M230.11,214.46c-.45.69-.88,1.37-1.28,2.08-.21.4-.41.63-.72.95l-.52.02c-.34-.4-.66-.79-1.03-1.15-1.98,1.69-2.55,6.08-2.78,8.58l.46.52c2.23-1.18,5.04-6.7,5.75-9.1.19-.61.37-1.29.12-1.89M172.87,53.02c-.46,1.41-1.86,5.4-1.66,6.66,1.52.34,2.26-1.46,3.98-.2l.17-.29c.95-1.23,2.32-2.63,2.89-4.08-.35-.57-.65-.78-1.29-.95-1.55-.42-2.71-.18-4.09-1.14M127.47,113.61l.69,2.75c2.42,1.57,3.75,3.09,5.06,5.66.42.8,1.46,1.37,2.18,1.86l.29.08c.23-1.98-.48-4.54-1.71-6.09-1.61-2.08-4.11-3.34-6.52-4.26M248.95,23.1c-1.58,1.35-3.31.23-4.32,2.37.71,2.11,2.37,3.64,3,5.83.06-.05.11-.09.17-.14.68-.54,2.35-.98,2.78-1.45.15-.15.08-.43.12-.63-.35-.52-.72-.82-1.22-1.2-.14-.55-.17-.28.06-.75.52-1.03.85-1.64.48-2.78-.18-.57-.45-.88-.91-1.24h-.17ZM358.17,299.49c-.29.94-.71,1.06-1.52,1.62h-.4c-.75,0-1.49-.09-2.14.35-.43.62-.48.94-.54,1.66.58,1.06,1.81,1.37,2.91,1.68.69.2,1.4.32,2.11.45.25-.14.41-.23.66-.37.67-1.23,3.91-1.14,4.41-2.71l-.22-.52c-.52-.03-.91.03-1.41.14-.55.12-.82.15-1.34-.11-.05-.09-.11-.18-.15-.28-.6-1.01-1.15-1.49-2.28-1.88-.02-.03-.05-.03-.09-.03M292.34,212.99c-2.6,1.77-10.52,8.09-11.47,10.97l.31.12-.02.06,1.18.46c.65,0,.72.11,1.25-.31.71-.55,3.28-1.75,3.28-2.38,0-.12-.14-.6-.18-.74,1.27-1.82,2.46-2.35,2.88-4.71,1.03-.77,2.21-1.51,2.95-2.57l.09-.62-.26-.29ZM243.55,216.48c-1.77,2.85-1.4,6.78-1.34,10.01,1.2-1.31,2.37-2.66,3.66-3.88,1.14-1.15,2.29-2.27,3.01-3.75l-.08-.68.17.23-.25-.26c-.68.12-1.12.42-1.69.79l-.38-.2-.2-1.26c-.58.01-.85.15-1.38.4-.88-.26-.88-.83-1.52-1.4M197.57,171.91c-1.21.46-2.52.85-3.54,1.68l-.11.43c2.57,1.06,5.34,2.17,8.09,2.61.35.06.71.12,1.08.18.94-.66,2.61-1.43,3.08-2.43-.43-.6-.61-.61-1.31-.91-.46.25-.86.51-1.29.82-1.06-.17-.88-.88-1.63-1.41-1.06-.74-3.09-.43-4.37-.97M177.44,115.29c-.09.03-.18.08-.28.11-1.69.68-3.26.77-5.07.71l-.97-.02c-.37,1.38,2.11,5.66,2.65,7.21l.4-.09c.06-.12.14-.26.2-.38,1.01-1.89,5.41-5.61,4.97-7.43-.58-.31-1.06-.29-1.72-.17-.04.02-.11.05-.17.06M213.29,89.96c-.61.58-.89.72-1.08,1.57.42.51.82.92,1.29,1.37,1.57,1.45,3.25,4.32,4.72,5.35.51-.09.35.05.57-.28,0-.08.01-.15.01-.23.12-1.45,2.18-4.8,1.54-5.92-2.31-.83-4.83-1.01-7.06-1.86M258.36,214.25c-1.63,1.6-3.09,3.38-4.77,4.94-3.12,2.91-10.26,7.61-11.58,11.58l.08.4c3.32-2.65,15.92-12.03,16.3-15.99.06-.51.03-.42-.03-.92M313.5,327.5c-.89.15-1.8.28-2.68.55-.99,2.29-2.08,4.51-3.21,6.72,1.15-.24,2.35-.6,3.54-.69,2.29-.23,3.29-1.8,6.32-2.26-.95-.79-1.69-1.26-2-2.51-.15-.62-.17-1.32-.82-1.6-.32-.14-.8-.17-1.15-.21M156.36,326.55l2.41.86c-3.55-3.28-8.01-8.12-12.93-8.92-1.89-.31-3.98-.08-5.91-.03-.98.14-2.17.15-2.98.75-.08.71.11.98.55,1.52,3.11,3.8,9.57,3.68,13.98,4.46,1.68.31,3.28.81,4.88,1.35M211.17,207.02c-.62.91-1.35,2.4-2.28,2.95-1.17-.66-2.29-1.37-3.66-1.52-.69.28-.68.28-1.05.92.12.68.55,1.03,1.09,1.42,1.06.77,2.24,1.35,3.31,2.14,1.38,1.06,2.66,2.15,3.91,3.35.63-2.35,1.83-6.29.45-8.55-.2-.32-.29-.54-.65-.68l-.29.48-.39-.02-.44-.49ZM146.53,329.01c-3.08.97-6.09,1.35-9.12,2.55-.31-.52-.2-.23-.31-.88-.62-.01-1.11.35-1.57.75-.57.48-.83.81-.91,1.52.24.11.51.23.75.31,3.2.29,8.43,1.55,11.03-.66.91-.78,2.03-2.26,2.15-3.46-.58-.35-1.35-.18-2.03-.14M257.93,114.22c-1.61.97-1.94-.32-3.66,1.2-.74.65-1.38.97-2.29,1.29-.31.46-.55.72-.4,1.31.15.58.75,1.32,1.34,1.55.42.17.88.21,1.31.28.26.66.46,1.31.65,2l.55.8c.54.06.68.11,1.15-.23,1.82-1.32,3.23-5.29,3.71-7.43-.64-.23-1.69-.78-2.35-.77M321.45,294.34c.05.06.11.11.15.17.69.71,1.43,1.2,2.26,1.72l.06.34c-.95.77-2.17,1.25-3.28,1.78-.66-.28-1.11-.57-1.85-.29-.54.2-1.26.95-1.41,1.54-.17.69-.11.85.23,1.4,1.11.55,2.71.15,3.82-.29.29-.11.52-.28.77-.45l.29-1.12.34.02.18.23c1.91.85,3.77.41,5.66-.34,1.02-.4,1.77-.98,2.45-1.85.05-.4.17-.58-.11-.92-.52-.63-1.48-1.01-2.18-1.4l-.23.05-.05.37c-.06.43-.15.86-.24,1.29-.69.18-1.14-.11-1.77-.43-1.85-.95-2.89-1.65-5.09-1.82M207.55,256.22c1.31,1.52,2.69,2.98,4.35,4.12-.11-6.98.38-17.67-5.14-22.82-.77-.72-1.64-1.25-2.58-1.72,1.38,6.74,3.12,13.53,3.37,20.42M301.29,314.14c-5.4.35-10.07,4.94-13.98,8.3-1.28,1.09-2.72,2.15-3.85,3.4-.17.18-.31.38-.46.58l.12.22.99-.4c5.12-2.51,12.03-5.64,16.04-9.64.02-.57-.02-.51-.29-.95.97-.2,2.43-.35,3.06-1.15-.54-.14-1.08-.25-1.63-.35M304.47,203.91c-.42.72-.6,1.34-1.34,1.75-.92-.15-1.28-.29-2.09.26-1.75,1.18-5.11,4.69-5.32,6.84-.05.41.08.54.23.89.57.18.85.09,1.4-.08.57.55.71.89,1.58.83,2.02-.15,4.41-2.89,5.48-4.51.69-1.04,1.49-2.66,1.19-3.97-.17-.75-.68-1.43-1.12-2.03M273.67,162.56l-.83.46-1.21-.38c-.49.52-.52,1.18-.51,1.89.03,1.02.31,1.94,1.05,2.64,1.61,1.54,4.46,1.37,6.32,2.57,1.32.85.39,3.2,2.91,3.03,2.6-.18,4.34-2.51,7.09-2.78.61-.55.82-.63,1.03-1.46-.29-.62-.26-.63-.89-.88-.57.28-.25.05-.63.52-.74.94-2.2,1.09-3.32,1.17-1.26.09-3.44.26-4.55-.32-.09-.52-.06-.88.03-1.4l-.25-.18-1.01.86c-.68-.18-1.34-.37-1.98-.63.02-.08.02-.15.03-.23.12-1.37-.15-2.94-1.05-4.01-.37-.45-.68-.66-1.23-.8-.08.06-.15.11-.23.17-.29.2-.17.15-.45.22l-.31-.45ZM170.98,219.88c2.37,4.63,2.61,9.87,4.57,14.64,2.35,1.08,4.83,2.11,7.34,2.74-2.61-4.8-5.88-9.26-6.98-14.69-1.65-.52-3.35-.8-4.41-2.26-.23-.31-.12-.18-.51-.43M110.96,161.64l-.21.23c-.62.66-.89.85-1.69,1.22-.17.08-.61.37-.79.48l.42,1.99-.28.09-.94-.89c-.65.15-.91.78-1.29,1.31-.38.52-.69.71-1.28.97-.63-.08-1.2-.2-1.83-.03-.38.8-.4,1.06-1.2,1.51-.75-.02-1.34-.18-1.97.25.03.06.08.12.11.2.05.09.09.2.15.29.06.11.12.21.17.32.55,1.28.45,3.12.43,4.52-1.08.97-2.8,1.08-3.72,2.12.18.55.4.77.83,1.15.49.05.52.14.97-.12.69-.42,1.21-.82,2.04-.74.51.38.71.62.78,1.28.06.57.05,1.18.05,1.75l.25.18.11-.05c.14-.09.26-.2.4-.29.4-.29.75-.41,1.23-.57,1.62-.52,2.82-2.58,4.25-3.65-2.83-.21-4.21-1.35-6.37-3.17,1.88-1.75,4.15-2.74,6.09-4.37l.41.77c.68-.18,1.12-.66,1.65-1.11.2-.54.37-1.05.66-1.54,1.37.31,2.68.62,4.11.65-.98-1.86-2.08-3.23-3.54-4.75"/>
      </g>
    </g>
  </g>
</svg>