<?xml version="1.0" encoding="UTF-8"?>
<svg id="Layer_1" xmlns="http://www.w3.org/2000/svg" version="1.1" viewBox="0 0 360 360.03">
  <!-- Generator: Adobe Illustrator 30.5.1, SVG Export Plug-In . SVG Version: 2.1.4 Build 3)  -->
  <defs>
    <style>
      .st0 {
        fill: #010101;
      }

      .st1 {
        fill: #fff;
      }

      .st2 {
        fill: #818181;
      }
    </style>
  </defs>
  <circle class="st2" cx="180" cy="180.01" r="180"/>
  <path class="st0" d="M54.75,309.27c4.59,4.45,9.41,8.66,14.45,12.6,16.73-57.11,151.99-66.71,208.23-12.68,4.49,4.34,8.99,8.97,12.06,13.7,4.86-3.73,9.54-7.71,13.99-11.91-47.85-87.24-246.72-96.63-248.72-1.71Z"/>
  <path class="st0" d="M3.82,217.03c2.34,11.21,5.73,22.04,10.06,32.38,7.13-35.51,40.75-55.17,76.49-62.94,93.68-20.33,239.4,25.23,259.25,53.91,4.64-13.03,7.82-26.75,9.34-40.97C252.1,165.6,48.69,114.46,3.82,217.03Z"/>
  <path class="st0" d="M148.8,60.15c8.3.87,9.1.95,10.08,1.09,113.08,16.24,102.61,22.19,176.46,27.82-6.69-11.39-14.59-21.98-23.53-31.6-11.54,1.94-24.35,3.23-35.35-1.56-84.81-37.88-111.34-39.24-203.51-20.6-10.32,7.65-19.8,16.38-28.26,26.02,32.78-7.11,74.67-4.15,104.11-1.16Z"/>
  <path class="st0" d="M36.66,288.88c4.62,6.07,9.61,11.84,14.95,17.27,2.62-94.82,210.56-84.63,253.12,3.64,9.71-9.34,18.37-19.75,25.8-31.05-35.39-64.09-285.49-101.84-293.86,10.15ZM307.39,276.8c-1.14,2.33-2.27,3.78-3.08,5.17-.96-.52-2.44-1.96-4.09-4.03-2.78-.22-4.98-.88-6.03-1.56-.12-.83,1.07-2.91,2.7-5.18-.71-2.77-.99-5.28-.51-6.17.92-.42,3.4.03,6.12.92,2.37-1.47,4.53-2.52,5.35-2.34.61,1.09,1.12,3.33,1.15,6.12,1.96,1.78,3.29,3.36,3.75,4.35-1.44.71-2.96,1.74-5.36,2.73Z"/>
  <path class="st0" d="M358.95,160.57c-56.78-1.11-274.94-95.87-343.6-11.62-6.71,7.87-11.38,15.52-15.18,23.66-.51,12.56.23,25.11,2.45,38.06,16.86-34.73,69.27-77.12,228.89-46.68,56.76,10.86,108.12,27.18,127.59,34.24,1.27-12.58,1.21-25.13-.14-37.66ZM40.58,160.37c-1.14,2.33-2.27,3.78-3.08,5.17-.96-.52-2.44-1.96-4.08-4.03-2.78-.22-4.98-.88-6.03-1.56-.12-.83,1.07-2.91,2.7-5.18-.71-2.77-.99-5.28-.51-6.17.92-.42,3.4.03,6.12.92,2.37-1.47,4.53-2.52,5.35-2.34.61,1.09,1.12,3.33,1.15,6.12,1.96,1.78,3.29,3.36,3.75,4.35-1.44.71-2.96,1.74-5.36,2.73Z"/>
  <path class="st0" d="M337.6,93.01c-90.5-3.47-188.76-43.8-299.62-23.58-9.45,12.12-17.38,25.48-23.51,39.8,46.18-25.26,109.94-19.15,149.82-15.03.05,0,.66.14.63.16h-.06c18.18,3.2,39.05,4.36,80.99,12.55,46.08,8.97,78.12,15.86,105.25,17.09-3.54-10.81-8.07-21.18-13.5-30.98ZM57.55,85.79c-.2,1.54-.51,2.71-.84,3.26-.83-.45-1.83-.84-3.11-1.67-1.51.23-2.58.17-3.52.25-.07-.64.12-1.83.57-3.32-.83-1.41-1.25-2.7-1.27-3.43.36-.34,1.76-.46,3.4-.44,1.1-1.27,2.21-2.25,2.8-2.31.51.3,1.13,1.65,1.61,3.26,1.5.65,2.73,1.34,2.92,1.79-.32.66-1.23,1.66-2.56,2.61Z"/>
  <path class="st0" d="M80.39,30.08c70.61-17.28,115.7-9.83,163.29,9.31,39.54,16.26,38.33,21.07,66.82,16.66C249.63-8.02,152.37-17.84,80.39,30.08ZM242.99,28.15c-.2,1.54-.51,2.71-.84,3.26-.83-.45-1.83-.84-3.11-1.67-1.51.23-2.58.17-3.52.25-.07-.64.12-1.83.57-3.32-.83-1.41-1.25-2.7-1.27-3.43.36-.34,1.76-.46,3.4-.44,1.1-1.27,2.21-2.25,2.8-2.31.51.3,1.13,1.65,1.61,3.26,1.5.65,2.73,1.34,2.92,1.79-.32.66-1.23,1.66-2.56,2.61Z"/>
  <path class="st0" d="M95.56,339.01c52.33,27.85,115.51,28.06,168.09.42-38.96-43.01-136.63-43.73-168.09-.42ZM214.14,340.85c-.2,1.54-.51,2.71-.84,3.26-.83-.45-1.83-.84-3.11-1.67-1.51.23-2.58.17-3.52.25-.07-.64.12-1.83.57-3.32-.83-1.41-1.25-2.7-1.27-3.43.36-.34,1.76-.46,3.4-.44,1.1-1.27,2.21-2.25,2.8-2.31.51.3,1.13,1.65,1.61,3.26,1.5.65,2.73,1.34,2.92,1.79-.32.66-1.23,1.66-2.56,2.61Z"/>
  <path class="st0" d="M351.63,125.63c-40.46-1.56-102.47-17.13-138.31-21.95-11.04-1.55-49.97-6.45-49.32-6.67-48.35-4.67-100.9-8.69-151.32,16.53-5.17,12.99-8.85,26.73-10.88,41,63.61-104.37,296.35.01,356.82,3.19-1.36-11.04-3.73-21.77-7-32.1ZM314.76,138.42c-.2,1.54-.51,2.71-.84,3.26-.83-.45-1.83-.84-3.11-1.67-1.51.23-2.58.17-3.52.25-.07-.64.12-1.83.57-3.32-.83-1.41-1.25-2.7-1.27-3.43.36-.34,1.76-.46,3.4-.44,1.1-1.27,2.21-2.25,2.8-2.31.51.3,1.13,1.65,1.61,3.26,1.5.65,2.73,1.34,2.92,1.79-.32.66-1.23,1.66-2.56,2.61Z"/>
  <path class="st0" d="M124.69,190.82c-85.57,6.93-98.77,48.29-104.62,71.87,4.11,7.93,8.79,15.51,13.99,22.7,7.12-110.56,261.27-73.61,297.51-8.25,6.6-10.28,12.17-21.28,16.6-32.85-21.98-26.91-137.39-60.58-223.48-53.47ZM107.16,205.83c-1,1.14-1.87,1.8-2.54,2.46-.46-.44-1.08-1.48-1.7-2.91-1.54-.55-2.69-1.26-3.18-1.81.06-.49,1.05-1.49,2.32-2.52.02-1.68.25-3.14.66-3.58.59-.1,1.92.54,3.33,1.46,1.57-.47,2.95-.74,3.39-.51.18.71.13,2.06-.28,3.65.84,1.31,1.35,2.41,1.46,3.04-.92.18-1.95.54-3.46.73Z"/>
  <path class="st0" d="M219.34,283.86c-56.1-14.13-134.93.5-143.9,42.69,5.46,3.9,11.15,7.5,17.05,10.79,32.11-43.73,132.25-44.95,172.63,1.32,7.77-4.18,15.19-8.9,22.22-14.13-17.78-21.21-34.02-32.11-68-40.66ZM122.77,303.58c-.2,1.54-.51,2.71-.84,3.26-.83-.45-1.83-.84-3.11-1.67-1.51.23-2.58.17-3.52.25-.07-.64.12-1.83.57-3.32-.83-1.41-1.25-2.7-1.27-3.43.36-.34,1.76-.46,3.4-.44,1.1-1.27,2.21-2.25,2.8-2.31.51.3,1.13,1.65,1.61,3.26,1.5.65,2.73,1.34,2.92,1.79-.32.66-1.23,1.66-2.56,2.61Z"/>
  <path class="st1" d="M180,310.76c-72.09,0-130.75-58.65-130.75-130.75S107.91,49.27,180,49.27s130.75,58.65,130.75,130.75-58.65,130.75-130.75,130.75ZM90.15,112.14c-53.98,71.05-7.06,173.59,81.08,180.19-1.33-10.15-.81-26.57-.01-47.95-10.25,1.62-26.36,7.72-26.36-9.33,0-9.75,6.02-11.21,9.6-11.21,4.68,0,10.52,2.17,17.4,3.41.62-17.51,1.01-33.12.97-49.88-31.38,1.15-59.26,9.85-59.26-8.7s28.4-8.5,59.09-7.16c-.33-18.54-1.07-35.8-1.61-50.56-38.03.77-67.83,5.8-80.9,1.2ZM188.36,244.32c1.02,21.42,1.8,37.84.65,47.99,88.16-6.79,134.64-109.35,80.85-180.16-12.92,4.6-43.38-.48-81.27-1.22-.68,14.5-1.57,31.83-1.97,50.6,30.98-1.23,59.81-11.65,59.81,7.13s-28.15,9.73-60,8.68c-.05,18.33.52,35.32,1.15,50,11.05-1.89,27.56-9.71,27.56,7.7,0,9.74-5.79,11.78-10.64,11.78-4.45,0-9.81-1.54-16.13-2.51ZM189.02,67.73c.75,6.53.68,15.68.25,27.45,23.65-.58,44.75-3.16,60.04-3.9-17.36-13.58-38.32-21.79-60.3-23.55ZM110.69,91.28c15.31.73,36.3,3.3,59.87,3.89-.27-11.47-.2-20.79.67-27.46-22.06,1.72-43.11,9.94-60.54,23.57Z"/>
</svg>