<?xml version="1.0" encoding="UTF-8"?>
<svg id="Layer_1" data-name="Layer 1" xmlns="http://www.w3.org/2000/svg" xmlns:xlink="http://www.w3.org/1999/xlink" viewBox="0 0 472.56 487.9">
  <defs>
    <style>
      .cls-1 {
        fill: none;
      }

      .cls-2 {
        fill: #a53b28;
      }

      .cls-3 {
        clip-path: url(#clippath-1);
      }

      .cls-4 {
        clip-path: url(#clippath);
      }
    </style>
    <clipPath id="clippath">
      <rect class="cls-1" width="472.56" height="487.9"/>
    </clipPath>
    <clipPath id="clippath-1">
      <rect class="cls-1" width="472.56" height="487.9"/>
    </clipPath>
  </defs>
  <g id="Rabbit">
    <g class="cls-4">
      <g class="cls-3">
        <path class="cls-2" d="M98.12,418.27l6.02,1.13c-1.66,3.11-3.65,6.28-5.99,9.52-2.33,3.24-5,6.4-8.02,9.49-3.01,3.09-6.4,5.96-10.16,8.62-.25-.4-.62-.86-1.09-1.39-.48-.53-.97-1.03-1.47-1.51-.5-.48-.98-.84-1.43-1.09,3.57-2.41,6.76-5.02,9.6-7.83,2.84-2.81,5.29-5.68,7.38-8.62,2.08-2.94,3.8-5.71,5.16-8.32M108.96,440.4h5.87c-.3,4.32-.75,8.46-1.36,12.42-.6,3.97-1.58,7.73-2.94,11.29-1.35,3.56-3.28,6.85-5.76,9.86-2.48,3.01-5.72,5.7-9.71,8.06-3.99,2.36-8.95,4.31-14.87,5.87-.3-.7-.77-1.52-1.39-2.45-.63-.93-1.24-1.69-1.84-2.3,5.67-1.41,10.37-3.17,14.11-5.31,3.74-2.13,6.75-4.54,9.03-7.23,2.28-2.68,4.01-5.63,5.19-8.85s2.02-6.61,2.52-10.2c.5-3.59.88-7.31,1.13-11.18M84.57,437.99h55.18v24.31h-55.18v-24.31ZM90.07,457.26h43.88v-14.23h-43.88v14.23ZM96.77,424.14h24.01v4.89h-27.4l3.39-4.89ZM118.75,424.14h1.28l.98-.23,3.91,2.64c-.95,1.71-2.08,3.49-3.39,5.35-1.31,1.86-2.67,3.65-4.1,5.38-1.43,1.73-2.8,3.25-4.1,4.56-.55-.45-1.23-.94-2.03-1.47-.8-.52-1.5-.97-2.11-1.32,1.2-1.21,2.42-2.61,3.65-4.22,1.23-1.61,2.36-3.25,3.39-4.93,1.03-1.68,1.87-3.2,2.52-4.56v-1.2ZM113.18,459.52h5.57v19.95c0,1.15.28,1.91.83,2.26.55.35,1.81.53,3.76.53h13.17c1.1,0,1.94-.23,2.52-.68.58-.45.99-1.37,1.24-2.75.25-1.38.43-3.45.53-6.21.4.3.9.59,1.51.86.6.28,1.23.53,1.88.75.65.23,1.23.41,1.73.57-.2,3.31-.59,5.89-1.17,7.72-.58,1.83-1.48,3.1-2.71,3.8-1.23.7-2.95,1.06-5.16,1.06h-14c-2.56,0-4.56-.23-5.99-.68-1.43-.45-2.41-1.26-2.94-2.41-.53-1.15-.79-2.73-.79-4.74v-20.02ZM122.66,466.67l3.84-2.94c1.36,1,2.75,2.12,4.18,3.35,1.43,1.23,2.78,2.46,4.07,3.69,1.28,1.23,2.29,2.4,3.05,3.5l-3.99,3.39c-.7-1.05-1.67-2.22-2.9-3.5-1.23-1.28-2.57-2.59-4.03-3.91-1.46-1.33-2.86-2.52-4.22-3.58"/>
        <path class="cls-2" d="M184.93,459.38c-.25.15-3.17.78-4.64,1.03.05,5.42.2,10.25.49,11.42-.83.83-3.71,1.17-4.93,1.17-1.12,0-1.76-.29-1.76-.29,0-7.18.29-28.17.29-28.17-.93-1.17-1.85-4.3-1.85-5.08,0-.1,0-.15.05-.19.2-.24,4.93-.54,9.52-.54,6.25,0,15.77,1.17,15.77,8.84,0,4.25-3.12,7.57-7.62,9.76,0,.68,5.23,12.3,7.96,15.03.05.49-2.78,1.66-5.37,1.66-.54,0-1.22-.1-1.22-.1-1.66-1.66-6.4-13.28-6.69-14.55M191.42,447.81c0-2.73-3.42-3.95-7.42-3.95-1.95,0-3.47.29-3.47.29-.2,1.42-.29,5.91-.29,10.84,8.49-.78,11.18-4.74,11.18-7.18"/>
        <path class="cls-2" d="M215.33,460.56c-2.49,0-5.32.1-5.61.19-1.51,4.98-2.64,9.08-2.93,12.25,0,.05-.73.05-1.17.05-2.63,0-5.18-.64-5.18-.83,0-1.22,1.71-6.59,3.47-11.37-.73-.63-2.3-3.37-2.3-5.03,0-.05,1.71-.1,4.05-.2,2.05-5.96,4.3-11.96,4.54-12.25.29-.24,3.27-.78,3.76-.78.05,0-.44-2.59-.44-3.17,0-.29,3.03-1.76,5.76-1.76,0,0,4.15,25.63,8.93,33.78.05.05.34.58.34.58,0,.44-3.37,2.49-6.15,2.49-.68,0-3.76-10.89-4.39-13.91-.69-.05-1.66-.05-2.69-.05M214.8,446.89s-.15.05-.24.2c-.54,1.07-2.69,6.69-3.17,8.4,2.98,0,5.42,0,5.47.1-1.02-4.3-1.86-8.01-1.95-8.54,0,0,0-.15-.1-.15"/>
        <path class="cls-2" d="M229.88,464.71c0-6.05.24-14.74.24-18.65,0-1.22-.05-2-.1-2.05-.73-.73-2.3-4-2.3-4.74,0-.1.05-.15.05-.15.39-.34,5.03-.63,8.93-.63,6.06,0,14.06,1.51,14.06,6.98,0,4.64-4.98,7.27-5.96,7.71,0,0-.1.1-.1.15.93.39,7.86,2.05,7.86,7.96,0,9.08-10.5,12.5-19.77,12.5-1.37,0-2.49-.15-2.49-.15-.2-.24-.44-6.44-.44-8.93M245.79,461.83c0-4-5.17-5.13-8.54-5.13-.54,0-1.17.05-1.22.1-.05,0-.05.54-.05,1.37,0,2.73.19,8.69.44,10.01,0,0,.1.05.24.05,4.15,0,9.13-2.83,9.13-6.39M237.35,443.52c-.54,0-.93.05-.98.1-.05.05-.29,8.01-.29,8.15.05.05.1.05.29.05,1.42,0,7.18-1.17,7.18-4.98,0-2.73-4.25-3.32-6.2-3.32"/>
        <path class="cls-2" d="M255.89,464.71c0-6.05.24-14.74.24-18.65,0-1.22-.05-2-.1-2.05-.73-.73-2.3-4-2.3-4.74,0-.1.05-.15.05-.15.39-.34,5.03-.63,8.93-.63,6.05,0,14.06,1.51,14.06,6.98,0,4.64-4.98,7.27-5.96,7.71,0,0-.1.1-.1.15.93.39,7.86,2.05,7.86,7.96,0,9.08-10.5,12.5-19.77,12.5-1.37,0-2.49-.15-2.49-.15-.2-.24-.44-6.44-.44-8.93M271.81,461.83c0-4-5.18-5.13-8.54-5.13-.54,0-1.17.05-1.22.1-.05,0-.05.54-.05,1.37,0,2.73.2,8.69.44,10.01,0,0,.1.05.24.05,4.15,0,9.13-2.83,9.13-6.39M263.36,443.52c-.54,0-.93.05-.98.1-.05.05-.29,8.01-.29,8.15.05.05.1.05.29.05,1.42,0,7.18-1.17,7.18-4.98,0-2.73-4.25-3.32-6.2-3.32"/>
        <path class="cls-2" d="M282.83,461.97c0-6.98.2-17.48.24-17.77-.49,0-1.85.15-2.29.29-.1,0-.1-.49-.1-1.12,0-1.37.15-3.47.29-3.61.1-.1,4.49-.78,9.96-.78.1,0,.15.29.15.78,0,.83-.15,2.39-.15,3.61,0,.1,0,.19-.15.19-.34,0-1.66,0-1.81.1-.05.1-.29,6.93-.29,13.43,0,4.15.1,8.2.39,10.15.64-.05,1.32-.05,2-.05.15,0,.2.73.2,1.66,0,1.17-.1,2.59-.15,3.03-.05.05,0,.15-.15.15-2.25,0-7.96.2-10.15.69-.1,0-.15-.59-.15-1.37,0-1.32.15-3.12.34-3.37.1-.05,1.56-.29,1.9-.29-.05-.83-.1-2.98-.1-5.71"/>
        <path class="cls-2" d="M301.72,473.2c-.24-.29-.34-2.49-.34-5.57,0-6.1.34-15.67.34-20.31,0-1.56-.05-2.54-.15-2.64-.05-.05-.29-.1-.68-.1-1.85,0-6.79.68-6.79.68-.1-.1-.15-1.27-.15-1.27,0-2.59,1.08-4.69,1.08-4.69,0,0,3.81-.05,7.86-.29,1.86-.1,7.76-.29,9.67-.29,1.42,0,3.66.05,3.66.19,0,1.61-.34,5.23-.83,5.71-.69-.15-3.12-.24-5.03-.24-1.22,0-2.2.05-2.29.15-.15.15-.34,4.98-.34,10.64,0,6.89.29,15.04,1.46,17.18,0,.29-1.85,1.27-5.47,1.27-1.32,0-2-.44-2-.44"/>
        <path class="cls-2" d="M232.43,243.04c1.34-.01,1.3.79,1.2,1.58-1,7.66-6.88,11.18-6.88,11.18,0,0-4.77-4.92-3.77-12.57.18-1.35.53-2.7.98-4.01-.9,1.04-1.89,2.02-2.98,2.86-6.12,4.7-12.77,3.03-12.77,3.03,0,0,.1-6.85,6.22-11.55,1.08-.83,2.29-1.54,3.53-2.14-1.38.1-2.77.09-4.13-.09-7.65-1-11.17-6.88-11.17-6.88,0,0,4.92-4.77,12.57-3.77.81.1,1.61.29,2.41.5-2.14,3.39,1.53,6.19,1.84,8.39.31,2.27-2.43,5.96-1.03,7.77,1.36,1.76,5.58.03,7.78.93,2.2.9,4.01,5.08,6.21,4.77M218.42,220.89c1.74-.55,4.07-.62,5.21-1.51,1.19-.93,1.88-3.21,2.85-4.76-.48-.87-.99-1.72-1.58-2.49-4.7-6.12-11.56-6.22-11.56-6.22,0,0-1.67,6.65,3.04,12.77.61.79,1.31,1.52,2.04,2.21M246.92,224.83c-1.36-.18-2.75-.18-4.13-.09,1.24-.6,2.45-1.31,3.53-2.14,6.12-4.7,6.22-11.56,6.22-11.56,0,0-6.65-1.67-12.77,3.04-1.08.83-2.07,1.81-2.98,2.86.45-1.31.8-2.65.98-4.01,1-7.65-3.77-12.57-3.77-12.57,0,0-5.88,3.52-6.88,11.18-.1.79-.14,1.59-.14,2.4,3.53-1.12,5.34,3.06,7.55,3.96,2.2.9,6.42-.82,7.78.93,1.4,1.81-1.34,5.5-1.03,7.76.3,2.2,3.98,5,3.08,7.2-.45,1.41.35,1.59,1.16,1.7,7.65,1,12.57-3.77,12.57-3.77,0,0-3.52-5.88-11.17-6.88M434.79,362.33c-5.82-6.01-7.82-16.58-12.61-27.93-9.11-21.17-23.3-17.32-43.22-12.39,19.19,4.87,20.53,24.56,23.74,39.17,2.32,10.57,18.79,27.59,25.96,28.82-1.4-1.22-2.55-2.82-3.19-4.84-.66-2.02-.83-4.06-.67-6.06,1.76,2.96,3.64,6.44,6.85,7.69,1.1.46,2.27.61,3.52.62.81-.96,1.61-2.27,2.36-4.02-3.35-1.87-6.07-5.57-5.99-11.56,1.14,1.66,2.19,3.25,3.39,4.56,1.32,1.42,2.64,2.28,4.08,2.72,1.22-4.45.4-9.03-1.19-13.98-1.03-.87-2.04-1.78-3.02-2.79M242.34,235.27c-1.74.54-4.07.62-5.21,1.5-1.19.93-1.88,3.21-2.85,4.76.47.87.99,1.72,1.58,2.49,4.7,6.12,11.56,6.22,11.56,6.22,0,0,1.67-6.64-3.04-12.77-.61-.79-1.31-1.51-2.04-2.21M469.84,364.71c-1.21-1.3-2.26-2.89-3.39-4.56-.06,5.15,1.94,8.59,4.63,10.65-.79,2.28-1.75,3.79-2.73,4.79-.61-.1-1.21-.24-1.78-.48-3.21-1.25-5.1-4.73-6.85-7.69-.35,4.54,1.01,7.87,3.11,10.12-7.48-.95-25.1-15.86-28.44-25.96-1.07-3.24-2.09-6.76-3.23-10.29-.89-3.01-1.88-6.13-3.15-9.3-1.94-4.84-4.51-9.9-8.88-13.79-4.3-3.95-10.14-6.01-15.6-6.42-13.56-1.18-26.11,4.81-45.31,7.23-9.65,1.26-19.46,1.25-28.22-1.63-13.54-4.32-22.8-17.06-26.04-30.09-3.24-12.77-3.52-29.68.24-43.26-4.21,3.71-6.04,8.7-7.27,13.76-2.4,10.2-2.34,21.4.08,31.24,2.28,9.95,8.14,20.89,16.21,27.6,4.22,3.59,9.21,6.26,14.4,7.96-19.82.49-41.18-5.11-49.76-32.19-11.01-4.16-21.48-7.36-31.48-11.09-45.46-16.97-53.7-13.06-76.22-13.87,1.01-.91,2.01-1.83,2.95-2.81,2.2-2.55,4-5.53,4.65-9.04-3.17,1.66-5.65,3.48-8.1,5.35-2.43,1.87-4.85,3.74-7.49,5.3-5.21,3.21-10.79,5.8-16.61,7.92-5.68,2.01-11.59,3.46-17.6,4.51-13.08,1.46-23.95-.07-37.48,1.8-24.6,3.4-20.41,11.89-28.72,21.06-2.81,3.1-7.1,5.33-11.6,6.46-.89-2.02-1.03-3.64-.83-5.41.21-1.76.74-3.59,1.27-5.54-1.54,1.28-2.89,2.82-3.89,4.69-1.23,2.26-1.54,4.68-1.12,6.99-1.67.12-3.3.06-4.85-.18-1.09-1.04-1.98-2.14-2.49-3.45-.57-1.35-.71-2.97-.51-4.74.21-1.76.74-3.59,1.27-5.54-4.08,3.39-5.39,7.28-5.12,10.74-1.74-1.54-2.96-3.62-3.32-6.4-1.32-10.29,5.84-23.69,24.89-37.36,24.7-15.06,46.04-13.75,60.75-20.25,1.56-.69,3.08-1.57,4.41-2.75,1.31-1.17,2.48-2.63,2.9-4.32-2.79,1.96-5.59,2.72-8.59,3.56-14.86,4.03-43.76,4.33-61.26,20.53-16.46,1.72-14.76,8.98-23.08,16.03-3.39,2.87-8.29,4.56-13.19,4.96-1.82-4.4-.52-8.14.48-11.44-4.21,3.31-5.89,7.44-5.36,11.38-2.2-.24-4.27-.78-6.08-1.63-.47-.64-.85-1.31-1.12-2.04-.53-1.36-.63-2.99-.38-4.75.26-1.76.84-3.57,1.42-5.5-2.85,2.24-4.54,4.85-5.18,7.52C.45,271.7,0,270.07,0,268.16c.06-13.49,15.54-29.67,52.1-42.63,5.61-1.99,10.82-3.6,15.65-4.93,4.85,7.72,10.98,14.73,17.3,15.21-2.36-4.41-5.5-5.48-14.07-20.68-1.02-1.85-2.01-3.71-2.98-5.6-2.87-8.1-4.45-16.58-4.97-25.13,3.69-.4,7.39-.73,11.07-1.48,6.57-1.35,12.99-4.09,18.28-8.18,5.26-4.08,9.87-8.96,12.46-15-5.06,4.12-9.4,8.54-14.75,11.55-5.24,3.12-11.11,4.71-17.06,5.51-5.96.81-12.08.76-18.24.45-10.62-.95-18.74-1.97-20.56-2.38-8.96-2.03-11.09-7.5-11.69-10.1-.21-.9-.03-1.55.27-2.02.79-.24,1.58-.54,2.32-.96,2.09-1.19,3.69-2.77,3.15-5.12-1.32-5.45-4.22-4.49,1.51-9.62-2.37-.24-4.8.53-5.95,2.55-1.74,2.98.72,6.23,1.13,7.86-1.96,1.95-4.41,2.5-6.8,2.18-2.57-2.51-4.95-5.42-4.95-8.49,0-5.31,12.67-25.6,32.26-40.73,6.65-5.14,19.15-11.89,29.13-15.09,2.06-4.48,4.82-13.18,6.17-29.21C83.08,38.71,99.69,6.97,110.68.49c4.43-2.61,9.84,5.58,14.14,17.48-7.42,9.23-13.87,18.84-18,30.1-5.79,15.96-5.4,27.54-7.78,52.13,3.26-3.33,5-7.79,5.95-12.19.88-4.46,1.18-8.86,1.9-13.05,4.59-32.6,14.57-42.52,26-60.24,4.91-5.77,9.6-10,13.32-11.77,12.24-5.84,19.5,58.56,7.26,76.83-7.24,10.81-17.45,21.24-26.61,27.88,4.81,6.73,6.51,14.35,7.01,19.63.3,3.26.4,6.46.32,9.59,11.98,7.52,33.51,17.96,72.2,12.39,38.7-5.57,54.37-18.83,104.32-9.31,15.45,2.95,29.78,10.4,41.6,20.88,2.08-1.77,4.53-4.16,7.67-7.18,12.26-11.76,24.46-14.72,28.62-14.31.42,2.21.74,4.45.8,6.69.15,5.65-.76,11.51-5.01,16.21,2.95-1.14,5.44-3.62,7.1-6.49,1.35-2.28,2.2-4.81,2.73-7.39,1,2.37,2.04,5.12,2.92,8.07-.04,2.5-.2,5.02-.64,7.51-.51,3.01-1.36,5.97-2.62,8.78-1.3,2.79-3.02,5.42-5.65,7.49,3.28-.78,6.19-3.09,8.36-5.78,1.07-1.32,1.99-2.74,2.79-4.23,0,9.08-3.64,17.7-15.48,21.72-2.46.84-5.35.74-8.45,0,.86,1.87,1.67,3.76,2.41,5.68,7.52,13.93,13.77,40.89,9.98,68.29-3.08,22.26,30.66,34.14,47.33,29.18,16.01-4.76,18.6,23.97,28.11,43.76,4.9,10.21,10.46,18.39,9.07,26.79-.99.49-1.77-.14-2.5-.93M365.69,223.41c1,4.63,3.45,12.47,6.32,12.47,3.03-2.81,2.89-9.14,2.29-13.93-.77-6.11-3.03-12.69-6.16-12.69-.9.14-1.55.43-2.1,1.27-1.42,2.19-1.56,7.25-.34,12.88M364.6,264.82c.96-1.67,2.17-3.46,3.5-4.98,3.55-4.07,7.47-.65,3.91,3.42-1.33,1.52-2.94,2.96-4.47,4.14,2.86-.35,7.43-2.03,9.96-4.92,3.55-4.07-5.81-12.25-9.36-8.18-2.53,2.89-3.57,7.65-3.54,10.53M358.86,267.26c-4.07,4.66,2.97,10.81,7.04,6.15,1.7-1.94-2.34-11.52-7.04-6.15M363.12,253.3c-1.75-5.11-13.77-1.4-12.02,3.71,1.24,3.64,5.1,7.23,7.61,8.64-.96-1.67-1.91-3.61-2.57-5.52-1.75-5.11,3.17-6.79,4.92-1.68.65,1.91,1.09,4.03,1.35,5.94,1.12-2.66,1.96-7.45.72-11.09M358.99,225.16c-1.61-5.22-4.71-10.83-7.7-10.83-2.3.74-2.96,2.6-2.76,5.41.17,2.36.97,5.34,2.27,8.42,1.68,3.91,5.24,10.52,7.92,10.52,2.77-3.25,1.63-9.15.28-13.52M348.41,183.55c-2.5,2.65-3.97,5.53-3.84,7.5.06.81.38,1.47.92,1.92.53.44,1.25.66,2.13.66.67,0,1.44-.13,2.28-.39,1.71-.51,3.49-1.49,5.01-2.78,3.58-2.98,5.02-7.13,3.28-9.45-.64-.85-1.64-1.32-2.82-1.32-3.42.83-5.28,2.1-6.96,3.86M331.64,180.13c-.49,2.38-.1,3.91,1.12,4.51,3.67.26,7.22-2.97,9.61-6.17,3.45-4.63,4.32-9.59,1.99-11.57-.51-.4-1.12-.6-1.81-.6-2.47,0-5.73,2.8-8.12,6.96-1.35,2.31-2.36,4.81-2.78,6.86M325.58,236.5c-.92-.34-1.78-.52-2.55-.52-1.51,0-2.31.66-2.71,1.2-.96,1.27-.65,3.21.85,5.33,1.25,1.78,3.27,3.6,5.85,5.27,2.42,1.57,7.29,4.1,9.93,4.1,6.89,0-4.63-12.95-11.37-15.38M317.46,178.03c2.99,1.22,4.28.35,5.79-1.43,1.52-1.81,2.99-4.26,4.13-6.88,2.33-5.26,3.11-11.61-.02-13.04-2.35-.24-3.68.58-4.97,2.13-1.47,1.77-2.84,4.43-3.86,7.5-1.69,5.14-2.1,9.74-1.06,11.72M311.95,254.78c-.4,1.5.46,3.11,2.42,4.53,1.66,1.22,4.09,2.26,6.84,2.93,2.27.55,4.65.85,6.71.85,3.07-.09,4.44-.64,4.84-1.75.51-1.51-1.11-2.93-2.37-3.88-1.76-1.31-4.08-2.56-6.53-3.53-2.61-1.04-5.15-1.61-7.16-1.61-2.72.05-4.36.95-4.75,2.46M302.39,175.17c4.44.89,7.17-5.28,8.53-11,1.49-6.23,1.26-13-2.07-13.92-3.84-.06-6.32,6.23-7.24,12.08-.94,5.96-.63,11,.79,12.83M284.29,160.76c-.22,6.36.71,11.62,2.38,13.39,4.49.75,6.48-6.27,7.09-12.79.55-5.91-.22-11.09-1.97-13.2-.54-.65-1.17-1.01-1.84-1.08-3.64-.01-5.44,7.08-5.66,13.67M249.58,162.61c.84,6.79,3.1,14.1,6.09,14.1,3.29-.39,3.99-8.11,3.35-15.12-.62-6.83-2.79-14.17-6.28-14.17-.45.04-1.1.24-1.7.99-1.69,2.1-2.26,7.67-1.46,14.2M232.37,165.18c1.14,6.66,3.72,13.82,6.72,13.82,3.41-.52,3.7-8.3,2.66-15.32-.99-6.69-3.51-13.88-6.69-13.88-.77.1-1.39.34-1.94,1.11-1.56,2.19-1.86,7.79-.75,14.27M214.45,158.41c-.29,2.66,0,6.19.83,9.96.75,3.4,1.83,6.74,3.07,9.41.57,1.17,1.09,2.19,1.76,2.91.7.74,1.43,1.11,2.15,1.11.75-.1,1.34-.34,1.85-1.07,1.49-2.12,1.68-7.69.49-14.17-1.19-6.51-3.88-13.51-6.96-13.51-1.23.21-1.89.85-2.35,1.95-.31.73-.7,1.91-.85,3.42M198.07,170.81c.42,6.82,2.63,13.73,6.05,13.73.68-.05,1.42-.29,2.1-1.15,1.71-2.18,2.22-7.51,1.3-13.57-.76-5.01-2.87-13.49-5.97-13.49-3.47.42-3.79,9.3-3.47,14.48M163.74,179.17c.58.97,1.29,1.32,1.77,1.43,3.86.09,6.39-5.85,7.38-11.36,1.01-5.64.77-10.46-.6-12.3-2.98-.94-4.24.16-5.61,2.44-1.24,2.11-2.34,4.9-3.07,7.85-1.27,5-1.22,9.69.13,11.95M145.51,169.3c0,2.6.78,4.33,2.13,4.86,3.58.21,6.61-3.64,8.38-9.16,1.54-4.77,1.81-9.09.7-11.01-.46-.8-1.07-1.08-1.51-1.17-3.31-.05-6.43,4.64-8.14,9-1.02,2.63-1.58,5.29-1.57,7.48M131.2,165.37c3.83.41,6.71-2.43,8.63-6.65,1.71-3.77,2.24-7.33,1.38-9.29-.42-.95-1.08-1.33-1.55-1.48-1.92-.14-3.17.45-4.47,1.56-1.48,1.26-2.87,3.07-3.91,5.09-2.43,4.67-2.46,9.3-.07,10.77M126.24,209.45c-2.28-.45-4.63-1.23-6.68-2.07,2,2.64,6.29,6.23,10.61,7.08,6.09,1.2,8.84-12.81,2.76-14.01-4.33-.85-9.66.84-12.51,2.53,2.21,0,4.68.17,6.96.62,6.09,1.2,4.93,7.05-1.15,5.85M120.29,185.51c-2.9,3.32-4.1,8.78-4.07,12.09,1.11-1.92,2.49-3.97,4.02-5.72,4.08-4.67,8.57-.75,4.49,3.92-1.53,1.75-3.38,3.4-5.13,4.75,3.29-.41,8.54-2.33,11.44-5.65,4.08-4.67-6.67-14.06-10.75-9.39M117.06,199.39c-2.23-1.95-5.48-1.22-7.43,1.01-4.67,5.35,3.41,12.41,8.08,7.06,1.95-2.23,1.58-6.12-.65-8.07M114.68,99.96c6.15-5.69,11.8-11.18,18.37-16.02,3.19-2.52,6.56-4.91,9.7-7.84,5.72-5.25,8.54-9.84,10.84-23.05,1.81-11.41,1.97-23.84-3.31-37.02,2.09,11.68.85,26.72-1.1,36.21-3.19,17.19-5.42,17.12-18.76,28.42-6.26,5.45-12.28,11.02-15.73,19.29M104.93,113.9c-.67,3.18,9.08,6.45,10.2,6.82,2.86.91,5.63,1.42,7.78,1.42,2.62,0,4.28-.71,4.7-2.01.13-.41.19-1.08-.27-1.87-1.12-1.96-5.1-3.96-10.12-5.1-2.93-.66-5.73-1.03-7.9-1.03-2.75,0-4.19.59-4.39,1.77M101.54,125c-.37,1.07.3,2.34,2.1,4,1.58,1.45,3.71,2.93,6.01,4.17,2.48,1.34,4.94,2.27,6.95,2.6,3.68.15,4.48-.61,4.79-1.23.21-.4.39-1.06.07-1.96-.74-2.08-4.03-4.61-8.37-6.46-3.51-1.5-6.86-2.39-8.95-2.39-1.42,0-2.29.42-2.58,1.27M32.08,135.19l5.62-4.17c1.87-1.42,3.85-2.59,4.72-5.69-4.03-1.82-6.05-.27-8.06,1.18-5.1,3.72-12.51,11.85-13.45,17.71,2.23-1.42,3.91-3.05,5.67-4.63,1.77-1.56,3.61-3.01,5.51-4.39M36.29,157.19c-2.74,0-2.74,4.15,0,4.15s1.15-4.15,0-4.15M49.13,166.56c0-1.15-.93-2.07-2.07-2.07s-2.08.93-2.08,2.07.93,2.08,2.08,2.08,2.07-.93,2.07-2.08M49.79,152.93c0-1.15-.93-2.08-2.08-2.08s-2.07.93-2.07,2.08c0,2.74,4.15,2.74,4.15,0M63.13,158.23c.07-2.28-.72-4.51-1.76-6.54-1.21-1.94-2.78-3.66-4.66-4.9-3.73-2.57-8.21-3.5-12.47-3.48-4.31,0-8.4,1.24-12.26,2.69.02,1,7.37-.38,12.18.07,3.87.29,7.65,1.31,10.67,3.4,1.57.99,2.71,2.41,3.78,3.85.83,1.57,1.62,3.24,1.77,5.07.51,3.64-.65,7.54-2.86,11.05,3.35-2.45,5.66-6.68,5.6-11.23M77.42,122.83s-10.06-7.74-15.96-2.95c-1.78,1.44-5.03,7.66-3.93,8.18,1.33.61,6.02.7,9.22-.03,9.65-2.2,10.67-5.2,10.67-5.2M77.77,120.45c2.24,1.67,4.76-1.71,2.52-3.38-5.3-3.95-13.28-4.04-19.73-2.58-.06,1.19,4.46.73,9.43,1.89,5.4,1.21,7.36,3.76,7.78,4.07M80.24,149.4c-2.85,1.29-2.3,5.91-.94,9.74,1.41,3.96,3.93,6.73,6.12,6.73,6.7,0-.33-16.47-5.18-16.47M101.48,156.44c.24-2.08-1.21-5.2-3.8-8.12-2.23-2.52-5.57-5.46-7.68-5.46-2.04,1.18-2.08,2.52-1.37,4.66,3.59,10.51,12.24,14.11,12.85,8.92M110.1,148.48c1.18,0,1.85-.47,2.21-.87.93-1.05.74-2.74-.54-4.62-1.09-1.58-2.92-3.32-5.15-4.9-2.07-1.46-4.23-2.64-6.09-3.32-1.09-.41-1.96-.61-2.65-.61-.97,0-1.46.41-1.71.76-1.46,2.12,2.84,6.85,5.61,9.32,2.93,2.61,6.12,4.23,8.32,4.23M100.72,188.64c1.43,4.17,5.85,8.3,8.74,9.92-1.11-1.92-2.2-4.14-2.95-6.34-2.01-5.87,3.64-7.8,5.64-1.93.75,2.2,1.25,4.62,1.55,6.82,1.29-3.05,2.25-8.56.82-12.73-2.01-5.87-15.81-1.61-13.81,4.26M94.41,207.41c4.33.85,9.66-.84,12.51-2.53-2.21,0-4.68-.17-6.96-.62-6.09-1.2-4.93-7.05,1.15-5.85,2.28.45,4.63,1.23,6.68,2.07-2-2.64-6.29-6.23-10.62-7.08-6.09-1.2-8.84,12.81-2.76,14.01M111.12,210.26c-1.1,1.92-2.49,3.97-4.01,5.72-4.08,4.67-8.57.75-4.49-3.92,1.53-1.75,3.38-3.4,5.13-4.75-3.29.41-8.54,2.33-11.44,5.65-4.08,4.67,6.67,14.06,10.75,9.39,2.9-3.32,4.1-8.78,4.07-12.09M126.32,218.88c-1.42-4.17-5.55-7.94-8.44-9.57,1.11,1.92,2.2,4.14,2.95,6.34,2,5.87-3.64,7.8-5.64,1.93-.75-2.2-1.25-4.62-1.55-6.82-1.29,3.05-2.25,8.56-.82,12.73,2,5.87,15.51,1.26,13.51-4.61M153.37,256.8c-.07-.66-.67-1.14-1.33-1.06-2.2.25-4.09.69-5.91,1.25-32.71,10.43-44.65,5-62.43,11.17-7.67,2.55-14.55,7.01-20.05,12.59,6.5-4.42,13.55-7.7,20.97-9.28,20.32-4.48,52.36,3.79,68.45-13.71.22-.25.35-.59.31-.95M162.69,227.18c4.64.96,8.47.45,11.2-.57,2.75-1.04,4.44-2.63,5.2-4.36-4.6.61-8.68-.15-11.59-1.08-2.89-.96-4.5-2.07-4.46-2.2.04-.16,2-.17,4.82-.5,2.77-.33,6.66-1.06,9.95-2.2-1.86-2.81-5.79-3.74-11.42-4.69-3.53-.69-7.56-.61-11.41-1.51-3.74-.85-6.96-2.24-7.39-1.92-.19.13-.3,1-.17,2.47.94,8.48,7.82,15.06,15.27,16.54M181.84,234.25c-1.79,2.38-3.93,3.66-5.61,4.49-1.67.8-2.84,1.03-2.91.93-.07-.09.62-1.09,1.56-2.56.9-1.41,2.19-3.54,2.86-5.26-2.4-.73-4.51.04-7.3,2.25-1.77,1.43-3.39,3.82-4.91,6.02-1.49,2.19-2.77,4.07-2.65,4.45.09.3,2.08,1.48,5.04,1.88,2.93.44,6.95-.02,9.85-2.25,4.41-3.38,5.41-7.55,4.08-9.94M181.01,196.59c-1.54-1.7-4.11-3.02-6.46-4.12-2.35-1.07-4.4-1.85-4.74-1.68-.29.15-1.08,2.23-1.14,5.02-.09,2.77.64,6.33,2.78,8.78,3.26,3.71,7.05,4.55,9.4,3.2-2.17-1.71-3.37-3.66-4.19-5.2-.79-1.54-1.08-2.63-.98-2.71.09-.08,1.09.47,2.54,1.27,1.4.76,3.45,1.92,5.09,2.58.78-2.37.09-4.49-2.3-7.14M190.17,170.95c.09-3.39-.19-6.67-.8-9.24-.7-2.91-1.71-4.36-3.16-4.44-3.27,0-5.04,8.56-5.51,13.09-.69,6.57.4,13.45,3.81,13.88,3.66.02,5.53-6.68,5.66-13.29M269.58,233.21c.6-4.58-7.71-8.74-8.93-13.27-1.17-4.37,4-12.14,1.08-15.95-2.93-3.81-11.77-.81-15.69-3.07-4.06-2.34-5.95-11.45-10.52-12.05-4.58-.6-8.74,7.71-13.27,8.93-4.37,1.17-12.14-4-15.95-1.08-3.81,2.93-.81,11.77-3.07,15.69-2.34,4.06-11.44,5.94-12.04,10.52-.6,4.58,7.71,8.74,8.93,13.27,1.17,4.37-4.01,12.14-1.08,15.95,2.93,3.81,11.77.81,15.69,3.07,4.06,2.34,5.95,11.44,10.52,12.04,4.58.6,8.74-7.71,13.27-8.93,4.37-1.17,12.14,4,15.95,1.08,3.81-2.93.81-11.77,3.07-15.69,2.34-4.06,11.44-5.94,12.04-10.52M276.39,160.68c-.09-7.12-1.91-14.34-5.24-14.35-.46,0-1.14.17-1.82.9-1.84,1.98-2.8,7.39-2.44,13.78.28,4.92,1.71,14.22,5.15,14.22,3.6-.19,4.4-9.6,4.34-14.55M279.98,207.56c1.11-1.13,2-1.67,2.1-1.62.11.06-.02,1.1-.21,2.58-.17,1.43-.43,3.51-.27,4.99,2.47-.28,3.96-1.01,5.43-3.76.94-1.73,1.17-4.4,1.29-6.82.09-2.41-.01-4.51-.29-4.76-.25-.23-2.36-.34-4.86.37-2.49.68-5.43,2.28-6.91,4.94-2.26,4.01-1.66,7.92.61,9.54.64-2.72,2.03-4.27,3.11-5.46M293.28,243.57c-.31-2.57-1.47-5.71-3.88-7.55-3.64-2.82-7.59-2.79-9.53-.79,2.6,1.03,3.93,2.62,4.95,3.87.96,1.26,1.37,2.23,1.3,2.31-.08.1-1.09-.18-2.53-.58-1.39-.37-3.41-.93-4.89-.99-.08,2.49.42,4.07,2.93,5.92,1.58,1.18,4.18,1.79,6.56,2.26,2.38.44,4.46.64,4.75.4.26-.21.67-2.28.34-4.86M309.24,207.97c-1.38-4.47-1.2-1.23-7.07,1.63-1.6.72-3.14,1.27-4.8,1.65-1.56.45-3.22.82-4.82,1.49-4.95,1.95-8.89,3.96-10.33,7.07,3.54.28,7.24.28,9.93.13,2.72-.13,4.58-.39,4.64-.25.07.14-1.33,1.47-3.95,2.89-2.65,1.42-6.35,2.87-10.79,3.34.98,1.54,2.67,2.73,5.32,3.24,2.62.48,6.18.36,10.56-1.32,7.37-2.73,13.8-11.59,11.3-19.86M313.66,277.56c1.08.33,2.35.49,3.76.49,1.03,0,2.13-.09,3.26-.27,2.29-.36,4.63-1.02,6.59-1.87,1.52-.67,3.1-1.54,3.18-2.93.06-1.44-1.65-2.21-3.35-2.78-1.15-.37-3.57-1-6.88-1.13-3.4-.02-5.51.33-7.09.99-4.3,1.71-4.4,6.02.54,7.49M327.24,291.81c2.26-1.81,3.76-3.66,4.46-4.61.87-1.2,1.79-2.73,1.21-3.96-.55-.99-1.84-.99-2.27-.99-2.89.36-5.23.89-7.96,2.16-2.42,1.12-4.3,2.51-5.44,3.99-1.36,1.74-1.62,3.6-.72,4.94.65,1.04,1.87,1.62,3.43,1.62,3.25-.5,5.29-1.54,7.3-3.14M341.49,295.09c.13-1.48.13-3.26-1.08-3.98-1.84-.26-2.74.13-3.89.98-1.48,1.12-2.98,2.69-4.23,4.45-1.41,1.98-2.31,4.04-2.52,5.78-.27,2.11.39,3.76,1.77,4.43,2.56.35,3.65-.08,4.66-.9,1.41-1.11,2.68-2.83,3.66-4.98.87-1.91,1.45-3.95,1.64-5.77M346.77,243.93c2.26-1.1,1.81-3.29,1.27-5.11-.7-2.32-1.92-5.01-3.43-7.57-1.66-2.81-3.53-5.15-5.27-6.57-1.35-1.11-2.64-1.7-3.73-1.7-2.82,1.42-3.09,3.39-2.29,5.92.67,2.15,2.11,4.72,4.06,7.24,1.67,2.15,6.68,7.78,9.39,7.78M345.6,273.36c3.77.74,8.41-.73,10.89-2.2-1.93,0-4.08-.15-6.06-.54-5.3-1.04-4.3-6.14,1-5.1,1.98.39,4.03,1.07,5.82,1.8-1.74-2.3-5.47-5.42-9.24-6.17-5.3-1.04-7.7,11.15-2.4,12.2M354.98,304.64c.43-3.97-.39-8.27-2.86-8.83-1.47-.04-2.49.65-3.45,2.01-.98,1.39-1.79,3.27-2.28,5.28-.53,2.16-.59,4.24-.18,5.86.49,1.92,1.63,3.15,3.03,3.29,2.96.02,5.26-3.26,5.74-7.62M360.15,275.85c-.96,1.67-2.17,3.46-3.5,4.98-3.55,4.07-7.46.65-3.91-3.42,1.33-1.52,2.94-2.96,4.47-4.13-2.86.35-7.43,2.03-9.96,4.92-3.55,4.07,5.81,12.25,9.36,8.18,2.53-2.89,3.57-7.65,3.54-10.53M370.61,304.66c-.31-3.6-2.05-7.42-4.66-7.42-2.33.03-4.04,3.29-4.07,7.77-.02,2.72.8,5.24,2.13,6.59.68.69,1.49,1.06,2.32,1.06,2.89-.28,4.64-3.78,4.27-7.99M373.39,283.35c-1.24-3.64-4.83-6.92-7.35-8.33.96,1.67,1.91,3.61,2.57,5.52,1.75,5.11-3.17,6.79-4.92,1.68-.65-1.91-1.09-4.03-1.35-5.94-1.12,2.66-1.96,7.45-.72,11.09,1.75,5.11,13.51,1.09,11.76-4.02M376.75,279.5c5.3,1.04,7.7-11.15,2.4-12.2-3.77-.74-8.41.73-10.89,2.2,1.93,0,4.08.15,6.06.54,5.3,1.04,4.3,6.14-1,5.1-1.98-.39-4.03-1.07-5.81-1.8,1.74,2.3,5.47,5.42,9.24,6.16M386.06,302.15c-.79-3.52-2.98-6.07-5.21-6.07-1.11.12-1.79.55-2.32,1.26-1.05,1.41-1.45,3.89-1.04,6.48.58,3.62,2.67,6.24,4.98,6.24,3.59-.72,4.28-4.85,3.59-7.91"/>
      </g>
    </g>
  </g>
</svg>