<?xml version="1.0" encoding="UTF-8"?>
<svg id="Layer_1" data-name="Layer 1" xmlns="http://www.w3.org/2000/svg" xmlns:xlink="http://www.w3.org/1999/xlink" viewBox="0 0 505.41 423.01">
  <defs>
    <style>
      .cls-1 {
        fill: none;
      }

      .cls-2 {
        fill: #a53b28;
      }

      .cls-3 {
        clip-path: url(#clippath-1);
      }

      .cls-4 {
        clip-path: url(#clippath);
      }
    </style>
    <clipPath id="clippath">
      <rect class="cls-1" width="505.41" height="423.01"/>
    </clipPath>
    <clipPath id="clippath-1">
      <rect class="cls-1" width="505.41" height="423.01"/>
    </clipPath>
  </defs>
  <g id="Rat">
    <g class="cls-4">
      <g class="cls-3">
        <path class="cls-2" d="M141.18,422.33c-.1-.4-.29-.89-.56-1.47-.28-.58-.55-1.14-.83-1.69-.28-.55-.56-1-.87-1.35.55-.35,1.13-.9,1.73-1.66.6-.75.9-1.86.9-3.31v-25.82h5.34v30.11c-.75.45-1.42.88-1.99,1.28-.58.4-1.15.83-1.73,1.28-.58.45-1.05.9-1.43,1.35-.38.45-.56.88-.56,1.28M141.18,422.33l-.23-4.44,2.79-1.88,17.01-3.39c-.1.75-.14,1.58-.11,2.48.02.9.06,1.63.11,2.18-3.97.91-7.16,1.63-9.6,2.18-2.43.55-4.32,1-5.65,1.36-1.33.35-2.3.64-2.9.86-.6.23-1.08.44-1.43.64M161.43,354.51l2.86,4.29c-1.96.6-4.19,1.15-6.7,1.66-2.51.5-5.06.94-7.64,1.32-2.58.38-5.05.69-7.41.94-.1-.55-.3-1.23-.6-2.03-.3-.8-.6-1.51-.9-2.11,2.36-.3,4.78-.67,7.26-1.09,2.48-.43,4.87-.9,7.15-1.43,2.28-.53,4.28-1.04,5.98-1.54M141.03,379.95h48.48v-17.47h-18.44v-4.59h24.01v26.72h-54.05v-4.67ZM141.03,358.57l5.57,1.2v22.66h-5.57v-23.86ZM144.04,368.96h22.28v4.44h-22.28v-4.44ZM144.87,392.45h16.41v4.37h-16.41v-4.37ZM144.94,402.98h16.41v4.37h-16.41v-4.37ZM163.69,422.56c-.1-.4-.28-.89-.53-1.47-.25-.58-.54-1.13-.87-1.66-.33-.53-.62-.97-.87-1.32.55-.35,1.13-.9,1.73-1.66.6-.75.9-1.91.9-3.46v-25.9h5.19v30.26c-1.1.7-2.02,1.33-2.75,1.88-.73.55-1.38,1.12-1.96,1.69-.58.58-.86,1.12-.86,1.62M163.69,422.56l-.15-4.21,2.71-1.96,18.44-3.91c-.05.7-.06,1.51-.04,2.41.03.9.06,1.63.12,2.18-4.27.95-7.72,1.74-10.35,2.37-2.63.63-4.66,1.13-6.1,1.51-1.43.38-2.47.68-3.12.9-.65.23-1.15.46-1.5.72M166.92,392.67h16.56v4.37h-16.56v-4.37ZM167.07,403.21h16.63v4.37h-16.63v-4.37ZM170.31,368.96h21v4.44h-21v-4.44ZM185.67,386.8h5.57c-.05,7.13.12,12.96.53,17.5.4,4.54,1,7.89,1.81,10.05.8,2.16,1.78,3.24,2.94,3.24.6,0,1.05-.44,1.35-1.32s.5-2.62.6-5.23c.5.5,1.13.97,1.88,1.39.75.43,1.46.77,2.11,1.02-.2,2.51-.55,4.47-1.05,5.87-.5,1.41-1.18,2.37-2.03,2.9-.85.53-1.93.79-3.24.79-2.61,0-4.66-1.37-6.13-4.1-1.48-2.73-2.54-6.79-3.16-12.16-.63-5.37-1.02-12.02-1.17-19.95"/>
        <path class="cls-2" d="M241.98,395.02c-.24.15-3.17.78-4.64,1.03.05,5.42.2,10.25.49,11.42-.83.83-3.71,1.17-4.93,1.17-1.12,0-1.76-.29-1.76-.29,0-7.18.29-28.17.29-28.17-.93-1.17-1.85-4.3-1.85-5.08,0-.1,0-.15.05-.2.2-.24,4.93-.54,9.52-.54,6.25,0,15.77,1.17,15.77,8.84,0,4.25-3.12,7.57-7.62,9.76,0,.68,5.23,12.3,7.96,15.03.05.49-2.78,1.66-5.37,1.66-.54,0-1.22-.1-1.22-.1-1.66-1.66-6.4-13.28-6.69-14.55M248.47,383.45c0-2.73-3.42-3.95-7.42-3.95-1.95,0-3.47.29-3.47.29-.2,1.42-.29,5.91-.29,10.84,8.49-.78,11.18-4.74,11.18-7.18"/>
        <path class="cls-2" d="M272.39,396.19c-2.49,0-5.32.1-5.61.19-1.51,4.98-2.64,9.08-2.93,12.25,0,.05-.73.05-1.17.05-2.64,0-5.18-.64-5.18-.83,0-1.22,1.71-6.59,3.47-11.37-.73-.63-2.3-3.37-2.3-5.03,0-.05,1.71-.1,4.05-.2,2.05-5.96,4.3-11.96,4.54-12.25.29-.24,3.27-.78,3.76-.78.05,0-.44-2.59-.44-3.17,0-.29,3.03-1.76,5.76-1.76,0,0,4.15,25.63,8.93,33.78.05.05.34.58.34.58,0,.44-3.37,2.49-6.15,2.49-.68,0-3.76-10.89-4.39-13.91-.68-.05-1.66-.05-2.69-.05M271.85,382.52s-.15.05-.24.19c-.54,1.07-2.69,6.69-3.17,8.4,2.98,0,5.42,0,5.47.1-1.02-4.3-1.86-8.01-1.95-8.54,0,0,0-.15-.1-.15"/>
        <path class="cls-2" d="M290.25,408.83c-.24-.29-.34-2.49-.34-5.57,0-6.1.34-15.67.34-20.31,0-1.56-.05-2.54-.15-2.64-.05-.05-.29-.1-.68-.1-1.85,0-6.79.68-6.79.68-.1-.1-.15-1.27-.15-1.27,0-2.59,1.07-4.69,1.07-4.69,0,0,3.81-.05,7.86-.29,1.86-.1,7.76-.29,9.66-.29,1.42,0,3.66.05,3.66.19,0,1.61-.34,5.23-.83,5.71-.69-.15-3.12-.24-5.03-.24-1.22,0-2.2.05-2.29.15-.15.15-.34,4.98-.34,10.64,0,6.88.29,15.04,1.46,17.18,0,.29-1.85,1.27-5.47,1.27-1.32,0-2-.44-2-.44"/>
        <path class="cls-2" d="M429.17,101.93C338.35,77.85,340.83,9.61,393.07.57c-48.03-8.39-77.8,77.71,33.47,110.67,84.78,24.68,105.56,122.61-34.42,150.55-4.99.99-10,1.88-15.03,2.67,13.67-14.56,23.62-33.28,26.06-52.76,6.82-54.52-28.4-116.99-88.59-140.84-60.2-23.85-110.62,18.65-115.62,21.71-25.62,15.69-47.9,9.53-65.03,2.99,4.55-12.29,5.58-24.66.63-28.97-6.53-5.68-17.07-4.78-27.78-1.22-1.78-7.43-4.68-13-8.45-14.33-13.92-4.91-30.92,16.2-40.23,31.45.57-.08,1.13-.19,1.7-.26,4.19-.55,8.39-.93,12.57-1.29,4.19-.33,8.38-.64,12.67.24-4,1.93-8.09,2.57-12.17,3.35-4.07.83-8.13,1.68-12.14,2.68-2.08.5-4.16,1.01-6.23,1.55-1.98.7-3.95,1.41-5.93,2.17C27.38,99.08,1.79,115.26.31,120.72c-1.33,4.92,1.74,9.89,7.07,15.13,2.57-.45,5.07-1.26,7.18-2.59,1.09-.66,2.04-1.48,2.84-2.41.43-.45.75-.98,1.11-1.49-.15-1.37-1.11-2.52-2.02-3.55-.92-1.08-1.94-2.17-2.82-3.39-1.8-2.37-3.29-5.41-3.07-8.45,1.2,2.74,3.98,6.13,5.98,8.06l3.15,2.92c1.04,1.08,2.22,2.01,3.1,3.93.47.92.48,2.57-.13,3.6-.4.72-.79,1.46-1.3,2.12-.97,1.35-2.15,2.54-3.47,3.51-1.67,1.26-.7,5-2.59,5.73,5.13,4.36,7.69,4.78,14.05,9.67,9.7,7.46,22.59,13.59,36.91,18.42,6.8,1.48,13.76,2.26,20.7,2.14,8.69-.13,17.52-1.69,25.12-5.77,8.16-4.57,13.05-11.29,13.51-20.55.66,2.2,6.19,32.68-33.03,32.31,18.54,6.72,28.93,16.03,43.74,26.62,4.15,13.11,9.48,28.6,14.82,40.35,7.72,16.97,7.52,34.26-2.41,45.9-1.5,1.76-12.64.99-14.62,2.13-3.97,2.27-4.15,4.09-5.11,5.96-2.11,4.13,2.67,1.64,2.84,2.84.44,3.05,16.52-.4,21.42-3.14,9.62-5.38,16.62-14.28,21.79-23.93-.18-2.77-.56-5.57-1.14-8.36-1.32-6.6-3.59-13.15-5.82-19.75-2.23-6.6-4.6-13.22-6.72-19.92-2.15-6.69-4.15-13.48-4.75-20.58,3.33,6.33,5.61,12.87,8.17,19.35,2.56,6.48,5.35,12.87,8.06,19.35,2.66,6.5,5.27,13.11,7.07,20.16,1.33,5.29,2.1,10.93,1.82,16.6.22,8.99-2.27,17.27-7.82,23.78-1.5,1.76-12.64.99-14.62,2.13-3.97,2.27-4.15,4.09-5.11,5.96-2.11,4.13,2.67,1.64,2.84,2.84.44,3.05,16.52-.4,21.42-3.14,18.93-10.58,27.79-34.76,32.35-51.57.8-3.64,1.24-6.06,1.68-8.47.94-5.44,1.55-10.92,1.72-16.41.2-5.49-.08-10.99-.9-16.44-.94-5.44-2.53-10.64-3.72-16.3,3.76,4.47,5.84,9.98,7.27,15.56,1.35,5.62,2.14,11.37,2.42,17.15.1,2.14.1,4.29.04,6.43,7.62,2.83,15.53,5.96,23.59,9.62-.83-2.22-1.59-4.47-2.2-6.78-3.79-14.33-3.36-29.65.98-43.64,4.38-13.98,12.41-26.71,23.12-36.52,5.37-4.87,11.36-9.14,18-12.08,6.62-2.91,13.89-4.51,21.01-3.98-6.78,2.18-13.05,4.81-18.92,8.16-5.87,3.32-11.35,7.3-16.09,12.08-9.52,9.51-16.39,21.59-19.81,34.46-3.51,12.85-3.61,26.55.09,39.21,1.56,5.26,3.7,10.35,6.36,15.16,7.13,10.76,16.21,19.28,23.35,26.02-13.03,2.92-42.46,3.61-52.09,2.97-11.36-.76-14.23,4.97-14.23,6.1,0,0-11.73,5.91-4.73,7.49,10.79,2.44,54.56,1.54,79.43.89-9.14,3.99-45.4,4.97-56.3,4.25-11.36-.76-14.23,4.97-14.23,6.1,0,0-11.73,5.91-4.73,7.49,14.2,3.21,85.48.64,95.7.47,23.96-.4,5.28-14.06,7.04-21.48.53-.55.85-1.17,1-1.84.43-.44.99-.84,1.71-1.19,9.28-4.53,34.47-6.25,50.6-17.27,9.07-1.3,18.08-2.86,27.11-4.73,29.1-6.23,66.14-17.02,86.84-38.4,40.61-42,32.09-113.73-52.72-135.8M50.11,106.75c.62-1.06,1.61-1.83,2.61-2.38,2.05-1.09,4.28-1.5,6.45-1.62,2.18-.11,4.36.02,6.44.55,2.08.52,5.24,2.68,5.99,4.64-4.29-.19-8.24-.69-12.22-.51-1.97.11-3.93.35-5.66,1.02-1.77.62-3.11,1.85-3.44,3.83-.91-1.07-.89-4.52-.19-5.54M71.5,113.86s-5.47,3.18-11.46,2.81c-3.42-.21-6.24-1.69-7.35-2.72-.94-.87,1.83-3.21,4.06-4.06,7.39-2.85,14.76,3.97,14.76,3.97M36.97,130.07c.91-.65,2.07-.94,2.92-1.06.83-.06,1.65-.06,2.45,0,1.61.1,3.17.37,4.74.57,3.14.41,6.28.75,9.44.96,3.15.21,6.32.47,9.5.5,3.18.11,6.05.39,9.25.41-6.31,1.03-12.82,1.77-19.24,1.71-3.21-.08-6.42-.28-9.61-.57-1.6-.14-3.19-.27-4.75-.54-1.54-.24-2.8-1.07-4.08-1.23-.78-.59-.71-.69-.63-.75M61.78,153.56c-3.52-.45-7.04-1.2-10.4-2.43-3.36-1.24-6.57-2.87-9.61-4.72-3.09-1.8-5.77-4.15-8.17-6.66,4.08.21,6.7,2.57,9.59,4.43,2.87,1.9,5.88,3.58,9.06,4.9,3.17,1.34,6.46,2.39,9.86,3.07,3.39.74,6.88.97,10.39,1.15-3.49.35-7.18.7-10.71.26M81.58,143.22c-.38,0-6.25.56-6.63.56-4.05,0-8.11-.15-12.15-.69-4.03-.55-8.03-1.42-11.94-2.53-3.93-1.08-7.3-2.75-10.76-4.95,4.43-.47,8.12,1.1,11.91,2.31,3.78,1.21,7.64,2.18,11.56,2.86,3.92.7,7.88,1.2,11.87,1.44.55.04,1.1.04,1.65.07,1.65.1,4.67.57,4.5.94M209.22,121.33c.3,2.02-4.52,4.41-10.77,5.34-6.22.93-11.54.34-11.88-1.31-.32-1.66,4.41-4.04,10.7-5.33,6.26-1.29,11.68-.73,11.96,1.3M193.47,105.12c6.31-1.97,11.86-1.98,12.37,0,.49,1.97-4.22,4.88-10.53,6.5-6.29,1.61-11.8,1.61-12.3-.01-.52-1.61,4.15-4.51,10.46-6.48M158.92,134.94c-14.74,1.59-15.8-3.19-1.14-6.63,6.17-1.45,16.08,5.02,1.14,6.63M166.16,150.49c-4.38.82-10.94-.71-15.02-2.5-4-1.79-3.93-3.1.37-3.95,4.33-.86,11.28-.81,15.4.95,1.91.82,3.83,4.66-.75,5.49M152.94,113.78c5.98-2.7,11.53-3.27,12.25-1.22,1.77,4.86-20.4,11.99-21.92,8.65-.62-1.42,3.66-4.73,9.67-7.43M118.04,104.19c-11.01,10.47-30.67-8.01-25.29-15.2,12.49-16.68,37.76-21.76,38.94-12.24,1.18,9.52-5.76,19.94-13.65,27.44M136.98,190.53c-1.93.88-5.25-2.24-7.39-6.9-4.99-10.83-.63-14.15,5.96-3.11,2.7,4.53,3.35,9.02,1.43,10.01M147.85,180.4c-3.6-2.02-7.26-6.97-8.86-10.7-2.86-6.63,3.45-3.38,8.66,1.47,4.05,3.77,5.73,12.32.2,9.22M152.95,164.41c-1.61-1.02-8.43-6.02-7.52-7.69.73-1.78,8.84.99,10.61,1.73,3.08,1.28,9.32,4.87,7.79,7.83-.6,1.01-8.09-.1-10.89-1.87M172.1,211.8c-1.97.89-5.25-2.18-7.33-6.85-2.08-4.66-2.64-9.03-1.24-9.75.74-.34,1.81.17,3.12,1.36,1.3,1.19,2.8,3.04,4.11,5.28,1.32,2.24,2.17,4.48,2.41,6.29.25,1.81-.09,3.25-1.06,3.65M186.94,202.03c-1.71,1.46-5.75-.77-9.03-5-17.7-22.3,15.66-.68,9.03,5M194.88,189.08c-10.96-2.58-21.73-19.03-2.88-8.92,2.47,1.32,4.52,2.88,5.79,4.38,2.66,3.18,1.13,5.5-2.91,4.54M195.54,172.29c-20.34-7.59-1.33-10.61,8.86-3.59,1.69,1.14.92,7.24-8.86,3.59M199.12,157.35c-14.69-2.08-12.96-7.49.62-6.72,2.98.17,10.94,1.42,10.5,4.38-.29,2.12-5.28,3.17-11.12,2.34M199.86,141.99c-14.49.32-15.32-5.37-.38-6.74,6.18-.57,11.27.65,11.37,2.72.19,2.93-8.06,3.94-10.99,4.02M379.62,142.6c2.54,3.81,4.89,7.78,6.82,11.96,3.99,8.32,6.62,17.31,7.98,26.47,1.36,9.16,1.44,18.5.16,27.6-1.3,9.08-3.46,18.05-7.78,26.21.19-9.23,1.47-17.96,1.88-26.77.44-8.78.47-17.53-.58-26.19-1.02-8.65-3.16-17.15-6.25-25.35-.72-2.08-1.61-4.08-2.52-6.08-.83-2.05-1.89-3.98-2.86-5.96-.97-1.99-2.17-3.86-3.24-5.81-1.11-1.93-2.19-3.88-2.73-6.29,4.18,2.49,6.49,6.5,9.13,10.22M349.44,137c1.77.46,3.46.92,4.95,1.63,1.46.79,2.84,1.45,3.94,2.34,1.1.9,2.05,1.75,2.85,2.52.76.82,1.33,1.66,1.79,2.31.91,1.34,1.31,2.18,1.2,2.34-.11.16-1.15.13-2.7-.03-.79-.05-1.66-.26-2.68-.28-1.03-.02-2.13-.05-3.25-.11-1.15.05-2.34.19-3.5.22-1.19.29-2.35.33-3.5.67-2.3.48-4.49,1.36-6.69,2.02-6.81,2.52-11.17,5.04-14.17,4.27,2.82-3.39,6.49-6.44,9.31-8.3,2.86-1.9,5.01-2.81,4.97-2.95-.02-.06-.59-.07-1.61,0-1.02.07-2.47.35-4.22.83-3.48,1.02-8.02,3.11-12.06,6.77-.01-1.82.9-4.17,3.13-6.71,2.23-2.5,5.82-5.26,11.18-6.95,3.51-1.15,7.51-1.21,11.06-.59M341.21,166.97c-1.79-.99-4.39-2.42-6.24-4.1,1.92-.81,4.8-.35,9.58.88,3.13.81,6.48,2.35,9.21,3.69,2.71,1.37,4.7,2.57,4.69,2.88,0,.24-2.12,1.46-5.32,2.32-3.18.88-7.55,1.36-11.47.31-6.15-1.63-9.13-4.88-9.18-7.38,1.62,1.15,2.99,1.61,4.4,2.09,1.38.44,2.67.68,3.76.85,2.2.31,3.63.25,3.65.18.03-.11-1.23-.72-3.08-1.71M243.94,160.59c1.8.96,6.84,3.33,9.24,5.45-5.24,2.27-18.21-2.75-24.11-5.59-7.49-3.69-8.55-4.07.73-6.66,4.06-1.17,9.64-1.85,14.68-.56,7.89,2,11.75,6.12,11.86,9.32-2.09-1.45-3.85-2.02-5.67-2.61-1.77-.54-5.08-.74-6.18-.9-2.2-.28-3.63-.21-3.65-.14-.03.11,1.24.71,3.1,1.68M267.56,154.89c-3.82-4.16-7.05-9.34-8.93-13.23-1.92-3.96-2.7-6.84-2.89-6.81-.08.01-.19.73-.29,2.05-.09,1.31.02,3.19.33,5.49.69,4.59,2.56,10.71,6.52,16.46-2.31-.3-5.13-1.86-7.97-5.13-2.78-3.26-5.68-8.28-6.89-15.38-1.98-10.75,3.03-23.67,14.65-29.78,1.85-.93,2.99-1.28,3.17-1.12.18.16-.03,1.48-.5,3.43-2.93,14.34-1.66,16.04-.19,25.32,2.02,9.07,4.46,15.03,2.98,18.7M286.48,139.95c-3.13,7.52-7.77,10.74-10.95,10.38,1.74-1.86,2.56-3.51,3.4-5.23.79-1.68,1.34-4.92,1.66-5.98.6-2.14.73-3.56.67-3.59-.1-.04-.88,1.12-2.11,2.82-1.22,1.64-4.16,6.29-6.61,8.35-.69-2.58.39-6.15,2.76-11.99,1.57-3.83,4.09-7.82,6.27-11.05,2.2-3.2,4.07-5.52,4.46-5.46.3.05,1.49,2.94,2.03,7.15.57,4.19.43,9.81-1.58,14.6M280.91,84.99c-10.18-1.05-20.52-.18-30.46,2.47-2.44.79-4.94,1.47-7.36,2.36-2.37,1.02-4.81,1.91-7.16,3.01-2.28,1.23-4.61,2.41-6.88,3.7-2.2,1.4-4.48,2.68-7.23,3.5,1.53-2.32,3.52-4.19,5.6-5.92,2.2-1.56,4.5-2.99,6.76-4.5,2.34-1.37,4.79-2.56,7.2-3.84,2.48-1.12,5.06-2.04,7.6-3.07,10.35-3.61,21.51-4.9,32.48-4.05,10.97.84,21.78,3.76,31.56,8.67,9.73,4.91,18.76,11.44,25.25,20.14-9.3-5.48-18.14-10.85-27.71-14.75-9.52-3.91-19.46-6.7-29.64-7.71M315.68,131.78c-.11-.01-.53,1.32-1.25,3.29-.71,1.92-1.76,4.69-3.15,6.77-1.08-1.79-1.04-4.7-.52-9.6.35-3.22,1.38-6.76,2.32-9.65.96-2.88,1.86-5.03,2.16-5.06.24-.03,1.76,1.88,3.07,4.93,1.34,3.02,2.44,7.27,1.98,11.3-.72,6.32-3.51,9.74-5.97,10.16.9-1.77,1.16-3.19,1.42-4.66.23-1.43.29-2.74.3-3.85-.01-2.22-.28-3.63-.35-3.63M327.52,273.49c-5.9,1.26-11.92-8.81-17.5-9.85-5.79-1.07-15,6.1-19.87,2.95-4.86-3.15-2.07-14.49-5.42-19.34-3.22-4.68-14.87-6.06-16.13-11.96-1.26-5.9,8.81-11.92,9.85-17.5,1.07-5.79-6.1-15-2.95-19.87s14.49-2.07,19.34-5.41c4.68-3.22,6.06-14.87,11.96-16.13,5.9-1.26,11.92,8.81,17.5,9.85,5.79,1.07,15-6.1,19.87-2.95,4.86,3.15,2.07,14.49,5.41,19.34,3.22,4.68,14.87,6.06,16.13,11.96,1.26,5.9-8.81,11.92-9.85,17.5-1.07,5.79,6.1,15,2.94,19.87-3.15,4.86-14.49,2.07-19.34,5.41-4.68,3.22-6.06,14.87-11.96,16.13M351.5,217.61s-3.82,7.71-13.3,9.73c-1.2.25-2.43.38-3.66.44-1.23-1.94-3.46-3.95-3.87-5.8-.38-1.77.79-4.45,1.11-6.72,1.18-.46,2.38-.86,3.61-1.12,9.48-2.02,16.11,3.46,16.11,3.46M298.94,235.71c-9.48,2.02-16.11-3.46-16.11-3.46,0,0,3.82-7.71,13.3-9.74,1.2-.25,2.43-.38,3.67-.44,1.23,1.94,3.46,3.95,3.86,5.8.39,1.77-.79,4.45-1.11,6.72-1.18.46-2.38.86-3.61,1.12M287.71,205.83s8.15-2.75,16.29,2.52c1.44.93,2.78,2.06,4.01,3.28-.69-1.59-1.27-3.24-1.63-4.92-2.02-9.48,3.46-16.11,3.46-16.11,0,0,7.71,3.82,9.73,13.3.36,1.68.51,3.42.52,5.16.63-1.61,1.39-3.19,2.33-4.63,5.27-8.13,13.84-8.95,13.84-8.95,0,0,2.75,8.15-2.52,16.29-.56.86-1.2,1.67-1.87,2.46,0-.8-.18-1.51-.68-2.06-2.01-2.21-7.17.44-9.82-.4-2.74-.87-5.44-5.98-8.24-5.37-2.72.59-3.05,6.3-5.26,8.32-2.21,2.01-7.93,1.8-8.77,4.46-.2.63-.09,1.28.19,1.95-.91-.43-1.79-.9-2.63-1.44-8.13-5.27-8.95-13.84-8.95-13.84M346.62,244.03s-8.15,2.75-16.29-2.52c-1.44-.93-2.78-2.06-4.01-3.28.7,1.59,1.27,3.24,1.63,4.92,2.02,9.48-3.46,16.11-3.46,16.11,0,0-7.71-3.82-9.73-13.3-.36-1.68-.51-3.42-.52-5.16-.63,1.62-1.39,3.19-2.33,4.63-5.27,8.13-13.84,8.95-13.84,8.95,0,0-2.75-8.15,2.52-16.29.56-.86,1.2-1.67,1.87-2.46,0,.8.18,1.51.68,2.06,2.01,2.21,7.17-.44,9.82.4,2.74.87,5.44,5.98,8.25,5.37,2.72-.59,3.05-6.3,5.26-8.31,2.21-2.01,7.93-1.8,8.77-4.46.2-.63.09-1.28-.19-1.95.91.43,1.79.9,2.63,1.44,8.13,5.27,8.95,13.84,8.95,13.84"/>
      </g>
    </g>
  </g>
</svg>