<svg xmlns="http://www.w3.org/2000/svg" viewBox="0 0 900 900"><path fill="rgb(24,56,56)" fill-rule="evenodd" d="M404.0 42.0L406.0 42.0L406.0 50.0L404.0 50.0L404.0 44.0ZM450.0 44.0L452.0 44.0L452.0 252.0L454.0 252.0L454.0 278.0L458.0 280.0L458.0 284.0L462.0 288.0L464.0 304.0L466.0 304.0L466.0 318.0L468.0 318.0L466.0 372.0L464.0 372.0L462.0 386.0L460.0 386.0L458.0 394.0L454.0 396.0L460.0 724.0L462.0 724.0L462.0 708.0L464.0 708.0L464.0 692.0L466.0 692.0L466.0 674.0L468.0 674.0L468.0 656.0L470.0 656.0L472.0 620.0L474.0 620.0L474.0 600.0L476.0 600.0L476.0 578.0L478.0 578.0L478.0 556.0L480.0 556.0L480.0 484.0L478.0 484.0L474.0 288.0L468.0 284.0L466.0 274.0L464.0 274.0L464.0 266.0L462.0 266.0L460.0 220.0L462.0 220.0L462.0 208.0L464.0 208.0L466.0 196.0L474.0 186.0L482.0 186.0L486.0 190.0L486.0 194.0L490.0 198.0L490.0 204.0L492.0 204.0L492.0 214.0L494.0 214.0L494.0 220.0L496.0 220.0L496.0 90.0L498.0 90.0L498.0 410.0L496.0 410.0L496.0 474.0L494.0 474.0L494.0 522.0L492.0 522.0L492.0 562.0L490.0 562.0L490.0 610.0L492.0 610.0L494.0 588.0L496.0 588.0L496.0 578.0L498.0 578.0L498.0 566.0L500.0 566.0L500.0 554.0L502.0 554.0L502.0 542.0L504.0 542.0L504.0 530.0L506.0 530.0L506.0 518.0L508.0 518.0L508.0 506.0L510.0 506.0L510.0 492.0L512.0 492.0L512.0 480.0L514.0 480.0L522.0 410.0L524.0 410.0L524.0 394.0L526.0 394.0L524.0 310.0L526.0 310.0L526.0 300.0L528.0 300.0L530.0 286.0L540.0 276.0L538.0 274.0L538.0 232.0L540.0 232.0L540.0 224.0L542.0 224.0L542.0 242.0L544.0 242.0L550.0 158.0L552.0 158.0L552.0 136.0L554.0 136.0L554.0 160.0L552.0 160.0L552.0 188.0L550.0 188.0L550.0 214.0L548.0 214.0L544.0 278.0L550.0 284.0L554.0 304.0L556.0 304.0L558.0 360.0L556.0 360.0L554.0 384.0L552.0 384.0L550.0 396.0L544.0 402.0L544.0 406.0L546.0 406.0L548.0 534.0L550.0 534.0L550.0 526.0L552.0 526.0L552.0 520.0L554.0 520.0L554.0 514.0L556.0 514.0L556.0 508.0L558.0 508.0L558.0 500.0L560.0 500.0L560.0 494.0L562.0 494.0L562.0 488.0L564.0 488.0L564.0 482.0L566.0 482.0L570.0 460.0L572.0 460.0L572.0 454.0L574.0 454.0L574.0 448.0L576.0 448.0L576.0 440.0L578.0 440.0L580.0 426.0L582.0 426.0L582.0 420.0L584.0 420.0L590.0 390.0L592.0 390.0L592.0 384.0L594.0 384.0L594.0 376.0L596.0 376.0L596.0 368.0L598.0 368.0L598.0 362.0L600.0 362.0L606.0 330.0L608.0 330.0L608.0 324.0L610.0 324.0L610.0 316.0L612.0 316.0L612.0 308.0L614.0 308.0L614.0 300.0L616.0 300.0L616.0 292.0L618.0 292.0L618.0 284.0L620.0 284.0L620.0 276.0L622.0 276.0L622.0 268.0L624.0 268.0L632.0 228.0L634.0 228.0L634.0 236.0L632.0 236.0L632.0 244.0L630.0 244.0L630.0 254.0L628.0 254.0L626.0 272.0L624.0 272.0L624.0 280.0L622.0 280.0L622.0 288.0L620.0 288.0L620.0 298.0L618.0 298.0L618.0 306.0L616.0 306.0L616.0 314.0L614.0 314.0L614.0 324.0L612.0 324.0L612.0 332.0L610.0 332.0L610.0 340.0L608.0 340.0L608.0 348.0L606.0 348.0L606.0 356.0L604.0 356.0L604.0 364.0L602.0 364.0L602.0 372.0L600.0 372.0L600.0 382.0L598.0 382.0L594.0 406.0L592.0 406.0L592.0 412.0L590.0 412.0L590.0 420.0L588.0 420.0L588.0 428.0L586.0 428.0L578.0 468.0L576.0 468.0L576.0 474.0L574.0 474.0L574.0 482.0L572.0 482.0L566.0 512.0L564.0 512.0L564.0 518.0L562.0 518.0L560.0 534.0L558.0 534.0L556.0 548.0L554.0 548.0L554.0 554.0L552.0 554.0L552.0 562.0L550.0 562.0L550.0 568.0L548.0 568.0L548.0 590.0L550.0 590.0L548.0 648.0L550.0 648.0L552.0 640.0L556.0 638.0L564.0 618.0L568.0 616.0L580.0 588.0L584.0 586.0L584.0 582.0L586.0 582.0L586.0 578.0L588.0 578.0L588.0 574.0L590.0 574.0L590.0 570.0L592.0 570.0L592.0 566.0L594.0 566.0L594.0 562.0L596.0 562.0L596.0 558.0L598.0 558.0L598.0 554.0L600.0 554.0L600.0 550.0L602.0 550.0L602.0 546.0L604.0 546.0L604.0 542.0L606.0 542.0L606.0 538.0L608.0 538.0L608.0 534.0L610.0 534.0L610.0 530.0L612.0 530.0L612.0 526.0L614.0 526.0L614.0 522.0L616.0 522.0L616.0 518.0L618.0 518.0L618.0 514.0L620.0 514.0L620.0 510.0L622.0 510.0L622.0 506.0L624.0 506.0L624.0 502.0L626.0 502.0L626.0 498.0L628.0 498.0L628.0 494.0L630.0 494.0L630.0 490.0L632.0 490.0L632.0 486.0L638.0 478.0L638.0 472.0L640.0 472.0L640.0 468.0L642.0 468.0L642.0 464.0L644.0 464.0L644.0 460.0L646.0 460.0L646.0 456.0L652.0 448.0L652.0 442.0L654.0 442.0L654.0 438.0L656.0 438.0L656.0 434.0L658.0 434.0L658.0 430.0L664.0 422.0L664.0 416.0L666.0 416.0L666.0 412.0L672.0 404.0L672.0 398.0L674.0 398.0L674.0 394.0L680.0 386.0L680.0 380.0L682.0 380.0L682.0 376.0L688.0 368.0L688.0 362.0L694.0 354.0L694.0 348.0L700.0 340.0L700.0 344.0L696.0 348.0L696.0 354.0L692.0 358.0L692.0 364.0L690.0 364.0L690.0 368.0L686.0 372.0L686.0 378.0L682.0 382.0L682.0 388.0L678.0 392.0L678.0 398.0L672.0 406.0L672.0 412.0L666.0 420.0L666.0 426.0L664.0 426.0L664.0 430.0L660.0 434.0L660.0 440.0L654.0 448.0L654.0 454.0L648.0 462.0L648.0 468.0L646.0 468.0L646.0 472.0L640.0 480.0L640.0 486.0L638.0 486.0L638.0 490.0L632.0 498.0L632.0 504.0L630.0 504.0L630.0 508.0L628.0 508.0L628.0 512.0L626.0 512.0L626.0 516.0L620.0 524.0L620.0 530.0L618.0 530.0L618.0 534.0L616.0 534.0L616.0 538.0L614.0 538.0L614.0 542.0L608.0 550.0L608.0 556.0L606.0 556.0L606.0 560.0L604.0 560.0L604.0 564.0L602.0 564.0L602.0 568.0L600.0 568.0L600.0 572.0L598.0 572.0L598.0 576.0L596.0 576.0L596.0 580.0L594.0 580.0L594.0 584.0L592.0 584.0L592.0 588.0L590.0 588.0L590.0 592.0L584.0 600.0L584.0 606.0L582.0 606.0L582.0 610.0L580.0 610.0L580.0 614.0L578.0 614.0L566.0 642.0L562.0 644.0L562.0 648.0L560.0 648.0L560.0 652.0L558.0 652.0L558.0 656.0L556.0 656.0L556.0 660.0L554.0 660.0L554.0 664.0L548.0 672.0L548.0 780.0L546.0 780.0L546.0 798.0L580.0 802.0L580.0 804.0L592.0 806.0L594.0 814.0L584.0 816.0L584.0 818.0L574.0 818.0L574.0 820.0L546.0 822.0L546.0 824.0L438.0 828.0L438.0 826.0L380.0 826.0L380.0 824.0L338.0 822.0L338.0 820.0L318.0 818.0L318.0 816.0L312.0 816.0L312.0 814.0L306.0 812.0L306.0 808.0L310.0 808.0L314.0 804.0L354.0 798.0L350.0 660.0L348.0 660.0L348.0 656.0L346.0 656.0L346.0 652.0L344.0 652.0L344.0 648.0L342.0 648.0L342.0 644.0L340.0 644.0L340.0 640.0L338.0 640.0L338.0 636.0L336.0 636.0L336.0 632.0L334.0 632.0L334.0 628.0L332.0 628.0L332.0 624.0L330.0 624.0L330.0 620.0L328.0 620.0L328.0 616.0L326.0 616.0L326.0 612.0L324.0 612.0L324.0 608.0L322.0 608.0L322.0 604.0L316.0 596.0L316.0 590.0L314.0 590.0L314.0 586.0L312.0 586.0L312.0 582.0L310.0 582.0L310.0 578.0L308.0 578.0L308.0 574.0L302.0 566.0L302.0 560.0L300.0 560.0L300.0 556.0L298.0 556.0L298.0 552.0L296.0 552.0L296.0 548.0L290.0 540.0L290.0 534.0L288.0 534.0L288.0 530.0L282.0 522.0L282.0 516.0L280.0 516.0L280.0 512.0L274.0 504.0L274.0 498.0L268.0 490.0L268.0 484.0L266.0 484.0L266.0 480.0L260.0 472.0L260.0 466.0L254.0 458.0L250.0 442.0L248.0 442.0L248.0 438.0L244.0 434.0L244.0 428.0L238.0 420.0L238.0 414.0L234.0 410.0L234.0 404.0L230.0 400.0L230.0 394.0L224.0 386.0L224.0 380.0L220.0 376.0L220.0 370.0L218.0 370.0L216.0 360.0L212.0 356.0L212.0 350.0L208.0 346.0L206.0 334.0L204.0 334.0L202.0 324.0L198.0 320.0L198.0 316.0L200.0 316.0L200.0 320.0L204.0 324.0L208.0 340.0L214.0 348.0L214.0 354.0L220.0 362.0L220.0 368.0L226.0 376.0L226.0 382.0L232.0 390.0L232.0 396.0L234.0 396.0L234.0 400.0L240.0 408.0L240.0 414.0L246.0 422.0L246.0 428.0L248.0 428.0L248.0 432.0L250.0 432.0L250.0 436.0L256.0 444.0L256.0 450.0L258.0 450.0L258.0 454.0L260.0 454.0L260.0 458.0L266.0 466.0L266.0 472.0L268.0 472.0L268.0 476.0L270.0 476.0L270.0 480.0L272.0 480.0L272.0 484.0L274.0 484.0L274.0 488.0L276.0 488.0L276.0 492.0L282.0 500.0L282.0 506.0L284.0 506.0L284.0 510.0L286.0 510.0L286.0 514.0L288.0 514.0L288.0 518.0L290.0 518.0L290.0 522.0L292.0 522.0L292.0 526.0L294.0 526.0L294.0 530.0L296.0 530.0L296.0 534.0L298.0 534.0L298.0 538.0L300.0 538.0L300.0 542.0L302.0 542.0L302.0 546.0L304.0 546.0L304.0 550.0L306.0 550.0L306.0 554.0L308.0 554.0L308.0 558.0L310.0 558.0L310.0 562.0L312.0 562.0L312.0 566.0L314.0 566.0L314.0 570.0L316.0 570.0L316.0 574.0L318.0 574.0L318.0 578.0L320.0 578.0L320.0 582.0L322.0 582.0L322.0 586.0L324.0 586.0L336.0 614.0L340.0 616.0L340.0 620.0L342.0 620.0L342.0 624.0L348.0 632.0L348.0 588.0L346.0 588.0L348.0 544.0L346.0 544.0L344.0 528.0L342.0 528.0L342.0 522.0L340.0 522.0L338.0 506.0L336.0 506.0L336.0 500.0L334.0 500.0L328.0 468.0L326.0 468.0L326.0 462.0L324.0 462.0L324.0 454.0L322.0 454.0L322.0 446.0L320.0 446.0L320.0 438.0L318.0 438.0L318.0 430.0L316.0 430.0L316.0 422.0L314.0 422.0L314.0 414.0L312.0 414.0L312.0 406.0L310.0 406.0L310.0 398.0L308.0 398.0L308.0 390.0L306.0 390.0L306.0 382.0L304.0 382.0L304.0 372.0L302.0 372.0L302.0 364.0L300.0 364.0L300.0 356.0L298.0 356.0L298.0 348.0L296.0 348.0L296.0 340.0L294.0 340.0L294.0 330.0L292.0 330.0L292.0 322.0L290.0 322.0L290.0 314.0L288.0 314.0L288.0 304.0L286.0 304.0L286.0 296.0L284.0 296.0L284.0 288.0L282.0 288.0L282.0 278.0L280.0 278.0L280.0 270.0L278.0 270.0L278.0 260.0L276.0 260.0L276.0 252.0L274.0 252.0L274.0 242.0L272.0 242.0L272.0 234.0L270.0 234.0L270.0 224.0L268.0 224.0L268.0 216.0L266.0 216.0L264.0 198.0L266.0 198.0L266.0 206.0L268.0 206.0L268.0 214.0L270.0 214.0L270.0 224.0L272.0 224.0L272.0 232.0L274.0 232.0L274.0 240.0L276.0 240.0L276.0 248.0L278.0 248.0L278.0 256.0L280.0 256.0L280.0 264.0L282.0 264.0L282.0 272.0L284.0 272.0L284.0 282.0L286.0 282.0L288.0 298.0L290.0 298.0L290.0 304.0L292.0 304.0L292.0 312.0L294.0 312.0L294.0 320.0L296.0 320.0L304.0 360.0L306.0 360.0L312.0 390.0L314.0 390.0L314.0 396.0L316.0 396.0L318.0 412.0L320.0 412.0L320.0 418.0L322.0 418.0L322.0 426.0L324.0 426.0L324.0 432.0L326.0 432.0L326.0 440.0L328.0 440.0L328.0 446.0L330.0 446.0L330.0 454.0L332.0 454.0L332.0 460.0L334.0 460.0L338.0 482.0L340.0 482.0L340.0 488.0L342.0 488.0L342.0 494.0L344.0 494.0L344.0 502.0L346.0 502.0L346.0 508.0L350.0 510.0L350.0 462.0L352.0 462.0L356.0 336.0L352.0 334.0L352.0 330.0L348.0 326.0L346.0 308.0L344.0 308.0L344.0 254.0L346.0 254.0L348.0 236.0L354.0 228.0L352.0 194.0L350.0 194.0L350.0 168.0L348.0 168.0L346.0 116.0L348.0 116.0L348.0 138.0L350.0 138.0L350.0 162.0L352.0 162.0L356.0 224.0L364.0 222.0L368.0 226.0L368.0 230.0L372.0 234.0L372.0 240.0L374.0 240.0L376.0 262.0L378.0 262.0L378.0 300.0L376.0 300.0L374.0 322.0L372.0 322.0L372.0 328.0L368.0 332.0L370.0 334.0L370.0 350.0L372.0 350.0L372.0 366.0L374.0 366.0L374.0 382.0L378.0 382.0L378.0 376.0L384.0 368.0L392.0 368.0L396.0 378.0L398.0 378.0L398.0 384.0L400.0 384.0L402.0 406.0L404.0 406.0L402.0 222.0L400.0 222.0L400.0 216.0L398.0 216.0L398.0 174.0L400.0 174.0L400.0 166.0L402.0 166.0L402.0 136.0L404.0 136.0L404.0 52.0L406.0 52.0L406.0 154.0L408.0 154.0L408.0 150.0L412.0 150.0L412.0 106.0L414.0 106.0L414.0 98.0L416.0 98.0L416.0 126.0L418.0 126.0L418.0 146.0L416.0 146.0L416.0 150.0L420.0 150.0L424.0 154.0L424.0 158.0L428.0 162.0L428.0 168.0L430.0 168.0L430.0 180.0L432.0 180.0L430.0 220.0L428.0 220.0L428.0 226.0L426.0 226.0L424.0 234.0L418.0 238.0L414.0 456.0L416.0 456.0L418.0 514.0L420.0 514.0L420.0 540.0L422.0 540.0L422.0 564.0L424.0 564.0L424.0 586.0L426.0 586.0L430.0 646.0L432.0 646.0L434.0 682.0L436.0 682.0L436.0 698.0L438.0 698.0L438.0 714.0L440.0 714.0L440.0 730.0L442.0 730.0L446.0 396.0L444.0 396.0L444.0 392.0L438.0 384.0L436.0 366.0L434.0 366.0L434.0 310.0L436.0 310.0L436.0 298.0L438.0 298.0L440.0 286.0L448.0 278.0L450.0 46.0ZM342.0 72.0L344.0 72.0L344.0 78.0L342.0 78.0L342.0 74.0ZM556.0 86.0L558.0 86.0L558.0 102.0L556.0 102.0L556.0 88.0ZM344.0 90.0L346.0 90.0L346.0 110.0L344.0 110.0L344.0 92.0ZM554.0 112.0L556.0 112.0L556.0 132.0L554.0 132.0L554.0 114.0ZM476.0 134.0L478.0 134.0L478.0 142.0L480.0 142.0L480.0 184.0L474.0 182.0L476.0 136.0ZM256.0 162.0L258.0 162.0L258.0 168.0L256.0 168.0L256.0 164.0ZM360.0 170.0L362.0 170.0L362.0 198.0L364.0 198.0L364.0 218.0L358.0 220.0L358.0 178.0L360.0 178.0L360.0 172.0ZM258.0 172.0L260.0 172.0L260.0 178.0L258.0 178.0L258.0 174.0ZM644.0 176.0L646.0 176.0L646.0 180.0L644.0 178.0ZM260.0 180.0L262.0 180.0L262.0 188.0L260.0 188.0L260.0 182.0ZM642.0 184.0L644.0 184.0L644.0 190.0L642.0 190.0L642.0 186.0ZM262.0 190.0L264.0 190.0L264.0 196.0L262.0 196.0L262.0 192.0ZM640.0 194.0L642.0 194.0L642.0 200.0L640.0 200.0L640.0 196.0ZM638.0 202.0L640.0 202.0L640.0 208.0L638.0 208.0L638.0 204.0ZM636.0 210.0L638.0 210.0L636.0 226.0L634.0 226.0L636.0 212.0ZM408.0 234.0L406.0 234.0L408.0 274.0L410.0 274.0L410.0 238.0L408.0 236.0ZM494.0 262.0L492.0 262.0L488.0 282.0L482.0 286.0L486.0 428.0L488.0 428.0L490.0 364.0L492.0 364.0L494.0 264.0ZM184.0 280.0L186.0 280.0L186.0 284.0L184.0 282.0ZM188.0 290.0L190.0 290.0L190.0 294.0L188.0 292.0ZM192.0 300.0L194.0 300.0L194.0 304.0L192.0 302.0ZM714.0 300.0L716.0 300.0L716.0 304.0L714.0 302.0ZM194.0 306.0L198.0 310.0L198.0 314.0L196.0 314.0L194.0 308.0ZM710.0 310.0L712.0 310.0L712.0 314.0L710.0 312.0ZM386.0 314.0L388.0 314.0L388.0 322.0L390.0 322.0L390.0 364.0L384.0 362.0L386.0 316.0ZM706.0 320.0L708.0 320.0L706.0 328.0L704.0 328.0L706.0 322.0ZM702.0 330.0L704.0 330.0L702.0 338.0L700.0 338.0L702.0 332.0ZM366.0 354.0L364.0 354.0L364.0 388.0L362.0 388.0L358.0 548.0L360.0 548.0L360.0 554.0L362.0 554.0L362.0 560.0L364.0 560.0L364.0 566.0L366.0 566.0L366.0 572.0L368.0 572.0L368.0 578.0L370.0 578.0L370.0 586.0L372.0 586.0L372.0 592.0L374.0 592.0L374.0 598.0L376.0 598.0L376.0 604.0L378.0 604.0L378.0 610.0L380.0 610.0L380.0 616.0L382.0 616.0L382.0 516.0L384.0 516.0L382.0 508.0L378.0 504.0L378.0 498.0L376.0 498.0L374.0 480.0L372.0 480.0L372.0 464.0L370.0 464.0L370.0 416.0L372.0 416.0L372.0 412.0L370.0 412.0L366.0 356.0ZM534.0 398.0L532.0 398.0L532.0 408.0L530.0 408.0L530.0 426.0L528.0 426.0L526.0 460.0L524.0 460.0L524.0 476.0L522.0 476.0L520.0 510.0L518.0 510.0L518.0 524.0L516.0 524.0L516.0 540.0L514.0 540.0L514.0 554.0L512.0 554.0L508.0 598.0L506.0 598.0L502.0 638.0L500.0 638.0L496.0 676.0L494.0 676.0L494.0 688.0L492.0 688.0L492.0 698.0L494.0 698.0L496.0 686.0L500.0 682.0L506.0 658.0L510.0 654.0L510.0 648.0L512.0 648.0L512.0 642.0L514.0 642.0L514.0 636.0L516.0 636.0L516.0 630.0L518.0 630.0L518.0 624.0L520.0 624.0L520.0 618.0L522.0 618.0L522.0 612.0L524.0 612.0L524.0 606.0L528.0 602.0L532.0 582.0L534.0 582.0L534.0 576.0L536.0 576.0L536.0 570.0L538.0 570.0L538.0 460.0L536.0 460.0L536.0 400.0L534.0 400.0ZM402.0 486.0L400.0 486.0L398.0 500.0L394.0 504.0L394.0 520.0L396.0 520.0L396.0 532.0L398.0 532.0L398.0 544.0L400.0 544.0L400.0 556.0L402.0 556.0L402.0 488.0ZM360.0 586.0L358.0 586.0L360.0 658.0L362.0 658.0L364.0 666.0L368.0 668.0L372.0 680.0L376.0 682.0L376.0 686.0L380.0 690.0L380.0 654.0L378.0 654.0L378.0 648.0L376.0 648.0L376.0 640.0L374.0 640.0L374.0 634.0L372.0 634.0L372.0 628.0L370.0 628.0L370.0 620.0L368.0 620.0L368.0 614.0L366.0 614.0L366.0 606.0L364.0 606.0L360.0 588.0ZM394.0 588.0L392.0 588.0L392.0 650.0L394.0 650.0L394.0 656.0L396.0 656.0L396.0 662.0L398.0 662.0L398.0 668.0L400.0 668.0L400.0 674.0L402.0 674.0L402.0 680.0L404.0 680.0L404.0 686.0L406.0 686.0L404.0 654.0L402.0 654.0L402.0 642.0L400.0 642.0L400.0 628.0L398.0 628.0L398.0 616.0L396.0 616.0L394.0 590.0ZM538.0 610.0L536.0 610.0L532.0 630.0L530.0 630.0L530.0 636.0L528.0 636.0L528.0 642.0L526.0 642.0L526.0 648.0L524.0 648.0L524.0 656.0L522.0 656.0L522.0 662.0L520.0 662.0L520.0 668.0L518.0 668.0L518.0 674.0L516.0 674.0L516.0 680.0L514.0 680.0L514.0 686.0L512.0 686.0L512.0 692.0L510.0 692.0L510.0 700.0L508.0 700.0L508.0 706.0L506.0 706.0L506.0 712.0L504.0 712.0L504.0 718.0L502.0 718.0L502.0 724.0L500.0 724.0L500.0 730.0L502.0 730.0L502.0 726.0L506.0 724.0L506.0 720.0L512.0 714.0L514.0 706.0L518.0 704.0L520.0 696.0L524.0 694.0L528.0 682.0L532.0 680.0L534.0 672.0L538.0 670.0L538.0 612.0ZM364.0 688.0L362.0 688.0L362.0 722.0L364.0 722.0L366.0 796.0L382.0 796.0L380.0 718.0L376.0 716.0L376.0 712.0L374.0 712.0L374.0 708.0L372.0 708.0L372.0 704.0L370.0 704.0L364.0 690.0ZM394.0 698.0L392.0 698.0L392.0 714.0L400.0 724.0L394.0 700.0ZM536.0 698.0L534.0 698.0L528.0 714.0L524.0 716.0L518.0 732.0L514.0 734.0L510.0 746.0L506.0 748.0L502.0 760.0L498.0 762.0L494.0 774.0L490.0 776.0L488.0 784.0L484.0 786.0L484.0 794.0L534.0 796.0L534.0 782.0L536.0 782.0L536.0 700.0ZM402.0 724.0L400.0 724.0L400.0 728.0L402.0 726.0ZM394.0 744.0L392.0 744.0L394.0 796.0L408.0 794.0L408.0 770.0L406.0 770.0L404.0 762.0L400.0 760.0L394.0 746.0Z"></path></svg>