<?xml version="1.0" encoding="UTF-8"?>
<svg id="Layer_1" data-name="Layer 1" xmlns="http://www.w3.org/2000/svg" xmlns:xlink="http://www.w3.org/1999/xlink" viewBox="0 0 338.36 507.45">
  <defs>
    <style>
      .cls-1 {
        fill: none;
      }

      .cls-2 {
        fill: #a53b28;
      }

      .cls-3 {
        clip-path: url(#clippath-1);
      }

      .cls-4 {
        clip-path: url(#clippath);
      }
    </style>
    <clipPath id="clippath">
      <rect class="cls-1" y="0" width="338.36" height="507.45"/>
    </clipPath>
    <clipPath id="clippath-1">
      <rect class="cls-1" y="0" width="338.36" height="507.45"/>
    </clipPath>
  </defs>
  <g id="Artwork_11" data-name="Artwork 11">
    <g class="cls-4">
      <g class="cls-3">
        <path class="cls-2" d="M114.83,477.79c-.24.15-3.17.78-4.64,1.03.05,5.42.2,10.25.49,11.42-.83.83-3.71,1.17-4.93,1.17-1.12,0-1.76-.29-1.76-.29,0-7.18.29-28.17.29-28.17-.93-1.17-1.85-4.3-1.85-5.08,0-.1,0-.15.05-.2.2-.24,4.93-.54,9.52-.54,6.25,0,15.77,1.17,15.77,8.84,0,4.25-3.12,7.57-7.62,9.76,0,.68,5.22,12.3,7.96,15.03.05.49-2.78,1.66-5.37,1.66-.54,0-1.22-.1-1.22-.1-1.66-1.66-6.4-13.28-6.69-14.55M121.32,466.22c0-2.73-3.42-3.95-7.42-3.95-1.95,0-3.47.29-3.47.29-.19,1.42-.29,5.91-.29,10.84,8.5-.78,11.18-4.73,11.18-7.18"/>
        <path class="cls-2" d="M128.15,476.67c0-6.88,2.73-10.69,2.98-10.84.44-.24,2.1-.29,3.22-.29h.93c0-6.98,6.01-8.54,8.79-8.54,9.28,0,13.57,6.01,13.57,17.09,0,7.86-2.83,17.33-15.23,17.33-10.4,0-14.25-7.08-14.25-14.74M144.51,462.22c-2.78,0-4.05,2-4.05,3.71,0,4.49,4.39,9.42,4.39,9.42,0,.44-2.39,1.61-4.68,1.61-.34,0-3.22-3.12-4.2-7.86-.39.44-1.61,2.69-1.61,7.33,0,5.37,3.37,9.91,8.1,9.91,7.47,0,8.89-6.64,8.89-12.64,0-8.59-2.98-11.47-6.84-11.47"/>
        <path class="cls-2" d="M160.07,476.67c0-6.88,2.73-10.69,2.98-10.84.44-.24,2.1-.29,3.22-.29h.93c0-6.98,6.01-8.54,8.79-8.54,9.28,0,13.57,6.01,13.57,17.09,0,7.86-2.83,17.33-15.23,17.33-10.4,0-14.25-7.08-14.25-14.74M176.43,462.22c-2.78,0-4.05,2-4.05,3.71,0,4.49,4.39,9.42,4.39,9.42,0,.44-2.39,1.61-4.68,1.61-.34,0-3.22-3.12-4.2-7.86-.39.44-1.61,2.69-1.61,7.33,0,5.37,3.37,9.91,8.1,9.91,7.47,0,8.89-6.64,8.89-12.64,0-8.59-2.98-11.47-6.84-11.47"/>
        <path class="cls-2" d="M197.31,491.56c-4.1,0-5.37-.39-5.37-.39-.34-.34-.44-3.12-.44-5.81,0-2.39.1-4.74.19-5.23.15-.49,2.59-1.71,4.74-1.71,0,0,0,5.76,1.22,6.98.44.44,1.51.49,1.85.49,4.15,0,7.76-2.68,7.76-5.91,0-5.95-14.69-5.08-14.69-13.77,0-4.05,4.83-9.47,16.65-9.47.54,0,2.05.15,2.15.24,0,0,.05.15.05.29,0,.93-.39,3.9-1.22,4.78-.05,0-.59-.1-1.37-.1-3.22,0-9.32.78-9.32,4.2,0,4.69,14.4,3.61,14.4,13.57,0,6.44-6.88,11.81-16.6,11.81"/>
        <path class="cls-2" d="M221.82,491.61c-.24-.29-.34-2.49-.34-5.57,0-6.1.34-15.67.34-20.31,0-1.56-.05-2.54-.15-2.64-.05-.05-.29-.1-.68-.1-1.86,0-6.79.68-6.79.68-.1-.1-.15-1.27-.15-1.27,0-2.59,1.07-4.69,1.07-4.69,0,0,3.81-.05,7.86-.29,1.86-.1,7.76-.29,9.67-.29,1.41,0,3.66.05,3.66.19,0,1.61-.34,5.22-.83,5.71-.68-.15-3.12-.24-5.03-.24-1.22,0-2.2.05-2.29.15-.15.15-.34,4.98-.34,10.64,0,6.89.29,15.03,1.46,17.18,0,.29-1.85,1.27-5.47,1.27-1.32,0-2-.44-2-.44"/>
        <path class="cls-2" d="M252.77,470.61c2.34,0,4,.05,4,.15,0,1.9-1.51,4.78-1.71,4.74-.78,0-7.18.24-7.91.73-.05.05-.05.63-.05,1.51,0,2.39.1,6.74.24,6.88.68.68,6.98.78,8.4.78,2.78,0,5.08-.34,5.12-.34s.1,0,.1.05c0,1.61-1.32,4.15-2.44,5.22-.15.15-3.47.49-9.66.49-3.86,0-7.52-.19-7.66-.39-.2-.15-.29-4.39-.29-6.88,0-2.25.05-4.78.1-7.28-1.12-.97-2.49-3.66-2.49-5.27,0-.05,1.03-.1,2.59-.15,0-2.05.05-3.91.05-5.27s-.05-2.2-.1-2.29c-.78-.78-2.25-4.49-2.25-5.23.39-.39,12.94-.54,17.14-.54,2.29,0,4.1.05,4.1.19,0,2.29-1.81,4.93-2.1,4.88-.15-.05-.73-.1-1.46-.1-2.83,0-8.64.34-9.03.73-.24.25-.29,3.27-.29,5.37,0,1.17.05,2.05.05,2.05,1.95-.05,3.91-.05,5.57-.05"/>
        <path class="cls-2" d="M276.78,477.79c-.24.15-3.17.78-4.64,1.03.05,5.42.2,10.25.49,11.42-.83.83-3.71,1.17-4.93,1.17-1.12,0-1.76-.29-1.76-.29,0-7.18.29-28.17.29-28.17-.93-1.17-1.86-4.3-1.86-5.08,0-.1,0-.15.05-.2.2-.24,4.93-.54,9.52-.54,6.25,0,15.77,1.17,15.77,8.84,0,4.25-3.12,7.57-7.62,9.76,0,.68,5.22,12.3,7.96,15.03.05.49-2.78,1.66-5.37,1.66-.54,0-1.22-.1-1.22-.1-1.66-1.66-6.4-13.28-6.69-14.55M283.27,466.22c0-2.73-3.42-3.95-7.42-3.95-1.95,0-3.47.29-3.47.29-.2,1.42-.29,5.91-.29,10.84,8.49-.78,11.18-4.73,11.18-7.18"/>
        <path class="cls-2" d="M19.39,480.51h5.12c-.25,3.61-.69,6.84-1.32,9.67-.63,2.84-1.58,5.35-2.86,7.53-1.28,2.18-3.06,4.08-5.35,5.68-2.28,1.61-5.18,2.96-8.69,4.07-.25-.6-.69-1.32-1.32-2.15-.63-.83-1.19-1.47-1.69-1.92,3.21-.9,5.83-2.03,7.87-3.39,2.03-1.35,3.62-2.95,4.78-4.78,1.15-1.83,1.98-3.97,2.48-6.4.5-2.43.83-5.21.98-8.32M4.48,486.23h33.65v4.37H4.48v-4.37ZM34.97,438.95l2.41,4.21c-2.71.8-5.85,1.52-9.41,2.15-3.56.63-7.24,1.14-11.03,1.54-3.79.4-7.44.7-10.95.9-.05-.6-.2-1.31-.45-2.11-.25-.8-.48-1.51-.68-2.11,3.51-.25,7.14-.59,10.88-1.02,3.74-.43,7.3-.94,10.69-1.54,3.39-.6,6.24-1.28,8.54-2.03M6.74,481.63c0-.35-.08-.82-.23-1.39-.15-.57-.31-1.18-.49-1.81-.18-.63-.34-1.16-.49-1.62.8-.15,1.68-.46,2.63-.94.95-.48,2.03-1.14,3.24-2,.91-.55,2.35-1.57,4.33-3.05,1.98-1.48,4.19-3.26,6.63-5.34,2.43-2.08,4.73-4.3,6.89-6.66l3.61,2.86c-3.72,3.66-7.54,6.98-11.48,9.94-3.94,2.96-7.84,5.5-11.7,7.6v.15c-.95.5-1.68.93-2.18,1.28-.5.35-.75.68-.75.98M7.34,470.57c-.05-.35-.15-.83-.3-1.43-.15-.6-.3-1.21-.45-1.84-.15-.63-.3-1.14-.45-1.54.5-.1,1-.3,1.51-.6.5-.3,1.08-.7,1.73-1.2.4-.35,1.09-.98,2.07-1.88.98-.9,2.04-1.98,3.2-3.24,1.15-1.26,2.21-2.56,3.16-3.92l3.76,2.48c-1.76,2.11-3.63,4.09-5.61,5.95-1.98,1.85-3.95,3.41-5.91,4.67-.9.63-1.58,1.09-2.03,1.47-.45.38-.68.74-.68,1.09M6.21,450.02l3.84-1.58c.75,1.25,1.44,2.65,2.07,4.18.63,1.53,1.07,2.87,1.32,4.03l-4.06,1.88c-.2-1.21-.6-2.6-1.21-4.18-.6-1.58-1.25-3.02-1.96-4.33M6.74,481.63l-.08-3.54,2.48-1.73,25.37-2.33c.1.65.21,1.37.34,2.15.12.78.24,1.42.34,1.92-4.82.45-8.86.87-12.12,1.24-3.26.38-5.89.68-7.87.9-1.98.23-3.54.42-4.67.57-1.13.15-1.96.3-2.49.45-.53.15-.96.28-1.32.38M7.34,470.57v-3.46l2.33-1.35,14.53-.45c-.35.55-.69,1.22-1.02,1.99-.33.78-.59,1.42-.79,1.92-3.06.15-5.52.29-7.38.41-1.86.13-3.29.24-4.29.34-1,.1-1.74.2-2.22.3-.48.1-.87.2-1.17.3M17.88,448.44l3.91-1.51c.65,1.25,1.28,2.65,1.88,4.18.6,1.53,1,2.85,1.2,3.95l-4.06,1.8c-.2-1.15-.58-2.52-1.13-4.1-.55-1.58-1.16-3.02-1.81-4.33M18.71,495.11l3.16-3.16c1.81,1.05,3.7,2.23,5.68,3.54,1.98,1.31,3.85,2.63,5.61,3.99,1.76,1.35,3.19,2.59,4.29,3.69l-3.31,3.54c-1.06-1.1-2.45-2.34-4.18-3.72-1.73-1.38-3.58-2.77-5.53-4.18-1.96-1.41-3.86-2.64-5.72-3.69M27.74,469.97l3.92-1.73c1.5,1.86,2.94,3.92,4.29,6.17,1.35,2.26,2.36,4.27,3.01,6.02l-4.14,1.88c-.65-1.7-1.63-3.73-2.94-6.06-1.31-2.33-2.68-4.43-4.14-6.28M34.29,445.73l3.99,1.73c-.9,1.86-1.84,3.72-2.82,5.57-.98,1.86-1.89,3.44-2.75,4.74l-3.39-1.51c.8-1.4,1.68-3.12,2.64-5.15.95-2.03,1.73-3.83,2.33-5.38M46.63,438.12l5.34,1.28c-1,4.02-2.22,7.96-3.65,11.82-1.43,3.86-3,7.48-4.71,10.84-1.7,3.36-3.56,6.35-5.57,8.96-.25-.4-.62-.87-1.09-1.39-.48-.53-.98-1.07-1.5-1.62-.53-.55-.99-.98-1.39-1.28,2.81-3.46,5.28-7.73,7.41-12.8,2.13-5.07,3.85-10.34,5.16-15.81M47.24,453.26h24.99v5.12h-24.99v48.93h-5.12v-48.63l5.04-5.42h.07ZM44.15,468.24h26.72v4.89h-26.72v-4.89ZM44.15,483.36h26.72v4.97h-26.72v-4.97ZM44.3,498.57h28.76v5.19h-28.76v-5.19ZM54.61,441.59l4.67-1.51c1.15,1.86,2.28,3.89,3.39,6.1,1.1,2.21,1.96,4.12,2.56,5.72l-4.97,1.81c-.55-1.61-1.35-3.56-2.41-5.87-1.05-2.31-2.13-4.39-3.24-6.25M56.65,455.29h5.12v46.22h-5.12v-46.22Z"/>
        <path class="cls-2" d="M69.82,199.17c-2.53-4.86-.42-9.21-.42-9.21,0,0,4.9,1,7.43,5.86.32.62.57,1.27.79,1.93-.91.93-1.72,2.41-2.7,2.89-.94.45-2.62.19-3.94.33-.43-.58-.83-1.17-1.16-1.8M74.18,214.01c-1.46-.92-4.72-.31-5.45-1.7-.76-1.44,1.72-3.6,1.81-5.21.08-1.56-2.17-3.99-1.22-5.38.51-.91-.04-1.15-.6-1.33-5.35-1.73-9.54.88-9.54.88,0,0,1.71,4.53,7.07,6.27.95.31,1.95.5,2.95.62-.97.25-1.93.57-2.83.99-5.04,2.4-6.06,7.11-6.06,7.11,0,0,4.54,2.05,9.58-.35.89-.43,1.74-.97,2.53-1.56-.5.84-.94,1.72-1.26,2.63-1.78,5.14.97,9.17.97,9.17,0,0,4.71-1.62,6.48-6.76.18-.53.32-1.08.43-1.63-2.69.29-3.41-2.83-4.87-3.76M207.54,262.63c-3.66,7.4-10.06,15.21-18.68,22.09-13.52,12.9-32.8,28.32-37.62,53.95-2.88,15.33-20.49,39.48-14.2,48.8,1.5,2.22,1.7,4.21,7.79,9.28,1.01.84-.25,3.01-.47,4.82-.23,1.93.73,3.93-.03,4.07-.75.15-1.83-1.9-3.38-3.66-.6-.68-2.66-1.52-3.04-2.21-3.91-7.24-4.66-8.5-10.57-8.71-12.08-.44-17.21,5.17-21.13,8.16-.54.41-3.13.71-4.29,1.44-1.86,1.17-2.04,2.92-2.66,2.74-.58-.17-.25-2.07-.19-4.04.03-.91-.33-2.66,1.77-4.96,3.12-3.41,12.47-5.74,13.08-7.53.72-2.12-2.65-4.69-9.76-4.55-5.48.11-4.57,5.09-6.99,5.24-1.2.07-1.45.42-1.95.78-1.4,1.01-1.2,2.45-1.65,2.29-.37-.12-.17-1.76.22-3.47.08-.34-.14-2.04,1.4-3.78,1.59-1.79,3.53-4.03,6.15-4.78,4.55-1.31,16.3,2.7,21.23.22,3.46-1.74,5.58-3.15,7.52-5.71,8.19-10.84,8.82-25.56,6.08-31.89-.9-2.07-2.65-4.54-4.9-7.47-.5-.88-1.01-1.75-1.58-2.57-1.61-2.46-3.52-4.69-5.14-7.14-3.33-4.83-6.41-9.85-9.1-15.08-2.69-5.22-5-10.66-6.67-16.3-.76-2.63-1.37-5.31-1.77-8.03,3.84,1.04,7.74,1.88,11.69,2.48,12.49,2.05,25.42,1.77,37.79-.97,6.18-1.38,12.21-3.28,18.11-5.48,1.47-.55,2.91-1.2,4.37-1.79,1.46-.58,2.9-1.22,4.3-1.93,1.42-.67,2.86-1.31,4.26-2.01l4.16-2.2c5.5-3.02,10.82-6.37,15.84-10.12M142.97,335.28c-.78-11.57-14.7-17.6-25.79-45.51-2.08,13.97,9.16,27.14,16.5,38.28,5.56,8.45,7.03,9,7.77,8.97.9-.06,1.58-.84,1.52-1.74M84.72,200.76c.5-.84.94-1.72,1.26-2.63,1.78-5.14-.97-9.17-.97-9.17,0,0-4.7,1.62-6.48,6.76-.18.53-.32,1.08-.43,1.63,2.69-.29,3.41,2.83,4.87,3.75,1.46.92,4.72.31,5.45,1.7.76,1.44-1.72,3.61-1.81,5.21-.09,1.55,2.17,3.98,1.22,5.38-.51.9.04,1.14.6,1.33,5.35,1.73,9.54-.88,9.54-.88,0,0-1.72-4.53-7.07-6.27-.95-.31-1.95-.5-2.95-.62.97-.25,1.93-.57,2.83-.99,5.04-2.41,6.06-7.11,6.06-7.11,0,0-4.54-2.06-9.58.35-.89.43-1.74.97-2.53,1.56M86.16,214.14c-1.33.14-3-.13-3.95.33-.99.47-1.79,1.96-2.7,2.89.22.66.47,1.32.79,1.93,2.53,4.86,7.43,5.86,7.43,5.86,0,0,2.11-4.35-.42-9.21-.33-.63-.73-1.22-1.16-1.8M156.83,251.84c-.94,3.78.9,4.03.9,4.03,0,0,.67-1.66-.39-3.39-.14-.23-.33-.44-.51-.64M152.44,252.1c-.56-.3-1.75,0-2.05-.49-.32-.51.54-1.37.54-1.97,0-.58-.9-1.42-.59-1.96-2.27-.98-3.75.09-3.75.09,0,0,.75,1.63,2.77,2.13-1.71,1.61-1.97,3.37-1.97,3.37,0,0,1.73.64,3.53-.37-.03,2.3,1.09,3.72,1.09,3.72,0,0,1.7-.72,2.22-2.66-.87-.44-1.21-1.57-1.78-1.88M150.97,247.37c.94-3.78-.9-4.03-.9-4.03,0,0-.67,1.66.39,3.39.14.23.33.43.51.64M217.11,247.9c-7.82,8.2-17.33,15.2-27.68,20.63-5.31,2.92-10.92,5.22-16.61,7.22-5.71,1.97-11.6,3.29-17.5,4.36-11.85,1.83-23.88,2.52-35.83,1.17-4.33-.51-8.66-1.21-12.93-2.18-.02-1.32.01-2.65.14-3.98-.41,1.24-.71,2.51-.94,3.8-1.33-.31-2.66-.64-3.98-1.01-5.8-1.64-11.51-3.67-17.01-6.22-11.01-5.05-21.32-11.91-30.01-20.72,7.5,9.85,17.37,17.94,28.33,24.03,6.97,3.86,14.4,6.94,22.1,9.16-.1,3.06.15,6.16.62,9.18.94,6.1,2.82,12.02,5.17,17.71,1.37,3.27,2.93,6.46,4.62,9.58.09,7.43-.08,13.59-.62,16.44-1.66,8.73-38.92,4.46-41.71,4.74-3.49.36-3.09,7.88,1.82,14.54,1.25,1.7-.37,4.8,1.03,7.39.6,1.1-1.42,1.51-4.28-1.72-.97-1.09-1.88-.89-3.08-2.34-3.09-3.72-1.49-16.45-9.62-14.18-5.15,1.44-7.54.96-7.09,9.42.29,5.46-2.23,4.88-3.21,7.09-.73,1.65-.17,4.49-.89,4.07-1.44-.84-1.39-3.23-2.34-4.61-.75-1.1-1.13-3.91-.32-5.24,3.1-5.08,3.9-13.86,1.44-12.95-3.67,1.36-5.72,3.08-8.28,6.34-.73.93,1.06,3.28-.32,5.83-1.14,2.09.37,2.25.14,4.69-.1,1.08-2.88-4.04-3.18-4.66-.81-1.62-1.74-7.13-.96-8.55,1.21-2.19,4.62-4.23,7.38-6.86,4.91-4.68,10.94-9.47,17.95-10.41,11.05-1.49,20.54,4.36,30.42,5.49,8,.92,15.11-3.07,8.52-9.83-4.92-5.04-46.5-26.63-52.94-51.85,1.56.83,3.14,1.64,4.73,2.44,12.78,6.45,30.21,12.79,43.18,12.71-6.76-2.16-13.36-4.61-19.75-7.48-6.38-2.87-12.57-6.11-18.57-9.68-1.79-1.06-3.55-2.19-5.31-3.3C19.57,244.17-4.92,211.45.85,176.39c5.78-35.13,19.36-44.21,39.9-61.76,1.9-1.63,3.54-3.3,4.95-4.99,2.03-1.84,2.84-2.77,3.68-3.68,3.13-3.86,5.1-8.71,5.71-13.68.56-4.99-.11-10.03-1.84-14.61-.86-2.29-1.93-4.51-3.32-6.51-1.38-1.96-2.97-3.99-5.2-5,1.64,1.72,2.59,3.84,3.43,5.96.46,1.04.82,2.12,1.14,3.21.38,1.06.61,2.18.89,3.27.99,4.39,1.39,8.87.83,13.21-.47,4.35-1.97,8.5-4.24,12.31-1.06,1.81-2.38,3.45-3.83,5.02-2.05,1.39-4.5,2.44-7.52,2.96-17.15,2.95-25.25-19.35-5.2-32.03,2.79-1.76,4.99-3.89,6.77-6.14-2.06-.24-3.84-.39-4.73-.54-2.81-.49-9.64-.45-8.3-1.22,5.24-3.03,8.67-4.92,8.34-6.13-.41-1.5-12.93,4-11.65,1.72,4.23-7.52,11.44-13,17.45-16.56-4.3-2.45-10.1-7.52-8-16.56,2.22-9.53,8.72-.25,11.52-1.55,3.07-1.42,2.94-8.19,4.11-12.91,2.12-8.55,9.1-14.09,14.11-15.01,8.01-1.47,1.23,13.47,5.71,12.54,4.56-.94,11.16-20.38,24.47-17.38,5.2,1.17-2.28,14.77,2.07,17.07,5.51,2.91,14.02-6.48,16.98,2.19,2.33,6.82-4.21,23.1-18.58,23.31-3.51-1.75-7.25-2.92-10.98-3.63-6.11-1.31-12.31-1.09-18.34-.62,5.96.87,11.89,1.58,17.4,3.52,8.88,3.93,16.95,11.49,21.06,24.52,10.68,33.86-6.88,69.26,6.82,95.66,9.63,5.04,18.99,13.33,27.82,22.2,7.82,9.54,15.52,19.05,24.24,27.91,8.83,8.79,18.73,16.61,29.61,22.83,5.44,3.1,11.1,5.82,16.91,8.15,2.9,1.17,5.84,2.24,8.75,3.26.53.19,1.06.38,1.59.56.02.1,1.72.64,1.72.64M91.24,27.58c1.2-1.27,2.93-2.37,4.07-3.38,1.18-1,2.46-1.88,3.81-2.67,2.61-1.49,5.16-2.24,8.34-2.78-3.3-1.19-6.83-.73-9.95.99-1.47.85-2.85,1.92-4,3.22-1.14,1.29-2.07,2.84-2.28,4.62M72.82,18.65c1-1.65,2.16-3.21,3-4.74.85-1.54,1.81-3.01,2.87-4.41,1.05-1.42,2.16-2.65,3.51-3.76,1.33-1.08,2.4-2.16,3.97-2.97-2.06-.34-3.84.4-5.43,1.46-1.59,1.03-2.99,2.49-4.06,4.01-1.1,1.52-2.04,3.16-2.72,4.91-.69,1.74-1.15,3.59-1.14,5.49M34.58,45.32c-.52-1.05-.76-2.18-.96-3.25-.17-1.1-.26-2.2-.25-3.32-.03-2.22.29-4.47.58-6.82-2.03,1.81-2.67,4.32-2.62,6.85.04,1.26.23,2.53.68,3.73.45,1.2,1.14,2.33,2.22,3.11.36-.04.41-.18.35-.3M29.53,101.65c-.47-.58-2.89-3.47-4.56-3.47-1.76.9-1.31,2.36-1.14,2.91.32,1.05.89,2.27,1.6,3.43.78,1.28,1.68,2.35,2.53,2.99.48.37,1.22.82,1.97.82,2.54-1.65,1.34-4.54-.4-6.69M38.56,98.77c-.2-1.2-1.38-2.67-3.08-3.86-1.6-1.11-3.28-1.8-4.38-1.8-1.59,2.83-.09,4.56,1.3,5.76,1.49,1.29,3.09,2.06,4.27,2.06.69,0,1.25-.26,1.58-.73.2-.27.42-.74.31-1.43M39.69,86.95c-1.16-.5-2.37-.78-3.33-.78-1.29,0-1.84.51-2.08.93.25,2.46,1.86,3.66,3.25,4.39,1.19.62,2.39.96,3.37.96,1.52,0,2.01-.82,2.16-1.18.64-1.61-1.21-3.39-3.38-4.31M42.48,78.38c-.64-.17-1.31-.25-1.92-.25-1.5,0-2.55.51-2.9,1.4.54,2.28,1.79,3.15,3.43,3.68.75.24,1.51.37,2.19.37,1.49,0,2.51-.6,2.74-1.6.35-1.44-1.18-2.99-3.55-3.59M80.01,299.39c-5.44-2.98-12.95-7.23-17.89-10.91-4.93-3.69-7.29-6.81-7.29-6.81,4.93,15.35,27.78,22.89,39.08,34,6.88,6.75,7.61,7.41,8.41,7.35,1.49-.33,1.38-1.66,1.31-1.94-2.27-10.11-14.38-16.59-23.62-21.68M147.77,219.11c-3.22,3-4.72,6.56-3.26,7.83,1.44,1.29,4.96-.19,7.83-3.28,2.85-3.07,4.26-6.53,3.19-7.76-1.09-1.21-4.51.19-7.76,3.21M127.62,197.68c-3.8,3.63-5.82,7.55-4.52,8.76,1.3,1.21,5.31-.62,8.97-4.08,3.65-3.46,5.68-7.39,4.52-8.76-1.16-1.37-5.17.46-8.97,4.09M112.71,229.07c1.4.97,2.75,2.18,3.87,3.34-.57-2.36-2.4-6.02-5.05-7.86-3.73-2.59-9.68,6-5.95,8.59,2.65,1.84,6.72,2.27,9.13,1.97-1.48-.65-3.1-1.48-4.49-2.45-3.73-2.59-1.25-6.17,2.49-3.59M115.98,238.13c.93,1.96,3.27,2.8,5.23,1.87,1.96-.93,2.85-3.64,1.92-5.6-.93-1.96-3.32-2.43-5.28-1.5-1.96.93-2.8,3.27-1.87,5.23M122.51,226.85c-.14,1.69-.52,3.47-.96,5.03,1.76-1.67,4.01-5.08,4.28-8.3.37-4.53-10.14-5.71-10.51-1.18-.26,3.22,1.5,7.28,2.96,9.22-.18-1.61-.26-3.42-.12-5.11.37-4.53,4.73-4.17,4.35.36M117.42,187.09c-4.07,3.95-6.31,8.12-5,9.32,1.31,1.2,5.55-.89,9.48-4.68,3.93-3.78,6.17-7.96,5-9.32-1.17-1.36-5.41.73-9.49,4.68M101.68,186.45c1.32,1.19,5.79-1.17,9.99-5.27,4.2-4.1,6.66-8.53,5.48-9.88-1.18-1.35-5.65,1.01-9.99,5.28-4.34,4.27-6.79,8.69-5.48,9.88M93.55,190.99c-2.59-2.17-2.69-8.7-5.89-9.73-3.2-1.04-7.34,4.12-10.76,4.34-3.3.21-8.16-4.42-11.3-2.92-3.14,1.5-2.21,8-4.37,10.39-2.24,2.48-9.03,2.54-10.09,5.61-1.06,3.07,4.33,7.07,4.58,10.36.24,3.17-4.55,7.82-2.98,10.84,1.57,3.03,8.34,2.17,10.84,4.25,2.59,2.17,2.69,8.7,5.89,9.73,3.2,1.04,7.34-4.12,10.75-4.34,3.3-.21,8.16,4.42,11.3,2.92,3.14-1.5,2.21-8,4.37-10.39,2.24-2.48,9.03-2.54,10.1-5.61,1.06-3.07-4.33-7.07-4.57-10.36-.24-3.17,4.55-7.82,2.97-10.84-1.57-3.02-8.34-2.17-10.84-4.25M55.82,175.42c1.89,0,3.33-5.11,3.21-11.42-.12-6.31-1.36-11.42-2.78-11.42-1.41-.05-2.84,5-3.2,11.3-.37,6.29.88,11.48,2.78,11.54M66.69,163.61c.52,6.3,2.44,11.27,4.28,11.04,1.84-.19,2.58-5.48,1.68-11.72-.9-6.24-2.82-11.11-4.27-10.97-1.45.18-2.2,5.38-1.68,11.65M74.6,117.49c.09.92.22,2.08.56,3.6,2.94-.22,3.8-1.61,4.32-2.61.59-1.2.92-2.51.99-3.92.07-3.1-.98-5.66-3.04-7.4-2.05,1.66-2.29,2.79-2.54,3.99-.16,1-.32,2.08-.34,3.16-.05,1.03-.03,2.07.06,3.17M99.11,156.34c-2.15-5.92-5.04-10.33-6.45-9.85-1.42.46-1.08,5.72.76,11.75,1.85,6.04,4.74,10.48,6.47,9.92,1.72-.58,1.37-5.88-.79-11.82M94.02,122.34c2.78-.64,3.36-2.05,3.69-3.05.35-1.19.44-2.43.25-3.72-.5-2.84-1.98-4.93-4.29-6.02-1.68,1.95-1.73,3.06-1.77,4.08,0,.86.03,1.87.2,2.85.14.92.35,1.82.65,2.77.36,1.1.74,2.02,1.27,3.09M98.9,91.21c-.32-3.09-1.68-5.5-3.94-6.97-1.83,1.91-1.92,3.06-2.02,4.28-.04,1.02-.06,2.11.05,3.18.08,1.03.23,2.05.45,3.14.2.9.48,2.03,1.01,3.5,2.89-.58,3.57-2.07,3.96-3.13.43-1.26.6-2.6.49-4.01M88.88,62.49c-.18,1.41-.07,2.51.04,3.54.13.85.31,1.84.63,2.79.27.87.61,1.73,1.06,2.65.52,1.03,1.04,1.88,1.72,2.86,2.65-1.05,3.02-2.53,3.19-3.57.17-1.23.07-2.47-.31-3.72-.92-2.74-2.7-4.57-5.15-5.31-1.04-.31-1.18.76-1.18.76M87.12,134.14c0,.82,0,1.78.14,2.68.11.85.28,1.7.53,2.62.29,1.01.61,1.91,1.06,3.01,2.44-.17,3.29-1.2,3.88-2.71.42-1.15.56-2.42.4-3.68-.18-1.3-.62-2.45-1.28-3.41-.81-1.18-1.8-2-3.03-2.49-1.6,1.89-1.65,2.91-1.71,3.98M86.04,160.3c-1.56-6.11-3.99-10.76-5.45-10.44-1.45.35-1.63,5.57-.4,11.77,1.23,6.18,3.69,10.93,5.46,10.51,1.78-.4,1.94-5.71.38-11.83M84.01,86.78c-.31-3.09-1.68-5.5-3.94-6.97-1.83,1.9-1.92,3.05-2.02,4.28-.04,1.02-.06,2.11.05,3.18.08,1.03.23,2.05.46,3.14.2.9.48,2.03,1,3.5,2.89-.58,3.57-2.07,3.96-3.13.43-1.26.6-2.61.49-4.01M74.22,54.31c-.18,1.47-.07,2.62.06,3.83.15,1.01.33,2.09.63,3.12.27,1,.6,1.98,1.02,3.01.51,1.21,1,2.18,1.62,3.26,2.74-1.1,3.13-2.69,3.33-3.8.19-1.32.11-2.67-.25-4.03-.87-2.98-2.65-5.1-5.14-6.13-1.12-.46-1.27.74-1.27.74M73.29,136.74c.07-3.11-.98-5.66-3.04-7.4-2.05,1.66-2.29,2.78-2.54,3.99-.16,1-.32,2.08-.35,3.16-.05,1.02-.03,2.06.06,3.18.09.93.22,2.08.56,3.6,2.94-.22,3.8-1.61,4.32-2.61.59-1.2.92-2.51.99-3.92M65.56,69.73c0,.86.04,1.87.22,2.85.14.92.36,1.82.67,2.77.37,1.09.75,2.02,1.29,3.08,2.77-.65,3.35-2.07,3.67-3.07.34-1.17.42-2.45.23-3.72-.51-2.84-2.01-4.91-4.33-5.99-1.66,1.95-1.71,3.06-1.74,4.09M63.15,94.55c.04.93.12,2.08.39,3.62,2.94-.07,3.87-1.43,4.44-2.4.64-1.17,1.03-2.46,1.17-3.87.22-3.1-.71-5.7-2.69-7.54-2.13,1.56-2.42,2.67-2.73,3.87-.21.99-.42,2.06-.5,3.14-.1,1.03-.13,2.06-.09,3.17M47.74,27.77c.74-2.18,1.46-4.11,2.24-5.97.8-1.86,1.71-3.66,2.73-5.4,1.03-1.76,2.12-3.34,3.49-4.79,1.35-1.44,2.88-2.78,4.57-3.86-2.33-.01-4.22,1.11-5.84,2.55-1.62,1.43-2.97,3.25-3.97,5.1-1.04,1.85-1.9,3.82-2.51,5.86-.61,2.04-.99,4.15-.9,6.29,0,.1.08.2.18.22M56.84,57.05c4.45-2.66,5.68-8.91,5.68-8.91-10.36-2.87-14.2,6.42-14.73,8.54,0,0,4.56,3.04,9.04.36M50.4,120.36c3.3.13,4.6-.51,5.45-1.01,1.14-.7,2.12-1.62,2.94-2.77,1.73-2.58,2.21-5.3,1.41-7.88-2.62.3-3.43,1.12-4.29,2-.68.76-1.39,1.59-1.99,2.48-.6.84-1.14,1.73-1.66,2.71-.42.82-.93,1.87-1.46,3.34l-.41,1.12ZM10.84,161.79c1.68,1.14,5.72-2.32,9-7.71,3.29-5.38,5.1-10.34,4.03-11.05-1.1-.67-5.01,2.63-8.93,7.61-3.88,4.94-5.81,10.05-4.1,11.15M10.39,191.35c.04-1.61.15-2.91.26-4.21l.46-4.92c.09-.93.18-1.88.23-2.88.08-1.67.14-3.01-.05-4.6-2.79.3-3.87,1.57-4.78,3.25-.8,1.58-1.27,3.19-1.41,4.78-.16,1.8.04,3.51.6,5.1.77,2.05,1.86,3.45,3.32,4.27,1.34.75,1.37-.78,1.37-.78M18.12,224.44c-.73-3.06-.96-4.36-1.18-5.63l-.81-4.89c-.15-.92-.3-1.86-.51-2.82-.35-1.64-.63-2.95-1.22-4.44-2.62,1-3.35,2.5-3.8,4.35-.37,1.73-.42,3.41-.15,4.98.31,1.79.93,3.39,1.88,4.78,1.27,1.79,2.67,2.86,4.3,3.29l1.48.39ZM25.99,189.87c.06-1.29.12-2.63-.07-4.21-2.79.3-3.87,1.57-4.78,3.25-.8,1.59-1.27,3.2-1.4,4.78-.16,1.78.05,3.54.6,5.1.77,2.05,1.86,3.45,3.32,4.27,1.41-2.39,1.52-3.7,1.63-4.99l.46-4.96c.09-.92.18-1.86.23-2.84l.02-.4ZM32.15,159.94c2.02-5.95,2.68-11.17,1.47-11.67-1.23-.45-4.34,3.71-7.02,9.42-2.68,5.71-3.39,11.06-1.51,11.77,1.86.75,5.02-3.53,7.06-9.52M36.29,247.98c-.85-3.03-1.13-4.31-1.41-5.58l-1.01-4.86c-.19-.91-.38-1.84-.62-2.8-.42-1.63-.75-2.93-1.4-4.38-2.58,1.11-3.24,2.63-3.61,4.51-.3,1.75-.28,3.42.06,4.98.37,1.75,1.08,3.37,2.07,4.7,1.34,1.73,2.79,2.75,4.42,3.11l1.5.33ZM38.5,226.05c-.42-3.12-.52-4.43-.62-5.72l-.33-4.97c-.06-.92-.12-1.86-.23-2.84-.19-1.67-.34-3-.78-4.54-2.7.74-3.58,2.16-4.2,3.96-.54,1.69-.75,3.35-.63,4.94.12,1.78.61,3.48,1.4,4.94,1.09,1.9,2.38,3.11,3.95,3.69l1.44.53ZM38.52,126.27c-2.64-.12-3.57.57-4.55,1.3-.8.64-1.63,1.35-2.36,2.14-.72.74-1.39,1.52-2.06,2.41-.55.75-1.21,1.69-1.97,3.06,2.96,1.52,3.88,1.33,4.96.92,1.23-.51,2.35-1.27,3.34-2.27,2.11-2.27,3.03-4.88,2.64-7.55M45.13,189.89c.06-1.3.13-2.64-.07-4.23-2.79.3-3.87,1.57-4.78,3.25-.8,1.58-1.27,3.19-1.41,4.78-.16,1.78.05,3.54.6,5.1.77,2.05,1.86,3.45,3.32,4.27,1.41-2.39,1.52-3.7,1.63-4.99l.46-4.92c.09-.93.18-1.88.23-2.88l.02-.37ZM44.54,151.42c-1.33-.27-3.58,4.52-5.02,10.64-1.45,6.16-1.06,11.43.86,11.81,1.92.41,4.17-4.52,5.03-10.74.87-6.27.44-11.42-.88-11.71M47.87,143.79c1.73-.55,2.82-1.78,3.5-2.67.78-1.08,1.33-2.32,1.64-3.69.6-3.05,0-5.75-1.74-7.81-2.3,1.29-2.73,2.36-3.18,3.5-.33.96-.67,2.01-.88,3.06-.22,1.01-.38,2.04-.48,3.14-.07.92-.13,2.08-.06,3.64.06,1.19,1.2.83,1.2.83M56.13,245.54c-.83-3.02-1.1-4.3-1.38-5.59l-.97-4.82c-.18-.93-.37-1.87-.61-2.84-.41-1.63-.73-2.93-1.37-4.39-2.58,1.09-3.26,2.61-3.64,4.48-.31,1.75-.3,3.42.03,4.98.37,1.78,1.05,3.35,2.04,4.71,1.33,1.74,2.77,2.77,4.41,3.13l1.5.33ZM71.72,248.45c3.51-4.85,5.46-9.53,4.35-10.47-1.08-.96-5.12,2.11-9.04,6.83-3.93,4.74-5.9,9.46-4.4,10.53,1.51,1.04,5.58-2.06,9.09-6.9M85.89,245.36c-1.21-.84-4.74,2.46-7.9,7.37-3.15,4.91-4.43,9.61-2.85,10.49.78.44,2.1-.2,3.53-1.55,1.44-1.35,3.01-3.42,4.41-5.89,2.79-4.95,4.03-9.59,2.81-10.42M96.56,251.63c-1.3-.71-4.33,2.73-6.77,7.69-2.44,4.96-3.07,9.55-1.42,10.25,1.68.64,4.74-2.85,6.81-7.8,2.08-4.95,2.69-9.49,1.37-10.15M107.93,256.6c-1.38-.54-3.91,3-5.66,7.92-1.75,4.92-1.76,9.3-.03,9.79,1.72.51,4.29-3.14,5.68-7.99,1.4-4.87,1.38-9.15,0-9.72M109.69,246.87c2.92-1.38,5.32-4.69,6.27-6.92-1.3.96-2.83,1.94-4.37,2.66-4.11,1.94-5.97-2.01-1.87-3.95,1.54-.73,3.26-1.29,4.83-1.68-2.33-.69-6.41-.93-9.33.45-4.11,1.94.36,11.39,4.46,9.45M119.82,260.22c-1.45-.3-3.47,3.17-4.54,7.98-1.07,4.77-.52,8.98,1.26,9.18,1.78.24,3.82-3.38,4.56-8.07.74-4.69.17-8.76-1.28-9.1M123.64,250.18c.27-3.22-1.4-6.96-2.86-8.89.18,1.61.26,3.42.12,5.11-.37,4.53-4.73,4.17-4.35-.36.14-1.69.51-3.47.96-5.03-1.76,1.67-4.01,5.08-4.28,8.3-.37,4.53,10.04,5.38,10.41.86M134.55,270.69c.15-4.42-.94-8.17-2.43-8.35-1.49-.18-3.05,3.39-3.49,7.96-.45,4.57.64,8.32,2.43,8.36,1.78.04,3.35-3.52,3.49-7.97M133.48,239.75c-2.65-1.84-6.72-2.27-9.13-1.97,1.48.65,3.09,1.49,4.49,2.45,3.73,2.59,1.25,6.17-2.49,3.59-1.4-.97-2.75-2.18-3.87-3.34.57,2.36,2.39,6.02,5.05,7.86,3.73,2.59,9.68-6,5.95-8.59M129.37,226.02c-2.92,1.38-5.32,4.69-6.27,6.92,1.3-.96,2.83-1.94,4.37-2.66,4.11-1.94,5.97,2.01,1.86,3.95-1.54.73-3.26,1.29-4.83,1.68,2.32.69,6.41.94,9.33-.44,4.11-1.94-.36-11.39-4.46-9.45M142.15,213.06c3.38-3.14,5.19-6.82,4.05-8.2-1.14-1.39-4.93.18-8.45,3.49-3.52,3.31-5.33,6.98-4.04,8.2,1.29,1.22,5.07-.34,8.45-3.49M148.07,270.36c-.36-4.09-1.88-7.38-3.39-7.41-1.51-.01-2.64,3.46-2.53,7.74.11,4.28,1.63,7.63,3.4,7.46,1.77-.14,2.89-3.66,2.53-7.79M161.45,268.45c-.77-3.71-2.62-6.58-4.14-6.42-1.52.17-2.28,3.5-1.7,7.43.57,3.93,2.43,6.83,4.15,6.46,1.72-.35,2.47-3.71,1.7-7.47M164.24,252.2c.31-1.16-1.78-2.5-1.95-3.71-.17-1.16,1.48-3,.82-4.08-.66-1.08-3.13-.59-4.11-1.3-1.01-.73-1.21-3.14-2.42-3.44-1.21-.3-2.6,1.71-3.86,1.87-1.21.16-3.12-1.42-4.24-.79-1.12.63-.61,3.01-1.35,3.95-.76.97-3.27,1.16-3.59,2.32-.31,1.16,1.78,2.5,1.95,3.71.17,1.16-1.48,3-.83,4.08.66,1.08,3.13.59,4.11,1.3,1.01.73,1.21,3.14,2.42,3.44,1.21.3,2.6-1.71,3.86-1.87,1.21-.16,3.12,1.42,4.24.79,1.12-.63.61-3.01,1.35-3.95.76-.97,3.27-1.16,3.59-2.32M165.33,225.39c-1.26-1.02-4.24.56-6.76,3.68-2.5,3.1-3.29,6.57-1.65,7.62,1.61,1.08,4.68-.63,6.82-3.76,2.12-3.11,2.82-6.47,1.59-7.53M174.54,265.06c-1.07-3.34-3.16-5.76-4.66-5.41-1.5.35-1.96,3.51-1.04,7.06.93,3.55,3.02,5.97,4.66,5.41,1.64-.56,2.1-3.72,1.04-7.06M176.39,233.12c-.71-.36-1.65-.16-2.67.6-1.01.74-2.1,1.99-2.96,3.55-1.74,3.11-1.74,6.37.08,7.13,1.84.74,4.38-1.16,5.69-4.27,1.31-3.09,1.24-6.24-.15-7.01M187.21,260.32c-1.26-2.94-3.48-4.89-4.95-4.36-1.46.56-1.71,3.47-.54,6.6,1.18,3.16,3.43,5.17,4.97,4.41,1.55-.74,1.78-3.72.52-6.65M188.53,238.18c-1.48-.47-3.36,1.62-4.21,4.67-.85,3.04.07,5.81,2.06,6.17,2.04.21,3.94-2,4.26-4.93.32-2.92-.63-5.58-2.11-5.91M199.41,254.49c-1.37-2.56-3.6-4-5.07-3.42-1.45.62-1.55,3.34-.23,6.09,1.32,2.74,3.61,4.3,5.1,3.49,1.51-.79,1.55-3.62.19-6.16M158.44,249.3c1.71-1.61,1.97-3.37,1.97-3.37,0,0-1.73-.64-3.53.37.03-2.3-1.09-3.72-1.09-3.72,0,0-1.7.72-2.22,2.66.87.44,1.21,1.58,1.77,1.88.56.3,1.75,0,2.06.49.32.51-.55,1.37-.54,1.97,0,.58.9,1.42.58,1.96,2.28.98,3.76-.09,3.76-.09,0,0-.75-1.63-2.77-2.14M336.28,226.83c-15.08-10.43-9.03-18.68-9.01-18.71-13.53-1.01-9.7-14.28-9.7-14.28-16.5-1.7-11.84-14.32-11.77-14.49-17.4,1.58-18.19-13-18.2-13.3-12.53,5.36-19.22-5.49-19.22-5.49-6.85,5.55-16.31,2.3-18.85,1.27-9.01,2.09-17.66,6.26-25.42,12.26,9.87-5.06,22.96-8.4,40.28-6.84,23.96,2.16,38.47,23.38,44.9,42.89,6.29,19.04,4.89,36.4,4.82,37.22-13.28-10.5-6.57-18.3-6.57-18.3-11.9-2.19-8.03-15.53-8.03-15.53-13.17,1.39-15.13-10.99-15.13-10.99-13.39,2.07-13.38-11.58-13.38-11.58-12.37,8.1-18.43-4.19-18.43-4.19-4.27-.3-8.24-.21-11.94.15,2.88,1.16,5.88,2.51,9.06,4.12,60,30.5,36.67,87.98,36.66,88-12.4-13.73-4.02-18.67-3.99-18.69-13.41-5.31-5.89-15.2-5.89-15.2-16.12-6.82-8.15-15.83-7.94-16.06-16.72-1.96-14.8-16.89-14.77-17.17-4.95.11-8.64-1.05-11.38-2.62,20.85,31.22-7.41,84.17-7.41,84.17-7.27-16.32-.41-18.97-.41-18.97-8.92-8.22,1.61-13.99,1.61-13.99-11.48-7.7-.98-18.3-.98-18.3-12.31-4.93-5.41-16.79-5.41-16.79-4.11-.53-6.97-2.19-8.95-4.16-.75-3.33-1.84-6.59-3.4-9.6-1.9-3.72-4.45-7.11-7.6-9.7,4.27,6.93,6.23,14.56,6.57,22.2.19,3.82-.04,7.64-.54,11.42-.33,2.28-.86,4.44-.97,6.76-2.78-.96-5.51-1.93-8.21-3-5.65-2.22-11.15-4.81-16.44-7.77-10.61-5.89-20.44-13.21-29.25-21.64-7.79-7.49-15.32-15.49-23.59-22.7,17.57,6.57,37.15,5.43,57.61-1.86,2.89-27.46,14.01-74.45,55.64-93.35,53.66-24.36,71.89,27.74,71.89,27.74,0,0-11.07-.62-16.49-9.5,0,0-11.68,4.81-19.41-5.28,0,0-9.49,9.32-20.81.64-.11.19-4.25,8.58-21.68,8.67-5.61,3.41-11.3,7.81-16.99,13.49-7.78,7.76-13.21,18.57-17.55,31.78,11.65-22.11,29.35-43.49,55.78-45.79,53.23-4.63,70.17,29.89,72.99,52.25-15.06-2.63-15.22-16.3-15.22-16.3,0,0-7.14,1.93-12.05-2.8-4.64-4.47-5.1-9.77-5.1-9.77,0,0-4.96,2.86-11.91.64-7.86-2.51-9.55-8.62-9.55-8.62,0,0-2.15,4.99-10.73,5.5-7.73.46-10.89-3.4-10.97-3.49-3.28,7.13-12.22,7.68-16.79,7.46-12.5,7.49-22.38,18.11-30.12,29.23,15.97-16.68,38.69-30.31,68.51-24.69,62.52,11.78,51.85,83.67,51.85,83.67M232.55,136.27c.27.54.82.88,1.43.88,2.96-1.3,5.11-2.44,7.24-3.58,5.18-2.76,10.08-5.37,15.46-7.29,6.62-2.36,13.62-3.56,20.84-3.56.94,0,1.87.02,2.81.06,8.3.34,16.23,2.11,23.54,5.28,8.26,3.61,14.78,8.45,19.39,14.38,0,0,3.31,3.97,3.73,3.45.43-.52-2.23-4.52-2.23-4.52-2.48-3.88-5.34-7.13-8.48-9.65l-1.27-1.1-3.92-2.79c-1.48-.96-3.03-1.82-4.54-2.64-8.95-4.48-17.31-6.81-25.97-7.49-.73-.02-1.46-.05-2.19-.09-1.22-.05-2.45-.11-3.68-.11-.64,0-7.18.43-7.18.43l-6.4,1.12c-1.39.32-2.77.72-4.14,1.13-.71.21-1.41.42-2.17.63-9.38,3.07-16.8,7.67-22.06,13.68-.43.49-.52,1.19-.22,1.77M300.86,108c2.95.92,4.6-1.38,5.53-3.35,1.13-2.39,1.63-5.38.03-6.32-2.41-.2-3.97,2.17-4.81,4.2-.75,1.82-1.35,4.21-.75,5.47M292.26,104.13c3.33.75,4.95-3.75,5.25-4.65,1.01-3.01,1.23-6.32-.55-6.95-2.29-.09-3.74,2.87-4.45,5.4-.61,2.18-1,4.95-.26,6.19M283.6,102.74c3.29.61,4.44-4.6,4.65-5.65.49-2.46.76-6.75-1.38-7.22-2.19-.03-3.35,3.4-3.77,6.34-.34,2.39-.39,5.36.5,6.53M273.52,95.33c.02,1.64.24,6.99,2.47,6.99s2.66-5.25,2.75-6.86c.13-2.37-.13-5.33-1.25-6.54-3.6,1.15-3.99,4.07-3.97,6.41M263.97,96.73c.27,1.51,1.32,6.44,3.38,6.44,2.36-.36,1.97-5.59,1.8-7.18-.33-3.03-1.39-6.58-3.34-6.58-2.34,2.15-2.24,5.06-1.84,7.32M254.42,99.58c.35.92,2.17,5.48,4.15,5.48,1.93-1.99,1.47-4.86.8-7.14-.76-2.61-2.3-5.67-4.11-5.67-2.36.85-2,4.27-.85,7.32M244.11,98.15c-.38,1.54.56,3.87,1.56,5.55,1.18,1.96,3.09,4.26,4.6,4.26,1.83-2.29.96-4.83-.02-6.77-1.03-2.04-2.82-4.42-4.48-4.42-1.13.4-1.5.74-1.66,1.39M237.88,109.31c1.12,1.32,2.94,2.85,4.38,2.85,1.79-2.49,1.07-4.27-.31-6.12-1.11-1.49-2.82-3.08-4.31-3.08-2.46,1.78-1.42,4.4.23,6.34M285.99,248.07c-.71,0-1.46.07-2.23.2-1.94.33-4.28,1.1-5.03,2.28.19,2.83,2.94,3,4.1,3,.54,0,1.1-.03,1.68-.1,2.63-.31,5.42-1.48,5.36-3.33-.07-1.29-1.48-2.04-3.89-2.04M285.46,238.28c-1.14,0-2.54.23-3.95.65-2.17.64-4.72,1.79-5.38,3.08.22,2.03,1.25,2.46,2.99,2.46,1.11,0,2.41-.17,3.75-.5,3.08-.75,6-2.33,5.59-4.16-.15-.7-.79-1.54-3-1.54M283.23,228.61c-1.35,0-3.22.49-5.12,1.34-2.2.98-4.74,2.53-5.26,3.9.29,1.77,1,2.1,2.12,2.1,1.32,0,3.19-.43,5.14-1.17,2.35-.89,6.12-2.95,5.38-5.02-.2-.52-.75-1.15-2.26-1.15M279.12,219.35c-1.4,0-3.51.82-5.65,2.19-1.38.89-5.79,3.92-4.6,5.81.2.32.63.7,1.54.7,1.29,0,3.49-.77,5.74-2.02,2.07-1.15,4.44-2.95,4.87-4.54-.38-1.69-.87-2.14-1.9-2.14M267.55,213.99c-1.19,1.09-4.96,4.77-3.53,6.45,2.66.48,5.11-1.04,6.91-2.47,1.78-1.4,3.9-3.63,4.03-5.27-3.42-1.81-5.77-.21-7.41,1.29M260.39,207.61c-.66.87-3.87,5.29-2.2,6.7,2.4.37,4.63-1.58,6.24-3.4,1.49-1.68,3.03-4.06,2.88-5.68-3.35-1.55-5.55.56-6.92,2.37M251.44,209.2c2.65.24,4.89-3.33,5.33-4.05,1.05-1.75,2.02-4.15,1.57-5.65-3.33-1.27-5.12,1.1-6.14,3.12-.27.53-2.58,5.25-.76,6.58M243.9,205.02c2.48.12,3.9-3.16,4.29-4.17.65-1.67,1.08-3.91.37-5.19-3.18-.91-4.62,1.29-5.3,3.48-.76,2.42-.86,5.17.65,5.88M244.34,177.22c.02.86.74,1.57,1.66,1.57,2.07-.05,4.1-.09,6.12-.09,4.28,0,9.92.17,15.57,1.48,6.74,1.57,13.31,4.92,18.99,9.71,5.1,4.18,9.61,9.74,13.77,16.95.34.64.71,1.27,1.07,1.9.56.97,1.15,1.98,1.61,3l2.39,5.18c.61,1.2,1.06,2.46,1.54,3.8.5,1.39,2.5,6.73,2.5,6.73,0,0,1.39,4.57,2.06,4.57s-.3-5.12-.3-5.12c-1.68-6.82-3.77-14.69-7.5-21.85-4.12-8.16-8.64-14.37-13.81-19.01-.98-.87-2.01-1.69-3.04-2.5-.52-.41-1.04-.82-1.6-1.27-1.07-.77-2.19-1.46-3.32-2.16-.57-.35-1.13-.7-1.77-1.11-1.95-.99-3.72-1.82-5.49-2.58-.64-.21-1.28-.44-1.91-.67-1.22-.45-2.49-.91-3.79-1.19-2.19-.54-4.05-.99-5.88-1.17-1.99-.35-4.02-.38-6.12-.38-4.68.2-8.56,1.09-11.85,2.73-.55.28-.9.86-.89,1.48M222.57,198.41c-2.22,1.18-2.14,2.19-1.48,2.77,5.51,4.84,10.34,9.32,13.79,15.23,3.11,5.55,5.13,12.17,6,19.69.82,6.99.82,14.15,0,21.33-.19,2.58-.57,5.2-.93,7.74-.14,1-.28,1.99-.41,2.97-.31,1.94-.68,3.88-1.05,5.81-.31,1.64-.63,3.28-.91,4.93,0,0-1,3.67-.35,3.83.64.15,2.14-3.4,2.14-3.4,1.95-6.26,4.11-13.7,5.3-21.4,1.34-7.83,1.77-15.33,1.27-22.3-.62-8.34-2.64-15.74-6.03-22.05-1.93-3.3-4.13-6.71-7.13-9.32-3.2-2.87-6.63-4.83-10.22-5.84M256.7,152.39c-.41-2.78-1.66-5.59-3.53-5.59-2.36.59-2.78,3.74-2.21,6.58.53,2.65,1.92,5.51,3.71,5.51,2.3-1.87,2.33-4.47,2.03-6.5M267.97,151.59c-.01-3.43-.95-6.89-3.2-6.89-2.11.21-2.83,3.82-2.62,7.08.17,2.49,1,6.74,3.07,6.83,2.36-1.65,2.75-4.62,2.75-7.03M278.57,145.39c-.44-.56-.96-.7-1.42-.73-2.09,0-3.37,3.6-3.7,7.17-.07.75-.62,7.37,1.9,7.8,2.56.02,3.68-5.88,3.88-7.06.43-2.54.49-5.76-.65-7.19M290.93,148.18c-3.84-1.11-5.65,3.13-6.37,5.63-.35,1.22-1.99,7.35.24,8.32,2.67.1,4.86-5.38,5.28-6.48.95-2.49,1.66-5.76.85-7.48M300.13,160.79c1.4-2.23,2.87-5.49,2.39-7.34-3.7-1.38-6.04,1.76-7.43,4.45-.87,1.67-3.55,7.21-1.43,8.36,2.82.17,5.89-4.52,6.48-5.46M309,167.77c1.78-1.92,3.82-4.82,3.7-6.72-3.72-1.72-6.39.78-8.1,2.92-1.23,1.54-2.25,3.12-2.87,4.44-.3.64-1.22,2.6-.08,3.52,2.62.29,5.35-2,7.35-4.15M329.86,189.33c-1.29,0-3,.45-4.68,1.23-2.02.94-4.35,2.48-4.84,3.98.5,2.04,1.34,2.38,2.59,2.38s2.94-.37,4.56-1.02c2.92-1.16,5.53-3.33,4.9-5.19-.17-.52-.71-1.39-2.53-1.39M325.53,178.46c-1.49,0-3.67.83-5.85,2.23-2.15,1.38-4.56,3.42-4.89,5.02.56,1.74,1.15,1.99,1.98,1.99,1.43,0,3.7-.78,5.92-2.03,2.99-1.68,5.78-4.35,4.81-6.21-.19-.38-.7-1.01-1.97-1.01M319.19,168.32c-1.55,0-3.99,1.3-6.37,3.39-2.1,1.85-4.37,4.41-4.44,6.05,3.39,1.63,6.14-.01,8.14-1.55,3.05-2.35,5.54-5.49,4.22-7.22-.24-.3-.71-.67-1.55-.67"/>
      </g>
    </g>
  </g>
</svg>