<?xml version="1.0" encoding="UTF-8"?>
<svg id="Layer_1" data-name="Layer 1" xmlns="http://www.w3.org/2000/svg" xmlns:xlink="http://www.w3.org/1999/xlink" viewBox="0 0 469.89 553.56">
  <defs>
    <style>
      .cls-1 {
        fill: none;
      }

      .cls-2 {
        fill: #a53b28;
      }

      .cls-3 {
        fill: #1f3d3a;
      }

      .cls-4 {
        clip-path: url(#clippath-1);
      }

      .cls-5 {
        clip-path: url(#clippath-3);
      }

      .cls-6 {
        clip-path: url(#clippath-4);
      }

      .cls-7 {
        clip-path: url(#clippath-2);
      }

      .cls-8 {
        clip-path: url(#clippath-7);
      }

      .cls-9 {
        clip-path: url(#clippath-6);
      }

      .cls-10 {
        clip-path: url(#clippath-8);
      }

      .cls-11 {
        clip-path: url(#clippath-5);
      }

      .cls-12 {
        clip-path: url(#clippath);
      }
    </style>
    <clipPath id="clippath">
      <rect class="cls-1" width="469.89" height="553.56"/>
    </clipPath>
    <clipPath id="clippath-1">
      <rect class="cls-1" x="21.26" y="2.13" width="448.63" height="551.43"/>
    </clipPath>
    <clipPath id="clippath-2">
      <rect class="cls-1" width="469.89" height="553.56"/>
    </clipPath>
    <clipPath id="clippath-3">
      <rect class="cls-1" x="21.26" y="2.13" width="448.63" height="551.43"/>
    </clipPath>
    <clipPath id="clippath-4">
      <rect class="cls-1" width="469.89" height="553.56"/>
    </clipPath>
    <clipPath id="clippath-5">
      <rect class="cls-1" width="448.63" height="551.43"/>
    </clipPath>
    <clipPath id="clippath-6">
      <rect class="cls-1" width="469.89" height="553.56"/>
    </clipPath>
    <clipPath id="clippath-7">
      <rect class="cls-1" width="448.63" height="551.43"/>
    </clipPath>
    <clipPath id="clippath-8">
      <rect class="cls-1" width="469.89" height="553.56"/>
    </clipPath>
  </defs>
  <g id="Rowan">
    <g class="cls-12">
      <g class="cls-4">
        <path class="cls-3" d="M234.09,11.02c.75-.81,1.5-1.63,2.33-2.33,1.88-1.56,4.1-2.49,6.44-1.97,3.58.8,5.84,4.3,7.72,7.57,1.01-.1,2.07-.23,3.07-.13,3.56.33,6.62,3.31,8.9,6.25,2.81,3.66,4.05,6.97,3.78,11.9,5.42-2.13,10.96-3.4,16.48-5.1.28-1.16.58-2.33,1.03-3.42.83-2.05,2.35-3.65,4.2-4.4,3.23-1.29,7.37-.34,10.33,1.43,5.28,3.17,8.09,9.28,9.79,15.58-1.33,1.3-2.76,2.41-4.26,3.43-3.35,2.3-7.41,3.96-11.33,2.72-5.29-1.66-8.47-7.38-11.03-12.52-2.93.78-5.81,1.69-8.77,2.36.61.18,1.2.36,1.8.55,7.54,2.46,10.72,7.39,14.43,15.03,3.41-3.7,7.37-4,11.77-4.38.13-.15.27-.29.4-.44,1.56-1.68,3.28-2.69,5.46-2.54,4.84.33,8.22,5.06,11.2,8.89,1.22-.21,2.43-.36,3.65-.52,5.87,3.88,8.77,10.14,11.44,17.02,2.25-5.91,6.22-10.13,11.08-13.11,3.56,3.35,6.28,7.12,7.57,12.29,1.23,4.98,1.07,11.45-1.26,15.99-1.03,2-3.15,4.61-5.21,5.14-1.06.28-2.32.42-3.2,1.19l.04.41.16-.13c.47.86,3.66,2.07,4.61,2.69,2.59,1.69,4.47,4.1,6.28,6.76.01-.21.03-.41.04-.62.51-6.92,3.44-12.77,8.01-17.19.2.16.38.33.57.5,5.13,4.88,8.29,12.34,8.78,19.96,6.01-1.04,10.88-1.24,16.15,2.69-.61,2.47-1.47,4.87-2.72,7-3.17,5.45-7.51,7.46-12.9,8.65.75.65,1.49,1.35,2.19,2.07,2.62,2.69,5.6,7.8,5.7,11.93.03,1.11-.25,2.15-.96,2.93-1.7,1.89-4.95,1.34-7.13,1.27,4.34,2.12,9.32.18,12.76,4.58,1.78,2.31,2.69,5.36,2.47,8.43-.2,3.08-1.44,5.93-3.48,7.93-3.38,3.31-7.67,3.39-11.84,3,.43,2.51.88,5.11,1.66,7.51-3.03,2.15-6.55,3.66-9.29,6.25-3.16,2.96-4.8,7.51-7.62,10.83-1.98,2.33-4.4,4.27-6.56,6.37-1.91,1.84-3.61,3.91-5.32,5.99,3.47-.38,8.13-1.4,11.46.06,2.4-5.75,4.92-11.45,9.11-15.79,3.48-3.63,6.89-5.08,11.6-4.82.51-1.02,1.06-2.08,1.7-3,2.55-3.65,6.21-2.88,9.8-3.39,2.09-2.21,3.52-3.45,6.32-4.25-1.43-4.45-1.98-8.84-1.94-13.58,6.73-2.2,14.37-2.57,20.71,1.38,4.41,2.75,6.42,6.99,7.78,12.33-3.11,3.32-6.55,5.21-10.61,6.5,2.21.08,4.68.31,6.69,1.42,2.55,1.4,3.68,3.96,4.54,6.89,1.61.24,3.25.57,4.77,1.32,3.65,1.81,5.28,5.19,6.72,9.2,1.2.9,2.11,2,2.96,3.32,2.57-3.53,5.35-5.49,9.07-7.1.68,1.21,1.26,2.44,1.81,3.73,2.73,6.41,3.52,13.27,1.51,20.09,1.66.7,3.07,1.47,4.23,3.08,2.26,3.18,2.05,7.62,1.66,11.45,5.98.23,10.37,2.13,14.78,6.86-3.39,5.76-6.82,8.99-12.48,11.38.57,2.49,1.16,5.28.01,7.68-1.3,2.7-4.14,3.48-6.51,4.33.4.93.81,1.84,1.22,2.75.68-.02,1.37-.03,2.05-.05,7.57-.21,12.31,2.23,17.75,8.21-4.23,5.42-8.69,10.75-14.67,13.53-2.69,1.24-5.74,2-8.49.57-3.83-2.02-2.89-3.78-4-7.49-.95-.36-2.72.34-3.76.44-1.8.15-3.76-.16-5.57-.24l.14.75.38-.54c3.56,1.02,6.73,2.41,9.34,5.49,4.37,5.14,4.67,11.4,4.58,18.25-10.04.23-14.51-1.66-21.83-9.57-3.73,1.01-7.4,2.36-11.13,3.44,5.11,1.51,9.36,3.21,12.84,7.98,5.29,7.26,5.28,15.91,4.54,24.83-7.55-.8-16.62-4.18-22.59-9.72-2.89-2.69-5.09-6.28-5.4-10.65-.31-4.36,1.34-7.77,3.73-10.94-13.06,3.21-23.43,13.08-35.66,18.63-5.62,2.56-11.34,3.97-17.3,4.92-3.45.55-7.04.9-10.4,1.97-5.25,1.68-10.51,5.8-15.29,8.79-3.85,2.41-7.79,4.61-11.66,6.98-1.4.86-3.1,1.89-4.27,3.13-2.12,2.25-3.82,5.49-5.52,8.17-2.36,3.73-4.89,7.38-7.71,10.68-4.31,5.06-9.65,8.69-14.7,12.67-12.32,9.72-19.48,21.77-23.71,38.05l-4.14,16.28c-1.95,7.6-20.98,1.12-22.11-10.08-1.64-16.15-10.83-29-22.6-37.3-5.09-3.6-10.91-6.77-15.35-11.41-5.3-5.54-5.8-11.76-11.32-16.69-4.79-4.3-10.01-7.91-15.09-11.74-3.58-2.69-7.18-5.86-11.07-7.91-2.42-1.27-4.8-1.89-7.41-2.33-7.53-1.25-15.26-1.22-22.66-3.44-7.78-2.33-14.82-7.57-23.1-6.35,0,4.27-.82,8.17-3.11,11.58-5.93,8.81-16.8,11.17-25.83,12.44-.49-2.65-.72-5.47-.74-8.19-.06-6.94,1.99-13.5,6.31-18.45,3.04-3.5,7.27-5.96,11.64-5.85,4.51.11,7.45,2.67,10.41,6.27,2.45-.07,4.89-.2,7.34-.41-3.03-2.78-6.14-5.63-9.6-7.67-9.27-5.47-21.4-5.55-31.64-5.19-.47,1.17-.92,2.38-1.54,3.45-4.34,7.43-13.56,10.52-20.78,12.02-.35-3.4-.91-6.63-.01-10,1.46-5.55,5.46-11.41,9.97-14.08,2.06-1.22,4.5-1.79,6.75-.9,2.73,1.09,4.07,3.71,5.25,6.51,3.06-.05,6.21.34,9.28.52,3.25.18,6.59.15,9.82.59-4.27-2.91-8.4-6.11-12.34-9.59-1.47,1.04-3.11,1.73-4.82,1.99-3.55.52-5.9-.83-8.57-3.27-.67.38-1.43.68-2.15.88-2.18.57-4.2-.91-5.94-2.21-.76,4.1-1.8,8.03-4.43,11.09-2.09,2.44-4.65,3.5-7.61,3.53-8.53.1-17.68-5.75-23.64-12.46,1.12-1.45,2.25-2.87,3.51-4.15,5.3-5.42,13.01-9.87,20.28-9.2,3.66.34,6.08,2.31,8.4,5.41-.34-2.72-.48-4.36.59-6.92-3.04.16-6.08.31-8.84-1.48-1.29-.85-2.39-2.12-2.72-3.83-.44-2.26.38-4.01,1.4-5.83-2.63.37-5.38.83-7.89-.42-1.94-.98-3.44-2.72-4.13-5.05-.76-2.52-.47-5.47.64-7.8,1.43-3.06,3.76-4.62,6.58-5.52-1.03-3.18-1.56-6.64-.49-9.9,1.14-3.48,3.62-5.11,6.44-6.5-2.7-2.12-4.67-4.9-5.33-8.66-.96-5.5,1.12-10.96,3.76-15.4,1.26.5,2.53,1.01,3.73,1.68,5.43,3.06,7.52,7.46,9.41,13.79l.47-2.93c-1.33-3.08-1.99-6.43-1.57-9.87.52-4.2,2.55-7.91,5.47-10.45,3.52-3.06,7.37-3.79,11.64-3.13.48-.37.96-.72,1.47-1.02,3.63-2.23,7.54-1.24,11.25.13,1.06-1.73,2.01-3.55,3.04-5.29,2.4-4.05,5.6-7.85,10.01-8.66,3.45-.65,5.93,1.03,8.63,3.18.09-.03.16-.07.24-.1,1.75-.81,3.55-.7,5.4-.62-3.45-1.34-5.36-3.35-8.03-6.02-2.93-.26-5.23-.57-7.94-1.97-1.87.49-3.82.65-5.71.93.11.86.18,1.73.1,2.59-.4,4.14-2.47,8.03-5.32,10.53-3.57,3.16-7.81,3.78-12.14,3.09-2.25-.36-5.12-1.07-6.51-3.34-.68-1.11-.82-2.43-.59-3.75.66-3.99,3.76-8.06,6.62-10.29,3.52-2.74,8.8-5,13.08-3.89,2.33.6,3.37,2.57,4.51,4.75,1.29-.7,2.62-1.32,3.92-1.97-1.92-2.46-3.37-5.32-3.32-8.73.04-4.05,1.99-6.82,4.4-9.51-1.2-3.08-2.14-6.45-1.95-9.85.26-4.66,2.35-7.78,5.21-10.79-1.57-.46-3.14-.99-4.6-1.82-4.68-2.69-7.53-7.64-9.18-13.22.59-.75,1.2-1.5,1.84-2.18,4.47-4.79,8.8-6.02,14.77-5.75-.06-2.52-.1-5.03.37-7.51.99-5.24,3.75-8.91,7.6-11.74,2.25.98,4.07,2.15,5.69,4.27,2.76,3.6,3.99,8.76,3.71,13.5-.25,4.07-1.74,8.17-4.43,10.86l1.75,2.04c.82-2.54,1.84-4.48,3.27-6.63-.1-1.19-.17-2.38-.1-3.57.3-5.06,3.92-8.06,6.96-11.14l2.73.72,1.6-3.16c-3.34-1.11-6.21-2.52-8.57-5.57-2.59-3.37-3.71-7.64-3.49-12.08.25-5.32,2.57-11.33,6.02-14.93,4.8,1.66,8.53,4.51,12.21,8.35,1.92-2.67,3.99-4.33,6.71-5.81.58-2.36,1.16-4.57,2.33-6.66,2.04-3.66,5.32-5.96,9.04-6.5,1.19-.16,2.56-.1,3.71-.5,1.92-.68,3.42-2.41,5.46-2.85,3.23-.7,6.05,2.04,8.56,4.01.17-.52-.03-1.14-.11-1.69-.28.02-.11.05-.45-.26.08-.21.27-.7.3-.91.14-.88-.66-.94-1.23-1.04-5.53-1.06-10.27-1.89-14.26-6.92-.04-1.58-.06-3.13.14-4.71.69-5.44,3.82-10.32,7.67-13.45,5.25-4.27,14.41-6.84,20.74-5.36,1.23.29,2.39.88,3.05,2.17,1.3,2.51.28,8.11-.21,10.84-.28,1.22-.52,2.41-.65,3.68.55-.63.79-1.76,1.06-2.59.2-.28.38-.55.61-.8,2.73-3.03,6.11-2.9,9.65-2.85.07-.28.14-.55.21-.83.9-3.45,2.35-5.81,5.21-7.49,4.16-2.46,8.54-2.21,12.91-.68.78-2.35,1.75-4.46,3.35-6.2,3.59-3.92,8.49-4.44,13.2-4.3M255.08,386.7l3.76-6.69c8.18-13.29,17.81-17.86,29.04-26.12,3.14-2.3,6.11-5.02,8.6-8.21,10.11-12.91,17.17-30.09,22.29-46.29,1.67-5.28,3.41-10.88,3.85-16.49.4-5.18-.75-10.8-1.26-15.96-.48-5.29-.61-10.63-.38-15.94-3.15-1.43-5.93-3.39-7.28-7.16-.54-1.48-1.03-8.09-1.66-8.52-7.54,7.62-14.17,16.2-19.34,26.15-3.89,7.51-5.73,16.09-8.37,24.21-3.3,10.24-7.26,20.19-11.84,29.75-2.38,4.93-4.91,9.77-7.57,14.51-4.75,8.47-10.71,16.62-11.33,27.08-.35,5.98.37,12.16.79,18.12.25,3.86.35,7.73.69,11.56M235.43,379.17l3.21,3.39c.01-18.66-2.02-37.19-9.05-54.2-2.19-5.31-4.87-10.31-7.55-15.31-3.39-6.32-6.52-12.5-11.12-17.78-3.25-3.75-6.73-7.23-9.97-10.97-3.68-4.25-6.92-8.74-10.07-13.5-1.81-2.74-8.63-15.26-9.72-16.23-4.36,7.51-6.46,21.83-6.45,30.64,0,3.27.4,6.54.95,9.74.83,4.93,2.11,9.77,3.79,14.41,2.26,6.12,5.54,11.64,8.32,17.45,3.88,8.12,7.07,16.92,11.95,24.34,1.78,2.72,3.86,4.9,6.34,6.77,3.1,2.35,6.53,4.12,9.86,6.04,7,4.02,14,8.73,19.52,15.21M197.74,214.24c-1.49,8.52-3.62,19.03-1.27,27.5,1.22,4.4,3.28,8.45,5.21,12.47,2.53,5.31,5.02,10.65,7.94,15.7,5.16,8.91,10.69,18.07,16.65,26.3,1.37,2.08,2.8,4.15,4.3,6.11,1.33-5.47,2.8-10.81,4.85-16.01,2.94-7.49,9.24-19.02,10.08-26.83.31-2.93-.48-5.57-1.73-8.09-1.81-3.66-4.39-6.92-6.72-10.18-2.82-3.96-5.57-7.98-8.04-12.25-2.8-4.88-5.47-10.01-7.62-15.32-1.01-2.46-1.59-5.42-2.76-7.73-2.35,4.69-5.11,8.84-9.87,10.35-3.79,1.22-7.61.02-11.02-2.02M247.02,334.91c5.43-5.06,16.73-22.36,19.83-29.73,1.23-2.9,2.01-6.02,2.28-9.23.28-3.27.14-6.61-.13-9.88-.57-6.63-4.17-34.49-6.83-39.08-.06-.1-.14-.18-.2-.28-8.12,11.2-23.75,48.11-22.62,62.23.47,5.85,2.98,11.3,4.84,16.69,1.03,3.04,1.92,6.17,2.83,9.28M315.01,326.8c4.58-2.35,9.14-4.9,13.61-7.52,9.09-5.32,34.41-21.53,37.74-32.53.92-3.04.86-6.55,1.06-9.75-5.36.03-10.1-.05-15.04-2.78-1.47-.81-2.86-2.28-4.4-2.87-4.6,4.22-21.61,19.81-23.96,24.6-2.38,4.84-2.8,11.01-4.26,16.27-1.37,4.95-3.27,9.7-4.75,14.59M220.6,202.13c1.54,13.07,14.48,29.19,22.01,39,2.43,3.16,5.06,7.15,7.94,9.8.09.08.2.15.28.23,2.55-5.14,7.44-13.11,6.07-19.39-1.5-6.86-7.35-12.21-11.12-17.55-2.39-3.4-4.61-7.15-6.45-10.99-4.37-9.22-3.24-16.25-6.31-24.98-4.09,1.27-7.91,1.14-12.07.41-1.44-.26-2.97-.68-4.43-.72,6.73,4.19,8.33,7.38,10.53,15.83.4,1.53,1.02,4.07.23,5.5-1.22,2.21-4.61,2.59-6.68,2.87M152.9,322.23c-4.41-4-8.94-7.9-12.93-12.49-3.35-3.89-6.66-7.83-9.93-11.82-3.27-4-6.45-8.79-10.53-11.74-6.18-4.45-14.05-6.5-20.95-9-4.17-1.51-8.18-4.28-12.56-4.75.21,2.44,1.95,5.11,3.1,7.15,4.37,7.77,9.01,14.83,15.28,20.81,7.72,7.36,20.28,17.23,30,19.72,5.98,1.53,12.42,1.66,18.52,2.13M402.61,258.5c-6.22,6.11-13.64,10.44-19.65,16.77-5.33,5.6-9.31,12.59-14.26,18.59-5.77,7.02-12.56,12.93-18.88,19.25,1.05-.21,2.14-.38,3.14-.75,16.97-2.6,28.33-7.85,40.72-22.06,3.45-3.97,6.73-8.08,9.7-12.54,1.53-2.3,3.05-4.66,4.29-7.18-.78-1.58-2.16-3.96-1.68-5.83.27-1.07,1.2-1.61,2.04-1.97,2.52-1.08,4.89-1.61,7.17-3.42l.16-.6c-.34-.54-.59-.76-1.22-.86-.16-.03-.31,0-.47.02-4.02,1.03-6.99,1.21-11.06.59M140.94,291.19c.01,6.38-.01,11.92,4.24,16.74,2.45,2.77,5.42,4.9,8.27,7.05,6.38,4.77,13.03,9,19.68,13.27,3.61,2.31,7.47,4.49,10.82,7.26l3.24,2.7c-3.71-9.72-8.81-25.56-14.92-33.36-2.89-3.68-6.58-6.71-10.23-9.28-4.44-3.14-11.3-6.71-15.19-10-1.8,2.31-3.49,4.18-5.91,5.62M330.39,184.67l-2.53,1.74c-.38,4.8-.86,10.83.01,15.53l2.82-4.01c2.21-3.11,4.43-6.22,6.59-9.36-1.84-1.34-4.7-3.91-6.89-3.91M323.81,214.68c1.14-.98,2.35-1.92,3.41-3.01,2.66-2.59,3.31-5.16,5.49-7.78,2.04-2.46,4.48-4.38,6.72-6.58,2.14-2.1,4.07-4.51,6.03-6.81-1.91-.21-3.82-.63-5.73-.78-1.73,3.42-4.16,6.51-6.28,9.64-3.38,5.01-6.62,10.01-9.63,15.32M431.24,215.69c4.06,2.17,6.14,5.49,7.65,10.21.34,1.04.61,2.18,1.05,3.18.31-3.22.64-6.38.61-9.62l.27-.06c.28-.06.55-.16.82-.26-.09-.46,0-.5-.28-.7-.35-.24-.55-.21-.95-.26-2.86-.26-5.06-4.77-6.96-6.95-.72,1.5-1.4,3.03-2.21,4.48M191.7,212.35c-1.73-.55-3.1-1.24-4.54-2.52-.24,2.75,1.34,10.84,2.7,13.11l.24-.13.09-1.04c.45-3.16.91-6.29,1.51-9.41M369.63,245.45c1.05,1.79,2.08,3.6,3.1,5.42.45.72.88,1.64,1.61,1.97,1.59-2.88,2.57-14.34,1.92-17.73-.17-.9-.41-1.64-1.14-2.12-.1-.07-.21-.11-.31-.16-2.66,2.07-3.61,8.94-5.05,12.34l-.13.28ZM264.05,235.21c2.02-2.74,3.9-5.6,5.62-8.6.1-4.1.61-9.22-.82-13.07-1.53,2.91-6.13,16.79-5.64,19.78.11.67.54,1.32.85,1.89M118.81,281.4c-4.5-7.91-9.04-15.78-12.73-24.24-3.25.24-7.19.33-9.84-2.25-2.21-2.13-2.02-5.57-3.71-7.7-.79,1.14-1.57,2.3-2.39,3.42,2.26,1.55,4.24,3.4,4.99,6.46.75,3.13-.16,5.91-1.56,8.56-.11.21-.23.41-.34.6,6.82,5.89,14.27,11.2,22.5,14.07,1.03.41,2.04.78,3.07,1.07M328.95,258.09c3.06-3.45,6.08-6.95,9.05-10.49-1.36-2.39-1.92-5.08-3.11-7.52-.99,4.25-2.06,8.14-5.57,10.52-.81.55-1.64.93-2.53,1.27.17,1.74.17,5.36,1.26,6.55.57-.02.48,0,.9-.33M325.5,287.43c2.93-1.94,5.78-3.99,8.57-6.19,4.24-3.65,8.44-7.36,12.59-11.15-2.59-2.75-6.34-6.43-6.55-10.76-.07-1.29.21-2.51.98-3.45,1.53-1.89,4.12-2.18,6.21-2.49-2.79-1.04-5.36-2.44-8.09-3.65-3.68,4.17-7.62,8.01-11.27,12.21-.11,4.85-.28,9.71-.83,14.52-.42,3.68-1.13,7.29-1.6,10.96M275.31,280.18c.28,1.29.54,2.59.89,3.84,3.86-10.52,13.51-29.23,13.75-39.79.1-4.75-1.19-9.82-2.19-14.41-.86-3.89-1.49-8.42-2.91-12.06-.07-.18-.13-.39-.24-.52-6.44,7.69-12.12,16.14-18.44,23.95,4.07,12.65,6.73,25.81,9.15,39M138.68,203.38c.79,2.98,1.36,5.91,1.88,8.95.85-1.17,1.68-2.36,2.66-3.4.89-.81,1.77-1.66,2.69-2.44-2.42-.98-4.85-1.94-7.23-3.11M171.21,232.28c-1.57-1.35-3.31-2.88-5.11-3.76-4.1,5.99-1.24,8.99-8.44,13.4,2.02,3.68,4.14,8.47,3.18,12.96-.51,2.38-1.77,3.96-3.58,5.14l-.18.11c3.68,3.44,6.81,7.93,9.75,12.18l.57.42c1.06-1.43.61-6.68.58-8.56-3.44-2.75-5.63-6.06-6.35-10.89-.76-5.32.35-10.78,3.11-15.14,1.77-2.77,3.8-4.4,6.48-5.86M325.59,251.89l-3.48-.39c.11,4.74.48,19.72,2.76,23.12l.1-.38c1.02-6.71,1.22-15.53.62-22.35M402.11,245.36l-2.26,1.69c-2.49.21-3.78.42-5.47,2.75-1.88,2.59-6.55,13.3-6.99,16.66.61.05,1.2-.46,1.74-.78,4.19-2.72,8.16-5.67,12-9-1.74-3.17-2.09-5.16-1.42-8.91l2.48-2.08v-.28s-.07-.05-.07-.05ZM79.53,288.28c5.52,4.33,10.76,8.39,17.13,10.92.83.33,1.71.64,2.52,1.06-3.25-4.84-6.88-9.38-9.87-14.44-2.84-4.77-5.12-10.03-8.19-14.62-2.42-.33-4.68-.59-7.11-.23l-.45.33c.57.7,1.97.96,2.77,1.29,3.37,1.42,6.05,4.48,5.94,8.84-.07,2.77-1.22,4.84-2.73,6.86M117.75,181.4c2.86,2.03,5.46,3.97,7.03,7.55,2.42.28,4.92.39,7.31.93l1.19.11.03-.29c-1.54-1.86-3.01-3.57-4.1-5.81-3.56-.26-6.14-2.75-9.5-3.34l-1.95.85ZM321.63,177.23c1.26-1.76,2.43-3.58,3.34-5.62-2.33-.67-4.85-1.66-7.26-1.91.47,4.05.51,8.17,1.07,12.2.96-1.55,1.98-3.06,2.84-4.67M240.77,171.66c-2.97,4.85-4.03,10.29-3.17,16.14,1.73,11.64,8.66,21,15.16,29.65l.45.37c.37-.54.23-.81.16-1.48-.2-2.1-.71-4.18-.96-6.3-.5-4.05-.71-8.13-.89-12.2-4.27-3.58-9.9-7.93-10.88-14.39-.54-3.55.59-6.61,1.99-9.67-.62-.7-1.26-1.38-1.87-2.12M284.46,208.39c.23-4.27.86-14.82.16-18.64-4.58,6.22-10.36,11.22-12.93,19.03.65,3.96,1.3,7.93,1.78,11.92l.31.83.33.08c3.78-3.79,7.06-8.86,10.35-13.22M163.94,177.15l.85.55.27-.24c0-1.4-.49-2.74-.98-4.02-.65-1.73-5.93-13.48-6.92-14.62-.42,1.42-.41,2.41-.28,3.87-.48.28-.96.5-1.47.72l-.07.31c1.09,1.42,2.18,2.83,3.11,4.4,1.67,2.78,3.24,6.85,5.49,9.04M317.02,169.4c-.6-.96-1.17-1.82-1.91-2.65-4.3,10.73-9.87,20.29-16.2,29.57-2.91,4.3-6.34,8.34-8.78,13.01.03,5.63.57,11.25,1.61,16.76.64,3.37,1.5,6.74,2.01,10.13l.4.41c2.08-2.31,5.25-12.93,6.65-16.46,1.84-4.71,3.92-9.3,6.22-13.74,2.7-5.18,5.76-10.26,7.98-15.74,1.16-2.85,2.11-6.01,2.16-9.2.07-4.04-.51-7.99-.14-12.06M318.64,190.71c1.85-1.71,6.24-4.84,6.54-7.55.06-.49.06-.98.06-1.48.03-1.59.68-2.25,1.63-3.34-.3-1.07-.54-2.73-1.13-3.61-1.51,3.48-8.2,12.73-7.99,15.92l.3.24.61-.18ZM138.19,202.03c3.01,1.04,5.81,2.52,8.64,4.07,4.92-1.73,9.78-2.65,14.56.2,1.02.6,1.95,1.43,2.89,2.18-2.94-3.5-5.96-6.97-8.7-10.68-2.39-3.26-4.96-8.11-7.81-10.7-3.45,1.94-6.45,2.61-10.14,3.57-.66.18-2.09-.15-2.53.24l.23.07c7.91,2.1,15.76,4.61,20.99,12.28l-.23.49.35-.1-.25.02c-9.32-7.9-18.88-11.9-30.44-13.33l-.21.52c.37.98.83,1.47,1.7,1.84,3.82,1.66,7.72-.38,10.16,5.47.52,1.22.68,2.52.81,3.87M203.66,166.86c-.47,6.79-1.16,13.29-2.53,19.91,1.39-1.81,2.75-3.7,4.36-5.24,1.58-1.17,5.8-3.13,6.05-5.41.23-2.02-1.34-4.51-2.19-6.22-1.96-.9-3.79-1.94-5.69-3.04M332.09,168.75c-1.57.91-3.15,1.63-4.81,2.3.34,1.3.62,2.65,1.14,3.89,1.2-1.56,3.65-4.1,4.1-6.06l-.44-.13ZM426.07,279.32c1.2-1.63,2.74-2.77,4.24-3.99-1.94.8-3.59,1.74-5.33,3.01-3.82,2.85-7.36,6.11-10.82,9.48,3.69-.81,7.44-1.63,11.16-2.2-.13-2.35,0-4.07.75-6.3M354.62,118.6c-1.67.06-2.87-.02-4.12,1.45-.2.73-.3,1.11.03,1.82.41.88,1.51,1.94,2.33,2.23.07.03.16.03.23.05l.48-.54c1.89-3.09,3.89-5.85,6.24-8.5-1.24-1.53-2.47-3.48-3.88-4.77-.11,2.98-.51,5.45-1.32,8.26M53.75,229.3c.89,1.69,1.91,3.39,2.45,5.28.2.72.45,2.15.93,2.59l.04-.15c.2-4.14,1.43-7.07,3.46-10.4-2.05-1.22-3.05-2.31-3.76-4.87l-.09-.31c-.48,3.29-1.06,5.32-3.04,7.86M165.36,210.64c.64,6.74.64,10.29,4.38,15.79,1.67,2.46,3.58,4.66,5.7,6.59,1.74,1.61,9.67,8.53,11.16,8.38-2.55-5.4-6.05-9.44-9.79-13.73-1.24-1.43-2.63-2.87-3.73-4.44-2.66-3.81-4.33-9.62-7.72-12.6M205.16,145.48c0-1.6-.06-3.21.01-4.8-1.98-.49-3.97-.91-5.88-1.66.72,3.58,1.32,7.1,1.54,10.78.88-.86,1.8-1.69,2.65-2.61.57-.55,1.16-1.09,1.68-1.71M196.14,157.54l2.97,3.08c-.68-3.99.31-6.09.68-9.82.37-3.68-.42-11.09-2.73-13.82-1.19,5.62-2.63,9.49-6.71,13.14,1.68,2.69,3.79,5.01,5.79,7.42M289.16,154.56c.41-1.02.86-2.05,1.22-3.11.68-1.79,1.3-3.6,1.9-5.44-2.05-.5-4.02-1.22-6-1.94.82,3.47,1.51,7.25,2.89,10.49M146.04,92.2c-1.41-.18-2.77-.37-4.16-.8-.88,1.16-1.72,2.33-2.73,3.34,1.16.33,2.53.96,3.66.34,1.05-1.04,2.08-2,3.22-2.88M329.5,86.44c3.83-.47,6.34-.33,9.9,1.37l.81.24.16-.29c-1.26-2.52-4.65-2.33-6.56-3.99-1.73-1.48-2.01-4.02-3.41-5.7-1,1.22-1.56,2.28-1.47,4.01.06,1.47.35,2.95.58,4.36M326.73,85.87c-1.33-1.97-3-2.43-4.96-3.26l1.47,3.48,3.49-.23ZM182.21,46.69c-1.85,1.45-3.61,3.09-5.59,4.32.47,2.15,1,4.27,1.56,6.4l.42.29c1.46-.49,2.9-1.03,4.36-1.45-.76-3.34-.42-6.22-.75-9.56M311.66,153.9c2.32-3.55,2.8-8.47,2.25-12.8-.11-.85-.18-1.64-.68-2.31l-2.45,1.29c.06,4.62.35,9.25.88,13.82M311.32,165.28c-.89-1.87-1.46-3.5-1.73-5.63-.34-2.59.11-17.57-.96-18.33-.82.44-1.7.88-2.4,1.53-3.68,3.44-12.43,16.62-14.02,21.75-1.44,4.64-3.71,31.33-2.28,35.35.06.18.16.34.23.5.65-.15.96-.57,1.43-1.07,8.67-11.72,13.65-20.39,19.73-34.09M284.93,175.59c.06.7,0,1.27.37,1.86.59-1.37,2.08-12.13,1.97-13.74-.26-3.66-1.51-7.18-2.14-10.76-.52-2.95-.64-6.2-1.34-9.07-.28-1.16-3.62-3.66-4.65-4.93-.82-1.01-1.56-2.52-2.45-3.37-.48,8.83-1.99,13.14-5.53,20.91,2.45,2.8,4.85,5.78,7.53,8.3,1.29,1.22,3.82,2.75,4.71,4.32.98,1.71,1.24,4.48,1.54,6.5M139.37,301.09c-.2-3.13-.37-6.3-.4-9.44-2.26-.37-3.95-1.25-5.93-2.52.89,3.06,3.2,10.14,5.93,11.77.11.08.26.13.4.2M115.89,270.07c-1.03-4.85-2.04-9.72-3.55-14.41l-4.4.18c1.34,3.97,5.21,11.51,7.95,14.23M248.14,169.33l-7.31-.55v1.07c1.05.49,2.31.38,3.41.83.85.34,1.68,1.19,2.49,1.69l.2-.28,1.22-2.77ZM147.22,164.73l-.45.24c1.2.77,2.49,1.04,3.71,1.74,2.97,1.69,5.83,4.35,8.54,6.53l.28-.13c-1.29-3.03-3-5.68-4.87-8.27-2.4-.24-4.82-.37-7.21-.11M183.24,152.92c-1.58.08-3.42.38-4.96.15.88,1.73,1.78,3.37,2.83,4.98l.98-2.02,1.16-3.11ZM162.16,149.16c-1.16,2.02-2.57,3.81-3.75,5.8.91,2.08,1.91,4.09,2.96,6.09l1.16,2.1v-.5c-.06-2.28,1-11.74.16-12.96-.16-.24-.31-.34-.52-.52M293.56,156.81c2.25-2.7,7.77-9.1,9.1-12.03l-.21-.26c-1.95.72-3.9,1.42-5.86,2.08-.85,2.3-3.37,7.73-3.23,10.06l.2.15ZM183.61,226.26c-3.01-6.66-6.07-13.3-8.8-20.13-3-7.47-5.12-16.93-9.84-23.22-2.91-3.86-6.86-6.22-10.13-9.57.25,3.61-.28,6.89-2.33,9.75-.85,1.19-1.87,2.15-2.9,3.09,3.15,2.51,5.64,6.11,8.32,9.23,2.86,3.34,5.88,6.48,8.67,9.9,4.77,5.86,9.19,12.07,14.05,17.83l2.97,3.11ZM180.44,162.67c-1.98-2.65-3.78-5.41-5.04-8.63-1.89-.16-3.78-.36-5.67-.57.37,5.99-.32,10.11-3.13,15.18,2.74,11.87,7.5,22.55,12.02,33.59,1.51,3.7,2.8,7.8,4.72,11.22l.3.33c.58-3.91-4.14-21.79-5.76-26.02.65-1.68,1.27-3.22,1.5-5.05l.07-.52c.74-6.38-.18-12.65.98-19.52M114.3,120.86c.54,1.84,1.56,4.22.82,6.15-.33.86-.91,1.51-1.49,2.15,1.07.23,4.41,1.29,5.26.81l1.54-.11c-.69-1.99-4.57-7.7-6.14-9M91.95,268.25c-1.17,1.11-2.33,2.21-3.47,3.37,3.35,1.17,6.71,2.34,10,3.74l3.38,1.01c-3.37-2.64-6.62-5.39-9.92-8.12M169.32,264.49c.16,5.52.13,11.05,2.18,16.17l.61,1.25.28-.02c1-3.83,1.17-8.03,1.92-11.97.62-3.26,1.88-6.61,2.21-9.88l-.23-.31c-2.21,3.06-3.55,4.02-6.97,4.76M440.57,231.32c-.62,1.87-1.33,4.04-1.1,6.07l.27.06.31-.54c.14-.47.26-1.25.64-1.5.64-.42.91-.68,1.26-1.43-.07-.98-.76-2.02-1.37-2.67M373.42,257.75c-1.09-3.43-2.16-8.58-4.57-11.09-.55-.18-.9-.2-1.47-.13-2.05.67-7.31,1.53-8.42,3.65.58,1.84,3.92,5.32,5.13,7.26,1.56,2.46,2.74,5.08,3.83,7.85l1.51,3.91c1.71-3.6,3.05-7.44,3.97-11.45M391.68,249.82c.88-.85,1.8-1.61,2.43-2.7-.21-.37-.07-.29-.35-.36-.89.33-1.81.54-2.49,1.3-.16.75-.1.86.27,1.55.04.08.1.15.14.21M269.62,171.79l.48.5c1.44-.65,2.99-3.03,4.19-4.23-2.5-4.3-7.65-10.08-8.64-14.91-1.39,4.8-2.94,8.5-5.93,12.28,4.07.96,7.2,2.56,9.9,6.37M118.84,130.56c1.8,1.24,3.61,2.56,5.56,3.44-1.09-1.95-2.6-2.88-4.55-3.35-.35-.08-.67-.11-1-.08M266.24,139.76c-.14-3.65.21-7.77-.64-11.3l-.3-.18c-1.5.93-3,1.82-4.53,2.7,1.56,1.82,2.87,3.71,4,5.91l1.46,2.87ZM422.6,277.12c-5.32-.16-8.64-1.06-13.04-4.58-4.07,8.06-9.48,14.91-14.46,22.19,3.31-1.32,6.56-2.67,9.63-4.67,6.12-3.96,12.05-8.4,17.87-12.94M317.52,228.1c4.05-2.1,8.08-4.17,12.56-2.22,1,.44,1.9,1.09,2.74,1.84,1.09,2.18,1.77,4.67,2.53,7.03,1.65-2.46,3.39-4.15,5.6-5.94-4-1.77-7.52-3.73-9.35-8.56-.51-1.32-.83-4.23-1.87-5.01-4.51,3.79-8.67,7.91-12.22,12.86M201.15,166.22c-3.37-4.79-8.68-12.78-13.59-15.06-4.44,9.43-4.58,20.16-3.75,30.61,3.07-.94,6.32-1.71,9.25.21,1.6,1.06,2.75,2.8,3.69,4.59l.3.36c1.51-1.5,3.66-17.54,4.1-20.71M255.89,203.49c.89,6.82,2.63,12.99,4.58,19.47.72-1.35,1.27-2.74,1.82-4.18,1.46-3.65,2.97-7.26,3.92-11.12-3.59-1.08-6.94-2.46-10.33-4.17M299.13,240.88c5.33-5.23,10.96-10.58,15.35-16.92,2.56-3.68,4.69-7.78,6.96-11.69,2.02-3.48,4.2-6.04,4.51-10.45.11-1.56.45-14.17.33-14.91-3.69,3.71-7.5,7.39-10.79,11.59-6.42,8.22-10.72,19-13.68,29.42-1.06,3.73-2.49,8.03-2.7,11.93,0,.36,0,.68.03,1.03M268.5,125.5c-.78,6.69-1.61,19.72.57,25.82l1.36-3.18c2.08-5.32,2.79-10.65,3.59-16.36-1.77-2.17-3.45-4.49-5.52-6.29M134.17,252.67c-3.13,2.17-4.6,5.88-5.43,9.82-1.17,5.57-.65,10.7-.14,16.31.21-2.1.45-4.17.76-6.25,1.05-3.68,2.74-6.86,5.83-8.69,1.58-.95,3.2-1.32,4.95-1.63-1.87-1.94-3.68-3.68-4.58-6.48-.37-1.16-.31-2.72-1.39-3.08M179.82,241.22c.89,3.57,2.15,6.79,3.78,10,2.89,5.68,15.56,25.11,19.96,27.78.09.05.17.08.24.13-5.67-11.87-13.69-31.21-23.98-37.91M121.79,247.49c-1.94,3.6-3.71,5.67-7.06,7.47,1.74,9.22,2.59,17.8,7.81,25.51,1.73,2.54,3.75,4.85,5.6,7.28.86,1.22,1.71,2.52,2.67,3.63-6.63-13.92-6.35-23.41-2.89-38.48-2.11-1.61-4.03-3.94-6.14-5.42M147.31,284.01c6.83,3.27,13.1,8.03,19.85,11.41,2.12,1.53,4.26,3.04,6.27,4.77-1.98-13.07-4.5-21.35-11.78-31.83-1.92-2.77-3.89-5.57-6.35-7.73-2.25,2.75-4.68,3.83-7.79,4.77,2.06,3.55,2.74,7.07,2.04,11.3-.41,2.59-1.29,4.95-2.22,7.31M374.88,277.92c4.26-5.93,9.96-13.6,10.95-21.36.35-2.74.03-5.52-.2-8.26l-.06-.73c-2.84-1.66-5.05-3.4-7.07-6.29-.51-.73-.91-1.61-1.43-2.31-.81,5-.42,10.18-1.26,15.26-1.65,9.98-4.51,19.49-5.6,29.63,1.64-1.89,3.14-3.92,4.67-5.94"/>
      </g>
      <g class="cls-7">
        <path d="M310.8,216.39c.71-.05,1.49-.11,2.18.1.9.28,1.78.93,2.25,1.87.4.81.47,1.81.23,2.69-.44,1.61-1.47,2.39-2.69,3.18-.6.21-1.03.34-1.67.13-1.58-.54-2.39-2.87-3.07-4.41.86-1.32,1.7-2.44,2.77-3.55"/>
        <path d="M118.84,130.56c.35-.02.65,0,.99.08,1.95.47,3.48,1.4,4.55,3.35-1.94-.88-3.75-2.2-5.54-3.44"/>
      </g>
      <g class="cls-5">
        <path d="M430.31,275.33c-1.5,1.24-3.04,2.38-4.24,3.99-.38-.28-.74-.65-1.1-.98,1.74-1.27,3.4-2.21,5.35-3.01"/>
        <path class="cls-3" d="M265.21,2.32c3.68-.59,7.92.2,11.4,1.55,3.51,1.37,8.01,4.07,9.6,8.13.61,1.55.76,3.32.2,4.92-1.29,3.58-6.28,9.48-9.32,10.99-2.55.83-4.94,1.43-7.41-.03-5.87-3.48-12.18-15.75-14.15-22.86,3.1-1.55,6.35-2.16,9.68-2.69"/>
      </g>
      <g class="cls-6">
        <path d="M188.53,33.1c.11.47.16.7.41,1.09-.28.83-.52,1.95-1.06,2.59.14-1.25.37-2.44.65-3.68"/>
      </g>
      <g class="cls-11">
        <path class="cls-3" d="M235.8,8.89c4.71-.15,9.6.38,13.2,4.3,1.6,1.74,2.57,3.86,3.35,6.2,4.37-1.53,8.76-1.78,12.91.68,2.86,1.68,4.3,4.04,5.21,7.49.07.28.14.55.21.83,3.54-.05,6.92-.18,9.65,2.85.23.24.41.52.61.8.27.83.51,1.95,1.06,2.59-.13-1.27-.37-2.46-.65-3.68-.5-2.74-1.51-8.34-.21-10.84.66-1.29,1.82-1.87,3.05-2.17,6.32-1.48,15.49,1.09,20.74,5.36,3.85,3.13,6.97,8.01,7.67,13.45.2,1.58.18,3.13.14,4.71-3.99,5.03-8.73,5.86-14.26,6.92-.57.1-1.37.16-1.23,1.04.03.21.21.7.3.91-.34.31-.17.28-.45.26-.09.55-.28,1.17-.11,1.69,2.5-1.97,5.33-4.71,8.56-4.01,2.04.44,3.54,2.17,5.46,2.85,1.15.41,2.52.34,3.71.5,3.72.54,7,2.83,9.04,6.5,1.17,2.08,1.75,4.3,2.33,6.66,2.72,1.48,4.78,3.14,6.71,5.81,3.68-3.84,7.41-6.69,12.21-8.35,3.45,3.6,5.77,9.61,6.02,14.93.21,4.45-.9,8.71-3.49,12.08-2.36,3.04-5.23,4.46-8.57,5.57l1.6,3.16,2.73-.72c3.04,3.08,6.66,6.07,6.96,11.14.07,1.19,0,2.38-.1,3.57,1.43,2.15,2.45,4.09,3.27,6.63l1.75-2.04c-2.69-2.69-4.17-6.79-4.43-10.86-.28-4.74.95-9.9,3.71-13.5,1.61-2.12,3.44-3.29,5.69-4.27,3.85,2.83,6.61,6.5,7.6,11.74.47,2.47.42,4.98.37,7.51,5.97-.28,10.3.96,14.77,5.75.64.68,1.24,1.43,1.84,2.18-1.65,5.59-4.5,10.53-9.18,13.22-1.46.83-3.03,1.37-4.6,1.82,2.86,3.01,4.95,6.14,5.21,10.79.18,3.4-.75,6.77-1.95,9.85,2.4,2.69,4.36,5.45,4.4,9.51.04,3.4-1.4,6.27-3.32,8.73,1.3.65,2.63,1.27,3.92,1.97,1.15-2.18,2.18-4.15,4.51-4.75,4.29-1.11,9.56,1.16,13.08,3.89,2.86,2.23,5.95,6.3,6.62,10.29.23,1.32.09,2.64-.59,3.75-1.39,2.26-4.26,2.98-6.51,3.34-4.33.68-8.57.06-12.14-3.09-2.84-2.51-4.92-6.4-5.32-10.53-.09-.86-.01-1.73.1-2.59-1.9-.28-3.85-.44-5.71-.93-2.7,1.4-5.01,1.71-7.94,1.97-2.67,2.67-4.58,4.69-8.03,6.02,1.85-.08,3.65-.2,5.4.62.08.03.16.06.24.1,2.7-2.15,5.18-3.83,8.63-3.18,4.41.81,7.61,4.61,10.01,8.66,1.03,1.74,1.98,3.57,3.04,5.29,3.71-1.37,7.61-2.36,11.25-.13.51.31.99.65,1.47,1.02,4.27-.67,8.12.07,11.64,3.13,2.93,2.54,4.95,6.25,5.47,10.45.42,3.44-.24,6.79-1.57,9.87l.47,2.93c1.88-6.33,3.98-10.73,9.41-13.79,1.2-.67,2.47-1.17,3.73-1.68,2.65,4.44,4.72,9.9,3.76,15.4-.66,3.76-2.63,6.55-5.33,8.66,2.81,1.38,5.29,3.01,6.44,6.5,1.06,3.26.54,6.72-.49,9.9,2.82.9,5.15,2.46,6.58,5.52,1.1,2.33,1.4,5.28.64,7.8-.69,2.33-2.19,4.07-4.13,5.05-2.52,1.25-5.26.8-7.89.42,1.02,1.82,1.84,3.57,1.4,5.83-.33,1.71-1.43,2.98-2.72,3.83-2.76,1.79-5.8,1.64-8.84,1.48,1.07,2.56.93,4.2.59,6.92,2.32-3.09,4.74-5.06,8.4-5.41,7.27-.67,14.98,3.78,20.28,9.2,1.26,1.29,2.39,2.7,3.51,4.15-5.95,6.71-15.11,12.55-23.64,12.46-2.96-.03-5.52-1.09-7.61-3.53-2.63-3.06-3.66-6.98-4.43-11.09-1.74,1.3-3.76,2.78-5.94,2.21-.72-.2-1.49-.5-2.15-.88-2.67,2.44-5.02,3.79-8.57,3.27-1.71-.26-3.35-.94-4.82-1.99-3.93,3.48-8.06,6.68-12.34,9.59,3.23-.44,6.56-.41,9.82-.59,3.07-.18,6.22-.57,9.28-.52,1.17-2.8,2.52-5.42,5.25-6.51,2.25-.9,4.68-.33,6.75.9,4.51,2.67,8.51,8.53,9.97,14.08.89,3.37.34,6.59-.01,10-7.21-1.5-16.44-4.59-20.78-12.02-.62-1.07-1.07-2.28-1.54-3.45-10.24-.36-22.38-.28-31.64,5.19-3.47,2.03-6.58,4.88-9.6,7.67,2.45.21,4.89.34,7.34.41,2.96-3.6,5.9-6.16,10.41-6.27,4.37-.11,8.6,2.35,11.64,5.85,4.31,4.95,6.37,11.51,6.31,18.45-.01,2.72-.24,5.54-.74,8.19-9.03-1.27-19.9-3.63-25.83-12.44-2.29-3.4-3.11-7.31-3.11-11.58-8.28-1.22-15.32,4.02-23.1,6.35-7.4,2.21-15.13,2.18-22.66,3.44-2.62.44-4.99,1.06-7.41,2.33-3.89,2.05-7.5,5.23-11.07,7.91-5.08,3.83-10.3,7.44-15.09,11.74-5.52,4.93-6.01,11.15-11.32,16.69-4.44,4.64-10.26,7.82-15.35,11.41-11.77,8.3-20.96,21.15-22.6,37.3-1.13,11.2-20.16,17.68-22.11,10.08l-4.14-16.28c-4.23-16.28-11.39-28.33-23.71-38.05-5.05-3.97-10.38-7.6-14.7-12.67-2.82-3.31-5.35-6.95-7.71-10.68-1.7-2.69-3.39-5.93-5.52-8.17-1.17-1.24-2.87-2.26-4.27-3.13-3.86-2.38-7.81-4.57-11.66-6.98-4.78-3-10.04-7.12-15.29-8.79-3.35-1.07-6.94-1.42-10.4-1.97-5.95-.94-11.68-2.36-17.3-4.92-12.23-5.55-22.6-15.42-35.66-18.63,2.39,3.18,4.05,6.58,3.73,10.94-.31,4.36-2.52,7.96-5.4,10.65-5.97,5.54-15.04,8.92-22.59,9.72-.74-8.92-.75-17.57,4.54-24.83,3.48-4.77,7.74-6.46,12.84-7.98-3.73-1.07-7.4-2.43-11.13-3.44-7.31,7.91-11.78,9.8-21.83,9.57-.09-6.85.21-13.11,4.58-18.25,2.6-3.08,5.77-4.46,9.34-5.49l.38.54.14-.75c-1.81.08-3.78.39-5.57.24-1.05-.1-2.82-.8-3.76-.44-1.12,3.71-.17,5.47-4,7.49-2.74,1.43-5.8.67-8.49-.57-5.98-2.79-10.44-8.11-14.67-13.53,5.45-5.97,10.18-8.42,17.75-8.21.68.02,1.37.03,2.05.05.41-.91.82-1.82,1.22-2.75-2.36-.85-5.21-1.63-6.51-4.33-1.15-2.41-.55-5.19.01-7.68-5.66-2.39-9.08-5.62-12.48-11.38,4.41-4.72,8.8-6.63,14.78-6.86-.4-3.83-.61-8.27,1.66-11.45,1.16-1.61,2.57-2.38,4.23-3.08-2.01-6.82-1.22-13.68,1.51-20.09.55-1.29,1.13-2.52,1.81-3.73,3.72,1.61,6.49,3.57,9.07,7.1.85-1.32,1.75-2.43,2.96-3.32,1.44-4,3.07-7.39,6.72-9.2,1.51-.75,3.15-1.07,4.77-1.32.86-2.93,1.99-5.49,4.54-6.89,2.01-1.11,4.48-1.34,6.69-1.42-4.06-1.29-7.5-3.18-10.61-6.5,1.36-5.34,3.37-9.57,7.78-12.33,6.34-3.96,13.97-3.58,20.71-1.38.04,4.74-.51,9.13-1.94,13.58,2.8.8,4.23,2.03,6.32,4.25,3.59.5,7.26-.26,9.8,3.39.64.91,1.19,1.97,1.7,3,4.71-.26,8.12,1.19,11.6,4.82,4.19,4.35,6.71,10.05,9.11,15.79,3.32-1.46,7.99-.44,11.46-.06-1.71-2.08-3.41-4.15-5.32-5.99-2.16-2.1-4.58-4.04-6.56-6.37-2.83-3.32-4.47-7.87-7.62-10.83-2.74-2.59-6.27-4.1-9.29-6.25.78-2.39,1.23-5,1.66-7.51-4.17.39-8.46.31-11.84-3-2.04-2-3.28-4.85-3.48-7.93-.21-3.08.69-6.12,2.47-8.43,3.44-4.4,8.42-2.46,12.76-4.58-2.18.07-5.43.62-7.13-1.27-.71-.78-.99-1.82-.96-2.93.1-4.14,3.08-9.25,5.7-11.93.71-.72,1.44-1.42,2.19-2.07-5.39-1.19-9.73-3.19-12.9-8.65-1.25-2.13-2.11-4.53-2.72-7,5.28-3.92,10.14-3.73,16.15-2.69.5-7.62,3.65-15.08,8.78-19.96.18-.18.37-.34.57-.5,4.57,4.43,7.5,10.27,8.01,17.19.01.21.03.41.04.62,1.81-2.65,3.69-5.06,6.28-6.76.95-.62,4.14-1.82,4.61-2.69l.16.13.04-.41c-.88-.77-2.14-.91-3.2-1.19-2.05-.54-4.17-3.14-5.21-5.14-2.33-4.54-2.49-11.01-1.26-15.99,1.29-5.18,4-8.94,7.57-12.29,4.85,2.98,8.83,7.2,11.08,13.11,2.67-6.87,5.57-13.14,11.44-17.02,1.22.16,2.43.31,3.65.52,2.98-3.83,6.37-8.56,11.2-8.89,2.18-.15,3.9.86,5.46,2.54.13.15.27.29.4.44,4.4.37,8.36.68,11.77,4.38,3.71-7.64,6.89-12.57,14.43-15.03.59-.2,1.19-.38,1.8-.55-2.96-.67-5.84-1.58-8.77-2.36-2.56,5.14-5.74,10.86-11.03,12.52-3.92,1.24-7.98-.42-11.33-2.72-1.5-1.02-2.93-2.13-4.26-3.43,1.7-6.3,4.51-12.41,9.79-15.58,2.96-1.78,7.1-2.72,10.33-1.43,1.85.75,3.37,2.34,4.2,4.4.45,1.09.75,2.26,1.03,3.42,5.52,1.69,11.06,2.96,16.48,5.1-.27-4.93.96-8.24,3.78-11.9,2.28-2.95,5.33-5.93,8.9-6.25,1-.1,2.06.03,3.07.13,1.88-3.27,4.14-6.77,7.72-7.57,2.33-.52,4.55.41,6.44,1.97.83.7,1.58,1.51,2.33,2.33M214.81,384.58c.34-3.83.44-7.7.69-11.56.43-5.96,1.15-12.15.79-18.12-.62-10.45-6.58-18.61-11.33-27.08-2.66-4.74-5.19-9.57-7.57-14.51-4.58-9.56-8.54-19.51-11.84-29.75-2.65-8.12-4.48-16.71-8.37-24.21-5.16-9.95-11.8-18.53-19.34-26.15-.62.42-1.12,7.03-1.66,8.52-1.36,3.78-4.13,5.73-7.28,7.16.23,5.31.1,10.65-.38,15.94-.51,5.16-1.66,10.78-1.26,15.96.44,5.62,2.18,11.22,3.85,16.49,5.12,16.2,12.18,33.38,22.29,46.29,2.49,3.19,5.46,5.91,8.6,8.21,11.23,8.25,20.86,12.83,29.04,26.12l3.76,6.69ZM234.46,377.04c5.52-6.48,12.52-11.19,19.52-15.21,3.32-1.92,6.76-3.7,9.86-6.04,2.48-1.87,4.56-4.05,6.34-6.77,4.88-7.42,8.08-16.22,11.95-24.34,2.77-5.81,6.05-11.33,8.32-17.45,1.68-4.64,2.96-9.48,3.79-14.41.55-3.19.95-6.46.95-9.74.01-8.81-2.09-23.14-6.45-30.64-1.09.98-7.91,13.5-9.72,16.23-3.16,4.75-6.39,9.25-10.07,13.5-3.24,3.75-6.72,7.23-9.97,10.97-4.6,5.28-7.72,11.46-11.12,17.78-2.69,5-5.36,10-7.55,15.31-7.03,17.01-9.07,35.55-9.05,54.2l3.21-3.39ZM272.16,212.11c-3.41,2.03-7.23,3.24-11.02,2.02-4.77-1.51-7.52-5.67-9.87-10.35-1.17,2.31-1.75,5.28-2.76,7.73-2.15,5.31-4.82,10.44-7.62,15.32-2.46,4.27-5.22,8.29-8.04,12.25-2.33,3.26-4.91,6.51-6.72,10.18-1.24,2.52-2.04,5.16-1.73,8.09.85,7.82,7.14,19.34,10.08,26.83,2.05,5.19,3.52,10.53,4.85,16.01,1.5-1.95,2.93-4.02,4.3-6.11,5.95-8.22,11.49-17.39,16.65-26.3,2.91-5.05,5.4-10.39,7.94-15.7,1.92-4.02,3.99-8.08,5.21-12.47,2.35-8.47.21-18.99-1.27-27.5M222.88,332.78c.91-3.11,1.8-6.24,2.83-9.28,1.85-5.39,4.37-10.84,4.84-16.69,1.13-14.12-14.5-51.03-22.62-62.23-.06.1-.14.18-.2.28-2.66,4.59-6.27,32.45-6.83,39.08-.27,3.27-.41,6.61-.13,9.88.27,3.21,1.05,6.33,2.28,9.23,3.1,7.38,14.4,24.67,19.83,29.73M154.88,324.67c-1.49-4.89-3.38-9.64-4.75-14.59-1.46-5.26-1.88-11.43-4.26-16.27-2.35-4.79-19.37-20.39-23.96-24.6-1.54.59-2.93,2.05-4.4,2.87-4.94,2.74-9.68,2.82-15.04,2.78.2,3.21.14,6.71,1.06,9.75,3.32,11.01,28.64,27.21,37.74,32.53,4.47,2.62,9.03,5.18,13.61,7.52M249.3,200c-2.07-.28-5.46-.65-6.68-2.87-.79-1.43-.17-3.97.23-5.5,2.19-8.45,3.79-11.64,10.53-15.83-1.46.03-2.99.46-4.43.72-4.16.73-7.98.86-12.07-.41-3.07,8.73-1.94,15.76-6.31,24.98-1.84,3.84-4.06,7.59-6.45,10.99-3.76,5.34-9.62,10.7-11.12,17.55-1.37,6.29,3.52,14.25,6.07,19.39.09-.08.2-.15.28-.23,2.87-2.65,5.5-6.64,7.94-9.8,7.53-9.8,20.47-25.92,22.01-39M317,320.1c6.1-.47,12.53-.6,18.52-2.13,9.72-2.49,22.28-12.36,30-19.72,6.27-5.97,10.91-13.04,15.28-20.81,1.15-2.03,2.89-4.71,3.1-7.15-4.38.47-8.39,3.24-12.56,4.75-6.9,2.51-14.77,4.56-20.95,9-4.08,2.95-7.26,7.73-10.53,11.74-3.27,3.99-6.58,7.93-9.93,11.82-3.99,4.59-8.52,8.48-12.93,12.49M67.28,256.37c-4.07.62-7.04.44-11.06-.59-.16-.02-.31-.05-.47-.02-.62.1-.88.33-1.22.86l.16.6c2.28,1.81,4.65,2.34,7.17,3.42.83.36,1.77.9,2.04,1.97.48,1.87-.91,4.25-1.68,5.83,1.23,2.52,2.76,4.89,4.29,7.18,2.97,4.46,6.25,8.56,9.7,12.54,12.39,14.21,23.75,19.46,40.72,22.06,1,.37,2.09.54,3.14.75-6.32-6.32-13.11-12.23-18.88-19.25-4.95-6.01-8.93-12.99-14.26-18.59-6.01-6.33-13.42-10.66-19.65-16.77M328.95,289.06c-2.42-1.43-4.12-3.31-5.91-5.62-3.89,3.29-10.75,6.86-15.19,10-3.65,2.57-7.34,5.6-10.23,9.28-6.11,7.8-11.22,23.64-14.92,33.36l3.24-2.7c3.35-2.77,7.21-4.95,10.82-7.26,6.65-4.27,13.3-8.5,19.68-13.27,2.86-2.15,5.83-4.28,8.27-7.05,4.26-4.82,4.23-10.36,4.24-16.74M139.5,182.54c-2.19,0-5.05,2.57-6.89,3.91,2.16,3.14,4.39,6.25,6.59,9.36l2.82,4.01c.88-4.71.4-10.73.01-15.53l-2.53-1.74ZM146.08,212.55c-3.01-5.31-6.25-10.31-9.63-15.32-2.12-3.13-4.55-6.22-6.28-9.64-1.91.15-3.82.57-5.73.78,1.95,2.3,3.89,4.71,6.03,6.81,2.24,2.2,4.68,4.12,6.72,6.58,2.18,2.62,2.83,5.19,5.49,7.78,1.06,1.09,2.26,2.03,3.41,3.01M38.65,213.56c-.81-1.45-1.49-2.98-2.21-4.48-1.9,2.18-4.1,6.69-6.96,6.95-.4.05-.6.02-.95.26-.28.19-.2.24-.28.7.27.1.54.2.82.26l.27.06c-.03,3.24.3,6.4.61,9.62.44-.99.71-2.13,1.05-3.18,1.51-4.72,3.59-8.04,7.65-10.21M278.2,210.22c.61,3.13,1.06,6.25,1.51,9.41l.09,1.04.24.13c1.36-2.26,2.94-10.35,2.7-13.11-1.44,1.29-2.81,1.97-4.54,2.52M100.14,243.05c-1.44-3.4-2.39-10.27-5.05-12.34-.1.05-.21.1-.31.16-.74.47-.98,1.22-1.15,2.12-.65,3.39.34,14.85,1.92,17.73.73-.33,1.16-1.25,1.61-1.97,1.02-1.82,2.05-3.63,3.1-5.42l-.13-.28ZM205.85,233.09c.31-.57.74-1.22.85-1.89.48-3-4.12-16.87-5.64-19.78-1.43,3.86-.92,8.97-.82,13.07,1.71,3,3.59,5.86,5.62,8.6M351.09,279.28c1.03-.29,2.04-.67,3.07-1.07,8.23-2.87,15.69-8.17,22.5-14.07-.11-.2-.23-.39-.34-.6-1.4-2.65-2.31-5.44-1.56-8.56.75-3.06,2.73-4.92,4.99-6.46-.82-1.12-1.6-2.28-2.39-3.42-1.68,2.13-1.5,5.57-3.71,7.7-2.66,2.57-6.59,2.49-9.84,2.25-3.69,8.47-8.23,16.33-12.73,24.24M140.95,255.96c.42.33.34.31.9.33,1.09-1.19,1.09-4.8,1.26-6.55-.89-.34-1.73-.72-2.53-1.27-3.51-2.38-4.58-6.27-5.57-10.52-1.19,2.44-1.75,5.13-3.11,7.52,2.97,3.53,6,7.03,9.05,10.49M144.4,285.3c-.47-3.66-1.17-7.28-1.6-10.96-.55-4.82-.72-9.67-.83-14.52-3.65-4.2-7.6-8.04-11.27-12.21-2.73,1.21-5.31,2.61-8.09,3.65,2.09.31,4.68.6,6.21,2.49.76.94,1.05,2.16.98,3.45-.21,4.33-3.96,8.01-6.55,10.76,4.14,3.79,8.34,7.51,12.59,11.15,2.79,2.2,5.64,4.25,8.57,6.19M194.59,278.06c2.42-13.19,5.08-26.34,9.15-39-6.32-7.82-12.01-16.27-18.44-23.95-.11.13-.17.34-.24.52-1.43,3.65-2.05,8.17-2.91,12.06-1,4.59-2.29,9.66-2.19,14.41.24,10.57,9.89,29.28,13.75,39.79.35-1.25.61-2.56.89-3.84M331.21,201.25c-2.38,1.17-4.81,2.13-7.23,3.11.92.78,1.8,1.63,2.69,2.44.97,1.04,1.81,2.23,2.66,3.4.52-3.04,1.09-5.97,1.88-8.95M298.68,230.16c2.67,1.46,4.71,3.09,6.48,5.86,2.76,4.36,3.88,9.82,3.11,15.14-.72,4.84-2.91,8.14-6.35,10.89-.03,1.89-.48,7.13.58,8.56l.57-.42c2.94-4.25,6.07-8.74,9.75-12.18l-.18-.11c-1.81-1.19-3.07-2.77-3.58-5.14-.96-4.49,1.16-9.28,3.18-12.96-7.2-4.41-4.34-7.41-8.44-13.4-1.8.88-3.54,2.41-5.11,3.76M144.3,249.76c-.59,6.82-.4,15.65.62,22.35l.1.38c2.28-3.4,2.65-18.38,2.76-23.12l-3.48.39ZM67.73,243.28v.28s2.46,2.08,2.46,2.08c.68,3.75.33,5.73-1.42,8.91,3.83,3.34,7.81,6.29,12,9,.54.33,1.13.83,1.74.78-.44-3.35-5.11-14.07-6.99-16.66-1.7-2.33-2.99-2.54-5.47-2.75l-2.26-1.69-.06.05ZM390.37,286.15c-1.51-2.02-2.66-4.09-2.73-6.86-.11-4.36,2.57-7.43,5.94-8.84.81-.33,2.21-.59,2.77-1.29l-.45-.33c-2.43-.36-4.69-.1-7.11.23-3.07,4.59-5.35,9.85-8.19,14.62-3,5.06-6.62,9.61-9.87,14.44.81-.42,1.68-.73,2.52-1.06,6.37-2.54,11.61-6.59,17.13-10.92M350.2,178.43c-3.37.59-5.94,3.08-9.5,3.34-1.09,2.25-2.56,3.96-4.1,5.81l.03.29,1.19-.11c2.39-.54,4.89-.65,7.31-.93,1.57-3.58,4.17-5.52,7.03-7.55l-1.95-.85ZM148.26,175.1c.86,1.61,1.88,3.13,2.84,4.67.57-4.02.61-8.14,1.07-12.2-2.4.24-4.92,1.24-7.26,1.91.91,2.03,2.08,3.86,3.34,5.62M229.13,169.53c-.61.73-1.24,1.42-1.87,2.12,1.4,3.06,2.53,6.12,1.99,9.67-.98,6.46-6.61,10.81-10.88,14.39-.18,4.07-.4,8.14-.89,12.2-.26,2.12-.76,4.2-.96,6.3-.07.67-.21.94.16,1.48l.45-.37c6.51-8.65,13.44-18.01,15.16-29.65.86-5.85-.2-11.28-3.17-16.14M185.43,206.27c3.3,4.36,6.58,9.43,10.35,13.22l.33-.08.31-.83c.48-3.99,1.13-7.96,1.78-11.92-2.57-7.82-8.35-12.81-12.93-19.03-.71,3.83-.07,14.38.16,18.64M305.95,175.02c2.25-2.18,3.82-6.25,5.49-9.04.93-1.56,2.02-2.98,3.11-4.4l-.07-.31c-.51-.21-.99-.44-1.47-.72.13-1.46.14-2.46-.28-3.87-.99,1.14-6.27,12.89-6.92,14.62-.48,1.29-.98,2.62-.98,4.02l.27.24.85-.55ZM152.87,167.27c.37,4.07-.21,8.03-.14,12.06.06,3.19,1,6.35,2.16,9.2,2.22,5.49,5.28,10.57,7.98,15.74,2.3,4.45,4.38,9.04,6.22,13.74,1.4,3.53,4.57,14.15,6.65,16.46l.4-.41c.51-3.39,1.37-6.76,2.01-10.13,1.05-5.5,1.58-11.12,1.61-16.76-2.45-4.67-5.87-8.71-8.78-13.01-6.32-9.28-11.9-18.84-16.2-29.57-.74.83-1.32,1.69-1.91,2.65M151.87,188.76l.3-.24c.21-3.19-6.48-12.44-7.99-15.92-.59.88-.83,2.54-1.13,3.61.95,1.09,1.6,1.74,1.63,3.34,0,.5,0,.99.06,1.48.3,2.72,4.68,5.85,6.54,7.55l.61.18ZM331.71,199.9c.13-1.35.28-2.65.81-3.87,2.43-5.85,6.34-3.81,10.16-5.47.86-.38,1.33-.86,1.7-1.84l-.21-.52c-11.56,1.43-21.12,5.44-30.44,13.33l-.25-.02.35.1-.23-.49c5.23-7.67,13.09-10.18,20.99-12.28l.23-.07c-.44-.39-1.87-.06-2.53-.24-3.69-.96-6.69-1.63-10.14-3.57-2.84,2.59-5.42,7.44-7.81,10.7-2.74,3.71-5.76,7.18-8.7,10.68.93-.75,1.87-1.58,2.89-2.18,4.78-2.85,9.63-1.92,14.56-.2,2.83-1.55,5.63-3.03,8.64-4.07M266.23,164.73c-1.9,1.11-3.72,2.15-5.69,3.04-.85,1.71-2.42,4.2-2.19,6.22.25,2.28,4.47,4.23,6.05,5.41,1.61,1.55,2.97,3.43,4.36,5.24-1.37-6.63-2.07-13.12-2.53-19.91M137.37,166.75c.45,1.95,2.9,4.49,4.1,6.06.52-1.24.81-2.59,1.15-3.89-1.65-.67-3.24-1.38-4.81-2.3l-.44.13ZM43.83,277.19c.75,2.23.88,3.96.75,6.3,3.72.57,7.47,1.38,11.16,2.2-3.46-3.37-7-6.63-10.82-9.48-1.74-1.27-3.39-2.21-5.33-3.01,1.5,1.22,3.04,2.36,4.24,3.99M115.27,116.47c-.81-2.8-1.2-5.28-1.32-8.26-1.4,1.29-2.63,3.24-3.88,4.77,2.35,2.65,4.34,5.41,6.24,8.5l.48.54c.07-.02.16-.02.23-.05.82-.29,1.93-1.35,2.33-2.23.33-.72.23-1.09.03-1.82-1.24-1.46-2.45-1.38-4.12-1.45M416.14,227.18c-1.98-2.54-2.56-4.58-3.04-7.86l-.09.31c-.71,2.56-1.71,3.65-3.76,4.87,2.04,3.34,3.27,6.27,3.46,10.4l.04.15c.48-.44.73-1.87.93-2.59.54-1.89,1.56-3.58,2.45-5.28M304.54,208.51c-3.39,2.98-5.06,8.79-7.72,12.6-1.1,1.58-2.49,3.01-3.73,4.44-3.73,4.28-7.24,8.32-9.79,13.73,1.49.15,9.42-6.77,11.16-8.38,2.12-1.94,4.03-4.14,5.7-6.59,3.75-5.5,3.75-9.05,4.38-15.79M264.73,143.35c.52.62,1.12,1.16,1.68,1.71.85.91,1.77,1.74,2.65,2.61.23-3.68.82-7.2,1.54-10.78-1.91.75-3.9,1.17-5.88,1.66.07,1.6.01,3.21.01,4.8M273.76,155.42c2-2.41,4.1-4.74,5.79-7.42-4.07-3.65-5.52-7.52-6.71-13.14-2.3,2.74-3.1,10.14-2.73,13.82.37,3.73,1.36,5.83.68,9.82l2.97-3.08ZM180.74,152.44c1.37-3.24,2.07-7.02,2.89-10.49-1.98.72-3.95,1.43-6,1.94.6,1.84,1.22,3.65,1.9,5.44.35,1.06.81,2.08,1.22,3.11M323.86,90.08c1.15.88,2.18,1.84,3.22,2.88,1.13.62,2.5-.02,3.66-.34-1-1.01-1.85-2.18-2.73-3.34-1.39.42-2.75.62-4.16.8M140.4,84.31c.23-1.42.52-2.9.58-4.36.09-1.73-.47-2.78-1.47-4.01-1.4,1.68-1.68,4.22-3.41,5.7-1.91,1.66-5.3,1.46-6.56,3.99l.16.29.81-.24c3.56-1.69,6.07-1.84,9.9-1.37M146.66,83.97l1.47-3.48c-1.97.83-3.63,1.29-4.96,3.26l3.49.23ZM287.69,44.57c-.32,3.34.01,6.22-.75,9.56,1.46.42,2.9.96,4.36,1.45l.42-.29c.55-2.13,1.09-4.25,1.56-6.4-1.98-1.22-3.73-2.87-5.59-4.32M158.23,151.77c.52-4.57.82-9.2.88-13.82l-2.45-1.29c-.5.67-.57,1.46-.68,2.31-.55,4.33-.07,9.25,2.25,12.8M158.57,163.15c6.08,13.71,11.06,22.37,19.73,34.09.47.5.78.93,1.43,1.07.07-.16.17-.33.23-.5,1.43-4.02-.84-30.71-2.28-35.35-1.58-5.13-10.34-18.32-14.02-21.75-.71-.65-1.59-1.09-2.4-1.53-1.07.76-.62,15.74-.96,18.33-.27,2.13-.84,3.76-1.73,5.63M184.97,173.46c.3-2.02.57-4.79,1.54-6.5.89-1.56,3.42-3.09,4.71-4.32,2.67-2.52,5.08-5.5,7.53-8.3-3.54-7.77-5.05-12.08-5.53-20.91-.89.85-1.63,2.36-2.45,3.37-1.03,1.27-4.37,3.78-4.65,4.93-.71,2.87-.82,6.12-1.34,9.07-.62,3.58-1.88,7.1-2.14,10.76-.11,1.61,1.37,12.37,1.97,13.74.37-.59.31-1.16.37-1.86M330.52,298.96c.14-.07.28-.11.4-.2,2.73-1.63,5.04-8.71,5.93-11.77-1.98,1.27-3.66,2.15-5.93,2.52-.03,3.14-.2,6.32-.4,9.44M354,267.95c2.75-2.72,6.61-10.26,7.95-14.23l-4.4-.18c-1.51,4.69-2.52,9.56-3.55,14.41M222.97,169.97l.2.28c.81-.5,1.64-1.35,2.49-1.69,1.1-.46,2.36-.34,3.42-.83v-1.07s-7.33.55-7.33.55l1.22,2.77ZM322.67,162.6c-2.39-.26-4.81-.13-7.21.11-1.87,2.59-3.58,5.24-4.87,8.27l.28.13c2.72-2.18,5.57-4.84,8.54-6.53,1.22-.7,2.5-.98,3.71-1.74l-.45-.24ZM287.82,153.9l.98,2.02c1.05-1.61,1.95-3.26,2.83-4.98-1.54.23-3.38-.06-4.96-.15l1.16,3.11ZM307.73,147.03c-.21.18-.37.28-.52.52-.85,1.22.21,10.68.17,12.96v.5s1.15-2.1,1.15-2.1c1.05-2,2.05-4.01,2.96-6.09-1.17-1.99-2.59-3.78-3.75-5.8M176.54,154.54c.14-2.33-2.38-7.77-3.23-10.06-1.95-.67-3.9-1.37-5.86-2.08l-.21.26c1.33,2.93,6.85,9.33,9.1,12.03l.2-.15ZM289.26,221.02c4.85-5.76,9.28-11.97,14.05-17.83,2.79-3.42,5.81-6.56,8.67-9.9,2.67-3.13,5.16-6.72,8.32-9.23-1.03-.95-2.05-1.91-2.9-3.09-2.05-2.87-2.59-6.14-2.33-9.75-3.27,3.35-7.21,5.71-10.13,9.57-4.72,6.29-6.85,15.75-9.84,23.22-2.73,6.82-5.79,13.47-8.8,20.13l2.97-3.11ZM289.46,160.55c1.16,6.87.24,13.14.98,19.52l.07.52c.23,1.82.85,3.37,1.5,5.05-1.61,4.23-6.34,22.11-5.76,26.02l.3-.33c1.92-3.42,3.21-7.52,4.72-11.22,4.53-11.04,9.28-21.72,12.02-33.59-2.8-5.06-3.49-9.18-3.13-15.18-1.9.21-3.78.41-5.67.57-1.26,3.22-3.06,5.97-5.04,8.63M355.6,118.73c-1.57,1.3-5.45,7.02-6.14,9l1.54.11c.85.47,4.19-.59,5.26-.81-.58-.63-1.16-1.29-1.49-2.15-.73-1.94.28-4.31.82-6.15M377.95,266.12c-3.3,2.73-6.55,5.49-9.92,8.12l3.38-1.01c3.3-1.4,6.65-2.57,10-3.74-1.13-1.16-2.29-2.26-3.47-3.37M300.58,262.36c-3.42-.73-4.77-1.69-6.97-4.76l-.23.31c.33,3.27,1.58,6.63,2.21,9.88.75,3.94.92,8.14,1.92,11.97l.28.02.61-1.25c2.05-5.11,2.02-10.65,2.18-16.17M29.33,229.19c-.61.65-1.3,1.69-1.37,2.67.35.75.62,1.01,1.26,1.43.38.24.49,1.02.64,1.5l.31.54.27-.06c.23-2.03-.48-4.2-1.1-6.07M96.48,255.62c.92,4.01,2.26,7.85,3.97,11.45l1.51-3.91c1.09-2.77,2.28-5.39,3.83-7.85,1.22-1.94,4.55-5.42,5.13-7.26-1.1-2.12-6.37-2.98-8.42-3.65-.57-.07-.92-.05-1.47.13-2.4,2.51-3.48,7.65-4.57,11.09M78.21,247.69c.04-.06.1-.13.14-.21.37-.68.42-.8.27-1.55-.68-.77-1.6-.98-2.49-1.3-.28.07-.14-.02-.35.36.64,1.09,1.56,1.86,2.43,2.7M200.27,169.67c2.7-3.81,5.83-5.41,9.9-6.37-2.98-3.78-4.54-7.47-5.93-12.28-.99,4.84-6.14,10.62-8.64,14.91,1.2,1.21,2.74,3.58,4.19,4.23l.48-.5ZM351.06,128.44c-.34-.03-.65,0-1,.08-1.95.47-3.46,1.4-4.55,3.35,1.95-.88,3.76-2.2,5.56-3.44M205.11,134.77c1.13-2.2,2.45-4.09,4-5.91-1.53-.88-3.03-1.78-4.53-2.7l-.3.18c-.85,3.53-.5,7.65-.64,11.3l1.46-2.87ZM47.29,275c5.81,4.54,11.74,8.99,17.87,12.94,3.07,2,6.32,3.35,9.63,4.67-4.98-7.28-10.38-14.13-14.46-22.19-4.4,3.52-7.72,4.41-13.04,4.58M152.38,225.97c-3.55-4.95-7.71-9.07-12.22-12.86-1.03.78-1.36,3.7-1.87,5.01-1.82,4.84-5.35,6.79-9.35,8.56,2.21,1.79,3.95,3.48,5.6,5.94.76-2.36,1.44-4.85,2.53-7.03.85-.75,1.74-1.4,2.74-1.84,4.48-1.95,8.52.11,12.56,2.22M268.75,164.1c.44,3.18,2.59,19.21,4.1,20.71l.3-.36c.95-1.79,2.09-3.53,3.69-4.59,2.93-1.92,6.18-1.16,9.25-.21.84-10.45.69-21.18-3.75-30.61-4.91,2.28-10.23,10.28-13.59,15.06M214.01,201.37c-3.38,1.71-6.73,3.09-10.33,4.17.95,3.86,2.46,7.47,3.92,11.12.55,1.45,1.1,2.83,1.82,4.18,1.95-6.48,3.69-12.65,4.58-19.47M170.77,238.75c.03-.34.03-.67.03-1.03-.21-3.91-1.64-8.21-2.7-11.93-2.96-10.42-7.25-21.2-13.68-29.42-3.3-4.2-7.1-7.88-10.79-11.59-.13.75.21,13.35.33,14.91.31,4.41,2.49,6.97,4.51,10.45,2.26,3.91,4.4,8.01,6.96,11.69,4.39,6.33,10.02,11.69,15.35,16.92M201.39,123.37c-2.07,1.79-3.75,4.12-5.52,6.29.81,5.72,1.51,11.04,3.59,16.36l1.36,3.18c2.18-6.11,1.34-19.13.57-25.82M335.73,250.54c-1.08.36-1.02,1.92-1.39,3.08-.91,2.8-2.72,4.54-4.58,6.48,1.75.31,3.37.68,4.95,1.63,3.08,1.84,4.78,5.01,5.83,8.69.31,2.08.55,4.15.76,6.25.51-5.62,1.03-10.75-.14-16.31-.83-3.94-2.3-7.65-5.43-9.82M290.08,239.09c-10.28,6.69-18.3,26.04-23.98,37.91.07-.05.16-.08.24-.13,4.4-2.67,17.07-22.1,19.96-27.78,1.63-3.21,2.89-6.43,3.78-10M348.1,245.36c-2.11,1.48-4.03,3.81-6.14,5.42,3.47,15.06,3.75,24.55-2.89,38.48.96-1.11,1.81-2.41,2.67-3.63,1.85-2.43,3.88-4.74,5.6-7.28,5.22-7.72,6.07-16.3,7.81-25.51-3.35-1.81-5.12-3.88-7.06-7.47M322.58,281.88c-.93-2.36-1.81-4.72-2.22-7.31-.71-4.23-.03-7.75,2.04-11.3-3.11-.95-5.54-2.02-7.79-4.77-2.46,2.17-4.43,4.97-6.35,7.73-7.28,10.49-9.8,18.76-11.78,31.83,2.01-1.73,4.14-3.24,6.27-4.77,6.75-3.39,13.01-8.14,19.85-11.41M95.02,275.79c1.53,2.02,3.03,4.05,4.67,5.94-1.09-10.14-3.95-19.65-5.6-29.63-.83-5.08-.45-10.26-1.26-15.26-.52.7-.92,1.58-1.43,2.31-2.02,2.88-4.23,4.62-7.07,6.29l-.06.73c-.23,2.74-.55,5.52-.2,8.26.99,7.77,6.69,15.44,10.95,21.36"/>
      </g>
      <g class="cls-9">
        <path d="M351.06,128.44c-1.8,1.24-3.61,2.56-5.54,3.44,1.07-1.95,2.6-2.88,4.55-3.35.34-.08.64-.1.99-.08"/>
      </g>
      <g class="cls-8">
        <path d="M39.58,273.21c1.95.8,3.61,1.74,5.35,3.01-.37.33-.72.7-1.1.98-1.2-1.61-2.74-2.75-4.24-3.99"/>
        <path class="cls-3" d="M204.69.2c3.32.52,6.58,1.14,9.68,2.69-1.97,7.12-8.28,19.38-14.15,22.86-2.48,1.47-4.87.86-7.41.03-3.04-1.51-8.04-7.41-9.32-10.99-.57-1.6-.41-3.37.2-4.92,1.6-4.05,6.1-6.76,9.6-8.13,3.48-1.35,7.72-2.13,11.4-1.55"/>
      </g>
      <g class="cls-10">
        <path d="M281.37,30.97c.28,1.24.51,2.43.65,3.68-.54-.63-.78-1.76-1.06-2.59.26-.39.3-.62.41-1.09"/>
        <rect class="cls-3" x="212.63" y="400.47" width="44.65" height="27.64"/>
        <path class="cls-2" d="M87.18,288.75c0,3.57-2.9,6.47-6.47,6.47s-6.47-2.89-6.47-6.47,2.9-6.47,6.47-6.47,6.47,2.89,6.47,6.47"/>
        <path class="cls-2" d="M80.71,288.75c0,3.57-2.9,6.47-6.47,6.47s-6.47-2.89-6.47-6.47,2.9-6.47,6.47-6.47,6.47,2.89,6.47,6.47"/>
        <path class="cls-2" d="M84.5,275.81c0,3.57-2.9,6.47-6.47,6.47s-6.47-2.89-6.47-6.47,2.9-6.47,6.47-6.47,6.47,2.89,6.47,6.47"/>
        <path class="cls-2" d="M95.43,280.05c0,3.57-2.9,6.47-6.47,6.47s-6.47-2.89-6.47-6.47,2.9-6.47,6.47-6.47,6.47,2.89,6.47,6.47"/>
        <path class="cls-2" d="M80.71,264.66c0,3.57-2.9,6.47-6.47,6.47s-6.47-2.89-6.47-6.47,2.9-6.47,6.47-6.47,6.47,2.89,6.47,6.47"/>
        <path class="cls-2" d="M93.65,267.12c0,3.57-2.9,6.47-6.47,6.47s-6.47-2.89-6.47-6.47,2.9-6.47,6.47-6.47,6.47,2.89,6.47,6.47"/>
        <path class="cls-2" d="M106.58,271.13c0,3.57-2.9,6.47-6.47,6.47s-6.47-2.89-6.47-6.47,2.9-6.47,6.47-6.47,6.47,2.89,6.47,6.47"/>
        <path class="cls-2" d="M101.9,258.2c0,3.57-2.9,6.47-6.47,6.47s-6.47-2.89-6.47-6.47,2.9-6.47,6.47-6.47,6.47,2.89,6.47,6.47"/>
        <path class="cls-2" d="M88.96,254.18c0,3.57-2.9,6.47-6.47,6.47s-6.47-2.89-6.47-6.47,2.9-6.47,6.47-6.47,6.47,2.89,6.47,6.47"/>
        <path class="cls-2" d="M124.22,157.32c3.48.8,5.66,4.27,4.86,7.75-.8,3.48-4.27,5.66-7.75,4.86-3.48-.8-5.66-4.27-4.86-7.75.8-3.48,4.27-5.66,7.75-4.86"/>
        <path class="cls-2" d="M122.78,163.63c3.48.8,5.66,4.27,4.86,7.75-.8,3.48-4.27,5.66-7.75,4.86-3.48-.8-5.66-4.27-4.86-7.75.8-3.48,4.27-5.66,7.75-4.86"/>
        <path class="cls-2" d="M111.02,157.04c3.48.8,5.66,4.27,4.86,7.75-.8,3.48-4.27,5.66-7.75,4.86-3.48-.8-5.66-4.27-4.86-7.75.8-3.48,4.27-5.66,7.75-4.86"/>
        <path class="cls-2" d="M117.59,147.33c3.48.8,5.66,4.27,4.86,7.75-.8,3.48-4.27,5.66-7.75,4.86-3.48-.8-5.66-4.27-4.86-7.75.8-3.48,4.27-5.66,7.75-4.86"/>
        <path class="cls-2" d="M99.3,158.24c3.48.8,5.66,4.27,4.86,7.75-.8,3.48-4.27,5.66-7.75,4.86-3.48-.8-5.66-4.27-4.86-7.75.8-3.48,4.27-5.66,7.75-4.86"/>
        <path class="cls-2" d="M104.59,146.18c3.48.8,5.66,4.27,4.86,7.75-.8,3.48-4.27,5.66-7.75,4.86-3.48-.8-5.66-4.27-4.86-7.75.8-3.48,4.27-5.66,7.75-4.86"/>
        <path class="cls-2" d="M111.39,134.47c3.48.8,5.66,4.27,4.86,7.75-.8,3.48-4.27,5.66-7.75,4.86-3.48-.8-5.66-4.27-4.86-7.75.8-3.48,4.27-5.66,7.75-4.86"/>
        <path class="cls-2" d="M97.74,136.14c3.48.8,5.66,4.27,4.86,7.75-.8,3.48-4.27,5.66-7.75,4.86-3.48-.8-5.66-4.27-4.86-7.75.8-3.48,4.27-5.66,7.75-4.86"/>
        <path class="cls-2" d="M90.93,147.85c3.48.8,5.66,4.27,4.86,7.75-.8,3.48-4.27,5.66-7.75,4.86-3.48-.8-5.66-4.27-4.86-7.75.8-3.48,4.27-5.66,7.75-4.86"/>
        <path class="cls-2" d="M295.39,169.02c3.48.8,5.66,4.27,4.86,7.75-.8,3.48-4.27,5.66-7.75,4.86-3.48-.8-5.66-4.27-4.86-7.75.8-3.48,4.27-5.66,7.75-4.86"/>
        <path class="cls-2" d="M293.94,175.32c3.48.8,5.66,4.27,4.86,7.75-.8,3.48-4.27,5.66-7.75,4.86-3.48-.8-5.66-4.27-4.86-7.75.8-3.48,4.27-5.66,7.75-4.86"/>
        <path class="cls-2" d="M282.18,168.73c3.48.8,5.66,4.27,4.86,7.75-.8,3.48-4.27,5.66-7.75,4.86-3.48-.8-5.66-4.27-4.86-7.75.8-3.48,4.27-5.66,7.75-4.86"/>
        <path class="cls-2" d="M288.76,159.03c3.48.8,5.66,4.27,4.86,7.75-.8,3.48-4.27,5.66-7.75,4.86-3.48-.8-5.66-4.27-4.86-7.75.8-3.48,4.27-5.66,7.75-4.86"/>
        <path class="cls-2" d="M270.47,169.93c3.48.8,5.66,4.27,4.86,7.75-.8,3.48-4.27,5.66-7.75,4.86-3.48-.8-5.66-4.27-4.86-7.75.8-3.48,4.27-5.66,7.75-4.86"/>
        <path class="cls-2" d="M275.75,157.87c3.48.8,5.66,4.27,4.86,7.75-.8,3.48-4.27,5.66-7.75,4.86-3.48-.8-5.66-4.27-4.86-7.75.8-3.48,4.27-5.66,7.75-4.86"/>
        <path class="cls-2" d="M282.56,146.17c3.48.8,5.66,4.27,4.86,7.75-.8,3.48-4.27,5.66-7.75,4.86-3.48-.8-5.66-4.27-4.86-7.75.8-3.48,4.27-5.66,7.75-4.86"/>
        <path class="cls-2" d="M268.9,147.84c3.48.8,5.66,4.27,4.86,7.75-.8,3.48-4.27,5.66-7.75,4.86-3.48-.8-5.66-4.27-4.86-7.75.8-3.48,4.27-5.66,7.75-4.86"/>
        <path class="cls-2" d="M262.1,159.55c3.48.8,5.66,4.27,4.86,7.75-.8,3.48-4.27,5.66-7.75,4.86-3.48-.8-5.66-4.27-4.86-7.75.8-3.48,4.27-5.66,7.75-4.86"/>
        <path class="cls-2" d="M397.74,329.11c.25,3.56-2.44,6.65-6.01,6.9-3.56.24-6.65-2.45-6.9-6.01-.25-3.56,2.44-6.65,6.01-6.9,3.56-.25,6.65,2.44,6.9,6.01"/>
        <path class="cls-2" d="M391.29,329.55c.25,3.56-2.44,6.65-6.01,6.9-3.56.24-6.65-2.45-6.9-6.01-.25-3.56,2.44-6.65,6.01-6.9,3.56-.25,6.65,2.44,6.9,6.01"/>
        <path class="cls-2" d="M394.18,316.39c.25,3.56-2.44,6.65-6.01,6.9-3.56.24-6.65-2.45-6.9-6.01-.25-3.56,2.44-6.65,6.01-6.9,3.56-.25,6.65,2.44,6.9,6.01"/>
        <path class="cls-2" d="M405.37,319.86c.25,3.56-2.44,6.65-6.01,6.9-3.56.24-6.65-2.45-6.9-6.01-.25-3.56,2.44-6.65,6.01-6.9,3.56-.25,6.65,2.44,6.9,6.01"/>
        <path class="cls-2" d="M389.63,305.52c.25,3.56-2.44,6.65-6.01,6.9-3.56.24-6.65-2.45-6.9-6.01-.25-3.56,2.44-6.65,6.01-6.9,3.56-.25,6.65,2.44,6.9,6.01"/>
        <path class="cls-2" d="M402.71,307.08c.25,3.56-2.44,6.65-6.01,6.9-3.56.24-6.65-2.45-6.9-6.01-.25-3.56,2.44-6.65,6.01-6.9,3.56-.25,6.65,2.44,6.9,6.01"/>
        <path class="cls-2" d="M415.89,310.2c.25,3.56-2.44,6.65-6.01,6.9-3.56.24-6.65-2.45-6.9-6.01-.25-3.56,2.44-6.65,6.01-6.9,3.56-.25,6.65,2.44,6.9,6.01"/>
        <path class="cls-2" d="M410.33,297.62c.25,3.56-2.44,6.65-6.01,6.9-3.56.24-6.65-2.45-6.9-6.01-.25-3.56,2.44-6.65,6.01-6.9,3.56-.25,6.65,2.44,6.9,6.01"/>
        <path class="cls-2" d="M397.15,294.5c.25,3.56-2.44,6.65-6.01,6.9-3.56.24-6.65-2.45-6.9-6.01-.25-3.56,2.44-6.65,6.01-6.9,3.56-.25,6.65,2.44,6.9,6.01"/>
        <path class="cls-2" d="M381.79,188.77c.25,3.56-2.44,6.65-6.01,6.9-3.56.24-6.65-2.45-6.9-6.01-.25-3.56,2.44-6.65,6.01-6.9,3.56-.25,6.65,2.44,6.9,6.01"/>
        <path class="cls-2" d="M375.34,189.22c.25,3.56-2.44,6.65-6.01,6.9-3.56.24-6.65-2.45-6.9-6.01-.25-3.56,2.44-6.65,6.01-6.9,3.56-.25,6.65,2.44,6.9,6.01"/>
        <path class="cls-2" d="M378.23,176.05c.25,3.56-2.44,6.65-6.01,6.9-3.56.24-6.65-2.45-6.9-6.01-.25-3.56,2.44-6.65,6.01-6.9,3.56-.25,6.65,2.44,6.9,6.01"/>
        <path class="cls-2" d="M389.43,179.53c.25,3.56-2.44,6.65-6.01,6.9-3.56.24-6.65-2.45-6.9-6.01-.25-3.56,2.44-6.65,6.01-6.9,3.56-.25,6.65,2.44,6.9,6.01"/>
        <path class="cls-2" d="M373.69,165.19c.25,3.56-2.44,6.65-6.01,6.9-3.56.24-6.65-2.45-6.9-6.01-.25-3.56,2.44-6.65,6.01-6.9,3.56-.25,6.65,2.44,6.9,6.01"/>
        <path class="cls-2" d="M386.76,166.75c.25,3.56-2.44,6.65-6.01,6.9-3.56.24-6.65-2.45-6.9-6.01-.25-3.56,2.44-6.65,6.01-6.9,3.56-.25,6.65,2.44,6.9,6.01"/>
        <path class="cls-2" d="M399.94,169.86c.25,3.56-2.44,6.65-6.01,6.9-3.56.24-6.65-2.45-6.9-6.01-.25-3.56,2.44-6.65,6.01-6.9,3.56-.25,6.65,2.44,6.9,6.01"/>
        <path class="cls-2" d="M394.38,157.28c.25,3.56-2.44,6.65-6.01,6.9-3.56.24-6.65-2.45-6.9-6.01-.25-3.56,2.44-6.65,6.01-6.9,3.56-.25,6.65,2.44,6.9,6.01"/>
        <path class="cls-2" d="M381.2,154.16c.25,3.56-2.44,6.65-6.01,6.9-3.56.24-6.65-2.45-6.9-6.01-.25-3.56,2.44-6.65,6.01-6.9,3.56-.25,6.65,2.44,6.9,6.01"/>
        <path class="cls-2" d="M213.82,85.65c.25,3.56-2.44,6.65-6.01,6.9-3.56.24-6.65-2.45-6.9-6.01-.25-3.56,2.44-6.65,6.01-6.9,3.56-.25,6.65,2.44,6.9,6.01"/>
        <path class="cls-2" d="M207.36,86.09c.25,3.56-2.44,6.65-6.01,6.9-3.56.24-6.65-2.45-6.9-6.01-.25-3.56,2.44-6.65,6.01-6.9,3.56-.25,6.65,2.44,6.9,6.01"/>
        <path class="cls-2" d="M210.26,72.93c.25,3.56-2.44,6.65-6.01,6.9-3.56.24-6.65-2.45-6.9-6.01-.25-3.56,2.44-6.65,6.01-6.9,3.56-.25,6.65,2.44,6.9,6.01"/>
        <path class="cls-2" d="M221.45,76.4c.25,3.56-2.44,6.65-6.01,6.9-3.56.24-6.65-2.45-6.9-6.01-.25-3.56,2.44-6.65,6.01-6.9,3.56-.25,6.65,2.44,6.9,6.01"/>
        <path class="cls-2" d="M205.71,62.06c.25,3.56-2.44,6.65-6.01,6.9-3.56.24-6.65-2.45-6.9-6.01-.25-3.56,2.44-6.65,6.01-6.9,3.56-.25,6.65,2.44,6.9,6.01"/>
        <path class="cls-2" d="M218.78,63.62c.25,3.56-2.44,6.65-6.01,6.9-3.56.24-6.65-2.45-6.9-6.01-.25-3.56,2.44-6.65,6.01-6.9,3.56-.25,6.65,2.44,6.9,6.01"/>
        <path class="cls-2" d="M231.96,66.74c.25,3.56-2.44,6.65-6.01,6.9-3.56.24-6.65-2.45-6.9-6.01-.25-3.56,2.44-6.65,6.01-6.9,3.56-.25,6.65,2.44,6.9,6.01"/>
        <path class="cls-2" d="M226.4,54.16c.25,3.56-2.44,6.65-6.01,6.9-3.56.24-6.65-2.45-6.9-6.01-.25-3.56,2.44-6.65,6.01-6.9,3.56-.25,6.65,2.44,6.9,6.01"/>
        <path class="cls-2" d="M213.22,51.04c.25,3.56-2.44,6.65-6.01,6.9-3.56.24-6.65-2.45-6.9-6.01-.25-3.56,2.44-6.65,6.01-6.9,3.56-.25,6.65,2.44,6.9,6.01"/>
        <path class="cls-2" d="M338.2,122.86c.25,3.56-2.44,6.65-6.01,6.9-3.56.24-6.65-2.45-6.9-6.01-.25-3.56,2.44-6.65,6.01-6.9,3.56-.25,6.65,2.44,6.9,6.01"/>
        <path class="cls-2" d="M331.75,123.3c.25,3.56-2.44,6.65-6.01,6.9-3.56.24-6.65-2.45-6.9-6.01-.25-3.56,2.44-6.65,6.01-6.9,3.56-.25,6.65,2.44,6.9,6.01"/>
        <path class="cls-2" d="M334.64,110.14c.25,3.56-2.44,6.65-6.01,6.9-3.56.24-6.65-2.45-6.9-6.01-.25-3.56,2.44-6.65,6.01-6.9,3.56-.25,6.65,2.44,6.9,6.01"/>
        <path class="cls-2" d="M345.84,113.61c.25,3.56-2.44,6.65-6.01,6.9-3.56.24-6.65-2.45-6.9-6.01-.25-3.56,2.44-6.65,6.01-6.9,3.56-.25,6.65,2.44,6.9,6.01"/>
        <path class="cls-2" d="M330.1,99.27c.25,3.56-2.44,6.65-6.01,6.9-3.56.24-6.65-2.45-6.9-6.01-.25-3.56,2.44-6.65,6.01-6.9,3.56-.25,6.65,2.44,6.9,6.01"/>
        <path class="cls-2" d="M343.17,100.83c.25,3.56-2.44,6.65-6.01,6.9-3.56.24-6.65-2.45-6.9-6.01-.25-3.56,2.44-6.65,6.01-6.9,3.56-.25,6.65,2.44,6.9,6.01"/>
        <path class="cls-2" d="M356.35,103.95c.25,3.56-2.44,6.65-6.01,6.9-3.56.24-6.65-2.45-6.9-6.01-.25-3.56,2.44-6.65,6.01-6.9,3.56-.25,6.65,2.44,6.9,6.01"/>
        <path class="cls-2" d="M350.79,91.37c.25,3.56-2.44,6.65-6.01,6.9-3.56.24-6.65-2.45-6.9-6.01-.25-3.56,2.44-6.65,6.01-6.9,3.56-.25,6.65,2.44,6.9,6.01"/>
        <path class="cls-2" d="M337.61,88.25c.25,3.56-2.44,6.65-6.01,6.9-3.56.24-6.65-2.45-6.9-6.01-.25-3.56,2.44-6.65,6.01-6.9,3.56-.25,6.65,2.44,6.9,6.01"/>
        <path class="cls-2" d="M182.98,237.68c.25,3.56-2.44,6.65-6.01,6.9-3.56.24-6.65-2.45-6.9-6.01-.25-3.56,2.44-6.65,6.01-6.9,3.56-.25,6.65,2.44,6.9,6.01"/>
        <path class="cls-2" d="M176.53,238.12c.25,3.56-2.44,6.65-6.01,6.9-3.56.24-6.65-2.45-6.9-6.01-.25-3.56,2.44-6.65,6.01-6.9,3.56-.25,6.65,2.44,6.9,6.01"/>
        <path class="cls-2" d="M179.43,224.96c.25,3.56-2.44,6.65-6.01,6.9-3.56.24-6.65-2.45-6.9-6.01-.25-3.56,2.44-6.65,6.01-6.9,3.56-.25,6.65,2.44,6.9,6.01"/>
        <path class="cls-2" d="M190.62,228.43c.25,3.56-2.44,6.65-6.01,6.9-3.56.24-6.65-2.45-6.9-6.01-.25-3.56,2.44-6.65,6.01-6.9,3.56-.25,6.65,2.44,6.9,6.01"/>
        <path class="cls-2" d="M174.88,214.09c.25,3.56-2.44,6.65-6.01,6.9-3.56.24-6.65-2.45-6.9-6.01-.25-3.56,2.44-6.65,6.01-6.9,3.56-.25,6.65,2.44,6.9,6.01"/>
        <path class="cls-2" d="M187.95,215.65c.25,3.56-2.44,6.65-6.01,6.9-3.56.24-6.65-2.45-6.9-6.01-.25-3.56,2.44-6.65,6.01-6.9,3.56-.25,6.65,2.44,6.9,6.01"/>
        <path class="cls-2" d="M201.13,218.77c.25,3.56-2.44,6.65-6.01,6.9-3.56.24-6.65-2.45-6.9-6.01-.25-3.56,2.44-6.65,6.01-6.9,3.56-.25,6.65,2.44,6.9,6.01"/>
        <path class="cls-2" d="M195.57,206.19c.25,3.56-2.44,6.65-6.01,6.9-3.56.24-6.65-2.45-6.9-6.01-.25-3.56,2.44-6.65,6.01-6.9,3.56-.25,6.65,2.44,6.9,6.01"/>
        <path class="cls-2" d="M182.39,203.07c.25,3.56-2.44,6.65-6.01,6.9-3.56.24-6.65-2.45-6.9-6.01-.25-3.56,2.44-6.65,6.01-6.9,3.56-.25,6.65,2.44,6.9,6.01"/>
        <path class="cls-3" d="M98.17,255.05c3.32.52,6.58,1.14,9.68,2.69-1.97,7.12-8.28,19.38-14.15,22.86-2.48,1.47-4.87.86-7.41.03-3.04-1.51-8.04-7.41-9.32-10.99-.57-1.6-.41-3.37.2-4.92,1.6-4.05,6.1-6.76,9.6-8.13,3.48-1.35,7.72-2.13,11.4-1.55"/>
        <path class="cls-3" d="M117.31,164.69c3.32.52,6.58,1.14,9.68,2.69-1.97,7.12-8.28,19.38-14.15,22.86-2.48,1.47-4.87.86-7.41.03-3.04-1.51-8.04-7.41-9.32-10.99-.57-1.6-.41-3.37.2-4.92,1.6-4.05,6.1-6.76,9.6-8.13,3.48-1.35,7.72-2.13,11.4-1.55"/>
        <path class="cls-3" d="M198.11,195.52c3.32.52,6.58,1.14,9.68,2.69-1.97,7.12-8.28,19.38-14.15,22.86-2.48,1.47-4.87.86-7.41.03-3.04-1.51-8.04-7.41-9.32-10.99-.57-1.6-.41-3.37.2-4.92,1.6-4.05,6.1-6.76,9.6-8.13,3.48-1.35,7.72-2.13,11.4-1.55"/>
        <path class="cls-3" d="M278.91,161.5c3.32.52,6.58,1.14,9.68,2.69-1.97,7.12-8.28,19.38-14.15,22.86-2.48,1.47-4.87.86-7.41.03-3.04-1.51-8.04-7.41-9.32-10.99-.57-1.6-.41-3.37.2-4.92,1.6-4.05,6.1-6.76,9.6-8.13,3.48-1.35,7.72-2.13,11.4-1.55"/>
        <path class="cls-3" d="M234.26,69c3.32.52,6.58,1.14,9.68,2.69-1.97,7.12-8.28,19.38-14.15,22.86-2.48,1.47-4.87.86-7.41.03-3.04-1.51-8.04-7.41-9.32-10.99-.57-1.6-.41-3.37.2-4.92,1.6-4.05,6.1-6.76,9.6-8.13,3.48-1.35,7.72-2.13,11.4-1.55"/>
        <path class="cls-3" d="M344.82,81.76c3.32.52,6.58,1.14,9.68,2.69-1.97,7.12-8.28,19.38-14.15,22.86-2.48,1.47-4.87.86-7.41.03-3.04-1.51-8.04-7.41-9.32-10.99-.57-1.6-.41-3.37.2-4.92,1.6-4.05,6.1-6.76,9.6-8.13,3.48-1.35,7.72-2.13,11.4-1.55"/>
        <path class="cls-3" d="M368.21,155.12c3.32.52,6.58,1.14,9.68,2.69-1.97,7.12-8.28,19.38-14.15,22.86-2.48,1.47-4.87.86-7.41.03-3.04-1.51-8.04-7.41-9.32-10.99-.57-1.6-.41-3.37.2-4.92,1.6-4.05,6.1-6.76,9.6-8.13,3.48-1.35,7.72-2.13,11.4-1.55"/>
        <path class="cls-3" d="M416.05,293.33c3.32.52,6.58,1.14,9.68,2.69-1.97,7.12-8.28,19.38-14.15,22.86-2.48,1.47-4.87.86-7.41.03-3.04-1.51-8.04-7.41-9.32-10.99-.57-1.6-.41-3.37.2-4.92,1.6-4.05,6.1-6.76,9.6-8.13,3.48-1.35,7.72-2.13,11.4-1.55"/>
      </g>
    </g>
  </g>
</svg>