<?xml version="1.0" encoding="UTF-8"?>
<svg id="Layer_1" data-name="Layer 1" xmlns="http://www.w3.org/2000/svg" xmlns:xlink="http://www.w3.org/1999/xlink" viewBox="0 0 500 476.02">
  <defs>
    <style>
      .cls-1 {
        fill: none;
      }

      .cls-2 {
        clip-path: url(#clippath-1);
      }

      .cls-3 {
        fill: #9a6c29;
      }

      .cls-4 {
        clip-path: url(#clippath);
      }
    </style>
    <clipPath id="clippath">
      <rect class="cls-1" y="0" width="500" height="476.02"/>
    </clipPath>
    <clipPath id="clippath-1">
      <rect class="cls-1" y="0" width="500" height="476.02"/>
    </clipPath>
  </defs>
  <g id="Sagitarius">
    <g class="cls-4">
      <g class="cls-2">
        <path class="cls-3" d="M14.06,459.24l-2.18-1.05c-.97-1.2-.78-2.97.43-3.93l286.7-230.46c1.2-.97,2.97-.78,3.93.43.97,1.2.78,2.96-.43,3.93L15.81,458.62l-1.75.62Z"/>
        <path class="cls-3" d="M348.6,190.87l-2.19-1.05c-.97-1.21-.77-2.97.44-3.93l85.83-68.53c1.21-.97,2.97-.77,3.93.44.96,1.21.77,2.97-.44,3.93l-85.83,68.53-1.75.61Z"/>
        <path class="cls-3" d="M475.89,468.16h0c-2.64,0-5.25-.43-7.77-1.29-34.7-11.8-64.18-31.02-85.24-55.58-10.42-12.15-18.79-25.57-24.87-39.9-12.59-29.63-8.84-58.94-5.53-84.8l.39-3.05c1.18-9.14,2.4-18.6,2.74-27.86.41-11.34-1.82-30.94-21.47-34.89l-.47-.11-1.49-.38-.95-.3-1.25-.46-1.05-.45-1.04-.5-1.12-.61-.86-.53-1.12-.76-.77-.58-1.04-.86-.74-.68-.9-.9-.73-.82-.73-.89-.73-.98-.59-.88-.66-1.11-.48-.89-.57-1.18-.41-.97-.42-1.16-.35-1.13-.27-1.07-.27-1.34-.15-.95-.14-1.5-.05-.55c-.49-10.74-7.35-20.25-16.68-23.12-13.63-4.2-29.14-4.6-45.56-5.02-26.07-.67-55.61-1.44-82.97-18.39-13.23-8.2-25.22-18.51-35.64-30.66-21.06-24.55-35.56-56.62-41.94-92.72-1.12-6.34.3-12.74,3.99-18.02,3.69-5.28,9.22-8.8,15.56-9.92C112.96.12,114.37,0,115.78,0,127.49,0,137.47,8.38,139.51,19.93c7.21,40.82,26.92,73.06,55.49,90.77,16.26,10.07,35.97,10.58,58.8,11.17,18.97.49,38.58,1,58.53,7.15,22.9,7.06,41.13,26.1,47.85,49.88,22.47,10.27,38.51,31.18,42,54.89,3.04,20.65.55,40.11-1.85,58.91-2.9,22.67-5.4,42.23,2.08,59.83,13.15,30.93,42.01,55.32,81.25,68.67,12.59,4.28,19.35,18.01,15.07,30.6-3.33,9.78-12.5,16.36-22.83,16.36M115.78,5.6c-1.08,0-2.17.1-3.24.29-4.87.86-9.12,3.56-11.95,7.62-2.83,4.05-3.92,8.97-3.06,13.84,6.2,35.12,20.26,66.25,40.67,90.05,10.04,11.71,21.6,21.65,34.34,29.55,26.07,16.16,54.81,16.9,80.16,17.55,16.82.43,32.71.84,47.07,5.27,11.55,3.56,20.03,15.16,20.62,28.23l.04.42.11,1.14.11.74.2,1.03.21.82.27.87.32.89.31.75.43.91.37.68.5.84.46.69.55.75.56.68.56.63.69.7.57.53.79.66.59.45.86.58.66.4.86.47.8.39.81.35.96.35.72.23,1.09.28.34.09c17.41,3.51,26.87,18.3,26.05,40.61-.35,9.52-1.58,19.1-2.78,28.37l-.39,3.05c-3.22,25.15-6.86,53.66,5.13,81.9,5.86,13.79,13.92,26.73,23.97,38.44,20.41,23.8,49.04,42.44,82.79,53.92,1.94.66,3.95.99,5.97.99,7.93,0,14.98-5.05,17.53-12.56,3.28-9.67-1.9-20.21-11.57-23.5-40.78-13.87-70.82-39.36-84.6-71.78-8.07-19-5.48-39.26-2.48-62.71,2.36-18.45,4.8-37.52,1.87-57.41-3.27-22.24-18.57-41.83-39.93-51.12l-1.59-1.86c-5.93-22.52-22.96-40.63-44.44-47.25-19.22-5.93-38.43-6.42-57.01-6.9-23.65-.61-44.07-1.14-61.61-12.01-29.95-18.56-50.56-52.14-58.05-94.56-1.57-8.87-9.23-15.3-18.21-15.3"/>
        <path class="cls-3" d="M378.68,370.53c.2-2.6-1.76-4.87-4.35-5.07-2.6-.2-4.87,1.75-5.07,4.35-.2,2.6,1.75,4.87,4.35,5.07,2.6.2,4.87-1.75,5.07-4.35"/>
        <path class="cls-3" d="M372.98,357.42c.15-2.04-1.38-3.82-3.41-3.97-2.04-.15-3.82,1.37-3.97,3.41-.15,2.04,1.38,3.82,3.41,3.97,2.04.15,3.82-1.38,3.97-3.41"/>
        <path class="cls-3" d="M369.67,345.21c.11-1.47-.99-2.75-2.45-2.86-1.47-.11-2.75.99-2.86,2.46-.11,1.47.99,2.75,2.45,2.85,1.47.11,2.74-.99,2.86-2.45"/>
        <path class="cls-3" d="M367.91,335.32c.08-1.08-.72-2.02-1.8-2.1-1.08-.08-2.02.73-2.1,1.8-.08,1.08.73,2.02,1.8,2.1,1.08.08,2.02-.73,2.1-1.8"/>
        <rect class="cls-3" x="364.92" y="326.1" width="2.16" height="2.16" transform="translate(-124.84 318.09) rotate(-40.73)"/>
        <rect class="cls-3" x="366.19" y="319.05" width="1.71" height="1.71" transform="translate(-119.83 316.56) rotate(-40.68)"/>
        <path class="cls-3" d="M208.9,136.09c-1.84-1.86-4.83-1.87-6.68-.04-1.85,1.84-1.87,4.83-.03,6.68,1.83,1.85,4.82,1.87,6.68.04,1.85-1.83,1.87-4.83.04-6.68"/>
        <path class="cls-3" d="M193.83,133.03c-1.44-1.45-3.79-1.47-5.24-.03-1.46,1.44-1.47,3.78-.03,5.24,1.44,1.45,3.78,1.46,5.24.03,1.45-1.44,1.47-3.79.03-5.24"/>
        <path class="cls-3" d="M181.49,128.34c-1.03-1.04-2.72-1.05-3.77-.02-1.04,1.04-1.05,2.72-.02,3.77,1.04,1.05,2.72,1.05,3.77.02,1.05-1.04,1.05-2.72.02-3.77"/>
        <rect class="cls-3" x="169.95" y="123.3" width="2.77" height="2.77" transform="translate(45.86 295.44) rotate(-89.73)"/>
        <rect class="cls-3" x="163.8" y="118.72" width="2.16" height="2.16" transform="translate(44.38 284.17) rotate(-89.76)"/>
        <polygon class="cls-3" points="160.52 113.72 158.82 113.72 158.81 115.42 160.52 115.43 160.52 113.72"/>
        <path class="cls-3" d="M453.56,427.38c-1.48-2.15-4.42-2.69-6.57-1.21-2.15,1.48-2.69,4.42-1.21,6.57,1.48,2.15,4.42,2.69,6.57,1.21,2.15-1.48,2.69-4.42,1.21-6.57"/>
        <path class="cls-3" d="M439.83,421.87c-1.16-1.68-3.47-2.11-5.15-.95-1.69,1.16-2.11,3.47-.95,5.15,1.16,1.69,3.47,2.11,5.15.95,1.69-1.16,2.11-3.47.95-5.15"/>
        <path class="cls-3" d="M430.66,416.86c-.84-1.21-2.49-1.52-3.7-.68-1.21.83-1.51,2.49-.68,3.7.83,1.21,2.49,1.52,3.7.68,1.21-.83,1.52-2.49.68-3.7"/>
        <path class="cls-3" d="M422.78,412.85c-.61-.89-1.83-1.11-2.72-.5-.89.61-1.11,1.83-.5,2.72.61.89,1.83,1.11,2.72.5s1.11-1.83.5-2.72"/>
        <rect class="cls-3" x="413.76" y="408.5" width="2.16" height="2.16" transform="translate(-63.26 743.15) rotate(-79.54)"/>
        <rect class="cls-3" x="408.22" y="404.3" width="1.71" height="1.71" transform="translate(-63.35 734.24) rotate(-79.58)"/>
        <path class="cls-3" d="M111.36,38.21c1,2.12.09,4.66-2.04,5.65-2.12,1-4.66.09-5.65-2.04-1-2.12-.09-4.66,2.04-5.65,2.13-1,4.66-.09,5.65,2.04"/>
        <path class="cls-3" d="M113.17,51.09c.78,1.67.07,3.65-1.6,4.43-1.67.78-3.65.07-4.44-1.6-.78-1.67-.07-3.65,1.6-4.44,1.67-.78,3.65-.07,4.44,1.6"/>
        <path class="cls-3" d="M115,61.53c.56,1.2.05,2.62-1.15,3.19-1.2.56-2.63.05-3.19-1.15-.56-1.2-.05-2.63,1.15-3.19,1.2-.56,2.63-.05,3.19,1.15"/>
        <path class="cls-3" d="M117.25,69.84c.36.91-.09,1.93-1,2.28-.91.35-1.93-.09-2.28-1-.36-.9.09-1.93,1-2.28.9-.35,1.93.09,2.28,1"/>
        <rect class="cls-3" x="116.71" y="76.19" width="1.95" height="1.95" transform="translate(-.02 154.28) rotate(-66.48)"/>
        <rect class="cls-3" x="119.29" y="82.32" width="1.54" height="1.54" transform="translate(-4.14 159.85) rotate(-66.41)"/>
        <path class="cls-3" d="M220.29,154.62h-.12c-53.49-2.19-77.74-45.82-77.98-46.26-.74-1.36-.23-3.06,1.13-3.79,1.36-.74,3.05-.23,3.79,1.12.22.41,23.05,41.27,73.29,43.33,1.55.06,2.75,1.37,2.68,2.91-.06,1.5-1.3,2.68-2.8,2.68"/>
        <path class="cls-3" d="M463.2,450.65l-.98-.18c-55.94-21.01-78.44-61.6-79.37-63.31-.74-1.36-.23-3.06,1.12-3.79,1.36-.73,3.06-.23,3.79,1.12.22.4,22.54,40.5,76.42,60.74,1.45.54,2.18,2.16,1.64,3.61-.42,1.12-1.49,1.81-2.62,1.81"/>
        <path class="cls-3" d="M338.98,172.7c-1,0-1.96-.54-2.47-1.48-.76-1.41-19.24-34.58-69.62-27.09-1.53.23-2.95-.83-3.18-2.36-.22-1.53.83-2.95,2.36-3.18,54.43-8.09,75.18,29.61,75.38,29.99.73,1.37.21,3.06-1.15,3.79l-1.31.33Z"/>
        <path class="cls-3" d="M381.92,279.24l-.78-.11c-1.49-.43-2.34-1.98-1.91-3.47,14.19-49.11-17.24-72.37-17.56-72.6-1.25-.9-1.54-2.65-.64-3.91.9-1.26,2.65-1.54,3.91-.64.35.25,34.95,25.84,19.67,78.7-.36,1.23-1.47,2.02-2.69,2.02"/>
        <path class="cls-3" d="M483,456.97l-1.06-.49.15-1.97c1.64-1.41,3.73-4.32,4.36-5.79,1.33-3.08,1.68-6.48,1.01-9.84l1.1-1.64,1.64,1.1c.78,3.91.37,7.89-1.19,11.49-.78,1.82-3.08,5.06-5.11,6.81l-.91.34Z"/>
        <path class="cls-3" d="M476.57,456.17l-1.06-.49.15-1.97c2.01-1.73,4.48-5.18,5.27-6.99,1.6-3.71,2.03-7.82,1.22-11.86l1.1-1.64,1.65,1.1c.92,4.61.44,9.28-1.4,13.52-.93,2.14-3.62,5.95-6.01,8.01l-.91.34Z"/>
        <path class="cls-3" d="M475.62,407.18l-.6-.06c-17.35-3.82-32.8-12.58-44.69-25.35-5.98-6.41-15.19-21.87-18.57-32.95-.45-1.48.38-3.04,1.86-3.5,1.48-.45,3.04.39,3.49,1.86,3.11,10.2,11.86,24.91,17.31,30.76,11.11,11.93,25.57,20.12,41.8,23.7,1.51.33,2.46,1.83,2.13,3.33-.29,1.31-1.45,2.2-2.73,2.2"/>
        <path class="cls-3" d="M469.56,390.48l-.6-.07c-11.17-2.46-21.12-8.1-28.78-16.32-3.86-4.14-9.79-14.09-11.97-21.22-.45-1.48.38-3.04,1.86-3.49,1.48-.45,3.04.38,3.49,1.86,1.93,6.32,7.34,15.42,10.71,19.04,6.88,7.38,15.83,12.46,25.89,14.67,1.51.33,2.46,1.82,2.13,3.33-.29,1.31-1.45,2.2-2.73,2.2"/>
        <path class="cls-3" d="M224.62,114.51l-.61-.07c-17.34-3.82-32.8-12.58-44.69-25.35-5.98-6.42-15.19-21.87-18.57-32.95-.45-1.48.38-3.04,1.86-3.49,1.48-.45,3.04.38,3.49,1.86,3.11,10.2,11.86,24.92,17.31,30.77,11.12,11.93,25.57,20.12,41.8,23.69,1.51.33,2.46,1.82,2.13,3.33-.29,1.31-1.44,2.2-2.73,2.2"/>
        <path class="cls-3" d="M218.56,97.81l-.6-.07c-11.17-2.46-21.12-8.1-28.78-16.32-3.86-4.14-9.79-14.1-11.97-21.23-.45-1.48.38-3.04,1.86-3.49,1.48-.45,3.04.39,3.49,1.86,1.92,6.32,7.34,15.42,10.71,19.04,6.88,7.38,15.83,12.46,25.88,14.67,1.51.33,2.47,1.82,2.13,3.33-.29,1.31-1.44,2.2-2.73,2.2"/>
        <path class="cls-3" d="M338.57,210.71l-.49-.09c-3.74-1.39-6.91-3.83-9.16-7.04-1.13-1.62-2.69-5.28-3.11-7.93l1.16-1.6,1.6,1.16c.33,2.13,1.72,5.44,2.64,6.76,1.92,2.75,4.63,4.83,7.84,6.02l.82,1.8-1.31.91Z"/>
        <path class="cls-3" d="M344.8,208.3l-.49-.09c-4.4-1.64-8.13-4.5-10.77-8.29-1.34-1.91-3.17-6.21-3.66-9.32l1.17-1.6,1.6,1.17c.41,2.62,2.05,6.53,3.18,8.15,2.32,3.32,5.59,5.83,9.46,7.27l.82,1.8-1.31.91Z"/>
        <path class="cls-3" d="M318.4,226.54l-.49-.09c-3.74-1.39-6.91-3.83-9.16-7.04-1.14-1.62-2.69-5.28-3.11-7.93l1.16-1.6,1.6,1.17c.34,2.14,1.72,5.44,2.64,6.75,1.92,2.75,4.63,4.83,7.84,6.03l.82,1.8-1.31.91Z"/>
        <path class="cls-3" d="M324.63,224.13l-.49-.09c-4.4-1.64-8.13-4.51-10.77-8.29-1.34-1.91-3.17-6.21-3.66-9.32l1.16-1.6,1.6,1.17c.41,2.61,2.05,6.53,3.19,8.15,2.32,3.32,5.59,5.83,9.45,7.27l.82,1.8-1.31.91Z"/>
        <path class="cls-3" d="M106.36,16.97l-1.13-.57.31-1.96c3.23-2.35,7.01-3.64,10.93-3.74,1.98-.05,5.89.67,8.32,1.79l.69,1.85-1.86.69c-1.96-.9-5.51-1.55-7.09-1.53-3.35.08-6.59,1.19-9.35,3.21l-.82.27Z"/>
        <path class="cls-3" d="M104.93,23.49l-1.13-.58.31-1.96c3.8-2.76,8.25-4.29,12.86-4.4,2.34-.07,6.92.79,9.79,2.1l.69,1.86-1.86.69c-2.41-1.1-6.58-1.91-8.56-1.85-4.05.1-7.95,1.44-11.28,3.87l-.82.27Z"/>
        <path class="cls-3" d="M420.72,443.56h-.21s-353.26-26.01-353.26-26.01l-1.96-1.02-.62-2.12L106.65,76.26c.19-1.53,1.58-2.63,3.12-2.43,1.53.19,2.62,1.59,2.43,3.12l-41.61,335.25,350.32,25.78c1.54.11,2.7,1.45,2.59,3-.11,1.47-1.34,2.59-2.79,2.59"/>
        <path class="cls-3" d="M441.46,154.03l-1.03-.2-32.09-12.72c-.95-.38-1.61-1.23-1.74-2.24l-4.47-34.23c-.17-1.31.6-2.56,1.84-3l88.61-31.29c1.14-.4,2.4-.03,3.14.92.74.95.79,2.27.12,3.27l-52.04,78.24c-.53.8-1.42,1.25-2.33,1.25M411.94,136.51l28.45,11.28,46.15-69.37-78.56,27.75,3.97,30.35Z"/>
        <path class="cls-3" d="M52.21,464.58l-.5-.05c-1.52-.27-2.53-1.73-2.26-3.25l6.93-38.62-38.71,1.83c-1.54.04-2.85-1.12-2.93-2.66-.07-1.55,1.12-2.85,2.66-2.93l42.22-2,2.23.95.65,2.34-7.55,42.08c-.24,1.35-1.42,2.3-2.75,2.3"/>
        <path class="cls-3" d="M37.47,476.02l-.5-.05c-1.52-.27-2.53-1.73-2.26-3.25l6.93-38.62-38.71,1.83c-1.55.06-2.86-1.12-2.93-2.66-.07-1.55,1.12-2.85,2.66-2.93l42.22-2,2.23.95.65,2.34-7.55,42.08c-.24,1.35-1.42,2.3-2.75,2.3"/>
        <path class="cls-3" d="M422.53,110.34c-1.13,0-2.2-.7-2.62-1.82-.54-1.45.19-3.06,1.64-3.6l43.29-16.17c1.44-.55,3.06.19,3.6,1.64.54,1.45-.19,3.06-1.64,3.6l-43.29,16.17-.98.18Z"/>
        <path class="cls-3" d="M104.07,230.88l-.3-.02c-1.54-.17-2.65-1.54-2.48-3.08l11.56-107.49c.17-1.54,1.54-2.66,3.08-2.48,1.54.17,2.65,1.55,2.48,3.08l-11.56,107.49c-.16,1.43-1.37,2.5-2.78,2.5"/>
        <path class="cls-3" d="M118.47,203.44h-.28c-1.54-.17-2.66-1.54-2.5-3.08l6.45-64.13c.15-1.54,1.52-2.66,3.07-2.5,1.54.15,2.66,1.53,2.5,3.07l-6.45,64.13c-.15,1.44-1.36,2.52-2.78,2.52"/>
        <path class="cls-3" d="M342.24,425.25h-.21s-198.45-14.58-198.45-14.58c-1.54-.11-2.7-1.45-2.58-3,.11-1.54,1.44-2.71,3-2.58l198.45,14.57c1.54.11,2.7,1.45,2.59,3-.11,1.47-1.34,2.59-2.79,2.59"/>
        <path class="cls-3" d="M324.65,409.96h-.21s-160.33-11.78-160.33-11.78c-1.54-.11-2.7-1.46-2.58-3,.11-1.54,1.45-2.71,3-2.59l160.33,11.77c1.54.11,2.7,1.45,2.58,3-.11,1.47-1.33,2.59-2.79,2.59"/>
        <path class="cls-3" d="M379.3,181.77l-2.12-.97c-1.01-1.17-.88-2.94.29-3.95l27.07-23.31c1.17-1.01,2.94-.88,3.95.29,1.01,1.17.88,2.94-.3,3.95l-27.07,23.31-1.82.68Z"/>
        <path class="cls-3" d="M362.3,165.43l-2.2-1.06c-.96-1.21-.75-2.97.46-3.93l31.28-24.74c1.22-.96,2.97-.76,3.93.46.96,1.21.75,2.97-.46,3.93l-31.28,24.74-1.73.61Z"/>
        <path class="cls-3" d="M105.47,239.93c-1.84-1.86-4.83-1.87-6.68-.04-1.85,1.83-1.87,4.82-.04,6.68,1.84,1.86,4.83,1.87,6.68.03,1.85-1.83,1.87-4.82.04-6.68"/>
        <path class="cls-3" d="M104.21,252.71c-1.54-1.56-4.06-1.57-5.62-.03-1.56,1.54-1.57,4.06-.03,5.62,1.54,1.56,4.06,1.58,5.62.03,1.56-1.54,1.57-4.06.03-5.62"/>
        <path class="cls-3" d="M102.99,264.4c-1.31-1.33-3.46-1.34-4.79-.03-1.33,1.31-1.34,3.46-.03,4.79,1.31,1.33,3.46,1.34,4.79.03,1.33-1.32,1.34-3.46.03-4.79"/>
        <path class="cls-3" d="M101.56,274.13c-.95-.96-2.5-.97-3.46-.02-.96.95-.97,2.5-.02,3.46.95.96,2.5.97,3.46.02.96-.95.97-2.5.02-3.46"/>
        <path class="cls-3" d="M352.09,391.28c-.99,0-1.95-.53-2.46-1.45-14.02-25.49-17.57-61.89-10.29-105.27,3.14-18.71,4.98-36.42-6.84-47.6-1.12-1.06-1.17-2.83-.11-3.95,1.06-1.13,2.83-1.17,3.96-.11,14.96,14.15,11.23,36.37,8.51,52.59-7.07,42.12-3.73,77.27,9.68,101.64.75,1.36.25,3.06-1.1,3.8l-1.35.35Z"/>
        <path class="cls-3" d="M302.76,199.4l-2.27-1.16c-9.52-13.19-27.33-13.71-46.28-13.06-43.96,1.49-79.57-6.84-102.99-24.1-1.24-.92-1.51-2.67-.59-3.91.92-1.25,2.67-1.51,3.91-.59,22.39,16.5,56.79,24.46,99.48,23.01,16.44-.56,38.95-1.32,51.01,15.38.91,1.25.62,3-.63,3.91l-1.64.53Z"/>
        <rect class="cls-3" x="444.01" y="133.62" width="2.59" height="2.6" transform="translate(214.55 538.96) rotate(-77.12)"/>
        <rect class="cls-3" x="447.08" y="129.89" width="2.03" height="2.04" transform="translate(220.66 538.59) rotate(-77.13)"/>
        <rect class="cls-3" x="449.69" y="126.98" width="1.46" height="1.46" transform="translate(225.63 538.39) rotate(-77.13)"/>
        <rect class="cls-3" x="451.91" y="124.58" width="1.08" height="1.07" transform="translate(229.33 538.13) rotate(-77.08)"/>
        <rect class="cls-3" x="453.73" y="122.5" width=".84" height=".84" transform="translate(233.07 538.24) rotate(-77.12)"/>
        <rect class="cls-3" x="455.13" y="120.82" width=".66" height=".66" transform="translate(236.38 538.44) rotate(-77.2)"/>
        <path class="cls-3" d="M251.04,274c-2.31.71-3.61,3.17-2.89,5.48.71,2.31,3.17,3.61,5.48,2.9,2.31-.71,3.61-3.17,2.89-5.48-.71-2.31-3.17-3.61-5.48-2.89"/>
        <path class="cls-3" d="M260.23,267.39c-1.81.56-2.83,2.49-2.27,4.3.56,1.81,2.48,2.83,4.3,2.27,1.81-.56,2.83-2.48,2.27-4.3-.56-1.81-2.48-2.83-4.3-2.27"/>
        <path class="cls-3" d="M267.85,262.37c-1.3.4-2.03,1.78-1.63,3.09.4,1.3,1.78,2.03,3.09,1.63,1.31-.4,2.03-1.79,1.63-3.09-.4-1.3-1.78-2.03-3.09-1.63"/>
        <path class="cls-3" d="M274.32,258.25c-.96.3-1.5,1.31-1.2,2.27.29.96,1.31,1.49,2.27,1.2.95-.3,1.49-1.31,1.2-2.27-.3-.96-1.31-1.49-2.27-1.2"/>
        <rect class="cls-3" x="279.14" y="254.98" width="2.01" height="2.01" transform="translate(-77.07 384.07) rotate(-62.15)"/>
        <rect class="cls-3" x="283.46" y="251.91" width="1.58" height="1.58" transform="translate(-71.96 386.03) rotate(-62.16)"/>
        <path class="cls-3" d="M104.8,365.3c-2.34.64-3.71,3.05-3.07,5.38.64,2.33,3.05,3.71,5.38,3.07,2.33-.64,3.71-3.05,3.07-5.38-.64-2.34-3.05-3.71-5.38-3.07"/>
        <path class="cls-3" d="M114.2,358.98c-1.83.5-2.91,2.39-2.41,4.22.5,1.83,2.39,2.91,4.22,2.41,1.83-.5,2.91-2.39,2.41-4.22-.5-1.83-2.39-2.91-4.22-2.41"/>
        <path class="cls-3" d="M121.98,354.22c-1.31.36-2.09,1.72-1.73,3.03.36,1.32,1.72,2.09,3.03,1.73,1.31-.36,2.09-1.72,1.73-3.03-.36-1.32-1.72-2.09-3.03-1.73"/>
        <path class="cls-3" d="M128.57,350.31c-.97.26-1.54,1.26-1.27,2.23.27.97,1.26,1.54,2.23,1.27.97-.26,1.54-1.26,1.27-2.23-.26-.97-1.26-1.54-2.23-1.27"/>
        <rect class="cls-3" x="133.46" y="347.23" width="2" height="2.01" transform="translate(-234.72 293.05) rotate(-60.39)"/>
        <polygon class="cls-3" points="138.38 344 137.59 345.38 138.97 346.16 139.75 344.79 138.38 344"/>
        <path class="cls-3" d="M111.83,394.76l-2.19-1.06c-.96-1.21-.76-2.97.45-3.93l123.7-98.5c1.21-.96,2.97-.76,3.93.44.96,1.21.76,2.97-.45,3.93l-123.7,98.5-1.74.61Z"/>
      </g>
    </g>
  </g>
</svg>