<?xml version="1.0" encoding="UTF-8"?>
<svg id="Layer_1" data-name="Layer 1" xmlns="http://www.w3.org/2000/svg" xmlns:xlink="http://www.w3.org/1999/xlink" viewBox="0 0 428.01 545.32">
  <defs>
    <style>
      .cls-1 {
        fill: none;
      }

      .cls-2 {
        clip-path: url(#clippath-1);
      }

      .cls-3 {
        fill: #9a6c29;
      }

      .cls-4 {
        clip-path: url(#clippath);
      }
    </style>
    <clipPath id="clippath">
      <rect class="cls-1" y="0" width="428.01" height="545.32"/>
    </clipPath>
    <clipPath id="clippath-1">
      <rect class="cls-1" y="0" width="428.01" height="545.32"/>
    </clipPath>
  </defs>
  <g id="Scorpio">
    <g class="cls-4">
      <g class="cls-2">
        <path class="cls-3" d="M84.25,125.5h0c-2.26,0-4.79-.24-7.32-.69-12.44-2.22-24.71-10.78-32.02-22.34-4.94-7.81-6.87-18.13-5.45-29.07,1.19-9.09,4.36-18.06,10.29-29.08,2.62-4.86,8.35-14.63,17.32-25.36L82.61,1.09c1-1.15,2.68-1.43,4.01-.66,1.32.77,1.9,2.38,1.38,3.82-2.11,5.86-3.93,12.24-5.54,17.88-.75,2.61-1.46,5.12-2.16,7.43-1.16,3.82-2.1,6.82-2.92,9.43-2.03,6.45-3.25,10.34-5.07,18.21-1.06,4.6-1.4,10.58.24,13.58,1.03,1.89,4.82,4.14,17.06,4.14,4.05,0,8.21-.23,11.89-.44,1.25-.07,2.44-.14,3.56-.19,1.26-.06,2.45.64,3.01,1.78l.29.94.36,2.2c1.31,7.45,2.44,16.27.88,25.06-.38,2.15-1.14,4.4-2.32,6.88l-1.05,2.07c-1.01,1.89-2.58,3.92-4.43,5.71-3.42,3.31-8.11,5.49-13.57,6.31-1.22.18-2.56.28-3.98.28M77.38,16.79l-5.47,6.29c-8.57,10.26-14.06,19.6-16.56,24.26-5.55,10.31-8.51,18.6-9.59,26.89-1.23,9.47.37,18.29,4.52,24.85,6.39,10.09,17.03,17.56,27.76,19.48,2.17.39,4.32.59,6.2.59,1.1,0,2.13-.07,3.04-.2,4.2-.63,7.59-2.17,10.09-4.59,1.37-1.32,2.55-2.83,3.25-4.14l.92-1.81c.93-1.96,1.52-3.68,1.8-5.26,1.35-7.64.38-15.56-.8-22.36l-.68.04c-3.76.21-8.02.45-12.25.45-8.66,0-19.06-.85-22.65-7.46-3.26-6-1.47-15.33-.85-18.05,1.87-8.12,3.19-12.33,5.2-18.69.82-2.59,1.76-5.57,2.91-9.37.69-2.28,1.39-4.75,2.13-7.33.33-1.17.68-2.37,1.03-3.59"/>
        <path class="cls-3" d="M92.17,81.13c-4.97,0-8.97-.26-11.89-.78l-2.14-1.44-.37-2.55c.08-.29,7.95-29.05,12.09-73.49.11-1.23.93-2.28,2.09-2.7,1.17-.41,2.46-.12,3.33.76.94.95,9.34,11.23,13.1,76.33.1,1.73-1.2,3.22-2.92,3.35-.26.02-6.48.5-13.29.5M84.81,74.52c2.07.17,4.53.26,7.37.26,3.68,0,7.25-.15,9.68-.29-1.88-30.44-4.72-47.8-7.08-57.52-3.38,28.97-8.02,49.63-9.97,57.54"/>
        <path class="cls-3" d="M64.66,186.31l-2.53-1.25c-17.61-23.13-8.02-70.41-7.6-72.41.35-1.72,2.03-2.82,3.76-2.46,1.72.36,2.82,2.04,2.46,3.76-.1.46-9.41,46.44,6.44,67.27,1.07,1.39.79,3.39-.6,4.45l-1.92.65Z"/>
        <path class="cls-3" d="M85.18,162.81l-1.92-.65c-1.39-1.06-1.67-3.06-.6-4.45,16.14-21.21,17.4-45.55,17.41-45.79.08-1.75,1.64-3.12,3.31-3.03,1.75.08,3.11,1.56,3.03,3.31-.05,1.07-1.36,26.59-18.7,49.36l-2.53,1.25Z"/>
        <path class="cls-3" d="M90.1,189.77c-14.19,0-25.8-3.42-26.36-3.59l-2.01-1.8.1-2.7c1.07-2.07,26.88-50.62,102.01-49.72,1.76.02,3.16,1.46,3.14,3.22-.02,1.76-1.51,3.22-3.22,3.14-59.41-.77-86.69,31.88-94.11,42.78,5.47,1.2,15.73,2.94,26.5,2.07,33.43-2.67,55.82-19.61,63.89-26.77,1.31-1.17,3.32-1.04,4.49.27,1.17,1.31,1.04,3.32-.27,4.49-8.55,7.58-32.26,25.52-67.6,28.35-2.22.18-4.42.25-6.56.25"/>
        <path class="cls-3" d="M89.19,264.73h-.28c-1.49-.14-2.68-1.29-2.87-2.77-7.8-60.19,52.52-76.91,78.81-81.31,1.75-.29,3.37.88,3.66,2.61.29,1.73-.88,3.37-2.61,3.66-22.29,3.73-70.86,16.85-74.01,60.48,9.35-18.15,31.13-49.05,72.31-53.3,1.74-.18,3.31,1.09,3.49,2.83.18,1.74-1.09,3.31-2.84,3.49-54.4,5.6-72.45,61.51-72.63,62.07-.42,1.34-1.65,2.23-3.03,2.23"/>
        <path class="cls-3" d="M379.7,264.73c-1.4,0-2.66-.93-3.05-2.3-.18-.63-18.53-62.23-73.15-62.23h-1.01s-.04,0-.04,0c-1.73,0-3.15-1.4-3.17-3.13-.02-1.76,1.38-3.2,3.13-3.22h1.12c41.92,0,64.03,32.89,73.49,52.53-.87-11.22-4.68-21.13-11.4-29.56-18.86-23.71-53.96-28.86-64.27-29.87-1.75-.17-3.02-1.72-2.85-3.47.17-1.74,1.73-3.02,3.47-2.85,10.94,1.08,48.21,6.58,68.63,32.24,10.63,13.37,14.76,29.89,12.27,49.1-.2,1.5-1.41,2.65-2.91,2.76h-.24Z"/>
        <path class="cls-3" d="M357.1,292.61c-1.32,0-2.53-.82-2.99-2.1-.17-.46-17.34-46.73-57.15-51.96-1.74-.23-2.97-1.82-2.74-3.56.23-1.74,1.81-2.97,3.56-2.73,27.8,3.65,45.15,24.54,54.28,39.78-9.83-42.95-55.45-45.81-55.96-45.84-1.76-.09-3.1-1.58-3.01-3.34.09-1.76,1.61-3.08,3.34-3.02,17.76.9,63.85,15.17,63.85,69.59,0,1.54-1.11,2.86-2.63,3.13l-.55.05Z"/>
        <path class="cls-3" d="M112.85,292.61l-.55-.05c-1.52-.26-2.63-1.59-2.63-3.13,0-54.49,44.94-68.7,62.25-69.59,1.74-.07,3.25,1.26,3.34,3.02.09,1.75-1.26,3.25-3.01,3.34-.5.02-44.97,2.84-54.46,46,8.69-14.55,24.92-34.36,50.65-39.34,1.72-.34,3.39.79,3.72,2.52.33,1.72-.79,3.39-2.52,3.72-37.51,7.26-53.65,50.97-53.8,51.41-.46,1.28-1.67,2.1-2.99,2.1"/>
        <path class="cls-3" d="M334.95,320.67c-1.33,0-2.55-.84-3-2.13-.12-.35-12.84-35.87-42.89-43.76-1.7-.44-2.71-2.18-2.27-3.88.45-1.69,2.18-2.71,3.88-2.27,19.15,5.03,31.71,19.51,39.04,31.24-7.54-29.65-33.69-36.5-42.63-37.97-1.73-.29-2.9-1.92-2.62-3.65.29-1.73,1.92-2.91,3.65-2.62,24.18,4,50.01,22.35,50.01,61.87,0,1.55-1.12,2.87-2.65,3.13l-.53.05Z"/>
        <path class="cls-3" d="M131.62,320.67l-.53-.05c-1.53-.26-2.65-1.58-2.65-3.13,0-39.52,25.83-57.87,50.01-61.87,1.75-.3,3.37.89,3.66,2.62.29,1.73-.89,3.36-2.62,3.65-8.93,1.48-35.08,8.32-42.63,37.97,7.33-11.73,19.89-26.21,39.04-31.24,1.69-.44,3.44.57,3.88,2.27.44,1.7-.57,3.44-2.27,3.88-30.12,7.91-42.77,43.41-42.89,43.76-.45,1.3-1.67,2.14-3,2.14"/>
        <path class="cls-3" d="M289.05,165.44l-1.98-.69c-1.37-1.09-1.6-3.09-.5-4.46,6.08-7.63,10.55-16.66,12.59-25.42,3.68-15.86,1.32-32.99-1.16-46.14-2.12-11.24-6.75-25.26-23.99-34.02-4.17-2.12-9.38-4.14-14.9-6.28-9.49-3.68-19.26-7.47-25.9-12.54-6.64,5.07-16.42,8.86-25.9,12.54-5.52,2.14-10.73,4.16-14.9,6.28-17.24,8.76-21.87,22.78-23.99,34.02-2.47,13.15-4.84,30.28-1.16,46.14,2.03,8.76,6.5,17.79,12.59,25.42,1.09,1.38.87,3.37-.5,4.47-1.37,1.09-3.37.87-4.47-.5-6.66-8.35-11.57-18.28-13.81-27.95-3.95-17.01-1.48-34.99,1.1-48.75,2.38-12.67,7.65-28.49,27.36-38.51,4.46-2.27,9.81-4.34,15.49-6.54,10.02-3.88,20.38-7.9,26.06-13.08,1.22-1.11,3.07-1.11,4.29,0,5.68,5.19,16.04,9.2,26.06,13.08,5.68,2.2,11.03,4.28,15.49,6.54,19.71,10.01,24.97,25.84,27.36,38.51,2.59,13.76,5.05,31.74,1.1,48.75-2.24,9.67-7.15,19.59-13.81,27.95l-2.48,1.2Z"/>
        <path class="cls-3" d="M382.77,125.5c-1.42,0-2.76-.09-3.98-.28-5.46-.82-10.15-3-13.57-6.31-1.85-1.79-3.42-3.82-4.43-5.72l-1.05-2.07c-1.18-2.47-1.94-4.73-2.32-6.87-1.55-8.79-.43-17.61.88-25.07l.36-2.19.29-.94c.56-1.14,1.74-1.85,3.01-1.78,1.12.05,2.31.12,3.56.19,3.67.21,7.84.44,11.89.44,12.25,0,16.04-2.25,17.06-4.14,1.63-3,1.29-8.99.24-13.58-1.81-7.87-3.04-11.76-5.07-18.21-.82-2.61-1.77-5.62-2.92-9.43-.7-2.31-1.42-4.81-2.16-7.43-1.61-5.63-3.43-12.02-5.54-17.88-.51-1.44.06-3.04,1.38-3.82,1.32-.77,3.01-.5,4,.66l15.51,17.84c8.99,10.76,14.73,20.53,17.35,25.39,5.93,11.02,9.11,19.99,10.29,29.08,1.43,10.94-.51,21.26-5.45,29.07-7.31,11.55-19.58,20.11-32.02,22.34-2.54.45-5.07.69-7.32.69M364.47,80.78c-1.18,6.8-2.14,14.73-.79,22.36.28,1.58.87,3.3,1.8,5.26l.91,1.81c.7,1.32,1.88,2.82,3.25,4.15,2.5,2.42,5.89,3.96,10.09,4.58,2.48.37,5.8.23,9.24-.39,10.73-1.92,21.37-9.39,27.77-19.48,4.15-6.56,5.75-15.38,4.52-24.85-1.08-8.29-4.04-16.58-9.59-26.89-2.51-4.65-8-14-16.6-24.3l-5.43-6.24c.35,1.23.69,2.43,1.03,3.6.74,2.58,1.44,5.05,2.13,7.33,1.15,3.79,2.09,6.77,2.91,9.37,2,6.37,3.32,10.58,5.2,18.69.63,2.72,2.41,12.05-.85,18.05-3.59,6.61-13.99,7.46-22.65,7.46-4.23,0-8.49-.24-12.24-.45l-.69-.04Z"/>
        <path class="cls-3" d="M374.85,81.13h0c-6.81,0-13.03-.48-13.29-.5-1.73-.14-3.02-1.63-2.92-3.35,3.76-65.1,12.15-75.38,13.1-76.33.87-.88,2.17-1.18,3.33-.76,1.17.41,1.98,1.47,2.09,2.7,4.13,44.45,12.01,73.21,12.09,73.49l-.38,2.54-2.13,1.44c-2.92.51-6.92.78-11.89.78M365.17,74.49c2.43.13,5.99.29,9.68.29h0c2.83,0,5.29-.09,7.36-.26-1.94-7.91-6.58-28.57-9.96-57.54-2.36,9.72-5.2,27.07-7.08,57.51"/>
        <path class="cls-3" d="M402.36,186.31l-1.92-.65c-1.39-1.06-1.67-3.06-.6-4.45,15.87-20.85,6.53-66.8,6.44-67.27-.36-1.72.74-3.4,2.46-3.76,1.72-.37,3.4.75,3.76,2.46.42,2,10.01,49.27-7.6,72.41l-2.53,1.25Z"/>
        <path class="cls-3" d="M381.84,162.81l-2.53-1.25c-17.31-22.75-19.21-49.29-19.28-50.41-.11-1.75,1.21-3.26,2.96-3.37,1.78-.13,3.26,1.21,3.38,2.96.01.26,1.88,25.8,18,46.97,1.07,1.4.79,3.39-.6,4.45l-1.92.65Z"/>
        <path class="cls-3" d="M376.91,189.77c-2.14,0-4.33-.08-6.56-.25-35.34-2.83-59.05-20.76-67.6-28.35-1.31-1.17-1.43-3.17-.27-4.49,1.16-1.32,3.17-1.44,4.49-.27,8.07,7.16,30.46,24.1,63.89,26.77,10.81.87,21.05-.87,26.5-2.07-7.41-10.89-34.54-43.53-94.11-42.78h-.04c-1.74,0-3.16-1.4-3.18-3.14-.02-1.75,1.39-3.2,3.14-3.22h2.14c73.49-.01,98.82,47.67,99.87,49.72l.09,2.7-2.01,1.8c-.56.17-12.17,3.59-26.36,3.59"/>
        <path class="cls-3" d="M311.27,96.96c-1.75,0-3.18-1.42-3.18-3.18,0-32.1-1.17-42.06-6.23-53.29-6.75-14.93-15.66-23.62-26.49-25.82-17.12-3.47-34.55,9.94-38.89,13.58v5.31c0,1.76-1.42,3.18-3.18,3.18s-3.18-1.42-3.18-3.18v-6.76l1.02-2.34c.92-.85,22.7-20.66,45.49-16.02,12.95,2.63,23.38,12.53,31.02,29.44,5.52,12.24,6.8,22.69,6.8,55.91,0,1.76-1.42,3.18-3.18,3.18"/>
        <path class="cls-3" d="M155.44,96.96c-1.75,0-3.18-1.42-3.18-3.18,0-33.22,1.27-43.67,6.8-55.91,7.63-16.9,18.07-26.81,31.02-29.44,22.81-4.63,44.57,15.18,45.49,16.02l1.02,2.34v6.76c0,1.76-1.42,3.18-3.18,3.18s-3.18-1.42-3.18-3.18v-5.3c-4.35-3.64-21.83-17.06-38.91-13.58-10.82,2.21-19.73,10.9-26.46,25.82-5.07,11.22-6.23,21.19-6.23,53.29,0,1.76-1.42,3.18-3.18,3.18"/>
        <path class="cls-3" d="M379.91,114.01c-1.82,0-3.56-.11-5.09-.35-1.3-.21-2.19-1.43-1.98-2.73.21-1.3,1.42-2.19,2.73-1.98,5.13.81,13.66-.19,17.59-1.6,8.1-2.91,15.53-8.46,21.47-16.05.81-1.04,2.31-1.22,3.35-.41,1.04.81,1.22,2.31.41,3.35-6.5,8.3-14.66,14.38-23.61,17.6-3.41,1.22-9.47,2.18-14.86,2.18"/>
        <path class="cls-3" d="M384.42,106.2c-1.18,0-2.32-.07-3.32-.23-1.3-.21-2.19-1.43-1.98-2.73.21-1.3,1.42-2.19,2.73-1.98,3.06.49,8.35-.14,10.68-.98,4.96-1.78,9.52-5.19,13.18-9.86.81-1.04,2.31-1.22,3.35-.41,1.04.81,1.22,2.31.41,3.35-4.21,5.38-9.5,9.32-15.32,11.4-2.23.8-6.2,1.43-9.72,1.43"/>
        <path class="cls-3" d="M89.62,114.01c-5.39,0-11.45-.95-14.86-2.18-8.95-3.21-17.11-9.3-23.61-17.6-.81-1.03-.63-2.53.41-3.35,1.04-.81,2.53-.63,3.34.41,5.95,7.59,13.37,13.14,21.47,16.05,3.92,1.41,12.46,2.42,17.59,1.6,1.3-.21,2.52.68,2.73,1.98.21,1.3-.68,2.52-1.98,2.73-1.53.24-3.28.35-5.09.35"/>
        <path class="cls-3" d="M85.11,106.2c-3.52,0-7.49-.62-9.72-1.43-5.81-2.08-11.11-6.03-15.31-11.4-.81-1.04-.63-2.53.41-3.35,1.03-.81,2.53-.63,3.34.41,3.66,4.67,8.21,8.07,13.18,9.86,2.33.84,7.63,1.46,10.68.98,1.3-.21,2.52.68,2.73,1.98.2,1.3-.68,2.52-1.98,2.73-1,.16-2.14.23-3.32.23"/>
        <path class="cls-3" d="M375.95,181.78c-6.69,0-12.71-.95-15.89-1.73-16.17-3.98-32.26-11.85-49.19-24.06-1.07-.77-1.31-2.26-.54-3.33.77-1.07,2.26-1.31,3.32-.54,16.42,11.84,31.97,19.46,47.54,23.3,5.53,1.36,17.09,2.59,26.3.37,1.28-.3,2.56.48,2.87,1.76.31,1.28-.48,2.57-1.76,2.87-4.13.99-8.53,1.36-12.66,1.36"/>
        <path class="cls-3" d="M372.79,173.15c-4.76,0-9.04-.68-11.3-1.23-11.41-2.81-22.76-8.36-34.7-16.96-1.07-.77-1.31-2.26-.54-3.33.77-1.07,2.26-1.31,3.32-.54,11.43,8.24,22.24,13.54,33.05,16.2,3.8.94,11.76,1.78,18.08.26,1.28-.31,2.57.48,2.87,1.76.31,1.28-.48,2.56-1.76,2.87-2.95.71-6.08.97-9.03.97"/>
        <path class="cls-3" d="M91.62,181.78c-4.14,0-8.53-.37-12.66-1.36-1.28-.31-2.07-1.59-1.76-2.87.31-1.28,1.59-2.06,2.87-1.76,9.2,2.22,20.77.99,26.3-.37,15.56-3.83,31.11-11.45,47.54-23.3,1.07-.77,2.56-.53,3.33.54.77,1.07.53,2.56-.54,3.33-16.93,12.21-33.02,20.07-49.18,24.06-3.18.78-9.2,1.74-15.89,1.74"/>
        <path class="cls-3" d="M94.78,173.15c-2.95,0-6.08-.26-9.03-.97-1.28-.31-2.07-1.6-1.76-2.87.31-1.28,1.59-2.07,2.87-1.76,6.32,1.52,14.28.68,18.08-.26,10.81-2.66,21.62-7.96,33.05-16.2,1.07-.77,2.56-.53,3.33.54.77,1.07.53,2.56-.54,3.33-11.93,8.6-23.28,14.15-34.7,16.96-2.26.56-6.54,1.23-11.3,1.23"/>
        <path class="cls-3" d="M93,128.17c-1.29-.92-3.08-.62-4,.68-.92,1.29-.62,3.08.68,4,1.29.92,3.08.62,4-.67.92-1.29.62-3.08-.68-4"/>
        <path class="cls-3" d="M84.84,129.29c-1.01-.72-2.42-.48-3.13.53-.72,1.01-.49,2.42.53,3.14,1.01.72,2.42.48,3.14-.53.72-1.01.48-2.42-.53-3.14"/>
        <rect class="cls-3" x="75.48" y="129.53" width="2.29" height="2.29" transform="translate(-20.61 14.52) rotate(-9.55)"/>
        <rect class="cls-3" x="70.47" y="128.64" width="1.68" height="1.68" transform="translate(-20.36 13.52) rotate(-9.49)"/>
        <rect class="cls-3" x="65.63" y="126.09" width="1.31" height="1.31" transform="translate(-20.06 12.71) rotate(-9.52)"/>
        <rect class="cls-3" x="61.26" y="122.91" width="1.04" height="1.04" transform="translate(-19.74 12.05) rotate(-9.61)"/>
        <path class="cls-3" d="M375.49,128.17c1.29-.92,3.08-.62,4,.68.92,1.29.62,3.08-.67,4-1.29.92-3.08.62-4-.67-.92-1.29-.61-3.08.68-4"/>
        <path class="cls-3" d="M383.65,129.29c1.01-.72,2.42-.48,3.14.53.72,1.01.48,2.42-.53,3.14-1.01.72-2.42.48-3.14-.53-.72-1.01-.48-2.42.53-3.14"/>
        <rect class="cls-3" x="390.72" y="129.53" width="2.29" height="2.29" transform="translate(198 495.43) rotate(-80.45)"/>
        <rect class="cls-3" x="396.34" y="128.64" width="1.68" height="1.68" transform="translate(203.94 499.86) rotate(-80.5)"/>
        <rect class="cls-3" x="401.55" y="126.09" width="1.31" height="1.31" transform="translate(210.86 502.55) rotate(-80.51)"/>
        <rect class="cls-3" x="406.19" y="122.91" width="1.04" height="1.04" transform="translate(217.1 503.82) rotate(-80.39)"/>
        <path class="cls-3" d="M64.66,169.1c-1.1,0-2.08-.76-2.33-1.88-4.33-19.94-2.26-34.13-2.17-34.72.2-1.3,1.4-2.2,2.71-2,1.3.19,2.2,1.41,2,2.71-.02.14-2.02,13.97,2.12,33,.28,1.29-.54,2.56-1.82,2.83l-.51.06Z"/>
        <path class="cls-3" d="M401.8,169.1l-.51-.06c-1.28-.28-2.1-1.55-1.82-2.83,4.14-19.03,2.14-32.86,2.12-33-.2-1.3.7-2.52,2-2.71,1.31-.21,2.52.69,2.72,2,.09.59,2.16,14.78-2.17,34.73-.24,1.12-1.23,1.88-2.33,1.88"/>
        <path class="cls-3" d="M299.97,215.02c-1.46,0-2.73-.99-3.08-2.41-2.28-9.22-6.55-11.11-12.25-11.11-5.06,0-11.36,1.68-18.66,3.63-9.67,2.58-20.63,5.51-32.47,5.51s-22.8-2.93-32.47-5.51c-7.3-1.95-13.6-3.63-18.66-3.63-5.7,0-9.97,1.89-12.25,11.11-.35,1.42-1.62,2.41-3.08,2.41s-2.73-.99-3.08-2.41c-1.17-4.75-1.77-9.59-1.77-14.39,0-36.62,22.66-53.68,71.32-53.68s71.32,16.05,71.32,53.68c0,4.8-.6,9.65-1.77,14.39-.35,1.42-1.63,2.41-3.09,2.41M182.38,195.14c5.9,0,12.57,1.78,20.3,3.85,9.29,2.48,19.82,5.3,30.83,5.3s21.54-2.81,30.82-5.3c7.73-2.07,14.4-3.85,20.3-3.85s10.51,1.94,13.76,5.89l.08-2.82c0-33.61-18.82-47.32-64.96-47.32s-64.96,14.59-64.96,47.32l.08,2.82c3.25-3.95,7.82-5.89,13.76-5.89"/>
        <path class="cls-3" d="M295.38,254.87h0c-1.46,0-2.73-1-3.08-2.41-1.12-4.5-2.85-7.39-5.3-8.84-4.85-2.87-13.35-.59-23.2,2.04-9.01,2.41-19.23,5.14-30.28,5.14s-21.27-2.73-30.28-5.14c-9.84-2.63-18.35-4.91-23.2-2.04-2.46,1.45-4.19,4.34-5.3,8.84-.35,1.42-1.62,2.41-3.08,2.41s-2.73-1-3.08-2.41c-1.1-4.44-1.66-8.96-1.66-13.45,0-19.78,7.05-33.3,21.54-41.35,1.54-.85,3.47-.3,4.32,1.24.85,1.53.3,3.47-1.24,4.32-12.46,6.92-18.27,18.29-18.27,35.79l.05,2.03c1.03-1.16,2.19-2.12,3.49-2.89,7.15-4.22,16.84-1.63,28.07,1.37,8.64,2.31,18.42,4.92,28.64,4.92s20.01-2.62,28.64-4.92c11.23-3,20.93-5.59,28.07-1.37,1.3.77,2.47,1.73,3.5,2.89l.04-2.03c0-17.95-5.68-29.41-17.88-36.06-1.54-.84-2.11-2.77-1.27-4.31.84-1.54,2.77-2.11,4.31-1.27,14.45,7.89,21.19,21.12,21.19,41.64,0,4.49-.55,9.02-1.65,13.45-.35,1.42-1.62,2.41-3.08,2.41"/>
        <path class="cls-3" d="M288.47,289.13c-1.46,0-2.73-1-3.08-2.41-.97-3.9-2.46-6.4-4.55-7.63-4.18-2.47-11.66-.47-20.34,1.85-8.03,2.15-17.13,4.58-26.99,4.58s-18.97-2.43-26.99-4.58c-8.67-2.31-16.16-4.32-20.34-1.85-2.09,1.24-3.58,3.73-4.55,7.63-.35,1.42-1.62,2.41-3.08,2.41s-2.73-1-3.08-2.41c-.98-3.97-1.48-8.02-1.48-12.04,0-17.71,6.32-29.83,19.32-37.04,1.54-.85,3.47-.3,4.32,1.24.85,1.53.3,3.47-1.24,4.32-10.95,6.08-16.05,16.09-16.05,31.49v.94s2.61-2.01,2.61-2.01c6.47-3.83,15.15-1.5,25.21,1.18,7.65,2.04,16.32,4.36,25.35,4.36s17.7-2.32,25.35-4.36c10.06-2.68,18.74-5,25.21-1.18l2.6,2.01v-.94c.01-15.8-4.98-25.88-15.68-31.72-1.54-.84-2.11-2.77-1.27-4.31.84-1.54,2.77-2.11,4.31-1.27,12.79,6.98,19,19.18,19,37.3,0,4.02-.5,8.07-1.48,12.04-.35,1.42-1.63,2.41-3.08,2.41"/>
        <path class="cls-3" d="M283.47,320.7c-1.46,0-2.73-.99-3.08-2.41-.86-3.46-2.17-5.68-4-6.76-3.7-2.18-10.45-.38-18.27,1.71-7.31,1.96-15.6,4.17-24.61,4.17s-17.3-2.21-24.61-4.17c-7.81-2.09-14.57-3.89-18.26-1.71-1.83,1.08-3.14,3.29-4,6.76-.35,1.42-1.62,2.41-3.08,2.41s-2.73-.99-3.08-2.41c-.9-3.63-1.35-7.33-1.35-11.01,0-16.21,5.79-27.31,17.71-33.92,1.54-.85,3.47-.3,4.32,1.23.85,1.53.3,3.47-1.24,4.32-9.85,5.47-14.44,14.48-14.44,28.37v.19l1.93-1.42c5.99-3.54,13.94-1.41,23.14,1.05,6.94,1.85,14.8,3.95,22.97,3.95s16.03-2.1,22.97-3.95c9.2-2.46,17.15-4.58,23.14-1.05l1.94,1.42v-.19c0-14.44-4.36-23.26-14.12-28.58-1.54-.84-2.11-2.77-1.27-4.31.84-1.54,2.77-2.11,4.31-1.27,11.73,6.4,17.43,17.57,17.43,34.16,0,3.67-.46,7.38-1.35,11.01-.35,1.42-1.63,2.41-3.08,2.41"/>
        <path class="cls-3" d="M177.01,190.31c1.59-.64,2.37-2.45,1.73-4.05-.64-1.6-2.45-2.37-4.05-1.73-1.59.64-2.37,2.45-1.73,4.05.64,1.59,2.45,2.37,4.05,1.73"/>
        <path class="cls-3" d="M179.64,181.01c1.25-.5,1.86-1.92,1.36-3.18-.5-1.25-1.93-1.86-3.18-1.35-1.25.5-1.86,1.92-1.36,3.17.5,1.25,1.92,1.86,3.17,1.36"/>
        <rect class="cls-3" x="180.75" y="171.01" width="2.48" height="2.48" transform="translate(-47.96 271.82) rotate(-66.84)"/>
        <rect class="cls-3" x="185.12" y="166.54" width="1.82" height="1.82" transform="translate(-40.88 273.09) rotate(-66.96)"/>
        <rect class="cls-3" x="189.36" y="162.71" width="1.43" height="1.43" transform="translate(-34.92 273.92) rotate(-66.85)"/>
        <rect class="cls-3" x="194.04" y="160.01" width="1.12" height="1.12" transform="translate(-29.33 276.79) rotate(-66.96)"/>
        <path class="cls-3" d="M289.48,190.31c-1.59-.64-2.37-2.45-1.73-4.05.64-1.6,2.45-2.37,4.05-1.73,1.59.64,2.37,2.45,1.73,4.05-.64,1.59-2.45,2.37-4.05,1.73"/>
        <path class="cls-3" d="M286.85,181.01c-1.25-.5-1.86-1.92-1.35-3.18.5-1.25,1.92-1.86,3.17-1.35,1.25.5,1.86,1.92,1.36,3.17-.5,1.25-1.92,1.86-3.18,1.36"/>
        <rect class="cls-3" x="283.27" y="171.01" width="2.48" height="2.48" transform="translate(-44.82 125.78) rotate(-23.16)"/>
        <rect class="cls-3" x="279.55" y="166.54" width="1.82" height="1.82" transform="translate(-43.26 123.82) rotate(-23.16)"/>
        <rect class="cls-3" x="275.71" y="162.71" width="1.43" height="1.43" transform="translate(-41.94 121.43) rotate(-23.08)"/>
        <rect class="cls-3" x="271.33" y="160.01" width="1.13" height="1.12" transform="translate(-41.23 119.78) rotate(-23.14)"/>
        <path class="cls-3" d="M179.94,232.97c1.22-.66,1.68-2.18,1.02-3.39-.66-1.22-2.17-1.68-3.39-1.02-1.22.65-1.67,2.17-1.02,3.39.65,1.22,2.17,1.68,3.39,1.02"/>
        <rect class="cls-3" x="178.89" y="222.17" width="2.78" height="2.78" transform="translate(-85.74 331.77) rotate(-73.25)"/>
        <rect class="cls-3" x="181.3" y="217.07" width="2" height="2" transform="translate(-78.91 330.13) rotate(-73.32)"/>
        <rect class="cls-3" x="184.37" y="213.14" width="1.46" height="1.47" transform="translate(-72.95 329.68) rotate(-73.29)"/>
        <rect class="cls-3" x="187.4" y="209.71" width="1.15" height="1.15" transform="translate(-67.64 329.51) rotate(-73.21)"/>
        <rect class="cls-3" x="190.89" y="207.15" width=".9" height=".91" transform="translate(-62.54 331.11) rotate(-73.28)"/>
        <rect class="cls-3" x="184.24" y="265.08" width="2.54" height="2.54" transform="translate(-123.02 367.2) rotate(-73.24)"/>
        <rect class="cls-3" x="185.61" y="260.18" width="2" height="2" transform="translate(-117.2 364.81) rotate(-73.29)"/>
        <rect class="cls-3" x="187.35" y="256.52" width="1.44" height="1.44" transform="translate(-112.26 363.75) rotate(-73.36)"/>
        <rect class="cls-3" x="189.55" y="253.69" width="1.06" height="1.05" transform="translate(-108.14 362.95) rotate(-73.25)"/>
        <polygon class="cls-3" points="192.42 252.16 192.65 251.37 191.86 251.13 191.63 251.92 192.42 252.16"/>
        <rect class="cls-3" x="194.24" y="249.39" width=".65" height=".65" transform="translate(-100.63 364.05) rotate(-73.25)"/>
        <rect class="cls-3" x="188.98" y="297.93" width="2.55" height="2.54" transform="translate(-151.15 394.92) rotate(-73.21)"/>
        <rect class="cls-3" x="190.35" y="293.03" width="2" height="2" transform="translate(-145.28 392.75) rotate(-73.29)"/>
        <rect class="cls-3" x="192.08" y="289.37" width="1.43" height="1.43" transform="translate(-140.49 391.26) rotate(-73.28)"/>
        <rect class="cls-3" x="194.29" y="286.54" width="1.05" height="1.05" transform="translate(-135.89 391.93) rotate(-73.43)"/>
        <rect class="cls-3" x="196.46" y="284.08" width=".82" height=".82" transform="translate(-132.6 390.04) rotate(-73.08)"/>
        <rect class="cls-3" x="198.97" y="282.23" width=".65" height=".65" transform="translate(-128.71 391.96) rotate(-73.25)"/>
        <rect class="cls-3" x="275.21" y="298.99" width="2.55" height="2.55" transform="translate(-74.78 92.39) rotate(-16.74)"/>
        <rect class="cls-3" x="274.39" y="294.09" width="2" height="2" transform="translate(-73.63 92.34) rotate(-16.82)"/>
        <polygon class="cls-3" points="273.46 292.04 273.04 290.67 274.42 290.26 274.83 291.63 273.46 292.04"/>
        <rect class="cls-3" x="271.39" y="287.6" width="1.06" height="1.06" transform="translate(-71.51 90.61) rotate(-16.75)"/>
        <rect class="cls-3" x="269.45" y="285.14" width=".83" height=".82" transform="translate(-70.81 89.83) rotate(-16.74)"/>
        <rect class="cls-3" x="267.12" y="283.3" width=".65" height=".65" transform="translate(-69.8 88.09) rotate(-16.58)"/>
        <path class="cls-3" d="M277.78,349.95c-1.46,0-2.73-1-3.08-2.41-.74-2.97-1.84-4.86-3.38-5.77-3.14-1.86-9.05-.28-15.91,1.55-6.5,1.74-13.87,3.71-21.9,3.71s-15.4-1.97-21.9-3.71c-6.85-1.83-12.76-3.41-15.91-1.55-1.53.91-2.64,2.79-3.37,5.77-.35,1.42-1.63,2.41-3.08,2.41s-2.73-1-3.08-2.41c-.8-3.25-1.21-6.56-1.21-9.84,0-14.51,5.19-24.45,15.88-30.38,1.53-.85,3.47-.3,4.32,1.24.85,1.54.3,3.47-1.24,4.32-8.46,4.7-12.47,12.4-12.6,24.22l1.17-.79c5.44-3.21,12.55-1.31,20.78.89,6.13,1.64,13.07,3.49,20.26,3.49s14.14-1.85,20.26-3.49c8.23-2.2,15.35-4.1,20.78-.89l1.17.79c-.12-12.29-3.93-19.83-12.32-24.41-1.54-.84-2.11-2.77-1.27-4.31.84-1.54,2.77-2.11,4.31-1.27,10.52,5.74,15.63,15.74,15.63,30.59,0,3.28-.41,6.6-1.21,9.84-.35,1.42-1.63,2.41-3.08,2.41"/>
        <rect class="cls-3" x="194.04" y="329.41" width="2.25" height="2.26" transform="translate(-177.5 422.53) rotate(-73.31)"/>
        <rect class="cls-3" x="195.26" y="325.06" width="1.77" height="1.77" transform="translate(-172.43 420.12) rotate(-73.29)"/>
        <rect class="cls-3" x="196.79" y="321.82" width="1.27" height="1.27" transform="translate(-168.28 418.44) rotate(-73.23)"/>
        <rect class="cls-3" x="198.75" y="319.31" width=".93" height=".93" transform="translate(-164.38 418.47) rotate(-73.26)"/>
        <rect class="cls-3" x="200.68" y="317.13" width=".73" height=".73" transform="translate(-161.16 417.65) rotate(-73.11)"/>
        <rect class="cls-3" x="202.9" y="315.5" width=".58" height=".58" transform="translate(-157.84 419.04) rotate(-73.2)"/>
        <rect class="cls-3" x="270.47" y="330.35" width="2.26" height="2.26" transform="translate(-84.2 92.62) rotate(-16.8)"/>
        <rect class="cls-3" x="269.74" y="326.01" width="1.77" height="1.77" transform="translate(-82.55 91.59) rotate(-16.71)"/>
        <rect class="cls-3" x="268.7" y="322.76" width="1.27" height="1.27" transform="translate(-81.75 91.3) rotate(-16.74)"/>
        <rect class="cls-3" x="267.08" y="320.25" width=".94" height=".94" transform="translate(-81.52 91.38) rotate(-16.86)"/>
        <rect class="cls-3" x="265.36" y="318.07" width=".73" height=".73" transform="translate(-80.42 89.97) rotate(-16.73)"/>
        <rect class="cls-3" x="263.29" y="316.44" width=".58" height=".58" transform="translate(-79.5 88.5) rotate(-16.6)"/>
        <path class="cls-3" d="M270.72,376.97h-.2c-1.46-.1-2.66-1.17-2.92-2.61-.45-2.48-1.24-4.08-2.42-4.88-2.46-1.67-7.57-.65-13.49.54-5.73,1.15-12.24,2.46-19.22,2.02-6.99-.44-13.27-2.55-18.81-4.41-5.72-1.92-10.66-3.58-13.32-2.23-1.27.65-2.25,2.13-3.01,4.54-.44,1.39-1.79,2.3-3.23,2.22-1.46-.09-2.67-1.17-2.93-2.6-.52-2.88-.7-5.79-.52-8.67.77-12.21,5.71-20.08,15.55-24.76,1.58-.75,3.49-.08,4.24,1.5.75,1.58.08,3.48-1.5,4.24-7.39,3.51-10.98,8.96-11.84,18.06l.35-.19c5.03-2.56,11.14-.51,18.22,1.87,5.17,1.74,11.03,3.71,17.19,4.1,6.14.39,12.21-.83,17.57-1.91,7.32-1.47,13.64-2.74,18.31.43l.32.23c.26-10.03-3.64-18.76-10.36-22.99-1.48-.93-1.93-2.9-.99-4.38.94-1.49,2.9-1.93,4.38-.99,8.99,5.66,14.07,17.21,13.26,30.13-.18,2.87-.72,5.75-1.6,8.53-.42,1.33-1.65,2.22-3.03,2.22"/>
        <rect class="cls-3" x="199.33" y="354.32" width="1.95" height="1.95" transform="translate(-202.52 419.25) rotate(-69.61)"/>
        <rect class="cls-3" x="200.63" y="350.62" width="1.53" height="1.53" transform="translate(-198.17 417.6) rotate(-69.59)"/>
        <polygon class="cls-3" points="203.01 349.15 203.4 348.12 202.37 347.74 201.98 348.77 203.01 349.15"/>
        <rect class="cls-3" x="203.97" y="345.83" width=".81" height=".81" transform="translate(-191.32 417.45) rotate(-69.65)"/>
        <polygon class="cls-3" points="206.26 344.77 206.48 344.17 205.89 343.95 205.67 344.54 206.26 344.77"/>
        <rect class="cls-3" x="207.77" y="342.75" width=".5" height=".5" transform="translate(-185.77 419.45) rotate(-69.75)"/>
        <rect class="cls-3" x="265.24" y="359.28" width="1.95" height="1.95" transform="translate(-75.03 70.07) rotate(-13.16)"/>
        <rect class="cls-3" x="264.86" y="355.48" width="1.53" height="1.53" transform="translate(-74.06 69.75) rotate(-13.15)"/>
        <rect class="cls-3" x="264.15" y="352.61" width="1.1" height="1.1" transform="translate(-73.48 69.58) rotate(-13.17)"/>
        <rect class="cls-3" x="262.9" y="350.35" width=".81" height=".81" transform="translate(-72.84 69.03) rotate(-13.14)"/>
        <polygon class="cls-3" points="261.61 349.06 261.47 348.45 262.09 348.3 262.23 348.92 261.61 349.06"/>
        <rect class="cls-3" x="259.84" y="346.84" width=".5" height=".5" transform="translate(-71.65 67.68) rotate(-13.05)"/>
        <path class="cls-3" d="M265.48,399.98h-.26c-1.45-.13-2.64-1.23-2.88-2.67-.49-3.04-1.51-3.76-1.85-3.99-1.96-1.38-6.54-.55-11.38.33-5.01.91-10.69,1.95-16.8,1.45-6.11-.5-11.54-2.43-16.35-4.14-4.64-1.65-9.02-3.21-11.18-2.16-.37.18-1.48.72-2.47,3.64-.46,1.38-1.81,2.27-3.27,2.16-1.45-.12-2.64-1.22-2.88-2.66-.41-2.54-.52-5.11-.32-7.62.89-11,5.66-18.54,14.17-22.4,1.6-.72,3.48-.02,4.21,1.58.72,1.6.02,3.48-1.58,4.21-5.94,2.7-9.23,7.55-10.26,15.2,4.47-1.94,9.69-.08,15.71,2.07,4.43,1.58,9.46,3.36,14.73,3.79,5.27.43,10.52-.53,15.15-1.37,6.28-1.14,11.73-2.14,15.83.49.25-8.7-2.64-16.02-7.75-19.37-1.47-.96-1.88-2.93-.92-4.4.96-1.47,2.94-1.87,4.4-.92,7.55,4.95,11.47,15.09,10.49,27.13-.2,2.52-.72,5.04-1.54,7.47-.44,1.3-1.66,2.17-3.01,2.17"/>
        <rect class="cls-3" x="203.88" y="378.81" width="1.69" height="1.69" transform="translate(-223.44 431.87) rotate(-68.62)"/>
        <rect class="cls-3" x="205.06" y="375.62" width="1.33" height="1.33" transform="translate(-219.54 431.64) rotate(-68.75)"/>
        <rect class="cls-3" x="206.42" y="373.27" width=".95" height=".95" transform="translate(-216.58 429.97) rotate(-68.59)"/>
        <rect class="cls-3" x="208.05" y="371.51" width=".7" height=".7" transform="translate(-213.98 429.35) rotate(-68.48)"/>
        <polygon class="cls-3" points="210.05 370.62 210.26 370.11 209.74 369.91 209.55 370.42 210.05 370.62"/>
        <polygon class="cls-3" points="211.73 369.39 211.89 368.99 211.48 368.84 211.33 369.24 211.73 369.39"/>
        <rect class="cls-3" x="260.94" y="384.15" width="1.69" height="1.69" transform="translate(-75.19 63.74) rotate(-12.15)"/>
        <rect class="cls-3" x="260.67" y="380.84" width="1.33" height="1.33" transform="translate(-74.38 63.48) rotate(-12.14)"/>
        <rect class="cls-3" x="260.11" y="378.34" width=".96" height=".95" transform="translate(-74.41 63.88) rotate(-12.24)"/>
        <rect class="cls-3" x="259.06" y="376.36" width=".7" height=".7" transform="translate(-72.91 62.44) rotate(-12.05)"/>
        <polygon class="cls-3" points="257.98 375.21 257.86 374.68 258.4 374.56 258.51 375.1 257.98 375.21"/>
        <polygon class="cls-3" points="256.52 373.74 256.43 373.32 256.85 373.22 256.94 373.65 256.52 373.74"/>
        <rect class="cls-3" x="279.95" y="265.08" width="2.54" height="2.54" transform="translate(-64.99 92.66) rotate(-16.8)"/>
        <rect class="cls-3" x="279.13" y="260.18" width="2" height="2" transform="translate(-63.27 91.57) rotate(-16.71)"/>
        <rect class="cls-3" x="277.96" y="256.52" width="1.43" height="1.43" transform="translate(-62 90.6) rotate(-16.64)"/>
        <polygon class="cls-3" points="276.3 254.88 276 253.87 277.01 253.56 277.31 254.57 276.3 254.88"/>
        <polygon class="cls-3" points="274.32 252.16 274.08 251.37 274.87 251.13 275.11 251.92 274.32 252.16"/>
        <polygon class="cls-3" points="271.96 250.12 271.77 249.5 272.39 249.31 272.58 249.93 271.96 250.12"/>
        <path class="cls-3" d="M286.93,232.97c-1.22-.66-1.68-2.18-1.02-3.39.65-1.22,2.17-1.68,3.39-1.02,1.22.65,1.67,2.17,1.02,3.39-.66,1.22-2.17,1.68-3.39,1.02"/>
        <rect class="cls-3" x="285.2" y="222.17" width="2.78" height="2.78" transform="translate(-52.27 92.07) rotate(-16.75)"/>
        <rect class="cls-3" x="283.57" y="217.07" width="2" height="2" transform="translate(-50.61 90.83) rotate(-16.68)"/>
        <rect class="cls-3" x="281.03" y="213.14" width="1.47" height="1.47" transform="translate(-49.76 90.48) rotate(-16.79)"/>
        <rect class="cls-3" x="278.32" y="209.71" width="1.15" height="1.15" transform="translate(-48.85 89.52) rotate(-16.79)"/>
        <rect class="cls-3" x="275.07" y="207.15" width=".91" height=".9" transform="translate(-48.09 88.07) rotate(-16.72)"/>
        <path class="cls-3" d="M231.53,73.72c0-1.64,1.33-2.97,2.98-2.97s2.98,1.33,2.98,2.97-1.33,2.98-2.98,2.98-2.98-1.33-2.98-2.98"/>
        <path class="cls-3" d="M232.22,65.86c0-1.26,1.02-2.28,2.28-2.28s2.28,1.02,2.28,2.28-1.02,2.28-2.28,2.28-2.28-1.02-2.28-2.28"/>
        <path class="cls-3" d="M232.65,59.02c0-1.03.83-1.86,1.86-1.86s1.86.83,1.86,1.86-.83,1.86-1.86,1.86-1.86-.83-1.86-1.86"/>
        <rect class="cls-3" x="233.58" y="52.24" width="1.85" height="1.85" transform="translate(31.1 181.39) rotate(-45)"/>
        <path class="cls-3" d="M234.62,136.05c-1.32,0-2.38-1.07-2.38-2.38v-48.79c0-1.32,1.07-2.38,2.38-2.38s2.38,1.07,2.38,2.38v48.79c0,1.32-1.07,2.38-2.38,2.38"/>
        <path class="cls-3" d="M225.88,127.54c-1.31,0-2.38-1.07-2.38-2.38v-31.77c0-1.32,1.07-2.38,2.38-2.38s2.38,1.07,2.38,2.38v31.77c0,1.32-1.07,2.38-2.38,2.38"/>
        <path class="cls-3" d="M244.3,127.54c-1.32,0-2.38-1.07-2.38-2.38v-31.77c0-1.32,1.07-2.38,2.38-2.38s2.38,1.07,2.38,2.38v31.77c0,1.32-1.07,2.38-2.38,2.38"/>
        <path class="cls-3" d="M369.54,67.05c0-1.64,1.33-2.97,2.98-2.97s2.98,1.33,2.98,2.97-1.33,2.98-2.98,2.98-2.98-1.33-2.98-2.98"/>
        <path class="cls-3" d="M370.23,59.19c0-1.26,1.02-2.28,2.28-2.28s2.28,1.02,2.28,2.28-1.02,2.28-2.28,2.28-2.28-1.02-2.28-2.28"/>
        <path class="cls-3" d="M370.65,52.35c0-1.03.83-1.86,1.86-1.86s1.86.83,1.86,1.86-.83,1.86-1.86,1.86-1.86-.83-1.86-1.86"/>
        <rect class="cls-3" x="371.59" y="45.57" width="1.84" height="1.84" transform="translate(76.42 277.26) rotate(-45.05)"/>
        <path class="cls-3" d="M91.37,67.05c0-1.64,1.33-2.97,2.98-2.97s2.98,1.33,2.98,2.97-1.33,2.98-2.98,2.98-2.98-1.33-2.98-2.98"/>
        <path class="cls-3" d="M92.06,59.19c0-1.26,1.02-2.28,2.28-2.28s2.28,1.02,2.28,2.28-1.02,2.28-2.28,2.28-2.28-1.02-2.28-2.28"/>
        <path class="cls-3" d="M92.48,52.35c0-1.03.83-1.86,1.86-1.86s1.86.83,1.86,1.86-.83,1.86-1.86,1.86-1.86-.83-1.86-1.86"/>
        <rect class="cls-3" x="93.42" y="45.57" width="1.84" height="1.84" transform="translate(-5.22 80.41) rotate(-45.05)"/>
        <path class="cls-3" d="M151.94,545.32c-38.18,0-73.99-20.13-109.13-61.22l-.13-2.94,3.52-4.9.28-.32,6.16-5.96,3.16-.14c.6.48,59.89,48.15,102.64,28.68,27.88-12.7,43.06-50.92,45.09-113.6.04-1.32,1.18-2.31,2.46-2.3,1.32.04,2.35,1.14,2.31,2.46-2.1,64.65-18.21,104.28-47.89,117.79-8.03,3.65-16.51,5.17-25.04,5.17-35.86,0-72.59-26.74-80.92-33.18l-4.5,4.36-2.3,3.21c37.36,43.16,75.32,61.97,115.98,57.49,81.01-8.91,95.64-148.34,95.78-149.75.13-1.31,1.3-2.26,2.61-2.14,1.31.13,2.27,1.3,2.14,2.61-.04.36-3.69,36.4-17.63,73.1-18.64,49.06-47.12,77.05-82.37,80.92-4.1.45-8.17.68-12.22.68"/>
        <path class="cls-3" d="M237.55,425.74c-24.04,0-34.81-19.41-34.94-19.65-.62-1.16-.19-2.61.97-3.23,1.16-.62,2.6-.19,3.23.97.59,1.08,14.66,26.15,48.26,13.73,1.24-.45,2.61.18,3.06,1.41s-.18,2.61-1.41,3.06c-7.15,2.64-13.53,3.71-19.18,3.71"/>
        <path class="cls-3" d="M233.29,451.15c-25.77,0-33.49-21.59-33.58-21.85-.43-1.25.24-2.6,1.49-3.03,1.24-.43,2.59.24,3.02,1.48.38,1.09,9.71,26.65,44.8,16.08,1.26-.37,2.59.34,2.97,1.59.38,1.26-.34,2.59-1.6,2.97-6.43,1.93-12.1,2.75-17.1,2.75"/>
        <path class="cls-3" d="M229.36,476.14c-25.53,0-34.39-23.38-34.48-23.65-.45-1.24.19-2.61,1.42-3.06,1.24-.45,2.6.19,3.05,1.42.4,1.08,10.15,26.46,40.32,19.22,1.29-.31,2.57.48,2.87,1.76.31,1.28-.48,2.56-1.76,2.87-4.14.99-7.94,1.43-11.43,1.43"/>
        <path class="cls-3" d="M222.33,506.73h-.22c-30.51-2.81-35.44-35.99-35.49-36.33-.18-1.3.73-2.51,2.03-2.69,1.3-.18,2.51.73,2.69,2.03.17,1.21,4.49,29.77,31.2,32.22,1.31.12,2.28,1.28,2.16,2.59-.12,1.24-1.15,2.17-2.37,2.17"/>
        <path class="cls-3" d="M195.82,533.28l-1.61-.63c-23.5-21.49-20.83-42.82-20.7-43.72.18-1.3,1.4-2.21,2.69-2.03,1.3.18,2.21,1.38,2.03,2.68-.04.27-2.31,19.89,19.2,39.55l.15,3.37-1.76.78Z"/>
        <path class="cls-3" d="M165.73,544.43l-1.93-.99c-15.44-21.37-8.96-40.59-8.68-41.4.43-1.24,1.8-1.89,3.03-1.46,1.24.43,1.9,1.79,1.46,3.03-.26.77-5.86,17.8,8.05,37.03.77,1.07.53,2.56-.54,3.33l-1.39.45Z"/>
        <path class="cls-3" d="M131.58,542.13l-2.15-1.35c-9.36-19.4,4.38-36.1,4.97-36.8.85-1.01,2.35-1.14,3.36-.29,1.01.85,1.14,2.35.3,3.36-.51.61-12.33,15.09-4.33,31.67.57,1.18.07,2.61-1.11,3.18l-1.04.24Z"/>
        <path class="cls-3" d="M104.19,533.93l-2.2-1.47c-7.29-17.67,9.24-31.34,9.4-31.47,1.02-.83,2.52-.67,3.35.35.83,1.02.67,2.52-.35,3.35-.59.49-13.92,11.61-8,25.96.5,1.22-.08,2.61-1.3,3.11l-.91.18Z"/>
        <path class="cls-3" d="M82.18,520.3l-2.21-1.48c-5.89-14.27,7.52-26.27,8.1-26.77l3.36.22-.21,3.36c-.16.14-11.41,10.29-6.84,21.37.5,1.22-.08,2.61-1.29,3.11l-.91.18Z"/>
        <path class="cls-3" d="M44.62,484.93l-1.13-.29c-.58-.31-58.07-32.26-39.97-106.75.28-1.14,1.34-1.91,2.53-1.81,1.17.11,2.09,1.05,2.17,2.23.05.73,5,72.55,47.05,91.2l1.36,1.67-.55,2.09-9.68,10.86-1.78.8ZM5.43,394.31c-5.96,53.66,30.55,80,38.73,85.18l6.26-7.02c-30.19-15.53-41.14-55.69-44.98-78.15"/>
      </g>
    </g>
  </g>
</svg>