<?xml version="1.0" encoding="UTF-8"?>
<svg id="Layer_1" xmlns="http://www.w3.org/2000/svg" version="1.1" viewBox="0 0 360.01 543.88">
  <!-- Generator: Adobe Illustrator 30.5.1, SVG Export Plug-In . SVG Version: 2.1.4 Build 3)  -->
  <defs>
    <style>
      .st0 {
        fill: #f1d380;
      }
    </style>
  </defs>
  <path class="st0" d="M180.9,147.59c-19.23-1.06-31.5,11.95-33.13,13.74,6.42-2.21,15.15-4.45,25.65-5.04,15.46-.87,28.01,2.24,35.88,4.89-2.03-2.22-12.03-12.69-28.4-13.59h0Z"/>
  <path class="st0" d="M358.56,60.93c-3.47-20.47-16.11-34.08-23.34-40.37-20.65-17.98-45.34-18.58-54.99-18.01-1.45.09-2.63,1.23-2.75,2.68-.12,1.45.84,2.77,2.26,3.1,18.5,4.29,32.67,16.75,36.99,32.5,2.38,8.69,1.32,16.72-.29,22.5-5.39-.67-10.63-2.05-15.59-4.12-4.12-1.71-16.67-6.92-25.64-20.28-9.28-13.83-9.42-28.31-8.67-35.7.15-1.49-.84-2.85-2.31-3.16-1.46-.31-2.93.53-3.4,1.95-3.77,11.41-8.57,34.17,1.6,58.5,2.92,6.99,12.66,27.02,31.7,37.91-.73,9.37-4.76,13.43-7.73,16.4l-.17.17c-2.98,2.99-5.82,5.04-8.56,7.03-2.06,1.49-4.04,2.93-5.97,4.66-.11-.03-.22-.06-.34-.08-3.96-.64-8-1.03-12.01-1.17-8.04-.27-19.05-.64-30.57,4.55-5.1,2.3-9.84,5.49-14.1,9.48-1.74-2.83-3.92-5.88-6.48-9.47-.6-.84-1.22-1.71-1.86-2.6.99-3.16.59-6.09.48-6.88-.7-5.04-3.62-8.03-4.58-8.98-6.21-6.18-15.09-3.93-15.13-3.48-.03.42,7.55-.66,11.95,4.92,2.36,2.99,3.99,8.13,2.21,10.6-1.42,1.96-4.67,1.77-6.42,1.27-1.42-.4-2.41-1.16-2.88-1.53-2.33-1.81-2.46-3.56-3.98-4.83-.78-.65-1.96-1.21-3.82-1.14-1.81.07-3.44,1.27-4.21,3.07-.76-1.8-2.4-3-4.21-3.07-1.86-.07-3.04.49-3.82,1.14-1.53,1.28-1.66,3.02-3.98,4.83-.47.36-1.46,1.12-2.88,1.53-1.75.5-5,.69-6.42-1.27-1.78-2.46-.15-7.6,2.21-10.6,4.4-5.58,11.99-4.49,11.95-4.92-.03-.46-8.92-2.7-15.13,3.48-.96.95-3.88,3.94-4.58,8.98-.11.82-.54,3.91.58,7.19-3.31,3.58-6.26,7.39-8.79,11.41-4.16-3.82-8.77-6.9-13.73-9.13-11.52-5.19-22.53-4.82-30.57-4.55-4.01.13-8.06.53-12.01,1.17-.11.02-.23.05-.34.08-1.93-1.73-3.91-3.17-5.97-4.66-2.74-1.98-5.57-4.04-8.56-7.03l-.17-.18c-2.97-2.97-7-7.03-7.73-16.4,19.04-10.9,28.78-30.92,31.7-37.91,10.17-24.33,5.37-47.09,1.61-58.5-.47-1.42-1.93-2.26-3.4-1.95-1.46.31-2.46,1.67-2.31,3.16.75,7.4.61,21.87-8.67,35.7-8.97,13.37-21.52,18.57-25.64,20.28-4.97,2.06-10.2,3.44-15.59,4.12-1.61-5.78-2.67-13.81-.29-22.5,4.32-15.75,18.5-28.21,36.99-32.5,1.42-.33,2.38-1.65,2.26-3.1-.12-1.45-1.29-2.59-2.75-2.68-9.65-.58-34.34.03-54.99,18.01C17.55,26.85,4.9,40.46,1.44,60.93,0,69.36-2.38,83.48,6.09,94.25c1.16,1.47,2.43,2.76,3.79,3.9v.44c.09.9.21,1.82.37,2.72h0c1.28,7.2,5.5,14.55,12.53,21.86,16.26,16.9,36.47,24.84,40.6,25.9,1.32.34,8.39,2.06,15.47,2.06,1.16,0,2.32-.05,3.46-.16,5.79,1.38,11.52,1.79,17.02,1.22,3.62-.37,6.43-1.09,8.92-1.72,3.68-.94,6.58-1.68,11.17-1.22,2.68.27,6.01.6,9.24,2.75,4.58,3.05,5.59,7.91,6.14,10.52.02.12.05.22.07.33-.22,1.06-.39,2.12-.53,3.2-.02.13-.02.25-.02.38,0,1.46.41,2.75.77,3.9.26.81.5,1.58.5,2.13,0,.11,0,.22.02.33-.02.06-.04.1-.07.17-.62,1.52-1.31,3.26-2.03,5.16l-33.17-6.24c-2.42-.51-4.95,0-6.98,1.42l-28.07,19.5c-2.42,1.68-5.41,2.35-8.31,1.85l-12.49-2.12c-1.44-.25-2.92.09-4.12.93l-10.32,7.22,9.95-2.42c1.04-.25,2.13-.2,3.15.15l14.42,5.03c3.08,1.08,6.48.76,9.32-.86l26.33-15.1c2.28-1.31,5.01-1.55,7.49-.67l27.06,8.98c-1.53,5.54-2.94,11.61-4.02,17.99l-38.98.43c-2.09.02-4.1.83-5.62,2.27l-27.92,26.29c-1.52,1.43-3.51,2.27-5.6,2.37l-16.36.75c-1.46.07-2.84.66-3.9,1.66l-9.71,9.2,10.53-4.53c.95-.41,1.99-.57,3.01-.46l19.39,1.96c2.27.23,4.53-.43,6.32-1.85l27.55-21.87c1.71-1.36,3.89-1.99,6.06-1.76l33.26,3.79c-.28,7.09.2,14.73,1.42,22.87l-38.68,3.4c-2.29.22-4.41,1.28-5.97,2.96l-25.2,27.23c-1.44,1.56-3.38,2.56-5.49,2.83l-17.16,2.23c-.79.1-1.51.48-2.05,1.06l-9.54,10.37,10.72-5.57c.49-.26,1.04-.39,1.59-.38l20.13.25c2.3.03,4.53-.82,6.23-2.37l25.2-23c1.77-1.61,4.08-2.49,6.47-2.45l37.26.62c1.19,4.7,2.61,9.54,4.23,14.51l-36.32,12.49c-1.49.51-2.74,1.55-3.52,2.91l-18.37,32.1c-.87,1.53-2.25,2.7-3.9,3.33l-15.61,5.94c-1.26.48-2.31,1.38-2.97,2.55l-6.23,10.97,8.52-7.24c.7-.6,1.54-1.02,2.44-1.23l19.41-4.49c1.84-.43,3.46-1.53,4.54-3.08l19.57-28.29c.92-1.34,2.31-2.28,3.9-2.63l33.99-7.91s.07.04.1.06c3.74,9.56,7.55,17.9,10.65,24.34-1.61,3.87-3.08,21.62.04,35.13.65,2.84,2.5,5.31,5.06,6.77,1.7.97,3.69,2.26,5.8,3.7-1.68,4.84-5.36,15.72-.99,24.23.52,1.02,1.1,1.94,1.76,2.83-1.18,4.99-3.75,16.72.27,26.46.09.22.19.44.28.65-2.9,4.53-8.83,14.15-7.51,23.46.12.88.29,1.71.5,2.52-.06.06-.11.11-.17.17-3.98,3.93-12.19,12.06-12.87,21.42-.15.13-.3.26-.48.4-3.53,2.96-11.34,9.5-14.01,17.85-.32.1-.73.23-1.24.38-4.77,1.42-15.78,4.68-21.25,12.47-4.28-1.53-12.3-4.2-19.89-3.3-.99-4.39-3.11-10.92-9.03-16.13-2.08-1.83-4.15-3.06-6.96-4.26.13-4.74.19-14.6-4.62-22.72,2.63-3.64,8-11.56,9.64-17.8.96-3.68,1.08-6.71.82-11.39,2.5.67,5.03,1,7.54,1,5.71,0,11.26-1.71,15.81-5.05,3.99-2.93,6.77-6.66,9.46-10.26,1.25-1.68,2.43-3.26,3.73-4.78,3.64-4.25,7.62-6.66,12.15-7.35.21-.03.44-.07.69-.11.79-.13,3.14-.52,3.89-.21.87,1.28,2.61,1.67,3.95.85,1.38-.84,1.82-2.65.98-4.03h0c-2-3.28-4.57-5.87-7.65-7.69-10.83-6.41-24.64-6.41-31.92-5.83-13.16,1.04-23.49,7.76-28.35,18.43-1.26,2.76-2.15,5.65-2.68,8.64-4.32.39-8.6,2.48-10.7,3.51-9.76,4.78-14.86,12.92-17.03,17.34-4.41,8.99-4.4,17.6-3.61,23.24h.06c-1.86,4.58-2.48,9.22-1.85,13.82v.07c1.37,10.02,5.27,18.09,12.21,25.35-.56,4.17-.13,8.09,1.3,11.7h0s0,.03.02.05c4.72,11.87,11.98,19.17,21.03,21.21,1.16,1.5,2.7,3.25,4.62,5.44,4.37,4.98,9.37,7.94,14.89,8.79,2.16.33,4.51.5,6.91.5,8.17,0,16.94-1.88,21-5.33,1.14.27,2.4.56,3.79.88,2.44.56,4.77.84,6.99.84,3.83,0,7.33-.83,10.44-2.49.02-.01.04-.02.05-.02,8.17-4.37,15.04-11.34,17.25-16.01.05,0,.09-.02.14-.03,6.71-1.25,11.87-4.09,15.37-8.49,6.23-7.84,7.68-12.65,8.22-17.22,3.74-1.96,6.65-4.57,8.68-7.8h0s.02-.03.03-.04c5.42-8.62,6.53-17.77,6.7-22.5,3.69-2.75,6.31-6.06,7.79-9.88,0-.02,0-.03.02-.05,3.44-8.9,2.99-18.87,2.8-23.13,0-.26-.02-.5-.03-.72,2.67-3.98,4.18-8.21,4.49-12.62v-.06c.71-10.2-1.34-16.12-2.44-19.3,0-.04-.03-.08-.04-.12,2.31-3.09,3.65-6.35,4.01-9.73h0v-.05c.86-8.1-1.48-14.75-3.04-18.56,2.1-1.5,4.1-2.82,5.79-3.77,2.53-1.41,4.34-3.67,5.1-6.32,0-.03.02-.06.03-.09,2.62-9.22,2.1-31.27.96-35.41,3.39-6.53,6.9-14.18,10.11-22.85.3-.11.6-.2.91-.32l.05-.02s.02-.01.04-.02l31.85,7.23c1.58.36,2.97,1.3,3.9,2.63l19.57,28.29c1.08,1.56,2.7,2.66,4.54,3.08l19.41,4.49c.9.21,1.74.63,2.44,1.23l8.52,7.24-6.23-10.97c-.66-1.17-1.71-2.07-2.97-2.55l-15.61-5.94c-1.65-.63-3.02-1.8-3.9-3.33l-18.37-32.1c-.78-1.36-2.03-2.4-3.52-2.91l-35.42-12.21c1.3-4.73,2.47-9.67,3.46-14.81l35.75-.6c2.39-.04,4.71.84,6.47,2.45l25.2,23c1.7,1.55,3.93,2.4,6.23,2.37l20.13-.25c.55,0,1.1.12,1.59.38l10.72,5.57-9.54-10.37c-.54-.58-1.26-.96-2.05-1.06l-17.16-2.23c-2.1-.27-4.05-1.28-5.49-2.83l-25.2-27.23c-1.56-1.69-3.69-2.74-5.97-2.96l-38.18-3.43c.72-7.3,1.04-14.92.85-22.83l35.87-3.79c2.17-.23,4.35.4,6.06,1.76l27.55,21.87c1.78,1.42,4.05,2.08,6.32,1.85l19.39-1.96c1.03-.1,2.06.06,3.01.46l10.53,4.53-9.71-9.2c-1.06-1-2.45-1.59-3.9-1.66l-16.36-.75c-2.09-.1-4.07-.94-5.6-2.37l-27.92-26.29c-1.52-1.43-3.53-2.24-5.62-2.27l-41.12-.43c-.88-6.2-2.1-12.08-3.53-17.69l26.16-9.28c2.47-.88,5.21-.63,7.49.67l26.33,15.1c2.83,1.63,6.23,1.94,9.32.86l14.42-5.03c1.01-.35,2.1-.41,3.15-.15l9.95,2.42-10.32-7.22c-1.2-.84-2.68-1.17-4.12-.93l-12.49,2.12c-2.91.49-5.89-.17-8.31-1.85l-28.07-19.5c-2.03-1.41-4.56-1.92-6.98-1.42l-31.79,6.68c-.58-1.7-1.17-3.39-1.76-5.05.06-.21.28-.71.45-1.08.6-1.34,1.43-3.17,1.47-5.4v-.19c.02-.72.03-1.63-.05-2.79.14-.24.25-.51.32-.79.64-2.84,2.44-8.07,7.24-11.26,3.22-2.14,6.56-2.48,9.24-2.75,4.59-.46,7.49.28,11.17,1.22,2.48.63,5.29,1.35,8.92,1.72,5.51.57,11.23.15,17.02-1.22,1.14.11,2.3.15,3.46.15,7.08,0,14.15-1.72,15.47-2.06,4.13-1.06,24.34-9,40.6-25.9,7.03-7.31,11.25-14.67,12.53-21.86.16-.9.29-1.82.37-2.72.01-.15.01-.29,0-.44,1.36-1.14,2.63-2.43,3.79-3.9,8.48-10.77,6.08-24.89,4.65-33.32v.04ZM218.33,295.64c-2.55,1.58-5.44,2.89-8.38,4.04-3.25,1.25-6.6,2.32-10.01,3.21-6.82,1.76-13.84,2.88-20.87,3.29-3.53.21-6.96.15-10.45-.24-3.47-.38-6.92-1.03-10.29-1.94-3.37-.9-6.68-2.05-9.8-3.48-.79-.34-1.53-.76-2.3-1.14-.74-.41-1.49-.8-2.19-1.25-1.41-.88-2.71-1.85-3.76-2.88l-.05-.05s-.03-.02-.04-.04c-5.43-14.53-9.12-27.93-11.05-40.12,2.65.64,5.28,1.24,7.92,1.78l3.35.69,3.36.62,3.36.59,3.36.55c4.49.69,8.99,1.29,13.51,1.69,4.52.42,9.11.62,13.65.55,4.53-.05,9.06-.28,13.57-.63,4.51-.38,9.01-.87,13.51-1.48,7.49-1.06,14.92-2.4,22.43-4.23-1.56,15.01-4.84,28.59-8.84,40.46h0ZM228.05,230.25c.18,5.4.11,10.66-.16,15.77-3.61,1.84-7.46,3.32-11.38,4.65-4.16,1.36-8.4,2.53-12.71,3.44-8.6,1.9-17.41,2.93-26.2,3.05-8.74.16-17.5-1.1-26.06-3.16l-3.2-.82-3.17-.9-3.14-.99-3.12-1.05c-3.76-1.38-7.48-2.88-10.93-4.7-.41-4.82-.53-9.43-.33-13.81.31-6.79,1.18-13.45,2.36-19.76,3.12.74,6.17,1.42,9.24,2,4.25.84,8.48,1.6,12.73,2.24,4.25.63,8.5,1.19,12.78,1.55,4.27.39,8.61.56,12.9.48,8.56-.14,17.06-.91,25.54-2.12,7.66-1.09,15.25-2.49,23.03-4.42.95,5.88,1.6,12.04,1.83,18.55h0ZM213.94,206.92c-3.84,1.43-7.8,2.6-11.81,3.57-8.03,1.91-16.29,2.98-24.54,3.06-8.18.13-16.38-1.21-24.33-3.39-3.97-1.1-7.89-2.41-11.69-3.98-3.21-1.36-6.39-2.82-9.3-4.56,2.68-10.7,5.98-19.77,8.43-25.81,4.08-1.22,8.83-2.48,14.29-3.5,6.49-.92,13.97-1.57,22.56-1.57h.08c8.62,0,16.18.64,22.78,1.58,6.3,1.17,11.73,2.69,16.34,4.15,2.83,8.01,5.54,16.48,7.61,25.64-3.26,1.9-6.8,3.43-10.41,4.8h0ZM211.41,145.57c6.71,13.33,6.61,18.63,6.56,21.17v.2c-.02.86-.36,1.75-.75,2.62-4.54-1.08-9.81-2.17-15.87-3.03-6.87-1.27-14.74-2.15-23.73-2.15h-.09c-8.96,0-16.76.89-23.52,2.14-4.97.71-9.38,1.57-13.24,2.42-.04-.13-.08-.25-.12-.37-.23-.74-.46-1.44-.49-1.98.65-4.85,2.17-9.39,5.52-16.64,2.52-5.45,5.79-10.58,9.72-15.31,3.14,3.32,13.15,5.75,25.03,5.75,11.09,0,20.56-2.12,24.32-5.1,2.87,4.02,5.15,7.33,6.64,10.29h.02ZM7.22,61.91c3.16-18.67,14.77-31.15,21.41-36.93,10.77-9.38,22.76-13.62,32.76-15.44-11.79,6.9-20.4,17.42-23.79,29.74-3.1,11.3-1.13,21.54,1.06,28.15.43,1.29,1.68,2.11,3.03,2,6.82-.59,13.44-2.2,19.69-4.79,4.53-1.88,18.31-7.6,28.26-22.43,4.01-5.97,6.48-12.03,7.95-17.7.65,9.91-.4,21.63-5.47,33.76-3.36,8.04-16.41,34.71-43.17,40.47-4.56.98-27.81,5.2-38.27-8.1-6.87-8.73-4.83-20.76-3.48-28.72h.02ZM64.84,143.39c-3.16-.81-22.45-8.29-37.83-24.28-5.24-5.45-8.69-10.81-10.29-15.98,6.22,2.27,14.5,4.15,24.17,3.59,6.74-.4,13.29-1.91,19.51-4.51,1.56,9.27,6.15,13.87,9.03,16.76l.17.17c3.31,3.32,6.48,5.61,9.27,7.63,3.03,2.19,5.64,4.08,8.12,6.92,1.81,2.06,2.77,6.91,1.27,9.04-2.36,3.37-14.02,3.06-23.43.65h.01ZM131.91,147.12c-4.43-2.95-8.75-3.38-11.9-3.7-1.17-.12-2.26-.17-3.28-.17-3.88,0-6.84.75-9.92,1.54-2.4.61-4.88,1.24-8.07,1.57-1.73.18-3.48.25-5.26.21,1.68-2.32,2.06-4.8,2.24-5.94.54-3.51-.34-6.55-1.5-8.86,2.2-.24,4.41-.39,6.62-.47,7.88-.26,17.69-.59,27.97,4.04,4.35,1.96,8.41,4.65,12.09,8.01-.8,2.74-1.74,5.52-2.66,8.23-.19.55-.37,1.1-.56,1.66-1.27-2.17-3.09-4.35-5.75-6.12h-.02ZM193.94,405.08c.16-.13.3-.26.45-.4.87,3.08,1.68,7.52,1.22,14.16v.03c-.33,4.65-2.46,9.13-6.33,13.3-3.4,3.66-6.61,7.13-7.68,7.26-1.76.07-3.92-.33-9.32-5.87-4.81-4.93-6.48-7.14-7.77-10.28-2.59-6.27-1.77-13.99-.78-19.19.93.8,1.97,1.65,3.14,2.59,5.65,4.53,9.48,6.29,13.8,6.29.24,0,.48,0,.71-.02,3.4-.15,6.27-2.57,12.57-7.89v.02ZM91.37,391.64c11.2-.89,21.57.94,28.47,5.03.17.1.34.2.5.31-.08.01-.17.03-.25.04-5.9.91-11.18,4.05-15.72,9.33-1.43,1.67-2.73,3.41-3.98,5.09-2.54,3.41-4.95,6.63-8.23,9.04-5.67,4.16-13.39,5.05-20.49,2.44-.61-3.52-1.78-6.3-4.26-8.2-.55-.42-1.13-.76-1.73-1.04.45-2.43,1.18-4.78,2.21-7.03,3.95-8.67,12.5-14.14,23.47-15.01h.01ZM51.75,421.64c6.1-2.99,10.17-3.75,12.1-2.27,1.41,1.08,2.12,3.44,2.45,8.14.42,6.02.31,8.52-.51,11.66-1.07,4.07-4.49,9.74-7.38,13.96-1.16-1.45-2.7-3.02-5.13-4.95-5.86-4.67-9.48-6.08-13.35-5.2-2.02.46-3.98,2.19-5.73,4.37.38-3.42,1.31-7.2,3.2-11.05,1.84-3.75,6.15-10.65,14.35-14.66ZM35.29,456.45c3.08-5.73,5.4-7.57,5.94-7.76,1.24-.28,3.01-.22,8.4,4.07,3.88,3.09,4.87,4.77,6.36,7.32.23.39.47.8.72,1.22,3.51,5.82,3.94,12.95,3.91,17.69-6.68-2.28-10.55-2.41-14.14-.5-2.64,1.41-3.77,4.43-5.82,10.81-4.53-5.6-7.08-11.69-8.12-19.29-.61-4.47.31-9.03,2.75-13.55h0ZM58.56,521.99c-6.47-3.3-10.48-10.31-12.84-16.23v-.02c-1.52-3.84-1.5-8.28.07-13.18,1.37-4.28,2.67-8.32,3.46-8.91,1.4-.75,3.32-1.28,9.9,1.02,5.9,2.06,8.13,3.16,10.4,5.16,4.7,4.14,6.39,9.43,7.22,13.19-3.41,1.39-6.11,3.47-10.37,7.21-5.25,4.61-7.45,7.88-7.83,11.75h0ZM81.67,537.59c-4.08-.63-7.89-2.94-11.34-6.86-3.04-3.47-5.92-6.74-5.97-7.75.06-1.65.57-3.66,5.9-8.34,4.74-4.17,6.83-5.57,9.69-6.56,6.46-2.21,14.97.38,19.68,2.04-.84,2.37-1.42,5.12-2.08,8.88-1.3,7.45-.85,11.55,1.66,15.12.53.76,1.21,1.36,2.06,1.89-4.54,1.58-12.13,2.73-19.6,1.58ZM127.27,532.58s-.03.02-.05.03h-.02c-3.63,1.94-8.12,2.31-13.36,1.11-4.74-1.08-9.21-2.11-9.83-2.98-1.04-1.47-1.94-3.51-.68-10.72,1.12-6.37,1.87-8.81,3.52-11.37,3.73-5.79,12.24-8.76,17-10.22,0,2.93.6,6.02,1.67,10.5,1.76,7.35,3.81,10.93,7.54,13.21,1.18.72,2.5,1.03,4.22,1.03.63,0,1.32-.04,2.07-.12-2.56,2.93-6.73,6.67-12.07,9.53h0ZM158.14,509.63c-2.56,3.22-6.54,5.35-11.82,6.33-4.78.89-9.3,1.73-10.21,1.17-1.54-.94-3.18-2.45-4.89-9.57-1.51-6.29-1.79-8.83-1.29-11.83.99-5.96,6.21-11.39,10.03-14.82.49,2.02,1.24,4.27,2.25,7.07,2.57,7.11,4.99,10.44,8.95,12.29.92.43,1.89.63,3.02.63,2.4,0,5.5-.9,10.33-2.36-.83,2.9-2.54,6.25-6.38,11.09h0ZM174.74,485.05s0,.02-.02.03c0,0,0,.01,0,.02-2.19,3.47-5.9,6.02-11.04,7.58-4.65,1.41-9.05,2.73-10.01,2.28-1.63-.76-3.43-2.08-5.92-8.97-2.2-6.08-2.75-8.57-2.59-11.6.33-6.23,5.98-12.64,9.6-16.33.73,1.38,1.6,2.89,2.65,4.64,3.88,6.47,6.9,9.27,11.14,10.33.52.13,1.04.19,1.58.19,2.47,0,5.31-1.35,10.08-3.84-.57,4.25-1.99,10.15-5.45,15.67h-.01ZM188.73,453.66s0,.02,0,.03c-1.48,3.81-4.63,7.01-9.38,9.51-4.3,2.26-8.35,4.39-9.39,4.14-1.75-.44-3.77-1.39-7.53-7.65-3.32-5.53-4.34-7.87-4.77-10.86-.84-5.94,2.5-12.64,5.12-17.03,1.38,1.76,3.08,3.6,5.3,5.87,5.38,5.52,9.04,7.65,13.25,7.65h.49c2.9-.11,5.24-2.19,9.44-6.64-.07,4.37-.58,9.95-2.53,14.99h0ZM197.16,389.43v.04c-.41,3.81-2.77,7.56-7.01,11.14-4.43,3.74-7.63,6.44-9.03,6.5-2.63.11-5.2-.67-10.6-4.99-5.16-4.13-6.93-5.97-8.26-8.55-2.86-5.57-.75-13.42.76-18.01,7.27,5.31,14.29,11.01,14.4,11.1.54.44,1.19.66,1.85.66s1.39-.25,1.94-.73c.1-.09,6.84-6.02,13.87-11.47,1.3,3.47,2.7,8.44,2.08,14.32h0ZM205.25,359.65s-.02.06-.03.08c-.34,1.19-1.16,2.2-2.33,2.84-7.32,4.08-19.13,14.03-23.69,17.97-4.68-3.73-16.72-13.16-24.06-17.34-1.14-.65-1.97-1.74-2.25-2.99-1.93-8.39-1.87-18.43-1.36-24.93.05.1.1.21.15.31.88,1.73,1.63,3.23,1.8,3.65.26.66.74,1.2,1.37,1.53,4.41,2.31,17.67,13.92,22.41,18.2.56.51,1.26.76,1.97.76s1.48-.28,2.05-.83c4.53-4.42,17.26-16.37,21.66-18.49.5-.24.92-.61,1.21-1.08.84-1.34,1.72-2.79,2.63-4.33.25,7.65.06,19.03-1.54,24.65h0ZM199.6,335.54c-5.36,3.05-15.93,12.93-20.45,17.25-4.63-4.11-15.35-13.48-20.65-16.69-.33-.69-.83-1.67-1.57-3.15-4.83-9.56-9.05-18.75-12.7-27.55.73.24,1.46.49,2.2.71,3.6,1.1,7.2,1.97,10.83,2.67,3.63.69,7.28,1.21,10.96,1.53,1.84.16,3.69.24,5.54.29,1.87.03,3.7-.02,5.53-.07,7.32-.31,14.56-1.15,21.79-2.35,3.61-.62,7.23-1.31,10.84-2.19.97-.23,1.94-.48,2.91-.73-5.06,12.75-10.68,23.02-15.22,30.31v-.03ZM261.27,146.37c-3.2-.33-5.67-.96-8.07-1.57-3.9-.99-7.58-1.93-13.2-1.37-3.15.32-7.46.75-11.9,3.7-2.76,1.84-4.78,4.13-6.25,6.44l-2.74-10.19c3.68-3.37,7.75-6.07,12.1-8.03,10.27-4.63,20.09-4.3,27.97-4.04,2.2.07,4.42.23,6.62.47-1.16,2.32-2.05,5.37-1.5,8.9.17,1.1.55,3.57,2.23,5.89-1.78.04-3.53-.03-5.26-.21h0ZM332.99,119.11c-15.38,15.99-34.67,23.47-37.83,24.28-9.41,2.41-21.06,2.72-23.43-.65-1.49-2.13-.53-6.98,1.27-9.04,2.48-2.83,5.09-4.73,8.12-6.92,2.79-2.02,5.95-4.31,9.27-7.64l.17-.17c2.89-2.89,7.48-7.49,9.03-16.76,6.23,2.6,12.77,4.11,19.51,4.51,9.66.56,17.94-1.32,24.17-3.59-1.59,5.17-5.04,10.53-10.29,15.98h.01ZM349.3,90.63c-10.46,13.3-33.72,9.08-38.27,8.1-26.77-5.76-39.81-32.44-43.17-40.47-5.07-12.12-6.12-23.85-5.47-33.76,1.48,5.67,3.95,11.74,7.96,17.71,9.96,14.84,23.74,20.55,28.26,22.43,6.25,2.59,12.87,4.2,19.69,4.79,1.37.12,2.61-.71,3.03-2,2.2-6.61,4.16-16.85,1.06-28.15-3.38-12.32-11.99-22.84-23.79-29.74,10,1.82,21.99,6.06,32.76,15.44,6.64,5.78,18.25,18.26,21.41,36.93,1.35,7.96,3.39,19.99-3.48,28.72h.01Z"/>
</svg>