<?xml version="1.0" encoding="UTF-8"?>
<svg id="Layer_1" data-name="Layer 1" xmlns="http://www.w3.org/2000/svg" xmlns:xlink="http://www.w3.org/1999/xlink" viewBox="0 0 219.64 85.26">
  <defs>
    <style>
      .cls-1 {
        fill: none;
      }

      .cls-2 {
        fill: #16181a;
      }

      .cls-3 {
        clip-path: url(#clippath-1);
      }

      .cls-4 {
        fill: #fff;
      }

      .cls-5 {
        clip-path: url(#clippath);
      }
    </style>
    <clipPath id="clippath">
      <rect class="cls-1" width="219.64" height="85.26"/>
    </clipPath>
    <clipPath id="clippath-1">
      <rect class="cls-1" y="0" width="219.64" height="85.25"/>
    </clipPath>
  </defs>
  <g id="Artwork_18" data-name="Artwork 18">
    <g class="cls-5">
      <g class="cls-3">
        <path class="cls-2" d="M96,2.28c6.67-2.64,14.03-2.66,21.04-1.7,8.92,1.39,16.19,7.63,25.16,8.83,1.84-1.13,3.63-2.75,5.91-2.81.91.58,1.8,1.21,2.67,1.87,12.23-5.18,27.05-4.39,38.27,2.89,9.76,5.68,15.45,16.13,18.36,26.73,3.75.37,7.47,1.01,11.23,1.34,1.47,2.69.98,5.78.65,8.68-3.78,1.1-7.78,1.57-11.48,2.69-1.5,5.06-3.1,10.11-5.72,14.72,4.13,4.02,9.33,7.27,12.04,12.51,1.74,3.72-2.19,7.95-6.06,7.12-5.93-1.23-8.63-7.36-12.36-11.48-13.51,13.93-38.13,15.52-52.69,2.41-3.65-3.28-6.95-6.96-9.48-11.17-1.32-2.58-4.04-3.85-5.9-5.94-2.55-2.87-4.25-6.34-5.95-9.74-7.95-.05-15.9-.15-23.85.23-1.89,4.25-4.03,8.65-7.81,11.55-2.99,2.13-4.31,5.68-6.52,8.49-7.84,10.66-21.36,16.58-34.51,15.42-9.56-.31-18.49-4.84-25.16-11.54-3.46,4.21-6.19,9.98-11.83,11.55-3.99,1.24-8.14-3.07-6.4-7.01,2.26-5.63,8-8.75,12.35-12.63-2.52-4.77-4.62-9.76-5.75-15.05-3.8-.29-7.65-.8-11.23-2.16-1.46-2.23-1.12-5.74-.05-8.07,3.39-2.21,8.08-.59,11.7-2.5,1.14-2.8,1.72-5.79,2.96-8.55C21.31,15.37,35.21,5.51,50.04,5.2c6.39-.46,12.66,1.06,18.63,3.22,2.85-3.08,6.25.28,9.37.82,6.55-.61,11.89-4.86,17.96-6.96"/>
        <path class="cls-4" d="M98.89,3.2c7.89-2.12,16.58-2.06,24.2,1.09,2.68,1.09,5.33,2.26,7.95,3.51-3.15-.82-5.97-2.51-9.11-3.33-9.08-2.74-19.04-1.97-27.76,1.64-4.63,1.78-9.03,4.72-14.18,4.52,6.87-.9,12.28-5.74,18.9-7.43"/>
        <path class="cls-4" d="M94.08,9.53c9.96-4.7,22.04-4.66,31.93.22,4.73,2.37,9.59,4.76,14.96,5.17-4.3,3.63-7.28,8.44-10.22,13.17-1.36-1.36-2.66-3.03-4.67-3.38-2.63.36-5.52,1.53-6.52,4.21-2.18,4.97-.34,10.4.7,15.42-6.8-.27-13.6-.37-20.4-.62.51-3.94,1.73-7.92,1.04-11.89-.56-3.56-3.43-6.49-6.85-7.41-2.3.52-3.78,2.55-5.45,4.04-2.67-5.14-6.24-9.77-10.62-13.56,5.75-.44,10.97-2.95,16.1-5.37"/>
        <path class="cls-4" d="M29.47,15.32c11.9-9.57,30.04-10.14,42.62-1.51-6.33-2.7-12.94-5.29-19.95-4.98-7.42.25-14.94,2.24-20.97,6.71-5.71,3.88-10,9.62-12.68,15.94-1.24,2.9-1.92,6.01-3.3,8.85,1.1-9.75,6.4-19.1,14.28-25.01"/>
        <path class="cls-4" d="M136.91,23.77c8.97-13.73,28.09-19.96,43.19-13.07-9.23-2.67-19.47-2.63-28.13,1.85-10.36,4.61-17.53,14.62-20.16,25.46-1.02,5.31-.48,10.74-.19,16.1-2.61-10.27-.93-21.65,5.29-30.34"/>
        <path class="cls-4" d="M71.24,9.19q.56.66,0,0"/>
        <path class="cls-4" d="M145.17,10.49c-.36-1.4.15-1.94,1.55-1.6.33,1.36-.19,1.9-1.55,1.6"/>
        <path class="cls-4" d="M42.56,13.73c9.14-2.68,19.69-1.67,27.44,4.18,7.57,4.83,12.26,13.24,13.83,21.94,1.09,5.74-.15,11.63-2.03,17.07-3.59,9.88-12.63,17.33-22.7,19.94-9.76,2.51-20.48-.37-28.07-6.88-5.05-4.64-8.56-10.85-10.38-17.43-2.25-9.6-.23-20.36,6.1-28.05,3.95-5.19,9.77-8.58,15.81-10.77"/>
        <path class="cls-4" d="M158.55,13.66c14.59-4.61,31.66,3.04,38,16.92,5.37,10.46,4.3,23.84-2.59,33.36-5.42,7.74-14.4,12.98-23.84,13.7-13.42,1.24-27.06-7.19-32.02-19.7-2.96-7.54-3.91-16.18-1.05-23.89,3.31-9.77,11.7-17.41,21.5-20.39"/>
        <path class="cls-2" d="M30.97,22.84c5.85-5.82,14.17-7.58,22.06-8.52-7.01,2.28-14.48,4.41-19.9,9.71-4.67,4.65-8.27,10.72-9.14,17.32,19.25.69,38.52.95,57.76,1.81-.3-3.09-.9-6.14-1.54-9.17.36.9.72,1.81,1.08,2.73,2.02,6.97,1.2,14.52-1.65,21.14l-.36-.2c.66-2.43,1.2-4.89,1.68-7.36-10.64.27-21.36.09-31.91,1.7-8.47,1.25-14.38,7.99-20.05,13.78-1.62-1.98-3.01-4.12-4.25-6.34,3.6-2.9,7.24-5.75,11.15-8.23.06.58.19,1.73.25,2.31l.02-2.86c.88.21,2.63.63,3.51.84,7-3.25,14.86-3.87,22.47-4.04-7.69-.69-15.91-.16-22.75,3.75-.76-.36-1.5-.71-2.22-1.07,2.33-.81,4.61-1.81,6.89-2.78-7.11.3-14.21-.36-21.31-.55-.05,2.08-.04,4.16-.14,6.24-2.72-10.66.36-22.57,8.35-30.21"/>
        <path class="cls-2" d="M150.92,19.68c5.51-3.76,12.19-4.82,18.72-5.01-.03.1-.08.3-.11.4-9.74,1.17-19.84,5.67-25.16,14.27-2.73,4.04-4.51,8.67-5.14,13.51,19.21-.61,38.44-.96,57.66-1.59-.29-2.17-.75-4.31-1.19-6.45,1.83,3.59,2.16,7.72,2.36,11.68-7.71-.11-15.37,1.03-23.08.78,7.38,2.33,13.54,7.17,19.39,12.06-1.48,2.24-3.08,4.4-4.67,6.56-3.12-4.4-7.19-8.08-11.69-11.02-5.61-3.53-12.41-4.32-18.89-4.54-6.64-.2-13.28-.5-19.91-.6.3,2.73.8,5.44,1.52,8.1-1.64-4.15-3.74-8.32-3.52-12.91.23-9.92,5.3-19.82,13.71-25.24"/>
        <path class="cls-4" d="M91.53,31.31c.89-1.35,2.35-2.16,3.61-3.11,2.61,1.64,3.25,4.9,2.97,7.77-.83,7.6-3.3,15.36-8.61,21.05,3.4-6.59,6.5-13.59,7.03-21.07-.07-1.22-2.08-3.17-3.08-1.78-.55,1.65-.37,3.63-1.62,4.99-.29-2.57-2.09-5.49-.3-7.85"/>
        <path class="cls-4" d="M121.34,33.9c-.1-2.27,1.19-5.31,3.74-5.43,1.63.75,2.91,2.11,3.87,3.62,0,2.24-.9,4.37-1.43,6.53-1.02-1.74-1.75-3.62-2.6-5.43-1.21.96-2.15,2.31-1.59,3.93.6,7.35,4.35,13.82,6.53,20.71-5.01-6.97-8.17-15.32-8.52-23.93"/>
        <path class="cls-4" d="M6.01,41.66c2.43-1.06,5.09-1.32,7.62-2.07-.29.66-.58,1.32-.86,1.99-2.25.13-4.52.42-6.76.08"/>
        <path class="cls-4" d="M205.72,40.19c2.56.17,5.33.11,7.61,1.49-2.57.14-5.6.45-7.61-1.49"/>
        <path class="cls-4" d="M3.28,42.24c1.47-1.23,2.24,1.46,1.16,2.28-1.46,1.37-2.49-1.5-1.16-2.28"/>
        <path class="cls-4" d="M215.14,42.24c3.28.35-1.74,2.94,0,0"/>
        <path class="cls-4" d="M202.79,47.92c-1.13,11.11-7.3,21.67-16.72,27.74-7.91,4.94-18.05,6.82-26.97,3.61,11.53,2.44,24.45-.97,32.67-9.6,6.05-5.75,9.19-13.76,11.02-21.75"/>
        <path class="cls-4" d="M57.07,79.57c13.83-2.12,24.81-13.48,28.78-26.57-2.57,13.97-14.57,25.45-28.59,27.6-6.17,1.51-12.41-.45-18.23-2.39,5.92,1.18,11.98,2.81,18.04,1.36"/>
        <path class="cls-4" d="M7.87,80.22c1.37-5.09,6.21-8.21,10.23-11.18-3.38,3.75-6.91,7.37-10.23,11.18"/>
      </g>
    </g>
  </g>
</svg>