<?xml version="1.0" encoding="UTF-8"?>
<svg id="Layer_1" xmlns="http://www.w3.org/2000/svg" version="1.1" viewBox="0 0 359.98 348.88">
  <!-- Generator: Adobe Illustrator 30.5.1, SVG Export Plug-In . SVG Version: 2.1.4 Build 3)  -->
  <defs>
    <style>
      .st0 {
        fill: #f1d380;
      }
    </style>
  </defs>
  <path class="st0" d="M124.16,211.83c-1.3-.89-3.49-2.25-5.39-4.97-2.11-3.02-2.81-6.2-3.08-8.4.11,3.22.76,5.77,1.33,7.49.73,2.18,1.57,3.74,2.73,5.88,1.11,2.06,1.81,3.02,2.17,3.46-.8.87-1.82,2.33-2.17,3.64-.34,1.29-1.43,4.25-.58,5.1.79.79,2.41-.76,4.48,0,1.64.6,2.86,2.32,2.52,2.99-.37.73-2.62.26-2.9.2-2.4-.51-3.07-1.87-3.67-1.55-1.08.58-.22,5.73,2.71,8.6l.17.17c2.23,2.1,4.94,2.32,5.98,2.39.85.06,6.56.45,8.07-3.04.38.55.76,1.11,1.15,1.7,1.25,1.91,2.84,4.64,4.27,8.19-.04-4.85-1.01-8.51-1.82-10.85-2.51-7.24-8.38-15.83-15.96-21h-.01Z"/>
  <path class="st0" d="M359.63,114.24c-.14-1.75-.44-3.49-.7-5.22-.15-.87-.35-1.72-.52-2.58l-.27-1.29c-.1-.43-.22-.85-.33-1.27-.23-.85-.45-1.7-.69-2.54l-.82-2.5c-1.16-3.31-2.51-6.56-4.19-9.65l-.61-1.17c-.21-.38-.45-.76-.67-1.14-.45-.75-.89-1.51-1.36-2.26-.99-1.45-1.94-2.93-3.05-4.3-1.04-1.42-2.23-2.72-3.39-4.05-.6-.64-1.24-1.26-1.85-1.89-.32-.31-.61-.63-.94-.93l-1.02-.9c-2.75-2.38-5.76-4.27-8.81-5.92-1.52-.85-3.07-1.58-4.62-2.33-1.56-.71-3.11-1.43-4.68-2.08-3.12-1.35-6.28-2.57-9.43-3.78-6.3-2.4-12.65-4.61-18.99-6.79-6.34-2.17-12.69-4.36-19.04-6.48-.12-.04-.25-.09-.37-.13-.09-.04-.18-.07-.27-.09-2.94-1-5.85-2.03-8.62-3.27-2.98-1.32-5.77-2.95-8.17-5.07-1.21-1.05-2.28-2.25-3.3-3.5l-1.42-1.97-1.26-2.08c-.91-1.65-1.66-3.38-2.28-5.17-.02-.22-.09-.41-.2-.59-.37-1.12-.68-2.26-.95-3.42-.74-3.21-1.09-6.53-1.16-9.86-.09-3.33.15-6.68.57-10.01-.64,3.29-1.13,6.62-1.28,10-.14,3.37,0,6.77.57,10.13.14.85.31,1.69.5,2.53-1.2.11-2.34.3-3.42.7-1.18.43-2.3,1.08-3.18,1.99-.5.5-.92,1.07-1.28,1.67,0-.04,0-.07-.02-.11-.67-4.77-.5-9.68.78-14.37.31-1.17.7-2.33,1.17-3.44.47-1.12,1.04-2.2,1.67-3.24,1.26-2.1,2.84-4.01,4.48-5.86-1.8,1.69-3.56,3.47-5.04,5.49-.74,1.01-1.41,2.08-1.99,3.2-.58,1.12-1.08,2.29-1.5,3.47-1.71,4.76-2.23,9.92-1.89,14.98.36,5.07,1.59,10.06,3.37,14.81.89,2.38,1.95,4.7,3.14,6.95s2.5,4.44,3.98,6.54c1.46,2.1,3.08,4.11,4.84,6s3.67,3.63,5.7,5.24c4.06,3.21,8.6,5.81,13.35,7.81,1.19.51,2.39.96,3.6,1.39,1.23.42,2.41.8,3.59,1.18,2.26.73,4.45,1.59,6.61,2.57,4.32,1.95,8.42,4.39,12.23,7.19,1.91,1.4,3.75,2.88,5.49,4.47.45.39.86.81,1.29,1.21.43.4.84.82,1.25,1.24l.62.63.57.62c.37.42.74.84,1.09,1.28,1.4,1.74,2.59,3.6,3.46,5.56.86,1.96,1.39,3.98,1.55,6.02.3,4.1-1.01,8.29-3.38,11.93-2.38,3.62-5.71,6.79-9.53,8.93-3.84,2.2-8.32,3.51-12.98,4.44-4.66.95-9.57,1.48-14.5,2.25-2.42.36-4.93.71-7.45,1.21-1.26.24-2.52.55-3.78.9-1.25.37-2.5.79-3.71,1.31-2.28.95-4.45,2.22-6.37,3.74-.86-3.18-2.38-6.29-4.64-8.93-2.25-2.66-5.19-4.78-8.26-6.35-1.53-.78-3.13-1.46-4.77-2.05-.82-.27-1.65-.55-2.49-.76-.84-.24-1.69-.43-2.54-.61-3.41-.67-6.91-.92-10.36-.74-1.73.1-3.45.27-5.14.58-1.7.29-3.38.65-5.02,1.12-3.29.92-6.39,2.11-9.43,3.29-3.04,1.17-6.02,2.34-9.03,3.22-1.5.43-3.01.86-4.52,1.12-.38.08-.76.13-1.13.19l-.57.09-.28.04-.26.03c-.6.06-1.35.09-2.2.22-.85-.13-1.6-.17-2.21-.24l-.26-.03-.28-.04-.57-.09c-.38-.06-.75-.12-1.13-.2l-1.13-.24-1.13-.29c-.75-.19-1.5-.42-2.25-.65-2.99-.96-5.94-2.17-8.96-3.4-3.03-1.21-6.12-2.46-9.44-3.35-.82-.24-1.67-.42-2.51-.62-.85-.17-1.7-.34-2.55-.46-1.71-.27-3.44-.42-5.18-.46-3.47-.1-6.97.24-10.36.98-1.7.39-3.36.88-4.99,1.46-1.62.62-3.21,1.3-4.72,2.1-3.05,1.59-5.95,3.68-8.2,6.31-1.12,1.31-2.1,2.71-2.89,4.2-.21.36-.38.75-.56,1.12-.19.37-.35.75-.51,1.14-.18.43-.34.87-.5,1.32-1.58-1.1-3.29-2.02-5.06-2.77-1.21-.52-2.46-.94-3.71-1.31-1.26-.35-2.52-.66-3.78-.9-2.52-.5-5.03-.84-7.45-1.21-4.93-.77-9.83-1.31-14.5-2.25-4.66-.93-9.14-2.25-12.98-4.44-3.82-2.14-7.15-5.31-9.53-8.93-2.37-3.64-3.68-7.83-3.38-11.93.15-2.04.68-4.06,1.55-6.02.87-1.95,2.06-3.82,3.46-5.56.35-.44.72-.86,1.09-1.28l.57-.62.62-.63c.41-.42.82-.84,1.25-1.24s.84-.82,1.29-1.21c1.74-1.59,3.58-3.08,5.49-4.47,3.81-2.8,7.92-5.24,12.23-7.19,2.16-.98,4.36-1.84,6.61-2.57,1.19-.38,2.36-.75,3.59-1.18,1.21-.43,2.42-.89,3.6-1.39,4.75-2,9.29-4.59,13.35-7.81,2.02-1.61,3.94-3.36,5.7-5.24,1.75-1.89,3.38-3.89,4.84-6,1.47-2.1,2.79-4.29,3.98-6.54s2.24-4.57,3.14-6.95c1.79-4.75,3.01-9.74,3.37-14.81.35-5.06-.17-10.22-1.89-14.98-.42-1.19-.92-2.35-1.5-3.47s-1.25-2.19-1.99-3.2c-1.48-2.03-3.24-3.8-5.04-5.49,1.64,1.85,3.22,3.76,4.48,5.86.63,1.05,1.2,2.13,1.67,3.24.47,1.11.86,2.27,1.17,3.44,1.28,4.69,1.45,9.6.78,14.37,0,.07-.02.13-.03.2-.35-.63-.77-1.23-1.28-1.75-.87-.91-1.98-1.59-3.17-1.99-1.11-.38-2.28-.52-3.47-.53.22-.9.4-1.8.55-2.71.56-3.36.71-6.76.57-10.13C114.89,6.63,114.41,3.29,113.76,0c.41,3.33.66,6.67.57,10.01-.07,3.33-.42,6.65-1.16,9.86-.75,3.21-1.86,6.32-3.43,9.17l-1.26,2.08-1.42,1.97c-1.02,1.25-2.09,2.46-3.3,3.5-2.4,2.12-5.18,3.75-8.17,5.07-2.97,1.34-6.11,2.42-9.27,3.49-6.34,2.12-12.7,4.31-19.04,6.48-6.35,2.18-12.69,4.39-18.99,6.79-3.15,1.21-6.3,2.43-9.43,3.78-1.57.65-3.12,1.38-4.68,2.08-1.54.76-3.1,1.49-4.62,2.33-2.95,1.59-5.86,3.42-8.54,5.69l-.03.02c-.17.1-.33.22-.48.35-.12.11-.23.23-.32.35l-.46.41c-.34.3-.63.62-.94.93-.62.63-1.25,1.25-1.85,1.89-1.15,1.33-2.35,2.63-3.39,4.05-1.11,1.37-2.05,2.85-3.05,4.3-.47.74-.91,1.5-1.36,2.26-.22.38-.46.75-.67,1.14l-.61,1.17c-1.68,3.09-3.02,6.34-4.19,9.65l-.82,2.5c-.24.84-.46,1.69-.69,2.54-.11.42-.23.85-.33,1.27l-.27,1.29c-.17.86-.38,1.71-.52,2.58-.27,1.74-.57,3.47-.7,5.22-.21,1.75-.25,3.51-.33,5.27-.02.88.02,1.76.02,2.64l.02,1.32.09,1.32c.07.88.12,1.76.2,2.64.11.88.2,1.76.34,2.63.52,3.5,1.34,6.95,2.47,10.3,2.22,6.72,5.61,13,9.81,18.61,4.17,5.63,9.18,10.57,14.53,14.9l1,.8c.33.26.66.52,1.01.79l2.09,1.57c.34.27.7.52,1.06.76l1.08.74c.72.49,1.43.99,2.18,1.43l2.22,1.37,2.28,1.27c.75.44,1.53.82,2.31,1.2.78.38,1.55.79,2.35,1.13l2.38,1.06,2.41.96c.8.33,1.62.6,2.44.89l1.22.43,1.24.39c.83.25,1.64.53,2.48.75l2.5.68,1.28.3c-1.75.2-3.5.41-5.25.65-2.22.33-4.44.69-6.63,1.07-2.19.4-4.34.81-6.29.99-.98.08-1.9.1-2.85,0-.47-.03-.95-.14-1.44-.2-.49-.1-.99-.2-1.48-.32l-1.5-.4-1.48-.47c-.49-.17-.98-.35-1.47-.53s-.97-.4-1.46-.59c-3.87-1.66-7.55-3.92-10.99-6.55s-6.54-5.74-9.37-9.2c1.82,4.09,4.43,7.87,7.58,11.18,3.15,3.29,6.8,6.17,10.9,8.41,2.05,1.11,4.22,2.07,6.49,2.76.57.18,1.15.34,1.74.49.61.13,1.2.28,1.84.36,1.25.21,2.55.25,3.79.2,2.48-.12,4.69-.52,6.87-.84,2.18-.35,4.34-.68,6.51-.99l3.25-.45,3.26-.41,3.27-.4,3.27-.37c2.18-.23,4.35-.45,6.52-.62s4.33-.31,6.45-.31c1.06,0,2.11.03,3.14.1,1.02.1,2.02.23,2.96.46.95.23,1.83.58,2.75,1.05.91.47,1.8,1,2.64,1.61,1.69,1.21,3.23,2.71,4.6,4.39,1.21,1.49,2.29,3.12,3.27,4.83.03.28.05.55.05.83,0,.45-.07.89-.15,1.33-.14.9-.32,1.78-.51,2.68-.37,1.83-.53,3.7-.6,5.57-.09,3.75.4,7.55,1.5,11.21.28.91.61,1.87,1.08,2.81s1.04,1.77,1.57,2.54c1.08,1.54,2.17,2.96,3.23,4.44,1.06,1.47,2.13,2.93,3.17,4.42l3.14,4.45c1.05,1.49,2.11,2.97,3.12,4.45,1.03,1.47,2.01,2.96,2.91,4.46.46.75.89,1.52,1.31,2.3l1.27,2.39c.42.79.81,1.59,1.19,2.39.39.8.75,1.6,1.08,2.41,2.53,6.01,3.29,12.75,2.44,19.51-1.1,1.09-2.09,2.28-2.98,3.53-.51.74-.99,1.5-1.44,2.28-.22.39-.43.79-.63,1.18-.2.4-.37.83-.56,1.24-.18.42-.37.83-.53,1.26l-.42,1.3c-.32.86-.46,1.77-.67,2.65-.72,3.6-.48,7.24.13,10.66.62,3.43,1.61,6.69,2.73,9.84,1.13,3.15,2.35,6.23,3.62,9.27,1.26,2.99,2.5,6.15,4.25,9.18.87,1.52,1.89,3,3.09,4.36,1.19,1.37,2.59,2.58,4.08,3.59.18.13.38.26.58.38.22.14.43.26.63.37.4.22.8.42,1.19.61.8.38,1.61.73,2.43,1.03,1.64.62,3.36,1.08,5.11,1.38.44.06.88.13,1.33.18.45.03.91.08,1.34.1l1.31.03,1.28-.02c1.7-.05,3.37-.17,5.02-.31,3.31-.29,6.57-.68,9.82-1.02,3.25-.33,6.48-.66,9.67-.72,6.41-.12,12.89.61,19.42,1.25,3.28.31,6.56.67,9.99.68l1.3-.03c.44-.02.89-.07,1.33-.1.89-.08,1.76-.24,2.62-.42,1.72-.38,3.39-.93,5-1.6.8-.34,1.59-.71,2.38-1.14.2-.11.39-.22.6-.34.14-.09.43-.27.59-.38.36-.26.74-.5,1.09-.79,1.43-1.09,2.73-2.37,3.82-3.78,2.22-2.81,3.7-5.96,5-9.04,1.26-3.06,2.51-6.08,3.7-9.17,1.2-3.09,2.31-6.25,3.17-9.53s1.43-6.73,1.32-10.27c-.09-3.53-.94-7.12-2.52-10.3-1.17-2.36-2.68-4.57-4.5-6.51-1.03-7.05-.32-14.12,2.32-20.39.33-.81.69-1.61,1.08-2.41.38-.8.78-1.59,1.19-2.39l1.27-2.39c.42-.78.85-1.54,1.31-2.3.91-1.51,1.88-2.99,2.91-4.46,1.02-1.48,2.07-2.97,3.12-4.45l3.14-4.45c1.04-1.48,2.11-2.95,3.17-4.42,1.06-1.48,2.15-2.9,3.23-4.44.54-.77,1.1-1.6,1.57-2.54.47-.94.8-1.9,1.08-2.81,1.1-3.66,1.59-7.46,1.5-11.21-.07-1.88-.23-3.74-.6-5.57-.19-.9-.37-1.78-.51-2.68-.08-.45-.14-.89-.15-1.33,0-.27.02-.55.05-.83.98-1.71,2.07-3.34,3.27-4.83,1.37-1.68,2.91-3.17,4.6-4.39.85-.61,1.73-1.14,2.64-1.61.92-.47,1.8-.82,2.75-1.05s1.95-.36,2.96-.46c1.03-.07,2.08-.1,3.14-.1,2.12,0,4.28.14,6.45.31,2.16.18,4.34.39,6.52.62l3.27.37,3.27.4,3.26.41,3.25.45c2.17.3,4.33.63,6.51.99,2.19.32,4.39.73,6.87.84,1.23.05,2.54,0,3.79-.2.64-.08,1.23-.23,1.84-.36.59-.16,1.17-.32,1.74-.49,2.27-.7,4.44-1.66,6.49-2.76,4.1-2.23,7.75-5.11,10.9-8.41,3.15-3.31,5.76-7.09,7.58-11.18-2.83,3.46-5.94,6.57-9.37,9.2-3.43,2.63-7.12,4.89-10.99,6.55-.49.2-.97.41-1.46.59s-.98.36-1.47.53l-1.48.47-1.5.4c-.5.12-.99.22-1.48.32-.48.06-.97.17-1.44.2-.95.11-1.87.09-2.85,0-1.95-.18-4.11-.59-6.29-.99-2.19-.38-4.41-.74-6.63-1.07-1.75-.24-3.5-.45-5.25-.65l1.28-.3,2.5-.68c.84-.22,1.65-.5,2.48-.75l1.24-.39,1.22-.43c.81-.3,1.64-.56,2.44-.89l2.41-.96,2.38-1.06c.8-.34,1.56-.75,2.35-1.13.78-.39,1.56-.76,2.31-1.2l2.28-1.27,2.22-1.37c.75-.44,1.46-.95,2.18-1.43l1.08-.74c.36-.24.72-.49,1.06-.76l2.09-1.57c.35-.26.69-.52,1.01-.79l1-.8c5.35-4.33,10.36-9.28,14.53-14.9,4.2-5.6,7.59-11.89,9.81-18.61,1.12-3.35,1.95-6.81,2.47-10.3.13-.87.22-1.75.34-2.63.09-.88.14-1.76.2-2.64l.09-1.32.02-1.32c0-.88.04-1.76.02-2.64-.08-1.76-.12-3.52-.33-5.27l-.02.02ZM242.13,40.73c-1.15-2.58-2.11-5.25-2.85-7.98.08-.23.09-.49.03-.75-.24-.94-.24-1.94-.02-2.9.12-.48.29-.94.5-1.38.23-.43.51-.84.83-1.21.67-.71,1.5-1.29,2.45-1.51.94-.23,1.98-.16,2.87.27.22.1.47.15.72.13.03,0,.05-.01.08-.01,1.54,4.81,4.11,9.35,7.8,12.98.14.14.29.27.44.41-.68.18-1.36.4-2.03.67-.7.29-1.43.65-2.06,1.1-.63.45-1.21.95-1.79,1.46-1.14,1.02-2.08,2.22-2.89,3.5-.31.49-.59,1-.85,1.52-1.2-2.03-2.29-4.14-3.26-6.3h.03ZM249.48,53.08c-.75-.96-1.46-1.95-2.14-2.96,0-.06.02-.13.03-.19.03-.15.06-.3.1-.45.08-.3.17-.61.27-.92.21-.61.46-1.21.74-1.8.57-1.17,1.29-2.25,2.16-3.18.43-.47.94-.86,1.48-1.18s1.07-.58,1.68-.81c.6-.22,1.23-.4,1.86-.54.58-.12,1.18-.22,1.73-.27,1.81,1.35,3.76,2.49,5.74,3.48,2.03,1.02,4.1,1.91,6.17,2.76-.8.65-1.61,1.31-2.36,2.02-.7.66-1.39,1.35-2,2.11-.59.75-1.18,1.49-1.71,2.29-.55.78-1.03,1.61-1.5,2.44-.45.84-.88,1.7-1.27,2.58-.57,1.28-1.06,2.61-1.51,3.98-3.53-2.68-6.72-5.83-9.47-9.38v.02ZM275.46,70.77c-1.13-.37-2.26-.73-3.36-1.16-3.23-1.21-6.34-2.71-9.27-4.5.03-.22.05-.44.01-.67-.25-1.68-.11-3.4.25-5.07.38-1.67,1.03-3.29,1.93-4.76.44-.74.96-1.44,1.51-2.1.55-.63,1.18-1.2,1.87-1.7,1.38-1.01,2.94-1.73,4.7-2.28l18.18,6.98c1.31.5,2.61,1.02,3.91,1.53-.5.24-.99.49-1.48.77-1.99,1.09-3.86,2.5-5.43,4.16-1.58,1.66-2.84,3.58-3.89,5.59-.53,1.01-.99,2.05-1.43,3.12-.28.71-.54,1.43-.79,2.17-1.07-.37-2.15-.72-3.23-1.04-1.18-.34-2.37-.68-3.49-1.03h0ZM286.24,74.39s-.05-.02-.08-.03c-.11-.91-.07-1.85.07-2.78.14-.97.4-1.93.75-2.85.7-1.85,1.83-3.51,3.22-4.88,1.39-1.38,3.07-2.42,4.9-3.17.92-.36,1.86-.66,2.82-.86.48-.11.96-.19,1.44-.24.47-.06.95-.09,1.37-.06.21,0,.43,0,.64-.06l3.91,1.55,4.63,1.88c3.07,1.28,6.14,2.57,9.13,3.96,1.51.68,2.97,1.41,4.45,2.13.59.31,1.19.62,1.78.93-.81-.07-1.63-.1-2.44-.09-1.74.04-3.49.28-5.19.7-1.71.42-3.36,1.06-4.93,1.88-.78.42-1.55.86-2.27,1.37-.38.24-.73.51-1.08.78-.36.26-.7.55-1.04.84-1.35,1.16-2.58,2.47-3.68,3.87-.99,1.29-1.89,2.67-2.69,4.14-.72-.54-1.44-1.07-2.18-1.58-4.24-2.93-8.77-5.44-13.53-7.43h0ZM311.47,92.16c-.44-.52-.89-1.02-1.35-1.52l-.7-.73-.7-.68c-.46-.46-.93-.91-1.41-1.34-.37-.33-.73-.67-1.1-1,.25-.31.44-.68.54-1.09.66-2.8,2.16-5.49,4.18-7.63,2.02-2.16,4.65-3.74,7.53-4.57,1.44-.43,2.93-.66,4.44-.73,1.51-.06,3.03.09,4.51.38,2.98.58,5.81,1.9,8.22,3.73h.02s.08.07.12.09c.09.06.18.1.28.14l.31.28c.28.26.55.57.82.85.54.58,1.1,1.14,1.63,1.73,1.01,1.22,2.07,2.41,2.98,3.72.98,1.25,1.81,2.62,2.69,3.95.41.68.79,1.38,1.19,2.07.19.35.4.69.59,1.04l.53,1.07c1.12,2.16,2.06,4.4,2.89,6.69-.03-.02-.06-.04-.09-.06-.81-.47-1.63-.94-2.46-1.37s-1.67-.83-2.52-1.21c-.42-.19-.85-.37-1.28-.55l-1.33-.5c-1.78-.63-3.62-1.09-5.48-1.38-3.72-.58-7.5-.47-11.19.09-1.85.29-3.69.67-5.5,1.17-1.75.47-3.46,1.03-5.24,1.71-.93-1.56-1.99-3.02-3.13-4.38v.03ZM264.57,141.82c2.35-.35,4.76-.57,7.25-.82,3.37-.35,6.79-.64,10.25-1.05,2.21,2.86,4.14,5.93,5.86,9.11,1.99,3.71,3.69,7.58,5.12,11.55,1.42,3.97,2.57,8.04,3.39,12.17s1.34,8.32,1.38,12.53c0,.07.01.15.02.22l-1.27.35c-.79.22-1.58.38-2.38.58-3.18.73-6.41,1.28-9.66,1.67-2.72.33-5.46.55-8.21.72-.08-.37-.23-.74-.47-1.07-2.41-3.29-4.44-6.84-6.2-10.53-1.75-3.69-3.19-7.53-4.34-11.45-1.14-3.93-1.98-7.94-2.46-11.99-.46-3.87-.62-7.78-.34-11.66.68-.12,1.37-.23,2.06-.34h0ZM257.36,143.28c.62,3.74,1.25,7.44,2.02,11.11.86,4.13,1.87,8.22,3.02,12.27,1.16,4.04,2.48,8.04,3.96,12,1.29,3.51,2.73,6.97,4.19,10.46-1.91.05-3.83.08-5.76.08-2.57,0-5.16-.07-7.76-.15-.07,0-.13-.03-.2-.04-.26-.06-.53-.12-.79-.19-.25-.05-.48-.18-.72-.3-.47-.25-.91-.54-1.33-.85-.83-.61-1.5-1.41-2.13-2.24-.62-.83-1.16-1.74-1.67-2.66-1-1.85-1.83-3.81-2.55-5.81-.36-1-.7-2.01-1-3.01l-.83-3.11c-.55-2.08-1.05-4.14-1.37-6.21-.32-2.08-.48-4.2-.59-6.36-.06-1.08-.12-2.16-.1-3.21.02-1.06.09-2.11.26-3.14.16-1.04.46-2,.99-2.88.25-.41.55-.79.88-1.16,1.71-.91,3.39-1.75,5.09-2.46,2.1-.88,4.21-1.58,6.36-2.14h.03ZM108.92,145.42c1.7.71,3.38,1.54,5.09,2.46.33.36.63.75.88,1.16.53.89.83,1.84.99,2.88.17,1.03.24,2.08.26,3.14.03,1.05-.04,2.13-.1,3.21-.11,2.16-.26,4.28-.59,6.36-.31,2.08-.82,4.13-1.37,6.21l-.83,3.11c-.3,1-.63,2.01-1,3.01-.73,1.99-1.56,3.95-2.55,5.81-.5.92-1.05,1.82-1.67,2.66-.63.83-1.3,1.63-2.13,2.24-.42.31-.86.6-1.33.85-.24.12-.46.25-.72.3-.26.07-.52.13-.79.19-.07,0-.13.03-.2.04-2.61.08-5.19.14-7.76.15-1.93,0-3.85-.03-5.76-.08,1.46-3.49,2.91-6.95,4.19-10.46,1.48-3.95,2.8-7.95,3.96-12,1.15-4.05,2.16-8.13,3.02-12.27.77-3.67,1.4-7.37,2.02-11.11,2.15.56,4.26,1.26,6.36,2.14h.03ZM95.35,141.82c.69.1,1.37.22,2.06.34.28,3.88.12,7.79-.34,11.66-.48,4.05-1.33,8.07-2.46,11.99-1.14,3.92-2.59,7.76-4.34,11.45-1.76,3.68-3.79,7.24-6.2,10.53-.12.17-.23.36-.32.56-.07.17-.12.34-.16.51-2.75-.17-5.49-.4-8.21-.72-3.25-.39-6.48-.95-9.66-1.67-.79-.19-1.59-.36-2.38-.58l-1.27-.34c0-.07,0-.15,0-.22.04-4.2.56-8.38,1.37-12.5.82-4.12,1.96-8.18,3.38-12.14,1.42-3.96,3.1-7.83,5.09-11.53,1.73-3.21,3.68-6.31,5.92-9.19,3.46.41,6.87.7,10.24,1.05,2.49.25,4.9.47,7.25.82l.02-.02ZM113.28,25.07c.21.06.44.06.67,0,.93-.3,1.96-.32,2.9-.06.95.25,1.79.8,2.46,1.51.33.36.62.77.86,1.2.23.44.41.9.55,1.38.24.87.28,1.78.17,2.67-.76,3.08-1.82,6.09-3.11,8.99-1,2.21-2.11,4.38-3.35,6.46-.24-.48-.5-.95-.76-1.41-.76-1.27-1.63-2.48-2.69-3.56-1.05-1.07-2.33-1.99-3.67-2.65-.67-.34-1.36-.63-2.06-.89-.05-.02-.1-.03-.15-.05.09-.08.18-.16.27-.25,3.78-3.71,6.38-8.37,7.91-13.3v-.04ZM96.79,44.28c1.89-.94,3.76-2.03,5.5-3.3.15.03.31.04.47.03.52-.06,1.18.02,1.79.14.31.06.62.14.92.23.3.1.6.2.89.31.59.23,1.14.52,1.65.86.5.35.99.75,1.42,1.21.86.91,1.57,2,2.1,3.17.27.58.49,1.19.67,1.81.08.31.17.62.22.93.03.15.06.31.08.45,0,.05.01.1.02.15-.66.97-1.34,1.91-2.06,2.83-2.75,3.54-5.94,6.7-9.47,9.38-.08-.29-.15-.59-.24-.88-.29-.98-.61-1.95-.99-2.9-.78-1.89-1.74-3.75-3.1-5.33-.68-.8-1.46-1.48-2.16-2.23-.72-.73-1.51-1.39-2.31-1.99-.82-.61-1.65-1.18-2.46-1.73,2.38-.95,4.76-1.95,7.09-3.13h-.03ZM68.65,55.51l16.83-6.46s.03.02.05.03h.01c1.84.79,3.61,1.44,5.24,2.26.81.41,1.59.86,2.31,1.38.36.26.7.55.97.89.14.17.27.34.39.53.13.18.24.36.35.55.9,1.5,1.5,3.19,1.83,4.94.35,1.74.49,3.58.44,5.34v.14c-2.93,1.79-6.04,3.29-9.26,4.5-1.1.43-2.24.79-3.36,1.16-1.12.35-2.31.69-3.49,1.03-1.08.32-2.16.66-3.23,1.04-.26-.78-.54-1.53-.83-2.27-.45-1.1-.94-2.17-1.49-3.21-1.09-2.07-2.43-4.03-4.09-5.71-.83-.84-1.72-1.61-2.72-2.3-.99-.69-2.02-1.26-3.08-1.76-.33-.16-.67-.32-1-.46,1.38-.54,2.75-1.08,4.12-1.61h.01ZM40.87,66.84c2.99-1.39,6.06-2.68,9.13-3.96l4.63-1.88,3.76-1.49c.44,0,.92.02,1.39.07.51.05,1.02.12,1.52.21,1.01.18,2.01.45,2.98.77.96.33,1.89.74,2.75,1.23.84.49,1.66,1.1,2.4,1.79,1.47,1.38,2.67,3.07,3.43,4.97.37.95.66,1.93.8,2.94.15.96.2,1.93.08,2.87-.03.01-.05.02-.08.03-4.76,1.99-9.28,4.5-13.53,7.43-.73.51-1.45,1.04-2.16,1.57-.19-.3-.38-.59-.57-.88-.5-.78-1.06-1.52-1.6-2.25-1.12-1.46-2.32-2.84-3.65-4.11-1.33-1.27-2.79-2.43-4.39-3.39-1.62-.97-3.29-1.7-5.02-2.27-2.13-.71-4.35-1.17-6.6-1.37.09-.05.19-.1.28-.15,1.48-.72,2.94-1.46,4.45-2.13ZM13.11,91.94l.53-1.07c.18-.35.39-.69.59-1.04.4-.69.78-1.39,1.19-2.07.88-1.33,1.7-2.7,2.69-3.95.91-1.31,1.97-2.49,2.98-3.72.53-.59,1.09-1.15,1.63-1.73.28-.28.54-.59.82-.85l.85-.77c.58-.53,1.19-1.03,1.82-1.52,1.82-1.11,3.92-1.86,6.11-2.21,1.54-.24,3.13-.32,4.71-.17,1.58.12,3.15.41,4.67.89,1.51.47,3,1.1,4.29,1.92,1.31.83,2.5,1.86,3.54,3.05,1.04,1.18,1.94,2.5,2.68,3.91.38.69.7,1.43.99,2.16.25.67.49,1.39.62,2.03-.42.36-.82.75-1.24,1.12-.48.43-.95.89-1.41,1.34l-.7.68-.7.73c-.46.49-.91,1-1.35,1.52-1.14,1.36-2.2,2.82-3.13,4.38-1.82-.69-3.56-1.26-5.35-1.73-1.85-.51-3.73-.89-5.61-1.18-3.77-.56-7.62-.63-11.41,0-1.89.32-3.75.83-5.56,1.5s-3.5,1.48-5.18,2.37c-.67.36-1.33.74-1.99,1.12.83-2.29,1.77-4.53,2.89-6.69l.03-.02ZM7.05,129.08c-.12-.78-.21-1.57-.32-2.36-.08-.79-.13-1.58-.2-2.37l-.09-1.19-.03-1.19c-.01-.79-.05-1.59-.04-2.38.06-1.59.06-3.18.24-4.77.1-1.59.36-3.17.58-4.75.12-.79.3-1.57.45-2.35l.23-1.17c.04-.16.08-.32.12-.48.1-.13.2-.25.31-.38.53-.63,1.12-1.23,1.74-1.82s1.28-1.15,1.96-1.68c.67-.54,1.38-1.05,2.09-1.54,1.44-.96,2.97-1.82,4.52-2.52,1.56-.69,3.19-1.2,4.87-1.52,3.36-.63,6.87-.48,10.22.36.83.21,1.66.46,2.47.75s1.6.63,2.38.98c1.54.73,3.06,1.6,4.32,2.64.04.03.08.05.12.08-.67,1.88-1.12,3.87-1.28,5.9-.13,1.61-.09,3.24.11,4.83-.04.02-.07.03-.11.05l-.03.02c-3.85,1.99-7.49,4.15-10.87,6.66-1.7,1.25-3.31,2.59-4.87,4-1.54,1.43-3.01,2.93-4.37,4.53-1.36,1.6-2.62,3.29-3.76,5.07-.57.88-1.12,1.8-1.62,2.71-.51.9-1,1.81-1.5,2.72-.98,1.83-1.93,3.68-2.82,5.61-.09.2-.18.4-.27.61-.87-1.9-1.65-3.85-2.31-5.83-.99-3.01-1.75-6.09-2.24-9.22h0ZM18.09,155.15c-1.12-1.52-2.15-3.1-3.13-4.7-.03-.81.07-1.72.23-2.64.15-.93.4-1.86.65-2.81.53-1.88,1.21-3.75,1.98-5.59.38-.92.79-1.83,1.21-2.74.43-.9.85-1.76,1.34-2.62.97-1.7,2.08-3.32,3.34-4.83,2.5-3.02,5.54-5.61,8.91-7.63,3.24-1.94,6.79-3.41,10.46-4.15.76,2.15,1.8,4.18,3.02,6.05,1.51,2.33,3.31,4.43,5.34,6.28.98.89,2,1.73,3.08,2.51-2.39,1.78-4.65,3.68-6.76,5.74-1.58,1.54-3.06,3.18-4.47,4.87l-1.02,1.3-.51.65-.48.67-.96,1.34c-.31.45-.59.93-.89,1.39-2.35,3.72-4.26,7.73-5.64,11.94-.98,2.98-1.69,6.05-2.19,9.18l-.23-.2c-4.99-4.18-9.47-8.85-13.26-14.02h-.02ZM55.22,183.33l-1.13-.45c-.75-.3-1.52-.57-2.25-.91l-2.22-.98-2.18-1.07c-.73-.34-1.43-.75-2.15-1.13-.71-.39-1.43-.76-2.11-1.18l-2.08-1.24-2.02-1.33c-.68-.43-1.33-.91-1.98-1.38l-.6-.43c-.42-4-.09-8.09.87-12.04.94-3.97,2.61-7.78,4.79-11.24,1.06-1.75,2.35-3.36,3.67-4.93l1.05-1.13.52-.56.56-.53c.37-.35.74-.71,1.11-1.06l1.17-1c2.73-2.28,5.76-4.22,8.99-5.63,2.07,1.02,4.21,1.83,6.36,2.48,2.4.72,4.81,1.25,7.21,1.65-1.25,2.86-2.49,5.71-3.67,8.57-1.65,3.98-3.17,7.99-4.63,12.01-1.45,4.03-2.81,8.1-4.07,12.21-1.22,3.92-2.33,7.89-3.52,11.89-.18-.06-.36-.13-.54-.19l-1.15-.41h0ZM235.41,302.21c.05,3.02-.51,6.1-1.33,9.15-1.66,6.1-4.16,12.17-6.56,18.23-1.21,2.96-2.54,5.82-4.34,8.2-.9,1.2-1.93,2.25-3.09,3.18-.28.24-.59.44-.89.67-.17.12-.23.16-.43.29-.14.09-.3.18-.46.27-.65.37-1.34.71-2.03,1.02-1.4.62-2.85,1.12-4.33,1.47-.74.17-1.48.32-2.23.39-.37.03-.74.08-1.12.1l-1.16.04c-1.56.01-3.16-.03-4.77-.14-1.61-.1-3.23-.23-4.86-.39-6.51-.62-13.1-1.34-19.81-1.24-3.37.03-6.67.34-9.94.63-3.28.29-6.53.61-9.76.83-1.61.11-3.22.17-4.8.18l-1.17-.02-1.15-.06c-.38-.02-.74-.08-1.1-.11-.37-.05-.74-.12-1.1-.18-1.47-.3-2.93-.73-4.33-1.31-.7-.29-1.4-.6-2.07-.95-.33-.17-.66-.35-.98-.54-.16-.09-.3-.18-.43-.27-.15-.1-.29-.2-.44-.31-2.4-1.7-4.23-4-5.68-6.69-1.46-2.69-2.56-5.69-3.76-8.76-1.17-3.05-2.35-6.07-3.38-9.11-1.02-3.04-1.93-6.07-2.45-9.1-.06-.38-.15-.76-.19-1.13l-.13-1.13c-.11-.76-.1-1.5-.14-2.25-.03-.38,0-.74,0-1.11l.03-1.11.13-1.09c.05-.36.06-.73.16-1.08.17-.7.26-1.43.52-2.11l.33-1.04c.12-.34.28-.67.42-1.01.15-.34.28-.67.44-1.01s.33-.67.51-.99c.35-.65.74-1.28,1.15-1.9,1.67-2.44,3.77-4.57,6.26-6.03,1.24-.73,2.56-1.31,3.95-1.68s2.84-.56,4.34-.61c1.5-.04,3.06.06,4.64.21.79.08,1.59.17,2.4.27l1.21.15c.38.06.76.1,1.14.17,3.05.51,6.12,1.47,9.3,2.4,1.59.46,3.22.91,4.9,1.26,1.7.35,3.36.57,5.03.78,3.35.38,6.72.49,10.08.38,3.36-.12,6.72-.49,10.02-1.13,1.66-.31,3.33-.73,4.93-1.19,1.61-.45,3.18-.94,4.73-1.4s3.09-.88,4.63-1.2c.77-.17,1.53-.29,2.3-.4l2.42-.32c1.6-.19,3.18-.35,4.72-.38,1.54-.03,3.05.08,4.51.36,2.9.58,5.6,1.98,7.86,3.93,2.26,1.96,4.08,4.46,5.4,7.21,1.29,2.72,1.94,5.67,1.97,8.69l-.02.02ZM264.22,195.04c-1.68,1.66-3.06,3.56-4.14,5.58-1.08,2.02-1.87,4.15-2.4,6.32.03-.06.07-.12.1-.17-.14.56-.22,1.14-.23,1.72-.03.93-.01,1.86,0,2.77.03,1.8-.05,3.59-.27,5.36-.41,3.54-1.24,7-2.53,10.25-.32.81-.66,1.56-1.06,2.23s-.9,1.33-1.45,2.02c-1.12,1.38-2.29,2.81-3.43,4.25s-2.25,2.91-3.35,4.39c-1.09,1.48-2.16,2.98-3.22,4.47-2.08,2.99-4.22,6.01-6.06,9.34-.45.83-.88,1.67-1.29,2.52-.41.84-.78,1.67-1.16,2.52-.76,1.69-1.47,3.45-2.05,5.26-1.17,3.62-1.71,7.47-1.56,11.22.15,3.45.8,6.85,2.01,10.02-.54-.55-1.09-1.08-1.68-1.58-2.71-2.31-6.05-3.98-9.59-4.64-1.77-.33-3.55-.42-5.28-.36-1.73.06-3.42.25-5.07.47l-2.45.35c-.85.13-1.7.28-2.54.47-1.67.37-3.29.82-4.88,1.3-1.59.48-3.14.98-4.69,1.43-1.55.44-3.06.82-4.63,1.11-3.13.6-6.32.94-9.51,1.04-3.19.1-6.39-.08-9.55-.47-1.58-.21-3.17-.46-4.67-.81-1.53-.36-3.05-.81-4.59-1.3-3.08-.98-6.24-2.12-9.65-2.81-.42-.09-.86-.16-1.29-.23l-1.23-.19c-.82-.13-1.64-.25-2.48-.36-1.67-.22-3.39-.39-5.17-.4-1.77,0-3.6.17-5.4.6-1.8.43-3.52,1.12-5.13,2s-3.1,1.97-4.44,3.21c0,.01-.02.02-.03.03.94-2.83,1.46-5.82,1.59-8.85.15-3.76-.39-7.6-1.56-11.22-.58-1.81-1.29-3.57-2.05-5.26-.38-.85-.75-1.68-1.16-2.52-.41-.85-.84-1.69-1.29-2.52-1.83-3.33-3.97-6.34-6.06-9.34-1.06-1.49-2.13-2.99-3.22-4.47-1.1-1.47-2.2-2.94-3.35-4.39-1.14-1.44-2.31-2.88-3.43-4.25-.55-.69-1.05-1.35-1.45-2.02-.4-.67-.74-1.41-1.06-2.23-1.28-3.24-2.11-6.7-2.53-10.25-.22-1.77-.3-3.57-.27-5.36.02-.91.04-1.84,0-2.77-.02-.57-.09-1.16-.23-1.72.03.06.07.12.1.17-.53-2.17-1.32-4.3-2.4-6.32s-2.46-3.92-4.14-5.58c-.84-.83-1.77-1.58-2.75-2.27-.29-.2-.59-.4-.91-.59,1.1-.15,2.21-.32,3.3-.52,3.34-.63,6.65-1.47,9.83-2.69h-.12c.46-.14.91-.31,1.34-.53,1.04-.52,1.96-1.26,2.76-2.06s1.52-1.7,2.17-2.62c1.29-1.86,2.33-3.85,3.21-5.91.44-1.03.84-2.07,1.19-3.15.1-.3.17-.54.25-.81l.23-.79.44-1.59c.57-2.12,1.07-4.32,1.31-6.57s.23-4.49.1-6.68c-.03-.55-.08-1.1-.11-1.65-.04-.55-.09-1.12-.16-1.67-.14-1.11-.34-2.23-.67-3.32-.16-.55-.37-1.09-.63-1.61-.26-.53-.59-1.02-.98-1.44-.04-.04-.08-.07-.12-.11-1.56-2.61-3.75-4.85-6.28-6.66.29-.38.59-.75.9-1.1.25-.31.51-.62.79-.91.28-.29.53-.6.82-.87,1.11-1.14,2.29-2.18,3.54-3.08,2.5-1.82,5.24-3.11,8.15-4.09,5.82-1.99,11.9-2.65,17.92-2.2,1.5.12,3.01.27,4.5.5,1.5.22,2.99.49,4.48.83,2.99.66,6.04,1.51,9.15,2.4,3.12.88,6.29,1.81,9.57,2.58,1.64.37,3.29.73,4.99.98.42.08.85.13,1.27.18l.64.08.32.04.35.04c.92.08,1.65.1,2.23.21h0c.26.05.53.05.81,0,.57-.11,1.31-.14,2.22-.22l.35-.04.32-.04.64-.09c.42-.06.85-.11,1.27-.19l1.26-.22,1.24-.26c.83-.17,1.65-.37,2.46-.56,3.25-.84,6.4-1.81,9.5-2.75,1.55-.46,3.09-.93,4.61-1.34,1.53-.42,3.04-.82,4.55-1.13,3-.67,6.03-1.04,9.06-1.17,6.06-.28,12.08.55,17.84,2.59,2.88,1,5.59,2.26,8.09,4.04,2.5,1.75,4.71,4.04,6.82,6.58-2.09,1.66-3.9,3.64-5.25,5.89-.04.04-.08.07-.12.11-.4.42-.73.92-.98,1.44-.26.52-.46,1.06-.63,1.61-.33,1.09-.53,2.2-.67,3.32-.07.56-.12,1.12-.16,1.67-.04.55-.08,1.1-.11,1.65-.12,2.2-.14,4.44.1,6.68.23,2.25.73,4.45,1.31,6.57l.44,1.59.23.79c.08.27.15.51.25.81.35,1.08.75,2.12,1.19,3.15.88,2.05,1.92,4.05,3.21,5.91.65.93,1.35,1.82,2.17,2.62.8.81,1.72,1.54,2.76,2.06.43.22.88.39,1.34.53h-.12c3.17,1.22,6.48,2.06,9.83,2.69,1.1.2,2.2.37,3.3.52-.31.19-.62.38-.91.59-.98.69-1.9,1.44-2.75,2.27l.06-.05ZM320.86,175.06l-2.02,1.33-2.08,1.24c-.69.42-1.4.8-2.11,1.18-.71.38-1.41.79-2.15,1.13l-2.18,1.07-2.22.98c-.74.34-1.5.61-2.25.91l-1.13.45-1.15.41c-.18.06-.36.13-.54.19-1.19-4.01-2.3-7.98-3.53-11.92-1.27-4.12-2.63-8.2-4.08-12.24-1.46-4.04-3-8.05-4.65-12.04-1.17-2.83-2.4-5.65-3.64-8.48,2.4-.4,4.82-.93,7.23-1.65,2.15-.65,4.29-1.45,6.36-2.48,3.23,1.42,6.26,3.36,8.99,5.63l1.17,1c.38.34.74.71,1.11,1.06l.56.53.52.56,1.05,1.13c1.32,1.57,2.6,3.18,3.67,4.93,2.18,3.47,3.84,7.27,4.79,11.24.97,3.94,1.29,8.04.87,12.04l-.6.43c-.65.47-1.3.95-1.98,1.38h-.01ZM328.57,169.17l-.23.2c-.51-3.13-1.22-6.2-2.19-9.18-1.38-4.21-3.29-8.22-5.64-11.94-.3-.46-.58-.94-.89-1.39l-.96-1.34-.48-.67-.51-.65-1.02-1.3c-1.41-1.69-2.89-3.33-4.47-4.87-2.12-2.05-4.38-3.95-6.76-5.74,1.08-.78,2.1-1.62,3.08-2.51,2.02-1.85,3.82-3.95,5.34-6.28,1.22-1.88,2.25-3.9,3.02-6.05,3.71.75,7.29,2.24,10.56,4.21,3.4,2.05,6.45,4.69,8.96,7.75,1.25,1.54,2.36,3.18,3.33,4.91.94,1.73,1.77,3.55,2.47,5.42.71,1.87,1.3,3.78,1.75,5.71.22.96.42,1.93.55,2.88.13.88.21,1.77.2,2.59-.89,1.45-1.84,2.86-2.85,4.24-3.79,5.17-8.27,9.83-13.26,14.02h0ZM353.5,121.98l-.03,1.19-.09,1.19c-.07.79-.12,1.58-.2,2.37-.11.78-.19,1.57-.32,2.36-.49,3.13-1.25,6.21-2.24,9.22-.71,2.13-1.54,4.21-2.5,6.25-.05-.13-.1-.27-.15-.4-.81-1.98-1.67-3.91-2.6-5.81-.93-1.89-1.93-3.76-3.09-5.57-1.14-1.8-2.4-3.52-3.76-5.15-2.74-3.25-5.89-6.12-9.3-8.66-3.42-2.54-7.09-4.72-10.98-6.74l-.05-.02s-.06-.03-.1-.04c.2-1.6.25-3.22.11-4.83-.16-2.03-.62-4.01-1.28-5.89.04-.03.08-.06.11-.09,1.23-1.02,2.72-1.88,4.23-2.6,1.53-.71,3.12-1.31,4.76-1.72,3.27-.84,6.72-1.04,10.03-.47,1.65.28,3.27.74,4.81,1.39,1.52.64,3.05,1.48,4.45,2.4,1.42.92,2.74,1.99,3.94,3.13.59.59,1.16,1.17,1.66,1.81.49.6.92,1.23,1.23,1.84l.12.61c.15.78.33,1.56.45,2.35.22,1.58.48,3.15.58,4.75.18,1.59.18,3.18.24,4.77.01.79-.03,1.59-.04,2.38v-.02Z"/>
  <path class="st0" d="M90.09,231.48c-1.94.78-3.91,1.41-5.91,1.83-1,.22-2.01.38-3.02.48-1,.14-2.02.17-3.02.22-2.02,0-4.03-.07-6.02-.42-.25-.04-.5-.06-.74-.11l-.74-.15c-.49-.11-.99-.19-1.47-.31-.97-.27-1.95-.48-2.9-.81-1.92-.6-3.78-1.36-5.59-2.23-1.81-.86-3.54-1.89-5.22-2.98-1.64-1.14-3.26-2.33-4.72-3.68-1.49-1.32-2.89-2.79-4.24-4.32-1.36-1.53-2.66-3.14-3.96-4.78-2.6-3.27-5.17-6.7-8.06-9.92-1.41-1.59-2.85-3.17-4.32-4.71-.73-.77-1.44-1.53-2.15-2.3l-2.12-2.34c-1.41-1.57-2.8-3.16-4.2-4.75l-4.17-4.82c.48.96.99,1.89,1.5,2.83.52.93,1.06,1.85,1.6,2.77,1.09,1.84,2.24,3.63,3.43,5.41.6.89,1.2,1.76,1.82,2.64.62.88,1.27,1.74,1.91,2.59l3.81,5.06c2.5,3.32,4.83,6.81,7.36,10.28,1.26,1.73,2.59,3.44,4,5.12,1.42,1.66,2.94,3.28,4.61,4.78l1.27,1.1c.43.36.88.69,1.32,1.04l.67.51c.22.17.46.32.69.48l1.38.95,1.44.86c.24.14.48.29.72.43l.74.39c.5.26.98.53,1.48.77l1.52.69c2.05.87,4.15,1.65,6.32,2.16,1.07.3,2.18.49,3.27.69.55.09,1.11.14,1.66.22l.83.1c.28.03.56.04.83.06l1.67.09,1.67-.02c.28,0,.56,0,.83-.02l.83-.07c.55-.05,1.11-.08,1.66-.16,1.1-.18,2.2-.32,3.27-.62,1.08-.25,2.14-.56,3.17-.94,4.14-1.51,7.87-3.9,10.9-6.91-.92.54-1.84,1.07-2.79,1.54-.94.48-1.89.92-2.85,1.32l.03-.04Z"/>
  <path class="st0" d="M167.19,318.99c-.96-1.81-2.45-3.15-4-4.11-1.56-.96-3.2-1.59-4.79-2.11s-3.15-.94-4.64-1.42c-.75-.24-1.48-.5-2.18-.79l-.26-.11-.22-.1c-.15-.07-.3-.15-.45-.24-.3-.17-.59-.38-.89-.6-1.19-.89-2.34-2.12-3.89-3.08-.39-.24-.8-.45-1.24-.63-.46-.19-.97-.31-1.48-.36-.51-.04-1.05,0-1.58.16-.26.09-.53.19-.77.34-.26.15-.44.32-.63.48-.76.67-1.29,1.55-1.6,2.45-.29.9-.42,1.8-.46,2.68-.06,1.77.21,3.47.65,5.14.11.42.24.83.39,1.24.15.42.32.82.49,1.21.35.78.75,1.55,1.18,2.29,1.74,2.95,4.14,5.56,7.1,7.47,1.47.95,3.05,1.74,4.86,2.24,1.77.5,3.63.64,5.49.43.93-.09,1.85-.31,2.75-.59.89-.33,1.78-.71,2.6-1.25.84-.5,1.58-1.17,2.26-1.88.32-.37.63-.76.91-1.17l.38-.63.19-.32.18-.38c.48-1.02.68-2.2.6-3.31-.09-1.12-.45-2.14-.92-3.05h-.03ZM163.94,323.71l-.08.17-.13.2-.25.4c-.08.14-.19.25-.28.37-.1.12-.18.25-.29.37-.43.45-.89.89-1.44,1.23-1.07.71-2.36,1.16-3.71,1.35s-2.78.15-4.14-.15c-1.33-.29-2.72-.87-4.01-1.58-2.58-1.44-4.85-3.54-6.57-6.04-.43-.63-.82-1.28-1.17-1.95-.17-.34-.34-.68-.48-1.01-.14-.34-.28-.69-.4-1.05-.49-1.43-.77-2.95-.79-4.41,0-.73.07-1.44.26-2.09.21-.64.53-1.19.99-1.58.24-.23.4-.33.66-.39.25-.06.53-.08.82-.04.29.04.58.12.86.25.31.14.6.31.9.51,1.17.81,2.2,2.01,3.52,3.16.33.29.68.57,1.07.83.19.13.39.26.6.38l.31.17.29.15c.76.38,1.54.73,2.3,1.05,3.06,1.27,6.15,2.23,8.44,3.87,1.15.8,2.04,1.8,2.57,2.87.25.54.41,1.08.42,1.58.03.5-.05.96-.27,1.4v-.02Z"/>
  <path class="st0" d="M221.37,308.87c-.31-.89-.84-1.77-1.6-2.45-.19-.17-.37-.33-.63-.48-.25-.15-.51-.25-.77-.34-.53-.16-1.07-.2-1.58-.16s-1.02.17-1.48.36c-.44.18-.85.39-1.24.63-1.56.96-2.7,2.19-3.89,3.08-.3.22-.59.42-.89.6-.15.08-.3.17-.45.24l-.22.1-.26.11c-.7.3-1.43.55-2.18.79-1.49.48-3.05.9-4.64,1.42-1.59.52-3.22,1.15-4.79,2.11-1.55.96-3.04,2.31-4,4.11-.47.91-.83,1.93-.92,3.05-.08,1.11.11,2.3.6,3.31l.18.38.19.32.38.63c.28.41.59.8.91,1.17.68.71,1.42,1.38,2.26,1.88.82.54,1.7.92,2.6,1.25.91.28,1.83.5,2.75.59,1.85.21,3.71.07,5.49-.43,1.81-.5,3.39-1.29,4.86-2.24,2.96-1.91,5.35-4.52,7.1-7.47.43-.74.83-1.51,1.18-2.29.17-.39.34-.79.49-1.21.14-.41.28-.83.39-1.24.44-1.66.72-3.37.65-5.14-.04-.89-.18-1.79-.46-2.68h-.03ZM218.92,316.01c-.12.36-.25.71-.4,1.05-.14.33-.31.67-.48,1.01-.35.67-.74,1.32-1.17,1.95-1.72,2.5-3.98,4.61-6.57,6.04-1.29.72-2.68,1.29-4.01,1.58-1.36.3-2.78.35-4.14.15s-2.65-.64-3.71-1.35c-.55-.33-1.01-.78-1.44-1.23-.11-.11-.19-.25-.29-.37-.09-.13-.21-.24-.28-.37l-.25-.4-.13-.2-.08-.17c-.22-.44-.29-.9-.27-1.4.02-.5.17-1.04.42-1.58.53-1.07,1.43-2.07,2.57-2.87,2.29-1.65,5.38-2.6,8.44-3.87.77-.32,1.54-.67,2.3-1.05l.29-.15.31-.17c.21-.12.4-.25.6-.38.38-.26.73-.55,1.07-.83,1.31-1.15,2.35-2.35,3.52-3.16.29-.2.59-.37.9-.51.28-.13.57-.21.86-.25s.57-.02.82.04c.26.07.42.16.66.39.46.39.78.94.99,1.58.19.65.26,1.37.26,2.09-.02,1.46-.31,2.98-.79,4.41v.02Z"/>
  <path class="st0" d="M94.81,209.55c-1.23-1.06-2.69-1.89-4.17-2.51-1.49-.63-3.02-1.08-4.56-1.43-3.08-.72-6.2-1.1-9.31-1.32-3.11-.21-6.21-.28-9.32-.23-1.55.03-3.11.1-4.67.2-1.55.11-3.11.25-4.63.42-1.52.16-3,.31-4.46.34s-2.93-.06-4.42-.21c-5.95-.62-11.81-2.37-17.44-4.9,2.48,1.85,5.2,3.38,8.07,4.64,2.88,1.22,5.9,2.16,9,2.74,1.55.28,3.15.49,4.76.54,1.61.07,3.2-.04,4.74-.13,3.07-.22,6.06-.39,9.1-.43,1.52-.03,3.04-.04,4.55-.02,1.52,0,3.03.04,4.55.08,3.02.1,6.04.31,8.99.76.74.1,1.46.25,2.19.39l1.08.25,1.06.29c1.41.41,2.73.98,3.94,1.79,2.48,1.61,4.56,3.87,6.23,6.47-1.03-2.92-2.86-5.61-5.28-7.72h0Z"/>
  <path class="st0" d="M334.03,194.92l-2.12,2.34c-.71.77-1.42,1.53-2.15,2.3-1.46,1.54-2.9,3.12-4.32,4.71-2.89,3.22-5.46,6.65-8.06,9.92-1.3,1.64-2.6,3.25-3.96,4.78-1.35,1.54-2.75,3-4.24,4.32-1.46,1.35-3.08,2.54-4.72,3.68-1.68,1.09-3.41,2.11-5.22,2.98s-3.67,1.63-5.59,2.23c-.95.34-1.93.55-2.9.81-.49.12-.98.21-1.47.31l-.74.15c-.25.05-.5.07-.74.11-1.99.35-4,.41-6.02.42-1.01-.05-2.02-.07-3.02-.22-1.01-.1-2.02-.26-3.02-.48-2-.42-3.97-1.05-5.91-1.83-.97-.39-1.92-.83-2.85-1.32-.95-.47-1.86-1-2.79-1.54,3.03,3,6.77,5.39,10.9,6.91,1.03.38,2.09.69,3.17.94,1.07.3,2.17.44,3.27.62.55.08,1.1.11,1.66.16l.83.07c.28.02.56,0,.83.02l1.67.02,1.67-.09c.28-.02.56-.03.83-.06l.83-.1c.55-.07,1.11-.12,1.66-.22,1.09-.21,2.2-.39,3.27-.69,2.17-.52,4.27-1.29,6.32-2.16l1.52-.69c.5-.24.99-.52,1.48-.77l.74-.39c.24-.13.48-.28.72-.43l1.44-.86,1.38-.95c.23-.16.46-.31.69-.48l.67-.51c.44-.35.89-.67,1.32-1.04l1.27-1.1c1.67-1.5,3.19-3.12,4.61-4.78,1.41-1.68,2.74-3.39,4-5.12,2.53-3.47,4.86-6.96,7.36-10.28l3.81-5.06c.64-.85,1.29-1.71,1.91-2.59.62-.88,1.23-1.75,1.82-2.64,1.19-1.78,2.34-3.57,3.43-5.41.54-.92,1.08-1.84,1.6-2.77.51-.94,1.03-1.87,1.5-2.83l-4.17,4.82c-1.4,1.59-2.79,3.18-4.2,4.75l.03.04Z"/>
  <path class="st0" d="M270,209.01l1.06-.29,1.08-.25c.73-.14,1.45-.29,2.19-.39,2.95-.45,5.96-.66,8.99-.76,1.51-.04,3.03-.09,4.55-.08,1.52-.02,3.04,0,4.55.02,3.04.04,6.03.21,9.1.43,1.54.1,3.12.2,4.74.13,1.61-.05,3.21-.26,4.76-.54,3.11-.58,6.13-1.52,9-2.74,2.86-1.26,5.59-2.79,8.07-4.64-5.63,2.53-11.48,4.29-17.44,4.9-1.49.16-2.96.24-4.42.21-1.46-.03-2.94-.18-4.46-.34s-3.07-.3-4.63-.42c-1.55-.1-3.11-.17-4.67-.2-3.11-.05-6.21.02-9.32.23-3.11.22-6.23.59-9.31,1.32-1.54.36-3.08.8-4.56,1.43-1.48.62-2.94,1.45-4.17,2.51-2.42,2.11-4.25,4.8-5.28,7.72,1.67-2.6,3.75-4.86,6.23-6.47,1.21-.81,2.53-1.38,3.94-1.79h0Z"/>
  <path class="st0" d="M152.92,223.16c-3.3-7.94-8.14-15.22-14.1-21.35-5.97-6.11-13.03-11.13-20.76-14.5,7.04,4.61,13.42,10.04,18.8,16.3,5.38,6.24,9.78,13.28,12.93,20.85,3.16,7.56,5.04,15.65,5.71,23.87.34,4.11.39,8.27.13,12.42-.22,4.16-.77,8.3-1.55,12.44,1.51-3.94,2.51-8.07,3.2-12.26.65-4.19.98-8.46.88-12.73-.18-8.54-1.92-17.11-5.24-25.04h0Z"/>
  <path class="st0" d="M235.76,211.83c-7.58,5.18-13.45,13.76-15.96,21-.81,2.34-1.78,6-1.82,10.85,1.43-3.55,3.02-6.28,4.27-8.19.39-.59.76-1.15,1.15-1.7,1.51,3.49,7.22,3.1,8.07,3.04,1.04-.07,3.76-.3,5.98-2.39.08-.08.14-.13.17-.17,2.93-2.88,3.79-8.02,2.71-8.6-.6-.32-1.27,1.04-3.67,1.55-.27.06-2.53.52-2.9-.2-.34-.67.88-2.38,2.52-2.99,2.07-.76,3.69.79,4.48,0,.85-.84-.24-3.81-.58-5.1-.35-1.32-1.38-2.77-2.17-3.64.35-.44,1.05-1.4,2.17-3.46,1.16-2.14,2-3.7,2.73-5.88.57-1.72,1.22-4.27,1.33-7.49-.27,2.21-.97,5.38-3.08,8.4-1.91,2.72-4.09,4.08-5.39,4.97h0Z"/>
  <path class="st0" d="M241.86,187.31c-7.73,3.37-14.79,8.39-20.76,14.5-5.96,6.13-10.8,13.41-14.1,21.35-3.32,7.93-5.06,16.5-5.24,25.04-.11,4.27.23,8.54.88,12.73.69,4.19,1.69,8.32,3.2,12.26-.78-4.14-1.33-8.29-1.55-12.44-.26-4.15-.21-8.3.13-12.42.66-8.23,2.55-16.31,5.71-23.87,3.14-7.57,7.54-14.61,12.93-20.85,5.38-6.26,11.76-11.69,18.8-16.3h0Z"/>
  <path class="st0" d="M195.64,170.97c-2.86,2.15-5.56,4.56-7.95,7.27-2.41,2.7-4.5,5.7-6.21,8.92-.91,1.72-1.69,3.52-2.34,5.36-.65-1.85-1.43-3.64-2.34-5.37-1.71-3.22-3.8-6.23-6.21-8.92-1.21-1.34-2.46-2.64-3.8-3.85-1.34-1.2-2.72-2.35-4.15-3.42-2.88-2.12-5.93-4-9.13-5.54,2.88,2.08,5.67,4.23,8.25,6.6,1.3,1.17,2.55,2.39,3.74,3.67,1.19,1.27,2.34,2.57,3.41,3.94.52.69,1.06,1.37,1.54,2.09.51.7.98,1.42,1.46,2.14.93,1.45,1.77,2.95,2.52,4.5,1.5,3.08,2.65,6.32,3.33,9.66.11.54.53.98,1.1,1.1.76.15,1.5-.34,1.66-1.1.68-3.34,1.83-6.58,3.33-9.66.75-1.54,1.58-3.05,2.52-4.5.94-1.44,1.93-2.86,3-4.22,2.15-2.71,4.55-5.26,7.15-7.61,2.58-2.37,5.38-4.53,8.26-6.6-3.2,1.54-6.25,3.42-9.13,5.54h-.01Z"/>
</svg>