<?xml version="1.0" encoding="UTF-8"?>
<svg id="Layer_1" data-name="Layer 1" xmlns="http://www.w3.org/2000/svg" xmlns:xlink="http://www.w3.org/1999/xlink" viewBox="0 0 500 493.14">
  <defs>
    <style>
      .cls-1 {
        fill: none;
      }

      .cls-2 {
        clip-path: url(#clippath-1);
      }

      .cls-3 {
        fill: #fff;
      }

      .cls-4 {
        fill: #9a6c29;
      }

      .cls-5 {
        clip-path: url(#clippath);
      }
    </style>
    <clipPath id="clippath">
      <rect class="cls-1" width="500" height="493.14"/>
    </clipPath>
    <clipPath id="clippath-1">
      <rect class="cls-1" width="500" height="493.14"/>
    </clipPath>
  </defs>
  <g id="Taurus">
    <g class="cls-5">
      <g class="cls-2">
        <path class="cls-4" d="M364.47,254.7c-17.39,0-25.27-20.33-29.5-31.24-5.73-14.78-7.91-27.65-6.67-39.36,1.01-9.6,8.4-13.84,14.72-16.45l1.83-.76c13.06-5.39,24.33-10.04,34.75-19.65,9.45-8.72,15.97-19.14,18.86-30.12,2.23-8.47,2.42-17.57,2.6-26.37.12-5.74.24-11.67.92-17.47,1.74-14.94,7.47-29.96,16.59-43.45,7.8-11.53,16.93-23.33,35.15-29.67,1.19-.41,2.51.03,3.21,1.07.71,1.05.62,2.44-.21,3.38-12.46,14.22-16.71,31.47-13.38,54.29,1.39,9.53,3.35,19.24,5.23,28.64,5.05,25.07,10.26,50.99,5.71,77.24-5.66,32.6-30.4,64.57-63.03,81.44-8.66,4.48-16.26,7.16-23.25,8.21-1.19.18-2.37.27-3.51.27M446.08,9.64c-10.59,6-16.95,14.44-22.93,23.29-8.62,12.75-14.04,26.92-15.67,40.97-.64,5.54-.76,11.34-.88,16.95-.19,9.13-.38,18.56-2.78,27.66-3.16,12.01-10.24,23.35-20.47,32.79-11.15,10.29-23.41,15.35-36.39,20.7l-1.83.75c-7.47,3.09-10.75,6.54-11.32,11.91-1.14,10.81.93,22.84,6.33,36.77,5.58,14.38,12.38,27.7,24.32,27.7.87,0,1.77-.07,2.69-.2,6.38-.96,13.41-3.46,21.52-7.65,31.14-16.1,54.73-46.5,60.1-77.46,4.38-25.23-.73-50.63-5.68-75.2-1.91-9.47-3.88-19.26-5.29-28.93-2.89-19.84-.19-36.32,8.27-50.06"/>
        <path class="cls-4" d="M134.09,254.67h0c-1.05,0-2.14-.08-3.21-.24-6.99-1.05-14.59-3.74-23.25-8.21-32.63-16.87-57.37-48.84-63.03-81.44-4.56-26.25.66-52.17,5.7-77.24,1.89-9.4,3.85-19.11,5.24-28.64,3.33-22.82-.93-40.07-13.38-54.29-.83-.95-.92-2.34-.21-3.38.71-1.05,2.03-1.48,3.22-1.07,18.21,6.34,27.35,18.13,35.15,29.67,9.12,13.49,14.85,28.51,16.59,43.45.67,5.8.8,11.74.91,17.47.18,8.8.37,17.9,2.6,26.37,2.89,10.98,9.41,21.4,18.86,30.12,10.41,9.61,21.68,14.26,34.74,19.65l1.83.76c6.21,2.57,13.48,6.75,14.72,16.4,1.45,11.39-.8,24.66-6.68,39.44-3.71,9.33-12.42,31.2-29.78,31.2M52.77,9.64c8.45,13.73,11.16,30.22,8.27,50.06-1.41,9.68-3.38,19.47-5.29,28.93-4.94,24.57-10.06,49.97-5.68,75.19,5.37,30.95,28.97,61.36,60.11,77.46,8.11,4.19,15.15,6.69,21.52,7.65l2.39.18c12.05,0,19.49-14.8,24.62-27.7,5.53-13.9,7.66-26.24,6.33-36.69-.7-5.46-3.98-8.93-11.33-11.97l-1.83-.76c-12.98-5.36-25.24-10.42-36.39-20.7-10.23-9.44-17.31-20.78-20.47-32.79-2.39-9.11-2.59-18.54-2.77-27.66-.12-5.61-.24-11.41-.88-16.95-1.63-14.05-7.05-28.22-15.67-40.97-5.98-8.85-12.34-17.29-22.93-23.29"/>
        <path class="cls-4" d="M189.12,424.91c-1.15,0-2.23-.72-2.63-1.87l-58.8-170.24c-.5-1.45.27-3.03,1.72-3.53,1.45-.5,3.03.27,3.53,1.72l58.8,170.24c.5,1.45-.27,3.03-1.72,3.53l-.91.15Z"/>
        <path class="cls-4" d="M310.23,426.71l-.88-.15c-1.46-.48-2.24-2.06-1.76-3.51l57.34-172.25c.49-1.45,2.05-2.25,3.51-1.76,1.46.48,2.24,2.06,1.76,3.51l-57.34,172.25c-.38,1.16-1.47,1.9-2.63,1.9"/>
        <path class="cls-4" d="M347.78,169.19l-1.61-.51c-41.33-29.39-69.72-35.42-99.63-35.42s-57.91,6.02-99.24,35.42c-1.25.89-2.99.6-3.87-.65-.89-1.25-.6-2.98.65-3.87,36.88-26.23,65.61-36.44,102.46-36.44s65.97,10.22,102.85,36.44c1.25.89,1.54,2.62.65,3.87-.54.76-1.4,1.17-2.27,1.17"/>
        <path class="cls-4" d="M269.58,478.1h-40.25c-24.56,0-44.54-19.98-44.54-44.54s19.98-44.54,44.54-44.54h40.25c24.56,0,44.55,19.98,44.55,44.54s-19.99,44.54-44.55,44.54M229.33,394.57c-21.5,0-38.99,17.49-38.99,38.99s17.49,38.99,38.99,38.99h40.25c21.5,0,38.99-17.49,38.99-38.99s-17.49-38.99-38.99-38.99h-40.25Z"/>
        <path class="cls-4" d="M267.53,493.14h-36.16c-22.22,0-40.29-16.78-40.29-37.4,0-1.54,1.24-2.78,2.78-2.78s2.78,1.24,2.78,2.78c0,17.56,15.58,31.84,34.74,31.84h36.16c19.15,0,34.74-14.28,34.74-31.84,0-1.54,1.24-2.78,2.78-2.78s2.78,1.24,2.78,2.78c0,20.62-18.07,37.4-40.29,37.4"/>
        <path class="cls-4" d="M218.55,451.72c-2.01,0-4.01-.43-5.9-1.3-1.05-.48-1.5-1.72-1.02-2.76.48-1.05,1.71-1.5,2.77-1.02,3.27,1.51,6.91,1.17,9.98-.92,3.26-2.23,5.15-6,4.93-9.85-.25-4.29-3.54-8.31-8.01-9.76-1.87-.6-6.58-1.56-10.13,2.75-1.58,1.92-1.88,4.73-.75,6.99.93,1.86,3.65,3.49,5.52,3.34,1.37-.13,2.74-1.45,3.12-3,.29-1.18-.04-2.08-.99-2.7l-1.18.18c.05,1.15-.84,2.13-1.98,2.18-1.18.05-2.12-.84-2.17-1.98-.07-1.62.76-3.08,2.21-3.91,1.67-.95,3.88-.93,5.39.05,2.45,1.59,3.47,4.28,2.75,7.19-.81,3.27-3.66,5.86-6.78,6.15-4.02.39-8.13-2.63-9.63-5.62-1.85-3.7-1.35-8.32,1.26-11.5,3.59-4.37,9.06-5.88,14.64-4.06,6.15,2.01,10.52,7.42,10.88,13.48.31,5.3-2.28,10.49-6.74,13.53-2.5,1.7-5.34,2.57-8.18,2.57"/>
        <path class="cls-4" d="M281.63,451.72c-2.84,0-5.68-.86-8.18-2.57-4.47-3.04-7.05-8.23-6.74-13.53.35-6.06,4.72-11.48,10.87-13.48,5.58-1.81,11.05-.3,14.64,4.06,2.61,3.17,3.12,7.79,1.26,11.5-1.5,2.99-5.6,6.01-9.63,5.62-3.12-.29-5.97-2.88-6.78-6.15-.72-2.91.31-5.6,2.75-7.19,1.5-.98,3.72-1,5.39-.05,1.46.83,2.29,2.29,2.22,3.91-.05,1.15-.98,2.03-2.17,1.99-1.15-.05-2.04-1.02-1.99-2.17v-.04l-1.17-.15c-.94.62-1.28,1.52-.98,2.7.38,1.55,1.75,2.88,3.12,3,1.85.16,4.59-1.48,5.52-3.34,1.13-2.26.83-5.07-.75-6.99-3.54-4.31-8.27-3.36-10.13-2.75-4.46,1.46-7.75,5.47-8,9.76-.22,3.85,1.67,7.62,4.93,9.85,3.08,2.09,6.72,2.43,9.99.92,1.05-.48,2.28-.03,2.77,1.02.48,1.04.02,2.28-1.02,2.76-1.89.87-3.9,1.3-5.9,1.3"/>
        <path class="cls-4" d="M338.49,203.91c-2.13,0-4.26-.11-6.37-.32-1.53-.16-2.64-1.52-2.48-3.04.16-1.53,1.5-2.66,3.05-2.48,33.8,3.44,64.75-23.47,75.14-51.51,6.89-18.59,9.88-40.25,8.9-64.38-.06-1.53,1.13-2.83,2.66-2.89,1.56-.05,2.82,1.13,2.89,2.66,1.02,24.87-2.09,47.26-9.24,66.54-5.92,15.98-17.09,30.47-31.46,40.79-13.3,9.56-28.38,14.64-43.08,14.64"/>
        <path class="cls-4" d="M160.01,203.92c-34.44,0-64.85-27.17-75.32-55.45-7.15-19.28-10.25-41.67-9.24-66.54.06-1.53,1.32-2.71,2.89-2.66,1.53.06,2.72,1.36,2.66,2.89-.98,24.13,2.01,45.79,8.9,64.38,10.41,28.09,41.75,55.03,76.18,51.51,1.54-.18,2.89.95,3.04,2.48.16,1.52-.95,2.89-2.48,3.04-2.22.23-4.44.34-6.64.34"/>
        <path class="cls-4" d="M76.63,314.91c-18.19,0-35.95-5.37-48.94-15.38-9.51-7.33-17.8-18.68-22.74-31.15l-.61-1.52c-1.17-2.89-3.34-8.26-4.18-10.63-.31-.87-.17-1.84.38-2.59.55-.75,1.42-1.16,2.35-1.12,2.72.12,5.45.25,8.17.38,5.18.25,10.53.52,15.79.67,11.49.34,21.1.24,30.6-1.39,13.94-2.4,26.18-8.54,40.74-16.31,1.36-.73,3.04-.21,3.76,1.14.72,1.35.21,3.04-1.14,3.76-11.8,6.31-26.48,14.15-42.42,16.89-9.96,1.71-19.88,1.83-31.71,1.47-5.31-.16-10.69-.42-15.89-.68-1.3-.06-2.6-.13-3.91-.19.92,2.32,1.97,4.93,2.61,6.52l.62,1.55c4.58,11.56,12.22,22.06,20.96,28.8,17.08,13.17,44.36,17.7,67.87,11.27l1.56-.41c6.93-1.81,23.16-6.04,39.48-22.38,1.09-1.09,2.84-1.08,3.93,0,1.09,1.08,1.09,2.84,0,3.93-17.39,17.41-34.64,21.91-42.01,23.83l-1.5.4c-7.77,2.12-15.82,3.15-23.79,3.15"/>
        <path class="cls-4" d="M423.37,314.91c-7.97,0-16.02-1.03-23.79-3.15l-1.49-.4c-7.37-1.92-24.62-6.42-42.01-23.83-1.08-1.09-1.08-2.84,0-3.93,1.09-1.08,2.84-1.08,3.93,0,16.32,16.34,32.55,20.58,39.48,22.38l1.56.41c23.51,6.43,50.78,1.9,67.87-11.27,8.74-6.74,16.38-17.23,20.96-28.8l.62-1.55c.64-1.58,1.69-4.19,2.61-6.52-1.3.06-2.61.13-3.91.19-5.2.25-10.58.52-15.89.68-11.83.36-21.75.24-31.71-1.47-15.93-2.73-30.62-10.58-42.42-16.89-1.35-.72-1.86-2.4-1.14-3.76.72-1.35,2.4-1.87,3.76-1.14,14.56,7.78,26.8,13.92,40.74,16.31,9.51,1.63,19.1,1.74,30.6,1.39,5.26-.16,10.61-.42,15.79-.67,2.72-.13,5.44-.26,8.17-.38.91-.03,1.81.38,2.36,1.12.55.75.69,1.71.38,2.59-.85,2.36-3.02,7.74-4.19,10.63l-.61,1.52c-4.94,12.47-13.23,23.82-22.73,31.15-12.99,10.01-30.75,15.38-48.94,15.38"/>
        <path class="cls-4" d="M245.8,297.95c0-1.79,1.45-3.23,3.23-3.23s3.23,1.44,3.23,3.23-1.44,3.23-3.23,3.23-3.23-1.45-3.23-3.23"/>
        <path class="cls-4" d="M246.55,289.41c0-1.37,1.11-2.48,2.48-2.48s2.48,1.11,2.48,2.48-1.11,2.48-2.48,2.48-2.48-1.11-2.48-2.48"/>
        <path class="cls-4" d="M247.01,281.99c0-1.12.9-2.02,2.02-2.02s2.02.9,2.02,2.02-.9,2.02-2.02,2.02-2.02-.9-2.02-2.02"/>
        <rect class="cls-4" x="248.03" y="274.63" width="2" height="2" transform="translate(-121.96 256.82) rotate(-45)"/>
        <path class="cls-4" d="M249.4,378.42c-1.53,0-2.78-1.24-2.78-2.78v-61.76c0-1.53,1.24-2.78,2.78-2.78s2.78,1.24,2.78,2.78v61.76c0,1.54-1.24,2.78-2.78,2.78"/>
        <path class="cls-4" d="M238.34,367.64c-1.53,0-2.78-1.24-2.78-2.78v-40.21c0-1.53,1.24-2.78,2.78-2.78s2.78,1.24,2.78,2.78v40.21c0,1.53-1.24,2.78-2.78,2.78"/>
        <path class="cls-4" d="M261.66,367.64c-1.53,0-2.78-1.24-2.78-2.78v-40.21c0-1.53,1.25-2.78,2.78-2.78s2.78,1.24,2.78,2.78v40.21c0,1.53-1.25,2.78-2.78,2.78"/>
        <path class="cls-4" d="M80.04,300.55c-32.74,0-54.04-21.76-54.33-22.06l.07-2.94,2.95.06c.09.1,9.74,10.04,25.74,16.13,21.34,8.12,43.3,5.89,65.26-6.61,1-.57,2.27-.22,2.84.78.57,1,.22,2.27-.78,2.84-15.22,8.66-29.32,11.81-41.76,11.81"/>
        <path class="cls-4" d="M421.59,300.55c-12.44,0-26.53-3.14-41.75-11.81-1-.57-1.35-1.84-.78-2.84.57-1,1.84-1.35,2.84-.78,21.97,12.5,43.93,14.72,65.27,6.61,16-6.09,25.65-16.03,25.74-16.13l2.95-.06.07,2.94c-.29.31-21.6,22.06-54.33,22.06"/>
        <path class="cls-4" d="M207.92,257.3c-2.9,0-5.86-.53-8.72-1.67-5.85-2.31-10.47-6.74-13-12.47-2.53-5.73-2.67-12.09-.38-17.88.42-1.07,1.63-1.59,2.7-1.17,1.07.42,1.6,1.63,1.18,2.7-1.88,4.75-1.77,9.96.31,14.67,2.08,4.72,5.89,8.36,10.72,10.27,9.97,3.94,21.22-.85,25.1-10.67.42-1.07,1.63-1.59,2.7-1.17,1.07.42,1.59,1.63,1.17,2.7-3.61,9.12-12.43,14.69-21.78,14.69"/>
        <path class="cls-4" d="M211.32,244.56c-1.46,3.7-5.64,5.51-9.34,4.05-3.7-1.46-5.51-5.64-4.05-9.34,1.46-3.7,5.64-5.51,9.34-4.05,3.7,1.46,5.51,5.64,4.05,9.34"/>
        <path class="cls-3" d="M204.99,237.34c-.57,1.45-2.2,2.16-3.65,1.58-1.44-.57-2.15-2.2-1.58-3.65.57-1.44,2.2-2.15,3.65-1.58,1.44.57,2.15,2.2,1.58,3.65"/>
        <path class="cls-4" d="M205.18,402.27l-.86-.14c-1.46-.48-2.25-2.04-1.77-3.5,22.21-67.87,26.05-138.9,26.09-139.61.82-9.94-1.72-17.64-7.52-22.98-14.97-13.76-46.88-8.6-47.19-8.55-1.52.25-2.94-.77-3.2-2.28-.26-1.51.77-2.94,2.28-3.2,1.42-.24,34.89-5.66,51.86,9.93,7.15,6.56,10.28,15.8,9.32,27.45-.03.63-3.92,72.4-26.35,140.97-.38,1.17-1.47,1.91-2.64,1.92"/>
        <path class="cls-4" d="M292.77,257.3c-9.35,0-18.18-5.56-21.78-14.69-.42-1.07.1-2.28,1.17-2.7,1.07-.42,2.28.1,2.7,1.17,3.88,9.82,15.14,14.61,25.1,10.67,9.96-3.93,14.91-15.12,11.03-24.94-.42-1.07.1-2.28,1.18-2.7,1.07-.42,2.28.1,2.7,1.17,4.72,11.96-1.28,25.57-13.38,30.35-2.86,1.13-5.82,1.67-8.72,1.67"/>
        <path class="cls-4" d="M289.38,244.56c1.46,3.7,5.64,5.51,9.34,4.05,3.7-1.46,5.51-5.64,4.05-9.34-1.46-3.7-5.64-5.51-9.34-4.05-3.7,1.46-5.51,5.64-4.05,9.34"/>
        <path class="cls-3" d="M295.71,237.34c.57,1.45,2.2,2.16,3.65,1.58,1.45-.57,2.16-2.2,1.58-3.65-.57-1.44-2.2-2.15-3.65-1.58-1.44.57-2.15,2.2-1.58,3.65"/>
        <path class="cls-4" d="M295.51,402.27c-1.17,0-2.26-.75-2.64-1.92-22.44-68.56-26.32-140.34-26.36-141.05-.96-11.57,2.18-20.8,9.32-27.36,16.98-15.59,50.45-10.16,51.87-9.93,1.51.26,2.53,1.69,2.28,3.2-.25,1.51-1.69,2.53-3.2,2.28-.32-.05-32.23-5.22-47.19,8.55-5.81,5.34-8.34,13.05-7.53,22.89.04.8,3.9,71.85,26.1,139.69.48,1.46-.32,3.03-1.78,3.5l-.86.14Z"/>
        <path class="cls-4" d="M210,267.02c-27.03,0-38.32-25.24-38.46-25.55-.46-1.05.03-2.28,1.09-2.74,1.05-.46,2.28.03,2.74,1.08.62,1.43,15.71,34.87,54.54,18.62,1.07-.44,2.28.06,2.73,1.12.44,1.06-.05,2.28-1.12,2.73-8.07,3.38-15.22,4.75-21.52,4.75"/>
        <path class="cls-4" d="M290.41,267.02c-6.3,0-13.45-1.37-21.52-4.75-1.06-.45-1.56-1.66-1.12-2.73.44-1.06,1.66-1.56,2.73-1.12,38.93,16.29,53.92-17.18,54.54-18.62.46-1.05,1.68-1.55,2.74-1.09,1.05.46,1.54,1.68,1.09,2.74-.14.32-11.43,25.55-38.46,25.55"/>
        <path class="cls-4" d="M177.84,363.99c-.88,0-1.69-.56-1.98-1.43l-31.54-96.05c-.36-1.1.24-2.27,1.33-2.63,1.1-.37,2.27.24,2.63,1.33l31.54,96.05c.36,1.09-.24,2.27-1.33,2.63l-.65.11Z"/>
        <path class="cls-4" d="M171.15,318.41c-.88,0-1.69-.56-1.98-1.43l-15.13-46.08c-.36-1.09.24-2.27,1.33-2.63,1.09-.36,2.27.24,2.63,1.33l15.13,46.07c.36,1.09-.24,2.27-1.33,2.63l-.65.1Z"/>
        <path class="cls-4" d="M317.23,363.99l-.65-.11c-1.09-.36-1.69-1.54-1.33-2.63l31.54-96.05c.36-1.09,1.54-1.69,2.63-1.33,1.09.36,1.69,1.53,1.33,2.63l-31.54,96.05c-.29.88-1.1,1.43-1.98,1.43"/>
        <path class="cls-4" d="M323.92,318.41l-.65-.1c-1.09-.36-1.69-1.53-1.33-2.63l15.13-46.07c.36-1.1,1.54-1.69,2.63-1.33,1.09.36,1.69,1.54,1.33,2.63l-15.13,46.08c-.29.88-1.1,1.43-1.98,1.43"/>
        <path class="cls-4" d="M403.2,222.89l-1.68-.85c-.68-.93-.48-2.23.44-2.91.44-.32,43.73-32.94,37.16-85.88-.14-1.14.67-2.18,1.81-2.32,1.14-.14,2.18.67,2.32,1.81,6.88,55.41-38.37,89.41-38.82,89.75l-1.23.4Z"/>
        <path class="cls-4" d="M95.3,222.89l-1.23-.4c-.46-.34-45.71-34.34-38.83-89.75.14-1.14,1.18-1.95,2.32-1.81,1.14.14,1.95,1.18,1.81,2.32-6.57,52.94,36.72,85.55,37.16,85.88.92.68,1.12,1.99.44,2.91l-1.68.85Z"/>
        <path class="cls-4" d="M167.25,169.19l-2.17-1.04c-.96-1.2-.77-2.94.42-3.9.5-.4,50.36-39.76,114.09-21.74,1.48.42,2.33,1.95,1.92,3.43-.42,1.47-1.95,2.33-3.43,1.92-60.9-17.22-108.62,20.34-109.09,20.73l-1.74.61Z"/>
        <path class="cls-4" d="M423.78,148.23c-1.96,2.06-1.87,5.32.19,7.28,2.06,1.95,5.32,1.87,7.28-.19,1.95-2.06,1.87-5.32-.19-7.27-2.06-1.96-5.32-1.87-7.28.19"/>
        <path class="cls-4" d="M424.39,163.17c-1.54,1.62-1.47,4.17.15,5.7,1.62,1.54,4.17,1.47,5.71-.15s1.47-4.17-.15-5.71c-1.62-1.53-4.17-1.47-5.71.15"/>
        <path class="cls-4" d="M422.43,176.64c-1.1,1.16-1.05,3,.11,4.1s3,1.05,4.1-.11c1.1-1.16,1.05-3-.11-4.1-1.16-1.1-3-1.05-4.1.11"/>
        <rect class="cls-4" x="417.64" y="187" width="3.01" height="3.01" transform="translate(-4.65 10.71) rotate(-1.46)"/>
        <rect class="cls-4" x="411.73" y="194.98" width="2.36" height="2.35" transform="translate(-5.02 10.93) rotate(-1.51)"/>
        <rect class="cls-4" x="405.84" y="200.69" width="1.86" height="1.86" transform="translate(-5.37 11.23) rotate(-1.57)"/>
        <path class="cls-4" d="M289.04,149.66c.71,1.64,2.62,2.39,4.26,1.67,1.64-.71,2.39-2.62,1.67-4.26-.71-1.64-2.62-2.38-4.26-1.67-1.64.71-2.38,2.62-1.67,4.26"/>
        <path class="cls-4" d="M298.28,152.18c.56,1.28,2.05,1.87,3.34,1.31s1.87-2.05,1.31-3.34c-.56-1.28-2.05-1.87-3.34-1.31-1.28.56-1.87,2.06-1.31,3.34"/>
        <path class="cls-4" d="M305.61,154.95c.4.92,1.48,1.34,2.4.94.92-.4,1.34-1.48.94-2.4-.4-.92-1.48-1.34-2.4-.94-.92.4-1.35,1.48-.94,2.4"/>
        <rect class="cls-4" x="311.55" y="156.12" width="1.89" height="1.89" transform="translate(52.02 390.47) rotate(-68.55)"/>
        <rect class="cls-4" x="316.4" y="158.71" width="1.48" height="1.48" transform="translate(52.76 396.33) rotate(-68.55)"/>
        <rect class="cls-4" x="320.42" y="161.41" width="1.17" height="1.17" transform="translate(53.04 401.75) rotate(-68.6)"/>
        <path class="cls-4" d="M452.2,274.5c-2.69-.91-5.61.55-6.52,3.24-.9,2.69.55,5.61,3.24,6.51,2.69.9,5.61-.55,6.51-3.24.91-2.69-.54-5.61-3.24-6.52"/>
        <path class="cls-4" d="M438.92,281.35c-2.11-.71-4.4.43-5.11,2.54-.71,2.11.43,4.4,2.54,5.11,2.11.71,4.4-.43,5.11-2.54.71-2.11-.43-4.4-2.54-5.11"/>
        <path class="cls-4" d="M425.88,285.26c-1.52-.51-3.17.31-3.67,1.83-.51,1.52.31,3.16,1.83,3.67,1.52.51,3.16-.31,3.67-1.83.51-1.52-.31-3.16-1.83-3.67"/>
        <path class="cls-4" d="M414.4,285.26c-1.12-.38-2.32.23-2.7,1.34-.38,1.11.23,2.32,1.34,2.7,1.12.38,2.32-.23,2.7-1.34.37-1.11-.23-2.32-1.34-2.7"/>
        <path class="cls-4" d="M404.69,283.28c-.87-.3-1.81.18-2.11,1.05-.29.87.18,1.82,1.05,2.11.87.29,1.82-.18,2.11-1.05.29-.87-.18-1.82-1.05-2.11"/>
        <rect class="cls-4" x="395.69" y="280.67" width="1.86" height="1.86" transform="translate(-83.93 206.26) rotate(-26.46)"/>
        <path class="cls-4" d="M51.35,274.5c2.69-.91,5.61.55,6.52,3.24.91,2.69-.55,5.61-3.24,6.51-2.69.9-5.61-.55-6.51-3.24-.91-2.69.54-5.61,3.24-6.52"/>
        <path class="cls-4" d="M64.63,281.35c2.11-.71,4.4.43,5.11,2.54.71,2.11-.43,4.4-2.54,5.11-2.11.71-4.4-.43-5.11-2.54-.71-2.11.43-4.4,2.54-5.11"/>
        <path class="cls-4" d="M77.67,285.26c1.52-.51,3.16.31,3.67,1.83.51,1.52-.31,3.16-1.83,3.67-1.52.51-3.16-.31-3.67-1.83-.51-1.52.31-3.16,1.83-3.67"/>
        <path class="cls-4" d="M89.15,285.26c1.12-.38,2.32.23,2.7,1.34.38,1.11-.23,2.32-1.34,2.7-1.12.38-2.32-.23-2.7-1.34-.38-1.11.22-2.32,1.34-2.7"/>
        <path class="cls-4" d="M98.86,283.28c.87-.3,1.81.18,2.11,1.05.29.87-.18,1.82-1.05,2.11-.87.29-1.82-.18-2.11-1.05-.29-.87.17-1.82,1.05-2.11"/>
        <rect class="cls-4" x="106" y="280.67" width="1.86" height="1.86" transform="translate(-192.82 251.96) rotate(-63.56)"/>
        <path class="cls-4" d="M322.89,257.86c-2.02.01-3.63,1.66-3.62,3.67.02,2.01,1.66,3.63,3.67,3.62,2.01-.02,3.63-1.66,3.62-3.68-.01-2.01-1.66-3.63-3.67-3.62"/>
        <path class="cls-4" d="M315.56,265.51c-1.58.01-2.85,1.3-2.84,2.88.01,1.58,1.3,2.85,2.88,2.84,1.58-.01,2.85-1.3,2.84-2.88-.01-1.58-1.3-2.85-2.88-2.84"/>
        <path class="cls-4" d="M307.72,271.14c-1.14,0-2.05.94-2.04,2.07,0,1.13.94,2.05,2.07,2.04,1.14,0,2.05-.93,2.04-2.07-.01-1.14-.94-2.05-2.07-2.04"/>
        <rect class="cls-4" x="298.98" y="274.23" width="2.14" height="2.14" transform="translate(-106.63 295.99) rotate(-45.45)"/>
        <rect class="cls-4" x="292.24" y="275.05" width="1.67" height="1.67" transform="translate(-109.14 290.83) rotate(-45.4)"/>
        <rect class="cls-4" x="286.62" y="274.77" width="1.32" height="1.32" transform="translate(-110.54 286.92) rotate(-45.45)"/>
        <path class="cls-4" d="M176.84,257.95c2.01,0,3.65,1.64,3.64,3.65,0,2.01-1.64,3.65-3.65,3.64-2.02,0-3.65-1.64-3.64-3.65,0-2.01,1.64-3.65,3.65-3.64"/>
        <path class="cls-4" d="M184.21,265.56c1.58,0,2.86,1.29,2.86,2.87,0,1.58-1.28,2.86-2.86,2.86-1.58,0-2.86-1.29-2.86-2.86,0-1.58,1.28-2.86,2.86-2.86"/>
        <path class="cls-4" d="M192.09,271.14c1.14,0,2.05.92,2.05,2.06,0,1.14-.92,2.06-2.06,2.05-1.13,0-2.06-.92-2.05-2.06,0-1.14.92-2.05,2.06-2.05"/>
        <rect class="cls-4" x="198.72" y="274.18" width="2.14" height="2.14" transform="translate(-136.02 221.28) rotate(-44.9)"/>
        <rect class="cls-4" x="205.93" y="274.95" width="1.67" height="1.67" transform="translate(-134.37 226.45) rotate(-44.91)"/>
        <rect class="cls-4" x="211.9" y="274.64" width="1.32" height="1.32" transform="translate(-132.32 230.26) rotate(-44.89)"/>
        <path class="cls-4" d="M74.13,148.17c1.94,2.08,1.82,5.34-.26,7.28-2.08,1.93-5.34,1.82-7.27-.26-1.94-2.08-1.82-5.33.26-7.27,2.08-1.94,5.34-1.82,7.27.26"/>
        <path class="cls-4" d="M73.38,163.11c1.52,1.63,1.43,4.19-.2,5.7-1.63,1.52-4.19,1.43-5.71-.2-1.52-1.63-1.43-4.18.2-5.7,1.63-1.52,4.18-1.43,5.7.2"/>
        <path class="cls-4" d="M75.22,176.59c1.09,1.17,1.03,3.01-.15,4.1-1.17,1.09-3.01,1.03-4.1-.15-1.09-1.17-1.03-3.01.15-4.1,1.17-1.09,3.01-1.03,4.1.14"/>
        <rect class="cls-4" x="76.89" y="186.99" width="3.01" height="3.02" transform="translate(-112.73 260.24) rotate(-87.99)"/>
        <rect class="cls-4" x="83.38" y="195.03" width="2.36" height="2.36" transform="translate(-114.53 273.74) rotate(-87.96)"/>
        <rect class="cls-4" x="89.72" y="200.79" width="1.86" height="1.86" transform="translate(-114.14 285.2) rotate(-87.98)"/>
        <path class="cls-4" d="M239.89,215.08l-1.7-.88c-.93-1.29-22.56-30.64-61.28-10.78-1.02.52-2.28.12-2.81-.9-.52-1.03-.12-2.28.91-2.81,42-21.55,66.34,11.73,66.58,12.07.67.94.45,2.24-.49,2.9l-1.21.38Z"/>
        <path class="cls-4" d="M230.79,217.8l-1.74-.94c-.56-.85-13.96-20.56-39.79-8.57-1.05.48-2.28.03-2.77-1.01-.49-1.04-.03-2.28,1.01-2.77,29.17-13.54,44.88,9.83,45.04,10.07.63.96.36,2.25-.6,2.88l-1.14.34Z"/>
        <path class="cls-4" d="M223.9,222.09l-1.74-.94c-.4-.6-9.83-14.41-27.99-5.98-1.04.48-2.28.03-2.77-1.01-.48-1.04-.03-2.28,1.01-2.77,21.5-9.98,33.12,7.3,33.23,7.48.63.96.36,2.25-.6,2.88l-1.14.34Z"/>
        <path class="cls-4" d="M254.97,215.08l-1.21-.38c-.94-.67-1.16-1.97-.49-2.9.24-.34,24.58-33.62,66.58-12.07,1.03.53,1.43,1.78.9,2.81-.53,1.02-1.78,1.42-2.8.9-38.83-19.93-61.06,10.47-61.28,10.78l-1.7.88Z"/>
        <path class="cls-4" d="M264.08,217.8l-1.14-.34c-.96-.63-1.23-1.92-.6-2.88.16-.24,15.87-23.61,45.04-10.07,1.04.48,1.5,1.72,1.01,2.77-.48,1.05-1.72,1.49-2.77,1.01-25.84-12-39.24,7.73-39.8,8.57l-1.74.94Z"/>
        <path class="cls-4" d="M270.96,222.08l-1.14-.34c-.96-.63-1.23-1.91-.6-2.88.12-.18,11.73-17.46,33.24-7.48,1.04.49,1.5,1.73,1.01,2.77-.48,1.05-1.72,1.5-2.77,1.01-18.18-8.44-27.6,5.39-28,5.98l-1.74.93Z"/>
        <path class="cls-4" d="M128.37,242.64c-1.23,0-2.51-.1-3.82-.34-6.76-1.2-12.7-5.58-17.66-13.02l.38-1.93,1.93.38c4.52,6.77,9.84,10.75,15.81,11.82,8.59,1.54,15.75-3.54,15.82-3.59l1.94.31-.3,1.94c-.29.2-6.17,4.42-14.09,4.42"/>
        <path class="cls-4" d="M128.42,237.89l-2.04-.14c-4.64-.64-8.79-3.43-12.33-8.3l.31-1.94,1.94.31c3.07,4.22,6.58,6.64,10.43,7.18,5.66.78,10.24-2.75,10.29-2.79l1.95.24-.23,1.94c-.2.16-4.5,3.5-10.32,3.5"/>
        <path class="cls-4" d="M128.72,232.81l-1.52-.1c-3.46-.47-6.54-2.54-9.16-6.15l.31-1.94,1.94.31c2.15,2.96,4.6,4.65,7.26,5.02,3.9.55,7.11-1.91,7.14-1.93l1.95.24-.23,1.95c-.15.12-3.35,2.61-7.69,2.61"/>
        <path class="cls-4" d="M369.82,241.04c-6.65,0-11.68-2.82-11.95-2.97l-.52-1.89,1.89-.52c.07.04,7.75,4.31,16.12,1.81,5.81-1.73,10.65-6.27,14.4-13.5l1.87-.6.59,1.87c-4.11,7.94-9.53,12.95-16.1,14.9-2.19.65-4.32.9-6.3.9"/>
        <path class="cls-4" d="M370.06,236.28c-4.96,0-8.72-2.31-8.92-2.43l-.44-1.91,1.91-.44s5.01,3.04,10.53,1.63c3.77-.96,6.99-3.75,9.57-8.29l1.89-.52.52,1.89c-2.98,5.23-6.8,8.47-11.33,9.61-1.29.32-2.55.46-3.73.46"/>
        <path class="cls-4" d="M369.63,231.24c-3.69,0-6.5-1.72-6.65-1.81l-.44-1.91,1.91-.44c.05.03,3.51,2.1,7.31,1.13,2.61-.67,4.85-2.62,6.66-5.8l1.89-.52.52,1.9c-2.21,3.87-5.04,6.27-8.42,7.12-.96.24-1.9.34-2.78.34"/>
        <path class="cls-4" d="M439.51,44.73l-1.17-.26c-13.12-6.09-16.26-17.29-16.39-17.76-.4-1.48.48-3.01,1.96-3.41,1.49-.4,3,.47,3.4,1.95.11.4,2.71,9.23,13.37,14.18,1.39.65,2,2.3,1.35,3.69-.47,1.01-1.48,1.61-2.52,1.61"/>
        <path class="cls-4" d="M441.9,74.48l-1.19-.27c-22.67-10.77-28.06-30.36-28.28-31.19-.39-1.48.5-3,1.98-3.39,1.48-.39,3,.49,3.39,1.97.05.2,5.05,17.98,25.29,27.6,1.39.66,1.98,2.31,1.32,3.7-.48,1-1.47,1.59-2.51,1.59"/>
        <path class="cls-4" d="M59.44,45.08c-1.04,0-2.04-.58-2.51-1.59-.66-1.38-.07-3.04,1.32-3.7,10.8-5.13,13.35-14.42,13.38-14.52.39-1.48,1.91-2.37,3.39-1.98,1.48.39,2.37,1.91,1.98,3.39-.13.48-3.26,11.9-16.36,18.12l-1.19.27Z"/>
        <path class="cls-4" d="M57.04,74.48c-1.04,0-2.03-.59-2.51-1.59-.66-1.39-.07-3.04,1.32-3.7,20.25-9.62,25.24-27.42,25.29-27.6.4-1.48,1.92-2.36,3.4-1.97,1.48.39,2.36,1.91,1.97,3.39-.22.83-5.61,20.42-28.28,31.19l-1.19.27Z"/>
      </g>
    </g>
  </g>
</svg>