<?xml version="1.0" encoding="UTF-8"?>
<svg id="Layer_1" data-name="Layer 1" xmlns="http://www.w3.org/2000/svg" xmlns:xlink="http://www.w3.org/1999/xlink" viewBox="0 0 622.39 368.35">
  <defs>
    <style>
      .cls-1 {
        fill: none;
      }

      .cls-2 {
        fill: #a53b28;
      }

      .cls-3 {
        clip-path: url(#clippath-1);
      }

      .cls-4 {
        clip-path: url(#clippath);
      }
    </style>
    <clipPath id="clippath">
      <rect class="cls-1" width="622.39" height="368.35"/>
    </clipPath>
    <clipPath id="clippath-1">
      <rect class="cls-1" width="622.39" height="368.35"/>
    </clipPath>
  </defs>
  <g id="Tiger">
    <g class="cls-4">
      <g class="cls-3">
        <path class="cls-2" d="M161.21,314.23h5.27v21.53c0,2.46-.1,5.08-.3,7.87-.2,2.78-.63,5.6-1.28,8.43-.65,2.84-1.59,5.6-2.82,8.28-1.23,2.69-2.85,5.11-4.85,7.26-.3-.3-.72-.67-1.24-1.09-.53-.43-1.07-.84-1.62-1.24-.55-.4-1.03-.68-1.43-.83,2.51-2.76,4.34-5.8,5.5-9.11,1.15-3.31,1.91-6.66,2.26-10.05.35-3.39.53-6.59.53-9.6v-21.45ZM179.05,344.64h5.34c-.05,3.66-.29,6.83-.71,9.49-.43,2.66-1.22,4.91-2.37,6.74-1.15,1.83-2.82,3.35-5.01,4.55-2.18,1.2-5.08,2.18-8.69,2.94-.2-.6-.59-1.32-1.17-2.15-.58-.83-1.14-1.47-1.69-1.92,3.16-.65,5.68-1.44,7.57-2.37,1.88-.93,3.3-2.12,4.25-3.58.95-1.46,1.59-3.31,1.92-5.57.33-2.26.51-4.97.57-8.13M165.5,314.23h50.36v4.67h-50.36v-4.67ZM169.72,327.7l37.11-3.76.53,4.37-37.11,3.84-.53-4.44ZM182.06,298.8h5.65v18.44h-5.65v-18.44ZM182.06,319.95h5.57v12.8c0,1.1.18,1.88.53,2.33.35.45,1.15.68,2.41.68h18.48c.93,0,1.83-.05,2.71-.15.88-.1,1.57-.2,2.07-.3.1.75.2,1.57.3,2.45.1.88.2,1.64.3,2.3-.65.15-1.69.25-3.12.3-1.43.05-2.87.08-4.33.08h-16.56c-2.16,0-3.84-.25-5.04-.75-1.2-.5-2.06-1.33-2.56-2.48-.5-1.15-.75-2.68-.75-4.59v-12.65ZM185.37,304.67h28.45v4.59h-28.45v-4.59ZM197.57,344.64h5.35v15.51c0,.9.19,1.48.56,1.73.38.25,1.27.38,2.67.38h8.96c.85,0,1.49-.22,1.92-.64.43-.43.73-1.34.91-2.75.17-1.4.31-3.54.41-6.4.4.3.88.58,1.43.83.55.25,1.14.48,1.77.68.63.2,1.17.38,1.62.53-.15,3.31-.46,5.85-.94,7.6-.48,1.76-1.23,2.97-2.26,3.65-1.03.68-2.47,1.01-4.33,1.01h-10.16c-2.11,0-3.73-.19-4.86-.56-1.13-.38-1.92-1.04-2.37-2-.45-.95-.68-2.28-.68-3.99v-15.58ZM214.2,314.23h.9l.9-.23,3.91.98c-.65,1.91-1.38,3.89-2.18,5.95-.8,2.06-1.56,3.79-2.26,5.19l-4.74-1.2c.55-1.36,1.15-2.93,1.8-4.74.65-1.81,1.21-3.56,1.66-5.27v-.68Z"/>
        <path class="cls-2" d="M258.32,353.5c-.24-.29-.34-2.49-.34-5.57,0-6.1.34-15.67.34-20.31,0-1.56-.05-2.54-.15-2.64-.05-.05-.29-.1-.68-.1-1.85,0-6.78.68-6.78.68-.1-.1-.15-1.27-.15-1.27,0-2.59,1.07-4.69,1.07-4.69,0,0,3.81-.05,7.86-.29,1.86-.1,7.76-.29,9.66-.29,1.42,0,3.66.05,3.66.19,0,1.61-.34,5.23-.83,5.71-.69-.15-3.12-.24-5.03-.24-1.22,0-2.2.05-2.29.15-.15.15-.34,4.98-.34,10.64,0,6.89.29,15.04,1.46,17.18,0,.29-1.85,1.27-5.47,1.27-1.32,0-2-.44-2-.44"/>
        <path class="cls-2" d="M277.4,342.27c0-6.98.2-17.48.24-17.77-.49,0-1.86.15-2.29.29-.1,0-.1-.49-.1-1.12,0-1.37.15-3.47.29-3.61.1-.1,4.49-.78,9.96-.78.1,0,.15.29.15.78,0,.83-.15,2.39-.15,3.61,0,.1,0,.19-.15.19-.34,0-1.66,0-1.81.1-.05.1-.29,6.93-.29,13.42,0,4.15.1,8.2.39,10.15.64-.05,1.32-.05,2-.05.15,0,.2.73.2,1.66,0,1.17-.1,2.59-.15,3.03-.05.05,0,.15-.15.15-2.25,0-7.96.2-10.15.69-.1,0-.15-.59-.15-1.37,0-1.32.15-3.12.34-3.37.1-.05,1.56-.29,1.9-.29-.05-.83-.1-2.98-.1-5.71"/>
        <path class="cls-2" d="M310.5,353.59c0-1.22-.05-2.73-.24-3.17-.05-.1-.1-.1-.1-.1-.05,0-.15.1-.15.1-1.51,1.51-4.24,2.88-7.52,2.88-8.88,0-12.74-6.54-12.74-14.69,0-7.18,2.78-19.53,18.79-19.53,1.32,0,4.59.44,4.78.68.1.1.1.39.1.78,0,1.42-.39,4.3-.78,4.69,0,0-1.51-.78-5.12-.78-6.64,0-11.33,4.44-11.33,13.62,0,5.47,2.15,9.47,7.03,9.47,4.3,0,6.79-3.17,6.79-4.2v-1.56c0-1.32-.05-3.03-.29-3.27-.15-.2-2.49-.44-4.54-.44s-2.73.15-2.98.15c-.2,0-.2-.34-.2-.39,0-.93.54-3.56,1.56-4.59.34-.34,5.42-.68,11.52-.68.44,0,2.78.1,2.78.24,0,1.61-1.12,4.83-1.66,5.61,0,0-.05,13.13-.34,13.67-.29.54-2.78,1.66-4.44,1.66-.49,0-.93,0-.93-.15"/>
        <path class="cls-2" d="M335.05,332.51c2.34,0,4,.05,4,.15,0,1.9-1.51,4.78-1.71,4.74-.78,0-7.18.24-7.91.73-.05.05-.05.63-.05,1.51,0,2.39.1,6.74.24,6.88.69.68,6.98.78,8.4.78,2.78,0,5.08-.34,5.13-.34.05,0,.1,0,.1.05,0,1.61-1.32,4.15-2.44,5.22-.15.15-3.47.49-9.67.49-3.86,0-7.52-.19-7.66-.39-.2-.15-.29-4.39-.29-6.88,0-2.25.05-4.78.1-7.28-1.12-.97-2.49-3.66-2.49-5.27,0-.05,1.03-.1,2.59-.15,0-2.05.05-3.91.05-5.27s-.05-2.2-.1-2.29c-.78-.78-2.25-4.49-2.25-5.23.39-.39,12.94-.54,17.14-.54,2.29,0,4.1.05,4.1.19,0,2.29-1.81,4.93-2.1,4.88-.15-.05-.73-.1-1.46-.1-2.83,0-8.64.34-9.03.73-.24.25-.29,3.27-.29,5.37,0,1.17.05,2.05.05,2.05,1.95-.05,3.91-.05,5.57-.05"/>
        <path class="cls-2" d="M359.06,339.68c-.24.15-3.17.78-4.64,1.03.05,5.42.2,10.25.49,11.42-.83.83-3.71,1.17-4.93,1.17-1.12,0-1.76-.29-1.76-.29,0-7.18.29-28.17.29-28.17-.93-1.17-1.86-4.3-1.86-5.08,0-.1,0-.15.05-.2.2-.24,4.93-.54,9.52-.54,6.25,0,15.77,1.17,15.77,8.84,0,4.25-3.12,7.57-7.62,9.76,0,.68,5.22,12.3,7.96,15.03.05.49-2.78,1.66-5.37,1.66-.54,0-1.22-.1-1.22-.1-1.66-1.66-6.4-13.28-6.69-14.55M365.55,328.11c0-2.73-3.42-3.95-7.42-3.95-1.95,0-3.47.29-3.47.29-.2,1.42-.29,5.91-.29,10.84,8.49-.78,11.18-4.73,11.18-7.18"/>
        <path class="cls-2" d="M260.67,88.57s5.81-2.17,11.78,1.44c1.06.64,2.05,1.42,2.97,2.27-.54-1.13-.99-2.31-1.29-3.51-1.67-6.78,2.12-11.68,2.12-11.68,0,0,5.64,2.57,7.31,9.35.3,1.2.44,2.45.49,3.7.42-1.18.93-2.33,1.57-3.39,3.61-5.98,9.76-6.76,9.76-6.76,0,0,2.17,5.81-1.44,11.78-.38.63-.82,1.23-1.29,1.81-2.03-3.01-5.69-.98-7.62-1.53-1.99-.56-4.05-4.18-6.06-3.68-1.95.49-2.05,4.61-3.6,6.11-1.54,1.5-5.67,1.48-6.21,3.41-.47,1.11-1.12.79-1.74.42-5.98-3.61-6.76-9.76-6.76-9.76M295.19,93.47c-.88.21-1.73.53-2.57.89-.18,1.64-.96,3.6-.65,4.86.33,1.33,1.98,2.72,2.9,4.09.89-.08,1.78-.19,2.64-.4,6.78-1.67,9.35-7.31,9.35-7.31,0,0-4.9-3.8-11.68-2.12M297.2,104.97c-.62-.37-1.27-.69-1.94-.98-.35,3.33-4.47,3.32-6.02,4.81-1.54,1.5-1.65,5.62-3.6,6.11-2.01.5-4.07-3.11-6.06-3.68-1.93-.55-5.59,1.48-7.08-.07-1-.88-1.45-.28-1.83.35-3.61,5.98-1.44,11.78-1.44,11.78,0,0,6.15-.78,9.76-6.76.64-1.06,1.15-2.21,1.57-3.39.05,1.25.2,2.5.49,3.7,1.67,6.78,7.31,9.35,7.31,9.35,0,0,3.8-4.9,2.12-11.68-.3-1.2-.75-2.38-1.29-3.51.92.85,1.91,1.63,2.97,2.27,5.98,3.61,11.78,1.44,11.78,1.44,0,0-.78-6.15-6.76-9.76M272.01,108.94c.18-1.64.96-3.6.65-4.86-.33-1.33-1.98-2.72-2.9-4.09-.89.08-1.78.19-2.64.4-6.78,1.67-9.35,7.31-9.35,7.31,0,0,4.9,3.8,11.68,2.12.88-.22,1.73-.53,2.57-.89M579.6,122.13c1.59,1.83,4.32,2.28,6.44.96,2.35-1.47,3.07-4.56,1.6-6.91-1.58-2.53-1.7-4.38-1.04-5.98.64-1.66,2.33-3.42,4.54-4.58-1.43-2.81-.9-3.82-.62-4.88.83-3.09,2.27-6.61,4.34-9.05.76-.89,2.18-.5,2.42.6-.05-.23.66,1.96.22,6.79-.33,3.05-.78,4.38-1.5,5.05.77-.1,1.54-.15,2.29-.11,2.36.1,4.43.89,6.05,2.16.49.45.96,1.22,1.31,2.23.7-4.66,1.19-4.2,12.81-6.49,1.14-.43.81-1.06.44-1.69-1.48-2.45-3.59-4.77-6.22-6.43-4.48-2.82-9.82-4.04-14.79-3.7-4.99.34-9.64,2.05-13.62,4.83-3.92,2.78-7.47,6.84-8.77,12.33-.65,2.7-.54,5.68.31,8.28.82,2.61,2.23,4.81,3.79,6.6M621.34,122.33c-2.25,9.15-7.91,17.17-15.32,22.72-7.42,5.64-16.43,8.44-25.05,9.29-4.33.42-8.62.39-12.8.02-2.03-.22-4-.46-6.01-.73-2-.37-4-.62-6-1.1-8.01-1.67-16.02-4.54-23.38-8.78-7.37-4.19-13.87-9.79-19.34-15.84-5.52-6.05-10.06-12.56-14.11-19.08-4.07-6.53-7.69-13.08-11.25-19.53-3.6-6.43-7.11-12.78-10.75-18.97-1.08-1.84-2.19-3.64-3.3-5.45,1.94-.65,3.96-1.44,5.83-2.4.06-.03,6.39-3.36,7.49-4.84,3.99-5.56-2.19-11.6-7.87-7.65-4.16,2.9-12.76,8.27-16.13,12.84-1.27,1.74-1.65,4.92,1.59,4.36,1.06-.19,4.8-.89,8.94-2.25,7.71,30.63,15.19,69.9,45.71,89.24,15.71,9.95,26.96,49.36,29.49,72.46,1.27,11.63,1.3,18.48-16.79,27.96-11.43,5.99-17.48.53-17.48.53-.45-.96-.79-2.21-.95-4.01-.38-3.77.55-9.22,3.5-11.69-8.58,2.23-9.81,10.93-7.44,17.02-9.71,1.7-14.63-3.55-16.32-5.96-.51-1.46-.82-3.1-.25-5.75.83-3.88,3.27-7.64,7.29-9.92-8.8,1.02-12.32,7.45-12.25,13.21-4.76-2.67-6.25-8.93-1.51-16.01,6.01-8.99,21.17-4.85,23.45-8.12,9.35-13.39-4.9-26.54-10.18-35.64-3.96-6.82-16.73-12.05-37.04-19.2-41.7-15.57-69.66-24.27-93.72-54.47-9.79-12.12-15.45-32.85-6.58-52.71-13.38,16.27-10.27,41.75,1.04,56.71,18.37,24.86,40.34,36.3,70.71,48.08,7.49,10.09-.84,29.91-5.34,43.64-3.93,12.01-8.9,29.11-16.4,34.06-9.99,6.6-16.49,2.02-17.33,1.36-2.19-5.22-.44-10.95,2.86-13.61-6.49,1.46-9.52,9.15-8.2,15.15-6.96,1.4-11.53-.97-14.14-3.23-2.14-6.59.55-13.49,6.15-16.62-9.09.82-12.46,7.02-12.3,12.75-5.75-2.01-8.19-8.59-3.44-16.43,5.59-9.24,19.97-6.52,23.05-9.11,9.72-8.19,10.61-16.62,11.17-29.97.45-10.87-28.31-28.45-65.54-40.41,6.22-4.67,11.99-10.42,15.68-17.32-14.55,10.25-27.86,15.1-36.86,18.9-18.07,6.13-38.76,10.83-66.32,12.71,1.51,25.57,2.66,54.06,2.66,61.42,0,8.53-4.93,18.63-11.15,26.56-1.94,4.86-4.12,9.04-6.3,10.65-5.95,4.39-10.51,3.83-13.12,2.77-.91-2.37-1.45-4.9-1-7.4.37-2.07,3.81-8.84,3.81-8.84,0,0-9.2,3.77-9.59,12.94-.05,1.07.03,2.18.19,3.26-6.94,1.78-11.32-1.04-13.64-3.47-2.2-8.23,7.67-16.64,7.67-16.64,0,0-4.97.35-8.56,3.39-3.32,2.81-5.12,6.23-5.69,9.46-3.64-1.73-4.32-5.82-.55-12.77,5.01-9.23,20.15-11.51,22.91-14.1,2.04-1.75,3.61-4.1,4.15-8.05,1.04-7.59-11.06-33.93-20.1-60.2-5.28-.98-10.27-2.33-15.03-3.92-2.13-.8-4.75-1.81-8.06-3.25-6.29-2.66-13.93-6.98-20.5-9.61,5.42,5.32,13.47,12.06,21.14,16.87-17.96,12.17-40.51,22.75-50.82,26.54-7.63,2.8-7.55,13.95,1.36,20.06,8.91,6.11,18.42,8.19,19.29,17.7.25,2.75.16,5.59-.27,8.31-1.56-.59-3.66-1.56-6.63-3.46-1.77-1.13-7.81-5.05-7.81-5.05,0,0,4.15,8.07,7.11,10.71,1.83,1.63,3.77,3,5.65,3.94-1.37,3.3-3.4,6.01-6.13,7.52-5.41-2.37-14.68-12.45-14.68-12.45,0,0,0,7.46,3.64,12.46-4.02-1.49-8.8-4.82-14.28-10.46-15.3-15.75-22.83-46.18-18.32-56.22,4.27-9.51,26.47-33.65,42.32-50.23-11.55-8.65-21.13-16.36-29.93-19.09-21.73-.37-15.59,16.76-47.1,26.41-19.03,5.83-24.97-1.56-30.62-11.47-2.34-4.11.89-4.38,6.11-4.76-.61-1.91-.7-4.36.28-7.56,1.21-3.96,2.63,1.97,8.29,6.47,4.81-1.08,9.79-3.33,13.38-8.51,6.64-9.59-6.6-14.87-12.47-11.55-2.57,1.45-9.84,5.08-15.63,7.09,1.47,6.68,6.49,11.03,2.28,9.74-6.65-2.03-9.3-5.77-10.36-8.43-3.65-.26-9.69-1.35-12.63-5.52-.78-1.11-1.14-2.38-1.35-3.54.92-.2,1.96-.56,3.11-1.15,2.46-1.2,5.42-3.16,7.28-5.4,4.71-5.83,2.1-12.14-3.35-14.6,1.83,1.82,3.26,4.02,3.35,6.21.55,6.59-8.12,8.25-12.9,11C1.41,91.16,0,86.65,0,83.25s5.56-9.65,13.16-16.94c3.46,2.02,8.33,2.73,14.47,10.64,1.61,1.95,3.47,4.09,5,6.27-1.83-9.9-8.39-18.57-14.45-21.63,2.17-2.01,4.43-4.06,6.71-6.14,2.08,1.43,6.12,3.81,15.4,14.65-.54-5.63-4.56-15.26-11.22-18.46,1.47-1.34,2.93-2.67,4.37-4.01,1.8-.31,2.96.4,4.67,1.77,2.14,1.65,5.12,3.97,7.41,6.08-.47-4.54-3.04-10.42-6.34-13.39,4.02-4.02,7.63-7.97,9.81-10.76,2.13-2.73,4.19-5.17,6.19-7.35,2.23-5.64,4.47-13.42,5.09-15.59,1.08-3.79,4.95-1.54,9.02,3.65,1.94-1.15,3.81-2,5.63-2.67-4.04,3.93-9.05,10.18-10.6,17.11.71.65,10.36-12.33,12.46-15.38.19-.28,1.51-2.3,2.49-3.92,1.45-1.69,2.61-3.09,3.18-3.78,2.39-2.89,4.93-.4,6.67,4.66,11.71,2.05,21.29,10.63,31.81,9.99,20.27-1.23,56.95-9.34,91.42,1.7,100.49,9.3,112.1-36.52,210.96-12.93,7.67,1.83,14.59,4.58,20.63,8.01,6.51,2.33,12.81,5.39,18.62,9.25,6.95,4.7,13.33,10.32,18.48,16.85,1.26,1.64,2.59,3.25,3.7,4.98l1.73,2.56,1.54,2.41c2.03,3.18,3.98,6.39,5.9,9.61,2.12,3.56,4.18,7.12,6.21,10.68-1.86-1.97-3.59-1.34-5.07-.89-3.13.99-6.04,2.72-8.47,4.85-5.51,4.87-3.02,5.93-1.76,5.6.23-.06,13.73-4.58,13.96-4.74,1.05-.75,1.44-1.88,1.91-3.07,1.49,1.88,2.9,4.36,4.29,6.81,1.93,3.35,3.86,6.67,5.82,9.93-1.94-1.7-3.46-.94-4.75-.42-4.6,1.93-8.32,5.2-10.42,8.35-.4.6-.15,2.44,1.47,2.05,2.68-.64,6.23-2.2,7.83-2.82,4.66-1.88,5.73-1.6,6.39-4.51,3.77,4.4,7.37,9.93,11.23,14.98-1.97-.95-3.25-.05-4.43.64-4.11,2.46-10.57,9.09-9.72,11.18.75,1.84,3.22.15,5.78-1.29.36-.19,8.57-4.87,8.9-5.23.6-.7,1.06-2.2.99-3.36,1.38,1.72,2.78,3.4,4.23,4.98,8.8,9.59,19.51,15.78,32.2,18.77,1.55.43,3.2.67,4.79,1.02l4.9.75c3.11.41,6.19.56,9.17.41,5.97-.3,11.5-1.95,16.05-4.9,2.91-1.87,5.38-4.39,7.24-7.27.1,4.16,1.43,4.16,2.26,4.64,10.34,5.08,9.57,5.29,10.51,5.04,2.99-.79-1.44-6.51-4.01-8.65-1.1-.89-2.29-1.64-3.52-2.29-1.22-.63-2.45-1.49-4.64.38.65-1.21,1.38-2.72,1.91-4.29.86-2.48,1.18-5.08.93-7.25,1.35.63,2.62.09,3.86-.23,6.78-1.77,10.25-5.77,10.16-7.59.73,1.67,1.26,3.36,1.6,5.02,1.02,5.07.68,9.96-.44,14.53M423.2,202.02c-1.04-1.78-3.97-3.32-7.66-4.01-1.44-.27-2.87-.42-4.15-.42-3.44,0-5.49,1.01-5.62,2.77-.17,2.63,3.94,4.96,7.84,6.02,1.47.39,2.95.59,4.29.59,3.81-.43,5.2-1.33,5.6-2.62.26-.76.15-1.57-.3-2.34M424.27,185.09c-1.81-.77-4.37-1.25-7.22-1.36-2.86-.02-8.38.13-10.2,2.07-.56,2.8.57,3.88,2.86,4.85,1.87.79,4.25,1.38,6.7,1.65.94.11,1.88.16,2.79.16,3.67,0,7.74-.93,8.19-3.54.12-.71.06-2.51-3.11-3.84M404.64,175.06c.28,1.22,1.66,1.99,4.48,2.5,1.7.3,3.64.46,5.64.46.73,0,1.48-.02,2.25-.07,5.66-.29,11.74-2.11,11.73-5.42-.01-.94-.58-2.62-4.24-3.27-.97-.17-2.08-.26-3.32-.26-1.57,0-3.27.14-5.07.41-4.53.72-9.84,2.18-11.15,4.13-.41.61-.4,1.16-.32,1.52M404.63,216.88c1,1.15,2.4,2.19,3.93,2.93,1.48.73,3.09,1.13,4.54,1.13,1.96,0,3.49-.73,4.18-1.99.71-1.26.39-2.84-.84-4.2-1.02-1.14-2.63-2.16-4.55-2.86-1.58-.58-3.23-.9-4.62-.9-3.02.21-3.74,1.4-3.96,2.1-.23.77-.18,2.06,1.31,3.78M322.12,82.4c2.88-.55,6.39-2.62,6.59-2.39.2.23-2.58,4.23-5.87,5.48,5.64,2.17,10.73-1.78,12.55-9.39.54-2.18.46-3.89.28-4.01-.54-.39-13.55,2.64-13.55,10.32M284.3,26.59c0,2.48,4.37,22.18,8.8,33.12.45,1.09,1.45,1.77,2.61,1.77,1.56,0,2.79-1.16,2.86-2.7.46-8.86-1.07-21.47-2.7-29.44-.74-3.82-1.39-7.19-5.47-9.68-4.52-.49-6.09,3.81-6.11,6.93M258.71,49.92c.67,2.67,1.29,5.15,2.17,7.63.42,1.17,1.48,1.92,2.7,1.92,1.37,0,2.52-.93,2.81-2.26,2.43-11.26.18-25.74-1.39-28.61-.7-1.21-1.85-2.72-4.52-3.72-2.37-.21-3.19.68-3.9,1.64-2.56,3.49-2.44,4.8,2.13,23.39M227.57,42.33c.3,1.58.65,3.42,1.04,5.6.83,4.44,1.84,9.82,2.9,14.11.28,1.13,1.17,1.89,2.22,1.89s1.94-.77,2.2-1.91c1.67-7.54,2.29-16.16,1.74-24.32-.31-3.89-.58-7.39-5.04-9.83-2.96-.4-3.88.79-4.18,1.18-2.74,3.54-2.34,5.61-.88,13.29M223.67,89.38c-.39.79,7.39,12.77,14.39,12.19-.54-1.41-1.61-3.03-2.33-4.14-.76-1.14-1.28-1.9-1.23-1.97.19-.23,4.65,1.83,6.46,4.87,1.97-5.52-4.6-10.97-12.47-11.46-2.25-.16-4.74.33-4.83.52M216.1,103.09c.74,10.13,12.23,18.26,21.08,13.78,2.06-1.06,4.3-3.84,4.71-5.18-3.48,1.04-6.77.91-9.12.46-2.35-.48-3.67-1.24-3.65-1.34.02-.12,1.55-.18,3.71-.64,2.12-.44,5.06-1.38,7.49-2.63-3.58-4.47-11.33-1.46-22.23-5.74-1.96-.85-2.13-1.08-1.99,1.29M201.56,98.97c-2.46,1.12-5.22,1.98-7.73,2.59,3.72,1.06,10.25,1.44,14.92-.68,6.57-2.98-.57-17.5-7.14-14.52-4.67,2.12-8.52,7.21-10.03,10.64,2.08-1.48,4.53-2.98,6.99-4.09,6.57-2.98,9.55,3.09,2.98,6.07M191.65,99.22c-1.48-3.01-5.31-3.73-8.45-2.3-3.14,1.42-4.48,5.02-3,8.04,1.48,3.01,5.23,4.3,8.36,2.88,3.14-1.42,4.56-5.6,3.08-8.61M198.9,60.57c.13,1.15.96,1.96,2.03,1.96.96,0,1.82-.66,2.19-1.69,2.75-7.64,4.38-16.86,4.46-25.33.01-3.77.03-7.61-4.31-10.56-4.38-.53-6.37,3.48-6.71,6.27-.1.95,2.31,29.1,2.33,29.35M183.89,94.94c-.29-2.47-.42-5.26-.2-7.86.6-6.95,7.56-6.4,6.96.55-.22,2.6-.82,5.33-1.53,7.72,2.81-2.56,6.42-7.81,6.85-12.76.6-6.95-16.21-8.77-16.81-1.82-.42,4.95,2.39,11.19,4.73,14.16M173.1,84.1c-5.97-3.97-15.49,9.22-9.52,13.2,4.25,2.83,10.75,3.48,14.6,3.02-2.37-.99-4.95-2.28-7.18-3.77-5.97-3.97-1.99-9.49,3.98-5.51,2.23,1.49,4.39,3.35,6.19,5.14-.9-3.62-3.83-9.25-8.07-12.07M164.66,29.67c1.25,27.31,2,27.32,3.5,27.32,4.31-8.34,6.61-14.78,7.29-26.04.19-3.56.38-7.15-3.92-10.06-2.73-.54-3.6.18-4.23.8-3.04,2.98-2.81,5.87-2.65,7.98M131.46,39.72c-6.69.33-12.08,1.95-12.05,3.61.04,1.66,5.44,3.08,12.16,3.19,6.7.11,12.19-1.51,12.15-3.61-.04-2.1-5.54-3.52-12.26-3.19M131.15,55.22c-6.69-.56-12.25.28-12.42,1.88-.23,1.58,4.96,3.76,11.58,4.87,6.62,1.11,12.24.27,12.55-1.87.23-2.13-5.02-4.32-11.71-4.88M118.32,29.34c.24,1.65,5.78,2.42,12.47,1.7,6.67-.72,11.91-2.98,11.61-5.05-.28-2.07-5.94-2.82-12.55-1.69-6.63,1.13-11.75,3.38-11.53,5.03M115.97,70.15c-.49,1.44,4.22,4.5,10.51,6.83,6.29,2.33,12,2.51,12.7.39.61-2.13-4.17-5.22-10.68-6.88-6.5-1.67-12.12-1.82-12.54-.34M88,33.18c-.12,1.36,4.5,2.98,10.34,3.61,5.85.63,10.71-.15,10.86-1.76.14-1.6-4.52-3.22-10.39-3.61-5.86-.39-10.69.4-10.81,1.76M97.47,43.63c-5.81-.85-10.7-.46-10.91.89-.24,1.33,4.24,3.31,10.01,4.43,5.77,1.11,10.68.72,10.97-.88.25-1.6-4.25-3.58-10.06-4.44M87.64,25.65c2.78-2.07,2.75-5.85,1.44-8.68-1.31-2.83-3.69-6.91-3.95-9.32-.41-3.91-2.25,2.7-4.71,9.56-2.46,6.86-6.08,9.93-6.54,10.41-2.73,2.91,9.57,1.14,13.75-1.97M56.45,55.99c2.35-1.48,9.15-5.55,9.15-7.26-2.88.98-8.34,2.51-10.95,4.15-7.77,5.17-6.69,10.81-5.98,11.14,1.07.49,1.73-4.25,7.78-8.03M60.81,66.05c6.03-2.33,11.55-6.42,11.55-6.42,0,0-10.44-6.4-16.36-.17-1.78,1.88-5.77,7.82-4.93,8.11,1.17.41,6.3-.19,9.74-1.52M68.08,105.24c.05-.78-.15-1.54-.24-2.29-.22-.71-.41-1.44-.71-2.1-1.22-2.63-3.09-4.64-5.1-6.3-2.02-1.66-4.22-3.01-6.55-4.07,1.79,1.83,3.52,3.64,5.03,5.56,1.48,1.92,2.78,3.96,3.39,6.03.67,2.08.34,3.99-.66,5.65-1.08,1.7-2.8,2.84-3.84,5.65,3.87,1.22,6.15-.93,7.52-3.64,1.09-2.91,1.12-3.7,1.16-4.48M78.57,88.07c-4.05-4.21-7.97-7.18-8.69-6.55-.73.58,1.25,4.96,4.47,9.9,1.64,2.44,3.39,4.46,5,5.68,1.58,1.21,3.09,1.68,3.82,1.04,1.55-1.31-.51-5.81-4.6-10.06M86.19,78.48c-5.04-2.98-9.66-4.64-10.27-3.69-.62.93,2.59,4.52,7.24,8.14,4.62,3.6,9.35,5.32,10.39,3.77,1.01-1.55-2.28-5.22-7.35-8.22M91.49,67.42c-5.5-2.06-10.35-2.78-10.81-1.61-.49,1.14,3.4,4.07,8.72,6.57,5.31,2.5,10.22,3.24,10.9,1.65.64-1.6-3.31-4.56-8.81-6.61M104.7,61.07c.42-1.6-3.89-4.01-9.6-5.39-5.71-1.38-10.6-1.45-10.94-.17-.36,1.26,3.91,3.67,9.53,5.37,5.62,1.7,10.55,1.79,11.01.19M114.32,97.76c-5.09-4.41-9.9-7.04-10.96-6.08-1,1.01,1.77,5.91,6.19,10.92,4.46,5.06,9.44,7.85,11.08,6.2,1.69-1.61-1.25-6.66-6.31-11.04M123.03,84.98c-5.99-2.99-11.46-4.4-12.16-3.12-.7,1.28,3.12,5.24,8.73,8.99,5.56,3.72,11.18,5.21,12.31,3.2,1.12-2.01-2.85-6.07-8.88-9.07M101.43,193.95c1.31.74,3.05,1.04,4.95.92,1.9-.12,3.62-.58,4.89-1.06,1.24-.49,2.18-1.05,2.25-1.7.15-.68-.52-1.4-1.71-2.13-1.17-.73-2.9-1.44-4.89-1.83-1.99-.39-3.87-.36-5.27.12-1.38.48-2.26,1.44-2.32,2.61,0,1.22.76,2.34,2.1,3.08M115.31,203.85c-.58-1.64-3.58-1.87-6.86-.62-3.28,1.25-5.18,3.85-4.21,5.61.95,1.73,4.07,1.95,6.96.57,2.89-1.38,4.71-3.89,4.11-5.56M117.04,177.81c-1.01-1.23-2.59-2.68-4.52-3.94-1.96-1.27-3.92-2.08-5.53-2.23-1.61-.17-2.87.3-3.37,1.32.07,2.37.45,3.04.98,3.68,1.07,1.29,2.77,2.41,4.8,3.22,2.04.82,4.02,1.24,5.55,1.39,3.52-1.21,3.1-2.21,2.09-3.44M122.43,162.09c-3.67-3.78-7.73-5.54-9.06-3.91-1.35,1.59.65,5.6,4.42,8.84,1.87,1.63,3.81,2.83,5.41,3.52,1.63.7,2.96.89,3.58.33,1.24-1.09-.71-5.02-4.35-8.77M134.06,151.97c-3.58-4.62-7.67-7.23-9.14-5.84-1.47,1.37.29,5.94,3.91,10.13,3.61,4.18,7.65,6.76,9.1,5.8,1.43-.97-.3-5.49-3.87-10.09M146.58,142.97c-3.52-5.35-7.67-8.72-9.22-7.45-1.55,1.26.08,6.3,3.64,11.28,3.55,4.96,7.67,8.28,9.19,7.41,1.52-.88-.08-5.88-3.61-11.24M155.67,118.77c-2.99.18-5.5-.66-7.23-1.47-1.73-.82-2.65-1.61-2.62-1.68.03-.07,1.24.18,3.04.34,1.75.16,4.31.17,6.4-.33-2.3-3.69-8.97-4.2-14.43-6.35-4.88-1.85-6.74-2.8-6.28-.53,2.98,14.29,17.89,14.73,21.12,10.02M160.39,70.59c5.79.8,7.13,2.97,7.93,4.27,1.36,1.57,2.15,1.89,2.99,1.89,1.39,0,2.67-.88,3.19-2.2.52-1.33.14-2.76-1.02-3.85-2.76-2.57-6.34-3.11-8.87-3.11-3.09,0-4.73.53-4.88,1.57.25.98.66,1.43.66,1.43M180.18,107.75c-2.08,1.48-4.53,2.98-6.99,4.09-6.57,2.98-9.55-3.09-2.98-6.07,2.46-1.11,5.22-1.98,7.73-2.59-3.72-1.06-10.25-1.44-14.92.68-6.57,2.98.57,17.5,7.14,14.52,4.67-2.12,8.52-7.21,10.03-10.64M192.46,123.47c.42-4.94-2.24-10.69-4.58-13.66.29,2.47.42,5.26.19,7.86-.6,6.95-7.56,6.4-6.96-.55.22-2.6.82-5.33,1.53-7.72-2.82,2.56-6.42,7.81-6.85,12.75-.6,6.95,16.06,8.27,16.65,1.32M196.3,128.21c-.02-1.43-.94-1.54-1.23-1.54-.83,0-1.11.63-1.53,1.58-.76,1.71-2.35,5.28-5.1,5.67-2.16.32-3.02,1.96-2.91,3.44.12,1.66,1.4,3.38,3.33,3.38,2.61-.86,3.68-1.94,3.74-1.99,1.72-1.74,3.76-4.98,3.7-10.53M208.19,107.45c-4.25-2.83-10.75-3.48-14.6-3.02,2.38.99,4.95,2.28,7.18,3.77,5.97,3.97,1.99,9.49-3.98,5.51-2.23-1.49-4.39-3.35-6.2-5.14.9,3.62,3.83,9.25,8.08,12.07,5.97,3.97,15.49-9.22,9.52-13.2M220.99,159.27c5.86-1.73,10.31-4.55,9.93-6.3-.39-1.75-5.66-1.57-11.76.4-6.1,1.97-10.53,4.78-9.9,6.29.62,1.51,5.87,1.34,11.73-.39M224.66,172.86c5.37-1.29,9.52-3.78,9.22-5.54-.29-1.77-5.11-1.96-10.74-.44-5.63,1.52-9.73,3.99-9.18,5.53.56,1.54,5.33,1.74,10.71.45M227.56,186.63c4.88-.85,8.7-2.99,8.5-4.78-.18-1.79-4.54-2.36-9.67-1.28-5.14,1.08-8.9,3.21-8.46,4.77.46,1.56,4.76,2.13,9.63,1.29M232.78,224.31c-.93-.84-2.4-1.51-4.1-1.85-1.71-.34-3.32-.33-4.5-.09-1.2.24-1.9.77-2.07,1.44-.15.69.36,1.53,1.26,2.36.9.83,2.12,1.63,3.63,2.21,3.01,1.19,6.09.62,6.8-1.29.38-.94-.11-1.95-1.02-2.79M236.94,211.7c.16-1.86-3.03-3.32-7.11-3.25-4.08.08-7.28,1.38-7.13,2.93.09,1.52,3.21,2.98,6.99,3.24,3.77.27,7.04-1.04,7.26-2.92M237.26,196.62c-.05-1.83-3.88-2.8-8.5-2.18-4.63.62-8.08,2.38-7.76,3.94.3,1.56,4.08,2.54,8.43,2.19,4.35-.35,7.86-2.12,7.83-3.95M246.89,120.46c-2.54,1.42-6.22,6.28-5.53,4.4-.24-.14,1.1-4.84,3.88-7.1-1.87-.7-5.8,1.28-8,4.93-2.75,4.53-.63,12.96,0,13.16.84.27,10.83-5.71,9.66-15.39M310.35,105.91c.62-4.05,7.73-8.61,6.69-12.83-1.04-4.22-9.46-4.95-11.89-8.24-2.52-3.42-.77-11.64-4.34-13.8-3.57-2.16-10.04,3.21-14.24,2.57-4.04-.62-8.6-7.73-12.82-6.69-4.22,1.04-4.95,9.46-8.24,11.89-3.41,2.52-11.64.77-13.8,4.34-2.16,3.57,3.21,10.04,2.57,14.24-.62,4.04-7.73,8.6-6.69,12.83,1.04,4.22,9.46,4.95,11.89,8.24,2.52,3.41.77,11.64,4.34,13.8,3.57,2.16,10.04-3.21,14.24-2.57,4.04.62,8.6,7.73,12.82,6.69,4.22-1.04,4.95-9.46,8.24-11.88,3.41-2.52,11.64-.77,13.8-4.34,2.16-3.57-3.21-10.04-2.57-14.24M318.01,24.07c4.98,15.19,7.87,36.49,8.3,39.89.33,1.92,1.47,2.86,2.85,2.86,1.43,0,2.58-.98,2.79-2.39,2.32-15.22,1.38-47.45-11.36-52.97-2.06-.28-2.78.11-3.26.82-1.67,2.46-.45,8.92.68,11.78M324.52,102.96c.12,2.87,1.64,6.72,1.41,6.87-.25.16-3.82-3.21-4.57-6.61-3.49,4.76.34,11.53,7.6,14.44,2.07.86,3.78,1.02,3.93.86.48-.48-.57-12.93-8.37-15.56M324.08,92.22c7.04.23,11.95,4.5,11.74,4.86-.15.28-4.76-1.49-11.57-.43,1.42,4.05,6.05,5.71,10.1,6.95,10.47,3.19,10.65,6.97,11.61,4.47,4.86-16.3-16.92-22.82-21.89-15.84M359.55,6.02c-.4-.58-2.06-1.15-3-1.15-5.42,3.95-5.66,7.97-5.88,11.52-.87,13.35.54,25.87,3.8,35.14.4,1.14,1.45,1.88,2.65,1.88,1.57,0,2.8-1.18,2.85-2.75.45-13.45,1.01-22.32,1.38-28.18.71-11.3.8-12.75-1.8-16.46M415.96,44.51c-.04.79.24,1.54.77,2.1.55.57,1.32.9,2.11.9.96,0,1.82-.47,2.36-1.29,4.7-7.11,12.07-23.95,12.34-25.57.29-1.86.02-3.51-.86-5.34-.62-1.31-1.74-2.06-3.06-2.06-5.32,1.14-7.14,3.9-10.49,14.85-1.77,5.68-2.96,11.81-3.19,16.4M416.79,87.65c-.33-2.8-.47-5.95-.22-8.9.68-7.87,8.55-7.24,7.88.62-.25,2.94-.93,6.03-1.74,8.74,3.19-2.9,7.27-8.84,7.75-14.44.68-7.87-18.35-9.93-19.03-2.06-.48,5.6,2.71,12.66,5.36,16.03M416.01,89.89c-3.55,1.61-5.07,5.68-3.39,9.09,1.68,3.41,5.92,4.87,9.47,3.26,3.55-1.61,5.16-6.34,3.48-9.75-1.68-3.41-6.01-4.22-9.56-2.61M399.74,65.36c.07.31.47,2.14,1.52,2.32.91.16,1.23-1.24,1.27-1.59.95-8.58,5.96-6.16,5.85-10.35-.08-2.9-3.63-4.61-6.03-2.07-2.89,3.04-3.54,7.71-2.62,11.68M393.8,90.32c4.8,3.2,12.17,3.94,16.53,3.42-2.69-1.12-5.6-2.58-8.13-4.26-6.76-4.5-2.26-10.74,4.5-6.24,2.53,1.68,4.97,3.79,7.01,5.81-1.02-4.1-4.33-10.46-9.14-13.66-6.76-4.5-17.53,10.44-10.77,14.93M376.21,87.02c.2-.23,3.96,2.66,8.84,3.21-1.04-4.38-7.47-8.99-11.8-12.84-3.94-3.41-4.69-4.33-5.04-2.05-1.44,13.75,5.63,22.06,16.16,17.98-4.97-1.47-9.39-6.97-8.15-6.3M389.18,42.34c3.5-8.31,5.28-19.45,5.74-26.46.26-3.56.5-6.76-2.91-9.94-.62-.58-1.36-.88-2.14-.88-1.1,0-1.93.59-2.23.84-3.38,2.79-3.51,5.86-3.6,8.1-.44,7.15-1.06,23.45-.17,27.5-.01,1.51,1.19,2.59,2.7,2.59,1.16,0,2.16-.67,2.61-1.74M412.59,102.15c-2.36,1.67-5.13,3.37-7.91,4.63-7.43,3.37-10.81-3.49-3.38-6.86,2.78-1.26,5.9-2.24,8.75-2.93-4.21-1.2-11.6-1.63-16.89.77-7.43,3.37.65,19.8,8.08,16.43,5.29-2.4,9.64-8.16,11.35-12.04M421.3,104.48c.33,2.8.47,5.95.22,8.89-.68,7.87-8.55,7.25-7.88-.62.25-2.94.93-6.03,1.73-8.74-3.18,2.9-7.27,8.84-7.75,14.44-.68,7.87,18.17,9.36,18.85,1.49.48-5.6-2.53-12.1-5.18-15.46M433.52,116.75c6.76,4.5,17.53-10.44,10.77-14.94-4.8-3.2-12.17-3.94-16.53-3.42,2.69,1.12,5.6,2.58,8.13,4.27,6.76,4.5,2.26,10.74-4.5,6.24-2.53-1.68-4.97-3.79-7.01-5.81,1.02,4.1,4.33,10.47,9.14,13.66M447.72,126.67c-.7-1.13-2.98.28-7.06-.49-3.71-.71-3.36-2.87-5.94-2.87-5.26,0-5.04,9.28,5.93,7.47,1.82-.32,3.78-.96,5.46-1.89.41-.23,2.23-1.24,1.62-2.22M436.85,77.94c-5.29,2.4-9.64,8.16-11.35,12.04,2.36-1.67,5.13-3.37,7.91-4.63,7.43-3.37,10.81,3.49,3.38,6.86-2.78,1.26-5.9,2.24-8.75,2.93,4.21,1.2,11.6,1.63,16.89-.77,7.43-3.37-.65-19.8-8.08-16.43M470.11,131.95c-5.51-.42-20.79,16.57-15.05,20.39,5.92,3.79,18.53-17.62,15.05-20.39M534.01,210.82c-1.2-.54-2.92-.82-4.99-.5-9.44,1.45-8.05,8.77,1.13,8.77,6.85,0,8.3-6.37,3.86-8.27M529.23,195.19c-4.74,0-11.93,4.41-10.35,7.96,2.26,4.86,16.57.21,14.66-5.51-.47-1.56-2.04-2.46-4.31-2.46M512.36,191.51c.4.57,1.26,1.26,3.08,1.26,5.56,0,13.97-5.88,11.77-10.1-2.95-5.67-17.89,4.19-14.84,8.84M506.12,181.92c5.36,0,15.53-8.73,12.3-12.99-4.77-6.3-21.63,12.99-12.3,12.99M497.14,161.97c-3.37,4.41-6.18,11.12-1.54,11.12,0,0,5.29-2.09,8.33-5.54,9.15-10.39,1.69-16.68-6.79-5.57M484.71,153.98c-7.09,13.06-.38,16.62,7.54,4.5,2.95-4.51,4.58-10.02,1.98-11.83-4.3-.41-7.59,3.76-9.52,7.33M471.23,160.3c9.08-4.55,13.86-21.86,8.27-21.86s-15.51,21.86-8.27,21.86M450.26,97.03c5.49.47,9.36-1.4,9.53-1.07.16.27-4.45,3.95-9.79,4.22,2.14,2.59,8.14,2.91,11.38,1.34,8.42-3.58,10.5-16.21,9.64-16.81-.23-.16-17.48,6.14-20.77,12.31M466.9,30.3c-.41-2.52-1.93-3.53-4.2-3.53-1.32,0-2.76.35-3.86.95-3.03,1.72-11.43,12.75-14.4,22.01-.28.89-.13,1.83.41,2.56.55.75,1.43,1.2,2.34,1.2,5.13-3.21,9.29-7.52,12.12-10.55,1.02-1.11,1.92-2.06,2.7-2.89,4.57-4.85,5.52-5.86,4.89-9.75M540.34,125.93c-.28-.73-.88-1.27-1.65-1.41-2.79-.53-3.47.76-4.34,1.87-1.59,2.04-7.32,10.41-6.23,12.27,1.21,2.08,5.07-1.53,8.53-4.93.98-.99,1.9-2.04,2.78-3.1.88-1.07,1.96-1.97.92-4.69M563.55,134.89s-.85-1.34-1.78-1.25c-3.15.31-3.55,2.2-4.02,3.76-1.42,4.86-1.13,10.38.3,14.21,2.59,1.47,2.97-1.13,3.82-4.31,2.84-10.6,3.37-10.01,1.68-12.4M592.48,142.13c-.72-5.83-1.5-7.12-4.2-7.65-.67-.13-1.34,0-2.04.74-1.95,2.04-1.63,2.82.25,8.28.59,1.63,2.75,7.97,4.12,8.29,2.73.63,2.17-6.91,1.88-9.65"/>
      </g>
    </g>
  </g>
</svg>