<?xml version="1.0" encoding="UTF-8"?>
<svg id="Layer_1" data-name="Layer 1" xmlns="http://www.w3.org/2000/svg" viewBox="0 0 625.79 169.89">
  <defs>
    <style>
      .cls-1 {
        fill: #1f3d3a;
      }

      .cls-2 {
        fill: #9a6c29;
      }
    </style>
  </defs>
  <g>
    <path class="cls-1" d="M611.24,57.64h-2.87v-1.04h6.99v1.04h-2.89v8.4h-1.23v-8.4Z"/>
    <path class="cls-1" d="M624.36,61.9c-.07-1.32-.15-2.9-.14-4.08h-.04c-.32,1.11-.71,2.28-1.19,3.59l-1.67,4.58h-.92l-1.53-4.5c-.45-1.33-.83-2.55-1.09-3.67h-.03c-.03,1.18-.1,2.76-.18,4.17l-.25,4.05h-1.16l.66-9.44h1.55l1.61,4.57c.39,1.16.71,2.2.95,3.18h.04c.24-.95.58-1.99,1-3.18l1.68-4.57h1.55l.59,9.44h-1.19l-.24-4.15Z"/>
  </g>
  <g>
    <path class="cls-1" d="M268.83,167.3l-39.85.4c-2.01.02-2.01-5.73-.46-5.59,4.36.38,10.07-3.92,10.03-8.17l-.51-55.64c-.05-5.54-4.49-13.73-8.23-16.29-10.75-7.34-25.5-1.35-36.2,10.32l-.1,61.97c0,2.85,4.7,7.29,7.26,7.78l4.49.86c1.16.22-1.32,4.88-2.58,4.86l-41.41-.68c3.38-5.6,7.06-6,12.65-8.25l.14-76.51-14.43-4.87,33.22-10.72,1.36,18.54c10.63-9.54,20.91-16.51,34.93-18.34,13.02-1.7,22.98,6.18,28.34,18.75,9.97-11.13,20.01-18.62,34.03-18.86,11.21-.2,21.61,9.46,23.36,21.29l10.18,69.15c.44,2.97,7.4,5.11,10.11,5.02s8.48-3.6,8.49-6.9l.11-135.18c0-1.27-.77-4.77-1.91-5.05l-5.58-1.38-5.31-1.31c-1.37-.34,1.82-4.17,3.3-4.58l29.11-7.94.31,84.37c14.53-11.99,29.75-22.3,44.77-15.3,4.83,2.25,11.27,9.54,12.28,16.58l10.04,69.92c.44,3.09,5.87,6.09,9.04,6.64,1.19.24,1.64,3.48,1.55,5.34l-41.92.06-.46-4.65c-.15-1.52,6.24-.24,10.08-3.82,1.44-1.34,1.31-6.03.97-8.37l-8.5-57.54c-1.19-8.06-7.68-15.34-16.46-14.37-7.73.86-15.35,5.86-21.48,11.53l.02,68.71,7.66,3.11,3.99,2.38c.85.51-3.36,2.89-3.84,3.02l-76.51.04-2.15-2.96c-2.38-3.27,6.96-2.2,9.44-4.82,1.15-1.21,1.77-6,1.51-7.87l-8.05-56.38c-1.26-8.81-7.31-16.62-16.59-16.79-7.37-.13-18,5.98-20.99,12.72l.15,68.47c5.66.98,8.01.2,10.63,7.29Z"/>
    <path class="cls-1" d="M161.7,118.28c0,28.1-22.92,50.88-51.19,50.88s-51.19-22.78-51.19-50.88,22.92-50.88,51.19-50.88,51.19,22.78,51.19,50.88ZM130.04,87.41c-5.55-10.12-14.55-14.55-25.44-13.89-8.86.54-18.06,7.84-20.56,18.37-7.76,32.74,5.26,73.37,32.02,71.55,25.75-1.76,30.28-46.29,13.98-76.02Z"/>
    <path class="cls-2" d="M439.98,143.69c2.1-23.62,32.12-30.1,58.46-23.24l-.6-33.53c-.19-10.41-9.3-16.18-19.05-14.81-3.59.51-8.99,2.17-10.81,4.26-5.33,6.13.54,16.72-7.63,23.34-2.4,1.95-10.21,2.15-12.18-.31-5.52-6.91-2.66-17.43,4.07-22.52,12.2-9.22,27.83-12.02,43.27-9.1,9.34,1.77,21.91,9.38,22.02,20.6l.62,65.12c.02,2,3.07,7.45,4.75,6.66l8.39-3.98c1.65,7.64-7.3,13.08-14.36,13.44-8.68.44-15.26-3.56-17.7-12.29-13.95,12.29-31.91,16.26-47.65,8.18-7.92-4.06-12.35-13.65-11.62-21.83ZM498.01,150.78l.49-25.83c-9.45-2.44-18.9-3.61-27.61-.24-6.18,2.39-9.86,9.99-9.99,14.71-.2,6.83.91,14.09,6.94,17.82,8.87,5.49,24.71,4.26,30.18-6.45Z"/>
    <path class="cls-1" d="M594.08,162.38c-13.34,9.88-29.99,9.68-43.09.75l-10.5,6.76-6.99-28.85c-.27-1.12,4.36-3.84,4.98-2.87l2.69,4.22c6.81,10.66,14.39,20.36,27.48,21.57,8.71.8,15.63-2.5,18.62-10.25,2.31-5.98-.25-16.17-8.64-19.56l-28.78-11.63c-10.97-4.43-17.62-12.65-19.14-23.27-1.46-10.22,2.3-21.54,12.17-27.22,13.65-7.86,29.56-6.75,43.32-.08l11.21-5.88,8.17,30.32c.27,1-4.1,4.42-4.68,3.55l-3.51-5.2c-7.84-11.62-15.85-22.33-30.46-22.62-9.36-.19-17.77,2.88-20.17,12.45-1.84,7.35,2.27,16.42,11.5,19.88l26.83,10.05c9.46,3.54,16.42,12.28,18.16,20.15,2.27,10.27-.41,21.25-9.19,27.76Z"/>
    <path class="cls-1" d="M35.25,145.39c0,6.83,5.23,12.77,10.92,12.85,5.13.07,9.43-3.77,16.06-9.06.25,5.59-4.12,13.59-8.76,16.38-7.22,4.34-14.79,4.89-22.52,2.57-8.25-2.47-15.23-9.02-15.23-17.89l-.02-71.9-15.69-5.8c5.79-3.56,7.61-3.69,14.89-3.96l13.38-19.81c.56-.83,3.32-2.81,4.09-3.36s2.76,3.28,2.78,4.35l.29,18.87,22.52.23c1.07.01,4.14,2.18,4.95,2.86,1.08.91-3.74,4.03-5.25,4.06l-22.39.46-.02,69.17Z"/>
  </g>
</svg>