<?xml version="1.0" encoding="UTF-8"?>
<svg id="Layer_1" data-name="Layer 1" xmlns="http://www.w3.org/2000/svg" viewBox="0 0 102.38 101.76">
  <defs>
    <style>
      .cls-1 {
        fill: #1f3d3a;
      }

      .cls-2 {
        fill: #9a6c29;
      }
    </style>
  </defs>
  <path class="cls-2" d="M82.58,19.5c16.3,29.73,11.77,74.27-13.98,76.02-26.76,1.82-39.78-38.81-32.02-71.55,2.5-10.53,11.69-17.83,20.56-18.37,10.89-.66,19.89,3.77,25.44,13.89Z"/>
  <path class="cls-1" d="M102.38,50.88c0,28.1-22.92,50.88-51.19,50.88S0,78.98,0,50.88,22.92,0,51.19,0s51.19,22.78,51.19,50.88ZM70.72,20.01c-5.55-10.12-14.55-14.55-25.44-13.89-8.86.54-18.06,7.84-20.56,18.37-7.76,32.74,5.26,73.37,32.02,71.55,25.75-1.76,30.28-46.29,13.98-76.02Z"/>
</svg>