<?xml version="1.0" encoding="UTF-8"?>
<svg id="Layer_1" xmlns="http://www.w3.org/2000/svg" version="1.1" viewBox="0 0 243.64 283.82">
  <!-- Generator: Adobe Illustrator 30.5.1, SVG Export Plug-In . SVG Version: 2.1.4 Build 3)  -->
  <defs>
    <style>
      .st0 {
        fill: #1f3d3a;
      }
    </style>
  </defs>
  <path class="st0" d="M44.63,270.08c5.82-5.73,10.97-12.1,14.93-19.1,3.99-7,6.79-14.52,8.16-22.45,1.37-7.92,1.36-16.14.26-24.32-.5-4.1-1.41-8.17-2.4-12.24-1.12-4.04-2.31-8.09-3.82-12.06-1.45-3.99-3.09-7.93-4.87-11.86-1.77-3.91-3.69-7.93-5.61-11.68-.47-.96-.97-1.9-1.49-2.83l-1.54-2.8c-1.05-1.85-2.16-3.67-3.28-5.49-2.28-3.61-4.71-7.13-7.28-10.65-2.55-3.54-5.31-7.04-7.84-11.22-1.22-2.14-2.44-4.39-3.22-6.95-.19-.64-.43-1.26-.58-1.91l-.38-1.97-.18-.99c-.04-.33-.05-.66-.08-.99l-.12-1.97c-.09-5.21,1.09-10.09,2.92-14.63,1.85-4.53,4.4-8.66,7.37-12.37,2.97-3.73,6.41-7.01,10.19-9.84,3.77-2.83,7.87-5.23,12.24-7.06,1.11-.42,2.2-.89,3.34-1.25,1.15-.34,2.28-.69,3.43-1l3.53-.71c.6-.1,1.21-.16,1.82-.24.63-.05,1.26-.1,1.9-.12,2.59-.08,5.16.37,7.42.96,2.28.59,4.41,1.27,6.52,1.95,8.42,2.74,16.76,5.35,25.25,7.76,8.49,2.41,16.97,4.88,25.47,6.96,4.25,1.01,8.52,1.98,12.76,2.41,2.12.23,4.23.31,6.26.09,1.01-.11,1.99-.3,3.02-.6l1.54-.41.77-.21.74-.28c4.02-1.36,7.72-3.53,11.12-6.2,3.43-2.64,6.55-5.77,10.07-8.57,3.51-2.8,7.59-5.13,12.04-6.14,4.43-1.03,9.03-.92,13.42-.02,4.38.96,8.54,2.69,12.38,4.91,3.85,2.2,7.4,4.88,10.73,7.77-3.44-2.76-7.08-5.3-10.97-7.34-3.88-2.06-8.04-3.59-12.32-4.37-4.29-.71-8.71-.65-12.86.49-4.16,1.11-7.85,3.41-11.13,6.22-3.29,2.81-6.31,6.08-9.77,8.97-3.43,2.91-7.36,5.43-11.66,7.07l-.8.33-.82.26-1.64.51c-1.07.36-2.25.64-3.43.81-2.36.35-4.69.33-6.96.18-4.57-.29-8.97-1.13-13.34-1.99-8.73-1.79-17.3-3.94-25.89-6.03-8.6-2.09-17.21-4.43-25.69-6.84-2.12-.59-4.21-1.17-6.23-1.61-2.03-.44-3.87-.67-5.7-.55-.46.03-.94.1-1.4.15-.49.09-.97.16-1.46.25l-2.94.71-2.89.97c-.96.34-1.88.8-2.82,1.18-3.71,1.72-7.21,3.95-10.4,6.54-3.2,2.59-6.09,5.56-8.5,8.84-2.42,3.27-4.41,6.82-5.76,10.52-.7,1.85-1.16,3.74-1.51,5.63-.1.95-.27,1.9-.34,2.84.01.92-.08,1.87,0,2.77.22,3.6,1.48,6.76,3.63,10.08,2.17,3.31,4.99,6.68,7.74,10.19,2.77,3.52,5.51,7.16,8.09,10.93,1.27,1.9,2.53,3.81,3.73,5.75l1.77,2.94c.6.97,1.17,1.96,1.71,2.97,2.25,4.03,4.29,7.91,6.32,11.97,2.03,4.04,3.94,8.19,5.67,12.44,1.78,4.22,3.27,8.61,4.67,13.03,1.27,4.47,2.46,8.99,3.21,13.63,1.6,9.26,2.01,18.89.73,28.45-1.27,9.55-4.36,18.95-8.81,27.46-4.43,8.55-10.22,16.28-16.72,23.18-3.03,3.22-8.1,3.37-11.31.33-3.22-3.03-3.37-8.1-.33-11.31.06-.06.12-.13.19-.19l.06-.06Z"/>
  <g>
    <path class="st0" d="M80.72,21.39c-.28.82-.58,1.64-1.07,2.35-.59-2.77-2.44-5.44-2.78-8.63-4.69,4.02-11.39,5.31-16.02,13.24.51-.88.84-1.97,1.17-2.93.9-2.59,1.5-5.34,1.15-8.09-.34-2.65-1.18-5.26-2.39-7.64-1.15-2.27-2.39-3.35-2.4-3.36.21.56.42,1.12.45,1.71.03.56-.12,1.16-.51,1.56-2.55-3.17-5.77-5.96-7.1-9.61-1.32,3.65-4.55,6.45-7.1,9.61-.39-.4-.55-1-.51-1.56.04-.59.25-1.16.45-1.71,0,0-1.24,1.09-2.4,3.36-1.21,2.38-2.05,4.98-2.39,7.64-.35,2.75.25,5.5,1.15,8.09.33.96.66,2.05,1.17,2.93-4.62-7.93-11.33-9.22-16.02-13.24-.34,3.18-2.19,5.85-2.78,8.63-.49-.71-.79-1.53-1.07-2.35-.51,4.18-.7,8.25-.2,12.38.42,3.49,2.34,7.01,4.88,9.52,2.32,2.29,5.97,3.36,9.03,2.56-4.75,2.37-5.14,5.55-7.42,8.25,2.31,1.22,3.24,3.16,6.49,3.95-.98.82-2.31,1.2-3.58,1.02,1.44.8,2.95,1.11,4.59,1.29,2.1.24,4.44.15,6.49-.46,1.65-.5,3.6-1.28,4.53-2.83.93-1.54,1.15-2.62,1.63-4.35.41-1.48,1.62-2.97,3.04-3.07,1.42.1,2.63,1.6,3.04,3.07.48,1.73.71,2.81,1.63,4.35.93,1.55,2.88,2.34,4.53,2.83,2.04.61,4.38.7,6.49.46,1.64-.18,3.15-.5,4.59-1.29-1.26.19-2.6-.2-3.58-1.02,3.25-.79,4.19-2.73,6.49-3.95-2.28-2.7-2.66-5.88-7.42-8.25,3.06.8,6.7-.27,9.03-2.56,2.55-2.51,4.47-6.04,4.88-9.52.49-4.13.3-8.2-.2-12.38Z"/>
    <path class="st0" d="M50.74,47.92c1.36,4.26,1.8,8.81,1.41,13.31-.4,4.5-1.65,8.97-3.85,13.02l-2.1-1.24c2.28-3.57,3.78-7.7,4.47-11.97.69-4.27.58-8.71-.45-12.98l.53-.15Z"/>
  </g>
  <g>
    <path class="st0" d="M114.22,158.1c-.49.41-1,.81-1.57,1.07.69-1.97.55-4.36,1.56-6.49-4.49.73-9.2-1.03-15.15,2.18.66-.36,1.28-.92,1.86-1.39,1.56-1.28,2.99-2.78,3.83-4.64.81-1.8,1.27-3.76,1.42-5.72.15-1.87-.22-3.03-.22-3.03-.08.43-.17.87-.37,1.25-.19.37-.52.68-.92.79-.39-2.97-1.35-5.96-.78-8.77-2.23,1.79-5.33,2.31-8.15,3.32-.09-.4.04-.84.28-1.18.25-.36.6-.63.94-.9,0,0-1.2.21-2.8,1.2-1.67,1.03-3.2,2.35-4.43,3.88-1.27,1.59-1.95,3.55-2.38,5.53-.16.73-.37,1.54-.39,2.29.13-6.76-3.59-10.15-5-14.47-1.43,1.87-3.62,2.84-5.06,4.36-.03-.63.09-1.27.23-1.89-1.92,2.43-3.6,4.92-4.88,7.71-1.08,2.35-1.22,5.3-.58,7.86.58,2.33,2.46,4.4,4.69,5.07-3.9-.33-5.36,1.52-7.83,2.34.98,1.65.83,3.23,2.57,4.97-.93.14-1.92-.13-2.64-.73.6,1.06,1.43,1.83,2.39,2.57,1.23.96,2.74,1.8,4.25,2.2,1.23.32,2.75.57,3.93-.04,1.17-.61,1.73-1.21,2.69-2.11.83-.77,2.16-1.25,3.09-.77.85.61,1.04,2.01.74,3.1-.36,1.27-.63,2.04-.64,3.36,0,1.33.91,2.57,1.76,3.52,1.05,1.17,2.49,2.12,3.9,2.78,1.1.51,2.17.9,3.38.95-.87-.37-1.56-1.12-1.86-2.01,2.35.75,3.68-.11,5.6,0-.4-2.57.58-4.72-1.5-8.03,1.62,1.67,4.32,2.4,6.66,1.85,2.57-.6,5.13-2.08,6.72-4.12,1.89-2.41,3.33-5.04,4.62-7.86Z"/>
    <path class="st0" d="M85.19,163.29c-.78,3.2-2.25,6.23-4.22,8.91-1.98,2.67-4.48,5.01-7.42,6.71l-.84-1.58c2.81-1.37,5.33-3.39,7.4-5.81,2.07-2.42,3.7-5.26,4.69-8.33l.39.11Z"/>
  </g>
  <g>
    <path class="st0" d="M45.95,125.87c-.23-.45-.46-.91-.56-1.4,1.41.87,3.29,1.16,4.77,2.3.19-3.6,2.35-6.96.86-12.12.17.57.5,1.15.77,1.68.73,1.43,1.65,2.79,2.96,3.75,1.26.93,2.7,1.62,4.2,2.07,1.43.43,2.38.34,2.39.34-.32-.14-.64-.28-.91-.5-.25-.21-.44-.52-.45-.85,2.37.2,4.85-.04,6.93.88-1.01-2.03-.89-4.53-1.2-6.88.33,0,.64.17.87.41.24.25.39.57.54.88,0,0,.04-.97-.46-2.37-.52-1.47-1.28-2.88-2.27-4.09-1.02-1.26-2.43-2.11-3.89-2.78-.54-.25-1.13-.55-1.71-.69,5.22,1.24,8.47-1.07,12.06-1.43-1.21-1.43-1.59-3.29-2.53-4.66.49.08.97.29,1.42.5-1.56-1.9-3.21-3.62-5.15-5.08-1.64-1.23-3.91-1.84-6-1.78-1.91.06-3.83,1.17-4.73,2.78.91-2.97-.28-4.41-.5-6.47-1.45.48-2.65.1-4.29,1.15.05-.75.42-1.46,1.01-1.92-.92.29-1.66.8-2.4,1.42-.95.79-1.86,1.82-2.42,2.93-.46.9-.91,2.04-.63,3.06.28,1.01.65,1.54,1.18,2.44.46.77.6,1.89.07,2.53-.61.56-1.74.47-2.53.05-.93-.49-1.47-.84-2.5-1.06-1.03-.23-2.15.27-3.02.77-1.08.62-2.06,1.57-2.81,2.56-.58.77-1.06,1.53-1.31,2.46.43-.61,1.13-1.02,1.87-1.1-.98,1.69-.54,2.87-.95,4.34,2.06.12,3.56,1.24,6.48.19-1.57.97-2.59,2.94-2.56,4.85.03,2.09.75,4.33,2.06,5.91,1.55,1.88,3.35,3.44,5.32,4.91Z"/>
    <path class="st0" d="M46.82,102.48c-2.35-1.14-4.45-2.79-6.2-4.78-1.74-1.98-3.13-4.32-3.96-6.88l1.37-.39c.59,2.41,1.73,4.71,3.26,6.72,1.53,2.01,3.45,3.76,5.67,5.04l-.15.28Z"/>
  </g>
  <g>
    <path class="st0" d="M129.01,77.14c-.5,0-1.02-.01-1.5-.15,1.42-.85,2.55-2.38,4.25-3.16-3.11-1.84-5.09-5.3-10.35-6.37.58.12,1.25.09,1.84.1,1.6.01,3.24-.18,4.69-.89,1.4-.69,2.69-1.65,3.77-2.76,1.04-1.07,1.4-1.96,1.41-1.96-.27.22-.54.44-.86.57-.31.13-.66.15-.96.01,1.27-2.01,2.21-4.32,3.98-5.74-2.27-.04-4.43-1.3-6.66-2.12.15-.29.45-.49.77-.58.33-.09.69-.08,1.03-.07,0,0-.84-.48-2.31-.69-1.54-.22-3.15-.2-4.68.12-1.59.32-3,1.17-4.26,2.16-.47.37-1.01.75-1.4,1.2,3.52-4.05,2.97-8.01,4.31-11.36-1.82.41-3.65-.11-5.3.09.3-.4.7-.73,1.1-1.03-2.41.51-4.69,1.17-6.89,2.22-1.85.89-3.44,2.61-4.35,4.5-.83,1.72-.73,3.94.28,5.48-2.21-2.18-4.04-1.8-5.96-2.55-.24,1.51-1.14,2.39-.96,4.34-.64-.39-1.1-1.05-1.24-1.79-.17.95-.06,1.84.15,2.79.27,1.21.75,2.49,1.48,3.5.59.82,1.39,1.75,2.42,1.97,1.03.22,1.67.14,2.71.08.89-.05,1.95.34,2.27,1.1.21.8-.39,1.76-1.13,2.26-.87.59-1.42.92-2.1,1.72-.68.81-.75,2.03-.71,3.04.05,1.24.44,2.56.97,3.68.41.87.87,1.65,1.58,2.3-.34-.66-.38-1.48-.11-2.17,1.05,1.65,2.3,1.8,3.41,2.85,1.06-1.77,2.75-2.58,3.17-5.66.14,1.84,1.41,3.66,3.12,4.51,1.87.94,4.18,1.34,6.19.91,2.38-.51,4.59-1.38,6.81-2.45Z"/>
    <path class="st0" d="M108.68,65.55c-2.1,1.55-4.54,2.66-7.1,3.29-2.56.62-5.27.78-7.93.32l.29-1.39c2.41.59,4.97.64,7.47.22,2.49-.43,4.93-1.32,7.1-2.7l.18.26Z"/>
  </g>
  <g>
    <path class="st0" d="M.22,76.87c.4.3.82.6,1.29.78-.63-1.53-.62-3.43-1.51-5.08,3.59.39,7.25-1.2,12.1,1.1-.54-.25-1.05-.67-1.53-1.03-1.29-.95-2.49-2.08-3.23-3.52-.71-1.39-1.17-2.93-1.37-4.47-.19-1.48.05-2.41.05-2.41.08.34.17.68.35.98.17.28.44.52.76.58.18-2.37.82-4.78.25-6.98,1.85,1.32,4.33,1.61,6.6,2.29.06-.32-.07-.66-.27-.92-.21-.27-.5-.48-.79-.68,0,0,.96.12,2.27.83,1.37.75,2.64,1.73,3.68,2.89,1.08,1.21,1.7,2.73,2.12,4.28.16.57.36,1.21.4,1.8-.39-5.35,2.42-8.19,3.35-11.68,1.21,1.42,2.99,2.1,4.19,3.24,0-.5-.13-1-.26-1.49,1.62,1.85,3.06,3.75,4.19,5.9.95,1.82,1.19,4.15.79,6.21-.36,1.87-1.77,3.59-3.51,4.22,3.08-.42,4.31.98,6.3,1.53-.71,1.35-.52,2.6-1.83,4.05.74.07,1.51-.18,2.06-.69-.43.86-1.06,1.51-1.79,2.14-.94.81-2.09,1.54-3.28,1.92-.96.31-2.16.57-3.12.13-.95-.44-1.42-.88-2.22-1.56-.69-.58-1.77-.9-2.48-.48-.65.52-.74,1.64-.45,2.49.34.99.59,1.59.65,2.64.06,1.05-.62,2.08-1.25,2.86-.78.97-1.88,1.78-2.98,2.36-.85.45-1.68.8-2.64.89.67-.33,1.19-.95,1.39-1.67-1.83.69-2.92.07-4.44.24.21-2.05-.66-3.71.85-6.43-1.21,1.39-3.32,2.08-5.2,1.75-2.06-.37-4.15-1.44-5.5-2.98-1.6-1.83-2.85-3.86-3.99-6.04Z"/>
    <path class="st0" d="M23.44,79.76c.75,2.5,2.04,4.85,3.72,6.88,1.68,2.04,3.76,3.78,6.16,5.01l.6-1.29c-2.28-.97-4.37-2.47-6.11-4.3-1.74-1.83-3.16-4.01-4.07-6.41l-.3.1Z"/>
  </g>
  <g>
    <path class="st0" d="M192.47,52.23c.2.15.4.29.62.38-.31-.74-.3-1.66-.73-2.45,1.73.19,3.5-.58,5.84.53-.26-.12-.51-.33-.74-.5-.62-.46-1.2-1-1.56-1.7-.34-.67-.56-1.41-.66-2.16-.09-.71.02-1.16.02-1.17.04.16.08.33.17.47.08.14.21.25.37.28.09-1.14.39-2.31.12-3.37.89.64,2.09.78,3.19,1.11.03-.16-.03-.32-.13-.45-.1-.13-.24-.23-.38-.33,0,0,.46.06,1.09.4.66.36,1.27.83,1.78,1.4.52.58.82,1.32,1.02,2.07.07.28.17.58.19.87-.19-2.59,1.17-3.96,1.62-5.64.59.69,1.45,1.01,2.02,1.57,0-.24-.06-.48-.13-.72.78.89,1.48,1.81,2.02,2.85.46.88.57,2.01.38,3-.18.9-.85,1.73-1.69,2.04,1.49-.21,2.08.47,3.04.74-.34.65-.25,1.25-.88,1.96.36.04.73-.09,1-.33-.21.42-.51.73-.86,1.03-.45.39-1.01.75-1.58.93-.46.15-1.04.27-1.51.06-.46-.21-.69-.43-1.07-.75-.33-.28-.85-.43-1.2-.23-.31.25-.36.79-.22,1.2.16.48.28.77.31,1.27.03.51-.3,1-.6,1.38-.38.47-.91.86-1.44,1.14-.41.22-.81.39-1.28.43.32-.16.57-.46.67-.81-.88.33-1.41.03-2.14.12.1-.99-.32-1.79.41-3.11-.59.67-1.6,1.01-2.51.84-.99-.18-2-.69-2.66-1.44-.77-.88-1.38-1.86-1.93-2.92Z"/>
    <path class="st0" d="M203.69,53.63c.36,1.21.99,2.34,1.8,3.33.81.98,1.82,1.83,2.98,2.42l.29-.62c-1.1-.47-2.11-1.19-2.95-2.08-.84-.89-1.52-1.94-1.96-3.1l-.15.05Z"/>
  </g>
  <g>
    <path class="st0" d="M29.33,167.57c.36-.1.72-.22,1.03-.41-1.18-.3-2.29-1.15-3.66-1.36,1.81-1.94,2.49-4.8,5.99-6.64-.39.2-.86.32-1.28.45-1.13.34-2.32.55-3.5.34-1.13-.19-2.24-.61-3.24-1.17-.96-.54-1.4-1.09-1.4-1.09.24.1.47.2.73.23.24.03.5-.03.68-.19-1.31-1.15-2.45-2.59-4-3.23,1.59-.5,2.86-1.84,4.26-2.87-.17-.18-.42-.25-.66-.25-.26,0-.5.08-.75.16,0,0,.49-.51,1.49-.97,1.04-.48,2.18-.79,3.33-.89,1.19-.1,2.36.21,3.46.65.41.16.87.32,1.24.56-3.32-2.14-3.75-5.04-5.39-7.13,1.37-.09,2.56-.83,3.76-1.03-.29-.22-.64-.37-.99-.5,1.81-.14,3.56-.15,5.32.14,1.49.24,2.97,1.13,4,2.28.94,1.04,1.33,2.63.93,3.93,1.11-2,2.48-2.1,3.68-3.03.48,1.01,1.3,1.45,1.58,2.86.37-.41.56-.97.5-1.52.32.64.42,1.29.47,2,.06.91-.02,1.91-.32,2.78-.24.7-.62,1.52-1.3,1.89-.68.37-1.15.44-1.9.62-.64.15-1.31.64-1.38,1.25.02.61.64,1.16,1.26,1.37.73.24,1.2.36,1.84.78.65.43.95,1.28,1.13,2,.23.89.22,1.9.08,2.8-.11.7-.27,1.34-.64,1.95.1-.54-.04-1.12-.37-1.56-.4,1.38-1.25,1.75-1.82,2.72-1.12-1.03-2.48-1.25-3.41-3.34.29,1.33-.24,2.88-1.27,3.83-1.13,1.05-2.68,1.81-4.18,1.92-1.79.13-3.53-.02-5.32-.32Z"/>
    <path class="st0" d="M41.29,155.18c1.8.66,3.75.94,5.7.85,1.94-.09,3.89-.54,5.67-1.41l-.49-.92c-1.58.92-3.38,1.48-5.23,1.7-1.85.22-3.76.09-5.57-.44l-.07.22Z"/>
  </g>
  <path class="st0" d="M232.13,83.2c-.12-.21-.24-.43-.31-.66.7.39,1.61.48,2.36,1,0-1.74.97-3.42.13-5.87.09.27.27.54.41.79.39.67.86,1.31,1.52,1.74.63.42,1.34.72,2.07.9.7.17,1.16.11,1.16.11-.16-.06-.32-.12-.45-.22-.13-.1-.23-.24-.24-.4,1.15.04,2.34-.13,3.36.26-.54-.96-.54-2.16-.74-3.29.16,0,.31.07.43.18.12.12.2.27.28.41,0,0,0-.47-.28-1.13-.29-.7-.69-1.36-1.19-1.92-.52-.58-1.22-.96-1.94-1.25-.27-.11-.56-.24-.84-.29,2.55.47,4.06-.72,5.79-.98-.62-.66-.85-1.55-1.33-2.19.24.03.47.11.7.21-.8-.88-1.63-1.67-2.61-2.33-.82-.55-1.93-.79-2.94-.71-.92.07-1.82.66-2.21,1.46.37-1.45-.24-2.12-.4-3.11-.69.27-1.27.11-2.04.66,0-.36.17-.72.44-.95-.44.16-.78.43-1.12.74-.44.41-.85.92-1.1,1.47-.2.44-.39,1.01-.23,1.49.16.48.35.73.63,1.15.24.36.34.9.1,1.22-.28.28-.83.27-1.22.08-.46-.22-.73-.37-1.23-.45-.5-.09-1.03.18-1.44.45-.51.32-.96.81-1.29,1.3-.26.38-.48.76-.57,1.22.19-.3.52-.52.88-.58-.43.84-.19,1.4-.35,2.12,1,.01,1.75.51,3.13-.06-.73.51-1.18,1.48-1.12,2.4.07,1.01.47,2.07,1.13,2.8.79.87,1.7,1.58,2.68,2.24Z"/>
  <path class="st0" d="M47.6,72.95c1-2.01,2.62-3.73,4.5-4.99,1.89-1.27,3.99-2.13,6.13-2.73,2.15-.59,4.34-.9,6.5-1.09,2.17-.19,4.32-.26,6.47-.29,4.29-.04,8.53.12,12.7,0,2.07-.07,4.09-.26,5.96-.81.46-.15.94-.29,1.34-.5l.63-.29c.2-.11.39-.25.59-.36.79-.48,1.46-1.14,2.06-1.85,1.14-1.47,1.97-3.25,2.14-5.14l.06-.7-.02-.7c.02-.47-.1-.93-.16-1.39-.22-.9-.51-1.81-1.01-2.59-.13-.2-.23-.41-.37-.59l-.44-.55-.22-.28-.25-.23c-.17-.14-.31-.33-.5-.45-.7-.57-1.54-.91-2.43-1.08-1.77-.34-3.75.13-5.26,1.25-1.51,1.1-2.65,2.79-2.81,4.64-.19,1.84.57,3.84,2.17,4.73,1.56.93,3.89.82,5.03-.62,1.15-1.39,1.02-3.94-.56-4.97h0c-.19-.13-.24-.38-.12-.57.12-.18.37-.24.55-.12,1.04.64,1.63,1.8,1.76,2.94.14,1.15-.15,2.36-.86,3.3-.72.96-1.86,1.51-3,1.65-1.14.14-2.32-.08-3.33-.63-1.02-.54-1.84-1.45-2.31-2.49-.48-1.04-.67-2.19-.59-3.31.14-2.29,1.47-4.35,3.25-5.67,1.78-1.35,4.11-1.98,6.35-1.6,1.11.19,2.2.62,3.09,1.32.24.15.43.37.64.55.22.18.41.39.58.61l.53.64c.17.22.3.47.46.7.61.93.99,2,1.26,3.07.08.55.22,1.09.22,1.65.01.28.03.55.03.83l-.06.83c-.17,2.21-1.09,4.33-2.44,6.08-1.36,1.75-3.37,3-5.46,3.62-2.1.64-4.27.85-6.41.93-4.27.16-8.51.03-12.74.1-4.21.09-8.46.32-12.5,1.35-2.01.52-3.98,1.26-5.74,2.31-1.77,1.04-3.32,2.43-4.44,4.12-.17.26-.52.33-.78.16-.24-.16-.32-.47-.19-.72l.03-.06Z"/>
  <path class="st0" d="M175.11,73.03c-.05.75-.33,1.49-.75,2.12-.42.63-.96,1.17-1.55,1.63-.59.46-1.23.83-1.87,1.17-.65.34-1.3.64-1.96.92-1.32.56-2.65,1.06-3.93,1.63-.63.29-1.23.6-1.74,1.01-.12.1-.26.21-.35.33l-.16.17c-.05.06-.09.13-.13.19-.18.25-.31.54-.4.84-.17.6-.19,1.26,0,1.86l.07.23.1.22c.06.15.15.27.23.41.18.25.39.49.65.67.06.04.12.1.19.14l.21.11.1.06.11.04c.07.02.14.06.21.07.29.09.59.09.89.02.59-.12,1.14-.52,1.47-1.06.33-.53.46-1.2.28-1.8-.18-.59-.67-1.12-1.28-1.19-.6-.09-1.31.24-1.48.83-.18.58.19,1.35.81,1.47h0c.07.01.12.09.11.16-.01.07-.08.12-.16.11-.4-.07-.74-.35-.92-.69-.19-.34-.26-.75-.16-1.13.1-.39.38-.71.72-.89.34-.19.73-.27,1.11-.23.39.04.76.21,1.03.47.28.26.49.59.61.95.25.72.1,1.53-.28,2.17-.38.65-1.02,1.14-1.76,1.31-.37.08-.76.09-1.13-.01-.09-.01-.18-.06-.27-.09-.09-.03-.18-.07-.26-.11l-.25-.13c-.08-.05-.15-.11-.23-.16-.31-.21-.56-.49-.78-.79-.09-.16-.21-.31-.28-.48-.04-.08-.08-.17-.12-.25l-.09-.26c-.23-.71-.22-1.48-.02-2.19.2-.72.66-1.36,1.23-1.82.57-.47,1.21-.81,1.86-1.11,1.3-.6,2.63-1.1,3.93-1.66,1.29-.57,2.58-1.18,3.7-2.02.56-.42,1.07-.9,1.48-1.45.42-.55.71-1.18.85-1.84.02-.1.12-.17.22-.15.09.02.16.1.15.2v.02Z"/>
  <path class="st0" d="M31.94,87.8c-.08,1.17-.52,2.34-1.18,3.33-.66.99-1.51,1.84-2.43,2.56-.92.72-1.92,1.31-2.93,1.83-1.01.53-2.05,1-3.08,1.44-2.07.88-4.16,1.66-6.16,2.56-.99.45-1.93.95-2.73,1.59-.19.16-.4.33-.55.51l-.25.27c-.08.09-.14.2-.21.29-.29.39-.48.85-.63,1.31-.26.94-.3,1.97,0,2.92l.11.35.15.34c.09.23.24.43.36.65.29.39.61.77,1.01,1.05.1.07.19.15.3.21l.32.18.16.09.17.06c.11.04.22.1.33.11.45.14.93.13,1.4.04.93-.19,1.79-.82,2.3-1.66.51-.84.72-1.88.43-2.82-.28-.93-1.05-1.75-2-1.86-.94-.14-2.05.38-2.32,1.31-.28.9.3,2.12,1.27,2.3h0c.12.02.19.13.17.25-.02.11-.13.19-.24.17-.63-.1-1.15-.55-1.45-1.08-.3-.53-.4-1.17-.25-1.78.16-.61.6-1.11,1.12-1.4.53-.3,1.14-.43,1.74-.36.6.06,1.18.33,1.62.74.44.41.76.93.95,1.49.39,1.14.16,2.4-.44,3.41-.59,1.01-1.6,1.79-2.76,2.05-.58.13-1.19.14-1.77-.02-.15-.02-.28-.09-.42-.14-.14-.04-.28-.11-.4-.18l-.39-.2c-.13-.07-.24-.17-.36-.25-.49-.33-.88-.77-1.23-1.24-.15-.25-.33-.49-.44-.76-.06-.13-.13-.26-.18-.4l-.14-.41c-.36-1.11-.34-2.32-.04-3.44.31-1.12,1.03-2.13,1.92-2.85.89-.73,1.9-1.27,2.92-1.74,2.04-.93,4.13-1.72,6.16-2.61,2.03-.89,4.04-1.85,5.8-3.17.87-.66,1.68-1.41,2.32-2.27.65-.86,1.12-1.85,1.33-2.89.03-.16.19-.26.35-.23.15.03.25.16.24.31v.03Z"/>
  <path class="st0" d="M207.9,58.79c.69.6,1.58.98,2.49,1.16.92.18,1.86.17,2.77.05.91-.12,1.8-.35,2.65-.62.86-.27,1.69-.59,2.52-.92,1.64-.66,3.24-1.39,4.85-2,.8-.3,1.6-.55,2.4-.64.2-.02.41-.04.59-.03h.28c.09.02.19.04.28.05.38.06.73.2,1.07.37.66.37,1.26.91,1.61,1.59l.13.25.1.27c.08.17.1.36.16.55.06.37.09.76.02,1.13-.02.09-.02.19-.05.28l-.08.28-.04.14-.06.13c-.04.08-.07.17-.12.25-.18.32-.45.59-.76.79-.63.41-1.45.54-2.2.36-.75-.17-1.44-.63-1.79-1.3-.36-.66-.38-1.53.09-2.12.45-.6,1.36-.92,2.02-.56.65.34,1,1.32.56,1.95h0c-.05.08-.03.18.04.23.07.05.18.03.23-.04.3-.41.34-.93.22-1.38-.13-.45-.42-.86-.84-1.1-.42-.25-.94-.27-1.4-.14-.46.13-.87.4-1.17.76-.31.37-.48.84-.5,1.3-.02.47.08.93.29,1.34.41.84,1.24,1.4,2.12,1.61.89.23,1.88.09,2.67-.4.39-.25.74-.58.98-.98.07-.09.11-.21.16-.31.06-.1.1-.21.13-.32l.1-.32c.03-.11.04-.22.07-.33.09-.45.07-.91,0-1.35-.05-.22-.08-.44-.17-.65-.04-.11-.08-.21-.12-.32l-.15-.3c-.41-.8-1.09-1.45-1.88-1.89-.79-.44-1.75-.59-2.65-.5-.9.09-1.76.36-2.59.66-1.66.62-3.26,1.34-4.88,1.98-1.62.63-3.28,1.22-4.99,1.47-.85.12-1.71.16-2.55.04-.84-.11-1.64-.39-2.34-.84-.11-.07-.25-.04-.32.06-.07.1-.05.23.04.3l.02.02Z"/>
</svg>