<?xml version="1.0" encoding="UTF-8"?>
<svg id="Layer_1" xmlns="http://www.w3.org/2000/svg" version="1.1" viewBox="0 0 359.97 465.01">
  <!-- Generator: Adobe Illustrator 30.5.1, SVG Export Plug-In . SVG Version: 2.1.4 Build 3)  -->
  <defs>
    <style>
      .st0 {
        fill: #f1d380;
      }
    </style>
  </defs>
  <path class="st0" d="M55.81,170.97h0c-.34-.18-.19-.09,0,0Z"/>
  <path class="st0" d="M55.65,171.53v.02s.02-.06,0-.02Z"/>
  <path class="st0" d="M359.96,302.94l-.06-2.87c0-.96-.11-1.91-.18-2.87l-.23-2.87-.41-2.86c-.15-.95-.25-1.91-.46-2.86-.18-.95-.37-1.9-.6-2.84-.21-.95-.45-1.88-.71-2.82-1.01-3.74-2.32-7.4-3.94-10.93-1.61-3.54-3.49-6.96-5.67-10.21-2.16-3.25-4.69-6.34-7.41-9.13-2.69-2.78-5.5-5.28-8.17-7.71-5.34-4.83-10.13-9.53-12.78-15.08-1.32-2.76-2.24-5.74-2.64-8.82-.44-3.07-.34-6.25.08-9.48.84-6.48,3.16-13.09,5.55-19.95,1.19-3.43,2.43-6.95,3.51-10.62.54-1.83,1.04-3.71,1.48-5.62l.58-2.85c.2-.95.32-1.92.48-2.88.58-3.85.9-7.76.9-11.7s-.38-7.88-1.08-11.78c-.71-3.89-1.75-7.74-3.17-11.45-1.44-3.7-3.21-7.25-5.27-10.61-.53-.83-1.04-1.68-1.59-2.48l-1.65-2.37c-.55-.79-1.15-1.53-1.72-2.3l-.87-1.14-.9-1.1c-2.37-2.97-4.86-5.76-7.36-8.49-5-5.45-10.06-10.59-14.6-15.99-2.27-2.69-4.44-5.44-6.36-8.3l-.73-1.07c-.24-.36-.46-.73-.68-1.09-.45-.74-.91-1.44-1.36-2.2-.88-1.56-1.79-3.09-2.65-4.67-3.5-6.28-6.79-12.78-10.44-19.23-3.66-6.43-7.67-12.85-12.61-18.64l-1.86-2.16-1.98-2.06-.99-1.03c-.33-.35-.69-.65-1.04-.98l-2.1-1.94c-.34-.33-.71-.64-1.08-.93l-1.11-.9c-.74-.6-1.47-1.22-2.23-1.79l-2.33-1.66c-.78-.55-1.54-1.12-2.35-1.6-6.3-4.08-12.99-7.52-19.94-10.28-13.88-5.58-28.66-8.4-43.42-9.38-14.78-.92-29.6,0-44.15,2.37-3.64.59-7.27,1.28-10.85,2.03l-5.41,1.21-5.37,1.37c-.57.16-1.14.32-1.71.48-1.51.2-2.99.52-4.42.97-1.38.44-2.7.99-3.98,1.63-3.67,1.24-7.3,2.59-10.88,4.06-3.41,1.43-6.8,2.93-10.13,4.56-3.32,1.64-6.6,3.39-9.81,5.29-6.43,3.87-12.38,8.2-18.19,12.8-5.78,4.62-11.32,9.53-16.55,14.79-2.62,2.63-5.14,5.36-7.6,8.15-2.42,2.83-4.8,5.69-7.01,8.71-4.47,5.98-8.43,12.41-11.66,19.24-3.27,6.81-5.64,14.13-6.99,21.67-.08.47-.19.94-.25,1.41l-.18,1.43-.36,2.86-.18,2.88c-.05.96-.14,1.92-.12,2.88-.08,3.84.17,7.74.86,11.62.69,3.87,1.82,7.74,3.48,11.36,1.65,3.62,3.74,7.03,5.99,10.09,2.24,3.09,4.57,5.91,6.53,8.69.98,1.39,1.84,2.78,2.59,4.17.73,1.4,1.29,2.82,1.74,4.26.8,2.91,1.05,5.97.71,9.18-.34,3.2-1.1,6.48-2.19,9.7-2.14,6.47-5.39,12.76-8.69,19.31-1.65,3.27-3.29,6.62-4.79,10.11-1.49,3.49-2.82,7.15-3.81,10.96-.53,1.91-.85,3.83-1.22,5.75l-.39,2.93-.09.73-.05.74-.1,1.48c-.22,3.96-.04,7.99.68,11.96.75,3.97,2.03,7.86,3.8,11.49,1.77,3.63,4,7.03,6.6,10.05s5.49,5.71,8.56,8.14c3.15,2.43,6.34,4.39,9.36,6.34,3.02,1.94,5.91,3.86,8.38,5.99s4.48,4.47,5.74,7.07c.62,1.31,1.05,2.68,1.3,4.12.16.73.14,1.43.22,2.14.02.36-.02.72-.02,1.09s0,.73-.07,1.1l-.14,1.12c-.05.37-.16.76-.23,1.13-.13.76-.4,1.53-.61,2.29-.11.38-.27.77-.4,1.16-.15.39-.26.77-.43,1.16-.32.78-.62,1.56-.99,2.35-1.4,3.15-3.13,6.31-4.77,9.7-.83,1.68-1.61,3.46-2.32,5.3l-.5,1.42-.43,1.26c-.3.87-.6,1.78-.88,2.68-2.26,7.25-3.61,14.91-3.16,22.68.22,3.88.94,7.77,2.23,11.49.65,1.86,1.46,3.66,2.39,5.4.98,1.71,2.01,3.4,3.25,4.92,2.4,3.1,5.26,5.74,8.26,8.04,3,2.31,6.16,4.29,9.2,6.24,3.03,1.96,6.01,3.91,8.19,6.3.54.6,1.01,1.22,1.42,1.87.38.66.72,1.33.94,2.04.44,1.41.53,2.96.32,4.54-.21,1.58-.69,3.16-1.41,4.63-.71,1.47-1.63,2.85-2.74,3.99-1.1,1.14-2.4,2.03-3.74,2.43-.34.06-.65.14-1.02.19-.39,0-.77.08-1.16.04-.38-.02-.77-.02-1.15-.09-.19-.03-.38-.05-.57-.09l-.56-.14c-1.5-.37-2.89-1.17-4.08-2.17-1.16-1.03-2.11-2.33-2.54-3.69-.07-.17-.08-.33-.13-.5-.2-.46.37.68-.47-1.1-1.72-1.35-3.03.18-2.73-.02-.38.37-.71.72-1.03,1.09-.65.73-1.23,1.5-1.8,2.28-1.11,1.58-2.09,3.26-2.85,5.04-1.55,3.54-2.37,7.49-2.09,11.4.18,3.91,1.44,7.72,3.34,11.07.96,1.68,2.08,3.25,3.32,4.71,1.26,1.45,2.63,2.82,4.17,3.98,3.02,2.4,6.52,4.16,10.16,5.29,3.65,1.14,7.43,1.69,11.19,1.84,3.76.13,7.51-.13,11.2-.63,3.68-.51,7.32-1.27,10.91-2.18,1.8-.45,3.57-.98,5.35-1.52,1.76-.58,3.52-1.15,5.26-1.8,6.96-2.54,13.66-5.79,20.02-9.6,3.17-1.93,6.26-4,9.24-6.23,2.99-2.21,5.86-4.65,8.54-7.26,2.68-2.61,5.21-5.39,7.54-8.32,2.31-2.95,4.44-6.05,6.36-9.28,3.87-6.45,6.75-13.52,8.49-20.91,1.68-7.4,2.13-15.16.92-22.75-.3-1.9-.69-3.77-1.21-5.65-.24-.95-.57-1.87-.87-2.8-.34-.91-.67-1.83-1.06-2.71-.75-1.79-1.62-3.51-2.55-5.17-.93-1.66-1.91-3.27-2.92-4.83-2.02-3.12-4.08-6.1-5.98-9.1-.25-.38-.45-.73-.67-1.09-.22-.35-.41-.72-.62-1.08-.4-.73-.76-1.47-1.1-2.23-.68-1.52-1.24-3.11-1.73-4.75-.48-1.64-.86-3.34-1.22-5.07-.18-.86-.34-1.74-.49-2.62l-.23-1.33-.11-.67c-.02-.15-.02-.06-.03-.18l-.03-.27-.17-2.69c-.06-.93-.13-1.86-.22-2.81-.1-.95-.21-1.91-.41-2.93-.06-.3-.13-.6-.21-.92.96-.13,1.54-.22,1.54-.22,9.29-3.93,49.69-22.88,59.07-42.53,2.98-6.24,7.35-18.09,3.4-10.25-12.81,25.54-39.9,40.01-66.7,49.69l-.28-.1-.63.2-10.87,3.45c-.92.27-1.83.55-2.76.89-.41.14-1.08.4-1.4.54-.39.17-.78.3-1.19.43-1.63.5-3.4.77-5.17.91-1.78.12-3.58.11-5.36-.1-.89-.1-1.77-.24-2.64-.43-.44-.08-.83-.23-1.25-.34l-.62-.17c-.2-.07-.39-.16-.59-.24-.39-.18-.8-.3-1.17-.52l-1.12-.62c-.71-.49-1.42-.97-2.05-1.57-1.29-1.16-2.46-2.5-3.45-4.01-2.02-2.99-3.55-6.38-5.02-9.83-1.45-3.46-2.96-7.01-4.58-10.44-3.24-6.9-6.79-13.61-10.22-20.33-3.44-6.73-6.8-13.47-9.57-20.44-2.78-6.95-4.98-14.13-6.07-21.47-.52-3.68-.84-7.36-.75-11.08.05-2.61.21-5.25.38-7.9,5.22.62,10.87-2.04,16.54-4.31,2.41-.96,4.26-2.13,6.04-.07.22.25.57-.26.51-.59-.57-3.22-4.13-2.28-6.22-2.06-3.22.33-6.42.5-9.59.5-1.7,0-3.46-.06-4.94-.85-.68-.37-1.32-.88-1.94-1.43.03-2.03-.02-4.07-.21-6.12-.35-3.85-1.2-7.74-2.85-11.33-.05-.13-.09-.26-.13-.39,3.03.41,4.9.87,8.48,1.29,3.52.42,8.75,1.8,9.84-.06,1.16-1.98-1.7-6.93-5.59-9.35-.9-.56-1.02-.47-8.84-2.65-1.64-.46-2.77-.78-3.59-.98l.46-1.29c.81-2.4,1.52-4.85,2.12-7.31.59-2.47,1.06-4.96,1.49-7.43.42-2.47.81-4.93,1.27-7.35.45-2.43,1-4.83,1.61-7.21,1.24-4.78,2.84-9.4,5.05-13.77,4.39-8.76,10.86-16.41,18.28-22.9,3.72-3.24,7.69-6.21,11.8-8.96,3.67-2.43,7.56-4.61,11.49-6.64.18,1.04.44,2.03.75,3,.47,1.46,1.01,2.89,1.61,4.28,1.19,2.79,2.57,5.47,4.02,8.11,2.9,5.27,6.19,10.31,9.71,15.19,3.53,4.87,7.35,9.54,11.57,13.88,2.11,2.17,4.33,4.25,6.69,6.19,2.39,1.95,4.84,3.68,7.37,5.36.63.42,1.27.83,1.91,1.23.67.4,1.33.81,2,1.19,1.35.75,2.73,1.46,4.13,2.09,2.79,1.28,5.65,2.35,8.49,3.33,5.69,1.96,11.28,3.69,16.45,6.26,10.42,5.09,19.84,12.34,27.35,21.12,3.71,4.41,6.97,9.23,9.36,14.38,2.34,5.14,3.74,10.71,4.02,16.33.06,1.4.08,2.81,0,4.21-.02.7-.1,1.4-.15,2.1-.08.69-.16,1.38-.27,2.07-.44,2.76-1.18,5.5-2.08,8.25-.89,2.75-1.94,5.51-2.97,8.33-.51,1.41-1.03,2.83-1.51,4.28-.25.72-.47,1.46-.71,2.19l-.66,2.14c-1.74,5.69-3.54,11.45-4.86,17.43-1.32,5.97-2.15,12.19-1.81,18.51.17,3.15.65,6.37,1.62,9.49.46,1.57,1.09,3.08,1.77,4.57.37.72.73,1.46,1.13,2.16.42.69.8,1.41,1.26,2.06,1.75,2.69,3.75,5.11,5.78,7.4,1.02,1.14,2.05,2.25,3.09,3.35,1.06,1.11,2.19,2.24,3.32,3.28,4.55,4.2,9.36,7.72,13.43,11.67,1.01.98,2.02,2,2.87,3.03l.65.77c.21.26.4.54.6.81l.6.81.55.85c1.45,2.27,2.62,4.76,3.5,7.37,1.75,5.24,2.5,10.9,2.56,16.61s-.53,11.47-1.57,17.16l-.42,2.14c-.14.75-.3,1.41-.45,2.1-.31,1.37-.69,2.74-1.1,4.12-.82,2.76-1.79,5.53-2.76,8.36-.97,2.84-1.94,5.74-2.72,8.77-.78,3.02-1.36,6.18-1.55,9.41-.04.81-.04,1.62-.06,2.43,0,.8.05,1.59.08,2.39.1,1.59.24,3.17.49,4.74.47,3.14,1.24,6.24,2.3,9.24s2.42,5.91,4.09,8.65c1.68,2.73,3.66,5.3,5.94,7.59s4.9,4.29,7.56,5.94c2.68,1.67,5.5,3.09,8.37,4.3,5.75,2.42,11.7,3.98,17.58,5.3,1.47.33,2.94.64,4.41.95l2.27.44c.76.12,1.52.26,2.28.37,3.05.45,6.13.74,9.23.81,6.19.15,12.48-.56,18.47-2.47l1.12-.36,1.1-.41c.73-.27,1.48-.55,2.2-.88,1.44-.63,2.84-1.34,4.2-2.1,2.72-1.53,5.32-3.31,7.7-5.38s4.55-4.44,6.29-7.15c.87-1.35,1.64-2.77,2.28-4.26.63-1.49,1.12-3.04,1.47-4.62.7-3.16.79-6.43.32-9.6-.46-3.17-1.46-6.21-2.8-9.05-1.36-2.83-3.06-5.47-5.03-7.88-.99-1.21-2.05-2.35-3.22-3.43-.58-.54-1.19-1.06-1.87-1.55-.34-.25-.69-.49-1.11-.72-.21-.12-.44-.23-.74-.35-.15-.06-.33-.12-.57-.16-.16-.02-.25-.04-.49-.03-.17,0-.5.05-.8.19-.89.47-1.04,1.24-1.09,1.49-.06.32-.05.51-.05.68,0,.33.03.57.05.81.04.46.07.87.09,1.28.03.81-.02,1.58-.17,2.33-.15.75-.38,1.48-.71,2.1-.33.64-.76,1.21-1.25,1.66s-1.04.77-1.59.93c-.54.14-1.13.14-1.67-.01-1.09-.29-2.17-1.29-2.95-2.56-.39-.63-.72-1.33-.98-2.05-.12-.36-.23-.73-.31-1.09-.09-.39-.16-.83-.24-1.24-.29-1.67-.42-3.35-.39-5.03.05-3.36.81-6.69,2.01-9.91,2.42-6.46,6.49-12.4,10.29-18.72.95-1.58,1.89-3.2,2.78-4.86.89-1.66,1.7-3.29,2.55-4.93,1.63-3.32,3.22-6.66,4.68-10.07,2.93-6.82,5.45-13.85,7.35-21.12,1.86-7.27,3.06-14.79,3.29-22.42l.05-1.43c.02-.48-.01-.96-.01-1.43h0ZM46.41,420.81s.06-.06.09-.09c.17-.13.12-.03-.09.09ZM56.08,171.09s-.13-.05-.23-.1h0c.06.02.14.06.22.1h0ZM351.85,305.72c.05,6.94-.77,13.93-2.25,20.84-1.52,6.9-3.66,13.71-6.22,20.38-1.27,3.34-2.69,6.64-4.15,9.92-.76,1.62-1.51,3.28-2.28,4.87-.77,1.58-1.61,3.15-2.48,4.72-1.73,3.14-3.6,6.29-5.35,9.57s-3.4,6.7-4.61,10.35c-1.22,3.64-1.96,7.55-1.9,11.48.02,1.96.24,3.92.63,5.83.11.48.2.94.33,1.44.13.52.3,1.02.48,1.52.38.99.86,1.93,1.46,2.83.6.89,1.32,1.74,2.2,2.47s1.96,1.34,3.18,1.64c1.22.3,2.53.26,3.73-.12s2.22-1.07,3.04-1.87c.82-.81,1.46-1.74,1.93-2.74.24-.49.44-1.03.59-1.54s.27-1.03.35-1.55c.15-.93.19-1.88.14-2.79.27.23.53.47.79.72,1,.97,1.95,2.03,2.83,3.14,1.76,2.23,3.26,4.67,4.42,7.23,1.16,2.57,1.98,5.27,2.31,8.01.34,2.74.2,5.51-.46,8.16-1.25,5.33-4.65,9.97-8.97,13.52-2.16,1.79-4.54,3.34-7.04,4.67-1.25.66-2.54,1.27-3.84,1.8-.64.27-1.3.5-1.97.73l-1,.35-1.01.3c-2.33.68-4.73,1.16-7.15,1.47-3.53.19-7.06,0-10.51-.63-2.59-.47-5.13-1.2-7.57-2.16s-4.82-2.04-7.06-3.39c-4.5-2.66-8.45-6.2-11.68-10.29-3.23-4.1-5.76-8.76-7.45-13.69-.85-2.46-1.48-5-1.87-7.55-.2-1.28-.33-2.56-.38-3.84-.01-1.29.03-2.56.13-3.82.24-2.52.78-4.98,1.58-7.45.77-2.47,1.8-4.96,2.71-7.55,1.76-5.13,3.58-10.24,5.32-15.44,1.74-5.19,3.39-10.44,4.76-15.81s2.47-10.85,3.02-16.45.55-11.33-.36-17.01c-.9-5.67-2.75-11.26-5.55-16.33-1.39-2.54-3.02-4.94-4.81-7.2-1.8-2.24-3.76-4.4-5.96-6.31-2.18-1.93-4.57-3.61-6.89-5.12-2.33-1.52-4.56-2.9-6.55-4.43s-3.76-3.24-5.34-5.16c-.79-.95-1.55-1.98-2.22-3.02-.7-1.02-1.28-2.1-1.83-3.18-1.07-2.19-1.82-4.51-2.3-6.93-.47-2.42-.66-4.94-.66-7.5s.18-5.16.48-7.77c.28-2.62.69-5.23,1.15-7.85.93-5.23,2.2-10.44,3.53-15.69s2.73-10.54,3.88-15.96c1.15-5.42,2.06-10.98,2.23-16.69.18-5.69-.42-11.52-2.09-17.06-1.66-5.54-4.18-10.72-7.37-15.47-3.19-4.74-7.04-8.98-11.28-12.7-4.24-3.73-8.9-6.92-13.77-9.66-4.87-2.75-9.95-5.05-15.14-7-2.58-.98-5.24-1.86-7.85-2.67-2.6-.82-5.22-1.61-7.83-2.39-5.22-1.57-10.48-3-15.7-4.49s-10.42-2.97-15.45-4.8c-5.02-1.83-9.86-4.05-14.26-6.99-2.2-1.46-4.29-3.11-6.27-4.89-1.99-1.78-3.83-3.7-5.68-5.69-3.68-3.96-7.29-7.99-10.33-12.44-1.51-2.23-2.88-4.55-4.13-6.96-1.25-2.41-2.39-4.88-3.55-7.34,1.91,5.08,3.8,10.23,6.64,14.95,1.4,2.37,2.95,4.63,4.58,6.84.81,1.11,1.66,2.18,2.5,3.26.86,1.06,1.72,2.13,2.61,3.17,3.48,4.21,7.42,8.22,11.95,11.49,2.26,1.64,4.64,3.11,7.11,4.41,2.47,1.29,5.01,2.42,7.57,3.45,5.14,2.04,10.35,3.71,15.54,5.37l15.53,4.93c2.58.83,5.15,1.67,7.72,2.54,2.56.86,5.06,1.75,7.53,2.75,4.94,1.98,9.74,4.29,14.28,7,4.54,2.7,8.83,5.78,12.72,9.27,3.88,3.5,7.34,7.42,10.17,11.75,2.82,4.31,5.04,9.05,6.43,13.95,1.42,4.9,1.84,10.03,1.66,15.2s-1.04,10.38-2.17,15.59c-1.13,5.21-2.54,10.43-3.9,15.71-1.36,5.28-2.69,10.64-3.7,16.11-1,5.47-1.75,11.02-1.73,16.78.02,2.87.24,5.8.82,8.71.59,2.91,1.54,5.79,2.87,8.49.69,1.33,1.41,2.65,2.25,3.87.82,1.24,1.68,2.39,2.63,3.53,1.87,2.27,4.05,4.35,6.38,6.12,2.33,1.78,4.74,3.24,6.97,4.68,2.24,1.44,4.31,2.9,6.22,4.56,3.81,3.28,7.08,7.37,9.55,11.79,2.48,4.43,4.14,9.31,4.97,14.37.84,5.06.89,10.29.41,15.51s-1.49,10.44-2.78,15.61c-1.29,5.18-2.86,10.31-4.55,15.44-1.68,5.13-3.49,10.26-5.2,15.44-.82,2.56-1.66,5.18-2.36,7.94-.71,2.75-1.18,5.66-1.26,8.57-.03,1.45,0,2.9.16,4.33.12,1.43.27,2.85.52,4.26.49,2.81,1.22,5.56,2.2,8.22,1.93,5.32,4.76,10.3,8.34,14.68,3.58,4.37,7.94,8.12,12.86,10.91.9.52,1.83,1,2.76,1.45-.9-.21-1.8-.41-2.69-.63-5.72-1.38-11.3-2.99-16.52-5.26-2.61-1.13-5.11-2.44-7.47-3.94-2.39-1.52-4.5-3.18-6.41-5.14-1.91-1.94-3.59-4.13-5.02-6.48-1.42-2.36-2.58-4.88-3.49-7.5s-1.57-5.33-1.98-8.08c-.21-1.37-.34-2.76-.42-4.15-.02-.69-.06-1.39-.06-2.08.02-.68.02-1.36.06-2.04.31-5.45,2.03-10.9,3.95-16.49.96-2.8,1.97-5.65,2.85-8.61.44-1.48.85-2.98,1.2-4.51.17-.77.35-1.55.49-2.27l.43-2.25c1.1-6.03,1.73-12.18,1.65-18.39-.08-6.2-.88-12.5-2.95-18.56-1.04-3.02-2.43-5.97-4.19-8.71l-.67-1.02-.73-.99c-.25-.33-.48-.66-.74-.98l-.79-.94c-1.06-1.26-2.15-2.35-3.28-3.44-4.51-4.33-9.38-7.84-13.61-11.71-1.07-.97-2.05-1.94-3.06-2.98-1.02-1.06-2.02-2.12-2.99-3.2-1.94-2.15-3.75-4.33-5.27-6.63-.4-.57-.72-1.16-1.08-1.74-.34-.59-.64-1.19-.96-1.79-.57-1.22-1.1-2.46-1.49-3.75-.82-2.56-1.27-5.28-1.44-8.07-.36-5.59.33-11.31,1.52-16.97,1.19-5.67,2.89-11.32,4.58-17.04l.63-2.14c.21-.69.41-1.38.64-2.07.44-1.38.93-2.77,1.42-4.16.99-2.79,2.03-5.61,2.95-8.54.92-2.92,1.71-5.95,2.18-9.09.12-.78.2-1.58.28-2.36.06-.79.13-1.57.15-2.36.07-1.58.03-3.15-.05-4.72-.38-6.29-2-12.46-4.66-18.13-2.7-5.64-6.24-10.73-10.24-15.39-8.09-9.23-18.02-16.73-29.09-21.95-5.56-2.68-11.44-4.34-17.04-6.16-2.8-.92-5.57-1.87-8.22-3-1.33-.56-2.62-1.19-3.89-1.85-.63-.34-1.25-.7-1.87-1.05-.63-.37-1.25-.76-1.87-1.14-2.48-1.55-4.94-3.2-7.21-4.97-2.29-1.78-4.47-3.73-6.57-5.78-4.19-4.11-8.05-8.58-11.63-13.28s-6.87-9.62-9.81-14.73c-1.45-2.56-2.83-5.17-4-7.85-.6-1.34-1.12-2.69-1.58-4.06-.45-1.36-.81-2.76-.89-4.07l-.11-1.69-1.48.76c-4.49,2.3-8.86,4.75-13.08,7.54-4.19,2.79-8.21,5.82-12.04,9.1-7.61,6.58-14.37,14.37-19.06,23.42-2.36,4.5-4.1,9.35-5.42,14.21-.66,2.44-1.24,4.9-1.73,7.38-.49,2.47-.9,4.94-1.35,7.38-.44,2.44-.92,4.85-1.51,7.23-.6,2.38-1.31,4.72-2.1,7.05l-.62,1.73-.27.74s.02,0,.04.02h0s-.02,0-.04-.01l-.04.11-.04.11-.02.05v.03l.33.18c-.12.22-.22.46-.3.73-.17-.4-.12-.58-.09-.64v-.05h0l-.02.06-.13.4c-.19.58-.41,1.12-.61,1.9-.18.73-.26,1.46-.27,2.18-.02,1.44.22,2.77.47,4.02.24,1.24.58,2.58,1.03,3.81l.02.06.03.06c1.5,3.26,2.3,6.83,2.63,10.47.27,2.91.24,5.87.11,8.85-.24.3-.55.61-.96.93-.76.59-1.56.87-2.35,1.15-.25.09,1.57,2.36,1.83,2.5.4.21.8.39,1.2.55-.18,2.82-.36,5.67-.42,8.55-.09,3.85.23,7.74.78,11.55,1.13,7.64,3.41,15.03,6.24,22.13,2.83,7.11,6.22,13.94,9.66,20.69,3.45,6.75,6.96,13.44,10.13,20.26,1.6,3.41,3.04,6.84,4.5,10.36,1.48,3.5,3.05,7.06,5.26,10.37,1.08,1.66,2.41,3.21,3.92,4.59.74.71,1.59,1.3,2.44,1.9l1.35.78c.45.27.94.44,1.41.66.24.1.47.21.72.31l.74.24c.49.15.99.33,1.48.44.98.24,1.96.42,2.95.56,1.98.29,3.97.37,5.97.3,2-.09,4-.33,6.01-.89.5-.14,1.02-.3,1.5-.49.56-.22.78-.29,1.26-.45l2.65-.84c1.79-.56,3.62-1.01,5.44-1.5,1.23-.33,2.48-.65,3.72-.96,0,.1.03.19.04.29.1.78.15,1.64.18,2.5.03.87.03,1.75.03,2.65v3.18c0,.1.03.42.04.5l.07.69.15,1.38c.11.92.22,1.85.35,2.78.26,1.86.61,3.74,1.07,5.62s1.06,3.75,1.82,5.58c.75,1.81,1.71,3.62,2.74,5.24,1.98,3.16,4.1,6.15,6.04,9.15,1.94,2.99,3.72,5.99,5.06,9.11.36.78.64,1.57.95,2.36.26.8.55,1.6.77,2.42.47,1.62.84,3.32,1.12,5.02,1.15,6.8.86,13.85-.6,20.66-.75,3.41-1.79,6.76-3.06,10.03-.34.81-.62,1.64-1,2.44l-1.08,2.4-1.19,2.36c-.39.79-.85,1.54-1.27,2.32-1.75,3.06-3.7,6.01-5.83,8.83-2.15,2.81-4.48,5.48-6.97,8-2.49,2.53-5.13,4.87-7.95,7.05-2.81,2.19-5.74,4.24-8.75,6.16-6.06,3.78-12.47,7.05-19.15,9.63-3.33,1.31-6.74,2.43-10.19,3.36-3.45.93-6.95,1.7-10.48,2.24-3.52.52-7.06.83-10.58.73-3.52-.11-7.01-.59-10.32-1.6-3.31-1.01-6.43-2.57-9.12-4.69-2.73-2.06-4.99-4.78-6.7-7.74-.85-1.49-1.53-3.05-2.03-4.67-.49-1.62-.84-3.29-.88-4.98-.23-3.37.49-6.76,1.86-9.87.68-1.56,1.55-3.05,2.55-4.44.28-.37.56-.74.85-1.1.71,1.42,1.71,2.63,2.84,3.67,1.56,1.37,3.41,2.44,5.44,2.98l.76.2c.26.06.52.09.78.13.52.1,1.04.12,1.57.15.53.05,1.05-.02,1.57-.03.54-.05,1.12-.17,1.67-.28,2.18-.61,3.96-1.87,5.41-3.31,1.45-1.45,2.61-3.12,3.52-4.91.91-1.79,1.56-3.71,1.88-5.74.32-2.02.27-4.19-.33-6.28-.3-1.04-.75-2.02-1.26-2.95-.54-.91-1.15-1.76-1.81-2.53-2.68-3.07-5.85-5.18-8.85-7.28-3.02-2.08-5.97-4.08-8.67-6.31-2.7-2.22-5.15-4.66-7.12-7.39-1.02-1.34-1.84-2.8-2.61-4.28-.72-1.51-1.36-3.06-1.85-4.66-.98-3.2-1.47-6.57-1.53-9.97-.13-6.81,1.31-13.7,3.64-20.25.29-.82.6-1.63.92-2.48l.26-.67c.1-.27.17-.44.24-.64l.45-1.14c.66-1.53,1.4-3.06,2.24-4.62,1.64-3.11,3.52-6.29,5.21-9.74.85-1.71,1.63-3.54,2.31-5.44.31-.98.66-1.92.88-2.96.12-.51.26-1.01.36-1.53l.25-1.59c.1-.52.12-1.07.16-1.62.03-.55.08-1.09.07-1.64-.06-1.1-.06-2.24-.25-3.3-.31-2.16-.93-4.3-1.83-6.31-1.81-4.03-4.64-7.35-7.63-10.01-3-2.68-6.18-4.85-9.24-6.9-3.07-2.04-6.06-3.95-8.66-6.01-2.61-2.14-5.06-4.43-7.19-6.95-4.25-5.05-7.15-11-8.35-17.39-.57-3.2-.72-6.49-.54-9.8l.08-1.24.04-.62.08-.62.32-2.49c.32-1.65.59-3.33,1.04-4.93.83-3.24,1.98-6.46,3.34-9.67,1.37-3.21,2.93-6.4,4.53-9.65,3.2-6.48,6.66-13.18,9.05-20.59l.84-2.8.7-2.87c.22-.96.37-1.96.55-2.93.17-.98.25-2,.38-3,.39-4.04.07-8.36-1.15-12.46-.65-2.03-1.48-3.99-2.46-5.81-1-1.8-2.1-3.49-3.24-5.06-2.29-3.13-4.66-5.9-6.73-8.68-2.1-2.77-3.87-5.59-5.28-8.58-1.42-2.98-2.4-6.15-3.04-9.43-.64-3.28-.94-6.68-.92-10.13-.03-.86.03-1.72.06-2.58l.11-2.58.28-2.57.14-1.29c.04-.43.14-.85.2-1.28.13-.83.28-1.66.44-2.48.56-2.1,1.23-4.16,2.02-6.17,2.49-6.25,6.09-12,10.5-17.07,2.2-2.54,4.58-4.93,7.13-7.15,2.53-2.23,5.21-4.31,8-6.23,2.78-1.95,5.69-3.71,8.66-5.35,2.97-1.65,6.04-3.14,9.16-4.47,3.14-1.27,6.31-2.45,9.58-3.38,3.26-.95,6.58-1.68,9.93-2.24,6.72-1.12,13.6-1.41,20.47-.98l1.29.06,1.29.11c.86.08,1.72.15,2.58.24,1.71.22,3.43.43,5.14.71,3.42.54,6.83,1.27,10.22,2.13-.8-.34-1.61-.69-2.43-1-.81-.32-1.64-.63-2.46-.92-.83-.3-1.66-.57-2.5-.83-.84-.27-1.68-.53-2.53-.76-3.38-.98-6.85-1.69-10.34-2.24-7-1.02-14.17-1.32-21.27-.51-7.11.75-14.12,2.53-20.82,5.11-6.01,2.4-11.76,5.4-17.17,8.95v-.26h-.64v.49h.29c-.46.3-.92.6-1.37.91-2.94,2.05-5.78,4.26-8.46,6.67-1.08.98-2.13,1.99-3.15,3.03.99-1.53,2.03-3.04,3.1-4.53,2.04-2.91,4.27-5.68,6.53-8.43,2.31-2.72,4.68-5.39,7.17-7.95,4.96-5.15,10.26-9.99,15.8-14.56,2.77-2.27,5.61-4.48,8.5-6.6.12-.09.25-.18.37-.27.96-.45,1.92-.89,2.9-1.28,3-1.2,6.11-2.11,9.26-2.73,3.15-.61,6.35-.96,9.54-.94,3.19-.03,6.38.32,9.52.93.78.18,1.58.3,2.35.51.77.22,1.55.42,2.33.63l2.29.76c.76.27,1.51.58,2.27.87,6.02,2.46,11.63,6.07,16.83,10.51-3.58-5.86-8.9-10.72-15.08-14.14-3.09-1.71-6.44-3.03-9.9-3.89-.86-.26-1.74-.4-2.62-.57-.88-.17-1.76-.34-2.65-.43l-1.33-.15-1.34-.09c-.45-.02-.89-.06-1.34-.07h-1.34c-1.79-.02-3.57.12-5.35.32-.34.05-.68.1-1.02.15,3.99-2.11,8.1-4.05,12.27-5.81,6.61-2.76,13.39-5.14,20.3-7.07l1.79-.46c.23.02.45.04.69.07,1.04.1,2.05.22,3.03.42.98.18,1.93.42,2.85.73.92.3,1.81.67,2.66,1.12,1.71.88,3.26,2.09,4.64,3.52,2.72,2.9,4.59,6.77,5.68,11.1.78-4.41-.18-9.29-2.92-13.3-1.38-1.98-3.18-3.71-5.28-5.01-.55-.34-1.12-.65-1.7-.93,3.21-.67,6.41-1.29,9.63-1.82,14.19-2.32,28.64-3.22,42.95-2.22,7.15.5,14.25,1.53,21.21,3.07,1.74.37,3.46.84,5.2,1.27,1.71.51,3.43.97,5.12,1.51l2.53.84,1.27.42,1.25.47c1.66.62,3.33,1.23,4.95,1.95,6.46,2.75,12.67,6.07,18.43,10.03-1.65-.84-3.31-1.64-4.99-2.4-1.39-.63-2.79-1.2-4.19-1.78l-2.14-.83-2.16-.78c-2.9-.99-5.84-1.86-8.82-2.56-2.98-.69-5.99-1.25-9.02-1.65s-6.07-.68-9.11-.78c-1.52-.08-3.04-.08-4.56-.1-1.52.03-3.03.03-4.55.11-12.18.43-24.24,3.63-34.73,9.42,11.35-3.8,23.08-5.75,34.77-5.38,11.74.24,23.37,1.96,34.33,5.79l2.05.73,2.03.78c1.36.55,2.72,1.1,4.05,1.68,2.69,1.14,5.32,2.39,7.89,3.73,5.13,2.7,9.99,5.87,14.41,9.62,1.11.94,2.19,1.92,3.25,2.92,3,4.3,5.61,8.92,8.11,13.65,3.33,6.33,6.41,12.95,9.79,19.51.55,1.09,1.13,2.18,1.72,3.27-6.17-7.22-13.32-13.68-21.15-19.2-11.12-7.9-23.7-13.81-36.83-17.59-6.56-1.91-13.27-3.27-19.96-4.26-1.68-.25-3.32-.48-5.02-.69-1.69-.22-3.38-.41-5.07-.55-1.69-.17-3.39-.28-5.08-.39-1.7-.09-3.39-.16-5.09-.2-13.57-.3-27.16,1.25-40.1,4.87,13.39-1,26.68-1.11,39.81.15,3.28.32,6.55.7,9.8,1.17.81.12,1.63.23,2.44.36l2.43.4c1.61.26,3.27.56,4.89.86,3.25.61,6.48,1.21,9.67,1.97,1.6.35,3.19.76,4.78,1.15,1.58.44,3.17.82,4.73,1.31,12.55,3.63,24.64,8.82,35.85,15.65,9.68,5.82,18.69,12.8,27.12,20.62l.61.95c.52.8,1.01,1.63,1.57,2.4l1.63,2.34c1.13,1.52,2.25,3.06,3.43,4.51.2.25.4.5.6.75-.82-.49-1.64-.99-2.47-1.47-2.22-1.29-4.51-2.49-6.85-3.59-4.69-2.19-9.57-3.86-14.44-5.28-4.88-1.39-9.76-2.56-14.62-3.7l-7.3-1.64c-2.46-.52-4.9-1.09-7.37-1.54l-3.7-.7-3.72-.64c-1.24-.22-2.48-.4-3.72-.6s-2.49-.38-3.73-.54c-4.98-.69-9.97-1.23-14.92-1.71-4.94-.51-9.83-1.01-14.67-1.76-1.21-.2-2.42-.39-3.62-.6l-3.61-.68-3.6-.78-3.59-.85c-4.78-1.16-9.52-2.54-14.21-4.06-9.4-3.03-18.58-6.83-27.59-11.09,8.33,5.5,17.25,10.12,26.5,14.03,4.64,1.92,9.36,3.67,14.17,5.17,4.8,1.54,9.7,2.81,14.66,3.82s9.95,1.75,14.89,2.41c4.94.68,9.83,1.32,14.69,2.12s9.7,1.64,14.52,2.68c2.41.48,4.82,1.04,7.22,1.56l7.25,1.67c4.83,1.11,9.64,2.24,14.34,3.54,4.71,1.28,9.27,2.8,13.66,4.72,2.19.97,4.34,2.02,6.45,3.18,2.17,1.19,4.3,2.38,6.39,3.62,4.16,2.51,8.16,5.24,11.87,8.31.81.67,1.6,1.35,2.38,2.05,1.84,2.14,3.63,4.29,5.3,6.48l.8,1.04.76,1.05c.5.7,1.03,1.4,1.51,2.11l1.44,2.14c.47.71.87,1.43,1.32,2.15,1.69,2.88,3.13,5.89,4.28,9.01s1.98,6.34,2.53,9.61c.55,3.28.81,6.61.81,9.96-.02,3.35-.32,6.72-.84,10.06-.15.84-.25,1.67-.43,2.51l-.52,2.5c-.37,1.64-.81,3.29-1.3,4.95-.98,3.32-2.15,6.68-3.35,10.13-1.2,3.44-2.41,6.97-3.47,10.64s-1.97,7.49-2.47,11.49c-.48,3.99-.57,8.16.06,12.3.59,4.14,1.86,8.2,3.75,11.98s4.42,7.11,7.11,10.03c2.69,2.93,5.56,5.47,8.33,7.89,2.77,2.41,5.45,4.72,7.88,7.11,2.42,2.37,4.59,4.88,6.53,7.65,3.9,5.5,6.93,11.7,8.94,18.22.25.81.5,1.63.71,2.46.23.82.42,1.65.61,2.48.21.82.32,1.68.49,2.52l.46,2.53.29,2.56c.09.86.23,1.71.25,2.57l.14,2.59c.02.43.06.86.06,1.3v1.3l.05-.04Z"/>
  <path class="st0" d="M168.43,169.06c.84.16,2.38.9,3.17.28.94-.74-4.02-2.76-4.43-2.93-3.14-1.26-6.32-2.34-9.54-3.39-1.8-.59-3.63-1.19-5.52-1.35-2.11-.18-4.23.19-6.32.56-5.66,1-11.19,2.58-16.7,4.19-3.29.96-6.6,1.88-9.79,3.15-1.86.74-3.96,1.23-5.27,2.85-1.57,1.95-2.13,4.76-1.61,7.19.52,2.46,1.79,2.25,3.93,1.88,2.41-.42,4.65-1.47,6.88-2.4,6.07-2.53,11.97-5.44,18.09-7.83,4.3-1.68,8.87-3.29,13.55-3.06,3.31.16,6.63.3,9.97.46,1.21.06,2.41.17,3.58.39h0Z"/>
  <path class="st0" d="M105.61,245.57c1.16.03,3.32-.05,3.09-1.74-.11-.84-.77-1.34-1.6-1.34-1.9,0-3.77.26-5.6.8-1.61.47-3.24.99-4.48,2.16.2.05.39.06.59.06.58-.02,1.18-.21,1.76-.34,2.11-.46,4.12.34,6.23.4h.01Z"/>
  <path class="st0" d="M83.91,232.35c.39-1.17,1.07-2.42.98-3.68-.01-.18-3.16,6.16-3.62,7.59-.68,2.11-2.36,4.59-2.09,6.83.22,1.86,2.27,3.71,3.96,4.62,1.35.72,2.86,1.03,4.28,1.56,1.46.55,2.84,1.62,4.48,1.37-2.38-1.38-4.2-3.18-6.74-4.2-2.87-1.15-3.52-2.3-3.61-4.35-.09-2.12.59-4.17,1.21-6.17.37-1.19.74-2.39,1.14-3.58h0Z"/>
  <path class="st0" d="M87.91,273.18c.94,1.16,1.06,2.55,1.35,3.96.99,4.79,4.27,8.49,8.76,10.37.81.34,1.63.62,2.47.86.22.06.44.12.67.18,6.05,1.49,12.26-1.18,17.2-4.51,4.67-3.15,10.53-7.76,12.26-13.35.03-.09.04-.17.05-.24.08-.81-1.06-.66-1.69-.8-1.06-.24-2.09-.62-3.08-1.07-1.9-.87-3.65-2.01-5.41-3.12-3.77-2.37-9.46-4.65-14.02-4.56-1.13.02-2.28.24-3.27.8-.97.55-1.58,1.23-2.8,1.14-1.55-.11-2.93-1.19-4.52-.92-2.69.47-4.12,2.3-5.88,4.31-.85.96-1.43,2.05-2.04,3.16-.38.71-1.2,1.4-1.21,2.26-.02.79.74,1.03,1.16,1.55v-.02Z"/>
  <path class="st0" d="M161.47,198.59c.37-.2,3.15-2.96,2.8-2.99-1.07-.1-2.17-.2-3.16-.62-3.6-1.53-1.58-3.63-.9-6.13.02-.07-.05-.12-.11-.08-.22.16-.43.34-.63.53-2.1,1.43-4.05,3.31-6.27,4.53-2.13,1.16-4.59,1.64-6.96,2.04-4.41.75-8.85,1.33-13.3,1.75-2.89.27-7.74.15-8.87,3.58-.12.36.31.8.64.49,2.69-2.53,5.15-1.77,8.4-1.36,9.69,1.23,19.27,3.13,28.34-1.74h.02Z"/>
  <path class="st0" d="M95.23,73.09l-1.96.06-1.96.07c-.65.03-1.3.1-1.96.15-2.62.16-5.22.54-7.82.97-5.19.89-10.31,2.37-15.24,4.39-4.93,2.03-9.68,4.64-14,7.93l-1.59,1.27c-.53.43-1.08.83-1.56,1.32-.99.94-2,1.87-2.96,2.84-1.89,1.98-3.62,4.11-5.17,6.36-3.11,4.5-5.55,9.47-7.19,14.71-.8,2.63-1.41,5.32-1.78,8.06-.37,2.71-.52,5.57-.36,8.36.15,2.8.59,5.56,1.22,8.23.64,2.67,1.47,5.25,2.39,7.75s1.92,4.93,2.93,7.31c1.05,2.44,1.95,4.57,2.67,6.84.71,2.25,1.25,4.52,1.54,6.85s.37,4.7.3,7.09c-.2,4.79-.99,9.67-2.11,14.52-.57,2.43-1.2,4.85-1.9,7.26-.17.61-.34,1.21-.53,1.78-.19.58-.36,1.16-.56,1.74-.41,1.16-.82,2.31-1.28,3.47-1.8,4.63-3.99,9.25-6,14.09-1.01,2.41-1.99,4.88-2.82,7.43-.44,1.26-.8,2.58-1.17,3.88-.32,1.33-.66,2.64-.89,4.01-.13.67-.26,1.35-.33,2.04-.08.69-.18,1.37-.25,2.07-.06,1.42-.2,2.84-.1,4.25.05,2.84.55,5.63,1.25,8.32l.57,2.01c.22.66.46,1.3.7,1.96l.36.97.41.95c.28.63.54,1.27.83,1.88,1.2,2.46,2.55,4.83,4.06,7.08,1.52,2.23,3.11,4.41,4.87,6.43.85,1.04,1.78,2,2.67,3,.94.95,1.85,1.93,2.82,2.84.5.46.93.91,1.48,1.39l.82.71c.27.23.56.44.84.67,1.12.88,2.27,1.66,3.41,2.38,2.29,1.45,4.55,2.68,6.64,3.97,2.07,1.29,3.98,2.62,5.52,4.17.4.36.76.83,1.14,1.26.36.44.78.85,1.1,1.32l.98,1.38.25.34.21.37.41.73c.28.48.57.96.76,1.48.21.51.46,1.01.65,1.52l.5,1.58c.1.26.14.53.2.8l.17.81c.4,2.18.51,4.43.26,6.73-.25,2.29-.73,4.6-1.41,6.9-.71,2.3-1.56,4.58-2.54,6.85-1.96,4.53-4.34,9.11-6.51,13.86-2.18,4.74-4.2,9.71-5.53,15.02-.28,1.35-.62,2.68-.8,4.07-.09.69-.24,1.37-.28,2.08l-.16,2.11c-.05.7,0,1.42-.02,2.13v1.07c.02.36.07.72.1,1.07.07.72.13,1.43.22,2.15l.42,2.13c.58,2.87,1.75,5.63,3.2,8.12,1.47,2.48,3.24,4.73,5.19,6.73,1.95,2,4.05,3.79,6.24,5.4,2.24,1.67,4.6,3.03,6.84,4.31,2.25,1.27,4.4,2.48,6.35,3.8,1.92,1.34,3.64,2.78,4.94,4.46,2.63,3.25,3.48,7.66,3.05,12.22-.44,4.56-2.06,9.17-4.34,13.35-1.15,2.09-2.48,4.1-3.98,5.9-1.49,1.82-3.15,3.39-4.99,4.74-3.69,2.65-8.18,4.22-12.81,3.88-4.62-.29-9.2-2.66-12.97-6.23.59,1.16,1.31,2.27,2.14,3.31.82,1.05,1.77,2.01,2.81,2.88,2.08,1.75,4.65,3.03,7.41,3.72,2.76.65,5.7.72,8.51.15.71-.11,1.39-.33,2.09-.5.68-.23,1.37-.43,2.02-.72,1.34-.51,2.6-1.2,3.82-1.94,2.41-1.51,4.57-3.44,6.4-5.53,1.83-2.1,3.39-4.36,4.76-6.73,1.37-2.38,2.53-4.87,3.47-7.47.46-1.3.86-2.64,1.2-3.99.32-1.36.58-2.75.75-4.16.31-2.82.31-5.77-.35-8.7-.61-2.92-1.94-5.82-3.78-8.21-1.82-2.41-4.08-4.31-6.34-5.93-2.27-1.59-4.59-2.92-6.79-4.2-2.2-1.29-4.29-2.5-6.16-3.91-1.93-1.43-3.74-2.99-5.36-4.68-3.24-3.37-5.69-7.28-6.59-11.58l-.33-1.64-.17-1.68c-.02-.28-.07-.56-.08-.84v-.85c0-.57-.04-1.14,0-1.71l.13-1.73c.02-.58.16-1.16.23-1.74.14-1.16.44-2.32.67-3.48,1.16-4.65,2.95-9.26,5.03-13.84,2.06-4.6,4.39-9.14,6.48-14.05,1.03-2.45,1.96-4.98,2.75-7.59.76-2.62,1.33-5.35,1.61-8.17.29-2.81.14-5.73-.39-8.59l-.22-1.07c-.07-.36-.14-.72-.27-1.06l-.67-2.09c-.26-.68-.57-1.34-.86-2.01-.27-.68-.64-1.3-1-1.93l-.54-.94-.27-.47-.31-.44-1.25-1.75c-.42-.58-.91-1.08-1.37-1.63-.47-.53-.9-1.07-1.45-1.58-2.09-2.09-4.44-3.68-6.72-5.09-2.29-1.39-4.54-2.61-6.58-3.9-1.03-.64-2-1.31-2.9-2.01-.22-.18-.45-.35-.67-.53l-.63-.55c-.42-.37-.89-.83-1.33-1.24-.91-.83-1.74-1.74-2.61-2.61-.82-.91-1.68-1.79-2.45-2.74-1.61-1.85-3.06-3.81-4.42-5.82-1.34-2.02-2.51-4.13-3.55-6.28-.25-.54-.47-1.09-.71-1.64l-.35-.82-.3-.83-.59-1.67-.47-1.7c-.57-2.27-.97-4.57-.99-6.86-.09-1.15.05-2.29.1-3.43.06-.58.15-1.17.23-1.75.06-.59.18-1.17.3-1.75.2-1.17.51-2.33.8-3.5.35-1.16.66-2.32,1.08-3.48.77-2.32,1.7-4.62,2.69-6.93,1.97-4.62,4.24-9.25,6.21-14.17.5-1.22.96-2.48,1.42-3.74.23-.63.43-1.28.64-1.92.22-.65.41-1.28.59-1.9.75-2.51,1.45-5.04,2.08-7.6,1.24-5.13,2.2-10.41,2.45-15.87.1-2.73.02-5.5-.31-8.27-.32-2.77-.95-5.51-1.78-8.15-.8-2.63-1.94-5.22-2.91-7.5-1-2.34-1.96-4.65-2.81-6.97-1.7-4.62-2.96-9.25-3.27-13.9-.32-4.61.34-9.4,1.68-13.96,1.32-4.58,3.36-8.97,6-12.97,1.32-2,2.79-3.9,4.41-5.67.83-.87,1.69-1.69,2.53-2.55.4-.44.89-.81,1.34-1.21l1.37-1.18c3.74-3.06,7.92-5.65,12.35-7.8,2.21-1.1,4.5-2.04,6.82-2.93l3.52-1.24,3.59-1.06c1.2-.36,2.43-.61,3.64-.92,1.21-.34,2.45-.54,3.69-.8.62-.12,1.23-.26,1.86-.37l1.87-.28c1.25-.19,2.5-.39,3.76-.52,5.03-.61,10.14-.83,15.3-.7-5.02-1.21-10.21-1.76-15.42-1.87-.65-.01-1.31-.05-1.96-.04h.03Z"/>
  <path class="st0" d="M91.44,357.69c.55,1.58,1.2,3.13,1.97,4.61.75,1.49,1.6,2.94,2.54,4.32.93,1.39,1.97,2.7,3.04,3.96,1.11,1.28,2.21,2.38,3.29,3.52,2.18,2.25,4.28,4.43,6.05,6.75.87,1.18,1.68,2.33,2.36,3.65.68,1.31,1.28,2.66,1.81,4.05,2.11,5.56,3,11.63,2.68,17.63-.17,3-.64,6-1.4,8.92-.77,2.92-1.85,5.78-3.21,8.5-2.73,5.45-6.51,10.41-11.04,14.64-2.35,2.23-4.88,4.27-7.55,6.15-.31.12-.63.24-.94.36-1.94.79-4.04,1.46-6.07,2.11-4.08,1.28-8.23,2.27-12.42,2.79-4.18.53-8.44.51-12.48-.49-4.04-.95-7.79-3.08-10.62-6.22-2.85-3.13-4.72-7.16-5.84-11.38.27,2.17.8,4.32,1.56,6.4.38,1.04.85,2.05,1.38,3.04.52.99,1.13,1.94,1.8,2.84,2.68,3.64,6.68,6.34,11.03,7.74,4.37,1.4,8.99,1.69,13.48,1.41,2.25-.12,4.48-.44,6.69-.83,2.21-.39,4.38-.9,6.53-1.46,2.16-.58,4.24-1.14,6.39-1.9,1.06-.37,2.14-.7,3.19-1.11l3.11-1.32c4.1-1.86,8.08-4.06,11.73-6.71,3.68-2.61,7.11-5.56,10.27-8.77,3.14-3.23,6.01-6.72,8.56-10.44,1.29-1.85,2.47-3.78,3.58-5.75,1.07-1.92,2.14-3.86,3.14-5.87,2-4,3.76-8.21,4.92-12.64,1.2-4.41,1.7-9.11,1.28-13.77l-.07-.87-.14-.87-.29-1.73c-.09-.58-.28-1.14-.42-1.71-.15-.57-.29-1.13-.47-1.69-.71-2.23-1.74-4.41-3.02-6.38-1.27-1.98-2.74-3.71-4.09-5.37-1.35-1.67-2.59-3.33-3.68-5.1-2.16-3.56-3.7-7.54-4.62-11.67-.27-1.03-.41-2.08-.61-3.13-.13-1.06-.3-2.11-.36-3.18-.2-2.13-.21-4.28-.14-6.44.06-2.16.27-4.32.57-6.46.28-2.15.69-4.3,1.15-6.44-1.46,4.12-2.57,8.39-3.13,12.78-.3,2.19-.45,4.41-.43,6.64-.02,1.11.06,2.23.11,3.35.12,1.11.18,2.23.38,3.34.67,4.44,2.05,8.8,4.17,12.86,1.05,2.03,2.35,3.94,3.67,5.71,1.32,1.79,2.6,3.45,3.61,5.2,1.02,1.74,1.78,3.58,2.31,5.54.13.49.22.99.34,1.48.1.5.25.98.31,1.48l.2,1.5.1.75.03.76.07,1.52c.02.51-.03,1.02-.04,1.52-.03.51,0,1.02-.08,1.52l-.16,1.52c-.04.51-.13,1.01-.23,1.52l-.27,1.52-.36,1.51c-.12.5-.24,1-.4,1.5l-.45,1.49c-.15.5-.34.98-.51,1.48-.32.99-.73,1.96-1.11,2.93-.82,1.93-1.69,3.85-2.68,5.74-.97,1.89-2,3.77-3.07,5.66-1.04,1.82-2.15,3.61-3.36,5.34-4.76,6.97-10.69,13.16-17.46,18.17-3.29,2.52-6.9,4.59-10.6,6.45,1.22-.85,2.42-1.74,3.58-2.68,2.46-2.03,4.78-4.24,6.88-6.67,2.11-2.42,4-5.06,5.59-7.88,3.19-5.63,5.28-11.96,5.88-18.48.63-6.51-.11-13.18-2.26-19.44-.54-1.56-1.18-3.1-1.9-4.6-.37-.74-.75-1.51-1.17-2.25-.41-.75-.87-1.46-1.34-2.15-1.88-2.8-4.09-5.21-6.23-7.51-2.19-2.32-4.15-4.43-5.83-6.86-.84-1.21-1.64-2.44-2.34-3.73-.71-1.29-1.35-2.61-1.91-3.97-.57-1.36-1.04-2.75-1.45-4.17-.41-1.42-.71-2.87-.98-4.33-.1-.73-.23-1.48-.3-2.2s-.12-1.45-.12-2.18c-.01-1.46.07-2.94.29-4.42.21-1.48.54-2.95.96-4.41.4-1.47.89-2.92,1.46-4.36,1.13-2.88,2.52-5.69,3.98-8.49-2.1,2.36-4.02,4.91-5.67,7.66-.82,1.38-1.57,2.81-2.24,4.3-.64,1.5-1.19,3.04-1.63,4.64-.43,1.6-.76,3.24-.89,4.92-.08.84-.11,1.68-.11,2.53s.06,1.66.1,2.49c.25,3.3.91,6.6,2.03,9.75l.04.02Z"/>
  <path class="st0" d="M326.44,306.78c-.83-2.83-2.02-5.59-3.51-8.14-1.49-2.55-3.26-4.89-5.15-7.07-1.9-2.16-3.94-4.14-6-6.07-4.2-3.86-8.8-7.14-13.23-10.31-4.43-3.18-8.68-6.34-11.95-10.17-1.64-1.9-3.01-3.98-4.12-6.19-1.09-2.22-1.89-4.6-2.46-7.06-.57-2.46-.87-5.02-1.03-7.62-.16-2.59-.13-5.21.05-7.83.32-5.25,1.19-10.52,2.3-15.8,1.1-5.28,2.45-10.57,3.7-15.96,1.24-5.39,2.39-10.87,3.08-16.5.68-5.62.92-11.4.25-17.17-.13-1.45-.42-2.88-.65-4.31-.1-.72-.31-1.42-.46-2.13-.18-.71-.31-1.42-.52-2.12-.43-1.39-.8-2.81-1.34-4.16-.26-.68-.5-1.37-.77-2.05l-.88-2c-.15-.33-.29-.67-.45-1l-.5-.97c-.34-.65-.66-1.3-1.01-1.94l-1.11-1.88c-.19-.31-.37-.63-.56-.93l-.61-.9c-.41-.6-.81-1.21-1.22-1.8l-1.31-1.74c-.43-.59-.89-1.14-1.36-1.69-.47-.55-.92-1.11-1.4-1.65-.99-1.05-1.93-2.14-2.98-3.13l-1.54-1.51-1.6-1.44c-.53-.49-1.07-.95-1.63-1.4l-1.65-1.36-1.71-1.29-.85-.64-.87-.61c-4.64-3.28-9.54-6.14-14.58-8.62-2.51-1.27-5.07-2.4-7.64-3.52-2.58-1.08-5.17-2.13-7.8-3.07-5.23-1.93-10.54-3.61-15.89-5.1-5.36-1.47-10.68-2.78-16.05-4.07-5.36-1.28-10.74-2.47-16.08-3.65-5.34-1.19-10.65-2.39-15.81-3.89-2.57-.77-5.13-1.58-7.62-2.55-2.52-.91-4.99-1.96-7.44-3.06-4.73-2.11-9.09-5.2-13.31-8.59-1.05-.85-2.12-1.7-3.16-2.58-1.04-.88-2.1-1.76-3.17-2.63l-1.6-1.31c-.55-.43-1.09-.85-1.65-1.27-1.1-.84-2.28-1.61-3.48-2.28,2.01,1.89,3.73,4,5.54,6.07,1.78,2.1,3.63,4.14,5.55,6.15,1.96,1.97,3.99,3.92,6.22,5.66,2.23,1.73,4.61,3.38,7.18,4.67,2.5,1.24,5.03,2.46,7.63,3.5,2.6,1.06,5.25,1.97,7.91,2.82,5.33,1.67,10.71,3,16.04,4.3,5.34,1.3,10.64,2.59,15.93,3.97,5.27,1.38,10.57,2.8,15.76,4.34,5.19,1.55,10.34,3.22,15.38,5.15,2.53.95,5.01,1.99,7.48,3.05,2.45,1.1,4.89,2.22,7.27,3.45,4.77,2.42,9.36,5.17,13.64,8.27,4.29,3.09,8.25,6.58,11.74,10.45.43.49.84.99,1.26,1.49.42.49.84.99,1.22,1.52l1.17,1.55c.37.53.72,1.07,1.09,1.61l.54.8c.18.27.33.55.5.83l.99,1.66.89,1.71.44.86c.14.29.26.59.4.88l.78,1.76c.24.6.45,1.2.68,1.8.49,1.19.8,2.44,1.18,3.67.19.62.3,1.25.46,1.87.13.63.33,1.25.41,1.89.2,1.27.47,2.54.58,3.83.6,5.14.4,10.4-.24,15.66-.63,5.27-1.74,10.54-2.95,15.83-1.22,5.3-2.58,10.64-3.72,16.09s-2.08,11.03-2.42,16.73c-.18,2.85-.19,5.73,0,8.61s.56,5.78,1.24,8.66c.68,2.88,1.66,5.73,3.01,8.42,1.37,2.68,3.07,5.21,5.03,7.45,1.96,2.24,4.13,4.23,6.35,6.02,2.23,1.8,4.51,3.44,6.75,5.03,4.51,3.18,8.87,6.25,12.79,9.77,1.96,1.79,3.88,3.61,5.61,5.54,1.72,1.94,3.28,3.96,4.57,6.12,1.29,2.15,2.31,4.43,3.04,6.83s1.17,4.93,1.43,7.51c.16,1.28.2,2.6.28,3.92.03,1.32.09,2.65.04,3.96l-.04,1.97-.12,1.97c-.05,1.31-.24,2.62-.37,3.93-.64,5.23-1.92,10.42-3.5,15.54-1.59,5.12-3.54,10.18-5.62,15.21s-4.28,10.04-6.48,15.06c-2.24,5.05-4.3,10.33-5.75,15.76-.73,2.72-1.35,5.47-1.8,8.25-.45,2.78-.79,5.58-.93,8.39-.18,2.81-.2,5.64.02,8.5.25,2.86.75,5.8,2,8.62.62,1.4,1.43,2.74,2.39,3.89.24.29.46.59.71.87l.77.81c.5.56,1.07,1.02,1.61,1.52,2.23,1.93,4.74,3.49,7.48,4.54,2.72,1.06,5.64,1.72,8.6,1.64,2.95-.07,5.91-.86,8.42-2.39,1.24-.79,2.37-1.71,3.37-2.75.97-1.07,1.78-2.26,2.47-3.49,1.36-2.48,2.2-5.18,2.51-7.92-.66,2.66-1.74,5.22-3.27,7.44-.76,1.11-1.65,2.13-2.62,3.04-.99.9-2.08,1.66-3.24,2.29-2.35,1.22-5,1.72-7.61,1.61-2.62-.12-5.21-.77-7.61-1.84-2.41-1.07-4.64-2.54-6.56-4.33-.46-.46-.96-.89-1.37-1.39l-.65-.73c-.2-.25-.39-.52-.59-.77-.8-1.02-1.43-2.12-1.92-3.29-.99-2.34-1.4-4.96-1.57-7.6-.15-2.65-.07-5.34.16-8.03.19-2.68.57-5.35,1.06-8,.48-2.65,1.13-5.26,1.89-7.84,1.51-5.17,3.56-10.14,5.88-15.07,2.31-4.98,4.63-9.96,6.84-15.01,2.22-5.05,4.33-10.18,6.1-15.48,1.77-5.29,3.24-10.74,4.05-16.35.17-1.41.4-2.81.49-4.23l.17-2.12.07-2.13c.09-2.84,0-5.65-.26-8.51-.26-2.85-.72-5.74-1.55-8.58h.03Z"/>
</svg>