<?xml version="1.0" encoding="UTF-8"?>
<svg id="Layer_1" data-name="Layer 1" xmlns="http://www.w3.org/2000/svg" xmlns:xlink="http://www.w3.org/1999/xlink" viewBox="0 0 500 557.37">
  <defs>
    <style>
      .cls-1 {
        fill: none;
      }

      .cls-2 {
        clip-path: url(#clippath-1);
      }

      .cls-3 {
        fill: #fff;
      }

      .cls-4 {
        fill: #9a6c29;
      }

      .cls-5 {
        clip-path: url(#clippath);
      }
    </style>
    <clipPath id="clippath">
      <rect class="cls-1" width="500" height="557.37"/>
    </clipPath>
    <clipPath id="clippath-1">
      <rect class="cls-1" width="500" height="557.37"/>
    </clipPath>
  </defs>
  <g id="Virgo">
    <g class="cls-5">
      <g class="cls-2">
        <path class="cls-4" d="M244.23,443.69c-25.77,0-58.14-19.9-84.49-51.95-17.27-21-46.24-65.12-46.24-124.62,0-30.02,5.67-59.66,16.39-85.72.68-1.64,2.55-2.42,4.19-1.75,1.64.67,2.43,2.55,1.75,4.2-10.4,25.29-15.9,54.09-15.9,83.27,0,92.28,76.35,170.14,124.3,170.14,25.08,0,56.03-19,80.77-49.58,28.07-34.71,43.53-77.52,43.53-120.56,0-32.24-6.63-63.63-19.17-90.77-.74-1.61-.04-3.52,1.57-4.27,1.61-.75,3.52-.04,4.27,1.57,12.94,27.98,19.77,60.3,19.77,93.46,0,44.51-15.97,88.76-44.96,124.6-25.93,32.06-58.79,51.97-85.77,51.97"/>
        <path class="cls-4" d="M114.2,480.57c-4.19,0-8.41-.45-12.61-1.39-21.42-4.8-41.76-21.41-54.42-44.42-23.82-43.31-18.47-101.96,13.31-145.95,18.83-26.06,43.61-46.98,67.58-67.22,5.15-4.35,10.47-8.84,15.63-13.3,34.34-29.67,81.8-74.45,97.48-120.49.57-1.68,2.4-2.58,4.08-2.01,1.68.57,2.58,2.4,2.01,4.08-16.18,47.53-64.45,93.13-99.36,123.29-5.19,4.48-10.53,8.99-15.69,13.35-23.67,19.98-48.15,40.65-66.52,66.07-30.36,42.02-35.54,97.91-12.89,139.09,11.61,21.1,30.84,36.91,50.19,41.25,27.53,6.17,56.42-11.25,64.4-38.84,2.96-10.23,4.03-22.6,2.73-31.53-.26-1.75.96-3.39,2.72-3.64,1.75-.25,3.39.96,3.65,2.72,1.42,9.76.28,23.2-2.92,34.23-7.69,26.6-32.83,44.72-59.37,44.72"/>
        <path class="cls-4" d="M107.33,464.17l-.71-.08c-17.78-3.99-34.66-17.76-45.16-36.84-19.7-35.83-15.29-84.34,11-120.71,1.04-1.44,3.05-1.76,4.49-.72,1.44,1.04,1.76,3.05.72,4.48-24.86,34.4-29.1,80.16-10.57,113.85,9.48,17.23,25.16,30.13,40.93,33.66,1.73.39,2.82,2.11,2.43,3.84-.34,1.5-1.66,2.51-3.14,2.51"/>
        <path class="cls-4" d="M110.75,443.94l-.71-.08c-13.3-2.98-25.91-13.25-33.74-27.48-14.63-26.61-11.37-62.61,8.13-89.6,1.04-1.44,3.05-1.76,4.49-.72,1.44,1.04,1.76,3.05.72,4.49-18.07,25.01-21.17,58.26-7.71,82.73,6.85,12.45,18.15,21.76,29.51,24.31,1.73.39,2.82,2.11,2.43,3.84-.34,1.49-1.66,2.51-3.13,2.51"/>
        <path class="cls-4" d="M374.26,480.57c-26.54,0-51.68-18.12-59.37-44.72-2.4-8.29-3.97-21.4-3.66-30.49.06-1.77,1.53-3.18,3.33-3.1,1.77.06,3.16,1.55,3.1,3.33-.28,8.36,1.21,20.87,3.41,28.48,7.98,27.58,36.87,45,64.4,38.84,19.35-4.34,38.58-20.14,50.19-41.25,22.65-41.18,17.47-97.07-12.89-139.09-18.36-25.42-42.84-46.08-66.51-66.07-5.17-4.36-10.5-8.87-15.69-13.35-34.91-30.16-83.18-75.76-99.36-123.29-.57-1.68.33-3.51,2.01-4.08,1.68-.57,3.51.33,4.08,2.01,15.68,46.05,63.14,90.82,97.48,120.49,5.16,4.46,10.49,8.96,15.64,13.31,23.97,20.23,48.75,41.16,67.58,67.22,31.78,43.99,37.13,102.64,13.31,145.95-12.66,23.02-33,39.62-54.42,44.42-4.19.94-8.42,1.39-12.61,1.39"/>
        <path class="cls-4" d="M22.98,447.43c-1.14,0-2.25-.61-2.83-1.68-29.91-55.12-26.3-120.06,9.41-169.49,18.82-26.05,43.6-46.97,67.57-67.21,5.16-4.35,10.48-8.85,15.65-13.31,36.63-31.66,113.22-117.12,128.41-161.75.57-1.68,2.4-2.58,4.08-2.01,1.68.57,2.58,2.4,2.01,4.08-15.54,45.66-93.2,132.49-130.3,164.55-5.19,4.48-10.54,9-15.7,13.36-23.67,19.98-48.15,40.64-66.51,66.06C.52,327.43-2.92,389.76,25.8,442.68c.85,1.56.27,3.51-1.29,4.36l-1.53.39Z"/>
        <path class="cls-4" d="M470.46,450.01l-1.74-.52c-1.49-.97-1.91-2.96-.95-4.45,30.29-46.7,25.97-114.56-10.48-165.01-18.37-25.42-42.84-46.08-66.51-66.07-5.17-4.36-10.51-8.87-15.7-13.36-38.5-33.27-118.42-119.11-133.89-164.55-.57-1.68.33-3.51,2.01-4.08,1.68-.57,3.51.33,4.08,2.01,15.1,44.35,93.97,128.88,132.01,161.75,5.16,4.46,10.49,8.96,15.64,13.31,23.97,20.23,48.75,41.16,67.58,67.21,17.99,24.9,29.18,55.25,31.52,85.46,2.47,31.95-4.74,61.98-20.85,86.82-.62.95-1.65,1.47-2.7,1.47"/>
        <path class="cls-4" d="M150.92,229.15l-1.76-.77.12-3.41c.37-.35,37.56-34.14,80.24-1.56,1.06.81,1.26,2.32.45,3.38-.81,1.06-2.32,1.26-3.38.46-39.4-30.07-72.64-.03-74.03,1.26l-1.64.64Z"/>
        <path class="cls-4" d="M189.4,246.42c-9.53,0-17.29-7.66-17.29-17.09l1.2-1.21,1.21,1.21c0,8.09,6.68,14.68,14.88,14.68s14.88-6.58,14.88-14.68l1.2-1.21,1.2,1.21c0,9.43-7.76,17.09-17.29,17.09"/>
        <path class="cls-4" d="M189.44,255.34c-12.5,0-25.04-4.74-37.26-14.09l-.94-1.8.77-1.89c.59-.54,14.58-13.22,35.87-13.22,12.48,0,24.83,4.39,36.7,13.05l.98,1.74-.67,1.88c-.57.59-14.08,14.33-35.45,14.33M157.61,239.27c10.56,7.47,21.26,11.25,31.83,11.25,14.72,0,25.48-7.37,29.84-10.95-10.27-6.9-20.82-10.4-31.41-10.4-14.61,0-25.67,6.74-30.27,10.1"/>
        <path class="cls-4" d="M194.79,235.73c0,2.97-2.41,5.39-5.39,5.39s-5.39-2.41-5.39-5.39,2.41-5.39,5.39-5.39,5.39,2.41,5.39,5.39"/>
        <path class="cls-3" d="M188.4,232.45c0,1.16-.94,2.1-2.1,2.1s-2.1-.94-2.1-2.1.94-2.1,2.1-2.1,2.1.94,2.1,2.1"/>
        <path class="cls-4" d="M258.5,229.15l-1.76-.77.12-3.41c.37-.35,37.56-34.14,80.24-1.56,1.06.81,1.26,2.32.45,3.38-.81,1.06-2.32,1.26-3.38.46-39.4-30.07-72.64-.03-74.03,1.26l-1.64.64Z"/>
        <path class="cls-4" d="M296.99,246.42c-9.54,0-17.3-7.66-17.3-17.09l1.21-1.21,1.2,1.21c0,8.09,6.68,14.68,14.88,14.68s14.88-6.58,14.88-14.68l1.2-1.21,1.21,1.21c0,9.43-7.76,17.09-17.29,17.09"/>
        <path class="cls-4" d="M297.03,255.34c-12.5,0-25.03-4.74-37.26-14.09l-.94-1.8.77-1.89c.58-.54,14.57-13.22,35.86-13.22,12.48,0,24.83,4.39,36.7,13.05l.98,1.74-.67,1.88c-.56.59-14.07,14.33-35.45,14.33M265.19,239.27c10.56,7.47,21.25,11.25,31.83,11.25,14.72,0,25.49-7.37,29.84-10.95-10.26-6.9-20.82-10.4-31.41-10.4-14.61,0-25.67,6.74-30.26,10.1"/>
        <path class="cls-4" d="M302.37,235.73c0,2.97-2.41,5.39-5.39,5.39s-5.39-2.41-5.39-5.39,2.41-5.39,5.39-5.39,5.39,2.41,5.39,5.39"/>
        <path class="cls-3" d="M295.99,232.45c0,1.16-.94,2.1-2.1,2.1s-2.1-.94-2.1-2.1.94-2.1,2.1-2.1,2.1.94,2.1,2.1"/>
        <path class="cls-4" d="M75.6,197.07l-2.56-1.26c-1.08-1.41-.81-3.43.6-4.51,1.36-1.04,136.75-105.26,151.24-188.64.3-1.75,1.97-2.92,3.72-2.62,1.75.3,2.92,1.97,2.62,3.72-14.92,85.86-148.02,188.33-153.67,192.65l-1.95.66Z"/>
        <path class="cls-4" d="M496.79,309.07c-1.25,0-2.44-.74-2.96-1.96-19.2-45.17-55-77.87-87.49-103.89l-.76-.61c-10.06-8.06-20.47-16.39-30.36-25.04-30.32-26.51-53.89-51.63-72.08-76.81-8.4-11.62-14.57-21.58-19.42-31.35-.79-1.59-.14-3.52,1.45-4.31,1.59-.79,3.52-.14,4.31,1.45,4.69,9.44,10.69,19.12,18.87,30.45,17.9,24.78,41.16,49.55,71.1,75.73,9.79,8.56,20.14,16.84,30.15,24.86l.76.61c33.11,26.52,69.63,59.91,89.39,106.39.69,1.64-.07,3.52-1.7,4.22l-1.25.26Z"/>
        <path class="cls-4" d="M267.94,148.19c2.8,3.04,2.61,7.77-.43,10.57-3.04,2.8-7.77,2.61-10.57-.43-2.8-3.04-2.61-7.77.43-10.57,3.04-2.8,7.77-2.61,10.57.43"/>
        <path class="cls-4" d="M279.61,163.97c2.2,2.38,2.05,6.1-.34,8.29-2.38,2.2-6.1,2.05-8.3-.34-2.2-2.38-2.04-6.1.34-8.29,2.39-2.2,6.1-2.05,8.3.34"/>
        <path class="cls-4" d="M289.7,176.62c1.58,1.71,1.47,4.38-.24,5.96-1.71,1.58-4.38,1.47-5.96-.24-1.58-1.71-1.47-4.38.24-5.96,1.71-1.58,4.38-1.47,5.96.24"/>
        <path class="cls-4" d="M298.54,186.21c1.16,1.26,1.08,3.22-.18,4.38-1.26,1.16-3.22,1.08-4.38-.18-1.16-1.26-1.08-3.22.18-4.38,1.26-1.16,3.22-1.08,4.38.18"/>
        <path class="cls-4" d="M218.45,150.63c-2.8,3.04-2.61,7.78.43,10.57,3.04,2.8,7.77,2.61,10.57-.43,2.8-3.04,2.61-7.77-.43-10.57-3.04-2.8-7.78-2.61-10.57.43"/>
        <path class="cls-4" d="M206.77,166.41c-2.2,2.38-2.05,6.1.34,8.29,2.38,2.2,6.1,2.05,8.29-.34,2.2-2.38,2.05-6.1-.34-8.29-2.38-2.2-6.1-2.05-8.29.34"/>
        <path class="cls-4" d="M196.68,179.07c-1.58,1.71-1.47,4.38.24,5.96,1.71,1.58,4.38,1.47,5.96-.24,1.58-1.71,1.47-4.38-.24-5.96-1.71-1.58-4.38-1.47-5.96.24"/>
        <path class="cls-4" d="M187.84,188.66c-1.16,1.26-1.08,3.22.18,4.38,1.26,1.16,3.22,1.08,4.38-.18,1.16-1.26,1.08-3.22-.18-4.38-1.26-1.16-3.22-1.08-4.38.18"/>
        <polygon class="cls-4" points="246.91 134.11 254.25 134.61 249.39 140.13 251.19 147.27 244.43 144.35 238.2 148.27 238.88 140.94 233.24 136.23 240.42 134.61 243.16 127.78 246.91 134.11"/>
        <polygon class="cls-4" points="243.51 133.68 249.72 129.74 249.07 137.07 254.74 141.76 247.57 143.41 244.85 150.25 241.07 143.94 233.73 143.48 238.56 137.93 236.73 130.8 243.51 133.68"/>
        <path class="cls-4" d="M244.43,336.49c-1.15,0-2.17-.83-2.37-2-.23-1.31.65-2.56,1.97-2.79,14.09-2.43,18-9.44,19.03-12.34,1.02-2.87.59-5.18-.23-6.12-26.66-30.43-21-59.57-20.75-60.8.27-1.3,1.55-2.14,2.85-1.87,1.3.27,2.14,1.54,1.87,2.85-.06.28-5.35,28.11,19.65,56.65,2.17,2.47,2.62,6.75,1.15,10.91-1.31,3.7-6.14,12.62-22.75,15.49l-.41.04Z"/>
        <path class="cls-4" d="M246.17,371.65l-1.41-.03c-15.29-.72-25.39-12.99-25.82-13.51-.84-1.04-.68-2.55.36-3.39,1.03-.84,2.55-.68,3.39.35.09.11,9.23,11.13,22.34,11.73,8.44.38,16.88-3.62,25-11.9l3.41-.04.04,3.41c-8.7,8.88-17.88,13.37-27.31,13.37"/>
        <path class="cls-4" d="M246.83,382.61c-10.48,0-19-7.97-19-17.77,0-1.33,1.08-2.41,2.41-2.41s2.41,1.08,2.41,2.41c0,7.14,6.36,12.95,14.18,12.95s14.18-5.81,14.18-12.95c0-1.33,1.08-2.41,2.41-2.41s2.41,1.08,2.41,2.41c0,9.8-8.52,17.77-19,17.77"/>
        <path class="cls-4" d="M196.53,268.86c-4.25,0-8.85-.47-13.78-1.59-1.3-.3-2.11-1.59-1.82-2.89.3-1.3,1.6-2.11,2.89-1.81,25.27,5.78,41.61-7.61,41.78-7.75,1.02-.86,2.54-.72,3.39.3.86,1.02.73,2.54-.3,3.4-.61.51-12.61,10.35-32.17,10.35"/>
        <path class="cls-4" d="M293.05,268.86c-19.56,0-31.56-9.84-32.17-10.35-1.02-.86-1.15-2.38-.3-3.4.85-1.02,2.37-1.15,3.39-.3.18.15,16.63,13.51,41.78,7.76,1.29-.3,2.59.52,2.89,1.81.3,1.3-.51,2.59-1.81,2.89-4.93,1.13-9.53,1.59-13.78,1.59"/>
        <path class="cls-4" d="M176.54,557.37l-1.01-.16c-1.68-.56-2.6-2.38-2.04-4.06,29.51-89.27.52-144.93.22-145.49-.84-1.56-.26-3.51,1.31-4.35,1.56-.84,3.51-.26,4.35,1.3,1.26,2.34,30.66,58.47.22,150.56-.45,1.35-1.7,2.21-3.05,2.21"/>
        <path class="cls-4" d="M313.07,557.37c-1.35,0-2.61-.86-3.05-2.21-30.44-92.09-1.04-148.22.22-150.56.85-1.56,2.8-2.14,4.36-1.3,1.56.85,2.14,2.79,1.3,4.36-.3.55-29.28,56.22.22,145.48.56,1.69-.36,3.5-2.04,4.06l-1.01.16Z"/>
        <path class="cls-4" d="M254.33,471.51c-5.36,0-10.84-.68-16.25-2.33-1.7-.52-2.65-2.31-2.14-4.01.52-1.7,2.31-2.66,4.01-2.14,27.45,8.37,58.65-11.88,58.96-12.08,1.48-.98,3.48-.57,4.45.92.98,1.48.57,3.47-.92,4.45-1.13.75-23.41,15.19-48.13,15.19"/>
        <path class="cls-4" d="M101.96,417.49c.23-2.98-2.01-5.58-4.99-5.81-2.98-.23-5.58,2.01-5.81,5-.23,2.98,2.01,5.58,4.99,5.81,2.99.23,5.59-2.01,5.81-4.99"/>
        <path class="cls-4" d="M91.54,405.71c.18-2.34-1.58-4.38-3.91-4.56-2.34-.18-4.38,1.58-4.56,3.92-.18,2.34,1.58,4.38,3.91,4.56,2.34.18,4.38-1.58,4.56-3.91"/>
        <path class="cls-4" d="M84.18,393.41c.13-1.68-1.13-3.15-2.81-3.27-1.68-.13-3.15,1.13-3.27,2.81-.13,1.68,1.13,3.15,2.81,3.28,1.68.13,3.15-1.13,3.27-2.81"/>
        <path class="cls-4" d="M81.58,382.71c.1-1.23-.83-2.32-2.06-2.41-1.24-.09-2.32.83-2.41,2.07-.09,1.23.83,2.31,2.07,2.41,1.24.09,2.31-.84,2.41-2.07"/>
        <rect class="cls-4" x="77.61" y="370.51" width="2.48" height="2.48" transform="translate(-223.59 141.65) rotate(-40.76)"/>
        <polygon class="cls-4" points="81.22 361.33 79.94 359.85 78.46 361.13 79.73 362.61 81.22 361.33"/>
        <path class="cls-4" d="M381.71,464.17c-1.47,0-2.8-1.01-3.13-2.51-.39-1.73.7-3.45,2.43-3.84,15.77-3.54,31.45-16.43,40.93-33.66,18.53-33.7,14.29-79.45-10.57-113.85-1.04-1.44-.71-3.45.72-4.48,1.44-1.04,3.45-.72,4.49.72,26.28,36.37,30.7,84.88,10.99,120.71-10.49,19.08-27.38,32.85-45.16,36.84l-.71.08Z"/>
        <path class="cls-4" d="M378.3,443.94c-1.47,0-2.8-1.02-3.14-2.51-.39-1.73.7-3.45,2.44-3.84,11.36-2.55,22.66-11.86,29.51-24.31,13.46-24.47,10.36-57.72-7.71-82.73-1.04-1.44-.72-3.45.72-4.49,1.44-1.04,3.45-.71,4.49.72,19.5,26.98,22.76,62.99,8.13,89.6-7.83,14.23-20.44,24.5-33.74,27.48l-.71.08Z"/>
        <path class="cls-4" d="M387.08,417.49c-.23-2.98,2.01-5.58,4.99-5.81,2.98-.23,5.58,2.01,5.81,5,.23,2.98-2.01,5.58-4.99,5.81-2.99.23-5.59-2.01-5.81-4.99"/>
        <path class="cls-4" d="M397.51,405.71c-.18-2.34,1.58-4.38,3.91-4.56,2.34-.18,4.38,1.58,4.56,3.92s-1.58,4.38-3.91,4.56c-2.34.18-4.38-1.58-4.56-3.91"/>
        <path class="cls-4" d="M404.86,393.41c-.12-1.68,1.13-3.15,2.81-3.27,1.68-.13,3.15,1.13,3.28,2.81.13,1.68-1.13,3.15-2.82,3.28-1.68.13-3.15-1.13-3.27-2.81"/>
        <path class="cls-4" d="M407.84,381.71c-.09-1.23.83-2.31,2.07-2.41,1.23-.09,2.32.83,2.41,2.07.09,1.23-.83,2.31-2.06,2.41-1.24.09-2.32-.83-2.41-2.07"/>
        <rect class="cls-4" x="408.83" y="369.91" width="2.48" height="2.48" transform="translate(-138.67 440.4) rotate(-49.34)"/>
        <rect class="cls-4" x="407.71" y="361.64" width="1.96" height="1.96" transform="translate(-132.75 435.86) rotate(-49.29)"/>
        <path class="cls-4" d="M160.61,409.37l-2.28-.96c-58.94-59.55-56.24-135.91-56.21-136.68.08-1.77,1.56-3.2,3.35-3.07,1.77.08,3.15,1.58,3.07,3.35-.03.74-2.55,74.38,54.35,131.87,1.25,1.26,1.24,3.3-.02,4.55l-2.26.93Z"/>
        <path class="cls-4" d="M327.64,409.37l-2.26-.93c-1.26-1.25-1.27-3.29-.02-4.55,56.9-57.49,54.38-131.13,54.35-131.87-.08-1.77,1.3-3.27,3.07-3.35,1.8-.11,3.27,1.3,3.35,3.07.03.77,2.74,77.13-56.21,136.68l-2.29.96Z"/>
        <path class="cls-4" d="M52.19,277.5c-.12,2.99-2.63,5.32-5.62,5.21-2.99-.11-5.32-2.63-5.2-5.62.11-2.99,2.63-5.32,5.62-5.21,2.99.11,5.32,2.63,5.21,5.62"/>
        <path class="cls-4" d="M39.76,290.18c-.09,2.35-2.06,4.17-4.4,4.08-2.34-.09-4.17-2.06-4.08-4.4.09-2.34,2.06-4.17,4.41-4.09,2.34.09,4.17,2.06,4.08,4.41"/>
        <path class="cls-4" d="M31.81,302.15c-.06,1.68-1.48,3-3.17,2.94-1.68-.06-3-1.48-2.94-3.16.07-1.68,1.48-3,3.17-2.94,1.69.07,3,1.48,2.94,3.17"/>
        <path class="cls-4" d="M25.72,311.95c-.05,1.24-1.09,2.2-2.33,2.15-1.24-.05-2.21-1.09-2.16-2.33.05-1.24,1.09-2.2,2.33-2.16,1.24.05,2.21,1.09,2.16,2.33"/>
        <rect class="cls-4" x="18.9" y="321.77" width="2.48" height="2.48" transform="translate(-214.35 99.95) rotate(-42.86)"/>
        <polygon class="cls-4" points="18.38 333.96 16.95 335.29 15.62 333.86 17.05 332.53 18.38 333.96"/>
        <path class="cls-4" d="M440.15,279.77c.11,2.99,2.63,5.32,5.62,5.21,2.99-.12,5.32-2.63,5.21-5.62-.11-2.99-2.63-5.32-5.62-5.21-2.99.11-5.32,2.63-5.21,5.62"/>
        <path class="cls-4" d="M452.57,292.45c.09,2.35,2.06,4.17,4.41,4.09,2.34-.09,4.17-2.06,4.08-4.41-.09-2.34-2.06-4.17-4.41-4.08-2.34.09-4.17,2.06-4.08,4.4"/>
        <path class="cls-4" d="M460.53,304.42c.06,1.69,1.48,3,3.16,2.94,1.68-.06,3-1.48,2.94-3.17-.06-1.68-1.48-3-3.17-2.94-1.68.07-3,1.48-2.94,3.17"/>
        <path class="cls-4" d="M466.62,314.23c.05,1.24,1.09,2.2,2.33,2.15,1.24-.05,2.2-1.09,2.15-2.33-.05-1.24-1.09-2.2-2.33-2.16-1.24.05-2.2,1.09-2.15,2.33"/>
        <rect class="cls-4" x="470.96" y="324.04" width="2.48" height="2.48" transform="translate(-87.21 451.14) rotate(-47.24)"/>
        <rect class="cls-4" x="474.36" y="335.2" width="1.96" height="1.96" transform="translate(-94.33 456.36) rotate(-47.18)"/>
        <path class="cls-4" d="M247.42,545.78c-24.82,0-40.79-16.69-41.02-16.93l.12-3.41,3.4.12c1.26,1.35,31.03,32.21,73.07,3.06,1.09-.76,2.6-.49,3.35.61.76,1.09.49,2.6-.61,3.35-14.15,9.81-27.13,13.2-38.32,13.2"/>
        <path class="cls-4" d="M245.55,536.91c-17.8,0-28.88-12.52-29.04-12.7-.87-1.01-.75-2.53.26-3.4,1.01-.87,2.53-.76,3.4.25.79.91,19.46,21.8,47.7,3.81,1.12-.71,2.61-.38,3.33.74.72,1.13.39,2.61-.74,3.33-9.23,5.88-17.63,7.97-24.91,7.97"/>
        <path class="cls-4" d="M245.35,527.56c-13.16,0-21.36-9.27-21.47-9.41-.87-1.01-.75-2.53.25-3.4,1.01-.87,2.53-.75,3.4.25.58.66,13.71,15.27,33.56,2.63,1.12-.71,2.62-.39,3.33.74.71,1.12.38,2.61-.74,3.33-6.79,4.32-12.98,5.87-18.33,5.87"/>
        <path class="cls-4" d="M378.43,515.74c-44.43,0-78.68-37.32-80.13-38.92-1.19-1.31-1.09-3.35.23-4.54,1.32-1.2,3.35-1.09,4.54.23.34.37,34.36,37.32,76.31,36.79,23-.3,44.36-11.74,63.5-34.02,1.16-1.34,3.19-1.5,4.54-.34,1.35,1.16,1.5,3.19.34,4.53-20.4,23.74-43.39,35.94-68.33,36.25h-1Z"/>
        <polygon class="cls-4" points="461.6 458.52 468.94 459.02 464.08 464.55 465.88 471.68 459.12 468.77 452.89 472.68 453.58 465.36 447.93 460.64 455.11 459.02 457.85 452.19 461.6 458.52"/>
        <polygon class="cls-4" points="458.19 458.1 464.41 454.15 463.76 461.48 469.43 466.18 462.26 467.82 459.54 474.66 455.76 468.35 448.42 467.89 453.25 462.34 451.43 455.21 458.19 458.1"/>
        <path class="cls-4" d="M111.93,515.74h-1c-24.94-.32-47.93-12.52-68.33-36.26-1.16-1.35-1-3.38.34-4.53,1.35-1.16,3.38-1,4.53.34,19.15,22.28,40.53,33.73,63.54,34.02h.89c41.63,0,75.05-36.42,75.38-36.79,1.19-1.32,3.22-1.42,4.54-.23,1.32,1.19,1.42,3.22.23,4.54-1.44,1.6-35.7,38.92-80.13,38.92"/>
        <polygon class="cls-4" points="28.76 458.52 21.41 459.02 26.27 464.55 24.48 471.68 31.24 468.77 37.47 472.68 36.78 465.36 42.43 460.64 35.25 459.02 32.51 452.19 28.76 458.52"/>
        <polygon class="cls-4" points="32.16 458.1 25.95 454.15 26.6 461.48 20.93 466.18 28.1 467.82 30.81 474.66 34.59 468.35 41.94 467.89 37.1 462.34 38.93 455.21 32.16 458.1"/>
        <path class="cls-4" d="M176.87,341.12c-7.16,0-14.04-2.83-18.72-8.06-5.94-6.63-7.96-16.13-5.27-24.79,2.55-8.22,8.94-14.31,17.09-16.3,1.3-.32,2.6.48,2.91,1.77.32,1.29-.47,2.6-1.77,2.91-6.59,1.61-11.56,6.36-13.63,13.05-2.18,7.05-.55,14.77,4.26,20.15,6.31,7.04,16.13,7.59,23.07,5.01,7.34-2.74,11.62-8.58,11.74-16.03.08-4.86-2.87-9.52-7.34-11.6-3.39-1.58-9.65-1.18-12.64,1.68-2.13,2.05-2.68,5.9-1.28,8.97.64,1.39,2.2,3.67,5.57,3.35.79-.08,1.95-.92,2.4-2.05l-.18-1.56c-.87-1.01-.77-2.53.24-3.4,1.01-.88,2.53-.77,3.4.24,1.58,1.81,1.95,4.19,1.02,6.52-1.09,2.72-3.73,4.8-6.42,5.05-4.56.43-8.44-1.87-10.4-6.15-2.26-4.92-1.28-11,2.33-14.46,4.6-4.4,13.02-4.89,18.01-2.57,6.17,2.86,10.24,9.31,10.13,16.05-.15,9.4-5.71,17.05-14.88,20.47-3.15,1.17-6.42,1.74-9.63,1.74"/>
        <path class="cls-4" d="M313.88,341.12c-3.21,0-6.48-.57-9.63-1.74-9.16-3.42-14.72-11.07-14.88-20.47-.11-6.73,3.96-13.18,10.13-16.05,4.98-2.32,13.41-1.83,18.01,2.57,3.6,3.46,4.58,9.54,2.33,14.46-1.96,4.28-5.85,6.58-10.41,6.15-2.7-.26-5.34-2.34-6.42-5.05-.93-2.33-.56-4.7,1.02-6.52.87-1,2.4-1.11,3.4-.24,1.01.87,1.11,2.4.24,3.4l-.18,1.56c.45,1.13,1.61,1.97,2.41,2.05,3.35.32,4.93-1.97,5.56-3.36,1.4-3.07.85-6.92-1.28-8.97-2.99-2.86-9.24-3.26-12.63-1.68-4.47,2.07-7.42,6.73-7.34,11.6.12,7.45,4.4,13.29,11.74,16.03,6.95,2.59,16.76,2.04,23.08-5.01,4.81-5.38,6.44-13.1,4.26-20.15-2.07-6.68-7.04-11.44-13.63-13.05-1.29-.32-2.09-1.62-1.77-2.91.32-1.29,1.62-2.09,2.91-1.77,8.15,1.99,14.54,8.08,17.09,16.3,2.69,8.66.67,18.16-5.27,24.79-4.68,5.23-11.56,8.06-18.72,8.06"/>
      </g>
    </g>
  </g>
</svg>