<?xml version="1.0" encoding="UTF-8"?>
<svg id="Layer_1" data-name="Layer 1" xmlns="http://www.w3.org/2000/svg" xmlns:xlink="http://www.w3.org/1999/xlink" viewBox="0 0 688 530.3">
  <defs>
    <style>
      .cls-1 {
        fill: none;
      }

      .cls-2 {
        fill: #37373b;
      }

      .cls-3 {
        fill: #1f3d3a;
      }

      .cls-4 {
        clip-path: url(#clippath-1);
      }

      .cls-5 {
        clip-path: url(#clippath-3);
      }

      .cls-6 {
        clip-path: url(#clippath-2);
      }

      .cls-7 {
        clip-path: url(#clippath);
      }
    </style>
    <clipPath id="clippath">
      <rect class="cls-1" y="0" width="688" height="530.3"/>
    </clipPath>
    <clipPath id="clippath-1">
      <rect class="cls-1" x="85.9" y="26.3" width="511" height="504"/>
    </clipPath>
    <clipPath id="clippath-2">
      <rect class="cls-1" y="0" width="688" height="530.3"/>
    </clipPath>
    <clipPath id="clippath-3">
      <path class="cls-1" d="M347.76,0C194.46,0,70.18,49.92,70.18,111.5c0,3.65.45,7.26,1.3,10.82H0v406.68h74.29c-2.7-10.35-4.11-20.99-4.11-31.86,0-55.94,37.25-106,95.91-139.52,20.81-60.09,96.49-104.62,186.68-104.62,99.38,0,181.16,54.07,191.3,123.43,42,32.19,67.48,74.44,67.48,120.7,0,10.87-1.41,21.51-4.11,31.86h80.55V122.32h-63.96c.85-3.56,1.3-7.17,1.3-10.82C625.34,49.92,501.06,0,347.76,0Z"/>
    </clipPath>
  </defs>
  <g id="Walnut">
    <g class="cls-7">
      <g class="cls-4">
        <path class="cls-3" d="M335.56,26.3c3.02.2,4.95,1.7,7.23,3.51,1.36-.9,2.57-1.72,4.27-1.56,2.4.22,3.96,2.32,5.36,4.04,1.73-.25,4.02-.83,5.59.14,1.19.76,1.44,2.62,1.75,3.88.73-.43,1.47-.91,2.27-1.19,2.43-.85,4.86,1.3,7,2.24,2.51-1.01,4.97-3.59,7.76-3.59,2.04.02,3.41,1.36,4.77,2.68,2.2.2,4.95.26,6.59,1.97,1.55,1.62,1.47,4.01,1.52,6.1,1.69-.53,3.34-1.45,5-2.11,3.37.68,6.02,2.72,8.36,5.15-.31,1.04-.65,2.09-.99,3.11,1.33.2,3.08.28,4.24.99,2.07,1.27.15,2.51.54,4.07,1.1.99,1.44,1.7,2.17,2.93.52.9,1.72,1.07,2.66,1.39l1.59,2.04c2.66.6,3.98,1.02,5.74,3.23-.12,1.58-.77,3.65-.12,5.16.65,1.5,2.62.74,3.95,1.16,1.38.42,1.24,2.34,2.72,2.77,2.03.57,2.93-1.72,4.47-2.26,1.9-.67,3.99.43,5.73,1.16.65-.62,1.38-1.3,2.17-1.72.77-.42,1.59-.63,2.45-.26,1.27.56,1.72,2.12,2.26,3.3,1.56.67,3.03,1.45,4.52,2.26,1.02-.19,1.7-1.93,2.75-2.54,1.83-1.04,3.75-.31,5.6.22.56.7,1.04,1.49,1.55,2.21.76-.85,1.5-1.64,2.51-2.18.81-.42,1.67-.6,2.54-.29,1.78.62,2.43,2.31,3.22,3.85,2.01,1.04,3.39,1.95,4.75,3.79.96-.45,2.09-1.02,3.16-1.11,3.16-.26,5.74,2.68,7.85,4.61.46-.62.93-1.36,1.61-1.76,1.16-.68,2.77-.68,4.02-.33,1.76.5,3.33,1.72,4.16,3.34.91,1.76.96,4.32.34,6.18-.37.46-.7.5-1.25.62-.57.14-.73.14-1.19.53,1.05,1.05,1.19,1.84,1.47,3.28,9.15.29,6.35,5.63,12.88,10.17,2.1-.6,3.87-1.07,5.9.12,1.84,1.07,4.07,3.4,4.61,5.52,1.04,4.07-3.36,5.42-5.63,7.57-.6.57-1.08,1.41-1.52,2.12-.88-.48-2.17-1.49-3.17-1.38-.2.23-.39.48-.57.73l-.15.22c-.99.28-2.29-.29-3.31-.45l-.36.34c.45,1.53,2.93,1.98,3.68,3.33.64,1.1.08,3.11-.11,4.3.39.99.68,2.03,1.7,2.54,1.18.09,2.26-.59,3.3-1.07,1.9,1.5,3,2.96,4.27,4.98,3.02.73,3.31,2.14,5.19,4.33.14,0,.29.02.43.02,1.5-.02,2.21-1.39,3.2-2.29.53-.48,1.13-.76,1.87-.67,1.72.22,3.45,2.09,4.57,3.28.96-.29,2.12-.6,3.13-.53,2.29.17,3.64,2.03,5.03,3.62,1.16-.37,2.66-.96,3.87-.42,1.5.67,2.03,3.44,2.49,4.88.08-.23.17-.45.25-.68.43-1.08,1.04-1.8,2.15-2.21,1.05-.4,2.1-.31,3.13.14,2.21.98,2.93,2.34,3.72,4.47,1.15.37,2.82.73,3.75,1.5.46.4.49.8.56,1.39.28,2.52,3.92,1.78,5.03,3.51.36,1.67-.37,3.33-1.08,4.81l2.6,1.05c.33,1.11.57,2.24.85,3.38,1.11.96,2.52,1.9,3.4,3.08.62.82,1.01,1.73.77,2.79-.34,1.53-1.89,2.55-3.08,3.4-.96.03-2.11,0-3,.42-1.63.77-6.04,3.13-6.53,4.75.2.77.34.91.91,1.49,1.21.15,2.6-1.02,3.96-1.19,2.07-.26,4.74.73,6.3,2.11.6.53.87,1.02.88,1.81.02.48.05.77.25,1.22,1.53.22,2.46-.88,3.9-1.07.65-.09,1.21.12,1.69.56,1.7,1.61,1.66,4.02,1.64,6.18.93-.62,2.24-1.55,3.42-1.57,2.38-.05,2.8,3.51,4.01,5.02.8,1.02,1.92,1.95,2.83,2.91-.28,1.16-.73,2.31-1.11,3.44,1.39.12,2.79.06,4.18.05,1.39,1.32,3.37,1.69,4.5,3.06.33.99-.03,1.8-.32,2.76.82.4,1.67.84,2.41,1.36.87.62,1.36,1.63,1.52,2.66.17,1.25.06,2.58-.7,3.58.02.96,1.84,2.23,2.23,3.36.28.8.19,1.56-.2,2.3-1.89,3.62-5.34,2.65-8.65,3.14-1.33.2-2.68.7-3.96,1.11-.28.67-.45,1.58-.82,2.18-.37.62-.91.73-1.55.93-.71.22-1.07.34-1.58.88-.31.68-.43.96-.31,1.73.45.6.54.65,1.24.93,1.25-.08,2.06-1.13,3.19-1.62,1.86-.79,4.43.87,6.21,1.53,1.52.57,2.97,1.46,3.62,3.02.33.81.29,1.69-.09,2.48-.87,1.8-3.67,2.31-5.39,2.86l1.62,2.32c-.43.48-.99.99-1.27,1.58-.32.66-.12,1.08.16,1.73.05.12.11.25.16.36-.65,1.84-2.62,1.44-4.03,2.49-.79,1.62.29,3.1.76,4.67.26.91.31,1.86-.25,2.69-3.34,4.98-8.03-1.67-10.15-1.67-.85,0-2.09,1.13-3.19,1.22-1.81.14-3.13-.97-4.38-2.1-.79.43-1.5.91-2.24,1.44-.15,1.01.48,2,.7,3.02-.26.68-.4.94-1.1,1.24-1.72.73-3.16.25-4.8-.33-2.2.94-4.8,1.18-6.8,2.57-.59.4-.84.67-.94,1.36.05.06.09.14.14.2,1.72,1.81,4.57.22,6.59.85,1.18.37,1.89,1.92,3.14,2.03,1.46.14,2.97-.48,4.43-.26,1.62.23,3.27,1.42,4.18,2.74.25,2.06-1.75,1.83-2.4,3.31-.15.36.03.7.23.99,1.97,2.96,3.75-.31,5.67.19,1.22.31,1.72,1.45,2.32,2.46,1.24.11,3.41.11,4.26,1.18.43.54.62.98.43,1.67-.32,1.29-1.93,2.26-2.96,2.93.82.25,1.67.48,2.45.84,1.07.48,2.2,1.33,2.57,2.49.49,1.55-.28,2.91-.98,4.24l1.92,1.95c.05.7.05,1.47.2,2.15.2.94,1.19,1.44,1.93,1.93l.8,2.63c1.38,1.07,3.05,2.2,4.13,3.58.64.82,1.04,1.72.8,2.76-.36,1.6-2,2.46-3.25,3.27,1.53.88,2.94,1.79,4.34,2.89l.15,2.89c.62.59,1.27,1.18,1.78,1.86.6.8,1.1,1.62.93,2.65-.87.88-2.06.96-3.23,1.18l-.18.29c.18,1.44.2,2.57-.02,4.03.57.94,1.69,2.58,1.47,3.75-.08.45-.17.76-.54,1.04-2.4,1.81-7.57-1.21-10.12-1.73-1.62-.34-3.37-.33-5.03-.59-1.63.84-2.68.85-4.41,1.05l-.57,1.5c-.53.36-1.01.68-1.47,1.11l.93,1.89c2.06.37,4.27.68,6.13,1.66.99.51,1.98,1.33,2.21,2.48.15.79-.08,1.69-.54,2.32-.57.2-1.02.32-1.45.76.19.7.29,1.33.37,2.06-1.13,1.75-2.62.32-4.05,1.07-.79.4.11,2.01-.12,2.85-1.13,1.02-2.23,1.11-3.7,1.27,1.19,1.49,2.12,2.88,2.77,4.67-.82.57-1.52,1.02-2.06,1.87.09,1.1.79,1.7,1.22,2.71,0,.74-.11,1.07-.49,1.7-1.04.43-1.87.03-2.99.14-.53.42-1.22,1.07-1.89,1.21-2.37.45-6.3-2.06-8.41-3.11-.4.81-.91,1.55-1.41,2.31-1.95-.08-4.18.31-6.07-.09-2.57-.56-1.22-3.45-2.51-5-.4-.48-.96-.84-1.61-.77-2.14.17-4.98,2.06-6.47,3.56.87.5,1.78.99,2.59,1.56,1.45,1.05,1.52,2.63,1.75,4.26.8.51,1.98,1.13,2.31,2.07l-.42.71c-.09.15-.2.31-.29.48-1.01,1.78.53,2.57.67,4.19.03.4.01.79-.25,1.1-2.51,2.97-8.58-2.45-11.05-3.64-2.58-1.24-6.04-2.21-8.9-1.92l-.45.05c-.88-.59-1.95-1.55-3.05-1.39l-.42.56c-.08.73-.08,1.58-.46,2.2-.2.32-.57.43-.94.46-3.1.22-5.64-3.56-7.88-5.19l-.31-.22-2.48,2.03c-.97-.46-1.83-1.19-2.85-1.53l-.05.23c-.26,1.32-.53,3.21-1.79,3.93-2.68,1.53-10.99-9.16-13.13-11.08-1.75-1.58-3.74-2.94-5.98-3.72-6.18-2.12-15.42,2.08-22.29,2.11-3.5,0-6.98-.26-10.43-.77-4.67-.71-9.39-1.83-14.15-1.64-11.66.46-27.41,8.51-36.92,15.31-4.36,3.11-8.47,6.9-13.02,9.72-2.32,1.44-4.98,2.43-7.45,3.62-10.73,5.22-21.32,19.01-25.12,30.21-3.89,11.46-.46,17.29-.03,28.13.18,4.5-.51,9.1.18,13.57.77,4.99,2.74,9.69,3.5,14.68.54,3.53.26,7.2.43,10.76.37,7.66,3.02,15.48,6.41,22.32,2.35,4.72,5.35,8.96,9.86,11.84,2.14,1.36,5.02,2.24,7.43,3.02,5.96,1.92,12.01,3.5,17.77,5.99,5.37,2.32,10.46,5.29,15.77,7.77,4.04,1.89,8.19,3.33,12.41,4.72-13.2-1.38-26.41-3.98-39.72-3.73-5.29.09-10.65.42-15.9,1.05-6.66.81-13.25,1.94-19.97,2.18-6.9.26-14.05-.6-20.91-1.38-14.84-1.78-29.86-4.95-44.86-3.51-8.9.85-17.85,2.57-26.72,3.87-4.41.65-9.41,1.55-13.87,1.44,10.73-2.91,20.17-9.41,30.73-12.83,7.43-2.42,20-2.06,25.93-6.41,7.46-5.48,11.8-21.5,13.22-30.4,1.92-11.9,1.97-24.12,2.29-36.16.31-11.84,1.67-24.75-1.28-36.34-1.86-7.28-5.82-13.98-10.2-20.01-6.08-8.39-22.01-25.9-30.15-31.89-3.73-2.74-7.93-5.12-12.54-5.96-3.2-.59-6.44-.26-9.67-.17-4.07.11-8.13.02-12.15-.67-3.56-.59-7.06-1.5-10.46-2.72-3.31-1.21-6.53-2.85-10.05-3.4-.8,1.56-1.83,3-2.82,4.46.62,1.15,1.38,2.32,1.52,3.64.09.87-.08,1.58-.67,2.26-1.32,1.5-4.66,1.33-6.52,1.46-1.22,1.13-2.45,3.1-4.24,3.25-1.58.14-3.2-1.47-4.35-2.4-1.15,1.05-2.37,2.03-3.56,3.02-.37,1.29-.97,2.45-1.44,3.68-.85,2.24-1.16,5.31-3.39,6.7-1.02.63-2.2.68-3.33.34-1.32-.4-3.56-1.7-4.23-2.94-.17-.31-.03-.19-.35-.43-.06-.06-.14-.11-.22-.15-.48.3-.96.6-1.46.88-3.56,2.1-7.1,7.68-11.66,7.38-2.41-.15-3.68-1.84-5.11-3.56-.74.73-1.58,1.3-2.41,1.92-2.79-.65-3.75-.15-6.18,1.21-.34-.18-.68-.36-1.02-.54-2.12-1.11-4.58-.63-6.73-1.64-.88-.4-1.69-1.08-1.93-2.07-.49-1.97.74-2.76,1.53-4.29.31-.62.15-1.01-.03-1.62-.11-.39-.28-.79-.26-1.19.05-1.13,1.56-2.29,2.34-3-1.02-1.07-2.12-2.09-3.19-3.13-2.32-.43-4.81-.03-7.2-.09-1.16-1.92-1.67-4.15-2.27-6.3-1.25.51-2.68,1.77-4.01,1.86-1.24.09-2.06-1.01-2.83-1.79-1.25-.22-3.45-.45-4.33-1.47-.43-.49-.34-.85-.28-1.46.53-.91,1.52-1.04,2.31-1.66.85-.67-.12-2.04.02-2.99.76-.87,1.81-1.27,2.82-1.76-1.9-1.7-3.31-3.11-4.5-5.4-.88-.23-1.84-.56-2.76-.43-2.44.33-3,4.38-4.44,6.05-1.33,1.57-3.27,1.67-5.17,1.77-2.01.09-3.87,1.72-5.76,1.61-.7-.05-.84-.25-1.25-.73-.19-1.29.34-2.35.53-3.59.11-.71.11-.99-.32-1.55-1.67-.11-6.86,3.53-11.47,3.05-.76-.08-1.1-.14-1.58-.74-.03-.49-.03-1.08-.17-1.56-.19-.63-.48-.87-1.01-1.19-.43-.26-.65-.39-.9-.85-.01-1.76,1.39-3.73,2.24-5.22-.77,0-1.63-.05-2.38-.2-.74-.15-.98-.34-1.39-.96.02-.37.06-.79.03-1.16-.05-.79-.12-.77-.71-1.29-.68-.06-1.05-.05-1.64-.45-.42-1.58.34-3.64.73-5.2-1.01.29-2.04.65-3.1.64-.5-.02-1.02-.14-1.36-.53-.82-.96-.45-2.34-.29-3.48-1.55.51-3.44,1.11-4.95.17-.64-.39-.93-.82-1.08-1.55-.31-1.46.88-2.93,1.69-3.99,1.61-.73,3.47-1.8,5.2-2.07,1.75-.29,2.77.14,4.19,1.15,1.25-.2,2.54-.31,3.81-.45.84-1.39,1.93-3.27,1.47-4.95-.53-1.93-2.63-2.96-4.21-3.95-1.18.29-2.38.48-3.58.71l-1.56-1.64c-2.06.37-4.07.73-6.18.82-1.01-.53-2.11-1.19-2.75-2.17-.59-.88-.84-1.9-.62-2.94.67-3.17,4.47-5.46,6.97-7.12-.6-.66-1.24-1.32-1.69-2.09-.5-.85-.73-1.7-.39-2.68.57-1.63,2.65-2.34,4.07-2.97.67-2,1.44-2.46,3.17-3.48-.48-1.05-1.19-2.69-.93-3.85.6-2.68,6.18-1.11,8.62-2.76l.06-.37c-.5-.4-1.21-.9-1.5-1.47-.36-.68-.39-1.27-.19-2,.62-2.4,3.98-4.54,6.05-5.65l4.2.46c.11-1.13.15-2.34.4-3.44.25-1.1.99-2.29,1.97-2.86,2.2-1.29,5.51-.08,7.76.57.68-.91,1.73-2.07,2.12-3.14.26-.71.25-1.07-.03-1.76-1.6-.99-4.2-.23-5.94.03-.5-1.02-.79-2.15-1.13-3.24-2.88,1.33-4.07.2-7.03,2.04-1.19-.03-2.38-.15-3.57-.25-.77,1.07-1.64,1.93-2.57,2.85-2.42.25-5.85,1.87-8.11.98-.59-.23-1.05-.6-1.24-1.24-.59-2,1.19-3.99,1.95-5.68-.09-1.01-.25-1.7.36-2.57.63-.25,1.22-.49,1.83-.83-.08-.05.05-.17.09-.25.53-1.19,2.72-5.14,2.34-6.18-.67-.37-1.24-.68-1.75-1.25-.06-.45-.08-.99-.22-1.41-.2-.6-.42-.67-1.01-.8-1.16-.25-2.48.06-3.67-.03-.93-.08-7.62-1.49-8.13-1.8-.57-.36-.99-.8-1.13-1.5-.37-1.97,1.21-5.12,2.14-6.84,3.03-.9,2.55-2.85,4.54-3.9,1.22-.65,2.44-.14,3.7.18.59-1.01,1.3-2.07,1.69-3.17.39-1.13-.7-1.96-1.13-2.94-.36-.77-.36-1.52-.02-2.29.84-1.89,3.53-3.02,5.32-3.75.32-1.53.6-2.99,1.39-4.36,1.08-.77,2.26-1.29,3.45-1.83-.12-.17-.25-.32-.36-.49-.4-.53-.83-.98-.99-1.64-.17-.71-.09-1.5.26-2.14.32-.56,1.02-.88,1.64-1.01,2.23-.4,3.81.19,5.62,1.38.14-1.76.28-3.53.99-5.18,1.13-2.6,3.37.8,4.86.12.57-.26.51-1.56,1.49-1.93,4.5,1.22,2.03-2.29,4.69-3.78,1.7-.17,2.8.87,4.1,1.81.36-.88.68-2.01,1.27-2.77.46-.59.93-.79,1.66-.9,1.76.39,2.69,1.8,3.79,3.11.63-.93,1.3-1.84,2.37-2.31,1.95-.85,3.99.23,5.77,1.01.34-.62.71-1.21,1.1-1.8,2.37-3.42,5.23-2.38,8.75-3.1.87-.17,1.36-.32,1.87-1.05-.08-.34-.03-.57-.37-.76-1.18-.65-3.34.06-4.6.32-1.55-2.83-3.84-3.11-5.22-6.42.93-1.1,2.07-1.98,3.19-2.9l-3.61.39c-1.69-.84-3.53-1.64-5.03-2.77-.96-.71-2.01-1.72-2.14-2.99-.03-.39,0-.9.15-1.27.31-.71,1.05-.99,1.55-1.55.68-.79,1.13-1.83,1.78-2.68,1.01-.6,2.23-.57,3.37-.68.09-.08.17-.14.26-.22,1.87-1.56,3.03-1.55,5.39-1.7-1.13-.8-3.53-1.9-3.78-3.37-.19-1.13.91-2.37,1.53-3.25.15-1.87-2.49-1.5-3.38-2.86-.48-.76-.49-1.75-.19-2.57.5-1.36,3.53-5.94,4.69-6.47,2.79-1.28,7.21-1.13,10.03-.14.14-1.9.53-5.03,2.01-6.35,1.81-.39,3.08,1.66,4.66,2.32.7.29,1.24.22,1.93-.03.12-.34.17-.6.2-.98.08-1.11.14-2.12.68-3.11,1.81-3.28,4.75-1.25,7.42-2.4.7-.29.71-.43.94-1.1-1.02-5.43-10.74-3.11-13.93-7.12-.42-.53-.45-1.13-.31-1.75.47-1.97,2.77-3.61,4.33-4.67.62-1.8,1.15-3.59,2.23-5.17.87-1.27,1.64-1.59,3.13-1.89,1.3-.25.66-2.58,1.47-3.56,1.24-.37,2.82.17,4.06.42,1.98-2.68,1.24-3.24,2.37-6.01.56-1.38,1.62-2.55,3.02-3.14,2.17-.91,4.24-.11,6.25.74.12-.12.26-.25.37-.39.45-.59.2-1.42.08-2.07-.08-.42-.03-.7.22-1.08,1.53-2.34,6.47-2.85,8.95-3.48.5-1.33.9-3.05,2.09-3.92.62-.45,1.33-.68,2.1-.54,2.2.42,3.73,2.85,4.91,4.57,1.62-1.36,2.48-3.13,3.51-4.94,2.1-.87,3.33-2.4,5.26-3.44,2.12-1.14,4.15-.42,6.3.15.26-.96.51-1.97,1.01-2.83.54-.93,1.41-1.95,2.52-2.14,2.4-.4,4.21,2.55,6.04,3.64,1.92-.43,1.95-4.32,3.81-5.39.85-.49,1.42-.36,2.34-.15,3.05.7.98-.65,3.71-1.81l-.2-.22-.32-.34c-.32-.34-.68-.68-.97-1.07-.4-.56-.53-1.28-.34-1.95.68-2.41,5.97-4.22,8.13-5.22-.39-.43-.77-.87-1.1-1.33-.64-.94-.76-2.29-.46-3.39.53-1.93,2.48-3.42,4.16-4.3,2.88-1.5,5.34-1.36,8.31-.45l2.1,2.23c2.42-1.9,3.45-4.16,6.56-5.2,1.7.64,3.22,1.56,4.71,2.6,2.82-4.18,5.16-3.95,9.03-6.39.09-.06.18-.12.26-.17.18-1.66.28-3.08,1.21-4.52,1.02-1.58,2.48-2.69,4.35-3.02,2.57-.45,4.44.65,6.41,2.09,1.01-1.67,2.4-2.45,4.01-3.45.12-.96.2-1.92.65-2.8.79-1.55,2.88-2.01,4.38-2.54,1.14.34,2.31.64,3.45.94.23-1.01.42-2.01.6-3.02,1.48-1.5,3.27-2.79,5.37-3.22,3.54-.73,6.56,1.27,9.33,3.2,2.62-2.18,4.01-3.39,7.55-3.28,1.19-.98,2.28-1.8,3.38-2.6M388.72,268.75c-1.53-.15-2.94-.26-4.38-.9-2.99,5.23-5.54,11.05-9.1,15.88-3.28,4.43-7.32,8.19-10.9,12.37-8,9.32-9.58,21.19-11.22,32.89,2.32-2.45,4.61-4.92,7-7.29,2.65-2.66,5.43-5.15,8.48-7.35,2.18-1.56,4.86-2.85,6.75-4.75,4.8-4.83,7.45-13.74,10.98-19.72,1.53-2.6,3.98-4.35,5.85-6.66,2.28-2.8,4.06-6.53,5.56-9.81-2.37-.05-5.76.34-7.55-1.45-.88-.87-1.15-2.04-1.46-3.2M385.96,306.43c3.34-.83,6.66-1.47,10.09-1.8,6.28-.59,14.66.39,18.45-5.96,3.02-5.05.43-10.62.45-16.01,0-2.26.87-4.43.82-6.72-.51-.82-1.18-1.04-2.07-1.32-15.19,14.21-21.58,9.75-30.36,32.44l2.62-.65ZM260.36,316.95l.19.28c2.96,4.61,4.58,9.69,8.51,13.68,5.7,5.77,12.66,9.72,19.18,14.41,6.13,4.4,12.04,9.29,17.88,14.09,2.61,2.15,12.6,11.76,14.67,12.52l.22-.03c1.55-8.25-2.46-16.93-7-23.59-8.13-11.9-20.6-21.84-34.41-26.21-6.33-2.01-12.9-3.19-19.24-5.15M463.97,325.62c-.65-.25-1.9-.6-2.35-1.1-2.04-2.31-.25-3.33-4.97-3.56-4.61,1.04-8.59,3.36-13.02,4.89-12.14,4.2-17.32,3.78-27.14,13.5-2.69,2.66-5.32,5.48-7.37,8.68-.53.84-.97,1.72-1.41,2.6l6.33-2.43c16.56-6.59,36.92-9.58,49.92-22.58M453.79,345.99c10.63,1.58,18.9,2,29.07-2.35,4.81-2.06,9.13-4.04,14.32-5.05-.84-1.73-1.86-5.05-3.64-5.97-.36-.19-.71-.19-1.1-.19-18.03,2.24-29.39,2.32-45.71,12.01,2.34.59,4.69,1.1,7.06,1.55M409.24,312.68c-4.12.54-8.23,1.12-12.26,2.14-12.17,3.11-24.88,9.75-32.63,19.83-6.9,8.96-12.2,24.41-10.74,35.77.36,2.83,1.15,5.51,2.43,8.05,5.88-1.72,10.53-7.79,15.77-10.87,6.24-3.67,13.96-4.68,19.77-8.99,3.48-2.59,6.25-6.52,8.34-10.28,3.95-7.11,4.74-14.91,6.92-22.58,1.24-4.35,2.99-8.51,4.07-12.91l-.26-.29-1.41.14ZM444.43,312.45c-6.33-.48-12.83-1.61-19.18-1.07-3.99.19-8,.42-11.98.96-2.2,9.27-4.4,18.5-6.38,27.82,3.5-3.25,7.07-6.42,10.73-9.51,5.54-4.39,11.18-8.71,17.15-12.52,3.14-2.03,6.45-3.78,9.66-5.68M325.02,336.56l3.13,2.88c2.55-10.8-3.62-21.31-9.13-30.23-5.09-8.25-10.17-12.75-17.29-18.95-1.95-1.7-3.82-3.61-5.88-5.15-3.5,6.66-7.91,15.82-5.68,23.54,2.14,7.32,17.48,14.54,23.84,18.93,3.95,2.69,7.52,5.76,11.02,8.98M273.36,292.39c2.4,3.98,4.75,8.02,7.9,11.45,1.18,1.47,2.37,2.94,3.5,4.44-.19-8.51,4.38-18.79,8.31-26.27-1.35-1.63-2.66-2.96-4.43-4.13-2.09,2.76-6.04,4.52-9.46,5.05-1.22.18-1.73.03-2.73-.68-.36-.25-.73-.51-1.08-.77-1.1.8-1.3,2.58-1.49,3.88-.36,2.37-.51,4.68-.53,7.03M267.05,346.3l.47-.29c-.5-.82-1.72-1.39-2.52-1.9-6.07-3.81-12.94-6.79-19.92-8.47-5.09-1.22-10.15-1.47-15.37-1.61.01,1.84-.22,3.17-.98,4.88,3.07,1.83,6.44,2.93,9.83,4.01,9.85,3.11,18.2,4.4,28.5,3.39M253.06,290.59c.42.87,1.9,3.3,1.52,4.02-.06.12-.43.53-.54.65.19.5.45.77.77,1.18,1.56,1.97.82,6.36,1.1,8.85,5.01,3.3,16.58,6.19,22.78,6.67l.33-.31c-2.62-3.84-4.75-8.23-7.51-11.9-5.12-2.32-10.73-3.51-15.18-7.04-1.07-.84-1.98-1.69-3.27-2.12M334.58,265.08c-.05.08-.11.15-.15.22-1.59,2.15-3.17,1.24-3.98,4.26-1.67,1.92-5.46.28-7.31,2.34-1.58,1.78-1.62,13.14-1.44,15.84.71,10.59,8.95,16.82,14.66,24.86l2.49,3.73c2.86-8.42,7.93-21.69,5.73-30.49-1.25-5.03-4.18-10.31-6.49-14.97-.96-1.93-2.04-4.16-3.51-5.77M339.24,249.42c.84,6.72,4.63,12.8,8.07,18.48l1.92,2.6c3.17-8.78,2.07-17.43-1.95-25.8-.22-.43-.42-.76-.74-1.12l-.47-.08c-1.32.57-2.55.96-3.93,1.29l-2.9,4.63ZM394.13,245.02c1.66-.34,3.41-.59,5.03-1.07.2-2.4.7-4.78,1.1-7.15-2.01-.43-3.95-1.42-5.96-1.7-8.51,1.67-16.24,4.88-24.23,8.13-7.06,9.12-8.16,19.52-10.34,30.43-.82,4.12-2.12,8.34-2.46,12.52,3.92-2.17,6.47-4.18,9.23-7.69,3.96-5.76,8.34-10.12,13.1-15.14-2.31-.91-6.16-2-7.29-4.37-.45-.94-.36-1.96.03-2.92.68-1.72,2.6-4.16,4.27-4.89.95-.42,1.81-.23,2.79-.03.99-.3,1.67-1.15,2.38-1.86,1.29-.06,2.63.08,3.58-.94,1.33-1.41.8-4.49,3.16-4.78,2-.28,3.84.7,5.62,1.47M431.22,285.44c2.8-1.28,5.65-2.43,8.62-3.28-1.56-.74-5.56-2.14-6.05-3.88-.09-.33-.08-.77-.08-1.1-.42-.56-.73-.96-1.44-1.11-.43-.09-1.05.05-1.5.11-.79.09-1.38.12-2.06-.37-1.01-.74-1.53-2.14-2.06-3.23-1.27-.6-2.54-1.21-3.81-1.8-2.6,8.91-2.35,12.03-1.15,21.13,3.07-2.37,6.11-4.58,9.52-6.46M204.55,317.14c6.39,3.51,13.4,5.79,20.23,8.31,2.15.17,4.26-.06,6.41-.06-3.13-4.95-7.63-9.04-12.49-12.24-1.01.5-1.95,1.02-3.08.63-.65-.23-1.22-.65-1.8-1.01-.43-.26-.25-.18-.77-.25-2.91,1.42-5.79,2.88-8.5,4.61M228.62,313.1c-.57.28-1.15.57-1.72.88v.36c11.39,10.29,14.41,11.33,28.62,16.18l.68.09c.32-.67.17-1.01-.06-1.67-1.47-4.26-4.41-8.25-7.06-11.86-2.2-.37-20.35-3.99-20.46-3.98M419.58,302.26c2.99-.25,6.07-.64,9.07-.46,4.3.19,8.25,1.86,12.6,1.73-.93-1.1-2.49-2.62-2.28-4.18.08-.63.6-1.33.93-1.87-.01-.65.03-.73-.45-1.21-.31-.29-.65-.54-.99-.8-.67-.51-1.32-1.04-1.44-1.93-.15-1.15.84-2.28,1.56-3.02.39-.39.79-.74,1.19-1.12.09-.08.17-.15.26-.23.65-.56,1.38-.63,2.18-.82.43-.09.76-.22,1.16-.43-.37-.45-.12-.31-.79-.37-.43-.05-.84-.05-1.27,0-8.62,3.11-15.62,7.91-21.75,14.72M216.59,285.22c.54-.26,1.22-.7,1.79-.87.68-.22,1.13-.39,1.62-.91.88-.91,4.07-2.03,4.09-3.16,0-.28-.01-.99.11-1.25.4-.9,2.71-2.66,3.48-3.39.5-.48,1.04-1.1,1.79-.98,1.13.17,1.93,1.55,3.04.8,1.32-.88,1.01-2.62,1.61-3.82.37-.74,2.48-1.67,3.22-2.09-.67-.88-1.76-1.19-2.83-1.35-1.59.14-2.97.2-4.41.96-1.18.62-2.48,1.33-3.74,1.69-2.29.63-6.55.39-8.33,1.49-.84.53-1.29,1.5-1.56,2.41-1.11,3.53-1.01,6.98.12,10.46M457.15,314.37c.34-1.07.77-2.12.7-3.25-.34-.37-.17-.29-.46-.36-7.88,2.21-14.49,5.37-21.31,9.84-1.77,1.16-3.72,2.32-5.14,3.9l.05.39.33.11c8.23-1.35,19.7-4.75,25.85-10.63M326.03,158.26c1.33,0,2.58,0,3.89-.28l.23-.34c-.42-.99-1.44-2.49-1.24-3.54.45-.5.9-.94,1.39-1.38.11-2.12.03-2.29,1.3-4.12-.26-3.05-.4-7.09-1.8-9.84-1.01,1.38-2.04,2.76-3.02,4.16-.91.28-1.83.56-2.77.76-1.02,3.33-2.57,9.29-.94,12.6.45.91,1.08,1.44,2.06,1.74.29.09.6.17.9.25M182.81,311.78c1.05.91,2.06,1.72,3.25,2.43,3.76-.06,7.4-.93,10.99-1.98,1.39-.45,3.7-.9,4.64-2.03-.7-1.36-3.65-2.12-5.06-2.57-3.41-1.1-6.95-2-10.48-2.58-.2.96-.42,1.73-.84,2.62-.65,1.36-.76,2.6-1.97,3.62-.11.09-.22.2-.33.29-.08.08-.14.14-.22.2M208.77,294.31c-3.84-1.46-9.61-4.86-13.82-4.07-.14.09-.26.2-.4.29-.45.31-.79.42-1.32.54-1.78.45-3.56,1.64-5.2,2.51-.09.98.49,2.11,1.08,2.88,2.8,3.62,9.44,4.74,13.72,5.2,1.18-.12,2.6-.23,3.51-1.11.85-.82.88-2.43.96-3.53.11-1.24.7-1.84,1.47-2.71M337.2,146.36h.87c.39-.46.4-.54.37-1.18-.14-2.23-1.52-4.6-2.63-6.47l-2.37-.05-1.07.2c-.76,1.56.99,6.15,1.45,7.88l3.37-.39ZM378.76,230.95c-2.82,2.23-4.57,4.32-6.25,7.48,1.9-.65,3.82-1.27,5.71-1.98,2.83-1.11,5.48-2.82,8.36-3.76-2.69-.11-5.53-.11-7.82-1.73M529.03,220.59l-.34-.03c-2.91-.25-5.32.3-8.14-.79-1.11.93-2.31,1.81-3.19,2.97l.06.54c1.39.87,3.71.74,5.36,1.16.91.23,1.33.22,2.21-.15,1.52-1.15,2.82-2.26,4.04-3.7M457.78,261.2l-1.21-1.8-3.93-1.19c-1.77.81-3.55,1.55-5.37,2.21,2.17.42,4.64.6,6.04,2.57.59.84.96,1.93,1.35,2.88,1.56.88,4.29,1.81,4.8,3.67.22.8-.11,1.62-.34,2.4,2.09-1.32,3.61-3.59,5.05-5.54-1.25-.67-2.83-1.35-3.54-2.63.01-.54.01-1.1,0-1.64-.93-.37-1.87-.65-2.83-.93M472.02,327.56c-1.19.73-2.83,1.62-3.42,2.94.08.15.12.34.26.45,3.81-.68,7.6-1.13,11.42-1.67.29-.65.94-1.7.87-2.38l-.14-.06c-2.97.53-5.99.68-8.99.73M518.96,325.39c1.33-.76,2.66-1.35,4.09-1.9-2.74.02-5-.22-7.57-1.15-.53-.19-.77-.17-1.33-.08-.97.22-2.09.34-2.93.9.28.57.57.68,1.14.9,1.92.71,3.9.85,5.77,1.76.28-.14.57-.23.82-.43M303.89,163.43c-1.47-3.31-4.43-4.92-7.58-6.3.09,1.35.18,2.69.4,4.02.96.98,1.9,1.97,2.96,2.86,1.41-.15,2.82-.29,4.23-.59M367.09,232.92l-.46,3.23c-1.81.88-3.02,1.64-4.38,3.16l-2.49-.74c-1.02.42-2.07.91-3.16,1.18.29,1.84.67,3.47,1.32,5.22l.5.77.37.02c2.77-2.46,10.57-10.17,11.32-13.4-.36-.28-.17-.23-.53-.22l-2.48.79ZM140.38,313.47c-.08.14-.15.28-.25.42-.79,1.25-2.38,1.55-2.17,3.24.49.52.84.79,1.5,1.07.36-.05.7-.08,1.02-.2,1.05-.65,2.18-1.12,2.88-2.17.02-.39.12-.57-.15-.9-.63-.79-1.89-1.15-2.83-1.46M409.47,244.87l-.03-.43c-.65-.36-1.19-.25-1.89-.17-1.5-1.13-3.36-3.02-5.03-3.79-.12,1.52-.28,3.03-.36,4.54,2.52.2,4.8.45,7.31-.14M173.28,312.91c-.34-1.78-1.16-3.22-2.18-4.69-1.83-.09-3.64-.11-5.48-.06,1.24,2.21,2.54,4.13,5.16,4.83.9.23,1.59.14,2.51-.08M524.78,205.39c-.54-.79-3.53-6.04-3.81-6.27-.14-.11-.33-.12-.48-.18-1.61.99-3.28,1.93-4.74,3.14.51,1.72.96,3.44,1.3,5.22.15.8.56,4.94.84,5.34.06.09.2.11.29.17.6-.39,1.07-.77,1.59-1.27,2.76-2.54-.19-4.38,5-6.14M528.91,229.29c-.85.19-1.45.29-2.12.9-.23.74-.23.76.05,1.49.67.62,1.29,1.07,2.26.99.37-.03.45-.09.8-.22,1.83-.59,2.18-1.56,3.02-3.14l-4.01-.02ZM544.65,227.42c1.45.91,2.96,1.73,4.1,3.05.06.08.12.14.18.2.94-.57,1.59-1.24,2.35-2.03-.59-.84-1.11-1.83-2.03-2.34h-.9l-3.71,1.11ZM328.32,243.61l.74.45.22-.2c-.39-2.37-.5-5.36-2.63-6.9-.93-.68-2.18-.71-3.3-.87-.74.15-1.93.28-2.52.73,1.72,2.57,5.05,4.91,7.49,6.8M283.64,158.21c-.05-1.45-.36-2.88-.62-4.3-2.83-.98-5.46-1.41-8.48-1.24-.19.76-.33.88.09,1.58,1.61,2.6,6.22,3.28,9.01,3.96M434.26,207.1c1.83-2.6,6.19-6.56,9.33-7.38.4-.11.77-.06,1.18-.05.82.03,1.13.14,1.78-.37.28-1.15.03-2.04-.6-3.03-.23-.36-.5-.59-.84-.85l-.25-.02c-1.95.37-3.86.53-5.84.63-2.96,3.62-5.37,8.02-7.15,12.32,1.3.37,2.57.81,3.92.88-.56-.68-1.1-1.33-1.53-2.14M250.1,193.74c-3.24-.6-6.5-.65-9.74-1.11-.76.51-1.56.93-1.98,1.76.14.68.15.77.82,1.15,2.52,1.47,6.16.82,9.01,2.52l1.14,2.41,2.35.96c.67,1.35,1.16,2.52,2.4,3.45.76.05,1.16.19,1.83-.2-.28-2.29-4.46-8.58-5.84-10.94M366.32,141.13c.82-.11,1.9,0,2.45-.71.05-.05.36-.7.37-.73.74-1.45,3.22-2.94,3.51-4.26l-.2-.03c-2.34.74-5.29,1.25-6.55,3.64-.23.45-.31.68-.19,1.21.11.46.22.63.6.88M338.47,237.84c.22-1.01.48-2.07-.2-2.97-.6-.8-1.72-1.11-2.65-1.35.67,1.45,1.24,2.97,2.24,4.23.2.03.4.11.6.09M433.28,197.56l2.1-3.05c-2.55-1.49-4.72-3.84-6.98-5.74-1.22-.2-2.42-.4-3.65-.46.17.79.16,1.36.84,1.89.51.39,1.47.67,2.07.91l.2.33c1.24,1.98,1.9,6.36,3.73,7.52.7-.09.91-.31,1.33-.87.2-.23.23-.31.36-.53M149.27,225.46c1.1.14,1.69-.6,2.55-1.27.68-.53,1.25-1.07,1.81-1.74,0-.56.11-.46-.31-.91-.32-.03-.7-.11-1.01-.02-1.56.37-4.81.6-5.73,1.92.5,1.21,1.55,1.5,2.68,2.01M511.06,215.04c.51-.82.31-1.55.08-2.48-.5-1.97-1.41-3.87-2.26-5.71-2.57-.09-5.15-.25-7.71-.43-.19,1.08-.77,2.72-.09,3.67,1.5,2.06,4.89,4.6,7.48,5.01.81.12,1.69.02,2.51-.06M357.39,136.74c1.07.17,1.8.28,2.73-.4.73-.53,1.36-1.16,1.42-2.11.03-.45-.17-.7-.36-1.08-.6-.37-1.18-.54-1.86-.73-1.44.56-3.27,1.04-4.44,2.01-.09.39-.23.51.03.87.57.68,1.69,1.1,2.48,1.44M315.41,144.39c-.91.4-1.47.53-2.07,1.35.03,1.33.42,1.73,1.36,2.63.56.54,1.13,1.04,1.76,1.49.76-.21,1.22-.31,1.56-1.1.42-.96.34-1.86-.09-2.79-.25-.53-.51-.82-.97-1.19l-1.55-.39ZM306.06,237.9c1.73,3.92,4.92,6.69,8.85,8.25,2.43.96,5.05,1.62,7.55,2.38-.53-1.92-1.35-3.23-3.13-4.23-2.32-1.29-5.08-1.42-7.49-2.46-2.18-.94-3.75-2.8-5.79-3.95M406.45,275.87c-.79-.5-3-2.54-3.68-2.66-.87.15-1.47.09-2.04.85-1.53,2.03-2.17,5.2-3.36,7.51l3.61-2.17c1.83-1.16,3.69-2.31,5.48-3.53M266.57,277.9c-.51.54-1.02,1.04-1.58,1.52-.73.6-1.14,1.42-1.21,2.38-.05.73.26,1.3.76,1.83,1.29,1.36,3.21,2.74,4.77,3.78l.68.39c.6-.33.7-.64.87-1.29.45-1.73.36-3.79.42-5.59-1.5-1.24-2.92-2.29-4.71-3.02M256.03,185.78c-.01.09-.05.19-.06.28-.87,3.24-3.9,5.88-2.01,9.33.63,1.16,1.5,2.24,2.29,3.33.2-1.63.29-3.08.14-4.71-.03-1.01-.08-1.97.76-2.69.94-.84,2.77-1.08,3.98-1.38.71-.93,1.44-1.72,1.69-2.88-.12-.34-.11-.57-.46-.73-1.8-.82-4.21.25-6.32-.56M315.99,276.04c-1.75.88-3.25,2.12-4.98,2.97-2.15-.28-6.89-1.61-8.84-1.04l-.23.46c.54,1.1,1.52,1.52,2.55,2.09,2.52,1.35,5.09,2.69,8.03,1.79,1.81-.56,3.27-1.9,4.09-3.59.37-.76.76-1.69.65-2.55-.45-.12-.81-.17-1.27-.14M473.2,268.47c-1.93-.2-3.84-.56-5.6-1.41-3.11,4.12-6.38,8.05-9.67,12,1.73-.34,3.47-.6,5.2-.85.8-.14,1.13-.08,1.67-.79.84-1.13,1.3-2.62,2.27-3.65,1.86-1.98,4.32-3.17,6.13-5.29M302.02,153.4l-2.07,2.55c2.32,2.46,5.73,6.16,9.32,6.32.67.02,1.33.02,2,0,.54-.9,1.13-1.78,1.61-2.71-3.81-3.95-6.38-3.36-10.48-5.91l-.37-.25ZM260.86,284.29c-1.3-.17-2.49-.29-3.81-.19-.93.54-1.84,1.1-2.74,1.67,4.98,5.05,8.34,5.91,14.35,9.06l1.89.66.18-.09c-1.33-2.43-4.35-4.67-6.32-6.73-1.3-1.35-2.45-2.86-3.56-4.38M204.5,257.09c0,.09,0,.18.02.26,0,1.19-.36,1.92-.91,2.94.68,4.12,2.97,8.4,5.37,11.78l.81-1.72c.71-1.5,1.52-2.85,2.44-4.24-1.11-.59-2.12-1.16-2.51-2.43-.59-1.86,1.11-4.92-.88-6.1-1.19-.71-2.97-.49-4.34-.49M197.64,277.67c-1.46,1.35-1.95,3.2-3.48,4.54,2.6.91,5.26,1.78,7.79,2.91,2.46,1.1,4.83,2.43,7.29,3.53.73.11,1.02.29,1.66-.11.32-1.19-.49-2.48-1.07-3.48-1.55-2.66-3.48-5.09-5.71-7.21-1.3.4-2.6.81-3.92,1.11-.87-.4-1.73-.8-2.55-1.28"/>
      </g>
      <g class="cls-6">
        <path d="M390.34,276.01c.74-.15,1.16.08,1.78.46l.08.7c-.67-.17-1.29-.53-1.9-.83l.05-.33Z"/>
        <path class="cls-2" d="M325.13,395.96c3.64,5.63,5.02,13.75,6.38,20.25,4.4,21.07,6.73,35.79,2.88,57.35-2.04,11.38-6.55,30.99-16.39,37.85l-.12-.08c.11-.62,4.06-4.58,4.94-5.9,4.72-7,7.31-15.03,9.24-23.19,6.16-25.94,3.79-44.08-1.76-69.67-.79-3.65-2.01-7.18-3.25-10.71-.6-1.73-1.52-3.68-1.83-5.48-.05-.14-.06-.28-.08-.42"/>
        <path class="cls-2" d="M339.97,403.98l.23.32c-2.82,10.14,2.34,25.17,4.61,35.32.98,4.32,1.67,8.59,2.15,12.99l-.4-.34c-1.01-3.23-.98-6.98-1.69-10.34-2.37-11.15-8.57-26.86-4.91-37.95"/>
        <path class="cls-2" d="M363.28,378.4s.05.08.03.12c-.09,1.72-8.82,10.87-10.43,12.37-3.98,3.68-8.7,6.62-11.64,11.3-.03-.14-.06-.28-.06-.42.06-1.19,1.84-3.02,2.66-3.89,2.76-2.93,6.3-5.05,9.13-7.91,3.65-3.68,6.55-7.99,10.31-11.58"/>
        <path class="cls-2" d="M344.94,481.79c.12.19.29.36.39.57.34.88.23,11.87.59,14.35.93,6.55,3.03,12.77,5.15,19.01-.2-.09-.33-.14-.48-.33-.93-1.15-1.55-3.51-2.01-4.92-3.08-9.46-4.09-18.79-3.64-28.68"/>
        <path class="cls-2" d="M359.65,477.76c.12,2.31-2.54,8.39-3.11,11.19-.79,3.92-.67,7.94-.65,11.92-.06-.12-.14-.25-.17-.37-1.96-5.9,1.52-17.37,3.93-22.74"/>
      </g>
      <g class="cls-5">
        <path class="cls-3" d="M328.53,16.19c3.78.2,6.21,1.7,9.06,3.51,1.71-.9,3.22-1.72,5.36-1.56,3.01.22,4.97,2.32,6.71,4.04,2.17-.25,5.04-.84,7,.14,1.49.76,1.81,2.62,2.19,3.89.91-.43,1.84-.91,2.85-1.19,3.05-.85,6.09,1.3,8.77,2.24,3.14-1.01,6.23-3.59,9.72-3.59,2.56.02,4.27,1.36,5.97,2.68,2.76.2,6.21.26,8.26,1.97,1.94,1.62,1.84,4.01,1.9,6.1,2.11-.52,4.19-1.45,6.27-2.1,4.23.68,7.54,2.72,10.48,5.15-.39,1.04-.82,2.09-1.24,3.11,1.67.2,3.86.28,5.32.99,2.6,1.27.19,2.51.68,4.07,1.38.99,1.8,1.7,2.72,2.93.66.9,2.15,1.07,3.34,1.39l2,2.04c3.34.6,4.98,1.02,7.2,3.23-.16,1.58-.97,3.65-.16,5.15.82,1.5,3.28.74,4.95,1.16,1.73.42,1.55,2.34,3.41,2.77,2.54.57,3.67-1.72,5.61-2.26,2.39-.67,5.01.43,7.18,1.16.82-.62,1.73-1.3,2.72-1.72.97-.42,2-.63,3.07-.26,1.59.56,2.15,2.12,2.83,3.3,1.96.67,3.8,1.45,5.66,2.26,1.28-.19,2.13-1.93,3.45-2.54,2.29-1.04,4.69-.31,7.02.22.7.7,1.3,1.49,1.94,2.21.95-.85,1.88-1.64,3.14-2.18,1.01-.42,2.1-.6,3.18-.3,2.23.62,3.04,2.31,4.03,3.86,2.52,1.04,4.25,1.95,5.96,3.79,1.2-.45,2.62-1.02,3.96-1.11,3.96-.26,7.2,2.68,9.84,4.61.58-.62,1.16-1.36,2.02-1.76,1.45-.68,3.47-.68,5.04-.33,2.21.5,4.17,1.72,5.22,3.34,1.15,1.76,1.2,4.32.43,6.17-.47.46-.87.5-1.57.62-.72.14-.91.14-1.49.53,1.32,1.05,1.49,1.84,1.84,3.28,11.46.29,7.95,5.63,16.14,10.17,2.64-.6,4.85-1.07,7.39.12,2.31,1.07,5.1,3.41,5.78,5.53,1.3,4.07-4.21,5.42-7.06,7.57-.76.57-1.36,1.41-1.9,2.12-1.1-.48-2.72-1.49-3.98-1.38-.25.23-.48.48-.72.73l-.19.22c-1.24.28-2.87-.29-4.15-.45l-.45.34c.56,1.53,3.67,1.98,4.62,3.33.79,1.1.1,3.11-.14,4.3.48.99.85,2.03,2.13,2.54,1.47.09,2.83-.59,4.13-1.07,2.39,1.5,3.76,2.96,5.35,4.98,3.78.73,4.15,2.14,6.5,4.33.18,0,.37.02.54.02,1.88-.02,2.77-1.39,4.01-2.29.66-.48,1.42-.76,2.35-.67,2.15.22,4.33,2.09,5.72,3.28,1.2-.29,2.66-.6,3.92-.53,2.87.17,4.56,2.03,6.3,3.62,1.46-.37,3.34-.96,4.85-.42,1.88.67,2.54,3.44,3.12,4.88.1-.23.21-.45.31-.68.54-1.08,1.3-1.8,2.7-2.21,1.32-.4,2.64-.31,3.92.14,2.77.98,3.67,2.34,4.65,4.47,1.44.37,3.53.73,4.7,1.5.58.4.62.8.7,1.39.35,2.52,4.91,1.78,6.31,3.51.45,1.67-.47,3.33-1.36,4.81l3.26,1.05c.41,1.11.72,2.24,1.07,3.38,1.4.96,3.16,1.9,4.27,3.08.78.82,1.26,1.73.97,2.79-.43,1.53-2.37,2.55-3.86,3.4-1.2.03-2.64,0-3.76.42-2.04.77-7.57,3.13-8.19,4.75.25.77.43.91,1.14,1.49,1.51.15,3.26-1.02,4.97-1.19,2.6-.26,5.94.73,7.89,2.11.76.53,1.09,1.02,1.11,1.81.02.48.06.77.31,1.22,1.92.22,3.08-.88,4.89-1.07.81-.09,1.51.12,2.11.56,2.13,1.61,2.08,4.02,2.06,6.18,1.16-.62,2.81-1.55,4.29-1.57,2.99-.05,3.51,3.52,5.02,5.02,1.01,1.02,2.41,1.95,3.55,2.91-.35,1.16-.91,2.31-1.4,3.44,1.75.12,3.49.06,5.24.05,1.75,1.32,4.23,1.69,5.64,3.06.41.99-.04,1.8-.41,2.76,1.03.4,2.1.84,3.03,1.36,1.09.62,1.71,1.62,1.9,2.66.21,1.25.08,2.58-.87,3.58.02.96,2.31,2.23,2.79,3.36.35.8.23,1.56-.25,2.31-2.37,3.62-6.69,2.65-10.84,3.14-1.67.2-3.36.7-4.97,1.11-.35.67-.56,1.58-1.03,2.18-.47.62-1.15.73-1.94.93-.89.22-1.34.34-1.98.88-.39.68-.54.96-.39,1.73.56.6.68.65,1.55.93,1.57-.08,2.58-1.13,3.99-1.62,2.33-.79,5.55.87,7.78,1.53,1.9.57,3.72,1.46,4.54,3.02.41.8.37,1.69-.12,2.48-1.09,1.8-4.6,2.31-6.75,2.86l2.04,2.32c-.54.48-1.24.99-1.59,1.58-.41.67-.15,1.08.19,1.73.06.12.14.25.19.36-.82,1.84-3.28,1.44-5.04,2.49-.99,1.62.37,3.1.95,4.67.33.91.39,1.86-.31,2.69-4.19,4.98-10.07-1.67-12.73-1.67-1.07,0-2.62,1.13-4,1.22-2.27.14-3.92-.98-5.49-2.11-.99.43-1.88.91-2.81,1.44-.19,1.01.6,2,.87,3.02-.33.68-.5.94-1.38,1.24-2.15.73-3.96.25-6.01-.33-2.76.95-6.01,1.18-8.52,2.57-.74.4-1.05.67-1.18,1.36.06.06.12.14.17.2,2.15,1.81,5.72.22,8.26.85,1.48.37,2.37,1.92,3.94,2.03,1.82.14,3.73-.48,5.55-.26,2.04.23,4.09,1.42,5.24,2.74.31,2.06-2.19,1.83-3.01,3.31-.19.36.04.7.29.99,2.46,2.96,4.7-.31,7.1.19,1.53.31,2.15,1.46,2.91,2.46,1.55.11,4.27.11,5.34,1.18.54.54.78.98.54,1.67-.41,1.28-2.42,2.26-3.7,2.92,1.03.25,2.09.48,3.06.84,1.34.48,2.75,1.33,3.22,2.49.62,1.55-.35,2.91-1.22,4.24l2.41,1.95c.06.7.06,1.47.25,2.15.25.94,1.49,1.44,2.42,1.93l1.01,2.63c1.73,1.07,3.82,2.2,5.18,3.57.8.82,1.3,1.72,1.01,2.76-.45,1.6-2.5,2.46-4.07,3.27,1.92.88,3.69,1.8,5.43,2.9l.19,2.89c.78.59,1.59,1.18,2.23,1.86.76.8,1.38,1.62,1.16,2.65-1.09.88-2.58.96-4.05,1.18l-.23.29c.23,1.44.25,2.57-.02,4.02.72.94,2.11,2.59,1.84,3.75-.1.45-.21.76-.68,1.04-3.01,1.81-9.48-1.21-12.69-1.73-2.04-.34-4.23-.33-6.3-.59-2.04.84-3.36.85-5.53,1.05l-.72,1.5c-.66.36-1.26.68-1.84,1.11l1.16,1.89c2.58.37,5.35.68,7.68,1.66,1.24.51,2.48,1.33,2.77,2.48.19.79-.1,1.69-.68,2.32-.72.2-1.28.32-1.82.76.23.7.37,1.33.46,2.06-1.42,1.75-3.28.32-5.08,1.07-.99.4.14,2.01-.15,2.85-1.42,1.02-2.79,1.12-4.64,1.27,1.49,1.49,2.66,2.88,3.47,4.67-1.03.57-1.9,1.02-2.58,1.87.12,1.1.99,1.7,1.53,2.71,0,.74-.14,1.07-.62,1.7-1.3.43-2.35.03-3.74.14-.66.42-1.53,1.07-2.37,1.21-2.97.45-7.9-2.06-10.53-3.11-.5.8-1.14,1.55-1.76,2.31-2.44-.08-5.24.31-7.6-.09-3.22-.56-1.53-3.45-3.14-5-.5-.48-1.2-.83-2.02-.77-2.68.17-6.24,2.06-8.11,3.56,1.09.5,2.23.99,3.24,1.56,1.82,1.05,1.9,2.63,2.19,4.26,1.01.51,2.48,1.13,2.89,2.07l-.53.71c-.12.15-.25.31-.37.48-1.26,1.78.66,2.57.84,4.19.04.4.02.79-.31,1.1-3.14,2.97-10.75-2.44-13.85-3.64-3.24-1.24-7.57-2.21-11.15-1.92l-.56.05c-1.11-.59-2.44-1.55-3.82-1.39l-.52.56c-.1.73-.1,1.58-.58,2.2-.25.32-.72.43-1.18.46-3.88.21-7.06-3.56-9.87-5.19l-.39-.22-3.1,2.03c-1.22-.46-2.29-1.19-3.57-1.53l-.06.23c-.33,1.32-.66,3.2-2.25,3.93-3.36,1.53-13.77-9.16-16.45-11.08-2.19-1.58-4.69-2.94-7.49-3.71-7.74-2.12-19.32,2.07-27.93,2.1-4.38,0-8.75-.26-13.07-.77-5.86-.71-11.77-1.83-17.73-1.64-14.61.46-34.35,8.51-46.26,15.31-5.47,3.11-10.61,6.9-16.31,9.72-2.91,1.44-6.25,2.43-9.33,3.62-13.44,5.22-26.71,19.01-31.48,30.21-4.87,11.46-.58,17.29-.04,28.13.23,4.5-.64,9.1.23,13.57.97,4.99,3.44,9.69,4.39,14.68.68,3.53.33,7.2.54,10.76.47,7.66,3.78,15.48,8.03,22.32,2.95,4.72,6.71,8.96,12.36,11.84,2.68,1.36,6.29,2.24,9.31,3.02,7.47,1.92,15.05,3.5,22.27,5.99,6.73,2.32,13.11,5.29,19.77,7.77,5.06,1.89,10.26,3.33,15.56,4.72-16.55-1.38-33.09-3.98-49.78-3.73-6.63.09-13.35.42-19.92,1.05-8.34.81-16.6,1.94-25.02,2.18-8.65.26-17.61-.6-26.21-1.38-18.6-1.78-37.42-4.95-56.21-3.51-11.15.85-22.37,2.57-33.48,3.87-5.53.65-11.79,1.55-17.38,1.44,13.44-2.91,25.28-9.41,38.51-12.83,9.31-2.42,25.06-2.06,32.49-6.41,9.35-5.48,14.78-21.5,16.57-30.4,2.4-11.9,2.46-24.12,2.87-36.16.39-11.84,2.09-24.75-1.61-36.34-2.33-7.28-7.29-13.98-12.78-20.01-7.62-8.39-27.58-25.9-37.79-31.89-4.67-2.74-9.93-5.12-15.71-5.96-4.02-.59-8.07-.26-12.12-.17-5.1.11-10.18.01-15.23-.67-4.46-.59-8.85-1.5-13.11-2.72-4.15-1.21-8.19-2.85-12.59-3.4-1.01,1.56-2.29,3-3.53,4.46.78,1.15,1.73,2.32,1.9,3.64.12.87-.1,1.58-.84,2.26-1.65,1.5-5.84,1.33-8.17,1.46-1.53,1.13-3.07,3.1-5.32,3.25-1.98.14-4.01-1.47-5.45-2.4-1.44,1.05-2.97,2.03-4.46,3.02-.47,1.29-1.22,2.44-1.8,3.68-1.07,2.24-1.45,5.31-4.25,6.7-1.28.63-2.76.68-4.17.34-1.65-.4-4.46-1.7-5.3-2.94-.21-.31-.04-.19-.45-.43-.08-.06-.18-.11-.27-.15-.6.29-1.2.6-1.82.88-4.46,2.1-8.9,7.68-14.61,7.38-3.03-.15-4.62-1.84-6.4-3.56-.93.73-1.98,1.3-3.03,1.92-3.49-.65-4.69-.15-7.74,1.21-.43-.18-.85-.36-1.28-.54-2.66-1.11-5.74-.63-8.44-1.64-1.11-.4-2.12-1.08-2.43-2.07-.62-1.97.93-2.76,1.92-4.29.39-.62.19-1.01-.04-1.62-.14-.39-.35-.79-.33-1.19.06-1.13,1.96-2.29,2.93-3-1.28-1.07-2.66-2.09-4-3.13-2.91-.43-6.03-.03-9.02-.09-1.45-1.92-2.09-4.15-2.85-6.3-1.57.51-3.36,1.76-5.02,1.86-1.55.09-2.58-1.01-3.55-1.8-1.57-.22-4.32-.45-5.43-1.47-.54-.49-.43-.85-.35-1.46.66-.91,1.9-1.04,2.89-1.66,1.07-.67-.15-2.04.02-2.99.95-.87,2.27-1.27,3.53-1.76-2.39-1.7-4.15-3.11-5.65-5.4-1.1-.23-2.31-.56-3.45-.43-3.06.32-3.76,4.38-5.57,6.05-1.67,1.57-4.09,1.67-6.48,1.76-2.52.09-4.85,1.72-7.22,1.61-.87-.05-1.05-.25-1.57-.73-.23-1.28.43-2.35.66-3.59.14-.71.14-.99-.41-1.55-2.09-.11-8.59,3.53-14.37,3.05-.95-.08-1.38-.14-1.98-.74-.04-.49-.04-1.08-.21-1.56-.23-.63-.6-.87-1.26-1.19-.54-.26-.81-.39-1.12-.85-.02-1.76,1.75-3.73,2.81-5.22-.97,0-2.04-.05-2.99-.2-.93-.15-1.22-.34-1.75-.96.02-.37.08-.79.04-1.16-.06-.79-.15-.77-.89-1.28-.85-.06-1.32-.05-2.06-.45-.52-1.58.43-3.64.91-5.2-1.26.29-2.56.65-3.88.64-.62-.02-1.28-.14-1.71-.53-1.03-.96-.56-2.34-.37-3.48-1.94.51-4.31,1.11-6.21.17-.8-.39-1.16-.82-1.36-1.55-.39-1.46,1.11-2.93,2.11-3.99,2.02-.73,4.35-1.79,6.52-2.07,2.19-.29,3.47.14,5.26,1.15,1.57-.2,3.18-.31,4.77-.45,1.05-1.39,2.43-3.27,1.84-4.95-.66-1.94-3.3-2.96-5.28-3.95-1.47.29-2.99.48-4.48.71l-1.96-1.64c-2.58.37-5.1.73-7.74.82-1.26-.53-2.64-1.19-3.45-2.17-.74-.88-1.05-1.9-.78-2.94.83-3.17,5.61-5.46,8.73-7.12-.76-.66-1.55-1.32-2.11-2.09-.62-.85-.91-1.7-.49-2.68.72-1.63,3.32-2.34,5.1-2.97.83-2,1.8-2.46,3.98-3.48-.6-1.05-1.49-2.69-1.16-3.85.76-2.68,7.74-1.11,10.8-2.76l.08-.37c-.62-.4-1.51-.9-1.88-1.47-.45-.68-.49-1.27-.23-2,.78-2.4,4.99-4.54,7.59-5.65l5.26.46c.13-1.13.19-2.34.5-3.44.31-1.1,1.24-2.29,2.46-2.86,2.76-1.29,6.91-.08,9.72.57.85-.91,2.17-2.07,2.66-3.14.33-.71.31-1.07-.04-1.76-2-.99-5.26-.23-7.45.03-.62-1.02-.99-2.15-1.42-3.23-3.61,1.33-5.1.2-8.81,2.04-1.49-.03-2.99-.15-4.48-.25-.97,1.07-2.06,1.93-3.22,2.85-3.03.25-7.33,1.87-10.17.98-.74-.23-1.32-.6-1.55-1.24-.74-2,1.49-3.99,2.44-5.68-.12-1.01-.31-1.7.45-2.57.79-.25,1.53-.49,2.29-.84-.1-.05.06-.17.12-.25.66-1.19,3.41-5.14,2.93-6.18-.83-.37-1.55-.68-2.19-1.26-.08-.45-.1-.99-.27-1.41-.25-.6-.53-.67-1.26-.8-1.46-.25-3.1.06-4.6-.03-1.16-.08-9.54-1.49-10.18-1.8-.72-.36-1.24-.8-1.42-1.5-.46-1.97,1.51-5.12,2.68-6.84,3.8-.9,3.2-2.85,5.68-3.9,1.53-.65,3.06-.14,4.64.18.74-1.01,1.63-2.07,2.11-3.17.49-1.13-.87-1.96-1.42-2.94-.45-.77-.45-1.52-.02-2.29,1.05-1.89,4.42-3.02,6.67-3.75.41-1.53.76-2.99,1.75-4.36,1.36-.77,2.83-1.29,4.33-1.83-.15-.17-.31-.32-.45-.49-.5-.53-1.05-.98-1.24-1.64-.21-.71-.12-1.5.33-2.14.41-.56,1.28-.88,2.06-1.01,2.79-.4,4.77.19,7.04,1.38.18-1.76.35-3.53,1.24-5.18,1.42-2.6,4.23.8,6.09.12.72-.26.64-1.56,1.86-1.93,5.65,1.22,2.54-2.29,5.88-3.78,2.13-.17,3.51.87,5.14,1.81.45-.88.85-2.01,1.59-2.77.58-.59,1.16-.79,2.08-.9,2.21.39,3.38,1.8,4.75,3.11.79-.93,1.63-1.84,2.97-2.31,2.44-.85,5,.23,7.23,1.01.43-.62.89-1.21,1.38-1.79,2.97-3.42,6.56-2.38,10.96-3.1,1.09-.17,1.71-.32,2.35-1.05-.1-.34-.04-.57-.46-.76-1.48-.65-4.19.06-5.76.33-1.94-2.83-4.81-3.11-6.54-6.42,1.16-1.1,2.6-1.98,4-2.89l-4.52.39c-2.11-.83-4.42-1.64-6.3-2.77-1.2-.71-2.52-1.72-2.68-2.99-.04-.39,0-.9.19-1.27.39-.71,1.32-.99,1.94-1.55.85-.79,1.42-1.83,2.23-2.68,1.26-.6,2.79-.57,4.23-.68.12-.08.21-.14.33-.22,2.35-1.56,3.8-1.55,6.75-1.7-1.42-.8-4.42-1.9-4.73-3.37-.23-1.13,1.14-2.37,1.92-3.25.19-1.87-3.12-1.5-4.23-2.86-.6-.76-.62-1.75-.23-2.57.62-1.36,4.42-5.94,5.88-6.47,3.49-1.28,9.04-1.13,12.57-.14.17-1.9.66-5.03,2.52-6.35,2.27-.39,3.86,1.66,5.84,2.32.87.29,1.55.22,2.42-.03.16-.34.21-.6.25-.98.1-1.11.17-2.12.85-3.11,2.27-3.28,5.96-1.25,9.29-2.4.87-.29.89-.43,1.18-1.1-1.28-5.43-13.46-3.11-17.46-7.12-.52-.53-.56-1.13-.39-1.75.58-1.97,3.47-3.61,5.43-4.67.78-1.8,1.43-3.59,2.79-5.17,1.09-1.27,2.06-1.59,3.92-1.89,1.63-.25.83-2.59,1.84-3.56,1.55-.37,3.53.17,5.08.42,2.48-2.68,1.55-3.24,2.97-6.01.7-1.38,2.04-2.55,3.78-3.14,2.72-.91,5.31-.11,7.84.74.16-.12.33-.25.47-.39.56-.59.25-1.42.1-2.07-.1-.42-.04-.7.27-1.08,1.92-2.34,8.11-2.85,11.21-3.48.62-1.33,1.12-3.05,2.62-3.92.78-.45,1.67-.68,2.64-.54,2.75.42,4.68,2.85,6.15,4.57,2.04-1.36,3.1-3.13,4.4-4.94,2.64-.87,4.17-2.4,6.6-3.44,2.66-1.15,5.2-.42,7.9.15.33-.96.64-1.97,1.26-2.83.68-.93,1.77-1.95,3.16-2.14,3.01-.4,5.28,2.55,7.57,3.64,2.4-.43,2.44-4.32,4.77-5.39,1.07-.49,1.78-.36,2.93-.15,3.82.7,1.22-.65,4.65-1.81l-.25-.22-.41-.34c-.41-.34-.85-.68-1.22-1.07-.51-.56-.66-1.29-.43-1.95.85-2.41,7.49-4.22,10.18-5.22-.49-.43-.97-.87-1.38-1.33-.79-.94-.95-2.29-.58-3.39.66-1.93,3.1-3.42,5.22-4.3,3.61-1.5,6.69-1.36,10.42-.45l2.64,2.23c3.03-1.9,4.33-4.16,8.23-5.2,2.13.64,4.03,1.56,5.9,2.6,3.53-4.18,6.46-3.95,11.31-6.39.12-.06.23-.12.33-.17.23-1.66.35-3.08,1.51-4.52,1.28-1.58,3.1-2.69,5.45-3.02,3.22-.45,5.57.65,8.03,2.09,1.26-1.67,3.01-2.45,5.02-3.45.16-.96.25-1.92.82-2.8.99-1.55,3.61-2.01,5.49-2.54,1.43.34,2.89.64,4.33.94.29-1.01.52-2.01.76-3.02,1.86-1.5,4.09-2.79,6.73-3.22,4.44-.73,8.23,1.27,11.7,3.2,3.28-2.18,5.02-3.39,9.47-3.28,1.49-.98,2.85-1.8,4.23-2.6M395.15,258.64c-1.92-.15-3.69-.26-5.49-.9-3.74,5.23-6.94,11.05-11.4,15.88-4.11,4.43-9.18,8.19-13.66,12.37-10.03,9.32-12.01,21.19-14.06,32.89,2.91-2.45,5.78-4.92,8.77-7.29,3.32-2.66,6.81-5.15,10.63-7.35,2.73-1.56,6.09-2.85,8.46-4.75,6.01-4.83,9.33-13.74,13.75-19.72,1.92-2.6,4.98-4.35,7.33-6.66,2.85-2.8,5.08-6.53,6.96-9.81-2.97-.05-7.22.34-9.47-1.46-1.11-.87-1.43-2.04-1.82-3.2M391.69,296.32c4.19-.83,8.34-1.47,12.65-1.8,7.88-.59,18.37.39,23.12-5.96,3.78-5.05.54-10.62.56-16.01,0-2.26,1.09-4.43,1.03-6.72-.64-.82-1.47-1.04-2.6-1.32-19.03,14.21-27.04,9.75-38.04,32.44l3.28-.65ZM234.3,306.84l.23.28c3.71,4.61,5.74,9.69,10.67,13.68,7.14,5.77,15.87,9.72,24.04,14.41,7.68,4.4,15.09,9.29,22.4,14.09,3.28,2.15,15.79,11.76,18.39,12.52l.27-.03c1.94-8.25-3.09-16.93-8.77-23.59-10.18-11.9-25.82-21.84-43.12-26.21-7.93-2.01-16.16-3.19-24.11-5.15M489.46,315.51c-.81-.25-2.39-.6-2.95-1.1-2.56-2.31-.31-3.33-6.23-3.56-5.78,1.04-10.77,3.36-16.31,4.89-15.21,4.2-21.71,3.78-34.01,13.5-3.38,2.66-6.67,5.48-9.23,8.68-.66.84-1.22,1.72-1.77,2.6l7.93-2.43c20.76-6.59,46.27-9.58,62.56-22.58M476.7,335.88c13.33,1.58,23.68,2,36.43-2.35,6.03-2.06,11.45-4.04,17.94-5.05-1.05-1.73-2.33-5.05-4.56-5.97-.45-.19-.89-.19-1.38-.19-22.6,2.24-36.84,2.32-57.28,12.01,2.93.59,5.88,1.1,8.85,1.55M420.87,302.57c-5.16.54-10.32,1.11-15.36,2.14-15.25,3.11-31.17,9.75-40.89,19.83-8.65,8.96-15.29,24.41-13.46,35.77.45,2.83,1.44,5.51,3.05,8.05,7.37-1.72,13.19-7.79,19.77-10.87,7.82-3.67,17.5-4.68,24.77-8.99,4.37-2.59,7.84-6.52,10.46-10.28,4.95-7.1,5.94-14.91,8.67-22.58,1.55-4.35,3.74-8.51,5.1-12.91l-.33-.29-1.76.14ZM464.96,302.34c-7.93-.48-16.08-1.61-24.04-1.07-5,.19-10.03.42-15.01.96-2.75,9.27-5.51,18.5-7.99,27.82,4.38-3.25,8.86-6.42,13.44-9.5,6.95-4.4,14.01-8.71,21.49-12.52,3.94-2.03,8.09-3.78,12.1-5.68M315.32,326.45l3.92,2.88c3.2-10.81-4.54-21.31-11.45-30.23-6.38-8.25-12.74-12.75-21.67-18.95-2.44-1.7-4.79-3.61-7.37-5.15-4.38,6.66-9.91,15.82-7.12,23.54,2.68,7.32,21.9,14.54,29.87,18.93,4.95,2.69,9.43,5.76,13.81,8.98M250.59,282.28c3.01,3.98,5.96,8.02,9.89,11.45,1.48,1.47,2.97,2.94,4.39,4.44-.23-8.51,5.49-18.79,10.42-26.27-1.69-1.62-3.34-2.96-5.55-4.13-2.62,2.75-7.57,4.52-11.85,5.05-1.53.18-2.17.03-3.42-.68-.44-.25-.91-.51-1.36-.77-1.38.8-1.63,2.58-1.86,3.88-.44,2.37-.64,4.68-.66,7.03M242.68,336.19l.58-.3c-.62-.82-2.15-1.39-3.16-1.9-7.6-3.81-16.22-6.8-24.96-8.47-6.38-1.22-12.73-1.47-19.26-1.61.02,1.84-.27,3.17-1.22,4.88,3.84,1.83,8.07,2.93,12.32,4.01,12.34,3.11,22.81,4.4,35.71,3.39M225.14,280.48c.52.87,2.39,3.3,1.9,4.02-.08.12-.54.53-.68.65.23.5.56.77.97,1.18,1.96,1.97,1.03,6.36,1.38,8.85,6.29,3.3,20.78,6.19,28.55,6.67l.41-.31c-3.28-3.84-5.96-8.24-9.41-11.9-6.42-2.32-13.44-3.51-19.03-7.04-1.34-.84-2.48-1.69-4.09-2.12M327.31,254.97c-.06.08-.14.15-.19.22-2,2.15-3.98,1.24-4.98,4.26-2.1,1.92-6.85.28-9.16,2.34-1.98,1.78-2.04,13.14-1.8,15.83.89,10.59,11.21,16.83,18.37,24.86l3.12,3.73c3.59-8.42,9.93-21.69,7.18-30.49-1.57-5.03-5.24-10.31-8.13-14.97-1.2-1.93-2.56-4.16-4.41-5.77M333.15,239.31c1.05,6.72,5.8,12.8,10.11,18.48l2.41,2.6c3.98-8.78,2.6-17.43-2.44-25.8-.27-.43-.52-.76-.93-1.12l-.58-.08c-1.65.57-3.2.96-4.93,1.29l-3.63,4.63ZM401.94,234.91c2.07-.34,4.27-.59,6.3-1.07.25-2.4.87-4.78,1.38-7.15-2.52-.43-4.95-1.42-7.47-1.7-10.67,1.67-20.35,4.88-30.36,8.13-8.85,9.12-10.22,19.52-12.96,30.43-1.03,4.12-2.66,8.34-3.08,12.52,4.91-2.17,8.11-4.18,11.56-7.69,4.97-5.76,10.46-10.12,16.41-15.14-2.89-.91-7.72-2-9.14-4.37-.56-.94-.45-1.96.04-2.93.85-1.72,3.26-4.16,5.35-4.89,1.18-.42,2.27-.23,3.49-.03,1.24-.29,2.1-1.15,2.99-1.86,1.61-.06,3.3.08,4.48-.94,1.67-1.41,1.01-4.49,3.96-4.78,2.5-.28,4.81.7,7.04,1.47M448.41,275.33c3.51-1.28,7.08-2.43,10.8-3.28-1.96-.74-6.96-2.14-7.58-3.89-.12-.33-.1-.77-.1-1.1-.52-.56-.91-.96-1.8-1.11-.54-.09-1.32.05-1.88.11-.99.09-1.73.12-2.58-.37-1.26-.74-1.92-2.14-2.58-3.24-1.59-.6-3.18-1.21-4.77-1.79-3.26,8.91-2.95,12.03-1.44,21.13,3.84-2.37,7.66-4.58,11.93-6.46M164.35,307.03c8.01,3.51,16.8,5.79,25.35,8.31,2.7.17,5.33-.06,8.03-.06-3.92-4.95-9.56-9.04-15.65-12.24-1.26.5-2.44,1.02-3.86.63-.81-.23-1.53-.65-2.25-1.01-.54-.26-.31-.18-.97-.25-3.65,1.42-7.25,2.88-10.65,4.61M194.51,302.99c-.72.28-1.43.57-2.15.88v.36c14.28,10.29,18.06,11.33,35.87,16.18l.85.09c.41-.67.21-1.01-.08-1.67-1.84-4.26-5.53-8.25-8.85-11.86-2.75-.37-25.51-3.99-25.64-3.98M433.83,292.15c3.74-.25,7.6-.64,11.37-.46,5.39.19,10.34,1.86,15.79,1.73-1.16-1.1-3.12-2.62-2.85-4.18.1-.63.76-1.33,1.16-1.87-.02-.65.04-.73-.56-1.21-.39-.29-.81-.54-1.24-.8-.83-.51-1.65-1.04-1.8-1.93-.19-1.15,1.05-2.28,1.96-3.02.49-.39.99-.74,1.49-1.11.12-.08.21-.15.33-.23.81-.56,1.73-.63,2.73-.82.54-.09.95-.22,1.45-.43-.46-.45-.15-.31-.99-.37-.54-.05-1.05-.05-1.59,0-10.8,3.11-19.57,7.91-27.25,14.72M179.44,275.11c.68-.26,1.53-.7,2.25-.87.85-.22,1.42-.39,2.04-.91,1.11-.91,5.1-2.03,5.12-3.16,0-.28-.02-.99.13-1.25.5-.9,3.4-2.66,4.37-3.39.62-.48,1.3-1.1,2.25-.98,1.42.17,2.42,1.55,3.8.8,1.65-.88,1.26-2.61,2.02-3.82.47-.74,3.1-1.67,4.03-2.09-.83-.88-2.21-1.19-3.55-1.35-2,.14-3.72.2-5.53.96-1.47.62-3.1,1.33-4.69,1.69-2.87.64-8.21.39-10.44,1.49-1.05.53-1.61,1.5-1.96,2.42-1.4,3.53-1.26,6.98.16,10.46M480.91,304.26c.43-1.07.97-2.12.87-3.25-.43-.37-.21-.29-.58-.36-9.87,2.21-18.16,5.37-26.71,9.85-2.21,1.16-4.66,2.32-6.44,3.9l.06.39.41.11c10.32-1.35,24.69-4.75,32.39-10.63M316.58,148.15c1.67,0,3.24,0,4.87-.28l.29-.34c-.52-.99-1.8-2.49-1.55-3.55.56-.49,1.12-.94,1.75-1.38.14-2.12.04-2.29,1.63-4.12-.33-3.05-.5-7.09-2.25-9.85-1.26,1.38-2.56,2.76-3.78,4.16-1.14.28-2.29.56-3.47.76-1.28,3.33-3.22,9.29-1.18,12.6.56.91,1.36,1.44,2.58,1.73.37.09.76.17,1.13.25M137.11,301.67c1.32.91,2.58,1.72,4.07,2.43,4.71-.06,9.27-.93,13.77-1.98,1.75-.45,4.64-.9,5.82-2.03-.87-1.36-4.58-2.12-6.34-2.57-4.27-1.1-8.71-2-13.13-2.58-.25.96-.52,1.73-1.05,2.62-.82,1.36-.95,2.6-2.46,3.62-.14.09-.27.2-.41.3-.1.08-.18.14-.27.2M169.64,284.2c-4.81-1.46-12.05-4.86-17.32-4.07-.17.09-.33.2-.5.29-.56.31-.99.42-1.65.54-2.23.45-4.46,1.64-6.52,2.51-.12.98.62,2.11,1.36,2.88,3.51,3.62,11.83,4.74,17.19,5.2,1.47-.12,3.26-.23,4.4-1.11,1.07-.82,1.11-2.43,1.2-3.53.14-1.24.87-1.84,1.84-2.71M330.59,136.25h1.09c.49-.46.51-.54.47-1.18-.17-2.23-1.9-4.6-3.3-6.47l-2.97-.04-1.34.2c-.95,1.56,1.24,6.15,1.82,7.88l4.23-.39ZM382.67,220.84c-3.53,2.23-5.72,4.32-7.84,7.48,2.39-.65,4.79-1.27,7.16-1.98,3.55-1.11,6.87-2.82,10.47-3.76-3.38-.11-6.92-.11-9.8-1.73M570.99,210.48l-.43-.03c-3.65-.25-6.67.29-10.2-.79-1.4.93-2.89,1.81-3.99,2.97l.08.54c1.74.87,4.66.74,6.71,1.16,1.14.23,1.67.22,2.77-.15,1.9-1.15,3.53-2.26,5.06-3.7M481.7,251.09l-1.51-1.79-4.93-1.19c-2.21.81-4.44,1.55-6.73,2.21,2.72.42,5.82.6,7.56,2.57.74.84,1.2,1.93,1.69,2.88,1.96.88,5.37,1.81,6.01,3.67.27.8-.14,1.62-.43,2.4,2.62-1.32,4.52-3.59,6.32-5.54-1.57-.66-3.55-1.35-4.44-2.63.02-.54.02-1.1,0-1.64-1.16-.37-2.35-.65-3.55-.93M499.55,317.44c-1.49.73-3.55,1.62-4.29,2.94.1.15.16.34.33.45,4.77-.68,9.53-1.13,14.32-1.67.37-.65,1.18-1.7,1.09-2.38l-.17-.06c-3.72.53-7.51.68-11.27.73M558.36,315.28c1.67-.76,3.34-1.35,5.12-1.9-3.43.02-6.26-.22-9.48-1.14-.66-.19-.97-.17-1.67-.08-1.22.22-2.62.34-3.66.9.35.57.72.68,1.43.9,2.41.71,4.89.85,7.24,1.76.35-.14.72-.23,1.03-.43M288.84,153.32c-1.84-3.31-5.55-4.92-9.51-6.3.12,1.35.23,2.69.5,4.02,1.2.98,2.39,1.97,3.7,2.86,1.76-.15,3.53-.29,5.3-.59M368.05,222.81l-.58,3.23c-2.27.88-3.78,1.64-5.49,3.16l-3.12-.74c-1.28.42-2.6.91-3.96,1.18.37,1.84.83,3.47,1.65,5.22l.62.77.47.02c3.47-2.46,13.25-10.17,14.18-13.4-.45-.28-.21-.23-.66-.22l-3.1.79ZM83.94,303.36c-.1.14-.19.28-.31.42-.99,1.25-2.99,1.55-2.72,3.23.62.53,1.05.79,1.88,1.07.45-.05.87-.08,1.28-.2,1.32-.65,2.73-1.11,3.61-2.17.02-.39.15-.57-.19-.9-.79-.79-2.37-1.15-3.55-1.45M421.16,234.76l-.04-.43c-.82-.36-1.49-.25-2.37-.17-1.88-1.13-4.21-3.02-6.3-3.79-.15,1.52-.35,3.03-.45,4.54,3.16.2,6.01.45,9.15-.14M125.16,302.8c-.43-1.78-1.45-3.22-2.74-4.69-2.29-.09-4.56-.11-6.87-.06,1.55,2.21,3.18,4.13,6.46,4.83,1.12.23,2,.14,3.14-.08M565.66,195.28c-.68-.79-4.42-6.04-4.77-6.27-.17-.11-.41-.12-.6-.19-2.02.99-4.11,1.93-5.94,3.14.64,1.72,1.2,3.44,1.63,5.22.19.8.7,4.94,1.05,5.34.08.09.25.11.37.17.76-.39,1.34-.77,2-1.27,3.45-2.54-.23-4.38,6.27-6.15M570.84,219.17c-1.07.19-1.82.3-2.66.9-.29.74-.29.76.06,1.49.84.62,1.61,1.07,2.83.99.47-.03.56-.09,1.01-.22,2.29-.59,2.73-1.56,3.78-3.14l-5.02-.02ZM590.56,217.31c1.82.91,3.71,1.73,5.14,3.05.08.08.15.14.23.2,1.18-.57,2-1.24,2.95-2.03-.74-.84-1.4-1.83-2.54-2.34h-1.12l-4.66,1.12ZM319.45,233.5l.93.45.27-.2c-.49-2.37-.62-5.36-3.3-6.9-1.16-.68-2.73-.71-4.13-.87-.93.15-2.43.28-3.16.73,2.15,2.57,6.32,4.91,9.39,6.8M263.47,148.1c-.06-1.45-.45-2.88-.78-4.3-3.55-.98-6.85-1.41-10.63-1.24-.23.76-.41.88.12,1.58,2.02,2.6,7.8,3.28,11.29,3.96M452.22,196.99c2.29-2.6,7.76-6.56,11.7-7.38.5-.11.97-.06,1.47-.05,1.03.03,1.42.14,2.23-.37.35-1.15.04-2.04-.76-3.03-.29-.36-.62-.59-1.05-.85h-.31c-2.44.36-4.83.51-7.31.62-3.71,3.62-6.73,8.02-8.96,12.32,1.63.37,3.22.81,4.91.88-.7-.68-1.38-1.33-1.92-2.14M221.44,183.63c-4.05-.6-8.15-.65-12.2-1.11-.95.51-1.96.93-2.48,1.76.17.68.19.77,1.03,1.15,3.16,1.47,7.72.82,11.29,2.52l1.44,2.41,2.95.96c.83,1.35,1.46,2.52,3.01,3.45.95.05,1.46.19,2.29-.2-.35-2.29-5.59-8.58-7.31-10.94M367.08,131.01c1.03-.11,2.39,0,3.07-.71.06-.05.45-.7.47-.73.93-1.46,4.03-2.94,4.4-4.26l-.25-.03c-2.93.74-6.63,1.25-8.21,3.64-.29.45-.39.68-.23,1.21.13.46.27.63.76.88M332.18,227.73c.27-1.01.6-2.07-.25-2.97-.76-.81-2.15-1.12-3.32-1.35.83,1.46,1.55,2.97,2.81,4.23.25.03.5.11.76.09M450.99,187.45l2.64-3.05c-3.2-1.49-5.92-3.84-8.75-5.74-1.53-.2-3.03-.4-4.58-.46.21.79.19,1.36,1.05,1.89.64.39,1.84.67,2.6.91l.25.33c1.55,1.98,2.38,6.36,4.67,7.52.87-.09,1.14-.31,1.67-.87.25-.23.29-.31.45-.53M95.08,215.34c1.38.14,2.11-.6,3.2-1.27.85-.53,1.57-1.07,2.27-1.73,0-.56.14-.46-.39-.91-.41-.03-.87-.11-1.26-.02-1.96.37-6.03.6-7.18,1.92.62,1.21,1.94,1.5,3.36,2.01M548.47,204.93c.64-.82.39-1.55.1-2.48-.62-1.97-1.77-3.87-2.83-5.71-3.22-.09-6.46-.25-9.66-.43-.23,1.08-.97,2.72-.12,3.67,1.88,2.06,6.13,4.6,9.37,5.02,1.01.12,2.11.02,3.14-.06M355.88,126.63c1.34.17,2.25.28,3.41-.4.91-.53,1.71-1.16,1.79-2.1.04-.45-.21-.7-.45-1.08-.76-.37-1.47-.54-2.33-.73-1.8.56-4.09,1.04-5.57,2.01-.12.39-.29.51.04.87.72.68,2.11,1.1,3.1,1.44M303.28,134.28c-1.14.4-1.84.53-2.6,1.35.04,1.33.52,1.73,1.71,2.63.7.54,1.42,1.04,2.21,1.49.95-.22,1.53-.31,1.96-1.1.52-.96.43-1.86-.12-2.79-.31-.53-.64-.82-1.22-1.19l-1.94-.39ZM291.56,227.79c2.17,3.92,6.17,6.69,11.1,8.25,3.05.96,6.32,1.62,9.47,2.38-.66-1.92-1.69-3.24-3.92-4.23-2.91-1.29-6.36-1.42-9.39-2.46-2.74-.94-4.7-2.8-7.26-3.95M417.38,265.76c-.99-.5-3.76-2.54-4.62-2.66-1.09.15-1.84.09-2.56.85-1.92,2.03-2.71,5.2-4.21,7.51l4.52-2.17c2.29-1.16,4.62-2.31,6.87-3.53M242.08,267.79c-.64.54-1.28,1.04-1.98,1.52-.91.6-1.44,1.42-1.51,2.38-.06.73.33,1.3.95,1.83,1.61,1.36,4.02,2.74,5.98,3.78l.85.39c.76-.33.87-.64,1.09-1.29.56-1.73.45-3.79.52-5.59-1.88-1.24-3.67-2.29-5.9-3.02M228.86,175.67c-.02.09-.06.19-.08.28-1.09,3.24-4.89,5.88-2.52,9.33.79,1.16,1.88,2.24,2.87,3.33.25-1.63.37-3.08.17-4.71-.04-1.01-.1-1.97.95-2.69,1.18-.84,3.47-1.08,4.99-1.38.89-.93,1.8-1.72,2.11-2.88-.15-.34-.13-.57-.58-.73-2.25-.82-5.28.25-7.91-.56M304.01,265.93c-2.19.88-4.07,2.12-6.24,2.97-2.7-.28-8.63-1.61-11.08-1.04l-.29.46c.68,1.1,1.9,1.52,3.2,2.09,3.16,1.35,6.38,2.69,10.07,1.79,2.27-.56,4.09-1.9,5.12-3.59.47-.76.95-1.69.82-2.55-.56-.12-1.01-.17-1.59-.14M501.02,258.36c-2.42-.2-4.81-.56-7.02-1.41-3.9,4.12-7.99,8.05-12.12,12,2.17-.34,4.35-.6,6.52-.85,1.01-.14,1.42-.08,2.1-.79,1.05-1.13,1.63-2.62,2.85-3.65,2.33-1.98,5.41-3.17,7.68-5.29M286.5,143.29l-2.6,2.55c2.91,2.46,7.18,6.16,11.68,6.32.83.02,1.67.02,2.5,0,.68-.9,1.42-1.78,2.02-2.71-4.77-3.95-7.99-3.36-13.13-5.91l-.46-.25ZM234.92,274.18c-1.63-.17-3.12-.29-4.77-.19-1.16.54-2.31,1.1-3.43,1.67,6.25,5.05,10.46,5.91,17.98,9.06l2.37.67.23-.09c-1.67-2.43-5.45-4.67-7.91-6.73-1.63-1.35-3.06-2.86-4.46-4.38M164.29,246.98c0,.09,0,.18.02.26,0,1.19-.45,1.92-1.15,2.94.85,4.12,3.72,8.4,6.73,11.78l1.01-1.72c.89-1.5,1.9-2.85,3.06-4.24-1.4-.59-2.66-1.16-3.14-2.43-.74-1.86,1.4-4.92-1.11-6.1-1.49-.71-3.72-.49-5.43-.49M155.7,267.56c-1.82,1.35-2.44,3.2-4.37,4.54,3.26.91,6.6,1.78,9.76,2.91,3.08,1.1,6.05,2.43,9.14,3.53.91.11,1.28.29,2.07-.11.41-1.19-.62-2.48-1.34-3.48-1.94-2.66-4.37-5.09-7.16-7.21-1.63.4-3.26.8-4.91,1.11-1.09-.4-2.17-.8-3.2-1.28"/>
      </g>
    </g>
  </g>
</svg>