<?xml version="1.0" encoding="UTF-8"?>
<svg id="Layer_1" data-name="Layer 1" xmlns="http://www.w3.org/2000/svg" xmlns:xlink="http://www.w3.org/1999/xlink" viewBox="0 0 183.17 300.98">
  <defs>
    <style>
      .cls-1 {
        fill: none;
      }

      .cls-2 {
        fill: #16181a;
      }

      .cls-3 {
        clip-path: url(#clippath-1);
      }

      .cls-4 {
        fill: #fff;
      }

      .cls-5 {
        clip-path: url(#clippath);
      }
    </style>
    <clipPath id="clippath">
      <rect class="cls-1" width="183.17" height="300.98"/>
    </clipPath>
    <clipPath id="clippath-1">
      <rect class="cls-1" width="183.17" height="300.98"/>
    </clipPath>
  </defs>
  <g id="Artwork_22" data-name="Artwork 22">
    <g class="cls-5">
      <g class="cls-3">
        <path class="cls-2" d="M50.52,7.53C68.26-.13,88.03-.85,107.03.61c.15.49.45,1.47.61,1.97-19.05-1.85-38.8-.81-56.67,6.57-11.1,4.74-22.24,11.58-27.88,22.69-3.32,5.71-3.66,12.62-2.53,19,2.38,8.77,8.93,15.79,16.36,20.71,2.25,1.6,4.95,2.72,6.59,5.04-2.54,1.95-5.85,2.97-7.8,5.61,2.5-1.37,4.76-3.18,7.44-4.24.07.73.21,2.18.28,2.91.17-2.04.51-4.07.58-6.12-7.04-4.34-14.51-8.72-18.99-15.94-6.33-9.21-5.2-22.28,1.45-31.03,8.2-11.26,21.57-17.17,34.5-21.18,19.85-5.03,41.25-5.81,60.94.34,10.62,3.93,21.69,9.01,28.2,18.74,4.31,5.84,4.93,13.66,3.48,20.59-3.4,9.98-11.61,17.49-20.56,22.63-4.5,2.86-9.66,4.37-14.36,6.81,13.53-3.79,26.48-12.06,33.61-24.45,3.28-5.21,2.69-11.66,2.32-17.52-2.52-9.34-9.81-16.6-18.05-21.26-8.98-4.91-18.81-8.81-29.09-9.59.47-.59.94-1.18,1.42-1.77,11.44,1.88,22.68,5.74,32.22,12.44,7.47,5.2,13.92,12.95,15.4,22.14.39,7.72.82,15.92-2.5,23.12-5.56,10.74-16.02,18.02-27,22.47-3.13,1.19-6.36,2.24-9.73,2.45-.83-3.16-.75-6.43-.55-9.66,13.94-4.6,28.68-12.29,34.91-26.38,2.77-5.5.02-11.8-3.55-16.21-6.95-8.57-17.21-13.78-27.6-16.93-10.54-2.93-21.51-4.8-32.47-3.98-13.66,1.14-27.5,3.35-39.93,9.43-10.16,4.77-19.72,12.32-24.14,22.91-3.03,7.33,1.46,15.15,6.58,20.29,4.3,4.63,10.12,7.27,15.17,10.9.94,3.67.85,7.86.13,11.6-2.28,2.07-5.13,3.45-7.99,4.51-1.52.59-3.39-.55-3.35-2.19-.25-2.96-.24-5.95.31-8.88-8.22-5.64-15.13-14.15-16.22-24.35-.61-7.68-1.19-15.9,2.47-22.98,5.82-11.86,17.58-19.46,29.48-24.29"/>
        <path class="cls-2" d="M53.21,21.07c12.92-7.2,28.14-9.2,42.73-8.32,12.97.63,26.59,4.76,35.67,14.47,5.72,6.01,5.61,14.92,4.64,22.62-.93,6.56-5.73,11.88-11.24,15.18-7.97,5.13-17.35,7.46-26.57,9.08,1.34,1.41,3.23.81,4.88.47,1.91.81,1.96,2.65,1.84,4.48.38-.54,1.14-1.61,1.53-2.15,1.22.6,2.46,1.19,3.71,1.78-.03.58-.09,1.73-.11,2.31,2.73-.6,3.09,2.23,4.04,4.01-.09,2.76.83,5.47.32,8.24,19.24,3.79,38.06,11.91,52.15,25.83,2.81,3.03,5.93,5.98,7.61,9.83.34,3.7.18,7.43-.1,11.13-1.71.23-3.46.42-5.16.62,5.04,6.81,9.72,14.22,11.07,22.74,1.29,11.11,4.14,22.28,2.42,33.53-2.01,15.57-12.03,28.97-24.3,38.23-6.13,4.18-12.37,8.32-19.27,11.1,5.3,1.43,9.91,4.53,14.87,6.77,1.23-1.54,2.52-3.04,4.21-4.12.03,1.28.08,2.56.17,3.85.9-.52,1.8-1.07,2.69-1.64l-1.94.09c-.01-.9,0-1.79.02-2.68,1.6.54,3.21,1.09,4.82,1.64-.99,2.64-3.26,4.25-5.38,5.92,3.4.21,4.82-2.94,6.43-5.29.77,4.61,1.4,9.87-.73,14.21-2.13,2.4-5.93,4.55-8.96,2.42-9.73-4.96-19.6-9.66-29.3-14.68-1.26-.59-2.6-1.49-4.05-.97-9.94,1.44-19.99,2.14-30.04,1.9-1.49,7.35-6.25,13.72-12.75,17.41-11.12,6.95-25.11,8.03-37.68,5.09-10.3-2.78-20.31-9.08-24.99-18.99-2.74-6.41-2.74-13.61-2.5-20.47,1.26,1.51,1.84,3.3,1.67,5.28.1,8.76,5.92,16.37,12.93,21.09,11.1,7.02,25.1,9.24,37.84,6.09,8.29-1.96,16.54-6.48,20.62-14.27-2.81,3.19-5.5,6.62-9.25,8.77-13.79,7.72-31.15,7.59-45.28.76l1.44-.71c.18-.08.55-.24.73-.32-5.17-3.86-8.49-10.16-8.7-16.61-.39-5.61-.12-11.46,2.61-16.51-.39-.61-1.17-1.84-1.56-2.46-4.87,4.56-9.72,10.89-8.23,17.99,1.61,8.16,8.48,13.71,15.15,17.91-1.74,1.4-3.2-.41-4.62-1.14-8.38-5.44-14.6-15.37-12.6-25.63.45-5.07,3.46-9.22,6.3-13.23-4.18,3.4-7.03,8.66-7.11,14.11-.55-.77-1.09-1.54-1.62-2.3,1.19-4.84,3.38-9.49,6.84-13.12-.66-.84-1.3-1.68-1.94-2.51-7.24,5.58-13.47,13.57-14.31,22.95-.32,7.96,3.51,15.52,8.45,21.53,8.91,9.6,21.37,15.28,34.09,17.78l.98,1.48c-13.31-1.9-26.24-7.97-35.64-17.66-5.87-6.65-9.85-15.2-9.99-24.16.15-7.49,2.41-15.13,7.25-20.94,1.85-2.25,4.2-4,6.09-6.21-8.03,4.87-12.78,13.95-13.96,23.09-1.13,7.87,1.3,15.86,5.41,22.54,1.41,2.13,2.6,4.75,5.2,5.68l-1.01.46c15.55,15.92,39.63,22.42,61.26,18.05,3.11-.77,6.87.28,8.32,3.35.77,3.02-2.89,2.96-4.75,3.91,2.1.12,5.29.32,5.65-2.49.69-2.77-1.97-4.38-3.9-5.68.03-.42.1-1.26.13-1.69,2.68,1,5.63,2.81,6.03,5.94.15,3.53.54,7.36-.96,10.67-1.95,2.97-6.12,2.83-9.13,1.83-.14-3.04-.08-6.07.13-9.09-14.85,3.2-30.66,1.57-44.65-4.29-13.24-5.65-24.64-16.75-28.48-30.88-1.94-9.82-2.34-20.58,2.1-29.81,2.45-5.23,6.28-9.74,10.85-13.24-1.96-5.37-4.68-10.52-5.52-16.23-1.34-8.54-1.27-17.35.54-25.82.78-3.97.69-8.05,1.27-12.05,1.54-9.49,5.65-18.47,11.43-26.1,6.87-8.3,15.41-15.19,25.01-20.09,2.19,1.06,4.45,4.49,6.96,2.93-1.09-1.84-3.09-3.35-2.77-5.73.06-3.56-.98-7.33.02-10.77,6.12-2.98,12.9-4.18,19.45-5.89-.32-.9-.65-1.78-.96-2.67.25-.51.75-1.54,1.01-2.06-.18-.39-.53-1.18-.71-1.58.54-1.4.98-2.85,1.37-4.31.51-.13,1.51-.41,2.02-.55-.06-.5-.17-1.51-.23-2.01.55-.06,1.63-.17,2.18-.23.45-2.31,2.93-2.59,4.74-3.34.37,1.34.73,2.69,1.09,4.05-.83-.44-2.48-1.31-3.31-1.75.22.79.66,2.36.88,3.14-.83-.07-2.49-.21-3.33-.28.3.56.88,1.68,1.17,2.24-1.25.48-2.75.68-3.95,1.41.83.23,2.48.68,3.31.91-1.27.72-2.52,1.43-3.75,2.21.95.19,2.86.58,3.82.78-1.14.9-2.32,1.76-3.44,2.66,1.06.11,3.18.32,4.24.43-.63.72-1.9,2.16-2.53,2.89.94-.25,2.82-.73,3.76-.97-.77,1.17-1.53,2.35-2.27,3.53,1.3-.62,2.37-2.12,3.91-2-.05.85-.16,2.55-.21,3.41.61-.27,1.82-.8,2.43-1.06,1.96-1.65.84,2.31,1.83,2.61,1.41-.1,2.24-2.67,3.71-1.03.21.61.61,1.84.82,2.45.91-.95,1.78-1.93,2.7-2.89.89,1.19,1.79,2.4,2.7,3.59.33-1.08.66-2.17,1-3.25.42-.04,1.25-.13,1.67-.17.85.85,1.72,1.7,2.6,2.55.06-.8.18-2.41.24-3.21,1.84-1.24,3.2.85,4.7,1.7-.31-1.21-.67-2.4-.89-3.62,1.65-.25,3.3.08,4.92,1.02-.69-1.21-1.3-2.45-1.82-3.73,1.47-.04,2.88.38,4.3.75-.65-1.41-1.32-2.81-1.94-4.22,1.01.13,3.02.4,4.03.53-.56-1.29-3.48-1.73-2.73-3.3.64-.23,1.93-.69,2.58-.92-1.12-.56-2.26-1.09-3.37-1.62.47-2.19,1.72-2.15,3.38-.81-1.23-1.77-3.48-2.26-5.5-2.18.44-.87,1.32-2.6,1.76-3.47l-2.72,2.05c-.26-.44-.79-1.34-1.05-1.79-.52.19-1.56.55-2.09.73.08-.85.25-2.55.33-3.4-1.09.74-2.15,1.49-3.21,2.24-.11-.68-.34-2.06-.45-2.74-.96.61-1.91,1.24-2.9,1.77-.41-1.32-.78-2.64-1.1-3.98-.33.07-.99.21-1.33.28.39.44,1.16,1.32,1.55,1.76-1.41,2.06-3.24,1.41-3.66-.89-.65.89-1.32,1.79-1.94,2.68-.9-.75-1.8-1.49-2.71-2.21-.29,1.02-.56,2.03-.82,3.05-1.15-.68-2.29-1.33-3.46-1.95.2.7.6,2.1.8,2.8-1.76-.24-2.88-1.51-3.59-3.02-12.42-1.63-25.93-4.29-34.89-13.79-6-6.25-6.37-15.48-5.8-23.62,1.18-7.75,7.13-13.86,13.59-17.8"/>
        <path class="cls-4" d="M63.99,18.24c17.3-5.36,36.63-6,53.55,1.08,6.97,3.09,13.87,7.93,16.59,15.37,2.08,6.77.05,14.38-5.13,19.21-8.61,8.17-20.57,11.65-32.08,13.21-7.39.77-14.89.96-22.27.21,3.38-.69,6.85-.27,10.27-.31,12.48.18,25.12-2.35,36.2-8.2,5.64-3.03,10.78-7.75,12.63-14.05,1.51-6.2-.68-12.99-5.23-17.39-6.93-6.85-16.63-9.71-25.95-11.47-14.27-2.69-29.13-.57-42.58,4.65-6.38,2.54-12.37,6.7-15.92,12.69-3.61,6.42-2.94,14.97,1.95,20.56,3.41,4.57,8.61,7.11,13.66,9.44.66-.42,1.33-.85,2-1.28-6.45-1.54-12.44-5.6-16.11-11.16-1.39-2.35-2.61-5.31-1.39-7.99,2.75-7.07,9.45-11.65,16.18-14.51,15.34-6.58,32.92-8.09,49.09-3.81,6.84,1.96,13.77,4.72,18.94,9.79,3.04,3.09,5.28,7.91,3.17,12.12-3.2,7.07-10.36,11.18-17.3,13.86-15.38,5.66-32.38,6.38-48.37,3.16l-1.2-1c-.06,1.02-.14,2.05-.23,3.07.95-.09,2.86-.27,3.81-.36-.82.21-2.46.62-3.28.83,0,.24.02.74.03.99,8,1.93,16.23,2.23,24.34,3.47-.65.26-1.94.76-2.59,1.02l2.23,1.47c-.88.18-2.62.55-3.5.73-1.08.61-2.14,1.87-3.53,1.21-8-1.13-16.3-2.18-23.42-6.29-1.26-.61-2.15-1.61-2.66-2.89-1.59-1.29-3.26-2.49-4.85-3.77,4.11,1,7.78,3.64,12.03,3.97.16-.17.46-.52.62-.69-7.05-2.48-14.62-5.38-18.94-11.9-5.16-6.66-4.82-16.71.44-23.19,4.78-5.86,11.7-9.55,18.8-11.85"/>
        <path class="cls-2" d="M75.85,25.7c8.13-2.44,16.73-2.4,25.05-1.15.21.51.62,1.52.82,2.02-5.24-1.31-10.69-1.53-16.05-.99,4.04.87,8.25-.02,12.3.93,4.83,1.1,9.8,2.53,13.73,5.68,3.33,2.72,5.13,7.53,3.41,11.64-1.03,2.95-3.76,4.73-5.43,7.25,4.26-2.64,7.78-7.55,6.68-12.79-1.46-6.68-8.66-10.37-14.87-11.38.45-.58.92-1.16,1.39-1.74,5.97,2.01,12.68,5.12,14.64,11.69,1.29,6.02,1.23,13.45-3.53,18.02-6.4,6-15.53,7.88-24.02,8.19-8.46-.25-17.78-1.05-24.53-6.74-5.18-4.19-5.01-11.58-4.4-17.59,1.35-7.07,8.3-11.37,14.81-13.04"/>
        <path class="cls-4" d="M64.94,33.88c4.89-5.65,12.66-7.35,19.78-8l-.03.58c-7.67.84-16.88,2.85-20.68,10.38-2.3,4.34.3,8.86,2.14,12.77-4.48-3.86-5.22-11.29-1.21-15.73"/>
        <path class="cls-4" d="M86.23,30.84c2.69-.67,7.22-1.78,8.35,1.76-1.69,1.54-5.35,2.65-6.94.45,1.79-.25,3.58-.51,5.38-.76-1.59-1.34-3.23-1.35-4.93-.03-.63-.47-1.25-.94-1.86-1.42"/>
        <path class="cls-4" d="M65.29,42.92c3.27-6.68,11.43-8.36,17.98-10.15-.05.85-.16,2.55-.22,3.4-3.7,1.33-7.61,3.61-8.64,7.71-.29,2.78.65,5.48,1.36,8.14-4.55-1.07-10.12-3.89-10.48-9.1"/>
        <path class="cls-4" d="M84.94,32.6c.77-.09,2.31-.27,3.08-.36-2.89.31-2.41,3.87-.04,3.71,3.04.9,5.76-.95,8.38-2.19-2.12,2.68-5.43,4.78-8.95,3.63-2.45-.15-2.02-3.12-2.47-4.79"/>
        <path class="cls-4" d="M97.41,32.8c5.14,1.02,10.53,2.47,14.43,6.18,1.08,1.27,2.42,3.04,1.59,4.78-1.62,3.81-5.42,6-8.79,8.03,1.1-2.5,2.3-5.43,1.16-8.14-.56-4.5-5.43-6-8.9-7.77.13-.77.38-2.31.51-3.08"/>
        <path class="cls-4" d="M81.85,38.64c1.12-.18,2.25-.37,3.39-.56-4.18,2.16-3.3,9.47,1.51,10.42-.18-.68-.54-2.05-.72-2.73l2.34-.41c-.54,1.01-1.08,2.03-1.57,3.06,3.53.98,8.55,1.25,10.87-2.05-.22-2.84-.32-5.7-.33-8.56,3.72.59,4.65,4.65,7.39,6.66-.39-.1-1.17-.31-1.57-.41-.12,3.08-2.7,4.66-5.09,5.97-2.99.44-5.95,1.21-8.98,1.23-1.61-.47-2.7.77-3.9,1.5.38-.42,1.13-1.27,1.5-1.69-2.14-.52-4.39-.85-6.31-1.99-1.47-.93-2.49-2.6-4.3-2.86.47-.34,1.41-1,1.88-1.34-.48-.35-1.44-1.07-1.92-1.43,2.18.14,2.51-1.47,2.18-3.28,1.53.67,2.52-.69,3.63-1.53"/>
        <path class="cls-4" d="M84.96,44.99c-.04-2.3.63-4.48,1.73-6.48,1.5.07,3.01.14,4.52.2-.3,1.39-.59,2.79-.86,4.19.03-1.16.08-2.32.15-3.47-2.81-.61-3.37,1.46-3.44,3.74,1.2.86,2.73,1.13,4.1,1.69-.64.84-1.92,2.52-2.56,3.36.04-.85.1-2.56.14-3.41-1.27.07-2.53.13-3.78.18"/>
        <path class="cls-4" d="M66.35,48.86q.63.64,0,0"/>
        <path class="cls-4" d="M68.01,50.63c9.55,4.33,20.55,6.77,30.89,3.98,3.41-.8,6.66-2.15,9.97-3.3-7.42,5.03-17.13,5.95-25.87,4.84-5.23-.88-11.04-1.61-14.99-5.52"/>
        <path class="cls-2" d="M63.69,63.11c.42,2.7-3.43-.2-1.36-1.06.34.26,1.02.79,1.36,1.06"/>
        <path class="cls-4" d="M73.64,66.45c.17,1.6-5.64.68-3.83-.76,1.35-.14,2.62.11,3.83.76"/>
        <path class="cls-4" d="M90.06,72.25c3.33.11-1.53,3.01,0,0"/>
        <path class="cls-2" d="M150.96,81.38c.52-1.01.15-3.27,1.91-2.95,1.61.24,3.56,1.95,4.57-.34.94-1.06,2.58.79,3.8.72.04.42.12,1.27.16,1.7,1-.78,2.05-1.57,3.07-2.35.14.71.42,2.15.56,2.86.48-.31,1.42-.94,1.9-1.25.76,1.31,1.89,2.26,3.36,2.71,2.46,3.09,2.14,7.22,1.38,10.86-.58.16-1.73.48-2.31.64.1,2.4-1.32,3.04-3.48,2.53-.13,2.93-2.41,2.65-3.69.62-1.24,1.6-4.19,4.31-4.88.68-.78.5-1.56,1.02-2.32,1.53l-.25-2.28c-.91.7-1.81,1.39-2.7,2.09-.55-1.04-1.13-2.06-1.73-3.06-.63.24-1.88.71-2.51.95-.2-.67-.61-2.01-.82-2.67-.58-.05-1.75-.14-2.33-.19-.47-2.62-.4-5.27-.5-7.91.98-2.5,3.61-7.72,6.81-4.89"/>
        <path class="cls-4" d="M154.28,80.29c1.04.52,2.08,1.05,3.14,1.58-.06-3.74,2.06-.41,3.43-.09.84-.23,1.69-.48,2.55-.74.92,1.6,2.59,1.96,4.3,2.09l-1.07,1.6c1.16.62,2.34,1.24,3.53,1.84-.65.23-1.96.69-2.61.92.67.57,2,1.71,2.67,2.28-.68-.02-2.05-.05-2.74-.06l-.15,1.16c.75.11,2.25.33,3,.45-1.36.15-2.71.22-4.06.19.4.9.8,1.81,1.21,2.73-1.25-.64-2.48-1.29-3.7-1.94-.06.88-.18,2.65-.23,3.53-1.02-.83-1.88-2.08-3.32-2.04-.17.84-.51,2.5-.68,3.33-.61-.97-.36-2.98-1.61-3.18-.48.39-1.44,1.18-1.92,1.58-.64-2.75-2.39-1.68-4.05-.57-.11-.65-.35-1.93-.47-2.57-1.15.28-2.18.58-3.31.82.54-.8,1.63-2.39,2.18-3.19-.73.12-2.18.36-2.9.47-.5-.83-1-1.67-1.48-2.5.7-.04,2.11-.13,2.81-.18-.71-.67-2.15-2.02-2.86-2.69,1.19.06,2.4.11,3.62.16-.61-1.15-1.25-2.26-1.81-3.42,1.12.54,2.22,1.15,3.38,1.66.19-.61.58-1.85.77-2.46.74.55,1.49,1.1,2.26,1.65.03-.6.09-1.81.12-2.41"/>
        <path class="cls-4" d="M38.01,82.58c1.41.18,1.29,2.77.82,3.83-1.34-.3-1.27-2.75-.82-3.83"/>
        <path class="cls-2" d="M85.15,86.79c2.03-4.92,8.34-4.2,12.51-2.95-.56.46-1.13.91-1.68,1.36-3.03-1.56-7.86-1.45-9.49,2.02-1.08,1.89,1.1,4.25,3.03,3.97,2.85-.48,5.85-.62,8.46-1.99-.91-1.61.17-3.01.92-4.29,2.32,3.83-.57,8.53-4.78,8.7-4.05,1.03-10.8-1.73-8.97-6.82"/>
        <path class="cls-2" d="M157.42,83.57c3.21-1.01,7.42,1.82,6.22,5.39-1.78,3.64-7.25,3.35-10.2,1.36-2.5-2.82.42-7.13,3.98-6.75"/>
        <path class="cls-4" d="M169.21,84.02q.54.62,0,0"/>
        <path class="cls-4" d="M154.1,86.27c2.22-.86,4.67-1.45,7.03-.8,1.21.94.21,2.85.46,4.19-1.7-.24-3.38-.52-5.06-.82-.03-.78-.1-2.32-.13-3.09-2.38.71-.91,2.94-.99,4.45-.78-1.18-1.1-2.55-1.31-3.93"/>
        <path class="cls-2" d="M88.42,86.41c2.89-1.99,7.63-.85,8.84,2.59-2.73.88-5.57,1.37-8.43,1.42-.84-1.33-2.27-2.81-.41-4.01"/>
        <path class="cls-2" d="M157.77,86.17q.68.62,0,0"/>
        <path class="cls-4" d="M89.22,88.6c1.24-1.84,3.3-2.09,4.96-.67-1.65.27-3.31.49-4.96.67"/>
        <path class="cls-2" d="M160.14,86.96c1.27.66,1.23,1.33-.11,2.02-1.3-.62-1.26-1.3.11-2.02"/>
        <path class="cls-2" d="M14.75,95.42c.59-3.18,4.38-5.22,7.29-3.78,3.41,1.25,3.69,6.09,1.3,8.44.04,4.59.1,9.17.25,13.76.89,1.2,2.4,2.26,2.23,3.96.04,5.93-10.99,6.08-11.02.1-.32-1.55.66-2.74,1.72-3.69-.05-4.79.13-9.57-.04-14.35-.34-.66-1.02-1.98-1.36-2.64,2.06-.48,3.35,1.75,5.38,1.7l-2.38-1.18c1.26-1.16,4.31-1.87,1.99-4.3.76.6,2.3,1.79,3.06,2.39-.12-3.62-3.91-3.2-6.31-2.11l1.04,1.36c-.79.09-2.36.26-3.15.34"/>
        <path class="cls-4" d="M111.81,96.88c2.1-2.67,5.57.83,8.26.13-1.93.84-4.1.8-6.02,1.64,2.54-.04,5.03,1.33,7.58,1.05-.18-.92-1.46-1.29-1.48-2.39,3.61.96,7.29,1.8,10.77,3.23.88.24.73,1.12.58,1.82-2.37-1.1-4.83-1.96-7.26-2.87-.71.41-1.42.84-2.11,1.27,5.29.33,9.94,3.21,15.13,4-1.45-1-3.16-1.58-4.86-1.9.44-.75.88-1.51,1.35-2.25,1.23,2.47,4.45,2.42,6.63,3.72,11.65,5.65,22.67,13.29,30.35,23.89-8.65.35-17.28.91-25.93.97-4.61-7.1-12.53-11.73-20.87-12.75-2.44-.33-4.85.38-7.14,1.08-1.23-1.91-2.49-3.79-3.91-5.55-1.25-1.46-2.7-2.74-4.26-3.85-1.49-1.95-5.86-3.24-3.75-6.21.73.25,2.19.76,2.92,1.02-.12-.7-.37-2.09-.49-2.78.99.21,1.99.42,3,.62.12-.74.35-2.24.47-2.99.91.18,2.73.52,3.64.69-.07-.52-.22-1.56-.29-2.09l-2.31.5Z"/>
        <path class="cls-4" d="M56.79,99.94c5.03-1.62,10.16-2.97,15.37-3.89.98,3.88,5.04,5.88,8.69,6.5-6.03,1.97-12,4.59-16.72,8.93-.11-.6-.34-1.79-.45-2.38-.37,0-1.11.04-1.48.05-2.51-2.02-5.4-3.45-8.3-4.8.38-.08,1.16-.26,1.55-.34,1.84,1.09,3.94,1.33,6.03,1.62.75.76,1.22,1.95,2.36,2.25,1.47-1.24,2.45-2.94,3.59-4.47-3.22-.54-7.09,1.79-9.82-.32,2.68-1.11,6.14-.85,8.28-2.99-4.36-.19-8.31,2.03-12.59,2.33.37-1.67,2.15-1.99,3.49-2.49"/>
        <path class="cls-4" d="M18.36,99.45c.23.3.68.89.9,1.19.02,6.17-.04,12.35.16,18.51-.21.24-.64.71-.86.95-.88-6.86-.89-13.78-.2-20.65"/>
        <path class="cls-4" d="M100.91,103.53c2.62.09,1.79,2.14.77,3.52l2.64.58.08-2.19c1.06.77,1.34,1.89.83,3.36.46.18,1.37.55,1.83.73.45.66,1.34,1.99,1.79,2.65l-.75.96c1.39-.05,2.78-.13,4.17-.22l-.13,1.11c-.71-.09-2.13-.25-2.84-.34,2.48,4.94-1.58,9.11-4.04,12.94-.42-.24-1.28-.72-1.71-.96.08,2.49-.94,2.89-3.05,1.2l.36,2.05-2.48-1c-.02.39-.05,1.18-.06,1.58-1.04-.22-2.06-.34-3.09-.14-.37-.2-1.11-.6-1.48-.8-.13.59-.39,1.78-.52,2.37-.24-.49-.74-1.48-.99-1.98-1.66.53-3.4.37-5.09.52-.18-.39-.52-1.17-.7-1.56-.39.47-1.16,1.42-1.55,1.9-.14-.68-.43-2.05-.57-2.74-.54.48-1.63,1.44-2.18,1.92.09-.7.26-2.08.34-2.78-.82.35-2.47,1.03-3.3,1.38.19-.54.57-1.62.76-2.16-3.16-1.53-5.73-5.46-4.65-9.07.31-2.58,3.09-3.89,3.45-6.44.51.68,1.03,1.37,1.55,2.07-2.27,1.65-4.25,4.5-3.08,7.4,1.93,4.1,6.14,6.48,10.37,7.65-.37-1.97.16-3.85,1.22-5.5,1.37.68,2.75,1.36,4.15,2.03-1.38,1.13-2.73,2.3-3.81,3.72,6.52,1.07,14.46-.74,17.84-6.93l-.81-.62c-2.03-1.09-4.01-2.31-6.21-3.04-3.11.56-5.68,3.5-9.05,2.67-2.35-.25-3.8-2.41-4.57-4.43-2.08.68-4.15.22-6.09-.58.08-.73.23-2.17.31-2.9,2.22-.8,4.39-1.77,6.57-2.69-.51,1.93-.97,3.87-1.45,5.8,2.98-.65,3.48,3.6,6.19,3.84,2.32.27,4.36-1.07,6.19-2.32,1.62.22,3.25.28,4.89.16-.54-1.88-2.79-1.54-4.23-2.11-.24-2.12-1.2-4.02-2.07-5.92,3.17,1.54,7.95,1.93,9.04,5.92l-.42.69c-.61.17-1.82.52-2.43.69.89,1.21,2.19,1.82,3.91,1.81l.45.29c.21-.02.63-.07.83-.09-.11-3.02-.97-6.37-3.82-7.93-2.11-1.68-5.63-1.95-6.44-4.9.96.55,2.88,1.63,3.84,2.17-.18-.83-.53-2.5-.71-3.34"/>
        <path class="cls-4" d="M63.41,104.99c3.11-1.38-.11,3.32,0,0"/>
        <path class="cls-4" d="M82.51,105.37c1.31-.56,2.23-.25,2.78.94,1.2-.45,2.42-.87,3.66-1.27-1.85,2.54-5.51,2.75-7.15,5.43-.66-1.18-1.26-2.39-1.94-3.55.45-.16,1.35-.48,1.8-.64.03.55.08,1.66.11,2.21l3.05-1.81c-.78-.43-1.55-.87-2.31-1.31"/>
        <path class="cls-2" d="M117.24,105.26c2.85-1.78,7.4-.65,8.6,2.59.57,4.75-6.19,5.64-9.09,3.28-2.36-1.28-1.88-4.87.49-5.87"/>
        <path class="cls-4" d="M88.1,112.49c.61-2.47,1.59-4.85,3.24-6.82.15,1.39.3,2.79.46,4.19l-1.66-.94c-.02.82-.04,2.47-.05,3.3.5-.42,1.49-1.25,1.99-1.66.13,2.03.21,4.06.28,6.1l-1.83-.47c.26-.95.78-2.86,1.05-3.81-.87.03-2.61.08-3.48.11"/>
        <path class="cls-4" d="M96.26,105.79q.48.72,0,0"/>
        <path class="cls-4" d="M117.18,107.11c2.12-.04,4.24,0,6.37.13,1.64,4.55-7.64,4.69-6.37-.13"/>
        <path class="cls-2" d="M118.18,108.3c1.33-.55,3.59-.83,4.52.54-.61,1.54-5.22,1.41-4.52-.54"/>
        <path class="cls-4" d="M78.19,109.32q.32.29,0,0"/>
        <path class="cls-4" d="M73.19,113.32c1.64-1.08,2.85-2.66,4.27-4.01-.23.91-.47,1.83-.7,2.74-3.29,1.28-4.74,5.42-4.5,8.72-.03,4.87,3.34,9.02,7.37,11.38,6.4,3.75,14.39,3.94,21.43,2.12,4.59-1.57,9.22-4.62,10.77-9.46,1.17-3.2.24-6.57-.53-9.73.62,0,1.86,0,2.48.01-.09.21-.27.64-.36.86-2.61,2.5,1.63,1.55,2.78,1.59-.81.58-2.41,1.73-3.22,2.31,1.34.15,2.69.29,4.04.45-.87.4-2.62,1.2-3.49,1.6,1.17.6,2.34,1.21,3.53,1.82-.88.17-2.64.51-3.53.69.78.83,1.6,1.63,2.43,2.43-.8.05-2.4.14-3.2.19.79.87,1.61,1.72,2.42,2.59-.75-.15-2.26-.46-3.01-.62.52,1.19,1.16,2.38,1.72,3.57-1.16-.82-2.33-1.62-3.51-2.38.47,1.24.98,2.48,1.52,3.7-1.26-.46-2.53-.91-3.79-1.33.32.75.96,2.24,1.28,2.99-1.14-.52-2.28-1.03-3.4-1.56.06.83.18,2.49.25,3.32-1.11-.58-2.22-1.15-3.32-1.7,0,.8,0,2.41,0,3.22-.97-.9-1.95-1.79-2.98-2.59-.07.81-.2,2.45-.26,3.27-.92-.9-1.84-1.8-2.74-2.69-.35,1.02-.69,2.04-1.02,3.07-1.03-2.24-3.07-3.08-3.13.13-.92-.48-2.46-3.86-3.21-1.72-.95,3.58-1.85-1.91-3.63-.76-.41.43-1.23,1.29-1.64,1.73-.24-.74-.73-2.22-.98-2.95-.93.55-1.87,1.08-2.81,1.6-.02-.63-.08-1.87-.1-2.49-.76.48-2.28,1.45-3.04,1.94.2-.73.59-2.19.79-2.92-1.72-.76-2.99.75-4.37,1.41.69-1.27,2.87-3.97-.29-3.57l-.47-1.02c-.47-.25-1.41-.75-1.88-1l1.3-1.36c-.96.07-2.88.22-3.84.29.54-.39,1.6-1.17,2.13-1.56l.06-.94c-.75.1-2.24.31-2.99.41.83-1.1,1.98-1.88,3.05-2.74-.81-.1-2.43-.31-3.24-.42.58-.4,1.75-1.21,2.33-1.62l.09-.96c-.62-.03-1.86-.1-2.48-.13,1.15-.69,2.33-1.32,3.52-1.97-.68-.28-2.03-.83-2.71-1.1.68-.13,2.03-.39,2.71-.52-.31-.46-.93-1.36-1.24-1.81,1.12-.27,2.25-.51,3.39-.74,0-.45-.05-1.34-.06-1.78"/>
        <path class="cls-2" d="M150.46,115.36c3.02-1.15,8.59,1.27,7.1,5.15-1.73,3.96-8.59,3.44-9.99-.6-.4-2.07,1.06-3.83,2.89-4.55"/>
        <path class="cls-4" d="M17.32,146.27c6.15-13.02,16.72-23.85,29.61-30.27,3.64,2.25,8.14,5,8.55,9.71.42,3.18.54,6.39.74,9.59-5.54-1.06-11.43-1.03-16.78.88-5.94,2.17-10.9,8.21-10.13,14.77.66,5.14,4.44,9.2,8.58,11.99-4.71,2.78-9.25,6.56-10.89,11.98-2.5,7.3,1.28,15.4,7.36,19.68,8.59,6.14,19.98,7.19,29.99,4.38.71,2.83,1.87,5.51,3.03,8.19-4.21,1.65-4.68-3.91-6.44-6.35-1.56,2.96.28,6.56,2.79,8.35,1.62,1.17,3.82.32,4.84-1.25,3.17,2.99,6.45,5.93,10.33,7.99,1.76,1.1,4.13,2.05,4.5,4.38.51,2.69.36,5.44.36,8.16-7.4-.98-14.62-2.97-21.74-5.14-5.77-2.11-11.85-4-16.6-8.05-.07-.26-.22-.77-.29-1.03.58.34,1.73,1.04,2.31,1.38.77-1.8.12-2.94-1.95-3.41.21-.16.61-.48.81-.64l2.16.72c-.46-3.75-1.71-7.8-5.05-9.96-2.08-1.52-4.76-1.16-7.14-.88,2.13-2.42-1.52-2.52-2.61-1.44.53.39,1.58,1.18,2.1,1.57-.79.28-2.37.83-3.15,1.1-7.32-7.62-13.66-16.6-16.4-26.93-.01,3.96,1.82,7.57,2.8,11.33-.64-.44-1.9-1.32-2.53-1.76-1.78-6.02-3.76-12.11-3.58-18.46.31-6.24,1.18-12.54,3.62-18.34,1.89.23,4.4,1.64,5.99-.11,1.58-2.2,2.3-4.89,2.25-7.58-2.11,1.38-3.24,3.64-4.49,5.73-.74-.07-2.21-.21-2.95-.28"/>
        <path class="cls-4" d="M16.22,117c3.35.18-1.59,2.9,0,0"/>
        <path class="cls-4" d="M54.25,118.07c.47-.54.96-1.08,1.46-1.62,1.26.6,2.59,1.08,3.95,1.46.96,2.09,3.32,2.59,5.29,3.29-.03,4.62,1.31,9.06,3.56,13.07,1.5,1.45,3.9,2.32,4.36,4.57.37-.12,1.12-.38,1.49-.51.49,1.87,2.49,2.24,4.01,2.95.64,1.57,2.55.86,3.81,1.3-1.65,1.21-3.76,1.05-5.56,1.87.12-.8.38-2.41.5-3.21-.81.47-2.45,1.42-3.26,1.9-.11-.8-.34-2.39-.45-3.19-.76.25-2.28.74-3.04.99.23-.66.69-1.98.92-2.64-.49.1-1.49.3-1.98.4-.13-1.51-.4-2.97-2.26-2.7-1.83-4.43-3.54-9.03-6.25-13-2.15-1.66-4.58-3.01-6.55-4.93"/>
        <path class="cls-4" d="M149.66,118.03c1.72-1.69,4.16-.89,6.21-.34-.03.8-.09,2.41-.12,3.21-2.26.61-4.93,1.06-6.65-.99,1.9-.02,3.88.94,5.77.38.95-3.28-3.52-1.59-5.21-2.26"/>
        <path class="cls-4" d="M119.82,118.21c7.39-.37,14.82,2.46,20.02,7.73,2.75,2.97,4.63,7.18,3.68,11.27-.84-3.73-1.3-7.9-4.18-10.72-5.22-5.16-12.56-6.91-19.52-8.28"/>
        <path class="cls-4" d="M80.74,122.88c2.01-.53,4.05-1.05,6.1-1.47-.53,1.08-1.1,2.14-1.65,3.2-1.55-.43-3.03-1-4.45-1.73"/>
        <path class="cls-2" d="M42.45,122.44c2.58-.42,6.38,1.35,6.17,4.32-1.03,4.41-7.96,4.84-10.02,1.05-.71-2.54,1.42-4.98,3.85-5.37"/>
        <path class="cls-4" d="M41.58,125c.37-1.47,2.88-1.15,4.05-.79-.48,1.28-2.9,1.19-4.05.79"/>
        <path class="cls-4" d="M41.17,126.48c2.02.51,4.08.24,6.05-.35-1.17,2.05-5.78,3.72-6.05.35"/>
        <path class="cls-4" d="M122.35,128.41c.55-.46,1.64-1.38,2.19-1.85-.11.8-.33,2.41-.44,3.21,1.03-.6,2.08-1.22,3.13-1.81l-.62,2.8c.87-.32,2.62-.96,3.49-1.27-.4.71-1.21,2.15-1.61,2.86.97-.33,2.9-1,3.87-1.33-.58.69-1.74,2.09-2.32,2.78,1.05-.13,3.17-.38,4.23-.51-.73.63-2.18,1.9-2.91,2.54.98-.02,2.94-.06,3.91-.08v.6c-1.28.27-2.16.96-2.66,2.08.89.04,2.67.1,3.55.14-.91.55-2.73,1.65-3.64,2.21,1.16.56,2.32,1.13,3.49,1.71-.88.06-2.64.18-3.52.24.64.86,1.4,1.6,2.28,2.24-1.33.06-2.67.16-3.96.31.61.64,1.84,1.94,2.46,2.58-1.51-.39-3-.8-4.49-1.2.42,1.14.85,2.28,1.29,3.43-1.34-.69-2.67-1.38-3.99-2.08.21.86.62,2.58.83,3.45-1.29-.89-2.59-1.76-3.89-2.61.13,1.01.38,3.04.51,4.05-1.46-1.69-2.68-3.98-5.31-3.78,2.96-1.35,6.03-2.41,9.03-3.65-1.41-2.04-3.94-2.72-6.23-1.87,1.02-1.02,1.89-2.18,2.59-3.46,1,1.84,2.78,2.87,4.62,3.75,1.93-3.5,1.56-8.17-1.68-10.76-1.33-1.57-4.3-2.32-4.2-4.72"/>
        <path class="cls-4" d="M149.88,130.81c7.51-.24,15.02-.59,22.53-1-.37.24-1.11.72-1.48.96-8.81.46-17.64,1.05-26.45.79,1.67-.82,3.57-.64,5.4-.75"/>
        <path class="cls-4" d="M151.1,133.12c1.29.67.95,3.28.52,4.55-1.57-.42-1.19-3.38-.52-4.55"/>
        <path class="cls-4" d="M158.34,133.1c1.47.49,1.24,3.41.5,4.58-1.38-.67-.86-3.3-.5-4.58"/>
        <path class="cls-4" d="M116.68,137.8c-1.28-3.21,3.53-1.25,5.22-1.81-1.82,3.72-6.76,3.81-10.06,2.21,1.6-.19,3.22-.33,4.84-.4"/>
        <path class="cls-4" d="M45.27,136.38c.97.91,1.9,1.85,2.85,2.79.1-.58.3-1.72.4-2.3,1.07.14,1.81.78,2.23,1.93.79-.88,1.55-1.77,2.38-2.63.02.84.06,2.53.09,3.38,1.04-.99,2.09-1.98,3.16-2.95-.03.82-.1,2.47-.13,3.29.74-.3,2.21-.91,2.95-1.22.17.71.51,2.14.68,2.85,1.39-.22,2.78-.44,4.18-.67-.58.68-1.74,2.05-2.32,2.73,1.03-.17,3.1-.51,4.14-.67-.73.88-1.47,1.74-2.13,2.66.8.13,2.4.38,3.2.5l-.04.55c-.76.05-2.28.16-3.04.21.92,1.05,2.19,1.71,3.37,2.43-.84.12-2.52.36-3.36.48.83,1.03,1.67,2.05,2.52,3.08-1.02-.05-3.07-.16-4.09-.21.64.87,1.94,2.61,2.58,3.49-1.13-.36-3.38-1.07-4.51-1.43.56.96,1.68,2.89,2.24,3.85-1.16-.5-3.46-1.51-4.62-2.01.52.88,1.57,2.63,2.09,3.5-1.49-.59-2.93-1.28-4.31-2.06-.12.81-.35,2.42-.46,3.23-.86-.78-1.66-1.59-2.45-2.41-.75.82-1.48,1.64-2.22,2.46-.74-3.18-2.31-1.38-3.72-.14-.1-.62-.3-1.85-.4-2.47-.96.85-1.91,1.7-2.85,2.55-.07-.83-.2-2.48-.26-3.3-1.09.72-2.17,1.43-3.26,2.13.22-.85.65-2.57.87-3.43l-4.24,1.52c.75-1.18,1.53-2.33,2.29-3.5-.97.24-2.93.73-3.9.97l.36-2.16,1.48.17c-.19-.52-.58-1.55-.78-2.06-.95.03-2.85.09-3.8.11,1.27-.84,2.53-1.7,3.75-2.64-1.08-.19-3.25-.58-4.33-.78,1.16-.87,2.64-.93,4.03-1.22l-.09-1.1c-.92-.47-1.75-1.05-2.5-1.72,1.15-.02,3.45-.04,4.6-.06-.78-1-1.53-2.02-2.27-3.04,1.46.31,2.9.66,4.37.99-.44-1.1-.86-2.2-1.26-3.3,1.35.64,2.71,1.28,4.06,1.94-.24-.86-.73-2.58-.97-3.44,1.15.82,2.27,1.69,3.37,2.6.02-.87.06-2.6.07-3.47"/>
        <path class="cls-4" d="M61.19,136.9c1.62-.56,2.19-.02,1.72,1.59-1.64.53-2.21,0-1.72-1.59"/>
        <path class="cls-4" d="M138.82,141.18c3.42,2.64,7.32,4.65,11.58,5.53.08,1.32.17,2.65.29,3.98-4.92-1.24-11.45-3.5-15.59.58-.48.11-1.44.32-1.92.43,3.38-2.46,5-6.52,5.64-10.52"/>
        <path class="cls-2" d="M46.46,143.59c3.98-1.69,10.39.15,10.42,5.21.07,6.5-10.26,6.85-12.93,1.94-2.09-2.52-.42-6.24,2.51-7.15"/>
        <path class="cls-4" d="M89.37,143c.52,2.24,3.12,2.29,3.56-.09.25.55.76,1.63,1.02,2.17.48-.56,1.44-1.68,1.92-2.24.24.57.72,1.73.96,2.31.74-.7,1.48-1.4,2.23-2.1.36,1.68,3.25,2.98,3.38.13.41.7,1.22,2.11,1.62,2.81.43-.59,1.29-1.76,1.72-2.34.04.64.12,1.92.16,2.56.82-.41,1.65-.82,2.49-1.23l-.43,1.99c.62-.3,1.84-.89,2.46-1.19.01.66.03,1.98.04,2.64l2.63-2.44c-3.35,3.43.41,2.94,1.94,3.46.23.53.7,1.57.93,2.1.5-.47,1.49-1.39,1.99-1.86-.13.81-.39,2.42-.52,3.23.52,1.78,1.73-.63,2.57-.9-.25,1.27-.49,2.55-.74,3.83,1.14.14,2.31.28,3.48.41-1.11.69-1.93,1.62-2.47,2.79.87,0,2.61,0,3.49,0l.03.44c-1.41.28-2.22,1.09-2.43,2.44,1.2.09,2.41.17,3.63.26-.87.54-2.6,1.61-3.46,2.14.84.08,2.51.23,3.35.3-1.17.71-2.5,1.25-3.43,2.28.97.72,2,1.36,3.08,1.93-1.37.2-2.86.11-3.85,1.24,1.04.43,2.1.86,3.17,1.29-1.34.3-2.64.66-3.92,1.09.68.98,1.35,1.97,2.02,2.98-1.16-.39-2.3-.78-3.43-1.18-.22,1.33.08,2.57.9,3.72-1.24-.3-2.48-.58-3.71-.84.39,1.14.78,2.28,1.19,3.43-1.26-.54-2.51-1.06-3.75-1.58.18.81.56,2.42.74,3.23-.97-.29-2.93-.88-3.91-1.17.22.85.66,2.57.88,3.42-1.3-.55-2.4-2.49-3.89-1.76.15.81.46,2.42.61,3.22-.72-.68-2.17-2.03-2.89-2.71-.05.66-.16,1.99-.21,2.65-.75-.76-1.49-1.52-2.23-2.27-.04.81-.11,2.44-.14,3.26-.52-.8-1.56-2.39-2.08-3.19-.56,1.11-1.11,2.22-1.64,3.33-.11-.68-.31-2.04-.42-2.72-.95.71-1.9,1.42-2.84,2.12-.02-.93-.06-2.8-.08-3.73,7.79.56,15.55-2.44,20.89-8.15-3.84-1.4-8.44-2.35-11.28-5.43,4.1.98,7.84,2.99,11.73,4.56,2.71-4.25,4.14-9.67,1.99-14.47-1.1-2.25-2.22-5.12-4.54-6.2-2.75,1.48-5.09,3.6-7.87,5-.03-.7-.1-2.11-.13-2.82-2.06.49-4.21-1-4.88-2.9-1.44.18-3.69.88-3.6-1.29,3.07-.67,5.02,1.18,7.03,3.08l-.11-2.01c.88.24,1.76.48,2.65.73-.29.91-.87,2.74-1.16,3.65,2.37-1.65,4.79-3.26,7.47-4.4-6.45-5.19-14.97-6.63-23.01-5.49,1.36,1.97,1.59,5.74,4.55,5.83l.13.23c-.78.15-2.32.44-3.1.59-1.11-2.07-2.11-4.2-2.81-6.44-7.64,1.76-15.74,6.64-16.68,15.16,2.2.05,4.4.1,6.6.32-2,1.51-4.51.75-6.78.66.02.73.07,2.19.09,2.92-1.87-1.35-3.63-2.86-5.36-4.37.89-.09,2.67-.27,3.56-.35-.5-.46-1.51-1.36-2.01-1.81.68-.19,2.03-.56,2.7-.75-1.01-.41-2.02-.81-3.02-1.21.97-.39,2.92-1.16,3.9-1.55-1.11-.51-2.19-1.06-3.25-1.65,1.02.15,3.06.45,4.08.59.17-2.22-2-3.18-3.61-3.98,1.78-1.74,3.11.61,4.38,1.83,1.42-.85,1.82-2.08,1.2-3.69.77.7,3.63,2.33,2.86-.15l-.23-2.24c.54.47,1.6,1.4,2.14,1.87.31-.14.94-.42,1.25-.55l-1.36-2.44,2.3,1.3c2.21,1.21,1.23-2.02,1.79-3.12.13.67.38,2,.51,2.67l1.65-.27c-.08-.55-.23-1.66-.31-2.21,1.04.46,2.24,3.09,3.18,1.1.19-.45.56-1.35.75-1.8"/>
        <path class="cls-4" d="M44.58,147.97c.79-4.35,5.94-4.09,9.16-3.1-2.66,1.98-6.02,2.44-9.16,3.1"/>
        <path class="cls-4" d="M45.8,149.63c3.23-.82,6.39-1.89,9.51-3.08.34,3.68-3.65,4.07-6.34,4.25-1.25.15-2.46-.07-3.17-1.17"/>
        <path class="cls-4" d="M156.08,147.7c.25-1.6,4.06-1.28,4.62-.16-1.41.57-3.24.87-4.62.16"/>
        <path class="cls-4" d="M155.38,148.94c5.2-.45,10.42-.39,15.64-.5,3.7,5.55,5.91,11.95,6.81,18.54-1.77.35-3.52.74-5.27,1.1l-.4.51c.8.22,2.39.65,3.19.87-1.77.12-3.51-.29-5.26-.31-5.85,2.9-11.44,6.58-15.84,11.45-.12-2.35-.39-4.68-.74-6.99,2.29-2.96,4.85-5.72,7.04-8.76,1.74-.88-.37-3.33-1.47-2.03-3.2,2.28-6.15,4.89-9.17,7.39-2.6-1.07-5.3-1.9-8.09-2.25,5.78-5.25,11.66-11.17,13.56-19.02"/>
        <path class="cls-4" d="M132.12,153.68c2.94.27,5.93.13,8.67-1.11,2.64,1.84,5.75,2.73,8.79,3.66-1.08,1.11-2.14,2.23-3.15,3.39-.39-.51-1.16-1.53-1.55-2.04-.29.77-.86,2.3-1.15,3.07-.51-1.61-1.27-2.93-3.15-2.72-.35,1.03-.7,2.07-1.04,3.1-.2-.67-.6-2.02-.8-2.7-1.49.01-2.98.06-4.45.17.02.81.04,2.41.05,3.22-.25.05-.75.16-1,.21-.06-.92-.19-2.76-.25-3.68-2.32.37-4.34,1.42-5.71,3.34-.66-1.65-1.32-3.29-1.98-4.92,2.27-.92,4.46-2.03,6.72-2.99"/>
        <path class="cls-2" d="M164.57,153.62c2.84-.56,6.14,1.35,6.88,4.2-.9,5.14-9.93,5.19-10.93.03.24-2.16,2.09-3.62,4.05-4.23"/>
        <path class="cls-4" d="M79.75,154.48c.83-1.55,2.01.79,2.42,1.36,1.09-.33,2.19-.64,3.3-.94-2.09,2.93-5.64,4.65-9.17,4.93,1.19-1.75,2.34-3.54,3.45-5.35"/>
        <path class="cls-2" d="M20.56,155.61c2.64-.59,6.39,1.35,6.17,4.35-.89,4.73-8.76,4.85-10.28.45-.96-2.53,1.88-4.53,4.11-4.8"/>
        <path class="cls-4" d="M90.91,155.79c4.9-1.33,12.37-.84,14,5.01,1.24,5.36-4.33,8.3-7.67,11.31-4.71,3.81-4.77,10.24-5.61,15.73-.7,5.45-6.72,7.81-8.2,12.91-1.57,3.97-.79,8.27.06,12.3-.66-.48-2-1.44-2.66-1.92-1.24-1.66-2.81-3.02-4.38-4.33-1.17-.82-2.25-2.64-3.98-1.12l1.3-1.44c-2.39-2.18-6.46-6.57-2.8-9.38,3.84-3.01,7.46-6.85,8.03-11.93,1.17-5.43-1.41-10.64-4.42-14.98,4.73-4.86,9.93-9.65,16.33-12.16"/>
        <path class="cls-4" d="M162.69,156.81c1.17-2.21,4.13-1.8,6.16-1.12-.1,2.06.24,4.59-2.68,4.67.69-1.26,2.99-2.6,1.07-3.88-1.41-1.19-3.13-.21-4.31.75.49.39,1.48,1.15,1.98,1.54l.59,1.38c-1.47-.31-3.7-1.49-2.81-3.34"/>
        <path class="cls-4" d="M22.12,156.51c1.1.89,3.07,1.51,2.55,3.33-.64.94-1.64,1.56-2.52,2.23.36-.47,1.08-1.43,1.45-1.91-.52-1.21-1.01-2.43-1.48-3.65"/>
        <path class="cls-4" d="M21.32,162.58c-2.27-.97-4.1-3.2-2.15-5.4.74,1.78,1.46,3.58,2.15,5.4"/>
        <path class="cls-2" d="M92.46,158.6c2.95-1.17,7.96-.74,8.34,3.22.49,5.56-7.7,6.11-10.51,2.63-2.01-2.01-.16-5.15,2.17-5.85"/>
        <path class="cls-4" d="M113.21,158.84c.99.51,2.03,1.01,3.04,1.55-.41,1.73-.64,3.5-.76,5.28l1.13-.53c-.76,1.71-1.5,3.43-2.33,5.11-1.58-.61-3.13-1.17-4.67-1.82,1.45-.58,2.95-.97,4.47-1.37.15-.82.44-2.45.59-3.27-1.96,1.93-4.59,1.38-6.97,1.31-.06-2.48,1.19-4.44,3.46-5.39-.19,1.97,2.77,3.12,3.4,1.01-.34-.47-1.02-1.41-1.36-1.88"/>
        <path class="cls-4" d="M137.15,160.16q.63.53,0,0"/>
        <path class="cls-4" d="M91.89,162.47c1.77-.21,4.71-2.59,5.34.38-1.78.02-4.05,1.42-5.34-.38"/>
        <path class="cls-4" d="M47.94,161.58c1.02.86,1.89,2.1,3.32,2.28.25-.79.74-2.36.98-3.15.64,1.12,1.27,2.25,1.91,3.38.98-.89,1.92-1.84,2.88-2.76.17.86.5,2.57.67,3.43,1.12-.83,2.17-1.72,3.26-2.61.11.8.34,2.39.45,3.19,1.49-.43,2.92-1.04,4.41-1.49-.3,1.13-.61,2.26-.91,3.39,1.51-.35,3.04-.69,4.58-1.02-.4.78-1.2,2.34-1.6,3.12,1.12-.18,3.36-.55,4.48-.73-.49.77-1.47,2.3-1.95,3.07,1.03-.02,3.09-.06,4.12-.07-.84.9-1.67,1.78-2.53,2.65.95.06,2.83.17,3.77.22-.74.6-2.22,1.78-2.96,2.38,1.41.2,2.83.43,4.25.69-1.15.85-2.68.9-3.97,1.31,1.21.92,2.48,1.83,3.71,2.77-1.07.04-3.2.13-4.26.18.77,1.44,2.24,2.18,3.48,3.19-1.82-.37-3.43-.13-4.84.72.92.82,3.09,1.3,1.96,2.95-1.5-.88-3.39-2.01-4.39.3.63.21,1.88.61,2.51.82-.14.39-.42,1.17-.56,1.56-.92-.76-1.85-1.52-2.76-2.26.09.94.27,2.82.36,3.76-1.22-.99-2.4-2.32-4.06-1.38.54,1.15,1.07,2.32,1.59,3.49-1.6-.64-2.91-2.33-4.7-2.17.05,1.02.14,3.07.19,4.09-1.26-1.22-2.46-2.48-3.68-3.71-.28,1.38-.53,2.76-.76,4.14-.98-1.16-1.91-2.35-2.94-3.45-.38.93-1.13,2.78-1.51,3.7-.87-1.29-1.7-2.61-2.69-3.8-.87,1.05-1.72,2.11-2.58,3.16-.2-1.28-.41-2.56-.64-3.82-1.5.2-2.44,1.54-3.61,2.34-.07-.86-.23-2.57-.31-3.43-1.42.12-2.4,1.35-3.57,2.01.39-1.29.76-2.57,1.13-3.86-.9.5-2.69,1.49-3.58,1.98.37-.85,1.12-2.55,1.49-3.4-1.25.64-2.49,1.3-3.71,1.97.64-1.22,1.26-2.46,1.87-3.7-1.52.32-3.04.67-4.55,1,1.05-1.18,2.13-2.32,3.17-3.52-1.65,0-3.29.07-4.91.18,1.29-.96,2.57-1.94,3.82-2.96-1.68-.18-3.35-.36-5.01-.56,1.35-.74,2.73-1.27,4.19-1.83-1.06-1.41-2.97-1.24-4.43-1.91,1.6-.38,3.21-.75,4.83-1.13-1.1-.94-2.38-1.64-3.61-2.36,1.65-.4,3.31-.74,4.96-1.2-.55-.61-1.66-1.83-2.21-2.44,1.52-.08,3.04-.17,4.57-.26-.49-1.1-.98-2.21-1.46-3.31,1.55.64,3.15.89,4.81.75-.31-.83-.95-2.48-1.26-3.3,1.37.65,2.76,1.3,4.16,1.94.05-.84.15-2.53.2-3.37,1.11.63,2.21,1.32,3.37,1.9.39-1,.75-2.02,1.06-3.05"/>
        <path class="cls-4" d="M134.56,163.53c3.3-.38,7.01-1.84,10.17-.19-6.57.46-13.1,1.59-19.1,4.42,1.87-2.99,5.85-3.25,8.93-4.23"/>
        <path class="cls-4" d="M150.31,172.59c2.32-2.14,4.34-4.62,6.87-6.55-1.54,2.71-3.86,4.85-5.73,7.32.48,2.16,1.15,4.38.83,6.62-.41,2.38-2.73,3.72-4.17,5.41,1.97-.7,3.75-1.86,5.75-2.5,1.48,1.05,2.78,2.34,4.16,3.55-1.4,1.47-2.66,4.34-5.04,3.8-2.11-1.65-3.94-3.67-6.3-5-4.15,1.5-9.23.91-12.41-2.31-2.81-2.97-2.24-8.24,1.26-10.4,2.45-1.92,5.74-1.37,8.64-1.39-3.37.74-7.38.56-9.6,3.69-2.78,3.66.32,8.96,4.43,9.81,4.69,1.31,11.71-.36,12.51-5.99.6-4.14-3.33-7.69-7.3-7.71l.5-1.2c2.05.52,3.93,1.52,5.6,2.85"/>
        <path class="cls-4" d="M176.29,167.85c3.01-1.63.08,3.31,0,0"/>
        <path class="cls-4" d="M127.88,171.82c4.87-2.64,10.46-3.09,15.91-2.7l-.34,1.08c-1.94-.26-3.86-.55-5.75-.92-2.63,1.72-5.74,3.35-6.78,6.55-1.45,2.82.3,5.78.82,8.61-1.25.09-2.49.19-3.73.29.06,2.3,1.62,5.83-2.04,5.84.13,1.45.35,2.88.52,4.33.72-.41,2.17-1.22,2.89-1.62-.03.64-.1,1.92-.13,2.57.19,2.66-2.63.98-3.22-.14-.92-.78-1.84-1.54-2.77-2.28.34-.17,1.02-.51,1.36-.68-.68-1.76-.77-4.04-2.99-4.59.84-.54,1.69-1.07,2.55-1.59-1.15-.7-2.29-1.36-3.42-2.04,1.33-.47,2.67-.95,4.02-1.44-.97-.25-2.92-.74-3.89-.99.81-1.05,1.92-1.77,3.09-2.4.23-.44.7-1.32.94-1.76,1.82-.25,3.64-.36,5.49-.46,1.04-2.5-1.05-4.05-2.53-5.66"/>
        <path class="cls-2" d="M51.55,172.73c4.3-.64,10,2.81,8.91,7.68-1.91,5.82-11.03,6.25-14.06,1.13-2.62-3.71,1.26-8.37,5.15-8.81"/>
        <path class="cls-4" d="M137.29,174.1c4.44-2.08,11.38-1.71,13.14,3.74-1.52,6.23-10.81,7.89-14.67,3.05-1.87-2.05-.82-5.61,1.53-6.79"/>
        <path class="cls-4" d="M105.83,173.68c1.41-.72,4.2.49,4.22,2.21-1.36.71-2.92.94-4.38,1.34.04-.89.12-2.66.16-3.55"/>
        <path class="cls-4" d="M46.79,177.93c1.4-3.8,6.64-4.96,9.77-2.6-3.21,1.02-6.39,2.3-9.77,2.6"/>
        <path class="cls-2" d="M138.13,178.67c1.81-2.85,5.83-3.64,7.88-.6-.41,1.93-2.07,4.7-4.34,2.99-.06-.56-.17-1.67-.22-2.22-.27.72-.79,2.17-1.06,2.89-.56-.77-1.69-2.3-2.26-3.06"/>
        <path class="cls-4" d="M48.36,180.22c3.42-1.04,6.74-2.57,10.31-3.03-.41,4.71-7.19,5.5-10.31,3.03"/>
        <path class="cls-4" d="M99.93,181c-1.69-.29-1.4-3.08.11-3.44,1.65.23,1.42,3.16-.11,3.44"/>
        <path class="cls-4" d="M142.95,178.05c3.44-.14-1.33,2.96,0,0"/>
        <path class="cls-4" d="M167.02,177.13c1.66,1.43,1.88,3.67,2.02,5.72.05,4.86-1.72,9.77-5.14,13.27,1.66.69,3.69,2.25,1,3.48-.27-.79-.81-2.36-1.09-3.14-1.46,1.24-2.94,2.51-4.69,3.33-.05.71-.07,1.43-.06,2.15,1.89.58,1.46,2.96-.06,3.66-.9-1.38-1.71-2.84-1.83-4.5-2.34,1.3-4.95,1.94-7.54,2.45l.97-1.48c6.87-1.31,13.3-5.74,15.88-12.42,1.74-3.99.85-8.36.54-12.52"/>
        <path class="cls-2" d="M129.17,178.17l.9.11c.25,1.87.57,3.74.97,5.59-.89.06-2.66.2-3.55.26.55-1.99,1.16-3.96,1.68-5.96"/>
        <path class="cls-4" d="M174.59,182.35c1.16-.19,2.33-.38,3.51-.57-.76,6.28-1.99,12.61-4.87,18.3-6.57,11.85-16.96,21.4-29.1,27.35-.17-3,.54-6.21-.68-9.05-2.92-2.13-6.5-3.07-9.62-4.84.63-.67,1.31-1.3,2.03-1.88,6.61-1.9,13.91.35,20.19-2.84,2.22-.92,5.23-.59,6.61-2.91.96-1.72,2.68-2.54,4.52-3.03,1.46-2.79,3.1-5.48,4.93-8.05,2.62-3.57,2.43-8.27,2.48-12.48"/>
        <path class="cls-2" d="M78.65,189.78c-1.15-3.02,2.7-4.57,4.29-6.53,1.69.98,3.34,1.97,5.04,2.98-.76-.07-2.27-.22-3.02-.29,1.22,1.42,1.09,3.16.79,4.9-1.05-.42-3.15-1.26-4.2-1.68.61-.26,1.81-.76,2.41-1.01-1.38.11-2.76.25-4.13.39,1.99,1.55,4.46,2.16,6.71,3.25-2.67.14-6.21.67-7.89-2.01"/>
        <path class="cls-4" d="M115.26,185.17c.3-.25.92-.76,1.22-1.01,1.29,5.77,4.32,11.53,9.76,14.33,7.23,4.37,15.96,4.7,24.14,3.82-.89,2.31-3.6,1.5-5.46,1.86-7.78.29-15.52-2-22.07-6.15-.47.4-1.4,1.21-1.87,1.61.3-.9.61-1.79.94-2.68-1.95-1.91-3.65-4.06-4.83-6.53-1.95-.7-4.66,1.76-5.55-1.36,1.36-.38,3.77.64,4.49-1.08-.23-.95-.49-1.89-.77-2.81"/>
        <path class="cls-4" d="M83.22,185.09q.54.64,0,0"/>
        <path class="cls-2" d="M154.48,184.69c1.9-.54,1.56,3.85-.31,3.56-1.41-.69-.38-2.68.31-3.56"/>
        <path class="cls-4" d="M131.86,187.48c1.36-1.32,3.15-2.82,4.76-.92-.98,1.41-2.19,2.68-3.18,4.08.13-1.09.25-2.18.38-3.26l-1.96.1Z"/>
        <path class="cls-4" d="M160.85,186.85c1.79-.61,3.63-1.02,5.48-1.44-1.27,6.7-6.63,11.94-12.96,14.08-6.37,2.47-13.5,2.38-19.98.39,1.09-1.38,2.28-2.67,3.49-3.94,3.8,2.18,8.34,1.97,12.44.78-1.32-.62-2.73-.97-4.14-1.25,3.75-.53,7.4.8,10.92,1.96-.29-.94-.56-1.88-.83-2.81,4.14-.42,3.94-4.94,5.58-7.77"/>
        <path class="cls-2" d="M86.91,191.02c-.55-1.26-.57-3.98,1.11-4.34.61,1.42.15,3.41-1.11,4.34"/>
        <path class="cls-4" d="M17.41,187.22c.89.19,1.78.39,2.68.59,2.96,7.48,8.85,13.47,14.4,19.17-.23-1.53-.01-3.39,1.94-2.67,1.85,1.56-.75,2.71-1.61,3.92-7.73-5.15-12.83-13.14-17.41-21.01"/>
        <path class="cls-4" d="M132.72,190.7c-2.68,2.05-3.47-3.49-.31-2.42.31.77.42,1.57.31,2.42"/>
        <path class="cls-4" d="M169.12,191.8c.05-1.51.43-3.51,2.33-3.5,1.17,1.78-.89,3.01-2.33,3.5"/>
        <path class="cls-4" d="M11.18,188.75c2.09,4.27,3.24,8.95,5.59,13.11,4.75,9.77,12.93,17.3,21.46,23.76,15.44,10.83,34.06,16.73,52.82,17.91,20.14,1.62,41.13-2.45,58.3-13.38,13.31-8.14,23.91-20.59,29.42-35.23-4.02,14.51-14.52,26.3-26.8,34.57-17.35,12.07-39.09,16.45-59.95,15.44-19.43-1.17-38.86-7-54.78-18.41-12.5-9.22-23.22-22.11-26.06-37.77"/>
        <path class="cls-4" d="M98.4,189.74c1.04-.04,2.61-1.19,3.45.02.72,2.73-2.42,6.39-4.27,2.46h2.28c-.5-.83-.98-1.66-1.46-2.48"/>
        <path class="cls-4" d="M106.91,192.1c.37-.45,1.1-1.35,1.47-1.8-.32,2.86,2.06,4.75,3.45,6.95-1.64-.67-3.01-1.76-4.36-2.84l-1.45.73c-2.51-.11-.04-2.54.89-3.04"/>
        <path class="cls-4" d="M128.98,198.74c.55-2.67,2.75-4.26,4.87-5.66-.44,2.54-2.72,4.5-4.87,5.66"/>
        <path class="cls-4" d="M118.27,195.88c1.65-.84,2.62,1.89.79,2.26-1.56.67-2.44-1.86-.79-2.26"/>
        <path class="cls-4" d="M92.41,199.47c3.77-3.16,9.3-4.01,13.86-2.18,3.4,1.48,5.53,4.67,8.22,7.08,7.44,6.62,16.21,11.78,25.63,14.97-5.05,1.82-9.92,4.17-15.14,5.5-9.52,2.42-19.38,3.5-29.19,3.4-1.02-.82-1.05-2.3-1.55-3.42-1.86-6.26-4.18-12.43-5.15-18.9-.77-2.74,1.42-4.88,3.32-6.45"/>
        <path class="cls-4" d="M112.6,198.11c1.45-.29,1.99.23,1.62,1.57-1.44.26-1.98-.26-1.62-1.57"/>
        <path class="cls-2" d="M100.22,200.17c2.51-1.35,5.71.2,6.9,2.63.37,4.79-8.12,5.53-8.97.96-.47-1.59.69-3,2.07-3.59"/>
        <path class="cls-4" d="M115.04,200.09c1.41-1.02,3.21,1.35,1.91,2.48-1.38.92-3.16-1.38-1.91-2.48"/>
        <path class="cls-4" d="M100.95,202.32c1.66-.43,2.24.12,1.74,1.65-1.71.45-2.29-.09-1.74-1.65"/>
        <path class="cls-4" d="M126.79,202.13c1.25-.73,2.53,1.23,1.33,2.08-1.21.98-2.48-1.33-1.33-2.08"/>
        <path class="cls-4" d="M39.43,204.52c.4-.44.81-.88,1.23-1.31,1.61,1.34,3.17,2.88,3.54,5.06-1.69-1.12-3.22-2.46-4.77-3.75"/>
        <path class="cls-4" d="M104.14,204.1q.68.45,0,0"/>
        <path class="cls-4" d="M118.65,205.27c1.46-.43,2.94-.84,4.42-1.26.96,1.24,1.87,2.52,2.75,3.83-2.66.04-5.04-1.09-7.17-2.57"/>
        <path class="cls-4" d="M135.31,204.86c.94-1.35,3.91.08,2.59,1.58-1.03,1.12-3.62-.04-2.59-1.58"/>
        <path class="cls-4" d="M149.99,204.83c1.39-1.41,3.62.89,2.35,2.29-1.27,1.19-3.58-.96-2.35-2.29"/>
        <path class="cls-4" d="M127.79,210.41c1.29-1.61,2.86-.59,4.17.4.07,3.37-2.76.23-4.17-.4"/>
        <path class="cls-4" d="M39.9,211.48c1.38-.44,1.93.02,1.64,1.38-1.42.45-1.97,0-1.64-1.38"/>
        <path class="cls-4" d="M18.32,211.66c2.58,2.4,4.22,5.63,6.76,8.08,9.36,9.66,21.4,16.27,33.7,21.42,11.75,4.69,24.28,6.76,36.75,8.45,0,.12.01.36.01.48-19.31-1.1-38.96-5.74-55.25-16.55-8.69-5.63-17.06-12.59-21.97-21.88"/>
        <path class="cls-2" d="M148.97,217.72c-2.59-.79-1.5-4.78.99-4.74,1.81-.19,2.59,1.82,3.59,2.92-1.11,1.17-2.84,3.15-4.58,1.82"/>
        <path class="cls-2" d="M64.32,214.14c2.95-2.3,9.42,1.39,7.13,5.39-2.06,3.53-8.21,3.05-9.8-.66.21-1.84,1.13-3.65,2.67-4.73"/>
        <path class="cls-4" d="M2.14,237.76c1.18-9.14,5.93-18.22,13.96-23.09-1.89,2.21-4.24,3.96-6.09,6.21-4.84,5.81-7.1,13.45-7.25,20.94.14,8.96,4.12,17.51,9.99,24.16-2.6-.93-3.79-3.55-5.2-5.68-4.11-6.68-6.54-14.67-5.41-22.54"/>
        <path class="cls-2" d="M114.34,215.4c3.07-1.27,7.6,1.36,7.01,4.88-1.51,4.05-7.87,4.26-9.93.59-.83-2.27.79-4.69,2.92-5.47"/>
        <path class="cls-4" d="M149.32,214.78c1.64-.59,2.22-.07,1.76,1.55-1.63.57-2.21.05-1.76-1.55"/>
        <path class="cls-4" d="M113.56,217.04c1.53-.01,3.07-.04,4.62-.09.94,1.06,1.67,2.24,2.02,3.65-1.69-1.94-3.79-3.46-6.51-2.96l-.13-.6Z"/>
        <path class="cls-2" d="M76.69,222.48c-.5-1.26-1.67-3.81.21-4.48,2.81-1.49,6.77,3.37,2.69,5.15.02-.92.07-2.74.1-3.66-1.06.12-2.15.26-3.18.45l2.1.9c-.65.55-1.28,1.09-1.92,1.64"/>
        <path class="cls-4" d="M86.36,217.89c3.13,1.29,1.96,5.47,2.46,8.14-2.47,1.23-1.58-2.04-2.3-3.4.41-.49,1.24-1.47,1.66-1.96-2.26-.04-2.86-.97-1.82-2.78"/>
        <path class="cls-4" d="M114.05,220.05c.67-.43,1.35-.85,2.04-1.26.46,1.16,1.12,2.2,1.98,3.12-2.05-.27-4.35-.07-5.81-1.81l1.79-.05Z"/>
        <path class="cls-4" d="M46.15,220.06c9.27,5.42,19.75,8.44,30.23,10.48,2.64.56,5.39.83,7.9,1.92-5.75-.51-11.49-1.52-17.05-3.08-.73.45-1.46.9-2.17,1.36,5.94,1.75,12.13,2.61,18.04,4.42-6.22-.37-12.23-2.11-18.33-3.1-.23-1.04.54-2.85-.78-3.28-1.33.03.23,2.09-1.07,2.13-1.31-.45-.6-2.24-.85-3.26-4.64-.35-8.63-3.03-12.89-4.63l1.24,2c3.88,1.04,7.23,3.69,11.38,3.88-.7.46-1.39.92-2.08,1.38-2.62-1.15-5.36-2.03-7.75-3.61-.55.34-1.09.68-1.62,1.03,11.72,4.73,23.75,9.4,36.49,10.23.98-3.84.79-8.05,3.11-11.45.33.55.98,1.65,1.3,2.2,2.24-1.35-.51-4.76-.01-6.95.63,2.11,1.05,4.29,1.31,6.49.21.2,2.08,2.09.66,2.02-1.05-.19-1.51.26-1.37,1.34.39,2.8,1.47,5.46,2.62,8.03-5.48-.62-11-.93-16.46-1.72-11.3-2.14-22.64-5.66-32.27-12.09,1.69.2,3.29.69,4.83,1.48-.19-.42-.56-1.27-.75-1.69-1.39-.58-2.73-1.21-4.07-1.85.97-.64,1.96-1.28,2.92-1.96l-2.44-.04c-.02-.42-.06-1.26-.07-1.68"/>
        <path class="cls-4" d="M18.78,245.81c-1.49-7.1,3.36-13.43,8.23-17.99.39.62,1.17,1.85,1.56,2.46-2.73,5.05-3,10.9-2.61,16.51.21,6.45,3.53,12.75,8.7,16.61-.18.08-.55.24-.73.32-6.67-4.2-13.54-9.75-15.15-17.91"/>
        <path class="cls-4" d="M33.05,254.71c-6.45-5.78-8.03-17.53-1.59-23.82-1.85,3.72-3.8,7.66-3.38,11.95.59,4.96,3.14,9.78,7.37,12.59,1.41.72,2.89,2.95,4.54.99l-1.28,1.18c8.83,3.97,19.15,4.82,28.27,1.25,3.74-1.22,6.67-3.93,9.88-6.08-3.09,4.18-8.04,6.45-12.86,7.97-10.44,2.94-22.57,1.09-30.95-6.03"/>
        <path class="cls-4" d="M34.14,234.56c1.1.75,2.19,1.52,3.29,2.3-1.91,6.75-1.1,14.52,3.42,20.09-.21-.14-.64-.4-.86-.53-4.48-2.58-8.95-6.17-9.96-11.55-1.2-3.98,1.84-7.41,4.11-10.31"/>
        <path class="cls-4" d="M40.03,247.66c-1.89-2.59-2.41-6.34-.75-9.17.04,3.36-.5,7.32,2.17,9.91,6.51,6.51,17.73,6.76,24.87,1.13-1.42,2.73-4.67,3.58-7.4,4.37-6.72,1.59-14.9-.21-18.89-6.24"/>
        <path class="cls-4" d="M41.13,242.69c.03-2,2.28-1.83,3.7-1.99.12,3.33.52,6.65,1.73,9.78-2.79-1.7-5.84-4.12-5.43-7.79"/>
        <path class="cls-4" d="M67.88,256.77c1.05-1.95,2.12-3.9,3.07-5.91,1.23.41,2.51.84,3.73,1.34-2.19,1.64-4.46,3.15-6.8,4.57"/>
        <path class="cls-4" d="M141.1,250.09c4.41,1.97,8.89,3.81,13.23,5.97-1.79,3.13-.17,6.49,2.37,8.55,2.67-1.58,3.34-4.53,5-6.88-1.04,2.77-1.76,6.04-4.38,7.78l-.42-.36c-4.06-3.21-8.96-5.03-13.59-7.22-.05-.23-.16-.67-.21-.9.41-.2,1.22-.61,1.63-.82-1.36-.68-2.81-1.18-4.31-1.35l-.14-1.45c1.85.14,3.71.22,5.58.23-1.48-.68-3-1.21-4.55-1.62l-.21-1.93Z"/>
        <path class="cls-4" d="M80.41,252.87c1.74.19,3.5.38,5.25.59-3.15,3.83-6.57,7.63-11,10,2.55-3.15,4.69-6.64,5.75-10.59"/>
        <path class="cls-4" d="M156.07,252.98c1.51.04,1.74,2.84.13,2.91-1.43-.18-1.68-2.75-.13-2.91"/>
        <path class="cls-4" d="M141.54,256.11q.31.48,0,0"/>
        <path class="cls-4" d="M155.23,256.67c1.98.93,2.31,3.17,2.55,5.11-2.61-.38-2.36-3.09-2.55-5.11"/>
        <path class="cls-2" d="M62.91,283.03c5.07-.1,10.05-1.54,15.15-1.19-1.15.68-2.27,1.64-3.68,1.61-8.51,1.4-17.28,1.76-25.81.34l-1.12-1.62c5.12.62,10.28,1.17,15.46.86"/>
        <path class="cls-4" d="M76.54,293.94c.95.02,1.91.05,2.88.09-.3.72-.89,2.16-1.18,2.87.97.9,2.33.44,3.49.85-1.58.93-3.47.8-5.21,1.04-.01-1.62,0-3.23.02-4.85"/>
      </g>
    </g>
  </g>
</svg>