<?xml version="1.0" encoding="UTF-8"?>
<svg id="Layer_1" xmlns="http://www.w3.org/2000/svg" version="1.1" viewBox="0 0 269.68 300.31">
  <!-- Generator: Adobe Illustrator 30.5.1, SVG Export Plug-In . SVG Version: 2.1.4 Build 3)  -->
  <defs>
    <style>
      .st0 {
        fill: #2d2e2d;
      }
    </style>
  </defs>
  <path class="st0" d="M26.09,86.61c2.9.44,5.96.22,8.68-.53,5.68-1.55,8.26-4.82,9.71-10.3.66-2.46,1.4-4.83,2.41-7.17-2.49-4.57-3.38-10.19-2.13-16.34.25-1.26.6-2.46,1.01-3.6-2.75-.17-5.29-.93-7.57-2.14-2.1,2.01-3.82,4.6-4.87,7.24-2.21,5.49-.48,11.47-.97,17.2-.47,5.52-2.07,11.86-6.28,15.63h.01Z"/>
  <path class="st0" d="M36.13,95.98c.16-.03.29-.03.39-.02h.02c3.01-1.44,6.11-2.73,9.3-3.99,7.34-2.88,13.38-6.72,18.72-11.66-7-1.02-12.71-4.45-16.28-9.46-2.53,7.01-2.85,13.45-10.65,17.08-4.91,2.29-10.87,2.7-16.03,1.03-1.15-.37.18-2.64.83-2.92,11.88-4.86,5.26-21.39,8.13-30.71,1.1-3.61,3.11-7.11,5.72-9.94-2.92-1.98-5.33-4.69-7.1-7.8-8,5.47-11.54,15.33-9.69,24.72,1.75,8.87.83,17.13-6.3,23.44-2.44,2.15-5.45,4.02-8.61,4.87-.09.02-.3.09-.56.16.13.18.24.33.31.41,7.72,8.11,22.1,7.19,31.81,4.78h-.01Z"/>
  <path class="st0" d="M70.2,45.39c.72-2.32,1.64-4.62,2.73-6.83-3.22-.82-6.7-1.08-9.96-.8-10.1.83-15.79,8.1-16.34,18.07-.69,12.42,9.33,20.51,20.9,21.54,1.8-1.88,3.53-3.91,5.19-6.07-.48-.54-.93-1.11-1.32-1.71-8.87-.43-19.31-3.76-16.09-14.64,2.05-6.91,7.96-11.03,14.88-9.55h0Z"/>
  <path class="st0" d="M42.13,230.11c-7.41-3.4-15.02-4.76-23.08-5.24-.78-.05-1.6-.08-2.44-.13h-.01c-.99,7.32-1.71,17.35,3.05,22.93,8-3.87,17.8-2.49,27.24-.8,4.52.82,27.51,6.46,27.51-1.85,0-.88-.25-1.93-.83-3.15-1.39-.26-2.78-.56-4.16-.9-9.77-2.33-18.24-6.7-27.28-10.86h0Z"/>
  <path class="st0" d="M39.06,43.02c.18.11.38.23.56.32,2.29,1.25,4.84,2.03,7.56,2.18,1.23-2.28,2.83-4.22,4.68-5.79-6.98-1.05-13.49-6.27-14.88-13.38-1.47-7.5,3.47-15.49,9.85-19.2,5.77-3.36,13.95-2.94,18.84,1.87,3.69,3.63,3.1,8.41-.99,11.4-1.83,1.33-1.88-1.52-.68-2.39,4.88-3.57-2.09-8.02-5.21-9.1-4.73-1.63-10-.79-13.87,2.46-11.71,9.8-2.56,25.63,10.99,25.39.13,0,.23.02.32.07h0c5.31-2.62,11.83-3.11,18.33-1.33.91-1.56,1.91-3.06,3-4.48-1.52-.99-1.97-2.87-1.88-4.83-2.78,2.76-6.31,4.75-9.94,5.41-9.65,1.77-18.65-5.23-15.36-15.23.56-1.69,2.91-1.97,2.2.21-1.51,4.57.86,9.09,5.19,10.93,5.78,2.45,12.42.99,16.85-3.37,4.36-4.29,5.86-10.87,2-16C72.1,2.17,63.05.42,56.03.04c-14.1-.75-26.91,7.98-27.73,22.8-.43,7.96,3.94,16.17,10.77,20.18h-.01Z"/>
  <path class="st0" d="M50.87,260.83c15.73,3.31,35.61,10.1,46.71-5.78.06-.08.1-.15.16-.22-.64-3.69-.69-7.49-.14-11.16-1.36.05-2.71.07-4.08.07-5.65,0-11.31-.43-16.89-1.33.53,3.8-1.08,7.57-4.98,9.3-6.1,2.71-14,.47-20.18-.63-7.32-1.31-14.82-3.13-22.29-2.92-9.14.25-15.28,5.02-19.33,13.11-1.39,2.76-4.01,9.39,1.45,8.53,2.14-.34,3.93-2.24,5.57-3.52,10.28-7.96,21.56-8.07,33.99-5.45h.01Z"/>
  <path class="st0" d="M75.07,238.79l.4.08c7.73,1.46,15.77,2.07,23.81,1.84.23,0,.47,0,.71-.03,6.32-.21,12.63-.94,18.81-2.18h.01c.46-.08.92-.17,1.38-.29,6.57-1.39,12.96-3.37,19.01-5.9-3.57-.21-7.12-.32-10.63-.39-26.44-.52-56.33,1.34-79.18-14.64-9.75-6.81-16.55-17.96-29.43-18.52h-.01c-3.42.76-7.03,2.62-9.24,5.34-4.16,5.15-3.24,15.51,4,17.12.57.13,1.16.24,1.75.33,5.55.92,11.3.51,16.85,1.87,9.91,2.42,18.38,8.27,27.95,11.64,4.41,1.56,9,2.79,13.7,3.7l.11.02h0Z"/>
  <path class="st0" d="M134.32,219.14c-8.69-2.11-17.49-3.73-26.31-5.25-9.3-1.6-18.97-2.37-27.94-5.45-13.16-4.53-21.2-14.46-30.66-24-5.7-5.73-12.07-10.61-19.39-14.09-3.71-1.77-9.71-4.24-14.8-3.99-.28,0-.55.03-.83.06-2.68.31-5.03,1.45-6.6,3.94-5.61,8.94,2.53,24.95,13.12,25.21.08,0,.15,0,.21,0,6.5.28,11.74,2.86,16.58,7.11,4.83,4.24,9.23,8.84,14.61,12.41,8.91,5.91,19.24,9.12,29.67,11.02,26.75,4.84,54.71-.29,81.22,6.06-6.02-8.16-20.35-10.97-28.9-13.05h.02Z"/>
  <path class="st0" d="M145.75,282.56c-6.26-1.95-12.74-3.16-19.21-4.18-5.54-.86-11.03-1.55-16.02-4.32-6.38-3.54-10.38-9.68-12.18-16.51-11.33,15.3-29.74,10.56-46,7.02-8.68-1.9-18.05-3.8-26.68-.63-3.26,1.2-5.76,3.3-8.39,5.26-.46,5.95.49,12.62,3.14,17.94,5.94,11.96,18.69,11.61,30.12,9.24,12.42-2.57,25.24-5.71,38-4.34,16.15,1.72,31.74,6.13,48.05,7.06,10.02.59,20.31.7,30.33-.44-3.01-8.43-12.07-13.26-21.14-16.09h-.02Z"/>
  <path class="st0" d="M160.51,275.05c-7.15-5.64-16.18-7.62-24.97-9-12.87-2.03-19.46-12.32-17.85-24.75-5.84,1.18-11.77,1.95-17.72,2.28-.53,4.3-.1,8.86,1.03,12.95,3.08,11,12.11,16.49,22.96,18.15,15.67,2.38,40.85,6.08,45.63,22.91.57-8.52-1.71-16.72-9.09-22.54h0Z"/>
  <path class="st0" d="M173.68,274.67c-1.61-4.62-4.47-8.69-8.45-11.56-3.57-2.57-7.66-3.22-11.65-4.84-9.17-3.72-14.74-13.28-14.7-23.03-6.06,2.42-12.46,4.18-18.77,5.56-.56,4.94.34,10.45,3.01,14.57,5.54,8.53,16.96,7.39,25.67,10.07,8.02,2.46,15.97,6.79,20.2,14.33,3.59,6.38,3.85,13.55,2.69,20.54,3.64-8.03,4.98-17.1,1.99-25.64h0Z"/>
  <path class="st0" d="M119.47,141.43c9.33,7.73,17.84-.77,23.51-9.55-.91-.25-1.77-.51-2.56-.77-7.35-2.4-15.63-6.54-21.69-12.45-4.73,7.96-6.76,16.56.74,22.77Z"/>
  <path class="st0" d="M155.25,104.36c1.31-4.5,2.08-9.64-.91-12.86-4.82-5.18-11.62-.17-16.62,4.71,5.68,2.19,11.23,4.7,16.51,7.58.33.18.67.37,1.01.56h.01Z"/>
  <path class="st0" d="M132.94,98.07c-3.76-1.41-7.56-2.7-11.39-3.87-5.92-1.07-9.79,1.54-8.72,7.77.76,4.49,3.32,8.68,6.41,12.16.47.53.94,1.05,1.44,1.53.72.74,1.46,1.42,2.21,2.08,6.18,5.42,14,9.07,21.91,11.18.22.07.45.13.67.18.45.11.93.24,1.44.36,5.77,1.34,14.47,2.51,18.48-2.49,3.64-4.54-.15-10.92-3.73-14.11-1.6-1.42-3.34-2.69-5.18-3.85-.75-.46-1.51-.91-2.28-1.34-2.25-1.29-4.6-2.42-6.88-3.52-3.99-1.9-8.08-3.65-12.22-5.25-.71-.29-1.44-.55-2.15-.82h-.01Z"/>
  <path class="st0" d="M99.81,79.79c-8.83,11.08-15.99,25.59-16.51,39.75-.37,9.94,3.25,19.54,9.31,27.63.2.26.38.52.59.77,3.46,4.46,7.65,8.44,12.32,11.73.24.17.49.34.75.51h0c.88.61,1.78,1.2,2.7,1.75.24.15.49.3.75.46,13.38,7.84,29.61,10.18,43.24,2.98,13.46-7.12,22.88-19.42,33.63-29.83,4.49-4.36,9.47-8.52,15.07-10.96-1.05-.05-2.09-.09-3.14-.14-3.44-.13-7.01-.02-10.23-1.44-2.51-1.09-4.25-2.9-5.57-5.09-2.65,6.73-6.26,13.22-10.31,19.13-6.61,9.64-15.56,18.77-27.14,21.94-15.22,4.16-32.48-3.95-42.18-15.66-14.12-17.03-7.22-41.73,4.75-58.17-3.09-.94-5.84-2.62-8.01-5.34l-.02-.02Z"/>
  <path class="st0" d="M214.9,41.63c-1.39,3.47-3.63,5.9-6.44,7.52.91,2.95,2.42,5.71,4.37,8.19,12.07-5.3,19.95-14.79,19.5-28.4-.17-5.08-1.61-11.5-3.49-15.71-6.31,1.78-12.15,6.02-15.88,11.33,3.75,4.49,4.07,11.74,1.94,17.07h0Z"/>
  <path class="st0" d="M234.75,31.44c-.88,12.97-8.89,22.48-20.17,27.96,3.39,3.65,7.71,6.58,12.3,8.5,14.34-13,26.32-34.45,17.98-54.01-3.64-1.22-7.46-1.78-11.19-1.52-.62.05-1.23.11-1.85.22,2.32,5.92,3.36,12.58,2.93,18.85h0Z"/>
  <path class="st0" d="M229.19,68.78c2.15.72,4.34,1.23,6.49,1.47,3.17.36,6.23.31,9.12-.24,7.56-10.07,15.04-21.59,17.01-34.26.46-2.94.83-6.6-.13-9.6-3.29-4.6-7.94-8.35-13.14-10.79,5.95,19.35-5.55,40.16-19.36,53.41h0Z"/>
  <path class="st0" d="M5.22,147.46c7.71,3.68,13.7,1.24,21.18-.48,12.97-3,34.45,18.11,40.93-.76,3.24-9.43-.7-17.72-10.57-20.27-5.85-1.51-13.3-.63-17.02,4.7-1.32,1.9-2.25-.37-1.26-1.79,4.27-6.13,12.6-7.79,19.47-6.06,9.65,2.42,14.49,9.91,12.66,19.64-1.1,5.83-3.96,12.07-9.73,14.46-1.09.45-2.21.71-3.34.83.69,5.85,2.82,11.78,5.49,16.89,5.99,11.41,16.27,19.54,28.59,23.23,17.31,5.17,35.31,7.66,52.66,12.73,10.55,3.08,23.33,7.3,28.25,18.13,4.53,9.99-1.02,21.15-12.12,22.33-1.78.2-.69-2.95.59-3.09,11.95-1.29,13.01-13.56,6.26-21.59-4.02-4.8-9.97-7.64-15.72-9.84-14.39-5.5-29.92-7.99-44.88-11.47-13-3.02-26.05-5.76-36.12-15.15-8.64-8.06-14.76-20.25-15.62-32.18-7.42-.64-15.4-6.37-22-7.65-5.06-.99-9.61.71-14.33,1.75,1.82,3.51.55,7.99-1.34,11.53,8.04.07,17.62,5.21,23.12,8.96,13.35,9.14,21.6,24.26,36.56,31.2,10.61,4.92,22.83,5.57,34.22,7.56,10.24,1.78,20.5,3.7,30.52,6.52,9.15,2.57,22.23,6.13,25.89,16.11.31.84-.72,2.91-1.78,2.61-6.81-1.92-13.97-3-21.14-3.61-1.07.53-2.15,1.02-3.25,1.51.08,4.14,1.3,8.44,3.32,11.96,2.15,3.76,5.38,6.72,9.31,8.55,4.36,2.03,8.94,2.54,12.95,5.4,12.41,8.87,12.73,24.91,7.75,38.18,7.65-.24,15.34-1.24,22.86-2.65,13.23-2.48,28.37-6.46,38.12-16.35,8.93-9.09,13.1-23.26,16.04-36.18-6.85,9.45-16.43,15.84-30.19,14.81-11.02-.83-24.02-5.07-31.25-13.91-6.13-7.49-6.87-17.49-6.01-26.76,1.14-12.33,4.38-24.63,7.53-36.57,2.73-10.35,5.96-21.17,12.43-29.88,5.58-7.55,13.56-12.15,22.98-12.76,11.84-.77,26.55,3.06,35.59,11.02.18.16.37.32.54.49.65-15.79.71-31.64-.14-47.4-.41-7.84-1.02-15.71-2.38-23.44-.71-4.07-1.43-8.86-3.69-12.47-3.48,3.18-7.48,5.37-11.8,6.49l-1.16.28c-5.14,1.11-10.7.78-16.36-1.07-.61-.2-1.22-.43-1.83-.66-.07,0-.11-.02-.17-.07-8.89-3.56-17.44-11.46-20.01-20.83-11.65,4.37-29.89-1.47-39.04-4.21-1.53-.46-.05-3.53,1.18-3.16,7.45,2.23,27.64,8.64,38.51,4.26.39-.16.77-.33,1.14-.52,3.33-1.7,5.58-4.61,5.98-9.26.62-7.29-3.29-12.72-10.18-15.1-11.56-3.99-22.68,1.48-34.05,3.08-11.47,1.62-23.2.95-34.67-.28-6.88-.74-13.74-1.74-20.59-2.84-4.68-.76-9.48-2.03-14.26-1.75-7.65.46-14.18,4.4-19.1,10.01-.01,0-.01.01-.01.01-.23.25-.44.49-.65.75v.02c-1.52,1.8-2.85,3.76-4.01,5.81h-.01c-.24.44-.47.86-.69,1.29-1.34,2.57-2.43,5.29-3.21,8.02h0c-.09.31-.18.6-.25.91-.46,1.71-.79,3.44-1.01,5.14-.84,6.73.21,13.74,6.05,17.9,6.06,4.3,14.28,4.44,18.7-2.06.01-6.64,4.83-12.23,11.71-13.88,1.71-.4.67,2.8-.57,3.1-5.57,1.33-9.62,5.54-8.48,11.56,1.72,9.11,9.3,14.33,18.16,14.17,13.95-.25,27.39-7.79,41.32-3.05,12.09,4.11,20.12,11.94,23.66,24.16.82,2.79,1.36,5.92,2.47,8.72.1.11.18.26.2.48.44,1.02.97,1.99,1.61,2.87,3.57,4.88,9.62,4.49,15.05,4.73,7.54.33,18.92-.07,25.68,4.24,1.22.77-.54,3.73-1.72,2.99-2.82-1.79-6.83-2.23-10.11-2.71h-.02s-.08,0-.11-.01c-.12-.02-.24-.03-.36-.06-.2-.02-.4-.06-.6-.08-16.94-2.09-29.07,15.36-39.64,26.01-7.17,7.23-15.46,14.55-25.01,18.49.94,2.78,1.33,5.92.75,8.73-1.24,5.87-6.47,8.31-12.06,8.47-5.53.16-10.91-1.88-12.02-7.81-.43-2.34-.24-4.87.37-7.22-.32-.06-.63-.13-.94-.21-.86,2.38-2.8,4.73-4.24,6.25-2.91,3.08-7,5.26-11.27,3.84-9.25-3.08-8.1-12.18-3-18.05-.55-.36-1.09-.71-1.62-1.09-4.92,5.78-14.07,8.65-18.78.79-3.13-5.22-.07-11.26,4.07-15.04-8.64-11.87-11.34-26.04-7.21-40.69,3.06-10.76,8.64-21.34,15.65-30.14-.93-1.53-1.71-3.31-2.32-5.39-.11-.4-.22-.82-.31-1.22-4.03,4.6-10.22,6.84-16.27,4.53-2.11-.8-3.91-1.86-5.4-3.14-1.86,2.45-3.82,4.82-5.9,7.06-.06.08-.14.15-.21.23-.05.06-.09.1-.15.15-4.1,4.38-8.71,8.23-14.11,11.07-6.94,3.67-14.62,5.64-21.49,9.47-9.75,5.42-18.36,13.78-25.14,22.57-3.65,4.71-8.33,11.47-7.09,17.85.57,2.95,2.4,5.03,5.06,6.3h-.04ZM191.81,33.67c.31-4.06,3.57-7.78,7.72-8.04,4.5-.3,7.71,3.47,7.64,7.78,0,.07,0,.15-.02.22,0,.05,0,.1,0,.16-.52,4.07-3.72,7.79-8.01,7.88-4.37.1-7.64-3.75-7.32-8ZM90.13,54.22s-.01.02-.01.03v.06c-.39,3.06-2.85,5.98-6.1,6.03-3.19.05-5.49-2.78-5.25-5.87.23-3.06,2.67-5.95,5.8-6.19,3.3-.25,5.64,2.51,5.58,5.64,0,.09-.01.2-.02.3Z"/>
  <path class="st0" d="M236.36,195.45c-2.73-.8-5.93.56-6.21,3.63-.55,5.99,9.26,8.21,10.27,1.92-.02-2.59-1.53-4.8-4.07-5.55h.01Z"/>
  <path class="st0" d="M230.59,182.72c-8.18.97-14.66,8.16-15.23,16.31-.67,9.48,6.9,17.88,16.54,17.65,9.04-.21,15.7-7.63,16.76-16.24,0-.08,0-.14,0-.21,0-.06.02-.11.02-.17.22-10.02-7.71-18.57-18.1-17.34h0ZM242.9,199.99c0,.06,0,.13,0,.2-.51,4.03-3.69,7.75-7.95,7.84-4.34.1-7.6-3.72-7.27-7.95.31-4.02,3.55-7.72,7.68-8,4.48-.29,7.66,3.45,7.58,7.73,0,.06,0,.11-.02.18h0Z"/>
  <path class="st0" d="M263.13,154.29c-1.71-2.01-3.83-3.84-6.4-5.44-9.24-5.72-22.09-8.94-32.94-7.42-9.87,1.39-16.9,7.78-21.51,16.33-5.19,9.66-7.76,20.65-10.27,31.25-2.4,10.08-5.11,20.35-5.52,30.75-.34,8.68,1.39,17.41,7.79,23.71,7.79,7.64,20.58,11.39,31.27,11.41,12.94.03,21.46-7.25,27.34-17.08,1.49-2.51,2.83-5.18,4.02-7.94,3.19-7.45,5.36-15.5,7.06-22.62,3.62-15.28,10.01-35.85,1.44-49.83-.65-1.09-1.41-2.13-2.27-3.13h-.01ZM261.86,184.67c-.44,4.88-1.32,9.76-2.41,14.59-.92,4.05-1.98,8.06-3,12.02-2.01,7.68-4.33,15.64-8.94,22.21-9.88,14.1-31.27,12.95-43.91,2.8-13.01-10.46-6.77-29.95-3.56-43.5,4.13-17.05,11.92-39.7,33.4-38.39,8.18.51,17.85,3.6,23.41,9.92,2.93,3.31,4.37,7.32,4.93,11.54.38,2.9.35,5.9.09,8.8h0Z"/>
  <path class="st0" d="M256.16,64.24c.36-.33.7-.67,1.03-1.01.09-.1.18-.21.28-.29,5.26-5.53,8.75-13.09,9.18-20.7.22-3.77-.51-7.4-1.95-10.76-.13,1.59-.37,3.14-.62,4.54-2.17,12.15-8.81,23.2-16.04,33.12,2.92-.99,5.64-2.59,8.12-4.91h0Z"/>
</svg>