<?xml version="1.0" encoding="UTF-8"?>
<svg id="Layer_1" xmlns="http://www.w3.org/2000/svg" version="1.1" viewBox="0 0 1811.85 432.46">
  <!-- Generator: Adobe Illustrator 30.5.1, SVG Export Plug-In . SVG Version: 2.1.4 Build 3)  -->
  <defs>
    <style>
      .st0 {
        fill: #2d2e2d;
      }
    </style>
  </defs>
  <path class="st0" d="M1583.76,366.97c8.44-.85,14.2,6.76,21.38,9.72,2.91,1.22,6.02,2.07,9.22,2.67-5.69-3.72-9.85-8.93-14.69-14.77-3.24-3.91-9.84-9.96-15.36-10.02-4.6-.05-6.82,4.5-4.33,8.39.97,1.53,2.36,2.9,3.79,4.01Z"/>
  <path class="st0" d="M1603.36,188.79c-.38,3.92-.16,8.02.65,11.89,1.21-.07,2.43-.14,3.64-.2,2.91-.16,5.8-.31,8.71-.47,3.64-8.07,2.26-18.78.3-27.21-8.04,2.61-12.46,7.3-13.31,15.99Z"/>
  <path class="st0" d="M1638.81,167.72c-1.17.2-2.36.39-3.53.6v1.78c1.18-.07,2.36-.13,3.53-.2v-2.18Z"/>
  <path class="st0" d="M1638.81,172.99c-1.17.06-2.34.13-3.53.2v4.48c1.18-.06,2.36-.11,3.53-.18v-4.49Z"/>
  <path class="st0" d="M1638.81,180.58c-1.17.07-2.34.13-3.53.18v3.92c1.18-.05,2.36-.09,3.53-.15v-3.95Z"/>
  <path class="st0" d="M1638.81,187.63c-1.17.06-2.34.1-3.53.15v4.83c1.18-.05,2.36-.09,3.53-.14v-4.84Z"/>
  <path class="st0" d="M1635.28,199.02c1.18-.07,2.36-.13,3.53-.2v-3.25c-1.17.05-2.34.09-3.53.15v3.3Z"/>
  <path class="st0" d="M1641.3,167.32v2.45c1.61-.09,3.23-.18,4.84-.28-.02-.94-.03-1.9-.06-2.85-1.6.22-3.2.44-4.78.68Z"/>
  <path class="st0" d="M1641.3,177.36c1.66-.08,3.32-.17,4.99-.25-.03-1.52-.06-3.02-.09-4.53-1.63.09-3.26.18-4.9.28v4.5Z"/>
  <path class="st0" d="M1641.3,184.43c1.7-.07,3.41-.14,5.11-.22-.02-1.33-.05-2.68-.07-4.01-1.69.08-3.37.17-5.05.25v3.98Z"/>
  <path class="st0" d="M1641.3,192.37c1.76-.07,3.5-.15,5.26-.22-.02-1.61-.06-3.22-.09-4.84-1.72.08-3.45.15-5.17.22v4.84Z"/>
  <path class="st0" d="M1641.3,198.7c1.79-.09,3.59-.2,5.39-.29-.02-1.06-.05-2.1-.06-3.16-1.78.08-3.56.15-5.33.22v3.23Z"/>
  <path class="st0" d="M1597.24,239.06c4.3,1.92,8.79,3.44,13.39,4.65h.05c.13.05.24.08.37.1,3.22.84,6.48,1.54,9.78,2.11h.01c.13-.02.25,0,.34.06h.01c7.88,1.36,15.92,2.06,23.75,2.53-9.7-4.77-15.83-13.53-13.46-26.2,1.71-9.12,7.83-16.54,15.77-20.85-14.96.8-29.94,1.6-44.91,2.39-.03.01-.07.01-.1.01-7.43.39-14.87.78-22.3,1.18-.1,2.48-.14,4.98-.13,7.46.02,4.55-.23,9.32,1.78,13.53,3.02,6.31,9.49,10.29,15.65,13.02Z"/>
  <path class="st0" d="M1626.87,412.01c6.08.75,12.42-1.74,16.55-6.21,5.99-6.49,4.76-13.85,2.53-21.54-2.2-7.61-1.92-15.33.22-22.9,2.29-8.14,8.33-16.46,2.42-24.5-4.88-6.64-13.74-8.85-21.56-8.94-4.3,3.16-9.77,3.54-15.5,3.2-9.35-.57-17.43,1.22-25.4,4.91,2.16,5.02,1.84,10.64-.68,15.47t-.01.02c.72,0,1.45.09,2.17.28,6.78,1.8,12.32,7.7,16.39,13.14,5.61,7.48,12.08,13.11,21.29,15.58h.03c.44.02.87.03,1.31.05,1.48.03.15,3.19-1.2,3.16-.36-.01-.7-.02-1.05-.03-.06,0-.1,0-.16-.01-.02,0-.03.01-.06,0-.02,0-.05-.01-.07-.01-5.86-.23-11.85-1.1-17.44-2.84-8.08-2.51-14.8-11.6-23.8-10.65-.01,0-.01.01-.01.01-.07.02-.14.03-.21.03-.03,0-.08-.01-.11-.01s-.08.01-.12.01c-3.92.54-5.87,5.62-3.75,8.98.72,1.16,1.92,1.9,2.93,2.77,1.31,1.1,2.49,2.18,3.39,3.54,9.53,1.67,18.78,7.15,25.48,13.95,5.25,5.32,8.24,11.56,16.4,12.56Z"/>
  <path class="st0" d="M1648.59,166.32c.02,1.01.05,2.02.06,3.03,1.55-.08,3.1-.17,4.64-.25-.02-1.11-.04-2.23-.08-3.34-1.54.18-3.08.37-4.62.56Z"/>
  <path class="st0" d="M1648.7,172.44c.03,1.51.06,3.02.09,4.54,1.56-.08,3.11-.16,4.68-.24-.03-1.53-.07-3.05-.11-4.56-1.55.08-3.1.17-4.65.26Z"/>
  <path class="st0" d="M1648.85,180.06c.02,1.36.05,2.7.08,4.05,1.56-.07,3.14-.13,4.71-.2-.03-1.37-.07-2.72-.1-4.09-1.56.08-3.13.16-4.69.24Z"/>
  <path class="st0" d="M1648.99,187.21c.02,1.61.06,3.23.09,4.84,1.59-.06,3.16-.13,4.75-.2-.03-1.61-.08-3.23-.12-4.84-1.57.07-3.15.13-4.72.2Z"/>
  <path class="st0" d="M1653.98,198.02c-.02-1.02-.05-2.05-.08-3.07-1.59.07-3.17.14-4.76.2.02,1.05.03,2.09.06,3.13,1.6-.08,3.18-.16,4.78-.25Z"/>
  <path class="st0" d="M1695.33,195.83c4.83-10.43,4.17-23.29-1.61-33.3-.02-.05-.03-.09-.05-.14-7.61.31-15.17.85-22.65,1.53-4.47,10.47-4.79,23,.4,33.18,7.96-.41,15.94-.84,23.9-1.26Z"/>
  <path class="st0" d="M1696.54,275.73c1.49.92,3.11,1.63,4.81,2.17,0,.01.01.01.02.01-4.9-7.23-5.84-18.82-6.5-26.68-3.17.17-6.32.33-9.47.49.01,8.98,3.3,19.16,11.14,24.01Z"/>
  <path class="st0" d="M1706.8,278.88c.08.06.14.13.2.21,1.99.24,4.06.35,6.13.35-2.7-4.76-3.46-11.01-4.24-16.16-.64-4.23-1.14-8.5-1.44-12.79-3.32.22-6.63.41-9.95.6t-.01.01c.76,8.87,2.16,22.51,9.32,27.79Z"/>
  <path class="st0" d="M1710.75,162.12c.03,1.23.07,2.46.1,3.7,1.48-.03,2.97-.06,4.45-.09-.02-1.17-.06-2.34-.09-3.53-1.48-.03-2.98-.07-4.46-.08Z"/>
  <path class="st0" d="M1710.93,168.95c.05,1.34.08,2.69.12,4.05,1.48-.03,2.97-.08,4.45-.12-.03-1.33-.07-2.68-.12-4.01-1.48.02-2.97.06-4.45.08Z"/>
  <path class="st0" d="M1711.14,176.11c.02,1.02.06,2.03.08,3.06,1.48-.06,2.95-.1,4.44-.15-.03-1.01-.06-2.01-.08-3.01-1.48.03-2.95.07-4.44.1Z"/>
  <path class="st0" d="M1711.31,182.27c.05,1.64.09,3.29.14,4.93,1.47-.06,2.94-.13,4.41-.18-.05-1.63-.08-3.26-.13-4.9-1.47.06-2.95.1-4.43.15Z"/>
  <path class="st0" d="M1716.07,194.72c-.05-1.54-.08-3.08-.13-4.61-1.47.06-2.93.13-4.4.18.05,1.55.09,3.1.13,4.65,1.47-.08,2.93-.15,4.4-.23Z"/>
  <path class="st0" d="M1716.91,279.34c2.34-.1,4.67-.29,6.87-.47-2.39-4.45-2.91-10.39-3.53-15.01-.63-4.71-1.07-9.48-1.29-14.24-2.72.23-5.45.44-8.17.63-.25.02-.52.03-.78.06.29,3.65.71,7.3,1.25,10.91.89,5.77,1.69,13.17,5.5,17.86.06.08.1.17.14.26Z"/>
  <path class="st0" d="M1717.73,162.27c.02,1.14.06,2.28.09,3.41,1.61-.02,3.22-.06,4.83-.08-.05-1.05-.09-2.08-.14-3.11-1.59-.08-3.18-.16-4.78-.22Z"/>
  <path class="st0" d="M1717.91,168.82c.03,1.33.07,2.67.1,4,1.66-.05,3.31-.08,4.95-.13-.06-1.32-.12-2.64-.17-3.96-1.63.03-3.25.06-4.88.09Z"/>
  <path class="st0" d="M1718.09,175.94c.02,1,.06,2,.08,2.99,1.69-.06,3.38-.11,5.07-.17-.05-.98-.09-1.95-.14-2.93-1.67.03-3.33.08-5.01.12Z"/>
  <path class="st0" d="M1718.25,182.04c.05,1.62.08,3.24.13,4.87,1.74-.08,3.47-.15,5.21-.23-.07-1.61-.14-3.22-.21-4.83-1.71.07-3.41.13-5.13.18Z"/>
  <path class="st0" d="M1723.93,194.31c-.07-1.52-.14-3.02-.21-4.53-1.75.07-3.5.15-5.26.22.04,1.53.08,3.06.13,4.59,1.78-.09,3.56-.18,5.34-.28Z"/>
  <path class="st0" d="M1698.12,223.79c.07-.22.1-.42.08-.62-.01-.06-.03-.11-.03-.17-.01-.06-.02-.13-.03-.17-2.08-11.94-30.82-11.16-30.99,1.53-.16,12.48,29.05,11.7,30.98-.56Z"/>
  <path class="st0" d="M1633.75,222.57c-2.45,15.85,10.15,24.22,24.28,26.47.1.01.2.06.27.09h.03c6.9.2,13.81.17,20.69-.18h.05c8.04-.4,16.09-.86,24.14-1.4,2.92-.2,5.87-.39,8.83-.6,3.98-1.75,7.87-3.59,11.09-6.62,7.07-6.65,7.75-16.9,4.38-25.65-3.72-9.69-13.85-15.95-24.11-16.19-11.07.6-22.12,1.18-33.19,1.77-.18.08-.36.1-.51.02-4.22.23-8.42.45-12.64.68-11.28,1.93-21.5,9.94-23.32,21.62ZM1680.63,208.35c10.07-.79,29.59,1.64,31.01,14.69.06.13.08.31.07.55,0,.13-.01.24-.05.37-1.04,11.28-14.88,15.5-24.39,16.26-9.5.75-31.02-1.7-31.07-15.24-.06-11.53,15.51-15.92,24.43-16.63Z"/>
  <path class="st0" d="M1727.63,278.56c2.05-.15,4.14-.32,6.22-.55-2.63-7.98-4.17-16.57-4.17-25.04,0-1.47.05-2.93.14-4.39-2.76.3-5.53.57-8.3.83.18,3.54.49,7.08.92,10.61.68,5.7,1.14,13.88,5.01,18.56.07,0,.13-.01.18-.01Z"/>
  <path class="st0" d="M1725.07,162.63c.04.98.09,1.95.14,2.93,2.08-.05,4.17-.08,6.26-.11-.03-.78-.07-1.55-.1-2.33-2.09-.18-4.19-.36-6.3-.48Z"/>
  <path class="st0" d="M1725.34,168.68c.06,1.32.12,2.63.17,3.95,2.08-.06,4.16-.1,6.25-.16-.06-1.3-.11-2.61-.17-3.91-2.08.03-4.17.08-6.25.11Z"/>
  <path class="st0" d="M1725.65,175.75c.05.98.08,1.94.13,2.91l6.24-.21c-.05-.95-.08-1.91-.13-2.85-2.08.05-4.16.1-6.24.15Z"/>
  <path class="st0" d="M1725.92,181.77c.07,1.6.14,3.19.21,4.8,2.08-.09,4.15-.18,6.23-.28-.07-1.57-.14-3.16-.21-4.75-2.07.08-4.15.15-6.23.22Z"/>
  <path class="st0" d="M1729.63,194c1.01-.06,2.03-.1,3.04-.16-.07-1.48-.13-2.95-.2-4.44-2.07.09-4.14.17-6.22.26.07,1.51.14,3,.21,4.51,1.05-.06,2.1-.11,3.16-.17Z"/>
  <path class="st0" d="M1736.82,277.62c1.33-.18,2.65-.41,3.96-.69-1.97-5.25-3.06-10.93-2.94-16.38.09-4.91,1.44-9.43,3.69-13.45-3.09.45-6.18.85-9.3,1.2-.48,9.91,1.3,20.03,4.57,29.33,0-.01.01-.01.01-.01Z"/>
  <path class="st0" d="M1644.65,281.28c-.24-4.5-3.29-8.31-7.83-9.09-4.86-.82-9.89,2.53-9.93,7.71-.06,10.58,17.13,12.92,17.76,1.38ZM1635.81,276.89c2.23.39,3.8,2.25,3.93,4.49-.29,5.25-8.56,3.33-8.44-1.38.06-2.33,2.4-3.48,4.5-3.11Z"/>
  <path class="st0" d="M1574.06,338.97c3.17-.53,6.22-2.24,9.24-4.03.57-.34,1.14-.69,1.71-1.02,2.08-1.24,4.16-2.41,6.27-3.19,8.35-3.05,16.21-2.64,24.93-2.47,7.64.15,14.66-4.05,15.06-12.3.31-6.39-3.53-11.81-9.79-13.25-5.17-1.18-10.83.51-11.19,6.5-.08,1.29-2.61,3.38-2.48,1.38.84-13.83,19.62-15.09,24.7-3.11,2.26,5.34,1.41,11.76-1.79,16.54-.2.29-.39.57-.6.84,12,.87,26.11,8.03,23.34,22.12-1.53,7.77-5.87,14.36-6.48,22.51-.62,8.38,3.76,15.54,3.55,23.7-.22,9.18-6.37,17.39-14.87,20.65-4.16,1.6-8.8,1.97-13.1.68-5.54-1.67-8.27-5.63-11.82-9.84-6.01-7.11-14.89-13.05-24.16-15.42,1.3,4.99.69,10.83,1.8,15.82,1.56,6.96,4.79,13.62,10.69,17.9,7.68,5.6,17.61,5.77,26.72,6.37,8.91.57,18.57,1.09,27.16-1.83,10.49-3.56,12.31-12.28,11.94-22.41-.32-9.1-2.33-18.16-1.84-27.29.52-9.46,4.01-17.97,9.03-25.91,1.13-1.77,2.92-.75,1.79,1.03-4.57,7.24-7.85,14.87-8.34,23.5-.33,5.95.48,11.87,1.1,17.78,1,9.49,2.63,21.28-3.71,29.38-1,1.28-2.13,2.37-3.36,3.31,22.18,7.12,49.06,8.29,70.26-1.79-5.25-5.76-6.79-13.94-5.29-22.67,1.2-6.88,4.91-13.99,10.47-18.49-1.77-1.67-3.39-3.53-4.83-5.61-13.46-19.56-8.27-47.54-4.76-69.35,1.83-11.41,7.4-21.43,17.62-26.96-.4-.77-.78-1.56-1.13-2.37-5.04,1.2-10.32,1.71-15.49,2.06h-.01c-.14.05-.27.06-.4.02t-.01,0c-.39.03-.77.06-1.15.08-9.77.63-22.38,2.28-30.92-3.69-8.06-5.63-11.29-16.77-10.97-26.28-1.7.08-3.4.16-5.1.25h-.05c-.87.05-1.75.07-2.63.1-15.54.51-31.21-.02-46.63-1.99-2.49-.32-5.14-.67-7.87-1.08-1.06,1.43-2.03,2.92-2.91,4.46-.68,1.2-2.07,3.11-2.03,4.5.08,2.56,1.92,2.37,4.16,2.11,7.65-.84,14.89-3.34,22.66-1.68,8.65,1.85,15.65,9.17,23.43,13.19,5.01,2.6,10.19,4.96,15.48,6.95,1.25.47-.37,3.49-1.72,2.98-7.33-2.75-14.54-6.14-21.27-10.14-4.76-2.83-8.95-7.08-14.17-9-5.83-2.14-12.17-1.51-18.15-.44-3.65.64-13.24,4.18-12.99-2.41.14-3.73,2.75-7.68,5.16-10.91-2.59-.43-5.22-.92-7.86-1.52h-.01c-6.11,15.12-19.08,23.9-31.19,34.2-7.09,6.03-11.11,13.81-14.16,22.58-2.8,8.09-4.8,17.61-2.26,26.03,1.54,5.1,5.37,9.89,11.24,8.91ZM1696.57,351.89c1.82-1.33,1.89,1.52.68,2.4-20.28,14.97-18.46,44.47-7.89,64.81.62,1.21-1.48,3.88-2.14,2.61-11.47-22.09-12.51-53.67,9.35-69.82ZM1615.77,271.96c9.12-4.71,20.86-6.33,30.63-2.93,8.66,3.02,16.03,8.85,24.9,11.72,3.88,1.26,7.95,2.36,12.03,2.79,1.53.16.14,3.29-1.18,3.15-6.07-.64-12.09-2.4-17.82-4.8-10.07,6.65-29.68,19.03-40.68,7.77-3.92-4.01-5.6-10.3-5.61-15.9-.75.32-1.48.68-2.22,1.06-1.82.93-1.22-2.24-.05-2.85Z"/>
  <path class="st0" d="M1779.83,191.33c-.55-4.86-2.29-9.84-4.95-13.81-4.67-6.95-12.17-9.19-19.94-10.87-.45-.1-.91-.18-1.36-.28-1.77,8.75-.56,18.23,3.36,26.18,7.63-.41,15.26-.82,22.89-1.22Z"/>
  <path class="st0" d="M1764.89,395.83c-2.53-.24-5.06-.61-7.55-1.1-.88,1.51-1.6,3.16-1.94,4.84-1.3,6.44,4.23,8.45,9.55,9.41,4.34.79,10.48,1.84,14.41-.87,3.86-2.67,2.73-8.4,1.84-12.26-.02-.14-.02-.29,0-.44-5.36.91-10.94.93-16.31.43Z"/>
  <path class="st0" d="M1744.06,277.05c.54,1.25,1.13,2.47,1.77,3.64,3.43-1.48,6.98-2.39,10.58-2.92-2.68-6.91-3.94-15.25-1.45-22.21,2.86-8.01,11-12.56,19.16-13.33,6.78-.63,16.8,1.91,16.61,10.45-.17,8.02-8.33,11.99-15.35,11.85-1.49-.02-.16-3.17,1.18-3.15,4.24.08,9.64-1.05,11.23-5.62,1.26-3.62-.8-6.64-3.81-8.47-4.75-2.9-11.38-2.42-16.41-.69-13.65,4.68-12.93,19.59-8.07,30.79,2.46-.24,4.94-.34,7.43-.38h.01c9.37-.13,19.96.62,28.68,4.68,10.46-9.23,11.38-24.41,4.98-36.48-2.7-5.1-7.1-8.83-12.22-11.15-1.03-.47-2.11-.88-3.21-1.24-4.22-1.38-8.77-1.87-13.15-1.47-9.46.87-19.03,5.14-25.13,12.04-.92,1.03-1.77,2.14-2.52,3.3-2.76,4.24-4.3,9.26-4.01,14.92.25,4.96,1.47,10.14,3.44,14.87.16.11.24.32.25.57Z"/>
  <path class="st0" d="M1612.79,171.29c13.59-5.79,29.64-7.37,44.16-9,12.65-1.43,25.39-2.31,38.13-2.65.16-.06.32-.07.47-.01,5.99-.16,11.97-.21,17.96-.11,16.39.25,33.64.91,49.43,5.73,11.83,3.61,18.69,13.83,19.47,25.95,7.49-.4,14.97-.79,22.47-1.2-1.18-7.85-3.93-15.38-8.31-20.86-11.63-14.57-32.72-18.53-50.2-20.32-22.24-2.28-44.76-1.01-67,.72-9.94.78-19.87,1.72-29.81,2.54-10.8.87-21.66,1.18-32.27,3.6-9.39,2.14-18.86,5.87-25.56,13.05-6.55,7.01-9.49,16.38-10.85,25.68-.37,2.51-.62,5.01-.78,7.53,7.04-.37,14.09-.75,21.13-1.13-1.85-11.09.23-24.71,11.55-29.53Z"/>
  <path class="st0" d="M1755.72,195.7c-.18.08-.36.1-.51.03-13.23.7-26.45,1.4-39.67,2.1,8.22,3.73,14.35,11.31,15.93,20.66.3,1.8.45,3.53.45,5.18,0,10.15-5.49,17.57-13.7,22.8.75-.05,1.48-.1,2.23-.16h.01c.22-.1.41-.13.57-.05h.01c3.47-.29,6.95-.59,10.43-.94.28-.15.53-.2.7-.07,0,0,0-.01.01-.01,3.82-.39,7.63-.85,11.43-1.38,9.79-13.33,30.07-19.66,45.47-13.24,6.58-4.04,12-9.6,14.42-17.43,1.84-5.94,2.43-13.07,1.73-20.13-9.4.5-18.8,1-28.2,1.5-7.11.38-14.23.75-21.34,1.13Z"/>
  <path class="st0" d="M1800.26,386.18c-1.9,1.86-3.98,3.42-6.18,4.7h-.01c8.8,6.55,12.76,19.52,3.53,27.8-7.62,6.83-21.54,6.61-31.07,6.27-9.92-.33-26.17-1.49-30.79-12.19-3.5-8.1,1.21-17.21,6.95-23.26h0c-2.08-1.16-4.07-2.48-5.91-4-9.68,6.54-12.66,21.34-8.62,31.79,1.01,2.62,2.61,4.76,4.6,6.49.24.02.39.17.46.39,7.02,5.8,18.51,7.06,26.82,7.45,12.08.57,25.01-.36,36.66-3.8,8.49-2.51,14.14-9.25,14.63-18.21.52-9.27-4.31-17.48-10.62-23.87l-.45.45Z"/>
  <path class="st0" d="M1777.02,329.16c-4.91-.84-9.99,2.55-10.02,7.78-.06,10.7,17.3,13.03,17.93,1.39-.24-4.55-3.32-8.4-7.91-9.17Z"/>
  <path class="st0" d="M1773.56,318.32c-9.18.99-16.31,9.32-16.28,18.48.03,10.06,8.79,18.11,18.84,17.1,9.43-.95,15.7-9.16,16.25-18.19.02-.09.03-.2.02-.29.01-.18,0-.32-.03-.44-.69-9.77-8.57-17.76-18.79-16.66ZM1759.77,335.42c.03-9.18,8.87-15.46,17.57-13.74,7.36,1.44,12.22,7.81,12.56,15.12-.93,19.59-30.2,17.16-30.13-1.38Z"/>
  <path class="st0" d="M1794.98,285.12c-.47.18-.75-.03-.87-.43-8.62-4.1-19.14-4.65-28.36-4.54h-.01c-7.14.1-14.3.83-20.8,3.79-.01.01-.02.02-.03.02-.07.02-.15.06-.23.1-.85.39-1.68.82-2.5,1.3-13.12,7.58-14.4,22.25-16.2,35.83-2.64,20.03-4.77,46.3,12.08,60.96.05.02.07.05.1.08.33.3.68.59,1.02.86,10.58,8.47,25.89,10.87,39.07,9.68,11.71-1.07,21.88-6.59,27.19-17.35,4.53-9.2,5.49-19.88,5.91-29.99.37-9.22.72-18.57.36-27.79-.37-9.43-2.02-19.44-8.71-26.6-2.33-2.49-5.05-4.44-8-5.93ZM1805,359.42c-2.99,18.55-16.94,27.19-34.69,27.42-12.62.15-27.53-1.78-34.54-13.73-5.16-8.79-4.98-19.73-4.79-29.59.31-16.81-1.13-38.23,11.68-51.24,14.86-15.11,46.83-10.6,58.33,6.56,11.45,17.08,7.07,41.62,4.02,60.59Z"/>
  <path class="st0" d="M26.13,86.61c2.9.44,5.96.22,8.68-.53,5.68-1.55,8.26-4.82,9.71-10.3.66-2.46,1.4-4.83,2.41-7.17-2.49-4.57-3.38-10.19-2.13-16.34.25-1.26.6-2.46,1.01-3.6-2.75-.17-5.29-.93-7.57-2.14-2.1,2.01-3.82,4.6-4.87,7.24-2.21,5.49-.48,11.47-.97,17.2-.47,5.52-2.07,11.86-6.28,15.63Z"/>
  <path class="st0" d="M36.17,95.98c.16-.03.29-.03.39-.02h.02c3.01-1.44,6.11-2.73,9.3-3.99,7.34-2.88,13.38-6.72,18.72-11.66-7-1.02-12.71-4.45-16.28-9.46-2.53,7.01-2.85,13.45-10.65,17.08-4.91,2.29-10.87,2.7-16.03,1.03-1.15-.37.18-2.64.83-2.92,11.88-4.86,5.26-21.39,8.13-30.71,1.1-3.61,3.11-7.11,5.72-9.94-2.92-1.98-5.33-4.69-7.1-7.8-8,5.47-11.54,15.33-9.69,24.72,1.75,8.87.83,17.13-6.3,23.44-2.44,2.15-5.45,4.02-8.61,4.87-.09.02-.3.09-.56.16.13.18.24.33.31.41,7.72,8.11,22.1,7.19,31.81,4.78Z"/>
  <path class="st0" d="M70.24,45.39c.72-2.32,1.64-4.62,2.73-6.83-3.22-.82-6.7-1.08-9.96-.8-10.1.83-15.79,8.1-16.34,18.07-.69,12.42,9.33,20.51,20.9,21.54,1.8-1.88,3.53-3.91,5.19-6.07-.48-.54-.93-1.11-1.32-1.71-8.87-.43-19.31-3.76-16.09-14.64,2.05-6.91,7.96-11.03,14.88-9.55Z"/>
  <path class="st0" d="M42.17,230.11c-7.41-3.4-15.02-4.76-23.08-5.24-.78-.05-1.6-.08-2.44-.13h-.01c-.99,7.32-1.71,17.35,3.05,22.93,8-3.87,17.8-2.49,27.24-.8,4.52.82,27.51,6.46,27.51-1.85,0-.88-.25-1.93-.83-3.15-1.39-.26-2.78-.56-4.16-.9-9.77-2.33-18.24-6.7-27.28-10.86Z"/>
  <path class="st0" d="M39.1,43.02c.18.11.38.23.56.32,2.29,1.25,4.84,2.03,7.56,2.18,1.23-2.28,2.83-4.22,4.68-5.79-6.98-1.05-13.49-6.27-14.88-13.38-1.47-7.5,3.47-15.49,9.85-19.2,5.77-3.36,13.95-2.94,18.84,1.87,3.69,3.63,3.1,8.41-.99,11.4-1.83,1.33-1.88-1.52-.68-2.39,4.88-3.57-2.09-8.02-5.21-9.1-4.73-1.63-10-.79-13.87,2.46-11.71,9.8-2.56,25.63,10.99,25.39.13,0,.23.02.32.07h.01c5.31-2.62,11.83-3.11,18.33-1.33.91-1.56,1.91-3.06,3-4.48-1.52-.99-1.97-2.87-1.88-4.83-2.78,2.76-6.31,4.75-9.94,5.41-9.65,1.77-18.65-5.23-15.36-15.23.56-1.69,2.91-1.97,2.2.21-1.51,4.57.86,9.09,5.19,10.93,5.78,2.45,12.42.99,16.85-3.37,4.36-4.29,5.86-10.87,2-16C72.14,2.17,63.09.42,56.07.04c-14.1-.75-26.91,7.98-27.73,22.8-.43,7.96,3.94,16.17,10.77,20.18Z"/>
  <path class="st0" d="M50.91,260.83c15.73,3.31,35.61,10.1,46.71-5.78.06-.08.1-.15.16-.22-.64-3.69-.69-7.49-.14-11.16-1.36.05-2.71.07-4.08.07-5.65,0-11.31-.43-16.89-1.33.53,3.8-1.08,7.57-4.98,9.3-6.1,2.71-14,.47-20.18-.63-7.32-1.31-14.82-3.13-22.29-2.92-9.14.25-15.28,5.02-19.33,13.11-1.39,2.76-4.01,9.39,1.45,8.53,2.14-.34,3.93-2.24,5.57-3.52,10.28-7.96,21.56-8.07,33.99-5.45Z"/>
  <path class="st0" d="M75.11,238.79l.4.08c7.73,1.46,15.77,2.07,23.81,1.84.23-.01.47-.01.71-.03,6.32-.21,12.63-.94,18.81-2.18h.01c.46-.08.92-.17,1.38-.29,6.57-1.39,12.96-3.37,19.01-5.9-3.57-.21-7.12-.32-10.63-.39-26.44-.52-56.33,1.34-79.18-14.64-9.75-6.81-16.55-17.96-29.43-18.52h-.01c-3.42.76-7.03,2.62-9.24,5.34-4.16,5.15-3.24,15.51,4,17.12.57.13,1.16.24,1.75.33,5.55.92,11.3.51,16.85,1.87,9.91,2.42,18.38,8.27,27.95,11.64,4.41,1.56,9,2.79,13.7,3.7l.11.02Z"/>
  <path class="st0" d="M134.36,219.14c-8.69-2.11-17.49-3.73-26.31-5.25-9.3-1.6-18.97-2.37-27.94-5.45-13.16-4.53-21.2-14.46-30.66-24-5.7-5.73-12.07-10.61-19.39-14.09-3.71-1.77-9.71-4.24-14.8-3.99-.28.01-.55.03-.83.06-2.68.31-5.03,1.45-6.6,3.94-5.61,8.94,2.53,24.95,13.12,25.21.08,0,.15.01.21.01,6.5.28,11.74,2.86,16.58,7.11,4.83,4.24,9.23,8.84,14.61,12.41,8.91,5.91,19.24,9.12,29.67,11.02,26.75,4.84,54.71-.29,81.22,6.06-6.02-8.16-20.35-10.97-28.9-13.05Z"/>
  <path class="st0" d="M145.79,282.56c-6.26-1.95-12.74-3.16-19.21-4.18-5.54-.86-11.03-1.55-16.02-4.32-6.38-3.54-10.38-9.68-12.18-16.51-11.33,15.3-29.74,10.56-46,7.02-8.68-1.9-18.05-3.8-26.68-.63-3.26,1.2-5.76,3.3-8.39,5.26-.46,5.95.49,12.62,3.14,17.94,5.94,11.96,18.69,11.61,30.12,9.24,12.42-2.57,25.24-5.71,38-4.34,16.15,1.72,31.74,6.13,48.05,7.06,10.02.59,20.31.7,30.33-.44-3.01-8.43-12.07-13.26-21.14-16.09Z"/>
  <path class="st0" d="M160.55,275.05c-7.15-5.64-16.18-7.62-24.97-9-12.87-2.03-19.46-12.32-17.85-24.75-5.84,1.18-11.77,1.95-17.72,2.28-.53,4.3-.1,8.86,1.03,12.95,3.08,11,12.11,16.49,22.96,18.15,15.67,2.38,40.85,6.08,45.63,22.91.57-8.52-1.71-16.72-9.09-22.54Z"/>
  <path class="st0" d="M173.72,274.67c-1.61-4.62-4.47-8.69-8.45-11.56-3.57-2.57-7.66-3.22-11.65-4.84-9.17-3.72-14.74-13.28-14.7-23.03-6.06,2.42-12.46,4.18-18.77,5.56-.56,4.94.34,10.45,3.01,14.57,5.54,8.53,16.96,7.39,25.67,10.07,8.02,2.46,15.97,6.79,20.2,14.33,3.59,6.38,3.85,13.55,2.69,20.54,3.64-8.03,4.98-17.1,1.99-25.64Z"/>
  <path class="st0" d="M119.51,141.43c9.33,7.73,17.84-.77,23.51-9.55-.91-.25-1.77-.51-2.56-.77-7.35-2.4-15.63-6.54-21.69-12.45-4.73,7.96-6.76,16.56.74,22.77Z"/>
  <path class="st0" d="M155.29,104.36c1.31-4.5,2.08-9.64-.91-12.86-4.82-5.18-11.62-.17-16.62,4.71,5.68,2.19,11.23,4.7,16.51,7.58.33.18.67.37,1.01.56Z"/>
  <path class="st0" d="M132.98,98.07c-3.76-1.41-7.56-2.7-11.39-3.87-5.92-1.07-9.79,1.54-8.72,7.77.76,4.49,3.32,8.68,6.41,12.16.47.53.94,1.05,1.44,1.53.72.74,1.46,1.42,2.21,2.08,6.18,5.42,14,9.07,21.91,11.18.22.07.45.13.67.18.45.11.93.24,1.44.36,5.77,1.34,14.47,2.51,18.48-2.49,3.64-4.54-.15-10.92-3.73-14.11-1.6-1.42-3.34-2.69-5.18-3.85-.75-.46-1.51-.91-2.28-1.34-2.25-1.29-4.6-2.42-6.88-3.52-3.99-1.9-8.08-3.65-12.22-5.25-.71-.29-1.44-.55-2.15-.82Z"/>
  <path class="st0" d="M99.85,79.79c-8.83,11.08-15.99,25.59-16.51,39.75-.37,9.94,3.25,19.54,9.31,27.63.2.26.38.52.59.77,3.46,4.46,7.65,8.44,12.32,11.73.24.17.49.34.75.51h0c.88.61,1.78,1.2,2.7,1.75.24.15.49.3.75.46,13.38,7.84,29.61,10.18,43.24,2.98,13.46-7.12,22.88-19.42,33.63-29.83,4.49-4.36,9.47-8.52,15.07-10.96-1.05-.05-2.09-.09-3.14-.14-3.44-.13-7.01-.02-10.23-1.44-2.51-1.09-4.25-2.9-5.57-5.09-2.65,6.73-6.26,13.22-10.31,19.13-6.61,9.64-15.56,18.77-27.14,21.94-15.22,4.16-32.48-3.95-42.18-15.66-14.12-17.03-7.22-41.73,4.75-58.17-3.09-.94-5.84-2.62-8.01-5.34Z"/>
  <path class="st0" d="M214.94,41.63c-1.39,3.47-3.63,5.9-6.44,7.52.91,2.95,2.42,5.71,4.37,8.19,12.07-5.3,19.95-14.79,19.5-28.4-.17-5.08-1.61-11.5-3.49-15.71-6.31,1.78-12.15,6.02-15.88,11.33,3.75,4.49,4.07,11.74,1.94,17.07Z"/>
  <path class="st0" d="M234.79,31.44c-.88,12.97-8.89,22.48-20.17,27.96,3.39,3.65,7.71,6.58,12.3,8.5,14.34-13,26.32-34.45,17.98-54.01-3.64-1.22-7.46-1.78-11.19-1.52-.62.05-1.23.11-1.85.22,2.32,5.92,3.36,12.58,2.93,18.85Z"/>
  <path class="st0" d="M229.23,68.78c2.15.72,4.34,1.23,6.49,1.47,3.17.36,6.23.31,9.12-.24,7.56-10.07,15.04-21.59,17.01-34.26.46-2.94.83-6.6-.13-9.6-3.29-4.6-7.94-8.35-13.14-10.79,5.95,19.35-5.55,40.16-19.36,53.41Z"/>
  <path class="st0" d="M5.26,147.46c7.71,3.68,13.7,1.24,21.18-.48,12.97-3,34.45,18.11,40.93-.76,3.24-9.43-.7-17.72-10.57-20.27-5.85-1.51-13.3-.63-17.02,4.7-1.32,1.9-2.25-.37-1.26-1.79,4.27-6.13,12.6-7.79,19.47-6.06,9.65,2.42,14.49,9.91,12.66,19.64-1.1,5.83-3.96,12.07-9.73,14.46-1.09.45-2.21.71-3.34.83.69,5.85,2.82,11.78,5.49,16.89,5.99,11.41,16.27,19.54,28.59,23.23,17.31,5.17,35.31,7.66,52.66,12.73,10.55,3.08,23.33,7.3,28.25,18.13,4.53,9.99-1.02,21.15-12.12,22.33-1.78.2-.69-2.95.59-3.09,11.95-1.29,13.01-13.56,6.26-21.59-4.02-4.8-9.97-7.64-15.72-9.84-14.39-5.5-29.92-7.99-44.88-11.47-13-3.02-26.05-5.76-36.12-15.15-8.64-8.06-14.76-20.25-15.62-32.18-7.42-.64-15.4-6.37-22-7.65-5.06-.99-9.61.71-14.33,1.75,1.82,3.51.55,7.99-1.34,11.53,8.04.07,17.62,5.21,23.12,8.96,13.35,9.14,21.6,24.26,36.56,31.2,10.61,4.92,22.83,5.57,34.22,7.56,10.24,1.78,20.5,3.7,30.52,6.52,9.15,2.57,22.23,6.13,25.89,16.11.31.84-.72,2.91-1.78,2.61-6.81-1.92-13.97-3-21.14-3.61-1.07.53-2.15,1.02-3.25,1.51.08,4.14,1.3,8.44,3.32,11.96,2.15,3.76,5.38,6.72,9.31,8.55,4.36,2.03,8.94,2.54,12.95,5.4,12.41,8.87,12.73,24.91,7.75,38.18,7.65-.24,15.34-1.24,22.86-2.65,13.23-2.48,28.37-6.46,38.12-16.35,8.93-9.09,13.1-23.26,16.04-36.18-6.85,9.45-16.43,15.84-30.19,14.81-11.02-.83-24.02-5.07-31.25-13.91-6.13-7.49-6.87-17.49-6.01-26.76,1.14-12.33,4.38-24.63,7.53-36.57,2.73-10.35,5.96-21.17,12.43-29.88,5.58-7.55,13.56-12.15,22.98-12.76,11.84-.77,26.55,3.06,35.59,11.02.18.16.37.32.54.49.65-15.79.71-31.64-.14-47.4-.41-7.84-1.02-15.71-2.38-23.44-.71-4.07-1.43-8.86-3.69-12.47-3.48,3.18-7.48,5.37-11.8,6.49l-1.16.28c-5.14,1.11-10.7.78-16.36-1.07-.61-.2-1.22-.43-1.83-.66-.07,0-.11-.02-.17-.07-8.89-3.56-17.44-11.46-20.01-20.83-11.65,4.37-29.89-1.47-39.04-4.21-1.53-.46-.05-3.53,1.18-3.16,7.45,2.23,27.64,8.64,38.51,4.26.39-.16.77-.33,1.14-.52,3.33-1.7,5.58-4.61,5.98-9.26.62-7.29-3.29-12.72-10.18-15.1-11.56-3.99-22.68,1.48-34.05,3.08-11.47,1.62-23.2.95-34.67-.28-6.88-.74-13.74-1.74-20.59-2.84-4.68-.76-9.48-2.03-14.26-1.75-7.65.46-14.18,4.4-19.1,10.01-.01,0-.01.01-.01.01-.23.25-.44.49-.65.75v.02c-1.52,1.8-2.85,3.76-4.01,5.81h-.01c-.24.44-.47.86-.69,1.29-1.34,2.57-2.43,5.29-3.21,8.02h0c-.09.31-.18.6-.25.91-.46,1.71-.79,3.44-1.01,5.14-.84,6.73.21,13.74,6.05,17.9,6.06,4.3,14.28,4.44,18.7-2.06.01-6.64,4.83-12.23,11.71-13.88,1.71-.4.67,2.8-.57,3.1-5.57,1.33-9.62,5.54-8.48,11.56,1.72,9.11,9.3,14.33,18.16,14.17,13.95-.25,27.39-7.79,41.32-3.05,12.09,4.11,20.12,11.94,23.66,24.16.82,2.79,1.36,5.92,2.47,8.72.1.11.18.26.2.48.44,1.02.97,1.99,1.61,2.87,3.57,4.88,9.62,4.49,15.05,4.73,7.54.33,18.92-.07,25.68,4.24,1.22.77-.54,3.73-1.72,2.99-2.82-1.79-6.83-2.23-10.11-2.71h-.02s-.08,0-.11-.01c-.12-.02-.24-.03-.36-.06-.2-.02-.4-.06-.6-.08-16.94-2.09-29.07,15.36-39.64,26.01-7.17,7.23-15.46,14.55-25.01,18.49.94,2.78,1.33,5.92.75,8.73-1.24,5.87-6.47,8.31-12.06,8.47-5.53.16-10.91-1.88-12.02-7.81-.43-2.34-.24-4.87.37-7.22-.32-.06-.63-.13-.94-.21-.86,2.38-2.8,4.73-4.24,6.25-2.91,3.08-7,5.26-11.27,3.84-9.25-3.08-8.1-12.18-3-18.05-.55-.36-1.09-.71-1.62-1.09-4.92,5.78-14.07,8.65-18.78.79-3.13-5.22-.07-11.26,4.07-15.04-8.64-11.87-11.34-26.04-7.21-40.69,3.06-10.76,8.64-21.34,15.65-30.14-.93-1.53-1.71-3.31-2.32-5.39-.11-.4-.22-.82-.31-1.22-4.03,4.6-10.22,6.84-16.27,4.53-2.11-.8-3.91-1.86-5.4-3.14-1.86,2.45-3.82,4.82-5.9,7.06-.06.08-.14.15-.21.23-.05.06-.09.1-.15.15-4.1,4.38-8.71,8.23-14.11,11.07-6.94,3.67-14.62,5.64-21.49,9.47-9.75,5.42-18.36,13.78-25.14,22.57-3.65,4.71-8.33,11.47-7.09,17.85.57,2.95,2.4,5.03,5.06,6.3ZM191.85,33.67c.31-4.06,3.57-7.78,7.72-8.04,4.5-.3,7.71,3.47,7.64,7.78,0,.07-.01.15-.02.22,0,.05-.01.1-.01.16-.52,4.07-3.72,7.79-8.01,7.88-4.37.1-7.64-3.75-7.32-8ZM90.17,54.22s-.01.02-.01.03v.06c-.39,3.06-2.85,5.98-6.1,6.03-3.19.05-5.49-2.78-5.25-5.87.23-3.06,2.67-5.95,5.8-6.19,3.3-.25,5.64,2.51,5.58,5.64,0,.09-.01.2-.02.3Z"/>
  <path class="st0" d="M236.4,195.45c-2.73-.8-5.93.56-6.21,3.63-.55,5.99,9.26,8.21,10.27,1.92-.02-2.59-1.53-4.8-4.07-5.55Z"/>
  <path class="st0" d="M230.63,182.72c-8.18.97-14.66,8.16-15.23,16.31-.67,9.48,6.9,17.88,16.54,17.65,9.04-.21,15.7-7.63,16.76-16.24.01-.08.01-.14.01-.21.01-.06.02-.11.02-.17.22-10.02-7.71-18.57-18.1-17.34ZM242.94,199.99c0,.06,0,.13-.01.2-.51,4.03-3.69,7.75-7.95,7.84-4.34.1-7.6-3.72-7.27-7.95.31-4.02,3.55-7.72,7.68-8,4.48-.29,7.66,3.45,7.58,7.73,0,.06-.01.11-.02.18Z"/>
  <path class="st0" d="M263.17,154.29c-1.71-2.01-3.83-3.84-6.4-5.44-9.24-5.72-22.09-8.94-32.94-7.42-9.87,1.39-16.9,7.78-21.51,16.33-5.19,9.66-7.76,20.65-10.27,31.25-2.4,10.08-5.11,20.35-5.52,30.75-.34,8.68,1.39,17.41,7.79,23.71,7.79,7.64,20.58,11.39,31.27,11.41,12.94.03,21.46-7.25,27.34-17.08,1.49-2.51,2.83-5.18,4.02-7.94,3.19-7.45,5.36-15.5,7.06-22.62,3.62-15.28,10.01-35.85,1.44-49.83-.65-1.09-1.41-2.13-2.27-3.13ZM261.9,184.67c-.44,4.88-1.32,9.76-2.41,14.59-.92,4.05-1.98,8.06-3,12.02-2.01,7.68-4.33,15.64-8.94,22.21-9.88,14.1-31.27,12.95-43.91,2.8-13.01-10.46-6.77-29.95-3.56-43.5,4.13-17.05,11.92-39.7,33.4-38.39,8.18.51,17.85,3.6,23.41,9.92,2.93,3.31,4.37,7.32,4.93,11.54.38,2.9.35,5.9.09,8.8Z"/>
  <path class="st0" d="M256.2,64.24c.36-.33.7-.67,1.03-1.01.09-.1.18-.21.28-.29,5.26-5.53,8.75-13.09,9.18-20.7.22-3.77-.51-7.4-1.95-10.76-.13,1.59-.37,3.14-.62,4.54-2.17,12.15-8.81,23.2-16.04,33.12,2.92-.99,5.64-2.59,8.12-4.91Z"/>
</svg>