<?xml version="1.0" encoding="UTF-8"?>
<svg id="Layer_1" xmlns="http://www.w3.org/2000/svg" version="1.1" viewBox="0 0 1814.03 420.97">
  <!-- Generator: Adobe Illustrator 30.5.1, SVG Export Plug-In . SVG Version: 2.1.4 Build 3)  -->
  <defs>
    <style>
      .st0 {
        fill: #2d2e2d;
      }
    </style>
  </defs>
  <path class="st0" d="M1585.95,355.48c8.44-.85,14.2,6.76,21.38,9.72,2.91,1.22,6.02,2.07,9.22,2.67-5.69-3.72-9.85-8.93-14.69-14.77-3.24-3.91-9.84-9.96-15.36-10.02-4.6-.05-6.82,4.5-4.33,8.39.97,1.53,2.36,2.9,3.79,4.01Z"/>
  <path class="st0" d="M1605.54,177.31c-.38,3.92-.16,8.02.65,11.89,1.21-.07,2.43-.14,3.64-.2,2.91-.16,5.8-.31,8.71-.47,3.64-8.07,2.26-18.78.3-27.21-8.04,2.61-12.46,7.3-13.31,15.99Z"/>
  <path class="st0" d="M1640.99,156.23c-1.17.2-2.36.39-3.53.6v1.78c1.18-.07,2.36-.13,3.53-.2v-2.18Z"/>
  <path class="st0" d="M1640.99,161.5c-1.17.06-2.34.13-3.53.2v4.48c1.18-.06,2.36-.11,3.53-.18v-4.49Z"/>
  <path class="st0" d="M1640.99,169.09c-1.17.07-2.34.13-3.53.18v3.92c1.18-.05,2.36-.09,3.53-.15v-3.95Z"/>
  <path class="st0" d="M1640.99,176.14c-1.17.06-2.34.1-3.53.15v4.83c1.18-.05,2.36-.09,3.53-.14v-4.84Z"/>
  <path class="st0" d="M1637.46,187.53c1.18-.07,2.36-.13,3.53-.2v-3.25c-1.17.05-2.34.09-3.53.15v3.3Z"/>
  <path class="st0" d="M1643.49,155.83v2.45c1.61-.09,3.23-.18,4.84-.28-.02-.94-.03-1.9-.06-2.85-1.6.22-3.2.44-4.78.68Z"/>
  <path class="st0" d="M1643.49,165.87c1.66-.08,3.32-.17,4.99-.25-.03-1.52-.06-3.02-.09-4.53-1.63.09-3.26.18-4.9.28v4.5Z"/>
  <path class="st0" d="M1643.49,172.94c1.7-.07,3.41-.14,5.11-.22-.02-1.33-.05-2.68-.07-4.01-1.69.08-3.37.17-5.05.25v3.98Z"/>
  <path class="st0" d="M1643.49,180.88c1.76-.07,3.5-.15,5.26-.22-.02-1.61-.06-3.22-.09-4.84-1.72.08-3.45.15-5.17.22v4.84Z"/>
  <path class="st0" d="M1643.49,187.21c1.79-.09,3.59-.2,5.39-.29-.02-1.06-.05-2.1-.06-3.16-1.78.08-3.56.15-5.33.22v3.23Z"/>
  <path class="st0" d="M1599.43,227.57c4.3,1.92,8.79,3.44,13.39,4.65h.05c.13.05.24.08.37.1,3.22.84,6.48,1.54,9.78,2.11h.01c.13-.02.25,0,.34.06h.01c7.88,1.36,15.92,2.06,23.75,2.53-9.7-4.77-15.83-13.53-13.46-26.2,1.71-9.12,7.83-16.54,15.77-20.85-14.96.8-29.94,1.6-44.91,2.39-.03.01-.07.01-.1.01-7.43.39-14.87.78-22.3,1.18-.1,2.48-.14,4.98-.13,7.46.02,4.55-.23,9.32,1.78,13.53,3.02,6.31,9.49,10.29,15.65,13.02Z"/>
  <path class="st0" d="M1629.05,400.52c6.08.75,12.42-1.74,16.55-6.21,5.99-6.49,4.76-13.85,2.53-21.54-2.2-7.61-1.92-15.33.22-22.9,2.29-8.14,8.33-16.46,2.42-24.5-4.88-6.64-13.74-8.85-21.56-8.94-4.3,3.16-9.77,3.54-15.5,3.2-9.35-.57-17.43,1.22-25.4,4.91,2.16,5.02,1.84,10.64-.68,15.47t-.01.02c.72,0,1.45.09,2.17.28,6.78,1.8,12.32,7.7,16.39,13.14,5.61,7.48,12.08,13.11,21.29,15.58h.03c.44.02.87.03,1.31.05,1.48.03.15,3.19-1.2,3.16-.36-.01-.7-.02-1.05-.03-.06,0-.1,0-.16-.01-.02,0-.03.01-.06,0-.02,0-.05-.01-.07-.01-5.86-.23-11.85-1.1-17.44-2.84-8.08-2.51-14.8-11.6-23.8-10.65-.01,0-.01.01-.01.01-.07.02-.14.03-.21.03-.03,0-.08-.01-.11-.01s-.08.01-.12.01c-3.92.54-5.87,5.62-3.75,8.98.72,1.16,1.92,1.9,2.93,2.77,1.31,1.1,2.49,2.18,3.39,3.54,9.53,1.67,18.78,7.15,25.48,13.95,5.25,5.32,8.24,11.56,16.4,12.56Z"/>
  <path class="st0" d="M1650.77,154.83c.02,1.01.05,2.02.06,3.03,1.55-.08,3.1-.17,4.64-.25-.02-1.11-.04-2.23-.08-3.34-1.54.18-3.08.37-4.62.56Z"/>
  <path class="st0" d="M1650.89,160.95c.03,1.51.06,3.02.09,4.54,1.56-.08,3.11-.16,4.68-.24-.03-1.53-.07-3.05-.11-4.56-1.55.08-3.1.17-4.65.26Z"/>
  <path class="st0" d="M1651.04,168.57c.02,1.36.05,2.7.08,4.05,1.56-.07,3.14-.13,4.71-.2-.03-1.37-.07-2.72-.1-4.09-1.56.08-3.13.16-4.69.24Z"/>
  <path class="st0" d="M1651.17,175.72c.02,1.61.06,3.23.09,4.84,1.59-.06,3.16-.13,4.75-.2-.03-1.61-.08-3.23-.12-4.84-1.57.07-3.15.13-4.72.2Z"/>
  <path class="st0" d="M1656.16,186.53c-.02-1.02-.05-2.05-.08-3.07-1.59.07-3.17.14-4.76.2.02,1.05.03,2.09.06,3.13,1.6-.08,3.18-.16,4.78-.25Z"/>
  <path class="st0" d="M1697.51,184.34c4.83-10.43,4.17-23.29-1.61-33.3-.02-.05-.03-.09-.05-.14-7.61.31-15.17.85-22.65,1.53-4.47,10.47-4.79,23,.4,33.18,7.96-.41,15.94-.84,23.9-1.26Z"/>
  <path class="st0" d="M1698.73,264.24c1.49.92,3.11,1.63,4.81,2.17,0,.01.01.01.02.01-4.9-7.23-5.84-18.82-6.5-26.68-3.17.17-6.32.33-9.47.49.01,8.98,3.3,19.16,11.14,24.01Z"/>
  <path class="st0" d="M1708.98,267.39c.08.06.14.13.2.21,1.99.24,4.06.35,6.13.35-2.7-4.76-3.46-11.01-4.24-16.16-.64-4.23-1.14-8.5-1.44-12.79-3.32.22-6.63.41-9.95.6t-.01.01c.76,8.87,2.16,22.51,9.32,27.79Z"/>
  <path class="st0" d="M1712.93,150.63c.03,1.23.07,2.46.1,3.7,1.48-.03,2.97-.06,4.45-.09-.02-1.17-.06-2.34-.09-3.53-1.48-.03-2.98-.07-4.46-.08Z"/>
  <path class="st0" d="M1713.12,157.46c.05,1.34.08,2.69.12,4.05,1.48-.03,2.97-.08,4.45-.12-.03-1.33-.07-2.68-.12-4.01-1.48.02-2.97.06-4.45.08Z"/>
  <path class="st0" d="M1713.32,164.62c.02,1.02.06,2.03.08,3.06,1.48-.06,2.95-.1,4.44-.15-.03-1.01-.06-2.01-.08-3.01-1.48.03-2.95.07-4.44.1Z"/>
  <path class="st0" d="M1713.49,170.78c.05,1.64.09,3.29.14,4.93,1.47-.06,2.94-.13,4.41-.18-.05-1.63-.08-3.26-.13-4.9-1.47.06-2.95.1-4.43.15Z"/>
  <path class="st0" d="M1718.25,183.23c-.05-1.54-.08-3.08-.13-4.61-1.47.06-2.93.13-4.4.18.05,1.55.09,3.1.13,4.65,1.47-.08,2.93-.15,4.4-.23Z"/>
  <path class="st0" d="M1719.09,267.85c2.34-.1,4.67-.29,6.87-.47-2.39-4.45-2.91-10.39-3.53-15.01-.63-4.71-1.07-9.48-1.29-14.24-2.72.23-5.45.44-8.17.63-.25.02-.52.03-.78.06.29,3.65.71,7.3,1.25,10.91.89,5.77,1.69,13.17,5.5,17.86.06.08.1.17.14.26Z"/>
  <path class="st0" d="M1719.92,150.78c.02,1.14.06,2.28.09,3.41,1.61-.02,3.22-.06,4.83-.08-.05-1.05-.09-2.08-.14-3.11-1.59-.08-3.18-.16-4.78-.22Z"/>
  <path class="st0" d="M1720.09,157.33c.03,1.33.07,2.67.1,4,1.66-.05,3.31-.08,4.95-.13-.06-1.32-.12-2.64-.17-3.96-1.63.03-3.25.06-4.88.09Z"/>
  <path class="st0" d="M1720.28,164.45c.02,1,.06,2,.08,2.99,1.69-.06,3.38-.11,5.07-.17-.05-.98-.09-1.95-.14-2.93-1.67.03-3.33.08-5.01.12Z"/>
  <path class="st0" d="M1720.44,170.55c.05,1.62.08,3.24.13,4.87,1.74-.08,3.47-.15,5.21-.23-.07-1.61-.14-3.22-.21-4.83-1.71.07-3.41.13-5.13.18Z"/>
  <path class="st0" d="M1726.11,182.82c-.07-1.52-.14-3.02-.21-4.53-1.75.07-3.5.15-5.26.22.04,1.53.08,3.06.13,4.59,1.78-.09,3.56-.18,5.34-.28Z"/>
  <path class="st0" d="M1700.3,212.3c.07-.22.1-.42.08-.62-.01-.06-.03-.11-.03-.17-.01-.06-.02-.13-.03-.17-2.08-11.94-30.82-11.16-30.99,1.53-.16,12.48,29.05,11.7,30.98-.56Z"/>
  <path class="st0" d="M1635.94,211.08c-2.45,15.85,10.15,24.22,24.28,26.47.1.01.2.06.27.09h.03c6.9.2,13.81.17,20.69-.18h.05c8.04-.4,16.09-.86,24.14-1.4,2.92-.2,5.87-.39,8.83-.6,3.98-1.75,7.87-3.59,11.09-6.62,7.07-6.65,7.75-16.9,4.38-25.65-3.72-9.69-13.85-15.95-24.11-16.19-11.07.6-22.12,1.18-33.19,1.77-.18.08-.36.1-.51.02-4.22.23-8.42.45-12.64.68-11.28,1.93-21.5,9.94-23.32,21.62ZM1682.81,196.86c10.07-.79,29.59,1.64,31.01,14.69.06.13.08.31.07.55,0,.13-.01.24-.05.37-1.04,11.28-14.88,15.5-24.39,16.26-9.5.75-31.02-1.7-31.07-15.24-.06-11.53,15.51-15.92,24.43-16.63Z"/>
  <path class="st0" d="M1729.81,267.07c2.05-.15,4.14-.32,6.22-.55-2.63-7.98-4.17-16.57-4.17-25.04,0-1.47.05-2.93.14-4.39-2.76.3-5.53.57-8.3.83.18,3.54.49,7.08.92,10.61.68,5.7,1.14,13.88,5.01,18.56.07,0,.13-.01.18-.01Z"/>
  <path class="st0" d="M1727.25,151.14c.04.98.09,1.95.14,2.93,2.08-.05,4.17-.08,6.26-.11-.03-.78-.07-1.55-.1-2.33-2.09-.18-4.19-.36-6.3-.48Z"/>
  <path class="st0" d="M1727.53,157.19c.06,1.32.12,2.63.17,3.95,2.08-.06,4.16-.1,6.25-.16-.06-1.3-.11-2.61-.17-3.91-2.08.03-4.17.08-6.25.11Z"/>
  <path class="st0" d="M1727.84,164.26c.05.98.08,1.94.13,2.91l6.24-.21c-.05-.95-.08-1.91-.13-2.85-2.08.05-4.16.1-6.24.15Z"/>
  <path class="st0" d="M1728.1,170.28c.07,1.6.14,3.19.21,4.8,2.08-.09,4.15-.18,6.23-.28-.07-1.57-.14-3.16-.21-4.75-2.07.08-4.15.15-6.23.22Z"/>
  <path class="st0" d="M1731.81,182.51c1.01-.06,2.03-.1,3.04-.16-.07-1.48-.13-2.95-.2-4.44-2.07.09-4.14.17-6.22.26.07,1.51.14,3,.21,4.51,1.05-.06,2.1-.11,3.16-.17Z"/>
  <path class="st0" d="M1739.01,266.13c1.33-.18,2.65-.41,3.96-.69-1.97-5.25-3.06-10.93-2.94-16.38.09-4.91,1.44-9.43,3.69-13.45-3.09.45-6.18.85-9.3,1.2-.48,9.91,1.3,20.03,4.57,29.33,0-.01.01-.01.01-.01Z"/>
  <path class="st0" d="M1646.83,269.79c-.24-4.5-3.29-8.31-7.83-9.09-4.86-.82-9.89,2.53-9.93,7.71-.06,10.58,17.13,12.92,17.76,1.38ZM1637.99,265.4c2.23.39,3.8,2.25,3.93,4.49-.29,5.25-8.56,3.33-8.44-1.38.06-2.33,2.4-3.48,4.5-3.11Z"/>
  <path class="st0" d="M1576.25,327.48c3.17-.53,6.22-2.24,9.24-4.03.57-.34,1.14-.69,1.71-1.02,2.08-1.24,4.16-2.41,6.27-3.19,8.35-3.05,16.21-2.64,24.93-2.47,7.64.15,14.66-4.05,15.06-12.3.31-6.39-3.53-11.81-9.79-13.25-5.17-1.18-10.83.51-11.19,6.5-.08,1.29-2.61,3.38-2.48,1.38.84-13.83,19.62-15.09,24.7-3.11,2.26,5.34,1.41,11.76-1.79,16.54-.2.29-.39.57-.6.84,12,.87,26.11,8.03,23.34,22.12-1.53,7.77-5.87,14.36-6.48,22.51-.62,8.38,3.76,15.54,3.55,23.7-.22,9.18-6.37,17.39-14.87,20.65-4.16,1.6-8.8,1.97-13.1.68-5.54-1.67-8.27-5.63-11.82-9.84-6.01-7.11-14.89-13.05-24.16-15.42,1.3,4.99.69,10.83,1.8,15.82,1.56,6.96,4.79,13.62,10.69,17.9,7.68,5.6,17.61,5.77,26.72,6.37,8.91.57,18.57,1.09,27.16-1.83,10.49-3.56,12.31-12.28,11.94-22.41-.32-9.1-2.33-18.16-1.84-27.29.52-9.46,4.01-17.97,9.03-25.91,1.13-1.77,2.92-.75,1.79,1.03-4.57,7.24-7.85,14.87-8.34,23.5-.33,5.95.48,11.87,1.1,17.78,1,9.49,2.63,21.28-3.71,29.38-1,1.28-2.13,2.37-3.36,3.31,22.18,7.12,49.06,8.29,70.26-1.79-5.25-5.76-6.79-13.94-5.29-22.67,1.2-6.88,4.91-13.99,10.47-18.49-1.77-1.67-3.39-3.53-4.83-5.61-13.46-19.56-8.27-47.54-4.76-69.35,1.83-11.41,7.4-21.43,17.62-26.96-.4-.77-.78-1.56-1.13-2.37-5.04,1.2-10.32,1.71-15.49,2.06h-.01c-.14.05-.27.06-.4.02t-.01,0c-.39.03-.77.06-1.15.08-9.77.63-22.38,2.28-30.92-3.69-8.06-5.63-11.29-16.77-10.97-26.28-1.7.08-3.4.16-5.1.25h-.05c-.87.05-1.75.07-2.63.1-15.54.51-31.21-.02-46.63-1.99-2.49-.32-5.14-.67-7.87-1.08-1.06,1.43-2.03,2.92-2.91,4.46-.68,1.2-2.07,3.11-2.03,4.5.08,2.56,1.92,2.37,4.16,2.11,7.65-.84,14.89-3.34,22.66-1.68,8.65,1.85,15.65,9.17,23.43,13.19,5.01,2.6,10.19,4.96,15.48,6.95,1.25.47-.37,3.49-1.72,2.98-7.33-2.75-14.54-6.14-21.27-10.14-4.76-2.83-8.95-7.08-14.17-9-5.83-2.14-12.17-1.51-18.15-.44-3.65.64-13.24,4.18-12.99-2.41.14-3.73,2.75-7.68,5.16-10.91-2.59-.43-5.22-.92-7.86-1.52h-.01c-6.11,15.12-19.08,23.9-31.19,34.2-7.09,6.03-11.11,13.81-14.16,22.58-2.8,8.09-4.8,17.61-2.26,26.03,1.54,5.1,5.37,9.89,11.24,8.91ZM1698.75,340.4c1.82-1.33,1.89,1.52.68,2.4-20.28,14.97-18.46,44.47-7.89,64.81.62,1.21-1.48,3.88-2.14,2.61-11.47-22.09-12.51-53.67,9.35-69.82ZM1617.95,260.47c9.12-4.71,20.86-6.33,30.63-2.93,8.66,3.02,16.03,8.85,24.9,11.72,3.88,1.26,7.95,2.36,12.03,2.79,1.53.16.14,3.29-1.18,3.15-6.07-.64-12.09-2.4-17.82-4.8-10.07,6.65-29.68,19.03-40.68,7.77-3.92-4.01-5.6-10.3-5.61-15.9-.75.32-1.48.68-2.22,1.06-1.82.93-1.22-2.24-.05-2.85Z"/>
  <path class="st0" d="M1782.01,179.84c-.55-4.86-2.29-9.84-4.95-13.81-4.67-6.95-12.17-9.19-19.94-10.87-.45-.1-.91-.18-1.36-.28-1.77,8.75-.56,18.23,3.36,26.18,7.63-.41,15.26-.82,22.89-1.22Z"/>
  <path class="st0" d="M1767.07,384.34c-2.53-.24-5.06-.61-7.55-1.1-.88,1.51-1.6,3.16-1.94,4.84-1.3,6.44,4.23,8.45,9.55,9.41,4.34.79,10.48,1.84,14.41-.87,3.86-2.67,2.73-8.4,1.84-12.26-.02-.14-.02-.29,0-.44-5.36.91-10.94.93-16.31.43Z"/>
  <path class="st0" d="M1746.25,265.56c.54,1.25,1.13,2.47,1.77,3.64,3.43-1.48,6.98-2.39,10.58-2.92-2.68-6.91-3.94-15.25-1.45-22.21,2.86-8.01,11-12.56,19.16-13.33,6.78-.63,16.8,1.91,16.61,10.45-.17,8.02-8.33,11.99-15.35,11.85-1.49-.02-.16-3.17,1.18-3.15,4.24.08,9.64-1.05,11.23-5.62,1.26-3.62-.8-6.64-3.81-8.47-4.75-2.9-11.38-2.42-16.41-.69-13.65,4.68-12.93,19.59-8.07,30.79,2.46-.24,4.94-.34,7.43-.38h.01c9.37-.13,19.96.62,28.68,4.68,10.46-9.23,11.38-24.41,4.98-36.48-2.7-5.1-7.1-8.83-12.22-11.15-1.03-.47-2.11-.88-3.21-1.24-4.22-1.38-8.77-1.87-13.15-1.47-9.46.87-19.03,5.14-25.13,12.04-.92,1.03-1.77,2.14-2.52,3.3-2.76,4.24-4.3,9.26-4.01,14.92.25,4.96,1.47,10.14,3.44,14.87.16.11.24.32.25.57Z"/>
  <path class="st0" d="M1614.98,159.8c13.59-5.79,29.64-7.37,44.16-9,12.65-1.43,25.39-2.31,38.13-2.65.16-.06.32-.07.47-.01,5.99-.16,11.97-.21,17.96-.11,16.39.25,33.64.91,49.43,5.73,11.83,3.61,18.69,13.83,19.47,25.95,7.49-.4,14.97-.79,22.47-1.2-1.18-7.85-3.93-15.38-8.31-20.86-11.63-14.57-32.72-18.53-50.2-20.32-22.24-2.28-44.76-1.01-67,.72-9.94.78-19.87,1.72-29.81,2.54-10.8.87-21.66,1.18-32.27,3.6-9.39,2.14-18.86,5.87-25.56,13.05-6.55,7.01-9.49,16.38-10.85,25.68-.37,2.51-.62,5.01-.78,7.53,7.04-.37,14.09-.75,21.13-1.13-1.85-11.09.23-24.71,11.55-29.53Z"/>
  <path class="st0" d="M1757.9,184.21c-.18.08-.36.1-.51.03-13.23.7-26.45,1.4-39.67,2.1,8.22,3.73,14.35,11.31,15.93,20.66.3,1.8.45,3.53.45,5.18,0,10.15-5.49,17.57-13.7,22.8.75-.05,1.48-.1,2.23-.16h.01c.22-.1.41-.13.57-.05h.01c3.47-.29,6.95-.59,10.43-.94.28-.15.53-.2.7-.07,0,0,0-.01.01-.01,3.82-.39,7.63-.85,11.43-1.38,9.79-13.33,30.07-19.66,45.47-13.24,6.58-4.04,12-9.6,14.42-17.43,1.84-5.94,2.43-13.07,1.73-20.13-9.4.5-18.8,1-28.2,1.5-7.11.38-14.23.75-21.34,1.13Z"/>
  <path class="st0" d="M1802.44,374.69c-1.9,1.86-3.98,3.42-6.18,4.7h-.01c8.8,6.55,12.76,19.52,3.53,27.8-7.62,6.83-21.54,6.61-31.07,6.27-9.92-.33-26.17-1.49-30.79-12.19-3.5-8.1,1.21-17.21,6.95-23.26h0c-2.08-1.16-4.07-2.48-5.91-4-9.68,6.54-12.66,21.34-8.62,31.79,1.01,2.62,2.61,4.76,4.6,6.49.24.02.39.17.46.39,7.02,5.8,18.51,7.06,26.82,7.45,12.08.57,25.01-.36,36.66-3.8,8.49-2.51,14.14-9.25,14.63-18.21.52-9.27-4.31-17.48-10.62-23.87l-.45.45Z"/>
  <path class="st0" d="M1779.21,317.67c-4.91-.84-9.99,2.55-10.02,7.78-.06,10.7,17.3,13.03,17.93,1.39-.24-4.55-3.32-8.4-7.91-9.17Z"/>
  <path class="st0" d="M1775.75,306.83c-9.18.99-16.31,9.32-16.28,18.48.03,10.06,8.79,18.11,18.84,17.1,9.43-.95,15.7-9.16,16.25-18.19.02-.09.03-.2.02-.29.01-.18,0-.32-.03-.44-.69-9.77-8.57-17.76-18.79-16.66ZM1761.96,323.93c.03-9.18,8.87-15.46,17.57-13.74,7.36,1.44,12.22,7.81,12.56,15.12-.93,19.59-30.2,17.16-30.13-1.38Z"/>
  <path class="st0" d="M1797.17,273.63c-.47.18-.75-.03-.87-.43-8.62-4.1-19.14-4.65-28.36-4.54h-.01c-7.14.1-14.3.83-20.8,3.79-.01.01-.02.02-.03.02-.07.02-.15.06-.23.1-.85.39-1.68.82-2.5,1.3-13.12,7.58-14.4,22.25-16.2,35.83-2.64,20.03-4.77,46.3,12.08,60.96.05.02.07.05.1.08.33.3.68.59,1.02.86,10.58,8.47,25.89,10.87,39.07,9.68,11.71-1.07,21.88-6.59,27.19-17.35,4.53-9.2,5.49-19.88,5.91-29.99.37-9.22.72-18.57.36-27.79-.37-9.43-2.02-19.44-8.71-26.6-2.33-2.49-5.05-4.44-8-5.93ZM1807.19,347.93c-2.99,18.55-16.94,27.19-34.69,27.42-12.62.15-27.53-1.78-34.54-13.73-5.16-8.79-4.98-19.73-4.79-29.59.31-16.81-1.13-38.23,11.68-51.24,14.86-15.11,46.83-10.6,58.33,6.56,11.45,17.08,7.07,41.62,4.02,60.59Z"/>
  <g>
    <path class="st0" d="M18.97,207.45c-.02-.71.4-1.78.52-2.46.18-1.16.34-2.32.48-3.49.13-.98.23-1.95.33-2.94-2.85-.01-5.7.23-8.43.85-.05.01-.09.01-.14.01-.06.02-.11.05-.18.06-.17,2.52-.34,5.02-.53,7.54,1.16.17,2.33.32,3.5.43,1.08.09,2.18.18,3.28.14.13-.01,1-.16,1.17-.13Z"/>
    <path class="st0" d="M31.99,199.96c-1.82-.45-3.65-.78-5.52-1.01-1.25-.15-2.54-.26-3.83-.33-.14,1.34-.3,2.69-.48,4.02-.07.46-.13.95-.18,1.46,3.09.17,6.17.36,9.26.53.24-1.55.49-3.11.75-4.67Z"/>
    <path class="st0" d="M10.5,223.07c2.67,4.8,11.29,5.21,15.91,4.63,6.54-.83,13.48-4.13,18.34-8.63,2.34-2.18,3.83-5,5.88-7.42,1.2-1.4,2.52-2.67,3.92-3.84-1.08.03-2.15-.03-3.19-.2-4.91,4.4-11.6,7.29-17.98,8.46-5.41.99-10.88.34-16.34.55-3.82.14-9.45,1.18-6.53,6.45Z"/>
    <path class="st0" d="M59.42,204.2c.74-.49,1.47-.98,2.22-1.46.01-.01.01-.02.02-.02.86-1.36.13-.83-1.67-1.38-1-.3-1.99-.67-2.94-1.07-2.78-1.16-5.38-2.74-7.87-4.4-10.03-6.71-20.12-18.65-32.92-19.48-6.64-.43-12.11,3.14-12.18,10.17-.03,2.92,2.37,9.63,6.16,10.14.07-.05.13-.08.2-.11.37-.13.76-.13,1.01.06.23-.06.46-.1.7-.21h.03c.09-.06.18-.1.28-.13,9.4-2.13,20.1-.76,28.79,3.29,3.61,1.68,6.76,3.95,10.66,4.77.1-.01.2.01.28.05.24.05.48.11.74.15,1.53.21,4.39.31,6.5-.36Z"/>
    <path class="st0" d="M34.78,89.86c6.52-5.4,18.28-19.43,12.63-28.14-5.07-7.81-16.4-6.67-22.63-1.21-1.7,1.48-1.78-1.44-.68-2.4,6.88-6.03,19.1-7.85,25.16.56,4.93,6.85.66,15.8-4.17,22.66.08-.07.15-.13.23-.18,7.52-5.65,14.89-11.38,21.52-18.05-.03-7.61-1.76-17.72-8.39-22.11-10.15-6.7-26.17.85-34.13,7.75-6.25,5.4-10.31,12.49-10.7,20.86-.22,4.84.87,10.71,5.75,12.97,9.35,4.34,18.29-7.87,15.34-16.5-.41-1.23,1.83-3.72,2.39-2.06,2.77,8.09-3.22,19.59-11.31,22-9.63,2.87-14.8-5.83-14.66-14.33.21-12.7,7.99-23.27,18.55-29.73,8.46-5.17,23.43-10.39,32.03-2.75,5.61,4.98,7.41,13.86,7.61,21.34,5.32-5.83,9.75-12.37,14.42-18.67-2.15-9.52-10.1-17.09-19.57-19.12-18.56-3.98-37.57,7.01-49.01,20.9C6.71,53.9-3.14,71.49,3.5,84.95c6.22,12.58,21.24,13.2,31.28,4.91Z"/>
    <path class="st0" d="M73.94,23.09c-.28-1.54-.34-3.09-.07-4.59,1.17-6.57,7.78-8.6,13.7-8.42,10.48.32,11.25,9.4,8.92,17.27,2.53-2.28,5.23-4.36,8.04-6.29,8.42-24.25-46.58-24.94-38.27-1.24,2.71.7,5.3,1.8,7.68,3.26Z"/>
    <path class="st0" d="M213.69,53.37c3.99,6.06,14.41-3.64,8.27-8.24-2.21-1.64-5.53-1.08-8.06-.18-1.84,2.28-2.4,5.1-.22,8.42Z"/>
    <path class="st0" d="M133.18,229.45c-.86-11.97-1.74-23.94-2.6-35.91-10.8,2.67-21.66,8.98-25.01,19.54-4.6,14.55,4.87,26.85,18.23,31.07,3.46,1.09,7.06,1.83,10.71,2.23-.22-2.36-.33-4.63-.55-6.55-.39-3.44-.54-6.93-.78-10.38Z"/>
    <path class="st0" d="M157.55,245.04c-.18-1.75-.45-3.41-.57-4.77-1.4-15.24-3.71-30.63-7.64-45.42-1.4-5.27-2.84-11.7-6.29-16.09-1.76-2.25-3.88-3.06-6.86-2.02-4.25,1.47-3.64,5.71-3.56,9.26v.02c.09,1.34.2,2.68.29,4.02.07.98.14,1.95.22,2.92.72,10.23,1.47,20.44,2.21,30.66.61,8.55,1.13,15.02,2.3,23.02.1.69.21,1.38.32,2.09.06.37.11.74.18,1.09.84,4.37,2.59,7.91,7.63,8.45,3.63.39,8.72-1.09,10.8-4.3,1.01-1.54,1.26-3.65,1.21-5.87-.02-1.02-.1-2.06-.23-3.07Z"/>
    <path class="st0" d="M150.24,153.57c-2.67-.2-5.1-.86-7.12-1.99-3.95,5.88-5.52,14.1,1.82,18.07,4.37,2.37,10.4,2.94,14.47-.37,5.71-4.63,3.1-12.79.08-18.19-2.41,1.78-5.5,2.76-9.24,2.48Z"/>
    <path class="st0" d="M148.7,134.82c-2.48-.77-4.62-2.01-6.18-3.63-3.93,7.68-3.83,16.96,6.6,18.92,6.79,1.28,12.66-1,13.74-8.26.47-3.19.31-6.91-.75-10.07-3.38,3.17-8.07,4.71-13.41,3.05Z"/>
    <path class="st0" d="M148.79,131.25c10.89,4.46,19-6.07,15.38-16.1-6.05,2.4-13.24,3.36-18.1.31,0,0-.01,0-.01-.01-.26.31-.52.62-.62.75-.98,1.3-1.87,2.71-2.46,4.23-1.99,5.14,1.1,8.89,5.81,10.83Z"/>
    <path class="st0" d="M173.2,67.44c-1.3-.76-2.72-1.36-4.22-1.83-.17.02-.32-.01-.44-.14-2.14-.62-4.38-.95-6.58-.94-.14.05-.28.06-.38.02-1.21.02-2.39.14-3.54.36-4.53.9-7.78,3.86-8.98,7.69,0,.29-.09.61-.24.92-.49,2.25-.3,4.76.76,7.3,1.13,2.71,3.36,5.17,6.04,6.42.01,0,.02.01.03.02,2.17-.74,4.39-1.21,6.53-1.38,3.13-.26,6.69-.34,10.08.23,6.61-4.84,8.61-14.16.93-18.67Z"/>
    <path class="st0" d="M213.54,218.21c-8-5.98-13.28-15.01-17.05-24.1-14.65-35.41-14.08-109.28,37.41-113.32,7.42-.41,14.49.49,20.66,3.05,3.76-14.71,2.38-31.91-5.13-45.3-2.03-.02-4.05-.17-5.94-.3-6.29-.45-12.5-.76-18.71.7-1.75.4-3.88,1.15-5.9,2.18,4.14.01,7.83,2.09,7.39,7.42-.41,4.99-7.29,12.16-12.64,9.48-5.46-2.74-4.06-9.56-1.06-14.32.22-.63.62-1.26,1.07-1.53.83-1.07,1.72-1.95,2.61-2.57,9.18-6.42,21.16-4.78,31.63-4.32,4.02.17,8.76.36,12.34-1.77,4.53-2.68,4.77-8.33,4.49-13.04-.59-9.83-3.55-19.69-14.7-20.39-9.94-.62-20.12,2.48-29.98,3.42-10.87,1.05-21.38-.54-32.21-.78-22.77-.51-46.52,3.51-67.43,12.68-9.39,4.11-18.55,9.48-25.82,16.8-.14.21-.29.36-.45.47-.69.71-1.39,1.41-2.05,2.17-1.99,2.28-3.86,4.63-5.68,7.02-.2.74-.87,1.6-1.45,1.92-5.36,7.17-10.4,14.57-16.76,21.05-12,12.25-26.65,21.17-38.58,33.49-7.95,8.22-18.01,14.57-23.11,25.13-2.98,6.18-4.8,13.1-5.83,19.87-.7,4.62-1.51,11.08,1.26,15.24,5.76,8.62,17.42-2.21,24.68-2.64,1.91-.12,3.02.44,4.69,1.3,3.06,1.59,5.96,2.69,9.39,3.26,8.27,1.39,25.36,2.77,22.32-10.25-.62-2.65-1.83-5.98-3.65-8.09-3.29-3.82-8.41-2.18-12.12.11-1.71,1.06-1.15-2.16-.05-2.84,3.03-1.88,7.34-3.61,10.91-2.41,3.02,1,4.54,4.07,5.76,6.79,2.41,5.36,3.39,12.15-1.18,16.65-6.76,6.65-21.25,4.61-29.11,1.7-2.39-.88-4.69-3.06-7.29-3.14-2.83-.09-5.61,1.13-8.35,2.44,1.96,4.01.49,8.38-2.03,11.92,4.02-.01,8.26,1.18,11.88,3.05,6.78,3.49,12.56,8.68,18.62,13.23,3.1,2.33,6.29,4.61,9.73,6.39,1.68.87,3.39,1.61,5.19,2.16.56.17,2.7.34,3.17.88,1.47,1.69.06,3.85-1.26,5.22-.49.53-1.06.97-1.64,1.37-5.6,3.63-9.2,7.37-13.16,12.51-2.88,3.76-6.8,6.48-10.95,8.69-6.34,3.37-13.84,5.27-20.96,3.55-4.95,6.5-9.16,14.36-10.81,22.33-3.48,16.65,10.49,25.82,25.67,26.97,10.34.78,19.06-4.42,28.42-7.91,12.1-4.52,24.36-4.62,37-2.49,18.63,3.15,37.21,6.44,56.09,7.71,21.17,1.44,43.83,1.11,63.73-7.1,21.93-9.03,33.41-27.9,35.05-51.02-2.16,1.05-4.46,1.97-6.98,2.71-10.79,3.21-21.87,3.55-31.15-3.4ZM53.14,101.93c1.05-6.87,3.93-11.46,9.02-16.22,11.62-10.83,25.45-10.15,39.11-3.6,6.6,3.17,13.99,7.62,21.36,8.63,3.96.54,6.84-1.31,10.15-3.21,1.77-1,1.18,2.21.06,2.85-2.84,1.61-5.65,3.49-9.01,3.65-4.99.23-10.25-2.49-14.65-4.45-8.33-3.7-16.53-9.08-25.87-9.5-6.87-.32-13.4,2.16-18.69,6.47-5.9,4.8-8.37,8.69-9.19,15.74-.95,7.99,1.49,15.74,8.46,20.29,8.52,5.57,18.47,3.83,27.63,1.14,6.64-1.95,13.26-4.52,20.29-3.7,6.48.75,12.72.25,19.08-1.31,1.7-.41.66,2.79-.59,3.1-3.25.79-6.58,1.36-9.92,1.67-4.42.41-8.52-.6-12.86-.55-10.03.13-19.26,5.85-29.3,6.5-16.59,1.07-27.51-11.53-25.08-27.52ZM132.27,106.86c-3.91,5.99-13.53,3.03-21.06-.47-11.58,6.8-30.61,17.69-44.06,9.98-4.32-2.47-7.41-7.19-7.95-12.16-.03-.23.02-.49.14-.75,0-.01,0-.02.01-.05,3.48-11.03,14.49-16.94,25.6-14.16,12.81,3.19,22.62,13.41,35.56,16.66,2.61.66,5.69,1.26,8.35.51.88-.25,2.08-1.29,1.62-.6,1.14-1.75,2.95-.74,1.79,1.03ZM85.93,165.02c-.51,5.46-.98,11.08-2.33,16.41-.71,2.76-1.55,5.59-4.56,6.49-7.99,2.39-4.18-12.64-3.73-16.03.69-5.27,1.46-10.56,2.59-15.76.52-2.39.97-5.4,2.55-7.41.16-.28.37-.52.6-.67.32-.29.59-.37.77-.32,8.23-2.8,4.53,13.03,4.13,17.28ZM93.58,186.22c-3.41-.06-3.22-1.14-3.05-4.4.55-10.24,2.49-20.52,4.16-30.65.02-.11.06-.22.1-.33.01-.02.01-.05.01-.07,1-3.44,6.26-6.11,7.55-1.44.48,1.76-.4,4.8-.55,6.58-.31,3.65-.62,7.32-.92,10.99-.25,2.9.05,6.58-.79,9.38-.05.16-.06.31-.07.46.8-.29,2.06-.48,2.34-.54,2.32-.47,6.14-1.33,8.09.52,2.01,1.91,1.52,5.77.48,8.03-.31.68-.85,1.47-1.69,1.47-5.22,0-10.46.09-15.68,0ZM179.31,199.18c2.47,12.01,7.68,29.42-2.17,39.58-4.37,4.5-10.51,7.19-16.94,8.8.01,2.47-.3,4.9-1.45,6.93-3.07,5.48-11.35,8.71-17.24,6.19-4.22-1.8-5.83-6.27-6.58-11.01-9.34-.68-18.86-3.29-25.5-9.64-9.19-8.8-9.5-24.33-2.33-34.42,5.42-7.63,14.13-12.53,23.28-14.95-.08-1.01-.15-2.02-.23-3.03v-.03c0-.07-.01-.14-.01-.21v-.07c-.13-6.55,2.05-15.94,11.06-14.01,5.17,1.11,7.24,8.79,8.65,13.07,5.64,17.03,8.15,35.6,9.7,53.43.13,1.46.34,3.05.48,4.68,9.89-2.46,19.36-6.99,20.16-18.46,1.01-14.85-4.94-30.14-6.9-44.76-1.68-12.56-1.32-24.17,2.09-36.28,3.25-11.48,7.3-23.12,8.1-35.11.32-4.84.22-10.31-2.41-14.56-2.25-3.62-5.78-5.16-9.62-5.85-.13.02-.22,0-.3-.05h-.01s-.01,0-.01-.01c-1.39-.23-2.82-.36-4.24-.44-9.63-.53-28.21,4.71-23.04,18.3.72,1.91,1.74,3.37,2.97,4.46.18.16.37.31.55.44h0c6.25,4.78,17.16.92,23.18-3.25,1.64-1.13,1.1,2.13.05,2.85-1.11.77-2.37,1.51-3.73,2.18h-.01c1.56,5.22.43,10.99-2.52,15.25,2.6,6.63,1.67,14.66-2.49,19.66,3.38,6.18,5.11,13.64.9,19.89-3.56,5.3-10.16,7.08-16.15,5.26-11.8-3.57-10.63-15.12-5.18-23.57-2.69-2.15-4.26-5.39-3.93-9.72.3-3.91,1.74-7.9,3.67-11.33-1.24-2.09-1.65-4.63-.86-7.56.91-3.37,2.24-6.15,3.73-8.1-1.33-1.44-2.37-3.31-2.95-5.78-2.06-8.7,3.48-15.39,10.68-19.03h.01c-4.02-3.02-5.88-8.29-5.46-13.27.05-.48.1-.95.18-1.41-10.52-11.96-14.05-29.5-10.24-44.7.34-1.4,2.95-2.79,2.41-.62-3.53,14.1-.34,30.1,8.94,41.5.51-1.16,1.15-2.22,1.91-3.18-5.99-14.22-7.53-32.09.61-45.65,1.08-1.8,2.86-.77,1.78,1.03-7.49,12.5-5.55,29.22-.09,42.32.75-.59,1.55-1.1,2.41-1.55-3.5-14.5.55-30.49,9.41-42.19,1.39-1.84,2.32.39,1.26,1.79-8.22,10.86-11.58,25.96-8.04,39.3.93-.29,1.92-.52,2.94-.67.38-.05.77-.09,1.17-.13-1.6-15.46,4.6-31.75,18.62-39.45,1.79-.98,1.21,2.22.06,2.85-12.89,7.07-18.1,22.4-16.03,36.52,1.36.02,2.78.16,4.2.4-1.88-16.67,12.27-31.07,25.94-38.2,1.8-.94,1.21,2.23.05,2.84-12.73,6.65-26.53,20.1-23.14,36.02.99.29,1.94.64,2.86,1.06.64-16.98,15.85-29.34,31.27-33.74,1.67-.48.65,2.75-.57,3.09-14.5,4.14-29.04,15.56-28.18,32.06,1.54,1.07,2.84,2.39,3.71,4,3.23,5.93-.2,13.17-4.77,17.77,2.16.64,4.16,1.62,5.83,3.1,3.88,3.46,5.06,8.81,5.29,13.8.59,13.37-4.24,26.78-7.87,39.44-2.07,7.19-3.55,13.88-3.54,21.44.02,11.73,2.3,23.25,4.67,34.68Z"/>
    <path class="st0" d="M81.21,94.88c-5.85-.99-11.85,3.16-11.88,9.37-.06,12.72,20.39,15.17,21.13,1.38-.29-5.32-3.87-9.84-9.25-10.74ZM75.32,105.81c.07-2.68,2.71-4.09,5.16-3.67,2.52.44,4.26,2.53,4.4,5.05-.32,6.02-9.7,4.05-9.56-1.38Z"/>
    <path class="st0" d="M275.12,135.36c-.41-12.08-1.29-25.27-7.49-35.97-7.38-12.73-21.02-16.24-34.92-15.45-26.19,2.06-38.21,26.58-41.18,49.96-2.73,21.42.21,45.24,10.32,64.52,4.03,7.68,9.57,15.17,17.38,19.34,10.57,5.65,24.66,2.76,34.66-2.84,26.6-14.9,22.11-53.82,21.24-79.56ZM270.6,164.09c-2.72,19.35-13.39,38.87-34.81,40.6-10.96.59-21.77-2.03-27.75-11.99-2.23-3.69-3.63-7.78-4.53-12.02,12.07-5.73,27.65-8.68,39.83-2.4,1.28.66,2.98-2.34,1.72-2.99-12.92-6.65-29.37-3.39-42.05,2.76-.49-3.01-.79-6.06-.98-9.08,12.69-5.91,28.49-8.63,41.78-3.82,1.37.49,2.98-2.53,1.72-2.99-13.97-5.06-30.36-2.22-43.66,4.01-.03-.74-.07-1.46-.09-2.18-.08-1.97-.15-3.94-.22-5.93,12.62-6.47,28.9-9.91,42.24-4.3,1.33.56,2.98-2.46,1.72-2.99-13.97-5.88-30.87-2.32-44.06,4.47-.1-3.23-.17-6.47-.17-9.71,12.35-7.85,28.9-11.73,42.51-5.29,1.3.62,2.98-2.39,1.72-2.98-14.14-6.7-31.35-2.79-44.22,5.36.03-2.37.1-4.73.24-7.1,11.22-9.91,27.58-12.28,41.28-6.61,1.33.55,2.98-2.46,1.72-2.99-14.19-5.88-30.96-3.47-42.81,6.44.9-11.37,3.47-24.68,13-32.05,16.03-12.39,36.87-3.79,46.39,11.65,9.33,15.12,11.89,34.75,9.45,52.12Z"/>
  </g>
</svg>