<?xml version="1.0" encoding="UTF-8"?>
<svg id="Layer_1" xmlns="http://www.w3.org/2000/svg" version="1.1" viewBox="0 0 275.97 279.79">
  <!-- Generator: Adobe Illustrator 30.5.1, SVG Export Plug-In . SVG Version: 2.1.4 Build 3)  -->
  <defs>
    <style>
      .st0 {
        fill: #2d2e2d;
      }
    </style>
  </defs>
  <path class="st0" d="M18.99,207.45c-.02-.71.4-1.78.52-2.46.18-1.16.34-2.32.48-3.49.13-.98.23-1.95.33-2.94-2.85,0-5.7.23-8.43.85-.05,0-.09,0-.14,0-.06.02-.11.05-.18.06-.17,2.52-.34,5.02-.53,7.54,1.16.17,2.33.32,3.5.43,1.08.09,2.18.18,3.28.14.13,0,1-.16,1.17-.13h0Z"/>
  <path class="st0" d="M32.01,199.96c-1.82-.45-3.65-.78-5.52-1.01-1.25-.15-2.54-.26-3.83-.33-.14,1.34-.3,2.69-.48,4.02-.07.46-.13.95-.18,1.46,3.09.17,6.17.36,9.26.53.24-1.55.49-3.11.75-4.67h0Z"/>
  <path class="st0" d="M10.52,223.07c2.67,4.8,11.29,5.21,15.91,4.63,6.54-.83,13.48-4.13,18.34-8.63,2.34-2.18,3.83-5,5.88-7.42,1.2-1.4,2.52-2.67,3.92-3.84-1.08.03-2.15-.03-3.19-.2-4.91,4.4-11.6,7.29-17.98,8.46-5.41.99-10.88.34-16.34.55-3.82.14-9.45,1.18-6.53,6.45h-.01Z"/>
  <path class="st0" d="M59.44,204.2c.74-.49,1.47-.98,2.22-1.46,0,0,0-.02.02-.02.86-1.36.13-.83-1.67-1.38-1-.3-1.99-.67-2.94-1.07-2.78-1.16-5.38-2.74-7.87-4.4-10.03-6.71-20.12-18.65-32.92-19.48-6.64-.43-12.11,3.14-12.18,10.17-.03,2.92,2.37,9.63,6.16,10.14.07-.05.13-.08.2-.11.37-.13.76-.13,1.01.06.23-.06.46-.1.7-.21h.03c.09-.06.18-.1.28-.13,9.4-2.13,20.1-.76,28.79,3.29,3.61,1.68,6.76,3.95,10.66,4.77.1,0,.2,0,.28.05.24.05.48.11.74.15,1.53.21,4.39.31,6.5-.36h-.01Z"/>
  <path class="st0" d="M34.8,89.86c6.52-5.4,18.28-19.43,12.63-28.14-5.07-7.81-16.4-6.67-22.63-1.21-1.7,1.48-1.78-1.44-.68-2.4,6.88-6.03,19.1-7.85,25.16.56,4.93,6.85.66,15.8-4.17,22.66.08-.07.15-.13.23-.18,7.52-5.65,14.89-11.38,21.52-18.05-.03-7.61-1.76-17.72-8.39-22.11-10.15-6.7-26.17.85-34.13,7.75-6.25,5.4-10.31,12.49-10.7,20.86-.22,4.84.87,10.71,5.75,12.97,9.35,4.34,18.29-7.87,15.34-16.5-.41-1.23,1.83-3.72,2.39-2.06,2.77,8.09-3.22,19.59-11.31,22-9.63,2.87-14.8-5.83-14.66-14.33.21-12.7,7.99-23.27,18.55-29.73,8.46-5.17,23.43-10.39,32.03-2.75,5.61,4.98,7.41,13.86,7.61,21.34,5.32-5.83,9.75-12.37,14.42-18.67-2.15-9.52-10.1-17.09-19.57-19.12-18.56-3.98-37.57,7.01-49.01,20.9C6.73,53.9-3.12,71.49,3.52,84.95c6.22,12.58,21.24,13.2,31.28,4.91Z"/>
  <path class="st0" d="M73.96,23.09c-.28-1.54-.34-3.09-.07-4.59,1.17-6.57,7.78-8.6,13.7-8.42,10.48.32,11.25,9.4,8.92,17.27,2.53-2.28,5.23-4.36,8.04-6.29,8.42-24.25-46.58-24.94-38.27-1.24,2.71.7,5.3,1.8,7.68,3.26h0Z"/>
  <path class="st0" d="M213.71,53.37c3.99,6.06,14.41-3.64,8.27-8.24-2.21-1.64-5.53-1.08-8.06-.18-1.84,2.28-2.4,5.1-.22,8.42h0Z"/>
  <path class="st0" d="M133.2,229.45c-.86-11.97-1.74-23.94-2.6-35.91-10.8,2.67-21.66,8.98-25.01,19.54-4.6,14.55,4.87,26.85,18.23,31.07,3.46,1.09,7.06,1.83,10.71,2.23-.22-2.36-.33-4.63-.55-6.55-.39-3.44-.54-6.93-.78-10.38h0Z"/>
  <path class="st0" d="M157.57,245.04c-.18-1.75-.45-3.41-.57-4.77-1.4-15.24-3.71-30.63-7.64-45.42-1.4-5.27-2.84-11.7-6.29-16.09-1.76-2.25-3.88-3.06-6.86-2.02-4.25,1.47-3.64,5.71-3.56,9.26v.02c.09,1.34.2,2.68.29,4.02.07.98.14,1.95.22,2.92.72,10.23,1.47,20.44,2.21,30.66.61,8.55,1.13,15.02,2.3,23.02.1.69.21,1.38.32,2.09.06.37.11.74.18,1.09.84,4.37,2.59,7.91,7.63,8.45,3.63.39,8.72-1.09,10.8-4.3,1.01-1.54,1.26-3.65,1.21-5.87-.02-1.02-.1-2.06-.23-3.07h-.01Z"/>
  <path class="st0" d="M150.26,153.57c-2.67-.2-5.1-.86-7.12-1.99-3.95,5.88-5.52,14.1,1.82,18.07,4.37,2.37,10.4,2.94,14.47-.37,5.71-4.63,3.1-12.79.08-18.19-2.41,1.78-5.5,2.76-9.24,2.48h-.01Z"/>
  <path class="st0" d="M148.72,134.82c-2.48-.77-4.62-2.01-6.18-3.63-3.93,7.68-3.83,16.96,6.6,18.92,6.79,1.28,12.66-1,13.74-8.26.47-3.19.31-6.91-.75-10.07-3.38,3.17-8.07,4.71-13.41,3.05h0Z"/>
  <path class="st0" d="M148.81,131.25c10.89,4.46,19-6.07,15.38-16.1-6.05,2.4-13.24,3.36-18.1.31,0,0,0,0,0-.01-.26.31-.52.62-.62.75-.98,1.3-1.87,2.71-2.46,4.23-1.99,5.14,1.1,8.89,5.81,10.83h0Z"/>
  <path class="st0" d="M173.22,67.44c-1.3-.76-2.72-1.36-4.22-1.83-.17.02-.32-.01-.44-.14-2.14-.62-4.38-.95-6.58-.94-.14.05-.28.06-.38.02-1.21.02-2.39.14-3.54.36-4.53.9-7.78,3.86-8.98,7.69,0,.29-.09.61-.24.92-.49,2.25-.3,4.76.76,7.3,1.13,2.71,3.36,5.17,6.04,6.42,0,0,.02.01.03.02,2.17-.74,4.39-1.21,6.53-1.38,3.13-.26,6.69-.34,10.08.23,6.61-4.84,8.61-14.16.93-18.67h.01Z"/>
  <path class="st0" d="M213.56,218.21c-8-5.98-13.28-15.01-17.05-24.1-14.65-35.41-14.08-109.28,37.41-113.32,7.42-.41,14.49.49,20.66,3.05,3.76-14.71,2.38-31.91-5.13-45.3-2.03-.02-4.05-.17-5.94-.3-6.29-.45-12.5-.76-18.71.7-1.75.4-3.88,1.15-5.9,2.18,4.14,0,7.83,2.09,7.39,7.42-.41,4.99-7.29,12.16-12.64,9.48-5.46-2.74-4.06-9.56-1.06-14.32.22-.63.62-1.26,1.07-1.53.83-1.07,1.72-1.95,2.61-2.57,9.18-6.42,21.16-4.78,31.63-4.32,4.02.17,8.76.36,12.34-1.77,4.53-2.68,4.77-8.33,4.49-13.04-.59-9.83-3.55-19.69-14.7-20.39-9.94-.62-20.12,2.48-29.98,3.42-10.87,1.05-21.38-.54-32.21-.78-22.77-.51-46.52,3.51-67.43,12.68-9.39,4.11-18.55,9.48-25.82,16.8-.14.21-.29.36-.45.47-.69.71-1.39,1.41-2.05,2.17-1.99,2.28-3.86,4.63-5.68,7.02-.2.74-.87,1.6-1.45,1.92-5.36,7.17-10.4,14.57-16.76,21.05-12,12.25-26.65,21.17-38.58,33.49-7.95,8.22-18.01,14.57-23.11,25.13-2.98,6.18-4.8,13.1-5.83,19.87-.7,4.62-1.51,11.08,1.26,15.24,5.76,8.62,17.42-2.21,24.68-2.64,1.91-.12,3.02.44,4.69,1.3,3.06,1.59,5.96,2.69,9.39,3.26,8.27,1.39,25.36,2.77,22.32-10.25-.62-2.65-1.83-5.98-3.65-8.09-3.29-3.82-8.41-2.18-12.12.11-1.71,1.06-1.15-2.16-.05-2.84,3.03-1.88,7.34-3.61,10.91-2.41,3.02,1,4.54,4.07,5.76,6.79,2.41,5.36,3.39,12.15-1.18,16.65-6.76,6.65-21.25,4.61-29.11,1.7-2.39-.88-4.69-3.06-7.29-3.14-2.83-.09-5.61,1.13-8.35,2.44,1.96,4.01.49,8.38-2.03,11.92,4.02,0,8.26,1.18,11.88,3.05,6.78,3.49,12.56,8.68,18.62,13.23,3.1,2.33,6.29,4.61,9.73,6.39,1.68.87,3.39,1.61,5.19,2.16.56.17,2.7.34,3.17.88,1.47,1.69.06,3.85-1.26,5.22-.49.53-1.06.97-1.64,1.37-5.6,3.63-9.2,7.37-13.16,12.51-2.88,3.76-6.8,6.48-10.95,8.69-6.34,3.37-13.84,5.27-20.96,3.55-4.95,6.5-9.16,14.36-10.81,22.33-3.48,16.65,10.49,25.82,25.67,26.97,10.34.78,19.06-4.42,28.42-7.91,12.1-4.52,24.36-4.62,37-2.49,18.63,3.15,37.21,6.44,56.09,7.71,21.17,1.44,43.83,1.11,63.73-7.1,21.93-9.03,33.41-27.9,35.05-51.02-2.16,1.05-4.46,1.97-6.98,2.71-10.79,3.21-21.87,3.55-31.15-3.4h0ZM53.16,101.93c1.05-6.87,3.93-11.46,9.02-16.22,11.62-10.83,25.45-10.15,39.11-3.6,6.6,3.17,13.99,7.62,21.36,8.63,3.96.54,6.84-1.31,10.15-3.21,1.77-1,1.18,2.21.06,2.85-2.84,1.61-5.65,3.49-9.01,3.65-4.99.23-10.25-2.49-14.65-4.45-8.33-3.7-16.53-9.08-25.87-9.5-6.87-.32-13.4,2.16-18.69,6.47-5.9,4.8-8.37,8.69-9.19,15.74-.95,7.99,1.49,15.74,8.46,20.29,8.52,5.57,18.47,3.83,27.63,1.14,6.64-1.95,13.26-4.52,20.29-3.7,6.48.75,12.72.25,19.08-1.31,1.7-.41.66,2.79-.59,3.1-3.25.79-6.58,1.36-9.92,1.67-4.42.41-8.52-.6-12.86-.55-10.03.13-19.26,5.85-29.3,6.5-16.59,1.07-27.51-11.53-25.08-27.52v.02ZM132.29,106.86c-3.91,5.99-13.53,3.03-21.06-.47-11.58,6.8-30.61,17.69-44.06,9.98-4.32-2.47-7.41-7.19-7.95-12.16-.03-.23.02-.49.14-.75,0-.01,0-.02,0-.05,3.48-11.03,14.49-16.94,25.6-14.16,12.81,3.19,22.62,13.41,35.56,16.66,2.61.66,5.69,1.26,8.35.51.88-.25,2.08-1.29,1.62-.6,1.14-1.75,2.95-.74,1.79,1.03h0ZM85.95,165.02c-.51,5.46-.98,11.08-2.33,16.41-.71,2.76-1.55,5.59-4.56,6.49-7.99,2.39-4.18-12.64-3.73-16.03.69-5.27,1.46-10.56,2.59-15.76.52-2.39.97-5.4,2.55-7.41.16-.28.37-.52.6-.67.32-.29.59-.37.77-.32,8.23-2.8,4.53,13.03,4.13,17.28h-.02ZM93.6,186.22c-3.41-.06-3.22-1.14-3.05-4.4.55-10.24,2.49-20.52,4.16-30.65.02-.11.06-.22.1-.33.01-.02.01-.05.01-.07,1-3.44,6.26-6.11,7.55-1.44.48,1.76-.4,4.8-.55,6.58-.31,3.65-.62,7.32-.92,10.99-.25,2.9.05,6.58-.79,9.38-.05.16-.06.31-.07.46.8-.29,2.06-.48,2.34-.54,2.32-.47,6.14-1.33,8.09.52,2.01,1.91,1.52,5.77.48,8.03-.31.68-.85,1.47-1.69,1.47-5.22,0-10.46.09-15.68,0h.02ZM179.33,199.18c2.47,12.01,7.68,29.42-2.17,39.58-4.37,4.5-10.51,7.19-16.94,8.8,0,2.47-.3,4.9-1.45,6.93-3.07,5.48-11.35,8.71-17.24,6.19-4.22-1.8-5.83-6.27-6.58-11.01-9.34-.68-18.86-3.29-25.5-9.64-9.19-8.8-9.5-24.33-2.33-34.42,5.42-7.63,14.13-12.53,23.28-14.95-.08-1.01-.15-2.02-.23-3.03v-.03c0-.07,0-.14,0-.21v-.07c-.13-6.55,2.05-15.94,11.06-14.01,5.17,1.11,7.24,8.79,8.65,13.07,5.64,17.03,8.15,35.6,9.7,53.43.13,1.46.34,3.05.48,4.68,9.89-2.46,19.36-6.99,20.16-18.46,1.01-14.85-4.94-30.14-6.9-44.76-1.68-12.56-1.32-24.17,2.09-36.28,3.25-11.48,7.3-23.12,8.1-35.11.32-4.84.22-10.31-2.41-14.56-2.25-3.62-5.78-5.16-9.62-5.85-.13.02-.22,0-.3-.05h0s0,0,0-.01c-1.39-.23-2.82-.36-4.24-.44-9.63-.53-28.21,4.71-23.04,18.3.72,1.91,1.74,3.37,2.97,4.46.18.16.37.31.55.44h0c6.25,4.78,17.16.92,23.18-3.25,1.64-1.13,1.1,2.13.05,2.85-1.11.77-2.37,1.51-3.73,2.18h0c1.56,5.22.43,10.99-2.52,15.25,2.6,6.63,1.67,14.66-2.49,19.66,3.38,6.18,5.11,13.64.9,19.89-3.56,5.3-10.16,7.08-16.15,5.26-11.8-3.57-10.63-15.12-5.18-23.57-2.69-2.15-4.26-5.39-3.93-9.72.3-3.91,1.74-7.9,3.67-11.33-1.24-2.09-1.65-4.63-.86-7.56.91-3.37,2.24-6.15,3.73-8.1-1.33-1.44-2.37-3.31-2.95-5.78-2.06-8.7,3.48-15.39,10.68-19.03h0c-4.02-3.02-5.88-8.29-5.46-13.27.05-.48.1-.95.18-1.41-10.52-11.96-14.05-29.5-10.24-44.7.34-1.4,2.95-2.79,2.41-.62-3.53,14.1-.34,30.1,8.94,41.5.51-1.16,1.15-2.22,1.91-3.18-5.99-14.22-7.53-32.09.61-45.65,1.08-1.8,2.86-.77,1.78,1.03-7.49,12.5-5.55,29.22-.09,42.32.75-.59,1.55-1.1,2.41-1.55-3.5-14.5.55-30.49,9.41-42.19,1.39-1.84,2.32.39,1.26,1.79-8.22,10.86-11.58,25.96-8.04,39.3.93-.29,1.92-.52,2.94-.67.38-.05.77-.09,1.17-.13-1.6-15.46,4.6-31.75,18.62-39.45,1.79-.98,1.21,2.22.06,2.85-12.89,7.07-18.1,22.4-16.03,36.52,1.36.02,2.78.16,4.2.4-1.88-16.67,12.27-31.07,25.94-38.2,1.8-.94,1.21,2.23.05,2.84-12.73,6.65-26.53,20.1-23.14,36.02.99.29,1.94.64,2.86,1.06.64-16.98,15.85-29.34,31.27-33.74,1.67-.48.65,2.75-.57,3.09-14.5,4.14-29.04,15.56-28.18,32.06,1.54,1.07,2.84,2.39,3.71,4,3.23,5.93-.2,13.17-4.77,17.77,2.16.64,4.16,1.62,5.83,3.1,3.88,3.46,5.06,8.81,5.29,13.8.59,13.37-4.24,26.78-7.87,39.44-2.07,7.19-3.55,13.88-3.54,21.44.02,11.73,2.3,23.25,4.67,34.68h-.05Z"/>
  <path class="st0" d="M81.23,94.88c-5.85-.99-11.85,3.16-11.88,9.37-.06,12.72,20.39,15.17,21.13,1.38-.29-5.32-3.87-9.84-9.25-10.74h0ZM75.34,105.81c.07-2.68,2.71-4.09,5.16-3.67,2.52.44,4.26,2.53,4.4,5.05-.32,6.02-9.7,4.05-9.56-1.38Z"/>
  <path class="st0" d="M275.14,135.36c-.41-12.08-1.29-25.27-7.49-35.97-7.38-12.73-21.02-16.24-34.92-15.45-26.19,2.06-38.21,26.58-41.18,49.96-2.73,21.42.21,45.24,10.32,64.52,4.03,7.68,9.57,15.17,17.38,19.34,10.57,5.65,24.66,2.76,34.66-2.84,26.6-14.9,22.11-53.82,21.24-79.56h-.01ZM270.62,164.09c-2.72,19.35-13.39,38.87-34.81,40.6-10.96.59-21.77-2.03-27.75-11.99-2.23-3.69-3.63-7.78-4.53-12.02,12.07-5.73,27.65-8.68,39.83-2.4,1.28.66,2.98-2.34,1.72-2.99-12.92-6.65-29.37-3.39-42.05,2.76-.49-3.01-.79-6.06-.98-9.08,12.69-5.91,28.49-8.63,41.78-3.82,1.37.49,2.98-2.53,1.72-2.99-13.97-5.06-30.36-2.22-43.66,4.01-.03-.74-.07-1.46-.09-2.18-.08-1.97-.15-3.94-.22-5.93,12.62-6.47,28.9-9.91,42.24-4.3,1.33.56,2.98-2.46,1.72-2.99-13.97-5.88-30.87-2.32-44.06,4.47-.1-3.23-.17-6.47-.17-9.71,12.35-7.85,28.9-11.73,42.51-5.29,1.3.62,2.98-2.39,1.72-2.98-14.14-6.7-31.35-2.79-44.22,5.36.03-2.37.1-4.73.24-7.1,11.22-9.91,27.58-12.28,41.28-6.61,1.33.55,2.98-2.46,1.72-2.99-14.19-5.88-30.96-3.47-42.81,6.44.9-11.37,3.47-24.68,13-32.05,16.03-12.39,36.87-3.79,46.39,11.65,9.33,15.12,11.89,34.75,9.45,52.12h.03Z"/>
</svg>