<?xml version="1.0" encoding="UTF-8"?>
<svg id="Layer_1" xmlns="http://www.w3.org/2000/svg" version="1.1" viewBox="0 0 284.07 301.71">
  <!-- Generator: Adobe Illustrator 30.5.1, SVG Export Plug-In . SVG Version: 2.1.4 Build 3)  -->
  <defs>
    <style>
      .st0 {
        fill: #2d2e2d;
      }
    </style>
  </defs>
  <path class="st0" d="M92.92,110.62c5.53-.59,9.07-5.62,9.65-10.8.06-.26.1-.52.08-.78.02-.26-.02-.48-.08-.68-.59-4.99-4.52-8.99-9.87-8.25-5.38.74-9.52,6.23-9.45,11.56.06,5.21,4.36,9.52,9.66,8.95h0ZM93.04,96.1c2.73.51,4.77,2.79,4.92,5.57-.31,5.73-10.19,2.57-10-2.63.1-2.51,2.92-3.33,5.08-2.94Z"/>
  <path class="st0" d="M21.65,227.99c2.11.14,2.01.2,2.38-1.51-.01-.24.06-.52.16-.78.64-2.78.99-5.65,1.23-8.49-.69-.11-1.36-.25-2.06-.34-3.77-.43-8.31-.43-12.09-1.84-.65,2.44-1.29,4.9-1.82,7.37-.38,1.79-.85,2.26.25,3.05,1.43,1.01,3.91,1.25,5.58,1.61,2.08.44,4.23.82,6.36.94h.01Z"/>
  <path class="st0" d="M37.71,225.54c.69,0,1.43-.11,2.13-.11.09-.39.22-.78.3-1.16.18-.91.33-1.82.47-2.74-4.1-1.65-8.3-3-12.82-3.91-.2,2.25-.45,4.56-.93,6.79,3.38,1.03,7.41,1.1,10.86,1.13h-.01Z"/>
  <path class="st0" d="M18.41,93.18c8.55,3.65,18.26.32,25.04-5.41,6.32-5.34,12.87-15.28,7.31-23.42-4.85-7.11-16.15-6.83-21.67-.82-1.55,1.69-2.48-.47-1.26-1.78,5.9-6.42,16.77-8.4,23.47-1.88,6.69,6.5,3.88,16.76-.86,23.48-.41.59-.85,1.15-1.31,1.72,2.25-1.53,4.5-3.08,6.72-4.69,5.99-4.36,11.64-9.15,16.85-14.41.59-9.14-4.6-19.66-12.38-25.19-9.94-7.07-24.9-6.34-35.3-.68-10.17,5.53-15.99,17.39-11.31,28.53,5.52,13.14,19.81,8.25,28.76,1.8,1.83-1.31,1.88,1.53.67,2.4-8.31,5.99-21.42,12.19-29.36,2.17-5.07-6.39-5.13-16.05-2.21-23.35,4.11-10.27,14.58-16.61,25.13-18.42,11.54-2,23.48.75,31.18,10,4.55,5.47,7.31,12.91,7.31,20.12,1.34-1.44,2.65-2.9,3.93-4.4,4.56-5.44,8.02-11.72,12.22-17.4-5.94-7.7-15.16-13.56-24.18-16.73-17.75-6.23-41.04-3.17-55.12,9.89C.83,45.12-1.41,61.5,3.7,75.48c2.63,7.22,7.42,14.57,14.71,17.7Z"/>
  <path class="st0" d="M88.95,283.54c-3.07-5.22-10.92-1.82-8.92,4.01.05.05.09.08.14.11,3.64,2.8,12.43,2.09,8.78-4.13h0Z"/>
  <path class="st0" d="M11.71,211.49c.07.02.13.05.17.1,3.8,1.76,8.87,1.69,12.66,2.13.99.13,1.95.3,2.92.47.1-.02.2,0,.29.05,5.11.91,9.88,2.3,14.53,4.14.41-.14.77-.07.91.34,3.6,1.47,7.13,3.22,10.69,5.22,8.45,4.76,15.36,4.38,24.39.92,9.22-3.54,18.57-7.31,28.25-9.53.14-.07.25-.1.36-.09,1.41-.32,2.83-.6,4.25-.84-4.72-1.49-9.19-1.91-15.19-.76-7.55,1.47-14.74,4.86-22.43,5.52-6.07.52-12.1-.47-17.88-2.29-11.38-3.56-20.95-10.3-31.13-16.2-1.9-1.09-3.67-2.01-5.79-2.56-5.79-1.52-15.68,1.23-10.89,9.83.92,1.67,2.3,2.78,3.92,3.56h-.03Z"/>
  <path class="st0" d="M19.86,255.46c6.48,1.18,14.27-.52,19.98-1.53,6.77-1.21,13.38-3.32,20.1-4.79,10.18-2.24,19.34-5.27,27.67-11.76,7.86-6.11,14.28-14.78,22.85-19.92-.4.08-.8.17-1.17.24-.98.18-1.93.43-2.91.64-10.58,9.92-25.34,18.21-39.8,19.9-15.26,1.77-30.88.41-46.05,3.08-2.65.47-5.95.94-8.11,2.71-3.19,2.62-1.99,6.53.94,8.75,1.68,1.26,3.63,2.06,5.75,2.53.28-.09.54-.03.75.14h0Z"/>
  <path class="st0" d="M105.34,278.28c-3.67-10.54-16.27-16.11-26.41-10.92-7.21,3.69-5.85,12.14-1.49,17.61,1.56-6.34,9.93-10.99,13.86-3.63,4.42,8.3-5.59,14.48-12.43,9.62-6.42-4.56-10.17-14.68-5.55-21.69,6.16-9.34,21.03-8.68,28.63-1.79.77.69,1.48,1.45,2.14,2.28.59-7.69,4.15-15.43,11.35-18.71,5.04-2.29,10.71-2.41,13.86-7.75,2.68-4.52,2.34-11.11.7-15.94-1.7-5-6.18-8.71-11.15-10.5-.21.16-.42.24-.64.22-8.89,2.18-15,8.88-21.34,15.05-6.87,6.69-14.24,12.62-23.23,16.2-9,3.6-18.96,5-28.35,7.38-7.78,1.98-16.62,3.61-24.64,2.93-.41-.03-.84-.08-1.26-.15-2.85,6.16-5.48,15.18-1.78,21.11,5.48,8.81,15.2,1.01,22.58.62,3.47-.2,4.77,1.87,6.62,4.49,2.98,4.22,5.92,8.29,10.18,11.32,6.58,4.69,14.58,6.01,22.51,5.62,7.65-.38,19.42-1.22,24.7-7.84,3.34-4.22,2.82-10.73,1.15-15.54h0ZM116.38,227.92c3.88-.51,6.79,2.46,7.14,6.11.02.09.03.2.03.32,0,.09-.01.2-.03.31-.32,3.63-2.8,7.09-6.64,7.5-3.83.41-6.99-2.68-7.02-6.44-.03-3.69,2.82-7.32,6.53-7.81h-.01Z"/>
  <path class="st0" d="M210.87,274.75c-2.41-2.78-4.47-5.85-6.3-9.04-.24-.44-.72-1.13-1.23-1.9v.47c.21,5.6-.88,11.19-3.05,16.36-1.99,4.71-4.85,9.37-8.41,13.2,12.38-1.52,24.55-4.08,36.02-8.32-6.67-1.63-12.41-5.46-17.03-10.78h0Z"/>
  <path class="st0" d="M185.4,152.76c-3.06,1.11-6.27,1.71-9.52,1.78.14,5.23-7.68,10.16-11.24,12.04-8.39,4.44-12.46,17.13-22.34,18.59.91.67,1.83,1.31,2.64,1.52,9.08,2.29,14.72-6.76,21.13-11.33,4.76-3.4,10.27-4.87,15.25-7.78,3.99-2.33,10.14-11.56,4.07-14.82h0Z"/>
  <path class="st0" d="M176.33,131.58c-9.78,4.16-17.67-3.94-27.03-4.16-5.07-.11-10.02,2.07-13.99,5.09-.7.53-2.3,1.99-3.53,3.24,6.32-4.17,13.42-6.37,21.18-4.46,6.23,1.53,10.94,5.37,16.49,8.24,5.79,2.99,13.38,2.45,18.42-1.79,11.61-9.76,9.43-32.18,6.75-45.15-3.26-15.81-14.04-33.97-31.14-37.71-.36,1.01-.46,2.17-.22,3.49.75,3.98,4.09,7,7.1,9.37,4.42,1.18,8.11,5.11,10.5,8.79,6.8,10.52,7.81,25.32,6.11,37.39-.97,6.92-3.73,14.71-10.65,17.65h0Z"/>
  <path class="st0" d="M198.24,98.36c1.42,12.91,1.62,30.35-8.23,40.42-4.95,5.07-12.34,7.02-19.16,5.01-4.19-1.24-7.63-4.25-11.46-6.27-8.81-4.69-17.46-4.64-25.57-.1.77-.21,1.46-.39,1.8-.45,1.67-.24,3.34-.43,5.02-.45,11.38-.13,16.26,9.95,26.22,13.37,11.46,3.93,23.72.11,31.29-9.24,9.99-12.35,11.39-29.68,8.37-44.73-2.63-13.04-8.39-26.13-17.4-36.04-4.52-4.95-10.8-9.87-17.88-9.61-2.03.07-4.02.66-5.53,1.74,5.85,1.59,11.39,5.23,15.72,9.22,10.41,9.58,15.27,23.35,16.79,37.14h.02Z"/>
  <path class="st0" d="M175.27,199.48c-3.79,2.14-7.99,3.73-11.76,5.71-5.46,2.86-10.23,6.33-14.18,10.65,4.98,4.11,2.98,11.14-.4,15.93-5.81,8.24-11.02,19.08-7.35,29.22,4.7-12.77,13.64-21.03,24.81-29.11,6.22-4.49,11.31-8.78,12.92-16.66,1.05-5.14.38-12.14-4.03-15.74h-.01Z"/>
  <path class="st0" d="M180.35,170.97c-3.15,1.63-6.54,2.72-9.68,4.41-4.53,2.42-7.77,5.85-11.58,9.19-.71.62-1.46,1.22-2.23,1.78-.18,5.11-3.77,10.23-7.04,13.73-5.69,6.09-10.6,13.69-7.68,22,1.17-2,2.47-3.83,3.86-5.53.21-.77.83-1.56,1.45-1.71,6.5-7.24,14.89-11.96,24.21-16.49,7.06-3.44,11.31-6.96,11.74-15.34.23-4.39-.26-8.92-1.28-13.2-.62.48-1.22.87-1.78,1.16h0Z"/>
  <path class="st0" d="M94.35,148.61c-1.17,10.55-2.33,21.11-3.49,31.66h2.36c.52-5.94,1.03-11.88,1.55-17.82.33-3.91.68-7.8,1.01-11.71.03-.36.29-1.46.3-2.16-.17.3-.92.21-1.72.03h-.01Z"/>
  <path class="st0" d="M160.75,166c2.97-2.19,15.03-6.61,12.18-11.51-4.46-.33-8.86-1.64-12.8-3.9-.06-.03-.1-.06-.15-.09-5.94,4.78-14.71,17-4.75,21.4,1.7-2.23,3.45-4.38,5.52-5.9h0Z"/>
  <path class="st0" d="M126.12,180.97s-.1-.02-.16-.05c-1.63-.48-4.08-.1-5.75-.15-3.98-.1-7.94-.21-11.92-.31-.45,0-.65-.51-.64-.88.05-6.1.1-12.22.16-18.32.03-3.64.07-7.29.09-10.93.01-.44.17-1.44.14-2.14-.08.29-.47.38-1.07.45-.46,10.22-.92,20.42-1.38,30.64-.05.83-.14,1.69-.11,2.53,1.95.4,4.75-.09,6.64-.09h14.19c-.03-.22-.08-.44-.16-.64-.01-.03-.02-.07-.03-.1h0Z"/>
  <path class="st0" d="M20.73,168.13c7.29-3.28,14.55-5.81,22.63-4.37,9,1.61,18.09,8.93,27.33,5.19,21.46-8.7-2.65-40.2-18.33-23.26-1.55,1.69-2.48-.47-1.26-1.78,3.11-3.38,7.57-5.98,12.19-6.37,16.5-1.4,23.96,20.35,12.7,30.88-5.52,5.16-12.81,5.69-19.66,3.15-10.93-4.03-19.67-6.93-30.98-2.56-.95.37-1.95.8-2.96,1.28,1.48,8.32-1.51,17.2-5.88,24.27,3.86.34,7.87,2.01,11.02,3.91,10.84,6.54,21.5,13.74,34.06,16.55,7.36,1.64,14.49,1.31,21.67-.92,6.1-1.9,12.32-3.79,18.72-4.36,5.83-.51,10.09,1.02,14.96,3.11.02,0,.05,0,.07,0,13.8,2.67,21.05,18.44,14.38,30.9-1.8,3.36-4.63,5.92-8.07,7.54-4.7,2.22-9.8,2.21-13.19,6.75-3.21,4.28-4.05,10.47-3.49,15.72,2.65,5.31,3.4,11.79,1.42,17.24-.49,1.37-1.16,2.57-1.94,3.67,10.77.59,21.54,1.01,32.32,1.15,16.13.21,33.19.21,49.93-1.57.06-.06.1-.11.16-.16,7.47-6.49,12.26-16.85,12.37-26.68,0-.55.97-11.3,1.92-11.04.98.28,1.84,2.92,2.23,3.65,1.59,2.98,3.25,5.9,5.22,8.63,5.75,7.98,13.61,13.68,23.59,14.49.64-.29,1.29-.56,1.92-.85,17.84-8.14,30.25-21.87,34.46-41.18,9.46-43.2,14.38-88.58,13.78-132.78-.33-24.51-2.02-51-12.47-73.58-3.98-8.58-9.61-16.76-17.67-21.93C238.35,2.88,216.88.01,198.82,0c-34.03-.03-72.46,11.79-98.28,34.66-5.05,4.47-8.12,9.49-11.86,15.03-5.24,7.77-11.27,14.95-18.07,21.41-11.04,10.49-23.99,17.9-36.42,26.52-16.16,11.22-27.6,25.68-31.84,45.01-1.62,7.38-4.47,18.33.2,25.19,4.36,6.44,12.66,2.77,18.18.3h0ZM95.5,181.16c-.08.95-.7,2.26-1.84,2.26h-4.75c-.64,0-.67-.84-.62-1.26,1.28-11.56,2.55-23.12,3.83-34.68,0-.17.02-.38.08-.59.05-.21.13-.41.24-.61.07-.13.08-.14.02-.02-.09.18.01-.03.02-.05.36-.63.93-1.15,1.48-1.07,1.3.18,2.59.38,3.88.56.41.06.69.47.64.88-1,11.53-2,23.04-3,34.57h.02ZM127.17,184.88h-23.56c-.44,0-.67-.52-.65-.88.55-12.01,1.09-24.02,1.63-36.03,0-.13.05-.26.09-.39.17-.82.78-1.74,1.45-1.85,1.11-.18,2.23-.37,3.34-.56.57-.09.95.28.95.86-.08,9.39-.17,18.77-.25,28.16,0,.61-.26,2.16-.2,3.19.16.02.43.06.77-.02,1.06-.25,2.57.07,3.68.09,4.48.11,8.96.23,13.45.36.48,0,.61.51.66.88.16,1.31.32,2.62.48,3.92.11.95-.85,2.28-1.84,2.28h0ZM186.97,274.9c-.37,4.59-3.49,8.86-8.33,9.39-4.92.54-9.06-3.46-9.1-8.32-.03-4.62,3.55-9.11,8.21-9.68,4.99-.61,8.73,3.14,9.22,7.83.03.13.06.28.05.47,0,.1,0,.21-.03.31h-.02ZM240.38,261.99c-.37,4.56-3.47,8.81-8.27,9.33-4.9.54-9.02-3.42-9.06-8.26-.03-4.6,3.53-9.07,8.16-9.63,4.95-.61,8.68,3.11,9.16,7.78.03.13.06.28.05.47,0,.1,0,.21-.03.31h-.01ZM255.45,162.36c3.54,7.34,4.52,15.89,4.92,23.95.79,15.55-.9,34.52-11.49,46.86-11.09,12.92-32.71,11.32-44.27-.37-12.47-12.62-10.5-33.57-8.03-49.55,1.46-9.43,2.99-19.97,8.54-28.01,4.91-7.08,12.42-9.41,20.72-9.54,12.6.16,23.93,4.82,29.62,16.65h0ZM181.65,84.97c-2.09-5.4-6.4-12.47-12.54-14.09-.16.01-.32-.03-.46-.15-4.75-3.72-9.5-9.12-7.61-15.61.25-.88.62-1.7,1.08-2.46.09-.17.21-.34.32-.49,1.94-2.83,5.21-4.6,8.69-4.98,14.94-1.63,26.09,16.12,31.44,27.55,10.91,23.28,13.2,61.44-12.94,76.1-.2.1-.4.21-.6.31,4.1,4.19-.05,11.87-4.53,16.5,2.22,9.22,3.22,22.13-4.69,28.76-.51.41-1.03.8-1.56,1.18,7.3,7.5,3.95,22.1-2.25,29.13-4.49,5.08-10.6,8.5-15.9,12.63-8.43,6.55-14.49,14.54-17.4,24.94-.14.49-1.61,2.92-2.28,1.61-2.78-5.48-2.95-12.38-1.71-18.27,1.17-5.54,3.75-10.47,6.98-15.07,3.05-4.33,6.5-10.35,1.44-14.12-1.69,2.16-3.19,4.49-4.5,7.06-.21.39-1.53,1.72-1.97.78-2.26-4.8-2.3-10.7-.68-15.69,1.67-5.13,5.07-8.57,8.62-12.43,2.47-2.69,5.36-6.31,5.73-10.19-3.61,2-7.67,2.94-11.83,1.51-1.95-.67-6.61-2.9-6.17-5.65.46-2.87,3.34-1.63,5.23-1.65,5.17-.06,8.49-3.56,11.55-7.49-4.32-2.32-5.5-7.89-4.37-12.42,1.29-5.1,5.09-9.66,9.19-13.09-4.55-3.34-8.02-7.98-13.93-9.12-3.33-.64-6.7-.34-10.02.2-1.31.21-3.63,1.11-4.95.75-.16-.05-.3-.09-.44-.15-.4.1-.65-.11-.76-.49-.86-.88-.22-2.29.63-3.72,2.91-4.91,8.5-8.83,13.73-10.81,7.31-2.78,12.54-.61,19.43,1.86,4.95,1.78,11.31,3.22,16.16.33,5.96-3.55,6.9-12.03,7.18-18.26.38-8.26-.31-17-3.33-24.77l.02-.03ZM66.35,96.27c11.17-7.4,26.55-10.3,39.39-6.36,12.84,3.93,27.06,13.11,41.07,7.67,1.56-.61.6,2.64-.59,3.09-6.13,2.39-13.28,1.99-20.1.4-11.92,10.02-26.9,16.86-42.42,11.3-7.02-2.52-13.9-7.35-18.41-13.38-.67-.88.32-2.25,1.05-2.72h0Z"/>
  <path class="st0" d="M197.65,193.81c-1.15,14.8.52,32.55,14.81,40.69,14.86,8.46,32.57,5.16,39.96-10.76,6.07-13.1,6.61-29.11,4.86-43.23-.85-6.86-2.37-13.87-6.3-19.69-6.03-8.92-16.04-11.84-26.33-11.97-11.26.17-18.23,5.19-21.8,15.92-3.06,9.18-4.46,19.39-5.21,29.04h.01ZM207.48,169.54c2.77-8.62,8.2-12.72,17.24-12.89,8.16.14,16.05,2.38,20.89,9.43,3.22,4.7,4.45,10.46,5.11,16.03.29,2.36.49,4.79.59,7.24-15.82-.28-31.66-.56-47.5-.84.64-6.4,1.74-12.94,3.67-18.97ZM203.45,192.48c.02-.26.05-.53.07-.79,15.95.28,31.91.56,47.86.84.03,8.02-1.11,16.18-4.24,23.36-5.65,12.99-19.67,15.97-31.76,9.16-11.49-6.48-12.83-20.72-11.93-32.57h0Z"/>
</svg>