<?xml version="1.0" encoding="UTF-8"?>
<svg id="Layer_1" xmlns="http://www.w3.org/2000/svg" version="1.1" viewBox="0 0 1813.2 423.37">
  <!-- Generator: Adobe Illustrator 30.5.1, SVG Export Plug-In . SVG Version: 2.1.4 Build 3)  -->
  <defs>
    <style>
      .st0 {
        fill: #2d2e2d;
      }
    </style>
  </defs>
  <path class="st0" d="M1585.12,357.87c8.44-.85,14.2,6.76,21.38,9.72,2.91,1.22,6.02,2.07,9.22,2.67-5.69-3.72-9.85-8.93-14.69-14.77-3.24-3.91-9.84-9.96-15.36-10.02-4.6-.05-6.82,4.5-4.33,8.39.97,1.53,2.36,2.9,3.79,4.01Z"/>
  <path class="st0" d="M1604.71,179.7c-.38,3.92-.16,8.02.65,11.89,1.21-.07,2.43-.14,3.64-.2,2.91-.16,5.8-.31,8.71-.47,3.64-8.07,2.26-18.78.3-27.21-8.04,2.61-12.46,7.3-13.31,15.99Z"/>
  <path class="st0" d="M1640.16,158.62c-1.17.2-2.36.39-3.53.6v1.78c1.18-.07,2.36-.13,3.53-.2v-2.18Z"/>
  <path class="st0" d="M1640.16,163.9c-1.17.06-2.34.13-3.53.2v4.48c1.18-.06,2.36-.11,3.53-.18v-4.49Z"/>
  <path class="st0" d="M1640.16,171.48c-1.17.07-2.34.13-3.53.18v3.92c1.18-.05,2.36-.09,3.53-.15v-3.95Z"/>
  <path class="st0" d="M1640.16,178.54c-1.17.06-2.34.1-3.53.15v4.83c1.18-.05,2.36-.09,3.53-.14v-4.84Z"/>
  <path class="st0" d="M1636.64,189.92c1.18-.07,2.36-.13,3.53-.2v-3.25c-1.17.05-2.34.09-3.53.15v3.3Z"/>
  <path class="st0" d="M1642.66,158.22v2.45c1.61-.09,3.23-.18,4.84-.28-.02-.94-.03-1.9-.06-2.85-1.6.22-3.2.44-4.78.68Z"/>
  <path class="st0" d="M1642.66,168.26c1.66-.08,3.32-.17,4.99-.25-.03-1.52-.06-3.02-.09-4.53-1.63.09-3.26.18-4.9.28v4.5Z"/>
  <path class="st0" d="M1642.66,175.33c1.7-.07,3.41-.14,5.11-.22-.02-1.33-.05-2.68-.07-4.01-1.69.08-3.37.17-5.05.25v3.98Z"/>
  <path class="st0" d="M1642.66,183.27c1.76-.07,3.5-.15,5.26-.22-.02-1.61-.06-3.22-.09-4.84-1.72.08-3.45.15-5.17.22v4.84Z"/>
  <path class="st0" d="M1642.66,189.6c1.79-.09,3.59-.2,5.39-.29-.02-1.06-.05-2.1-.06-3.16-1.78.08-3.56.15-5.33.22v3.23Z"/>
  <path class="st0" d="M1598.6,229.96c4.3,1.92,8.79,3.44,13.39,4.65h.05c.13.05.24.08.37.1,3.22.84,6.48,1.54,9.78,2.11h.01c.13-.02.25,0,.34.06h.01c7.88,1.36,15.92,2.06,23.75,2.53-9.7-4.77-15.83-13.53-13.46-26.2,1.71-9.12,7.83-16.54,15.77-20.85-14.96.8-29.94,1.6-44.91,2.39-.03.01-.07.01-.1.01-7.43.39-14.87.78-22.3,1.18-.1,2.48-.14,4.98-.13,7.46.02,4.55-.23,9.32,1.78,13.53,3.02,6.31,9.49,10.29,15.65,13.02Z"/>
  <path class="st0" d="M1628.23,402.92c6.08.75,12.42-1.74,16.55-6.21,5.99-6.49,4.76-13.85,2.53-21.54-2.2-7.61-1.92-15.33.22-22.9,2.29-8.14,8.33-16.46,2.42-24.5-4.88-6.64-13.74-8.85-21.56-8.94-4.3,3.16-9.77,3.54-15.5,3.2-9.35-.57-17.43,1.22-25.4,4.91,2.16,5.02,1.84,10.64-.68,15.47t-.01.02c.72,0,1.45.09,2.17.28,6.78,1.8,12.32,7.7,16.39,13.14,5.61,7.48,12.08,13.11,21.29,15.58h.03c.44.02.87.03,1.31.05,1.48.03.15,3.19-1.2,3.16-.36-.01-.7-.02-1.05-.03-.06,0-.1,0-.16-.01-.02,0-.03.01-.06,0-.02,0-.05-.01-.07-.01-5.86-.23-11.85-1.1-17.44-2.84-8.08-2.51-14.8-11.6-23.8-10.65-.01,0-.01.01-.01.01-.07.02-.14.03-.21.03-.03,0-.08-.01-.11-.01s-.08.01-.12.01c-3.92.54-5.87,5.62-3.75,8.98.72,1.16,1.92,1.9,2.93,2.77,1.31,1.1,2.49,2.18,3.39,3.54,9.53,1.67,18.78,7.15,25.48,13.95,5.25,5.32,8.24,11.56,16.4,12.56Z"/>
  <path class="st0" d="M1649.94,157.22c.02,1.01.05,2.02.06,3.03,1.55-.08,3.1-.17,4.64-.25-.02-1.11-.04-2.23-.08-3.34-1.54.18-3.08.37-4.62.56Z"/>
  <path class="st0" d="M1650.06,163.34c.03,1.51.06,3.02.09,4.54,1.56-.08,3.11-.16,4.68-.24-.03-1.53-.07-3.05-.11-4.56-1.55.08-3.1.17-4.65.26Z"/>
  <path class="st0" d="M1650.21,170.96c.02,1.36.05,2.7.08,4.05,1.56-.07,3.14-.13,4.71-.2-.03-1.37-.07-2.72-.1-4.09-1.56.08-3.13.16-4.69.24Z"/>
  <path class="st0" d="M1650.35,178.11c.02,1.61.06,3.23.09,4.84,1.59-.06,3.16-.13,4.75-.2-.03-1.61-.08-3.23-.12-4.84-1.57.07-3.15.13-4.72.2Z"/>
  <path class="st0" d="M1655.33,188.92c-.02-1.02-.05-2.05-.08-3.07-1.59.07-3.17.14-4.76.2.02,1.05.03,2.09.06,3.13,1.6-.08,3.18-.16,4.78-.25Z"/>
  <path class="st0" d="M1696.68,186.73c4.83-10.43,4.17-23.29-1.61-33.3-.02-.05-.03-.09-.05-.14-7.61.31-15.17.85-22.65,1.53-4.47,10.47-4.79,23,.4,33.18,7.96-.41,15.94-.84,23.9-1.26Z"/>
  <path class="st0" d="M1697.9,266.63c1.49.92,3.11,1.63,4.81,2.17,0,.01.01.01.02.01-4.9-7.23-5.84-18.82-6.5-26.68-3.17.17-6.32.33-9.47.49.01,8.98,3.3,19.16,11.14,24.01Z"/>
  <path class="st0" d="M1708.15,269.78c.08.06.14.13.2.21,1.99.24,4.06.35,6.13.35-2.7-4.76-3.46-11.01-4.24-16.16-.64-4.23-1.14-8.5-1.44-12.79-3.32.22-6.63.41-9.95.6t-.01.01c.76,8.87,2.16,22.51,9.32,27.79Z"/>
  <path class="st0" d="M1712.1,153.02c.03,1.23.07,2.46.1,3.7,1.48-.03,2.97-.06,4.45-.09-.02-1.17-.06-2.34-.09-3.53-1.48-.03-2.98-.07-4.46-.08Z"/>
  <path class="st0" d="M1712.29,159.85c.05,1.34.08,2.69.12,4.05,1.48-.03,2.97-.08,4.45-.12-.03-1.33-.07-2.68-.12-4.01-1.48.02-2.97.06-4.45.08Z"/>
  <path class="st0" d="M1712.5,167.01c.02,1.02.06,2.03.08,3.06,1.48-.06,2.95-.1,4.44-.15-.03-1.01-.06-2.01-.08-3.01-1.48.03-2.95.07-4.44.1Z"/>
  <path class="st0" d="M1712.67,173.17c.05,1.64.09,3.29.14,4.93,1.47-.06,2.94-.13,4.41-.18-.05-1.63-.08-3.26-.13-4.9-1.47.06-2.95.1-4.43.15Z"/>
  <path class="st0" d="M1717.43,185.63c-.05-1.54-.08-3.08-.13-4.61-1.47.06-2.93.13-4.4.18.05,1.55.09,3.1.13,4.65,1.47-.08,2.93-.15,4.4-.23Z"/>
  <path class="st0" d="M1718.26,270.24c2.34-.1,4.67-.29,6.87-.47-2.39-4.45-2.91-10.39-3.53-15.01-.63-4.71-1.07-9.48-1.29-14.24-2.72.23-5.45.44-8.17.63-.25.02-.52.03-.78.06.29,3.65.71,7.3,1.25,10.91.89,5.77,1.69,13.17,5.5,17.86.06.08.1.17.14.26Z"/>
  <path class="st0" d="M1719.09,153.17c.02,1.14.06,2.28.09,3.41,1.61-.02,3.22-.06,4.83-.08-.05-1.05-.09-2.08-.14-3.11-1.59-.08-3.18-.16-4.78-.22Z"/>
  <path class="st0" d="M1719.26,159.72c.03,1.33.07,2.67.1,4,1.66-.05,3.31-.08,4.95-.13-.06-1.32-.12-2.64-.17-3.96-1.63.03-3.25.06-4.88.09Z"/>
  <path class="st0" d="M1719.45,166.84c.02,1,.06,2,.08,2.99,1.69-.06,3.38-.11,5.07-.17-.05-.98-.09-1.95-.14-2.93-1.67.03-3.33.08-5.01.12Z"/>
  <path class="st0" d="M1719.61,172.94c.05,1.62.08,3.24.13,4.87,1.74-.08,3.47-.15,5.21-.23-.07-1.61-.14-3.22-.21-4.83-1.71.07-3.41.13-5.13.18Z"/>
  <path class="st0" d="M1725.29,185.21c-.07-1.52-.14-3.02-.21-4.53-1.75.07-3.5.15-5.26.22.04,1.53.08,3.06.13,4.59,1.78-.09,3.56-.18,5.34-.28Z"/>
  <path class="st0" d="M1699.47,214.69c.07-.22.1-.42.08-.62-.01-.06-.03-.11-.03-.17-.01-.06-.02-.13-.03-.17-2.08-11.94-30.82-11.16-30.99,1.53-.16,12.48,29.05,11.7,30.98-.56Z"/>
  <path class="st0" d="M1635.11,213.47c-2.45,15.85,10.15,24.22,24.28,26.47.1.01.2.06.27.09h.03c6.9.2,13.81.17,20.69-.18h.05c8.04-.4,16.09-.86,24.14-1.4,2.92-.2,5.87-.39,8.83-.6,3.98-1.75,7.87-3.59,11.09-6.62,7.07-6.65,7.75-16.9,4.38-25.65-3.72-9.69-13.85-15.95-24.11-16.19-11.07.6-22.12,1.18-33.19,1.77-.18.08-.36.1-.51.02-4.22.23-8.42.45-12.64.68-11.28,1.93-21.5,9.94-23.32,21.62ZM1681.98,199.26c10.07-.79,29.59,1.64,31.01,14.69.06.13.08.31.07.55,0,.13-.01.24-.05.37-1.04,11.28-14.88,15.5-24.39,16.26-9.5.75-31.02-1.7-31.07-15.24-.06-11.53,15.51-15.92,24.43-16.63Z"/>
  <path class="st0" d="M1728.99,269.46c2.05-.15,4.14-.32,6.22-.55-2.63-7.98-4.17-16.57-4.17-25.04,0-1.47.05-2.93.14-4.39-2.76.3-5.53.57-8.3.83.18,3.54.49,7.08.92,10.61.68,5.7,1.14,13.88,5.01,18.56.07,0,.13-.01.18-.01Z"/>
  <path class="st0" d="M1726.42,153.53c.04.98.09,1.95.14,2.93,2.08-.05,4.17-.08,6.26-.11-.03-.78-.07-1.55-.1-2.33-2.09-.18-4.19-.36-6.3-.48Z"/>
  <path class="st0" d="M1726.7,159.59c.06,1.32.12,2.63.17,3.95,2.08-.06,4.16-.1,6.25-.16-.06-1.3-.11-2.61-.17-3.91-2.08.03-4.17.08-6.25.11Z"/>
  <path class="st0" d="M1727.01,166.65c.05.98.08,1.94.13,2.91l6.24-.21c-.05-.95-.08-1.91-.13-2.85-2.08.05-4.16.1-6.24.15Z"/>
  <path class="st0" d="M1727.27,172.68c.07,1.6.14,3.19.21,4.8,2.08-.09,4.15-.18,6.23-.28-.07-1.57-.14-3.16-.21-4.75-2.07.08-4.15.15-6.23.22Z"/>
  <path class="st0" d="M1730.99,184.9c1.01-.06,2.03-.1,3.04-.16-.07-1.48-.13-2.95-.2-4.44-2.07.09-4.14.17-6.22.26.07,1.51.14,3,.21,4.51,1.05-.06,2.1-.11,3.16-.17Z"/>
  <path class="st0" d="M1738.18,268.52c1.33-.18,2.65-.41,3.96-.69-1.97-5.25-3.06-10.93-2.94-16.38.09-4.91,1.44-9.43,3.69-13.45-3.09.45-6.18.85-9.3,1.2-.48,9.91,1.3,20.03,4.57,29.33,0-.01.01-.01.01-.01Z"/>
  <path class="st0" d="M1646,272.18c-.24-4.5-3.29-8.31-7.83-9.09-4.86-.82-9.89,2.53-9.93,7.71-.06,10.58,17.13,12.92,17.76,1.38ZM1637.17,267.79c2.23.39,3.8,2.25,3.93,4.49-.29,5.25-8.56,3.33-8.44-1.38.06-2.33,2.4-3.48,4.5-3.11Z"/>
  <path class="st0" d="M1575.42,329.87c3.17-.53,6.22-2.24,9.24-4.03.57-.34,1.14-.69,1.71-1.02,2.08-1.24,4.16-2.41,6.27-3.19,8.35-3.05,16.21-2.64,24.93-2.47,7.64.15,14.66-4.05,15.06-12.3.31-6.39-3.53-11.81-9.79-13.25-5.17-1.18-10.83.51-11.19,6.5-.08,1.29-2.61,3.38-2.48,1.38.84-13.83,19.62-15.09,24.7-3.11,2.26,5.34,1.41,11.76-1.79,16.54-.2.29-.39.57-.6.84,12,.87,26.11,8.03,23.34,22.12-1.53,7.77-5.87,14.36-6.48,22.51-.62,8.38,3.76,15.54,3.55,23.7-.22,9.18-6.37,17.39-14.87,20.65-4.16,1.6-8.8,1.97-13.1.68-5.54-1.67-8.27-5.63-11.82-9.84-6.01-7.11-14.89-13.05-24.16-15.42,1.3,4.99.69,10.83,1.8,15.82,1.56,6.96,4.79,13.62,10.69,17.9,7.68,5.6,17.61,5.77,26.72,6.37,8.91.57,18.57,1.09,27.16-1.83,10.49-3.56,12.31-12.28,11.94-22.41-.32-9.1-2.33-18.16-1.84-27.29.52-9.46,4.01-17.97,9.03-25.91,1.13-1.77,2.92-.75,1.79,1.03-4.57,7.24-7.85,14.87-8.34,23.5-.33,5.95.48,11.87,1.1,17.78,1,9.49,2.63,21.28-3.71,29.38-1,1.28-2.13,2.37-3.36,3.31,22.18,7.12,49.06,8.29,70.26-1.79-5.25-5.76-6.79-13.94-5.29-22.67,1.2-6.88,4.91-13.99,10.47-18.49-1.77-1.67-3.39-3.53-4.83-5.61-13.46-19.56-8.27-47.54-4.76-69.35,1.83-11.41,7.4-21.43,17.62-26.96-.4-.77-.78-1.56-1.13-2.37-5.04,1.2-10.32,1.71-15.49,2.06h-.01c-.14.05-.27.06-.4.02t-.01,0c-.39.03-.77.06-1.15.08-9.77.63-22.38,2.28-30.92-3.69-8.06-5.63-11.29-16.77-10.97-26.28-1.7.08-3.4.16-5.1.25h-.05c-.87.05-1.75.07-2.63.1-15.54.51-31.21-.02-46.63-1.99-2.49-.32-5.14-.67-7.87-1.08-1.06,1.43-2.03,2.92-2.91,4.46-.68,1.2-2.07,3.11-2.03,4.5.08,2.56,1.92,2.37,4.16,2.11,7.65-.84,14.89-3.34,22.66-1.68,8.65,1.85,15.65,9.17,23.43,13.19,5.01,2.6,10.19,4.96,15.48,6.95,1.25.47-.37,3.49-1.72,2.98-7.33-2.75-14.54-6.14-21.27-10.14-4.76-2.83-8.95-7.08-14.17-9-5.83-2.14-12.17-1.51-18.15-.44-3.65.64-13.24,4.18-12.99-2.41.14-3.73,2.75-7.68,5.16-10.91-2.59-.43-5.22-.92-7.86-1.52h-.01c-6.11,15.12-19.08,23.9-31.19,34.2-7.09,6.03-11.11,13.81-14.16,22.58-2.8,8.09-4.8,17.61-2.26,26.03,1.54,5.1,5.37,9.89,11.24,8.91ZM1697.92,342.79c1.82-1.33,1.89,1.52.68,2.4-20.28,14.97-18.46,44.47-7.89,64.81.62,1.21-1.48,3.88-2.14,2.61-11.47-22.09-12.51-53.67,9.35-69.82ZM1617.12,262.86c9.12-4.71,20.86-6.33,30.63-2.93,8.66,3.02,16.03,8.85,24.9,11.72,3.88,1.26,7.95,2.36,12.03,2.79,1.53.16.14,3.29-1.18,3.15-6.07-.64-12.09-2.4-17.82-4.8-10.07,6.65-29.68,19.03-40.68,7.77-3.92-4.01-5.6-10.3-5.61-15.9-.75.32-1.48.68-2.22,1.06-1.82.93-1.22-2.24-.05-2.85Z"/>
  <path class="st0" d="M1781.18,182.24c-.55-4.86-2.29-9.84-4.95-13.81-4.67-6.95-12.17-9.19-19.94-10.87-.45-.1-.91-.18-1.36-.28-1.77,8.75-.56,18.23,3.36,26.18,7.63-.41,15.26-.82,22.89-1.22Z"/>
  <path class="st0" d="M1766.24,386.73c-2.53-.24-5.06-.61-7.55-1.1-.88,1.51-1.6,3.16-1.94,4.84-1.3,6.44,4.23,8.45,9.55,9.41,4.34.79,10.48,1.84,14.41-.87,3.86-2.67,2.73-8.4,1.84-12.26-.02-.14-.02-.29,0-.44-5.36.91-10.94.93-16.31.43Z"/>
  <path class="st0" d="M1745.42,267.95c.54,1.25,1.13,2.47,1.77,3.64,3.43-1.48,6.98-2.39,10.58-2.92-2.68-6.91-3.94-15.25-1.45-22.21,2.86-8.01,11-12.56,19.16-13.33,6.78-.63,16.8,1.91,16.61,10.45-.17,8.02-8.33,11.99-15.35,11.85-1.49-.02-.16-3.17,1.18-3.15,4.24.08,9.64-1.05,11.23-5.62,1.26-3.62-.8-6.64-3.81-8.47-4.75-2.9-11.38-2.42-16.41-.69-13.65,4.68-12.93,19.59-8.07,30.79,2.46-.24,4.94-.34,7.43-.38h.01c9.37-.13,19.96.62,28.68,4.68,10.46-9.23,11.38-24.41,4.98-36.48-2.7-5.1-7.1-8.83-12.22-11.15-1.03-.47-2.11-.88-3.21-1.24-4.22-1.38-8.77-1.87-13.15-1.47-9.46.87-19.03,5.14-25.13,12.04-.92,1.03-1.77,2.14-2.52,3.3-2.76,4.24-4.3,9.26-4.01,14.92.25,4.96,1.47,10.14,3.44,14.87.16.11.24.32.25.57Z"/>
  <path class="st0" d="M1614.15,162.19c13.59-5.79,29.64-7.37,44.16-9,12.65-1.43,25.39-2.31,38.13-2.65.16-.06.32-.07.47-.01,5.99-.16,11.97-.21,17.96-.11,16.39.25,33.64.91,49.43,5.73,11.83,3.61,18.69,13.83,19.47,25.95,7.49-.4,14.97-.79,22.47-1.2-1.18-7.85-3.93-15.38-8.31-20.86-11.63-14.57-32.72-18.53-50.2-20.32-22.24-2.28-44.76-1.01-67,.72-9.94.78-19.87,1.72-29.81,2.54-10.8.87-21.66,1.18-32.27,3.6-9.39,2.14-18.86,5.87-25.56,13.05-6.55,7.01-9.49,16.38-10.85,25.68-.37,2.51-.62,5.01-.78,7.53,7.04-.37,14.09-.75,21.13-1.13-1.85-11.09.23-24.71,11.55-29.53Z"/>
  <path class="st0" d="M1757.07,186.6c-.18.08-.36.1-.51.03-13.23.7-26.45,1.4-39.67,2.1,8.22,3.73,14.35,11.31,15.93,20.66.3,1.8.45,3.53.45,5.18,0,10.15-5.49,17.57-13.7,22.8.75-.05,1.48-.1,2.23-.16h.01c.22-.1.41-.13.57-.05h.01c3.47-.29,6.95-.59,10.43-.94.28-.15.53-.2.7-.07,0,0,0-.01.01-.01,3.82-.39,7.63-.85,11.43-1.38,9.79-13.33,30.07-19.66,45.47-13.24,6.58-4.04,12-9.6,14.42-17.43,1.84-5.94,2.43-13.07,1.73-20.13-9.4.5-18.8,1-28.2,1.5-7.11.38-14.23.75-21.34,1.13Z"/>
  <path class="st0" d="M1801.61,377.08c-1.9,1.86-3.98,3.42-6.18,4.7h-.01c8.8,6.55,12.76,19.52,3.53,27.8-7.62,6.83-21.54,6.61-31.07,6.27-9.92-.33-26.17-1.49-30.79-12.19-3.5-8.1,1.21-17.21,6.95-23.26h0c-2.08-1.16-4.07-2.48-5.91-4-9.68,6.54-12.66,21.34-8.62,31.79,1.01,2.62,2.61,4.76,4.6,6.49.24.02.39.17.46.39,7.02,5.8,18.51,7.06,26.82,7.45,12.08.57,25.01-.36,36.66-3.8,8.49-2.51,14.14-9.25,14.63-18.21.52-9.27-4.31-17.48-10.62-23.87l-.45.45Z"/>
  <path class="st0" d="M1778.38,320.06c-4.91-.84-9.99,2.55-10.02,7.78-.06,10.7,17.3,13.03,17.93,1.39-.24-4.55-3.32-8.4-7.91-9.17Z"/>
  <path class="st0" d="M1774.92,309.22c-9.18.99-16.31,9.32-16.28,18.48.03,10.06,8.79,18.11,18.84,17.1,9.43-.95,15.7-9.16,16.25-18.19.02-.09.03-.2.02-.29.01-.18,0-.32-.03-.44-.69-9.77-8.57-17.76-18.79-16.66ZM1761.13,326.32c.03-9.18,8.87-15.46,17.57-13.74,7.36,1.44,12.22,7.81,12.56,15.12-.93,19.59-30.2,17.16-30.13-1.38Z"/>
  <path class="st0" d="M1796.34,276.02c-.47.18-.75-.03-.87-.43-8.62-4.1-19.14-4.65-28.36-4.54h-.01c-7.14.1-14.3.83-20.8,3.79-.01.01-.02.02-.03.02-.07.02-.15.06-.23.1-.85.39-1.68.82-2.5,1.3-13.12,7.58-14.4,22.25-16.2,35.83-2.64,20.03-4.77,46.3,12.08,60.96.05.02.07.05.1.08.33.3.68.59,1.02.86,10.58,8.47,25.89,10.87,39.07,9.68,11.71-1.07,21.88-6.59,27.19-17.35,4.53-9.2,5.49-19.88,5.91-29.99.37-9.22.72-18.57.36-27.79-.37-9.43-2.02-19.44-8.71-26.6-2.33-2.49-5.05-4.44-8-5.93ZM1806.36,350.32c-2.99,18.55-16.94,27.19-34.69,27.42-12.62.15-27.53-1.78-34.54-13.73-5.16-8.79-4.98-19.73-4.79-29.59.31-16.81-1.13-38.23,11.68-51.24,14.86-15.11,46.83-10.6,58.33,6.56,11.45,17.08,7.07,41.62,4.02,60.59Z"/>
  <g>
    <path class="st0" d="M92.92,110.62c5.53-.59,9.07-5.62,9.65-10.8.06-.26.1-.52.08-.78.02-.26-.02-.48-.08-.68-.59-4.99-4.52-8.99-9.87-8.25-5.38.74-9.52,6.23-9.45,11.56.06,5.21,4.36,9.52,9.66,8.95ZM93.04,96.1c2.73.51,4.77,2.79,4.92,5.57-.31,5.73-10.19,2.57-10-2.63.1-2.51,2.92-3.33,5.08-2.94Z"/>
    <path class="st0" d="M21.65,227.99c2.11.14,2.01.2,2.38-1.51-.01-.24.06-.52.16-.78.64-2.78.99-5.65,1.23-8.49-.69-.11-1.36-.25-2.06-.34-3.77-.43-8.31-.43-12.09-1.84-.65,2.44-1.29,4.9-1.82,7.37-.38,1.79-.85,2.26.25,3.05,1.43,1.01,3.91,1.25,5.58,1.61,2.08.44,4.23.82,6.36.94Z"/>
    <path class="st0" d="M37.71,225.54c.69,0,1.43-.11,2.13-.11.09-.39.22-.78.3-1.16.18-.91.33-1.82.47-2.74-4.1-1.65-8.3-3-12.82-3.91-.2,2.25-.45,4.56-.93,6.79,3.38,1.03,7.41,1.1,10.86,1.13Z"/>
    <path class="st0" d="M18.41,93.18c8.55,3.65,18.26.32,25.04-5.41,6.32-5.34,12.87-15.28,7.31-23.42-4.85-7.11-16.15-6.83-21.67-.82-1.55,1.69-2.48-.47-1.26-1.78,5.9-6.42,16.77-8.4,23.47-1.88,6.69,6.5,3.88,16.76-.86,23.48-.41.59-.85,1.15-1.31,1.72,2.25-1.53,4.5-3.08,6.72-4.69,5.99-4.36,11.64-9.15,16.85-14.41.59-9.14-4.6-19.66-12.38-25.19-9.94-7.07-24.9-6.34-35.3-.68-10.17,5.53-15.99,17.39-11.31,28.53,5.52,13.14,19.81,8.25,28.76,1.8,1.83-1.31,1.88,1.53.67,2.4-8.31,5.99-21.42,12.19-29.36,2.17-5.07-6.39-5.13-16.05-2.21-23.35,4.11-10.27,14.58-16.61,25.13-18.42,11.54-2,23.48.75,31.18,10,4.55,5.47,7.31,12.91,7.31,20.12,1.34-1.44,2.65-2.9,3.93-4.4,4.56-5.44,8.02-11.72,12.22-17.4-5.94-7.7-15.16-13.56-24.18-16.73-17.75-6.23-41.04-3.17-55.12,9.89C.83,45.12-1.41,61.5,3.7,75.48c2.63,7.22,7.42,14.57,14.71,17.7Z"/>
    <path class="st0" d="M88.95,283.54c-3.07-5.22-10.92-1.82-8.92,4.01.05.05.09.08.14.11,3.64,2.8,12.43,2.09,8.78-4.13Z"/>
    <path class="st0" d="M11.71,211.49c.07.02.13.05.17.1,3.8,1.76,8.87,1.69,12.66,2.13.99.13,1.95.3,2.92.47.1-.02.2,0,.29.05,5.11.91,9.88,2.3,14.53,4.14.41-.14.77-.07.91.34,3.6,1.47,7.13,3.22,10.69,5.22,8.45,4.76,15.36,4.38,24.39.92,9.22-3.54,18.57-7.31,28.25-9.53.14-.07.25-.1.36-.09,1.41-.32,2.83-.6,4.25-.84-4.72-1.49-9.19-1.91-15.19-.76-7.55,1.47-14.74,4.86-22.43,5.52-6.07.52-12.1-.47-17.88-2.29-11.38-3.56-20.95-10.3-31.13-16.2-1.9-1.09-3.67-2.01-5.79-2.56-5.79-1.52-15.68,1.23-10.89,9.83.92,1.67,2.3,2.78,3.92,3.56Z"/>
    <path class="st0" d="M19.86,255.46c6.48,1.18,14.27-.52,19.98-1.53,6.77-1.21,13.38-3.32,20.1-4.79,10.18-2.24,19.34-5.27,27.67-11.76,7.86-6.11,14.28-14.78,22.85-19.92-.4.08-.8.17-1.17.24-.98.18-1.93.43-2.91.64-10.58,9.92-25.34,18.21-39.8,19.9-15.26,1.77-30.88.41-46.05,3.08-2.65.47-5.95.94-8.11,2.71-3.19,2.62-1.99,6.53.94,8.75,1.68,1.26,3.63,2.06,5.75,2.53.28-.09.54-.03.75.14Z"/>
    <path class="st0" d="M105.34,278.28c-3.67-10.54-16.27-16.11-26.41-10.92-7.21,3.69-5.85,12.14-1.49,17.61,1.56-6.34,9.93-10.99,13.86-3.63,4.42,8.3-5.59,14.48-12.43,9.62-6.42-4.56-10.17-14.68-5.55-21.69,6.16-9.34,21.03-8.68,28.63-1.79.77.69,1.48,1.45,2.14,2.28.59-7.69,4.15-15.43,11.35-18.71,5.04-2.29,10.71-2.41,13.86-7.75,2.68-4.52,2.34-11.11.7-15.94-1.7-5-6.18-8.71-11.15-10.5-.21.16-.42.24-.64.22-8.89,2.18-15,8.88-21.34,15.05-6.87,6.69-14.24,12.62-23.23,16.2-9,3.6-18.96,5-28.35,7.38-7.78,1.98-16.62,3.61-24.64,2.93-.41-.03-.84-.08-1.26-.15-2.85,6.16-5.48,15.18-1.78,21.11,5.48,8.81,15.2,1.01,22.58.62,3.47-.2,4.77,1.87,6.62,4.49,2.98,4.22,5.92,8.29,10.18,11.32,6.58,4.69,14.58,6.01,22.51,5.62,7.65-.38,19.42-1.22,24.7-7.84,3.34-4.22,2.82-10.73,1.15-15.54ZM116.38,227.92c3.88-.51,6.79,2.46,7.14,6.11.02.09.03.2.03.32,0,.09-.01.2-.03.31-.32,3.63-2.8,7.09-6.64,7.5-3.83.41-6.99-2.68-7.02-6.44-.03-3.69,2.82-7.32,6.53-7.81Z"/>
    <path class="st0" d="M210.87,274.75c-2.41-2.78-4.47-5.85-6.3-9.04-.24-.44-.72-1.13-1.23-1.9v.47c.21,5.6-.88,11.19-3.05,16.36-1.99,4.71-4.85,9.37-8.41,13.2,12.38-1.52,24.55-4.08,36.02-8.32-6.67-1.63-12.41-5.46-17.03-10.78Z"/>
    <path class="st0" d="M185.4,152.76c-3.06,1.11-6.27,1.71-9.52,1.78.14,5.23-7.68,10.16-11.24,12.04-8.39,4.44-12.46,17.13-22.34,18.59.91.67,1.83,1.31,2.64,1.52,9.08,2.29,14.72-6.76,21.13-11.33,4.76-3.4,10.27-4.87,15.25-7.78,3.99-2.33,10.14-11.56,4.07-14.82Z"/>
    <path class="st0" d="M176.33,131.58c-9.78,4.16-17.67-3.94-27.03-4.16-5.07-.11-10.02,2.07-13.99,5.09-.7.53-2.3,1.99-3.53,3.24,6.32-4.17,13.42-6.37,21.18-4.46,6.23,1.53,10.94,5.37,16.49,8.24,5.79,2.99,13.38,2.45,18.42-1.79,11.61-9.76,9.43-32.18,6.75-45.15-3.26-15.81-14.04-33.97-31.14-37.71-.36,1.01-.46,2.17-.22,3.49.75,3.98,4.09,7,7.1,9.37,4.42,1.18,8.11,5.11,10.5,8.79,6.8,10.52,7.81,25.32,6.11,37.39-.97,6.92-3.73,14.71-10.65,17.65Z"/>
    <path class="st0" d="M198.24,98.36c1.42,12.91,1.62,30.35-8.23,40.42-4.95,5.07-12.34,7.02-19.16,5.01-4.19-1.24-7.63-4.25-11.46-6.27-8.81-4.69-17.46-4.64-25.57-.1.77-.21,1.46-.39,1.8-.45,1.67-.24,3.34-.43,5.02-.45,11.38-.13,16.26,9.95,26.22,13.37,11.46,3.93,23.72.11,31.29-9.24,9.99-12.35,11.39-29.68,8.37-44.73-2.63-13.04-8.39-26.13-17.4-36.04-4.52-4.95-10.8-9.87-17.88-9.61-2.03.07-4.02.66-5.53,1.74,5.85,1.59,11.39,5.23,15.72,9.22,10.41,9.58,15.27,23.35,16.79,37.14Z"/>
    <path class="st0" d="M175.27,199.48c-3.79,2.14-7.99,3.73-11.76,5.71-5.46,2.86-10.23,6.33-14.18,10.65,4.98,4.11,2.98,11.14-.4,15.93-5.81,8.24-11.02,19.08-7.35,29.22,4.7-12.77,13.64-21.03,24.81-29.11,6.22-4.49,11.31-8.78,12.92-16.66,1.05-5.14.38-12.14-4.03-15.74Z"/>
    <path class="st0" d="M180.35,170.97c-3.15,1.63-6.54,2.72-9.68,4.41-4.53,2.42-7.77,5.85-11.58,9.19-.71.62-1.46,1.22-2.23,1.78-.18,5.11-3.77,10.23-7.04,13.73-5.69,6.09-10.6,13.69-7.68,22,1.17-2,2.47-3.83,3.86-5.53.21-.77.83-1.56,1.45-1.71,6.5-7.24,14.89-11.96,24.21-16.49,7.06-3.44,11.31-6.96,11.74-15.34.23-4.39-.26-8.92-1.28-13.2-.62.48-1.22.87-1.78,1.16Z"/>
    <path class="st0" d="M94.35,148.61c-1.17,10.55-2.33,21.11-3.49,31.66h2.36c.52-5.94,1.03-11.88,1.55-17.82.33-3.91.68-7.8,1.01-11.71.03-.36.29-1.46.3-2.16-.17.3-.92.21-1.72.03Z"/>
    <path class="st0" d="M160.75,166c2.97-2.19,15.03-6.61,12.18-11.51-4.46-.33-8.86-1.64-12.8-3.9-.06-.03-.1-.06-.15-.09-5.94,4.78-14.71,17-4.75,21.4,1.7-2.23,3.45-4.38,5.52-5.9Z"/>
    <path class="st0" d="M126.12,180.97s-.1-.02-.16-.05c-1.63-.48-4.08-.1-5.75-.15-3.98-.1-7.94-.21-11.92-.31-.45-.01-.65-.51-.64-.88.05-6.1.1-12.22.16-18.32.03-3.64.07-7.29.09-10.93.01-.44.17-1.44.14-2.14-.08.29-.47.38-1.07.45-.46,10.22-.92,20.42-1.38,30.64-.05.83-.14,1.69-.11,2.53,1.95.4,4.75-.09,6.64-.09h14.19c-.03-.22-.08-.44-.16-.64-.01-.03-.02-.07-.03-.1Z"/>
    <path class="st0" d="M20.73,168.13c7.29-3.28,14.55-5.81,22.63-4.37,9,1.61,18.09,8.93,27.33,5.19,21.46-8.7-2.65-40.2-18.33-23.26-1.55,1.69-2.48-.47-1.26-1.78,3.11-3.38,7.57-5.98,12.19-6.37,16.5-1.4,23.96,20.35,12.7,30.88-5.52,5.16-12.81,5.69-19.66,3.15-10.93-4.03-19.67-6.93-30.98-2.56-.95.37-1.95.8-2.96,1.28,1.48,8.32-1.51,17.2-5.88,24.27,3.86.34,7.87,2.01,11.02,3.91,10.84,6.54,21.5,13.74,34.06,16.55,7.36,1.64,14.49,1.31,21.67-.92,6.1-1.9,12.32-3.79,18.72-4.36,5.83-.51,10.09,1.02,14.96,3.11.02.01.05,0,.07.01,13.8,2.67,21.05,18.44,14.38,30.9-1.8,3.36-4.63,5.92-8.07,7.54-4.7,2.22-9.8,2.21-13.19,6.75-3.21,4.28-4.05,10.47-3.49,15.72,2.65,5.31,3.4,11.79,1.42,17.24-.49,1.37-1.16,2.57-1.94,3.67,10.77.59,21.54,1.01,32.32,1.15,16.13.21,33.19.21,49.93-1.57.06-.06.1-.11.16-.16,7.47-6.49,12.26-16.85,12.37-26.68.01-.55.97-11.3,1.92-11.04.98.28,1.84,2.92,2.23,3.65,1.59,2.98,3.25,5.9,5.22,8.63,5.75,7.98,13.61,13.68,23.59,14.49.64-.29,1.29-.56,1.92-.85,17.84-8.14,30.25-21.87,34.46-41.18,9.46-43.2,14.38-88.58,13.78-132.78-.33-24.51-2.02-51-12.47-73.58-3.98-8.58-9.61-16.76-17.67-21.93C238.35,2.88,216.88.01,198.82,0c-34.03-.03-72.46,11.79-98.28,34.66-5.05,4.47-8.12,9.49-11.86,15.03-5.24,7.77-11.27,14.95-18.07,21.41-11.04,10.49-23.99,17.9-36.42,26.52-16.16,11.22-27.6,25.68-31.84,45.01-1.62,7.38-4.47,18.33.2,25.19,4.36,6.44,12.66,2.77,18.18.3ZM95.5,181.16c-.08.95-.7,2.26-1.84,2.26h-4.75c-.64,0-.67-.84-.62-1.26,1.28-11.56,2.55-23.12,3.83-34.68,0-.17.02-.38.08-.59.05-.21.13-.41.24-.61t.02-.02s.01-.03.02-.05c.36-.63.93-1.15,1.48-1.07,1.3.18,2.59.38,3.88.56.41.06.69.47.64.88-1,11.53-2,23.04-3,34.57ZM127.17,184.88h-23.56c-.44,0-.67-.52-.65-.88.55-12.01,1.09-24.02,1.63-36.03,0-.13.05-.26.09-.39.17-.82.78-1.74,1.45-1.85,1.11-.18,2.23-.37,3.34-.56.57-.09.95.28.95.86-.08,9.39-.17,18.77-.25,28.16,0,.61-.26,2.16-.2,3.19.16.02.43.06.77-.02,1.06-.25,2.57.07,3.68.09,4.48.11,8.96.23,13.45.36.48.01.61.51.66.88.16,1.31.32,2.62.48,3.92.11.95-.85,2.28-1.84,2.28ZM186.97,274.9c-.37,4.59-3.49,8.86-8.33,9.39-4.92.54-9.06-3.46-9.1-8.32-.03-4.62,3.55-9.11,8.21-9.68,4.99-.61,8.73,3.14,9.22,7.83.03.13.06.28.05.47,0,.1-.01.21-.03.31ZM240.38,261.99c-.37,4.56-3.47,8.81-8.27,9.33-4.9.54-9.02-3.42-9.06-8.26-.03-4.6,3.53-9.07,8.16-9.63,4.95-.61,8.68,3.11,9.16,7.78.03.13.06.28.05.47,0,.1-.01.21-.03.31ZM255.45,162.36c3.54,7.34,4.52,15.89,4.92,23.95.79,15.55-.9,34.52-11.49,46.86-11.09,12.92-32.71,11.32-44.27-.37-12.47-12.62-10.5-33.57-8.03-49.55,1.46-9.43,2.99-19.97,8.54-28.01,4.91-7.08,12.42-9.41,20.72-9.54,12.6.16,23.93,4.82,29.62,16.65ZM181.65,84.97c-2.09-5.4-6.4-12.47-12.54-14.09-.16.01-.32-.03-.46-.15-4.75-3.72-9.5-9.12-7.61-15.61.25-.88.62-1.7,1.08-2.46.09-.17.21-.34.32-.49,1.94-2.83,5.21-4.6,8.69-4.98,14.94-1.63,26.09,16.12,31.44,27.55,10.91,23.28,13.2,61.44-12.94,76.1-.2.1-.4.21-.6.31,4.1,4.19-.05,11.87-4.53,16.5,2.22,9.22,3.22,22.13-4.69,28.76-.51.41-1.03.8-1.56,1.18,7.3,7.5,3.95,22.1-2.25,29.13-4.49,5.08-10.6,8.5-15.9,12.63-8.43,6.55-14.49,14.54-17.4,24.94-.14.49-1.61,2.92-2.28,1.61-2.78-5.48-2.95-12.38-1.71-18.27,1.17-5.54,3.75-10.47,6.98-15.07,3.05-4.33,6.5-10.35,1.44-14.12-1.69,2.16-3.19,4.49-4.5,7.06-.21.39-1.53,1.72-1.97.78-2.26-4.8-2.3-10.7-.68-15.69,1.67-5.13,5.07-8.57,8.62-12.43,2.47-2.69,5.36-6.31,5.73-10.19-3.61,2-7.67,2.94-11.83,1.51-1.95-.67-6.61-2.9-6.17-5.65.46-2.87,3.34-1.63,5.23-1.65,5.17-.06,8.49-3.56,11.55-7.49-4.32-2.32-5.5-7.89-4.37-12.42,1.29-5.1,5.09-9.66,9.19-13.09-4.55-3.34-8.02-7.98-13.93-9.12-3.33-.64-6.7-.34-10.02.2-1.31.21-3.63,1.11-4.95.75-.16-.05-.3-.09-.44-.15-.4.1-.65-.11-.76-.49-.86-.88-.22-2.29.63-3.72,2.91-4.91,8.5-8.83,13.73-10.81,7.31-2.78,12.54-.61,19.43,1.86,4.95,1.78,11.31,3.22,16.16.33,5.96-3.55,6.9-12.03,7.18-18.26.38-8.26-.31-17-3.33-24.77ZM66.35,96.27c11.17-7.4,26.55-10.3,39.39-6.36,12.84,3.93,27.06,13.11,41.07,7.67,1.56-.61.6,2.64-.59,3.09-6.13,2.39-13.28,1.99-20.1.4-11.92,10.02-26.9,16.86-42.42,11.3-7.02-2.52-13.9-7.35-18.41-13.38-.67-.88.32-2.25,1.05-2.72Z"/>
    <path class="st0" d="M197.65,193.81c-1.15,14.8.52,32.55,14.81,40.69,14.86,8.46,32.57,5.16,39.96-10.76,6.07-13.1,6.61-29.11,4.86-43.23-.85-6.86-2.37-13.87-6.3-19.69-6.03-8.92-16.04-11.84-26.33-11.97-11.26.17-18.23,5.19-21.8,15.92-3.06,9.18-4.46,19.39-5.21,29.04ZM207.48,169.54c2.77-8.62,8.2-12.72,17.24-12.89,8.16.14,16.05,2.38,20.89,9.43,3.22,4.7,4.45,10.46,5.11,16.03.29,2.36.49,4.79.59,7.24-15.82-.28-31.66-.56-47.5-.84.64-6.4,1.74-12.94,3.67-18.97ZM203.45,192.48c.02-.26.05-.53.07-.79,15.95.28,31.91.56,47.86.84.03,8.02-1.11,16.18-4.24,23.36-5.65,12.99-19.67,15.97-31.76,9.16-11.49-6.48-12.83-20.72-11.93-32.57Z"/>
  </g>
</svg>