<?xml version="1.0" encoding="UTF-8"?>
<svg id="Layer_1" xmlns="http://www.w3.org/2000/svg" version="1.1" viewBox="0 0 231.72 318.6">
  <!-- Generator: Adobe Illustrator 30.5.1, SVG Export Plug-In . SVG Version: 2.1.4 Build 3)  -->
  <defs>
    <style>
      .st0 {
        fill: #2d2e2d;
      }
    </style>
  </defs>
  <path class="st0" d="M26.71,247.49c-.02-.43.16-.93.45-1.37.22-.71.44-1.44.68-2.16,2.1-6.44,3.72-13.07,5.17-19.7-3.37-.98-6.81-1.74-10.34-2.32-3.3-.63-6.86-1.87-9.96-3.75-.98,5.04-1.95,10.09-2.94,15.15-.75,3.91-1.51,7.81-2.26,11.72-.21,1.06-.46,2.14-.62,3.21.09,0,.2,0,.32.03,4.51,1.18,8.75,3.28,13.47,3.71,3.67.33,5.06-1.77,6.04-4.53h-.01Z"/>
  <path class="st0" d="M29.14,59.78c-.08-1.49-.09-2.96-.09-4.38.02-2.96.29-5.92.76-8.83-7.18-3.93-8.21,15.08-.67,13.2h0Z"/>
  <path class="st0" d="M12.73,84.15c8.39,5,18.64,3.6,27.57.92.25-1.77.18-3.53-.29-5.21-2.4-.77-4.56-2.07-6.25-4.07-16.74,6.15-23.51-11.3-22.94-25.31.24-5.9,1.36-12.69,5.38-17.28,5.05-5.77,12.73-6.3,18.27-1.43,1.48-3.05,3.25-5.94,5.32-8.64-6.09-8.79-18.4-8.72-26.39-2.14C1.49,30.83-1.96,51.4,1,65.78c1.51,7.33,5.13,14.45,11.73,18.38h0Z"/>
  <path class="st0" d="M47.24,248.26c.54-.03.31-.17,0,0h0Z"/>
  <path class="st0" d="M53.48,234.3c-2.41-1.46-4.78-2.98-7.23-4.41-3.56-2.1-7.27-3.7-11.09-4.95-1.45,6.85-2.96,14.09-5.48,20.71,5.86,2.56,10.55,2.21,16.72,2.61.29.02.51.02.68.02.22-.44.49-.87.64-1.21,1.92-4.25,3.84-8.52,5.76-12.77h0Z"/>
  <path class="st0" d="M62.26,238.97c-.44-.18-.86-.39-1.3-.59-.71,2.92-1.42,5.83-2.13,8.75,2.61.4,5.22.8,7.83,1.21.63-2.33,1.26-4.68,1.91-7.01-2.13-.68-4.23-1.46-6.31-2.36h0Z"/>
  <path class="st0" d="M79.67,243.88c-2.21-.32-4.41-.76-6.61-1.3.08,1.99.16,3.96.24,5.95h5.7c.22-1.55.45-3.1.67-4.65Z"/>
  <path class="st0" d="M92.88,244.58c-2.54.09-5.08.07-7.61-.09.42,1.67.86,3.33,1.29,5h6.32v-4.91Z"/>
  <path class="st0" d="M108.06,242.53c-2.78.63-5.57,1.14-8.37,1.48.21,1.02.4,2.05.6,3.07,2.6-.45,5.18-.88,7.77-1.33,0,0,0-3.22,0-3.22Z"/>
  <path class="st0" d="M105.41,146.96c-.23.8-.38,1.63-.43,2.46-.23,3.54,1.67,6.19,5.07,7.23,5.61,1.7,9.88-4.02,9.19-9.29-4.55.33-9.24.21-13.84-.4h0Z"/>
  <path class="st0" d="M133.98,144.47c-3.25,1.11-6.78,1.93-10.46,2.44.57,5.81,2.98,12.63,8.89,14.17,6.34,1.64,13.8-2.1,12.76-9.22-.54-3.63-2.3-7.44-4.85-10.19-1.99,1.1-4.1,2.05-6.34,2.8Z"/>
  <path class="st0" d="M100.92,122.25c2,.26,4.39-.69,6.23-1.39,1.86-.71,3.69-1.57,5.47-2.52-3.99-3.82-7.61-8.01-11.02-12.33-1.98,1.44-3.92,2.92-5.85,4.41-5.38,4.13.62,11.23,5.17,11.83Z"/>
  <path class="st0" d="M117.55,94.83c-.55-.54-1.11-1.05-1.68-1.55-3.34-3.03-6.78-5.99-10.3-8.8-4.87-2.14-13.2-1.31-10.93,6.14.4,1.33,1.77,2.79,2.54,3.93,1.78,2.61,3.65,5.17,5.62,7.67.47.62.97,1.25,1.47,1.86.73.93,1.49,1.86,2.26,2.77,2.85,3.4,5.83,6.77,9.11,9.79.76.69,1.53,1.37,2.32,2.01.37.32.75.62,1.13.92,2.39,1.86,5.17,3.77,8.26,4.14,4,.49,9.12-1.69,8.63-6.53-.3-2.87-2.71-5.92-4.86-8.39-.54-.62-1.06-1.21-1.53-1.74-.08-.1-.16-.2-.24-.29-3.01-3.51-6.3-6.77-9.65-9.94-.71-.68-1.44-1.34-2.16-1.99h.01Z"/>
  <path class="st0" d="M132.35,104.85c1.46-1.2,2.87-2.42,4.24-3.71,3.25-3.07,9.33-8.89,4.45-13.07-1.67-1.42-4.17-1.69-6.26-1.4-4.8.69-9.7,3.27-14.28,6.22,2.41,2.25,4.78,4.57,7.07,6.95,1.39,1.45,3.13,3.15,4.79,5.01h-.01Z"/>
  <path class="st0" d="M147.95,142.5c3,2.4,6.93,3.46,10.04.59,4.44-4.11-.8-10.12-4.54-13.1-2.54,3.48-5.56,6.54-9.03,9.08,1,1.33,2.75,2.82,3.53,3.44h0Z"/>
  <path class="st0" d="M75.96,84.19c-1.28.36-2.69.75-4.14,1.03-2.05,6.79-2.72,14.27-2.34,21.31.7,12.49,6.1,24.13,17.17,30.65,5.17,3.03,11.37,5.15,17.87,6.26.61.11,1.23.21,1.85.3,4.33.62,8.78.8,13.14.55.63-.03,1.28-.08,1.91-.14.05,0,.09,0,.14,0,.61-.06,1.21-.12,1.82-.2,4.99-.61,9.77-1.82,14.02-3.65.84-.37,1.64-.75,2.43-1.15.59-.31,1.16-.63,1.71-.95.18-.11.37-.23.55-.34,0,0,0,0,0,0,.41-.24.8-.49,1.2-.76,3.77-2.56,6.79-5.7,9.22-9.25,0-.01,0-.02.02-.05.23-.34.46-.68.67-1.03,0,0,0,0,0-.01,8.01-12.6,9.04-29.95,9.25-44.76-1.48.25-2.99.37-4.52.37-.63,9.25-2.07,18.47-5.46,27.14-4.24,10.84-11.64,20.52-22.63,25.05-12.58,5.19-29.83,4.42-40.27-5.03-12.04-10.92-13.66-30.63-11.08-46.01-.84.23-1.69.47-2.54.7h0Z"/>
  <path class="st0" d="M22.42,261.8c-4.29.48-5.87,6.15-2.46,9.1,2.98,2.56,8.76,2.23,12.36,2.28,13.48.16,27.18-1.11,40.64-2.11,15.33-1.14,30.82-3.14,45.45-8.04,23.81-7.99,40.51-29.67,64.5-35.18-4.87.56-9.79,1.97-14.17,3.32-16.97,5.25-31.01,16.31-47.69,22.04-24.93,8.56-52.38,9.73-78.52,9.27-6.48-.12-13.66-1.4-20.11-.68h0Z"/>
  <path class="st0" d="M177.56,216.84c-16.28-3.52-33.05,1.51-48.08,7.49-12.02,4.78-23.22,8.66-36.36,7.48-14.82-1.34-27.67-6.67-40.29-14.33-10.72-6.5-20.85-15.15-32.45-20.02-1.86-.78-4.05-1.68-6.1-1.55-.05,0-.09,0-.15.02-.09.03-.18.05-.26.03-4.3.6-7.58,6.07-6.91,10,.59,3.37,2.86,6.09,5.77,8.17.25,0,.44.1.53.37,3.3,2.22,7.3,3.64,10.6,4.27,7.53,1.26,14.89,3.1,21.66,6.71,5.24,2.8,9.99,6.41,15.32,9.04,17.84,8.81,37.43,8.71,56.05,2.6,24.19-7.94,49.33-25.03,74.95-12.72-3.54-4.18-9.03-6.45-14.26-7.57h-.02Z"/>
  <path class="st0" d="M231.13,224.71c-.77-35.89-1.51-71.79-3.76-107.62-.34.83-.75,1.63-1.26,2.36-4.32,6.12-11.71,1.08-14.2-4.14-3.7-7.71-4.07-17.36-4.71-25.74-.9-11.4-1.18-22.85-2.29-34.23-.79-8.25-1.32-18.4-7.49-24.63-8.93-8.98-22.02-12.8-34.17-14.81-25.1-4.16-53.62-2.83-78.27,3.47-9.3,2.38-19.81,5.94-26.41,13.34-1.6,1.79-3.65,5.25-3.71,6.88-.06,1.3-2.57,3.39-2.49,1.38.45-10.72,13.89-17.9,22.27-21.21,12.42-4.91,25.86-6.69,39.07-7.88,11.92-1.08,23.91-1.51,35.85-.77,12.25.76,24.85,2.63,36.13,7.69,7.68,3.45,15.68,8.68,18.5,16.96,3.05,8.92,3.38,18.95,3.99,28.26.71,11.08,1.02,22.2,2.36,33.23.86,7.04,1.67,18.49,9.57,21.48,4.88,1.85,6.4-4.37,6.55-12.08-.06-.78-.1-1.56-.16-2.36-.47-6.47-.99-12.97-1.6-19.46-.06-.41-.11-.76-.15-1,0-.11,0-.24.02-.37-1.15-11.92-2.69-23.8-5.14-35.5-1.39-6.68-2.98-13.65-6.3-19.67-4.62-8.37-12.34-14.33-20.88-18.35C169.92-.68,142.6-.63,118.23.49c-24.16,1.13-53.89,1.49-72.61,19.27-10.8,10.26-15.18,25.26-13.85,39.87.61,6.75,2.09,14.62,9.34,17.16.21.08.41.11.62.18.09,0,.17.03.24.07,5.22,1.57,10.27.97,15.33-.88-.55-2.19-.78-4.45-.77-6.32.05-7.95,6.38-13.77,14.1-14.38,1.41-.1.15,3.06-1.18,3.16-3.08.24-7.75,2.09-9.48,5.46-2.75,5.3-.17,16.67,6.39,18.23,4.53,1.06,9.98-1.1,14.23-2.41,6.77-2.09,13.47-4.34,20.4-5.8,7.69-1.61,15.57-2.31,23.41-1.63,9.55.83,18.31,4.65,27.72,6.08,11.42,1.71,19-1.22,25.52-10.49,4.73-6.72,9.68-11.76,18.28-12.55,1.79-.16.7,2.98-.59,3.1-12.8,1.17-14.69,12.58-23.57,19.36-2.17,1.67-4.47,2.76-6.85,3.45-.18,12.51-.82,25.22-5.29,37.05-1.16,3.07-2.59,5.99-4.28,8.7,5.32,4.27,9.68,11.43,4.21,17.43-3.28,3.6-7.89,4.44-12.03,1.83-.29-.18-.62-.4-.99-.67,2.86,8.07-.1,17.25-10.51,18.64-8.87,1.17-13.34-6.19-14.69-13.84-1.34,5.27-5.52,10.19-10.89,9.6-7.48-.84-8.86-7.58-7.18-13.51-8.2-1.37-16-4.31-22.05-8.96-15.42-11.86-16.94-34.48-11.76-52.07-2.32.25-4.63.1-6.62-.94-2.2-1.16-3.71-3.39-4.7-5.91-1.85.66-3.78,1.14-5.71,1.49-3.08.57-6.38.77-9.47.31,1.11,10.53-8.5,21.32-15.74,27.16-7.83,6.31-14.62,11.25-19.24,20.52-3.79,7.62-6.06,16.23-6.25,24.75-.12,5.02.2,12.42,4.46,15.95,4.14,3.42,9.63-.18,13.94-1.43.76-.22,1.51-.4,2.25-.56.1-.03.2-.06.29-.06,8.41-1.72,16.18.1,24.71,1.63,7.12,1.29,17.25.63,19.46-7.83,3.53-13.49-18.11-24.31-22.05-8.96-.37,1.4-2.98,2.78-2.42.61,1.32-5.14,5.07-10.39,10.58-11.32,7.73-1.31,14.94,4.78,16.42,12.09,1.11,5.42-.67,11.28-4.84,14.97-7.33,6.49-17.05,3.6-25.56,1.97-5.06-.97-10.19-1.22-15.24-.39,1.21,7.96-2.9,16.58-7.22,23.2,1.87.17,3.77.84,5.6,1.61,6.85,2.91,13.05,7.45,19.24,11.53,14.55,9.63,29.09,18.96,46.61,21.83,8.22,1.34,16.54,1.62,24.67-.39,7.03-1.72,13.66-4.77,20.39-7.38,15.45-6.01,34.26-10.81,50.54-5.03,5.15,1.82,10.04,4.96,12.57,9.96.43.84.86,2.06.82,3.08h0v.02c-.05.95-.53,1.72-1.87,1.84-.35.02-.75-.07-1.2-.23-19.32-.32-34.69,10.54-49.51,22.02-14.5,11.25-31.11,16.84-49.1,19.81-13.72,2.26-27.57,2.9-41.43,3.77-8.15.51-16.33,1.24-24.51.98-3.16-.12-7.3-.14-10.23-1.85-4.07,5.87-7.21,12.94-8.42,19.92-2.02,11.6,3.26,24.11,16.33,24.24,9.78.1,19.57-4.34,28.53-7.79,9.7-3.72,19.5-7.71,29.97-8.49,25.16-1.9,50.58,13.72,75.39,6.49,4.72-1.38,10.14-4.05,14.42-7.75.32-.28.64-.56.95-.86,4.07-3.82,6.9-8.63,6.71-14.2-.32-10.1-11.72-16.54-20.8-16.47-7.5.06-17.08,4.96-18.21,13.15-.63,4.65,2,9.08,5.8,11.57-.56-7.37,9.23-15.09,15.39-9.5,3.77,3.42,1.98,9.35-1.52,12.19-3.22,2.6-7.41,3.16-11.26,2.16-.18.02-.37-.02-.53-.14,0,0,0-.01,0-.01-2.02-.6-3.92-1.63-5.5-3.01-10.16-8.86-2.72-22.71,7.54-27.47,5.26-2.44,11.53-2.6,17.1-.82,13.59-1.64,29.02-8.91,34.9-21.83,8.52-18.72-1.65-40.35-22.23-43.35-17.38-2.55-36.3,4.09-52.31,9.97-11.74,4.32-22.58,9.81-35.37,9.76-9.85-.05-19.51-2.82-28.35-7.03-14.72-7.03-26.96-17.89-38.37-29.35-.93-.93,1.02-3.72,2.14-2.61,15.3,15.35,33.04,30.44,54.92,34.74,13.65,2.67,25.28-.63,37.9-5.64,11.8-4.7,23.93-8.89,36.4-11.42,14.03-2.85,29.99-3.98,41.37,6.4,13.74,12.54,11.53,36.12-.76,48.86-6.56,6.8-15.93,11.5-25.35,13.64,3.88,2.3,7.06,5.71,8.69,10.12,2.71,7.32-.68,14.86-5.73,20.57,11.57,1.65,24.19,1.7,34.44-4.6,8.57-5.27,13.4-14.31,15.82-23.81,3.93-15.42,2.4-31.63,2.07-47.36h-.02ZM182.29,253.74c-22.2-2.46-44.04,10.35-56.79,27.73,1.24,8.83,7.09,17.09,15.73,20.05,1.25.43-.34,3.46-1.72,2.99-9.31-3.19-15.18-12.23-16.49-21.63-10.04-5.05-19.27,3.14-28.34,6.39-9.14,3.28-17.25-3.22-26.41-.05-4.4,1.53-8.63,4.42-13.33,4.95-2.91.32-5.6-.51-8.43-.94-4.15-.64-21.12.36-19.13,8.03.32,1.25-1.95,3.72-2.39,2.06-1.07-4.1,2.15-8.07,5.4-10.08,4.26-2.63,9.85-3.77,14.82-3.46,4.67.29,8.77,2.1,13.45.6,5.5-1.77,10.33-5.24,16.26-5.61,6.88-.41,12.56,3.92,19.61,1.67,9.76-3.11,19.03-11.78,29.72-6.79,13.28-18.1,36.11-31.64,59.24-29.06,1.53.16.14,3.3-1.18,3.15h-.02Z"/>
</svg>