<?xml version="1.0" encoding="UTF-8"?>
<svg id="Layer_1" xmlns="http://www.w3.org/2000/svg" version="1.1" viewBox="0 0 1790.88 441.67">
  <!-- Generator: Adobe Illustrator 30.5.1, SVG Export Plug-In . SVG Version: 2.1.4 Build 3)  -->
  <defs>
    <style>
      .st0 {
        fill: #2d2e2d;
      }
    </style>
  </defs>
  <path class="st0" d="M1562.79,376.17c8.44-.85,14.2,6.76,21.38,9.72,2.91,1.22,6.02,2.07,9.22,2.67-5.69-3.72-9.85-8.93-14.69-14.77-3.24-3.91-9.84-9.96-15.36-10.02-4.6-.05-6.82,4.5-4.33,8.39.97,1.53,2.36,2.9,3.79,4.01Z"/>
  <path class="st0" d="M1582.38,198c-.38,3.92-.16,8.02.65,11.89,1.21-.07,2.43-.14,3.64-.2,2.91-.16,5.8-.31,8.71-.47,3.64-8.07,2.26-18.78.3-27.21-8.04,2.61-12.46,7.3-13.31,15.99Z"/>
  <path class="st0" d="M1617.84,176.92c-1.17.2-2.36.39-3.53.6v1.78c1.18-.07,2.36-.13,3.53-.2v-2.18Z"/>
  <path class="st0" d="M1617.84,182.2c-1.17.06-2.34.13-3.53.2v4.48c1.18-.06,2.36-.11,3.53-.18v-4.49Z"/>
  <path class="st0" d="M1617.84,189.78c-1.17.07-2.34.13-3.53.18v3.92c1.18-.05,2.36-.09,3.53-.15v-3.95Z"/>
  <path class="st0" d="M1617.84,196.84c-1.17.06-2.34.1-3.53.15v4.83c1.18-.05,2.36-.09,3.53-.14v-4.84Z"/>
  <path class="st0" d="M1614.31,208.23c1.18-.07,2.36-.13,3.53-.2v-3.25c-1.17.05-2.34.09-3.53.15v3.3Z"/>
  <path class="st0" d="M1620.33,176.52v2.45c1.61-.09,3.23-.18,4.84-.28-.02-.94-.03-1.9-.06-2.85-1.6.22-3.2.44-4.78.68Z"/>
  <path class="st0" d="M1620.33,186.56c1.66-.08,3.32-.17,4.99-.25-.03-1.52-.06-3.02-.09-4.53-1.63.09-3.26.18-4.9.28v4.5Z"/>
  <path class="st0" d="M1620.33,193.63c1.7-.07,3.41-.14,5.11-.22-.02-1.33-.05-2.68-.07-4.01-1.69.08-3.37.17-5.05.25v3.98Z"/>
  <path class="st0" d="M1620.33,201.57c1.76-.07,3.5-.15,5.26-.22-.02-1.61-.06-3.22-.09-4.84-1.72.08-3.45.15-5.17.22v4.84Z"/>
  <path class="st0" d="M1620.33,207.91c1.79-.09,3.59-.2,5.39-.29-.02-1.06-.05-2.1-.06-3.16-1.78.08-3.56.15-5.33.22v3.23Z"/>
  <path class="st0" d="M1576.27,248.26c4.3,1.92,8.79,3.44,13.39,4.65h.05c.13.05.24.08.37.1,3.22.84,6.48,1.54,9.78,2.11h.01c.13-.02.25,0,.34.06h.01c7.88,1.36,15.92,2.06,23.75,2.53-9.7-4.77-15.83-13.53-13.46-26.2,1.71-9.12,7.83-16.54,15.77-20.85-14.96.8-29.94,1.6-44.91,2.39-.03.01-.07.01-.1.01-7.43.39-14.87.78-22.3,1.18-.1,2.48-.14,4.98-.13,7.46.02,4.55-.23,9.32,1.78,13.53,3.02,6.31,9.49,10.29,15.65,13.02Z"/>
  <path class="st0" d="M1605.9,421.22c6.08.75,12.42-1.74,16.55-6.21,5.99-6.49,4.76-13.85,2.53-21.54-2.2-7.61-1.92-15.33.22-22.9,2.29-8.14,8.33-16.46,2.42-24.5-4.88-6.64-13.74-8.85-21.56-8.94-4.3,3.16-9.77,3.54-15.5,3.2-9.35-.57-17.43,1.22-25.4,4.91,2.16,5.02,1.84,10.64-.68,15.47t-.01.02c.72,0,1.45.09,2.17.28,6.78,1.8,12.32,7.7,16.39,13.14,5.61,7.48,12.08,13.11,21.29,15.58h.03c.44.02.87.03,1.31.05,1.48.03.15,3.19-1.2,3.16-.36-.01-.7-.02-1.05-.03-.06,0-.1,0-.16-.01-.02,0-.03.01-.06,0-.02,0-.05-.01-.07-.01-5.86-.23-11.85-1.1-17.44-2.84-8.08-2.51-14.8-11.6-23.8-10.65-.01,0-.01.01-.01.01-.07.02-.14.03-.21.03-.03,0-.08-.01-.11-.01s-.08.01-.12.01c-3.92.54-5.87,5.62-3.75,8.98.72,1.16,1.92,1.9,2.93,2.77,1.31,1.1,2.49,2.18,3.39,3.54,9.53,1.67,18.78,7.15,25.48,13.95,5.25,5.32,8.24,11.56,16.4,12.56Z"/>
  <path class="st0" d="M1627.62,175.52c.02,1.01.05,2.02.06,3.03,1.55-.08,3.1-.17,4.64-.25-.02-1.11-.04-2.23-.08-3.34-1.54.18-3.08.37-4.62.56Z"/>
  <path class="st0" d="M1627.73,181.65c.03,1.51.06,3.02.09,4.54,1.56-.08,3.11-.16,4.68-.24-.03-1.53-.07-3.05-.11-4.56-1.55.08-3.1.17-4.65.26Z"/>
  <path class="st0" d="M1627.88,189.27c.02,1.36.05,2.7.08,4.05,1.56-.07,3.14-.13,4.71-.2-.03-1.37-.07-2.72-.1-4.09-1.56.08-3.13.16-4.69.24Z"/>
  <path class="st0" d="M1628.02,196.41c.02,1.61.06,3.23.09,4.84,1.59-.06,3.16-.13,4.75-.2-.03-1.61-.08-3.23-.12-4.84-1.57.07-3.15.13-4.72.2Z"/>
  <path class="st0" d="M1633.01,207.23c-.02-1.02-.05-2.05-.08-3.07-1.59.07-3.17.14-4.76.2.02,1.05.03,2.09.06,3.13,1.6-.08,3.18-.16,4.78-.25Z"/>
  <path class="st0" d="M1674.35,205.03c4.83-10.43,4.17-23.29-1.61-33.3-.02-.05-.03-.09-.05-.14-7.61.31-15.17.85-22.65,1.53-4.47,10.47-4.79,23,.4,33.18,7.96-.41,15.94-.84,23.9-1.26Z"/>
  <path class="st0" d="M1675.57,284.94c1.49.92,3.11,1.63,4.81,2.17,0,.01.01.01.02.01-4.9-7.23-5.84-18.82-6.5-26.68-3.17.17-6.32.33-9.47.49.01,8.98,3.3,19.16,11.14,24.01Z"/>
  <path class="st0" d="M1685.82,288.08c.08.06.14.13.2.21,1.99.24,4.06.35,6.13.35-2.7-4.76-3.46-11.01-4.24-16.16-.64-4.23-1.14-8.5-1.44-12.79-3.32.22-6.63.41-9.95.6t-.01.01c.76,8.87,2.16,22.51,9.32,27.79Z"/>
  <path class="st0" d="M1689.78,171.33c.03,1.23.07,2.46.1,3.7,1.48-.03,2.97-.06,4.45-.09-.02-1.17-.06-2.34-.09-3.53-1.48-.03-2.98-.07-4.46-.08Z"/>
  <path class="st0" d="M1689.96,178.15c.05,1.34.08,2.69.12,4.05,1.48-.03,2.97-.08,4.45-.12-.03-1.33-.07-2.68-.12-4.01-1.48.02-2.97.06-4.45.08Z"/>
  <path class="st0" d="M1690.17,185.31c.02,1.02.06,2.03.08,3.06,1.48-.06,2.95-.1,4.44-.15-.03-1.01-.06-2.01-.08-3.01-1.48.03-2.95.07-4.44.1Z"/>
  <path class="st0" d="M1690.34,191.47c.05,1.64.09,3.29.14,4.93,1.47-.06,2.94-.13,4.41-.18-.05-1.63-.08-3.26-.13-4.9-1.47.06-2.95.1-4.43.15Z"/>
  <path class="st0" d="M1695.1,203.93c-.05-1.54-.08-3.08-.13-4.61-1.47.06-2.93.13-4.4.18.05,1.55.09,3.1.13,4.65,1.47-.08,2.93-.15,4.4-.23Z"/>
  <path class="st0" d="M1695.94,288.54c2.34-.1,4.67-.29,6.87-.47-2.39-4.45-2.91-10.39-3.53-15.01-.63-4.71-1.07-9.48-1.29-14.24-2.72.23-5.45.44-8.17.63-.25.02-.52.03-.78.06.29,3.65.71,7.3,1.25,10.91.89,5.77,1.69,13.17,5.5,17.86.06.08.1.17.14.26Z"/>
  <path class="st0" d="M1696.76,171.48c.02,1.14.06,2.28.09,3.41,1.61-.02,3.22-.06,4.83-.08-.05-1.05-.09-2.08-.14-3.11-1.59-.08-3.18-.16-4.78-.22Z"/>
  <path class="st0" d="M1696.94,178.03c.03,1.33.07,2.67.1,4,1.66-.05,3.31-.08,4.95-.13-.06-1.32-.12-2.64-.17-3.96-1.63.03-3.25.06-4.88.09Z"/>
  <path class="st0" d="M1697.12,185.14c.02,1,.06,2,.08,2.99,1.69-.06,3.38-.11,5.07-.17-.05-.98-.09-1.95-.14-2.93-1.67.03-3.33.08-5.01.12Z"/>
  <path class="st0" d="M1697.28,191.24c.05,1.62.08,3.24.13,4.87,1.74-.08,3.47-.15,5.21-.23-.07-1.61-.14-3.22-.21-4.83-1.71.07-3.41.13-5.13.18Z"/>
  <path class="st0" d="M1702.96,203.52c-.07-1.52-.14-3.02-.21-4.53-1.75.07-3.5.15-5.26.22.04,1.53.08,3.06.13,4.59,1.78-.09,3.56-.18,5.34-.28Z"/>
  <path class="st0" d="M1677.15,232.99c.07-.22.1-.42.08-.62-.01-.06-.03-.11-.03-.17-.01-.06-.02-.13-.03-.17-2.08-11.94-30.82-11.16-30.99,1.53-.16,12.48,29.05,11.7,30.98-.56Z"/>
  <path class="st0" d="M1612.78,231.77c-2.45,15.85,10.15,24.22,24.28,26.47.1.01.2.06.27.09h.03c6.9.2,13.81.17,20.69-.18h.05c8.04-.4,16.09-.86,24.14-1.4,2.92-.2,5.87-.39,8.83-.6,3.98-1.75,7.87-3.59,11.09-6.62,7.07-6.65,7.75-16.9,4.38-25.65-3.72-9.69-13.85-15.95-24.11-16.19-11.07.6-22.12,1.18-33.19,1.77-.18.08-.36.1-.51.02-4.22.23-8.42.45-12.64.68-11.28,1.93-21.5,9.94-23.32,21.62ZM1659.66,217.56c10.07-.79,29.59,1.64,31.01,14.69.06.13.08.31.07.55,0,.13-.01.24-.05.37-1.04,11.28-14.88,15.5-24.39,16.26-9.5.75-31.02-1.7-31.07-15.24-.06-11.53,15.51-15.92,24.43-16.63Z"/>
  <path class="st0" d="M1706.66,287.76c2.05-.15,4.14-.32,6.22-.55-2.63-7.98-4.17-16.57-4.17-25.04,0-1.47.05-2.93.14-4.39-2.76.3-5.53.57-8.3.83.18,3.54.49,7.08.92,10.61.68,5.7,1.14,13.88,5.01,18.56.07,0,.13-.01.18-.01Z"/>
  <path class="st0" d="M1704.1,171.83c.04.98.09,1.95.14,2.93,2.08-.05,4.17-.08,6.26-.11-.03-.78-.07-1.55-.1-2.33-2.09-.18-4.19-.36-6.3-.48Z"/>
  <path class="st0" d="M1704.37,177.89c.06,1.32.12,2.63.17,3.95,2.08-.06,4.16-.1,6.25-.16-.06-1.3-.11-2.61-.17-3.91-2.08.03-4.17.08-6.25.11Z"/>
  <path class="st0" d="M1704.68,184.96c.05.98.08,1.94.13,2.91l6.24-.21c-.05-.95-.08-1.91-.13-2.85-2.08.05-4.16.1-6.24.15Z"/>
  <path class="st0" d="M1704.95,190.98c.07,1.6.14,3.19.21,4.8,2.08-.09,4.15-.18,6.23-.28-.07-1.57-.14-3.16-.21-4.75-2.07.08-4.15.15-6.23.22Z"/>
  <path class="st0" d="M1708.66,203.21c1.01-.06,2.03-.1,3.04-.16-.07-1.48-.13-2.95-.2-4.44-2.07.09-4.14.17-6.22.26.07,1.51.14,3,.21,4.51,1.05-.06,2.1-.11,3.16-.17Z"/>
  <path class="st0" d="M1715.85,286.82c1.33-.18,2.65-.41,3.96-.69-1.97-5.25-3.06-10.93-2.94-16.38.09-4.91,1.44-9.43,3.69-13.45-3.09.45-6.18.85-9.3,1.2-.48,9.91,1.3,20.03,4.57,29.33,0-.01.01-.01.01-.01Z"/>
  <path class="st0" d="M1623.67,290.49c-.24-4.5-3.29-8.31-7.83-9.09-4.86-.82-9.89,2.53-9.93,7.71-.06,10.58,17.13,12.92,17.76,1.38ZM1614.84,286.1c2.23.39,3.8,2.25,3.93,4.49-.29,5.25-8.56,3.33-8.44-1.38.06-2.33,2.4-3.48,4.5-3.11Z"/>
  <path class="st0" d="M1553.09,348.18c3.17-.53,6.22-2.24,9.24-4.03.57-.34,1.14-.69,1.71-1.02,2.08-1.24,4.16-2.41,6.27-3.19,8.35-3.05,16.21-2.64,24.93-2.47,7.64.15,14.66-4.05,15.06-12.3.31-6.39-3.53-11.81-9.79-13.25-5.17-1.18-10.83.51-11.19,6.5-.08,1.29-2.61,3.38-2.48,1.38.84-13.83,19.62-15.09,24.7-3.11,2.26,5.34,1.41,11.76-1.79,16.54-.2.29-.39.57-.6.84,12,.87,26.11,8.03,23.34,22.12-1.53,7.77-5.87,14.36-6.48,22.51-.62,8.38,3.76,15.54,3.55,23.7-.22,9.18-6.37,17.39-14.87,20.65-4.16,1.6-8.8,1.97-13.1.68-5.54-1.67-8.27-5.63-11.82-9.84-6.01-7.11-14.89-13.05-24.16-15.42,1.3,4.99.69,10.83,1.8,15.82,1.56,6.96,4.79,13.62,10.69,17.9,7.68,5.6,17.61,5.77,26.72,6.37,8.91.57,18.57,1.09,27.16-1.83,10.49-3.56,12.31-12.28,11.94-22.41-.32-9.1-2.33-18.16-1.84-27.29.52-9.46,4.01-17.97,9.03-25.91,1.13-1.77,2.92-.75,1.79,1.03-4.57,7.24-7.85,14.87-8.34,23.5-.33,5.95.48,11.87,1.1,17.78,1,9.49,2.63,21.28-3.71,29.38-1,1.28-2.13,2.37-3.36,3.31,22.18,7.12,49.06,8.29,70.26-1.79-5.25-5.76-6.79-13.94-5.29-22.67,1.2-6.88,4.91-13.99,10.47-18.49-1.77-1.67-3.39-3.53-4.83-5.61-13.46-19.56-8.27-47.54-4.76-69.35,1.83-11.41,7.4-21.43,17.62-26.96-.4-.77-.78-1.56-1.13-2.37-5.04,1.2-10.32,1.71-15.49,2.06h-.01c-.14.05-.27.06-.4.02t-.01,0c-.39.03-.77.06-1.15.08-9.77.63-22.38,2.28-30.92-3.69-8.06-5.63-11.29-16.77-10.97-26.28-1.7.08-3.4.16-5.1.25h-.05c-.87.05-1.75.07-2.63.1-15.54.51-31.21-.02-46.63-1.99-2.49-.32-5.14-.67-7.87-1.08-1.06,1.43-2.03,2.92-2.91,4.46-.68,1.2-2.07,3.11-2.03,4.5.08,2.56,1.92,2.37,4.16,2.11,7.65-.84,14.89-3.34,22.66-1.68,8.65,1.85,15.65,9.17,23.43,13.19,5.01,2.6,10.19,4.96,15.48,6.95,1.25.47-.37,3.49-1.72,2.98-7.33-2.75-14.54-6.14-21.27-10.14-4.76-2.83-8.95-7.08-14.17-9-5.83-2.14-12.17-1.51-18.15-.44-3.65.64-13.24,4.18-12.99-2.41.14-3.73,2.75-7.68,5.16-10.91-2.59-.43-5.22-.92-7.86-1.52h-.01c-6.11,15.12-19.08,23.9-31.19,34.2-7.09,6.03-11.11,13.81-14.16,22.58-2.8,8.09-4.8,17.61-2.26,26.03,1.54,5.1,5.37,9.89,11.24,8.91ZM1675.6,361.09c1.82-1.33,1.89,1.52.68,2.4-20.28,14.97-18.46,44.47-7.89,64.81.62,1.21-1.48,3.88-2.14,2.61-11.47-22.09-12.51-53.67,9.35-69.82ZM1594.8,281.17c9.12-4.71,20.86-6.33,30.63-2.93,8.66,3.02,16.03,8.85,24.9,11.72,3.88,1.26,7.95,2.36,12.03,2.79,1.53.16.14,3.29-1.18,3.15-6.07-.64-12.09-2.4-17.82-4.8-10.07,6.65-29.68,19.03-40.68,7.77-3.92-4.01-5.6-10.3-5.61-15.9-.75.32-1.48.68-2.22,1.06-1.82.93-1.22-2.24-.05-2.85Z"/>
  <path class="st0" d="M1758.85,200.54c-.55-4.86-2.29-9.84-4.95-13.81-4.67-6.95-12.17-9.19-19.94-10.87-.45-.1-.91-.18-1.36-.28-1.77,8.75-.56,18.23,3.36,26.18,7.63-.41,15.26-.82,22.89-1.22Z"/>
  <path class="st0" d="M1743.91,405.04c-2.53-.24-5.06-.61-7.55-1.1-.88,1.51-1.6,3.16-1.94,4.84-1.3,6.44,4.23,8.45,9.55,9.41,4.34.79,10.48,1.84,14.41-.87,3.86-2.67,2.73-8.4,1.84-12.26-.02-.14-.02-.29,0-.44-5.36.91-10.94.93-16.31.43Z"/>
  <path class="st0" d="M1723.09,286.26c.54,1.25,1.13,2.47,1.77,3.64,3.43-1.48,6.98-2.39,10.58-2.92-2.68-6.91-3.94-15.25-1.45-22.21,2.86-8.01,11-12.56,19.16-13.33,6.78-.63,16.8,1.91,16.61,10.45-.17,8.02-8.33,11.99-15.35,11.85-1.49-.02-.16-3.17,1.18-3.15,4.24.08,9.64-1.05,11.23-5.62,1.26-3.62-.8-6.64-3.81-8.47-4.75-2.9-11.38-2.42-16.41-.69-13.65,4.68-12.93,19.59-8.07,30.79,2.46-.24,4.94-.34,7.43-.38h.01c9.37-.13,19.96.62,28.68,4.68,10.46-9.23,11.38-24.41,4.98-36.48-2.7-5.1-7.1-8.83-12.22-11.15-1.03-.47-2.11-.88-3.21-1.24-4.22-1.38-8.77-1.87-13.15-1.47-9.46.87-19.03,5.14-25.13,12.04-.92,1.03-1.77,2.14-2.52,3.3-2.76,4.24-4.3,9.26-4.01,14.92.25,4.96,1.47,10.14,3.44,14.87.16.11.24.32.25.57Z"/>
  <path class="st0" d="M1591.82,180.5c13.59-5.79,29.64-7.37,44.16-9,12.65-1.43,25.39-2.31,38.13-2.65.16-.06.32-.07.47-.01,5.99-.16,11.97-.21,17.96-.11,16.39.25,33.64.91,49.43,5.73,11.83,3.61,18.69,13.83,19.47,25.95,7.49-.4,14.97-.79,22.47-1.2-1.18-7.85-3.93-15.38-8.31-20.86-11.63-14.57-32.72-18.53-50.2-20.32-22.24-2.28-44.76-1.01-67,.72-9.94.78-19.87,1.72-29.81,2.54-10.8.87-21.66,1.18-32.27,3.6-9.39,2.14-18.86,5.87-25.56,13.05-6.55,7.01-9.49,16.38-10.85,25.68-.37,2.51-.62,5.01-.78,7.53,7.04-.37,14.09-.75,21.13-1.13-1.85-11.09.23-24.71,11.55-29.53Z"/>
  <path class="st0" d="M1734.74,204.91c-.18.08-.36.1-.51.03-13.23.7-26.45,1.4-39.67,2.1,8.22,3.73,14.35,11.31,15.93,20.66.3,1.8.45,3.53.45,5.18,0,10.15-5.49,17.57-13.7,22.8.75-.05,1.48-.1,2.23-.16h.01c.22-.1.41-.13.57-.05h.01c3.47-.29,6.95-.59,10.43-.94.28-.15.53-.2.7-.07,0,0,0-.01.01-.01,3.82-.39,7.63-.85,11.43-1.38,9.79-13.33,30.07-19.66,45.47-13.24,6.58-4.04,12-9.6,14.42-17.43,1.84-5.94,2.43-13.07,1.73-20.13-9.4.5-18.8,1-28.2,1.5-7.11.38-14.23.75-21.34,1.13Z"/>
  <path class="st0" d="M1779.29,395.38c-1.9,1.86-3.98,3.42-6.18,4.7h-.01c8.8,6.55,12.76,19.52,3.53,27.8-7.62,6.83-21.54,6.61-31.07,6.27-9.92-.33-26.17-1.49-30.79-12.19-3.5-8.1,1.21-17.21,6.95-23.26h0c-2.08-1.16-4.07-2.48-5.91-4-9.68,6.54-12.66,21.34-8.62,31.79,1.01,2.62,2.61,4.76,4.6,6.49.24.02.39.17.46.39,7.02,5.8,18.51,7.06,26.82,7.45,12.08.57,25.01-.36,36.66-3.8,8.49-2.51,14.14-9.25,14.63-18.21.52-9.27-4.31-17.48-10.62-23.87l-.45.45Z"/>
  <path class="st0" d="M1756.05,338.36c-4.91-.84-9.99,2.55-10.02,7.78-.06,10.7,17.3,13.03,17.93,1.39-.24-4.55-3.32-8.4-7.91-9.17Z"/>
  <path class="st0" d="M1752.59,327.52c-9.18.99-16.31,9.32-16.28,18.48.03,10.06,8.79,18.11,18.84,17.1,9.43-.95,15.7-9.16,16.25-18.19.02-.09.03-.2.02-.29.01-.18,0-.32-.03-.44-.69-9.77-8.57-17.76-18.79-16.66ZM1738.8,344.62c.03-9.18,8.87-15.46,17.57-13.74,7.36,1.44,12.22,7.81,12.56,15.12-.93,19.59-30.2,17.16-30.13-1.38Z"/>
  <path class="st0" d="M1774.01,294.32c-.47.18-.75-.03-.87-.43-8.62-4.1-19.14-4.65-28.36-4.54h-.01c-7.14.1-14.3.83-20.8,3.79-.01.01-.02.02-.03.02-.07.02-.15.06-.23.1-.85.39-1.68.82-2.5,1.3-13.12,7.58-14.4,22.25-16.2,35.83-2.64,20.03-4.77,46.3,12.08,60.96.05.02.07.05.1.08.33.3.68.59,1.02.86,10.58,8.47,25.89,10.87,39.07,9.68,11.71-1.07,21.88-6.59,27.19-17.35,4.53-9.2,5.49-19.88,5.91-29.99.37-9.22.72-18.57.36-27.79-.37-9.43-2.02-19.44-8.71-26.6-2.33-2.49-5.05-4.44-8-5.93ZM1784.03,368.62c-2.99,18.55-16.94,27.19-34.69,27.42-12.62.15-27.53-1.78-34.54-13.73-5.16-8.79-4.98-19.73-4.79-29.59.31-16.81-1.13-38.23,11.68-51.24,14.86-15.11,46.83-10.6,58.33,6.56,11.45,17.08,7.07,41.62,4.02,60.59Z"/>
  <g>
    <path class="st0" d="M26.71,247.49c-.02-.43.16-.93.45-1.37.22-.71.44-1.44.68-2.16,2.1-6.44,3.72-13.07,5.17-19.7-3.37-.98-6.81-1.74-10.34-2.32-3.3-.63-6.86-1.87-9.96-3.75-.98,5.04-1.95,10.09-2.94,15.15-.75,3.91-1.51,7.81-2.26,11.72-.21,1.06-.46,2.14-.62,3.21.09-.01.2,0,.32.03,4.51,1.18,8.75,3.28,13.47,3.71,3.67.33,5.06-1.77,6.04-4.53Z"/>
    <path class="st0" d="M29.14,59.78c-.08-1.49-.09-2.96-.09-4.38.02-2.96.29-5.92.76-8.83-7.18-3.93-8.21,15.08-.67,13.2Z"/>
    <path class="st0" d="M12.73,84.15c8.39,5,18.64,3.6,27.57.92.25-1.77.18-3.53-.29-5.21-2.4-.77-4.56-2.07-6.25-4.07-16.74,6.15-23.51-11.3-22.94-25.31.24-5.9,1.36-12.69,5.38-17.28,5.05-5.77,12.73-6.3,18.27-1.43,1.48-3.05,3.25-5.94,5.32-8.64-6.09-8.79-18.4-8.72-26.39-2.14C1.49,30.83-1.96,51.4,1,65.78c1.51,7.33,5.13,14.45,11.73,18.38Z"/>
    <path class="st0" d="M47.24,248.26c.54-.03.31-.17,0,0h0Z"/>
    <path class="st0" d="M53.48,234.3c-2.41-1.46-4.78-2.98-7.23-4.41-3.56-2.1-7.27-3.7-11.09-4.95-1.45,6.85-2.96,14.09-5.48,20.71,5.86,2.56,10.55,2.21,16.72,2.61.29.02.51.02.68.02.22-.44.49-.87.64-1.21,1.92-4.25,3.84-8.52,5.76-12.77Z"/>
    <path class="st0" d="M62.26,238.97c-.44-.18-.86-.39-1.3-.59-.71,2.92-1.42,5.83-2.13,8.75,2.61.4,5.22.8,7.83,1.21.63-2.33,1.26-4.68,1.91-7.01-2.13-.68-4.23-1.46-6.31-2.36Z"/>
    <path class="st0" d="M79.67,243.88c-2.21-.32-4.41-.76-6.61-1.3.08,1.99.16,3.96.24,5.95h5.7c.22-1.55.45-3.1.67-4.65Z"/>
    <path class="st0" d="M92.88,244.58c-2.54.09-5.08.07-7.61-.09.42,1.67.86,3.33,1.29,5h6.32v-4.91Z"/>
    <path class="st0" d="M108.06,242.53c-2.78.63-5.57,1.14-8.37,1.48.21,1.02.4,2.05.6,3.07,2.6-.45,5.18-.88,7.77-1.33v-3.22Z"/>
    <path class="st0" d="M105.41,146.96c-.23.8-.38,1.63-.43,2.46-.23,3.54,1.67,6.19,5.07,7.23,5.61,1.7,9.88-4.02,9.19-9.29-4.55.33-9.24.21-13.84-.4Z"/>
    <path class="st0" d="M133.98,144.47c-3.25,1.11-6.78,1.93-10.46,2.44.57,5.81,2.98,12.63,8.89,14.17,6.34,1.64,13.8-2.1,12.76-9.22-.54-3.63-2.3-7.44-4.85-10.19-1.99,1.1-4.1,2.05-6.34,2.8Z"/>
    <path class="st0" d="M100.92,122.25c2,.26,4.39-.69,6.23-1.39,1.86-.71,3.69-1.57,5.47-2.52-3.99-3.82-7.61-8.01-11.02-12.33-1.98,1.44-3.92,2.92-5.85,4.41-5.38,4.13.62,11.23,5.17,11.83Z"/>
    <path class="st0" d="M117.55,94.83c-.55-.54-1.11-1.05-1.68-1.55-3.34-3.03-6.78-5.99-10.3-8.8-4.87-2.14-13.2-1.31-10.93,6.14.4,1.33,1.77,2.79,2.54,3.93,1.78,2.61,3.65,5.17,5.62,7.67.47.62.97,1.25,1.47,1.86.73.93,1.49,1.86,2.26,2.77,2.85,3.4,5.83,6.77,9.11,9.79.76.69,1.53,1.37,2.32,2.01.37.32.75.62,1.13.92,2.39,1.86,5.17,3.77,8.26,4.14,4,.49,9.12-1.69,8.63-6.53-.3-2.87-2.71-5.92-4.86-8.39-.54-.62-1.06-1.21-1.53-1.74-.08-.1-.16-.2-.24-.29-3.01-3.51-6.3-6.77-9.65-9.94-.71-.68-1.44-1.34-2.16-1.99Z"/>
    <path class="st0" d="M132.35,104.85c1.46-1.2,2.87-2.42,4.24-3.71,3.25-3.07,9.33-8.89,4.45-13.07-1.67-1.42-4.17-1.69-6.26-1.4-4.8.69-9.7,3.27-14.28,6.22,2.41,2.25,4.78,4.57,7.07,6.95,1.39,1.45,3.13,3.15,4.79,5.01Z"/>
    <path class="st0" d="M147.95,142.5c3,2.4,6.93,3.46,10.04.59,4.44-4.11-.8-10.12-4.54-13.1-2.54,3.48-5.56,6.54-9.03,9.08,1,1.33,2.75,2.82,3.53,3.44Z"/>
    <path class="st0" d="M75.96,84.19c-1.28.36-2.69.75-4.14,1.03-2.05,6.79-2.72,14.27-2.34,21.31.7,12.49,6.1,24.13,17.17,30.65,5.17,3.03,11.37,5.15,17.87,6.26.61.11,1.23.21,1.85.3,4.33.62,8.78.8,13.14.55.63-.03,1.28-.08,1.91-.14.05,0,.09-.01.14-.01.61-.06,1.21-.12,1.82-.2,4.99-.61,9.77-1.82,14.02-3.65.84-.37,1.64-.75,2.43-1.15.59-.31,1.16-.63,1.71-.95.18-.11.37-.23.55-.34,0-.01.01-.01.01-.01.41-.24.8-.49,1.2-.76,3.77-2.56,6.79-5.7,9.22-9.25.01-.01.01-.02.02-.05.23-.34.46-.68.67-1.03,0,0,.01,0,.01-.01,8.01-12.6,9.04-29.95,9.25-44.76-1.48.25-2.99.37-4.52.37-.63,9.25-2.07,18.47-5.46,27.14-4.24,10.84-11.64,20.52-22.63,25.05-12.58,5.19-29.83,4.42-40.27-5.03-12.04-10.92-13.66-30.63-11.08-46.01-.84.23-1.69.47-2.54.7Z"/>
    <path class="st0" d="M22.42,261.8c-4.29.48-5.87,6.15-2.46,9.1,2.98,2.56,8.76,2.23,12.36,2.28,13.48.16,27.18-1.11,40.64-2.11,15.33-1.14,30.82-3.14,45.45-8.04,23.81-7.99,40.51-29.67,64.5-35.18-4.87.56-9.79,1.97-14.17,3.32-16.97,5.25-31.01,16.31-47.69,22.04-24.93,8.56-52.38,9.73-78.52,9.27-6.48-.12-13.66-1.4-20.11-.68Z"/>
    <path class="st0" d="M177.56,216.84c-16.28-3.52-33.05,1.51-48.08,7.49-12.02,4.78-23.22,8.66-36.36,7.48-14.82-1.34-27.67-6.67-40.29-14.33-10.72-6.5-20.85-15.15-32.45-20.02-1.86-.78-4.05-1.68-6.1-1.55-.05,0-.09.01-.15.02-.09.03-.18.05-.26.03-4.3.6-7.58,6.07-6.91,10,.59,3.37,2.86,6.09,5.77,8.17.25,0,.44.1.53.37,3.3,2.22,7.3,3.64,10.6,4.27,7.53,1.26,14.89,3.1,21.66,6.71,5.24,2.8,9.99,6.41,15.32,9.04,17.84,8.81,37.43,8.71,56.05,2.6,24.19-7.94,49.33-25.03,74.95-12.72-3.54-4.18-9.03-6.45-14.26-7.57Z"/>
    <path class="st0" d="M231.13,224.71c-.77-35.89-1.51-71.79-3.76-107.62-.34.83-.75,1.63-1.26,2.36-4.32,6.12-11.71,1.08-14.2-4.14-3.7-7.71-4.07-17.36-4.71-25.74-.9-11.4-1.18-22.85-2.29-34.23-.79-8.25-1.32-18.4-7.49-24.63-8.93-8.98-22.02-12.8-34.17-14.81-25.1-4.16-53.62-2.83-78.27,3.47-9.3,2.38-19.81,5.94-26.41,13.34-1.6,1.79-3.65,5.25-3.71,6.88-.06,1.3-2.57,3.39-2.49,1.38.45-10.72,13.89-17.9,22.27-21.21,12.42-4.91,25.86-6.69,39.07-7.88,11.92-1.08,23.91-1.51,35.85-.77,12.25.76,24.85,2.63,36.13,7.69,7.68,3.45,15.68,8.68,18.5,16.96,3.05,8.92,3.38,18.95,3.99,28.26.71,11.08,1.02,22.2,2.36,33.23.86,7.04,1.67,18.49,9.57,21.48,4.88,1.85,6.4-4.37,6.55-12.08-.06-.78-.1-1.56-.16-2.36-.47-6.47-.99-12.97-1.6-19.46-.06-.41-.11-.76-.15-1-.01-.11,0-.24.02-.37-1.15-11.92-2.69-23.8-5.14-35.5-1.39-6.68-2.98-13.65-6.3-19.67-4.62-8.37-12.34-14.33-20.88-18.35C169.92-.68,142.6-.63,118.23.49c-24.16,1.13-53.89,1.49-72.61,19.27-10.8,10.26-15.18,25.26-13.85,39.87.61,6.75,2.09,14.62,9.34,17.16.21.08.41.11.62.18.09,0,.17.03.24.07,5.22,1.57,10.27.97,15.33-.88-.55-2.19-.78-4.45-.77-6.32.05-7.95,6.38-13.77,14.1-14.38,1.41-.1.15,3.06-1.18,3.16-3.08.24-7.75,2.09-9.48,5.46-2.75,5.3-.17,16.67,6.39,18.23,4.53,1.06,9.98-1.1,14.23-2.41,6.77-2.09,13.47-4.34,20.4-5.8,7.69-1.61,15.57-2.31,23.41-1.63,9.55.83,18.31,4.65,27.72,6.08,11.42,1.71,19-1.22,25.52-10.49,4.73-6.72,9.68-11.76,18.28-12.55,1.79-.16.7,2.98-.59,3.1-12.8,1.17-14.69,12.58-23.57,19.36-2.17,1.67-4.47,2.76-6.85,3.45-.18,12.51-.82,25.22-5.29,37.05-1.16,3.07-2.59,5.99-4.28,8.7,5.32,4.27,9.68,11.43,4.21,17.43-3.28,3.6-7.89,4.44-12.03,1.83-.29-.18-.62-.4-.99-.67,2.86,8.07-.1,17.25-10.51,18.64-8.87,1.17-13.34-6.19-14.69-13.84-1.34,5.27-5.52,10.19-10.89,9.6-7.48-.84-8.86-7.58-7.18-13.51-8.2-1.37-16-4.31-22.05-8.96-15.42-11.86-16.94-34.48-11.76-52.07-2.32.25-4.63.1-6.62-.94-2.2-1.16-3.71-3.39-4.7-5.91-1.85.66-3.78,1.14-5.71,1.49-3.08.57-6.38.77-9.47.31,1.11,10.53-8.5,21.32-15.74,27.16-7.83,6.31-14.62,11.25-19.24,20.52-3.79,7.62-6.06,16.23-6.25,24.75-.12,5.02.2,12.42,4.46,15.95,4.14,3.42,9.63-.18,13.94-1.43.76-.22,1.51-.4,2.25-.56.1-.03.2-.06.29-.06,8.41-1.72,16.18.1,24.71,1.63,7.12,1.29,17.25.63,19.46-7.83,3.53-13.49-18.11-24.31-22.05-8.96-.37,1.4-2.98,2.78-2.42.61,1.32-5.14,5.07-10.39,10.58-11.32,7.73-1.31,14.94,4.78,16.42,12.09,1.11,5.42-.67,11.28-4.84,14.97-7.33,6.49-17.05,3.6-25.56,1.97-5.06-.97-10.19-1.22-15.24-.39,1.21,7.96-2.9,16.58-7.22,23.2,1.87.17,3.77.84,5.6,1.61,6.85,2.91,13.05,7.45,19.24,11.53,14.55,9.63,29.09,18.96,46.61,21.83,8.22,1.34,16.54,1.62,24.67-.39,7.03-1.72,13.66-4.77,20.39-7.38,15.45-6.01,34.26-10.81,50.54-5.03,5.15,1.82,10.04,4.96,12.57,9.96.43.84.86,2.06.82,3.08h0v.02c-.05.95-.53,1.72-1.87,1.84-.35.02-.75-.07-1.2-.23-19.32-.32-34.69,10.54-49.51,22.02-14.5,11.25-31.11,16.84-49.1,19.81-13.72,2.26-27.57,2.9-41.43,3.77-8.15.51-16.33,1.24-24.51.98-3.16-.12-7.3-.14-10.23-1.85-4.07,5.87-7.21,12.94-8.42,19.92-2.02,11.6,3.26,24.11,16.33,24.24,9.78.1,19.57-4.34,28.53-7.79,9.7-3.72,19.5-7.71,29.97-8.49,25.16-1.9,50.58,13.72,75.39,6.49,4.72-1.38,10.14-4.05,14.42-7.75.32-.28.64-.56.95-.86,4.07-3.82,6.9-8.63,6.71-14.2-.32-10.1-11.72-16.54-20.8-16.47-7.5.06-17.08,4.96-18.21,13.15-.63,4.65,2,9.08,5.8,11.57-.56-7.37,9.23-15.09,15.39-9.5,3.77,3.42,1.98,9.35-1.52,12.19-3.22,2.6-7.41,3.16-11.26,2.16-.18.02-.37-.02-.53-.14-.01,0-.01-.01-.01-.01-2.02-.6-3.92-1.63-5.5-3.01-10.16-8.86-2.72-22.71,7.54-27.47,5.26-2.44,11.53-2.6,17.1-.82,13.59-1.64,29.02-8.91,34.9-21.83,8.52-18.72-1.65-40.35-22.23-43.35-17.38-2.55-36.3,4.09-52.31,9.97-11.74,4.32-22.58,9.81-35.37,9.76-9.85-.05-19.51-2.82-28.35-7.03-14.72-7.03-26.96-17.89-38.37-29.35-.93-.93,1.02-3.72,2.14-2.61,15.3,15.35,33.04,30.44,54.92,34.74,13.65,2.67,25.28-.63,37.9-5.64,11.8-4.7,23.93-8.89,36.4-11.42,14.03-2.85,29.99-3.98,41.37,6.4,13.74,12.54,11.53,36.12-.76,48.86-6.56,6.8-15.93,11.5-25.35,13.64,3.88,2.3,7.06,5.71,8.69,10.12,2.71,7.32-.68,14.86-5.73,20.57,11.57,1.65,24.19,1.7,34.44-4.6,8.57-5.27,13.4-14.31,15.82-23.81,3.93-15.42,2.4-31.63,2.07-47.36ZM182.29,253.74c-22.2-2.46-44.04,10.35-56.79,27.73,1.24,8.83,7.09,17.09,15.73,20.05,1.25.43-.34,3.46-1.72,2.99-9.31-3.19-15.18-12.23-16.49-21.63-10.04-5.05-19.27,3.14-28.34,6.39-9.14,3.28-17.25-3.22-26.41-.05-4.4,1.53-8.63,4.42-13.33,4.95-2.91.32-5.6-.51-8.43-.94-4.15-.64-21.12.36-19.13,8.03.32,1.25-1.95,3.72-2.39,2.06-1.07-4.1,2.15-8.07,5.4-10.08,4.26-2.63,9.85-3.77,14.82-3.46,4.67.29,8.77,2.1,13.45.6,5.5-1.77,10.33-5.24,16.26-5.61,6.88-.41,12.56,3.92,19.61,1.67,9.76-3.11,19.03-11.78,29.72-6.79,13.28-18.1,36.11-31.64,59.24-29.06,1.53.16.14,3.3-1.18,3.15Z"/>
  </g>
</svg>