<?xml version="1.0" encoding="UTF-8"?>
<svg id="Layer_1" xmlns="http://www.w3.org/2000/svg" version="1.1" viewBox="0 0 1793.6 416.51">
  <!-- Generator: Adobe Illustrator 30.5.1, SVG Export Plug-In . SVG Version: 2.1.4 Build 3)  -->
  <defs>
    <style>
      .st0 {
        fill: #2d2e2d;
      }
    </style>
  </defs>
  <path class="st0" d="M1565.51,351.02c8.44-.85,14.2,6.76,21.38,9.72,2.91,1.22,6.02,2.07,9.22,2.67-5.69-3.72-9.85-8.93-14.69-14.77-3.24-3.91-9.84-9.96-15.36-10.02-4.6-.05-6.82,4.5-4.33,8.39.97,1.53,2.36,2.9,3.79,4.01Z"/>
  <path class="st0" d="M1585.1,172.85c-.38,3.92-.16,8.02.65,11.89,1.21-.07,2.43-.14,3.64-.2,2.91-.16,5.8-.31,8.71-.47,3.64-8.07,2.26-18.78.3-27.21-8.04,2.61-12.46,7.3-13.31,15.99Z"/>
  <path class="st0" d="M1620.56,151.77c-1.17.2-2.36.39-3.53.6v1.78c1.18-.07,2.36-.13,3.53-.2v-2.18Z"/>
  <path class="st0" d="M1620.56,157.04c-1.17.06-2.34.13-3.53.2v4.48c1.18-.06,2.36-.11,3.53-.18v-4.49Z"/>
  <path class="st0" d="M1620.56,164.63c-1.17.07-2.34.13-3.53.18v3.92c1.18-.05,2.36-.09,3.53-.15v-3.95Z"/>
  <path class="st0" d="M1620.56,171.68c-1.17.06-2.34.1-3.53.15v4.83c1.18-.05,2.36-.09,3.53-.14v-4.84Z"/>
  <path class="st0" d="M1617.03,183.07c1.18-.07,2.36-.13,3.53-.2v-3.25c-1.17.05-2.34.09-3.53.15v3.3Z"/>
  <path class="st0" d="M1623.05,151.37v2.45c1.61-.09,3.23-.18,4.84-.28-.02-.94-.03-1.9-.06-2.85-1.6.22-3.2.44-4.78.68Z"/>
  <path class="st0" d="M1623.05,161.41c1.66-.08,3.32-.17,4.99-.25-.03-1.52-.06-3.02-.09-4.53-1.63.09-3.26.18-4.9.28v4.5Z"/>
  <path class="st0" d="M1623.05,168.48c1.7-.07,3.41-.14,5.11-.22-.02-1.33-.05-2.68-.07-4.01-1.69.08-3.37.17-5.05.25v3.98Z"/>
  <path class="st0" d="M1623.05,176.42c1.76-.07,3.5-.15,5.26-.22-.02-1.61-.06-3.22-.09-4.84-1.72.08-3.45.15-5.17.22v4.84Z"/>
  <path class="st0" d="M1623.05,182.75c1.79-.09,3.59-.2,5.39-.29-.02-1.06-.05-2.1-.06-3.16-1.78.08-3.56.15-5.33.22v3.23Z"/>
  <path class="st0" d="M1578.99,223.11c4.3,1.92,8.79,3.44,13.39,4.65h.05c.13.05.24.08.37.1,3.22.84,6.48,1.54,9.78,2.11h.01c.13-.02.25,0,.34.06h.01c7.88,1.36,15.92,2.06,23.75,2.53-9.7-4.77-15.83-13.53-13.46-26.2,1.71-9.12,7.83-16.54,15.77-20.85-14.96.8-29.94,1.6-44.91,2.39-.03.01-.07.01-.1.01-7.43.39-14.87.78-22.3,1.18-.1,2.48-.14,4.98-.13,7.46.02,4.55-.23,9.32,1.78,13.53,3.02,6.31,9.49,10.29,15.65,13.02Z"/>
  <path class="st0" d="M1608.62,396.06c6.08.75,12.42-1.74,16.55-6.21,5.99-6.49,4.76-13.85,2.53-21.54-2.2-7.61-1.92-15.33.22-22.9,2.29-8.14,8.33-16.46,2.42-24.5-4.88-6.64-13.74-8.85-21.56-8.94-4.3,3.16-9.77,3.54-15.5,3.2-9.35-.57-17.43,1.22-25.4,4.91,2.16,5.02,1.84,10.64-.68,15.47t-.01.02c.72,0,1.45.09,2.17.28,6.78,1.8,12.32,7.7,16.39,13.14,5.61,7.48,12.08,13.11,21.29,15.58h.03c.44.02.87.03,1.31.05,1.48.03.15,3.19-1.2,3.16-.36-.01-.7-.02-1.05-.03-.06,0-.1,0-.16-.01-.02,0-.03.01-.06,0-.02,0-.05-.01-.07-.01-5.86-.23-11.85-1.1-17.44-2.84-8.08-2.51-14.8-11.6-23.8-10.65-.01,0-.01.01-.01.01-.07.02-.14.03-.21.03-.03,0-.08-.01-.11-.01s-.08.01-.12.01c-3.92.54-5.87,5.62-3.75,8.98.72,1.16,1.92,1.9,2.93,2.77,1.31,1.1,2.49,2.18,3.39,3.54,9.53,1.67,18.78,7.15,25.48,13.95,5.25,5.32,8.24,11.56,16.4,12.56Z"/>
  <path class="st0" d="M1630.34,150.37c.02,1.01.05,2.02.06,3.03,1.55-.08,3.1-.17,4.64-.25-.02-1.11-.04-2.23-.08-3.34-1.54.18-3.08.37-4.62.56Z"/>
  <path class="st0" d="M1630.45,156.49c.03,1.51.06,3.02.09,4.54,1.56-.08,3.11-.16,4.68-.24-.03-1.53-.07-3.05-.11-4.56-1.55.08-3.1.17-4.65.26Z"/>
  <path class="st0" d="M1630.6,164.11c.02,1.36.05,2.7.08,4.05,1.56-.07,3.14-.13,4.71-.2-.03-1.37-.07-2.72-.1-4.09-1.56.08-3.13.16-4.69.24Z"/>
  <path class="st0" d="M1630.74,171.26c.02,1.61.06,3.23.09,4.84,1.59-.06,3.16-.13,4.75-.2-.03-1.61-.08-3.23-.12-4.84-1.57.07-3.15.13-4.72.2Z"/>
  <path class="st0" d="M1635.73,182.07c-.02-1.02-.05-2.05-.08-3.07-1.59.07-3.17.14-4.76.2.02,1.05.03,2.09.06,3.13,1.6-.08,3.18-.16,4.78-.25Z"/>
  <path class="st0" d="M1677.07,179.88c4.83-10.43,4.17-23.29-1.61-33.3-.02-.05-.03-.09-.05-.14-7.61.31-15.17.85-22.65,1.53-4.47,10.47-4.79,23,.4,33.18,7.96-.41,15.94-.84,23.9-1.26Z"/>
  <path class="st0" d="M1678.29,259.78c1.49.92,3.11,1.63,4.81,2.17,0,.01.01.01.02.01-4.9-7.23-5.84-18.82-6.5-26.68-3.17.17-6.32.33-9.47.49.01,8.98,3.3,19.16,11.14,24.01Z"/>
  <path class="st0" d="M1688.54,262.93c.08.06.14.13.2.21,1.99.24,4.06.35,6.13.35-2.7-4.76-3.46-11.01-4.24-16.16-.64-4.23-1.14-8.5-1.44-12.79-3.32.22-6.63.41-9.95.6t-.01.01c.76,8.87,2.16,22.51,9.32,27.79Z"/>
  <path class="st0" d="M1692.5,146.17c.03,1.23.07,2.46.1,3.7,1.48-.03,2.97-.06,4.45-.09-.02-1.17-.06-2.34-.09-3.53-1.48-.03-2.98-.07-4.46-.08Z"/>
  <path class="st0" d="M1692.68,153c.05,1.34.08,2.69.12,4.05,1.48-.03,2.97-.08,4.45-.12-.03-1.33-.07-2.68-.12-4.01-1.48.02-2.97.06-4.45.08Z"/>
  <path class="st0" d="M1692.89,160.16c.02,1.02.06,2.03.08,3.06,1.48-.06,2.95-.1,4.44-.15-.03-1.01-.06-2.01-.08-3.01-1.48.03-2.95.07-4.44.1Z"/>
  <path class="st0" d="M1693.06,166.32c.05,1.64.09,3.29.14,4.93,1.47-.06,2.94-.13,4.41-.18-.05-1.63-.08-3.26-.13-4.9-1.47.06-2.95.1-4.43.15Z"/>
  <path class="st0" d="M1697.82,178.78c-.05-1.54-.08-3.08-.13-4.61-1.47.06-2.93.13-4.4.18.05,1.55.09,3.1.13,4.65,1.47-.08,2.93-.15,4.4-.23Z"/>
  <path class="st0" d="M1698.66,263.39c2.34-.1,4.67-.29,6.87-.47-2.39-4.45-2.91-10.39-3.53-15.01-.63-4.71-1.07-9.48-1.29-14.24-2.72.23-5.45.44-8.17.63-.25.02-.52.03-.78.06.29,3.65.71,7.3,1.25,10.91.89,5.77,1.69,13.17,5.5,17.86.06.08.1.17.14.26Z"/>
  <path class="st0" d="M1699.48,146.32c.02,1.14.06,2.28.09,3.41,1.61-.02,3.22-.06,4.83-.08-.05-1.05-.09-2.08-.14-3.11-1.59-.08-3.18-.16-4.78-.22Z"/>
  <path class="st0" d="M1699.66,152.87c.03,1.33.07,2.67.1,4,1.66-.05,3.31-.08,4.95-.13-.06-1.32-.12-2.64-.17-3.96-1.63.03-3.25.06-4.88.09Z"/>
  <path class="st0" d="M1699.84,159.99c.02,1,.06,2,.08,2.99,1.69-.06,3.38-.11,5.07-.17-.05-.98-.09-1.95-.14-2.93-1.67.03-3.33.08-5.01.12Z"/>
  <path class="st0" d="M1700,166.09c.05,1.62.08,3.24.13,4.87,1.74-.08,3.47-.15,5.21-.23-.07-1.61-.14-3.22-.21-4.83-1.71.07-3.41.13-5.13.18Z"/>
  <path class="st0" d="M1705.68,178.36c-.07-1.52-.14-3.02-.21-4.53-1.75.07-3.5.15-5.26.22.04,1.53.08,3.06.13,4.59,1.78-.09,3.56-.18,5.34-.28Z"/>
  <path class="st0" d="M1679.87,207.84c.07-.22.1-.42.08-.62-.01-.06-.03-.11-.03-.17-.01-.06-.02-.13-.03-.17-2.08-11.94-30.82-11.16-30.99,1.53-.16,12.48,29.05,11.7,30.98-.56Z"/>
  <path class="st0" d="M1615.5,206.62c-2.45,15.85,10.15,24.22,24.28,26.47.1.01.2.06.27.09h.03c6.9.2,13.81.17,20.69-.18h.05c8.04-.4,16.09-.86,24.14-1.4,2.92-.2,5.87-.39,8.83-.6,3.98-1.75,7.87-3.59,11.09-6.62,7.07-6.65,7.75-16.9,4.38-25.65-3.72-9.69-13.85-15.95-24.11-16.19-11.07.6-22.12,1.18-33.19,1.77-.18.08-.36.1-.51.02-4.22.23-8.42.45-12.64.68-11.28,1.93-21.5,9.94-23.32,21.62ZM1662.38,192.41c10.07-.79,29.59,1.64,31.01,14.69.06.13.08.31.07.55,0,.13-.01.24-.05.37-1.04,11.28-14.88,15.5-24.39,16.26-9.5.75-31.02-1.7-31.07-15.24-.06-11.53,15.51-15.92,24.43-16.63Z"/>
  <path class="st0" d="M1709.38,262.61c2.05-.15,4.14-.32,6.22-.55-2.63-7.98-4.17-16.57-4.17-25.04,0-1.47.05-2.93.14-4.39-2.76.3-5.53.57-8.3.83.18,3.54.49,7.08.92,10.61.68,5.7,1.14,13.88,5.01,18.56.07,0,.13-.01.18-.01Z"/>
  <path class="st0" d="M1706.82,146.68c.04.98.09,1.95.14,2.93,2.08-.05,4.17-.08,6.26-.11-.03-.78-.07-1.55-.1-2.33-2.09-.18-4.19-.36-6.3-.48Z"/>
  <path class="st0" d="M1707.09,152.73c.06,1.32.12,2.63.17,3.95,2.08-.06,4.16-.1,6.25-.16-.06-1.3-.11-2.61-.17-3.91-2.08.03-4.17.08-6.25.11Z"/>
  <path class="st0" d="M1707.4,159.8c.05.98.08,1.94.13,2.91l6.24-.21c-.05-.95-.08-1.91-.13-2.85-2.08.05-4.16.1-6.24.15Z"/>
  <path class="st0" d="M1707.67,165.82c.07,1.6.14,3.19.21,4.8,2.08-.09,4.15-.18,6.23-.28-.07-1.57-.14-3.16-.21-4.75-2.07.08-4.15.15-6.23.22Z"/>
  <path class="st0" d="M1711.38,178.05c1.01-.06,2.03-.1,3.04-.16-.07-1.48-.13-2.95-.2-4.44-2.07.09-4.14.17-6.22.26.07,1.51.14,3,.21,4.51,1.05-.06,2.1-.11,3.16-.17Z"/>
  <path class="st0" d="M1718.57,261.67c1.33-.18,2.65-.41,3.96-.69-1.97-5.25-3.06-10.93-2.94-16.38.09-4.91,1.44-9.43,3.69-13.45-3.09.45-6.18.85-9.3,1.2-.48,9.91,1.3,20.03,4.57,29.33,0-.01.01-.01.01-.01Z"/>
  <path class="st0" d="M1626.39,265.33c-.24-4.5-3.29-8.31-7.83-9.09-4.86-.82-9.89,2.53-9.93,7.71-.06,10.58,17.13,12.92,17.76,1.38ZM1617.56,260.94c2.23.39,3.8,2.25,3.93,4.49-.29,5.25-8.56,3.33-8.44-1.38.06-2.33,2.4-3.48,4.5-3.11Z"/>
  <path class="st0" d="M1555.81,323.02c3.17-.53,6.22-2.24,9.24-4.03.57-.34,1.14-.69,1.71-1.02,2.08-1.24,4.16-2.41,6.27-3.19,8.35-3.05,16.21-2.64,24.93-2.47,7.64.15,14.66-4.05,15.06-12.3.31-6.39-3.53-11.81-9.79-13.25-5.17-1.18-10.83.51-11.19,6.5-.08,1.29-2.61,3.38-2.48,1.38.84-13.83,19.62-15.09,24.7-3.11,2.26,5.34,1.41,11.76-1.79,16.54-.2.29-.39.57-.6.84,12,.87,26.11,8.03,23.34,22.12-1.53,7.77-5.87,14.36-6.48,22.51-.62,8.38,3.76,15.54,3.55,23.7-.22,9.18-6.37,17.39-14.87,20.65-4.16,1.6-8.8,1.97-13.1.68-5.54-1.67-8.27-5.63-11.82-9.84-6.01-7.11-14.89-13.05-24.16-15.42,1.3,4.99.69,10.83,1.8,15.82,1.56,6.96,4.79,13.62,10.69,17.9,7.68,5.6,17.61,5.77,26.72,6.37,8.91.57,18.57,1.09,27.16-1.83,10.49-3.56,12.31-12.28,11.94-22.41-.32-9.1-2.33-18.16-1.84-27.29.52-9.46,4.01-17.97,9.03-25.91,1.13-1.77,2.92-.75,1.79,1.03-4.57,7.24-7.85,14.87-8.34,23.5-.33,5.95.48,11.87,1.1,17.78,1,9.49,2.63,21.28-3.71,29.38-1,1.28-2.13,2.37-3.36,3.31,22.18,7.12,49.06,8.29,70.26-1.79-5.25-5.76-6.79-13.94-5.29-22.67,1.2-6.88,4.91-13.99,10.47-18.49-1.77-1.67-3.39-3.53-4.83-5.61-13.46-19.56-8.27-47.54-4.76-69.35,1.83-11.41,7.4-21.43,17.62-26.96-.4-.77-.78-1.56-1.13-2.37-5.04,1.2-10.32,1.71-15.49,2.06h-.01c-.14.05-.27.06-.4.02t-.01,0c-.39.03-.77.06-1.15.08-9.77.63-22.38,2.28-30.92-3.69-8.06-5.63-11.29-16.77-10.97-26.28-1.7.08-3.4.16-5.1.25h-.05c-.87.05-1.75.07-2.63.1-15.54.51-31.21-.02-46.63-1.99-2.49-.32-5.14-.67-7.87-1.08-1.06,1.43-2.03,2.92-2.91,4.46-.68,1.2-2.07,3.11-2.03,4.5.08,2.56,1.92,2.37,4.16,2.11,7.65-.84,14.89-3.34,22.66-1.68,8.65,1.85,15.65,9.17,23.43,13.19,5.01,2.6,10.19,4.96,15.48,6.95,1.25.47-.37,3.49-1.72,2.98-7.33-2.75-14.54-6.14-21.27-10.14-4.76-2.83-8.95-7.08-14.17-9-5.83-2.14-12.17-1.51-18.15-.44-3.65.64-13.24,4.18-12.99-2.41.14-3.73,2.75-7.68,5.16-10.91-2.59-.43-5.22-.92-7.86-1.52h-.01c-6.11,15.12-19.08,23.9-31.19,34.2-7.09,6.03-11.11,13.81-14.16,22.58-2.8,8.09-4.8,17.61-2.26,26.03,1.54,5.1,5.37,9.89,11.24,8.91ZM1678.31,335.94c1.82-1.33,1.89,1.52.68,2.4-20.28,14.97-18.46,44.47-7.89,64.81.62,1.21-1.48,3.88-2.14,2.61-11.47-22.09-12.51-53.67,9.35-69.82ZM1597.52,256.01c9.12-4.71,20.86-6.33,30.63-2.93,8.66,3.02,16.03,8.85,24.9,11.72,3.88,1.26,7.95,2.36,12.03,2.79,1.53.16.14,3.29-1.18,3.15-6.07-.64-12.09-2.4-17.82-4.8-10.07,6.65-29.68,19.03-40.68,7.77-3.92-4.01-5.6-10.3-5.61-15.9-.75.32-1.48.68-2.22,1.06-1.82.93-1.22-2.24-.05-2.85Z"/>
  <path class="st0" d="M1761.57,175.39c-.55-4.86-2.29-9.84-4.95-13.81-4.67-6.95-12.17-9.19-19.94-10.87-.45-.1-.91-.18-1.36-.28-1.77,8.75-.56,18.23,3.36,26.18,7.63-.41,15.26-.82,22.89-1.22Z"/>
  <path class="st0" d="M1746.63,379.88c-2.53-.24-5.06-.61-7.55-1.1-.88,1.51-1.6,3.16-1.94,4.84-1.3,6.44,4.23,8.45,9.55,9.41,4.34.79,10.48,1.84,14.41-.87,3.86-2.67,2.73-8.4,1.84-12.26-.02-.14-.02-.29,0-.44-5.36.91-10.94.93-16.31.43Z"/>
  <path class="st0" d="M1725.81,261.1c.54,1.25,1.13,2.47,1.77,3.64,3.43-1.48,6.98-2.39,10.58-2.92-2.68-6.91-3.94-15.25-1.45-22.21,2.86-8.01,11-12.56,19.16-13.33,6.78-.63,16.8,1.91,16.61,10.45-.17,8.02-8.33,11.99-15.35,11.85-1.49-.02-.16-3.17,1.18-3.15,4.24.08,9.64-1.05,11.23-5.62,1.26-3.62-.8-6.64-3.81-8.47-4.75-2.9-11.38-2.42-16.41-.69-13.65,4.68-12.93,19.59-8.07,30.79,2.46-.24,4.94-.34,7.43-.38h.01c9.37-.13,19.96.62,28.68,4.68,10.46-9.23,11.38-24.41,4.98-36.48-2.7-5.1-7.1-8.83-12.22-11.15-1.03-.47-2.11-.88-3.21-1.24-4.22-1.38-8.77-1.87-13.15-1.47-9.46.87-19.03,5.14-25.13,12.04-.92,1.03-1.77,2.14-2.52,3.3-2.76,4.24-4.3,9.26-4.01,14.92.25,4.96,1.47,10.14,3.44,14.87.16.11.24.32.25.57Z"/>
  <path class="st0" d="M1594.54,155.34c13.59-5.79,29.64-7.37,44.16-9,12.65-1.43,25.39-2.31,38.13-2.65.16-.06.32-.07.47-.01,5.99-.16,11.97-.21,17.96-.11,16.39.25,33.64.91,49.43,5.73,11.83,3.61,18.69,13.83,19.47,25.95,7.49-.4,14.97-.79,22.47-1.2-1.18-7.85-3.93-15.38-8.31-20.86-11.63-14.57-32.72-18.53-50.2-20.32-22.24-2.28-44.76-1.01-67,.72-9.94.78-19.87,1.72-29.81,2.54-10.8.87-21.66,1.18-32.27,3.6-9.39,2.14-18.86,5.87-25.56,13.05-6.55,7.01-9.49,16.38-10.85,25.68-.37,2.51-.62,5.01-.78,7.53,7.04-.37,14.09-.75,21.13-1.13-1.85-11.09.23-24.71,11.55-29.53Z"/>
  <path class="st0" d="M1737.46,179.75c-.18.08-.36.1-.51.03-13.23.7-26.45,1.4-39.67,2.1,8.22,3.73,14.35,11.31,15.93,20.66.3,1.8.45,3.53.45,5.18,0,10.15-5.49,17.57-13.7,22.8.75-.05,1.48-.1,2.23-.16h.01c.22-.1.41-.13.57-.05h.01c3.47-.29,6.95-.59,10.43-.94.28-.15.53-.2.7-.07,0,0,0-.01.01-.01,3.82-.39,7.63-.85,11.43-1.38,9.79-13.33,30.07-19.66,45.47-13.24,6.58-4.04,12-9.6,14.42-17.43,1.84-5.94,2.43-13.07,1.73-20.13-9.4.5-18.8,1-28.2,1.5-7.11.38-14.23.75-21.34,1.13Z"/>
  <path class="st0" d="M1782.01,370.23c-1.9,1.86-3.98,3.42-6.18,4.7h-.01c8.8,6.55,12.76,19.52,3.53,27.8-7.62,6.83-21.54,6.61-31.07,6.27-9.92-.33-26.17-1.49-30.79-12.19-3.5-8.1,1.21-17.21,6.95-23.26h0c-2.08-1.16-4.07-2.48-5.91-4-9.68,6.54-12.66,21.34-8.62,31.79,1.01,2.62,2.61,4.76,4.6,6.49.24.02.39.17.46.39,7.02,5.8,18.51,7.06,26.82,7.45,12.08.57,25.01-.36,36.66-3.8,8.49-2.51,14.14-9.25,14.63-18.21.52-9.27-4.31-17.48-10.62-23.87l-.45.45Z"/>
  <path class="st0" d="M1758.77,313.21c-4.91-.84-9.99,2.55-10.02,7.78-.06,10.7,17.3,13.03,17.93,1.39-.24-4.55-3.32-8.4-7.91-9.17Z"/>
  <path class="st0" d="M1755.31,302.37c-9.18.99-16.31,9.32-16.28,18.48.03,10.06,8.79,18.11,18.84,17.1,9.43-.95,15.7-9.16,16.25-18.19.02-.09.03-.2.02-.29.01-.18,0-.32-.03-.44-.69-9.77-8.57-17.76-18.79-16.66ZM1741.52,319.47c.03-9.18,8.87-15.46,17.57-13.74,7.36,1.44,12.22,7.81,12.56,15.12-.93,19.59-30.2,17.16-30.13-1.38Z"/>
  <path class="st0" d="M1776.73,269.17c-.47.18-.75-.03-.87-.43-8.62-4.1-19.14-4.65-28.36-4.54h-.01c-7.14.1-14.3.83-20.8,3.79-.01.01-.02.02-.03.02-.07.02-.15.06-.23.1-.85.39-1.68.82-2.5,1.3-13.12,7.58-14.4,22.25-16.2,35.83-2.64,20.03-4.77,46.3,12.08,60.96.05.02.07.05.1.08.33.3.68.59,1.02.86,10.58,8.47,25.89,10.87,39.07,9.68,11.71-1.07,21.88-6.59,27.19-17.35,4.53-9.2,5.49-19.88,5.91-29.99.37-9.22.72-18.57.36-27.79-.37-9.43-2.02-19.44-8.71-26.6-2.33-2.49-5.05-4.44-8-5.93ZM1786.75,343.47c-2.99,18.55-16.94,27.19-34.69,27.42-12.62.15-27.53-1.78-34.54-13.73-5.16-8.79-4.98-19.73-4.79-29.59.31-16.81-1.13-38.23,11.68-51.24,14.86-15.11,46.83-10.6,58.33,6.56,11.45,17.08,7.07,41.62,4.02,60.59Z"/>
  <path class="st0" d="M31.75,227.36c1.44-3.08,2.13-6.67,2.95-9.94,1.07-4.19,2.03-8.42,2.93-12.66-2.74.16-5.46.46-8.19.92-4.37.74-10.03,2.24-14.24.14-1.75,4.31-3.32,8.75-4.36,13.25-.74,3.22-1.65,6.25,1.74,7.9,3.48,1.69,7.75,2.36,11.57,2.73,3.34.32,6.1.87,7.6-2.33Z"/>
  <path class="st0" d="M39.95,204.65c-1.33,6.3-2.79,12.58-4.64,18.74-.34,1.16-.68,2.19-1.03,3.15,5.52,1.13,18.32,4.31,20.31-.77,2.34-6.06,2.57-13.42,2.82-19.93-5.78-.92-11.61-1.37-17.44-1.2Z"/>
  <path class="st0" d="M46.53,62.05c5.23-.05,10.45-.08,15.66-.11v-31.19H23.83c-.93,2.61-1.64,5.41-2.11,8.42-1.09,7.09-2.19,15.7-.91,23.06,8.57-.07,17.15-.13,25.72-.18Z"/>
  <path class="st0" d="M64.68,30.75v31.17c4.47-.02,8.94-.06,13.42-.09v-31.07h-13.42Z"/>
  <path class="st0" d="M76.06,228.34c.57-.17,1.02-.84,1.4-1.8l.61-2.16c.94-4.46,1.02-11.35,1.16-14.02-3.82-.56-7.61-1.42-11.24-2.33-2.71-.68-5.44-1.28-8.16-1.77-.2,6.32-.43,13.81-2.87,19.61,2.34.4,4.69.78,7.03,1.14,3.16.47,8.94,2.34,12.07,1.34Z"/>
  <path class="st0" d="M35.93,82.14c2.72,1.64,5.58,3.06,8.52,4.31.23-.03.42.03.54.24,9.21,3.85,19.27,5.98,29.28,7.31.06,0,.1.01.15.02,2.49.32,4.99.61,7.46.85-4.79-5.53-7.23-12.2-4.82-19.84,1.15-3.63,3.16-7.15,5.7-10.1-20.41.15-40.81.29-61.22.44,2.21,7.38,7.94,12.88,14.39,16.77Z"/>
  <path class="st0" d="M87.53,1.71c-14.11.9-28.18,2.78-41.14,7.38-10.29,3.65-17.26,9.81-21.27,18.5h58.9c-5.24-8.5-2.84-18.46,3.52-25.88Z"/>
  <path class="st0" d="M81.59,210.65c-.22,3.13-.51,6.26-.92,9.37-.15,1.08-.25,2.53-.47,4.03,3.59,1.22,7.47,1.53,10.91-.38,1.91-1.06,2.52-1.61,2.76-3.1.59-3.53,1.16-7.03,1.65-10.56-4.53,1.1-9.24,1.15-13.93.64Z"/>
  <path class="st0" d="M86.66,30.75h-6.07v2.67c5.11-.1,10.22-.22,15.33-.32v-2.34h-9.1c-.06.01-.1,0-.16,0Z"/>
  <path class="st0" d="M80.59,40.5c5.11-.14,10.22-.28,15.33-.41v-3.87c-5.11.1-10.22.22-15.33.32v3.96Z"/>
  <path class="st0" d="M80.59,47.96c5.11-.22,10.22-.45,15.33-.67v-4.09c-5.11.14-10.22.28-15.33.41v4.34Z"/>
  <path class="st0" d="M80.59,55.81c5.11-.18,10.22-.38,15.33-.57v-4.84c-5.11.22-10.22.45-15.33.67v4.75Z"/>
  <path class="st0" d="M80.59,61.8c5.11-.03,10.22-.07,15.33-.1v-3.34c-5.11.18-10.22.38-15.33.57v2.87Z"/>
  <path class="st0" d="M62.74,193.44c-11.72-3.22-24.41-6.68-36.68-4.96-2.84.4-6.86,1-9.01,3.16-2.79,2.54-5.42,6.67-1.91,9.79,3.1,2.74,6.67,2.61,10.33,1.99,4.72-.82,9.37-1.44,14.02-1.74.22-.08.43-.09.59-.03,4.59-.25,9.21-.2,13.94.36,1.76.21,3.52.49,5.29.84.16-.03.3-.01.4.07,12.53,2.46,25.26,7.38,37.87,3.59,3.52-1.06,7.72-3.4,10.2-6.26-14.56,4.8-31.05-2.95-45.04-6.79Z"/>
  <path class="st0" d="M97.95,209.31c-.26,2-.54,3.99-.86,5.98-.13.84-.23,1.77-.36,2.72,5.39-.85,8.58-8.31,10.3-13.94-1.51,1.34-3.18,2.52-4.88,3.42-1.37.74-2.77,1.33-4.19,1.82Z"/>
  <path class="st0" d="M98.4,30.75v30.92c4.25-.02,8.49-.06,12.74-.08v-30.84h-12.74Z"/>
  <path class="st0" d="M76.04,132.42c0,7.01,6.81,11.72,13.42,11.01,6.44-.69,11.07-5.73,11.63-12.02.03-.13.05-.25.05-.37.01-.24-.01-.41-.07-.54-1.53-14.9-25.04-12.86-25.03,1.92ZM82.99,131.45c-.03-2.98,2.26-6.01,5.27-6.41,3.03-.43,5.29,1.88,5.58,4.72.02.09.03.2.02.31.01.13-.01.26-.05.4-.32,2.91-2.3,5.7-5.38,6.02-3,.32-5.42-2.1-5.46-5.05Z"/>
  <path class="st0" d="M113.63,30.75v30.82c7.7-.06,15.39-.11,23.09-.16v-30.66h-23.09Z"/>
  <path class="st0" d="M151.65,30.75c-.21.08-.37.07-.49,0h-11.96v30.64c4.19-.02,8.4-.06,12.6-.09v-30.55h-.14Z"/>
  <path class="st0" d="M14.39,170.87c5.23-.2,9.09-2.75,13.78-4.61,9.79-3.91,21.57,4.7,31.04-2.01,7.18-5.1.67-16.97-6.91-17.36-3.71-.2-7.71,1.32-10.86,3.22-1.72,1.05-1.16-2.17-.05-2.84,4.16-2.52,9.8-4.46,14.65-3.17,6.39,1.69,9.84,10.09,8.3,16.19-3.32,13.23-20.93,8.73-30.26,7.99-4.85-.38-8.7,2.36-12.96,4.11,1.74,4.45,1.2,9.71-.17,14.28,1.09-.36,2.19-.63,3.19-.85,9.55-2.11,19.9-.41,29.27,1.74,12.34,2.83,24.32,7.09,36.66,9.86,7.1,1.59,13.65,1.95,20.41-1.1,6.3-4.84,16.38-10.48,23.87-4.73,5.73,4.41,4.98,12.66,2.38,18.57-1.94,4.4-5.77,7.71-5.83,12.76-.05,3.92,1.39,7.79,2.22,11.58,1.13,5.16,1.4,10.62-2.63,14.63-9.1,9.07-25.68,4.84-25.27-9.04.26-9.08,10.8-14.32,16.12-5.5,1.31,2.17,1.59,4.86.13,7.01-2.53,3.7-8.1,3.5-12.49,2.99.38.8.83,1.57,1.37,2.28,4.46,5.68,14.88,5.26,19.41-.25,4.02-4.9-.05-12.92-.94-18.42-.68-4.11-.45-8,1.6-11.7,3.39-6.14,9.26-13.78,3.52-20.62-6.12-7.3-16.73-1.72-22.68,2.79-.26.56-.57,1.1-.92,1.63-1.72,6.88-5.87,19.38-14.2,20.82-.2.63-.44,1.23-.76,1.77-3.16,5.39-10.38,5.95-15.87,4.47-.43,1.4-1.06,2.62-2,3.38-2.55,2.05-8.17.34-11.01-.05-3.73-.51-7.47-1.09-11.19-1.74-2.24,2.95-5.91,2.56-9.49,2.34-4.35-.28-8.71-.9-13.01-1.65-1.69,2.6-4.19,3.67-9.18,3.28-2.16-.17-4.88-.44-7.5-1-2.03,6.62-3.16,14.27-1.54,20.92,3.62,14.94,21.74,11.26,32.69,7.63,9.34-3.11,16.87-10.94,27.01-11.43,12.09-.59,22.27,5.93,32.97,10.48,16.15,6.87,32.92,4.7,48.77-2.51-1.32-3.01-1.94-6.53-1.99-10.42-.08-7.69,2.56-16.54,8.53-21.85-3.9-3.38-7.01-7.63-8.91-12.84-5.6-15.42-3.09-33.43.24-49.06,1.88-8.83,4.26-17.67,7.37-26.18-4.96,2.76-9.8,5.84-15.05,7.99-2.03.83-4.09,1.61-6.17,2.31-.16.12-.35.17-.52.18-9.51,3.19-19.49,5.06-29.55,5.09-16.66.06-36.74-4.25-42.31-20.55-.16-.11-.29-.36-.3-.76v-.2c-.57-1.9-.95-3.95-1.11-6.18-.65-9.26,1.88-19.18,5.87-27.64-1.37-.21-2.72-.41-4.08-.64-7.19-1.24-15.42-2.93-23.13-5.78-.84,5.42-3.92,10.37-7.18,14.7-6,7.96-13.58,14.73-21.29,20.98-10.46,8.47-18.74,24.05-15.82,37.97,1.38,6.56,7.92,6.96,13.8,6.75Z"/>
  <path class="st0" d="M88.05,27.59h64.11c2.52-1.63,4.82-3.93,6.35-6.47,4.91-8.12-1.17-15.72-7.44-20.82-.1-.08-.17-.18-.23-.29-10.54-.06-21.05.31-31.27.61-9.39.26-19.15.39-28.91.91-.02.02-.05.06-.07.08-7.7,7.21-9.48,17.73-2.55,25.98ZM118.26,7.51c4.03-.45,15.09-.69,16.31,5,.12.18.15.48.07.91-.92,5.36-8.06,6.44-12.46,6.67-3.62.18-14.46,0-14.65-5.68-.17-4.99,7.2-6.5,10.73-6.9Z"/>
  <path class="st0" d="M85.78,64.91c-2.36,2.17-4.31,4.98-5.6,7.88-3.92,8.78.1,16.59,6.84,22.55.55.05,1.09.09,1.63.14,10.25.8,20.65,1.18,30.92.68,8.84-.02,17.66-.18,26.49-.62,3.07-.15,6.19-.32,9.35-.52,7.38-6.53,10.26-14.78,4.64-23.36-1.79-2.72-4.15-5.29-6.78-7.23l-62.3.45c-1.74.01-3.47.02-5.21.03ZM136.84,78.53c.06.18.08.43.02.75-.95,6.02-8.86,7.45-13.85,7.72-4.22.23-16.3-.18-16.47-6.72-.29-10.89,28.68-11.5,30.29-1.75Z"/>
  <path class="st0" d="M154.28,30.75v3.73h11.56c-.03-1.24-.07-2.49-.09-3.73h-11.47Z"/>
  <path class="st0" d="M154.28,41.38h11.74c-.03-1.24-.07-2.49-.1-3.73h-11.64v3.73Z"/>
  <path class="st0" d="M154.28,49.29c3.98.08,7.96.15,11.95.23-.05-1.67-.08-3.33-.13-4.99h-11.82v4.76Z"/>
  <path class="st0" d="M154.28,56.47h12.14c-.03-1.25-.07-2.51-.1-3.76-4.01-.08-8.02-.16-12.03-.24v4Z"/>
  <path class="st0" d="M154.28,61.26c.15-.05.31-.03.45.01,2.09-.01,4.18-.02,6.29-.03,1.84-.02,3.68-.03,5.53-.05-.02-.53-.03-1.05-.05-1.57h-12.22v1.64Z"/>
  <path class="st0" d="M111.67,128.97c7.27,9.16,17.35,13.09,28.67,14.97,4.34-1.48,8.61-3.24,12.72-5.27,6.62-3.28,12.47-7.76,19.58-10,.38-.13.76-.22,1.14-.33-7.55-5.48-13.86-13.16-10.01-22.69,1.32-3.25,3.55-6.23,6.23-8.71-17.19,2.18-34.82,2.34-51.61,2.37-.95.05-1.91.08-2.86.1-9.87.25-19.82.01-29.69-.86-.07,0-.13,0-.2-.02-3.82-.33-7.62-.77-11.4-1.31-3.86,7.99-6.47,17.84-5.48,26.8,4.7-9.26,19.87-11.58,28.97-8.37,6.55,2.32,9.84,8.17,13.94,13.32ZM89.24,107.54c-5.09,1-10.25,2.87-14.66,5.64-1.7,1.07-1.14-2.16-.05-2.84,10.64-6.69,25.74-9.52,36.98-2.87,5.48,3.24,8.64,8.6,13.46,12.58,4.11,3.4,9.06,5.76,14.41,6.23,5.42.48,11.49-.86,16.08-3.92,1.65-1.11,1.11,2.13.05,2.84-12.62,8.43-27.9,3.53-37.28-7.16-7.75-8.83-17.3-12.8-28.98-10.5Z"/>
  <path class="st0" d="M169.06,61.18c3.94-.03,7.88-.06,11.81-.09-.39-10.11-.79-20.23-1.18-30.34h-11.42c.17,6.5.33,13.01.51,19.5,0,.03.01.07,0,.1.1,3.61.2,7.22.29,10.83Z"/>
  <path class="st0" d="M161.43,19.99c-1.25,2.84-3.24,5.44-5.58,7.6h72.73c-4.36-12.38-15.42-18.64-27.55-21.94C186.52,1.7,171.19.35,155.86.06c5.45,5.37,9.01,12.15,5.57,19.93Z"/>
  <path class="st0" d="M164.77,74.15c2.75,7.91-.64,15.02-5.94,20.64,18.88-1.33,38.74-4.13,55.15-13.01,7.73-4.17,13.72-10.09,16.56-17.9-8.35.06-16.7.13-25.05.18-15.69.1-31.37.22-47.05.33,2.78,2.78,5.08,6.14,6.33,9.76Z"/>
  <path class="st0" d="M218.98,104.85c-2.49-3.9-8.72-5.65-12.97-5.96-8.14-.62-21.41,3.17-24.9,11.55-2.65,6.4,2.88,11.96,8.26,14.57.16.08.28.2.34.34,3.44-.33,6.9-.48,10.32-.51,4.47-.03,8.96.16,13.39.83,2.83.43,6.11,1.95,8.98,1.59,7.7-.99,8.63-13.31,8.37-19.08-.47-10.1-4.84-19.4-11.71-26.71-4.48,3.13-9.55,5.55-14.65,7.45-9.65,3.59-19.81,5.91-30.15,7.45-.08.08-.17.16-.25.22-2.97,1.93-5.94,5.01-7.54,8.23-4.7,9.46,3.8,17.28,11.32,22.19.09.06.16.14.22.22,2.1-.48,4.23-.88,6.38-1.21-6.92-5.15-8.7-13.76-2.02-20.85,8.73-9.27,26.81-13.76,37.14-4.6,8.52,7.56-1.88,16.12-10.23,15.87-4.07-.13-11.58-2.14-11.46-7.34.1-4.16,4.65-7.14,8.32-7.8,7.39-1.36,13.55,4.87,11.37,10.22,2.28-1.37,3.49-3.56,1.49-6.67Z"/>
  <path class="st0" d="M183.42,61.07c16.03-.11,32.05-.23,48.08-.34.31-1.32.54-2.68.68-4.09.82-8.23-.21-17.72-2.59-25.89h-47.36c.39,10.11.79,20.21,1.18,30.33Z"/>
  <path class="st0" d="M222.63,226.19c-4.15,3.17-8.96,5.59-14.18,7.08,3.53,4.77,4.7,10.6.17,15.35-4.85,5.1-13.79,6.03-20.25,4.13-8.76-2.57-7.75-11.86-4.23-18.43-7.23-1.24-14.18-3.88-19.8-8.14-8.17,5.8-10.58,22.04-5.1,30.89,6.09,9.83,22.52,8.26,32.25,7.88,12.32-.47,34.56-.15,41.96-12.91,5.37-9.26.8-25.19-10.81-25.86Z"/>
  <path class="st0" d="M197.7,164.24c-6.78-1.14-13.65,3.75-13.69,10.91-.06,14.69,23.39,17.23,24.24,1.38-.33-6.08-4.41-11.24-10.55-12.28Z"/>
  <path class="st0" d="M218.38,130.15c-4.57-.88-8.88-1.79-13.57-2.03-11.29-.57-23.32.32-34.05,4.08-2.3.8-4.52,1.82-6.69,2.94-3.45,9.1-6.01,18.62-7.99,28.13-3.03,14.62-5.23,31.13-.37,45.59,6.3,18.74,28.71,25.1,46.83,22.67,9.83-1.31,19.41-5.85,25.76-13.61,5.96-7.27,6.55-15.84,7.45-24.83,2.25-22.55.62-46.04-16.39-62.79-.32-.05-.65-.09-.99-.15ZM226.52,188.35c-.79,8.58-2.64,17.58-7.61,24.81-9.52,13.85-30.88,13.65-43.66,4.24-14.32-10.54-13.78-34.42-10.25-49.84,2.31-10.06,7.65-21.93,16.89-27.59.08-.07.17-.14.28-.17.14-.09.26-.14.38-.17,8.01-3.5,17.24-6.09,25.83-3.11,8.5,2.94,13.48,10.79,15.94,19.06,3.11,10.42,3.18,22.03,2.2,32.77Z"/>
</svg>