<?xml version="1.0" encoding="UTF-8"?>
<svg id="Layer_1" xmlns="http://www.w3.org/2000/svg" version="1.1" viewBox="0 0 236.51 265.27">
  <!-- Generator: Adobe Illustrator 30.5.1, SVG Export Plug-In . SVG Version: 2.1.4 Build 3)  -->
  <defs>
    <style>
      .st0 {
        fill: #2d2e2d;
      }
    </style>
  </defs>
  <path class="st0" d="M31.71,227.36c1.44-3.08,2.13-6.67,2.95-9.94,1.07-4.19,2.03-8.42,2.93-12.66-2.74.16-5.46.46-8.19.92-4.37.74-10.03,2.24-14.24.14-1.75,4.31-3.32,8.75-4.36,13.25-.74,3.22-1.65,6.25,1.74,7.9,3.48,1.69,7.75,2.36,11.57,2.73,3.34.32,6.1.87,7.6-2.33h0Z"/>
  <path class="st0" d="M39.91,204.65c-1.33,6.3-2.79,12.58-4.64,18.74-.34,1.16-.68,2.19-1.03,3.15,5.52,1.13,18.32,4.31,20.31-.77,2.34-6.06,2.57-13.42,2.82-19.93-5.78-.92-11.61-1.37-17.44-1.2h-.02Z"/>
  <path class="st0" d="M46.49,62.05c5.23-.05,10.45-.08,15.66-.11v-31.19H23.79c-.93,2.61-1.64,5.41-2.11,8.42-1.09,7.09-2.19,15.7-.91,23.06,8.57-.07,17.15-.13,25.72-.18Z"/>
  <path class="st0" d="M64.64,30.75v31.17c4.47-.02,8.94-.06,13.42-.09v-31.07h-13.42Z"/>
  <path class="st0" d="M76.02,228.34c.57-.17,1.02-.84,1.4-1.8l.61-2.16c.94-4.46,1.02-11.35,1.16-14.02-3.82-.56-7.61-1.42-11.24-2.33-2.71-.68-5.44-1.28-8.16-1.77-.2,6.32-.43,13.81-2.87,19.61,2.34.4,4.69.78,7.03,1.14,3.16.47,8.94,2.34,12.07,1.34h0Z"/>
  <path class="st0" d="M35.89,82.14c2.72,1.64,5.58,3.06,8.52,4.31.23-.03.42.03.54.24,9.21,3.85,19.27,5.98,29.28,7.31.06,0,.1.01.15.02,2.49.32,4.99.61,7.46.85-4.79-5.53-7.23-12.2-4.82-19.84,1.15-3.63,3.16-7.15,5.7-10.1-20.41.15-40.81.29-61.22.44,2.21,7.38,7.94,12.88,14.39,16.77h0Z"/>
  <path class="st0" d="M87.49,1.71c-14.11.9-28.18,2.78-41.14,7.38-10.29,3.65-17.26,9.81-21.27,18.5h58.9c-5.24-8.5-2.84-18.46,3.52-25.88h-.01Z"/>
  <path class="st0" d="M81.55,210.65c-.22,3.13-.51,6.26-.92,9.37-.15,1.08-.25,2.53-.47,4.03,3.59,1.22,7.47,1.53,10.91-.38,1.91-1.06,2.52-1.61,2.76-3.1.59-3.53,1.16-7.03,1.65-10.56-4.53,1.1-9.24,1.15-13.93.64h0Z"/>
  <path class="st0" d="M86.62,30.75h-6.07v2.67c5.11-.1,10.22-.22,15.33-.32v-2.34h-9.1c-.06.01-.1,0-.16,0h0Z"/>
  <path class="st0" d="M80.55,40.5c5.11-.14,10.22-.28,15.33-.41v-3.87c-5.11.1-10.22.22-15.33.32v3.96Z"/>
  <path class="st0" d="M80.55,47.96c5.11-.22,10.22-.45,15.33-.67v-4.09c-5.11.14-10.22.28-15.33.41v4.34h0Z"/>
  <path class="st0" d="M80.55,55.81c5.11-.18,10.22-.38,15.33-.57v-4.84c-5.11.22-10.22.45-15.33.67v4.75h0Z"/>
  <path class="st0" d="M80.55,61.8c5.11-.03,10.22-.07,15.33-.1v-3.34c-5.11.18-10.22.38-15.33.57v2.87Z"/>
  <path class="st0" d="M62.7,193.44c-11.72-3.22-24.41-6.68-36.68-4.96-2.84.4-6.86,1-9.01,3.16-2.79,2.54-5.42,6.67-1.91,9.79,3.1,2.74,6.67,2.61,10.33,1.99,4.72-.82,9.37-1.44,14.02-1.74.22-.08.43-.09.59-.03,4.59-.25,9.21-.2,13.94.36,1.76.21,3.52.49,5.29.84.16-.03.3,0,.4.07,12.53,2.46,25.26,7.38,37.87,3.59,3.52-1.06,7.72-3.4,10.2-6.26-14.56,4.8-31.05-2.95-45.04-6.79v-.02Z"/>
  <path class="st0" d="M97.91,209.31c-.26,2-.54,3.99-.86,5.98-.13.84-.23,1.77-.36,2.72,5.39-.85,8.58-8.31,10.3-13.94-1.51,1.34-3.18,2.52-4.88,3.42-1.37.74-2.77,1.33-4.19,1.82h-.01Z"/>
  <path class="st0" d="M98.36,30.75v30.92c4.25-.02,8.49-.06,12.74-.08v-30.84s-12.74,0-12.74,0Z"/>
  <path class="st0" d="M76,132.42c0,7.01,6.81,11.72,13.42,11.01,6.44-.69,11.07-5.73,11.63-12.02.03-.13.05-.25.05-.37.01-.24-.01-.41-.07-.54-1.53-14.9-25.04-12.86-25.03,1.92ZM82.95,131.45c-.03-2.98,2.26-6.01,5.27-6.41,3.03-.43,5.29,1.88,5.58,4.72.02.09.03.2.02.31.01.13-.01.26-.05.4-.32,2.91-2.3,5.7-5.38,6.02-3,.32-5.42-2.1-5.46-5.05h.02Z"/>
  <path class="st0" d="M113.59,30.75v30.82c7.7-.06,15.39-.11,23.09-.16v-30.66h-23.09Z"/>
  <path class="st0" d="M151.61,30.75c-.21.08-.37.07-.49,0h-11.96v30.64c4.19-.02,8.4-.06,12.6-.09v-30.55h-.15Z"/>
  <path class="st0" d="M14.35,170.87c5.23-.2,9.09-2.75,13.78-4.61,9.79-3.91,21.57,4.7,31.04-2.01,7.18-5.1.67-16.97-6.91-17.36-3.71-.2-7.71,1.32-10.86,3.22-1.72,1.05-1.16-2.17-.05-2.84,4.16-2.52,9.8-4.46,14.65-3.17,6.39,1.69,9.84,10.09,8.3,16.19-3.32,13.23-20.93,8.73-30.26,7.99-4.85-.38-8.7,2.36-12.96,4.11,1.74,4.45,1.2,9.71-.17,14.28,1.09-.36,2.19-.63,3.19-.85,9.55-2.11,19.9-.41,29.27,1.74,12.34,2.83,24.32,7.09,36.66,9.86,7.1,1.59,13.65,1.95,20.41-1.1,6.3-4.84,16.38-10.48,23.87-4.73,5.73,4.41,4.98,12.66,2.38,18.57-1.94,4.4-5.77,7.71-5.83,12.76-.05,3.92,1.39,7.79,2.22,11.58,1.13,5.16,1.4,10.62-2.63,14.63-9.1,9.07-25.68,4.84-25.27-9.04.26-9.08,10.8-14.32,16.12-5.5,1.31,2.17,1.59,4.86.13,7.01-2.53,3.7-8.1,3.5-12.49,2.99.38.8.83,1.57,1.37,2.28,4.46,5.68,14.88,5.26,19.41-.25,4.02-4.9-.05-12.92-.94-18.42-.68-4.11-.45-8,1.6-11.7,3.39-6.14,9.26-13.78,3.52-20.62-6.12-7.3-16.73-1.72-22.68,2.79-.26.56-.57,1.1-.92,1.63-1.72,6.88-5.87,19.38-14.2,20.82-.2.63-.44,1.23-.76,1.77-3.16,5.39-10.38,5.95-15.87,4.47-.43,1.4-1.06,2.62-2,3.38-2.55,2.05-8.17.34-11.01-.05-3.73-.51-7.47-1.09-11.19-1.74-2.24,2.95-5.91,2.56-9.49,2.34-4.35-.28-8.71-.9-13.01-1.65-1.69,2.6-4.19,3.67-9.18,3.28-2.16-.17-4.88-.44-7.5-1-2.03,6.62-3.16,14.27-1.54,20.92,3.62,14.94,21.74,11.26,32.69,7.63,9.34-3.11,16.87-10.94,27.01-11.43,12.09-.59,22.27,5.93,32.97,10.48,16.15,6.87,32.92,4.7,48.77-2.51-1.32-3.01-1.94-6.53-1.99-10.42-.08-7.69,2.56-16.54,8.53-21.85-3.9-3.38-7.01-7.63-8.91-12.84-5.6-15.42-3.09-33.43.24-49.06,1.88-8.83,4.26-17.67,7.37-26.18-4.96,2.76-9.8,5.84-15.05,7.99-2.03.83-4.09,1.61-6.17,2.31-.16.12-.35.17-.52.18-9.51,3.19-19.49,5.06-29.55,5.09-16.66.06-36.74-4.25-42.31-20.55-.16-.11-.29-.36-.3-.76v-.2c-.57-1.9-.95-3.95-1.11-6.18-.65-9.26,1.88-19.18,5.87-27.64-1.37-.21-2.72-.41-4.08-.64-7.19-1.24-15.42-2.93-23.13-5.78-.84,5.42-3.92,10.37-7.18,14.7-6,7.96-13.58,14.73-21.29,20.98-10.46,8.47-18.74,24.05-15.82,37.97,1.38,6.56,7.92,6.96,13.8,6.75h-.04Z"/>
  <path class="st0" d="M88.01,27.59h64.11c2.52-1.63,4.82-3.93,6.35-6.47,4.91-8.12-1.17-15.72-7.44-20.82-.1-.08-.17-.18-.23-.29-10.54-.06-21.05.31-31.27.61-9.39.26-19.15.39-28.91.91-.02.02-.05.06-.07.08-7.7,7.21-9.48,17.73-2.55,25.98h.01ZM118.22,7.51c4.03-.45,15.09-.69,16.31,5,.12.18.15.48.07.91-.92,5.36-8.06,6.44-12.46,6.67-3.62.18-14.46,0-14.65-5.68-.17-4.99,7.2-6.5,10.73-6.9Z"/>
  <path class="st0" d="M85.74,64.91c-2.36,2.17-4.31,4.98-5.6,7.88-3.92,8.78.1,16.59,6.84,22.55.55.05,1.09.09,1.63.14,10.25.8,20.65,1.18,30.92.68,8.84-.02,17.66-.18,26.49-.62,3.07-.15,6.19-.32,9.35-.52,7.38-6.53,10.26-14.78,4.64-23.36-1.79-2.72-4.15-5.29-6.78-7.23l-62.3.45c-1.74.01-3.47.02-5.21.03h.02ZM136.8,78.53c.06.18.08.43.02.75-.95,6.02-8.86,7.45-13.85,7.72-4.22.23-16.3-.18-16.47-6.72-.29-10.89,28.68-11.5,30.29-1.75h0Z"/>
  <path class="st0" d="M154.24,30.75v3.73h11.56c-.03-1.24-.07-2.49-.09-3.73h-11.47Z"/>
  <path class="st0" d="M154.24,41.38h11.74c-.03-1.24-.07-2.49-.1-3.73h-11.64v3.73Z"/>
  <path class="st0" d="M154.24,49.29c3.98.08,7.96.15,11.95.23-.05-1.67-.08-3.33-.13-4.99h-11.82v4.76Z"/>
  <path class="st0" d="M154.24,56.47h12.14c-.03-1.25-.07-2.51-.1-3.76-4.01-.08-8.02-.16-12.03-.24v4h0Z"/>
  <path class="st0" d="M154.24,61.26c.15-.05.31-.03.45,0,2.09,0,4.18-.02,6.29-.03,1.84-.02,3.68-.03,5.53-.05-.02-.53-.03-1.05-.05-1.57h-12.22v1.64h0Z"/>
  <path class="st0" d="M111.63,128.97c7.27,9.16,17.35,13.09,28.67,14.97,4.34-1.48,8.61-3.24,12.72-5.27,6.62-3.28,12.47-7.76,19.58-10,.38-.13.76-.22,1.14-.33-7.55-5.48-13.86-13.16-10.01-22.69,1.32-3.25,3.55-6.23,6.23-8.71-17.19,2.18-34.82,2.34-51.61,2.37-.95.05-1.91.08-2.86.1-9.87.25-19.82.01-29.69-.86-.07,0-.13,0-.2-.02-3.82-.33-7.62-.77-11.4-1.31-3.86,7.99-6.47,17.84-5.48,26.8,4.7-9.26,19.87-11.58,28.97-8.37,6.55,2.32,9.84,8.17,13.94,13.32ZM89.2,107.54c-5.09,1-10.25,2.87-14.66,5.64-1.7,1.07-1.14-2.16-.05-2.84,10.64-6.69,25.74-9.52,36.98-2.87,5.48,3.24,8.64,8.6,13.46,12.58,4.11,3.4,9.06,5.76,14.41,6.23,5.42.48,11.49-.86,16.08-3.92,1.65-1.11,1.11,2.13.05,2.84-12.62,8.43-27.9,3.53-37.28-7.16-7.75-8.83-17.3-12.8-28.98-10.5h-.01Z"/>
  <path class="st0" d="M169.02,61.18c3.94-.03,7.88-.06,11.81-.09-.39-10.11-.79-20.23-1.18-30.34h-11.42c.17,6.5.33,13.01.51,19.5,0,.03,0,.07,0,.1.1,3.61.2,7.22.29,10.83h0Z"/>
  <path class="st0" d="M161.39,19.99c-1.25,2.84-3.24,5.44-5.58,7.6h72.73c-4.36-12.38-15.42-18.64-27.55-21.94C186.48,1.7,171.15.35,155.82.06c5.45,5.37,9.01,12.15,5.57,19.93h0Z"/>
  <path class="st0" d="M164.73,74.15c2.75,7.91-.64,15.02-5.94,20.64,18.88-1.33,38.74-4.13,55.15-13.01,7.73-4.17,13.72-10.09,16.56-17.9-8.35.06-16.7.13-25.05.18-15.69.1-31.37.22-47.05.33,2.78,2.78,5.08,6.14,6.33,9.76Z"/>
  <path class="st0" d="M218.94,104.85c-2.49-3.9-8.72-5.65-12.97-5.96-8.14-.62-21.41,3.17-24.9,11.55-2.65,6.4,2.88,11.96,8.26,14.57.16.08.28.2.34.34,3.44-.33,6.9-.48,10.32-.51,4.47-.03,8.96.16,13.39.83,2.83.43,6.11,1.95,8.98,1.59,7.7-.99,8.63-13.31,8.37-19.08-.47-10.1-4.84-19.4-11.71-26.71-4.48,3.13-9.55,5.55-14.65,7.45-9.65,3.59-19.81,5.91-30.15,7.45-.08.08-.17.16-.25.22-2.97,1.93-5.94,5.01-7.54,8.23-4.7,9.46,3.8,17.28,11.32,22.19.09.06.16.14.22.22,2.1-.48,4.23-.88,6.38-1.21-6.92-5.15-8.7-13.76-2.02-20.85,8.73-9.27,26.81-13.76,37.14-4.6,8.52,7.56-1.88,16.12-10.23,15.87-4.07-.13-11.58-2.14-11.46-7.34.1-4.16,4.65-7.14,8.32-7.8,7.39-1.36,13.55,4.87,11.37,10.22,2.28-1.37,3.49-3.56,1.49-6.67h-.02Z"/>
  <path class="st0" d="M183.38,61.07c16.03-.11,32.05-.23,48.08-.34.31-1.32.54-2.68.68-4.09.82-8.23-.21-17.72-2.59-25.89h-47.36c.39,10.11.79,20.21,1.18,30.33h.01Z"/>
  <path class="st0" d="M222.59,226.19c-4.15,3.17-8.96,5.59-14.18,7.08,3.53,4.77,4.7,10.6.17,15.35-4.85,5.1-13.79,6.03-20.25,4.13-8.76-2.57-7.75-11.86-4.23-18.43-7.23-1.24-14.18-3.88-19.8-8.14-8.17,5.8-10.58,22.04-5.1,30.89,6.09,9.83,22.52,8.26,32.25,7.88,12.32-.47,34.56-.15,41.96-12.91,5.37-9.26.8-25.19-10.81-25.86h-.01Z"/>
  <path class="st0" d="M197.66,164.24c-6.78-1.14-13.65,3.75-13.69,10.91-.06,14.69,23.39,17.23,24.24,1.38-.33-6.08-4.41-11.24-10.55-12.28h0Z"/>
  <path class="st0" d="M218.34,130.15c-4.57-.88-8.88-1.79-13.57-2.03-11.29-.57-23.32.32-34.05,4.08-2.3.8-4.52,1.82-6.69,2.94-3.45,9.1-6.01,18.62-7.99,28.13-3.03,14.62-5.23,31.13-.37,45.59,6.3,18.74,28.71,25.1,46.83,22.67,9.83-1.31,19.41-5.85,25.76-13.61,5.96-7.27,6.55-15.84,7.45-24.83,2.25-22.55.62-46.04-16.39-62.79-.32-.05-.65-.09-.99-.15h.01ZM226.48,188.35c-.79,8.58-2.64,17.58-7.61,24.81-9.52,13.85-30.88,13.65-43.66,4.24-14.32-10.54-13.78-34.42-10.25-49.84,2.31-10.06,7.65-21.93,16.89-27.59.08-.07.17-.14.28-.17.14-.09.26-.14.38-.17,8.01-3.5,17.24-6.09,25.83-3.11,8.5,2.94,13.48,10.79,15.94,19.06,3.11,10.42,3.18,22.03,2.2,32.77h0Z"/>
</svg>