<?xml version="1.0" encoding="UTF-8"?>
<svg id="Layer_1" xmlns="http://www.w3.org/2000/svg" version="1.1" viewBox="0 0 1798.2 432.46">
  <!-- Generator: Adobe Illustrator 30.5.1, SVG Export Plug-In . SVG Version: 2.1.4 Build 3)  -->
  <defs>
    <style>
      .st0 {
        fill: #2d2e2d;
      }
    </style>
  </defs>
  <path class="st0" d="M1570.11,366.96c8.44-.85,14.2,6.76,21.38,9.72,2.91,1.22,6.02,2.07,9.22,2.67-5.69-3.72-9.85-8.93-14.69-14.77-3.24-3.91-9.84-9.96-15.36-10.02-4.6-.05-6.82,4.5-4.33,8.39.97,1.53,2.36,2.9,3.79,4.01Z"/>
  <path class="st0" d="M1589.7,188.79c-.38,3.92-.16,8.02.65,11.89,1.21-.07,2.43-.14,3.64-.2,2.91-.16,5.8-.31,8.71-.47,3.64-8.07,2.26-18.78.3-27.21-8.04,2.61-12.46,7.3-13.31,15.99Z"/>
  <path class="st0" d="M1625.16,167.71c-1.17.2-2.36.39-3.53.6v1.78c1.18-.07,2.36-.13,3.53-.2v-2.18Z"/>
  <path class="st0" d="M1625.16,172.99c-1.17.06-2.34.13-3.53.2v4.48c1.18-.06,2.36-.11,3.53-.18v-4.49Z"/>
  <path class="st0" d="M1625.16,180.57c-1.17.07-2.34.13-3.53.18v3.92c1.18-.05,2.36-.09,3.53-.15v-3.95Z"/>
  <path class="st0" d="M1625.16,187.63c-1.17.06-2.34.1-3.53.15v4.83c1.18-.05,2.36-.09,3.53-.14v-4.84Z"/>
  <path class="st0" d="M1621.63,199.02c1.18-.07,2.36-.13,3.53-.2v-3.25c-1.17.05-2.34.09-3.53.15v3.3Z"/>
  <path class="st0" d="M1627.65,167.31v2.45c1.61-.09,3.23-.18,4.84-.28-.02-.94-.03-1.9-.06-2.85-1.6.22-3.2.44-4.78.68Z"/>
  <path class="st0" d="M1627.65,177.36c1.66-.08,3.32-.17,4.99-.25-.03-1.52-.06-3.02-.09-4.53-1.63.09-3.26.18-4.9.28v4.5Z"/>
  <path class="st0" d="M1627.65,184.42c1.7-.07,3.41-.14,5.11-.22-.02-1.33-.05-2.68-.07-4.01-1.69.08-3.37.17-5.05.25v3.98Z"/>
  <path class="st0" d="M1627.65,192.36c1.76-.07,3.5-.15,5.26-.22-.02-1.61-.06-3.22-.09-4.84-1.72.08-3.45.15-5.17.22v4.84Z"/>
  <path class="st0" d="M1627.65,198.7c1.79-.09,3.59-.2,5.39-.29-.02-1.06-.05-2.1-.06-3.16-1.78.08-3.56.15-5.33.22v3.23Z"/>
  <path class="st0" d="M1583.59,239.06c4.3,1.92,8.79,3.44,13.39,4.65h.05c.13.05.24.08.37.1,3.22.84,6.48,1.54,9.78,2.11h.01c.13-.02.25,0,.34.06h.01c7.88,1.36,15.92,2.06,23.75,2.53-9.7-4.77-15.83-13.53-13.46-26.2,1.71-9.12,7.83-16.54,15.77-20.85-14.96.8-29.94,1.6-44.91,2.39-.03.01-.07.01-.1.01-7.43.39-14.87.78-22.3,1.18-.1,2.48-.14,4.98-.13,7.46.02,4.55-.23,9.32,1.78,13.53,3.02,6.31,9.49,10.29,15.65,13.02Z"/>
  <path class="st0" d="M1613.22,412.01c6.08.75,12.42-1.74,16.55-6.21,5.99-6.49,4.76-13.85,2.53-21.54-2.2-7.61-1.92-15.33.22-22.9,2.29-8.14,8.33-16.46,2.42-24.5-4.88-6.64-13.74-8.85-21.56-8.94-4.3,3.16-9.77,3.54-15.5,3.2-9.35-.57-17.43,1.22-25.4,4.91,2.16,5.02,1.84,10.64-.68,15.47t-.01.02c.72,0,1.45.09,2.17.28,6.78,1.8,12.32,7.7,16.39,13.14,5.61,7.48,12.08,13.11,21.29,15.58h.03c.44.02.87.03,1.31.05,1.48.03.15,3.19-1.2,3.16-.36-.01-.7-.02-1.05-.03-.06,0-.1,0-.16-.01-.02,0-.03.01-.06,0-.02,0-.05-.01-.07-.01-5.86-.23-11.85-1.1-17.44-2.84-8.08-2.51-14.8-11.6-23.8-10.65-.01,0-.01.01-.01.01-.07.02-.14.03-.21.03-.03,0-.08-.01-.11-.01s-.08.01-.12.01c-3.92.54-5.87,5.62-3.75,8.98.72,1.16,1.92,1.9,2.93,2.77,1.31,1.1,2.49,2.18,3.39,3.54,9.53,1.67,18.78,7.15,25.48,13.95,5.25,5.32,8.24,11.56,16.4,12.56Z"/>
  <path class="st0" d="M1634.94,166.31c.02,1.01.05,2.02.06,3.03,1.55-.08,3.1-.17,4.64-.25-.02-1.11-.04-2.23-.08-3.34-1.54.18-3.08.37-4.62.56Z"/>
  <path class="st0" d="M1635.05,172.44c.03,1.51.06,3.02.09,4.54,1.56-.08,3.11-.16,4.68-.24-.03-1.53-.07-3.05-.11-4.56-1.55.08-3.1.17-4.65.26Z"/>
  <path class="st0" d="M1635.2,180.06c.02,1.36.05,2.7.08,4.05,1.56-.07,3.14-.13,4.71-.2-.03-1.37-.07-2.72-.1-4.09-1.56.08-3.13.16-4.69.24Z"/>
  <path class="st0" d="M1635.34,187.21c.02,1.61.06,3.23.09,4.84,1.59-.06,3.16-.13,4.75-.2-.03-1.61-.08-3.23-.12-4.84-1.57.07-3.15.13-4.72.2Z"/>
  <path class="st0" d="M1640.33,198.02c-.02-1.02-.05-2.05-.08-3.07-1.59.07-3.17.14-4.76.2.02,1.05.03,2.09.06,3.13,1.6-.08,3.18-.16,4.78-.25Z"/>
  <path class="st0" d="M1681.67,195.82c4.83-10.43,4.17-23.29-1.61-33.3-.02-.05-.03-.09-.05-.14-7.61.31-15.17.85-22.65,1.53-4.47,10.47-4.79,23,.4,33.18,7.96-.41,15.94-.84,23.9-1.26Z"/>
  <path class="st0" d="M1682.89,275.73c1.49.92,3.11,1.63,4.81,2.17,0,.01.01.01.02.01-4.9-7.23-5.84-18.82-6.5-26.68-3.17.17-6.32.33-9.47.49.01,8.98,3.3,19.16,11.14,24.01Z"/>
  <path class="st0" d="M1693.14,278.88c.08.06.14.13.2.21,1.99.24,4.06.35,6.13.35-2.7-4.76-3.46-11.01-4.24-16.16-.64-4.23-1.14-8.5-1.44-12.79-3.32.22-6.63.41-9.95.6t-.01.01c.76,8.87,2.16,22.51,9.32,27.79Z"/>
  <path class="st0" d="M1697.1,162.12c.03,1.23.07,2.46.1,3.7,1.48-.03,2.97-.06,4.45-.09-.02-1.17-.06-2.34-.09-3.53-1.48-.03-2.98-.07-4.46-.08Z"/>
  <path class="st0" d="M1697.28,168.94c.05,1.34.08,2.69.12,4.05,1.48-.03,2.97-.08,4.45-.12-.03-1.33-.07-2.68-.12-4.01-1.48.02-2.97.06-4.45.08Z"/>
  <path class="st0" d="M1697.49,176.1c.02,1.02.06,2.03.08,3.06,1.48-.06,2.95-.1,4.44-.15-.03-1.01-.06-2.01-.08-3.01-1.48.03-2.95.07-4.44.1Z"/>
  <path class="st0" d="M1697.66,182.26c.05,1.64.09,3.29.14,4.93,1.47-.06,2.94-.13,4.41-.18-.05-1.63-.08-3.26-.13-4.9-1.47.06-2.95.1-4.43.15Z"/>
  <path class="st0" d="M1702.42,194.72c-.05-1.54-.08-3.08-.13-4.61-1.47.06-2.93.13-4.4.18.05,1.55.09,3.1.13,4.65,1.47-.08,2.93-.15,4.4-.23Z"/>
  <path class="st0" d="M1703.26,279.34c2.34-.1,4.67-.29,6.87-.47-2.39-4.45-2.91-10.39-3.53-15.01-.63-4.71-1.07-9.48-1.29-14.24-2.72.23-5.45.44-8.17.63-.25.02-.52.03-.78.06.29,3.65.71,7.3,1.25,10.91.89,5.77,1.69,13.17,5.5,17.86.06.08.1.17.14.26Z"/>
  <path class="st0" d="M1704.08,162.27c.02,1.14.06,2.28.09,3.41,1.61-.02,3.22-.06,4.83-.08-.05-1.05-.09-2.08-.14-3.11-1.59-.08-3.18-.16-4.78-.22Z"/>
  <path class="st0" d="M1704.26,168.82c.03,1.33.07,2.67.1,4,1.66-.05,3.31-.08,4.95-.13-.06-1.32-.12-2.64-.17-3.96-1.63.03-3.25.06-4.88.09Z"/>
  <path class="st0" d="M1704.44,175.93c.02,1,.06,2,.08,2.99,1.69-.06,3.38-.11,5.07-.17-.05-.98-.09-1.95-.14-2.93-1.67.03-3.33.08-5.01.12Z"/>
  <path class="st0" d="M1704.6,182.03c.05,1.62.08,3.24.13,4.87,1.74-.08,3.47-.15,5.21-.23-.07-1.61-.14-3.22-.21-4.83-1.71.07-3.41.13-5.13.18Z"/>
  <path class="st0" d="M1710.28,194.31c-.07-1.52-.14-3.02-.21-4.53-1.75.07-3.5.15-5.26.22.04,1.53.08,3.06.13,4.59,1.78-.09,3.56-.18,5.34-.28Z"/>
  <path class="st0" d="M1684.47,223.78c.07-.22.1-.42.08-.62-.01-.06-.03-.11-.03-.17-.01-.06-.02-.13-.03-.17-2.08-11.94-30.82-11.16-30.99,1.53-.16,12.48,29.05,11.7,30.98-.56Z"/>
  <path class="st0" d="M1620.1,222.57c-2.45,15.85,10.15,24.22,24.28,26.47.1.01.2.06.27.09h.03c6.9.2,13.81.17,20.69-.18h.05c8.04-.4,16.09-.86,24.14-1.4,2.92-.2,5.87-.39,8.83-.6,3.98-1.75,7.87-3.59,11.09-6.62,7.07-6.65,7.75-16.9,4.38-25.65-3.72-9.69-13.85-15.95-24.11-16.19-11.07.6-22.12,1.18-33.19,1.77-.18.08-.36.1-.51.02-4.22.23-8.42.45-12.64.68-11.28,1.93-21.5,9.94-23.32,21.62ZM1666.98,208.35c10.07-.79,29.59,1.64,31.01,14.69.06.13.08.31.07.55,0,.13-.01.24-.05.37-1.04,11.28-14.88,15.5-24.39,16.26-9.5.75-31.02-1.7-31.07-15.24-.06-11.53,15.51-15.92,24.43-16.63Z"/>
  <path class="st0" d="M1713.98,278.55c2.05-.15,4.14-.32,6.22-.55-2.63-7.98-4.17-16.57-4.17-25.04,0-1.47.05-2.93.14-4.39-2.76.3-5.53.57-8.3.83.18,3.54.49,7.08.92,10.61.68,5.7,1.14,13.88,5.01,18.56.07,0,.13-.01.18-.01Z"/>
  <path class="st0" d="M1711.42,162.62c.04.98.09,1.95.14,2.93,2.08-.05,4.17-.08,6.26-.11-.03-.78-.07-1.55-.1-2.33-2.09-.18-4.19-.36-6.3-.48Z"/>
  <path class="st0" d="M1711.69,168.68c.06,1.32.12,2.63.17,3.95,2.08-.06,4.16-.1,6.25-.16-.06-1.3-.11-2.61-.17-3.91-2.08.03-4.17.08-6.25.11Z"/>
  <path class="st0" d="M1712,175.75c.05.98.08,1.94.13,2.91l6.24-.21c-.05-.95-.08-1.91-.13-2.85-2.08.05-4.16.1-6.24.15Z"/>
  <path class="st0" d="M1712.27,181.77c.07,1.6.14,3.19.21,4.8,2.08-.09,4.15-.18,6.23-.28-.07-1.57-.14-3.16-.21-4.75-2.07.08-4.15.15-6.23.22Z"/>
  <path class="st0" d="M1715.98,194c1.01-.06,2.03-.1,3.04-.16-.07-1.48-.13-2.95-.2-4.44-2.07.09-4.14.17-6.22.26.07,1.51.14,3,.21,4.51,1.05-.06,2.1-.11,3.16-.17Z"/>
  <path class="st0" d="M1723.17,277.61c1.33-.18,2.65-.41,3.96-.69-1.97-5.25-3.06-10.93-2.94-16.38.09-4.91,1.44-9.43,3.69-13.45-3.09.45-6.18.85-9.3,1.2-.48,9.91,1.3,20.03,4.57,29.33,0-.01.01-.01.01-.01Z"/>
  <path class="st0" d="M1630.99,281.28c-.24-4.5-3.29-8.31-7.83-9.09-4.86-.82-9.89,2.53-9.93,7.71-.06,10.58,17.13,12.92,17.76,1.38ZM1622.16,276.89c2.23.39,3.8,2.25,3.93,4.49-.29,5.25-8.56,3.33-8.44-1.38.06-2.33,2.4-3.48,4.5-3.11Z"/>
  <path class="st0" d="M1560.41,338.97c3.17-.53,6.22-2.24,9.24-4.03.57-.34,1.14-.69,1.71-1.02,2.08-1.24,4.16-2.41,6.27-3.19,8.35-3.05,16.21-2.64,24.93-2.47,7.64.15,14.66-4.05,15.06-12.3.31-6.39-3.53-11.81-9.79-13.25-5.17-1.18-10.83.51-11.19,6.5-.08,1.29-2.61,3.38-2.48,1.38.84-13.83,19.62-15.09,24.7-3.11,2.26,5.34,1.41,11.76-1.79,16.54-.2.29-.39.57-.6.84,12,.87,26.11,8.03,23.34,22.12-1.53,7.77-5.87,14.36-6.48,22.51-.62,8.38,3.76,15.54,3.55,23.7-.22,9.18-6.37,17.39-14.87,20.65-4.16,1.6-8.8,1.97-13.1.68-5.54-1.67-8.27-5.63-11.82-9.84-6.01-7.11-14.89-13.05-24.16-15.42,1.3,4.99.69,10.83,1.8,15.82,1.56,6.96,4.79,13.62,10.69,17.9,7.68,5.6,17.61,5.77,26.72,6.37,8.91.57,18.57,1.09,27.16-1.83,10.49-3.56,12.31-12.28,11.94-22.41-.32-9.1-2.33-18.16-1.84-27.29.52-9.46,4.01-17.97,9.03-25.91,1.13-1.77,2.92-.75,1.79,1.03-4.57,7.24-7.85,14.87-8.34,23.5-.33,5.95.48,11.87,1.1,17.78,1,9.49,2.63,21.28-3.71,29.38-1,1.28-2.13,2.37-3.36,3.31,22.18,7.12,49.06,8.29,70.26-1.79-5.25-5.76-6.79-13.94-5.29-22.67,1.2-6.88,4.91-13.99,10.47-18.49-1.77-1.67-3.39-3.53-4.83-5.61-13.46-19.56-8.27-47.54-4.76-69.35,1.83-11.41,7.4-21.43,17.62-26.96-.4-.77-.78-1.56-1.13-2.37-5.04,1.2-10.32,1.71-15.49,2.06h-.01c-.14.05-.27.06-.4.02t-.01,0c-.39.03-.77.06-1.15.08-9.77.63-22.38,2.28-30.92-3.69-8.06-5.63-11.29-16.77-10.97-26.28-1.7.08-3.4.16-5.1.25h-.05c-.87.05-1.75.07-2.63.1-15.54.51-31.21-.02-46.63-1.99-2.49-.32-5.14-.67-7.87-1.08-1.06,1.43-2.03,2.92-2.91,4.46-.68,1.2-2.07,3.11-2.03,4.5.08,2.56,1.92,2.37,4.16,2.11,7.65-.84,14.89-3.34,22.66-1.68,8.65,1.85,15.65,9.17,23.43,13.19,5.01,2.6,10.19,4.96,15.48,6.95,1.25.47-.37,3.49-1.72,2.98-7.33-2.75-14.54-6.14-21.27-10.14-4.76-2.83-8.95-7.08-14.17-9-5.83-2.14-12.17-1.51-18.15-.44-3.65.64-13.24,4.18-12.99-2.41.14-3.73,2.75-7.68,5.16-10.91-2.59-.43-5.22-.92-7.86-1.52h-.01c-6.11,15.12-19.08,23.9-31.19,34.2-7.09,6.03-11.11,13.81-14.16,22.58-2.8,8.09-4.8,17.61-2.26,26.03,1.54,5.1,5.37,9.89,11.24,8.91ZM1682.92,351.88c1.82-1.33,1.89,1.52.68,2.4-20.28,14.97-18.46,44.47-7.89,64.81.62,1.21-1.48,3.88-2.14,2.61-11.47-22.09-12.51-53.67,9.35-69.82ZM1602.12,271.96c9.12-4.71,20.86-6.33,30.63-2.93,8.66,3.02,16.03,8.85,24.9,11.72,3.88,1.26,7.95,2.36,12.03,2.79,1.53.16.14,3.29-1.18,3.15-6.07-.64-12.09-2.4-17.82-4.8-10.07,6.65-29.68,19.03-40.68,7.77-3.92-4.01-5.6-10.3-5.61-15.9-.75.32-1.48.68-2.22,1.06-1.82.93-1.22-2.24-.05-2.85Z"/>
  <path class="st0" d="M1766.17,191.33c-.55-4.86-2.29-9.84-4.95-13.81-4.67-6.95-12.17-9.19-19.94-10.87-.45-.1-.91-.18-1.36-.28-1.77,8.75-.56,18.23,3.36,26.18,7.63-.41,15.26-.82,22.89-1.22Z"/>
  <path class="st0" d="M1751.23,395.83c-2.53-.24-5.06-.61-7.55-1.1-.88,1.51-1.6,3.16-1.94,4.84-1.3,6.44,4.23,8.45,9.55,9.41,4.34.79,10.48,1.84,14.41-.87,3.86-2.67,2.73-8.4,1.84-12.26-.02-.14-.02-.29,0-.44-5.36.91-10.94.93-16.31.43Z"/>
  <path class="st0" d="M1730.41,277.05c.54,1.25,1.13,2.47,1.77,3.64,3.43-1.48,6.98-2.39,10.58-2.92-2.68-6.91-3.94-15.25-1.45-22.21,2.86-8.01,11-12.56,19.16-13.33,6.78-.63,16.8,1.91,16.61,10.45-.17,8.02-8.33,11.99-15.35,11.85-1.49-.02-.16-3.17,1.18-3.15,4.24.08,9.64-1.05,11.23-5.62,1.26-3.62-.8-6.64-3.81-8.47-4.75-2.9-11.38-2.42-16.41-.69-13.65,4.68-12.93,19.59-8.07,30.79,2.46-.24,4.94-.34,7.43-.38h.01c9.37-.13,19.96.62,28.68,4.68,10.46-9.23,11.38-24.41,4.98-36.48-2.7-5.1-7.1-8.83-12.22-11.15-1.03-.47-2.11-.88-3.21-1.24-4.22-1.38-8.77-1.87-13.15-1.47-9.46.87-19.03,5.14-25.13,12.04-.92,1.03-1.77,2.14-2.52,3.3-2.76,4.24-4.3,9.26-4.01,14.92.25,4.96,1.47,10.14,3.44,14.87.16.11.24.32.25.57Z"/>
  <path class="st0" d="M1599.14,171.29c13.59-5.79,29.64-7.37,44.16-9,12.65-1.43,25.39-2.31,38.13-2.65.16-.06.32-.07.47-.01,5.99-.16,11.97-.21,17.96-.11,16.39.25,33.64.91,49.43,5.73,11.83,3.61,18.69,13.83,19.47,25.95,7.49-.4,14.97-.79,22.47-1.2-1.18-7.85-3.93-15.38-8.31-20.86-11.63-14.57-32.72-18.53-50.2-20.32-22.24-2.28-44.76-1.01-67,.72-9.94.78-19.87,1.72-29.81,2.54-10.8.87-21.66,1.18-32.27,3.6-9.39,2.14-18.86,5.87-25.56,13.05-6.55,7.01-9.49,16.38-10.85,25.68-.37,2.51-.62,5.01-.78,7.53,7.04-.37,14.09-.75,21.13-1.13-1.85-11.09.23-24.71,11.55-29.53Z"/>
  <path class="st0" d="M1742.06,195.7c-.18.08-.36.1-.51.03-13.23.7-26.45,1.4-39.67,2.1,8.22,3.73,14.35,11.31,15.93,20.66.3,1.8.45,3.53.45,5.18,0,10.15-5.49,17.57-13.7,22.8.75-.05,1.48-.1,2.23-.16h.01c.22-.1.41-.13.57-.05h.01c3.47-.29,6.95-.59,10.43-.94.28-.15.53-.2.7-.07,0,0,0-.01.01-.01,3.82-.39,7.63-.85,11.43-1.38,9.79-13.33,30.07-19.66,45.47-13.24,6.58-4.04,12-9.6,14.42-17.43,1.84-5.94,2.43-13.07,1.73-20.13-9.4.5-18.8,1-28.2,1.5-7.11.38-14.23.75-21.34,1.13Z"/>
  <path class="st0" d="M1786.61,386.18c-1.9,1.86-3.98,3.42-6.18,4.7h-.01c8.8,6.55,12.76,19.52,3.53,27.8-7.62,6.83-21.54,6.61-31.07,6.27-9.92-.33-26.17-1.49-30.79-12.19-3.5-8.1,1.21-17.21,6.95-23.26h0c-2.08-1.16-4.07-2.48-5.91-4-9.68,6.54-12.66,21.34-8.62,31.79,1.01,2.62,2.61,4.76,4.6,6.49.24.02.39.17.46.39,7.02,5.8,18.51,7.06,26.82,7.45,12.08.57,25.01-.36,36.66-3.8,8.49-2.51,14.14-9.25,14.63-18.21.52-9.27-4.31-17.48-10.62-23.87l-.45.45Z"/>
  <path class="st0" d="M1763.37,329.15c-4.91-.84-9.99,2.55-10.02,7.78-.06,10.7,17.3,13.03,17.93,1.39-.24-4.55-3.32-8.4-7.91-9.17Z"/>
  <path class="st0" d="M1759.91,318.32c-9.18.99-16.31,9.32-16.28,18.48.03,10.06,8.79,18.11,18.84,17.1,9.43-.95,15.7-9.16,16.25-18.19.02-.09.03-.2.02-.29.01-.18,0-.32-.03-.44-.69-9.77-8.57-17.76-18.79-16.66ZM1746.12,335.42c.03-9.18,8.87-15.46,17.57-13.74,7.36,1.44,12.22,7.81,12.56,15.12-.93,19.59-30.2,17.16-30.13-1.38Z"/>
  <path class="st0" d="M1781.33,285.12c-.47.18-.75-.03-.87-.43-8.62-4.1-19.14-4.65-28.36-4.54h-.01c-7.14.1-14.3.83-20.8,3.79-.01.01-.02.02-.03.02-.07.02-.15.06-.23.1-.85.39-1.68.82-2.5,1.3-13.12,7.58-14.4,22.25-16.2,35.83-2.64,20.03-4.77,46.3,12.08,60.96.05.02.07.05.1.08.33.3.68.59,1.02.86,10.58,8.47,25.89,10.87,39.07,9.68,11.71-1.07,21.88-6.59,27.19-17.35,4.53-9.2,5.49-19.88,5.91-29.99.37-9.22.72-18.57.36-27.79-.37-9.43-2.02-19.44-8.71-26.6-2.33-2.49-5.05-4.44-8-5.93ZM1791.35,359.41c-2.99,18.55-16.94,27.19-34.69,27.42-12.62.15-27.53-1.78-34.54-13.73-5.16-8.79-4.98-19.73-4.79-29.59.31-16.81-1.13-38.23,11.68-51.24,14.86-15.11,46.83-10.6,58.33,6.56,11.45,17.08,7.07,41.62,4.02,60.59Z"/>
  <path class="st0" d="M50.61,96.11c-3.99-10.53-4.21-23.39-2.88-33.49.28-2.08.63-4.13,1.07-6.14-4.54,2.25-8.87,5.45-12.05,9.29-9.99,12.07.41,24.73,10.27,32.74,1.2-.84,2.4-1.64,3.6-2.4Z"/>
  <path class="st0" d="M33.12,67.26c3.69-6.08,10.02-11.01,16.48-14h0c3.31-12.25,9.86-23.1,19.16-31.25-11.8-9.84-21.81,7.99-27.17,17.73-.01.01-.02.03-.02.05-.09.21-.21.41-.34.6-.15.29-.3.57-.45.84-4.24,7.68-12.48,10.63-17.15,17.7-9.4,14.25-2.11,42.2,16.56,44.96,1.28-1.16,2.62-2.26,4-3.31-9.99-8.41-18.86-20.42-11.07-33.32Z"/>
  <path class="st0" d="M13.1,44.27c6.25,1.25,11.46-1.34,16.86-4.06,3.33-1.68,6.69-3.23,10.39-2.48,2.31-4.11,4.69-8.19,7.61-11.94,5.9-7.57,14.56-14.01,23.11-6.24.11.1.2.22.24.36,3.85-3.03,8.12-5.61,12.79-7.65C78.43,3.03,67.85-1.77,57.08.6c-13.23,2.93-16.12,16.51-26.58,23.11-4.24,2.68-9.52,3.98-14.51,3.91-2.6-.05-5.23-.49-7.64-1.49-2.34-.98-3.72-2.8-5.76-4.05-2.25-1.38-2.24.78-2.48,3.24-.22,2.31-.03,4.65.51,6.9,1.52,6.32,6.07,10.78,12.49,12.06Z"/>
  <path class="st0" d="M79.12,105.2c23.2,5.37,49.43.63,71.03-8.63-12.41-12.87-31.26-17.58-49.52-11.66-10.91,3.54-18.15,11.18-21.51,20.29Z"/>
  <path class="st0" d="M60.7,249.98c7.75-2.29,17.27.56,25.13,1.16,7.98.59,14.78-1.39,22.34-3.34,3.18-.82,9.08-2.83,12.1-.47,2.41,1.87,1.71,5.29.71,8.07,6.42-2.57,15.65-9.08,13.69-16.35-1.93-7.14-9.38-7.15-14.84-5.39-9.07,2.93-17.63,6.68-27.24,7.45-9.08.72-18.04-.79-26.71-3.41-4.98-1.51-9.06-2.61-14.25-2.17-3.85.32-7.61,1.22-11.45,1.71-1.18.15-2.41.29-3.63.3-2.17,9.17-4.07,18.49-5.14,27.86-.61,5.3-2.23,12.7,4.85,13.95,1.91.34,3.78-.06,5.64-.48,1.48-.34,1.32-.39,1.48-.62.9-1.29,1.14-3.71,1.61-5.21,2.53-8.07,6.49-20.33,15.69-23.04Z"/>
  <path class="st0" d="M32.7,233.36c.98.68,2.14,1.07,3.4,1.24l.85.09c5.05.38,11.53-2,15.72-2.34,9.3-.78,17.67,3.69,26.75,5.04,11.17,1.68,21.58-.01,32.14-3.7,4.87-1.71,11.08-5.16,16.47-4.42,4.3.59,8.54,4.54,9.26,8.79,1.06,6.15-3.32,11.83-8.7,15.84,5.26-1.76,10.1-4.67,12.5-9.76,2.02-4.3,1.87-9.8-.34-14.02-3.91-7.42-13.78-9.54-21.42-8.68-5.84.65-11.01,3.36-16.71,4.59-4.67,1.01-9.47,1.29-14.23,1.01-10.43-.59-20.41-3.91-30.69-5.48-6.79-1.05-13.64-1.17-20.42-2.03-.95-.13-1.88-.34-2.78-.67-6.25.99-6.39,11.34-1.8,14.5Z"/>
  <path class="st0" d="M128.04,256.91c10.22-.15,20.82-4.78,23.94-15.04,4.56-14.96-5.01-28.89-19.4-32.48-18.85-4.71-36.94,4.73-55.75,1.37-9.02-1.61-16.53-6.32-25.16-8.98-6.27-1.94-15.78-3.11-20.79,2.34-4.09,4.44-.02,9.73,4.68,11.61.08.03.16.07.25.09h.01c.53.21,1.07.36,1.6.46,3.77.72,7.92.51,11.73.88,18.12,1.84,36.73,9.89,54.98,5.54,7.87-1.87,14.76-5.47,23.09-4.46,5.47.67,11.29,3.13,14.66,7.65,3.69,4.93,3.93,12.3,1.68,17.85-2.78,6.9-8.81,10.87-15.53,13.16Z"/>
  <path class="st0" d="M106.11,142.23c-7.25-6.11-5.88-15.27.33-21.56,12.26-12.39,32.43-3.91,44.6,4.86,2.11-5.23,5.28-9.64,9.29-12.99-.44-1.18-.97-2.33-1.52-3.47-1.87-3.87-4.17-7.37-6.81-10.46-22.23,9.93-49.68,15.32-73.89,9.78-2.15,8.18-1.34,17.25,2.56,25.43.01.01.02.02.02.05.02.07.05.13.1.2h0c.36.77.75,1.52,1.17,2.25h0s.23.4.23.4h.01v.02c1.07,1.83,2.31,3.6,3.7,5.29,9.76,11.76,24.43,13.69,38.65,9.99,11.42-2.96,21.8-10.11,24.96-21.93.1-.4.22-.8.35-1.2-10.09-7.42-26.54-15.62-38.57-9.02-5.47,3-9.81,9.33-6.63,15.47,2.08,4.01,6.5,6.77,10.83,7.72,4.88,1.08,11-.09,13.47-4.99,3.92-7.73-5.61-13-11.49-8.86-1.63,1.14-1.09-2.11-.05-2.84,3.98-2.79,9.49-2.52,12.86,1.21,3.56,3.95,2.22,9.43-.72,13.32-5.69,7.53-16.63,7.07-23.44,1.32Z"/>
  <path class="st0" d="M98.17,68.33c4.19-.45,6.9-4.19,7.23-8.16.02-.1.03-.21.03-.31.01-.2-.01-.34-.05-.46-.44-3.98-3.61-7.14-7.84-6.61-4.03.51-7.14,4.46-7.1,8.45.03,4.15,3.53,7.55,7.72,7.09Z"/>
  <path class="st0" d="M136.08,68.29c7.63-.79,13.1-6.9,13.69-14.34.02-.12.03-.23.03-.33.01-.22-.01-.38-.06-.51-1.57-17.92-29.58-15.86-29.44,1.88.07,8.26,7.81,14.11,15.78,13.3Z"/>
  <path class="st0" d="M168.64,59.04c-4.07.51-7.18,4.48-7.15,8.5.03,4.17,3.55,7.6,7.78,7.14,4.22-.46,6.94-4.22,7.27-8.21.02-.1.03-.21.03-.31.01-.2-.01-.34-.05-.47-.44-4-3.64-7.18-7.89-6.65Z"/>
  <path class="st0" d="M49.63,76.19c.49,8.93,3.18,20.09,9.16,27.6-2.01-10.08-2.15-20.87-.57-30.83,2.98-18.8,13.96-34.74,31.61-42.51,25.54-11.24,57.45-12.88,84.11-4.83,6.62,2,13.93,4.51,19.36,8.94,8.09,6.62,12.81,17.24,14.15,27.41,1.84,14.08-2.47,34.92-15.5,43.45,9.28.15,18.34-.22,27.16-4.52.67-.32,1.33-.67,1.96-1.05.01,0,.02-.02.05-.03.17-.08.36-.17.52-.3.01,0,.02-.01.03-.01,7.34-4.33,12.69-11.09,15.13-19.41,5.22-17.65-1.28-39.08-13.12-52.7-16.93-19.46-45.72-23.09-70-22.95-13.72.08-27.41,1.49-40.93,3.65-12.99,2.07-26.14,4.36-37.38,11.62-18.92,12.22-26.93,34.65-25.73,56.46Z"/>
  <path class="st0" d="M194.41,188.35c.25,1.33.78,2.65,1.48,3.95.8-.57,1.57-1.14,2.31-1.68,1.77-1.31,4.23-3.39,6.98-5.34-.46-.53-.93-1.05-1.41-1.54-1.1-1.14-3.17-3.52-4.91-3.37-2.46-.14-5.38.87-4.93,6.37.16.54.32,1.07.48,1.61Z"/>
  <path class="st0" d="M212.94,201.25c-1.87,1.38-4.08,3.39-6.48,5.37,3.15,4.45,7.04,8.8,12.63,5.42,3.13-3.14.39-8.42-3.05-13.1-1.15.9-2.24,1.68-3.1,2.31Z"/>
  <path class="st0" d="M202.19,206.71c.97-.69,1.91-1.42,2.82-2.18,1.76-1.44,3.4-2.87,4.81-3.9,1.61-1.17,3.23-2.32,4.82-3.55.76-.57,1.52-1.17,2.25-1.79.06-.03.1-.08.16-.13,2.53-2.14,3.54-2.77,3.92-6.19.34-3.07.07-4.01-2.8-5.09-2.69-1-5.67-.16-8.53,1.37-1.01.54-2.01,1.16-2.98,1.83-2.45,1.68-4.69,3.6-6.45,4.93-.9.69-2,1.41-3.16,2.19-.78.53-1.59,1.07-2.38,1.64-4.25,3.05-8.03,6.81-4.85,11.78,3.76,3.85,8.24,2.02,12.36-.91Z"/>
  <path class="st0" d="M9.11,193.16c6.38,2.29,15.59-2.72,21.77-4.13,8.16-1.85,16.58-2.75,24.6.17,5.61,2.03,11.66,7.21,17.95,5.86,6.3-1.33,12.76-8.6,12.89-14.97.09-4.25-2.16-8.22-5.06-11.17-5-5.1-14.27-8.6-18.28-.48-.94,1.91-2.71.83-1.79-1.03,3.33-6.75,10.5-8.85,17.01-5.15,8.23,4.67,13.13,14.25,8.97,23.28-3.16,6.87-11.18,14.2-19.31,12.65-3.82-.74-7.25-3.01-10.75-4.61-4.81-2.2-9.78-3.36-15.09-3.15-1.83.07-3.64.25-5.44.52.74,1.76.85,4.8.83,6.71h.01c6.99-1.6,15.57.57,21.38,3.16,14.73,6.58,27.87,9.19,43.72,5.9,17.06-3.55,42.92-4.37,50.7,15.09,4.19,10.48,2.59,23.54-6.18,31.15-7.6,6.61-18.92,8.54-28.56,6.19h-.01c-.32.05-.52-.09-.6-.33h0s-.01-.02-.01-.03h0s-.01-.02-.02-.03c0,0-.01,0-.01-.01-.15-.17-.2-.45-.1-.84,0-.02.01-.05.01-.07.06-.3.18-.61.36-.9,0-.01.01-.02.02-.05,1.44-3.56,2.18-7.16-2.69-7.37-2.96-.13-6.15.91-8.99,1.67-7.38,1.99-14.07,3.67-21.8,3.09-7.78-.59-20.15-4.54-27.09.09-4.94,3.3-7.39,10.07-9.25,15.44h0c-.59,9.02,1.15,20.74,8.71,26.49,6.66,5.06,16.12,3.49,23.64,1.61,9.33-2.36,18.21-6.19,27.3-9.32,6.93-2.38,14.16-4.57,21.56-4.64,6.4-.06,12.84,1.2,19.13,2.23,17.01,2.79,34.19,5.73,51.5,4.46,12.11-.88,28.14-2.46,34.09-14.54,4.5-9.14,6.29-19.73,7.79-29.71,3.92-25.96,4.52-52.53,4.06-78.74-.17-10.06-.52-20.13-1.41-30.15-1.22-13.77-8.56-31.35-23.65-34.79-4.79,2.65-10.14,4.38-15.58,5.3-6.38,1.08-13.18.51-19.89.36-.52-.02-1.05-.03-1.56-.03-7.34-.1-14.51.52-20.8,4.61-6.27,4.08-9.49,10.29-11.39,17.25-2.96,10.88-11.42,18.79-21.73,22.93-13.34,5.36-29.94,6-41.47-3.64-1.78-1.48-3.41-3.14-4.92-4.95,1.85,4.98,5.33,9.5,9.16,12.72,11.72,9.83,31.06,13.46,45.51,8.41,10.76-3.76,18.19-12.68,22.71-22.82,4.41-9.91,8.65-18.77,18.95-23.89,14.34-7.13,30.89-3.28,43.84,4.96,1.21.77-.55,3.73-1.72,2.99-17.57-11.18-44.76-13.31-55.6,8.32-3.87,7.72-6.31,15.5-12.16,22.17-8.11,9.24-19.48,13.86-31.73,13.54-17.87-.48-42.51-10.93-42.86-32-.43-.74-.84-1.48-1.22-2.24-10.08-.93-21.16-1.07-30.42,3.56-2.49,1.24-5.63,3.1-6.98,5.7-.98,1.88-2.75.8-1.79-1.03,6.21-12.02,25.41-12.48,37.66-11.61-.91-2.23-1.62-4.53-2.11-6.86-9.85-1.47-25.25-2.17-32.49,6.09-1.51,1.72-2.44-.46-1.26-1.79,7.71-8.8,22.25-9.09,33.17-7.7-.12-.87-.21-1.76-.25-2.63-.01-.26-.02-.51-.03-.77-8.4-2.19-21.63-4.44-28.65,2.28-1.63,1.56-1.72-1.39-.68-2.4,7.31-6.99,20.26-5.55,29.37-3.32h0c.02-.3.05-.57.07-.85-1.68-.06-3.37-.41-4.98-.87-8.68-2.45-14.25-8.52-17.63-16.09-1.38.87-2.77,1.79-4.17,2.77h-.01c-.4.28-.8.56-1.21.86-1.72,1.25-3.41,2.59-4.99,4.02-.39.34-.77.71-1.14,1.07-2.21,2.16-4.14,4.54-5.55,7.17-3.46,6.41-5.96,13.01-10.4,18.92-5.92,7.88-15.25,13.05-19.98,21.72-3.99,7.29-4.95,16.19-3.36,24.28.95,4.82,3.16,12.11,8.38,13.97ZM180.24,196.49c1.03-8.32,2.07-16.84,4.54-24.88,2.25-7.34,6.08-14.73,14.18-16.56,7.95-1.78,18.15,1.51,24.91,5.67,14.07,8.65,7.35,26.91,5.52,40.11-1.48,11.42.05,32.03-13.25,36.93-14.05,5.18-33.12-.78-36.34-16.4-1.68-8.1-.59-16.76.44-24.87Z"/>
</svg>