<?xml version="1.0" encoding="UTF-8"?>
<svg id="Layer_1" xmlns="http://www.w3.org/2000/svg" version="1.1" viewBox="0 0 246.19 299.71">
  <!-- Generator: Adobe Illustrator 30.5.1, SVG Export Plug-In . SVG Version: 2.1.4 Build 3)  -->
  <defs>
    <style>
      .st0 {
        fill: #2d2e2d;
      }
    </style>
  </defs>
  <path class="st0" d="M50.59,96.11c-3.99-10.53-4.21-23.39-2.88-33.49.28-2.08.63-4.13,1.07-6.14-4.54,2.25-8.87,5.45-12.05,9.29-9.99,12.07.41,24.73,10.27,32.74,1.2-.84,2.4-1.64,3.6-2.4h0Z"/>
  <path class="st0" d="M33.1,67.26c3.69-6.08,10.02-11.01,16.48-14h0c3.31-12.25,9.86-23.1,19.16-31.25-11.8-9.84-21.81,7.99-27.17,17.73,0,0-.02.03-.02.05-.09.21-.21.41-.34.6-.15.29-.3.57-.45.84-4.24,7.68-12.48,10.63-17.15,17.7-9.4,14.25-2.11,42.2,16.56,44.96,1.28-1.16,2.62-2.26,4-3.31-9.99-8.41-18.86-20.42-11.07-33.32Z"/>
  <path class="st0" d="M13.08,44.27c6.25,1.25,11.46-1.34,16.86-4.06,3.33-1.68,6.69-3.23,10.39-2.48,2.31-4.11,4.69-8.19,7.61-11.94,5.9-7.57,14.56-14.01,23.11-6.24.11.1.2.22.24.36,3.85-3.03,8.12-5.61,12.79-7.65C78.41,3.03,67.83-1.77,57.06.6c-13.23,2.93-16.12,16.51-26.58,23.11-4.24,2.68-9.52,3.98-14.51,3.91-2.6-.05-5.23-.49-7.64-1.49-2.34-.98-3.72-2.8-5.76-4.05-2.25-1.38-2.24.78-2.48,3.24-.22,2.31-.03,4.65.51,6.9,1.52,6.32,6.07,10.78,12.49,12.06h-.01Z"/>
  <path class="st0" d="M79.1,105.2c23.2,5.37,49.43.63,71.03-8.63-12.41-12.87-31.26-17.58-49.52-11.66-10.91,3.54-18.15,11.18-21.51,20.29h0Z"/>
  <path class="st0" d="M60.68,249.98c7.75-2.29,17.27.56,25.13,1.16,7.98.59,14.78-1.39,22.34-3.34,3.18-.82,9.08-2.83,12.1-.47,2.41,1.87,1.71,5.29.71,8.07,6.42-2.57,15.65-9.08,13.69-16.35-1.93-7.14-9.38-7.15-14.84-5.39-9.07,2.93-17.63,6.68-27.24,7.45-9.08.72-18.04-.79-26.71-3.41-4.98-1.51-9.06-2.61-14.25-2.17-3.85.32-7.61,1.22-11.45,1.71-1.18.15-2.41.29-3.63.3-2.17,9.17-4.07,18.49-5.14,27.86-.61,5.3-2.23,12.7,4.85,13.95,1.91.34,3.78-.06,5.64-.48,1.48-.34,1.32-.39,1.48-.62.9-1.29,1.14-3.71,1.61-5.21,2.53-8.07,6.49-20.33,15.69-23.04l.02-.02Z"/>
  <path class="st0" d="M32.68,233.36c.98.68,2.14,1.07,3.4,1.24l.85.09c5.05.38,11.53-2,15.72-2.34,9.3-.78,17.67,3.69,26.75,5.04,11.17,1.68,21.58,0,32.14-3.7,4.87-1.71,11.08-5.16,16.47-4.42,4.3.59,8.54,4.54,9.26,8.79,1.06,6.15-3.32,11.83-8.7,15.84,5.26-1.76,10.1-4.67,12.5-9.76,2.02-4.3,1.87-9.8-.34-14.02-3.91-7.42-13.78-9.54-21.42-8.68-5.84.65-11.01,3.36-16.71,4.59-4.67,1.01-9.47,1.29-14.23,1.01-10.43-.59-20.41-3.91-30.69-5.48-6.79-1.05-13.64-1.17-20.42-2.03-.95-.13-1.88-.34-2.78-.67-6.25.99-6.39,11.34-1.8,14.5Z"/>
  <path class="st0" d="M128.02,256.91c10.22-.15,20.82-4.78,23.94-15.04,4.56-14.96-5.01-28.89-19.4-32.48-18.85-4.71-36.94,4.73-55.75,1.37-9.02-1.61-16.53-6.32-25.16-8.98-6.27-1.94-15.78-3.11-20.79,2.34-4.09,4.44-.02,9.73,4.68,11.61.08.03.16.07.25.09h0c.53.21,1.07.36,1.6.46,3.77.72,7.92.51,11.73.88,18.12,1.84,36.73,9.89,54.98,5.54,7.87-1.87,14.76-5.47,23.09-4.46,5.47.67,11.29,3.13,14.66,7.65,3.69,4.93,3.93,12.3,1.68,17.85-2.78,6.9-8.81,10.87-15.53,13.16h0Z"/>
  <path class="st0" d="M106.09,142.23c-7.25-6.11-5.88-15.27.33-21.56,12.26-12.39,32.43-3.91,44.6,4.86,2.11-5.23,5.28-9.64,9.29-12.99-.44-1.18-.97-2.33-1.52-3.47-1.87-3.87-4.17-7.37-6.81-10.46-22.23,9.93-49.68,15.32-73.89,9.78-2.15,8.18-1.34,17.25,2.56,25.43.01,0,.02.02.02.05.02.07.05.13.1.2h0c.36.77.75,1.52,1.17,2.25h0l.23.4h.01v.02c1.07,1.83,2.31,3.6,3.7,5.29,9.76,11.76,24.43,13.69,38.65,9.99,11.42-2.96,21.8-10.11,24.96-21.93.1-.4.22-.8.35-1.2-10.09-7.42-26.54-15.62-38.57-9.02-5.47,3-9.81,9.33-6.63,15.47,2.08,4.01,6.5,6.77,10.83,7.72,4.88,1.08,11-.09,13.47-4.99,3.92-7.73-5.61-13-11.49-8.86-1.63,1.14-1.09-2.11-.05-2.84,3.98-2.79,9.49-2.52,12.86,1.21,3.56,3.95,2.22,9.43-.72,13.32-5.69,7.53-16.63,7.07-23.44,1.32h0Z"/>
  <path class="st0" d="M98.15,68.33c4.19-.45,6.9-4.19,7.23-8.16.02-.1.03-.21.03-.31.01-.2-.01-.34-.05-.46-.44-3.98-3.61-7.14-7.84-6.61-4.03.51-7.14,4.46-7.1,8.45.03,4.15,3.53,7.55,7.72,7.09h.01Z"/>
  <path class="st0" d="M136.06,68.29c7.63-.79,13.1-6.9,13.69-14.34.02-.12.03-.23.03-.33,0-.22,0-.38-.06-.51-1.57-17.92-29.58-15.86-29.44,1.88.07,8.26,7.81,14.11,15.78,13.3Z"/>
  <path class="st0" d="M168.62,59.04c-4.07.51-7.18,4.48-7.15,8.5.03,4.17,3.55,7.6,7.78,7.14,4.22-.46,6.94-4.22,7.27-8.21.02-.1.03-.21.03-.31,0-.2,0-.34-.05-.47-.44-4-3.64-7.18-7.89-6.65h0Z"/>
  <path class="st0" d="M49.61,76.19c.49,8.93,3.18,20.09,9.16,27.6-2.01-10.08-2.15-20.87-.57-30.83,2.98-18.8,13.96-34.74,31.61-42.51,25.54-11.24,57.45-12.88,84.11-4.83,6.62,2,13.93,4.51,19.36,8.94,8.09,6.62,12.81,17.24,14.15,27.41,1.84,14.08-2.47,34.92-15.5,43.45,9.28.15,18.34-.22,27.16-4.52.67-.32,1.33-.67,1.96-1.05,0,0,.02-.02.05-.03.17-.08.36-.17.52-.3,0,0,.02-.01.03-.01,7.34-4.33,12.69-11.09,15.13-19.41,5.22-17.65-1.28-39.08-13.12-52.7-16.93-19.46-45.72-23.09-70-22.95-13.72.08-27.41,1.49-40.93,3.65-12.99,2.07-26.14,4.36-37.38,11.62-18.92,12.22-26.93,34.65-25.73,56.46h-.01Z"/>
  <path class="st0" d="M194.39,188.35c.25,1.33.78,2.65,1.48,3.95.8-.57,1.57-1.14,2.31-1.68,1.77-1.31,4.23-3.39,6.98-5.34-.46-.53-.93-1.05-1.41-1.54-1.1-1.14-3.17-3.52-4.91-3.37-2.46-.14-5.38.87-4.93,6.37.16.54.32,1.07.48,1.61h0Z"/>
  <path class="st0" d="M212.92,201.25c-1.87,1.38-4.08,3.39-6.48,5.37,3.15,4.45,7.04,8.8,12.63,5.42,3.13-3.14.39-8.42-3.05-13.1-1.15.9-2.24,1.68-3.1,2.31h0Z"/>
  <path class="st0" d="M202.17,206.71c.97-.69,1.91-1.42,2.82-2.18,1.76-1.44,3.4-2.87,4.81-3.9,1.61-1.17,3.23-2.32,4.82-3.55.76-.57,1.52-1.17,2.25-1.79.06-.03.1-.08.16-.13,2.53-2.14,3.54-2.77,3.92-6.19.34-3.07.07-4.01-2.8-5.09-2.69-1-5.67-.16-8.53,1.37-1.01.54-2.01,1.16-2.98,1.83-2.45,1.68-4.69,3.6-6.45,4.93-.9.69-2,1.41-3.16,2.19-.78.53-1.59,1.07-2.38,1.64-4.25,3.05-8.03,6.81-4.85,11.78,3.76,3.85,8.24,2.02,12.36-.91h0Z"/>
  <path class="st0" d="M9.09,193.16c6.38,2.29,15.59-2.72,21.77-4.13,8.16-1.85,16.58-2.75,24.6.17,5.61,2.03,11.66,7.21,17.95,5.86,6.3-1.33,12.76-8.6,12.89-14.97.09-4.25-2.16-8.22-5.06-11.17-5-5.1-14.27-8.6-18.28-.48-.94,1.91-2.71.83-1.79-1.03,3.33-6.75,10.5-8.85,17.01-5.15,8.23,4.67,13.13,14.25,8.97,23.28-3.16,6.87-11.18,14.2-19.31,12.65-3.82-.74-7.25-3.01-10.75-4.61-4.81-2.2-9.78-3.36-15.09-3.15-1.83.07-3.64.25-5.44.52.74,1.76.85,4.8.83,6.71h0c6.99-1.6,15.57.57,21.38,3.16,14.73,6.58,27.87,9.19,43.72,5.9,17.06-3.55,42.92-4.37,50.7,15.09,4.19,10.48,2.59,23.54-6.18,31.15-7.6,6.61-18.92,8.54-28.56,6.19h-.01c-.32.05-.52-.09-.6-.33h0s-.01-.02-.01-.03h0s-.01-.02-.02-.03c0,0-.01,0-.01-.01-.15-.17-.2-.45-.1-.84,0-.02.01-.05.01-.07.06-.3.18-.61.36-.9,0-.01.01-.02.02-.05,1.44-3.56,2.18-7.16-2.69-7.37-2.96-.13-6.15.91-8.99,1.67-7.38,1.99-14.07,3.67-21.8,3.09-7.78-.59-20.15-4.54-27.09.09-4.94,3.3-7.39,10.07-9.25,15.44h0c-.59,9.02,1.15,20.74,8.71,26.49,6.66,5.06,16.12,3.49,23.64,1.61,9.33-2.36,18.21-6.19,27.3-9.32,6.93-2.38,14.16-4.57,21.56-4.64,6.4-.06,12.84,1.2,19.13,2.23,17.01,2.79,34.19,5.73,51.5,4.46,12.11-.88,28.14-2.46,34.09-14.54,4.5-9.14,6.29-19.73,7.79-29.71,3.92-25.96,4.52-52.53,4.06-78.74-.17-10.06-.52-20.13-1.41-30.15-1.22-13.77-8.56-31.35-23.65-34.79-4.79,2.65-10.14,4.38-15.58,5.3-6.38,1.08-13.18.51-19.89.36-.52-.02-1.05-.03-1.56-.03-7.34-.1-14.51.52-20.8,4.61-6.27,4.08-9.49,10.29-11.39,17.25-2.96,10.88-11.42,18.79-21.73,22.93-13.34,5.36-29.94,6-41.47-3.64-1.78-1.48-3.41-3.14-4.92-4.95,1.85,4.98,5.33,9.5,9.16,12.72,11.72,9.83,31.06,13.46,45.51,8.41,10.76-3.76,18.19-12.68,22.71-22.82,4.41-9.91,8.65-18.77,18.95-23.89,14.34-7.13,30.89-3.28,43.84,4.96,1.21.77-.55,3.73-1.72,2.99-17.57-11.18-44.76-13.31-55.6,8.32-3.87,7.72-6.31,15.5-12.16,22.17-8.11,9.24-19.48,13.86-31.73,13.54-17.87-.48-42.51-10.93-42.86-32-.43-.74-.84-1.48-1.22-2.24-10.08-.93-21.16-1.07-30.42,3.56-2.49,1.24-5.63,3.1-6.98,5.7-.98,1.88-2.75.8-1.79-1.03,6.21-12.02,25.41-12.48,37.66-11.61-.91-2.23-1.62-4.53-2.11-6.86-9.85-1.47-25.25-2.17-32.49,6.09-1.51,1.72-2.44-.46-1.26-1.79,7.71-8.8,22.25-9.09,33.17-7.7-.12-.87-.21-1.76-.25-2.63-.01-.26-.02-.51-.03-.77-8.4-2.19-21.63-4.44-28.65,2.28-1.63,1.56-1.72-1.39-.68-2.4,7.31-6.99,20.26-5.55,29.37-3.32h0c.02-.3.05-.57.07-.85-1.68-.06-3.37-.41-4.98-.87-8.68-2.45-14.25-8.52-17.63-16.09-1.38.87-2.77,1.79-4.17,2.77h0c-.4.28-.8.56-1.21.86-1.72,1.25-3.41,2.59-4.99,4.02-.39.34-.77.71-1.14,1.07-2.21,2.16-4.14,4.54-5.55,7.17-3.46,6.41-5.96,13.01-10.4,18.92-5.92,7.88-15.25,13.05-19.98,21.72-3.99,7.29-4.95,16.19-3.36,24.28.95,4.82,3.16,12.11,8.38,13.97l-.02-.03ZM180.22,196.49c1.03-8.32,2.07-16.84,4.54-24.88,2.25-7.34,6.08-14.73,14.18-16.56,7.95-1.78,18.15,1.51,24.91,5.67,14.07,8.65,7.35,26.91,5.52,40.11-1.48,11.42.05,32.03-13.25,36.93-14.05,5.18-33.12-.78-36.34-16.4-1.68-8.1-.59-16.76.44-24.87h0Z"/>
</svg>