<?xml version="1.0" encoding="UTF-8"?>
<svg id="Layer_1" xmlns="http://www.w3.org/2000/svg" version="1.1" viewBox="0 0 1781.8 463.14">
  <!-- Generator: Adobe Illustrator 30.5.1, SVG Export Plug-In . SVG Version: 2.1.4 Build 3)  -->
  <defs>
    <style>
      .st0 {
        fill: #2d2e2d;
      }
    </style>
  </defs>
  <path class="st0" d="M1553.71,397.65c8.44-.85,14.2,6.76,21.38,9.72,2.91,1.22,6.02,2.07,9.22,2.67-5.69-3.72-9.85-8.93-14.69-14.77-3.24-3.91-9.84-9.96-15.36-10.02-4.6-.05-6.82,4.5-4.33,8.39.97,1.53,2.36,2.9,3.79,4.01Z"/>
  <path class="st0" d="M1573.31,219.47c-.38,3.92-.16,8.02.65,11.89,1.21-.07,2.43-.14,3.64-.2,2.91-.16,5.8-.31,8.71-.47,3.64-8.07,2.26-18.78.3-27.21-8.04,2.61-12.46,7.3-13.31,15.99Z"/>
  <path class="st0" d="M1608.76,198.4c-1.17.2-2.36.39-3.53.6v1.78c1.18-.07,2.36-.13,3.53-.2v-2.18Z"/>
  <path class="st0" d="M1608.76,203.67c-1.17.06-2.34.13-3.53.2v4.48c1.18-.06,2.36-.11,3.53-.18v-4.49Z"/>
  <path class="st0" d="M1608.76,211.26c-1.17.07-2.34.13-3.53.18v3.92c1.18-.05,2.36-.09,3.53-.15v-3.95Z"/>
  <path class="st0" d="M1608.76,218.31c-1.17.06-2.34.1-3.53.15v4.83c1.18-.05,2.36-.09,3.53-.14v-4.84Z"/>
  <path class="st0" d="M1605.23,229.7c1.18-.07,2.36-.13,3.53-.2v-3.25c-1.17.05-2.34.09-3.53.15v3.3Z"/>
  <path class="st0" d="M1611.25,198v2.45c1.61-.09,3.23-.18,4.84-.28-.02-.94-.03-1.9-.06-2.85-1.6.22-3.2.44-4.78.68Z"/>
  <path class="st0" d="M1611.25,208.04c1.66-.08,3.32-.17,4.99-.25-.03-1.52-.06-3.02-.09-4.53-1.63.09-3.26.18-4.9.28v4.5Z"/>
  <path class="st0" d="M1611.25,215.11c1.7-.07,3.41-.14,5.11-.22-.02-1.33-.05-2.68-.07-4.01-1.69.08-3.37.17-5.05.25v3.98Z"/>
  <path class="st0" d="M1611.25,223.05c1.76-.07,3.5-.15,5.26-.22-.02-1.61-.06-3.22-.09-4.84-1.72.08-3.45.15-5.17.22v4.84Z"/>
  <path class="st0" d="M1611.25,229.38c1.79-.09,3.59-.2,5.39-.29-.02-1.06-.05-2.1-.06-3.16-1.78.08-3.56.15-5.33.22v3.23Z"/>
  <path class="st0" d="M1567.19,269.74c4.3,1.92,8.79,3.44,13.39,4.65h.05c.13.05.24.08.37.1,3.22.84,6.48,1.54,9.78,2.11h.01c.13-.02.25,0,.34.06h.01c7.88,1.36,15.92,2.06,23.75,2.53-9.7-4.77-15.83-13.53-13.46-26.2,1.71-9.12,7.83-16.54,15.77-20.85-14.96.8-29.94,1.6-44.91,2.39-.03.01-.07.01-.1.01-7.43.39-14.87.78-22.3,1.18-.1,2.48-.14,4.98-.13,7.46.02,4.55-.23,9.32,1.78,13.53,3.02,6.31,9.49,10.29,15.65,13.02Z"/>
  <path class="st0" d="M1596.82,442.69c6.08.75,12.42-1.74,16.55-6.21,5.99-6.49,4.76-13.85,2.53-21.54-2.2-7.61-1.92-15.33.22-22.9,2.29-8.14,8.33-16.46,2.42-24.5-4.88-6.64-13.74-8.85-21.56-8.94-4.3,3.16-9.77,3.54-15.5,3.2-9.35-.57-17.43,1.22-25.4,4.91,2.16,5.02,1.84,10.64-.68,15.47t-.01.02c.72,0,1.45.09,2.17.28,6.78,1.8,12.32,7.7,16.39,13.14,5.61,7.48,12.08,13.11,21.29,15.58h.03c.44.02.87.03,1.31.05,1.48.03.15,3.19-1.2,3.16-.36-.01-.7-.02-1.05-.03-.06,0-.1,0-.16-.01-.02,0-.03.01-.06,0-.02,0-.05-.01-.07-.01-5.86-.23-11.85-1.1-17.44-2.84-8.08-2.51-14.8-11.6-23.8-10.65-.01,0-.01.01-.01.01-.07.02-.14.03-.21.03-.03,0-.08-.01-.11-.01s-.08.01-.12.01c-3.92.54-5.87,5.62-3.75,8.98.72,1.16,1.92,1.9,2.93,2.77,1.31,1.1,2.49,2.18,3.39,3.54,9.53,1.67,18.78,7.15,25.48,13.95,5.25,5.32,8.24,11.56,16.4,12.56Z"/>
  <path class="st0" d="M1618.54,197c.02,1.01.05,2.02.06,3.03,1.55-.08,3.1-.17,4.64-.25-.02-1.11-.04-2.23-.08-3.34-1.54.18-3.08.37-4.62.56Z"/>
  <path class="st0" d="M1618.65,203.12c.03,1.51.06,3.02.09,4.54,1.56-.08,3.11-.16,4.68-.24-.03-1.53-.07-3.05-.11-4.56-1.55.08-3.1.17-4.65.26Z"/>
  <path class="st0" d="M1618.8,210.74c.02,1.36.05,2.7.08,4.05,1.56-.07,3.14-.13,4.71-.2-.03-1.37-.07-2.72-.1-4.09-1.56.08-3.13.16-4.69.24Z"/>
  <path class="st0" d="M1618.94,217.89c.02,1.61.06,3.23.09,4.84,1.59-.06,3.16-.13,4.75-.2-.03-1.61-.08-3.23-.12-4.84-1.57.07-3.15.13-4.72.2Z"/>
  <path class="st0" d="M1623.93,228.7c-.02-1.02-.05-2.05-.08-3.07-1.59.07-3.17.14-4.76.2.02,1.05.03,2.09.06,3.13,1.6-.08,3.18-.16,4.78-.25Z"/>
  <path class="st0" d="M1665.27,226.51c4.83-10.43,4.17-23.29-1.61-33.3-.02-.05-.03-.09-.05-.14-7.61.31-15.17.85-22.65,1.53-4.47,10.47-4.79,23,.4,33.18,7.96-.41,15.94-.84,23.9-1.26Z"/>
  <path class="st0" d="M1666.49,306.41c1.49.92,3.11,1.63,4.81,2.17,0,.01.01.01.02.01-4.9-7.23-5.84-18.82-6.5-26.68-3.17.17-6.32.33-9.47.49.01,8.98,3.3,19.16,11.14,24.01Z"/>
  <path class="st0" d="M1676.74,309.56c.08.06.14.13.2.21,1.99.24,4.06.35,6.13.35-2.7-4.76-3.46-11.01-4.24-16.16-.64-4.23-1.14-8.5-1.44-12.79-3.32.22-6.63.41-9.95.6t-.01.01c.76,8.87,2.16,22.51,9.32,27.79Z"/>
  <path class="st0" d="M1680.7,192.8c.03,1.23.07,2.46.1,3.7,1.48-.03,2.97-.06,4.45-.09-.02-1.17-.06-2.34-.09-3.53-1.48-.03-2.98-.07-4.46-.08Z"/>
  <path class="st0" d="M1680.88,199.63c.05,1.34.08,2.69.12,4.05,1.48-.03,2.97-.08,4.45-.12-.03-1.33-.07-2.68-.12-4.01-1.48.02-2.97.06-4.45.08Z"/>
  <path class="st0" d="M1681.09,206.79c.02,1.02.06,2.03.08,3.06,1.48-.06,2.95-.1,4.44-.15-.03-1.01-.06-2.01-.08-3.01-1.48.03-2.95.07-4.44.1Z"/>
  <path class="st0" d="M1681.26,212.95c.05,1.64.09,3.29.14,4.93,1.47-.06,2.94-.13,4.41-.18-.05-1.63-.08-3.26-.13-4.9-1.47.06-2.95.1-4.43.15Z"/>
  <path class="st0" d="M1686.02,225.4c-.05-1.54-.08-3.08-.13-4.61-1.47.06-2.93.13-4.4.18.05,1.55.09,3.1.13,4.65,1.47-.08,2.93-.15,4.4-.23Z"/>
  <path class="st0" d="M1686.86,310.02c2.34-.1,4.67-.29,6.87-.47-2.39-4.45-2.91-10.39-3.53-15.01-.63-4.71-1.07-9.48-1.29-14.24-2.72.23-5.45.44-8.17.63-.25.02-.52.03-.78.06.29,3.65.71,7.3,1.25,10.91.89,5.77,1.69,13.17,5.5,17.86.06.08.1.17.14.26Z"/>
  <path class="st0" d="M1687.68,192.95c.02,1.14.06,2.28.09,3.41,1.61-.02,3.22-.06,4.83-.08-.05-1.05-.09-2.08-.14-3.11-1.59-.08-3.18-.16-4.78-.22Z"/>
  <path class="st0" d="M1687.86,199.5c.03,1.33.07,2.67.1,4,1.66-.05,3.31-.08,4.95-.13-.06-1.32-.12-2.64-.17-3.96-1.63.03-3.25.06-4.88.09Z"/>
  <path class="st0" d="M1688.04,206.62c.02,1,.06,2,.08,2.99,1.69-.06,3.38-.11,5.07-.17-.05-.98-.09-1.95-.14-2.93-1.67.03-3.33.08-5.01.12Z"/>
  <path class="st0" d="M1688.2,212.72c.05,1.62.08,3.24.13,4.87,1.74-.08,3.47-.15,5.21-.23-.07-1.61-.14-3.22-.21-4.83-1.71.07-3.41.13-5.13.18Z"/>
  <path class="st0" d="M1693.88,224.99c-.07-1.52-.14-3.02-.21-4.53-1.75.07-3.5.15-5.26.22.04,1.53.08,3.06.13,4.59,1.78-.09,3.56-.18,5.34-.28Z"/>
  <path class="st0" d="M1668.07,254.47c.07-.22.1-.42.08-.62-.01-.06-.03-.11-.03-.17-.01-.06-.02-.13-.03-.17-2.08-11.94-30.82-11.16-30.99,1.53-.16,12.48,29.05,11.7,30.98-.56Z"/>
  <path class="st0" d="M1603.7,253.25c-2.45,15.85,10.15,24.22,24.28,26.47.1.01.2.06.27.09h.03c6.9.2,13.81.17,20.69-.18h.05c8.04-.4,16.09-.86,24.14-1.4,2.92-.2,5.87-.39,8.83-.6,3.98-1.75,7.87-3.59,11.09-6.62,7.07-6.65,7.75-16.9,4.38-25.65-3.72-9.69-13.85-15.95-24.11-16.19-11.07.6-22.12,1.18-33.19,1.77-.18.08-.36.1-.51.02-4.22.23-8.42.45-12.64.68-11.28,1.93-21.5,9.94-23.32,21.62ZM1650.58,239.03c10.07-.79,29.59,1.64,31.01,14.69.06.13.08.31.07.55,0,.13-.01.24-.05.37-1.04,11.28-14.88,15.5-24.39,16.26-9.5.75-31.02-1.7-31.07-15.24-.06-11.53,15.51-15.92,24.43-16.63Z"/>
  <path class="st0" d="M1697.58,309.24c2.05-.15,4.14-.32,6.22-.55-2.63-7.98-4.17-16.57-4.17-25.04,0-1.47.05-2.93.14-4.39-2.76.3-5.53.57-8.3.83.18,3.54.49,7.08.92,10.61.68,5.7,1.14,13.88,5.01,18.56.07,0,.13-.01.18-.01Z"/>
  <path class="st0" d="M1695.02,193.31c.04.98.09,1.95.14,2.93,2.08-.05,4.17-.08,6.26-.11-.03-.78-.07-1.55-.1-2.33-2.09-.18-4.19-.36-6.3-.48Z"/>
  <path class="st0" d="M1695.29,199.36c.06,1.32.12,2.63.17,3.95,2.08-.06,4.16-.1,6.25-.16-.06-1.3-.11-2.61-.17-3.91-2.08.03-4.17.08-6.25.11Z"/>
  <path class="st0" d="M1695.6,206.43c.05.98.08,1.94.13,2.91l6.24-.21c-.05-.95-.08-1.91-.13-2.85-2.08.05-4.16.1-6.24.15Z"/>
  <path class="st0" d="M1695.87,212.45c.07,1.6.14,3.19.21,4.8,2.08-.09,4.15-.18,6.23-.28-.07-1.57-.14-3.16-.21-4.75-2.07.08-4.15.15-6.23.22Z"/>
  <path class="st0" d="M1699.58,224.68c1.01-.06,2.03-.1,3.04-.16-.07-1.48-.13-2.95-.2-4.44-2.07.09-4.14.17-6.22.26.07,1.51.14,3,.21,4.51,1.05-.06,2.1-.11,3.16-.17Z"/>
  <path class="st0" d="M1706.77,308.3c1.33-.18,2.65-.41,3.96-.69-1.97-5.25-3.06-10.93-2.94-16.38.09-4.91,1.44-9.43,3.69-13.45-3.09.45-6.18.85-9.3,1.2-.48,9.91,1.3,20.03,4.57,29.33,0-.01.01-.01.01-.01Z"/>
  <path class="st0" d="M1614.6,311.96c-.24-4.5-3.29-8.31-7.83-9.09-4.86-.82-9.89,2.53-9.93,7.71-.06,10.58,17.13,12.92,17.76,1.38ZM1605.76,307.57c2.23.39,3.8,2.25,3.93,4.49-.29,5.25-8.56,3.33-8.44-1.38.06-2.33,2.4-3.48,4.5-3.11Z"/>
  <path class="st0" d="M1544.01,369.65c3.17-.53,6.22-2.24,9.24-4.03.57-.34,1.14-.69,1.71-1.02,2.08-1.24,4.16-2.41,6.27-3.19,8.35-3.05,16.21-2.64,24.93-2.47,7.64.15,14.66-4.05,15.06-12.3.31-6.39-3.53-11.81-9.79-13.25-5.17-1.18-10.83.51-11.19,6.5-.08,1.29-2.61,3.38-2.48,1.38.84-13.83,19.62-15.09,24.7-3.11,2.26,5.34,1.41,11.76-1.79,16.54-.2.29-.39.57-.6.84,12,.87,26.11,8.03,23.34,22.12-1.53,7.77-5.87,14.36-6.48,22.51-.62,8.38,3.76,15.54,3.55,23.7-.22,9.18-6.37,17.39-14.87,20.65-4.16,1.6-8.8,1.97-13.1.68-5.54-1.67-8.27-5.63-11.82-9.84-6.01-7.11-14.89-13.05-24.16-15.42,1.3,4.99.69,10.83,1.8,15.82,1.56,6.96,4.79,13.62,10.69,17.9,7.68,5.6,17.61,5.77,26.72,6.37,8.91.57,18.57,1.09,27.16-1.83,10.49-3.56,12.31-12.28,11.94-22.41-.32-9.1-2.33-18.16-1.84-27.29.52-9.46,4.01-17.97,9.03-25.91,1.13-1.77,2.92-.75,1.79,1.03-4.57,7.24-7.85,14.87-8.34,23.5-.33,5.95.48,11.87,1.1,17.78,1,9.49,2.63,21.28-3.71,29.38-1,1.28-2.13,2.37-3.36,3.31,22.18,7.12,49.06,8.29,70.26-1.79-5.25-5.76-6.79-13.94-5.29-22.67,1.2-6.88,4.91-13.99,10.47-18.49-1.77-1.67-3.39-3.53-4.83-5.61-13.46-19.56-8.27-47.54-4.76-69.35,1.83-11.41,7.4-21.43,17.62-26.96-.4-.77-.78-1.56-1.13-2.37-5.04,1.2-10.32,1.71-15.49,2.06h-.01c-.14.05-.27.06-.4.02t-.01,0c-.39.03-.77.06-1.15.08-9.77.63-22.38,2.28-30.92-3.69-8.06-5.63-11.29-16.77-10.97-26.28-1.7.08-3.4.16-5.1.25h-.05c-.87.05-1.75.07-2.63.1-15.54.51-31.21-.02-46.63-1.99-2.49-.32-5.14-.67-7.87-1.08-1.06,1.43-2.03,2.92-2.91,4.46-.68,1.2-2.07,3.11-2.03,4.5.08,2.56,1.92,2.37,4.16,2.11,7.65-.84,14.89-3.34,22.66-1.68,8.65,1.85,15.65,9.17,23.43,13.19,5.01,2.6,10.19,4.96,15.48,6.95,1.25.47-.37,3.49-1.72,2.98-7.33-2.75-14.54-6.14-21.27-10.14-4.76-2.83-8.95-7.08-14.17-9-5.83-2.14-12.17-1.51-18.15-.44-3.65.64-13.24,4.18-12.99-2.41.14-3.73,2.75-7.68,5.16-10.91-2.59-.43-5.22-.92-7.86-1.52h-.01c-6.11,15.12-19.08,23.9-31.19,34.2-7.09,6.03-11.11,13.81-14.16,22.58-2.8,8.09-4.8,17.61-2.26,26.03,1.54,5.1,5.37,9.89,11.24,8.91ZM1666.52,382.57c1.82-1.33,1.89,1.52.68,2.4-20.28,14.97-18.46,44.47-7.89,64.81.62,1.21-1.48,3.88-2.14,2.61-11.47-22.09-12.51-53.67,9.35-69.82ZM1585.72,302.64c9.12-4.71,20.86-6.33,30.63-2.93,8.66,3.02,16.03,8.85,24.9,11.72,3.88,1.26,7.95,2.36,12.03,2.79,1.53.16.14,3.29-1.18,3.15-6.07-.64-12.09-2.4-17.82-4.8-10.07,6.65-29.68,19.03-40.68,7.77-3.92-4.01-5.6-10.3-5.61-15.9-.75.32-1.48.68-2.22,1.06-1.82.93-1.22-2.24-.05-2.85Z"/>
  <path class="st0" d="M1749.77,222.01c-.55-4.86-2.29-9.84-4.95-13.81-4.67-6.95-12.17-9.19-19.94-10.87-.45-.1-.91-.18-1.36-.28-1.77,8.75-.56,18.23,3.36,26.18,7.63-.41,15.26-.82,22.89-1.22Z"/>
  <path class="st0" d="M1734.84,426.51c-2.53-.24-5.06-.61-7.55-1.1-.88,1.51-1.6,3.16-1.94,4.84-1.3,6.44,4.23,8.45,9.55,9.41,4.34.79,10.48,1.84,14.41-.87,3.86-2.67,2.73-8.4,1.84-12.26-.02-.14-.02-.29,0-.44-5.36.91-10.94.93-16.31.43Z"/>
  <path class="st0" d="M1714.01,307.73c.54,1.25,1.13,2.47,1.77,3.64,3.43-1.48,6.98-2.39,10.58-2.92-2.68-6.91-3.94-15.25-1.45-22.21,2.86-8.01,11-12.56,19.16-13.33,6.78-.63,16.8,1.91,16.61,10.45-.17,8.02-8.33,11.99-15.35,11.85-1.49-.02-.16-3.17,1.18-3.15,4.24.08,9.64-1.05,11.23-5.62,1.26-3.62-.8-6.64-3.81-8.47-4.75-2.9-11.38-2.42-16.41-.69-13.65,4.68-12.93,19.59-8.07,30.79,2.46-.24,4.94-.34,7.43-.38h.01c9.37-.13,19.96.62,28.68,4.68,10.46-9.23,11.38-24.41,4.98-36.48-2.7-5.1-7.1-8.83-12.22-11.15-1.03-.47-2.11-.88-3.21-1.24-4.22-1.38-8.77-1.87-13.15-1.47-9.46.87-19.03,5.14-25.13,12.04-.92,1.03-1.77,2.14-2.52,3.3-2.76,4.24-4.3,9.26-4.01,14.92.25,4.96,1.47,10.14,3.44,14.87.16.11.24.32.25.57Z"/>
  <path class="st0" d="M1582.74,201.97c13.59-5.79,29.64-7.37,44.16-9,12.65-1.43,25.39-2.31,38.13-2.65.16-.06.32-.07.47-.01,5.99-.16,11.97-.21,17.96-.11,16.39.25,33.64.91,49.43,5.73,11.83,3.61,18.69,13.83,19.47,25.95,7.49-.4,14.97-.79,22.47-1.2-1.18-7.85-3.93-15.38-8.31-20.86-11.63-14.57-32.72-18.53-50.2-20.32-22.24-2.28-44.76-1.01-67,.72-9.94.78-19.87,1.72-29.81,2.54-10.8.87-21.66,1.18-32.27,3.6-9.39,2.14-18.86,5.87-25.56,13.05-6.55,7.01-9.49,16.38-10.85,25.68-.37,2.51-.62,5.01-.78,7.53,7.04-.37,14.09-.75,21.13-1.13-1.85-11.09.23-24.71,11.55-29.53Z"/>
  <path class="st0" d="M1725.67,226.38c-.18.08-.36.1-.51.03-13.23.7-26.45,1.4-39.67,2.1,8.22,3.73,14.35,11.31,15.93,20.66.3,1.8.45,3.53.45,5.18,0,10.15-5.49,17.57-13.7,22.8.75-.05,1.48-.1,2.23-.16h.01c.22-.1.41-.13.57-.05h.01c3.47-.29,6.95-.59,10.43-.94.28-.15.53-.2.7-.07,0,0,0-.01.01-.01,3.82-.39,7.63-.85,11.43-1.38,9.79-13.33,30.07-19.66,45.47-13.24,6.58-4.04,12-9.6,14.42-17.43,1.84-5.94,2.43-13.07,1.73-20.13-9.4.5-18.8,1-28.2,1.5-7.11.38-14.23.75-21.34,1.13Z"/>
  <path class="st0" d="M1770.21,416.86c-1.9,1.86-3.98,3.42-6.18,4.7h-.01c8.8,6.55,12.76,19.52,3.53,27.8-7.62,6.83-21.54,6.61-31.07,6.27-9.92-.33-26.17-1.49-30.79-12.19-3.5-8.1,1.21-17.21,6.95-23.26h0c-2.08-1.16-4.07-2.48-5.91-4-9.68,6.54-12.66,21.34-8.62,31.79,1.01,2.62,2.61,4.76,4.6,6.49.24.02.39.17.46.39,7.02,5.8,18.51,7.06,26.82,7.45,12.08.57,25.01-.36,36.66-3.8,8.49-2.51,14.14-9.25,14.63-18.21.52-9.27-4.31-17.48-10.62-23.87l-.45.45Z"/>
  <path class="st0" d="M1746.97,359.84c-4.91-.84-9.99,2.55-10.02,7.78-.06,10.7,17.3,13.03,17.93,1.39-.24-4.55-3.32-8.4-7.91-9.17Z"/>
  <path class="st0" d="M1743.51,349c-9.18.99-16.31,9.32-16.28,18.48.03,10.06,8.79,18.11,18.84,17.1,9.43-.95,15.7-9.16,16.25-18.19.02-.09.03-.2.02-.29.01-.18,0-.32-.03-.44-.69-9.77-8.57-17.76-18.79-16.66ZM1729.72,366.1c.03-9.18,8.87-15.46,17.57-13.74,7.36,1.44,12.22,7.81,12.56,15.12-.93,19.59-30.2,17.16-30.13-1.38Z"/>
  <path class="st0" d="M1764.93,315.8c-.47.18-.75-.03-.87-.43-8.62-4.1-19.14-4.65-28.36-4.54h-.01c-7.14.1-14.3.83-20.8,3.79-.01.01-.02.02-.03.02-.07.02-.15.06-.23.1-.85.39-1.68.82-2.5,1.3-13.12,7.58-14.4,22.25-16.2,35.83-2.64,20.03-4.77,46.3,12.08,60.96.05.02.07.05.1.08.33.3.68.59,1.02.86,10.58,8.47,25.89,10.87,39.07,9.68,11.71-1.07,21.88-6.59,27.19-17.35,4.53-9.2,5.49-19.88,5.91-29.99.37-9.22.72-18.57.36-27.79-.37-9.43-2.02-19.44-8.71-26.6-2.33-2.49-5.05-4.44-8-5.93ZM1774.95,390.1c-2.99,18.55-16.94,27.19-34.69,27.42-12.62.15-27.53-1.78-34.54-13.73-5.16-8.79-4.98-19.73-4.79-29.59.31-16.81-1.13-38.23,11.68-51.24,14.86-15.11,46.83-10.6,58.33,6.56,11.45,17.08,7.07,41.62,4.02,60.59Z"/>
  <g>
    <path class="st0" d="M18.56,222.64c-.77,7.11-1.55,14.23-2.33,21.34,8.14,1.05,16.28,2.09,24.42,3.14.06-.74.1-1.46.16-2.18-.01-.16,0-.33.05-.52.54-7.18,1.08-14.35,1.62-21.54-1.21.15-2.4.29-3.61.43-6.26.68-14,1.56-20.31-.67Z"/>
    <path class="st0" d="M21.23,111.06c7.61,0,11.92-6.5,14.4-12.91.64-1.64,3.02-1.93,2.18.21-1.05,2.69-2.37,5.46-4.07,7.92h.01c4.56-2.49,9.27-4.75,13.84-7.57,3.1-1.92,9.87-6.15,11.27-9.85-1.84-1.33-3.55-2.91-5.09-4.77-6.81-8.23-8.49-19.55-7.7-29.9.87-11.46,4.23-23.11,10.72-32.48-6.87-9.06-19.01-12.69-29.64-8.52-8.94,3.52-16.12,10.02-13.05,20.16,1.95,6.42,5.71,12.16,8.16,18.38,3.96,10.03,6.15,24.13-.25,33.66-3.54,5.27-8.5,6.86-13.76,9.81-4.42,2.51-1.92,7.21.79,10.16,3.06,3.33,7.61,5.7,12.18,5.7Z"/>
    <path class="st0" d="M62.18,244.23c.01-.33.18-.64.18-.98-.09.2-.18.51-.18.98Z"/>
    <path class="st0" d="M63.94,231.36c.29-2.4.59-4.8.87-7.21-2.7-1.2-5.55-1.99-8.86-2.13-3.69-.17-7.39.16-11.07.57-.52,6.7-1.02,13.41-1.53,20.11,3.54.68,7.37.56,10.93.59,2.19.02,4.4.05,6.58-.14.88-.07,1.31-.17,1.49-.21-.02-3.75,1.1-7.88,1.57-11.6Z"/>
    <path class="st0" d="M67.02,225.23c-.35,2.82-.68,5.63-1.03,8.43-.15,1.14-.2,2.56-.28,4.06,4.11,1,8.24,2,12.36,3.01.52-2.47,1.02-4.94,1.54-7.41-2.6-1.76-5.17-3.53-7.75-5.19-1.64-1.07-3.24-2.05-4.85-2.9Z"/>
    <path class="st0" d="M22.59,275.95c8.55-3.18,15.66-4.07,24.87-2.95,8.2.98,16.39,1.33,24.62.28,20.62-2.67,37.61-13.63,48.06-31.03-1.61.95-3.28,1.74-4.6,2.25-1.15.45-2.32.75-3.5.95-10.5,9.85-26.42,14.74-40.38,15.88-13.16,1.07-26.52-1.34-39.45-3.61-6.39-1.13-13.25-3.31-19.79-3.23-6.77.09-10.49,6.62-10,13.04.78,10.24,12.48,11.27,20.18,8.41Z"/>
    <path class="st0" d="M24.12,220.5c9.09,1.4,18.38-.98,27.45-1.53,5.77-.36,10.32.41,14.79,2.29.45-.17.87-.09.99.43,2.23,1.01,4.46,2.3,6.84,3.85,2.6,1.69,5.18,3.46,7.79,5.21.05.02.08.05.11.07,5.64,3.77,11.41,7.38,17.74,9.72,3.87,1.43,8.16,2.42,12.31,1.88.18-.09.33-.1.46-.06.78-.13,1.55-.29,2.31-.53,1.24-.4,6.55-2.82,7.77-4.24.08-.16.16-.31.23-.46.01-.03.02-.07.02-.09-.17-1.26-1.75-1.51-2.77-1.91-5.11-2.02-10.27-3.53-15.07-6.34-4.5-2.64-8.62-5.99-12.95-8.92-7.98-5.37-16.42-9.8-25.71-12.43-11.1-3.14-22.65-3.26-33.94-5.37-7.6-1.43-15.34-3.96-21.43,1.74-.74,8.03,2.21,15.03,13.04,16.7Z"/>
    <path class="st0" d="M32.28,198.64c14.95,2.85,30.11,2.86,44.39,8.75,11.14,4.6,19.89,12.4,30.15,18.42,5.26,3.08,11.83,3.94,16.88,7.08.12.07.21.14.32.21.54-1.69,1.4-3.3,2.47-4.77-7.63-3.31-13.94-8.88-20.43-14-8.71-6.86-17.97-12.83-28.56-16.39-6.61-2.22-13.64-2.39-20.2-4.41-3.22-.99-5.67-2.99-6.23-6.41-.66-3.94,1.16-8.24,3.34-11.71-3.34-1.21-6.75-2.25-10.31-2.4-6.03-.25-11.39,2.92-16.8,5.13-.56.23-1.14.46-1.72.69h-.01c1.44,6.26-2.38,13.59-5.91,18.81,3.96-.45,8.19.17,12.61,1.01Z"/>
    <path class="st0" d="M124.86,135.21c-1.56,1.69-4.13,3.78-5.11,5.96-1.17,7.01,8.6,11.1,13.69,7.56,2.65-1.85,5.19-3.92,7.69-6.03-.45-.57-.9-1.13-1.33-1.63-3.25-3.76-6.47-7.55-9.64-11.38-1.79,1.8-3.56,3.64-5.29,5.52Z"/>
    <path class="st0" d="M145.27,142.26c.49.57,1,1.14,1.52,1.71,1.68,1.86,3.76,5.05,6.03,6.24,5.03,2.67,10.69-3.49,10.25-8.31-.33-3.69-3.42-7.37-5.7-10.22-.09-.11-.17-.22-.26-.33-.39-.48-.78-.97-1.17-1.45-2.91-3.51-6.07-6.8-9.3-10.02-1-.99-2-1.98-3.01-2.94-.54-.53-1.08-1.05-1.63-1.56-3.23-3.07-6.54-6.06-9.93-8.94-3.7-2.98-8.43-4.07-11.2.82-1.18,2.1-1.08,2.99-.21,4.84,1.67,3.48,4.96,6.75,7.35,9.72,1.02,1.28,2.06,2.55,3.1,3.83.46.57.92,1.14,1.38,1.7,3.67,4.45,7.4,8.84,11.22,13.16.51.59,1.02,1.17,1.56,1.76Z"/>
    <path class="st0" d="M169.17,114.92c-1.76-4.46-6.86-9.62-11.95-7.91-3.76,1.28-7.22,4.57-10.22,7.06-.24.2-.48.4-.72.62,4.29,4.11,8.39,8.45,12.11,13.02,2.6-2.32,5.18-4.64,7.76-6.99,2.61-2.37,4.25-2.71,3.02-5.8Z"/>
    <path class="st0" d="M198.94,271.1c-7.09-1.76-16.64,2.4-19.42,9.47,3.53-1.87,8.26-2.22,11.15.82,3.28,3.44,2.45,10.63-1.32,13.43-4.3,3.22-9.95-.2-11.96-4.41-2.21-4.6-.79-9.8,2.05-13.74,3.65-5.09,9.85-8.78,16.15-9.09.01-.01.02-.01.03-.01,6.23-1.49,11.32-4.22,12.92-10.85,1.52-6.34.7-14.49-.83-20.73-2.79-11.4-15.34-15.65-25.67-17.3-11.74-1.87-24.24-1.4-35.84,1.13-4.8,1.05-11.99,3.4-16.4,7.57h-.01c-.25.66-.78,1.3-1.36,1.49-1.45,1.76-2.38,3.79-2.53,6.14.09.22.07.53-.1.95-.06.46-.21.97-.51,1.54-.23.44-.53.87-.88,1.3-11.16,21.65-30.78,35.37-55.35,37.84-9.71.97-18.87-.55-28.51-1.09-5.56-.31-10.71.41-15.87,2.41-2.86,1.11-5.6,2.31-8.7,2.57-.67.06-1.33.07-2,.07h0c-3.42,9.58-1.93,21.71,6.73,27.94,13.15,9.46,28.71-.71,41.84-4.46,24.9-7.09,49.33,4.94,73.97,7.68,18.92,2.11,39.55,2.75,58.03-2.46,7.02-1.98,16.42-5.54,18.47-13.47.09-.36.17-.71.23-1.08h0c.03-.17.06-.33.08-.51,0-.02,0-.05.01-.07,1.2-9.04-5.64-20.9-14.4-23.09ZM167.35,242.05c-7.06,1.56-12.76,6.8-16.71,12.64-5.03,7.41-6.45,15.45-13.59,21.5-.1.07-.2.15-.29.22,4.59,10.72,14.77,19.12,26.2,21.67,1.54.34.1,3.44-1.18,3.15-12.16-2.71-22.71-11.51-27.49-22.93-8.64,6.14-19.44,8.96-29.87,9.93-8.71.82-17.35-.23-26.06-.01-8.42.21-16.81,1.33-25.01,3.29-7.32,1.76-14.84,4-21.54,7.5-1.8.94-1.21-2.24-.05-2.85,8.26-4.32,17.69-6.95,26.78-8.76,7.9-1.56,15.96-2.38,24.01-2.37,9.66,0,19.04.92,28.65-.7,7.69-1.3,16.48-3.99,23.24-8.88.29-.36.63-.63.97-.71,3.24-2.54,5.95-5.62,7.73-9.37,4.15-8.7,7.68-16.78,16.01-22.48,11.89-8.15,24.56-3.62,34.44,5.47,1.07.99-.77,3.86-1.72,2.99-6.68-6.14-15.07-11.4-24.51-9.31Z"/>
    <path class="st0" d="M57.48,83.24c6.49,6.55,15.47,8.65,24.4,8.63-2.21-9.39,1.22-21.48,10.58-24.17,1.65-.48.64,2.75-.59,3.09-7.06,2.03-8.47,10.35-7.6,16.62.22,1.56.52,3.16.98,4.67.01,0,.01.01.01.02.01.06.03.13.06.2,0,.01,0,.02.01.05.99,3.08,2.72,5.75,6.08,7.01,4.05,1.52,8.81.76,12.92-.07,17-3.42,32.57-12.69,50-6.41,7.3,2.63,14.12,6.35,21.66,8.37,10.26,2.74,21.02,2.47,31.38.37,10.41-2.13,20.64-6.81,26.19-16.32,4.5-7.7,5.31-17,4.79-25.73-.76-12.58-3.49-26.16-11.55-36.22-10.06-12.56-26.42-17.85-41.72-20.43-22.96-3.88-47.27-3.22-70.45-1.74-16.03,1.03-34.42,2.83-47.74,12.79-13.26,9.93-18.84,28.58-18.54,44.54.16,8.94,2.67,18.24,9.1,24.74Z"/>
    <path class="st0" d="M239.74,130.27c-2-9.18-4.95-19.21-11.4-26.35-1.64-1.83-4.28-4.22-6.58-4.65-10.62,6.04-24.13,7.91-36.21,6.96-.9-.07-1.78-.16-2.65-.29.22,11.78-1.52,23.95-4.86,35.14-3.8,12.73-9.35,23.6-23.18,26.63-12.24,2.67-26.68-.15-36.84-7.55-17.24-12.56-14.32-40.07-9.94-58.77-1.03.26-2.07.52-3.11.75-2.06.45-4.36.9-6.69,1.1-2.64,8.76-3.99,18.19-4.13,27.27-.24,14.5,3.42,30.45,16.82,38.33,8.38,4.93,19.12,7.33,28.72,8.48,8.84,1.05,18.29.61,26.33-3.55,17.31-8.98,16.81-29.53,21.66-45.92,1.61-5.44,3.92-11.2,8.61-14.72,5.47-4.08,12.54-3.59,18.87-2.36,1.54.3.12,3.41-1.18,3.16-11.05-2.15-19.26.08-23.2,11.27-3.45,9.79-4.01,20.35-7.35,30.17-4.98,14.55-16.78,23.94-32.11,25.35-10.11.94-20.33-1.07-29.96-4.07-7.64-2.38-14.77-5.31-20.1-11.51-13.76-15.97-11.07-42.65-5.27-61.78-4.09.03-8.06-.94-10.71-4.21-.98-1.21-1.78-2.62-2.4-4.16-7.86.3-15.79-.98-22.31-5-.88,1.62-2.23,3.08-3.4,4.27-6.62,6.79-15.47,10.32-23.68,14.66-15.7,8.29-27.48,25.16-31.88,42.16-1.65,6.41-2.72,14.3.49,20.43,4.4,8.4,14.79,7.58,22.5,4.82,7.86-2.83,14.88-7.6,23.56-6.16,2.53.41,5.31,1.52,8.17,2.7.36.14.71.29,1.08.44,5.21,2.13,10.6,4.22,15.2,2.59,8-2.85,10.03-17.98,2.44-22.42-2.62-1.54-5.99-2.14-9.02-2.01-1.45.06-.16-3.1,1.18-3.16,4.09-.16,8.88.99,11.87,3.9,5.8,5.67,2.84,16.42-1.22,22.2-4.5,6.42-11.01,5.47-17.64,3.14-1.26-.45-2.53-.93-3.8-1.4-3.01,4.63-4.94,11.38,1.44,14,5.46,2.25,12.26,2.08,18,3.76,4.56,1.33,9.02,3.05,13.28,5.16,14.3,7.12,24.97,20.47,39.7,26.55,1.72-1.75,3.68-3.23,5.63-4.37,10.41-6.11,24.47-6.94,36.29-6.75,11.03.2,24.24,1.69,32.97,9.18,8.04,6.88,8.98,20.35,7.61,30.19-.97,6.92-4.52,11.61-9.92,14.46.72.23,1.45.52,2.15.87,7.57,3.78,12.88,14.28,12.27,23.21,16.3.39,20.55-22.01,22.74-34.31,3.77-21.17,4.29-42.92,4.68-64.38.39-21.13,1.01-42.67-3.5-63.45Z"/>
  </g>
</svg>