<?xml version="1.0" encoding="UTF-8"?>
<svg id="Layer_1" xmlns="http://www.w3.org/2000/svg" version="1.1" viewBox="0 0 243.5 313.31">
  <!-- Generator: Adobe Illustrator 30.5.1, SVG Export Plug-In . SVG Version: 2.1.4 Build 3)  -->
  <defs>
    <style>
      .st0 {
        fill: #2d2e2d;
      }
    </style>
  </defs>
  <path class="st0" d="M18.53,222.62c-.77,7.11-1.55,14.23-2.33,21.34,8.14,1.05,16.28,2.09,24.42,3.14.06-.74.1-1.46.16-2.18,0-.16,0-.33.05-.52.54-7.18,1.08-14.35,1.62-21.54-1.21.15-2.4.29-3.61.43-6.26.68-14,1.56-20.31-.67Z"/>
  <path class="st0" d="M21.2,111.04c7.61,0,11.92-6.5,14.4-12.91.64-1.64,3.02-1.93,2.18.21-1.05,2.69-2.37,5.46-4.07,7.92h0c4.56-2.49,9.27-4.75,13.84-7.57,3.1-1.92,9.87-6.15,11.27-9.85-1.84-1.33-3.55-2.91-5.09-4.77-6.81-8.23-8.49-19.55-7.7-29.9.87-11.46,4.23-23.11,10.72-32.48-6.87-9.06-19.01-12.69-29.64-8.52-8.94,3.52-16.12,10.02-13.05,20.16,1.95,6.42,5.71,12.16,8.16,18.38,3.96,10.03,6.15,24.13-.25,33.66-3.54,5.27-8.5,6.86-13.76,9.81-4.42,2.51-1.92,7.21.79,10.16,3.06,3.33,7.61,5.7,12.18,5.7h.01Z"/>
  <path class="st0" d="M62.15,244.21c0-.33.18-.64.18-.98-.09.2-.18.51-.18.98Z"/>
  <path class="st0" d="M63.91,231.34c.29-2.4.59-4.8.87-7.21-2.7-1.2-5.55-1.99-8.86-2.13-3.69-.17-7.39.16-11.07.57-.52,6.7-1.02,13.41-1.53,20.11,3.54.68,7.37.56,10.93.59,2.19.02,4.4.05,6.58-.14.88-.07,1.31-.17,1.49-.21-.02-3.75,1.1-7.88,1.57-11.6l.02.02Z"/>
  <path class="st0" d="M66.99,225.21c-.35,2.82-.68,5.63-1.03,8.43-.15,1.14-.2,2.56-.28,4.06,4.11,1,8.24,2,12.36,3.01.52-2.47,1.02-4.94,1.54-7.41-2.6-1.76-5.17-3.53-7.75-5.19-1.64-1.07-3.24-2.05-4.85-2.9h0Z"/>
  <path class="st0" d="M22.56,275.93c8.55-3.18,15.66-4.07,24.87-2.95,8.2.98,16.39,1.33,24.62.28,20.62-2.67,37.61-13.63,48.06-31.03-1.61.95-3.28,1.74-4.6,2.25-1.15.45-2.32.75-3.5.95-10.5,9.85-26.42,14.74-40.38,15.88-13.16,1.07-26.52-1.34-39.45-3.61-6.39-1.13-13.25-3.31-19.79-3.23-6.77.09-10.49,6.62-10,13.04.78,10.24,12.48,11.27,20.18,8.41h-.01Z"/>
  <path class="st0" d="M24.09,220.48c9.09,1.4,18.38-.98,27.45-1.53,5.77-.36,10.32.41,14.79,2.29.45-.17.87-.09.99.43,2.23,1.01,4.46,2.3,6.84,3.85,2.6,1.69,5.18,3.46,7.79,5.21.05.02.08.05.11.07,5.64,3.77,11.41,7.38,17.74,9.72,3.87,1.43,8.16,2.42,12.31,1.88.18-.09.33-.1.46-.06.78-.13,1.55-.29,2.31-.53,1.24-.4,6.55-2.82,7.77-4.24.08-.16.16-.31.23-.46.01-.03.02-.07.02-.09-.17-1.26-1.75-1.51-2.77-1.91-5.11-2.02-10.27-3.53-15.07-6.34-4.5-2.64-8.62-5.99-12.95-8.92-7.98-5.37-16.42-9.8-25.71-12.43-11.1-3.14-22.65-3.26-33.94-5.37-7.6-1.43-15.34-3.96-21.43,1.74-.74,8.03,2.21,15.03,13.04,16.7h.02Z"/>
  <path class="st0" d="M32.25,198.62c14.95,2.85,30.11,2.86,44.39,8.75,11.14,4.6,19.89,12.4,30.15,18.42,5.26,3.08,11.83,3.94,16.88,7.08.12.07.21.14.32.21.54-1.69,1.4-3.3,2.47-4.77-7.63-3.31-13.94-8.88-20.43-14-8.71-6.86-17.97-12.83-28.56-16.39-6.61-2.22-13.64-2.39-20.2-4.41-3.22-.99-5.67-2.99-6.23-6.41-.66-3.94,1.16-8.24,3.34-11.71-3.34-1.21-6.75-2.25-10.31-2.4-6.03-.25-11.39,2.92-16.8,5.13-.56.23-1.14.46-1.72.69h-.01c1.44,6.26-2.38,13.59-5.91,18.81,3.96-.45,8.19.17,12.61,1.01h0Z"/>
  <path class="st0" d="M124.83,135.19c-1.56,1.69-4.13,3.78-5.11,5.96-1.17,7.01,8.6,11.1,13.69,7.56,2.65-1.85,5.19-3.92,7.69-6.03-.45-.57-.9-1.13-1.33-1.63-3.25-3.76-6.47-7.55-9.64-11.38-1.79,1.8-3.56,3.64-5.29,5.52h-.01Z"/>
  <path class="st0" d="M145.24,142.24c.49.57,1,1.14,1.52,1.71,1.68,1.86,3.76,5.05,6.03,6.24,5.03,2.67,10.69-3.49,10.25-8.31-.33-3.69-3.42-7.37-5.7-10.22-.09-.11-.17-.22-.26-.33-.39-.48-.78-.97-1.17-1.45-2.91-3.51-6.07-6.8-9.3-10.02-1-.99-2-1.98-3.01-2.94-.54-.53-1.08-1.05-1.63-1.56-3.23-3.07-6.54-6.06-9.93-8.94-3.7-2.98-8.43-4.07-11.2.82-1.18,2.1-1.08,2.99-.21,4.84,1.67,3.48,4.96,6.75,7.35,9.72,1.02,1.28,2.06,2.55,3.1,3.83.46.57.92,1.14,1.38,1.7,3.67,4.45,7.4,8.84,11.22,13.16.51.59,1.02,1.17,1.56,1.76h0Z"/>
  <path class="st0" d="M169.14,114.9c-1.76-4.46-6.86-9.62-11.95-7.91-3.76,1.28-7.22,4.57-10.22,7.06-.24.2-.48.4-.72.62,4.29,4.11,8.39,8.45,12.11,13.02,2.6-2.32,5.18-4.64,7.76-6.99,2.61-2.37,4.25-2.71,3.02-5.8Z"/>
  <path class="st0" d="M198.91,271.08c-7.09-1.76-16.64,2.4-19.42,9.47,3.53-1.87,8.26-2.22,11.15.82,3.28,3.44,2.45,10.63-1.32,13.43-4.3,3.22-9.95-.2-11.96-4.41-2.21-4.6-.79-9.8,2.05-13.74,3.65-5.09,9.85-8.78,16.15-9.09,0-.01.02-.01.03-.01,6.23-1.49,11.32-4.22,12.92-10.85,1.52-6.34.7-14.49-.83-20.73-2.79-11.4-15.34-15.65-25.67-17.3-11.74-1.87-24.24-1.4-35.84,1.13-4.8,1.05-11.99,3.4-16.4,7.57h0c-.25.66-.78,1.3-1.36,1.49-1.45,1.76-2.38,3.79-2.53,6.14.09.22.07.53-.1.95-.06.46-.21.97-.51,1.54-.23.44-.53.87-.88,1.3-11.16,21.65-30.78,35.37-55.35,37.84-9.71.97-18.87-.55-28.51-1.09-5.56-.31-10.71.41-15.87,2.41-2.86,1.11-5.6,2.31-8.7,2.57-.67.06-1.33.07-2,.07h0c-3.42,9.58-1.93,21.71,6.73,27.94,13.15,9.46,28.71-.71,41.84-4.46,24.9-7.09,49.33,4.94,73.97,7.68,18.92,2.11,39.55,2.75,58.03-2.46,7.02-1.98,16.42-5.54,18.47-13.47.09-.36.17-.71.23-1.08h0c.03-.17.06-.33.08-.51,0-.02,0-.05,0-.07,1.2-9.04-5.64-20.9-14.4-23.09h0ZM167.32,242.03c-7.06,1.56-12.76,6.8-16.71,12.64-5.03,7.41-6.45,15.45-13.59,21.5-.1.07-.2.15-.29.22,4.59,10.72,14.77,19.12,26.2,21.67,1.54.34.1,3.44-1.18,3.15-12.16-2.71-22.71-11.51-27.49-22.93-8.64,6.14-19.44,8.96-29.87,9.93-8.71.82-17.35-.23-26.06-.01-8.42.21-16.81,1.33-25.01,3.29-7.32,1.76-14.84,4-21.54,7.5-1.8.94-1.21-2.24-.05-2.85,8.26-4.32,17.69-6.95,26.78-8.76,7.9-1.56,15.96-2.38,24.01-2.37,9.66,0,19.04.92,28.65-.7,7.69-1.3,16.48-3.99,23.24-8.88.29-.36.63-.63.97-.71,3.24-2.54,5.95-5.62,7.73-9.37,4.15-8.7,7.68-16.78,16.01-22.48,11.89-8.15,24.56-3.62,34.44,5.47,1.07.99-.77,3.86-1.72,2.99-6.68-6.14-15.07-11.4-24.51-9.31h-.01Z"/>
  <path class="st0" d="M57.45,83.22c6.49,6.55,15.47,8.65,24.4,8.63-2.21-9.39,1.22-21.48,10.58-24.17,1.65-.48.64,2.75-.59,3.09-7.06,2.03-8.47,10.35-7.6,16.62.22,1.56.52,3.16.98,4.67.01,0,.01.01.01.02.01.06.03.13.06.2,0,.01,0,.02.01.05.99,3.08,2.72,5.75,6.08,7.01,4.05,1.52,8.81.76,12.92-.07,17-3.42,32.57-12.69,50-6.41,7.3,2.63,14.12,6.35,21.66,8.37,10.26,2.74,21.02,2.47,31.38.37,10.41-2.13,20.64-6.81,26.19-16.32,4.5-7.7,5.31-17,4.79-25.73-.76-12.58-3.49-26.16-11.55-36.22-10.06-12.56-26.42-17.85-41.72-20.43-22.96-3.88-47.27-3.22-70.45-1.74-16.03,1.03-34.42,2.83-47.74,12.79-13.26,9.93-18.84,28.58-18.54,44.54.16,8.94,2.67,18.24,9.1,24.74h.03Z"/>
  <path class="st0" d="M239.71,130.25c-2-9.18-4.95-19.21-11.4-26.35-1.64-1.83-4.28-4.22-6.58-4.65-10.62,6.04-24.13,7.91-36.21,6.96-.9-.07-1.78-.16-2.65-.29.22,11.78-1.52,23.95-4.86,35.14-3.8,12.73-9.35,23.6-23.18,26.63-12.24,2.67-26.68-.15-36.84-7.55-17.24-12.56-14.32-40.07-9.94-58.77-1.03.26-2.07.52-3.11.75-2.06.45-4.36.9-6.69,1.1-2.64,8.76-3.99,18.19-4.13,27.27-.24,14.5,3.42,30.45,16.82,38.33,8.38,4.93,19.12,7.33,28.72,8.48,8.84,1.05,18.29.61,26.33-3.55,17.31-8.98,16.81-29.53,21.66-45.92,1.61-5.44,3.92-11.2,8.61-14.72,5.47-4.08,12.54-3.59,18.87-2.36,1.54.3.12,3.41-1.18,3.16-11.05-2.15-19.26.08-23.2,11.27-3.45,9.79-4.01,20.35-7.35,30.17-4.98,14.55-16.78,23.94-32.11,25.35-10.11.94-20.33-1.07-29.96-4.07-7.64-2.38-14.77-5.31-20.1-11.51-13.76-15.97-11.07-42.65-5.27-61.78-4.09.03-8.06-.94-10.71-4.21-.98-1.21-1.78-2.62-2.4-4.16-7.86.3-15.79-.98-22.31-5-.88,1.62-2.23,3.08-3.4,4.27-6.62,6.79-15.47,10.32-23.68,14.66-15.7,8.29-27.48,25.16-31.88,42.16-1.65,6.41-2.72,14.3.49,20.43,4.4,8.4,14.79,7.58,22.5,4.82,7.86-2.83,14.88-7.6,23.56-6.16,2.53.41,5.31,1.52,8.17,2.7.36.14.71.29,1.08.44,5.21,2.13,10.6,4.22,15.2,2.59,8-2.85,10.03-17.98,2.44-22.42-2.62-1.54-5.99-2.14-9.02-2.01-1.45.06-.16-3.1,1.18-3.16,4.09-.16,8.88.99,11.87,3.9,5.8,5.67,2.84,16.42-1.22,22.2-4.5,6.42-11.01,5.47-17.64,3.14-1.26-.45-2.53-.93-3.8-1.4-3.01,4.63-4.94,11.38,1.44,14,5.46,2.25,12.26,2.08,18,3.76,4.56,1.33,9.02,3.05,13.28,5.16,14.3,7.12,24.97,20.47,39.7,26.55,1.72-1.75,3.68-3.23,5.63-4.37,10.41-6.11,24.47-6.94,36.29-6.75,11.03.2,24.24,1.69,32.97,9.18,8.04,6.88,8.98,20.35,7.61,30.19-.97,6.92-4.52,11.61-9.92,14.46.72.23,1.45.52,2.15.87,7.57,3.78,12.88,14.28,12.27,23.21,16.3.39,20.55-22.01,22.74-34.31,3.77-21.17,4.29-42.92,4.68-64.38.39-21.13,1.01-42.67-3.5-63.45h-.02Z"/>
</svg>